<svg width="100" height="100" viewBox="0 0 100 100" fill="none" xmlns="http://www.w3.org/2000/svg">
<g clip-path="url(#clip0_867_22493)">
<path d="M98.0144 29.7939C98.3887 29.7939 98.7631 29.9079 99.0886 30.152C99.3979 30.3799 99.5932 30.6891 99.7071 30.9658C99.935 31.5029 100 32.154 100 32.805C100 33.1631 99.9512 33.6025 99.8861 34.042V34.1071L91.6016 77.2223C90.9506 80.8193 90.2182 83.6351 89.3881 85.637C88.5743 87.6064 87.614 89.1527 86.3607 90.0316C85.14 90.8942 83.6101 91.2848 81.8685 91.3336H81.3803C78.7761 91.3336 76.6114 90.6501 75.3744 88.9248C75.3581 88.9085 75.3581 88.9085 75.3419 88.8922C75.3256 88.8597 75.293 88.8271 75.2605 88.7946C74.9675 88.404 74.8536 87.9482 74.7885 87.5902C74.7071 87.1344 74.6745 86.5973 74.6745 85.9951C74.6745 84.807 74.7722 83.7978 75.0163 83.0329C75.2442 82.3167 75.7976 81.3402 77.002 81.3402L77.2136 81.3564C77.2461 81.3564 77.2787 81.3727 77.295 81.3727C77.3438 81.389 77.3926 81.389 77.4252 81.4053C77.5228 81.4215 77.6368 81.4541 77.7833 81.5029L79.0202 81.861H79.0365L80.2735 82.2028C80.42 82.2353 80.5502 82.2679 80.6316 82.2842C80.6967 82.3004 80.7292 82.3004 80.7455 82.3004C80.7455 82.3004 80.7618 82.3004 80.778 82.2842C80.7943 82.2679 80.8432 82.2516 80.9083 82.1865C81.0547 82.04 81.2663 81.7633 81.4942 81.2588C81.9174 80.3148 82.1778 78.8662 82.1778 76.7991C82.1778 76.6852 82.129 76.2458 81.9662 75.3506C81.8197 74.5205 81.5919 73.3649 81.2826 71.9163L72.168 34.0094L72.1517 33.9443V33.8955C72.0866 33.456 72.0378 33.0329 72.0378 32.7073C72.0378 32.1051 72.1029 31.4866 72.3145 30.9821C72.4284 30.7217 72.6075 30.4287 72.8842 30.1846C73.1934 29.9404 73.5678 29.8102 73.9421 29.8102H79.5736C80.3223 29.8102 80.9896 30.0869 81.5105 30.624L81.7221 30.8682C81.9174 31.1286 82.0476 31.4215 82.1615 31.7145C82.308 32.1051 82.4057 32.5446 82.487 33.0329L87.435 59.2698L91.3086 33.2282C91.4389 32.2842 91.6667 31.3727 92.1387 30.7705C92.627 30.152 93.3106 29.8265 94.0919 29.8265H97.9981L98.0144 29.7939ZM58.9193 8.00031C59.3425 8.00031 59.7494 8.11425 60.1238 8.37466C60.4818 8.6188 60.726 8.9606 60.8887 9.3024C61.198 9.95344 61.2956 10.7835 61.2956 11.6624V29.7614C61.2956 29.7777 61.2956 29.7939 61.2956 29.8102H66.5691C66.976 29.8102 67.3829 29.9079 67.7409 30.152C68.099 30.3799 68.3432 30.7054 68.5222 31.0472C68.8477 31.682 68.9454 32.4795 68.9454 33.3096V35.8161C68.9454 36.6299 68.8477 37.4111 68.5222 38.0459C68.3432 38.3714 68.099 38.6969 67.7409 38.9248C67.3829 39.1527 66.976 39.2503 66.5853 39.2503H61.2956V62.9808C61.2956 64.7386 61.4096 66.1546 61.6212 67.2451C61.849 68.3682 62.1257 69.0192 62.3861 69.3447C62.5814 69.5889 62.7442 69.7516 62.8907 69.8656L63.2488 70.0934L63.265 70.1097L63.737 70.2399C63.9324 70.2725 64.1602 70.2887 64.4369 70.2887H67.7409C68.4734 70.2887 69.1895 70.5654 69.6615 71.2327C70.0847 71.8187 70.1986 72.5511 70.1986 73.2184V76.0179C70.1986 76.7503 70.0684 77.5316 69.6452 78.1501C69.157 78.8337 68.4245 79.1266 67.6433 79.1266L62.907 79.1429C61.6049 79.1429 60.4655 79.0452 59.4564 78.8662C58.3659 78.6546 57.2754 78.1989 56.185 77.5478C55.0131 76.8317 54.0691 75.8714 53.3366 74.6507C52.6042 73.43 52.0508 71.8024 51.6277 69.8493C51.2045 67.8636 50.9929 65.5198 50.9929 62.8506V39.2666H48.8119C48.4213 39.2666 48.0144 39.1689 47.6563 38.9411C47.2982 38.7132 47.0541 38.3877 46.8751 38.0622C46.5495 37.4274 46.4519 36.6461 46.4519 35.8323V33.3258C46.4519 32.4958 46.5495 31.6982 46.8751 31.0635C47.0541 30.7217 47.2982 30.4124 47.6563 30.1683C48.0144 29.9241 48.4213 29.8265 48.8282 29.8265H51.0092V29.7288L51.8555 11.6299V11.6136L51.9044 10.9788C51.9857 10.3603 52.1159 9.7744 52.3438 9.3024C52.6856 8.6188 53.3204 8.01659 54.2644 8.01659H58.9193V8.00031ZM15.2995 9.90461C15.5925 9.95344 15.8855 10.0511 16.1622 10.2464C16.504 10.4905 16.7318 10.8161 16.8783 11.1253C17.155 11.7275 17.2527 12.4925 17.2527 13.2738V74.7646C17.2527 75.8551 17.155 76.8154 16.862 77.5478C16.7156 77.9222 16.4877 78.3128 16.1459 78.6058C15.7715 78.9313 15.3158 79.0941 14.8275 79.0941H7.7149C7.22662 79.0941 6.77089 78.915 6.39655 78.5895C6.05475 78.2803 5.84316 77.8896 5.71295 77.5316C5.43626 76.7991 5.3386 75.8551 5.3386 74.7646V23.3649C4.55735 23.5602 3.92259 23.723 3.46686 23.8369C3.15761 23.9183 2.91347 23.9671 2.75071 24.0159C2.66933 24.0322 2.60423 24.0485 2.5554 24.0648C2.53912 24.0648 2.50657 24.081 2.47402 24.081C2.45774 24.081 2.44147 24.081 2.42519 24.0973C2.42519 24.0973 2.39264 24.0973 2.37636 24.0973C2.37636 24.0973 2.34381 24.0973 2.31126 24.0973C2.29498 24.0973 2.26243 24.0973 2.24615 24.0973C2.22988 24.0973 2.2136 24.0973 2.2136 24.0973C1.85553 24.1136 1.48118 24.0322 1.13938 23.8206C0.765035 23.5928 0.520894 23.2672 0.37441 22.958C0.0814411 22.3558 6.10352e-05 21.5908 6.10352e-05 20.8421V16.3825C6.10352e-05 15.6663 0.113993 14.9502 0.423238 14.3642C0.765035 13.7295 1.31842 13.29 2.01829 13.1273L14.3067 9.95344C14.5346 9.88834 14.7787 9.87206 15.0228 9.87206L15.3158 9.88834L15.2995 9.90461ZM38.7045 9.82323C38.9975 9.87206 39.2904 9.96972 39.5508 10.165C39.8926 10.4092 40.1205 10.7347 40.267 11.0439C40.5437 11.6461 40.6251 12.4111 40.6251 13.1924V74.6833C40.6251 75.7738 40.5274 76.734 40.2344 77.4665C40.0879 77.8408 39.8601 78.2314 39.5183 78.5244C39.1439 78.8499 38.6882 79.0127 38.1999 79.0127H31.0873C30.599 79.0127 30.1433 78.8337 29.7689 78.5081C29.4271 78.1989 29.2156 77.8083 29.0853 77.4502C28.8087 76.7178 28.711 75.7738 28.711 74.6833V23.2835C27.9297 23.4788 27.295 23.6416 26.8393 23.7555C26.53 23.8369 26.2859 23.8857 26.1231 23.9346C26.0417 23.9508 25.9766 23.9671 25.9278 23.9834C25.9115 23.9834 25.879 23.9997 25.8464 23.9997C25.8301 23.9997 25.8139 23.9997 25.7976 24.0159C25.7813 24.0159 25.765 24.0159 25.7488 24.0159C25.7488 24.0159 25.7162 24.0159 25.6837 24.0159C25.6674 24.0159 25.6511 24.0159 25.6348 24.0159C25.6185 24.0159 25.6023 24.0159 25.586 24.0159C25.2279 24.0322 24.8536 23.9508 24.5118 23.7392C24.1374 23.5114 23.8933 23.1859 23.7468 22.8766C23.4538 22.2744 23.3725 21.5257 23.3725 20.7607V16.3011C23.3725 15.585 23.4864 14.8851 23.7956 14.2829C24.1374 13.6481 24.6908 13.2086 25.3907 13.0459L37.6628 9.88834C37.8907 9.82323 38.1348 9.80696 38.379 9.80696L38.6719 9.82323H38.7045Z" fill="black"/>
</g>
<defs>
<clipPath id="clip0_867_22493">
<rect width="100" height="100" fill="white"/>
</clipPath>
</defs>
</svg>
