<svg width="100" height="100" viewBox="0 0 100 100" fill="none" xmlns="http://www.w3.org/2000/svg">
<g clip-path="url(#clip0_867_22332)">
<path d="M17.7086 1H82.2919C92.0836 1 100 8.91667 100 18.7083V80.7917C100 90.5833 92.0836 98.5 82.2919 98.5H17.7086C7.91691 98.5 0.000244141 90.5833 0.000244141 80.7917V18.7083C0.000244141 8.91667 7.91691 1 17.7086 1Z" fill="#00005B"/>
<path d="M40.1669 59.3333H24.6669L21.5003 69.1667C21.4169 69.5417 21.0836 69.7916 20.7086 69.75H12.8753C12.4169 69.75 12.2919 69.5 12.4169 69L25.8336 30.5416C25.9586 30.125 26.0836 29.75 26.2503 29.25C26.4169 28.375 26.5003 27.4583 26.5003 26.5416C26.4586 26.3333 26.6253 26.125 26.8336 26.0833H26.9586H37.6253C37.9169 26.0833 38.1253 26.2083 38.1669 26.4166L53.3753 68.9166C53.5003 69.375 53.3753 69.5833 52.9586 69.5833H44.2503C43.9586 69.625 43.6669 69.4166 43.5836 69.125L40.1669 59.125V59.3333ZM27.0836 51.0416H37.6669C37.4169 50.1666 37.0836 49.125 36.7086 48.0416C36.3336 46.9166 35.9586 45.7083 35.5836 44.4583C35.1669 43.1666 34.7919 41.9166 34.3753 40.625C33.9586 39.3333 33.5836 38.125 33.2503 36.9166C32.9169 35.75 32.6253 34.6666 32.3336 33.6666H32.2503C31.8753 35.4583 31.4169 37.25 30.8336 39.0416C30.2086 41.0416 29.5836 43.125 28.9169 45.2083C28.3753 47.3333 27.7086 49.2916 27.0836 51.0416Z" fill="#9999FF"/>
<path d="M77.9169 55.5833H64.7085C64.8752 56.875 65.2919 58.1666 66.0002 59.2916C66.7502 60.4166 67.7919 61.2916 69.0419 61.7916C70.7085 62.5 72.5419 62.875 74.3752 62.8333C75.8335 62.7916 77.2919 62.6666 78.7085 62.375C80.0002 62.2083 81.2502 61.875 82.4169 61.4166C82.6252 61.25 82.7502 61.3333 82.7502 61.75V68.125C82.7502 68.2916 82.7085 68.4583 82.6669 68.625C82.5835 68.75 82.5002 68.8333 82.3752 68.9166C81.0419 69.5 79.6669 69.9166 78.2085 70.1666C76.2502 70.5416 74.2919 70.7083 72.2919 70.6666C69.1252 70.6666 66.4585 70.1666 64.2919 69.2083C62.2502 68.3333 60.4585 66.9583 59.0419 65.25C57.7085 63.625 56.7502 61.7916 56.1669 59.7916C55.5835 57.8333 55.2919 55.7916 55.2919 53.7083C55.2919 51.4583 55.6252 49.25 56.3335 47.0833C57.0002 45 58.0419 43.0833 59.4585 41.375C60.8335 39.7083 62.5419 38.375 64.5002 37.4166C66.4585 36.4583 68.7919 36.125 71.4585 36.125C73.6669 36.0833 75.8752 36.5 77.9169 37.4166C79.6252 38.1666 81.1252 39.2916 82.2919 40.75C83.3752 42.1666 84.2502 43.75 84.7919 45.5C85.3335 47.1666 85.5835 48.875 85.5835 50.5833C85.5835 51.5833 85.5419 52.4583 85.5002 53.25C85.4169 54.0416 85.3752 54.625 85.3335 55C85.2919 55.2916 85.0419 55.5416 84.7502 55.5416C84.5002 55.5416 84.0419 55.5833 83.3752 55.625C82.7085 55.7083 81.9169 55.75 80.9585 55.75C80.0002 55.75 79.0002 55.5833 77.9169 55.5833ZM64.7085 49.5H73.5002C74.5835 49.5 75.3752 49.5 75.8752 49.4583C76.2085 49.4166 76.5419 49.3333 76.8335 49.125V48.7083C76.8335 48.1666 76.7502 47.6666 76.5835 47.1666C75.8335 44.8333 73.6252 43.25 71.1669 43.3333C68.8752 43.2083 66.7085 44.4166 65.6252 46.5C65.1252 47.4583 64.8335 48.4583 64.7085 49.5Z" fill="#9999FF"/>
</g>
<defs>
<clipPath id="clip0_867_22332">
<rect width="100" height="100" fill="white"/>
</clipPath>
</defs>
</svg>
