<svg width="100" height="100" viewBox="0 0 100 100" fill="none" xmlns="http://www.w3.org/2000/svg">
<path fill-rule="evenodd" clip-rule="evenodd" d="M26.9583 70.8332L25.4292 65.879H11.325L9.79167 70.8332H0L14.1583 30.0457H22.6L36.9333 70.8332H26.9583ZM18.4083 41.6957L13.5333 58.479H23.1667L18.4083 41.6957ZM38.0208 30.0457H47.3125V70.8332H38.0208V30.0457ZM49.8125 62.4999C50.2292 60.4874 50.9667 58.5582 51.9958 56.7915C52.8875 55.2957 54.0042 53.9582 55.3083 52.829C56.6417 51.6915 58.05 50.6624 59.5292 49.7415C60.6958 49.0415 61.7792 48.3665 62.7833 47.729C63.7083 47.1457 64.5875 46.4957 65.4167 45.779C66.1333 45.1624 66.7375 44.4249 67.2 43.5915C67.6458 42.7624 67.8667 41.829 67.8542 40.8832C67.8542 39.2499 67.4208 38.0749 66.55 37.3582C65.6372 36.6241 64.4916 36.2412 63.3208 36.279C61.9879 36.2412 60.6945 36.7343 59.725 37.6499C58.7625 38.5624 58.2792 40.0874 58.2792 42.2249H49.1667C49.1493 40.4524 49.4659 38.6926 50.1 37.0374C50.7083 35.4665 51.6458 34.054 52.85 32.8999C54.125 31.6915 55.6292 30.7582 57.2667 30.1624C59.1883 29.4694 61.22 29.1319 63.2625 29.1665C65.0125 29.1582 66.7625 29.404 68.4458 29.8957C70.0125 30.3415 71.4875 31.0915 72.7792 32.1082C74.05 33.1332 75.0708 34.4499 75.7542 35.954C76.525 37.6999 76.9 39.5999 76.8583 41.5165C76.8792 43.1415 76.5083 44.7415 75.7792 46.1832C75.0833 47.5499 74.1958 48.8082 73.1458 49.9082C72.1208 50.9874 70.9917 51.9499 69.7792 52.7957C68.5708 53.629 67.4708 54.3374 66.4917 54.9207C65.1333 55.854 64.0083 56.6582 63.1208 57.3374C62.358 57.9054 61.6469 58.5399 60.9958 59.2332C60.5057 59.7524 60.1296 60.3684 59.8917 61.0415C59.674 61.7384 59.5699 62.4658 59.5833 63.1957H76.575V70.8332H49.05C49.0006 68.036 49.2563 65.2417 49.8125 62.4999ZM78.3333 37.2082C79.9212 37.2413 81.5077 37.0945 83.0625 36.7707C84.1042 36.5665 85.0792 36.1207 85.9208 35.4624C86.6 34.8832 87.0875 34.1124 87.3375 33.2457C87.6208 32.204 87.7542 31.1207 87.7333 30.0374H95.8333V70.8332H86.4875V43.854H78.3333V37.2082Z" fill="black"/>
</svg>
