<svg width="100" height="100" viewBox="0 0 100 100" fill="none" xmlns="http://www.w3.org/2000/svg">
<g clip-path="url(#clip0_868_39427)">
<path d="M39.8042 39.0752H19.9042V20.146H35.9167C38.0542 20.146 39.8 18.396 39.8 16.2627V0.241852H58.7333V20.146C58.7339 22.6323 58.2445 25.0944 57.2932 27.3915C56.3418 29.6886 54.9471 31.7758 53.1889 33.5337C51.4306 35.2916 49.3431 36.6858 47.0458 37.6366C44.7485 38.5874 42.2863 39.0763 39.8 39.0752H39.8042ZM19.9042 41.021H0V59.9502H16.0208C18.1542 59.9502 19.9042 61.7002 19.9042 63.8335V79.8543H38.8333V59.9502C38.8339 57.4642 38.3446 55.0025 37.3935 52.7057C36.4425 50.4088 35.0482 48.3219 33.2903 46.564C31.5325 44.8062 29.4455 43.4119 27.1487 42.4608C24.8519 41.5097 22.3901 41.0205 19.9042 41.021ZM83.5417 40.0419C82.5127 40.0386 81.5269 39.6284 80.7994 38.9008C80.0718 38.1733 79.6616 37.1874 79.6583 36.1585V20.146H60.7292V40.0419C60.7281 42.5282 61.2169 44.9903 62.1678 47.2877C63.1186 49.585 64.5128 51.6724 66.2707 53.4307C68.0286 55.189 70.1157 56.5837 72.4128 57.535C74.7099 58.4863 77.172 58.9757 79.6583 58.9752H99.5625V40.0502H83.5417V40.0419ZM40.7792 79.8585V99.7627H59.7125V83.7418C59.7125 81.6043 61.4625 79.8585 63.5958 79.8585H79.6167V60.9169H59.7083C57.2217 60.9158 54.7592 61.4047 52.4616 62.3558C50.164 63.3069 48.0763 64.7015 46.318 66.4599C44.5597 68.2182 43.1651 70.3058 42.214 72.6034C41.2629 74.901 40.7739 77.3635 40.775 79.8502L40.7792 79.8585Z" fill="#F0529C"/>
</g>
<defs>
<clipPath id="clip0_868_39427">
<rect width="100" height="100" fill="white"/>
</clipPath>
</defs>
</svg>
