<svg width="100" height="100" viewBox="0 0 100 100" fill="none" xmlns="http://www.w3.org/2000/svg">
<g clip-path="url(#clip0_867_22786)">
<path fill-rule="evenodd" clip-rule="evenodd" d="M50 4.71777e-05H50.075C56.2125 -0.00828616 62.075 1.08755 67.4875 3.14171C86.4792 10.2334 100 28.5417 100 50C100 77.6125 77.6125 100 50 100C22.3875 100 0 77.6125 0 50C0 22.3875 22.3875 4.71777e-05 50 4.71777e-05ZM85.85 79.0292C92.5131 70.8233 96.1422 60.5705 96.125 50C96.125 42.8459 94.5 36.0667 91.5875 30.025C89.9939 31.9315 87.7913 33.2297 85.3515 33.7004C82.9117 34.171 80.3842 33.7853 78.1958 32.6084C76.1695 31.4828 74.3017 30.0928 72.6417 28.475C67.8458 23.875 62.9542 19.4167 57.0667 16.25C43.6875 9.04588 28.6292 9.99588 16.6708 18.1125C8.4444 26.6883 3.85847 38.1165 3.875 50C3.875 56.9292 5.40417 63.5042 8.14167 69.4042C11.2667 65.35 17.0208 63.7959 21.6083 66.4459C24.3875 68.0459 26.8458 70.2792 29.2625 72.475L29.9958 73.1417C35.6833 78.2834 41.6375 82.9542 48.9875 85.4959C61.7083 89.8834 75.4708 87.3167 85.85 79.0292Z" fill="url(#paint0_linear_867_22786)"/>
<path d="M23.5127 42.9685C20.0544 43.4269 17.6752 46.1602 17.6461 49.7102C17.6204 51.4323 18.2175 53.1058 19.3276 54.4226C20.4377 55.7394 21.9861 56.6109 23.6877 56.8769C27.0419 57.4102 30.5211 55.1019 31.4794 51.6269C31.6711 50.931 31.7961 50.2185 31.9211 49.5019C32.0252 48.9185 32.1294 48.3269 32.2711 47.7519C33.5961 42.2644 37.4252 39.6269 43.8877 39.7102C48.4127 39.7644 49.3794 40.8394 50.8877 47.4394C50.9586 47.756 51.0669 48.0685 51.1794 48.381C52.2627 51.356 55.2461 53.256 58.1377 52.8185C59.6192 52.5853 60.9835 51.8732 62.0219 50.7912C63.0603 49.7091 63.7157 48.3167 63.8877 46.8269C64.2336 43.7894 62.4377 41.5602 59.2127 40.2644C57.7961 39.6977 56.4461 39.606 55.0669 39.6769C52.0419 39.831 50.3961 38.1769 49.4877 35.606C49.2127 34.7239 49.0256 33.8167 48.9294 32.8977C48.8711 32.5102 48.8169 32.1227 48.7502 31.7394C48.1002 28.0435 45.2711 25.4477 41.7961 25.356C38.5002 25.2727 35.6961 27.6519 34.8586 31.2644L34.6086 32.3894L34.5044 32.8769C33.0252 39.6935 30.4461 42.0644 23.5127 42.9685Z" fill="url(#paint1_linear_867_22786)"/>
<path d="M75.2455 56.8509C79.3664 55.9925 81.8163 53.3592 81.8788 49.78C81.9413 46.3217 79.2789 43.1884 75.7955 42.5967C72.5872 42.055 69.133 44.1925 68.1122 47.5134C67.8247 48.43 67.6247 49.38 67.4247 50.33C67.1747 51.5384 66.9164 52.7467 66.4872 53.8884C64.958 57.9967 59.8497 60.33 54.2955 59.6967C50.8622 59.3009 49.6872 57.8384 48.7039 52.7217C47.9539 48.8134 45.1039 46.3259 41.6997 46.6092C38.158 46.9009 35.3872 50.0634 35.583 53.58C35.7914 57.2967 38.408 59.58 42.6872 59.7842C48.4164 60.0509 49.9789 61.4342 50.7122 67.23C50.9914 69.4425 51.8247 71.2592 53.5664 72.5967C57.8164 75.8592 63.5955 73.4634 64.6497 67.98L64.7414 67.505C65.3747 64.1884 65.9914 60.9342 69.0747 58.7509C70.5747 57.6884 72.2455 57.3925 73.933 57.0967C74.3705 57.0175 74.808 56.9425 75.2455 56.8467V56.8509Z" fill="url(#paint2_linear_867_22786)"/>
<path d="M57.6247 33.171C57.6247 34.0053 57.2932 34.8055 56.7033 35.3954C56.1133 35.9854 55.3132 36.3168 54.4788 36.3168C53.6445 36.3168 52.8444 35.9854 52.2544 35.3954C51.6644 34.8055 51.333 34.0053 51.333 33.171C51.333 32.3367 51.6644 31.5365 52.2544 30.9465C52.8444 30.3566 53.6445 30.0251 54.4788 30.0251C55.3132 30.0251 56.1133 30.3566 56.7033 30.9465C57.2932 31.5365 57.6247 32.3367 57.6247 33.171Z" fill="url(#paint3_linear_867_22786)"/>
<path d="M45.0374 69.4916C45.8723 69.4916 46.673 69.1599 47.2633 68.5695C47.8537 67.9792 48.1854 67.1785 48.1854 66.3436C48.1854 65.5088 47.8537 64.7081 47.2633 64.1177C46.673 63.5274 45.8723 63.1957 45.0374 63.1957C44.2031 63.1957 43.403 63.5272 42.813 64.1171C42.223 64.7071 41.8916 65.5072 41.8916 66.3416C41.8916 67.1759 42.223 67.976 42.813 68.566C43.403 69.156 44.2031 69.4916 45.0374 69.4916Z" fill="url(#paint4_linear_867_22786)"/>
</g>
<defs>
<linearGradient id="paint0_linear_867_22786" x1="50" y1="4.71776e-05" x2="50" y2="100" gradientUnits="userSpaceOnUse">
<stop stop-color="#12B7FA"/>
<stop offset="1" stop-color="#006FFB"/>
</linearGradient>
<linearGradient id="paint1_linear_867_22786" x1="49.7627" y1="25.356" x2="49.7627" y2="74.0769" gradientUnits="userSpaceOnUse">
<stop stop-color="#006FFB"/>
<stop offset="1" stop-color="#12B7FA"/>
</linearGradient>
<linearGradient id="paint2_linear_867_22786" x1="49.7622" y1="25.355" x2="49.7622" y2="74.0759" gradientUnits="userSpaceOnUse">
<stop stop-color="#006FFB"/>
<stop offset="1" stop-color="#12B7FA"/>
</linearGradient>
<linearGradient id="paint3_linear_867_22786" x1="49.7622" y1="25.3543" x2="49.7622" y2="74.0751" gradientUnits="userSpaceOnUse">
<stop stop-color="#006FFB"/>
<stop offset="1" stop-color="#12B7FA"/>
</linearGradient>
<linearGradient id="paint4_linear_867_22786" x1="49.7624" y1="25.3541" x2="49.7624" y2="74.0749" gradientUnits="userSpaceOnUse">
<stop stop-color="#006FFB"/>
<stop offset="1" stop-color="#12B7FA"/>
</linearGradient>
<clipPath id="clip0_867_22786">
<rect width="100" height="100" fill="white"/>
</clipPath>
</defs>
</svg>
