<svg width="100" height="100" viewBox="0 0 100 100" fill="none" xmlns="http://www.w3.org/2000/svg">
<g clip-path="url(#clip0_867_22754)">
<path d="M50 100C77.6125 100 100 77.6125 100 50C100 22.3875 77.6125 0 50 0C22.3875 0 0 22.3875 0 50C0 77.6125 22.3875 100 50 100Z" fill="#006FFB"/>
<path fill-rule="evenodd" clip-rule="evenodd" d="M46.8334 34.9711C47.2292 32.2878 48.0917 28.8461 49.4334 24.6378L50 22.9003L50.5667 24.6378C51.9084 28.8461 52.775 32.2878 53.1667 34.9711C53.4625 36.9378 53.4625 39.4378 53.1667 42.4711C52.8667 45.517 52.8667 48.0378 53.1667 50.0295C53.6084 52.9461 54.9417 55.367 57.1667 57.2961C59.3327 59.226 62.1409 60.278 65.0417 60.2461C66.6182 60.2702 68.183 59.9723 69.6403 59.3704C71.0975 58.7686 72.4166 57.8756 73.5167 56.7461C75.85 54.417 77.025 51.6045 77.05 48.3128C77.0625 45.3961 77.3625 42.1795 77.95 38.6628C78.2375 36.9045 78.5334 35.4336 78.825 34.2461L79.2209 32.6461L79.9209 34.1295C81.93 38.3571 83.0098 42.9661 83.0875 47.6461V48.3128C83.101 52.7348 82.2164 57.1136 80.4875 61.1836C77.1307 69.1241 70.8113 75.4435 62.8709 78.8003C58.8005 80.5277 54.4218 81.4108 50 81.3961C45.5783 81.4109 41.1996 80.5278 37.1292 78.8003C29.1888 75.4435 22.8693 69.1241 19.5125 61.1836C17.7845 57.112 16.9014 52.7318 16.9167 48.3086V47.6461C16.9932 42.9664 18.0715 38.3574 20.0792 34.1295L20.7834 32.6461L21.1709 34.2503C21.4709 35.4336 21.7667 36.9045 22.05 38.6628C22.6375 42.1795 22.9375 45.3961 22.95 48.3128C22.975 51.6045 24.1584 54.417 26.4834 56.7461C28.8292 59.0795 31.6542 60.2461 34.9625 60.2461C37.9417 60.2461 40.5667 59.2628 42.8334 57.2961C45.0149 55.4482 46.439 52.8612 46.8334 50.0295C47.1375 48.0378 47.1375 45.517 46.8334 42.4711C46.5375 39.4378 46.5375 36.9378 46.8334 34.9711ZM50 75.3628C54.5709 75.3628 58.8542 74.2795 62.8542 72.1211C65.6393 70.6317 68.1367 68.6578 70.2292 66.292C70.4917 66.0003 70.1875 65.5503 69.8084 65.6545C68.2667 66.0711 66.6834 66.2795 65.0417 66.2795C61.8472 66.2971 58.7079 65.4475 55.9584 63.8211C53.7331 62.5367 51.8137 60.7837 50.3334 58.6836C50.2951 58.6311 50.2449 58.5884 50.187 58.5589C50.1291 58.5295 50.065 58.5141 50 58.5141C49.935 58.5141 49.871 58.5295 49.813 58.5589C49.7551 58.5884 49.705 58.6311 49.6667 58.6836C48.1859 60.7822 46.2665 62.5337 44.0417 63.817C41.2926 65.4448 38.1532 66.2959 34.9584 66.2795C33.3209 66.2795 31.7334 66.0711 30.1959 65.6545C29.8167 65.5503 29.5084 66.0003 29.7709 66.292C31.8634 68.6577 34.3608 70.6316 37.1459 72.1211C41.1459 74.2795 45.4292 75.3628 50 75.3628Z" fill="white"/>
</g>
<defs>
<clipPath id="clip0_867_22754">
<rect width="100" height="100" fill="white"/>
</clipPath>
</defs>
</svg>
