<svg width="100" height="100" viewBox="0 0 100 100" fill="none" xmlns="http://www.w3.org/2000/svg">
<path d="M36.9083 71.313C37.5583 69.588 37.1792 70.1755 38.9708 71.7213C47.6083 79.188 82.0292 63.9922 76.6167 55.1089C69.9292 45.8464 43.6 52.1089 28.7042 54.9089C31.0792 53.8297 40.5167 50.7505 44.0625 49.8547C48.9333 48.6214 50.9375 48.2214 55.4708 47.1422C45.2625 48.1839 29.5708 53.363 15.1083 58.7964C22.1583 53.188 36.2625 48.2214 39.5 46.7089C32.8083 48.2214 20.35 53.8255 10.9792 58.563C5.65833 61.2505 3.88333 62.2505 0 64.4089C2.9 61.9297 6.375 58.6463 12.2958 55.1755C19.4375 50.9964 19.8583 50.8089 22.0167 49.513C16.8333 51.6714 12.0875 53.8339 8.85 54.913C12.0708 52.688 18.1292 49.3005 20.5042 48.2214C19.7833 48.2839 18.3458 48.8672 17.4833 49.0839C21.8 46.7089 24.9792 45.6255 26.7917 45.0422C57.7083 34.8672 93.4542 35.9505 98.9583 47.2422C104.467 58.5339 87.4333 74.2672 64.1792 79.363C60.1542 80.2464 56.5917 80.7297 53.2375 80.8547C49.7542 80.9839 47.2042 80.8339 44.75 80.3547C38.2375 79.0839 35.4292 75.2213 36.9083 71.313Z" fill="#003E97"/>
<path d="M47.9167 25.7698C50.7209 26.2032 52.0167 26.4198 53.5292 26.4198C51.1542 24.9073 50.6042 24.7323 45.1125 21.6698C50.5042 21.2407 53.0542 21.5698 59.1375 21.4532C56.55 19.9448 55.2542 19.9448 52.4501 18.649C56.3272 18.3446 60.2152 18.2 64.1042 18.2157C63.6422 17.5952 63.0525 17.0809 62.3751 16.7073C68.4167 16.4907 77.0001 17.1073 81.8959 19.2907C91.4459 23.5698 90.2084 30.2032 79.5209 32.0532C77.5584 32.3907 74.0417 32.6698 71.7126 32.6782C68.7233 32.6392 65.7429 32.3437 62.8042 31.7949C55.0084 30.3032 48.9959 27.7115 47.9167 25.7698Z" fill="#D70D19"/>
</svg>
