<svg width="100" height="100" viewBox="0 0 100 100" fill="none" xmlns="http://www.w3.org/2000/svg">
<g clip-path="url(#clip0_867_22486)">
<path d="M62.6163 59.0006C62.4704 60.6006 62.9871 62.2214 64.0871 63.4047C65.1913 64.5881 66.7496 65.2131 68.1621 65.7714C69.7038 66.3756 71.0454 66.8672 72.4871 67.7214C73.8621 68.5339 75.0788 69.5422 76.0954 70.7881C78.1124 73.2567 79.1392 76.3873 78.9759 79.5709C78.8126 82.7546 77.4711 85.7637 75.2121 88.0131C72.9692 90.2488 69.9627 91.552 66.7977 91.6602C63.6326 91.7685 60.5441 90.6737 58.1538 88.5964C56.882 87.4432 55.7657 86.1294 54.8329 84.6881C53.4246 75.4631 56.1579 65.8006 62.6163 59.0006Z" fill="#85A8FF"/>
<path d="M68.5706 54.2668C70.1206 53.3626 71.5706 52.7251 73.2581 52.1293C74.8831 51.5626 76.5372 51.0918 78.2081 50.671C79.8747 50.246 81.5539 49.8876 83.2372 49.5251C84.9164 49.1668 86.5872 48.8168 88.2122 48.2001C96.1706 45.146 100.991 36.9502 99.8289 28.4251C98.6622 19.9043 91.8289 13.3335 83.3456 12.571C79.4914 12.2293 75.7706 13.146 72.3289 14.7543C68.8956 16.3543 65.7539 18.6293 63.0206 21.2335C57.4997 26.4835 53.4164 33.2252 50.9289 40.4002C48.44 47.6614 47.47 55.3567 48.0789 63.0085C48.3706 66.8001 49.0539 70.621 50.1456 74.271C51.2122 77.8502 52.7581 81.546 54.8372 84.6793C53.9331 78.7949 54.7206 72.7748 57.1081 67.321C59.4914 61.9043 63.4456 57.2585 68.5706 54.2668Z" fill="#0057CC"/>
<path d="M33.1752 59.46C32.6384 58.8423 32.0547 58.267 31.4294 57.7392C32.2127 59.0933 32.2919 60.635 31.9627 62.1142C31.6092 63.5788 30.9346 64.9465 29.9877 66.1183C29.0357 67.2802 27.9346 68.3114 26.7127 69.185C25.6585 69.9767 24.1169 70.9808 23.1627 71.9267C21.797 73.2857 20.9198 75.0586 20.6681 76.9688C20.4163 78.8789 20.8041 80.8186 21.771 82.485C22.7248 84.1469 24.2101 85.4394 25.9879 86.1544C27.7656 86.8694 29.7322 86.9653 31.571 86.4267C33.6544 85.81 35.4252 84.4267 36.8294 82.8433C38.246 81.2392 39.4002 79.335 40.3127 77.41C40.0853 70.7804 37.5624 64.4356 33.1752 59.46Z" fill="#85A8FF"/>
<path d="M15.3627 22.4853C21.1419 22.4811 26.7502 25.7228 30.8127 29.3603C35.1252 33.2228 38.4627 38.1436 40.6627 43.4936C42.8711 48.8686 43.9377 54.6853 43.896 60.4936C43.8544 66.1353 42.7544 72.2519 40.3127 77.4103C40.0858 70.7781 37.563 64.4304 33.1752 59.4519C32.4297 58.5835 31.5819 57.8084 30.6502 57.1436C29.7091 56.4984 28.6862 55.9813 27.6086 55.6061C25.5002 54.8519 23.1169 54.4978 20.9252 54.2561C18.6627 53.9978 16.3919 53.8478 14.1336 53.5103C11.8169 53.1644 9.73772 52.6519 7.67105 51.4394C4.73621 49.712 2.44861 47.07 1.15871 43.9183C-0.131185 40.7665 -0.35225 37.2788 0.529386 33.9894C1.38893 30.7059 3.30919 27.7982 5.99167 25.7186C8.67414 23.6389 11.9685 22.4995 15.3627 22.4853Z" fill="#0057CC"/>
</g>
<defs>
<clipPath id="clip0_867_22486">
<rect width="100" height="100" fill="white"/>
</clipPath>
</defs>
</svg>
