<svg width="100" height="100" viewBox="0 0 100 100" fill="none" xmlns="http://www.w3.org/2000/svg">
<g clip-path="url(#clip0_867_19351)">
<path d="M13.1667 -0.00134277H86.8333C94.0833 -0.00134277 100 5.88616 100 13.1653V86.8362C100 94.0862 94.1125 99.9987 86.8333 99.9987H13.1667C5.91667 99.9987 0 94.1153 0 86.8362V13.132C0 5.88616 5.88333 -0.00134277 13.1667 -0.00134277Z" fill="#5468FF"/>
<path d="M60.421 22.3226V18.8934C60.4202 17.7426 59.9623 16.6392 59.1482 15.8259C58.334 15.0125 57.2302 14.5557 56.0794 14.5559H45.9585C44.8077 14.5557 43.7039 15.0125 42.8897 15.8259C42.0756 16.6392 41.6178 17.7426 41.6169 18.8934V22.4143C41.6169 22.8059 41.9794 23.0809 42.3752 22.9893C45.2382 22.1626 48.2036 21.7446 51.1835 21.7476C54.071 21.7476 56.9294 22.1393 59.6919 22.8976C60.0585 22.9893 60.421 22.7184 60.421 22.3226ZM32.6835 26.8101L30.9544 25.0809C30.5515 24.6778 30.0731 24.3579 29.5465 24.1397C29.02 23.9215 28.4556 23.8092 27.8856 23.8092C27.3156 23.8092 26.7513 23.9215 26.2247 24.1397C25.6982 24.3579 25.2198 24.6778 24.8169 25.0809L22.7502 27.1434C22.3462 27.545 22.0256 28.0225 21.8068 28.5484C21.588 29.0744 21.4753 29.6384 21.4753 30.208C21.4753 30.7777 21.588 31.3417 21.8068 31.8676C22.0256 32.3936 22.3462 32.8711 22.7502 33.2726L24.4502 34.9726C24.7252 35.2434 25.121 35.1809 25.3627 34.9101C26.3657 33.5327 27.4731 32.2344 28.6752 31.0268C29.8874 29.8104 31.1974 28.6956 32.5919 27.6934C32.8952 27.5101 32.9252 27.0851 32.6835 26.8101ZM51.1535 37.6976V52.5309C51.1535 52.9559 51.6119 53.2601 52.0035 53.0476L65.191 46.2226C65.491 46.0726 65.5827 45.7059 65.4327 45.4059C62.6994 40.6101 57.6244 37.3351 51.7619 37.1226C51.4577 37.1226 51.1535 37.3643 51.1535 37.6976ZM51.1535 73.4309C40.1577 73.4309 31.2244 64.5101 31.2244 53.5309C31.2244 42.5518 40.1577 33.6351 51.1535 33.6351C62.1535 33.6351 71.0835 42.5518 71.0835 53.5309C71.0835 64.5101 62.1835 73.4309 51.1535 73.4309ZM51.1535 25.2643C35.5369 25.2643 22.8702 37.9143 22.8702 53.5309C22.8702 69.1518 35.5369 81.7726 51.1535 81.7726C66.7702 81.7726 79.4369 69.1226 79.4369 53.5018C79.4369 37.8809 66.7994 25.2643 51.1535 25.2643Z" fill="white"/>
</g>
<defs>
<clipPath id="clip0_867_19351">
<rect width="100" height="100" fill="white"/>
</clipPath>
</defs>
</svg>
