<svg width="100" height="100" viewBox="0 0 100 100" fill="none" xmlns="http://www.w3.org/2000/svg">
<g clip-path="url(#clip0_867_22122)">
<path d="M61.4666 19.3318H83.4416C92.6749 19.3318 99.9999 26.9776 99.9999 36.211V65.8318C100.015 68.0108 99.5978 70.1711 98.7712 72.1873C97.9446 74.2035 96.7256 76.0353 95.1849 77.5763C93.6443 79.1174 91.8128 80.3368 89.7968 81.1639C87.7808 81.991 85.6206 82.4092 83.4416 82.3943H61.4666L66.8791 74.7485L82.8041 69.6568C85.6708 68.6985 87.5791 65.8318 87.5791 62.9693V38.761C87.5791 35.8985 85.6708 33.0318 82.8041 32.0735L66.8749 26.9776L61.4583 19.3318H61.4666ZM12.4166 62.961C12.4166 65.8276 14.3333 68.6943 17.1958 69.6526L33.1208 74.4276L38.5374 82.0735H16.5583C14.3793 82.0884 12.219 81.6702 10.203 80.8431C8.18706 80.016 6.35555 78.7965 4.81492 77.2555C3.2743 75.7145 2.05527 73.8827 1.22868 71.8665C0.402093 69.8503 -0.0155812 67.6899 -7.16693e-05 65.511V36.2068C-7.16693e-05 26.9735 7.32493 19.3318 16.5624 19.3318H38.5333L33.1249 26.9735L17.1958 32.0693C14.3291 33.0276 12.4208 35.8943 12.4208 38.761L12.4166 62.961Z" fill="#FF6A00"/>
<path d="M66.8792 46.7203H33.4375V54.3661H66.8792V46.7203Z" fill="#FF6A00"/>
</g>
<defs>
<clipPath id="clip0_867_22122">
<rect width="100" height="100" fill="white"/>
</clipPath>
</defs>
</svg>
