<svg width="100" height="100" viewBox="0 0 100 100" fill="none" xmlns="http://www.w3.org/2000/svg">
<g clip-path="url(#clip0_868_39506)">
<path d="M50.0017 0C77.6156 0.000629579 100 22.3875 100 50.0014C99.9996 77.615 77.6153 99.9994 50.0017 100C22.3875 100 0.000629726 77.6157 0 50.0014C0 22.3871 22.3871 0 50.0017 0ZM43.3755 15.2762C37.1907 15.2957 31.6292 25.216 26.83 44.7329C23.4169 44.6927 20.3217 44.6332 17.4099 44.593H16.4268C16.2463 44.6005 16.0654 44.6126 15.885 44.6326C14.4398 44.8941 13.3157 46.0594 13.0939 47.524C12.8128 49.4114 14.1194 51.1783 16.0067 51.4595L16.0463 51.499H25.2838C24.4406 55.394 23.6758 59.2709 23.0528 62.986L22.7728 64.6326V64.7118C22.7728 65.4953 23.175 66.2203 23.8381 66.6413C24.9023 67.3227 26.327 67.0016 27.0096 65.9382L27.0705 65.9962L31.5874 51.5202H53.3528C55.0196 57.8254 56.7466 64.3113 59.0352 70.4154C60.2604 73.6889 63.1119 81.3158 67.8892 81.3576H67.9503C75.3394 81.3576 78.2321 69.4124 80.1401 61.5006C80.5625 59.7936 80.9031 58.3265 81.245 57.2425L81.385 56.8012C81.4046 56.7015 81.4245 56.5989 81.4245 56.4786C81.4239 56.0167 81.1238 55.595 80.7033 55.4345C80.1208 55.1939 79.4594 55.495 79.2179 56.0769L79.0564 56.521C78.4337 58.2683 77.8528 59.9151 77.3307 61.3607L77.2883 61.4579C74.0759 70.5145 72.6092 74.6523 69.758 74.6523H69.5604C65.8855 74.6523 62.449 59.7524 61.1446 54.1501C60.923 53.1864 60.7048 52.2816 60.5234 51.499H84.2187C84.66 51.499 85.083 51.3984 85.4635 51.1976L85.5608 51.1369L85.7434 51.0181C85.8032 50.9779 85.8634 50.9365 85.9232 50.8966C86.4051 50.4948 86.7479 49.9519 86.8878 49.3899C87.1889 47.9656 86.2461 46.5609 84.8212 46.2791H84.8L84.7604 46.2579H84.7208C84.5812 46.2383 84.459 46.2184 84.319 46.2184L83.9569 46.1788C75.5841 45.5763 66.9492 45.3351 58.8769 45.1743L58.8557 45.1135C54.9205 30.3553 50.002 15.2763 43.3755 15.2762ZM43.1137 21.9419C43.4753 21.9419 43.7763 22.1436 44.0571 22.505C44.7388 23.5686 45.9449 25.998 47.7311 31.3986C48.9563 35.1135 50.2825 39.6926 51.6878 45.0343C46.3673 44.9539 40.966 44.8941 35.7451 44.8333L33.0941 44.8121C36.0861 33.1262 39.7215 24.2704 42.3925 22.1823C42.6135 22.0428 42.8538 21.9625 43.1137 21.9419Z" fill="black"/>
</g>
<defs>
<clipPath id="clip0_868_39506">
<rect width="100" height="100" fill="white"/>
</clipPath>
</defs>
</svg>
