<svg width="100" height="100" viewBox="0 0 100 100" fill="none" xmlns="http://www.w3.org/2000/svg">
<g clip-path="url(#clip0_867_22145)">
<path d="M7.34671 0.499703H93.4675C93.5759 0.497937 93.6827 0.523927 93.7779 0.575194C93.8735 0.626461 93.9539 0.701293 94.0119 0.792553C94.0703 0.883813 94.1039 0.988457 94.1103 1.09649C94.1163 1.20454 94.0951 1.31237 94.0475 1.40971C86.6234 16.4022 75.4321 29.2093 61.5708 38.5768C39.1804 53.6837 16.6335 55.2438 7.35338 55.327C7.26865 55.3286 7.18443 55.3138 7.10564 55.2826C7.02685 55.2514 6.95507 55.2046 6.89453 55.1454C6.83399 55.0862 6.7859 55.0154 6.75308 54.937C6.72025 54.859 6.70335 54.775 6.70337 54.6902V1.13638C6.70336 1.05221 6.72005 0.968865 6.75246 0.891181C6.78487 0.813499 6.83237 0.743016 6.8922 0.683807C6.95203 0.624599 7.023 0.577844 7.10102 0.546243C7.17903 0.514642 7.26254 0.498821 7.34671 0.499703Z" fill="#FF6250"/>
<path d="M25.9336 100.5C36.5541 100.5 45.1638 91.8899 45.1638 81.2694C45.1638 70.6488 36.5541 62.0392 25.9336 62.0392C15.313 62.0392 6.70337 70.6488 6.70337 81.2694C6.70337 91.8899 15.313 100.5 25.9336 100.5Z" fill="#FFDF90"/>
<path d="M65.2437 99.3609C59.8036 97.2841 56.91 91.2976 58.7536 85.9976L73.2701 44.5703C75.1302 39.2702 81.047 36.6602 86.4871 38.7369C91.9271 40.8171 94.8204 46.8004 92.9771 52.1036L78.4602 93.5308C76.6002 98.8309 70.6837 101.444 65.2437 99.3609Z" fill="#3366FF"/>
</g>
<defs>
<clipPath id="clip0_867_22145">
<rect width="100" height="100" fill="white"/>
</clipPath>
</defs>
</svg>
