<svg width="100" height="100" viewBox="0 0 100 100" fill="none" xmlns="http://www.w3.org/2000/svg">
<g clip-path="url(#clip0_867_15068)">
<path d="M53.3206 26.1732C52.9909 26.1004 52.6868 25.9401 52.4404 25.7092C52.1941 25.4782 52.0145 25.1851 51.9206 24.8607C51.7441 24.1705 51.7441 23.4468 51.9206 22.7566C52.5706 19.1732 53.1706 15.5691 54.0081 12.0191C54.5915 9.1024 55.7581 6.32323 57.4373 3.8524C58.7081 2.05656 60.5623 0.744063 62.6956 0.144064C66.3498 -0.760103 67.8623 2.7649 66.5998 5.76073C65.5206 8.23156 62.9456 9.56906 61.0415 11.3774C57.5623 14.6899 56.4748 20.2941 55.4748 24.7607C55.4297 24.9953 55.3378 25.2184 55.2047 25.4166C55.0715 25.6149 54.8998 25.7844 54.6998 25.9149C54.4984 26.047 54.2728 26.1379 54.0361 26.1823C53.7993 26.2266 53.5562 26.2235 53.3206 26.1732Z" fill="url(#paint0_linear_867_15068)"/>
<path d="M38.8918 19.4632C40.2668 18.959 41.7335 20.0715 42.8335 20.7007C43.9918 21.3049 45.2793 21.6132 46.5877 21.5924C47.5502 21.634 48.5293 21.5924 49.4543 21.6674C66.5293 22.4007 80.6377 35.084 82.996 51.8215C85.3502 68.5549 75.2793 84.5674 59.0585 89.8799C42.8335 95.1965 25.0877 88.2965 16.8668 73.484C12.888 66.3073 11.5776 57.9541 13.1677 49.9037C14.7577 41.8534 19.1457 34.6257 25.5543 29.5007C27.0043 28.3424 28.5377 27.2924 30.146 26.3549C32.0732 25.4277 33.9115 24.3258 35.6377 23.0632C36.8043 22.0507 37.5127 19.9715 38.8918 19.4632ZM57.2502 28.4215C45.4127 28.434 36.8418 38.9757 37.9668 51.9299C39.0918 64.884 49.5543 75.434 61.3543 75.534C73.1543 75.634 81.9043 65.0674 80.7627 52.0174C79.6252 38.9632 69.0877 28.409 57.2502 28.4215ZM58.7377 30.7965C61.3158 30.8465 63.8587 31.4044 66.2209 32.4382C68.5832 33.4721 70.7184 34.9616 72.5043 36.8215C76.4061 40.7265 78.8265 45.868 79.3502 51.3632C79.6642 54.1251 79.404 56.9221 78.5859 59.5786C77.7677 62.2352 76.4094 64.694 74.596 66.8007V66.8632C73.116 68.5144 71.3156 69.8473 69.3041 70.7806C67.2928 71.714 65.1125 72.2283 62.896 72.2924C60.2895 72.3192 57.7042 71.8214 55.2941 70.8285C52.8839 69.8357 50.6982 68.3681 48.8668 66.5132C44.8306 62.6252 42.3057 57.4306 41.7418 51.8549C41.3964 49.0611 41.6406 46.226 42.4588 43.5325C43.277 40.839 44.6509 38.347 46.4918 36.2174C47.9753 34.5659 49.7796 33.2339 51.7947 32.3027C53.8099 31.3714 55.9936 30.8604 58.2127 30.8007L58.7377 30.7965Z" fill="url(#paint1_linear_867_15068)"/>
<path d="M22.275 8.55639C22.5611 7.59554 23.1163 6.7367 23.875 6.08139C24.5857 5.51358 25.4891 5.244 26.3947 5.32951C27.3004 5.41502 28.1374 5.84893 28.7292 6.53972C31.6209 9.95639 29.4334 15.1981 29.3209 19.1231C29.375 22.4772 30.1875 25.7772 31.6959 28.7814C32.0459 29.3397 32.3084 29.9439 32.4709 30.5731C32.5527 31.0552 32.4749 31.551 32.2493 31.9849C32.0237 32.4188 31.6626 32.7673 31.2209 32.9772C29.7834 33.6856 28.8542 32.1856 28.2667 31.1189C26.9167 28.6189 25.6959 26.0522 24.6125 23.4272C23.426 20.7805 22.5615 18.0009 22.0375 15.1481C21.9539 14.636 21.8831 14.122 21.825 13.6064C21.77 13.1359 21.7367 12.6632 21.725 12.1897C21.6921 10.9556 21.8783 9.72546 22.275 8.55639Z" fill="url(#paint2_linear_867_15068)"/>
</g>
<defs>
<linearGradient id="paint0_linear_867_15068" x1="530.23" y1="2504.73" x2="1681.19" y2="363.731" gradientUnits="userSpaceOnUse">
<stop stop-color="#0066FF"/>
<stop offset="0.2" stop-color="#1677FF"/>
<stop offset="1" stop-color="#04A6FF"/>
</linearGradient>
<linearGradient id="paint1_linear_867_15068" x1="321.74" y1="4791.59" x2="6726.94" y2="2487.07" gradientUnits="userSpaceOnUse">
<stop stop-color="#0066FF"/>
<stop offset="0.2" stop-color="#1677FF"/>
<stop offset="1" stop-color="#04A6FF"/>
</linearGradient>
<linearGradient id="paint2_linear_867_15068" x1="628.219" y1="2769.28" x2="-67.4124" y2="202.366" gradientUnits="userSpaceOnUse">
<stop stop-color="#0066FF"/>
<stop offset="0.2" stop-color="#1677FF"/>
<stop offset="1" stop-color="#04A6FF"/>
</linearGradient>
<clipPath id="clip0_867_15068">
<rect width="100" height="100" fill="white"/>
</clipPath>
</defs>
</svg>
