<svg width="100" height="100" viewBox="0 0 100 100" fill="none" xmlns="http://www.w3.org/2000/svg">
<mask id="mask0_868_38898" style="mask-type:alpha" maskUnits="userSpaceOnUse" x="0" y="4" width="100" height="93">
<path d="M90.6302 94.0271C96.2133 98.2144 104.588 95.4229 96.9112 87.7461C73.881 65.4138 78.7662 4.00002 50.153 4.00002C21.5397 4.00002 26.4248 65.4138 3.39465 87.7461C-4.97995 96.1208 4.09249 98.2144 9.67561 94.0271C31.3101 79.3715 29.9143 53.5498 50.153 53.5498C70.3915 53.5498 68.9959 79.3715 90.6302 94.0271Z" fill="black"/>
</mask>
<g mask="url(#mask0_868_38898)">
<g filter="url(#filter0_f_868_38898)">
<path d="M-4.24151 -16.7981C-5.93963 -1.8377 6.9524 11.9097 24.5536 13.9075C42.1549 15.9053 57.8001 5.39709 59.4983 -9.56329C61.1964 -24.5237 48.3044 -38.271 30.7031 -40.2689C13.1019 -42.2667 -2.54338 -31.7585 -4.24151 -16.7981Z" fill="#FFE432"/>
</g>
<g filter="url(#filter1_f_868_38898)">
<path d="M63.6214 32.1135C68.0313 51.1004 87.3364 62.8388 106.741 58.332C126.145 53.8251 138.3 34.7797 133.89 15.7929C129.48 -3.194 110.175 -14.9324 90.771 -10.4255C71.3668 -5.9187 59.2115 13.1267 63.6214 32.1135Z" fill="#FC413D"/>
</g>
<g filter="url(#filter2_f_868_38898)">
<path d="M-51.8434 44.8505C-46.2711 64.4455 -21.1756 74.4785 4.20896 67.2598C29.5935 60.0411 45.6546 38.3043 40.0823 18.7094C34.51 -0.885642 9.41453 -10.9186 -15.9701 -3.69995C-41.3546 3.51873 -57.4157 25.2555 -51.8434 44.8505Z" fill="#00B95C"/>
</g>
<g filter="url(#filter3_f_868_38898)">
<path d="M-51.8434 44.8505C-46.2711 64.4455 -21.1756 74.4785 4.20896 67.2598C29.5935 60.0411 45.6546 38.3043 40.0823 18.7094C34.51 -0.885642 9.41453 -10.9186 -15.9701 -3.69995C-41.3546 3.51873 -57.4157 25.2555 -51.8434 44.8505Z" fill="#00B95C"/>
</g>
<g filter="url(#filter4_f_868_38898)">
<path d="M-31.7001 61.0921C-17.7312 75.3599 6.32638 74.4595 22.034 59.081C37.7416 43.7025 39.1511 19.6694 25.1821 5.40152C11.2132 -8.86631 -12.8444 -7.96592 -28.552 7.41261C-44.2596 22.7911 -45.669 46.8243 -31.7001 61.0921Z" fill="#00B95C"/>
</g>
<g filter="url(#filter5_f_868_38898)">
<path d="M41.3839 114.902C45.7216 133.578 63.8171 145.332 81.8014 141.155C99.7857 136.978 110.849 118.452 106.511 99.7757C102.173 81.0997 84.0776 69.346 66.0933 73.523C48.109 77.7001 37.0462 96.2261 41.3839 114.902Z" fill="#3186FF"/>
</g>
<g filter="url(#filter6_f_868_38898)">
<path d="M10.7195 -34.2707C1.63657 -14.0375 11.5739 10.1311 32.9152 19.7114C54.2565 29.2917 78.9202 20.6558 88.0031 0.422606C97.0861 -19.8106 87.1487 -43.9792 65.8074 -53.5595C44.4661 -63.1398 19.8024 -54.5039 10.7195 -34.2707Z" fill="#FBBC04"/>
</g>
<g filter="url(#filter7_f_868_38898)">
<path d="M-13.6113 161.025C-35.6001 152.393 1.9783 81.3716 11.3227 57.5685C20.6672 33.7656 46.0679 21.4672 68.0568 30.0994C90.0457 38.7316 116.109 86.2766 106.764 110.079C97.4196 133.882 8.3777 169.656 -13.6113 161.025Z" fill="#3186FF"/>
</g>
<g filter="url(#filter8_f_868_38898)">
<path d="M119.624 72.6275C113.737 79.4983 98.3746 75.9947 85.3109 64.8018C72.2471 53.6089 66.429 38.9654 72.3159 32.0945C78.2028 25.2238 93.5653 28.7275 106.629 39.9203C119.692 51.1132 125.511 65.7567 119.624 72.6275Z" fill="#749BFF"/>
</g>
<g filter="url(#filter9_f_868_38898)">
<path d="M75.6789 37.6548C99.8914 54.0333 127.773 55.1092 137.954 40.058C148.136 25.0068 136.761 -0.471955 112.549 -16.8504C88.3363 -33.2289 60.4546 -34.3049 50.2733 -19.2537C40.0919 -4.20247 51.4664 21.2763 75.6789 37.6548Z" fill="#FC413D"/>
</g>
<g filter="url(#filter10_f_868_38898)">
<path d="M-3.81168 11.0152C-9.81015 25.4853 -7.85105 40.0436 0.564094 43.532C8.97924 47.0205 20.6638 38.118 26.6622 23.6478C32.6607 9.17769 30.7016 -5.38061 22.2865 -8.86903C13.8713 -12.3575 2.18679 -3.45499 -3.81168 11.0152Z" fill="#FFEE48"/>
</g>
</g>
<defs>
<filter id="filter0_f_868_38898" x="-13.7003" y="-49.8211" width="82.6575" height="73.2808" filterUnits="userSpaceOnUse" color-interpolation-filters="sRGB">
<feFlood flood-opacity="0" result="BackgroundImageFix"/>
<feBlend mode="normal" in="SourceGraphic" in2="BackgroundImageFix" result="shape"/>
<feGaussianBlur stdDeviation="4.6543" result="effect1_foregroundBlur_868_38898"/>
</filter>
<filter id="filter1_f_868_38898" x="17.7152" y="-56.3911" width="162.081" height="160.689" filterUnits="userSpaceOnUse" color-interpolation-filters="sRGB">
<feFlood flood-opacity="0" result="BackgroundImageFix"/>
<feBlend mode="normal" in="SourceGraphic" in2="BackgroundImageFix" result="shape"/>
<feGaussianBlur stdDeviation="22.5011" result="effect1_foregroundBlur_868_38898"/>
</filter>
<filter id="filter2_f_868_38898" x="-91.2039" y="-44.2974" width="170.647" height="152.155" filterUnits="userSpaceOnUse" color-interpolation-filters="sRGB">
<feFlood flood-opacity="0" result="BackgroundImageFix"/>
<feBlend mode="normal" in="SourceGraphic" in2="BackgroundImageFix" result="shape"/>
<feGaussianBlur stdDeviation="19.1281" result="effect1_foregroundBlur_868_38898"/>
</filter>
<filter id="filter3_f_868_38898" x="-91.2039" y="-44.2974" width="170.647" height="152.155" filterUnits="userSpaceOnUse" color-interpolation-filters="sRGB">
<feFlood flood-opacity="0" result="BackgroundImageFix"/>
<feBlend mode="normal" in="SourceGraphic" in2="BackgroundImageFix" result="shape"/>
<feGaussianBlur stdDeviation="19.1281" result="effect1_foregroundBlur_868_38898"/>
</filter>
<filter id="filter4_f_868_38898" x="-79.5765" y="-42.9933" width="152.635" height="152.48" filterUnits="userSpaceOnUse" color-interpolation-filters="sRGB">
<feFlood flood-opacity="0" result="BackgroundImageFix"/>
<feBlend mode="normal" in="SourceGraphic" in2="BackgroundImageFix" result="shape"/>
<feGaussianBlur stdDeviation="19.1281" result="effect1_foregroundBlur_868_38898"/>
</filter>
<filter id="filter5_f_868_38898" x="4.08771" y="36.3254" width="139.719" height="142.027" filterUnits="userSpaceOnUse" color-interpolation-filters="sRGB">
<feFlood flood-opacity="0" result="BackgroundImageFix"/>
<feBlend mode="normal" in="SourceGraphic" in2="BackgroundImageFix" result="shape"/>
<feGaussianBlur stdDeviation="18.1773" result="effect1_foregroundBlur_868_38898"/>
</filter>
<filter id="filter6_f_868_38898" x="-25.5931" y="-90.4159" width="149.909" height="146.984" filterUnits="userSpaceOnUse" color-interpolation-filters="sRGB">
<feFlood flood-opacity="0" result="BackgroundImageFix"/>
<feBlend mode="normal" in="SourceGraphic" in2="BackgroundImageFix" result="shape"/>
<feGaussianBlur stdDeviation="16.4738" result="effect1_foregroundBlur_868_38898"/>
</filter>
<filter id="filter7_f_868_38898" x="-49.8333" y="-2.08325" width="187.973" height="193.847" filterUnits="userSpaceOnUse" color-interpolation-filters="sRGB">
<feFlood flood-opacity="0" result="BackgroundImageFix"/>
<feBlend mode="normal" in="SourceGraphic" in2="BackgroundImageFix" result="shape"/>
<feGaussianBlur stdDeviation="14.7118" result="effect1_foregroundBlur_868_38898"/>
</filter>
<filter id="filter8_f_868_38898" x="43.69" y="2.24858" width="104.56" height="100.225" filterUnits="userSpaceOnUse" color-interpolation-filters="sRGB">
<feFlood flood-opacity="0" result="BackgroundImageFix"/>
<feBlend mode="normal" in="SourceGraphic" in2="BackgroundImageFix" result="shape"/>
<feGaussianBlur stdDeviation="13.1644" result="effect1_foregroundBlur_868_38898"/>
</filter>
<filter id="filter9_f_868_38898" x="24.3048" y="-52.1121" width="139.618" height="125.029" filterUnits="userSpaceOnUse" color-interpolation-filters="sRGB">
<feFlood flood-opacity="0" result="BackgroundImageFix"/>
<feBlend mode="normal" in="SourceGraphic" in2="BackgroundImageFix" result="shape"/>
<feGaussianBlur stdDeviation="11.1189" result="effect1_foregroundBlur_868_38898"/>
</filter>
<filter id="filter10_f_868_38898" x="-34.811" y="-37.1489" width="92.4726" height="108.961" filterUnits="userSpaceOnUse" color-interpolation-filters="sRGB">
<feFlood flood-opacity="0" result="BackgroundImageFix"/>
<feBlend mode="normal" in="SourceGraphic" in2="BackgroundImageFix" result="shape"/>
<feGaussianBlur stdDeviation="13.7615" result="effect1_foregroundBlur_868_38898"/>
</filter>
</defs>
</svg>
