<svg width="100" height="100" viewBox="0 0 100 100" fill="none" xmlns="http://www.w3.org/2000/svg">
<path d="M73.2626 51.4332L60.8584 72.9166H85.8334C86.7501 72.9166 87.6001 72.4291 88.0626 71.6332L99.7251 51.4332H73.2626ZM99.7251 48.5666L88.0626 28.3666C87.8368 27.9755 87.5117 27.6509 87.1203 27.4255C86.7289 27.2002 86.285 27.0821 85.8334 27.0833H60.8584L73.2626 48.5666H99.7251ZM36.0542 27.0833H60.8584L48.3709 5.45408C48.1456 5.06219 47.8208 4.73674 47.4294 4.51066C47.038 4.28458 46.5938 4.16588 46.1417 4.16658H22.8167L36.0542 27.0833ZM20.3376 5.59575L8.67923 25.7957C8.454 26.1867 8.33545 26.63 8.33545 27.0812C8.33545 27.5324 8.454 27.9756 8.67923 28.3666L21.1667 49.9957L33.5667 28.5124L20.3376 5.59575ZM33.5709 71.4791L21.1709 49.9999L8.67923 71.6332C8.454 72.0242 8.33545 72.4675 8.33545 72.9187C8.33545 73.3699 8.454 73.8131 8.67923 74.2041L20.3376 94.4041L33.5667 71.4874H33.5709V71.4791ZM22.8167 95.8332H46.1417C47.0584 95.8332 47.9084 95.3457 48.3709 94.5499L60.8584 72.9166H36.0542L22.8209 95.8332H22.8167Z" fill="#0163FB"/>
</svg>
