<svg width="100" height="100" viewBox="0 0 100 100" fill="none" xmlns="http://www.w3.org/2000/svg">
<path fill-rule="evenodd" clip-rule="evenodd" d="M78.2517 52.6139C66.2408 52.6139 56.5033 61.9778 56.5033 73.5297C56.5033 85.0806 66.2408 94.4444 78.2517 94.4444C90.2631 94.4444 100 85.0806 100 73.5297C100 61.9778 90.2631 52.6139 78.2517 52.6139ZM21.7482 52.6161C9.73711 52.6161 0 61.9778 0 73.5297C0 85.0806 9.73711 94.4444 21.7482 94.4444C33.7597 94.4444 43.4975 85.0806 43.4975 73.5297C43.4975 61.9778 33.7597 52.6161 21.7482 52.6161ZM71.7478 26.47C71.7478 38.0217 62.0114 47.3864 50 47.3864C37.9886 47.3864 28.2519 38.0217 28.2519 26.47C28.2519 14.9204 37.9886 5.55556 50 5.55556C62.0114 5.55556 71.7478 14.9204 71.7478 26.47Z" fill="#F06A6A"/>
</svg>
