<svg width="100" height="100" viewBox="0 0 100 100" fill="none" xmlns="http://www.w3.org/2000/svg">
<path d="M44.1461 6.24992C41.0441 6.24947 38.0142 7.18608 35.4536 8.93702C32.893 10.688 30.921 13.1716 29.7961 16.0624L0.000244141 92.7499H22.6336L46.0877 32.3916H46.0961C46.3934 31.6502 46.906 31.0148 47.5676 30.5673C48.2293 30.1198 49.0098 29.8807 49.8086 29.8807C50.6074 29.8807 51.3879 30.1198 52.0495 30.5673C52.7112 31.0148 53.2237 31.6502 53.5211 32.3916H56.6461V20.1458H50.8419L56.2419 6.24992H44.1461Z" fill="#2545D3"/>
<path d="M29.7956 16.0624C30.8734 13.2937 32.7294 10.8959 35.1397 9.15848C37.5499 7.42104 40.4114 6.41814 43.3789 6.27076L43.3706 6.24992H55.8539C62.2039 6.24992 67.9081 10.1499 70.2039 16.0624L99.9997 92.7499H76.9789L48.0831 18.3874C47.247 16.54 45.8955 14.9732 44.1908 13.875C42.4861 12.7769 40.5007 12.1942 38.4729 12.1968C36.4451 12.1995 34.4612 12.7874 32.7594 13.8899C31.0575 14.9925 29.7101 16.5628 28.8789 18.4124L29.7956 16.0624Z" fill="#566DE8"/>
</svg>
