<svg width="100" height="100" viewBox="0 0 100 100" fill="none" xmlns="http://www.w3.org/2000/svg">
<path fill-rule="evenodd" clip-rule="evenodd" d="M43.3684 10.4052C43.9046 10.1118 44.6302 10 45.4694 10C46.3115 10 47.0413 10.1171 47.5803 10.4251C48.1698 10.7621 48.4902 11.307 48.4902 11.9869V12.0097L48.0298 24.2915C48.0277 24.559 47.9619 24.8206 47.8144 25.0553C47.6656 25.2915 47.4557 25.4662 47.2182 25.592C46.7615 25.8339 46.154 25.9212 45.4694 25.9212C44.7851 25.9212 44.1776 25.8339 43.7209 25.592C43.4834 25.4662 43.2735 25.2915 43.1248 25.0553C42.9772 24.8207 42.9114 24.559 42.9094 24.2916C42.7938 21.2338 42.7001 18.8632 42.6233 17.1835L42.6227 17.1693C42.584 15.4465 42.5458 14.228 42.5077 13.5105C42.4696 12.7906 42.4489 12.3296 42.4489 12.1578V11.929C42.4489 11.6131 42.5223 11.308 42.6888 11.035C42.8544 10.7633 43.0916 10.557 43.3684 10.4052ZM53.1327 10.4052C53.6685 10.1118 54.3942 10 55.2337 10C56.0755 10 56.8055 10.1171 57.3443 10.4251C57.934 10.7621 58.2542 11.307 58.2542 11.9869V12.0097L57.794 24.2915C57.792 24.559 57.7262 24.8206 57.5786 25.0553C57.4299 25.2915 57.2197 25.4662 56.9822 25.592C56.5255 25.8339 55.918 25.9212 55.2337 25.9212C54.5493 25.9212 53.9419 25.8339 53.4852 25.592C53.2476 25.4662 53.0375 25.2915 52.8887 25.0553C52.7412 24.8207 52.6754 24.5591 52.6733 24.2917C52.5578 21.2338 52.4643 18.8632 52.3872 17.1835L52.3866 17.1693C52.3482 15.4465 52.3098 14.228 52.2716 13.5105C52.2335 12.7906 52.2131 12.3296 52.2131 12.1578V11.929C52.2131 11.6131 52.2865 11.308 52.4527 11.035C52.6183 10.7633 52.8556 10.557 53.1327 10.4052ZM61.2305 29.536C61.8106 29.0135 62.5287 28.7668 63.3449 28.7668H81.5885C83.9311 28.7668 85.8127 29.393 87.1478 30.7221C88.488 32.0559 89.1053 33.9693 89.1053 36.3498V51.8698C89.1053 53.6789 89.4747 54.8752 90.0816 55.5761C90.6661 56.2479 91.7853 56.6907 93.6354 56.7335L93.6662 56.734C94.4033 56.7888 95.0337 57.0778 95.5102 57.6192C95.9931 58.1609 96.2091 58.8403 96.2091 59.5968C96.2091 60.3248 95.9862 60.9817 95.5294 61.5461C95.0527 62.1455 94.3942 62.4581 93.629 62.4601C91.7827 62.5038 90.667 62.9465 90.0799 63.6192C89.4712 64.3198 89.1053 65.5287 89.1053 67.3925V82.9125C89.1053 84.4893 88.8314 85.8614 88.2525 87.0193C87.6692 88.1863 86.8049 89.0644 85.6625 89.651L85.6595 89.6524C84.5243 90.2276 83.1589 90.5009 81.5885 90.5009H63.9535V90.5175H63.3449C62.5153 90.5175 61.7969 90.2486 61.2177 89.7007C60.6492 89.1596 60.3406 88.4899 60.3406 87.7229C60.3406 86.9905 60.586 86.3277 61.0727 85.7785C61.5879 85.1969 62.2746 84.923 63.0692 84.923H80.0088C80.8716 84.923 81.4174 84.7044 81.7637 84.3522L81.7672 84.3487C82.1101 84.0058 82.3415 83.4181 82.3415 82.4494V66.7888C82.3415 65.3375 82.6349 64.0046 83.2247 62.7978C83.8109 61.5959 84.6056 60.6362 85.6104 59.9289C85.7763 59.8128 85.9492 59.7048 86.1247 59.6079C85.9492 59.5106 85.7783 59.4041 85.6121 59.288C84.605 58.5853 83.8103 57.6212 83.2244 56.4171C82.6347 55.2105 82.3415 53.8777 82.3415 52.4267V36.8349C82.3415 35.8743 82.1113 35.2842 81.7658 34.9344C81.4136 34.5831 80.8611 34.3615 80.0088 34.3615H63.0692C62.2763 34.3615 61.5929 34.0822 61.0756 33.5064C60.5857 32.9605 60.3406 32.2984 60.3406 31.5587C60.3406 30.7569 60.6346 30.0678 61.2305 29.536ZM61.2305 29.536L61.2278 29.5385L61.6357 29.9901L61.2305 29.536ZM13.0602 30.7385C14.3909 29.4078 16.2789 28.7822 18.6207 28.7822H36.8643C37.6845 28.7822 38.3983 29.034 38.9784 29.5512L38.9813 29.5538C39.5672 30.083 39.8685 30.7752 39.8685 31.574C39.8685 32.3159 39.6225 32.9701 39.1364 33.5186C38.6224 34.0986 37.9366 34.3769 37.1399 34.3769H20.2003C19.3409 34.3769 18.7918 34.5993 18.443 34.9501C18.1003 35.2928 17.8675 35.8816 17.8675 36.8503V52.4421C17.8675 53.8937 17.5742 55.2265 16.9842 56.4336C16.398 57.6352 15.6036 58.5949 14.599 59.3019C14.4327 59.4181 14.2599 59.5261 14.0845 59.623C14.2599 59.7202 14.4307 59.8268 14.5969 59.9429C15.6041 60.6456 16.3989 61.6096 16.9847 62.8138C17.5747 64.0206 17.8675 65.3526 17.8675 66.8042V82.4648C17.8675 83.4324 18.0986 84.0189 18.443 84.365C18.7928 84.7186 19.3437 84.9381 20.2003 84.9381H37.1399C37.9328 84.9381 38.6151 85.2173 39.1324 85.7892C39.6292 86.342 39.8685 87.0033 39.8685 87.7383C39.8685 88.5099 39.5646 89.1736 38.9918 89.7159C38.4105 90.2692 37.6889 90.5329 36.8643 90.5329H18.0121V90.5021C16.6952 90.4392 15.5356 90.1673 14.5497 89.6679C13.4042 89.0857 12.5335 88.1947 11.956 87.0336C11.3836 85.8827 11.1039 84.5032 11.1039 82.9279V67.4079C11.1039 65.5526 10.7337 64.3379 10.1275 63.6326C9.54341 62.9617 8.42619 62.5192 6.58031 62.4756C5.80919 62.4735 5.15682 62.1679 4.67811 61.5595C4.22269 60.9931 4 60.3318 4 59.6122C4 58.8554 4.2161 58.176 4.69916 57.634C5.17839 57.0935 5.81367 56.8051 6.54227 56.7503L6.57295 56.748C8.42532 56.7026 9.54431 56.2625 10.1285 55.5904C10.7395 54.8877 11.1039 53.6958 11.1039 51.8852V36.3651C11.1039 33.9832 11.7275 32.0712 13.0602 30.7385ZM67.2648 52.9101C63.6071 52.9101 60.6413 55.8759 60.6413 59.5336C60.6413 63.1916 63.6071 66.1574 67.2648 66.1574C70.9228 66.1574 73.8886 63.1916 73.8886 59.5336C73.8886 55.8759 70.9228 52.9101 67.2648 52.9101ZM27.7184 59.5336C27.7184 55.8759 30.6841 52.9101 34.3421 52.9101C37.9998 52.9101 40.9656 55.8759 40.9656 59.5336C40.9656 63.1916 37.9998 66.1574 34.3421 66.1574C30.6841 66.1574 27.7184 63.1916 27.7184 59.5336Z" fill="black"/>
</svg>
