<svg width="100" height="100" viewBox="0 0 100 100" fill="none" xmlns="http://www.w3.org/2000/svg">
<path d="M49.9999 19.9844L84.8473 80.3418" stroke="black" stroke-width="1.6766"/>
<path d="M15.1527 80.3418L50.0001 19.9844" stroke="black" stroke-width="1.6766"/>
<path d="M15.1527 93.7546C22.5604 93.7546 28.5655 87.7495 28.5655 80.3419C28.5655 72.9342 22.5604 66.9291 15.1527 66.9291C7.74503 66.9291 1.73993 72.9342 1.73993 80.3419C1.73993 87.7495 7.74503 93.7546 15.1527 93.7546Z" fill="#FF0000" stroke="black" stroke-width="1.6766"/>
<path d="M49.9999 33.3972C57.4076 33.3972 63.4127 27.3921 63.4127 19.9844C63.4127 12.5768 57.4076 6.57169 49.9999 6.57169C42.5923 6.57169 36.5872 12.5768 36.5872 19.9844C36.5872 27.3921 42.5923 33.3972 49.9999 33.3972Z" fill="#00FF00" stroke="black" stroke-width="1.6766"/>
<path d="M84.8472 93.7546C92.2548 93.7546 98.2599 87.7495 98.2599 80.3419C98.2599 72.9342 92.2548 66.9291 84.8472 66.9291C77.4395 66.9291 71.4344 72.9342 71.4344 80.3419C71.4344 87.7495 77.4395 93.7546 84.8472 93.7546Z" fill="#0000FF" stroke="black" stroke-width="1.6766"/>
</svg>
