<svg width="100" height="100" viewBox="0 0 100 100" fill="none" xmlns="http://www.w3.org/2000/svg">
<g clip-path="url(#clip0_867_21211)">
<path d="M79.442 0.543969C79.1753 0.102302 78.5586 -0.164365 78.0253 0.102302L68.067 5.65647C63.042 8.48147 59.867 11.4773 57.9253 17.2065C57.0676 19.7642 56.7502 22.4721 56.9934 25.1589C57.2365 27.8456 58.0348 30.4526 59.3378 32.8148C59.6003 33.2565 60.2211 33.5231 60.7461 33.2565L70.7128 27.7023C75.7378 24.8773 78.9128 21.8815 80.8503 16.1523C81.7093 13.5943 82.0276 10.8857 81.7852 8.1982C81.5428 5.5107 80.7449 2.90284 79.442 0.539802V0.543969ZM8.02531 22.5856C7.67623 22.5931 7.34352 22.7351 7.09662 22.982C6.84973 23.2288 6.70775 23.5616 6.70031 23.9106C6.70031 31.0523 9.78364 37.4856 14.6378 41.894C20.2795 47.0106 25.567 48.3315 32.8003 48.3315H47.0836C47.7878 48.3315 48.4045 47.7148 48.4045 47.0106C48.4045 39.869 45.3211 33.4273 40.4711 29.0231C34.8253 23.9106 29.5378 22.5815 22.3045 22.5815H8.02947L8.02531 22.5856ZM99.2753 43.9231C99.2669 43.5755 99.125 43.2444 98.8791 42.9985C98.6332 42.7526 98.3021 42.6108 97.9545 42.6023V42.6856H83.4961C76.1753 42.6856 70.8003 44.1023 65.067 49.2148C60.1295 53.5315 56.9586 60.144 56.9586 67.3773C56.9586 68.0815 57.5753 68.6981 58.2795 68.6981H72.7378C80.0586 68.6981 85.4336 67.2856 91.167 62.1731C93.7223 59.8693 95.765 57.0542 97.1626 53.9102C98.5601 50.7663 99.2772 47.3637 99.2753 43.9231ZM0.000305176 65.7898C0.000305176 64.819 0.791972 63.9356 1.85031 63.9356H21.867C32.0045 63.9356 39.4086 65.8773 47.3461 73.019C54.1378 79.1023 58.367 88.1856 58.4545 98.144C58.4545 99.1148 57.6628 99.9981 56.6045 99.9981H36.592C26.4503 99.9981 19.0461 98.1481 11.1086 91.0065C4.31697 84.8315 0.0878052 75.7481 0.000305176 65.7898Z" fill="#416FDC"/>
</g>
<defs>
<clipPath id="clip0_867_21211">
<rect width="100" height="100" fill="white"/>
</clipPath>
</defs>
</svg>
