<svg width="100" height="100" viewBox="0 0 100 100" fill="none" xmlns="http://www.w3.org/2000/svg">
<g clip-path="url(#clip0_867_22025)">
<path fill-rule="evenodd" clip-rule="evenodd" d="M67.6375 0C70.6084 0 73.2417 2.29583 74.1875 5.5375C75.1334 8.77917 80.6667 28.8292 80.6667 28.8292V68.6708H60.6125L61.0209 0H67.6375Z" fill="url(#paint0_linear_867_22025)"/>
<path d="M97.0752 31.1255C97.0752 29.7088 95.9293 28.6255 94.5752 28.6255H82.7627C78.7693 28.6288 74.9404 30.2169 72.117 33.0411C69.2936 35.8653 67.7066 39.6946 67.7043 43.688V68.6713H82.021C86.013 68.6669 89.8401 67.0789 92.6625 64.2557C95.4849 61.4326 97.0719 57.605 97.0752 53.613V31.1255Z" fill="url(#paint1_linear_867_22025)"/>
<path fill-rule="evenodd" clip-rule="evenodd" d="M67.6374 0.000104713C67.0951 -0.0037745 66.5575 0.100165 66.0558 0.305883C65.5541 0.5116 65.0983 0.814992 64.7148 1.19842C64.3314 1.58185 64.028 2.03767 63.8223 2.53939C63.6166 3.0411 63.5126 3.5787 63.5165 4.12094L63.1124 79.9459C63.1112 85.2643 60.998 90.3645 57.2374 94.1251C53.4768 97.8858 48.3765 99.999 43.0582 100H6.66652C6.26811 100.002 5.87497 99.909 5.52019 99.7277C5.16541 99.5463 4.85938 99.2825 4.62784 98.9582C4.3963 98.634 4.24603 98.2589 4.18968 97.8645C4.13333 97.47 4.17254 97.0679 4.30402 96.6918L33.4707 13.4376C34.8447 9.5175 37.4007 6.12002 40.7864 3.71336C44.1721 1.30671 48.2209 0.00936476 52.3749 0.000104713H67.704H67.6374Z" fill="url(#paint2_linear_867_22025)"/>
</g>
<defs>
<linearGradient id="paint0_linear_867_22025" x1="76.0084" y1="70.1542" x2="59.1292" y2="2.56667" gradientUnits="userSpaceOnUse">
<stop stop-color="#712575"/>
<stop offset="0.09" stop-color="#9A2884"/>
<stop offset="0.18" stop-color="#BF2C92"/>
<stop offset="0.27" stop-color="#DA2E9C"/>
<stop offset="0.34" stop-color="#EB30A2"/>
<stop offset="0.4" stop-color="#F131A5"/>
<stop offset="0.5" stop-color="#EC30A3"/>
<stop offset="0.61" stop-color="#DF2F9E"/>
<stop offset="0.72" stop-color="#C92D96"/>
<stop offset="0.83" stop-color="#AA2A8A"/>
<stop offset="0.95" stop-color="#83267C"/>
<stop offset="1" stop-color="#712575"/>
</linearGradient>
<linearGradient id="paint1_linear_867_22025" x1="82.4252" y1="1.41715" x2="82.4252" y2="96.7588" gradientUnits="userSpaceOnUse">
<stop stop-color="#DA7ED0"/>
<stop offset="0.08" stop-color="#B17BD5"/>
<stop offset="0.19" stop-color="#8778DB"/>
<stop offset="0.3" stop-color="#6276E1"/>
<stop offset="0.41" stop-color="#4574E5"/>
<stop offset="0.54" stop-color="#2E72E8"/>
<stop offset="0.67" stop-color="#1D71EB"/>
<stop offset="0.81" stop-color="#1471EC"/>
<stop offset="1" stop-color="#1171ED"/>
</linearGradient>
<linearGradient id="paint2_linear_867_22025" x1="76.6832" y1="3.57927" x2="13.4832" y2="104.929" gradientUnits="userSpaceOnUse">
<stop stop-color="#DA7ED0"/>
<stop offset="0.05" stop-color="#B77BD4"/>
<stop offset="0.11" stop-color="#9079DA"/>
<stop offset="0.18" stop-color="#6E77DF"/>
<stop offset="0.25" stop-color="#5175E3"/>
<stop offset="0.33" stop-color="#3973E7"/>
<stop offset="0.42" stop-color="#2772E9"/>
<stop offset="0.54" stop-color="#1A71EB"/>
<stop offset="0.68" stop-color="#1371EC"/>
<stop offset="1" stop-color="#1171ED"/>
</linearGradient>
<clipPath id="clip0_867_22025">
<rect width="100" height="100" fill="white"/>
</clipPath>
</defs>
</svg>
