<svg width="100" height="100" viewBox="0 0 100 100" fill="none" xmlns="http://www.w3.org/2000/svg">
<g clip-path="url(#clip0_868_39433)">
<path fill-rule="evenodd" clip-rule="evenodd" d="M0 19.5L35.875 0L50.8042 8.35L63.7208 1.12083L100 21.4167V57.6708L85.075 66.0208V80.475L50.1583 100L14.8167 81.1667V65.1375L0 57.9167V19.5ZM5.35 25.6333V37.8583L38.4167 54.9333L38.2833 60.8458L5.35 43.8458V54.9208L47.1958 77.0167V49.0417L5.35 25.6333ZM50.1042 44.5167L90.9 22.3083L79.9417 16.1833L49.1167 33.4208L43.9042 30.3542L74.5958 13.1875L63.7208 7.10417L22.8625 29.3542L50.1042 44.5208V44.5167ZM17.5 26.3667L45.4542 11.3417L35.875 5.98333L7.9 21.025L17.5 26.3667ZM63.5 86.55L52.5917 92.6542V49.75L79.725 34.575V77.4833L68.85 83.5667V49.2292L63.5042 52.0708V86.5583L63.5 86.55ZM20.1667 68.1333L47.1958 83V92.2917L20.1667 78.1792V68.1375V68.1333ZM94.65 54.675V26.2167L85.075 31.5833V60.0375L94.65 54.6792V54.675Z" fill="black"/>
</g>
<defs>
<clipPath id="clip0_868_39433">
<rect width="100" height="100" fill="white"/>
</clipPath>
</defs>
</svg>
