<svg width="100" height="100" viewBox="0 0 100 100" fill="none" xmlns="http://www.w3.org/2000/svg">
<g clip-path="url(#clip0_867_21963)">
<path d="M90.4792 23.375L73.8834 33C73.3149 33.3248 72.6715 33.4957 72.0167 33.4957C71.362 33.4957 70.7186 33.3248 70.1501 33L51.8334 22.4333C51.2644 22.1077 50.6202 21.9364 49.9646 21.9364C49.3091 21.9364 48.6649 22.1077 48.0959 22.4333L29.8167 33C29.2482 33.3248 28.6048 33.4957 27.9501 33.4957C27.2953 33.4957 26.6519 33.3248 26.0834 33L9.4834 23.4042L50.0084 0L90.4792 23.375Z" fill="#5BCA87"/>
<path d="M77.6706 39.4468C77.1127 39.7757 76.6507 40.2449 76.3305 40.8078C76.0104 41.3706 75.8431 42.0075 75.8456 42.6551V63.7884C75.8425 64.4383 75.6698 65.0762 75.3446 65.6389C75.0194 66.2016 74.553 66.6697 73.9914 66.9968L55.5414 77.4551C54.9721 77.7808 54.5001 78.2526 54.1741 78.8217C53.8481 79.3909 53.6801 80.0368 53.6872 80.6926V99.8884L72.1414 89.3218L94.2664 76.6259V29.8218L77.6706 39.4468Z" fill="#EC5D3E"/>
<path d="M45.75 78.9217C45.4567 78.3335 45.0196 77.829 44.4792 77.455L26.025 66.9717C25.4798 66.6374 25.0288 66.1697 24.7146 65.6127C24.4004 65.0557 24.2333 64.4278 24.2292 63.7883V42.63C24.2162 41.986 24.0358 41.3564 23.7055 40.8033C23.3753 40.2502 22.9067 39.7927 22.3458 39.4758L20.4667 38.3925L5.75 29.8258V76.6258L27.8792 89.3217L46.3583 100.001V80.8008C46.3303 80.1321 46.1199 79.4795 45.75 78.9217Z" fill="#2464F5"/>
</g>
<defs>
<clipPath id="clip0_867_21963">
<rect width="100" height="100" fill="white"/>
</clipPath>
</defs>
</svg>
