<svg width="100" height="100" viewBox="0 0 100 100" fill="none" xmlns="http://www.w3.org/2000/svg">
<path d="M36.9126 48.8958C41.1501 41.7708 53.8251 36.05 62.7543 50.0875C69.3334 59.6042 80.6042 68.4083 80.6042 68.4083C80.6042 68.4083 89.0501 75.0791 83.6459 87.925C78.4793 100.242 60.1459 94.6208 58.6251 94.1333L58.5251 94.0958C58.5251 94.0958 51.2501 91.7292 42.7918 93.6292C34.3501 95.5375 27.0709 94.8208 27.0709 94.8208L26.8834 94.8167C25.5167 94.775 16.9667 94.0375 14.3792 82.45C11.5667 69.8333 24.2334 62.9208 25.1792 61.75C26.1209 60.55 32.6876 56.0417 36.9126 48.8958ZM41.0209 56.1375V64.6042H34.1876C34.1876 64.6042 27.3542 65.1791 24.9667 72.9958C24.1334 78.2125 25.7042 81.2875 25.9751 81.9458C26.2542 82.6 28.4584 86.4167 34.0042 87.5375H46.8293V56.2292L41.0209 56.1375ZM55.9709 65.2667L49.9709 65.3667V81.85C49.9709 81.85 50.2376 85.9542 55.9709 87.45H70.7251V65.3667H64.3584V81.9458H58.2751C58.2751 81.9458 56.3334 81.6625 55.9709 80.0833V65.2667ZM40.9167 69.6458V82.3958H35.7501C35.7501 82.3958 32.1542 82.2083 31.0584 78.025C30.4917 76.1708 31.1417 74.0292 31.4251 73.1917C31.6876 72.3458 32.8959 70.3958 35.3876 69.65L40.9167 69.6458ZM80.6042 31.9958C89.2959 31.9958 91.6292 40.5792 91.6292 43.4208C91.6292 46.2875 92.8126 58.4083 82.0084 58.65C71.1959 58.8875 70.7418 51.275 70.7418 45.8167C70.7418 40.0917 71.8959 31.9958 80.6042 31.9958ZM17.6667 25.3333C24.0126 24.7708 28.6876 31.7917 29.1751 35.8042C29.4667 38.4083 30.8126 50.3292 20.9459 52.4708C11.0959 54.6167 7.42925 43.1 8.51258 37.7042C8.51258 37.7042 9.67925 26.05 17.6667 25.3333ZM54.5293 19.1542C55.1126 13.6958 61.5709 5.33749 66.7418 6.53749C71.8918 7.72499 76.6043 14.6375 75.6459 20.5792C74.7126 26.5292 70.0418 34.3833 62.7501 33.4208C55.4668 32.4792 53.8209 25.825 54.5293 19.1542ZM39.2709 4.16666C44.7168 4.16666 49.1209 10.4958 49.1209 18.325C49.1209 26.1542 44.7168 32.4917 39.2709 32.4917C33.8251 32.4917 29.4084 26.1542 29.4084 18.325C29.4084 10.4917 33.8251 4.16666 39.2709 4.16666Z" fill="#2932E1"/>
</svg>
