<svg width="100" height="100" viewBox="0 0 100 100" fill="none" xmlns="http://www.w3.org/2000/svg">
<path d="M52.2279 65.9698H66.228C67.2008 65.9698 67.9962 66.7743 67.9962 67.7607V76.0335C69.6824 76.4493 71.18 77.4198 72.2484 78.7891C73.3167 80.1583 73.8939 81.8469 73.8872 83.5836C73.8872 87.87 70.4553 91.3473 66.228 91.3473C61.9962 91.3473 58.5643 87.87 58.5643 83.5836C58.5643 79.9154 61.0825 76.8381 64.4598 76.029V69.5516H52.2324V90.7473C52.2336 91.0552 52.1557 91.3582 52.006 91.6273C51.8564 91.8963 51.6401 92.1224 51.3779 92.2837L39.1504 99.7429C38.873 99.9126 38.5538 100.002 38.2287 100C37.9035 99.9984 37.5852 99.9062 37.3095 99.7338L14.9183 85.7064C14.66 85.5442 14.4472 85.3189 14.3 85.0516C14.1529 84.7844 14.0763 84.4841 14.0774 84.1791V69.5471L2.89092 63.047C2.63653 62.8995 2.42224 62.6919 2.2669 62.4422C2.11155 62.1925 2.0199 61.9085 2 61.6152V61.4924V38.2103C2 37.574 2.33182 36.9831 2.87274 36.6649L14.0774 30.0193V15.6737C14.0774 15.0873 14.3592 14.5419 14.8274 14.2101L14.9229 14.1464L37.3186 0.264448C37.5962 0.0916112 37.9166 0 38.2436 0C38.5706 0 38.891 0.0916112 39.1686 0.264448L51.396 7.87817C51.6544 8.04035 51.8672 8.26568 52.0143 8.5329C52.1614 8.80012 52.2381 9.10042 52.237 9.40546V30.0012H69.7644V21.2874C68.0775 20.8714 66.5793 19.9003 65.5109 18.5301C64.4425 17.1599 63.8657 15.4703 63.8735 13.7328C63.8735 9.44637 67.3053 5.96906 71.5326 5.96906C75.7645 5.96906 79.1918 9.44637 79.1918 13.7328C79.1918 17.401 76.6782 20.4783 73.3008 21.2874V31.7921C73.3026 32.0259 73.2583 32.2577 73.1703 32.4743C73.0824 32.6909 72.9526 32.8881 72.7883 33.0544C72.6241 33.2208 72.4286 33.3531 72.2131 33.4438C71.9977 33.5345 71.7664 33.5818 71.5326 33.583H52.237V41.7922H82.3464C82.7331 40.1021 83.6802 38.5926 85.0337 37.509C86.3871 36.4254 88.0673 35.8316 89.801 35.824C94.0284 35.824 97.4602 39.2967 97.4602 43.5831C97.4602 47.8696 94.0329 51.3469 89.801 51.3469C88.0667 51.339 86.386 50.7445 85.0325 49.66C83.679 48.5756 82.7323 47.065 82.3464 45.3741H52.2279V54.1787H74.7418L78.9009 59.5424C80.0593 58.8651 81.3773 58.5089 82.7191 58.5106C86.951 58.5106 90.3783 61.9834 90.3783 66.2698C90.3783 70.5562 86.951 74.0335 82.7191 74.0335C78.4918 74.0335 75.06 70.5562 75.06 66.2698C75.06 64.697 75.5236 63.2334 76.3145 62.0106L73.0236 57.7606H52.2279V65.9698ZM38.2413 3.89176L28.9549 9.64638V23.1374H25.4185V11.8373L17.6138 16.6783V30.0648L27.2048 36.2467L37.055 30.0466V19.701H40.5914V31.0466C40.5914 31.6648 40.2732 32.2421 39.755 32.5694L29.1049 39.2649V48.7241L35.5686 53.3105L33.5413 56.2469L27.1503 51.7105L20.1957 56.2787L18.2729 53.2787L25.5685 48.4832V39.4376L15.8093 33.1376L5.53641 39.2285V46.8468L14.5001 41.4422L16.3093 44.5195L5.53641 51.015V60.4561L15.382 66.1743L25.7003 59.9561L27.5048 63.0334L17.6138 68.9925V83.1836L26.1412 88.5246L36.8913 82.0427L38.7004 85.1245L29.5321 90.6519L38.2504 96.111L48.696 89.7337V63.4606L27.0685 76.6108L25.2503 73.5426L48.696 59.2879V10.4055L38.2413 3.89176ZM66.228 79.4108C65.6823 79.4138 65.1424 79.5244 64.6395 79.7363C64.1365 79.9482 63.6803 80.2572 63.2969 80.6456C62.9135 81.0341 62.6105 81.4943 62.4053 82C62.2 82.5057 62.0965 83.0469 62.1007 83.5927C62.1007 85.8973 63.9462 87.7655 66.228 87.7655C66.773 87.7619 67.312 87.651 67.8141 87.4392C68.3163 87.2273 68.7718 86.9186 69.1546 86.5307C69.5374 86.1428 69.8401 85.6833 70.0454 85.1784C70.2506 84.6735 70.3544 84.1331 70.3508 83.5882C70.355 83.0428 70.2517 82.5019 70.0467 81.9965C69.8417 81.4911 69.5391 81.0311 69.1562 80.6427C68.7733 80.2543 68.3176 79.9452 67.8152 79.733C67.3127 79.5209 66.7734 79.4144 66.228 79.4108ZM82.7282 62.0924C82.1825 62.0954 81.6426 62.206 81.1397 62.4179C80.6367 62.6298 80.1805 62.9388 79.7971 63.3272C79.4137 63.7157 79.1107 64.1759 78.9055 64.6816C78.7002 65.1873 78.5967 65.7286 78.6009 66.2743C78.6009 68.5834 80.4464 70.4562 82.7237 70.4562C83.2694 70.4532 83.8093 70.3426 84.3122 70.1307C84.8152 69.9188 85.2714 69.6098 85.6548 69.2214C86.0382 68.8329 86.3412 68.3727 86.5464 67.867C86.7517 67.3613 86.8552 66.8201 86.851 66.2743C86.8552 65.7286 86.7517 65.1873 86.5464 64.6816C86.3412 64.1759 86.0382 63.7157 85.6548 63.3272C85.2714 62.9388 84.8152 62.6298 84.3122 62.4179C83.8093 62.206 83.274 62.0954 82.7282 62.0924ZM89.7965 39.4104C89.2507 39.4133 88.7109 39.5239 88.2079 39.7358C87.705 39.9477 87.2487 40.2567 86.8654 40.6451C86.482 41.0336 86.179 41.4938 85.9737 41.9995C85.7685 42.5052 85.665 43.0465 85.6692 43.5922C85.6692 45.8968 87.5192 47.765 89.7965 47.765C90.3415 47.7614 90.8804 47.6506 91.3826 47.4387C91.8847 47.2268 92.3402 46.9181 92.7231 46.5302C93.1059 46.1423 93.4086 45.6828 93.6138 45.1779C93.8191 44.673 93.9229 44.1327 93.9193 43.5877C93.9235 43.0423 93.8201 42.5015 93.6151 41.996C93.4102 41.4906 93.1076 41.0306 92.7247 40.6422C92.3418 40.2538 91.8861 39.9447 91.3836 39.7326C90.8812 39.5204 90.3419 39.4094 89.7965 39.4058V39.4104ZM71.5281 9.54637C70.9827 9.54994 70.4434 9.66098 69.9409 9.87313C69.4385 10.0853 68.9828 10.3944 68.5999 10.7828C68.217 11.1711 67.9144 11.6312 67.7094 12.1366C67.5045 12.642 67.4011 13.1829 67.4053 13.7282C67.4053 16.0374 69.2508 17.9101 71.5281 17.9101C72.0739 17.9071 72.6137 17.7965 73.1166 17.5847C73.6196 17.3728 74.0758 17.0638 74.4592 16.6753C74.8426 16.2869 75.1456 15.8266 75.3508 15.3209C75.5561 14.8152 75.6596 14.274 75.6554 13.7282C75.6596 13.1825 75.5561 12.6413 75.3508 12.1356C75.1456 11.6299 74.8426 11.1696 74.4592 10.7812C74.0758 10.3927 73.6196 10.0837 73.1166 9.87182C72.6137 9.65994 72.0739 9.54935 71.5281 9.54637Z" fill="url(#paint0_linear_867_21905)"/>
<defs>
<linearGradient id="paint0_linear_867_21905" x1="7638.82" y1="2000" x2="1645.29" y2="7721.44" gradientUnits="userSpaceOnUse">
<stop stop-color="#6350FB"/>
<stop offset="0.5" stop-color="#3D8FFF"/>
<stop offset="1" stop-color="#9AD8F8"/>
</linearGradient>
</defs>
</svg>
