<svg width="100" height="100" viewBox="0 0 100 100" fill="none" xmlns="http://www.w3.org/2000/svg">
<g clip-path="url(#clip0_868_39435)">
<path fill-rule="evenodd" clip-rule="evenodd" d="M49.98 1.50834e-06C59.1634 -0.00416516 65.4009 8.625 68.7175 16.1417C70.2759 19.6792 71.5175 23.3417 72.4342 27.1333C72.4505 27.1999 72.4848 27.2608 72.5333 27.3093C72.5817 27.3578 72.6426 27.392 72.7092 27.4083C76.3967 28.2792 79.9092 29.4333 83.2467 30.8667C88.1217 32.9667 92.5634 35.7417 96.0634 39.7417C96.8759 40.675 97.6717 41.9083 98.455 43.45C101.705 49.8625 99.58 56.7583 94.6842 61.575C88.8009 67.3667 80.5842 70.4792 72.7509 72.4417C72.7044 72.4525 72.6622 72.477 72.6295 72.5118C72.5969 72.5467 72.5753 72.5904 72.5675 72.6375C72.4175 73.5833 71.8009 75.6958 70.7217 78.9792C67.7634 87.9792 60.9717 99.9958 50.03 100C39.0925 100.004 32.2884 88 29.3217 79C28.2384 75.7167 27.6217 73.6042 27.4634 72.6583C27.4554 72.612 27.4342 72.5689 27.4025 72.5342C27.3707 72.4994 27.3297 72.4746 27.2842 72.4625C19.4509 70.5125 11.23 67.4042 5.33836 61.6208C0.434189 56.8083 -1.69498 49.9125 1.55086 43.4958C2.33419 41.9542 3.12586 40.7208 3.93836 39.7875C7.43419 35.7792 11.8759 33.0042 16.7467 30.9C20.1514 29.4382 23.6773 28.2769 27.2842 27.4292C27.3507 27.4135 27.4113 27.3794 27.4593 27.3307C27.5072 27.2821 27.5404 27.2209 27.555 27.1542C28.4717 23.3625 29.705 19.6958 31.2634 16.1583C34.5675 8.63334 40.8009 0.00416818 49.98 1.50834e-06ZM74.6259 37.475L75.3592 42.85C75.3711 42.9214 75.4099 42.9855 75.4675 43.0292C77.1967 44.3542 78.33 45.8625 78.8634 47.5417C79.2506 48.7683 79.348 50.0681 79.1479 51.3388C78.9478 52.6095 78.4557 53.8164 77.7102 54.8647C76.9647 55.9131 75.9863 56.7742 74.8517 57.3804C73.7172 57.9866 72.4575 58.3213 71.1717 58.3583C69.9512 58.4054 68.7352 58.1836 67.6099 57.7089C66.4845 57.2341 65.4772 56.5178 64.6591 55.6108C63.8411 54.7038 63.2324 53.6281 62.876 52.4598C62.5196 51.2915 62.4243 50.0592 62.5967 48.85C62.9092 46.6833 64.0925 44.7792 66.1467 43.1458C66.1763 43.1231 66.1995 43.0932 66.2141 43.0588C66.2287 43.0245 66.2342 42.987 66.23 42.95C65.805 38.875 64.9342 34.9875 63.9009 30.4792C62.6509 25.0208 60.8717 19.9417 57.8592 15.0417C57.2585 14.0446 56.5516 13.1156 55.7509 12.2708C53.7509 10.2125 51.5967 8.53333 48.6842 9.2375C46.7009 9.72083 44.23 11.9625 43.1009 13.5833C40.5079 17.3214 38.5393 21.4558 37.2717 25.825C37.2757 25.8456 37.2874 25.864 37.3044 25.8763C37.3214 25.8887 37.3425 25.8942 37.3634 25.8917L43.98 25.5833C44.052 25.5802 44.1203 25.5505 44.1717 25.5C46.83 22.8667 50.7134 22.3333 53.9092 24.2167C55.2342 24.9958 56.28 26.2083 57.0509 27.8542C58.9509 31.925 56.5384 36.7708 52.6342 38.1958C48.9717 39.5333 45.1342 38.1708 43.0759 34.825C43.0492 34.7822 43.0116 34.7472 42.9669 34.7238C42.9222 34.7003 42.8721 34.6892 42.8217 34.6917C39.459 34.8092 36.1045 35.0999 32.7717 35.5625C29.955 35.9542 26.9259 36.7958 24.38 37.6458C21.4967 38.5958 18.7675 39.8125 16.1925 41.2958C12.505 43.4208 7.07169 47.825 9.79252 52.65C10.2884 53.5292 10.7634 54.2042 11.2217 54.6792C14.93 58.5125 19.555 60.575 24.9717 62.3958C24.9862 62.4008 25.0018 62.402 25.0169 62.3994C25.032 62.3968 25.0462 62.3904 25.0583 62.3809C25.0703 62.3714 25.0797 62.359 25.0857 62.3448C25.0917 62.3307 25.094 62.3153 25.0925 62.3L24.4384 57.5292C24.4329 57.4862 24.4176 57.4452 24.3938 57.409C24.37 57.3729 24.3382 57.3428 24.3009 57.3208C22.7316 56.3924 21.4952 54.9926 20.7675 53.3208C19.0384 49.4667 20.6425 45.0583 24.0675 42.9458C25.6229 41.9885 27.4492 41.5676 29.2667 41.7474C31.0841 41.9273 32.7925 42.6981 34.13 43.9417C35.5675 45.2542 36.7259 47.5042 36.805 49.5917C36.9134 52.4958 35.7509 54.7542 33.5467 56.6875C33.5167 56.7127 33.4934 56.7449 33.4789 56.7812C33.4643 56.8176 33.459 56.8569 33.4634 56.8958C34.1509 62.125 35.4842 67.5 36.7425 72.3333C37.8342 76.5167 39.6175 81.075 42.1425 85.0042C43.455 87.0458 45.0467 88.8375 46.8717 89.9583C49.0634 91.3042 51.2467 91.2583 53.4134 89.8208C56.1884 87.9792 57.7675 85.5125 59.5384 82.2292C60.8871 79.7268 61.9627 77.0866 62.7467 74.3542C62.7436 74.3369 62.7343 74.3213 62.7204 74.3106C62.7066 74.2998 62.6892 74.2945 62.6717 74.2958L57.105 74.5583C57.0613 74.561 57.019 74.5751 56.9825 74.5992C56.9459 74.6233 56.9163 74.6567 56.8967 74.6958C56.395 75.7613 55.6524 76.6954 54.7275 77.4243C53.8025 78.1533 52.7207 78.6571 51.5675 78.8958C50.1348 79.2287 48.6367 79.1447 47.2502 78.6537C45.8637 78.1627 44.6465 77.2853 43.7425 76.125C41.4175 73.1125 41.4217 69.4667 43.73 66.4583C44.8194 65.0234 46.3938 64.034 48.1592 63.675C50.6592 63.1208 53.0092 63.7417 55.2134 65.5375C55.2732 65.5862 55.3488 65.6114 55.4259 65.6083C58.8842 65.4958 62.2592 65.2 65.555 64.7208C68.1384 64.3458 71.2384 63.5208 73.505 62.8792C76.733 61.9579 79.8556 60.701 82.8217 59.1292C85.8717 57.5208 89.63 54.825 90.6967 51.4333C92.3634 46.1458 84.6967 41.4083 80.8967 39.7583C78.2425 38.6042 76.1884 37.8125 74.7342 37.3833C74.721 37.3786 74.7068 37.3773 74.693 37.3794C74.6792 37.3816 74.6661 37.3873 74.655 37.3958C74.6434 37.4058 74.6348 37.4188 74.63 37.4333C74.6268 37.447 74.6227 37.4613 74.6259 37.475Z" fill="black"/>
</g>
<defs>
<clipPath id="clip0_868_39435">
<rect width="100" height="100" fill="white"/>
</clipPath>
</defs>
</svg>
