<svg width="100" height="100" viewBox="0 0 100 100" fill="none" xmlns="http://www.w3.org/2000/svg">
<g clip-path="url(#clip0_867_21852)">
<path fill-rule="evenodd" clip-rule="evenodd" d="M49.8748 31.536C48.9828 31.647 48.1583 32.068 47.5452 32.7252C46.9321 33.3825 46.5694 34.2343 46.5206 35.1318C46.4664 35.9443 46.4789 36.0027 48.3123 40.7443C52.4789 51.536 53.4873 54.136 53.6581 54.5027C54.0706 55.3902 54.6456 56.2235 55.3664 56.9693C55.9248 57.5443 56.2914 57.8527 56.9081 58.2652C57.9914 58.9985 58.5331 59.1985 62.7623 60.461C66.8831 61.6902 69.1331 62.5027 71.0706 63.4735C73.5831 64.7318 75.3373 66.1568 76.4456 67.8527C77.2414 69.0693 77.9456 71.2485 78.2539 73.4443C78.3748 74.3027 78.3748 76.1985 78.2539 76.9735C78.0546 78.4969 77.5195 79.957 76.6873 81.2485C76.2706 81.8777 76.4164 81.7735 77.0248 81.0068C78.7539 78.8402 80.5164 75.1402 81.4164 71.786C82.5053 67.6886 82.6506 63.3977 81.8414 59.236C81.0721 55.2796 79.4458 51.5397 77.0769 48.2789C74.708 45.0181 71.6538 42.3155 68.1289 40.361C66.2998 39.3784 64.4637 38.4089 62.6206 37.4527L61.5623 36.8985C59.3734 35.7525 57.1859 34.6039 54.9998 33.4527C52.7164 32.2443 51.7498 31.761 51.4748 31.6777C51.0798 31.5723 50.6748 31.5094 50.2664 31.4902L49.8789 31.5318L49.8748 31.536Z" fill="url(#paint0_radial_867_21852)"/>
<path d="M54.8497 71.8313C54.5645 71.9972 54.2838 72.1709 54.008 72.3521C51.5118 73.8955 49.0187 75.4442 46.5288 76.9979C45.1583 77.8556 43.7847 78.7084 42.408 79.5563L40.4788 80.7563C38.4044 82.0818 36.3183 83.3888 34.2205 84.6771C32.8622 85.5104 31.2872 86.0687 29.6788 86.2896C28.9288 86.3896 27.5122 86.3896 26.7622 86.2896C24.7694 86.0267 22.878 85.2546 21.2705 84.0479C20.4388 83.3724 19.6804 82.6113 19.008 81.7771C17.961 80.3685 17.2408 78.7445 16.8997 77.0229C16.8537 76.7678 16.7967 76.5148 16.7288 76.2646C16.6955 76.2313 16.7538 76.8396 16.8622 77.6396C16.9747 78.4688 17.2163 79.6688 17.4747 80.6938C19.483 88.6396 25.183 95.0979 32.9122 98.1729C35.1265 99.0557 37.4506 99.6332 39.8205 99.8896C40.7372 99.9938 43.3372 100.035 44.2955 99.9604C48.6872 99.6271 52.5122 98.3229 56.433 95.8271C57.733 94.9971 59.0344 94.1693 60.3372 93.3438L61.9372 92.3271L64.7872 90.5146L65.7622 89.8938L65.7997 89.8729L65.9038 89.8021L65.958 89.7729L66.6747 89.3146L69.1622 87.7313C72.3288 85.7271 73.2747 85.0229 74.7455 83.5729C75.3622 82.9646 76.2872 81.9312 76.333 81.8021C76.3413 81.7729 76.508 81.5188 76.6997 81.2354C77.5259 79.9466 78.0566 78.491 78.2538 76.9729C78.3733 75.7996 78.3733 74.6171 78.2538 73.4438C78.0302 71.8116 77.5844 70.2176 76.9288 68.7063C75.9955 66.7396 74.0122 64.9563 71.1663 63.5188C70.6221 63.2255 70.0566 62.9734 69.4747 62.7646C69.433 62.7646 66.783 64.3979 63.5872 66.3896C61.2842 67.8212 58.9814 69.2532 56.6788 70.6854L54.8497 71.8313Z" fill="url(#paint1_radial_867_21852)"/>
<path d="M16.679 62.2733L16.6957 76.1483L16.8707 76.9524C17.429 79.4691 18.3957 81.2858 20.079 82.9733C21.1383 84.0582 22.4059 84.9179 23.8057 85.5007C25.2055 86.0835 26.7086 86.3775 28.2248 86.3649C30.4582 86.3649 32.3915 85.8024 34.3873 84.5733L37.3165 82.7608L39.6332 81.3191V33.3441C39.6332 23.7358 39.6165 18.0316 39.5832 17.5858C39.4106 14.8113 38.2295 12.1957 36.2623 10.2316C35.6582 9.6316 35.1457 9.2316 33.6082 8.16493C30.4064 5.94801 27.2064 3.72856 24.0082 1.5066C22.5248 0.477433 22.4165 0.4066 21.9623 0.2441C21.4302 0.0454368 20.8613 -0.0354898 20.2949 0.00689685C19.7285 0.0492835 19.178 0.213975 18.6813 0.489624C18.1847 0.765272 17.7537 1.14532 17.4181 1.60358C17.0825 2.06185 16.8502 2.58742 16.7373 3.1441C16.679 3.4066 16.6665 6.91077 16.6665 25.9274V48.4024L16.679 62.2733Z" fill="url(#paint2_linear_867_21852)"/>
</g>
<defs>
<radialGradient id="paint0_radial_867_21852" cx="0" cy="0" r="1" gradientTransform="matrix(-3360 -2790.3 5464.27 -3360.06 765.355 -3672.56)" gradientUnits="userSpaceOnUse">
<stop stop-color="#00CACC"/>
<stop offset="1" stop-color="#048FCE"/>
</radialGradient>
<radialGradient id="paint1_radial_867_21852" cx="0" cy="0" r="1" gradientTransform="matrix(5100.95 -3642.9 1329.9 5101.07 1135.61 2154.89)" gradientUnits="userSpaceOnUse">
<stop stop-color="#00BBEC"/>
<stop offset="1" stop-color="#2756A9"/>
</radialGradient>
<linearGradient id="paint2_linear_867_21852" x1="1165" y1="-0.00405884" x2="1165" y2="8636.93" gradientUnits="userSpaceOnUse">
<stop stop-color="#00BBEC"/>
<stop offset="1" stop-color="#2756A9"/>
</linearGradient>
<clipPath id="clip0_867_21852">
<rect width="100" height="100" fill="white"/>
</clipPath>
</defs>
</svg>
