<svg width="100" height="100" viewBox="0 0 100 100" fill="none" xmlns="http://www.w3.org/2000/svg">
<path d="M49.9994 6.99994L27.7256 45.5773C36.1771 42.9718 45.2693 42.5856 54.0827 44.6643L61.6104 46.4412L54.5281 76.4719L46.9897 74.6952C41.1988 73.3291 35.1625 74.6827 30.4939 78.3733C28.1587 80.2203 26.319 82.5392 25.058 85.1406L18.0901 81.7696C19.853 78.1289 22.4302 74.8812 25.6855 72.3041C32.1975 67.1497 40.6878 65.2567 48.7713 67.164L52.3016 52.1968C39.6552 49.2154 26.3268 52.1842 16.1388 60.2483C5.95072 68.3117 0 80.6041 0 93.5961L100 93.599L49.9994 6.99994Z" fill="#60A5FA"/>
</svg>
