<svg width="100" height="100" viewBox="0 0 100 100" fill="none" xmlns="http://www.w3.org/2000/svg">
<g clip-path="url(#clip0_867_22564)">
<path d="M3.24557 5.00027C2.77793 4.99422 2.31464 5.09063 1.88823 5.28271C1.46182 5.4748 1.08263 5.75791 0.777295 6.11216C0.471961 6.46641 0.247883 6.88321 0.120799 7.33329C-0.00628458 7.78336 -0.0332933 8.25581 0.04167 8.71744L13.6428 91.2847C13.8122 92.2951 14.3323 93.2135 15.1116 93.8786C15.8909 94.5437 16.8796 94.9129 17.9041 94.9214H83.1539C83.9218 94.9311 84.6677 94.6648 85.2557 94.1708C85.8436 93.6768 86.2346 92.988 86.3574 92.23L99.9589 8.73345C100.034 8.27185 100.007 7.79946 99.8795 7.34945C99.7523 6.89944 99.5282 6.48272 99.2228 6.12855C98.9175 5.77438 98.5383 5.49136 98.1119 5.29934C97.6855 5.10733 97.2222 5.01098 96.7546 5.01706L3.24557 5.00027ZM60.5173 64.675H39.6912L34.0521 35.2142H65.5637L60.5173 64.675Z" fill="#2684FF"/>
<path d="M95.5506 35.1729H65.5054L60.4628 64.6102H39.6535L15.0825 93.7754C15.8613 94.4487 16.8542 94.8231 17.8837 94.8316H83.0975C83.8648 94.8415 84.6102 94.5754 85.1978 94.0819C85.7855 93.5883 86.1763 92.9001 86.299 92.1426L95.5506 35.1729Z" fill="url(#paint0_linear_867_22564)"/>
</g>
<defs>
<linearGradient id="paint0_linear_867_22564" x1="102.497" y1="43.4165" x2="67.7903" y2="92.6965" gradientUnits="userSpaceOnUse">
<stop offset="0.18" stop-color="#0052CC"/>
<stop offset="1" stop-color="#2684FF"/>
</linearGradient>
<clipPath id="clip0_867_22564">
<rect width="100" height="100" fill="white"/>
</clipPath>
</defs>
</svg>
