<svg width="100" height="100" viewBox="0 0 100 100" fill="none" xmlns="http://www.w3.org/2000/svg">
<path fill-rule="evenodd" clip-rule="evenodd" d="M56.4976 87.6777C49.3886 87.6777 42.2796 85.3081 38.4881 79.6209L37.0663 86.2559L11 100L13.8436 86.2559L32.8009 0H56.0237L49.3886 30.3318C54.6019 24.6445 59.8152 22.2749 66.4502 22.2749C80.6682 22.2749 89.673 31.2796 89.673 48.3412C89.673 65.4028 78.7725 87.6777 56.4976 87.6777ZM65.5024 53.0806C65.5024 61.1374 59.8152 67.2986 52.2322 67.2986C44.6493 67.2986 44.1754 65.8768 41.8057 63.0332L45.5972 47.3934C48.4408 44.5498 51.2844 43.128 55.0758 43.128C60.763 43.128 65.5024 47.3934 65.5024 53.5545V53.0806Z" fill="black"/>
</svg>
