<svg width="100" height="100" viewBox="0 0 100 100" fill="none" xmlns="http://www.w3.org/2000/svg">
<path d="M11.0314 20.4141C10.8428 14.9961 15.0641 10 20.7699 10H79.2373C84.9432 10 89.1645 14.9961 88.9758 20.4141C88.7945 25.6186 89.0299 32.3604 90.7266 37.8574C92.4287 43.3715 95.299 46.8568 100 47.3047V52.3828C95.299 52.8307 92.4287 56.316 90.7266 61.8301C89.0299 67.3271 88.7945 74.0689 88.9758 79.2736C89.1645 84.6914 84.9432 89.6875 79.2373 89.6875H20.7699C15.0641 89.6875 10.8428 84.6914 11.0316 79.2736C11.2127 74.0689 10.9773 67.3271 9.28047 61.8301C7.57852 56.316 4.70117 52.8307 0 52.3828V47.3047C4.70098 46.8568 7.57852 43.3715 9.28047 37.8574C10.9773 32.3604 11.2127 25.6186 11.0314 20.4141Z" fill="url(#paint0_linear_867_21928)"/>
<g filter="url(#filter0_d_867_21928)">
<path d="M52.1685 71.0267C61.4062 71.0267 66.9728 66.5037 66.9728 59.0433C66.9728 53.4041 63.001 49.3215 57.1033 48.6752V48.4402C61.4363 47.7353 64.8365 43.7115 64.8365 39.2177C64.8365 32.8148 59.7814 28.6439 52.0783 28.6439H34.7463V71.0267H52.1685ZM41.4865 34.0189H50.4535C55.3281 34.0189 58.0963 36.1924 58.0963 40.1281C58.0963 44.3283 54.8767 46.6779 49.0392 46.6779H41.4865V34.0189ZM41.4865 65.6519V51.7006H50.3932C56.7723 51.7006 60.0822 54.0502 60.0822 58.6322C60.0822 63.214 56.8627 65.6519 50.7844 65.6519H41.4865Z" fill="url(#paint1_linear_867_21928)"/>
<path d="M52.1685 71.0267C61.4062 71.0267 66.9728 66.5037 66.9728 59.0433C66.9728 53.4041 63.001 49.3215 57.1033 48.6752V48.4402C61.4363 47.7353 64.8365 43.7115 64.8365 39.2177C64.8365 32.8148 59.7814 28.6439 52.0783 28.6439H34.7463V71.0267H52.1685ZM41.4865 34.0189H50.4535C55.3281 34.0189 58.0963 36.1924 58.0963 40.1281C58.0963 44.3283 54.8767 46.6779 49.0392 46.6779H41.4865V34.0189ZM41.4865 65.6519V51.7006H50.3932C56.7723 51.7006 60.0822 54.0502 60.0822 58.6322C60.0822 63.214 56.8627 65.6519 50.7844 65.6519H41.4865Z" stroke="white" stroke-width="0.195312"/>
</g>
<defs>
<filter id="filter0_d_867_21928" x="31.5236" y="26.2025" width="38.6719" height="48.8281" filterUnits="userSpaceOnUse" color-interpolation-filters="sRGB">
<feFlood flood-opacity="0" result="BackgroundImageFix"/>
<feColorMatrix in="SourceAlpha" type="matrix" values="0 0 0 0 0 0 0 0 0 0 0 0 0 0 0 0 0 0 127 0" result="hardAlpha"/>
<feOffset dy="0.78125"/>
<feGaussianBlur stdDeviation="1.5625"/>
<feColorMatrix type="matrix" values="0 0 0 0 0 0 0 0 0 0 0 0 0 0 0 0 0 0 0.15 0"/>
<feBlend mode="normal" in2="BackgroundImageFix" result="effect1_dropShadow_867_21928"/>
<feBlend mode="normal" in="SourceGraphic" in2="effect1_dropShadow_867_21928" result="shape"/>
</filter>
<linearGradient id="paint0_linear_867_21928" x1="14.8592" y1="12.109" x2="102.242" y2="81.4736" gradientUnits="userSpaceOnUse">
<stop stop-color="#9013FE"/>
<stop offset="1" stop-color="#6610F2"/>
</linearGradient>
<linearGradient id="paint1_linear_867_21928" x1="37.7945" y1="31.4336" x2="57.3269" y2="64.4672" gradientUnits="userSpaceOnUse">
<stop stop-color="white"/>
<stop offset="1" stop-color="#F1E5FC"/>
</linearGradient>
</defs>
</svg>
