<svg width="100" height="100" viewBox="0 0 100 100" fill="none" xmlns="http://www.w3.org/2000/svg">
<path d="M29.7941 74.7371C29.6746 73.1404 29.23 71.3923 27.466 69.7829C27.466 69.7797 27.4628 69.7797 27.458 69.7765C27.3895 69.7128 27.313 69.6458 27.2397 69.5821C27.2285 69.5757 27.2222 69.5662 27.2142 69.5614C24.7729 67.332 22.8225 63.047 22.8225 58.4975C22.8225 52.1553 25.6318 34.1294 26.239 34.1294C26.7202 34.1294 26.7298 42.8236 26.4111 50.9968C26.1896 56.6729 27.0294 58.9087 28.3839 58.9087C30.1877 58.9087 30.4761 53.1959 30.6626 46.774C30.8156 41.4867 31.2777 34.1692 31.6474 34.1294C32.2242 34.1294 32.7023 41.4006 32.8569 46.7007C33.0481 53.2819 33.5038 58.7461 35.0113 58.7461C36.5937 58.7461 37.0749 56.2188 36.9634 50.608C36.8263 43.759 36.8247 34.1294 37.306 34.1294C37.9131 34.1294 39.9735 40.4572 40.4707 58.4975C40.5966 63.0439 38.5203 67.3304 36.0774 69.5614C36.0694 69.5677 36.063 69.5773 36.0519 69.5821C35.9786 69.6458 35.9021 69.7128 35.8336 69.7765C35.8304 69.7797 35.8256 69.7797 35.8256 69.7829C34.06 71.3923 33.617 73.1404 33.4959 74.7371C33.3047 77.2868 33.2186 80.5535 33.2282 84.2298L47.1333 98.1348C47.3277 92.0747 47.3085 86.3587 47.0408 82.0434C46.9404 80.4308 46.6934 78.5584 46.4114 77.0653C46.3237 76.5888 46.0178 76.149 46.0178 75.7713C46.0178 70.5414 46.0178 26.4773 46.0178 23.2408C46.0178 18.7598 50.2135 16.642 54.073 26.4773C57.9326 36.3125 56.8553 71.2903 56.8553 73.7778C56.8553 74.3053 56.398 74.9284 55.6474 75.5419C55.3479 75.7363 55.0865 75.9323 54.8348 76.1331C52.5225 77.9879 52.1927 80.1264 52.0716 82.0434C51.7832 86.6838 51.5505 92.9432 51.4899 99.5101L70.6537 80.3463C70.6266 78.0947 70.5644 76.0693 70.4593 74.3818C70.4194 73.7348 70.2585 73.0767 70.1358 72.3835C69.7884 70.4203 67.3583 68.8124 65.9528 67.4006C63.2215 64.6581 61.4654 60.048 61.4654 54.85C61.4654 46.4091 66.144 35.7245 71.9157 35.7245C77.6875 35.7245 82.3677 46.4075 82.3677 54.85C82.3677 60.048 80.6116 64.6597 77.8803 67.4006C76.4732 68.8124 74.0431 70.4203 73.6957 72.3835C73.573 73.0783 73.4121 73.7348 73.3722 74.3818C73.3085 75.3969 73.2623 76.541 73.2272 77.7744L100 51L50 1L0 51L30.0427 81.0427C30.0092 78.6636 29.928 76.5219 29.7941 74.7371Z" fill="#3F894A"/>
</svg>
