<svg width="100" height="100" viewBox="0 0 100 100" fill="none" xmlns="http://www.w3.org/2000/svg">
<g clip-path="url(#clip0_867_13937)">
<path fill-rule="evenodd" clip-rule="evenodd" d="M64.3613 0.000488281C75.8141 0.000488281 85.0983 9.21846 85.0983 20.5891L85.0914 21.1202C84.8075 32.2452 75.6349 41.1772 64.3613 41.1772H55.4738V58.8248H64.3613C75.6349 58.8248 84.8075 67.7565 85.0914 78.8815L85.0983 79.4128C85.0983 90.783 75.8144 100 64.3619 100C52.9091 100 43.6252 90.7833 43.6252 79.4128L43.624 70.5889H34.7372C23.2845 70.5889 14.0001 61.3714 14 50.0009C14 38.6303 23.2844 29.4122 34.7372 29.4122H43.624V20.5885C43.6243 9.2183 52.9088 0.000955716 64.3613 0.000488281ZM34.7372 41.1772C29.8289 41.1772 25.8497 45.1277 25.8497 50.0009C25.8498 54.874 29.829 58.8242 34.7372 58.8242H43.624V41.1772H34.7372ZM64.3613 11.7653C59.4532 11.7658 55.475 15.7162 55.475 20.5891L55.4738 29.4122H64.3613C69.1927 29.4122 73.1238 25.5844 73.2453 20.8166L73.2488 20.5891C73.2488 15.716 69.2697 11.7653 64.3613 11.7653ZM55.475 79.4128C55.475 84.2856 59.4532 88.2355 64.3613 88.2358C69.1927 88.2358 73.1238 84.4084 73.2453 79.6406L73.2488 79.4128C73.2485 74.5396 69.2693 70.5895 64.3613 70.5895H55.4738L55.475 79.4128Z" fill="black"/>
</g>
<defs>
<clipPath id="clip0_867_13937">
<rect width="100" height="100" fill="white"/>
</clipPath>
</defs>
</svg>
