<svg width="100" height="100" viewBox="0 0 100 100" fill="none" xmlns="http://www.w3.org/2000/svg">
<g clip-path="url(#clip0_868_38792)">
<path d="M93.5037 28.1257C93.5037 36.9602 89.428 44.8455 83.0567 50.0016L8.00335 7.38612C7.71106 7.22191 7.44832 7.02158 7.21186 6.79497C7.14946 6.73585 6 5.72104 6 3.95087C6 2.86052 6.44336 1.87198 7.15603 1.15603C7.87527 0.443364 8.86381 0 9.95415 0H65.378C80.9121 0 93.5037 12.5915 93.5037 28.1257Z" fill="#18B4F4"/>
<path d="M93.5037 71.8743C93.5037 87.4085 80.9122 100 65.378 100H9.95416C8.0165 100 6.0033 98.4696 6.0033 96.0491C6.0033 94.302 7.1035 93.3167 7.22173 93.1985L7.2283 93.1919C7.46147 92.9719 7.72092 92.7748 8.00665 92.6139L37.5347 75.8481L83.0567 50.0016H83.06C89.4313 55.1578 93.507 63.0398 93.507 71.8776L93.5037 71.8743Z" fill="#FD6B3C"/>
<path d="M83.0567 50.0016H83.0535L37.5314 75.8514L8.00335 92.6171C7.71763 92.7781 7.45818 92.9751 7.225 93.1952C18.0726 82.0322 24.7527 66.7969 24.7527 50.0016C24.7527 33.2063 18.0694 17.9579 7.21515 6.79492C7.45161 7.02153 7.71434 7.21858 8.00664 7.38607L83.06 50.0016H83.0567Z" fill="#A97FF2"/>
</g>
<defs>
<clipPath id="clip0_868_38792">
<rect width="100" height="100" fill="white"/>
</clipPath>
</defs>
</svg>
