<svg width="100" height="100" viewBox="0 0 100 100" fill="none" xmlns="http://www.w3.org/2000/svg">
<path d="M89.2374 32.2991C89.0374 32.0866 88.8249 31.8741 88.6124 31.6741C88.3999 31.4741 88.1999 31.2491 87.9874 31.0491C87.7749 30.8491 87.5749 30.6241 87.3624 30.4241C87.1499 30.2241 86.9499 29.9991 86.7374 29.7991C86.5249 29.5991 86.3249 29.3741 86.1124 29.1741C85.8999 28.9741 85.6999 28.7491 85.4874 28.5491C85.2749 28.3491 85.0749 28.1241 84.8624 27.9241C91.0626 34.0175 94.6146 42.307 94.7499 50.9991C94.7499 71.7116 73.7249 88.5616 47.8749 88.5616C33.3999 88.5616 20.4499 83.2741 11.8374 74.9866L12.4624 75.6116L13.0874 76.2366L13.7124 76.8616L14.3374 77.4866L14.9624 78.1116L15.5874 78.7366L16.2124 79.3616C24.8124 87.9991 38.0499 93.5616 52.8749 93.5616C78.7249 93.5616 99.7499 76.7116 99.7499 56.0616C99.7499 47.2366 95.9499 38.8741 89.2374 32.2991Z" fill="black"/>
<path d="M91.625 50.9991C91.625 70.0116 72.0375 85.4241 47.875 85.4241C23.7125 85.4241 4.125 70.0116 4.125 50.9991C4.125 39.2116 11.625 28.7991 23.15 22.6241C34.675 16.4491 41.85 10.1241 47.875 10.1241C53.9 10.1241 59.05 15.2866 72.6 22.6241C84.125 28.7991 91.625 39.2116 91.625 50.9991Z" fill="#FBF0DF"/>
<path d="M91.6251 50.9992C91.619 48.5568 91.2826 46.1264 90.6251 43.7742C87.2126 85.3992 36.4376 87.3992 16.4751 74.9492C25.4489 81.9046 36.5227 85.5989 47.8751 85.4242C72.0001 85.4242 91.6251 69.9867 91.6251 50.9992Z" fill="#F6DECE"/>
<path d="M31.0375 20.3366C36.625 16.9866 44.05 10.6991 51.35 10.6866C50.227 10.3236 49.0552 10.134 47.875 10.1241C44.85 10.1241 41.625 11.6866 37.5625 14.0366C36.15 14.8616 34.6875 15.7741 33.1375 16.7241C30.225 18.5241 26.8875 20.5616 23.1375 22.5991C11.2375 29.0366 4.125 39.6491 4.125 50.9991C4.125 51.4991 4.125 51.9991 4.125 52.4866C11.7 25.7241 25.4625 23.6866 31.0375 20.3366Z" fill="#FFFEFC"/>
<path fill-rule="evenodd" clip-rule="evenodd" d="M44.2751 13.2866C44.2926 16.2382 43.6729 19.1587 42.4584 21.8488C41.2438 24.5389 39.463 26.9352 37.2376 28.8741C36.8876 29.1866 37.1626 29.7866 37.6126 29.6116C41.8251 27.9741 47.5126 23.0741 45.1126 13.1866C45.0126 12.6241 44.2751 12.7741 44.2751 13.2866ZM47.1126 13.2866C48.6421 15.7822 49.6138 18.5789 49.9612 21.4852C50.3085 24.3914 50.0233 27.3384 49.1251 30.1241C48.9751 30.5616 49.5126 30.9366 49.8126 30.5741C52.5501 27.0741 54.9376 20.1241 47.7876 12.6241C47.4251 12.2991 46.8626 12.7991 47.1126 13.2366V13.2866ZM50.5626 13.0741C52.9578 14.7698 54.9615 16.9594 56.4385 19.4953C57.9156 22.0311 58.8317 24.8542 59.1251 27.7741C59.1124 27.8794 59.1408 27.9854 59.2042 28.0703C59.2676 28.1552 59.3613 28.2124 59.4658 28.2301C59.5703 28.2478 59.6776 28.2246 59.7654 28.1653C59.8533 28.106 59.9149 28.0152 59.9376 27.9116C61.0876 23.5491 60.4376 16.1116 50.9751 12.2491C50.4751 12.0491 50.1501 12.7241 50.5626 13.0241V13.0741ZM27.4876 26.0741C30.3367 25.223 32.9746 23.7813 35.2295 21.843C37.4844 19.9046 39.3058 17.5131 40.5751 14.8241C40.8001 14.3741 41.5126 14.5491 41.4001 15.0491C39.2376 25.0491 32.0001 27.1366 27.5001 26.8616C27.0251 26.8741 27.0376 26.2116 27.4876 26.0741Z" fill="#CCBEA7"/>
<path d="M47.875 88.5616C22.025 88.5616 1 71.7116 1 50.9991C1 38.4991 8.725 26.8366 21.6625 19.8491C25.4125 17.8491 28.625 15.8366 31.4875 14.0741C33.0625 13.0991 34.55 12.1866 35.9875 11.3366C40.375 8.73665 44.125 6.99915 47.875 6.99915C51.625 6.99915 54.9 8.49915 59 10.9241C60.25 11.6366 61.5 12.4116 62.8375 13.2616C65.95 15.1866 69.4625 17.3616 74.0875 19.8491C87.025 26.8366 94.75 38.4866 94.75 50.9991C94.75 71.7116 73.725 88.5616 47.875 88.5616ZM47.875 10.1241C44.85 10.1241 41.625 11.6866 37.5625 14.0366C36.15 14.8616 34.6875 15.7741 33.1375 16.7241C30.225 18.5241 26.8875 20.5616 23.1375 22.5991C11.2375 29.0366 4.125 39.6491 4.125 50.9991C4.125 69.9866 23.75 85.4366 47.875 85.4366C72 85.4366 91.625 69.9866 91.625 50.9991C91.625 39.6491 84.5125 29.0366 72.6 22.6241C67.875 20.1241 64.1875 17.7741 61.2 15.9241C59.8375 15.0866 58.5875 14.3116 57.45 13.6241C53.6625 11.3741 50.9 10.1241 47.875 10.1241Z" fill="black"/>
<path d="M56.6875 60.1242C56.126 62.4241 54.8477 64.4859 53.0375 66.0117C51.6784 67.3291 49.9191 68.156 48.0375 68.3617C46.0994 68.1886 44.2783 67.3596 42.875 66.0117C41.0833 64.4787 39.823 62.4176 39.275 60.1242C39.2568 59.988 39.2701 59.8495 39.3137 59.7192C39.3574 59.589 39.4302 59.4705 39.5268 59.3727C39.6233 59.275 39.7409 59.2007 39.8706 59.1554C40.0003 59.1102 40.1386 59.0952 40.275 59.1117H55.7C55.8354 59.0973 55.9723 59.1138 56.1004 59.1599C56.2285 59.2061 56.3444 59.2807 56.4395 59.3782C56.5346 59.4757 56.6063 59.5935 56.6492 59.7227C56.6922 59.8519 56.7053 59.9892 56.6875 60.1242Z" fill="#B71422"/>
<path d="M42.8749 66.1117C44.2753 67.4604 46.0898 68.2972 48.0248 68.4867C49.9555 68.2945 51.7652 67.4579 53.1624 66.1117C53.6093 65.6951 54.0269 65.2482 54.4124 64.7742C53.6423 63.9006 52.7017 63.1938 51.6484 62.6972C50.595 62.2006 49.4512 61.9248 48.2874 61.8867C47.042 61.9162 45.8224 62.2478 44.7337 62.8532C43.6449 63.4585 42.7196 64.3194 42.0374 65.3617C42.3249 65.6242 42.5749 65.8742 42.8749 66.1117Z" fill="#FF6164"/>
<path d="M43.075 65.1242C43.6947 64.3231 44.4879 63.673 45.3951 63.2226C46.3023 62.7723 47.2997 62.5335 48.3124 62.5242C50.1844 62.5794 51.968 63.3329 53.3124 64.6367C53.5999 64.3242 53.8749 63.9992 54.1374 63.6742C52.5472 62.1597 50.4457 61.2985 48.25 61.2617C47.0765 61.2718 45.9199 61.5415 44.8631 62.0516C43.8062 62.5616 42.8754 63.2993 42.1375 64.2117C42.433 64.5328 42.746 64.8374 43.075 65.1242Z" fill="black"/>
<path d="M47.9874 69.1116C45.9045 68.9291 43.9443 68.0481 42.4249 66.6116C40.49 64.9751 39.1281 62.7636 38.5374 60.2991C38.4951 60.0797 38.5023 59.8536 38.5585 59.6374C38.6147 59.4211 38.7186 59.2201 38.8624 59.0491C39.0338 58.8423 39.2501 58.6773 39.4949 58.5668C39.7397 58.4563 40.0065 58.4032 40.2749 58.4116H55.6999C55.968 58.406 56.2339 58.4603 56.4783 58.5706C56.7227 58.6809 56.9393 58.8444 57.1124 59.0491C57.2549 59.2207 57.357 59.4222 57.4111 59.6385C57.4652 59.8549 57.4699 60.0807 57.4249 60.2991C56.8343 62.7636 55.4724 64.9751 53.5374 66.6116C52.0214 68.0456 50.066 68.9264 47.9874 69.1116ZM40.2749 59.8616C40.0749 59.8616 40.0249 59.9491 40.0124 59.9741C40.5408 62.1112 41.7361 64.0245 43.4249 65.4366C44.6599 66.6533 46.2655 67.4231 47.9874 67.6241C49.7049 67.4254 51.3088 66.6652 52.5499 65.4616C54.2335 64.0471 55.4241 62.1343 55.9499 59.9991C55.9227 59.9592 55.8849 59.9275 55.8408 59.9076C55.7967 59.8878 55.7479 59.8805 55.6999 59.8866L40.2749 59.8616Z" fill="black"/>
<path d="M66.8999 60.8991C70.9385 60.8991 74.2124 58.974 74.2124 56.5991C74.2124 54.2243 70.9385 52.2991 66.8999 52.2991C62.8613 52.2991 59.5874 54.2243 59.5874 56.5991C59.5874 58.974 62.8613 60.8991 66.8999 60.8991Z" fill="#FEBBD0"/>
<path d="M29.0625 60.8991C33.1011 60.8991 36.375 58.974 36.375 56.5991C36.375 54.2243 33.1011 52.2991 29.0625 52.2991C25.0239 52.2991 21.75 54.2243 21.75 56.5991C21.75 58.974 25.0239 60.8991 29.0625 60.8991Z" fill="#FEBBD0"/>
<path fill-rule="evenodd" clip-rule="evenodd" d="M32.5 54.8741C33.8627 54.8766 35.1956 54.4747 36.3299 53.7194C37.4642 52.9641 38.3489 51.8893 38.8721 50.631C39.3953 49.3727 39.5335 47.9875 39.2692 46.6506C39.0048 45.3137 38.3499 44.0853 37.3871 43.1209C36.4244 42.1564 35.1972 41.4992 33.8608 41.2324C32.5244 40.9656 31.1389 41.1013 29.8797 41.6222C28.6204 42.1431 27.544 43.0259 26.7866 44.1588C26.0293 45.2917 25.625 46.6239 25.625 47.9866C25.625 49.8111 26.3489 51.5611 27.6379 52.8524C28.9268 54.1437 30.6755 54.8708 32.5 54.8741ZM63.4625 54.8741C64.8268 54.884 66.1633 54.4885 67.3025 53.7377C68.4417 52.987 69.3323 51.9148 69.8613 50.6572C70.3902 49.3996 70.5338 48.0132 70.2737 46.6738C70.0136 45.3345 69.3616 44.1026 68.4004 43.1344C67.4392 42.1661 66.2121 41.5052 64.8747 41.2353C63.5373 40.9655 62.1499 41.099 60.8884 41.6187C59.627 42.1385 58.5484 43.0213 57.7893 44.155C57.0303 45.2887 56.625 46.6223 56.625 47.9866C56.6217 49.8057 57.3394 51.5519 58.6209 52.8428C59.9025 54.1338 61.6435 54.8642 63.4625 54.8741Z" fill="black"/>
<path fill-rule="evenodd" clip-rule="evenodd" d="M30.375 48.4241C30.8873 48.4266 31.3888 48.2769 31.816 47.9941C32.2431 47.7113 32.5767 47.3081 32.7745 46.8355C32.9722 46.3629 33.0253 45.8423 32.9268 45.3395C32.8284 44.8368 32.583 44.3746 32.2216 44.0114C31.8602 43.6483 31.3992 43.4006 30.897 43.2998C30.3947 43.1989 29.8738 43.2494 29.4003 43.4449C28.9267 43.6404 28.5219 43.972 28.237 44.3978C27.9521 44.8236 27.8001 45.3243 27.8 45.8366C27.8 46.5207 28.0709 47.177 28.5535 47.6618C29.036 48.1467 29.691 48.4208 30.375 48.4241ZM61.3375 48.4241C61.8498 48.4266 62.3513 48.2769 62.7785 47.9941C63.2056 47.7113 63.5392 47.3081 63.737 46.8355C63.9347 46.3629 63.9878 45.8423 63.8893 45.3395C63.7909 44.8368 63.5455 44.3746 63.1841 44.0114C62.8227 43.6483 62.3617 43.4006 61.8595 43.2998C61.3572 43.1989 60.8363 43.2494 60.3628 43.4449C59.8892 43.6404 59.4844 43.972 59.1995 44.3978C58.9146 44.8236 58.7626 45.3243 58.7625 45.8366C58.7625 46.5164 59.0299 47.1689 59.5071 47.6531C59.9843 48.1373 60.6328 48.4143 61.3125 48.4241H61.3375Z" fill="white"/>
</svg>
