<svg width="100" height="100" viewBox="0 0 100 100" fill="none" xmlns="http://www.w3.org/2000/svg">
<path d="M62.2666 77.4456L55.1666 75.5915V41.7081L62.7666 39.7831C66.9333 38.7248 70.4333 37.8623 70.6 37.8956C70.7333 37.8956 70.8333 47.2081 70.8333 58.6123V79.3332L70.1 79.2998C69.6666 79.2998 66.1333 78.4415 62.2666 77.4456Z" fill="#00C8D2"/>
<path d="M29.1667 68.924C29.1667 57.524 29.2667 48.174 29.4334 48.174C29.5667 48.1406 33.0667 49.0073 37.2667 50.0656L44.8334 51.9865L44.7668 68.8615L44.6667 85.7323L37.8667 87.4906C34.1334 88.449 30.6334 89.3448 30.1334 89.4448L29.1667 89.6781V68.924Z" fill="#3C8CFF"/>
<path d="M80.1666 51.9874C80.1666 14.3624 80.2 12.3415 80.7666 12.5082C81.0666 12.6082 84.0333 13.3707 87.3333 14.1999C90.6333 15.0624 93.9 15.8874 94.6 16.054L95.8333 16.3874L95.7666 52.054L95.6666 87.754L88.9 89.479C85.2 90.4374 81.7 91.2999 81.1666 91.4374L80.1666 91.6665V51.9874Z" fill="#78E6DC"/>
<path fill-rule="evenodd" clip-rule="evenodd" d="M4.16675 52.1204C4.16675 32.6288 4.26675 16.6829 4.43341 16.6829C4.56675 16.6829 8.06675 17.5454 12.2334 18.5746L19.8334 20.4954V52.0871C19.8334 69.4204 19.7668 83.6454 19.7001 83.6454C19.6001 83.6454 16.0667 84.5413 11.8667 85.6038L4.16675 87.5538V52.1204Z" fill="#325AB4"/>
</svg>
