<svg width="100" height="100" viewBox="0 0 100 100" fill="none" xmlns="http://www.w3.org/2000/svg">
<path d="M100 73.3408V57.5074C100 61.2366 95.9167 64.6616 89.1 67.3699L50 57.5074V73.3408L89.1 83.2033C95.9167 80.4991 100 77.0741 100 73.3408Z" fill="#D32F2F"/>
<path d="M89.1 51.5491C95.9167 48.8241 100 45.4158 100 41.6825V25.8283C100 17.1033 77.6042 9.99915 50 9.99915C22.375 9.99915 0 17.0991 0 25.8241V41.6825C0 50.42 22.3875 57.5116 50 57.5116V41.6908L89.1 51.5491ZM50 89.1658V73.3408C22.375 73.3408 0 66.2366 0 57.5158V73.3408C0 82.0783 22.375 89.1658 50 89.1658Z" fill="#D32F2F"/>
</svg>
