<svg width="100" height="100" viewBox="0 0 100 100" fill="none" xmlns="http://www.w3.org/2000/svg">
<path d="M79.0271 41.1319C79.7363 49.3934 66.7346 57.2565 49.9876 58.6933C33.2406 60.1301 19.0895 54.5961 18.3812 46.335C17.672 38.0721 30.6737 30.2094 47.4207 28.7726C64.1677 27.3363 78.3188 32.8689 79.0271 41.1319Z" fill="#BBE6FB"/>
<path opacity="0.4" d="M47.912 29.7417C41.5238 29.6378 34.0484 32.1742 28.4862 34.5494C27.9073 36.2177 27.5957 37.992 27.5957 39.8313C27.5957 49.6313 36.4447 57.5768 47.3609 57.5768C58.2771 57.5768 67.1261 49.6313 67.1261 39.8313C67.1261 36.7299 66.2378 33.816 64.6801 31.2792C60.2301 30.5874 54.1096 29.8424 47.912 29.7417Z" fill="white"/>
<path d="M47.3608 29.7399C43.8241 29.524 37.7282 31.3692 32.6451 33.2098C31.8728 35.0325 31.4438 37.0272 31.4438 39.1203C31.4438 47.7069 39.229 54.6678 47.4646 54.6678C55.6461 54.6678 62.8846 47.6957 63.4854 39.1203C63.6806 36.3278 62.7194 33.6965 61.3847 31.4278C56.1148 30.4997 50.5222 29.9328 47.3608 29.7399Z" fill="white"/>
<path d="M38.285 37.9929C38.7189 37.032 39.3761 36.5615 40.0128 35.756C39.9421 35.5653 39.7871 34.9416 39.7871 34.7253C39.7871 33.76 40.5702 32.9765 41.536 32.9765C41.7639 32.9765 41.9815 33.0217 42.1807 33.1009C45.0753 30.895 48.886 29.9332 52.7154 30.7893C53.0651 30.8681 53.4081 30.9635 53.7448 31.0682C49.9601 30.5435 45.6941 31.884 42.7923 34.2261C42.881 34.4352 43.1268 35.0329 43.1268 35.2733C43.1268 36.2391 42.5017 36.4742 41.536 36.4742C41.3166 36.4742 41.1071 36.4321 40.9132 36.3582C40.2577 37.2384 39.4545 38.9152 39.0614 39.9633C40.666 41.3988 42.1158 41.919 44.0052 42.6251C44.0003 42.5351 44.0702 42.4518 44.0702 42.3601C44.0702 39.4485 46.6334 37.0822 49.5455 37.0822C52.1549 37.0822 54.3156 38.9797 54.7374 41.4691C56.0394 40.6408 57.2984 40.0059 58.2579 38.7782C58.0341 38.5051 57.7927 37.7318 57.7927 37.3513C57.7927 36.4751 58.5037 35.7645 59.3799 35.7645C59.504 35.7645 59.6231 35.7824 59.739 35.8093C60.2262 34.8081 60.5938 33.747 60.8288 32.6528C56.2754 29.2818 47.4653 29.7416 47.4653 29.7416C47.4653 29.7416 40.4547 29.3758 35.7087 31.6888C36.0253 33.9772 36.9382 36.1527 38.285 37.9929Z" fill="#373535"/>
<path d="M60.0488 36.6795C60.3707 36.9696 60.5462 37.2244 60.6845 37.4724C61.1103 38.2381 60.2561 38.9388 59.3798 38.9388C59.2908 38.9388 59.2048 38.9267 59.1193 38.9124C58.132 40.4552 56.4029 42.4338 54.8667 43.4295C57.2222 43.8155 59.4434 44.7589 61.2111 46.2167C62.4983 43.9104 63.4856 40.5802 63.4856 37.7514C63.4856 35.5982 62.535 34.02 61.1 32.8621C61.0248 34.0155 60.4092 35.6287 60.0488 36.6795Z" fill="#373535"/>
<path d="M40.9277 51.2867C41.7126 49.1193 43.6432 47.4398 45.4695 45.9623C45.2022 45.5965 44.8015 44.6907 44.6345 44.2618C42.407 43.5844 40.4361 42.3164 38.9075 40.6379C38.8964 40.6867 38.8825 40.7341 38.8708 40.7829C38.5829 42.0728 38.5301 43.3654 38.6734 44.6263C39.7399 44.8251 40.5471 45.7595 40.5471 46.8837C40.5471 47.5504 39.9629 48.5166 39.5093 48.937C40.0023 50.0009 40.3385 50.514 40.9277 51.2867Z" fill="#373535"/>
<path d="M40.7894 53.1062C39.8532 52.1754 39.2058 50.3186 38.5982 49.1527C38.4845 49.1702 38.368 49.1823 38.2489 49.1823C36.9792 49.1823 35.649 48.1167 35.9498 46.8836C36.1164 46.2013 36.5874 45.7549 37.3544 45.3824C37.1798 43.9689 37.1323 41.9371 37.4605 40.4676C37.5545 40.0472 37.7538 39.8502 37.8858 39.4499C36.4849 37.3997 35.5796 34.7089 35.5796 32.039C35.5796 31.9414 35.5845 31.8452 35.5867 31.7485C33.2191 32.9358 31.4438 34.8065 31.4438 37.7512C31.4438 44.2648 35.1954 50.6544 40.7773 53.1591C40.7813 53.1416 40.7849 53.1237 40.7894 53.1062Z" fill="#373535"/>
<path d="M54.5152 44.1014C53.7939 46.153 51.8436 47.6264 49.5453 47.6264C48.3159 47.6264 47.188 47.2024 46.2917 46.4977C44.4439 47.9367 42.7676 50.4646 41.9155 52.6576C42.2979 53.0691 42.5643 53.4076 42.9932 53.7725C44.2858 54.1092 46.066 53.7725 47.4652 53.7725C53.0932 53.7725 58.0778 51.2688 60.9357 46.8783C59.0355 45.5624 56.7941 44.3101 54.5152 44.1014Z" fill="#373535"/>
<path d="M38.1407 38.754C38.5746 37.7931 39.1186 36.9039 39.7548 36.0985C39.684 35.9082 39.6429 35.7027 39.6429 35.4864C39.6429 34.5211 40.4259 33.7376 41.3917 33.7376C41.6196 33.7376 41.8372 33.7828 42.0364 33.8621C44.931 31.6561 48.7417 30.6943 52.5712 31.5504C52.9208 31.6292 53.2638 31.7246 53.6005 31.8293C49.8158 31.3046 45.9053 32.4647 43.0035 34.8072C43.0922 35.0159 43.1405 35.246 43.1405 35.4864C43.1405 36.4522 42.3575 37.2353 41.3917 37.2353C41.1723 37.2353 40.9628 37.1932 40.7689 37.1193C40.1134 37.9996 39.5775 38.972 39.1844 40.0206C40.5625 41.5058 42.254 42.6802 44.143 43.3862C44.1385 43.2962 44.1291 43.2071 44.1291 43.1154C44.1291 40.2037 46.4891 37.8433 49.4012 37.8433C52.0106 37.8433 54.1714 39.7408 54.5931 42.2302C55.8951 41.4019 57.0521 40.3381 58.0111 39.1104C57.7872 38.8373 57.6484 38.493 57.6484 38.1124C57.6484 37.2362 58.3594 36.5256 59.2357 36.5256C59.3597 36.5256 59.4788 36.5435 59.5947 36.5704C60.0819 35.5693 60.4495 34.5081 60.6845 33.4139C56.1311 30.0429 47.321 30.5027 47.321 30.5027C47.321 30.5027 40.3104 30.1369 35.5645 32.4499C35.881 34.7383 36.7939 36.9138 38.1407 38.754Z" fill="#1287B1"/>
<path d="M60.2944 36.939C60.6164 37.2292 60.8228 37.6451 60.8228 38.1126C60.8228 38.9888 60.1118 39.6998 59.2356 39.6998C59.1465 39.6998 59.0605 39.6877 58.975 39.6734C57.9877 41.2162 56.6794 42.5317 55.1428 43.5274C57.4137 43.8825 59.5512 44.846 61.3184 46.3038C62.6056 43.9976 63.3413 41.3412 63.3413 38.5124C63.3413 36.3592 62.3907 34.781 60.9557 33.6231C60.8805 34.7765 60.6549 35.8882 60.2944 36.939Z" fill="#1287B1"/>
<path d="M41.1699 51.8075C41.9548 49.64 43.3186 47.6951 45.1449 46.218C44.8776 45.8517 44.6573 45.4519 44.4903 45.023C42.2624 44.3456 40.2919 43.0776 38.7633 41.399C38.7521 41.4478 38.7378 41.4953 38.7266 41.5441C38.4383 42.834 38.3854 44.1266 38.5292 45.3874C39.5952 45.5862 40.4029 46.5207 40.4029 47.6449C40.4029 48.3116 40.1168 48.9111 39.6633 49.3315C40.0747 50.2037 40.5807 51.0347 41.1699 51.8075Z" fill="#1287B1"/>
<path d="M40.7832 53.0799C39.847 52.149 39.0612 51.0798 38.4541 49.9144C38.3399 49.9318 38.2235 49.9435 38.1049 49.9435C36.8351 49.9435 35.8058 48.9141 35.8058 47.6448C35.8058 46.735 36.3359 45.9506 37.1028 45.5781C36.9287 44.165 36.9878 42.6983 37.3164 41.2288C37.4104 40.8088 37.525 40.3987 37.6571 39.998C36.2562 37.9483 35.4355 35.4701 35.4355 32.8002C35.4355 32.7026 35.44 32.6064 35.4422 32.5101C33.0746 33.697 31.2993 35.5681 31.2993 38.5124C31.2993 45.0265 35.1892 50.6281 40.7711 53.1327C40.7751 53.1152 40.7787 53.0973 40.7832 53.0799Z" fill="#1287B1"/>
<path d="M54.3708 44.8628C53.6495 46.9143 51.6992 48.3878 49.401 48.3878C48.1715 48.3878 47.0437 47.9638 46.1473 47.259C44.2995 48.6981 42.9048 50.6596 42.0532 52.853C42.4351 53.2645 42.8435 53.6522 43.2724 54.0167C44.5655 54.3534 45.9216 54.5338 47.3208 54.5338C52.9488 54.5338 57.8967 51.628 60.7546 47.238C58.8544 45.9217 56.6498 45.0714 54.3708 44.8628Z" fill="#1287B1"/>
<path d="M54.5556 43.5032L59.4265 42.3414L54.5372 42.092L58.5162 39.051L54.0013 40.6695L57.0696 36.4174L52.8318 39.2341L54.3134 34.2567L51.4031 38.3592L51.3368 33.1749L49.4219 37.7929L47.8253 33.1199L47.9117 38.6247L45.1523 33.6903L46.6455 38.9297L42.1695 35.6746L45.6757 40.0803L40.1189 38.0369L44.5044 41.2816L38.8809 41.4544L44.6307 42.9382L38.876 44.1825L44.5564 44.5944L39.7661 47.6618L44.6987 45.8735L41.2763 50.2081L45.6009 46.7202L44.0437 52.5367L47.3825 47.8033L46.9146 53.3937L48.8098 48.3258L50.423 53.6525L50.8152 48.3097L53.2097 52.868L51.7949 47.6542L56.1795 51.0507L53.349 46.7202L58.1594 48.5944L54.4813 44.9799L59.4135 45.3676L54.5556 43.5032Z" fill="white"/>
<path opacity="0.3" d="M2.69946 52.8239C17.806 37.7178 29.871 33.0542 40.8208 30.9252C42.2697 30.6436 42.5437 27.4777 42.5437 27.4777C42.5437 27.4777 42.7465 29.8095 43.7606 30.1135C44.7743 30.4179 46.092 26.4636 46.092 26.4636C46.092 26.4636 44.8755 30.0123 46.092 30.2151C47.3089 30.4179 49.5391 26.768 49.5391 26.768C49.5391 26.768 48.627 29.9107 49.2355 30.1135C49.8431 30.3163 52.8845 25.5515 52.8845 25.5515C52.8845 25.5515 51.0596 28.6942 52.7833 28.9986C54.5076 29.3026 57.022 26.8535 57.022 26.8535C57.022 26.8535 55.0448 29.0944 55.926 29.4038C59.6775 30.7224 62.7132 25.8466 62.7132 25.8466C62.7132 25.8466 62.0098 27.9845 60.1848 30.3163C64.1383 31.33 67.075 25.3738 67.075 25.3738L64.1383 31.33C65.6593 32.1417 71.7431 25.1459 71.7431 25.1459C71.7431 25.1459 68.6 30.6208 66.775 31.7356C67.7887 32.5469 71.4386 29.3026 71.4386 29.3026C71.4386 29.3026 68.4983 32.9521 69.6136 33.1549C71.2358 34.4731 77.217 26.3624 77.217 26.3624C77.217 26.3624 74.8857 31.1271 71.4386 34.8787C74.3198 36.32 81.4759 27.072 81.4759 27.072C81.4759 27.072 81.2731 30.0123 76.1022 34.6759C79.9549 34.169 84.923 26.8692 84.923 26.8692C84.923 26.8692 83.098 32.3441 78.738 36.1964C82.5209 35.8028 88.572 26.4636 88.572 26.4636C88.572 26.4636 86.2407 32.9521 81.4759 36.7037C86.7479 37.8696 94.3518 30.0123 94.3518 30.0123C94.3518 30.0123 91.3609 35.5888 87.4572 37.8696C91.8172 39.5423 97.7989 32.6481 97.7989 32.6481C97.7989 32.6481 91.8172 41.8745 82.2872 41.4689C79.1602 41.3359 69.7018 31.9823 49.4379 32.7497C22.6724 33.7639 16.9951 45.1188 2.69946 52.8239Z" fill="#373535"/>
<path d="M3.3186 51.6766C18.4251 36.5706 30.4897 31.9074 41.4395 29.778C42.8888 29.4964 43.1628 26.3309 43.1628 26.3309C43.1628 26.3309 43.3652 28.6631 44.3798 28.9667C45.3934 29.2707 46.7111 25.3172 46.7111 25.3172C46.7111 25.3172 45.4946 28.866 46.7111 29.0683C47.9281 29.2707 50.1582 25.6212 50.1582 25.6212C50.1582 25.6212 49.2462 28.7639 49.8538 28.9667C50.4622 29.1695 53.5037 24.4043 53.5037 24.4043C53.5037 24.4043 51.6787 27.5474 53.4025 27.8514C55.1258 28.1559 57.6412 25.7068 57.6412 25.7068C57.6412 25.7068 55.664 27.9477 56.5451 28.2571C60.2967 29.5752 63.3314 24.6998 63.3314 24.6998C63.3314 24.6998 62.628 26.8377 60.804 29.1695C64.7575 30.1836 67.6941 24.2266 67.6941 24.2266L64.7575 30.1836C66.2784 30.9945 72.3613 23.9996 72.3613 23.9996C72.3613 23.9996 69.2191 29.4735 67.3941 30.5889C68.4078 31.4001 72.0577 28.1559 72.0577 28.1559C72.0577 28.1559 69.1175 31.8058 70.2328 32.0082C71.8549 33.3267 77.8362 25.2156 77.8362 25.2156C77.8362 25.2156 75.5039 29.9808 72.0577 33.7319C74.9389 35.1736 82.095 25.9253 82.095 25.9253C82.095 25.9253 81.8922 28.866 76.7213 33.5296C80.5741 33.0223 85.5421 25.7224 85.5421 25.7224C85.5421 25.7224 83.7172 31.1973 79.3571 35.0501C83.14 34.6565 89.1912 25.3172 89.1912 25.3172C89.1912 25.3172 86.8598 31.8058 82.095 35.5569C87.3671 36.7228 94.9709 28.866 94.9709 28.866C94.9709 28.866 91.9801 34.4416 88.0763 36.7228C92.4363 38.3955 98.418 31.5013 98.418 31.5013C98.418 31.5013 92.4363 40.7278 82.9054 40.3221C79.7794 40.1887 70.321 30.8351 50.0566 31.603C23.2915 32.6166 17.6138 43.9716 3.3186 51.6766Z" fill="#373535"/>
<path opacity="0.3" d="M2.30371 54.476C10.2877 58.481 17.588 53.868 26.7885 56.4608C33.7834 58.4326 42.3002 60.8633 53.8575 59.1902C65.4153 57.5179 75.3008 52.4992 80.0159 43.5262C81.4858 39.5221 87.467 44.4392 87.467 44.4392C87.467 44.4392 83.1079 42.6142 83.2096 43.4761C83.3107 44.3375 89.7487 47.3284 89.7487 47.3284C89.7487 47.3284 83.9188 45.5034 84.2738 46.8721C84.6289 48.2409 91.5728 53.7157 91.5728 53.7157C91.5728 53.7157 83.7159 47.734 83.0573 48.5449C82.3978 49.3562 86.4028 52.6515 86.4028 52.6515C86.4028 52.6515 79.762 48.5449 77.4298 49.756C75.7526 50.6259 84.3244 56.2508 84.3244 56.2508C84.3244 56.2508 78.7479 51.992 77.4298 53.1073C76.1121 54.223 83.7159 63.3474 83.7159 63.3474C83.7159 63.3474 75.0975 54.0197 74.2365 54.476C73.3742 54.9322 76.6185 59.3934 76.6185 59.3934C76.6185 59.3934 72.3605 54.7294 71.1951 55.5407C70.0292 56.352 77.278 68.4672 77.278 68.4672C77.278 68.4672 69.4207 56.048 66.1764 58.1255C71.2712 69.3036 69.3701 70.9006 69.3701 70.9006C69.3701 70.9006 68.72 59.4969 62.3743 59.7986C59.1806 59.9509 63.8948 68.315 63.8948 68.315C63.8948 68.315 59.5558 60.6758 56.6661 60.828C61.9919 70.9069 60.0935 75.0063 60.0935 75.0063C60.0935 75.0063 60.9742 66.3982 53.7509 61.6079C56.4879 64.0405 52.0334 75.0063 52.0334 75.0063C52.0334 75.0063 55.952 58.8472 49.1433 61.9281C48.0674 62.4139 49.0672 69.9882 49.0672 69.9882C49.0672 69.9882 47.6985 61.3191 45.6461 61.7758C44.4493 62.0413 38.0418 73.7899 38.0418 73.7899C38.0418 73.7899 43.2888 61.0912 41.6921 61.6236C40.5289 62.0118 38.3462 67.2507 38.3462 67.2507C38.3462 67.2507 39.4105 62.0798 38.3462 61.7758C37.282 61.4714 31.3504 67.2507 31.3504 67.2507C31.3504 67.2507 35.761 62.0798 35.0003 61.0151C33.8479 59.4019 32.497 59.3263 30.8942 59.9509C28.5619 60.8598 25.4197 65.1213 25.4197 65.1213C25.4197 65.1213 28.5521 60.8065 28.0045 59.1902C27.1256 56.5933 18.1199 64.2088 18.1199 64.2088C18.1199 64.2088 23.4425 59.1902 22.226 58.1255C21.0096 57.0612 14.4037 57.3903 12.341 57.3845C6.25809 57.3657 4.15016 55.9387 2.30371 54.476Z" fill="#373535"/>
<path d="M2 53.5634C9.98398 57.5684 17.2838 52.9554 26.4843 55.5486C33.4792 57.5196 41.9965 59.9508 53.5542 58.2776C65.112 56.6048 74.9966 51.5862 79.7117 42.6141C81.1816 38.6096 87.1629 43.5261 87.1629 43.5261C87.1629 43.5261 82.8037 41.7016 82.9054 42.5635C83.0066 43.4249 89.4445 46.4158 89.4445 46.4158C89.4445 46.4158 83.6146 44.5913 83.9697 45.96C84.3247 47.3283 91.2695 52.8031 91.2695 52.8031C91.2695 52.8031 83.4118 46.821 82.7532 47.6327C82.0945 48.4436 86.0991 51.7384 86.0991 51.7384C86.0991 51.7384 79.4578 47.6327 77.1261 48.8429C75.4484 49.7133 84.0202 55.3378 84.0202 55.3378C84.0202 55.3378 78.4437 51.0794 77.1261 52.1947C75.8079 53.3104 83.4127 62.4348 83.4127 62.4348C83.4127 62.4348 74.7938 53.1072 73.9324 53.5634C73.0709 54.0201 76.3152 58.4804 76.3152 58.4804C76.3152 58.4804 72.0564 53.8168 70.8909 54.6281C69.725 55.4389 76.9738 67.5546 76.9738 67.5546C76.9738 67.5546 69.1165 55.1349 65.8723 57.2133C70.967 68.391 69.0659 69.988 69.0659 69.988C69.0659 69.988 68.4158 58.5843 62.0701 58.8865C58.8764 59.0387 63.5906 67.4024 63.5906 67.4024C63.5906 67.4024 59.2516 59.7627 56.3624 59.9149C61.6887 69.9943 59.7894 74.0938 59.7894 74.0938C59.7894 74.0938 60.6701 65.4852 53.4468 60.6949C56.1838 63.1279 51.7293 74.0938 51.7293 74.0938C51.7293 74.0938 55.6487 57.9346 48.8401 61.0155C47.7642 61.5017 48.7639 69.0756 48.7639 69.0756C48.7639 69.0756 47.3943 60.407 45.3424 60.8632C44.1451 61.1287 37.7376 72.8773 37.7376 72.8773C37.7376 72.8773 42.9846 60.1786 41.388 60.7115C40.2248 61.0987 38.0421 66.3377 38.0421 66.3377C38.0421 66.3377 39.1068 61.1672 38.0421 60.8632C36.9778 60.5592 31.0467 66.3377 31.0467 66.3377C31.0467 66.3377 35.4573 61.1672 34.6962 60.1025C33.5437 58.4894 32.1929 58.4141 30.5905 59.0387C28.2578 59.9472 25.1156 64.2087 25.1156 64.2087C25.1156 64.2087 28.2479 59.8934 27.7008 58.2776C26.8214 55.6812 17.8162 63.2962 17.8162 63.2962C17.8162 63.2962 23.1388 58.2776 21.9219 57.2133C20.7054 56.1486 14.0995 56.4781 12.0368 56.4719C5.95393 56.4526 3.84645 55.0261 2 53.5634Z" fill="#373535"/>
</svg>
