<svg width="100" height="100" viewBox="0 0 100 100" fill="none" xmlns="http://www.w3.org/2000/svg">
<g clip-path="url(#clip0_867_21176)">
<path d="M54.1665 14.2875C62.9748 14.2875 71.0707 17.5 77.2623 22.7959L86.4873 11.9042C77.479 4.20725 66.0153 -0.0149622 54.1665 3.98407e-05C26.6082 3.98407e-05 4.1665 22.4417 4.1665 50C4.1665 77.5584 26.6082 100 54.1665 100C66.4873 100 77.7373 95.5375 86.4873 88.1542L78.304 77.2625C72.054 82.5584 62.9748 85.7125 54.1665 85.7125C34.4623 85.7125 18.454 69.7042 18.454 50C18.454 30.2959 34.4623 14.2875 54.1665 14.2875Z" fill="#00A87B"/>
<path d="M44.2537 67.7957C47.1704 69.5832 50.5037 70.4749 54.1954 70.4749H54.2537C57.5287 70.4749 60.6246 69.7624 63.5996 68.3915C65.2958 67.6188 66.8785 66.6179 68.3037 65.4165L63.1246 59.2832C62.9454 59.4624 62.7079 59.6415 62.4704 59.8207C61.3996 60.654 60.2662 61.2499 59.0162 61.6665C57.8199 62.1237 56.5467 62.3458 55.2662 62.3207C53.1246 62.3207 51.1579 61.7249 49.4329 60.654C47.6722 59.5887 46.2325 58.0669 45.2662 56.2499C44.2269 54.3323 43.6948 52.1809 43.7204 49.9999C43.7204 47.679 44.1954 45.5332 45.2079 43.6874C46.1579 41.8457 47.5287 40.354 49.2537 39.2832C51.0268 38.1995 53.0718 37.643 55.1496 37.679C56.3996 37.679 57.7079 37.9749 59.0162 38.4499C60.2662 38.929 61.5162 39.6415 62.6496 40.4749C62.7662 40.5332 63.0662 40.7707 63.0662 40.7707L68.3621 34.5207C67.0066 33.314 65.4822 32.3118 63.8371 31.5457C60.9204 30.179 57.8871 29.5207 54.1954 29.5207C50.5037 29.5207 47.1704 30.4165 44.2537 32.1999C41.2787 33.9874 39.0162 36.429 37.2912 39.5207C35.5662 42.6165 34.7329 46.0707 34.7329 49.9999C34.7329 53.929 35.5662 57.379 37.2912 60.4749C38.9329 63.4813 41.3334 66.0053 44.2537 67.7957Z" fill="black"/>
</g>
<defs>
<clipPath id="clip0_867_21176">
<rect width="100" height="100" fill="white"/>
</clipPath>
</defs>
</svg>
