<svg width="100" height="100" viewBox="0 0 100 100" fill="none" xmlns="http://www.w3.org/2000/svg">
<path fill-rule="evenodd" clip-rule="evenodd" d="M58.837 11.2535C48.561 11.2535 38.7058 15.3356 31.4396 22.6019C24.1733 29.8681 20.0912 39.7233 20.0912 49.9993C20.0912 60.2753 24.1733 70.1305 31.4396 77.3967C38.7058 84.663 48.561 88.7451 58.837 88.7451V94.5826C34.212 94.5826 14.2537 74.6201 14.2537 49.9951C14.2537 25.3701 34.2078 5.4118 58.8328 5.4118V11.2493L58.837 11.2535ZM78.637 26.5743C75.5586 23.9611 71.9939 21.9821 68.148 20.7513C64.3021 19.5205 60.2509 19.0622 56.2272 19.4025C52.2035 19.7429 48.2868 20.8753 44.7023 22.7347C41.1178 24.5941 37.9363 27.1437 35.3406 30.2369C32.7449 33.3302 30.7863 36.906 29.5774 40.7589C28.3685 44.6117 27.9332 48.6655 28.2964 52.6872C28.6597 56.7089 29.8144 60.619 31.6941 64.1929C33.5739 67.7667 36.1415 70.9338 39.2495 73.5118L35.4953 77.9868C31.825 74.9081 28.7972 71.1366 26.5846 66.8876C24.3721 62.6386 23.0182 57.9954 22.6003 53.2231C22.1825 48.4508 22.7088 43.6429 24.1492 39.0741C25.5896 34.5052 27.916 30.2648 30.9953 26.5951C34.0744 22.9247 37.8463 19.8968 42.0956 17.6842C46.345 15.4716 50.9886 14.1177 55.7612 13.6998C60.5338 13.2819 65.342 13.8083 69.9112 15.2487C74.4804 16.6892 78.7211 19.0156 82.3912 22.0951L78.637 26.5743ZM69.2412 30.091C63.9633 27.365 57.8225 26.8337 52.1549 28.6128C46.4873 30.3919 41.7517 34.3374 38.9787 39.5907C36.2056 44.844 35.6196 50.9799 37.348 56.6631C39.0765 62.3464 42.9795 67.117 48.2078 69.9368L45.4745 75.1035C38.944 71.5226 34.0833 65.5177 31.9411 58.3846C29.799 51.2515 30.5472 43.5622 34.0244 36.9759C37.5016 30.3896 43.4289 25.4345 50.5272 23.1798C57.6255 20.9252 65.3257 21.5517 71.9662 24.9243L69.2412 30.091ZM58.8328 35.5785C55.0082 35.5785 51.3402 37.0978 48.6358 39.8022C45.9313 42.5067 44.412 46.1747 44.412 49.9993C44.412 53.8239 45.9313 57.4919 48.6358 60.1964C51.3402 62.9008 55.0082 64.4201 58.8328 64.4201V70.2618C53.4589 70.2618 48.305 68.127 44.5051 64.3271C40.7051 60.5271 38.5703 55.3733 38.5703 49.9993C38.5703 44.6254 40.7051 39.4715 44.5051 35.6716C48.305 31.8716 53.4589 29.7368 58.8328 29.7368V35.5785Z" fill="#F15A29"/>
<path d="M64.1955 45.149C63.5743 44.4801 62.8584 43.9059 62.0705 43.4449C61.3842 43.0371 60.6021 42.8186 59.8038 42.8115C58.7413 42.8115 57.7913 43.0074 56.9538 43.3949C56.1443 43.7595 55.417 44.2842 54.8155 44.9372C54.214 45.5902 53.7508 46.3582 53.4538 47.1949C53.1455 48.0407 52.9955 48.9282 52.9955 49.824C52.9955 50.7324 53.1455 51.6157 53.4538 52.4532C53.7533 53.289 54.2174 54.0563 54.8185 54.7098C55.4197 55.3632 56.1458 55.8894 56.9538 56.2574C57.7872 56.6449 58.7455 56.8407 59.8038 56.8407C60.7038 56.8407 61.5413 56.649 62.3122 56.2782C63.0955 55.9032 63.7705 55.3407 64.2913 54.6449L68.158 58.8365C67.5747 59.4199 66.908 59.924 66.1497 60.349C64.7472 61.1312 63.2209 61.6667 61.6372 61.9324C60.9288 62.0407 60.3163 62.099 59.8038 62.099C58.1226 62.1095 56.4536 61.813 54.8788 61.224C53.39 60.6733 52.028 59.8272 50.8747 58.7365C49.7278 57.6409 48.8149 56.3241 48.1913 54.8657C47.5137 53.2724 47.1759 51.5553 47.1997 49.824C47.1997 47.974 47.533 46.2949 48.1913 44.7824C48.8163 43.324 49.7247 42.0074 50.8705 40.9115C52.0288 39.824 53.3913 38.9782 54.8788 38.4282C56.4536 37.8392 58.1226 37.5427 59.8038 37.5532C61.283 37.5532 62.7705 37.8365 64.2705 38.4032C65.7747 38.9782 67.1247 39.9032 68.2038 41.1074L64.1955 45.149Z" fill="black"/>
</svg>
