<svg width="100" height="100" viewBox="0 0 100 100" fill="none" xmlns="http://www.w3.org/2000/svg">
<path fill-rule="evenodd" clip-rule="evenodd" d="M41.3211 8.33331C61.7627 8.33331 83.7294 24.7791 78.5294 52.4166C78.4711 52.7083 78.3753 53 78.2919 53.2916L78.2794 52.1375C77.9336 39.6375 71.8877 14.9125 41.3211 14.9125C27.1836 14.9125 7.41691 27.6375 8.27941 48.9042C8.11274 68.8125 23.0919 83.9042 41.4044 83.6208L41.7086 83.6167C46.7086 83.4792 53.2211 81.8291 54.6252 76.7125C54.8877 76.5833 55.7086 78.9375 55.7419 79.2042C55.9419 80.2708 56.2086 80.7417 56.5419 80.6208C60.6294 79.1708 66.0669 75.5292 64.6752 70.7042C63.9419 68.1625 57.2794 70.0916 56.6711 69.2583C58.4127 65.1791 65.9794 65.4 69.8086 66.275C71.6544 66.7 72.5461 67.8583 74.0253 68.1166C75.2336 68.3333 78.1127 67.2833 78.0252 69.125C71.7752 81.8 57.6377 91.6667 41.3252 91.6667C15.2252 91.6667 0.000244141 69.0583 0.000244141 48.9042C0.000244141 24.7792 20.6627 8.33331 41.3211 8.33331ZM41.2502 22.0833C43.2669 22.0833 45.9377 23.0208 47.0002 24.5208C62.2877 25.125 64.9711 35.7125 66.5586 47.2042C67.6211 54.8625 67.8711 56.7875 67.3169 52.9833L67.6628 55.4417C67.9461 57.3083 69.9711 58.5125 71.7544 57.5916C72.3544 57.2791 72.8128 56.6292 73.1211 55.6333C73.154 55.5258 73.2083 55.426 73.2808 55.34C73.3533 55.254 73.4425 55.1836 73.5429 55.133C73.6434 55.0824 73.753 55.0526 73.8653 55.0455C73.9775 55.0384 74.0901 55.0541 74.1961 55.0917L76.8002 56.0083C76.994 56.0801 77.1541 56.2214 77.2496 56.4046C77.3451 56.5879 77.3691 56.8 77.3169 57C76.9334 58.4326 76.2036 59.749 75.1919 60.8333C71.5336 64.6542 63.7044 63.6 62.3586 58.25C61.7752 55.9416 62.1294 55.6417 60.9211 53.075C59.7044 50.4875 55.7627 50.1208 53.8794 51.8458C52.4419 53.1583 52.1836 55.2 52.1877 57.1875L52.5002 66.25C52.5002 67.2445 52.1052 68.1984 51.4019 68.9016C50.6986 69.6049 49.7448 70 48.7502 70H42.9169C42.4245 70 41.9368 69.903 41.4818 69.7145C41.0269 69.5261 40.6135 69.2499 40.2653 68.9016C39.917 68.5534 39.6408 68.14 39.4524 67.685C39.2639 67.2301 39.1669 66.7424 39.1669 66.25V63.5416C39.1669 62.9124 39.043 62.2893 38.8022 61.708C38.5614 61.1266 38.2084 60.5984 37.7635 60.1534C37.3185 59.7085 36.7903 59.3555 36.2089 59.1147C35.6276 58.8739 35.0045 58.75 34.3752 58.75C33.746 58.75 33.1229 58.8739 32.5416 59.1147C31.9602 59.3555 31.432 59.7085 30.987 60.1534C30.5421 60.5984 30.1891 61.1266 29.9483 61.708C29.7075 62.2893 29.5836 62.9124 29.5836 63.5416V66.25C29.5836 67.2445 29.1885 68.1984 28.4852 68.9016C27.782 69.6049 26.8281 70 25.8336 70H20.0002C19.0057 70 18.0519 69.6049 17.3486 68.9016C16.6453 68.1984 16.2502 67.2445 16.2502 66.25L16.3961 52.7542C16.4461 44.9042 17.8794 37.5125 26.6877 35.5292C27.5211 35.3417 27.7377 36.0708 27.8961 36.9542C28.0002 37.5958 28.0752 38.0041 28.1169 38.1791C31.0377 50.9208 35.4086 56.0917 41.2169 53.6875L43.9669 52.3083L45.0252 51.7666C45.6836 51.425 46.0669 51.2208 46.1752 51.1417C46.2252 51.1 45.4877 50.2833 44.4794 49.2083L40.2627 44.7625C39.9814 44.4671 39.705 44.167 39.4336 43.8625C39.2377 43.7208 38.9502 44.1458 38.5669 45.1375C38.2586 45.7916 37.5211 46.1875 37.4336 46.4958C37.3794 46.7375 37.8836 47.7375 38.9419 49.4958C39.6252 50.6958 39.8586 51.6125 37.6502 50.925C33.3169 47.5916 31.3252 41.4541 30.6336 35.4041C30.6169 35.2583 29.9586 27.4333 29.9586 27.4333C29.8658 26.1106 30.3023 24.8051 31.172 23.8042C32.0417 22.8032 33.2733 22.1887 34.5961 22.0958L41.2502 22.0833ZM95.3919 58.25C95.5461 61.1541 93.7128 61.1833 90.3378 60.7125L82.9086 59.5625C81.8044 59.3417 81.3044 59.15 81.6044 58.95C83.5627 57.6375 95.2211 55.075 95.3961 58.25H95.3919ZM91.5794 57.9042L87.7211 58.0792C84.1794 58.4 81.6711 59.0791 89.1294 59.4791L89.5586 59.4916C92.9544 59.5416 94.8252 57.9958 91.5794 57.9042ZM98.5253 42.9H98.5669C101.859 44.5583 98.8461 47.1917 95.8586 48.7042C95.2753 48.9958 93.8128 49.4375 91.4753 50.0166C90.4711 50.1833 89.5711 50.4 90.0878 50.6833L90.1294 50.7041C98.2628 54.6958 77.1169 57.0958 79.7336 56.0583L81.3169 55.4417C84.1503 54.3333 88.0419 52.6 88.2586 49.8708C88.4169 47.8708 93.4794 48.0292 94.4794 45.8375C94.6794 45.3958 94.4794 44.8542 93.8794 44.2167C93.6711 44.0208 93.4877 43.825 93.4336 43.6C93.1294 42.3291 96.3503 41.8041 98.5253 42.9ZM87.8252 40.925C87.2627 45.9166 77.4961 58.3917 79.7044 52.8542L79.7753 52.6791C81.0169 49.6916 81.3419 43.425 85.3461 39.2583C86.3877 38.175 87.9961 39.4041 87.8252 40.925ZM54.5919 39.8708C54.6753 36.9791 58.7669 35.8375 60.2002 38.425C60.2419 33.1166 52.1127 35.225 54.5919 39.8708Z" fill="url(#paint0_linear_867_22159)"/>
<defs>
<linearGradient id="paint0_linear_867_22159" x1="-1875.58" y1="4122.58" x2="6441.69" y2="8750.85" gradientUnits="userSpaceOnUse">
<stop stop-color="#504AF4"/>
<stop offset="1" stop-color="#3485FF"/>
</linearGradient>
</defs>
</svg>
