<svg width="100" height="100" viewBox="0 0 100 100" fill="none" xmlns="http://www.w3.org/2000/svg">
<g clip-path="url(#clip0_867_21637)">
<g clip-path="url(#clip1_867_21637)">
<path d="M50 74.989C63.8071 74.989 75 63.7961 75 49.9889C75 36.1818 63.8071 24.989 50 24.989C36.1929 24.989 25 36.1818 25 49.9889C25 63.7961 36.1929 74.989 50 74.989Z" fill="white"/>
<path d="M49.9999 25H93.2941C88.907 17.3987 82.5959 11.0865 74.9955 6.69796C67.395 2.30943 58.7731 -0.000673265 49.9966 -6.09134e-05C41.2202 0.000551438 32.5986 2.31185 24.9987 6.70144C17.3989 11.091 11.0887 17.4042 6.70264 25.0061L28.3497 62.5L28.3691 62.495C26.167 58.6977 25.0049 54.3869 25 49.9972C24.9951 45.6076 26.1475 41.2942 28.341 37.4919C30.5345 33.6896 33.6917 30.5328 37.4942 28.3397C41.2968 26.1465 45.6103 24.9946 49.9999 25Z" fill="url(#paint0_linear_867_21637)"/>
<path d="M49.9999 69.7916C60.9306 69.7916 69.7916 60.9306 69.7916 50C69.7916 39.0693 60.9306 30.2083 49.9999 30.2083C39.0693 30.2083 30.2083 39.0693 30.2083 50C30.2083 60.9306 39.0693 69.7916 49.9999 69.7916Z" fill="#1A73E8"/>
<path d="M71.6485 62.506L50.0014 100C58.7778 100.001 67.3999 97.6917 75.0006 93.3037C82.6014 88.9158 88.9129 82.604 93.3005 75.0031C97.6882 67.4022 99.9973 58.78 99.9957 50.0036C99.9942 41.2272 97.682 32.6058 93.2916 25.0065H49.9976L49.9924 25.0258C54.3821 25.0174 58.6964 26.1663 62.5005 28.3568C66.3045 30.5474 69.4638 33.7021 71.66 37.5029C73.8561 41.3037 75.0113 45.6163 75.0093 50.006C75.0073 54.3957 73.8481 58.7072 71.6485 62.506Z" fill="url(#paint1_linear_867_21637)"/>
<path d="M28.3512 62.5065L6.70408 25.0125C2.31476 32.6125 0.00374508 41.2342 0.003418 50.0106C0.00309093 58.7871 2.31346 67.409 6.70222 75.0093C11.091 82.6096 17.4034 88.9205 25.0048 93.3074C32.6062 97.6943 41.2287 100.003 50.0051 100L71.6522 62.5061L71.6382 62.4919C69.4507 66.2976 66.2985 69.4594 62.4994 71.6585C58.7003 73.8576 54.3886 75.0163 49.9989 75.0178C45.6093 75.0193 41.2968 73.8635 37.4962 71.6669C33.6956 69.4704 30.5413 66.3107 28.3512 62.5065Z" fill="url(#paint2_linear_867_21637)"/>
</g>
</g>
<defs>
<linearGradient id="paint0_linear_867_21637" x1="6.70264" y1="31.25" x2="93.2941" y2="31.25" gradientUnits="userSpaceOnUse">
<stop stop-color="#D93025"/>
<stop offset="1" stop-color="#EA4335"/>
</linearGradient>
<linearGradient id="paint1_linear_867_21637" x1="43.1706" y1="99.3315" x2="86.4664" y2="24.3411" gradientUnits="userSpaceOnUse">
<stop stop-color="#FCC934"/>
<stop offset="1" stop-color="#FBBC04"/>
</linearGradient>
<linearGradient id="paint2_linear_867_21637" x1="55.4126" y1="96.8781" x2="12.1168" y2="21.8875" gradientUnits="userSpaceOnUse">
<stop stop-color="#1E8E3E"/>
<stop offset="1" stop-color="#34A853"/>
</linearGradient>
<clipPath id="clip0_867_21637">
<rect width="100" height="100" fill="white"/>
</clipPath>
<clipPath id="clip1_867_21637">
<rect width="100" height="100" fill="white"/>
</clipPath>
</defs>
</svg>
