<svg width="100" height="100" viewBox="0 0 100 100" fill="none" xmlns="http://www.w3.org/2000/svg">
<g clip-path="url(#clip0_867_18810)">
<path fill-rule="evenodd" clip-rule="evenodd" d="M49.4062 -0.00158691C26.1121 -0.00158691 6.56419 15.9898 1.06262 37.6096C1.02535 37.767 1 37.9273 1 38.0947C1 39.4094 2.06413 40.4752 3.37677 40.4752H23.4893C24.4471 40.4752 25.2667 39.9024 25.6449 39.0847C29.7772 30.0713 38.8573 23.8065 49.4062 23.8065C63.8382 23.8065 75.544 35.5354 75.544 49.999C75.544 64.4631 63.8382 76.1917 49.4062 76.1917C38.8573 76.1917 29.7806 69.926 25.6484 60.91L25.6449 60.9152C25.2667 60.096 24.4471 59.524 23.4893 59.524H3.37677C2.06413 59.524 1 60.5869 1 61.9052C1 62.0679 1.02535 62.2234 1.05915 62.3793C6.55922 84.0005 26.1077 99.9984 49.4062 99.9984C76.9632 99.9984 99.307 77.6097 99.307 49.999C99.307 22.3851 76.9632 -0.00158691 49.4062 -0.00158691ZM37.5238 49.999C37.5238 43.4259 42.8451 38.0947 49.4062 38.0947C55.9669 38.0947 61.2859 43.4259 61.2859 49.999C61.2859 56.5725 55.9669 61.9052 49.4062 61.9052C42.8451 61.9052 37.5238 56.5725 37.5238 49.999Z" fill="black"/>
</g>
<defs>
<clipPath id="clip0_867_18810">
<rect width="100" height="100" fill="white"/>
</clipPath>
</defs>
</svg>
