<svg width="100" height="100" viewBox="0 0 100 100" fill="none" xmlns="http://www.w3.org/2000/svg">
<g clip-path="url(#clip0_867_20166)">
<path d="M88.5272 13.1701L76.6939 25.1723C76.3221 25.549 75.8362 25.7882 75.3145 25.8515C74.7924 25.9148 74.2649 25.7985 73.8159 25.5214C69.1612 22.6731 63.793 21.2526 58.3594 21.4314C52.9258 21.6102 47.6598 23.3806 43.1968 26.5288C40.4519 28.4667 38.0685 30.8842 36.1579 33.6683C33.0577 38.1979 31.3139 43.5395 31.1363 49.0507C30.9587 54.5619 32.3548 60.0077 35.1568 64.7331C35.4281 65.1877 35.5416 65.721 35.4793 66.2489C35.4169 66.7764 35.1822 67.2677 34.8126 67.6443L22.9795 79.6464C22.7412 79.8897 22.4539 80.078 22.1372 80.198C21.8206 80.3185 21.4821 80.3676 21.1449 80.343C20.8077 80.318 20.4797 80.2197 20.1835 80.0543C19.8873 79.8889 19.6299 79.6605 19.4288 79.3847C13.0263 70.4585 9.71753 59.6336 10.0189 48.5994C10.3202 37.5653 14.2148 26.9427 21.0946 18.3898C23.195 15.7729 25.5535 13.3806 28.1335 11.2503C36.5653 4.27402 47.0367 0.324964 57.9137 0.0193025C68.7907 -0.286359 79.4614 3.06857 88.261 9.56061C88.535 9.7639 88.7618 10.025 88.9261 10.3258C89.0908 10.6266 89.189 10.9601 89.2145 11.3031C89.24 11.6462 89.1915 11.9908 89.0728 12.3131C88.954 12.6354 88.7679 12.9278 88.5272 13.1701Z" fill="url(#paint0_linear_867_20166)"/>
<path d="M88.5169 86.787L76.6836 74.7845C76.3118 74.4079 75.8259 74.1687 75.3042 74.1054C74.7825 74.042 74.2546 74.1583 73.8056 74.4354C69.4167 77.1208 64.3881 78.5403 59.2627 78.5403C54.1368 78.5403 49.1084 77.1208 44.7194 74.4354C44.2705 74.1583 43.7428 74.042 43.2208 74.1054C42.699 74.1687 42.2132 74.4079 41.8413 74.7845L30.0082 86.787C29.76 87.0286 29.5674 87.3232 29.444 87.649C29.3205 87.9749 29.2694 88.3244 29.294 88.6728C29.3186 89.0211 29.4185 89.3594 29.5865 89.664C29.7545 89.969 29.9866 90.2324 30.2663 90.4357C38.6894 96.6519 48.8381 100 59.2549 100C69.6714 100 79.82 96.6519 88.2433 90.4357C88.5239 90.2336 88.7572 89.9711 88.9269 89.6669C89.0961 89.3628 89.1976 89.0249 89.2239 88.6765C89.2498 88.3282 89.2001 87.9782 89.0781 87.652C88.9556 87.3253 88.7642 87.0299 88.5169 86.787Z" fill="#1F0256"/>
<path d="M59.2841 64.2593C67.0588 64.2593 73.362 57.8665 73.362 49.9803C73.362 42.0945 67.0588 35.7014 59.2841 35.7014C51.509 35.7014 45.2062 42.0945 45.2062 49.9803C45.2062 57.8665 51.509 64.2593 59.2841 64.2593Z" fill="#1F0256"/>
</g>
<defs>
<linearGradient id="paint0_linear_867_20166" x1="77.4058" y1="-7.32822" x2="-23.8062" y2="92.4653" gradientUnits="userSpaceOnUse">
<stop stop-color="#17CCFC"/>
<stop offset="0.5" stop-color="#5D31FF"/>
<stop offset="1" stop-color="#F35AFF"/>
</linearGradient>
<clipPath id="clip0_867_20166">
<rect width="100" height="100" fill="white"/>
</clipPath>
</defs>
</svg>
