<svg width="100" height="100" viewBox="0 0 100 100" fill="none" xmlns="http://www.w3.org/2000/svg">
<g clip-path="url(#clip0_867_21154)">
<path d="M9.94252 -0.000549316H1.16892C0.523436 -0.000549316 0.000167847 0.522718 0.000167847 1.1682V98.8307C0.000167847 99.4762 0.523436 99.9995 1.16892 99.9995H9.94252C10.588 99.9995 11.1113 99.4762 11.1113 98.8307V1.1682C11.1113 0.522718 10.588 -0.000549316 9.94252 -0.000549316Z" fill="#FAFF69"/>
<path d="M32.1654 -0.000549316H23.3918C22.7463 -0.000549316 22.2231 0.522718 22.2231 1.1682V98.8307C22.2231 99.4762 22.7463 99.9995 23.3918 99.9995H32.1654C32.8109 99.9995 33.3342 99.4762 33.3342 98.8307V1.1682C33.3342 0.522718 32.8109 -0.000549316 32.1654 -0.000549316Z" fill="#FAFF69"/>
<path d="M54.3883 -0.000549316H45.6147C44.9693 -0.000549316 44.446 0.522718 44.446 1.1682V98.8307C44.446 99.4762 44.9693 99.9995 45.6147 99.9995H54.3883C55.0338 99.9995 55.5571 99.4762 55.5571 98.8307V1.1682C55.5571 0.522718 55.0338 -0.000549316 54.3883 -0.000549316Z" fill="#FAFF69"/>
<path d="M76.6066 -0.000549316H67.833C67.1875 -0.000549316 66.6642 0.522718 66.6642 1.1682V98.8307C66.6642 99.4762 67.1875 99.9995 67.833 99.9995H76.6066C77.2521 99.9995 77.7753 99.4762 77.7753 98.8307V1.1682C77.7753 0.522718 77.2521 -0.000549316 76.6066 -0.000549316Z" fill="#FAFF69"/>
<path d="M98.8368 38.8894H90.0632C89.4177 38.8894 88.8944 39.4127 88.8944 40.0582V59.9429C88.8944 60.5884 89.4177 61.1117 90.0632 61.1117H98.8368C99.4823 61.1117 100.006 60.5884 100.006 59.9429V40.0582C100.006 39.4127 99.4823 38.8894 98.8368 38.8894Z" fill="#FAFF69"/>
</g>
<defs>
<clipPath id="clip0_867_21154">
<rect width="100" height="100" fill="white"/>
</clipPath>
</defs>
</svg>
