<svg width="100" height="100" viewBox="0 0 100 100" fill="none" xmlns="http://www.w3.org/2000/svg">
<g clip-path="url(#clip0_867_21130)">
<path d="M70.894 16.6316C82.3552 16.6316 91.6459 25.9629 91.6459 37.4737V44.4211L97.6871 56.4892C98.2836 57.6807 98.2809 59.0843 97.6798 60.2735L91.6459 72.2105V79.1579C91.6459 90.669 82.3552 100 70.894 100H29.3902C17.9293 100 8.63833 90.669 8.63833 79.1579V72.2105L2.47211 60.3111C1.84533 59.1015 1.84249 57.6634 2.46449 56.4514L8.63833 44.4211V37.4737C8.63833 25.9629 17.9293 16.6316 29.3902 16.6316H70.894ZM34.3526 40C29.1204 40 24.8789 44.2415 24.8789 49.4737V66.3158C24.8789 71.548 29.1204 75.7895 34.3526 75.7895C39.5848 75.7895 43.8263 71.548 43.8263 66.3158V49.4737C43.8263 44.2415 39.5848 40 34.3526 40ZM64.8789 40C59.6468 40 55.4053 44.2415 55.4053 49.4737V66.3158C55.4053 71.548 59.6468 75.7895 64.8789 75.7895C70.1111 75.7895 74.3526 71.548 74.3526 66.3158V49.4737C74.3526 44.2415 70.1111 40 64.8789 40Z" fill="black"/>
<path d="M50.1421 23.1579C56.5369 23.1579 61.721 17.9738 61.721 11.5789C61.721 5.18407 56.5369 0 50.1421 0C43.7472 0 38.5631 5.18407 38.5631 11.5789C38.5631 17.9738 43.7472 23.1579 50.1421 23.1579Z" fill="black"/>
</g>
<defs>
<clipPath id="clip0_867_21130">
<rect width="100" height="100" fill="white"/>
</clipPath>
</defs>
</svg>
