<svg width="100" height="100" viewBox="0 0 100 100" fill="none" xmlns="http://www.w3.org/2000/svg">
<g clip-path="url(#clip0_867_19187)">
<path d="M49.9996 -0.000854492C22.4309 -0.000854492 0 22.43 0 49.9995C0 77.5714 22.4309 100.001 49.9996 100.001C77.5691 100.001 100 77.5714 100 49.9995C100 22.43 77.5691 -0.000854492 49.9996 -0.000854492Z" fill="white"/>
<path d="M48.1711 50.8987C47.7219 51.8722 47.2262 52.9659 46.7129 54.13C44.8984 58.2409 42.8891 63.2433 42.1551 66.448C41.8914 67.5894 41.7281 69.0038 41.7312 70.5722C41.7312 71.1925 41.7644 71.8444 41.8172 72.5085C44.3824 73.4511 47.1531 73.9694 50.0465 73.9745C52.6805 73.9694 55.2109 73.5343 57.5793 72.7468C57.0227 72.2378 56.4914 71.6952 56.0078 71.0839C52.7969 66.9894 51.0055 60.9886 48.1711 50.8987Z" fill="#91DC47"/>
<path d="M36.3164 30.5558C30.184 34.8777 26.1711 42.0058 26.1559 50.0839C26.1711 58.0413 30.0633 65.0773 36.0414 69.4171C37.5078 63.3089 41.1836 57.7159 46.6957 46.505C46.3684 45.6058 45.9953 44.6214 45.5778 43.5874C44.0508 39.757 41.8469 35.3085 39.8801 33.2941C38.8774 32.2417 37.6606 31.3323 36.3164 30.5558Z" fill="#91DC47"/>
<path d="M70.857 77.4863C67.693 77.0898 65.0817 76.6112 62.7973 75.8054C58.9551 77.7132 54.6281 78.7909 50.0465 78.7909C34.1934 78.7909 21.3422 65.9417 21.3402 50.0839C21.3402 41.4796 25.1309 33.7663 31.1277 28.5058C29.5238 28.1183 27.8512 27.8921 26.1426 27.8952C17.7199 27.9745 8.82892 32.6359 5.12735 45.2245C4.78126 47.057 4.86368 48.4425 4.86368 50.0847C4.86368 75.0398 25.0945 95.2706 50.0477 95.2706C65.3297 95.2706 78.8297 87.6773 87.0051 76.064C82.5832 77.1659 78.3309 77.6929 74.6895 77.7042C73.3246 77.7042 72.0434 77.6312 70.857 77.4863Z" fill="#63B132"/>
<path d="M62.3664 68.7308C62.6453 68.8691 63.2777 69.0949 64.1578 69.3445C70.0785 64.998 73.9261 57.9968 73.9414 50.0839H73.939C73.9168 36.8921 63.2414 26.2183 50.0465 26.1921C47.4238 26.1972 44.9043 26.63 42.5453 27.4117C47.3965 32.9414 49.7293 40.8437 51.9859 49.4878C51.9871 49.4917 51.989 49.4949 51.9898 49.498C51.9941 49.505 52.7117 51.8984 53.9437 55.0738C55.1672 58.2449 56.9101 62.1707 58.8109 65.0316C60.059 66.9488 61.4316 68.3265 62.3664 68.7308Z" fill="#90B4FE"/>
<path d="M50.0477 4.89795C34.9133 4.89795 21.5258 12.3483 13.3258 23.7722C17.5934 21.0995 21.9508 20.1354 25.7535 20.1698C31.0059 20.1851 35.1352 21.8136 37.1164 22.9276C37.5949 23.2034 38.0492 23.5003 38.4942 23.8054C42.0293 22.2483 45.9356 21.3776 50.0465 21.3776C65.9016 21.3796 78.7547 34.2288 78.7571 50.0839H78.7547C78.7547 58.0776 75.4852 65.3054 70.2145 70.5101C71.5082 70.655 72.8879 70.7452 74.2969 70.7382C79.3012 70.7405 84.7102 69.6362 88.7653 66.2257C91.4094 63.9983 93.6246 60.737 94.8531 55.8472C95.0934 53.9585 95.2317 52.0386 95.2317 50.0847C95.2317 25.1308 75.0028 4.89795 50.0477 4.89795Z" fill="#5881D8"/>
</g>
<defs>
<clipPath id="clip0_867_19187">
<rect width="100" height="100" fill="white"/>
</clipPath>
</defs>
</svg>
