<svg width="100" height="100" viewBox="0 0 100 100" fill="none" xmlns="http://www.w3.org/2000/svg">
<g clip-path="url(#clip0_867_20644)">
<path d="M56.3213 50.4421C59.7505 50.4421 61.4255 54.5755 59.0672 57.0255L36.663 79.538C36.3044 79.9014 35.8773 80.19 35.4062 80.387C34.9352 80.584 34.4298 80.6854 33.9192 80.6854C33.4087 80.6854 32.9032 80.584 32.4322 80.387C31.9612 80.19 31.534 79.9014 31.1755 79.538L1.14216 49.2171C0.411665 48.4859 0.00134277 47.4945 0.00134277 46.4609C0.00134277 45.4273 0.411665 44.4359 1.14216 43.7046L26.3713 18.3588C27.3752 17.3659 28.7302 16.8091 30.1422 16.8091C31.5541 16.8091 32.9091 17.3659 33.913 18.3588C34.9013 19.3727 35.4544 20.7325 35.4544 22.1484C35.4544 23.5642 34.9013 24.9241 33.913 25.938L16.2338 43.7796C15.5033 44.5109 15.093 45.5023 15.093 46.5359C15.093 47.5695 15.5033 48.5609 16.2338 49.2921L31.2505 64.3755C31.609 64.7389 32.0362 65.0275 32.5072 65.2245C32.9782 65.4215 33.4837 65.5229 33.9942 65.5229C34.5048 65.5229 35.0102 65.4215 35.4812 65.2245C35.9523 65.0275 36.3794 64.7389 36.738 64.3755L38.7172 62.388C39.0852 62.0301 39.3763 61.6009 39.5726 61.1266C39.7689 60.6523 39.8663 60.1429 39.8588 59.6296V55.7213C39.8588 55.1838 39.8588 54.6505 39.938 54.113C40.0039 53.13 40.4433 52.2096 41.1661 51.5402C41.8889 50.8708 42.8404 50.5033 43.8255 50.513H56.3213V50.438V50.4421Z" fill="#00E7E7"/>
<path d="M98.9168 53.658L73.6251 79.083C72.6212 80.0758 71.2662 80.6327 69.8543 80.6327C68.4423 80.6327 67.0873 80.0758 66.0834 79.083C65.0939 78.0689 64.54 76.7082 64.54 75.2913C64.54 73.8744 65.0939 72.5137 66.0834 71.4996L83.8334 53.658C84.5639 52.9267 84.9742 51.9353 84.9742 50.9017C84.9742 49.8681 84.5639 48.8767 83.8334 48.1455L68.7501 33.0621C68.3915 32.6987 67.9644 32.4101 67.4933 32.2131C67.0223 32.0161 66.5169 31.9147 66.0063 31.9147C65.4958 31.9147 64.9903 32.0161 64.5193 32.2131C64.0483 32.4101 63.6211 32.6987 63.2626 33.0621L61.2834 35.0496C60.5561 35.7856 60.1462 36.7774 60.1418 37.8121V41.7163C60.1418 42.258 60.1418 42.7871 60.0626 43.3246C59.9967 44.3076 59.5573 45.2281 58.8345 45.8974C58.1117 46.5668 57.1602 46.9343 56.1751 46.9246H43.6793C40.2501 46.9246 38.5709 42.7913 40.9334 40.3413L57.9251 23.258L60.1334 20.9538L63.2584 17.8121C63.617 17.4481 64.0445 17.1589 64.5159 16.9616C64.9873 16.7642 65.4932 16.6626 66.0043 16.6626C66.5153 16.6626 67.0212 16.7642 67.4926 16.9616C67.964 17.1589 68.3915 17.4481 68.7501 17.8121L98.8543 48.0621C99.5786 48.8083 99.9899 49.8033 100.004 50.8431C100.018 51.8828 99.6333 52.8885 98.9293 53.6538L98.9251 53.658H98.9168Z" fill="#00BFFF"/>
</g>
<defs>
<clipPath id="clip0_867_20644">
<rect width="100" height="100" fill="white"/>
</clipPath>
</defs>
</svg>
