<svg width="100" height="100" viewBox="0 0 100 100" fill="none" xmlns="http://www.w3.org/2000/svg">
<g clip-path="url(#clip0_868_39510)">
<path d="M50 0C77.614 2.09721e-05 100 22.3859 100 50C99.9997 77.614 77.614 100 50 100C22.3858 100 9.64942e-05 77.614 0 50C0 22.3858 22.3858 0 50 0ZM40.8964 13.4626C43.0624 29.4376 52.0067 25.2767 57.2738 36.2881C57.2738 36.2881 48.3858 23.8894 33.7725 28.4544C33.834 28.5859 39.1906 39.9411 54.854 42.2721C54.854 42.2721 56.1148 46.7109 56.4958 47.4945C56.3388 47.411 32.2102 34.5914 24.8669 59.4312C19.3842 58.1571 17.5451 64.2635 23.8463 68.4359C23.8669 68.3524 24.9437 64.0538 27.5293 62.7696C27.5293 62.7696 21.927 69.1836 28.5158 76.8635H52.164C52.7355 75.8925 55.264 70.782 49.0101 66.9137C53.4251 66.8494 57.019 75.3941 60.8852 76.9216H66.5072C66.6977 76.4473 67.0965 75.0257 66.1625 73.7471C64.7221 72.0532 61.5717 72.2822 61.5986 69.1493C62.6878 54.5656 83.9958 59.0418 83.3184 41.4902L83.0077 41.1012C81.5746 39.3692 75.3742 32.4215 67.8249 31.9702C62.2593 31.6331 60.9066 32.395 60.6636 32.9635C60.3172 30.0123 57.859 16.3571 40.8964 13.4626Z" fill="#FF570A"/>
</g>
<defs>
<clipPath id="clip0_868_39510">
<rect width="100" height="100" fill="white"/>
</clipPath>
</defs>
</svg>
