<svg width="100" height="100" viewBox="0 0 100 100" fill="none" xmlns="http://www.w3.org/2000/svg">
<path d="M51.9463 36.7204C58.4801 44.3664 61.1678 54.561 59.1752 64.4312C69.4162 60.3534 73.4013 53.4952 74.6061 46.637C74.6061 46.637 78.0816 33.6157 83.5496 28.2404C72.8453 29.8622 71.7795 25.6454 51.9463 36.7204Z" fill="#19B99A"/>
<path d="M35.5422 50.0195C33.4106 43.393 29.7035 37.3689 24.7452 32.457C24.7452 32.457 39.6664 36.3958 48.2855 64.2457C40.1761 61.7897 36.7007 53.773 35.5422 50.0195ZM54.0315 68.2308C54.2632 66.887 58.2484 53.4023 50.3707 42.4663C37.2568 27.9158 17.4236 25.8768 17.4236 25.8768C21.2697 33.3374 21.4088 40.3347 25.6256 54.5608C30.7229 69.2966 49.6293 70.2698 51.0195 70.3161C52.2706 72.3087 55.19 74.9963 61.8628 76.3865L62.6043 72.8648C56.8582 71.6599 54.773 69.4357 54.0315 68.2308Z" fill="#19B99A"/>
<path d="M19.5551 21.6136C11.2141 25.5524 7.87766 35.1446 7.87766 49.8342C7.87766 64.2456 11.2141 73.8842 19.5551 78.1011L18.6284 81.7155C5.7924 77.2206 0 67.2113 0 49.8805C0 32.4106 5.7924 22.4014 18.6284 17.9991L19.5551 21.6136Z" fill="#1D1D1B"/>
<path d="M81.3718 17.9991C94.2077 22.4014 100 32.4106 100 49.8342C100 67.165 94.2077 77.1743 81.3718 81.6228L80.3523 78.0084C88.6933 73.7915 92.0298 64.153 92.0298 49.7415C92.0298 35.052 88.6933 25.4598 80.3523 21.5673L81.3718 17.9991Z" fill="#1D1D1B"/>
</svg>
