<svg width="100" height="100" viewBox="0 0 100 100" fill="none" xmlns="http://www.w3.org/2000/svg">
<path d="M34.7893 99.9933C34.7884 99.9929 34.7876 99.9926 34.7868 99.9922C22.9027 97.2566 12.3794 89.5223 9.09609 77.3731C5.81043 65.2144 10.2815 52.957 17.5847 43.211C21.2363 38.3417 25.5072 33.9716 29.9498 29.823C34.0854 25.9603 38.6414 22.4109 42.3877 18.1597C46.2512 13.774 51.0802 5.92942 47.4148 0C54.0698 4.97224 59.4373 13.2812 58.54 21.8402C57.8232 28.6694 52.6994 35.6226 57.7181 42.0716C60.84 46.0808 67.1597 45.24 69.494 41.3682L69.3224 41.5528C69.7223 40.9167 70.0149 40.2192 70.1887 39.4882C70.2008 38.8948 70.0957 38.232 69.7746 37.4528L70.3859 37.7865C82.0869 43.8533 91.5327 54.4501 91.268 68.2195C90.9486 84.9564 75.3552 96.6691 60.2639 100C67.4055 97.1867 73.7725 91.614 74.6396 83.6014C75.4398 76.209 71.4771 69.8354 66.1108 65.1215C61.0092 60.6362 54.9215 57.7445 49.3731 53.9183C46.1745 51.713 41.32 47.2855 43.0283 42.796C40.8058 44.7091 39.0514 47.3855 38.3592 50.2428C36.9766 55.9428 40.4905 60.3824 44.1228 64.3129C47.7966 68.2819 47.5123 75.0944 41.3154 76.4511C38.6632 77.028 35.8545 75.9649 34.2508 73.7771C32.5257 71.424 32.9055 69.0176 33.6018 66.3868C27.8097 70.4869 23.1528 76.7257 23.1691 84.0742C23.1825 90.8133 28.7917 97.3996 34.7868 99.9922C34.7877 99.9924 34.7887 99.9927 34.7897 99.9929L34.7893 99.9933Z" fill="#EE4323"/>
</svg>
