<svg width="100" height="100" viewBox="0 0 100 100" fill="none" xmlns="http://www.w3.org/2000/svg">
<g clip-path="url(#clip0_867_20520)">
<path d="M63.629 68.9777L87.4623 89.2986C87.4623 89.2986 73.8123 102.319 57.3665 77.3569L63.629 68.9777Z" fill="url(#paint0_linear_867_20520)"/>
<path d="M64.1668 68.8475L83.3168 93.6266C83.3168 93.6266 67.2752 103.585 56.3293 75.7391L64.171 68.8475H64.1668Z" fill="url(#paint1_radial_867_20520)"/>
<path d="M57.6374 87.6772H42.1374C41.7731 87.6806 41.416 87.5754 41.1118 87.3751C40.8075 87.1747 40.5698 86.8882 40.4291 86.5522L8.43325 12.248C8.07075 11.4397 8.70408 10.4938 9.59992 10.4938H25.2916C26.0583 10.4938 26.7332 10.9438 26.9999 11.6188L58.8124 85.9147C59.1291 86.7688 58.5416 87.673 57.6416 87.673L57.6374 87.6772Z" fill="url(#paint2_linear_867_20520)"/>
<path d="M31.8206 14.7783C23.1248 17.1199 19.9248 25.0491 19.9248 25.0491C19.9248 25.0491 25.4665 23.1116 33.1748 21.3991C36.6911 20.6626 40.2375 20.0774 43.804 19.6449C43.6248 17.0741 38.4873 12.9783 31.8206 14.7783Z" fill="url(#paint3_linear_867_20520)"/>
<path d="M27.7665 21.0434C20.9165 26.9434 21.0998 35.4601 21.0998 35.4601C21.0998 35.4601 25.0165 31.6767 30.9207 26.4476C34.8832 22.9351 39.3873 19.7809 39.3873 19.7809C37.9915 17.6184 33.2665 16.3101 27.7665 21.0434Z" fill="url(#paint4_linear_867_20520)"/>
<path d="M26.2791 29.9158C20.5999 36.8533 21.9041 44.02 21.9041 44.02C21.9041 44.02 25.2416 40.82 30.2416 34.7825C32.5798 32.054 35.0306 29.4239 37.5874 26.8991C35.8749 24.9991 30.7833 24.4658 26.2791 29.9158Z" fill="url(#paint5_linear_867_20520)"/>
<path d="M62.3207 17.2553C62.3207 17.2553 60.6124 12.7969 57.0957 10.8594C53.6707 8.96775 44.479 8.55942 37.9915 13.4261C29.3874 19.8261 26.4582 30.2761 25.8249 32.7594C19.6082 56.9053 32.3165 70.5094 46.4165 77.0928L62.3207 17.2594V17.2553Z" fill="url(#paint6_linear_867_20520)"/>
<path d="M20.4666 46.8571C20.6405 55.036 24.0558 62.8109 29.9614 68.472C35.867 74.133 43.7794 77.2166 51.9583 77.0446L50.6541 15.3196C33.6208 15.7238 20.1041 29.8238 20.4666 46.8571Z" fill="url(#paint7_linear_867_20520)"/>
<path d="M26.2334 52.5834C28.0793 69.3834 43.2626 81.5042 60.0668 79.6584L53.3126 18.7417C45.2397 19.6497 37.856 23.7213 32.78 30.0642C27.7041 36.407 25.3499 44.5077 26.2334 52.5834Z" fill="url(#paint8_radial_867_20520)"/>
<path d="M38.8041 15.7713C36.5643 18.1071 35.2804 21.197 35.2056 24.4323C35.1308 27.6677 36.2704 30.8137 38.4 33.2505C40.5284 35.6894 43.4887 37.2483 46.704 37.6234C49.9192 37.9986 53.1589 37.163 55.7916 35.2796L38.8041 15.7713Z" fill="url(#paint9_radial_867_20520)"/>
<path d="M49.1251 33.6551C50.7355 33.685 52.3357 33.3936 53.8321 32.798C55.3286 32.2024 56.6913 31.3145 57.8407 30.1862C58.9901 29.0579 59.9032 27.7118 60.5264 26.2267C61.1497 24.7415 61.4707 23.147 61.4707 21.5364C61.4707 19.9257 61.1497 18.3312 60.5264 16.8461C59.9032 15.3609 58.9901 14.0148 57.8407 12.8866C56.6913 11.7583 55.3286 10.8704 53.8321 10.2748C52.3357 9.67914 50.7355 9.38775 49.1251 9.41761C45.9499 9.47649 42.9247 10.7792 40.7 13.0455C38.4754 15.3118 37.229 18.3606 37.229 21.5364C37.229 24.7121 38.4754 27.761 40.7 30.0273C42.9247 32.2936 45.9499 33.5962 49.1251 33.6551Z" fill="url(#paint10_radial_867_20520)"/>
<path d="M36.3706 56.7698C40.6039 70.2406 54.9789 77.7656 68.4498 73.5281L53.1289 24.6906C49.9209 25.6946 46.9423 27.3212 44.3635 29.4773C41.7846 31.6334 39.6561 34.2768 38.0997 37.2561C36.5432 40.2355 35.5894 43.4925 35.2927 46.8408C34.996 50.1892 35.3623 53.5631 36.3706 56.7698Z" fill="url(#paint11_linear_867_20520)"/>
<path d="M39.8416 50.3284C40.4061 53.1773 41.5264 55.8872 43.1385 58.303C44.7506 60.7189 46.8229 62.7935 49.237 64.4082C51.6512 66.0229 54.3598 67.1461 57.2082 67.7136C60.0565 68.2812 62.9888 68.2819 65.8375 67.7159L57.1875 24.3325C45.2458 26.6784 37.4541 38.3409 39.8416 50.3284Z" fill="url(#paint12_linear_867_20520)"/>
<path d="M46.1458 11.757C46.1458 11.757 43.4458 16.4445 44.9333 21.6736C46.7791 28.157 53.6708 29.1028 56.5999 28.382L60.7916 19.5986L53.4458 9.77362L46.1458 11.757Z" fill="url(#paint13_radial_867_20520)"/>
<path d="M53.7624 24.1942C53.7624 24.1942 51.5124 24.8692 50.0666 27.5692C48.8499 29.8233 49.2124 32.9317 49.2124 32.9317L58.3582 25.9067L53.7624 24.1942Z" fill="url(#paint14_linear_867_20520)"/>
<path d="M63.8541 41.5418C63.8541 41.5418 56.1041 41.4501 54.1666 34.2418C52.8625 29.3335 55.2041 25.9501 55.2041 25.9501L60.25 24.4668L63.8541 41.5418Z" fill="url(#paint15_linear_867_20520)"/>
<path d="M29.25 3.15332C29.25 3.15332 30.9167 10.8575 39.3 13.9658C45.65 16.3075 56.2833 9.91165 56.2833 9.91165C56.2833 9.91165 50.7 7.61165 42.4083 7.61165C36.1917 7.61165 29.25 3.15332 29.25 3.15332Z" fill="url(#paint16_radial_867_20520)"/>
<path d="M70.4336 19.4623C70.4336 19.4623 71.4253 14.2831 68.1336 9.46232C65.6128 5.76648 59.3003 1.62065 47.592 4.19148C37.7211 6.35398 36.2378 -0.000183105 36.2378 -0.000183105C35.9211 1.62482 37.0003 12.1665 47.2753 10.6332C59.8878 8.74148 58.8086 21.0873 63.267 23.1581C66.9628 24.7831 70.4336 19.4623 70.4336 19.4623Z" fill="url(#paint17_linear_867_20520)"/>
<path d="M57.3209 26.7154C58.9697 26.7154 60.5509 26.0604 61.7168 24.8946C62.8826 23.7287 63.5376 22.1475 63.5376 20.4987C63.5376 18.8499 62.8826 17.2687 61.7168 16.1029C60.5509 14.937 58.9697 14.282 57.3209 14.282C55.6722 14.282 54.0909 14.937 52.9251 16.1029C51.7592 17.2687 51.1042 18.8499 51.1042 20.4987C51.1042 22.1475 51.7592 23.7287 52.9251 24.8946C54.0909 26.0604 55.6722 26.7154 57.3209 26.7154Z" fill="url(#paint18_radial_867_20520)"/>
<path d="M41.9125 87.6773H57.8625C58.2268 87.6807 58.5839 87.5756 58.8882 87.3752C59.1924 87.1748 59.4301 86.8883 59.5709 86.5523L91.5667 12.2481C91.9292 11.4398 91.2959 10.494 90.4 10.494H74.2667C73.9017 10.4897 73.5437 10.5945 73.2386 10.7949C72.9335 10.9953 72.6952 11.2823 72.5542 11.619L40.7417 85.9148C40.425 86.769 41.0125 87.6773 41.9125 87.6773Z" fill="url(#paint19_linear_867_20520)"/>
<path d="M41.9125 87.6793H57.8625C58.227 87.6833 58.5843 87.5784 58.8886 87.3779C59.193 87.1775 59.4306 86.8907 59.5709 86.5543L84.9875 27.621C85.3459 26.8085 84.7167 25.8627 83.8125 25.8627H67.6875C67.3218 25.8576 66.9629 25.962 66.657 26.1624C66.3511 26.3629 66.1121 26.6503 65.9709 26.9877L40.7417 85.921C40.425 86.7752 41.0125 87.6793 41.9125 87.6793Z" fill="url(#paint20_radial_867_20520)"/>
<path d="M66.9626 20.3652C66.9626 20.3652 67.1876 12.886 59.4376 8.96521C48.6251 3.51104 38.7126 16.4444 27.3584 8.96521C27.3584 8.96521 29.6584 20.4985 52.8167 16.1319C58.5376 15.0485 61.0626 16.8485 62.3209 18.9235C63.4042 20.6777 63.3126 22.211 63.3126 23.111L66.9626 20.3652Z" fill="url(#paint21_radial_867_20520)"/>
<path d="M65.2959 21.7611C65.2959 21.7611 65.8792 17.707 62.5042 15.2278C58.8542 12.5695 55.9209 13.1111 55.9209 13.1111C55.9209 13.1111 57.9959 11.8486 60.9709 11.8486C62.5501 11.8486 63.0876 11.6236 63.0876 11.6236C63.0876 11.6236 63.3126 10.9028 62.3209 9.77362C70.7917 13.5153 68.5834 19.9111 68.5834 19.9111L65.2959 21.7611Z" fill="url(#paint22_linear_867_20520)"/>
<path d="M68.1332 28.565C68.1332 28.565 64.7998 31.6734 60.0248 30.0484C59.7082 29.9609 59.754 28.0692 60.0248 26.8525C60.2957 25.4525 61.2415 23.9234 62.0082 22.9775C67.1873 23.4275 68.1332 28.565 68.1332 28.565Z" fill="url(#paint23_linear_867_20520)"/>
<path d="M70.4332 19.1486C70.4332 19.1486 72.9999 23.157 72.2333 27.707C71.3333 32.9778 66.3333 35.457 66.3333 35.457C66.3333 35.457 68.7208 26.2653 61.9583 22.9778C61.9583 22.9778 63.3583 21.4445 65.3874 20.4986C68.3583 19.1486 70.4332 19.1486 70.4332 19.1486Z" fill="url(#paint24_linear_867_20520)"/>
<path d="M56.3334 22.9318C57.1341 22.9318 57.9019 22.6138 58.468 22.0477C59.0342 21.4816 59.3522 20.7137 59.3522 19.9131C59.3522 19.1125 59.0342 18.3446 58.468 17.7785C57.9019 17.2124 57.1341 16.8943 56.3334 16.8943C55.5328 16.8943 54.765 17.2124 54.1989 17.7785C53.6327 18.3446 53.3147 19.1125 53.3147 19.9131C53.3147 20.7137 53.6327 21.4816 54.1989 22.0477C54.765 22.6138 55.5328 22.9318 56.3334 22.9318Z" fill="url(#paint25_radial_867_20520)"/>
<path d="M55.6541 21.5366C56.7249 21.5366 57.5916 20.6075 57.5916 19.4616C57.5916 18.32 56.7249 17.3908 55.6541 17.3908C54.5832 17.3908 53.7166 18.32 53.7166 19.4616C53.7166 20.6075 54.5832 21.5366 55.6541 21.5366Z" fill="url(#paint26_radial_867_20520)"/>
<path d="M57.0043 18.4293C57.1242 18.4293 57.2392 18.3816 57.324 18.2968C57.4088 18.2121 57.4564 18.0971 57.4564 17.9772C57.4564 17.8573 57.4088 17.7423 57.324 17.6575C57.2392 17.5727 57.1242 17.5251 57.0043 17.5251C56.8844 17.5251 56.7694 17.5727 56.6847 17.6575C56.5999 17.7423 56.5522 17.8573 56.5522 17.9772C56.5522 18.0971 56.5999 18.2121 56.6847 18.2968C56.7694 18.3816 56.8844 18.4293 57.0043 18.4293Z" fill="white"/>
</g>
<defs>
<linearGradient id="paint0_linear_867_20520" x1="58.6248" y1="78.5486" x2="84.6373" y2="83.6777" gradientUnits="userSpaceOnUse">
<stop offset="0.006" stop-color="#E8096A"/>
<stop offset="1" stop-color="#00AFFF"/>
</linearGradient>
<radialGradient id="paint1_radial_867_20520" cx="0" cy="0" r="1" gradientUnits="userSpaceOnUse" gradientTransform="translate(65.7685 81.1901) rotate(5.75) scale(26.7866 26.7866)">
<stop stop-color="#00CAFF"/>
<stop offset="1" stop-color="#38E700"/>
</radialGradient>
<linearGradient id="paint2_linear_867_20520" x1="49.0166" y1="85.5522" x2="16.2958" y2="8.048" gradientUnits="userSpaceOnUse">
<stop stop-color="#412DF5"/>
<stop offset="0.691" stop-color="#0606B6"/>
<stop offset="1" stop-color="#4B00B4"/>
</linearGradient>
<linearGradient id="paint3_linear_867_20520" x1="21.7915" y1="20.2741" x2="35.204" y2="18.8241" gradientUnits="userSpaceOnUse">
<stop stop-color="#E60030"/>
<stop offset="1" stop-color="#690040"/>
</linearGradient>
<linearGradient id="paint4_linear_867_20520" x1="22.329" y1="28.1392" x2="33.054" y2="25.0559" gradientUnits="userSpaceOnUse">
<stop stop-color="#FF6500"/>
<stop offset="1" stop-color="#EE182C"/>
</linearGradient>
<linearGradient id="paint5_linear_867_20520" x1="23.0333" y1="33.7825" x2="35.7916" y2="36.245" gradientUnits="userSpaceOnUse">
<stop stop-color="#EA4D07"/>
<stop offset="1" stop-color="#C5171E"/>
</linearGradient>
<linearGradient id="paint6_linear_867_20520" x1="50.0957" y1="12.5303" x2="29.404" y2="75.0844" gradientUnits="userSpaceOnUse">
<stop stop-color="#0091FF"/>
<stop offset="0.005" stop-color="#0292FC"/>
<stop offset="0.126" stop-color="#37A5C2"/>
<stop offset="0.249" stop-color="#65B58E"/>
<stop offset="0.372" stop-color="#8CC363"/>
<stop offset="0.496" stop-color="#ACCF3F"/>
<stop offset="0.62" stop-color="#C4D823"/>
<stop offset="0.745" stop-color="#D6DE10"/>
<stop offset="0.871" stop-color="#E1E204"/>
<stop offset="1" stop-color="#E4E300"/>
</linearGradient>
<linearGradient id="paint7_linear_867_20520" x1="28.3458" y1="20.028" x2="56.7333" y2="76.6655" gradientUnits="userSpaceOnUse">
<stop offset="0.006" stop-color="#DE003B"/>
<stop offset="0.241" stop-color="#D976FF"/>
<stop offset="1" stop-color="#00A4EA"/>
</linearGradient>
<radialGradient id="paint8_radial_867_20520" cx="0" cy="0" r="1" gradientUnits="userSpaceOnUse" gradientTransform="translate(46.3557 37.691) rotate(-6.338) scale(47.8408 47.8408)">
<stop stop-color="#00DFFF"/>
<stop offset="1" stop-color="#ABE700"/>
</radialGradient>
<radialGradient id="paint9_radial_867_20520" cx="0" cy="0" r="1" gradientUnits="userSpaceOnUse" gradientTransform="translate(44.3301 25.736) rotate(-40.957) scale(11.5371)">
<stop stop-color="#0068FF"/>
<stop offset="1" stop-color="#9CE830"/>
</radialGradient>
<radialGradient id="paint10_radial_867_20520" cx="0" cy="0" r="1" gradientUnits="userSpaceOnUse" gradientTransform="translate(49.1251 21.5384) scale(12.1456)">
<stop stop-color="#008A43"/>
<stop offset="1" stop-color="#A3E830"/>
</radialGradient>
<linearGradient id="paint11_linear_867_20520" x1="47.6456" y1="32.7489" x2="52.5373" y2="67.2906" gradientUnits="userSpaceOnUse">
<stop stop-color="#FF9500"/>
<stop offset="1" stop-color="#F7FF2B"/>
</linearGradient>
<linearGradient id="paint12_linear_867_20520" x1="64.5625" y1="56.545" x2="44.15" y2="35.3159" gradientUnits="userSpaceOnUse">
<stop offset="0.207" stop-color="#FF8E00"/>
<stop offset="1" stop-color="#F41B56"/>
</linearGradient>
<radialGradient id="paint13_radial_867_20520" cx="0" cy="0" r="1" gradientUnits="userSpaceOnUse" gradientTransform="translate(55.8499 20.2903) scale(9.99187)">
<stop stop-color="#FF0000"/>
<stop offset="1" stop-color="#FFFF00"/>
</radialGradient>
<linearGradient id="paint14_linear_867_20520" x1="50.1291" y1="30.99" x2="53.3999" y2="27.4317" gradientUnits="userSpaceOnUse">
<stop stop-color="#FFB41F"/>
<stop offset="1" stop-color="#F42A56"/>
</linearGradient>
<linearGradient id="paint15_linear_867_20520" x1="56.1333" y1="39.8918" x2="62.2125" y2="28.8668" gradientUnits="userSpaceOnUse">
<stop stop-color="#FFB900"/>
<stop offset="1" stop-color="#F41880"/>
</linearGradient>
<radialGradient id="paint16_radial_867_20520" cx="0" cy="0" r="1" gradientUnits="userSpaceOnUse" gradientTransform="translate(40.6022 9.62829) rotate(-9.492) scale(13.8147)">
<stop offset="0.001" stop-color="#72003F"/>
<stop offset="1" stop-color="#CA1D67"/>
</radialGradient>
<linearGradient id="paint17_linear_867_20520" x1="36.192" y1="11.7332" x2="70.5753" y2="11.7332" gradientUnits="userSpaceOnUse">
<stop stop-color="#FF6500"/>
<stop offset="1" stop-color="#EE182C"/>
</linearGradient>
<radialGradient id="paint18_radial_867_20520" cx="0" cy="0" r="1" gradientUnits="userSpaceOnUse" gradientTransform="translate(57.4042 20.457) scale(4.91858 4.91858)">
<stop stop-color="#D1DEE7"/>
<stop offset="1" stop-color="white"/>
</radialGradient>
<linearGradient id="paint19_linear_867_20520" x1="43.9834" y1="88.2981" x2="88.9417" y2="8.45647" gradientUnits="userSpaceOnUse">
<stop stop-color="#008DFF"/>
<stop offset="0.181" stop-color="#331DEA"/>
<stop offset="0.833" stop-color="#39C3FE"/>
<stop offset="1" stop-color="#60F5A9"/>
</linearGradient>
<radialGradient id="paint20_radial_867_20520" cx="0" cy="0" r="1" gradientUnits="userSpaceOnUse" gradientTransform="translate(65.7586 68.6483) rotate(-156.16) scale(11.4812 31.8382)">
<stop offset="0.001" stop-color="#7F06FB"/>
<stop offset="1" stop-color="#7A10FB" stop-opacity="0"/>
</radialGradient>
<radialGradient id="paint21_radial_867_20520" cx="0" cy="0" r="1" gradientUnits="userSpaceOnUse" gradientTransform="translate(29.5834 11.7527) scale(36.002 36.002)">
<stop offset="0.001" stop-color="#FF0042"/>
<stop offset="0.422" stop-color="#0068FF"/>
<stop offset="0.659" stop-color="#1877E2"/>
<stop offset="1" stop-color="#4EEFBE"/>
</radialGradient>
<linearGradient id="paint22_linear_867_20520" x1="62.2792" y1="10.9611" x2="62.5042" y2="20.6153" gradientUnits="userSpaceOnUse">
<stop stop-color="#E60030"/>
<stop offset="1" stop-color="#690040"/>
</linearGradient>
<linearGradient id="paint23_linear_867_20520" x1="63.8957" y1="29.765" x2="64.2748" y2="23.7442" gradientUnits="userSpaceOnUse">
<stop stop-color="#FFD71F"/>
<stop offset="1" stop-color="#DD001B"/>
</linearGradient>
<linearGradient id="paint24_linear_867_20520" x1="63.5416" y1="26.9653" x2="71.3624" y2="27.5111" gradientUnits="userSpaceOnUse">
<stop stop-color="#FF4C00"/>
<stop offset="1" stop-color="#FFFF1E"/>
</linearGradient>
<radialGradient id="paint25_radial_867_20520" cx="0" cy="0" r="1" gradientUnits="userSpaceOnUse" gradientTransform="translate(54.8876 19.9985) scale(3.77125)">
<stop stop-color="#FF9100"/>
<stop offset="0.226" stop-color="#FF9500"/>
<stop offset="0.443" stop-color="#FEA000"/>
<stop offset="0.657" stop-color="#FCB400"/>
<stop offset="0.867" stop-color="#F9CF00"/>
<stop offset="1" stop-color="#F7E400"/>
</radialGradient>
<radialGradient id="paint26_radial_867_20520" cx="0" cy="0" r="1" gradientUnits="userSpaceOnUse" gradientTransform="translate(54.7082 19.3325) scale(4.05566 4.05567)">
<stop/>
<stop offset="0.092" stop-color="#000004"/>
<stop offset="0.177" stop-color="#01000F"/>
<stop offset="0.258" stop-color="#020021"/>
<stop offset="0.338" stop-color="#03003C"/>
<stop offset="0.417" stop-color="#05005D"/>
<stop offset="0.494" stop-color="#080087"/>
<stop offset="0.571" stop-color="#0A00B8"/>
<stop offset="0.645" stop-color="#0E00F0"/>
<stop offset="0.654" stop-color="#0E00F7"/>
</radialGradient>
<clipPath id="clip0_867_20520">
<rect width="100" height="100" fill="white"/>
</clipPath>
</defs>
</svg>
