<svg width="100" height="100" viewBox="0 0 100 100" fill="none" xmlns="http://www.w3.org/2000/svg">
<path d="M18.4416 39.3513L8.52488 29.4597C3.06894 34.9195 0.00415039 42.3223 0.00415039 50.0409C0.00415039 57.7595 3.06894 65.1623 8.52488 70.6222L18.4416 60.7013C15.6256 57.8629 14.0455 54.0267 14.0455 50.0284C14.0455 46.0301 15.6256 42.1897 18.4416 39.3513Z" fill="#E8710A"/>
<path d="M49.7791 29.456C44.3232 34.9159 41.2584 42.3187 41.2584 50.0373C41.2584 57.7559 44.3232 65.1587 49.7791 70.6185L59.8833 60.6977C57.5687 57.789 56.4035 54.1313 56.6094 50.4197C56.8152 46.7082 58.3776 43.2017 60.9997 40.5668C63.6217 37.9319 67.1206 36.3523 70.8311 36.1283C74.5415 35.9043 78.205 37.0515 81.1249 39.3519L91.0458 29.431C88.3511 26.7178 85.1482 24.5619 81.6201 23.0867C78.092 21.6116 74.3079 20.8459 70.4838 20.8335C66.6598 20.8211 62.8707 21.5623 59.3332 23.0146C55.7956 24.4669 52.5789 26.6019 49.8666 29.2977L49.7833 29.381V29.456H49.7791ZM47.0291 73.0019L39.6749 60.6935C36.8367 63.5082 33.0014 65.0875 29.0041 65.0875C25.0069 65.0875 21.1715 63.5082 18.3333 60.6935L8.51245 70.6269C13.4646 75.5773 20.0348 78.5777 27.0191 79.0781C34.0034 79.5786 40.9342 77.5457 46.5416 73.3519L47.0208 73.0019M8.51245 29.4519L18.4333 39.3519C21.2672 36.5675 25.0812 35.0073 29.0541 35.0073C33.027 35.0073 36.841 36.5675 39.6749 39.3519L46.8708 27.0227L46.4416 26.6935C40.8386 22.5305 33.9265 20.5188 26.9645 21.0251C20.0026 21.5314 13.4542 24.522 8.51245 29.4519Z" fill="#F9AB00"/>
<path d="M91.0416 29.4556L81.1166 39.3514C83.4312 42.2601 84.5963 45.9179 84.3905 49.6294C84.1847 53.3409 82.6222 56.8475 80.0002 59.4824C77.3781 62.1173 73.8793 63.6969 70.1688 63.9208C66.4583 64.1448 62.7949 62.9976 59.8749 60.6972L49.7708 70.6264C55.2672 75.9042 62.6137 78.817 70.2335 78.7395C77.8533 78.662 85.139 75.6004 90.527 70.2118C95.915 64.8233 98.9758 57.5373 99.0526 49.9175C99.1293 42.2977 96.2158 34.9515 90.9374 29.4556H91.0416Z" fill="#E8710A"/>
</svg>
