<svg width="100" height="100" viewBox="0 0 100 100" fill="none" xmlns="http://www.w3.org/2000/svg">
<g clip-path="url(#clip0_867_20460)">
<path fill-rule="evenodd" clip-rule="evenodd" d="M42.9623 68.5831L35.3957 33.6581C35.3279 33.3491 35.3499 33.0272 35.4592 32.7303C35.5684 32.4334 35.7602 32.174 36.0121 31.9826C36.2639 31.7912 36.5653 31.6758 36.8806 31.65C37.1959 31.6243 37.5119 31.6893 37.7915 31.8373L68.1665 47.8498C68.44 47.9939 68.6645 48.2159 68.8118 48.4876C68.959 48.7593 69.0224 49.0686 68.9939 49.3764C68.9653 49.6842 68.8461 49.9765 68.6514 50.2166C68.4567 50.4566 68.1951 50.6334 67.8998 50.7248L53.9582 55.029C53.439 55.1894 53.0045 55.5489 52.7498 56.029L45.8748 68.9873C45.7254 69.2721 45.4917 69.5038 45.2056 69.6508C44.9196 69.7979 44.5951 69.8531 44.2765 69.8088C43.958 69.7646 43.6608 69.6232 43.4256 69.4038C43.1904 69.1845 43.0286 68.8979 42.9623 68.5831Z" fill="black"/>
<path fill-rule="evenodd" clip-rule="evenodd" d="M71.1957 4.80367C57.6041 -1.4005 44.4374 -0.617163 36.3333 1.7245C40.5333 2.26617 47.1749 3.287 51.7166 5.34117C55.4874 7.04117 68.8083 14.1745 72.0332 15.6912C75.2541 17.2037 84.6791 20.6745 88.1458 22.5245C90.9208 24.012 94.1541 27.412 95.4207 28.9245C92.8666 23.7662 86.2916 11.687 71.1999 4.7995L71.1957 4.80367Z" fill="url(#paint0_linear_867_20460)"/>
<path d="M35.1586 17.2824C38.7715 17.2824 41.7003 14.3536 41.7003 10.7407C41.7003 7.12784 38.7715 4.19904 35.1586 4.19904C31.5457 4.19904 28.6169 7.12784 28.6169 10.7407C28.6169 14.3536 31.5457 17.2824 35.1586 17.2824Z" fill="url(#paint1_radial_867_20460)"/>
<path d="M91.4126 58.4039C92.8693 58.4039 94.0501 57.2231 94.0501 55.7664C94.0501 54.3098 92.8693 53.1289 91.4126 53.1289C89.956 53.1289 88.7751 54.3098 88.7751 55.7664C88.7751 57.2231 89.956 58.4039 91.4126 58.4039Z" fill="url(#paint2_radial_867_20460)"/>
<path d="M84.4789 50.1C85.6111 50.1 86.529 49.1822 86.529 48.05C86.529 46.9178 85.6111 46 84.4789 46C83.3468 46 82.429 46.9178 82.429 48.05C82.429 49.1822 83.3468 50.1 84.4789 50.1Z" fill="url(#paint3_radial_867_20460)"/>
<path d="M76.9583 74.3265C79.7635 74.3265 82.0375 72.0525 82.0375 69.2473C82.0375 66.4422 79.7635 64.1682 76.9583 64.1682C74.1532 64.1682 71.8792 66.4422 71.8792 69.2473C71.8792 72.0525 74.1532 74.3265 76.9583 74.3265Z" fill="url(#paint4_radial_867_20460)"/>
<path d="M60.7456 80.1848C62.5797 80.1848 64.0665 78.698 64.0665 76.864C64.0665 75.0299 62.5797 73.5432 60.7456 73.5432C58.9116 73.5432 57.4248 75.0299 57.4248 76.864C57.4248 78.698 58.9116 80.1848 60.7456 80.1848Z" fill="url(#paint5_radial_867_20460)"/>
<path d="M63.9209 94.2439C66.4822 94.2439 68.5584 92.1677 68.5584 89.6064C68.5584 87.0452 66.4822 84.9689 63.9209 84.9689C61.3597 84.9689 59.2834 87.0452 59.2834 89.6064C59.2834 92.1677 61.3597 94.2439 63.9209 94.2439Z" fill="url(#paint6_radial_867_20460)"/>
<path d="M17.8251 67.5828C20.7108 67.5828 23.0501 65.2435 23.0501 62.3578C23.0501 59.4721 20.7108 57.1328 17.8251 57.1328C14.9394 57.1328 12.6001 59.4721 12.6001 62.3578C12.6001 65.2435 14.9394 67.5828 17.8251 67.5828Z" fill="url(#paint7_radial_867_20460)"/>
<path d="M20.7543 43.8483C24.5029 43.8483 27.5418 40.8094 27.5418 37.0608C27.5418 33.3121 24.5029 30.2733 20.7543 30.2733C17.0057 30.2733 13.9668 33.3121 13.9668 37.0608C13.9668 40.8094 17.0057 43.8483 20.7543 43.8483Z" fill="url(#paint8_radial_867_20460)"/>
<path fill-rule="evenodd" clip-rule="evenodd" d="M69.9792 70.0813L65.9208 72.5979L65.1917 73.0479L64.4417 73.5146C64.9285 74.0549 65.291 74.6953 65.5038 75.3907C65.7166 76.0861 65.7745 76.8197 65.6734 77.5399C65.5722 78.2601 65.3146 78.9494 64.9185 79.5593C64.5224 80.1693 63.9975 80.6851 63.3808 81.0704C62.764 81.4557 62.0703 81.7013 61.3484 81.7897C60.6266 81.8782 59.8941 81.8075 59.2025 81.5826C58.5109 81.3576 57.877 80.9839 57.3453 80.4877C56.8136 79.9915 56.3971 79.3849 56.125 78.7104C55.0083 79.4188 54.05 80.0396 53.325 80.5229C47.5375 84.3979 41.5875 88.2646 33.8417 88.6271C23.7583 89.1021 9.21667 79.4479 6.98334 56.6438C5.27501 39.1604 18.8 22.8021 28.225 16.6979L28.6917 16.4063C27.3172 14.839 26.5616 12.8242 26.5667 10.7396C26.5667 8.74795 27.2417 6.91462 28.3792 5.46045C26.0167 5.86878 24.4125 6.96878 21.65 8.97295C13.4958 14.8813 8.85834 18.5396 2.55417 34.4563C-3.74583 50.373 2.75001 69.4229 9.63751 79.8729C16.5208 90.3229 32.4917 96.8646 36.2 97.8438C39.9125 98.8188 50.8042 101.16 55.2958 98.3313C56.7625 97.4063 57.9667 96.0979 59.0208 94.5771C57.9651 93.538 57.2672 92.1901 57.0279 90.7282C56.7887 89.2664 57.0204 87.7663 57.6898 86.4449C58.3591 85.1234 59.4313 84.049 60.7513 83.3769C62.0714 82.7049 63.571 82.47 65.0333 82.7063C66.3458 80.2521 67.8333 78.1646 69.8458 76.9896C70.875 76.3896 72 75.7771 73.1667 75.1604C72.2932 74.6008 71.5544 73.8548 71.0033 72.976C70.4522 72.0971 70.1025 71.1113 69.9792 70.0813Z" fill="url(#paint9_linear_867_20460)"/>
<path fill-rule="evenodd" clip-rule="evenodd" d="M43.6169 10.6673C43.6169 12.0756 43.2794 13.4048 42.6794 14.5756C46.8378 15.6006 51.0378 17.0673 57.7294 21.2673C59.4544 22.3506 63.3378 24.2964 66.8753 26.0714C68.7461 27.0089 70.5169 27.8964 71.8169 28.5839C75.5586 30.1923 79.542 31.9048 82.6336 33.3756C91.5503 37.6256 93.8544 44.2298 92.8086 51.9089C93.3298 52.0908 93.8089 52.3759 94.2173 52.7472C94.6257 53.1185 94.955 53.5683 95.1855 54.0698C95.4161 54.5713 95.5431 55.1142 95.5589 55.6659C95.5748 56.2177 95.4792 56.7669 95.2779 57.2809C95.0766 57.7948 94.7737 58.2628 94.3873 58.657C94.0009 59.0512 93.539 59.3633 93.0292 59.5748C92.5194 59.7864 91.9721 59.8929 91.4202 59.888C90.8682 59.8831 90.3229 59.7669 89.8169 59.5464C87.7836 61.6214 84.7669 63.0298 81.7919 64.1964C82.529 64.9306 83.0935 65.8197 83.4445 66.7991C83.7955 67.7785 83.9241 68.8237 83.8211 69.8589L84.3128 69.6298L84.4211 69.5798C85.9354 68.8963 87.4357 68.1823 88.9211 67.4381L88.9836 67.4048C89.8586 66.9464 91.2044 66.2339 92.6586 65.1214C92.0753 66.5964 90.1586 70.2131 87.1919 72.8714C83.4836 76.1881 80.6503 76.9214 76.8378 77.7048C73.8586 78.3173 69.6378 81.9381 67.7794 83.7881C68.5444 84.2943 69.202 84.9465 69.7145 85.7073C70.2271 86.468 70.5845 87.3224 70.7664 88.2214C70.9483 89.1205 70.9511 90.0467 70.7746 90.9468C70.5981 91.847 70.2458 92.7035 69.7378 93.4673C69.6169 93.9381 69.4711 94.3839 69.3211 94.8298C69.177 95.2533 69.0464 95.6813 68.9294 96.1131L69.4961 95.9464C72.0003 95.2089 76.8794 93.7798 87.1919 83.0756C98.3503 71.4923 99.4628 58.0089 99.9378 50.8964C100.767 39.4673 93.3211 32.2298 89.7544 29.6423C87.9003 28.2964 82.7336 26.0339 77.6503 23.8089L76.8169 23.4381L73.5878 22.0423C70.3669 20.6589 67.4503 19.4048 65.7544 18.4214L65.5836 18.3214C60.5961 15.4381 52.7919 10.9256 46.2919 8.8881C45.7759 8.75735 45.2528 8.6558 44.7253 8.58393C44.241 8.51763 43.761 8.42302 43.2878 8.3006C43.5003 9.0506 43.6169 9.84643 43.6169 10.6714V10.6673Z" fill="url(#paint10_linear_867_20460)"/>
<path fill-rule="evenodd" clip-rule="evenodd" d="M57.8582 26.9821C51.9166 23.5363 44.3291 19.1404 36.7124 19.1404C31.1541 19.1404 24.9374 22.9696 19.9082 28.3613C21.441 28.2115 22.9861 28.4698 24.3868 29.1101C25.7874 29.7504 26.9937 30.7499 27.8832 32.0071C28.8416 30.4446 29.9499 28.8321 31.1041 27.7363C33.4124 25.5488 36.6416 24.6113 37.7457 24.6113C42.5332 24.6113 48.5416 27.7363 57.2957 33.3029C59.9457 34.9863 62.5457 36.3654 64.9207 37.6279C71.0957 40.9071 75.7541 43.3779 75.7541 48.2446C75.7541 53.7613 73.7832 55.3738 71.1499 56.8863C70.6374 57.1779 69.7499 57.7154 68.5874 58.4113C64.8916 60.6321 58.4499 64.4988 52.8374 67.4363C51.313 68.2562 49.8177 69.129 48.3541 70.0529C42.7166 73.5238 37.3624 76.8238 31.3166 72.5613C23.6999 67.1904 24.5624 57.6696 26.4166 52.6404C26.9582 51.1821 27.5582 49.8154 28.1166 48.5529C29.4832 45.4571 30.5749 42.9904 29.7416 41.3571C29.5144 40.9362 29.239 40.5433 28.9207 40.1863C28.372 41.6184 27.4564 42.8811 26.2659 43.8478C25.0754 44.8146 23.6516 45.4515 22.1374 45.6946C21.4624 48.3404 20.8916 50.9113 20.7207 52.6404C20.6249 53.5988 20.5041 54.5779 20.3707 55.5404C21.3473 55.9026 22.2347 56.4701 22.9731 57.2046C23.7115 57.9392 24.2837 58.8236 24.651 59.7982C25.0183 60.7728 25.1722 61.8149 25.1023 62.8541C25.0324 63.8932 24.7403 64.9053 24.2457 65.8219C23.7511 66.7385 23.0656 67.5383 22.2354 68.1673C21.4053 68.7963 20.4498 69.2398 19.4336 69.4679C18.4173 69.6959 17.3639 69.7033 16.3446 69.4894C15.3253 69.2755 14.3637 68.8453 13.5249 68.2279C15.9707 73.6529 19.3624 78.0613 22.8416 80.2779C30.7457 85.3196 38.7499 82.6113 41.2374 81.7696C41.358 81.7273 41.483 81.6856 41.6041 81.6446C43.2874 81.0988 51.9082 75.3613 59.2499 70.4738L62.6416 68.2154C68.7582 64.1571 76.4541 60.9363 79.9582 59.4696C80.8749 59.0863 81.5082 58.8196 81.7457 58.6946L81.8041 58.6654C83.4666 57.7779 88.0374 55.3404 88.5207 48.3904C88.9457 42.2779 82.3624 39.0404 78.8332 37.3071C78.3041 37.0446 77.8416 36.8196 77.4874 36.6238C76.3624 35.9988 74.3874 35.1113 71.9624 34.0154C69.2416 32.7821 65.9457 31.2946 62.6416 29.6404C61.2166 28.9279 59.6082 27.9946 57.8582 26.9821ZM84.4832 51.0779C84.8902 51.093 85.296 51.0259 85.6765 50.8806C86.0569 50.7353 86.4042 50.5147 86.6974 50.2322C86.9907 49.9496 87.2239 49.6108 87.3833 49.236C87.5426 48.8612 87.6247 48.4581 87.6247 48.0509C87.6247 47.6436 87.5426 47.2405 87.3833 46.8657C87.2239 46.491 86.9907 46.1521 86.6974 45.8696C86.4042 45.587 86.0569 45.3664 85.6765 45.2211C85.296 45.0758 84.8902 45.0087 84.4832 45.0238C83.6998 45.0528 82.9582 45.3845 82.4143 45.949C81.8703 46.5135 81.5664 47.2669 81.5664 48.0509C81.5664 48.8348 81.8703 49.5882 82.4143 50.1527C82.9582 50.7172 83.6998 51.0489 84.4832 51.0779Z" fill="url(#paint11_linear_867_20460)"/>
<path fill-rule="evenodd" clip-rule="evenodd" d="M17.0082 48.6825C16.6795 50.822 16.6151 52.9939 16.8165 55.1491C15.4375 55.3428 14.1429 55.9277 13.0862 56.8345C12.0294 57.7414 11.2548 58.9322 10.854 60.2658C9.53737 54.5033 9.41653 48.3116 11.2207 42.6783C11.5457 41.6575 11.9374 40.6325 12.3874 39.6116C12.7897 40.9242 13.4947 42.1239 14.4457 43.114C15.3967 44.1041 16.5671 44.8568 17.8624 45.3116C17.4874 46.345 17.1915 47.47 17.0082 48.6866V48.6825Z" fill="url(#paint12_linear_867_20460)"/>
</g>
<defs>
<linearGradient id="paint0_linear_867_20460" x1="51.6166" y1="-0.000498002" x2="93.7082" y2="26.9537" gradientUnits="userSpaceOnUse">
<stop stop-color="#83FFFF"/>
<stop offset="1" stop-color="#01F9FD"/>
</linearGradient>
<radialGradient id="paint1_radial_867_20460" cx="0" cy="0" r="1" gradientUnits="userSpaceOnUse" gradientTransform="translate(35.1586 8.10737) rotate(90) scale(9.1805 9.1805)">
<stop offset="0.592" stop-color="white"/>
<stop offset="0.62" stop-color="#8BEBFF"/>
</radialGradient>
<radialGradient id="paint2_radial_867_20460" cx="0" cy="0" r="1" gradientUnits="userSpaceOnUse" gradientTransform="translate(91.4168 54.7039) rotate(90) scale(3.69958 3.69959)">
<stop offset="0.592" stop-color="white"/>
<stop offset="0.62" stop-color="#8BEBFF"/>
</radialGradient>
<radialGradient id="paint3_radial_867_20460" cx="0" cy="0" r="1" gradientUnits="userSpaceOnUse" gradientTransform="translate(84.479 47.2292) rotate(90) scale(2.87746 2.87746)">
<stop offset="0.592" stop-color="white"/>
<stop offset="0.62" stop-color="#8BEBFF"/>
</radialGradient>
<radialGradient id="paint4_radial_867_20460" cx="0" cy="0" r="1" gradientUnits="userSpaceOnUse" gradientTransform="translate(76.9583 67.2015) rotate(90) scale(7.12517)">
<stop offset="0.592" stop-color="white"/>
<stop offset="0.62" stop-color="#8BEBFF"/>
</radialGradient>
<radialGradient id="paint5_radial_867_20460" cx="0" cy="0" r="1" gradientUnits="userSpaceOnUse" gradientTransform="translate(60.7498 75.5265) rotate(90) scale(4.65875 4.65875)">
<stop offset="0.592" stop-color="white"/>
<stop offset="0.62" stop-color="#8BEBFF"/>
</radialGradient>
<radialGradient id="paint6_radial_867_20460" cx="0" cy="0" r="1" gradientUnits="userSpaceOnUse" gradientTransform="translate(63.9251 87.7398) rotate(90) scale(6.50854 6.50854)">
<stop offset="0.592" stop-color="white"/>
<stop offset="0.62" stop-color="#8BEBFF"/>
</radialGradient>
<radialGradient id="paint7_radial_867_20460" cx="0" cy="0" r="1" gradientUnits="userSpaceOnUse" gradientTransform="translate(17.8293 60.2536) rotate(90) scale(7.33071 7.33071)">
<stop offset="0.592" stop-color="white"/>
<stop offset="0.62" stop-color="#8BEBFF"/>
</radialGradient>
<radialGradient id="paint8_radial_867_20460" cx="0" cy="0" r="1" gradientUnits="userSpaceOnUse" gradientTransform="translate(20.7543 34.3274) rotate(90) scale(9.52304)">
<stop offset="0.592" stop-color="white"/>
<stop offset="0.62" stop-color="#8BEBFF"/>
</radialGradient>
<linearGradient id="paint9_linear_867_20460" x1="28.8583" y1="5.46878" x2="63.1875" y2="96.2938" gradientUnits="userSpaceOnUse">
<stop stop-color="#0CD7FE"/>
<stop offset="0.5" stop-color="#03ACFF"/>
<stop offset="1" stop-color="#0272E1"/>
</linearGradient>
<linearGradient id="paint10_linear_867_20460" x1="28.8586" y1="5.47143" x2="63.1878" y2="96.2964" gradientUnits="userSpaceOnUse">
<stop stop-color="#0CD7FE"/>
<stop offset="0.5" stop-color="#03ACFF"/>
<stop offset="1" stop-color="#0272E1"/>
</linearGradient>
<linearGradient id="paint11_linear_867_20460" x1="88.5832" y1="44.7779" x2="9.8624" y2="56.6446" gradientUnits="userSpaceOnUse">
<stop stop-color="#1BE8F9"/>
<stop offset="0.5" stop-color="#05C3FD"/>
<stop offset="1" stop-color="#0047CB"/>
</linearGradient>
<linearGradient id="paint12_linear_867_20460" x1="88.5832" y1="44.7783" x2="9.86237" y2="56.645" gradientUnits="userSpaceOnUse">
<stop stop-color="#1BE8F9"/>
<stop offset="0.5" stop-color="#05C3FD"/>
<stop offset="1" stop-color="#0047CB"/>
</linearGradient>
<clipPath id="clip0_867_20460">
<rect width="100" height="100" fill="white"/>
</clipPath>
</defs>
</svg>
