<svg width="100" height="100" viewBox="0 0 100 100" fill="none" xmlns="http://www.w3.org/2000/svg">
<path fill-rule="evenodd" clip-rule="evenodd" d="M61.7619 38.4554L71.4218 44.0293L64.2891 48.1507L57.3689 44.1592C56.8021 43.8285 56.3888 43.4152 56.0699 42.8484L50.0118 32.3618L43.9537 42.8484C43.6231 43.4152 43.2097 43.8403 42.6429 44.1592C30.8101 50.9849 18.9773 57.8224 7.15635 64.6481L46.3628 87.2744C48.6892 88.6089 51.3462 88.6089 53.6727 87.2744L92.8673 64.6481L78.5782 56.4053L85.7227 52.2839L96.4218 58.4601C98.6892 59.7709 100 62.0265 100 64.6481C100 67.2697 98.701 69.5253 96.4218 70.8361L57.3335 93.4152C52.6689 96.1077 47.3429 96.1077 42.6901 93.4152L3.58997 70.8361C1.32261 69.5253 0.0118027 67.2697 0.0118027 64.6481C0.0118027 62.0265 1.31081 59.7709 3.58997 58.4601C15.1512 51.7879 26.7005 45.1157 38.2381 38.4554L46.906 23.4341C47.5673 22.3004 48.6892 21.6509 50 21.6509C51.3108 21.6509 52.4327 22.3004 53.094 23.4341L61.7619 38.4554ZM61.7619 61.9792L53.094 77.0005C52.4445 78.1342 51.3108 78.7837 50 78.7837C48.6892 78.7837 47.5673 78.1342 46.906 77.0005L38.2381 61.9792L28.5782 56.4053L35.7227 52.2839L42.6311 56.2754C43.1979 56.606 43.6231 57.0076 43.9419 57.5744L50 68.0727L56.0581 57.5744C56.3888 57.0076 56.7903 56.5942 57.3571 56.2754C69.1899 49.4497 81.0227 42.6122 92.8437 35.7865L53.649 13.1601C51.3226 11.8139 48.6656 11.8139 46.3392 13.1601L7.13272 35.7865L21.4218 44.0293L14.2891 48.1507L3.57818 41.9745C1.31082 40.6637 0 38.4081 0 35.7865C0 33.1649 1.29901 30.9093 3.57818 29.5985L42.6783 7.01937C47.3311 4.32688 52.6571 4.32688 57.3217 7.01937L96.41 29.5985C98.6774 30.9093 99.9882 33.1649 99.9882 35.7865C99.9882 38.4081 98.6892 40.6637 96.41 41.9745C84.8607 48.6467 73.2995 55.3188 61.7619 61.9792Z" fill="#0C0D0D"/>
</svg>
