<svg width="100" height="100" viewBox="0 0 100 100" fill="none" xmlns="http://www.w3.org/2000/svg">
<path fill-rule="evenodd" clip-rule="evenodd" d="M33.8665 58.7457C36.3332 58.7457 41.2415 58.6082 48.0248 55.8165C55.929 52.5623 71.6582 46.6498 83.004 40.5832C90.9415 36.3415 94.4207 30.7248 94.4207 23.1665C94.4207 20.671 93.9291 18.2 92.974 15.8946C92.0189 13.5891 90.619 11.4944 88.8542 9.73C87.0895 7.96563 84.9944 6.56619 82.6888 5.6116C80.3831 4.657 77.912 4.16596 75.4165 4.1665H31.454C24.2165 4.16761 17.2759 7.04346 12.1586 12.1615C7.0413 17.2796 4.1665 24.2207 4.1665 31.4582C4.1665 46.529 15.604 58.7457 33.8665 58.7457Z" fill="#39594D"/>
<path fill-rule="evenodd" clip-rule="evenodd" d="M41.2998 77.5411C41.2996 73.9281 42.3701 70.3961 44.3761 67.3911C46.3822 64.3861 49.2337 62.0431 52.5706 60.6578L66.4165 54.9078C80.4206 49.0995 95.8331 59.3911 95.8331 74.5536C95.8331 77.3468 95.2829 80.1125 94.2139 82.693C93.1449 85.2735 91.578 87.6181 89.6028 89.5929C87.6276 91.5678 85.2827 93.1342 82.702 94.2027C80.1213 95.2712 77.3554 95.8209 74.5623 95.8203L59.5748 95.8162C57.1745 95.8162 54.7978 95.3433 52.5803 94.4247C50.3628 93.506 48.348 92.1595 46.651 90.4621C44.9539 88.7646 43.6079 86.7495 42.6897 84.5318C41.7716 82.3141 41.2993 79.9372 41.2998 77.537V77.5411Z" fill="#D18EE2"/>
<path d="M19.8998 62.3411C17.8336 62.3406 15.7874 62.7472 13.8783 63.5376C11.9692 64.3281 10.2346 65.487 8.77347 66.9481C7.31239 68.4092 6.1535 70.1438 5.36302 72.0529C4.57254 73.962 4.16596 76.0082 4.1665 78.0745V80.112C4.23369 84.2398 5.92063 88.1759 8.8635 91.0712C11.8064 93.9666 15.7694 95.5893 19.8978 95.5893C24.0261 95.5893 27.9891 93.9666 30.932 91.0712C33.8749 88.1759 35.5618 84.2398 35.629 80.112V78.0703C35.629 76.0047 35.2222 73.9594 34.4317 72.051C33.6412 70.1427 32.4826 68.4087 31.022 66.9481C29.5614 65.4875 27.8275 64.3289 25.9191 63.5384C24.0108 62.748 21.9654 62.3411 19.8998 62.3411Z" fill="#FF7759"/>
</svg>
