<svg width="100" height="100" viewBox="0 0 100 100" fill="none" xmlns="http://www.w3.org/2000/svg">
<g clip-path="url(#clip0_867_20427)">
<g clip-path="url(#clip1_867_20427)">
<path d="M62.6079 78.6291C77.3579 77.0198 91.2667 69.2935 98.9311 56.3959C95.3072 88.2878 59.8151 108.449 30.8556 96.066C28.1833 94.923 25.8905 93.0412 24.3105 90.602C17.8004 80.5592 15.6596 67.7777 18.7306 56.1786C27.52 71.0806 45.3781 80.2203 62.6079 78.6291Z" fill="#F5B01A"/>
<path d="M18.1946 46.826C12.2126 60.4038 11.9502 76.3126 19.288 89.3993C-6.51943 70.3159 -6.23339 29.4983 18.9705 10.6087C21.2959 8.86655 24.0718 7.82263 26.975 7.67286C38.9266 7.05574 51.0662 11.594 59.5764 20.0524C42.2757 20.2134 25.4322 31.1087 18.1946 46.826Z" fill="#8D2576"/>
<path d="M67.9178 24.2216C59.1914 12.2599 45.5259 4.12588 30.5608 3.87813C59.4921 -9.02954 95.071 11.8973 98.9505 42.8264C99.3108 45.7025 98.839 48.6225 97.5406 51.2126C92.1329 61.9964 82.1093 70.3647 70.3987 73.4626C78.9966 57.8241 77.9279 38.716 67.9178 24.2216Z" fill="#EE342F"/>
</g>
</g>
<defs>
<clipPath id="clip0_867_20427">
<rect width="100" height="100" fill="white"/>
</clipPath>
<clipPath id="clip1_867_20427">
<rect width="99.1892" height="100" fill="white"/>
</clipPath>
</defs>
</svg>
