<svg width="100" height="100" viewBox="0 0 100 100" fill="none" xmlns="http://www.w3.org/2000/svg">
<g clip-path="url(#clip0_867_20336)">
<path d="M25.0583 0C32.35 1.00833 37.9708 4.5125 41.9208 10.5083C42.5833 11.5083 43.1958 12.9 43.6542 13.75C43.6839 13.8047 43.7288 13.8496 43.7836 13.8792C43.8383 13.9087 43.9005 13.9218 43.9625 13.9167C48.025 13.5417 52.0292 13.5417 55.9708 13.9167C56.0329 13.9223 56.0953 13.9095 56.1502 13.8799C56.205 13.8502 56.2499 13.805 56.2792 13.75C56.8458 12.7083 57.5042 11.2375 58.3417 10.0292C62.3 4.32083 67.8125 0.983333 74.8667 0H79.6583C81.9583 0.429167 83.4042 0.741667 83.9917 0.933333C88.8958 2.54167 92.8125 5.39167 95.7417 9.4875C98.6601 13.5136 100.155 18.3967 99.9917 23.3667C99.8833 28.3375 98.1708 32.9292 94.85 37.1417C94.7915 37.2151 94.7563 37.3043 94.7489 37.3978C94.7415 37.4913 94.7622 37.585 94.8083 37.6667C97.2951 41.9704 98.9423 46.707 99.6625 51.625C99.8417 52.8333 99.9417 54.2208 99.9625 55.775C99.9917 57.95 99.975 59.3417 99.9167 59.95C97.9417 80.0375 81.6167 94.3208 62.7667 98.5917C60.0292 99.2125 57.0333 99.6708 53.7792 99.9667H46.2083C44.6548 99.7855 43.1033 99.5869 41.5542 99.3708C38.6224 98.9642 35.7292 98.3162 32.9042 97.4333C21.4667 93.8583 11.1792 86.4292 5.15833 75.9792C2.825 71.9292 1.29583 67.8542 0.575 63.7542C0.367377 62.4649 0.175695 61.1732 0 59.8792L0 53.8125C0.55588 48.1056 2.3154 42.5813 5.1625 37.6042C5.20604 37.5283 5.22539 37.441 5.21794 37.3539C5.2105 37.2668 5.17661 37.184 5.12083 37.1167C2.76851 34.2959 1.16369 30.9287 0.454167 27.325C0.3125 26.5958 0.158333 25.8667 0 25.125V20.3125C0.379167 17.8042 0.925 15.7167 1.63333 14.0542C4.48333 7.35417 10.3625 2.125 17.6208 0.545833C18.5042 0.354167 19.3917 0.170833 20.2833 0H25.0583ZM40.8083 22.6875C40.8447 20.2877 40.4035 17.9047 39.5104 15.6771C38.6172 13.4494 37.2899 11.4216 35.6058 9.71171C33.9216 8.00181 31.9142 6.64392 29.7004 5.71706C27.4865 4.7902 25.1105 4.31289 22.7104 4.31289C20.3104 4.31289 17.9343 4.7902 15.7205 5.71706C13.5066 6.64392 11.4992 8.00181 9.81506 9.71171C8.1309 11.4216 6.80362 13.4494 5.91046 15.6771C5.0173 17.9047 4.57609 20.2877 4.6125 22.6875C4.6125 27.4879 6.51946 32.0917 9.91387 35.4861C13.3083 38.8805 17.9121 40.7875 22.7125 40.7875C27.5129 40.7875 32.1167 38.8805 35.5111 35.4861C38.9055 32.0917 40.8125 27.4879 40.8125 22.6875H40.8083ZM95.3583 22.6875C95.3583 20.3106 94.8902 17.9569 93.9805 15.7609C93.0709 13.5649 91.7377 11.5696 90.057 9.88887C88.3762 8.20813 86.3809 6.87489 84.1849 5.96528C81.9889 5.05567 79.6353 4.5875 77.2583 4.5875C74.8814 4.5875 72.5278 5.05567 70.3318 5.96528C68.1358 6.87489 66.1404 8.20813 64.4597 9.88887C62.779 11.5696 61.4457 13.5649 60.5361 15.7609C59.6265 17.9569 59.1583 20.3106 59.1583 22.6875C59.1583 27.4879 61.0653 32.0917 64.4597 35.4861C67.8541 38.8805 72.4579 40.7875 77.2583 40.7875C82.0587 40.7875 86.6626 38.8805 90.057 35.4861C93.4514 32.0917 95.3583 27.4879 95.3583 22.6875ZM49.9667 74.9792C50.6542 74.9792 51.3125 74.9708 51.9375 74.9542C55.5575 74.8489 59.1717 74.5945 62.7708 74.1917C67.8458 73.6208 72.8542 72.5667 77.7875 71.0292C83.55 69.2333 92.1 65.5 94.7208 59.6333C95.2542 58.4458 95.45 56.9208 95.3125 55.0625C94.9 49.6833 93.55 44.9792 91.2583 40.9375C91.2423 40.91 91.2179 40.8882 91.1887 40.8755C91.1594 40.8628 91.1269 40.8597 91.0958 40.8667C91.0745 40.8721 91.0546 40.8821 91.0375 40.8958C86.8 43.8833 82.3875 45.4125 77.8 45.4792C72.9667 45.5542 68.6333 44.325 64.8167 41.7833C58.9417 37.875 55.525 32.325 54.575 25.1208C54.2833 22.9417 54.4708 21.0667 54.8167 18.7417C54.8223 18.708 54.8208 18.6735 54.8122 18.6405C54.8036 18.6074 54.7881 18.5766 54.7667 18.55C54.7456 18.5229 54.7192 18.5004 54.6891 18.4839C54.659 18.4674 54.6259 18.4573 54.5917 18.4542C53.5958 18.3458 52.0583 18.2875 49.9792 18.2875C47.9042 18.2875 46.3667 18.3458 45.375 18.4542C45.3068 18.4603 45.2439 18.4933 45.2 18.5458C45.179 18.5727 45.1638 18.6035 45.1552 18.6365C45.1466 18.6695 45.1448 18.7038 45.15 18.7375C45.4917 21.0625 45.6792 22.9375 45.3875 25.1167C44.4292 32.3167 41.0125 37.8667 35.1375 41.7708C31.3125 44.3083 26.9833 45.5375 22.1458 45.4625C17.5625 45.3917 13.1458 43.8583 8.9125 40.8667C8.89465 40.8538 8.87426 40.845 8.85271 40.8406C8.83115 40.8363 8.80891 40.8367 8.7875 40.8417C8.76753 40.8463 8.74873 40.855 8.73225 40.8672C8.71576 40.8793 8.70195 40.8948 8.69167 40.9125C6.4 44.9458 5.04583 49.65 4.63333 55.0292C4.4875 56.8875 4.68333 58.4125 5.21667 59.6042C7.83333 65.475 16.3833 69.2083 22.1417 71.0125C27.0792 72.5542 32.0833 73.6125 37.1583 74.1833C40.6958 74.5875 44.3042 74.8417 47.9917 74.9542C48.6167 74.9708 49.275 74.9792 49.9667 74.9792ZM49.9792 95.3458C53.5083 95.3458 56.5458 95.0708 60.2833 94.35C74.7917 91.55 87.6208 82.4542 93.2292 68.5833C93.233 68.5718 93.2342 68.5595 93.2325 68.5474C93.2308 68.5353 93.2264 68.5238 93.2195 68.5137C93.2127 68.5036 93.2036 68.4953 93.193 68.4893C93.1824 68.4833 93.1705 68.4798 93.1583 68.4792C93.1417 68.4792 93.125 68.4875 93.1167 68.4958C91.325 69.8625 89.375 71.075 87.2625 72.1208C79.7583 75.8583 71.1667 77.9 62.775 78.85C58.6375 79.3208 54.2833 79.6 49.9833 79.6C45.6833 79.6 41.3333 79.3208 37.1958 78.85C28.8042 77.8917 20.2125 75.8583 12.7083 72.1208C10.6456 71.1015 8.68643 69.8847 6.85833 68.4875C6.84459 68.479 6.82867 68.4746 6.8125 68.475C6.79662 68.4759 6.78137 68.4815 6.76873 68.4912C6.7561 68.5008 6.74667 68.5141 6.74167 68.5292C6.73627 68.5454 6.73627 68.5629 6.74167 68.5792C12.3458 82.45 25.175 91.5458 39.6833 94.3458C43.4208 95.0708 46.4583 95.3458 49.9833 95.3458H49.9792Z" fill="#5EAE91"/>
<path d="M24.9917 38.4994C28.5755 38.4994 32.0124 37.0758 34.5465 34.5417C37.0806 32.0076 38.5042 28.5707 38.5042 24.9869C38.5042 21.4032 37.0806 17.9662 34.5465 15.4321C32.0124 12.8981 28.5755 11.4744 24.9917 11.4744C21.408 11.4744 17.9711 12.8981 15.437 15.4321C12.9029 17.9662 11.4792 21.4032 11.4792 24.9869C11.4792 28.5707 12.9029 32.0076 15.437 34.5417C17.9711 37.0758 21.408 38.4994 24.9917 38.4994ZM74.9792 38.4994C78.563 38.4994 81.9999 37.0758 84.534 34.5417C87.0681 32.0076 88.4918 28.5707 88.4918 24.9869C88.4918 21.4032 87.0681 17.9662 84.534 15.4321C81.9999 12.8981 78.563 11.4744 74.9792 11.4744C71.3955 11.4744 67.9585 12.8981 65.4245 15.4321C62.8904 17.9662 61.4667 21.4032 61.4667 24.9869C61.4667 28.5707 62.8904 32.0076 65.4245 34.5417C67.9585 37.0758 71.3955 38.4994 74.9792 38.4994ZM38.4501 65.4119C38.9716 65.429 39.4912 65.341 39.978 65.1532C40.4648 64.9655 40.9089 64.6817 41.2838 64.3188C41.6588 63.956 41.9569 63.5214 42.1605 63.041C42.3641 62.5606 42.4691 62.0441 42.4691 61.5223C42.4691 61.0006 42.3641 60.4841 42.1605 60.0037C41.9569 59.5233 41.6588 59.0887 41.2838 58.7259C40.9089 58.363 40.4648 58.0792 39.978 57.8914C39.4912 57.7037 38.9716 57.6157 38.4501 57.6328C37.4405 57.6658 36.4834 58.0901 35.7809 58.8159C35.0785 59.5417 34.6857 60.5123 34.6857 61.5223C34.6857 62.5324 35.0785 63.5029 35.7809 64.2288C36.4834 64.9546 37.4405 65.3789 38.4501 65.4119ZM61.5209 65.4161C62.5542 65.4161 63.5451 65.0056 64.2757 64.275C65.0063 63.5444 65.4167 62.5535 65.4167 61.5203C65.4167 60.487 65.0063 59.4961 64.2757 58.7655C63.5451 58.0349 62.5542 57.6244 61.5209 57.6244C60.4877 57.6244 59.4968 58.0349 58.7661 58.7655C58.0355 59.4961 57.6251 60.487 57.6251 61.5203C57.6251 62.5535 58.0355 63.5444 58.7661 64.275C59.4968 65.0056 60.4877 65.4161 61.5209 65.4161Z" fill="#5EAE91"/>
</g>
<defs>
<clipPath id="clip0_867_20336">
<rect width="100" height="100" fill="white"/>
</clipPath>
</defs>
</svg>
