<svg width="100" height="100" viewBox="0 0 100 100" fill="none" xmlns="http://www.w3.org/2000/svg">
<g clip-path="url(#clip0_867_20330)">
<path d="M80.875 44.9302C82.9406 44.8564 84.9878 45.342 86.8001 46.3358C88.6124 47.3297 90.1226 48.7947 91.1709 50.576C93.1834 53.9344 93.7625 57.9594 92.775 61.7427L92.2084 63.9177C90.0713 72.117 85.4838 79.4692 79.0584 84.9927C76.5375 87.1469 73.7125 89.4177 70.3792 91.3427L70.2625 91.4136C68.5875 92.3802 66.5792 93.5427 64.4375 94.5636C59.4792 97.0719 54.125 98.7177 48.6125 99.426C45.0542 99.8885 41.4625 100.072 37.875 99.9761H37.8C30.1379 99.6984 22.7676 96.967 16.775 92.1844L16.725 92.1427L16.675 92.1011C10.6533 87.1464 6.55296 80.2427 5.08335 72.5844C4.02701 67.4004 3.88319 62.0719 4.65835 56.8386C5.78767 49.1808 8.27382 41.7858 12 35.001C14.8501 29.5628 18.2453 24.4281 22.1334 19.6761C26.3604 14.5142 31.3647 10.0413 36.9667 6.41772C41.4863 3.47613 46.5361 1.44378 51.8334 0.434388H51.85L51.8625 0.426054C60.4334 -1.17395 67.4584 1.98439 72.7959 5.67605C76.8248 8.42197 80.2259 11.9907 82.775 16.1469L82.875 16.3136L82.9709 16.4886C85.7843 21.5863 86.5416 27.5671 85.0875 33.2052C84.0917 37.2469 82.6792 41.1802 80.875 44.9302Z" fill="#461816"/>
<path d="M78.587 54.8528C78.8803 54.4227 79.2766 54.0729 79.7398 53.8354C80.203 53.5979 80.7184 53.4802 81.2388 53.493C81.7592 53.5059 82.2681 53.6489 82.719 53.909C83.17 54.169 83.5486 54.5379 83.8203 54.982C84.6495 56.3653 84.887 58.0236 84.4828 59.5778L83.912 61.7528C82.2155 68.2589 78.5759 74.0932 73.4786 78.4778C71.0953 80.5195 68.737 82.3903 66.087 83.9195C64.3078 84.9486 62.5161 85.9861 60.6578 86.8653C56.542 88.9635 52.0947 90.3351 47.512 90.9195C44.3949 91.3279 41.2504 91.4895 38.1078 91.4028C32.2815 91.1914 26.6772 89.1144 22.1203 85.4778C17.63 81.7834 14.5766 76.632 13.4911 70.9195C12.6244 66.6952 12.5045 62.3518 13.137 58.0861C14.1219 51.4094 16.2951 44.9631 19.5536 39.0528C22.1431 34.1012 25.2313 29.427 28.7703 25.1028C32.4364 20.625 36.7773 16.7452 41.637 13.6028C45.2241 11.2673 49.2322 9.65385 53.437 8.85279C58.8828 7.83196 63.5786 9.71529 67.9411 12.7403C70.9797 14.8052 73.5447 17.4924 75.4661 20.6236C77.2286 23.8195 77.6995 27.5736 76.7745 31.1028C75.8315 34.9573 74.4473 38.6903 72.6495 42.2278L71.7203 44.2986C70.3828 47.2695 69.0453 50.2403 67.6786 53.2028C67.4 53.9963 66.818 54.6468 66.0602 55.0116C65.3025 55.3764 64.431 55.4257 63.637 55.1486C61.2827 54.4019 59.1654 53.0509 57.4963 51.2304C55.8272 49.41 54.6646 47.1837 54.1245 44.7736C53.7286 41.3153 54.2911 37.8195 55.7495 34.6653C56.9495 31.557 58.2911 28.5111 59.637 25.4653L60.6703 23.1195C60.8256 22.8627 60.927 22.5771 60.9683 22.2798C61.0095 21.9826 60.9898 21.6801 60.9102 21.3908C60.8307 21.1015 60.693 20.8314 60.5056 20.5971C60.3182 20.3627 60.0851 20.169 59.8203 20.0278C57.8968 20.4762 56.1538 21.4958 54.8203 22.9528C52.4637 25.2995 50.2195 27.7564 48.0953 30.3153C43.8024 35.6895 40.1409 41.5389 37.1828 47.7486C35.3299 51.3211 34.176 55.2144 33.7828 59.2195C33.3905 62.2974 33.489 65.4182 34.0745 68.4653C34.3968 70.3989 35.3728 72.1633 36.8394 73.4639C38.3061 74.7644 40.1746 75.5224 42.1328 75.6111C49.637 76.0278 57.0911 74.0986 63.4495 70.0778C65.8745 68.4111 68.2036 66.6153 70.4286 64.6861C73.562 61.7278 76.162 58.357 78.587 54.8528Z" fill="white"/>
</g>
<defs>
<clipPath id="clip0_867_20330">
<rect width="100" height="100" fill="white"/>
</clipPath>
</defs>
</svg>
