<svg width="100" height="100" viewBox="0 0 100 100" fill="none" xmlns="http://www.w3.org/2000/svg">
<g clip-path="url(#clip0_867_20323)">
<path d="M50 99.9991C77.6142 99.9991 100 77.6134 100 49.9991C100 22.3849 77.6142 -0.000854492 50 -0.000854492C22.3858 -0.000854492 0 22.3849 0 49.9991C0 77.6134 22.3858 99.9991 50 99.9991Z" fill="white" fill-opacity="0.965067" stroke="#FFFFFE" stroke-width="0.377953" stroke-linecap="round"/>
<path d="M83.0205 58.9346L58.9037 83.0033C58.8072 83.0997 58.6625 83.1479 58.566 83.0997L25.6224 74.2729C25.4777 74.2247 25.3812 74.1282 25.3812 74.0318L16.5062 41.1364C16.458 40.9917 16.5062 40.8952 16.6027 40.7988L40.7195 16.7301C40.816 16.6337 40.9607 16.5854 41.0572 16.6337L74.0008 25.4604C74.1455 25.5087 74.242 25.6051 74.242 25.7016L83.0687 58.597C83.1652 58.7417 83.117 58.8382 83.0205 58.9346ZM50.7039 32.7437L18.3391 41.3776C18.2909 41.3776 18.2426 41.474 18.2909 41.5223L41.9736 65.1568C42.0219 65.205 42.1183 65.205 42.1183 65.1085L50.8004 32.792C50.8486 32.792 50.7522 32.6955 50.7039 32.7437Z" fill="black"/>
</g>
<defs>
<clipPath id="clip0_867_20323">
<rect width="100" height="100" fill="white"/>
</clipPath>
</defs>
</svg>
