<svg width="100" height="100" viewBox="0 0 100 100" fill="none" xmlns="http://www.w3.org/2000/svg">
<path d="M94.0943 29.1105C94.0937 27.4456 93.7376 25.9744 93.0175 24.7122C92.3102 23.4702 91.2509 22.4296 89.8301 21.6068C78.1017 14.8441 66.3619 8.10212 54.6374 1.33257C51.4765 -0.492268 48.4117 -0.425396 45.2743 1.42564C40.606 4.17841 17.2337 17.5689 10.2691 21.603C7.40086 23.2637 6.00517 25.8049 6.00448 29.1074C6 42.7075 6.00448 56.3076 6 69.9078C6 71.5361 6.3416 72.979 7.02996 74.2224C7.73763 75.5015 8.81171 76.5708 10.2653 77.4122C17.2303 81.4462 40.6057 94.8357 45.2729 97.5895C48.4117 99.4416 51.4765 99.5078 54.6384 97.6826C66.3633 90.9127 78.1038 84.1707 89.8339 77.4081C91.2875 76.567 92.3615 75.4971 93.0692 74.2189C93.7565 72.9752 94.0988 71.5327 94.0988 69.904C94.0988 69.904 94.0988 42.711 94.0943 29.1105Z" fill="#A179DC"/>
<path d="M50.1843 49.375L7.03003 74.2223C7.7377 75.5015 8.81178 76.5707 10.2654 77.4121C17.2304 81.4462 40.6058 94.8356 45.273 97.5895C48.4118 99.4415 51.4765 99.5077 54.6385 97.6825C66.3634 90.9126 78.1038 84.1707 89.8339 77.408C91.2875 76.5669 92.3616 75.497 93.0693 74.2188L50.1843 49.375Z" fill="#280068"/>
<path d="M94.0945 29.1105C94.0938 27.4456 93.7378 25.9744 93.0177 24.7122L50.1843 49.3754L93.0694 74.219C93.7567 72.9753 94.0983 71.5328 94.099 69.9041C94.099 69.9041 94.099 42.711 94.0945 29.1105Z" fill="#390091"/>
<path d="M75.5919 40.0864V44.7309H80.2364V40.0864H82.5586V44.7309H87.2031V47.0531H82.5586V51.6973H87.2031V54.0195H82.5586V58.664H80.2364V54.0195H75.5919V58.664H73.2696V54.0195H68.6255V51.6973H73.2696V47.0531H68.6255V44.7309H73.2696V40.0864H75.5919ZM80.2364 47.0528H75.5919V51.6973H80.2364V47.0528Z" fill="white"/>
<path d="M50.279 16.7613C62.3931 16.7613 72.9695 23.3403 78.6346 33.1194L78.5794 33.0253L64.3261 41.2319C61.5182 36.4775 56.3705 33.2686 50.4648 33.2025L50.2786 33.2014C41.2734 33.2014 33.9726 40.5022 33.9726 49.5074C33.9697 52.3458 34.7112 55.1353 36.1232 57.5975C38.9339 62.5043 44.2178 65.8138 50.279 65.8138C56.3777 65.8138 61.6916 62.4623 64.4878 57.5031L64.4199 57.622L78.6515 65.8665C73.0484 75.5629 62.6168 82.1215 50.6437 82.2522L50.279 82.2542C38.1266 82.2542 27.5202 75.6346 21.8692 65.8038C19.1106 61.0045 17.5322 55.4408 17.5322 49.5074C17.5322 31.4224 32.193 16.761 50.2786 16.761L50.279 16.7613Z" fill="white"/>
</svg>
