<svg width="100" height="100" viewBox="0 0 100 100" fill="none" xmlns="http://www.w3.org/2000/svg">
<g clip-path="url(#clip0_867_19734)">
<path d="M4.77921 63.2461C3.60024 58.9525 3 54.493 3 50.0013C3 29.4969 15.8776 10.7486 35.0467 3.35529L37.56 9.85991C21.0597 16.2253 9.97739 32.3557 9.97739 50.0013C9.97739 53.8719 10.4918 57.705 11.5047 61.399L4.77921 63.2461Z" fill="#69D3A7"/>
<path d="M91.4391 30.193C83.9796 15.8721 69.2958 6.97441 53.1279 6.97441C47.3991 6.97441 41.8312 8.07724 36.5902 10.2454L33.916 3.80505C40.0091 1.28352 46.4721 -0.00134277 53.1279 -0.00134277C71.911 -0.00134277 88.9633 10.3311 97.6287 26.9701L91.4391 30.193Z" fill="url(#paint0_linear_867_19734)"/>
<path d="M38.1605 39.6849C42.2063 39.6849 45.5022 41.8424 47.1957 45.606L47.3297 45.9006L54.1247 43.5931L53.9801 43.2452C51.3488 36.8368 45.2878 32.8537 38.1605 32.8537C33.1497 32.8537 29.0769 34.4599 25.7115 37.7577C22.3674 41.0341 20.6741 45.1564 20.6741 50.012C20.6741 54.8249 22.3674 58.9258 25.7115 62.2022C29.0769 65.5001 33.1497 67.1062 38.1605 67.1062C45.2878 67.1062 51.3488 63.1231 53.9801 56.7201L54.1247 56.3722L47.3188 54.0593L47.1903 54.3645C45.6736 58.0639 42.2976 60.2749 38.1605 60.2749C35.3415 60.2749 32.9622 59.2899 31.0757 57.3518C29.168 55.387 28.2034 52.9191 28.2034 50.0174C28.2034 47.0943 29.1465 44.6745 31.0757 42.6187C32.9567 40.6702 35.3415 39.6849 38.1605 39.6849Z" fill="#1B1E2E"/>
<path d="M80.721 33.4855L71.0375 57.9888L61.2896 33.4855H53.3154L66.9861 66.9294L57.2596 90.5173L64.2317 91.904L88.2558 33.4855H80.721Z" fill="#1B1E2E"/>
<path d="M58.5071 87.4766L56.8083 91.5882C56.4706 92.402 55.6989 92.9532 54.8308 92.9907C54.2575 93.0122 53.6787 93.0282 53.0946 93.0282C33.1002 93.0176 15.4103 78.9216 11.0266 59.4987L4.2207 61.0351C6.68048 71.9297 12.854 81.8178 21.6052 88.8847C30.4583 96.0316 41.6102 99.9772 53.0196 99.9986C53.0356 99.9986 53.1212 99.9986 53.1212 99.9986C53.7912 99.9986 54.4556 99.9826 55.1202 99.9559C58.7 99.8059 61.8994 97.5628 63.2658 94.2382L65.4844 88.8632L58.5071 87.4766Z" fill="url(#paint1_linear_867_19734)"/>
</g>
<defs>
<linearGradient id="paint0_linear_867_19734" x1="47.9118" y1="-3.2293" x2="85.9637" y2="37.4409" gradientUnits="userSpaceOnUse">
<stop offset="0.0939" stop-color="#58D09E"/>
<stop offset="0.9883" stop-color="#58D09E" stop-opacity="0"/>
</linearGradient>
<linearGradient id="paint1_linear_867_19734" x1="2.4658" y1="72.7518" x2="75.1625" y2="92.1012" gradientUnits="userSpaceOnUse">
<stop offset="0.0774" stop-color="#58D09E"/>
<stop offset="0.7617" stop-color="#1B1E2E"/>
</linearGradient>
<clipPath id="clip0_867_19734">
<rect width="100" height="100" fill="white"/>
</clipPath>
</defs>
</svg>
