<svg width="100" height="100" viewBox="0 0 100 100" fill="none" xmlns="http://www.w3.org/2000/svg">
<g clip-path="url(#clip0_867_21605)">
<g clip-path="url(#clip1_867_21605)">
<path d="M26.8779 27.058L20.4526 20.6326V66.9675L20.5431 69.1394C20.5431 70.1349 20.7241 71.3113 21.0861 72.4878L71.9458 90.4064L84.6155 84.7955L26.8779 27.058Z" fill="#00C4B3"/>
<path d="M84.6153 84.7955L71.9456 90.4064L21.1764 72.4878C22.1719 76.1982 24.2533 80.3611 26.6063 82.7141L43.1673 99.1846L80.0904 99.2751L84.6153 84.7955Z" fill="#22D3C5"/>
<path d="M20.6335 20.6326L0.904978 50.4969C-0.723982 52.2163 0.090498 55.8362 2.71493 58.5512L14.1177 70.0444L21.267 72.5783C20.9955 71.4019 20.724 70.2254 20.724 69.2299L20.6335 67.058V20.6326Z" fill="#0075C9"/>
<path d="M72.3078 21.1757C71.1313 20.9042 69.9548 20.7232 68.9594 20.6327L66.6969 20.5422H20.4526L84.6155 84.7051L90.2263 72.0354L72.3078 21.1757Z" fill="#0075C9"/>
<path d="M82.534 26.6055C80.1811 24.2526 76.1087 22.0806 72.3078 21.1757L90.2264 72.0354L84.6155 84.7051L98.3712 80.2707V42.5331L82.534 26.6055Z" fill="#00A8E1"/>
<path d="M69.7738 14.1168L58.2805 2.71408C55.6561 0.0896435 52.0362 -0.724836 50.2263 0.904123L20.362 20.6326H66.6063L68.8688 20.7231C69.8643 20.7231 71.0407 20.9041 72.2172 21.2661L69.7738 14.1168Z" fill="#00C4B3"/>
</g>
</g>
<defs>
<clipPath id="clip0_867_21605">
<rect width="100" height="100" fill="white"/>
</clipPath>
<clipPath id="clip1_867_21605">
<rect width="100" height="100" fill="white" transform="translate(0 -0.000854492)"/>
</clipPath>
</defs>
</svg>
