<svg width="100" height="100" viewBox="0 0 100 100" fill="none" xmlns="http://www.w3.org/2000/svg">
<path fill-rule="evenodd" clip-rule="evenodd" d="M81.2482 70.9854L72.927 65.5109L65.9927 77.0803L57.927 74.7445L50.8102 85.5839L51.1752 88.9781L89.7883 81.8613L87.562 57.7737L81.2482 70.9854ZM45.2263 60.5839L51.4307 59.7445C52.4161 60.1825 53.1095 60.365 54.3504 60.6569C55.5358 61.0475 56.7887 61.1907 58.0316 61.0777C59.2746 60.9647 60.4811 60.5979 61.5766 60C62.3066 59.635 63.8759 58.1752 64.4963 57.4088L89.8978 52.7737L92.4526 84.1606L49.0219 91.9708L45.2263 60.5839ZM92.3796 49.2701L89.8613 49.781L85.0438 0L3.0365 9.48905L13.146 91.6058L22.708 90.146C21.9416 89.0511 20.7372 87.7372 18.6934 86.0584C15.8832 83.6861 16.8686 79.708 18.5474 77.1898C20.7372 72.9197 32.1241 67.5182 31.4672 60.6934C31.2482 58.2482 30.8467 55 28.5474 52.8102C28.4745 53.7226 28.6204 54.635 28.6204 54.635C28.6204 54.635 27.6715 53.3942 27.1971 51.7518C26.7591 51.1314 26.3942 50.9489 25.8832 50.1095C25.5183 51.0584 25.5912 52.1898 25.5912 52.1898C25.5912 52.1898 24.7883 50.365 24.6788 48.8321C24.3545 49.4565 24.156 50.1385 24.0949 50.8394C24.0949 50.8394 23.1095 47.9197 23.365 46.4234C22.8905 45.073 21.5401 42.4088 21.9051 36.3139C24.4234 38.0657 29.9343 37.6642 32.0511 34.4891C32.781 33.4307 33.2555 30.5839 31.6861 24.927C30.7007 21.3139 28.219 15.9489 27.2701 13.9051L27.1606 13.9781C27.8559 16.2139 28.5008 18.4651 29.0949 20.7299C30.3723 25.8394 30.7372 27.5912 30.1168 29.927C29.6423 31.9708 28.4745 33.2847 25.5183 34.781C22.562 36.2409 18.6204 32.6277 18.365 32.4453C15.8273 30.437 13.9673 27.698 13.0365 24.5985C12.781 22.5912 14.1679 21.4234 14.8613 19.781C14.1398 20.0046 13.4328 20.2727 12.7445 20.5839C12.7445 20.5839 14.0949 19.1971 15.7372 18.0292C16.4672 17.5547 16.8321 17.2628 17.562 16.6423H15.6642C15.6642 16.6423 17.4161 15.7299 19.2409 15.0365C17.8905 14.9635 16.6131 15.0365 16.6131 15.0365C16.6131 15.0365 20.5183 13.2847 23.6204 12.0073C25.7372 11.1314 27.8175 11.3869 28.9854 13.0657C30.4818 15.2555 32.0876 16.4599 35.5182 17.1898C37.5985 16.2774 38.219 15.8029 40.8467 15.073C43.146 12.5182 44.9708 12.2263 44.9708 12.2263C44.9708 12.2263 44.0584 13.0292 43.8394 14.3431C45.1533 13.3212 46.5766 12.4453 46.5766 12.4453C46.5766 12.4453 46.0292 13.1387 45.4818 14.2336L45.6277 14.4161C46.6984 13.798 47.8078 13.2494 48.9489 12.7737L47.854 14.2336C48.9854 14.2336 51.3212 14.3066 52.2336 14.4161C57.5985 14.5255 58.6934 8.68613 60.7372 7.9562C63.292 7.0438 64.4599 6.49635 68.8394 10.8029C72.5985 14.4526 75.5547 21.0949 74.0949 22.5912C72.854 23.7956 70.4453 22.1168 67.781 18.7591C66.2536 16.8795 65.2243 14.6452 64.7883 12.2628C64.3869 10.0365 62.7445 8.72263 62.7445 8.72263C62.7445 8.72263 63.6934 10.8394 63.6934 12.7372C63.6934 13.7591 63.8029 17.5547 65.4453 19.708C65.2993 20.0365 65.2263 21.2774 65.0438 21.5328C63.146 19.1971 59.0219 17.5182 58.365 17.0803C60.6277 18.9051 65.8102 23.1752 67.854 27.2628C69.7153 31.1314 68.5839 34.6715 69.5693 35.5839C69.8248 35.8394 73.6204 40.5474 74.3504 42.9562C75.6277 47.0803 74.4234 51.4234 72.7445 54.1241L68.1095 54.854C67.4161 54.6715 66.9781 54.562 66.3577 54.1971C66.785 53.4465 67.1277 52.6509 67.3796 51.8248L67.1241 51.3504C65.5185 53.4547 63.5082 55.2167 61.2117 56.5328C60.0421 57.1467 58.7618 57.521 57.4458 57.6339C56.1297 57.7467 54.8044 57.5957 53.5474 57.1898C49.1572 55.6866 45.0404 53.4803 41.3577 50.6569C41.3577 50.6569 41.3577 51.4599 41.5766 51.6423C42.9635 53.2482 46.2117 56.1314 49.3504 58.1387L42.6715 58.8686L45.8467 83.4672C44.4234 83.6861 44.2044 83.7956 42.6715 84.0146C41.7012 80.054 39.2952 76.5945 35.9197 74.3066C33.1276 72.7298 29.8446 72.2608 26.7226 72.9927L26.5401 73.2117C28.8029 72.9927 31.5037 73.3212 34.2774 75.073C37.0146 76.7883 39.2044 81.2774 40.0073 83.9051C41.0657 87.3358 41.7591 90.9854 38.9854 94.854C37.0146 97.6277 31.2117 99.1606 26.5766 95.8759C27.781 97.8832 29.4964 99.5255 31.7591 99.8175C35.1168 100.292 38.3285 99.708 40.5183 97.4453C42.4161 95.5109 43.4015 91.4599 43.146 87.2263L46.1022 86.7883L47.1971 94.4161L96.4672 88.4671L92.4161 49.3066L92.3796 49.2701ZM62.4526 28.5401C62.2701 28.8686 62.0876 29.0511 62.3796 30.073V30.146L62.4526 30.292L62.5985 30.5839C63.1825 31.7883 63.8394 32.9197 64.8978 33.5037C65.1898 33.4307 65.4453 33.3942 65.7737 33.3942C66.7591 33.3577 67.4161 33.5037 67.8175 33.7226V32.7737C67.7445 31.2774 68.1095 28.6861 65.2263 27.3358C64.1314 26.8248 62.562 26.9708 62.0511 27.6277L62.3066 27.7007C63.073 27.9562 62.562 28.2117 62.4161 28.5401H62.4526ZM70.5912 42.6642C67.5108 42.3417 64.4015 42.8852 61.6131 44.2336C60.5912 45.0365 61.0657 46.4234 61.8321 46.9708C63.9489 48.5766 65.8467 49.635 67.781 49.3796C68.9854 49.2336 70.0438 47.2993 70.8102 45.5839C71.3212 44.3796 71.3212 43.1022 70.5547 42.6642H70.5912ZM49.4234 30.438C50.1168 29.781 46.0657 28.9416 42.9635 31.0584C40.6642 32.6277 40.5912 36.0219 42.781 37.9197L43.365 38.3577C45.1944 37.4774 47.1539 36.8982 49.1679 36.6423C49.6423 36.1314 50.1898 35.1825 50.0438 33.5401C49.8613 31.2774 48.146 31.6423 49.4234 30.438Z" fill="#632CA6"/>
</svg>
