<svg width="100" height="100" viewBox="0 0 100 100" fill="none" xmlns="http://www.w3.org/2000/svg">
<g clip-path="url(#clip0_868_39437)">
<path d="M82.25 90.0751L99.8041 46.1834C99.859 46.0498 99.8968 45.9098 99.9166 45.7667L99.9291 45.6417C99.9505 45.4065 99.9221 45.1694 99.8458 44.9459L99.8167 44.8375C99.7673 44.713 99.7044 44.5942 99.6292 44.4834L99.6167 44.4625L68.8666 0.541711C68.8583 0.529211 68.8666 0.516711 68.8541 0.500045H68.8708V1.22088H68.8291C68.4041 0.162545 67.675 0.0333781 66.975 0.187545L66.9708 0.175045C66.9666 0.179211 66.9583 0.162545 66.9583 0.162545H66.9333C66.9333 0.162545 66.9333 0.00421143 66.925 0.00421143L18.6083 13.0959C18.5833 13.1042 18.5583 13.075 18.5333 13.0834C18.4416 13.1125 18.35 13.125 18.2666 13.1709C18.2109 13.1985 18.1566 13.2291 18.1041 13.2625C18.05 13.2959 17.9958 13.325 17.95 13.3667C17.7427 13.5436 17.5752 13.7622 17.4583 14.0084L17.4166 14.0792L-2.44816e-05 57.9959C-0.0166912 58.05 0.0958089 58.1042 0.0958089 58.1625V58.7792C0.0958089 58.8584 0.0958089 58.9375 0.108309 59.0167L0.0958089 59.0209V59.0459C0.0958089 59.25 0.0499755 59.4459 0.162476 59.625H0.124976C0.124976 59.6334 0.0916422 59.6334 0.0916422 59.6334L0.0499755 59.6375C0.0791422 59.6875 0.0833089 59.7334 0.116642 59.7792L30.8541 99.3042V99.3251C30.862 99.3325 30.8704 99.3395 30.8791 99.3459C30.9041 99.3792 30.9333 99.4001 30.9625 99.4292C30.9887 99.4585 31.0165 99.4863 31.0458 99.5126C31.0791 99.5459 31.1083 99.5834 31.1416 99.6084L31.225 99.6667C31.3614 99.7551 31.5066 99.8291 31.6583 99.8876C31.7041 99.9001 31.7458 99.9209 31.7916 99.9292C31.8125 99.9376 31.8333 99.9501 31.8583 99.9542C32.0938 100.006 32.3373 100.012 32.575 99.9709L80.8958 91.1876C80.9535 91.177 81.0106 91.1631 81.0666 91.1459L81.1125 91.1501H81.1167C81.1375 91.1501 81.1583 91.1209 81.1791 91.1126C81.2208 91.1001 81.2625 91.0792 81.3042 91.0584C81.3398 91.0437 81.3745 91.027 81.4083 91.0084L81.45 90.9792C81.5962 90.8976 81.7307 90.7967 81.85 90.6792C81.8666 90.6626 81.875 90.6376 81.8916 90.6251C82.0072 90.5009 82.1041 90.3605 82.1791 90.2084L82.2 90.1751L82.2125 90.1501L82.2167 90.1376L82.2417 90.0751H82.25ZM79.0416 86.3501L48.5625 67.2959L82.85 40.6292L79.0416 86.3501ZM46.4583 64.3917L34.8666 21.8917L81.2291 37.35L46.4583 64.3917ZM86.5042 39.8792L95.95 46.1792L83.3583 77.6542L86.5042 39.8792ZM91.225 38.7209L86.3583 35.4792L79.875 22.5084L91.225 38.7209ZM81.4333 33.6375L36.925 18.8084L66.6 3.97505L81.4333 33.6417V33.6375ZM32.125 17.2042L25.2625 14.9167L50.4166 8.05005L32.125 17.2V17.2042ZM20.1208 16.9834L29.2916 20.0417L7.88748 47.5625L20.1208 16.9792V16.9834ZM31.475 23.0667L42.95 65.1334L4.70414 57.4875L31.475 23.0709V23.0667ZM42.9166 68.7834L31.8041 94.7084L5.87498 61.375L42.9166 68.7834ZM46.2625 70.0875L75.7 88.4917L35.2166 95.8542L46.2625 70.0875Z" fill="#4E81EE"/>
</g>
<defs>
<clipPath id="clip0_868_39437">
<rect width="100" height="100" fill="white"/>
</clipPath>
</defs>
</svg>
