<svg width="100" height="100" viewBox="0 0 100 100" fill="none" xmlns="http://www.w3.org/2000/svg">
<g clip-path="url(#clip0_867_21988)">
<path d="M13.7253 32.5873C11.1913 32.584 8.76203 31.5759 6.97022 29.7841C5.1784 27.9923 4.1703 25.563 4.16699 23.029C4.1692 20.4942 5.17681 18.0639 6.96875 16.2712C8.76068 14.4785 11.1906 13.4698 13.7253 13.4665C16.2615 13.4676 18.6936 14.4753 20.4873 16.2682C22.281 18.0612 23.2898 20.4928 23.292 23.029C23.2876 25.5637 22.2778 27.9932 20.4843 29.7843C18.6908 31.5755 16.2601 32.5862 13.7253 32.5873ZM13.7253 17.2206C12.2218 17.2776 10.7989 17.9149 9.75534 18.9987C8.71178 20.0826 8.12878 21.5286 8.12878 23.0331C8.12878 24.5377 8.71178 25.9837 9.75534 27.0676C10.7989 28.1514 12.2218 28.7887 13.7253 28.8456C15.2288 28.7887 16.6517 28.1514 17.6953 27.0676C18.7389 25.9837 19.3219 24.5377 19.3219 23.0331C19.3219 21.5286 18.7389 20.0826 17.6953 18.9987C16.6517 17.9149 15.2288 17.2776 13.7253 17.2206ZM13.7253 59.554C11.1906 59.5507 8.76068 58.542 6.96875 56.7493C5.17681 54.9566 4.1692 52.5262 4.16699 49.9915C4.1703 47.4575 5.1784 45.0282 6.97022 43.2364C8.76203 41.4446 11.1913 40.4365 13.7253 40.4332C16.2601 40.4354 18.6904 41.443 20.4831 43.2349C22.2758 45.0268 23.2845 47.4567 23.2878 49.9915C23.2856 52.5269 22.2774 54.9579 20.4846 56.7508C18.6918 58.5436 16.2608 59.5518 13.7253 59.554ZM13.7253 44.1873C12.2229 44.2442 10.801 44.8811 9.75824 45.9641C8.71544 47.0472 8.13287 48.4922 8.13287 49.9956C8.13287 51.4991 8.71544 52.9441 9.75824 54.0272C10.801 55.1102 12.2229 55.7471 13.7253 55.804C14.5066 55.8336 15.2858 55.7053 16.0163 55.4267C16.7469 55.1481 17.4137 54.7251 17.9769 54.1828C18.5401 53.6405 18.9881 52.9902 19.2941 52.2707C19.6001 51.5513 19.7579 50.7775 19.7579 49.9956C19.7579 49.2138 19.6001 48.44 19.2941 47.7206C18.9881 47.0011 18.5401 46.3508 17.9769 45.8085C17.4137 45.2662 16.7469 44.8432 16.0163 44.5646C15.2858 44.286 14.5066 44.1577 13.7253 44.1873ZM13.7253 86.504C11.1913 86.5007 8.76203 85.4926 6.97022 83.7008C5.1784 81.9089 4.1703 79.4797 4.16699 76.9456C4.1692 74.4109 5.17681 71.9806 6.96875 70.1878C8.76068 68.3951 11.1906 67.3865 13.7253 67.3831C16.2608 67.3854 18.6918 68.3935 20.4846 70.1864C22.2774 71.9792 23.2856 74.4102 23.2878 76.9456C23.2845 79.4804 22.2758 81.9103 20.4831 83.7022C18.6904 85.4942 16.2601 86.5018 13.7253 86.504ZM13.7253 71.1373C12.2218 71.1943 10.7989 71.8316 9.75534 72.9154C8.71178 73.9992 8.12878 75.4453 8.12878 76.9498C8.12878 78.4544 8.71178 79.9004 9.75534 80.9842C10.7989 82.0681 12.2218 82.7054 13.7253 82.7623C15.2288 82.7054 16.6517 82.0681 17.6953 80.9842C18.7389 79.9004 19.3219 78.4544 19.3219 76.9498C19.3219 75.4453 18.7389 73.9992 17.6953 72.9154C16.6517 71.8316 15.2288 71.1943 13.7253 71.1373ZM86.4087 32.5873C83.8739 32.5851 81.4436 31.5775 79.6508 29.7856C77.8581 27.9936 76.8495 25.5637 76.8462 23.029C76.8484 20.4942 77.856 18.0639 79.6479 16.2712C81.4398 14.4785 83.8698 13.4698 86.4045 13.4665C88.9399 13.4687 91.3709 14.4769 93.1638 16.2697C94.9566 18.0625 95.9648 20.4935 95.967 23.029C95.9637 25.563 94.9556 27.9923 93.1638 29.7841C91.3719 31.5759 88.9427 32.584 86.4087 32.5873ZM86.4087 17.2206C85.2579 17.2198 84.1327 17.5604 83.1755 18.1992C82.2183 18.838 81.4722 19.7464 81.0314 20.8094C80.5906 21.8725 80.4751 23.0424 80.6994 24.1711C80.9237 25.2998 81.4778 26.3366 82.2915 27.1503C83.1052 27.964 84.142 28.5181 85.2707 28.7424C86.3994 28.9667 87.5693 28.8512 88.6324 28.4104C89.6954 27.9697 90.6038 27.2235 91.2426 26.2663C91.8814 25.3091 92.222 24.1839 92.2212 23.0331C92.2212 19.8248 89.6128 17.2206 86.4087 17.2206ZM86.4087 59.554C83.8732 59.5518 81.4422 58.5436 79.6494 56.7508C77.8565 54.9579 76.8484 52.5269 76.8462 49.9915C76.8495 47.4575 77.8576 45.0282 79.6494 43.2364C81.4412 41.4446 83.8705 40.4365 86.4045 40.4332C88.9392 40.4354 91.3696 41.443 93.1623 43.2349C94.955 45.0268 95.9637 47.4567 95.967 49.9915C95.9648 52.5262 94.9572 54.9566 93.1652 56.7493C91.3733 58.542 88.9434 59.5507 86.4087 59.554ZM86.4087 44.1873C83.2045 44.1873 80.5962 46.7915 80.5962 49.9915C80.6531 51.495 81.2904 52.9179 82.3742 53.9615C83.4581 55.005 84.9041 55.588 86.4087 55.588C87.9132 55.588 89.3593 55.005 90.4431 53.9615C91.5269 52.9179 92.1642 51.495 92.2212 49.9915C92.2212 46.7831 89.6128 44.1873 86.4087 44.1873ZM86.4087 86.504C83.8739 86.5018 81.4436 85.4942 79.6508 83.7022C77.8581 81.9103 76.8495 79.4804 76.8462 76.9456C76.8484 74.4109 77.856 71.9806 79.6479 70.1878C81.4398 68.3951 83.8698 67.3865 86.4045 67.3831C88.9399 67.3854 91.3709 68.3935 93.1638 70.1864C94.9566 71.9792 95.9648 74.4102 95.967 76.9456C95.9637 79.4797 94.9556 81.9089 93.1638 83.7008C91.3719 85.4926 88.9427 86.5007 86.4087 86.504ZM86.4087 71.1373C85.2579 71.1365 84.1327 71.477 83.1755 72.1159C82.2183 72.7547 81.4722 73.6631 81.0314 74.7261C80.5906 75.7891 80.4751 76.959 80.6994 78.0877C80.9237 79.2164 81.4778 80.2533 82.2915 81.067C83.1052 81.8807 84.142 82.4348 85.2707 82.6591C86.3994 82.8834 87.5693 82.7679 88.6324 82.3271C89.6954 81.8863 90.6038 81.1401 91.2426 80.1829C91.8814 79.2258 92.222 78.1006 92.2212 76.9498C92.2212 73.7415 89.6128 71.1373 86.4087 71.1373ZM50.067 46.0706C47.533 46.0673 45.1037 45.0592 43.3119 43.2674C41.5201 41.4756 40.512 39.0463 40.5087 36.5123C40.5109 33.9776 41.5185 31.5472 43.3104 29.7545C45.1023 27.9618 47.5323 26.9531 50.067 26.9498C52.6024 26.952 55.0334 27.9602 56.8263 29.753C58.6191 31.5459 59.6273 33.9769 59.6295 36.5123C59.6262 39.047 58.6175 41.477 56.8248 43.2689C55.0321 45.0608 52.6017 46.0684 50.067 46.0706ZM50.067 30.704C48.9162 30.7032 47.791 31.0437 46.8339 31.6825C45.8767 32.3214 45.1305 33.2298 44.6897 34.2928C44.249 35.3558 44.1334 36.5257 44.3577 37.6544C44.582 38.7831 45.1361 39.8199 45.9498 40.6337C46.7635 41.4474 47.8004 42.0014 48.9291 42.2258C50.0578 42.4501 51.2277 42.3345 52.2907 41.8937C53.3537 41.453 54.2621 40.7068 54.9009 39.7496C55.5398 38.7924 55.8803 37.6673 55.8795 36.5165C55.8795 33.3081 53.2753 30.704 50.067 30.704ZM50.0712 19.1207C47.5357 19.1184 45.1047 18.1103 43.3119 16.3174C41.519 14.5246 40.5109 12.0936 40.5087 9.55815C40.512 7.02342 41.5206 4.59351 43.3134 2.80157C45.1061 1.00963 47.5364 0.00202173 50.0712 -0.000183105C52.6052 0.00312429 55.0344 1.01122 56.8263 2.80304C58.6181 4.59486 59.6262 7.02414 59.6295 9.55815C59.6273 12.0929 58.6197 14.5232 56.8277 16.316C55.0358 18.1087 52.6059 19.1173 50.0712 19.1207ZM50.0712 3.75398C48.9204 3.75316 47.7952 4.09371 46.838 4.73253C45.8808 5.37136 45.1347 6.27976 44.6939 7.34278C44.2531 8.40581 44.1376 9.57569 44.3619 10.7044C44.5862 11.8331 45.1403 12.8699 45.954 13.6837C46.7677 14.4974 47.8045 15.0514 48.9332 15.2758C50.0619 15.5001 51.2318 15.3845 52.2949 14.9437C53.3579 14.503 54.2663 13.7568 54.9051 12.7996C55.5439 11.8424 55.8845 10.7173 55.8837 9.56648C55.8837 6.35815 53.2753 3.75398 50.0712 3.75398ZM50.0712 73.0373C47.5357 73.0351 45.1047 72.0269 43.3119 70.2341C41.519 68.4413 40.5109 66.0103 40.5087 63.4748C40.512 60.9401 41.5206 58.5102 43.3134 56.7182C45.1061 54.9263 47.5364 53.9187 50.0712 53.9165C52.6052 53.9198 55.0344 54.9279 56.8263 56.7197C58.6181 58.5115 59.6262 60.9408 59.6295 63.4748C59.6273 66.0096 58.6197 68.4399 56.8277 70.2326C55.0358 72.0253 52.6059 73.034 50.0712 73.0373ZM50.0712 57.6706C48.9204 57.6698 47.7952 58.0104 46.838 58.6492C45.8808 59.288 45.1347 60.1964 44.6939 61.2594C44.2531 62.3225 44.1376 63.4924 44.3619 64.6211C44.5862 65.7498 45.1403 66.7866 45.954 67.6003C46.7677 68.414 47.8045 68.9681 48.9332 69.1924C50.0619 69.4167 51.2318 69.3012 52.2949 68.8604C53.3579 68.4196 54.2663 67.6735 54.9051 66.7163C55.5439 65.7591 55.8845 64.6339 55.8837 63.4831C55.8837 60.2748 53.2753 57.6706 50.0712 57.6706ZM50.067 99.9998C47.5323 99.9965 45.1023 98.9878 43.3104 97.1951C41.5185 95.4024 40.5109 92.972 40.5087 90.4373C40.512 87.9033 41.5201 85.474 43.3119 83.6822C45.1037 81.8904 47.533 80.8823 50.067 80.879C52.6017 80.8812 55.0321 81.8888 56.8248 83.6807C58.6175 85.4727 59.6262 87.9026 59.6295 90.4373C59.6273 92.9728 58.6191 95.4037 56.8263 97.1966C55.0334 98.9894 52.6024 99.9976 50.067 99.9998ZM50.067 84.6331C48.9162 84.6323 47.791 84.9729 46.8339 85.6117C45.8767 86.2505 45.1305 87.1589 44.6897 88.2219C44.249 89.285 44.1334 90.4549 44.3577 91.5836C44.582 92.7123 45.1361 93.7491 45.9498 94.5628C46.7635 95.3765 47.8004 95.9306 48.9291 96.1549C50.0578 96.3792 51.2277 96.2637 52.2907 95.8229C53.3537 95.3821 54.2621 94.636 54.9009 93.6788C55.5398 92.7216 55.8803 91.5964 55.8795 90.4456C55.8795 87.2373 53.2753 84.6331 50.067 84.6331Z" fill="#2A3275"/>
<path d="M34.8464 34.2571C34.4511 34.258 34.0593 34.183 33.6923 34.0363L27.4673 31.553C27.0743 31.4094 26.7141 31.1884 26.4081 30.9031C26.1021 30.6178 25.8565 30.2739 25.6859 29.8919C25.5153 29.5098 25.4231 29.0974 25.4149 28.6791C25.4067 28.2608 25.4825 27.8451 25.638 27.4567C25.7934 27.0682 26.0253 26.7149 26.3198 26.4178C26.6143 26.1206 26.9655 25.8856 27.3526 25.7267C27.7396 25.5678 28.1546 25.4883 28.573 25.4928C28.9914 25.4973 29.4046 25.5858 29.7881 25.753L36.0089 28.2321C36.6821 28.5024 37.2403 28.9984 37.5878 29.6352C37.9352 30.272 38.0504 31.0098 37.9134 31.7221C37.7765 32.4345 37.396 33.077 36.8371 33.5395C36.2783 34.002 35.576 34.2557 34.8506 34.2571H34.8464ZM34.8464 60.6905C34.4511 60.6912 34.0594 60.6162 33.6923 60.4696L27.4673 57.9905C26.6976 57.6827 26.0817 57.0818 25.755 56.3199C25.4284 55.5581 25.4178 54.6976 25.7256 53.928C26.0333 53.1583 26.6343 52.5424 27.3961 52.2158C28.158 51.8891 29.0184 51.8785 29.7881 52.1863L36.0089 54.6696C36.6794 54.9416 37.2348 55.4378 37.5803 56.0736C37.9257 56.7094 38.0398 57.4453 37.9031 58.1559C37.7664 58.8664 37.3874 59.5075 36.8307 59.9698C36.274 60.432 35.5742 60.6867 34.8506 60.6905H34.8464ZM71.3506 47.4863C70.955 47.4859 70.5632 47.4095 70.1964 47.2613L63.9756 44.7821C63.5772 44.6432 63.2111 44.425 62.8994 44.1408C62.5876 43.8565 62.3366 43.5121 62.1615 43.1282C61.9865 42.7444 61.8909 42.329 61.8807 41.9073C61.8705 41.4855 61.9457 41.066 62.102 40.6741C62.2582 40.2822 62.4922 39.926 62.7899 39.627C63.0875 39.328 63.4426 39.0923 63.8337 38.9342C64.2249 38.7761 64.644 38.6988 65.0658 38.7071C65.4876 38.7153 65.9034 38.8089 66.2881 38.9821L72.5089 41.4613C73.1821 41.7316 73.7403 42.2276 74.0878 42.8644C74.4352 43.5011 74.5504 44.2389 74.4134 44.9513C74.2765 45.6637 73.896 46.3062 73.3371 46.7687C72.7783 47.2312 72.076 47.4849 71.3506 47.4863ZM71.3506 21.0405C70.955 21.0398 70.5633 20.9634 70.1964 20.8155L63.9756 18.3321C63.2415 18.0015 62.6633 17.4003 62.3616 16.6538C62.0599 15.9074 62.0579 15.0733 62.3561 14.3254C62.6543 13.5776 63.2296 12.9736 63.9621 12.6395C64.6947 12.3055 65.5279 12.267 66.2881 12.5321L72.5089 15.0155C73.1794 15.2874 73.7348 15.7836 74.0803 16.4194C74.4257 17.0552 74.5398 17.7912 74.4031 18.5017C74.2664 19.2123 73.8874 19.8534 73.3307 20.3156C72.774 20.7778 72.0742 21.0325 71.3506 21.0363V21.0405ZM71.3506 73.9113C70.9553 73.912 70.5635 73.8371 70.1964 73.6905L63.9714 71.2071C63.5755 71.0661 63.2121 70.8466 62.903 70.5618C62.5939 70.277 62.3454 69.9328 62.1723 69.5498C61.9993 69.1667 61.9054 68.7527 61.8961 68.3325C61.8868 67.9123 61.9623 67.4946 62.1182 67.1043C62.2741 66.7139 62.5072 66.3591 62.8034 66.0609C63.0996 65.7628 63.453 65.5274 63.8423 65.369C64.2316 65.2105 64.6488 65.1322 65.0691 65.1388C65.4893 65.1454 65.9039 65.2366 66.2881 65.4071L72.5089 67.8905C73.1794 68.1624 73.7348 68.6586 74.0803 69.2944C74.4257 69.9302 74.5398 70.6662 74.4031 71.3767C74.2664 72.0873 73.8874 72.7284 73.3307 73.1906C72.774 73.6528 72.0742 73.9075 71.3506 73.9113ZM28.7923 74.8571C28.0683 74.8543 27.3678 74.6003 26.8104 74.1384C26.253 73.6765 25.8732 73.0354 25.736 72.3246C25.5988 71.6138 25.7126 70.8774 26.058 70.2412C26.4033 69.605 26.9589 69.1084 27.6298 68.8363L33.8548 66.3571C34.6239 66.0499 35.4835 66.0608 36.2446 66.3875C37.0057 66.7141 37.6059 67.3297 37.9131 68.0988C38.2203 68.8679 38.2094 69.7276 37.8828 70.4887C37.5561 71.2498 36.9405 71.8499 36.1714 72.1571L29.9506 74.6363C29.5835 74.7829 29.1875 74.8579 28.7923 74.8571ZM28.7923 48.5821C28.0665 48.5817 27.3635 48.3287 26.804 47.8665C26.2444 47.4043 25.8632 46.7618 25.7257 46.0492C25.5882 45.3366 25.703 44.5983 26.0504 43.9611C26.3979 43.3239 26.9563 42.8275 27.6298 42.5571L33.8548 40.078C34.6163 39.8066 35.4533 39.841 36.19 40.1737C36.9267 40.5065 37.5058 41.1118 37.8057 41.8625C38.1056 42.6132 38.1028 43.451 37.7981 44.1997C37.4933 44.9485 36.9103 45.55 36.1714 45.878L29.9506 48.3571C29.5835 48.5038 29.1917 48.5787 28.7964 48.578L28.7923 48.5821ZM28.7923 20.9696C28.0665 20.9692 27.3635 20.7162 26.804 20.254C26.2444 19.7918 25.8632 19.1493 25.7257 18.4367C25.5882 17.7241 25.703 16.9858 26.0504 16.3486C26.3979 15.7114 26.9563 15.215 27.6298 14.9446L33.8548 12.4655C34.6163 12.1941 35.4533 12.2285 36.19 12.5612C36.9267 12.894 37.5058 13.4993 37.8057 14.25C38.1056 15.0007 38.1028 15.8385 37.7981 16.5872C37.4933 17.336 36.9103 17.9375 36.1714 18.2655L29.9506 20.7488C29.5835 20.8953 29.1875 20.9703 28.7923 20.9696ZM34.8464 89.0155C34.4511 89.0162 34.0594 88.9413 33.6923 88.7946L27.4673 86.3113C26.7332 85.9807 26.155 85.3795 25.8533 84.633C25.5516 83.8866 25.5496 83.0525 25.8478 82.3046C26.146 81.5567 26.7213 80.9528 27.4538 80.6187C28.1863 80.2846 29.0195 80.2461 29.7798 80.5113L36.0048 82.9905C36.6779 83.2607 37.2361 83.7568 37.5836 84.3935C37.9311 85.0303 38.0462 85.7681 37.9093 86.4805C37.7723 87.1928 37.3918 87.8353 36.833 88.2979C36.2741 88.7604 35.5718 89.0141 34.8464 89.0155ZM65.1256 34.2613C64.3983 34.2623 63.6935 34.0097 63.1325 33.5469C62.5715 33.0841 62.1895 32.4401 62.0522 31.7259C61.915 31.0117 62.0312 30.272 62.3808 29.6343C62.7303 28.9965 63.2914 28.5007 63.9673 28.2321L70.1923 25.753C70.9592 25.4588 71.8112 25.4785 72.5638 25.8078C73.3163 26.1371 73.909 26.7494 74.2135 27.5123C74.518 28.2753 74.5099 29.1274 74.1909 29.8844C73.8719 30.6414 73.2676 31.2423 72.5089 31.5571L66.2839 34.0363C65.9184 34.1837 65.5281 34.2601 65.1339 34.2613H65.1256ZM65.1256 60.6946C64.4002 60.6932 63.6979 60.4395 63.139 59.977C62.5802 59.5145 62.1997 58.872 62.0627 58.1596C61.9258 57.4473 62.0409 56.7095 62.3884 56.0727C62.7359 55.4359 63.2941 54.9399 63.9673 54.6696L70.1923 52.1863C70.9625 51.8791 71.8232 51.8904 72.5851 52.2178C73.3469 52.5452 73.9475 53.1619 74.2547 53.9321C74.562 54.7024 74.5506 55.5631 74.2232 56.325C73.8958 57.0868 73.2792 57.6874 72.5089 57.9946L66.2839 60.4738C65.9181 60.6199 65.5278 60.6949 65.1339 60.6946H65.1256ZM65.1256 89.0113C64.3993 89.0125 63.6953 88.7604 63.1349 88.2983C62.5746 87.8363 62.1929 87.1933 62.0557 86.4801C61.9185 85.7668 62.0343 85.0281 62.3832 84.3911C62.7322 83.7541 63.2924 83.2588 63.9673 82.9905L70.1923 80.5113C70.5769 80.338 70.9927 80.2445 71.4145 80.2362C71.8363 80.228 72.2555 80.3052 72.6466 80.4633C73.0378 80.6214 73.3929 80.8571 73.6905 81.1562C73.9881 81.4552 74.2221 81.8114 74.3783 82.2033C74.5346 82.5952 74.6099 83.0146 74.5996 83.4364C74.5894 83.8582 74.4939 84.2735 74.3188 84.6574C74.1437 85.0412 73.8928 85.3857 73.581 85.6699C73.2692 85.9542 72.9031 86.1723 72.5047 86.3113L66.2798 88.7905C65.9127 88.9373 65.5209 89.0123 65.1256 89.0113Z" fill="#5699DB"/>
</g>
<defs>
<clipPath id="clip0_867_21988">
<rect width="100" height="100" fill="white"/>
</clipPath>
</defs>
</svg>
