<svg width="100" height="100" viewBox="0 0 100 100" fill="none" xmlns="http://www.w3.org/2000/svg">
<g clip-path="url(#clip0_867_20097)">
<path d="M98.9498 18.6742C97.8915 18.1575 97.4331 19.145 96.8165 19.6492C96.604 19.8117 96.4248 20.0242 96.2456 20.2158C94.6956 21.87 92.8873 22.9533 90.5248 22.8242C87.0706 22.6325 84.1206 23.7158 81.5123 26.3575C80.9581 23.0992 79.1165 21.1575 76.3165 19.9075C74.8498 19.2575 73.3665 18.6117 72.3373 17.1992C71.6206 16.195 71.4248 15.0742 71.0665 13.9742C70.8373 13.3075 70.6081 12.6283 69.8456 12.5158C69.0123 12.3867 68.6873 13.0825 68.3623 13.6658C67.0581 16.0492 66.554 18.6742 66.604 21.3325C66.7165 27.3158 69.2415 32.0825 74.2623 35.47C74.8331 35.8575 74.979 36.2492 74.7998 36.8158C74.4581 37.9825 74.0498 39.1158 73.6915 40.2867C73.4623 41.0325 73.1206 41.1908 72.3206 40.87C69.6175 39.7083 67.1621 38.0393 65.0873 35.9533C61.5165 32.5033 58.2915 28.695 54.2665 25.7117C53.3339 25.0226 52.3763 24.368 51.3956 23.7492C47.2915 19.7617 51.9373 16.4867 53.0123 16.0992C54.1373 15.6908 53.3998 14.2992 49.7665 14.3158C46.1331 14.3325 42.8081 15.545 38.5706 17.1658C37.9409 17.4071 37.2931 17.598 36.6331 17.7367C32.6732 16.9906 28.6233 16.8473 24.6206 17.3117C16.7665 18.1867 10.4956 21.9033 5.88312 28.2408C0.341457 35.8575 -0.96271 44.5158 0.633124 53.5408C2.31229 63.0575 7.17062 70.9367 14.6331 77.095C22.3748 83.4825 31.2873 86.6117 41.4581 86.0117C47.6331 85.6575 54.5123 84.8283 62.2665 78.2617C64.2248 79.2367 66.2748 79.6242 69.6831 79.9158C72.3081 80.1617 74.8331 79.7908 76.7873 79.3825C79.8498 78.7325 79.6373 75.895 78.5331 75.3783C69.554 71.195 71.5248 72.8992 69.729 71.52C74.2956 66.12 81.1706 60.5117 83.8623 42.3408C84.0706 40.895 83.8915 39.9867 83.8623 38.82C83.8456 38.1117 84.0081 37.8325 84.8206 37.7533C87.0749 37.5195 89.2618 36.8471 91.2581 35.7742C97.0748 32.595 99.4248 27.3783 99.979 21.12C100.062 20.1617 99.9623 19.1783 98.9498 18.6742ZM48.254 74.9992C39.5498 68.1575 35.329 65.9033 33.5873 65.9992C31.954 66.0992 32.2498 67.9617 32.6081 69.1783C32.9831 70.3783 33.4706 71.2033 34.154 72.2575C34.629 72.9533 34.954 73.9908 33.6831 74.77C30.879 76.5033 26.0081 74.1867 25.779 74.0742C20.1081 70.7325 15.3623 66.3242 12.0248 60.295C8.79979 54.4908 6.92479 48.2658 6.61646 41.62C6.53312 40.0117 7.00396 39.445 8.60396 39.1533C10.7044 38.7514 12.8566 38.6965 14.9748 38.9908C23.8581 40.2908 31.4165 44.2617 37.7581 50.5492C41.3748 54.1325 44.1123 58.4117 46.9331 62.595C49.9331 67.0367 53.1581 71.27 57.2665 74.7367C58.7165 75.9533 59.8706 76.8783 60.979 77.5575C57.6373 77.9325 52.0623 78.0158 48.254 74.9992ZM52.4206 48.1658C52.4199 47.9589 52.4696 47.7548 52.5654 47.5713C52.6611 47.3878 52.8002 47.2304 52.9704 47.1127C53.1406 46.995 53.337 46.9205 53.5425 46.8956C53.7479 46.8707 53.9564 46.8963 54.1498 46.97C54.3963 47.0584 54.6091 47.2216 54.7584 47.4367C54.9078 47.6518 54.9864 47.9081 54.9831 48.17C54.9837 48.3392 54.9506 48.5068 54.8857 48.6631C54.8208 48.8194 54.7255 48.9612 54.6053 49.0802C54.4851 49.1993 54.3424 49.2932 54.1855 49.3566C54.0286 49.4199 53.8606 49.4514 53.6915 49.4492C53.5235 49.4497 53.3572 49.4168 53.2022 49.3523C53.0471 49.2878 52.9065 49.1931 52.7886 49.0735C52.6706 48.954 52.5777 48.8122 52.5152 48.6563C52.4528 48.5005 52.4179 48.3337 52.4206 48.1658ZM65.379 54.8158C64.5456 55.1533 63.7165 55.445 62.9206 55.4825C61.7233 55.5243 60.5485 55.1503 59.5956 54.4242C58.454 53.4658 57.6373 52.9325 57.2956 51.2658C57.1778 50.4514 57.2004 49.6227 57.3623 48.8158C57.654 47.4533 57.329 46.5783 56.3665 45.7867C55.5873 45.1367 54.5915 44.9575 53.4998 44.9575C53.126 44.9358 52.763 44.8243 52.4415 44.6325C51.9831 44.4075 51.6081 43.8408 51.9665 43.1408C52.0831 42.9158 52.6331 42.3658 52.7665 42.2658C54.2498 41.4242 55.9623 41.6992 57.5415 42.3325C59.0081 42.9325 60.1165 44.0325 61.7123 45.5908C63.3415 47.47 63.6373 47.9908 64.5665 49.3992C65.2998 50.5033 65.9665 51.6367 66.4206 52.9325C66.6998 53.745 66.3415 54.4075 65.379 54.8158Z" fill="#4D6BFE"/>
</g>
<defs>
<clipPath id="clip0_867_20097">
<rect width="100" height="100" fill="white"/>
</clipPath>
</defs>
</svg>
