<svg width="100" height="100" viewBox="0 0 100 100" fill="none" xmlns="http://www.w3.org/2000/svg">
<g clip-path="url(#clip0_867_20151)">
<path fill-rule="evenodd" clip-rule="evenodd" d="M24.95 6.75833C21.2007 10.4254 18.3084 14.8759 16.4802 19.7914C14.6521 24.707 13.9332 29.9658 14.375 35.1917C15.8292 53.5583 33.15 68.5042 48.8583 68.5042C63.4708 68.5042 69.1917 55.75 67.7792 47.0875C67.2575 43.9057 65.8904 40.9225 63.8208 38.45C66.4542 39.8667 69.0042 41.6833 71.3583 43.8667C77.6917 49.7625 81.525 57.3208 82.1375 65.1167C83.5 82.3458 70.75 100 49.4292 100C42.3667 100 34.9292 98.2 28.6792 95.2375C11.7333 87.2375 0 69.9875 0 50.0083C0 31.5458 10.0208 15.4167 24.95 6.75833ZM50.5667 0C57.6333 0 65.0708 1.8 71.3167 4.7625C88.275 12.7625 100 30.0125 100 49.9917C100 68.4542 89.9792 84.5875 75.05 93.2417C78.7993 89.5746 81.6916 85.1241 83.5198 80.2085C85.3479 75.293 86.0668 70.0342 85.625 64.8083C84.1708 46.4417 66.85 31.4958 51.1417 31.4958C36.5292 31.4958 30.8083 44.25 32.2208 52.9125C32.7425 56.0967 34.1144 59.0809 36.1917 61.55C33.4565 60.0743 30.922 58.2539 28.65 56.1333C22.3167 50.2375 18.4833 42.6875 17.8625 34.8833C16.5 17.6542 29.25 0 50.5708 0H50.5667Z" fill="#4285F4"/>
</g>
<defs>
<clipPath id="clip0_867_20151">
<rect width="100" height="100" fill="white"/>
</clipPath>
</defs>
</svg>
