<svg width="100" height="100" viewBox="0 0 100 100" fill="none" xmlns="http://www.w3.org/2000/svg">
<g clip-path="url(#clip0_867_20141)">
<path fill-rule="evenodd" clip-rule="evenodd" d="M4.60355 74.7688C1.64647 68.3876 -0.00390625 61.2801 -0.00390625 53.7899C-0.00390625 51.8515 0.106763 49.9385 0.321769 48.0574C0.540108 46.1564 0.863784 44.291 1.28613 42.4663C3.65953 32.2313 9.17967 23.1964 16.7705 16.4383C23.1464 10.7694 30.9569 6.72466 39.5191 4.89128C42.8982 4.16959 46.403 3.78992 49.9961 3.78992C51.2555 3.79125 52.5238 3.83958 53.7999 3.93692C59.8514 4.39893 65.5698 5.92231 70.7866 8.3107C74.9951 10.2394 78.8902 12.7355 82.3743 15.7006C91.1255 23.1554 97.2287 33.54 99.2584 45.1934C99.7434 47.9864 99.9961 50.8588 99.9961 53.7899C99.9951 55.0513 99.9464 56.3216 99.8488 57.5997C99.4801 62.4295 98.4351 67.0473 96.814 71.3674C94.5513 77.3845 91.1609 82.8517 86.9011 87.5105C81.3606 93.1676 74.3197 95.685 68.4392 95.5804C64.1631 95.504 59.9794 93.8026 57.0883 91.3132C52.9582 87.7568 51.2901 83.6914 50.7181 79.1549C50.5761 78.0272 50.6594 74.9545 51.2465 72.8268C51.6838 71.2407 52.7932 68.178 54.4155 66.8383C52.5178 66.0209 50.0751 64.2409 49.3051 63.3865C49.1157 63.1765 49.1404 62.8475 49.3097 62.6211C49.4794 62.3951 49.7764 62.3058 50.0428 62.4015C51.6745 62.9615 53.6615 63.5138 55.7569 63.8645C58.5127 64.3252 61.9397 64.9052 65.4115 65.0759C73.8767 65.4916 82.719 61.6921 85.4634 54.1323C88.2075 46.5724 87.1428 39.0949 77.2978 34.6097C67.4526 30.1243 62.9048 24.7911 54.9502 21.5747C49.7544 19.4737 43.9716 20.721 38.0344 24.0021C22.0427 32.8397 7.7153 60.7628 14.3198 86.6328C14.4141 86.9868 14.2548 87.3595 13.9338 87.5358C13.6328 87.7008 13.2628 87.6538 13.0134 87.4255C11.0914 85.3134 9.34734 83.0367 7.80564 80.6183C6.61294 78.7469 5.54224 76.7932 4.60355 74.7688Z" fill="black"/>
<path fill-rule="evenodd" clip-rule="evenodd" d="M48.2064 25.0458C50.9038 24.8345 53.2572 27.1365 53.6629 30.1983C54.2042 34.2767 52.7072 38.4898 47.785 38.5868C43.5803 38.6708 42.3062 34.4304 42.5849 31.8617C42.8616 29.2929 44.979 25.2991 48.2064 25.0458Z" fill="black"/>
</g>
<defs>
<clipPath id="clip0_867_20141">
<rect width="100" height="100" fill="white"/>
</clipPath>
</defs>
</svg>
