<svg width="100" height="100" viewBox="0 0 100 100" fill="none" xmlns="http://www.w3.org/2000/svg">
<g clip-path="url(#clip0_867_20479)">
<path fill-rule="evenodd" clip-rule="evenodd" d="M49.9784 100V80.6204C70.4913 80.6204 86.4146 60.278 78.5372 38.6879C77.0905 34.7215 74.7942 31.1195 71.809 28.134C68.8238 25.1484 65.222 22.8517 61.2559 21.4045C39.6658 13.5853 19.3234 29.4504 19.3234 49.9634H0C0 17.2702 31.6199 -8.22952 65.9017 2.47829C80.8621 7.18427 92.8176 19.0816 97.4654 34.0441C108.175 68.3801 82.7316 100 49.9784 100Z" fill="#0080FF"/>
<path fill-rule="evenodd" clip-rule="evenodd" d="M30.7694 80.6767H50.0346V61.4114H30.7714L30.7694 80.6767ZM15.9233 95.5229H30.7674V80.6787H15.9233V95.5229ZM3.51245 80.6787H15.9233V68.2658H3.51245V80.6787Z" fill="#0080FF"/>
</g>
<defs>
<clipPath id="clip0_867_20479">
<rect width="100" height="100" fill="white"/>
</clipPath>
</defs>
</svg>
