<svg width="100" height="100" viewBox="0 0 100 100" fill="none" xmlns="http://www.w3.org/2000/svg">
<path d="M74.1711 55.2254C83.9361 55.2254 91.8522 47.969 91.8522 39.0177C91.8522 30.0665 83.9361 22.8101 74.1711 22.8101C64.4061 22.8101 56.49 30.0665 56.49 39.0177C56.49 47.969 64.4061 55.2254 74.1711 55.2254Z" fill="#B03931"/>
<path d="M94.3188 26.4146C97.4565 26.4146 100 24.083 100 21.2069C100 18.3307 97.4565 15.9991 94.3188 15.9991C91.1812 15.9991 88.6377 18.3307 88.6377 21.2069C88.6377 24.083 91.1812 26.4146 94.3188 26.4146Z" fill="#B03931"/>
<path d="M2.19995 17.7774C0.968874 17.9296 0.00408778 18.9123 0 20.1016L0.0776987 80.8282C0.0776987 81.7478 0.326473 83.6444 2.91364 83.6444L26.1701 83.5517C32.8179 83.5397 37.2705 83.4261 39.9221 83.0909C39.9376 83.091 39.9696 83.0909 39.9851 83.0908C42.5227 82.7383 45.2107 82.0888 48.1334 81.1398C53.2143 79.5512 57.7198 77.2041 61.5937 74.0692C65.3866 71.0322 68.3259 67.4365 70.3917 63.3917C72.4574 59.3469 73.4987 55.0702 73.491 50.6366C73.48 44.4652 71.6131 38.6863 67.8673 33.4874C64.1211 28.2882 59.0077 24.3066 52.7149 21.6698C46.3176 18.9576 37.9762 17.7218 27.628 17.7403L2.51466 17.777C2.4067 17.7776 2.30428 17.7645 2.19995 17.7774ZM15.7167 30.2732L26.5425 30.2574C31.6019 30.2483 35.2013 30.402 37.243 30.6824C39.3127 30.9667 41.5795 31.5668 43.98 32.4941C46.3592 33.4006 48.4333 34.5109 50.2155 35.8929C55.1186 39.705 57.4299 44.2166 57.4405 50.19C57.4513 56.3064 55.2177 61.0706 50.4416 65.0661C48.9725 66.2788 47.3387 67.307 45.5362 68.158C43.8326 68.9515 41.6103 69.6353 38.8042 70.2244C36.1577 70.7538 32.1399 71.0551 26.9095 71.0644L15.769 71.0807L15.7167 30.2732Z" fill="#B03931"/>
</svg>
