<svg width="100" height="100" viewBox="0 0 100 100" fill="none" xmlns="http://www.w3.org/2000/svg">
<g clip-path="url(#clip0_867_22320)">
<mask id="mask0_867_22320" style="mask-type:luminance" maskUnits="userSpaceOnUse" x="0" y="0" width="100" height="100">
<path d="M0 0H100V100H0V0Z" fill="white"/>
</mask>
<g mask="url(#mask0_867_22320)">
<path d="M90.2498 29.238C91.5667 27.9668 92.6172 26.446 93.34 24.7643C94.0628 23.0827 94.4434 21.274 94.4597 19.4437C94.4759 17.6134 94.1274 15.7982 93.4346 14.104C92.7417 12.4098 91.7183 10.8706 90.4242 9.57617C89.1301 8.28176 87.5911 7.25807 85.897 6.56485C84.203 5.87163 82.3879 5.52276 80.5576 5.5386C78.7272 5.55445 76.9184 5.93468 75.2367 6.65713C73.5549 7.37957 72.0338 8.42975 70.7623 9.74637L56.354 24.1547C55.0373 25.4262 53.9872 26.9473 53.2647 28.6291C52.5423 30.3108 52.162 32.1197 52.1462 33.95C52.1304 35.7803 52.4792 37.5954 53.1725 39.2894C53.8657 40.9835 54.8894 42.5225 56.1838 43.8166C57.4782 45.1107 59.0174 46.1341 60.7116 46.827C62.4058 47.5198 64.221 47.8683 66.0513 47.8521C67.8816 47.8358 69.6903 47.4552 71.3719 46.7324C73.0536 46.0096 74.5744 44.9591 75.8456 43.6422L90.2498 29.238ZM43.6456 75.8464C44.9459 74.571 45.9804 73.0507 46.6896 71.3732C47.3987 69.6956 47.7684 67.8942 47.7772 66.0729C47.786 64.2517 47.4337 62.4468 46.7408 60.7625C46.0479 59.0782 45.0281 57.5479 43.7403 56.2601C42.4525 54.9722 40.9222 53.9524 39.2379 53.2595C37.5536 52.5666 35.7486 52.2144 33.9274 52.2232C32.1061 52.232 30.3047 52.6016 28.6272 53.3108C26.9496 54.0199 25.4293 55.0545 24.154 56.3547L9.74564 70.763C8.42902 72.0346 7.37884 73.5556 6.6564 75.2374C5.93395 76.9192 5.55371 78.728 5.53787 80.5583C5.52203 82.3886 5.8709 84.2037 6.56412 85.8978C7.25734 87.5918 8.28103 89.1308 9.57544 90.4249C10.8699 91.7191 12.4091 92.7424 14.1032 93.4353C15.7974 94.1282 17.6126 94.4766 19.4429 94.4604C21.2732 94.4442 23.082 94.0635 24.7636 93.3407C26.4452 92.6179 27.9661 91.5674 29.2373 90.2505L43.6456 75.8464Z" fill="#7748F9"/>
<path d="M75.8459 56.3554C74.5706 55.0552 73.0503 54.0207 71.3727 53.3115C69.6952 52.6024 67.8938 52.2327 66.0725 52.2239C64.2513 52.2151 62.4464 52.5673 60.7621 53.2602C59.0778 53.9531 57.5475 54.973 56.2596 56.2608C54.9718 57.5486 53.952 59.0789 53.2591 60.7632C52.5662 62.4475 52.214 64.2524 52.2228 66.0737C52.2316 67.8949 52.6012 69.6964 53.3104 71.3739C54.0195 73.0514 55.0541 74.5718 56.3543 75.8471L70.7626 90.2554C73.3559 92.7991 76.8484 94.2161 80.4809 94.1986C84.1133 94.181 87.592 92.7303 90.1606 90.1617C92.7291 87.5931 94.1799 84.1145 94.1974 80.482C94.215 76.8496 92.7979 73.357 90.2543 70.7638L75.8459 56.3554ZM29.2376 9.74711C27.9623 8.44689 26.4419 7.41232 24.7644 6.70318C23.0869 5.99403 21.2854 5.62438 19.4642 5.61558C17.643 5.60678 15.838 5.95901 14.1537 6.6519C12.4694 7.3448 10.9391 8.36464 9.6513 9.65246C8.36348 10.9403 7.34364 12.4706 6.65074 14.1549C5.95785 15.8392 5.60562 17.6441 5.61442 19.4654C5.62322 21.2866 5.99287 23.088 6.70202 24.7656C7.41116 26.4431 8.44573 27.9635 9.74595 29.2388L24.1543 43.6429C26.7542 46.1528 30.2359 47.5412 33.8495 47.5091C37.4631 47.4771 40.9195 46.0271 43.4745 43.4716C46.0296 40.916 47.4787 37.4592 47.51 33.8456C47.5413 30.232 46.1522 26.7507 43.6418 24.1513L29.2376 9.74711Z" fill="#BFABFB"/>
</g>
</g>
<defs>
<clipPath id="clip0_867_22320">
<rect width="100" height="100" fill="white"/>
</clipPath>
</defs>
</svg>
