<svg width="100" height="100" viewBox="0 0 100 100" fill="none" xmlns="http://www.w3.org/2000/svg">
<g clip-path="url(#clip0_867_19868)">
<mask id="mask0_867_19868" style="mask-type:luminance" maskUnits="userSpaceOnUse" x="0" y="0" width="100" height="100">
<path d="M0 0H100V100H0V0Z" fill="white"/>
</mask>
<g mask="url(#mask0_867_19868)">
<path d="M47.2167 100H3.97917C3.45791 100.002 2.94143 99.9005 2.45927 99.7024C1.97712 99.5044 1.53873 99.2132 1.16917 98.8456C0.799618 98.4779 0.506144 98.0411 0.305529 97.56C0.104914 97.0789 0.0010925 96.5629 0 96.0417H47.2542C55.361 96.0872 63.3376 94.0023 70.3853 89.9958C77.4331 85.9893 83.3048 80.2017 87.4125 73.2125C95.7458 59.0083 95.8292 41.4625 87.6375 27.1708C83.5967 20.144 77.7812 14.3018 70.7731 10.2288C63.7649 6.15584 55.8099 3.99498 47.7042 3.9625H0C0 1.77083 1.77917 0 3.97917 0H47.7042C61.0305 0.00863086 73.8105 5.29741 83.2458 14.7083C87.906 19.3554 91.6016 24.8778 94.12 30.958C96.6385 37.0382 97.9302 43.5563 97.9208 50.1375C97.8458 77.7875 74.9708 100 47.2167 100Z" fill="#5468FF"/>
<path d="M0 89.3317H30.6792C34.4685 89.3459 38.1272 87.9481 40.9417 85.4109H0V89.3317ZM0 78.665H47.0625C48.0125 77.39 48.8958 76.1109 49.7167 74.6942H0V78.665ZM0 67.9859H53.0792C53.621 66.6929 54.0926 65.3715 54.4917 64.0275H0V67.9859ZM0 57.3192H56.0292C56.225 56.0442 56.3792 54.6859 56.4667 53.3609H0V57.3192ZM0 46.6525H56.4542C56.3625 45.3109 56.2125 43.9859 56.0167 42.6775H0V46.6525ZM0 35.9734H54.4917C54.0792 34.6317 53.6042 33.3067 53.0792 32.015H0V35.9734ZM0 25.3067H49.7167C48.9008 23.9424 48.0149 22.6212 47.0625 21.3484H0V25.3067ZM0 10.665V14.64H40.9792C38.1659 12.1007 34.5064 10.7026 30.7167 10.7192L0 10.665Z" fill="black"/>
</g>
</g>
<defs>
<clipPath id="clip0_867_19868">
<rect width="100" height="100" fill="white"/>
</clipPath>
</defs>
</svg>
