<svg width="100" height="100" viewBox="0 0 100 100" fill="none" xmlns="http://www.w3.org/2000/svg">
<path fill-rule="evenodd" clip-rule="evenodd" d="M49.2307 24.8312H92.3076V42.2671H49.2307V24.8312Z" fill="white"/>
<path fill-rule="evenodd" clip-rule="evenodd" d="M10.2564 81.7543C6.46256 81.7543 3.15744 79.6892 1.38308 76.6261C0.477173 78.1833 -3.95195e-05 79.9527 2.45466e-09 81.7543C2.45465e-09 87.4189 4.5918 92.0107 10.2564 92.0107H20.5128V81.7543H10.2564Z" fill="#3ECC5F"/>
<path fill-rule="evenodd" clip-rule="evenodd" d="M56.3999 27.5883L92.3076 25.3442V20.216C92.3076 14.5514 87.7158 9.95955 82.0512 9.95955H35.8973L34.6153 7.73904C34.045 6.75186 32.6209 6.75186 32.0512 7.73904L30.7691 9.95955L29.4871 7.73904C28.9173 6.75186 27.4927 6.75186 26.923 7.73904L25.6409 9.95955L24.3589 7.73904C23.7891 6.75186 22.3645 6.75186 21.7948 7.73904L20.5127 9.95955C20.5014 9.95955 20.4912 9.96109 20.4794 9.96109L18.3553 7.8375C17.5502 7.03186 16.1748 7.40007 15.8794 8.50109L15.1773 11.1185L12.5148 10.4047C11.4132 10.1098 10.4066 11.117 10.7019 12.218L11.4148 14.8811L8.79836 15.5821C7.69682 15.8775 7.3281 17.2534 8.13374 18.059L10.2578 20.1831C10.2578 20.1939 10.2563 20.2047 10.2563 20.216L8.03579 21.498C7.04862 22.0678 7.04862 23.4924 8.03579 24.0621L10.2563 25.3442L8.03579 26.6262C7.04862 27.196 7.04862 28.6206 8.03579 29.1903L10.2563 30.4724L8.03579 31.7544C7.04862 32.3242 7.04862 33.7488 8.03579 34.3185L10.2563 35.6006L8.03579 36.8826C7.04862 37.4524 7.04862 38.877 8.03579 39.4467L10.2563 40.7288L8.03579 42.0108C7.04862 42.5806 7.04862 44.0052 8.03579 44.5749L10.2563 45.857L8.03579 47.139C7.04862 47.7088 7.04862 49.1334 8.03579 49.7031L10.2563 50.9852L8.03579 52.2673C7.04862 52.837 7.04862 54.2616 8.03579 54.8314L10.2563 56.1134L8.03579 57.3955C7.04862 57.9652 7.04862 59.3898 8.03579 59.9596L10.2563 61.2416L8.03579 62.5237C7.04862 63.0934 7.04862 64.518 8.03579 65.0878L10.2563 66.3698L8.03579 67.6519C7.04862 68.2216 7.04862 69.6462 8.03579 70.216L10.2563 71.498L8.03579 72.7801C7.04862 73.3498 7.04862 74.7744 8.03579 75.3442L10.2563 76.6262L8.03579 77.9083C7.04862 78.478 7.04862 79.9026 8.03579 80.4724L10.2563 81.7544C10.2563 87.419 14.8481 92.0108 20.5127 92.0108H82.0512C87.7158 92.0108 92.3076 87.419 92.3076 81.7544V40.7288L56.3999 38.4847C55.0139 38.3979 53.713 37.7862 52.7621 36.774C51.8113 35.7618 51.282 34.4252 51.282 33.0365C51.282 30.1539 53.523 27.7683 56.3999 27.5883Z" fill="#3ECC5F"/>
<path fill-rule="evenodd" clip-rule="evenodd" d="M71.7949 92.0106H87.1795V71.4978H71.7949V92.0106Z" fill="#3ECC5F"/>
<path fill-rule="evenodd" clip-rule="evenodd" d="M97.4359 79.1901C97.3236 79.1901 97.2164 79.2091 97.1082 79.2229C97.0887 79.146 97.0703 79.0686 97.0487 78.9917C97.5952 78.7632 98.0457 78.3525 98.3237 77.8295C98.6017 77.3065 98.6901 76.7033 98.5738 76.1226C98.4575 75.5418 98.1437 75.0192 97.6857 74.6435C97.2278 74.2679 96.6539 74.0624 96.0616 74.0619C95.5016 74.0639 94.9579 74.2507 94.5149 74.5932C94.4581 74.5353 94.4009 74.4778 94.3431 74.4209C94.6781 73.9804 94.8602 73.4425 94.8616 72.8891C94.8612 72.2983 94.6569 71.7258 94.2831 71.2683C93.9093 70.8108 93.389 70.4964 92.8102 70.3783C92.2313 70.2602 91.6295 70.3455 91.1063 70.62C90.5831 70.8944 90.1708 71.3411 89.939 71.8845C89.8631 71.8629 89.7867 71.845 89.7108 71.8255C89.7246 71.7173 89.7436 71.6101 89.7436 71.4978C89.7436 70.8178 89.4735 70.1656 88.9926 69.6847C88.5117 69.2039 87.8595 68.9337 87.1795 68.9337C86.4995 68.9337 85.8473 69.2039 85.3664 69.6847C84.8855 70.1656 84.6154 70.8178 84.6154 71.4978C84.6154 71.6101 84.6344 71.7173 84.6482 71.8255C84.5723 71.845 84.4959 71.8629 84.42 71.8845C84.189 71.3401 83.7769 70.8923 83.2534 70.617C82.73 70.3418 82.1275 70.256 81.548 70.3743C80.9686 70.4925 80.4478 70.8075 80.0741 71.2659C79.7004 71.7242 79.4966 72.2977 79.4975 72.8891C79.4975 73.466 79.6944 73.9922 80.0159 74.4209C78.1098 76.2835 76.9231 78.8788 76.9231 81.7542C76.9231 87.4188 81.5149 92.0106 87.1795 92.0106C91.9687 92.0106 95.9795 88.7235 97.1082 84.2855C97.2164 84.2994 97.3236 84.3183 97.4359 84.3183C98.116 84.3183 98.7682 84.0482 99.249 83.5673C99.7299 83.0865 100 82.4343 100 81.7542C100 81.0742 99.7299 80.422 99.249 79.9411C98.7682 79.4603 98.116 79.1901 97.4359 79.1901Z" fill="#44D860"/>
<path fill-rule="evenodd" clip-rule="evenodd" d="M76.9231 61.2414H92.3077V50.985H76.9231V61.2414Z" fill="#3ECC5F"/>
<path fill-rule="evenodd" clip-rule="evenodd" d="M97.4359 57.3956C97.7759 57.3956 98.102 57.2605 98.3424 57.0201C98.5828 56.7796 98.7179 56.4535 98.7179 56.1135C98.7179 55.7735 98.5828 55.4474 98.3424 55.207C98.102 54.9665 97.7759 54.8315 97.4359 54.8315C97.38 54.8315 97.3261 54.8412 97.2723 54.8479C97.262 54.8094 97.2533 54.7709 97.2425 54.7325C97.5154 54.6179 97.7403 54.4125 97.879 54.151C98.0177 53.8896 98.0617 53.5882 98.0036 53.298C97.9455 53.0078 97.7887 52.7466 97.56 52.5588C97.3313 52.3709 97.0446 52.268 96.7487 52.2674C96.4569 52.2674 96.1907 52.3684 95.9753 52.533C95.9471 52.5038 95.9184 52.475 95.8892 52.4468C96.0502 52.233 96.1487 51.9694 96.1487 51.6807C96.1486 51.3852 96.0464 51.0988 95.8595 50.87C95.6726 50.6412 95.4123 50.484 95.1228 50.4249C94.8333 50.3659 94.5323 50.4086 94.2707 50.546C94.0091 50.6833 93.8029 50.9068 93.6871 51.1786C93.2383 51.0517 92.7741 50.9866 92.3076 50.9853C89.4759 50.9853 87.1794 53.2817 87.1794 56.1135C87.1794 58.9453 89.4759 61.2417 92.3076 61.2417C92.7866 61.2417 93.2477 61.1709 93.6871 61.0484C93.8029 61.3202 94.0091 61.5437 94.2707 61.6811C94.5323 61.8184 94.8333 61.8612 95.1228 61.8021C95.4123 61.7431 95.6726 61.5858 95.8595 61.357C96.0464 61.1282 96.1486 60.8418 96.1487 60.5463C96.1487 60.2576 96.0502 59.994 95.8892 59.7802C95.9184 59.752 95.9471 59.7233 95.9753 59.694C96.1907 59.8586 96.4569 59.9597 96.7487 59.9597C97.045 59.9596 97.3321 59.857 97.5613 59.6692C97.7904 59.4814 97.9474 59.22 98.0056 58.9294C98.0638 58.6389 98.0196 58.3372 97.8805 58.0756C97.7414 57.814 97.5159 57.6087 97.2425 57.4945C97.2533 57.4566 97.262 57.4176 97.2723 57.3792C97.3261 57.3858 97.38 57.3956 97.4359 57.3956Z" fill="#44D860"/>
<path fill-rule="evenodd" clip-rule="evenodd" d="M30.7692 26.6261C30.4292 26.6261 30.1031 26.491 29.8626 26.2506C29.6222 26.0101 29.4871 25.6841 29.4871 25.344C29.4871 23.223 27.762 21.4979 25.641 21.4979C23.5199 21.4979 21.7948 23.223 21.7948 25.344C21.7948 25.6841 21.6597 26.0101 21.4193 26.2506C21.1789 26.491 20.8528 26.6261 20.5128 26.6261C20.1727 26.6261 19.8466 26.491 19.6062 26.2506C19.3658 26.0101 19.2307 25.6841 19.2307 25.344C19.2307 21.8092 22.1061 18.9338 25.641 18.9338C29.1758 18.9338 32.0512 21.8092 32.0512 25.344C32.0512 25.6841 31.9162 26.0101 31.6757 26.2506C31.4353 26.491 31.1092 26.6261 30.7692 26.6261Z" fill="black"/>
<path fill-rule="evenodd" clip-rule="evenodd" d="M51.282 92.0107H82.0512C87.7158 92.0107 92.3076 87.4189 92.3076 81.7542V45.8568H61.5384C55.8738 45.8568 51.282 50.4486 51.282 56.1132V92.0107Z" fill="#FFFF50"/>
<path fill-rule="evenodd" clip-rule="evenodd" d="M84.6258 61.7545H58.9642C58.8282 61.7545 58.6978 61.7005 58.6016 61.6043C58.5054 61.5082 58.4514 61.3777 58.4514 61.2417C58.4514 61.1057 58.5054 60.9753 58.6016 60.8791C58.6978 60.7829 58.8282 60.7289 58.9642 60.7289H84.6258C84.7618 60.7289 84.8922 60.7829 84.9884 60.8791C85.0845 60.9753 85.1386 61.1057 85.1386 61.2417C85.1386 61.3777 85.0845 61.5082 84.9884 61.6043C84.8922 61.7005 84.7618 61.7545 84.6258 61.7545ZM84.6258 72.011H58.9642C58.8282 72.011 58.6978 71.9569 58.6016 71.8608C58.5054 71.7646 58.4514 71.6341 58.4514 71.4981C58.4514 71.3621 58.5054 71.2317 58.6016 71.1355C58.6978 71.0393 58.8282 70.9853 58.9642 70.9853H84.6258C84.7618 70.9853 84.8922 71.0393 84.9884 71.1355C85.0845 71.2317 85.1386 71.3621 85.1386 71.4981C85.1386 71.6341 85.0845 71.7646 84.9884 71.8608C84.8922 71.9569 84.7618 72.011 84.6258 72.011ZM84.6258 82.2674H58.9642C58.8282 82.2674 58.6978 82.2133 58.6016 82.1172C58.5054 82.021 58.4514 81.8906 58.4514 81.7545C58.4514 81.6185 58.5054 81.4881 58.6016 81.3919C58.6978 81.2958 58.8282 81.2417 58.9642 81.2417H84.6258C84.7618 81.2417 84.8922 81.2958 84.9884 81.3919C85.0845 81.4881 85.1386 81.6185 85.1386 81.7545C85.1386 81.8906 85.0845 82.021 84.9884 82.1172C84.8922 82.2133 84.7618 82.2674 84.6258 82.2674ZM84.6258 56.7217H58.9642C58.8282 56.7217 58.6978 56.6677 58.6016 56.5715C58.5054 56.4754 58.4514 56.3449 58.4514 56.2089C58.4514 56.0729 58.5054 55.9425 58.6016 55.8463C58.6978 55.7501 58.8282 55.6961 58.9642 55.6961H84.6258C84.7618 55.6961 84.8922 55.7501 84.9884 55.8463C85.0845 55.9425 85.1386 56.0729 85.1386 56.2089C85.1386 56.3449 85.0845 56.4754 84.9884 56.5715C84.8922 56.6677 84.7618 56.7217 84.6258 56.7217ZM84.6258 66.8828H58.9642C58.8282 66.8828 58.6978 66.8287 58.6016 66.7326C58.5054 66.6364 58.4514 66.5059 58.4514 66.3699C58.4514 66.2339 58.5054 66.1035 58.6016 66.0073C58.6978 65.9111 58.8282 65.8571 58.9642 65.8571H84.6258C84.7618 65.8571 84.8922 65.9111 84.9884 66.0073C85.0845 66.1035 85.1386 66.2339 85.1386 66.3699C85.1386 66.5059 85.0845 66.6364 84.9884 66.7326C84.8922 66.8287 84.7618 66.8828 84.6258 66.8828ZM84.6258 77.1392H58.9642C58.8282 77.1392 58.6978 77.0851 58.6016 76.989C58.5054 76.8928 58.4514 76.7623 58.4514 76.6263C58.4514 76.4903 58.5054 76.3599 58.6016 76.2637C58.6978 76.1675 58.8282 76.1135 58.9642 76.1135H84.6258C84.7618 76.1135 84.8922 76.1675 84.9884 76.2637C85.0845 76.3599 85.1386 76.4903 85.1386 76.6263C85.1386 76.7623 85.0845 76.8928 84.9884 76.989C84.8922 77.0851 84.7618 77.1392 84.6258 77.1392ZM92.3078 29.7602C92.3017 29.7602 92.2965 29.7571 92.2904 29.7576C90.7058 29.8115 89.956 31.3966 89.2945 32.7951C88.6042 34.2566 88.0704 35.2069 87.1955 35.1781C86.2268 35.1433 85.6729 34.0489 85.0863 32.891C84.4124 31.5607 83.6432 30.052 82.0283 30.1084C80.4663 30.1617 79.714 31.5412 79.0504 32.7581C78.3442 34.0545 77.8637 34.8428 76.937 34.8063C75.9488 34.7704 75.4237 33.8807 74.816 32.851C74.1386 31.7043 73.3555 30.4151 71.7719 30.4592C70.2365 30.512 69.4822 31.6822 68.8165 32.7156C68.1124 33.8079 67.6191 34.4735 66.6806 34.434C65.6688 34.3981 65.1463 33.6597 64.5417 32.8048C63.8627 31.8443 63.0975 30.7571 61.5186 30.8099C60.017 30.8612 59.2627 31.8202 58.5975 32.6653C57.9658 33.4674 57.4724 34.1022 56.4288 34.0622C56.2928 34.0573 56.1604 34.1067 56.0608 34.1994C55.9612 34.2921 55.9024 34.4206 55.8975 34.5566C55.8927 34.6926 55.942 34.825 56.0347 34.9246C56.1274 35.0243 56.2559 35.083 56.3919 35.0879C57.9391 35.1397 58.7227 34.1648 59.4032 33.2997C60.0068 32.5325 60.5278 31.8704 61.5534 31.8356C62.5411 31.7935 63.0042 32.4074 63.7047 33.3971C64.3699 34.3376 65.1247 35.4043 66.6437 35.4592C68.235 35.5125 69.0006 34.3233 69.6786 33.271C70.2847 32.3304 70.8078 31.5187 71.8068 31.4843C72.7263 31.4499 73.2268 32.1766 73.9324 33.372C74.5975 34.4987 75.3509 35.7751 76.9001 35.8315C78.5027 35.8869 79.2765 34.4879 79.9509 33.2494C80.535 32.1787 81.0863 31.1674 82.0632 31.1335C82.9827 31.112 83.4622 31.9515 84.1714 33.354C84.834 34.6633 85.5852 36.1463 87.1586 36.2033L87.2452 36.2048C88.8165 36.2048 89.5622 34.6279 90.2222 33.2335C90.8063 31.9976 91.3591 30.8335 92.3078 30.7858V29.7602Z" fill="black"/>
<path fill-rule="evenodd" clip-rule="evenodd" d="M41.0256 92.0106H61.5385V71.4978H41.0256V92.0106Z" fill="#3ECC5F"/>
<path d="M92.1841 38.7913L52.2978 49.4788C51.7507 49.6254 51.426 50.1878 51.5726 50.735L55.4704 65.2818C55.617 65.8289 56.1794 66.1536 56.7265 66.007L96.6128 55.3195C97.16 55.1729 97.4847 54.6105 97.3381 54.0634L93.4403 39.5165C93.2937 38.9694 92.7313 38.6447 92.1841 38.7913Z" fill="#D8D8D8"/>
<path d="M64.3358 57.4421L62.9077 57.8248C62.6341 57.8981 62.4718 58.1793 62.5451 58.4529L62.9277 59.881C63.001 60.1545 63.2822 60.3169 63.5558 60.2436L64.9839 59.8609C65.2575 59.7876 65.4198 59.5064 65.3465 59.2328L64.9639 57.8048C64.8906 57.5312 64.6094 57.3688 64.3358 57.4421Z" fill="#4A4A4A"/>
<path d="M67.2022 56.6738L65.7742 57.0565C65.5006 57.1298 65.3382 57.411 65.4115 57.6846L65.7942 59.1126C65.8675 59.3862 66.1487 59.5486 66.4223 59.4753L67.8503 59.0926C68.1239 59.0193 68.2863 58.7381 68.213 58.4645L67.8303 57.0364C67.757 56.7629 67.4758 56.6005 67.2022 56.6738Z" fill="#4A4A4A"/>
<path d="M70.0689 55.9059L68.6409 56.2885C68.3673 56.3618 68.2049 56.643 68.2782 56.9166L68.6609 58.3447C68.7342 58.6183 69.0154 58.7806 69.289 58.7073L70.717 58.3247C70.9906 58.2514 71.153 57.9702 71.0797 57.6966L70.697 56.2685C70.6237 55.9949 70.3425 55.8326 70.0689 55.9059Z" fill="#4A4A4A"/>
<path d="M72.9356 55.1378L71.5076 55.5205C71.234 55.5938 71.0716 55.875 71.1449 56.1485L71.5276 57.5766C71.6009 57.8502 71.8821 58.0126 72.1557 57.9392L73.5837 57.5566C73.8573 57.4833 74.0197 57.2021 73.9464 56.9285L73.5637 55.5004C73.4904 55.2269 73.2092 55.0645 72.9356 55.1378Z" fill="#4A4A4A"/>
<path d="M75.8021 54.3696L74.374 54.7523C74.1004 54.8256 73.9381 55.1068 74.0114 55.3804L74.394 56.8084C74.4673 57.082 74.7485 57.2444 75.0221 57.1711L76.4502 56.7884C76.7238 56.7151 76.8861 56.4339 76.8128 56.1603L76.4302 54.7322C76.3569 54.4587 76.0757 54.2963 75.8021 54.3696Z" fill="#4A4A4A"/>
<path d="M78.6688 53.6019L77.2407 53.9846C76.9671 54.0579 76.8048 54.3391 76.8781 54.6127L77.2607 56.0407C77.334 56.3143 77.6152 56.4767 77.8888 56.4034L79.3169 56.0207C79.5905 55.9474 79.7528 55.6662 79.6795 55.3926L79.2969 53.9645C79.2236 53.691 78.9424 53.5286 78.6688 53.6019Z" fill="#4A4A4A"/>
<path d="M81.5352 52.8335L80.1072 53.2161C79.8336 53.2895 79.6712 53.5707 79.7445 53.8442L80.1272 55.2723C80.2005 55.5459 80.4817 55.7082 80.7553 55.6349L82.1834 55.2523C82.4569 55.179 82.6193 54.8978 82.546 54.6242L82.1633 53.1961C82.09 52.9225 81.8088 52.7602 81.5352 52.8335Z" fill="#4A4A4A"/>
<path d="M84.4017 52.0654L82.9736 52.4481C82.7 52.5214 82.5377 52.8026 82.611 53.0762L82.9937 54.5042C83.067 54.7778 83.3482 54.9402 83.6217 54.8669L85.0498 54.4842C85.3234 54.4109 85.4857 54.1297 85.4124 53.8561L85.0298 52.428C84.9565 52.1545 84.6753 51.9921 84.4017 52.0654Z" fill="#4A4A4A"/>
<path d="M87.2684 51.2972L85.8403 51.6799C85.5667 51.7532 85.4044 52.0344 85.4777 52.308L85.8604 53.7361C85.9337 54.0096 86.2149 54.172 86.4884 54.0987L87.9165 53.716C88.1901 53.6427 88.3524 53.3615 88.2791 53.0879L87.8965 51.6599C87.8232 51.3863 87.542 51.2239 87.2684 51.2972Z" fill="#4A4A4A"/>
<path fill-rule="evenodd" clip-rule="evenodd" d="M55.2938 59.8657L61.3796 58.235C61.511 58.1998 61.651 58.2182 61.7688 58.2862C61.8866 58.3542 61.9725 58.4662 62.0077 58.5976L62.3902 60.0252C62.4254 60.1566 62.407 60.2966 62.339 60.4143C62.271 60.5321 62.159 60.6181 62.0276 60.6533L55.9418 62.284C55.8104 62.3192 55.6704 62.3007 55.5527 62.2327C55.4349 62.1647 55.3489 62.0527 55.3137 61.9214L54.9311 60.4933C54.8959 60.3619 54.9143 60.2219 54.9823 60.1041C55.0503 59.9863 55.1623 59.9004 55.2937 59.8652L55.2938 59.8657ZM88.7961 50.8888L94.8824 49.258C95.0138 49.2228 95.1538 49.2412 95.2716 49.3092C95.3893 49.3772 95.4753 49.4892 95.5105 49.6206L95.893 51.0482C95.9282 51.1795 95.9098 51.3195 95.8418 51.4373C95.7738 51.5551 95.6618 51.641 95.5304 51.6762L89.4436 53.3072C89.3122 53.3424 89.1722 53.324 89.0544 53.256C88.9366 53.188 88.8507 53.076 88.8155 52.9446L88.4328 51.5165C88.3976 51.3851 88.4161 51.2451 88.4841 51.1274C88.5521 51.0096 88.6641 50.9236 88.7955 50.8884L88.7961 50.8888Z" fill="#4A4A4A"/>
<path fill-rule="evenodd" clip-rule="evenodd" d="M53.7429 54.077L56.0661 53.4545C56.1975 53.4193 56.3374 53.4377 56.4552 53.5057C56.573 53.5737 56.659 53.6857 56.6942 53.8171L57.0767 55.2447C57.1119 55.3761 57.0934 55.5161 57.0254 55.6338C56.9574 55.7516 56.8454 55.8376 56.7141 55.8728L54.3909 56.4953C54.2595 56.5305 54.1195 56.512 54.0017 56.444C53.884 56.376 53.798 56.264 53.7628 56.1327L53.3803 54.7051C53.3451 54.5737 53.3635 54.4337 53.4315 54.3159C53.4995 54.1981 53.6115 54.1122 53.7429 54.077Z" fill="#4A4A4A"/>
<path d="M58.933 52.686L57.5049 53.0687C57.2313 53.142 57.0689 53.4232 57.1422 53.6968L57.5249 55.1248C57.5982 55.3984 57.8794 55.5608 58.153 55.4875L59.5811 55.1048C59.8546 55.0315 60.017 54.7503 59.9437 54.4767L59.561 53.0487C59.4877 52.7751 59.2065 52.6127 58.933 52.686Z" fill="#4A4A4A"/>
<path d="M61.7994 51.9177L60.3713 52.3004C60.0978 52.3737 59.9354 52.6549 60.0087 52.9285L60.3914 54.3565C60.4647 54.6301 60.7459 54.7925 61.0194 54.7192L62.4475 54.3365C62.7211 54.2632 62.8834 53.982 62.8101 53.7084L62.4275 52.2803C62.3542 52.0068 62.073 51.8444 61.7994 51.9177Z" fill="#4A4A4A"/>
<path d="M64.6661 51.15L63.238 51.5327C62.9644 51.606 62.8021 51.8872 62.8754 52.1608L63.2581 53.5888C63.3314 53.8624 63.6126 54.0248 63.8861 53.9515L65.3142 53.5688C65.5878 53.4955 65.7501 53.2143 65.6768 52.9407L65.2942 51.5126C65.2209 51.2391 64.9397 51.0767 64.6661 51.15Z" fill="#4A4A4A"/>
<path d="M67.5326 50.3817L66.1045 50.7644C65.8309 50.8377 65.6686 51.1189 65.7419 51.3924L66.1245 52.8205C66.1978 53.0941 66.479 53.2564 66.7526 53.1831L68.1807 52.8005C68.4542 52.7272 68.6166 52.446 68.5433 52.1724L68.1606 50.7443C68.0873 50.4708 67.8061 50.3084 67.5326 50.3817Z" fill="#4A4A4A"/>
<path d="M70.3993 49.6136L68.9712 49.9963C68.6976 50.0696 68.5353 50.3508 68.6086 50.6244L68.9912 52.0525C69.0645 52.326 69.3457 52.4884 69.6193 52.4151L71.0474 52.0324C71.3209 51.9591 71.4833 51.6779 71.41 51.4043L71.0273 49.9763C70.954 49.7027 70.6728 49.5403 70.3993 49.6136Z" fill="#4A4A4A"/>
<path d="M73.2657 48.8453L71.8376 49.228C71.5641 49.3013 71.4017 49.5825 71.475 49.8561L71.8577 51.2841C71.931 51.5577 72.2122 51.7201 72.4857 51.6468L73.9138 51.2641C74.1874 51.1908 74.3497 50.9096 74.2764 50.636L73.8938 49.208C73.8205 48.9344 73.5393 48.772 73.2657 48.8453Z" fill="#4A4A4A"/>
<path d="M76.1324 48.0776L74.7043 48.4603C74.4308 48.5336 74.2684 48.8148 74.3417 49.0884L74.7244 50.5164C74.7977 50.79 75.0789 50.9524 75.3524 50.8791L76.7805 50.4964C77.0541 50.4231 77.2164 50.1419 77.1431 49.8683L76.7605 48.4403C76.6872 48.1667 76.406 48.0043 76.1324 48.0776Z" fill="#4A4A4A"/>
<path d="M78.9989 47.3093L77.5708 47.692C77.2972 47.7653 77.1349 48.0465 77.2082 48.3201L77.5908 49.7481C77.6641 50.0217 77.9453 50.1841 78.2189 50.1108L79.647 49.7281C79.9206 49.6548 80.0829 49.3736 80.0096 49.1L79.6269 47.6719C79.5536 47.3984 79.2724 47.236 78.9989 47.3093Z" fill="#4A4A4A"/>
<path d="M81.8651 46.5411L80.437 46.9238C80.1634 46.9971 80.0011 47.2783 80.0744 47.5519L80.457 48.9799C80.5303 49.2535 80.8115 49.4159 81.0851 49.3426L82.5132 48.9599C82.7868 48.8866 82.9491 48.6054 82.8758 48.3318L82.4932 46.9038C82.4199 46.6302 82.1387 46.4678 81.8651 46.5411Z" fill="#4A4A4A"/>
<path d="M84.7315 45.7733L83.3035 46.156C83.0299 46.2293 82.8675 46.5105 82.9408 46.784L83.3235 48.2121C83.3968 48.4857 83.678 48.648 83.9516 48.5747L85.3796 48.1921C85.6532 48.1188 85.8156 47.8376 85.7423 47.564L85.3596 46.1359C85.2863 45.8624 85.0051 45.7 84.7315 45.7733Z" fill="#4A4A4A"/>
<path d="M87.5982 45.0052L86.1702 45.3879C85.8966 45.4612 85.7342 45.7424 85.8075 46.016L86.1902 47.4441C86.2635 47.7176 86.5447 47.88 86.8183 47.8067L88.2463 47.424C88.5199 47.3507 88.6823 47.0695 88.609 46.796L88.2263 45.3679C88.153 45.0943 87.8718 44.9319 87.5982 45.0052Z" fill="#4A4A4A"/>
<path d="M90.4647 44.2369L89.0366 44.6196C88.763 44.6929 88.6007 44.9741 88.674 45.2477L89.0566 46.6758C89.1299 46.9493 89.4111 47.1117 89.6847 47.0384L91.1128 46.6557C91.3864 46.5824 91.5487 46.3012 91.4754 46.0276L91.0928 44.5996C91.0195 44.326 90.7383 44.1636 90.4647 44.2369Z" fill="#4A4A4A"/>
<path d="M93.3314 43.4692L91.9033 43.8519C91.6297 43.9252 91.4674 44.2064 91.5407 44.48L91.9233 45.908C91.9966 46.1816 92.2778 46.344 92.5514 46.2707L93.9795 45.888C94.2531 45.8147 94.4154 45.5335 94.3421 45.2599L93.9595 43.8319C93.8862 43.5583 93.605 43.3959 93.3314 43.4692Z" fill="#4A4A4A"/>
<path fill-rule="evenodd" clip-rule="evenodd" d="M93.2446 43.1448L90.921 43.7674C90.7896 43.8026 90.6496 43.7842 90.5318 43.7162C90.414 43.6482 90.3281 43.5362 90.2929 43.4048L89.9102 41.9767C89.875 41.8454 89.8935 41.7054 89.9615 41.5876C90.0295 41.4698 90.1415 41.3839 90.2729 41.3487L92.5965 40.726C92.7279 40.6908 92.8679 40.7093 92.9857 40.7773C93.1035 40.8453 93.1894 40.9573 93.2246 41.0887L93.6073 42.5167C93.6425 42.6481 93.624 42.7881 93.556 42.9059C93.488 43.0237 93.376 43.1096 93.2446 43.1448Z" fill="#4A4A4A"/>
<path d="M88.0544 44.5355L89.4824 44.1529C89.756 44.0796 89.9184 43.7984 89.8451 43.5248L89.4624 42.0967C89.3891 41.8231 89.1079 41.6608 88.8343 41.7341L87.4062 42.1167C87.1327 42.19 86.9703 42.4712 87.0436 42.7448L87.4263 44.1729C87.4996 44.4465 87.7808 44.6088 88.0544 44.5355Z" fill="#4A4A4A"/>
<path d="M85.1879 45.3038L86.616 44.9212C86.8896 44.8479 87.0519 44.5667 86.9786 44.2931L86.5959 42.865C86.5226 42.5914 86.2414 42.4291 85.9679 42.5024L84.5398 42.8851C84.2662 42.9584 84.1039 43.2396 84.1772 43.5131L84.5598 44.9412C84.6331 45.2148 84.9143 45.3771 85.1879 45.3038Z" fill="#4A4A4A"/>
<path d="M82.3214 46.0715L83.7495 45.6889C84.0231 45.6156 84.1854 45.3344 84.1121 45.0608L83.7295 43.6327C83.6562 43.3591 83.375 43.1968 83.1014 43.2701L81.6733 43.6528C81.3998 43.7261 81.2374 44.0073 81.3107 44.2808L81.6934 45.7089C81.7667 45.9825 82.0479 46.1448 82.3214 46.0715Z" fill="#4A4A4A"/>
<path d="M79.4547 46.8398L80.8828 46.4572C81.1564 46.3839 81.3187 46.1027 81.2454 45.8291L80.8628 44.401C80.7895 44.1275 80.5083 43.9651 80.2347 44.0384L78.8066 44.4211C78.5331 44.4944 78.3707 44.7756 78.444 45.0491L78.8267 46.4772C78.9 46.7508 79.1812 46.9131 79.4547 46.8398Z" fill="#4A4A4A"/>
<path d="M76.5883 47.608L78.0164 47.2254C78.2899 47.1521 78.4523 46.8709 78.379 46.5973L77.9963 45.1692C77.923 44.8956 77.6418 44.7333 77.3683 44.8066L75.9402 45.1893C75.6666 45.2626 75.5043 45.5438 75.5776 45.8173L75.9602 47.2454C76.0335 47.519 76.3147 47.6813 76.5883 47.608Z" fill="#4A4A4A"/>
<path d="M73.7216 48.3762L75.1497 47.9936C75.4232 47.9203 75.5856 47.6391 75.5123 47.3655L75.1296 45.9374C75.0563 45.6638 74.7751 45.5015 74.5016 45.5748L73.0735 45.9574C72.7999 46.0307 72.6376 46.3119 72.7109 46.5855L73.0935 48.0136C73.1668 48.2872 73.448 48.4495 73.7216 48.3762Z" fill="#4A4A4A"/>
<path d="M70.8551 49.144L72.2832 48.7614C72.5568 48.6881 72.7191 48.4069 72.6458 48.1333L72.2632 46.7052C72.1899 46.4317 71.9087 46.2693 71.6351 46.3426L70.207 46.7253C69.9335 46.7986 69.7711 47.0798 69.8444 47.3533L70.2271 48.7814C70.3004 49.055 70.5816 49.2173 70.8551 49.144Z" fill="#4A4A4A"/>
<path d="M67.9884 49.9122L69.4165 49.5296C69.6901 49.4563 69.8524 49.1751 69.7791 48.9015L69.3965 47.4734C69.3232 47.1998 69.042 47.0375 68.7684 47.1108L67.3403 47.4935C67.0668 47.5668 66.9044 47.848 66.9777 48.1215L67.3604 49.5496C67.4337 49.8232 67.7149 49.9855 67.9884 49.9122Z" fill="#4A4A4A"/>
<path d="M65.122 50.6804L66.5501 50.2978C66.8236 50.2245 66.986 49.9433 66.9127 49.6697L66.53 48.2416C66.4567 47.968 66.1755 47.8057 65.902 47.879L64.4739 48.2616C64.2003 48.3349 64.0379 48.6161 64.1113 48.8897L64.4939 50.3178C64.5672 50.5914 64.8484 50.7537 65.122 50.6804Z" fill="#4A4A4A"/>
<path d="M62.2553 51.4487L63.6834 51.0661C63.9569 50.9928 64.1193 50.7116 64.046 50.438L63.6633 49.0099C63.59 48.7363 63.3088 48.574 63.0353 48.6473L61.6072 49.03C61.3336 49.1033 61.1713 49.3845 61.2446 49.658L61.6272 51.0861C61.7005 51.3597 61.9817 51.522 62.2553 51.4487Z" fill="#4A4A4A"/>
<path d="M59.3886 52.2166L60.8167 51.8339C61.0902 51.7606 61.2526 51.4794 61.1793 51.2058L60.7966 49.7777C60.7233 49.5042 60.4421 49.3418 60.1686 49.4151L58.7405 49.7978C58.4669 49.8711 58.3045 50.1523 58.3779 50.4259L58.7605 51.8539C58.8338 52.1275 59.115 52.2899 59.3886 52.2166Z" fill="#4A4A4A"/>
<path d="M56.5221 52.9846L57.9502 52.602C58.2238 52.5287 58.3861 52.2475 58.3128 51.9739L57.9302 50.5458C57.8569 50.2722 57.5757 50.1099 57.3021 50.1832L55.874 50.5658C55.6004 50.6391 55.4381 50.9203 55.5114 51.1939L55.8941 52.622C55.9674 52.8956 56.2486 53.0579 56.5221 52.9846Z" fill="#4A4A4A"/>
<path d="M53.6562 53.7523L55.0842 53.3697C55.3578 53.2964 55.5202 53.0152 55.4469 52.7416L55.0642 51.3135C54.9909 51.0399 54.7097 50.8776 54.4361 50.9509L53.0081 51.3335C52.7345 51.4068 52.5721 51.688 52.6454 51.9616L53.0281 53.3897C53.1014 53.6633 53.3826 53.8256 53.6562 53.7523Z" fill="#4A4A4A"/>
<path d="M88.0544 44.5355L89.4824 44.1529C89.756 44.0796 89.9184 43.7984 89.8451 43.5248L89.4624 42.0967C89.3891 41.8231 89.1079 41.6608 88.8343 41.7341L87.4062 42.1167C87.1327 42.19 86.9703 42.4712 87.0436 42.7448L87.4263 44.1729C87.4996 44.4465 87.7808 44.6088 88.0544 44.5355Z" fill="#4A4A4A"/>
<path d="M85.1879 45.3038L86.616 44.9212C86.8896 44.8479 87.0519 44.5667 86.9786 44.2931L86.5959 42.865C86.5226 42.5914 86.2414 42.4291 85.9679 42.5024L84.5398 42.8851C84.2662 42.9584 84.1039 43.2396 84.1772 43.5131L84.5598 44.9412C84.6331 45.2148 84.9143 45.3771 85.1879 45.3038Z" fill="#4A4A4A"/>
<path d="M82.3214 46.0715L83.7495 45.6889C84.0231 45.6156 84.1854 45.3344 84.1121 45.0608L83.7295 43.6327C83.6562 43.3591 83.375 43.1968 83.1014 43.2701L81.6733 43.6528C81.3998 43.7261 81.2374 44.0073 81.3107 44.2808L81.6934 45.7089C81.7667 45.9825 82.0479 46.1448 82.3214 46.0715Z" fill="#4A4A4A"/>
<path d="M79.4547 46.8398L80.8828 46.4572C81.1564 46.3839 81.3187 46.1027 81.2454 45.8291L80.8628 44.401C80.7895 44.1275 80.5083 43.9651 80.2347 44.0384L78.8066 44.4211C78.5331 44.4944 78.3707 44.7756 78.444 45.0491L78.8267 46.4772C78.9 46.7508 79.1812 46.9131 79.4547 46.8398Z" fill="#4A4A4A"/>
<path d="M76.5883 47.608L78.0164 47.2254C78.2899 47.1521 78.4523 46.8709 78.379 46.5973L77.9963 45.1692C77.923 44.8956 77.6418 44.7333 77.3683 44.8066L75.9402 45.1893C75.6666 45.2626 75.5043 45.5438 75.5776 45.8173L75.9602 47.2454C76.0335 47.519 76.3147 47.6813 76.5883 47.608Z" fill="#4A4A4A"/>
<path d="M73.7216 48.3762L75.1497 47.9936C75.4232 47.9203 75.5856 47.6391 75.5123 47.3655L75.1296 45.9374C75.0563 45.6638 74.7751 45.5015 74.5016 45.5748L73.0735 45.9574C72.7999 46.0307 72.6376 46.3119 72.7109 46.5855L73.0935 48.0136C73.1668 48.2872 73.448 48.4495 73.7216 48.3762Z" fill="#4A4A4A"/>
<path d="M70.8551 49.144L72.2832 48.7614C72.5568 48.6881 72.7191 48.4069 72.6458 48.1333L72.2632 46.7052C72.1899 46.4317 71.9087 46.2693 71.6351 46.3426L70.207 46.7253C69.9335 46.7986 69.7711 47.0798 69.8444 47.3533L70.2271 48.7814C70.3004 49.055 70.5816 49.2173 70.8551 49.144Z" fill="#4A4A4A"/>
<path d="M67.9884 49.9122L69.4165 49.5296C69.6901 49.4563 69.8524 49.1751 69.7791 48.9015L69.3965 47.4734C69.3232 47.1998 69.042 47.0375 68.7684 47.1108L67.3403 47.4935C67.0668 47.5668 66.9044 47.848 66.9777 48.1215L67.3604 49.5496C67.4337 49.8232 67.7149 49.9855 67.9884 49.9122Z" fill="#4A4A4A"/>
<path d="M65.122 50.6804L66.5501 50.2978C66.8236 50.2245 66.986 49.9433 66.9127 49.6697L66.53 48.2416C66.4567 47.968 66.1755 47.8057 65.902 47.879L64.4739 48.2616C64.2003 48.3349 64.0379 48.6161 64.1113 48.8897L64.4939 50.3178C64.5672 50.5914 64.8484 50.7537 65.122 50.6804Z" fill="#4A4A4A"/>
<path d="M62.2553 51.4487L63.6834 51.0661C63.9569 50.9928 64.1193 50.7116 64.046 50.438L63.6633 49.0099C63.59 48.7363 63.3088 48.574 63.0353 48.6473L61.6072 49.03C61.3336 49.1033 61.1713 49.3845 61.2446 49.658L61.6272 51.0861C61.7005 51.3597 61.9817 51.522 62.2553 51.4487Z" fill="#4A4A4A"/>
<path d="M59.3886 52.2166L60.8167 51.8339C61.0902 51.7606 61.2526 51.4794 61.1793 51.2058L60.7966 49.7777C60.7233 49.5042 60.4421 49.3418 60.1686 49.4151L58.7405 49.7978C58.4669 49.8711 58.3045 50.1523 58.3779 50.4259L58.7605 51.8539C58.8338 52.1275 59.115 52.2899 59.3886 52.2166Z" fill="#4A4A4A"/>
<path d="M56.5221 52.9846L57.9502 52.602C58.2238 52.5287 58.3861 52.2475 58.3128 51.9739L57.9302 50.5458C57.8569 50.2722 57.5757 50.1099 57.3021 50.1832L55.874 50.5658C55.6004 50.6391 55.4381 50.9203 55.5114 51.1939L55.8941 52.622C55.9674 52.8956 56.2486 53.0579 56.5221 52.9846Z" fill="#4A4A4A"/>
<path d="M53.6562 53.7523L55.0842 53.3697C55.3578 53.2964 55.5202 53.0152 55.4469 52.7416L55.0642 51.3135C54.9909 51.0399 54.7097 50.8776 54.4361 50.9509L53.0081 51.3335C52.7345 51.4068 52.5721 51.688 52.6454 51.9616L53.0281 53.3897C53.1014 53.6633 53.3826 53.8256 53.6562 53.7523Z" fill="#4A4A4A"/>
<path fill-rule="evenodd" clip-rule="evenodd" d="M54.511 56.9427L57.8199 56.0561C57.9513 56.0209 58.0912 56.0393 58.209 56.1073C58.3268 56.1753 58.4128 56.2873 58.448 56.4187L58.8306 57.8468C58.8658 57.9782 58.8474 58.1181 58.7794 58.2359C58.7114 58.3537 58.5994 58.4397 58.468 58.4749L55.1591 59.3615C55.0277 59.3967 54.8877 59.3783 54.7699 59.3103C54.6522 59.2423 54.5662 59.1302 54.531 58.9989L54.1485 57.5713C54.1133 57.4399 54.1317 57.2999 54.1997 57.1821C54.2677 57.0644 54.3797 56.9784 54.5111 56.9432L54.511 56.9427Z" fill="#4A4A4A"/>
<path d="M60.7762 55.2635L59.3481 55.6462C59.0746 55.7195 58.9122 56.0007 58.9855 56.2743L59.3682 57.7024C59.4415 57.9759 59.7227 58.1383 59.9962 58.065L61.4243 57.6823C61.6979 57.609 61.8602 57.3278 61.7869 57.0543L61.4043 55.6262C61.331 55.3526 61.0498 55.1902 60.7762 55.2635Z" fill="#4A4A4A"/>
<path d="M63.6427 54.4951L62.2146 54.8778C61.941 54.9511 61.7787 55.2323 61.852 55.5058L62.2346 56.9339C62.3079 57.2075 62.5891 57.3699 62.8627 57.2965L64.2908 56.9139C64.5644 56.8406 64.7267 56.5594 64.6534 56.2858L64.2707 54.8577C64.1974 54.5842 63.9162 54.4218 63.6427 54.4951Z" fill="#4A4A4A"/>
<path d="M66.5094 53.7274L65.0813 54.1101C64.8077 54.1834 64.6454 54.4646 64.7187 54.7381L65.1013 56.1662C65.1746 56.4398 65.4558 56.6022 65.7294 56.5288L67.1575 56.1462C67.431 56.0729 67.5934 55.7917 67.5201 55.5181L67.1374 54.09C67.0641 53.8165 66.7829 53.6541 66.5094 53.7274Z" fill="#4A4A4A"/>
<path d="M69.3761 52.9591L67.948 53.3418C67.6744 53.4151 67.5121 53.6963 67.5854 53.9698L67.968 55.3979C68.0413 55.6715 68.3225 55.8338 68.5961 55.7605L70.0242 55.3779C70.2977 55.3046 70.4601 55.0234 70.3868 54.7498L70.0041 53.3217C69.9308 53.0482 69.6496 52.8858 69.3761 52.9591Z" fill="#4A4A4A"/>
<path d="M72.2425 52.1909L70.8144 52.5736C70.5409 52.6469 70.3785 52.9281 70.4518 53.2016L70.8345 54.6297C70.9078 54.9033 71.189 55.0657 71.4625 54.9923L72.8906 54.6097C73.1642 54.5364 73.3266 54.2552 73.2533 53.9816L72.8706 52.5535C72.7973 52.28 72.5161 52.1176 72.2425 52.1909Z" fill="#4A4A4A"/>
<path d="M75.1092 51.4227L73.6811 51.8054C73.4076 51.8787 73.2452 52.1599 73.3185 52.4335L73.7012 53.8615C73.7745 54.1351 74.0557 54.2975 74.3292 54.2242L75.7573 53.8415C76.0309 53.7682 76.1933 53.487 76.12 53.2134L75.7373 51.7853C75.664 51.5118 75.3828 51.3494 75.1092 51.4227Z" fill="#4A4A4A"/>
<path d="M77.9757 50.655L76.5476 51.0377C76.274 51.111 76.1117 51.3922 76.185 51.6658L76.5676 53.0938C76.6409 53.3674 76.9221 53.5298 77.1957 53.4565L78.6238 53.0738C78.8974 53.0005 79.0597 52.7193 78.9864 52.4457L78.6038 51.0176C78.5304 50.7441 78.2492 50.5817 77.9757 50.655Z" fill="#4A4A4A"/>
<path d="M80.8416 49.8868L79.4136 50.2695C79.14 50.3428 78.9776 50.624 79.0509 50.8976L79.4336 52.3257C79.5069 52.5992 79.7881 52.7616 80.0617 52.6883L81.4898 52.3056C81.7633 52.2323 81.9257 51.9511 81.8524 51.6775L81.4697 50.2495C81.3964 49.9759 81.1152 49.8135 80.8416 49.8868Z" fill="#4A4A4A"/>
<path d="M83.7083 49.1185L82.2803 49.5012C82.0067 49.5745 81.8443 49.8557 81.9176 50.1293L82.3003 51.5573C82.3736 51.8309 82.6548 51.9933 82.9284 51.92L84.3565 51.5373C84.63 51.464 84.7924 51.1828 84.7191 50.9092L84.3364 49.4811C84.2631 49.2076 83.9819 49.0452 83.7083 49.1185Z" fill="#4A4A4A"/>
<path d="M86.5748 48.3508L85.1467 48.7335C84.8731 48.8068 84.7108 49.088 84.7841 49.3616L85.1667 50.7896C85.2401 51.0632 85.5213 51.2256 85.7948 51.1523L87.2229 50.7696C87.4965 50.6963 87.6588 50.4151 87.5855 50.1415L87.2029 48.7134C87.1296 48.4399 86.8484 48.2775 86.5748 48.3508Z" fill="#4A4A4A"/>
<path d="M89.4413 47.5825L88.0132 47.9652C87.7396 48.0385 87.5772 48.3197 87.6505 48.5932L88.0332 50.0213C88.1065 50.2949 88.3877 50.4573 88.6613 50.3839L90.0894 50.0013C90.3629 49.928 90.5253 49.6468 90.452 49.3732L90.0693 47.9451C89.996 47.6716 89.7148 47.5092 89.4413 47.5825Z" fill="#4A4A4A"/>
<path fill-rule="evenodd" clip-rule="evenodd" d="M90.97 47.1734L94.0996 46.3348C94.2309 46.2996 94.3709 46.3181 94.4887 46.3861C94.6065 46.4541 94.6924 46.5661 94.7276 46.6975L95.1103 48.1255C95.1455 48.2569 95.1271 48.3969 95.0591 48.5147C94.9911 48.6325 94.879 48.7184 94.7477 48.7536L91.6176 49.5923C91.4862 49.6275 91.3462 49.6091 91.2284 49.5411C91.1107 49.4731 91.0247 49.3611 90.9895 49.2297L90.607 47.8021C90.5718 47.6707 90.5902 47.5308 90.6582 47.413C90.7262 47.2952 90.8382 47.2092 90.9696 47.174L90.97 47.1734Z" fill="#4A4A4A"/>
<path d="M57.523 62.4727L56.095 62.8553C55.8214 62.9286 55.659 63.2098 55.7323 63.4834L56.115 64.9115C56.1883 65.185 56.4695 65.3474 56.7431 65.2741L58.1711 64.8914C58.4447 64.8181 58.6071 64.5369 58.5338 64.2634L58.1511 62.8353C58.0778 62.5617 57.7966 62.3994 57.523 62.4727Z" fill="#4A4A4A"/>
<path d="M60.3897 61.7043L58.9617 62.087C58.6881 62.1603 58.5257 62.4415 58.599 62.7151L58.9817 64.1432C59.055 64.4167 59.3362 64.5791 59.6098 64.5058L61.0378 64.1231C61.3114 64.0498 61.4738 63.7686 61.4005 63.495L61.0178 62.067C60.9445 61.7934 60.6633 61.631 60.3897 61.7043Z" fill="#4A4A4A"/>
<path d="M63.2562 60.9366L61.8281 61.3193C61.5545 61.3926 61.3922 61.6738 61.4655 61.9474L61.8481 63.3755C61.9214 63.649 62.2026 63.8114 62.4762 63.7381L63.9043 63.3554C64.1779 63.2821 64.3402 63.0009 64.2669 62.7273L63.8843 61.2993C63.811 61.0257 63.5298 60.8633 63.2562 60.9366Z" fill="#4A4A4A"/>
<path d="M66.1229 60.1682L64.6948 60.5509C64.4212 60.6242 64.2589 60.9054 64.3322 61.1789L64.7148 62.607C64.7881 62.8806 65.0693 63.0429 65.3429 62.9696L66.771 62.587C67.0446 62.5137 67.2069 62.2325 67.1336 61.9589L66.751 60.5308C66.6777 60.2573 66.3965 60.0949 66.1229 60.1682Z" fill="#4A4A4A"/>
<path fill-rule="evenodd" clip-rule="evenodd" d="M67.5608 59.7828L81.3512 56.0877C81.4826 56.0525 81.6226 56.0709 81.7404 56.1389C81.8581 56.2069 81.9441 56.3189 81.9793 56.4503L82.3621 57.8789C82.3973 58.0102 82.3789 58.1502 82.3109 58.268C82.2429 58.3858 82.1308 58.4717 81.9995 58.5069L68.209 62.2021C68.0776 62.2373 67.9377 62.2188 67.8199 62.1508C67.7021 62.0828 67.6161 61.9708 67.5809 61.8395L67.1982 60.4109C67.163 60.2795 67.1814 60.1395 67.2494 60.0217C67.3174 59.9039 67.4294 59.818 67.5608 59.7828ZM82.7892 55.7024L84.5759 55.2236C84.7073 55.1884 84.8473 55.2068 84.9651 55.2748C85.0829 55.3428 85.1688 55.4548 85.204 55.5862L85.5868 57.0148C85.622 57.1462 85.6036 57.2862 85.5356 57.4039C85.4676 57.5217 85.3555 57.6077 85.2242 57.6429L83.4375 58.1216C83.3061 58.1568 83.1661 58.1384 83.0483 58.0704C82.9305 58.0024 82.8446 57.8904 82.8094 57.759L82.4266 56.3304C82.3914 56.1991 82.4098 56.0591 82.4778 55.9413C82.5458 55.8235 82.6578 55.7376 82.7892 55.7024Z" fill="#4A4A4A"/>
<path d="M87.4425 54.4557L86.0144 54.8383C85.7408 54.9116 85.5785 55.1928 85.6518 55.4664L86.0344 56.8945C86.1077 57.1681 86.3889 57.3304 86.6625 57.2571L88.0906 56.8745C88.3642 56.8012 88.5265 56.52 88.4532 56.2464L88.0705 54.8183C87.9972 54.5447 87.716 54.3824 87.4425 54.4557Z" fill="#4A4A4A"/>
<path d="M90.3092 53.6876L88.8811 54.0703C88.6075 54.1436 88.4452 54.4248 88.5185 54.6983L88.9011 56.1264C88.9744 56.4 89.2556 56.5624 89.5292 56.4891L90.9573 56.1064C91.2309 56.0331 91.3932 55.7519 91.3199 55.4783L90.9372 54.0502C90.8639 53.7767 90.5827 53.6143 90.3092 53.6876Z" fill="#4A4A4A"/>
<path d="M95.6837 52.2477L94.2556 52.6303C93.982 52.7036 93.8197 52.9848 93.893 53.2584L94.2756 54.6865C94.3489 54.9601 94.6301 55.1224 94.9037 55.0491L96.3318 54.6665C96.6054 54.5932 96.7677 54.312 96.6944 54.0384L96.3118 52.6103C96.2385 52.3367 95.9573 52.1744 95.6837 52.2477Z" fill="#4A4A4A"/>
<path d="M91.3486 54.5133L91.2052 53.9784C91.17 53.847 91.1884 53.707 91.2564 53.5892C91.3244 53.4714 91.4365 53.3855 91.5678 53.3503L92.9959 52.9676C93.1273 52.9324 93.2673 52.9509 93.3851 53.0189C93.5028 53.0869 93.5888 53.1989 93.624 53.3303L93.7673 53.8652L91.3486 54.5133Z" fill="#4A4A4A"/>
<path d="M93.8636 54.2232L94.0069 54.7582C94.0421 54.8896 94.0237 55.0296 93.9557 55.1473C93.8877 55.2651 93.7757 55.3511 93.6443 55.3863L92.2162 55.7689C92.0849 55.8041 91.9449 55.7857 91.8271 55.7177C91.7093 55.6497 91.6234 55.5377 91.5882 55.4063L91.4448 54.8713L93.8636 54.2232Z" fill="#4A4A4A"/>
<path d="M92.0954 39.3835L52.8595 49.8968C52.5626 49.9763 52.3865 50.2814 52.466 50.5782C52.5456 50.875 52.8507 51.0512 53.1475 50.9717L92.3834 40.4584C92.6802 40.3789 92.8564 40.0738 92.7768 39.777C92.6973 39.4801 92.3922 39.304 92.0954 39.3835Z" fill="#4A4A4A"/>
<path opacity="0.136" d="M55.2581 49.4464L53.7141 49.8601C53.5163 49.9131 53.3989 50.1164 53.4519 50.3142L53.4521 50.3147C53.5051 50.5125 53.7084 50.6299 53.9061 50.5769L55.4501 50.1631C55.6479 50.1101 55.7653 49.9068 55.7123 49.709L55.7122 49.7086C55.6592 49.5108 55.4559 49.3934 55.2581 49.4464Z" fill="#D8D8D8"/>
<path opacity="0.136" d="M58.3509 48.6176L56.8069 49.0314C56.6091 49.0844 56.4917 49.2877 56.5447 49.4855L56.5448 49.486C56.5978 49.6837 56.8011 49.8011 56.9989 49.7481L58.5429 49.3344C58.7407 49.2814 58.8581 49.0781 58.8051 48.8803L58.805 48.8798C58.752 48.682 58.5487 48.5646 58.3509 48.6176Z" fill="#D8D8D8"/>
<path opacity="0.136" d="M60.7305 47.9801L59.1865 48.3938C58.9887 48.4468 58.8713 48.6501 58.9243 48.8479L58.9245 48.8484C58.9775 49.0462 59.1808 49.1635 59.3786 49.1106L60.9226 48.6968C61.1204 48.6438 61.2377 48.4405 61.1847 48.2427L61.1846 48.2422C61.1316 48.0445 60.9283 47.9271 60.7305 47.9801Z" fill="#D8D8D8"/>
<path opacity="0.136" d="M63.1097 47.3425L61.5657 47.7562C61.3679 47.8092 61.2505 48.0125 61.3035 48.2103L61.3036 48.2108C61.3566 48.4086 61.5599 48.526 61.7577 48.473L63.3017 48.0593C63.4995 48.0063 63.6169 47.803 63.5639 47.6052L63.5637 47.6047C63.5107 47.4069 63.3074 47.2895 63.1097 47.3425Z" fill="#D8D8D8"/>
<path opacity="0.136" d="M65.4893 46.7049L63.9453 47.1186C63.7475 47.1716 63.6301 47.3749 63.6831 47.5727L63.6833 47.5732C63.7363 47.771 63.9396 47.8884 64.1374 47.8354L65.6813 47.4217C65.8791 47.3687 65.9965 47.1654 65.9435 46.9676L65.9434 46.9671C65.8904 46.7693 65.6871 46.6519 65.4893 46.7049Z" fill="#D8D8D8"/>
<path opacity="0.136" d="M68.4634 45.9083L66.9194 46.322C66.7216 46.375 66.6042 46.5783 66.6572 46.7761L66.6574 46.7766C66.7104 46.9744 66.9137 47.0918 67.1115 47.0388L68.6555 46.6251C68.8533 46.5721 68.9706 46.3688 68.9176 46.171L68.9175 46.1705C68.8645 45.9727 68.6612 45.8553 68.4634 45.9083Z" fill="#D8D8D8"/>
<path opacity="0.136" d="M70.8426 45.2707L69.2986 45.6844C69.1008 45.7374 68.9834 45.9407 69.0364 46.1385L69.0365 46.139C69.0895 46.3368 69.2928 46.4542 69.4906 46.4012L71.0346 45.9875C71.2324 45.9345 71.3498 45.7312 71.2968 45.5334L71.2967 45.5329C71.2437 45.3351 71.0404 45.2177 70.8426 45.2707Z" fill="#D8D8D8"/>
<path opacity="0.136" d="M73.2222 44.6328L71.6782 45.0465C71.4804 45.0995 71.363 45.3028 71.416 45.5006L71.4162 45.5011C71.4692 45.6989 71.6725 45.8163 71.8703 45.7633L73.4143 45.3495C73.612 45.2965 73.7294 45.0932 73.6764 44.8955L73.6763 44.895C73.6233 44.6972 73.42 44.5798 73.2222 44.6328Z" fill="#D8D8D8"/>
<path opacity="0.136" d="M75.6013 43.9952L74.0574 44.4089C73.8596 44.4619 73.7422 44.6652 73.7952 44.863L73.7953 44.8635C73.8483 45.0613 74.0516 45.1787 74.2494 45.1257L75.7934 44.712C75.9912 44.659 76.1086 44.4557 76.0556 44.2579L76.0554 44.2574C76.0024 44.0596 75.7991 43.9422 75.6013 43.9952Z" fill="#D8D8D8"/>
<path opacity="0.136" d="M78.576 43.1984L77.032 43.6121C76.8342 43.6651 76.7168 43.8684 76.7698 44.0662L76.7699 44.0667C76.8229 44.2645 77.0262 44.3819 77.224 44.3289L78.768 43.9152C78.9658 43.8622 79.0832 43.6589 79.0302 43.4611L79.0301 43.4606C78.9771 43.2628 78.7738 43.1454 78.576 43.1984Z" fill="#D8D8D8"/>
<path opacity="0.136" d="M80.9551 42.5609L79.4111 42.9746C79.2133 43.0276 79.0959 43.2309 79.1489 43.4287L79.1491 43.4292C79.2021 43.627 79.4054 43.7444 79.6032 43.6914L81.1472 43.2776C81.345 43.2247 81.4623 43.0213 81.4093 42.8236L81.4092 42.8231C81.3562 42.6253 81.1529 42.5079 80.9551 42.5609Z" fill="#D8D8D8"/>
<path opacity="0.136" d="M83.3347 41.9233L81.7908 42.337C81.593 42.39 81.4756 42.5933 81.5286 42.7911L81.5287 42.7916C81.5817 42.9894 81.785 43.1068 81.9828 43.0538L83.5268 42.6401C83.7246 42.5871 83.842 42.3838 83.789 42.186L83.7888 42.1855C83.7358 41.9877 83.5325 41.8703 83.3347 41.9233Z" fill="#D8D8D8"/>
<path opacity="0.136" d="M86.3086 41.1266L84.7646 41.5403C84.5668 41.5933 84.4495 41.7966 84.5025 41.9944L84.5026 41.9949C84.5556 42.1927 84.7589 42.3101 84.9567 42.2571L86.5007 41.8434C86.6985 41.7904 86.8159 41.5871 86.7629 41.3893L86.7627 41.3888C86.7097 41.191 86.5064 41.0736 86.3086 41.1266Z" fill="#D8D8D8"/>
<path opacity="0.136" d="M88.688 40.4891L87.144 40.9028C86.9462 40.9558 86.8289 41.1591 86.8819 41.3569L86.882 41.3574C86.935 41.5552 87.1383 41.6726 87.3361 41.6196L88.8801 41.2059C89.0779 41.1529 89.1952 40.9496 89.1422 40.7518L89.1421 40.7513C89.0891 40.5535 88.8858 40.4361 88.688 40.4891Z" fill="#D8D8D8"/>
<path opacity="0.136" d="M91.0677 39.851L89.5237 40.2648C89.3259 40.3178 89.2085 40.5211 89.2615 40.7189L89.2616 40.7193C89.3146 40.9171 89.5179 41.0345 89.7157 40.9815L91.2597 40.5678C91.4575 40.5148 91.5749 40.3115 91.5219 40.1137L91.5218 40.1132C91.4688 39.9154 91.2655 39.798 91.0677 39.851Z" fill="#D8D8D8"/>
<path fill-rule="evenodd" clip-rule="evenodd" d="M71.7948 79.1901C71.6825 79.1901 71.5753 79.2091 71.4671 79.2229C71.4476 79.146 71.4292 79.0686 71.4076 78.9917C71.9541 78.7632 72.4046 78.3525 72.6826 77.8295C72.9606 77.3065 73.049 76.7033 72.9327 76.1226C72.8164 75.5418 72.5026 75.0192 72.0446 74.6435C71.5867 74.2679 71.0128 74.0624 70.4204 74.0619C69.8605 74.0639 69.3168 74.2507 68.8738 74.5932C68.817 74.5353 68.7598 74.4778 68.702 74.4209C69.037 73.9804 69.219 73.4425 69.2204 72.8891C69.2201 72.2983 69.0158 71.7258 68.642 71.2683C68.2682 70.8108 67.7479 70.4964 67.1691 70.3783C66.5902 70.2602 65.9883 70.3455 65.4652 70.62C64.942 70.8944 64.5297 71.3411 64.2979 71.8845C64.222 71.8629 64.1456 71.845 64.0697 71.8255C64.0835 71.7173 64.1025 71.6101 64.1025 71.4978C64.1025 70.8178 63.8324 70.1656 63.3515 69.6847C62.8706 69.2039 62.2184 68.9337 61.5384 68.9337C60.8584 68.9337 60.2062 69.2039 59.7253 69.6847C59.2444 70.1656 58.9743 70.8178 58.9743 71.4978C58.9743 71.6101 58.9933 71.7173 59.0071 71.8255C58.9312 71.845 58.8548 71.8629 58.7789 71.8845C58.5479 71.3401 58.1358 70.8923 57.6123 70.617C57.0889 70.3418 56.4864 70.256 55.9069 70.3743C55.3274 70.4925 54.8067 70.8075 54.433 71.2659C54.0593 71.7242 53.8555 72.2977 53.8563 72.8891C53.8563 73.466 54.0533 73.9922 54.3748 74.4209C52.4686 76.2835 51.282 78.8788 51.282 81.7542C51.282 87.4188 55.8738 92.0106 61.5384 92.0106C66.3276 92.0106 70.3384 88.7235 71.4671 84.2855C71.5753 84.2994 71.6825 84.3183 71.7948 84.3183C72.4748 84.3183 73.127 84.0482 73.6079 83.5673C74.0888 83.0865 74.3589 82.4343 74.3589 81.7542C74.3589 81.0742 74.0888 80.422 73.6079 79.9411C73.127 79.4603 72.4748 79.1901 71.7948 79.1901Z" fill="#44D860"/>
<path fill-rule="evenodd" clip-rule="evenodd" d="M41.0256 61.2414H61.5385V50.985H41.0256V61.2414Z" fill="#3ECC5F"/>
<path fill-rule="evenodd" clip-rule="evenodd" d="M66.6666 57.3956C67.0066 57.3956 67.3327 57.2605 67.5731 57.0201C67.8135 56.7796 67.9486 56.4535 67.9486 56.1135C67.9486 55.7735 67.8135 55.4474 67.5731 55.207C67.3327 54.9665 67.0066 54.8315 66.6666 54.8315C66.6107 54.8315 66.5568 54.8412 66.503 54.8479C66.4927 54.8094 66.484 54.7709 66.4732 54.7325C66.7461 54.6179 66.971 54.4125 67.1097 54.151C67.2484 53.8896 67.2925 53.5882 67.2343 53.298C67.1762 53.0078 67.0195 52.7466 66.7907 52.5588C66.562 52.3709 66.2754 52.268 65.9794 52.2674C65.6876 52.2674 65.4214 52.3684 65.2061 52.533C65.1778 52.5038 65.1491 52.475 65.1199 52.4468C65.2809 52.233 65.3794 51.9694 65.3794 51.6807C65.3793 51.3852 65.2771 51.0988 65.0902 50.87C64.9033 50.6412 64.6431 50.484 64.3535 50.4249C64.064 50.3659 63.763 50.4086 63.5014 50.546C63.2398 50.6833 63.0337 50.9068 62.9179 51.1786C62.469 51.0517 62.0048 50.9866 61.5384 50.9853C58.7066 50.9853 56.4102 53.2817 56.4102 56.1135C56.4102 58.9453 58.7066 61.2417 61.5384 61.2417C62.0173 61.2417 62.4784 61.1709 62.9179 61.0484C63.0337 61.3202 63.2398 61.5437 63.5014 61.6811C63.763 61.8184 64.064 61.8612 64.3535 61.8021C64.6431 61.7431 64.9033 61.5858 65.0902 61.357C65.2771 61.1282 65.3793 60.8418 65.3794 60.5463C65.3794 60.2576 65.2809 59.994 65.1199 59.7802C65.1491 59.752 65.1778 59.7233 65.2061 59.694C65.4214 59.8586 65.6876 59.9597 65.9794 59.9597C66.2757 59.9596 66.5628 59.857 66.792 59.6692C67.0211 59.4814 67.1782 59.22 67.2364 58.9294C67.2946 58.6389 67.2503 58.3372 67.1112 58.0756C66.9721 57.814 66.7467 57.6087 66.4732 57.4945C66.484 57.4566 66.4927 57.4176 66.503 57.3792C66.5568 57.3858 66.6107 57.3956 66.6666 57.3956Z" fill="#44D860"/>
<path fill-rule="evenodd" clip-rule="evenodd" d="M71.7947 19.5751C71.7127 19.5751 71.6255 19.5648 71.5435 19.5494C71.461 19.5334 71.3803 19.5093 71.3024 19.4776C71.2255 19.4469 71.1537 19.4058 71.0814 19.3597C71.0147 19.3135 70.9486 19.2571 70.8865 19.2007C70.8306 19.1392 70.7742 19.0776 70.7281 19.0058C70.6819 18.934 70.6409 18.8622 70.6096 18.7853C70.5467 18.6288 70.5138 18.4617 70.5127 18.293C70.5127 18.211 70.523 18.1238 70.5383 18.0417C70.5537 17.9597 70.5794 17.8828 70.6096 17.8007C70.6409 17.7238 70.6819 17.652 70.7281 17.5802C70.7742 17.5135 70.8306 17.4469 70.8865 17.3853C70.9486 17.3289 71.0147 17.2725 71.0814 17.2263C71.1537 17.1802 71.2255 17.1392 71.3024 17.1084C71.3788 17.0776 71.4614 17.052 71.5435 17.0366C71.7076 17.0007 71.8768 17.0007 72.046 17.0366C72.1276 17.052 72.2101 17.0776 72.2871 17.1084C72.3635 17.1392 72.4358 17.1802 72.5076 17.2263C72.5742 17.2725 72.6404 17.3289 72.7024 17.3853C72.7589 17.4469 72.8153 17.5135 72.8614 17.5802C72.9076 17.652 72.9486 17.7238 72.9794 17.8007C73.0101 17.8828 73.0358 17.9597 73.0512 18.0417C73.066 18.1238 73.0768 18.211 73.0768 18.293C73.0768 18.6315 72.9378 18.9648 72.7024 19.2007C72.6404 19.2571 72.5742 19.3135 72.5076 19.3597C72.4358 19.4058 72.3635 19.4469 72.2871 19.4776C72.1307 19.5414 71.9636 19.5745 71.7947 19.5751ZM82.0512 18.934C81.7127 18.934 81.3845 18.7956 81.143 18.5597C81.086 18.4982 81.0331 18.4331 80.9845 18.3648C80.9383 18.293 80.8973 18.2212 80.866 18.1443C80.8031 17.9877 80.7702 17.8207 80.7691 17.652C80.7691 17.3135 80.9076 16.9853 81.143 16.7443C81.205 16.6879 81.2712 16.6315 81.3378 16.5853C81.4101 16.5392 81.4819 16.4981 81.5588 16.4674C81.6353 16.4366 81.7178 16.411 81.7999 16.3956C81.964 16.3597 82.1383 16.3597 82.3024 16.3956C82.384 16.411 82.4665 16.4366 82.5435 16.4674C82.6199 16.4981 82.6922 16.5392 82.764 16.5853C82.8306 16.6315 82.8968 16.6879 82.9589 16.7443C83.1942 16.9853 83.3332 17.3135 83.3332 17.652C83.3332 17.734 83.3224 17.8212 83.3076 17.9033C83.2922 17.9853 83.2665 18.0674 83.2358 18.1443C83.1999 18.2212 83.164 18.293 83.1178 18.3648C83.0717 18.4315 83.0153 18.4981 82.9589 18.5597C82.8968 18.6161 82.8306 18.6725 82.764 18.7187C82.6922 18.7648 82.6199 18.8058 82.5435 18.8366C82.3871 18.9004 82.22 18.9335 82.0512 18.934Z" fill="black"/>
</svg>
