<svg width="100" height="100" viewBox="0 0 100 100" fill="none" xmlns="http://www.w3.org/2000/svg">
<g clip-path="url(#clip0_867_20739)">
<path d="M59.1055 82.8505C60.0732 80.0236 63.2125 75.6652 66.5727 77.6615C66.5727 77.6615 69.3081 79.1854 69.8796 74.8651C69.8796 74.8651 71.9293 85.0602 62.0543 84.7173C62.0543 84.7173 64.2792 83.0943 64.2563 81.4256C62.6778 82.305 60.9116 82.7936 59.1055 82.8505Z" fill="#2DB5F9"/>
<path d="M12.1458 59.9763L12.382 60.3497C13.6016 62.0801 15.0239 63.6584 16.6185 65.051C20.3275 68.0887 24.9758 69.7449 29.77 69.7371H30.6767C34.0061 69.4661 37.2692 68.6555 40.3384 67.3369C38.9618 67.5578 37.5718 67.6851 36.1781 67.7179C33.8087 67.716 31.4663 67.2157 29.303 66.2495C27.1396 65.2834 25.2037 63.8729 23.6209 62.1098C19.6944 62.1421 15.7983 61.4177 12.1458 59.9763Z" fill="url(#paint0_linear_867_20739)"/>
<path d="M29.7623 28.1646C33.3424 28.1615 36.8626 29.0838 39.9813 30.8421C43.0999 32.6003 45.7112 35.1348 47.5617 38.1997C45.4161 36.2536 42.8071 34.8905 39.9843 34.2408C37.1614 33.5911 34.219 33.6765 31.4386 34.4889C35.2484 36.3253 40.4374 37.7273 47.5846 38.2149C47.5846 38.2149 47.2341 31.4106 38.5248 27.8522C26.3334 22.8919 24.6495 23.8748 21.5635 18.7087C21.1079 22.3185 22.0995 25.9619 24.3218 28.8428C26.0975 28.3777 27.9268 28.1497 29.7623 28.1646Z" fill="#F15A24"/>
<path d="M38.525 27.8522C34.357 26.1911 31.4235 25.1548 29.229 24.3624C29.796 25.7582 30.5663 27.0626 31.5149 28.2331C34.7922 28.5037 37.9585 29.5482 40.7535 31.2808C43.5485 33.0134 45.8923 35.3847 47.5923 38.1996C44.9842 35.8282 41.6987 34.3333 38.1973 33.925C41.0931 35.6527 44.1566 37.0824 47.3409 38.192H47.6075C47.6075 38.192 47.2418 31.4105 38.525 27.8522Z" fill="#ED1C24"/>
<path d="M47.5694 38.2148H47.6151C47.7523 37.4528 48.5676 31.5934 41.9385 26.4501C32.0482 18.7771 30.1205 18.0609 29.648 13.9996C28.8545 15.6007 28.4071 17.3509 28.3349 19.1363C28.2627 20.9218 28.5673 22.7024 29.229 24.3623C31.4158 25.1243 34.357 26.1529 38.5173 27.8521C47.2418 31.4105 47.5846 38.2148 47.5846 38.2148H47.5694Z" fill="#C1272D"/>
<path d="M77.583 31.5249C81.2946 31.5203 84.8827 32.8571 87.6866 35.289C90.928 35.4294 94.0132 36.7208 96.3882 38.9312C96.3882 38.9312 88.0752 26.8541 73.4227 31.8754C72.1097 32.3487 70.8526 32.9644 69.6738 33.7117C72.0637 32.2805 74.7973 31.5247 77.583 31.5249Z" fill="url(#paint1_linear_867_20739)"/>
<path d="M77.583 31.5249C74.798 31.522 72.0644 32.2751 69.6739 33.7041L70.1006 33.445C58.2597 40.417 43.7443 61.8434 23.6208 62.11C25.207 63.8662 27.1445 65.2695 29.3077 66.2291C31.4709 67.1886 33.8115 67.6829 36.178 67.68C37.5718 67.6472 38.9617 67.5199 40.3383 67.299C53.4288 61.9043 66.0012 49.0119 71.7083 42.7562C76.9963 36.9577 82.7949 34.9842 87.7095 35.2813C84.8986 32.8471 81.3015 31.5127 77.583 31.5249Z" fill="url(#paint2_linear_867_20739)"/>
<path d="M47.0131 73.0518C46.7483 73.9165 46.6072 74.8144 46.594 75.7186C46.5919 76.7654 46.7512 77.8063 47.0664 78.8046C46.8975 77.5604 47.0387 76.2938 47.4773 75.1173C47.916 73.9409 48.6386 72.891 49.5809 72.0612L49.6419 71.8326C50.3094 69.637 51.7637 67.7649 53.726 66.5751C53.1063 66.7743 52.4983 67.0084 51.9049 67.2761C50.7389 67.8545 49.7034 68.6652 48.8622 69.6585C48.021 70.6517 47.3917 71.8064 47.0131 73.0518Z" fill="url(#paint3_linear_867_20739)"/>
<path d="M100 50.2309C100.005 46.1667 98.7335 42.2036 96.3654 38.9005C93.9915 36.7068 90.916 35.4269 87.6867 35.2888C89.3647 36.74 90.7098 38.5362 91.6303 40.5547C92.5508 42.5732 93.0249 44.7665 93.0204 46.9849C93.0204 52.1739 91.1384 58.1096 85.035 61.3022C76.1506 65.9502 62.5191 63.7405 53.665 66.636C51.7071 67.8254 50.2559 69.6943 49.5885 71.8859L49.5276 72.1145C52.1183 69.8286 57.231 68.2056 67.2051 69.4933C74.3295 70.4077 79.9832 70.6591 84.8446 69.2647C89.5441 68.2393 93.6739 65.4561 96.3883 61.4851C98.733 58.2005 99.9955 54.2666 100 50.2309Z" fill="url(#paint4_linear_867_20739)"/>
<path opacity="0.49" d="M100 50.2309C100.005 46.1667 98.7335 42.2036 96.3654 38.9005C93.9915 36.7068 90.916 35.4269 87.6867 35.2888C89.3647 36.74 90.7098 38.5362 91.6303 40.5547C92.5508 42.5732 93.0249 44.7665 93.0204 46.9849C93.0204 52.1739 91.1384 58.1096 85.035 61.3022C76.1506 65.9502 62.5191 63.7405 53.665 66.636C51.7071 67.8254 50.2559 69.6943 49.5885 71.8859L49.5276 72.1145C52.1183 69.8286 57.231 68.2056 67.2051 69.4933C74.3295 70.4077 79.9832 70.6591 84.8446 69.2647C89.5441 68.2393 93.6739 65.4561 96.3883 61.4851C98.733 58.2005 99.9955 54.2666 100 50.2309Z" fill="url(#paint5_linear_867_20739)"/>
<path d="M55.8595 83.5286C53.5208 82.812 51.5557 81.2082 50.385 79.0605C49.2143 76.9128 48.9312 74.3921 49.5962 72.0382C48.6539 72.868 47.9313 73.9179 47.4926 75.0943C47.054 76.2708 46.9128 77.5374 47.0817 78.7816C47.5642 80.2916 48.4139 81.6583 49.5547 82.759C50.6955 83.8598 52.0917 84.6602 53.618 85.0884C55.1443 85.5166 56.7531 85.5593 58.2999 85.2126C59.8468 84.8659 61.2834 84.1406 62.481 83.1019C60.4009 84.0517 58.0443 84.2036 55.8595 83.5286Z" fill="url(#paint6_linear_867_20739)"/>
<path d="M63.0525 76.61C63.5927 76.2452 64.2219 76.034 64.8728 75.9992C65.5237 75.9643 66.1719 76.1069 66.748 76.4119C68.1424 77.0291 69.8949 74.6137 68.3786 72.4497C68.3786 72.4497 68.4777 74.6823 66.6794 74.6594C65.9554 74.6284 65.2363 74.7933 64.598 75.1366C63.9598 75.4798 63.4258 75.9889 63.0525 76.61Z" fill="#5FD2FF"/>
<path d="M72.9732 44.1732C70.6111 47.3963 67.1365 50.0937 66.7327 50.7566C66.3289 51.4195 67.4185 53.553 69.0186 53.7054C70.6187 53.8578 69.392 53.0882 69.2548 52.3338C69.1176 51.5795 69.7348 52.8139 71.6702 52.5243C73.6056 52.2348 70.9692 51.5185 71.1521 50.5432C71.335 49.5679 73.3237 47.7164 74.1161 45.8572C74.9086 43.998 76.2649 45.8572 75.5715 47.3125C75.2972 47.8916 77.7735 45.6895 76.5239 44.0132C75.2743 42.3369 74.3523 42.2912 72.9732 44.1732Z" fill="#219058"/>
<path d="M66.2299 51.2216C65.8794 51.5568 64.8584 52.3035 64.8584 52.3035C64.8584 52.3035 65.8642 53.6979 67.1443 53.6751C67.1443 53.6751 67.4186 53.5455 67.0224 53.1341C66.581 52.5853 66.3061 51.9217 66.2299 51.2216Z" fill="#219058"/>
<path d="M31.4386 34.4889C28.6534 33.2202 26.2149 31.2992 24.3295 28.8884C21.1962 29.7365 18.3051 31.3067 15.8877 33.4731C13.4704 35.6395 11.594 38.3419 10.4089 41.3639C9.22385 44.3859 8.76298 47.6434 9.06325 50.8755C9.36352 54.1077 10.4166 57.2245 12.1381 59.9765C15.793 61.4188 19.6917 62.1432 23.6209 62.11C21.6962 59.9817 20.3438 57.3994 19.6906 54.6053C19.0373 51.8112 19.1045 48.897 19.886 46.136C20.6674 43.375 22.1375 40.8578 24.1582 38.8205C26.1789 36.7833 28.6841 35.2928 31.4386 34.4889Z" fill="url(#paint7_linear_867_20739)"/>
<path d="M31.4768 28.2332C32.3988 29.5666 35.0504 31.8678 38.1745 33.9251C41.6731 34.3349 44.9557 35.8297 47.5618 38.1997C45.8611 35.3838 43.5161 33.0119 40.7197 31.2792C37.9233 29.5465 34.7554 28.5026 31.4768 28.2332Z" fill="#F7B852"/>
<path d="M31.4768 28.2329C30.9129 28.1872 30.3415 28.1644 29.77 28.1644C27.9308 28.1767 26.1014 28.4329 24.3296 28.9263C26.215 31.3371 28.6535 33.2581 31.4387 34.5268C33.6231 33.887 35.9147 33.6978 38.1745 33.9705C35.0504 31.8675 32.3988 29.5664 31.4768 28.2329Z" fill="#FF8431"/>
<path d="M43.0129 32.9649C41.4132 31.4633 39.508 30.3249 37.4277 29.6275C38.7688 32.1801 39.927 32.9649 43.0129 32.9649Z" fill="#FFFB69"/>
<path d="M37.1304 22.1069C38.1718 22.7415 39.1719 23.4413 40.1249 24.2023C40.3611 24.3851 39.6982 22.5793 38.9286 22.2364C38.3515 22.0336 37.7306 21.9889 37.1304 22.1069Z" fill="#C1272D"/>
<path d="M40.8262 24.7204C41.856 25.3725 42.8481 26.0822 43.7978 26.8462C44.0417 27.0215 43.3864 25.2156 42.6168 24.8651C42.0434 24.6586 41.4253 24.6086 40.8262 24.7204Z" fill="#C1272D"/>
<path d="M44.3005 27.2808C44.9305 27.8704 45.472 28.5479 45.9083 29.2923C46.0302 29.4676 45.9083 28.1113 45.4892 27.7227C45.1394 27.4721 44.729 27.3196 44.3005 27.2808Z" fill="#C1272D"/>
<path d="M28.2841 60.2279C28.1927 59.9308 29.3585 59.5498 29.6709 59.5345C30.2396 59.6275 30.79 59.8101 31.3015 60.0755C30.5835 60.347 29.8279 60.5063 29.0613 60.548C28.7829 60.4963 28.5182 60.3873 28.2841 60.2279Z" fill="#44C688"/>
<path d="M32.4827 59.2297C32.3836 59.0011 33.2827 58.5973 33.5342 58.5592C33.9966 58.5863 34.4518 58.6866 34.8829 58.8564C34.3311 59.1331 33.74 59.3232 33.1304 59.4202C32.9036 59.4024 32.683 59.3375 32.4827 59.2297Z" fill="#44C688"/>
<path d="M36.0029 57.9422C35.9039 57.7593 36.6049 57.3555 36.803 57.2945C37.1855 57.275 37.5687 57.3161 37.9383 57.4164C37.5179 57.6924 37.058 57.9031 36.5744 58.0413C36.379 58.0498 36.1841 58.016 36.0029 57.9422Z" fill="#44C688"/>
<path d="M38.7992 56.6695C38.6925 56.5095 39.3097 56.0904 39.4849 56.0218C39.8307 55.9667 40.183 55.9667 40.5288 56.0218C40.1562 56.3042 39.7425 56.5278 39.3021 56.6847C39.1352 56.714 38.964 56.7088 38.7992 56.6695Z" fill="#44C688"/>
<path d="M41.4052 55.2446C41.3062 55.1151 41.8167 54.7189 41.9691 54.6503C42.2694 54.6026 42.5755 54.6026 42.8758 54.6503C42.5678 54.9151 42.2208 55.131 41.8472 55.2904C41.6983 55.3059 41.5478 55.2903 41.4052 55.2446Z" fill="#44C688"/>
<path d="M24.0705 60.5632C24.0248 60.2279 25.3201 60.0298 25.6554 60.0679C26.2406 60.2645 26.7909 60.5525 27.286 60.9213C26.4818 61.087 25.6568 61.1281 24.8401 61.0432C24.5528 60.9387 24.2907 60.7752 24.0705 60.5632Z" fill="#44C688"/>
<path d="M24.8706 21.2687C25.753 22.0506 26.7921 22.6351 27.9184 22.9831C27.5433 21.8682 27.3982 20.6888 27.4917 19.5162C27.4917 19.4324 24.863 19.4705 24.4439 17.3141C24.3296 16.8798 23.9562 20.2324 24.8706 21.2687Z" fill="#C1272D"/>
<path d="M15.9251 71.0859C15.9621 70.7342 16.0728 70.3944 16.2501 70.0885C16.4273 69.7826 16.6671 69.5175 16.9537 69.3105L17.0376 69.2648C16.8213 69.2153 16.6025 69.1772 16.3823 69.1505C13.2506 68.6857 12.4505 70.5525 12.2905 72.6479C12.2905 72.7698 12.2905 72.8917 12.2905 73.006C12.6477 72.3757 13.1771 71.8602 13.8168 71.5201C14.4565 71.18 15.1799 71.0294 15.9022 71.0859H15.9251Z" fill="#F15A24"/>
<path d="M19.7425 70.3849C16.6261 68.4952 14.8736 68.3581 14.1802 73.6537C14.1802 73.6537 17.4566 71.063 19.011 72.7775C20.695 74.6443 22.9808 72.9222 21.7846 71.8403C21.1788 71.2578 20.4907 70.7675 19.7425 70.3849Z" fill="#F15A24"/>
<path d="M18.4548 71.0173C16.687 72.1908 16.687 74.9567 16.687 74.9567C16.687 74.9567 19.9101 73.2118 19.6587 72.1222C19.6077 71.8311 19.4621 71.565 19.2444 71.3652C19.0267 71.1654 18.7491 71.0431 18.4548 71.0173Z" fill="#F15A24"/>
<path d="M3.80981 49.2481C4.10674 49.0565 4.4407 48.9297 4.78993 48.8759C5.13916 48.822 5.49581 48.8424 5.83663 48.9357H5.92807C5.83144 48.7373 5.72462 48.544 5.60805 48.3566C3.97745 45.6516 2.02682 46.2002 0.289546 47.3813C0.182871 47.4498 0.0914355 47.526 0 47.6022C0.714929 47.4866 1.44801 47.5772 2.11332 47.8632C2.77863 48.1493 3.34862 48.6192 3.75648 49.2176L3.80981 49.2481Z" fill="#F15A24"/>
<path d="M7.11674 52.5017C5.98142 48.0061 5.06706 46.2688 0.723877 49.3777C0.723877 49.3777 4.44226 48.3109 4.86895 53.5989C5.06706 56.0982 7.47487 56.6011 7.44439 54.9857C7.4572 54.1461 7.34681 53.3092 7.11674 52.5017Z" fill="#F15A24"/>
<path d="M5.53193 50.0937C3.46701 49.6061 1.44019 51.4957 1.44019 51.4957C1.44019 51.4957 4.61757 51.3891 4.99855 53.3092C5.21952 54.3836 5.53193 50.0937 5.53193 50.0937Z" fill="#F15A24"/>
<path d="M71.7085 42.7637C73.7056 40.444 76.1065 38.5052 78.7948 37.0414C81.4171 35.6973 84.3137 34.9751 87.2602 34.9307L88.1059 35.6927H87.664C84.6579 35.4968 81.6529 36.0904 78.9471 37.4147C76.2322 38.7478 73.78 40.5599 71.7085 42.7637Z" fill="#29B36E"/>
<path d="M87.58 34.9613C89.2295 35.1167 90.8443 35.5306 92.3651 36.1881C93.8751 36.8302 95.2446 37.7621 96.3959 38.9312C95.1704 37.852 93.7435 37.026 92.1975 36.5005C90.8568 36.0768 89.475 35.7958 88.0753 35.6624L87.2295 34.9004L87.58 34.9613Z" fill="#6FD191"/>
<path d="M49.779 71.4441C50.2341 71.1233 50.7101 70.8331 51.2038 70.5755C51.5488 70.4004 51.9023 70.2428 52.263 70.103C52.6211 69.9507 53.0249 69.8364 53.3526 69.7145C54.8178 69.2656 56.3279 68.9794 57.8558 68.8611C60.8875 68.665 63.9314 68.785 66.9384 69.2192C69.9214 69.6586 72.9249 69.9459 75.9371 70.0802C78.9539 70.234 81.9767 69.9361 84.9054 69.1963C81.985 69.9913 78.9622 70.3457 75.9371 70.2478C72.915 70.1701 69.8988 69.9386 66.9003 69.5544C63.9169 69.1896 60.9036 69.136 57.9091 69.3944C56.4258 69.5282 54.9616 69.8246 53.5431 70.2783C53.1925 70.4002 52.8421 70.5145 52.5068 70.6669C52.1664 70.8075 51.8332 70.9652 51.5086 71.1393C50.8651 71.4825 50.2619 71.8965 49.7104 72.3737L49.4666 72.587C49.5437 72.1992 49.6481 71.8173 49.779 71.4441Z" fill="#C83AD7"/>
<path d="M32.0025 35.8298C29.0918 36.4698 29.5414 38.7786 29.5414 38.7786C29.5414 38.7786 30.4634 37.6661 35.5304 37.0642C34.3241 36.7452 33.1446 36.3325 32.0025 35.8298Z" fill="#C1272D"/>
<path d="M47.0666 78.8197C46.9704 78.1789 46.9576 77.5284 47.0285 76.8843C47.0931 76.2277 47.2337 75.5808 47.4475 74.9566C47.6623 74.3289 47.9486 73.7281 48.3009 73.166C48.668 72.6129 49.0948 72.1019 49.5734 71.642L49.7791 71.4515C49.7791 71.4515 49.4896 72.3735 49.4591 72.6021C49.1859 72.8796 48.9313 73.1748 48.6972 73.486C47.9298 74.495 47.408 75.669 47.1732 76.9148C47.0559 77.5425 47.02 78.1828 47.0666 78.8197Z" fill="#FBA9FF"/>
<path d="M22.9506 62.11C21.1526 59.9721 19.9048 57.4268 19.316 54.6961C19.0038 53.2707 18.8783 51.8107 18.9426 50.353L19.0036 49.2633L19.156 48.1814C19.2086 47.8223 19.2798 47.4663 19.3693 47.1146C19.4395 46.7589 19.5311 46.4078 19.6436 46.0631C20.0494 44.6729 20.6388 43.343 21.3962 42.1085C21.769 41.4902 22.1787 40.8948 22.6229 40.3255L23.3239 39.5026C23.5525 39.2283 23.8268 38.9845 24.0859 38.7406C25.112 37.7335 26.2615 36.8605 27.5071 36.1424C28.7532 35.4381 30.078 34.8831 31.4541 34.4889C30.0964 34.9238 28.7946 35.5172 27.5757 36.2566C26.3678 37.0029 25.2593 37.899 24.2764 38.9235C24.0402 39.1826 23.7811 39.4264 23.5601 39.6855L22.8591 40.5313C22.4403 41.102 22.0561 41.6974 21.7086 42.3142C21.0064 43.5379 20.4708 44.85 20.1161 46.2155C20.0163 46.5532 19.9374 46.8967 19.8799 47.2441C19.8108 47.5892 19.7599 47.9376 19.7275 48.288L19.6132 49.3319V50.3834C19.5949 51.783 19.7588 53.1789 20.1008 54.5361C20.7814 57.2453 22.1366 59.7381 24.0402 61.7824L24.345 62.11C24.345 62.11 23.202 62.1329 22.9506 62.11Z" fill="#FF737D"/>
<path d="M40.3383 67.3369C38.8373 67.6721 37.3046 67.8458 35.7666 67.8551C34.215 67.8114 32.6767 67.555 31.1948 67.0931C29.7118 66.6527 28.281 66.0523 26.9278 65.3025C25.5558 64.5517 24.3027 63.6016 23.2094 62.4832L22.8894 62.1479H24.2457C25.1492 63.1138 26.1736 63.959 27.2935 64.6624C28.5933 65.4492 29.9757 66.0906 31.4158 66.575C32.8311 67.0909 34.3103 67.4113 35.8123 67.5274C37.3235 67.6208 38.8403 67.557 40.3383 67.3369Z" fill="#FFF4C0"/>
</g>
<defs>
<linearGradient id="paint0_linear_867_20739" x1="26.2421" y1="69.2799" x2="26.2421" y2="61.3936" gradientUnits="userSpaceOnUse">
<stop stop-color="#FFFA8F"/>
<stop offset="1" stop-color="#FB784B"/>
</linearGradient>
<linearGradient id="paint1_linear_867_20739" x1="85.0121" y1="34.6794" x2="87.9228" y2="32.2868" gradientUnits="userSpaceOnUse">
<stop stop-color="#5BCB99"/>
<stop offset="1" stop-color="#85A8E8"/>
</linearGradient>
<linearGradient id="paint2_linear_867_20739" x1="29.9375" y1="63.5883" x2="120.619" y2="16.5371" gradientUnits="userSpaceOnUse">
<stop stop-color="#34E28B"/>
<stop offset="1"/>
</linearGradient>
<linearGradient id="paint3_linear_867_20739" x1="46.594" y1="72.7013" x2="53.726" y2="72.7013" gradientUnits="userSpaceOnUse">
<stop stop-color="#C297FF"/>
<stop offset="1" stop-color="#AE31BB"/>
</linearGradient>
<linearGradient id="paint4_linear_867_20739" x1="17.5328" y1="107.058" x2="107.696" y2="36.7365" gradientUnits="userSpaceOnUse">
<stop/>
<stop offset="1" stop-color="#D23DE2"/>
</linearGradient>
<linearGradient id="paint5_linear_867_20739" x1="84.2274" y1="30.7094" x2="80.5776" y2="43.0304" gradientUnits="userSpaceOnUse">
<stop/>
<stop offset="1" stop-opacity="0"/>
</linearGradient>
<linearGradient id="paint6_linear_867_20739" x1="50.8534" y1="78.3854" x2="76.4935" y2="84.5954" gradientUnits="userSpaceOnUse">
<stop stop-color="#2DB5F9"/>
<stop offset="1"/>
</linearGradient>
<linearGradient id="paint7_linear_867_20739" x1="30.8138" y1="13.8244" x2="13.8754" y2="60.3575" gradientUnits="userSpaceOnUse">
<stop/>
<stop offset="0.21" stop-color="#48080A"/>
<stop offset="0.42" stop-color="#891014"/>
<stop offset="0.61" stop-color="#BC151B"/>
<stop offset="0.78" stop-color="#E01A21"/>
<stop offset="0.91" stop-color="#F71C24"/>
<stop offset="1" stop-color="#FF1D25"/>
</linearGradient>
<clipPath id="clip0_867_20739">
<rect width="100" height="100" fill="white"/>
</clipPath>
</defs>
</svg>
