<svg width="100" height="100" viewBox="0 0 100 100" fill="none" xmlns="http://www.w3.org/2000/svg">
<path d="M22.1247 65.6485C22.8414 50.0235 29.9706 40.6527 32.7456 37.5693C19.1622 46.1443 10.1414 61.1443 6.25391 72.186V76.8527C6.25391 89.636 17.6081 99.9985 31.6247 99.9985C34.7469 100.003 37.8469 99.4742 40.7914 98.436C42.2622 97.936 43.7081 97.4027 45.1206 96.861C48.9247 93.1152 51.9956 88.9027 54.4664 84.3943C34.1456 94.5235 21.2414 84.6943 22.1206 65.6443L22.1247 65.6485Z" fill="#1E37FC"/>
<path d="M94.0414 42.8476C88.9914 39.0935 76.9206 32.831 63.2206 31.181C64.4498 46.981 63.6081 67.706 54.4706 84.4018C51.982 88.9933 48.8317 93.1938 45.1206 96.8685C60.8039 90.8351 73.2289 82.4643 80.9373 75.1226C92.6873 63.9435 94.9081 53.5476 94.9414 47.3726C94.9517 45.8215 94.6455 44.2847 94.0414 42.856V42.8476Z" fill="#37E1BE"/>
<path d="M59.5958 7.77935C53.9792 2.91685 46.8667 0.000183105 39.125 0.000183105C31.3833 0.000183105 24.5125 2.82102 18.9375 7.52935C11.6292 13.7085 6.77917 23.1543 6.25 33.8543V72.1918C10.1333 61.1502 19.1542 46.1502 32.7375 37.5793C34.8208 36.2543 37.0083 35.1002 39.275 34.1252C47.1208 30.7877 55.4333 30.2418 63.2167 31.1835C62.2917 19.3918 60.225 10.3418 59.5917 7.77935H59.5958Z" fill="#A569FF"/>
<path d="M72.1042 20.6718C70.5984 19.1581 69.0984 17.6386 67.6042 16.1134C66.7626 15.2259 65.9459 14.3676 65.1626 13.5218L59.6084 7.78009C60.2376 10.3426 62.3084 19.3884 63.2292 31.1843C76.9292 32.8301 89.0001 39.0926 94.0459 42.8509C88.6042 37.5384 79.5667 28.3218 72.1042 20.6718Z" fill="#1E37FC"/>
</svg>
