<svg width="100" height="100" viewBox="0 0 100 100" fill="none" xmlns="http://www.w3.org/2000/svg">
<g clip-path="url(#clip0_867_19548)">
<path d="M23.1613 49.0813C24.3248 47.0511 23.6119 44.4802 21.5691 43.3391C19.5263 42.198 16.9271 42.9187 15.7636 44.9489L2.1066 68.7803C0.943164 70.8105 1.65604 73.3813 3.69886 74.5225C5.74168 75.6636 8.34086 74.9428 9.5043 72.9126L23.1613 49.0813Z" fill="#C5F74F"/>
<path d="M52.5983 30.8083C53.7617 28.7781 53.0488 26.2073 51.006 25.0662C48.9632 23.9251 46.364 24.6458 45.2006 26.676L31.5435 50.5074C30.3801 52.5376 31.093 55.1084 33.1358 56.2495C35.1786 57.3906 37.7778 56.6699 38.9412 54.6397L52.5983 30.8083Z" fill="#C5F74F"/>
<path d="M97.8934 30.8089C99.0569 28.7787 98.344 26.2079 96.3012 25.0668C94.2583 23.9257 91.6592 24.6464 90.4957 26.6766L76.8387 50.508C75.6752 52.5382 76.3881 55.109 78.4309 56.2501C80.4737 57.3912 83.0729 56.6705 84.2364 54.6403L97.8934 30.8089Z" fill="#C5F74F"/>
<path d="M68.4469 49.0813C69.6103 47.0511 68.8975 44.4802 66.8546 43.3391C64.8118 42.198 62.2126 42.9187 61.0492 44.9489L47.3921 68.7803C46.2287 70.8105 46.9416 73.3813 48.9844 74.5225C51.0272 75.6636 53.6264 74.9428 54.7898 72.9126L68.4469 49.0813Z" fill="#C5F74F"/>
</g>
<defs>
<clipPath id="clip0_867_19548">
<rect width="100" height="100" fill="white"/>
</clipPath>
</defs>
</svg>
