<svg width="100" height="100" viewBox="0 0 100 100" fill="none" xmlns="http://www.w3.org/2000/svg">
<path d="M22.8322 79.1L13.153 81.3083V18.6237L22.8322 20.8362V79.1Z" fill="#F68536"/>
<path d="M34.9087 82.7998L22.8322 86.2318V13.786L34.9087 17.2137V82.7998ZM50.4004 86.6012L34.9087 92.2707V7.74711L50.4004 13.414V86.6012ZM91.8225 79.289L50.4004 100V0L91.8225 20.711V79.289Z" fill="#F68536"/>
<path d="M42.1433 4.12914L50.4003 0V100L42.1433 95.8722V4.12914ZM28.5168 10.9416L34.9087 7.74581V92.2542L28.5168 89.0584V10.9416ZM17.7406 16.3305L22.8322 13.7847V86.2153L17.7406 83.6679V16.3305ZM13.153 18.6237L9.00024 20.7V79.3013L13.153 81.3763V18.6237Z" fill="#9D5025"/>
</svg>
