<svg width="100" height="100" viewBox="0 0 100 100" fill="none" xmlns="http://www.w3.org/2000/svg">
<g clip-path="url(#clip0_867_21525)">
<path d="M90.2514 74.4212C88.9182 75.1184 87.5434 75.7328 86.1346 76.2608C81.6506 77.9386 76.9005 78.7934 72.1128 78.784C53.6306 78.784 37.5309 66.0706 37.5309 49.7561C37.5546 47.5679 38.1618 45.4257 39.2899 43.5506C40.418 41.6755 42.026 40.1354 43.9481 39.0894C27.2313 39.7924 22.9349 57.2123 22.9349 67.4181C22.9349 96.2741 49.5295 99.1996 55.2593 99.1996C58.3488 99.1996 63.0084 98.3012 65.805 97.4185L66.3166 97.2467C77.0781 93.5264 86.2522 86.2531 92.3292 76.6241C92.5154 76.3308 92.5985 75.9839 92.5654 75.6381C92.5323 75.2924 92.385 74.9675 92.1467 74.7148C91.9083 74.4622 91.5926 74.2961 91.2494 74.243C90.9061 74.1898 90.555 74.2525 90.2514 74.4212Z" fill="url(#paint0_linear_867_21525)"/>
<path opacity="0.35" d="M90.2514 74.4212C88.9182 75.1184 87.5434 75.7328 86.1346 76.2608C81.6506 77.9386 76.9005 78.7934 72.1128 78.784C53.6306 78.784 37.5309 66.0706 37.5309 49.7561C37.5546 47.5679 38.1618 45.4257 39.2899 43.5506C40.418 41.6755 42.026 40.1354 43.9481 39.0894C27.2313 39.7924 22.9349 57.2123 22.9349 67.4181C22.9349 96.2741 49.5295 99.1996 55.2593 99.1996C58.3488 99.1996 63.0084 98.3012 65.805 97.4185L66.3166 97.2467C77.0781 93.5264 86.2522 86.2531 92.3292 76.6241C92.5154 76.3308 92.5985 75.9839 92.5654 75.6381C92.5323 75.2924 92.385 74.9675 92.1467 74.7148C91.9083 74.4622 91.5926 74.2961 91.2494 74.243C90.9061 74.1898 90.555 74.2525 90.2514 74.4212Z" fill="url(#paint1_radial_867_21525)"/>
<path d="M41.2961 94.294C37.8124 92.1317 34.7933 89.2985 32.4143 85.959C29.7029 82.2441 27.837 77.9809 26.9476 73.4686C26.0582 68.9562 26.1668 64.3039 27.2658 59.838C28.3648 55.3721 30.4276 51.2006 33.3094 47.6163C36.1913 44.032 39.8224 41.1216 43.9482 39.0893C45.1668 38.5151 47.2486 37.4762 50.0178 37.5269C51.9688 37.5411 53.89 38.007 55.6308 38.8879C57.3717 39.7688 58.8848 41.0409 60.0518 42.6045C61.6291 44.7104 62.4987 47.2619 62.5359 49.8927C62.5359 49.8107 72.0895 18.8025 31.2895 18.8025C14.143 18.8025 0.0430545 35.0741 0.0430545 49.3498C-0.0245786 56.9015 1.59121 64.3734 4.77298 71.2223C9.97288 82.3171 19.0661 91.1159 30.3259 95.948C41.5857 100.78 54.2279 101.309 65.8519 97.4342C61.7819 98.7175 57.482 99.1027 53.2486 98.5632C49.0154 98.0238 44.9494 96.5725 41.3313 94.3096L41.2961 94.294Z" fill="url(#paint2_linear_867_21525)"/>
<path opacity="0.41" d="M41.2961 94.294C37.8124 92.1317 34.7933 89.2985 32.4143 85.959C29.7029 82.2441 27.837 77.9809 26.9476 73.4686C26.0582 68.9562 26.1668 64.3039 27.2658 59.838C28.3648 55.3721 30.4276 51.2006 33.3094 47.6163C36.1913 44.032 39.8224 41.1216 43.9482 39.0893C45.1668 38.5151 47.2486 37.4762 50.0178 37.5269C51.9688 37.5411 53.89 38.007 55.6308 38.8879C57.3717 39.7688 58.8848 41.0409 60.0518 42.6045C61.6291 44.7104 62.4987 47.2619 62.5359 49.8927C62.5359 49.8107 72.0895 18.8025 31.2895 18.8025C14.143 18.8025 0.0430545 35.0741 0.0430545 49.3498C-0.0245786 56.9015 1.59121 64.3734 4.77298 71.2223C9.97288 82.3171 19.0661 91.1159 30.3259 95.948C41.5857 100.78 54.2279 101.309 65.8519 97.4342C61.7819 98.7175 57.482 99.1027 53.2486 98.5632C49.0154 98.0238 44.9494 96.5725 41.3313 94.3096L41.2961 94.294Z" fill="url(#paint3_radial_867_21525)"/>
<path d="M59.4971 58.1417C59.1807 58.5518 58.2082 59.1182 58.2082 60.3524C58.2082 61.3718 58.8722 62.3522 60.0517 63.1763C65.6682 67.0821 76.2569 66.5665 76.2842 66.5665C80.4459 66.5566 84.5288 65.4303 88.1071 63.3052C91.7168 61.1975 94.7128 58.1826 96.7976 54.5595C98.8825 50.9365 99.9839 46.8314 99.9924 42.6513C100.094 33.8984 96.8678 28.0788 95.5632 25.501C87.2869 9.31143 69.4217 2.44754e-07 49.9943 2.44754e-07C36.8559 -0.0012989 24.245 5.16932 14.8892 14.3935C5.53345 23.6178 0.184758 36.1541 0 49.2912C0.187478 35.0194 14.3734 23.4934 31.2464 23.4934C32.6134 23.4934 40.4094 23.6262 47.6508 27.4265C54.0329 30.7777 57.3762 34.8241 59.7002 38.8354C62.114 43.0028 62.5436 48.2679 62.5436 50.3653C62.5436 52.4627 61.4734 55.5717 59.4971 58.1417Z" fill="url(#paint4_radial_867_21525)"/>
<path d="M59.4971 58.1417C59.1807 58.5518 58.2082 59.1182 58.2082 60.3524C58.2082 61.3718 58.8722 62.3522 60.0517 63.1763C65.6682 67.0821 76.2569 66.5665 76.2842 66.5665C80.4459 66.5566 84.5288 65.4303 88.1071 63.3052C91.7168 61.1975 94.7128 58.1826 96.7976 54.5595C98.8825 50.9365 99.9839 46.8314 99.9924 42.6513C100.094 33.8984 96.8678 28.0788 95.5632 25.501C87.2869 9.31143 69.4217 2.44754e-07 49.9943 2.44754e-07C36.8559 -0.0012989 24.245 5.16932 14.8892 14.3935C5.53345 23.6178 0.184758 36.1541 0 49.2912C0.187478 35.0194 14.3734 23.4934 31.2464 23.4934C32.6134 23.4934 40.4094 23.6262 47.6508 27.4265C54.0329 30.7777 57.3762 34.8241 59.7002 38.8354C62.114 43.0028 62.5436 48.2679 62.5436 50.3653C62.5436 52.4627 61.4734 55.5717 59.4971 58.1417Z" fill="url(#paint5_radial_867_21525)"/>
</g>
<defs>
<linearGradient id="paint0_linear_867_21525" x1="22.9349" y1="69.1523" x2="92.5909" y2="69.1523" gradientUnits="userSpaceOnUse">
<stop stop-color="#0C59A4"/>
<stop offset="1" stop-color="#114A8B"/>
</linearGradient>
<radialGradient id="paint1_radial_867_21525" cx="0" cy="0" r="1" gradientUnits="userSpaceOnUse" gradientTransform="translate(61.407 69.7012) scale(37.2535 35.3908)">
<stop offset="0.72" stop-opacity="0"/>
<stop offset="0.95" stop-opacity="0.53"/>
<stop offset="1"/>
</radialGradient>
<linearGradient id="paint2_linear_867_21525" x1="59.6573" y1="38.9369" x2="16.1505" y2="86.326" gradientUnits="userSpaceOnUse">
<stop stop-color="#1B9DE2"/>
<stop offset="0.16" stop-color="#1595DF"/>
<stop offset="0.67" stop-color="#0680D7"/>
<stop offset="1" stop-color="#0078D4"/>
</linearGradient>
<radialGradient id="paint3_radial_867_21525" cx="0" cy="0" r="1" gradientTransform="matrix(8.39201 -55.3873 -44.7574 -6.71362 27.5729 77.7288)" gradientUnits="userSpaceOnUse">
<stop offset="0.76" stop-opacity="0"/>
<stop offset="0.95" stop-opacity="0.5"/>
<stop offset="1"/>
</radialGradient>
<radialGradient id="paint4_radial_867_21525" cx="0" cy="0" r="1" gradientTransform="matrix(-3.16261 79.0651 168.409 6.32521 10.1014 18.5044)" gradientUnits="userSpaceOnUse">
<stop stop-color="#35C1F1"/>
<stop offset="0.11" stop-color="#34C1ED"/>
<stop offset="0.23" stop-color="#2FC2DF"/>
<stop offset="0.31" stop-color="#2BC3D2"/>
<stop offset="0.67" stop-color="#36C752"/>
</radialGradient>
<radialGradient id="paint5_radial_867_21525" cx="0" cy="0" r="1" gradientTransform="matrix(10.6453 36.4983 29.6549 -8.74438 93.7674 30.2333)" gradientUnits="userSpaceOnUse">
<stop stop-color="#66EB6E"/>
<stop offset="1" stop-color="#66EB6E" stop-opacity="0"/>
</radialGradient>
<clipPath id="clip0_867_21525">
<rect width="100" height="100" fill="white"/>
</clipPath>
</defs>
</svg>
