<svg width="100" height="100" viewBox="0 0 100 100" fill="none" xmlns="http://www.w3.org/2000/svg">
<g clip-path="url(#clip0_867_19884)">
<path d="M100 52.1966C100 43.828 94.8015 36.4738 86.9824 33.6421C87.3206 31.8669 87.4897 30.0917 87.4897 28.2744C87.4897 12.6784 74.8101 -0.0012207 59.2565 -0.0012207C50.1271 -0.0012207 41.6738 4.35212 36.3484 11.7063C33.7279 9.67757 30.5159 8.57869 27.1769 8.57869C18.8928 8.57869 12.1726 15.2989 12.1726 23.5829C12.1726 25.4003 12.5107 27.1756 13.1025 28.8238C5.32563 31.6134 0.000183105 39.0943 0.000183105 47.4205C0.000183105 55.8314 5.2411 63.1856 13.0602 66.0175C12.7221 67.7504 12.553 69.5677 12.553 71.385C12.553 86.9389 25.1905 99.5762 40.7441 99.5762C49.8735 99.5762 58.3265 95.1807 63.6096 87.8263C66.2301 89.8974 69.4423 91.0385 72.7813 91.0385C81.0652 91.0385 87.7856 84.3184 87.7856 76.0343C87.7856 74.217 87.4474 72.4418 86.8556 70.7933C94.6324 68.004 100 60.523 100 52.1966Z" fill="white"/>
<path d="M39.3061 42.8995L61.1995 52.8741L83.2623 33.5165C83.6002 31.9104 83.727 30.3466 83.727 28.6558C83.727 15.0465 72.6535 3.9729 59.044 3.9729C50.8869 3.9729 43.3212 7.98812 38.7143 14.7083L35.0374 33.7701L39.3061 42.8995Z" fill="#FED10A"/>
<path d="M16.6533 66.06C16.3151 67.6661 16.1884 69.3143 16.1884 71.0048C16.1884 84.6567 27.3042 95.7302 40.9559 95.7302C49.1553 95.7302 56.8054 91.6727 61.4125 84.9102L65.0472 65.9332L60.1867 56.6347L38.2086 46.6177L16.6533 66.06Z" fill="#24BBB1"/>
<path d="M16.525 28.19L31.5293 31.7402L34.826 14.7072C32.7972 13.1434 30.2614 12.2981 27.6409 12.2981C21.132 12.2981 15.8065 17.5813 15.8065 24.1324C15.8065 25.5271 16.0601 26.922 16.525 28.19Z" fill="#EF5098"/>
<path d="M15.2172 31.7817C8.53924 33.9793 3.84778 40.4038 3.84778 47.4621C3.84778 54.3513 8.11658 60.4799 14.4987 62.9313L35.547 43.9119L31.7007 35.6701L15.2172 31.7817Z" fill="#1BA9F5"/>
<path d="M65.2163 84.9091C67.2874 86.4729 69.7811 87.3605 72.3593 87.3605C78.8682 87.3605 84.1936 82.0772 84.1936 75.5262C84.1936 74.0892 83.9401 72.6942 83.4751 71.4263L68.5132 67.9182L65.2163 84.9091Z" fill="#93C83E"/>
<path d="M68.2576 63.9885L84.7411 67.8345C91.4615 65.6367 96.1105 59.2124 96.1105 52.1118C96.1105 45.2649 91.8418 39.094 85.4596 36.6849L63.9042 55.5776L68.2576 63.9885Z" fill="#0077CC"/>
</g>
<defs>
<clipPath id="clip0_867_19884">
<rect width="100" height="100" fill="white"/>
</clipPath>
</defs>
</svg>
