<svg width="100" height="100" viewBox="0 0 100 100" fill="none" xmlns="http://www.w3.org/2000/svg">
<path d="M36.5472 21.4935C23.4791 19.1134 13.1463 21.6052 9.02834 28.737C5.9554 34.059 6.83263 41.1162 11.1573 48.6597C11.2448 48.8125 11.3616 48.9465 11.5009 49.0542C11.6403 49.1618 11.7994 49.241 11.9694 49.2871C12.1393 49.3332 12.3167 49.3454 12.4913 49.3229C12.666 49.3004 12.8345 49.2437 12.9872 49.1561C13.2956 48.9791 13.5211 48.6869 13.6142 48.3438C13.7073 48.0006 13.6603 47.6345 13.4836 47.3259C9.58751 40.5316 8.82821 34.4411 11.3496 30.077C14.77 24.1523 23.9854 21.9298 36.066 24.1305C36.2844 24.1736 36.5101 24.1618 36.7227 24.0959C36.9354 24.03 37.1283 23.9122 37.284 23.7532C37.4398 23.5941 37.5534 23.3988 37.6148 23.1848C37.6762 22.9709 37.6834 22.745 37.6356 22.5276C37.5779 22.2662 37.4433 22.028 37.2491 21.8438C37.0549 21.6595 36.81 21.5376 36.5459 21.4938L36.5472 21.4935ZM17.953 57.8278C23.2366 63.6349 30.1016 69.0813 37.9308 73.602C56.8867 84.5464 77.0673 87.4717 87.0126 80.69C87.299 80.4869 87.4943 80.1794 87.5564 79.8338C87.6186 79.4882 87.5426 79.132 87.3448 78.8418C87.147 78.5516 86.8433 78.3507 86.4989 78.2821C86.1545 78.2136 85.7969 78.283 85.5031 78.4753C76.6016 84.5451 57.4317 81.766 39.2711 71.2807C31.6752 66.8948 25.0281 61.6214 19.9357 56.0247C19.7586 55.8238 19.5255 55.6805 19.2663 55.6133C19.007 55.546 18.7336 55.5579 18.4812 55.6473C18.2714 55.7219 18.0834 55.8475 17.9344 56.0129C17.7853 56.1783 17.6798 56.3783 17.6273 56.5947C17.5749 56.8111 17.5772 57.0372 17.6341 57.2525C17.691 57.4678 17.8006 57.6655 17.953 57.8278Z" fill="#2DD0ED"/>
<path d="M83.8411 56.1977C92.3976 46.0896 95.3857 35.9223 91.2766 28.8047C88.2528 23.5676 81.8597 20.8024 73.3647 20.6921C73.0094 20.6876 72.6667 20.8243 72.4121 21.0722C72.1574 21.3201 72.0116 21.6589 72.0066 22.0143C72.0027 22.2794 72.0777 22.5397 72.2221 22.7621C72.3664 22.9846 72.5736 23.159 72.8174 23.2634C72.9791 23.333 73.153 23.37 73.329 23.3724C80.9696 23.4712 86.4778 25.8539 88.9556 30.145C92.3681 36.0571 89.7044 45.1238 81.7956 54.4666C81.6779 54.6003 81.588 54.7561 81.5312 54.925C81.4744 55.0939 81.4519 55.2724 81.465 55.4501C81.4781 55.6277 81.5265 55.801 81.6074 55.9598C81.6883 56.1185 81.8001 56.2595 81.9362 56.3745C82.0722 56.4893 82.2298 56.5759 82.3997 56.6292C82.5696 56.6825 82.7484 56.7015 82.9257 56.6851C83.103 56.6686 83.2752 56.6171 83.4324 56.5334C83.5895 56.4497 83.7285 56.3356 83.8411 56.1977ZM61.8509 21.94C54.1139 23.598 45.8795 26.8388 37.9718 31.4043C18.4019 42.7028 5.63628 59.3615 7.40992 71.4421C7.43198 71.6192 7.48919 71.7901 7.5782 71.9448C7.6672 72.0995 7.78621 72.2348 7.92823 72.3429C8.07025 72.451 8.23243 72.5296 8.40524 72.5741C8.57806 72.6186 8.75803 72.6282 8.93459 72.6022C9.11116 72.5763 9.28076 72.5153 9.43344 72.4229C9.58612 72.3305 9.7188 72.2086 9.82371 72.0642C9.92862 71.9198 10.0036 71.7559 10.0443 71.5822C10.0851 71.4084 10.0906 71.2283 10.0608 71.0523C8.48729 60.3273 20.5871 44.5352 39.3108 33.7256C46.9823 29.2961 54.9565 26.1591 62.4127 24.5598C62.7497 24.4752 63.0406 24.263 63.2241 23.968C63.4077 23.6731 63.4696 23.3183 63.3967 22.9786C63.3239 22.6389 63.122 22.3408 62.8337 22.147C62.5453 21.9533 62.193 21.879 61.8509 21.94Z" fill="#2DD0ED"/>
<path d="M30.1476 79.8167C34.6233 92.3079 41.9411 100 50.1719 100C56.1736 100 61.7267 95.909 66.0574 88.7054C66.1545 88.5545 66.2203 88.3857 66.251 88.2089C66.2817 88.0321 66.2766 87.8509 66.236 87.6761C66.1853 87.4571 66.0802 87.2544 65.9306 87.0867C65.7809 86.919 65.5914 86.7916 65.3796 86.7164C65.1678 86.6411 64.9405 86.6203 64.7185 86.656C64.4966 86.6917 64.2872 86.7826 64.1096 86.9205C63.9678 87.0305 63.8496 87.1676 63.7619 87.3242C59.8695 93.7981 55.0886 97.321 50.1719 97.321C43.3363 97.321 36.8075 90.4599 32.6716 78.9127C32.6148 78.7436 32.525 78.5875 32.4072 78.4534C32.2895 78.3194 32.1462 78.2102 31.9858 78.1321C31.8253 78.0543 31.651 78.0092 31.4729 77.9995C31.2948 77.9901 31.1166 78.0163 30.9488 78.0766C30.7809 78.1368 30.6268 78.23 30.4953 78.3505C30.3639 78.471 30.2578 78.6166 30.1833 78.7786C30.1087 78.9406 30.0672 79.1158 30.0612 79.2941C30.0554 79.4724 30.0852 79.6501 30.1489 79.8167H30.1476ZM71.014 77.3723C73.33 69.9728 74.5729 61.4342 74.5729 52.5366C74.5729 30.3373 66.8038 11.1994 55.7363 6.28504C55.4128 6.14898 55.0489 6.14518 54.7227 6.27447C54.3965 6.40377 54.134 6.65584 53.9916 6.97654C53.8492 7.29725 53.8382 7.66101 53.9611 7.9897C54.084 8.31839 54.3308 8.58579 54.6487 8.73447C64.5196 13.118 71.8939 31.2799 71.8939 52.5366C71.8939 61.1674 70.6884 69.4367 68.4569 76.5723C68.3992 76.7415 68.3759 76.9205 68.3886 77.0988C68.4012 77.2772 68.4494 77.4512 68.5305 77.6105C68.6524 77.8506 68.8438 78.0484 69.0798 78.1781C69.3158 78.3078 69.5854 78.3635 69.8534 78.3378C70.1215 78.3121 70.3756 78.2062 70.5826 78.034C70.7896 77.8618 70.94 77.6312 71.014 77.3723ZM96.2513 76.0604C96.2567 75.2147 96.0948 74.3763 95.7749 73.5935C95.455 72.8106 94.9834 72.0988 94.3874 71.4989C93.7913 70.899 93.0824 70.4229 92.3016 70.098C91.5208 69.7732 90.6835 69.6059 89.8378 69.6059C88.9921 69.606 88.1548 69.7732 87.374 70.0981C86.5932 70.423 85.8844 70.8991 85.2883 71.499C84.6922 72.099 84.2207 72.8108 83.9008 73.5937C83.581 74.3766 83.4191 75.215 83.4245 76.0606C83.4354 77.7545 84.1159 79.3752 85.3175 80.5691C86.5191 81.763 88.1442 82.433 89.838 82.433C91.5319 82.433 93.157 81.7628 94.3585 80.5689C95.5601 79.375 96.2405 77.7542 96.2513 76.0604ZM93.571 76.0604C93.5708 77.0504 93.1774 77.9999 92.4773 78.6999C91.7773 79.4 90.8278 79.7934 89.8378 79.7936C89.0995 79.7936 88.3778 79.5746 87.764 79.1644C87.1501 78.7542 86.6717 78.1712 86.3892 77.4891C86.1067 76.807 86.0328 76.0564 86.1768 75.3323C86.3209 74.6082 86.6764 73.9431 87.1984 73.421C87.7205 72.899 88.3856 72.5435 89.1097 72.3994C89.8338 72.2554 90.5844 72.3293 91.2665 72.6118C91.9486 72.8943 92.5316 73.3727 92.9418 73.9865C93.352 74.6004 93.571 75.3221 93.571 76.0604ZM10.4135 82.4739C11.2558 82.474 12.0898 82.3082 12.868 81.9859C13.6462 81.6636 14.3532 81.1912 14.9488 80.5957C15.5444 80.0001 16.0168 79.293 16.3391 78.5149C16.6613 77.7367 16.8271 76.9026 16.827 76.0604C16.8271 75.2181 16.6613 74.3841 16.339 73.6059C16.0167 72.8277 15.5442 72.1207 14.9486 71.5251C14.353 70.9295 13.646 70.4571 12.8678 70.1348C12.0896 69.8126 11.2555 69.6467 10.4133 69.6469C9.57102 69.6468 8.73703 69.8127 7.95891 70.135C7.18078 70.4573 6.47377 70.9297 5.87823 71.5253C5.28269 72.1208 4.8103 72.8279 4.48803 73.606C4.16577 74.3841 3.99993 75.2181 4 76.0604C3.99993 76.9026 4.16577 77.7367 4.48806 78.5148C4.81034 79.293 5.28276 80 5.87832 80.5956C6.47389 81.1911 7.18094 81.6636 7.95909 81.9859C8.73725 82.3081 9.57127 82.474 10.4135 82.4739ZM10.4135 79.7936C9.4232 79.7936 8.47343 79.4002 7.77317 78.6999C7.07291 77.9997 6.6795 77.0499 6.6795 76.0596C6.6795 75.0693 7.07291 74.1195 7.77317 73.4192C8.47343 72.719 9.4232 72.3256 10.4135 72.3256C11.4038 72.3256 12.3536 72.719 13.0539 73.4192C13.7541 74.1195 14.1475 75.0693 14.1475 76.0596C14.1475 77.0499 13.7541 77.9997 13.0539 78.6999C12.3536 79.4002 11.4038 79.7936 10.4135 79.7936Z" fill="#2DD0ED"/>
<path d="M50.1719 12.827C51.4404 12.8271 52.6805 12.451 53.7352 11.7462C54.7899 11.0415 55.6119 10.0397 56.0972 8.86766C56.5005 7.89324 56.6574 6.83439 56.5539 5.78488C56.4504 4.73536 56.0898 3.72755 55.5039 2.85067C54.918 1.9738 54.1249 1.25493 53.1948 0.757694C52.2648 0.260462 51.2265 0.00021655 50.1719 9.25897e-08C48.9034 -0.000215419 47.6632 0.375792 46.6084 1.08046C45.5536 1.78513 44.7315 2.7868 44.246 3.95878C43.7605 5.13076 43.6336 6.42038 43.8811 7.66453C44.1287 8.90868 44.7397 10.0515 45.6368 10.9483C46.2324 11.5439 46.9394 12.0163 47.7175 12.3386C48.4957 12.6609 49.3297 12.8268 50.1719 12.8268V12.827ZM50.1719 10.1465C49.4336 10.1464 48.7119 9.92741 48.0979 9.51724C47.484 9.10706 47.0055 8.5241 46.7229 7.84203C46.5351 7.38914 46.4384 6.90366 46.4384 6.41338C46.4384 5.92309 46.5351 5.43762 46.7229 4.98473C46.9104 4.53178 47.1853 4.12022 47.532 3.77358C47.8786 3.42693 48.2902 3.15199 48.7431 2.96447C49.2532 2.75321 49.8037 2.65769 50.3552 2.68479C50.9066 2.71189 51.4451 2.86093 51.932 3.12119C52.4189 3.38145 52.842 3.74644 53.1709 4.18988C53.4998 4.63332 53.7262 5.14417 53.8339 5.68565C53.9416 6.22712 53.9279 6.78575 53.7937 7.32128C53.6596 7.85682 53.4083 8.35594 53.0581 8.78271C52.7079 9.20947 52.2674 9.55326 51.7683 9.7893C51.2692 10.0253 50.724 10.1478 50.1719 10.1478V10.1465ZM51.1516 57.0737C49.9484 57.3333 48.6914 57.1046 47.6568 56.4378C46.8852 55.9405 46.2783 55.2254 45.9131 54.3832C45.5479 53.5409 45.4406 52.6093 45.605 51.7061C45.7693 50.8029 46.1978 49.9687 46.8363 49.3091C47.4748 48.6494 48.2946 48.194 49.192 48.0003C50.3869 47.7616 51.6277 48.0022 52.6468 48.6704C53.6658 49.3385 54.3812 50.3805 54.6387 51.5715C54.8957 52.7626 54.6742 54.007 54.0218 55.0361C53.3694 56.0653 52.3385 56.7966 51.1516 57.0723V57.0737Z" fill="#2DD0ED"/>
</svg>
