<svg width="100" height="100" viewBox="0 0 100 100" fill="none" xmlns="http://www.w3.org/2000/svg">
<g clip-path="url(#clip0_867_19443)">
<path d="M50 0C77.6141 0 100 22.3859 100 50C100 77.6141 77.6141 100 50 100C22.3859 100 0 77.6141 0 50C0 22.3859 22.3859 0 50 0Z" fill="#E05C43"/>
<path fill-rule="evenodd" clip-rule="evenodd" d="M50.9883 18.85C57.4305 18.7227 61.9828 20.4696 65.9 26.0297C74.4422 47.2086 43.9102 58.1391 42.686 58.5688L42.6477 58.5813C42.6477 58.5813 41.7258 64.3336 50.4821 64.1125C61.2579 64.1125 72.5868 55.7602 76.8961 52.2297C77.397 51.818 78.0348 51.6107 78.682 51.649C79.3292 51.6874 79.9381 51.9688 80.3868 52.4368L83.6133 55.7883C84.0668 56.2559 84.3258 56.8783 84.3382 57.5295C84.3505 58.1808 84.1152 58.8125 83.6797 59.2969C80.875 62.4196 74.2938 68.8305 64.386 72.9719C64.386 72.9719 47.8547 80.6266 36.7141 73.3782C30.0711 69.0579 28.2438 63.8852 27.5008 58.5047C27.5047 58.5047 19.4352 58.0954 14.2532 56.0719C9.06957 54.0469 14.2914 47.9383 14.2914 47.9383C14.2914 47.9383 15.8852 45.4125 18.9164 47.9383C21.95 50.4602 27.6118 49.3227 27.6118 49.3227C28.1164 45.3391 28.9555 40.0821 31.4274 34.5336C36.6086 22.9047 44.5438 18.975 50.9883 18.85ZM54.7797 30.5024C51.3664 27.2133 41.511 33.7852 41.1305 48.8227C41.1305 48.8227 44.0399 49.7086 50.4821 45.2836C56.9274 40.861 58.193 33.7852 54.7797 30.5024Z" fill="white"/>
</g>
<defs>
<clipPath id="clip0_867_19443">
<rect width="100" height="100" fill="white"/>
</clipPath>
</defs>
</svg>
