<svg width="100" height="100" viewBox="0 0 100 100" fill="none" xmlns="http://www.w3.org/2000/svg">
<path d="M15.6808 69.2935C7.91954 61.0687 3.37832 49.7065 3.38983 36.1501C3.37937 24.1609 7.14611 13.8557 13.6218 6.01405L13.6116 6.01798H0V69.2948H15.6714L15.6808 69.2935ZM87.3676 69.299C90.7112 65.7177 93.7071 61.5003 96.4218 56.6771L81.3559 49.1444C76.0646 57.7464 68.3268 65.6641 57.6271 65.7167C42.0546 65.6641 35.9361 52.3478 35.9699 35.2082H94.1619C94.2396 33.2732 94.2396 32.3734 94.1619 31.442C94.5417 21.245 91.8393 12.6739 86.9232 5.99915L86.8979 6.01798H100V69.2948H87.3391L87.3676 69.299ZM36.9115 20.5189C37.5557 12.7589 43.6739 7.54052 50.8475 7.52457C58.0699 7.54052 63.2883 12.7589 63.4652 20.5189H36.9115Z" fill="#A90432"/>
<path d="M8.28628 80.0293V77.393H0.188354V93.0237H8.28628V90.3871H3.20154V86.2443H8.09796V83.6075H3.20154V80.0293H8.28628ZM22.0339 86.4323C24.0527 86.1326 25.1611 84.1324 25.2354 82.1011C25.1611 78.7777 23.0069 77.4027 19.9624 77.393H15.8192V93.0237H18.8324V86.8092L22.5989 93.0237H26.3654L22.0339 86.4323ZM18.8324 79.841H19.2091C20.853 79.903 22.0868 80.278 22.0339 82.2892C22.0868 84.1324 20.8948 84.6323 19.2091 84.5491H18.8324V79.841ZM35.7816 77.393H32.7684V93.0237H40.113V90.3871H35.7816V77.393ZM55.5556 89.8221L56.8738 93.0237H60.0754L54.2373 77.0161H51.7891L45.5744 93.0237H48.7759L50.0942 89.8221H55.5556ZM54.8023 87.3742H51.0358L52.7307 81.5362L54.8023 87.3742ZM65.7251 93.0237H68.9266V82.4775L77.2128 93.4003H79.4727V77.393H76.2712V87.9392L67.985 77.0161H65.7251V93.0237ZM92.6554 84.7374V87.1856H96.0452C95.9746 89.1533 94.3644 90.8203 92.4671 90.7638C89.4706 90.8203 87.9857 87.9243 87.9473 85.3024C87.9857 82.7155 89.4497 79.6945 92.4671 79.6529C94.0506 79.6945 95.3892 80.7779 96.0452 82.1011L98.6818 80.7826C97.5223 78.3404 95.18 76.986 92.4671 77.0161C87.7974 76.986 84.807 80.8404 84.7458 85.3024C84.807 89.6534 87.714 93.5287 92.2787 93.5886C97.2086 93.5287 99.4882 89.5909 99.4351 85.114V84.7374H92.6554Z" fill="#231F20"/>
</svg>
