<svg width="100" height="100" viewBox="0 0 100 100" fill="none" xmlns="http://www.w3.org/2000/svg">
<g clip-path="url(#clip0_867_19809)">
<g clip-path="url(#clip1_867_19809)">
<path d="M50 99.9987C77.6142 99.9987 100 77.6129 100 49.9987C100 22.3844 77.6142 -0.00134277 50 -0.00134277C22.3858 -0.00134277 0 22.3844 0 49.9987C0 77.6129 22.3858 99.9987 50 99.9987Z" fill="#FFCF00"/>
<path d="M27.0645 22.9342L54.1293 49.9987L27.0645 77.0631L20.4355 70.4342L40.8707 49.9987L20.4355 29.5631L27.0645 22.9342ZM57.0645 22.9342L84.1293 49.9987L57.0645 77.0631L50.4355 70.4342L70.8707 49.9987L50.4355 29.5631L57.0645 22.9342Z" fill="#191919"/>
</g>
</g>
<defs>
<clipPath id="clip0_867_19809">
<rect width="100" height="100" fill="white"/>
</clipPath>
<clipPath id="clip1_867_19809">
<rect width="100" height="100" fill="white" transform="translate(0 -0.00134277)"/>
</clipPath>
</defs>
</svg>
