<svg width="100" height="100" viewBox="0 0 100 100" fill="none" xmlns="http://www.w3.org/2000/svg">
<path d="M30.4551 37.4719L49.4278 26.518C49.6611 26.3832 49.9259 26.3123 50.1954 26.3123C50.4648 26.3123 50.7296 26.3832 50.9629 26.518L69.9356 37.4719C70.1689 37.6067 70.3627 37.8005 70.4974 38.0338C70.6321 38.2671 70.7031 38.5318 70.7032 38.8012V60.709C70.7032 61.2571 70.4102 61.7637 69.9356 62.0383L50.9629 72.9922C50.7296 73.127 50.4648 73.1979 50.1954 73.1979C49.9259 73.1979 49.6611 73.127 49.4278 72.9922L30.4551 62.0383C30.2218 61.9035 30.028 61.7098 29.8933 61.4765C29.7585 61.2431 29.6876 60.9784 29.6875 60.709V38.8008C29.6879 38.2524 29.9805 37.7461 30.4551 37.4715" fill="#8080F2"/>
<path d="M99.3816 47.9599L76.6886 8.48047C75.8644 7.05313 74.3418 6 72.6933 6H27.3069C25.6584 6 24.135 7.05313 23.3108 8.48047L0.618165 47.8727C-0.206055 49.3005 -0.206055 51.1024 0.618165 52.5302L23.3108 91.6861C24.135 93.1135 25.6584 93.8432 27.3069 93.8432H72.6929C74.3414 93.8432 75.8644 93.1353 76.6882 91.7076L99.3812 52.488C100.206 51.061 100.206 49.3872 99.3812 47.9599H99.3816ZM80.5906 66.9443C80.5906 67.5243 80.2414 68.0615 79.7382 68.3521L50.8323 85.0291C50.5834 85.1717 50.3016 85.2467 50.0147 85.2467C49.7279 85.2467 49.446 85.1717 49.1972 85.0291L20.269 68.3521C19.7663 68.0615 19.4143 67.5247 19.4143 66.9439V33.5891C19.4143 33.0083 19.7612 32.4719 20.2643 32.1813L49.1687 15.5039C49.4174 15.3611 49.6992 15.2859 49.986 15.2859C50.2729 15.2859 50.5547 15.3611 50.8034 15.5039L79.7332 32.1813C80.2367 32.4719 80.5906 33.0083 80.5906 33.5891V66.9439V66.9443Z" fill="#4B32C3"/>
</svg>
