<svg width="100" height="100" viewBox="0 0 100 100" fill="none" xmlns="http://www.w3.org/2000/svg">
<g clip-path="url(#clip0_868_39443)">
<path d="M14.2876 44.7916C14.2876 54.4582 18.0501 63.7332 24.7459 70.5708C28.032 73.943 31.9587 76.6247 36.2954 78.4586C40.6321 80.2925 45.2915 81.2415 50.0001 81.2499C54.7079 81.2409 59.3665 80.2916 63.7025 78.4578C68.0385 76.624 71.9645 73.9425 75.2501 70.5708C81.9724 63.6751 85.7279 54.4217 85.7126 44.7916H100C100 58.3291 94.7334 71.3124 85.3542 80.8833C80.7539 85.6041 75.2568 89.3584 69.1857 91.9257C63.1145 94.493 56.5917 95.8215 50.0001 95.8333C36.7376 95.8333 24.0209 90.4583 14.6459 80.8833C5.23494 71.229 -0.0221948 58.2738 7.04363e-05 44.7916H14.2876ZM71.4292 44.7916C71.4377 50.5696 69.1838 56.1213 65.1501 60.2583C63.1788 62.2815 60.8233 63.8906 58.2217 64.9911C55.6201 66.0915 52.8248 66.6612 50.0001 66.6666C47.1746 66.6617 44.3786 66.0923 41.7762 64.9919C39.1739 63.8914 36.8176 62.282 34.8459 60.2583C30.8137 56.1206 28.5613 50.569 28.5709 44.7916H71.4292ZM50.0001 8.33325C59.4709 8.33325 68.5542 12.1749 75.2501 19.0124C81.9724 25.908 85.7279 35.1615 85.7126 44.7916H71.4292C71.4377 39.0136 69.1838 33.4619 65.1501 29.3249C63.1788 27.3017 60.8233 25.6926 58.2217 24.5921C55.6201 23.4916 52.8248 22.922 50.0001 22.9166C47.1746 22.9214 44.3786 23.4908 41.7762 24.5913C39.1739 25.6918 36.8176 27.3012 34.8459 29.3249C30.8137 33.4625 28.5613 39.0142 28.5709 44.7916H14.2917C14.2917 35.1249 18.0542 25.8499 24.7501 19.0124C28.0357 15.6407 31.9617 12.9592 36.2976 11.1254C40.6336 9.29152 45.2922 8.34224 50.0001 8.33325Z" fill="url(#paint0_radial_868_39443)"/>
</g>
<defs>
<radialGradient id="paint0_radial_868_39443" cx="0" cy="0" r="1" gradientTransform="matrix(90.4129 112.606 -199.932 167.288 9.58341 -16.7709)" gradientUnits="userSpaceOnUse">
<stop stop-color="#6A46AC"/>
<stop offset="0.63" stop-color="#31008C"/>
</radialGradient>
<clipPath id="clip0_868_39443">
<rect width="100" height="100" fill="white"/>
</clipPath>
</defs>
</svg>
