<svg width="100" height="100" viewBox="0 0 100 100" fill="none" xmlns="http://www.w3.org/2000/svg">
<path d="M47.3853 37.8039C48.2026 36.6142 49.0974 36.459 49.8267 36.459C50.5509 36.459 51.7612 36.6142 52.5785 37.8039C63.2338 52.3179 85.3308 90.6048 87.3739 92.6893C90.3998 95.7773 94.5534 93.8531 96.9637 90.3513C99.3431 86.9013 100 84.4806 100 81.8995C100 80.1408 65.5873 16.6535 62.1166 11.3672C58.7855 6.28266 57.6993 4.99988 51.9992 4.99988H47.7319C42.0421 4.99988 41.2197 6.28266 37.8886 11.3621C34.4127 16.6587 0 80.146 0 81.9047C0 84.4909 0.656908 86.9065 3.03626 90.3565C5.44665 93.8583 9.60016 95.7877 12.6261 92.6945C14.6692 90.61 36.7351 52.3231 47.3853 37.8142V37.8039Z" fill="black"/>
</svg>
