<svg width="100" height="100" viewBox="0 0 100 100" fill="none" xmlns="http://www.w3.org/2000/svg">
<g clip-path="url(#clip0_867_19748)">
<path d="M65.6915 0.0167887C68.3998 0.116789 71.079 0.733455 73.5915 1.85012C76.3694 3.09371 78.8679 4.88501 80.9373 7.11679C83.0604 9.40497 84.7264 12.0779 85.8457 14.9918C86.9832 17.9418 87.5665 21.1001 87.5665 24.2876H35.6665V100C32.371 100.004 29.1 99.4344 25.9998 98.3168C22.9974 97.2405 20.2211 95.6157 17.8123 93.5251C15.5147 91.5341 13.6511 89.0919 12.3373 86.3501C11.0783 83.7078 10.4222 80.8187 10.4165 77.8918L10.4248 77.6501H10.4165V23.3251H10.4415C10.4915 22.0626 10.6457 20.8001 10.904 19.5501C11.879 14.8418 14.279 10.5085 17.8123 7.11679C21.3882 3.69638 25.8793 1.38642 30.7415 0.466789C32.2748 0.175122 33.8207 0.0167887 35.3665 0.00012207H65.6915V0.0167887Z" fill="url(#paint0_linear_867_19748)"/>
<path d="M65.6915 42.5906C67.9623 42.6323 70.2082 43.1573 72.3082 44.1531C74.4873 45.1948 76.4748 46.7114 78.1415 48.6281C79.8123 50.5448 81.1415 52.8198 82.0457 55.3239C82.9498 57.8239 83.4123 60.5073 83.4123 63.2156H65.4248V63.2073H48.9165V42.5864L65.6915 42.5906Z" fill="url(#paint1_linear_867_19748)"/>
</g>
<defs>
<linearGradient id="paint0_linear_867_19748" x1="48.9915" y1="0.00012207" x2="48.9915" y2="100" gradientUnits="userSpaceOnUse">
<stop stop-color="#326DFF"/>
<stop offset="1" stop-color="#8EAEFF"/>
</linearGradient>
<linearGradient id="paint1_linear_867_19748" x1="48.9915" y1="-0.00107811" x2="48.9915" y2="99.9989" gradientUnits="userSpaceOnUse">
<stop stop-color="#326DFF"/>
<stop offset="1" stop-color="#8EAEFF"/>
</linearGradient>
<clipPath id="clip0_867_19748">
<rect width="100" height="100" fill="white"/>
</clipPath>
</defs>
</svg>
