<svg width="100" height="100" viewBox="0 0 100 100" fill="none" xmlns="http://www.w3.org/2000/svg">
<path d="M74.9823 20.9768C68.7958 23.0416 65.8171 26.7455 63.7877 32.5139C63.2639 34.0545 61.9545 35.7587 60.4816 36.9058L65.5552 42.3468L49.4506 31.0719L5 0C5 0 8.20779 20.8455 9.32071 28.5152C10.1063 33.9232 11.4483 36.3487 15.7035 38.8071L17.4056 39.7248L24.7377 43.5923L20.3843 41.3306L40.4819 52.3106L40.3513 52.6058L18.7149 42.5761C19.8606 46.5094 22.0864 54.0806 23.0356 57.4239C24.0503 61.029 25.196 62.3403 28.6984 63.6184L35.1466 65.9784L39.14 64.4052L34.0665 67.781L8.69877 100C25.556 84.3329 39.8274 78.761 50.269 74.2052C63.5913 68.4364 71.6106 64.7329 76.8477 51.4258C80.5794 42.0845 83.4926 30.1213 87.1913 25.4997L95.08 15.4048C95.08 15.4048 78.7465 19.7313 74.9823 20.9768Z" fill="#3F00A5"/>
</svg>
