<svg width="100" height="100" viewBox="0 0 100 100" fill="none" xmlns="http://www.w3.org/2000/svg">
<path d="M94.6833 12.8668C89.6958 9.90016 82.9583 8.3335 75.1833 8.3335C63.2917 8.3335 50.1833 11.9877 38.4083 18.346L38.325 18.3168L38.3083 18.4043C34.7458 20.3377 31.2917 22.4918 28.05 24.896C8.94583 39.0668 3.59583 55.8835 8.1125 64.8752C3.16667 73.0918 0.125 81.596 0 91.6668C9.5 74.0293 15.2 59.7377 46.15 35.6752C37.3083 37.521 22.025 46.2793 11.7417 59.571C10.7708 51.796 17.075 39.2418 31.1167 28.8252C32.9 27.5085 34.7458 26.2752 36.6333 25.1043C35.1583 29.5668 35.6333 28.4585 32.5708 34.7168C37.0958 30.546 40.0708 27.9668 44.5417 20.821C50.2164 18.0844 56.1977 16.0352 62.3583 14.7168C61.3667 17.9127 59.4833 23.3293 56.9333 27.6127C56.9333 27.6127 63.4042 26.2627 68.7542 26.571C65.8333 29.7085 63.2 33.1085 60.5333 36.5835C56.8833 41.3418 53.1083 46.2585 48.2708 50.8377C47.6875 51.3918 47.1333 51.8918 46.5708 52.4085C39.1375 51.7127 34.2333 54.421 29.6333 59.2002C33.2583 57.5543 38.1333 56.2002 41.1833 57.0168C35.5583 61.4877 26.6958 67.3793 19.4167 66.8918C18.0333 68.9418 17.9458 69.0043 16.4292 71.4752C28.2417 74.3418 43.075 62.6502 51.8042 54.3793C56.925 49.5293 60.825 44.4502 64.5958 39.546C72.3542 29.4335 79.0583 20.7002 93.9292 17.3793L100 16.0252L94.6833 12.8668Z" fill="#FFE184"/>
</svg>
