<svg width="100" height="100" viewBox="0 0 100 100" fill="none" xmlns="http://www.w3.org/2000/svg">
<rect width="100" height="100" rx="16" fill="#F24E1E"/>
<path d="M50 18C32.327 18 18 32.327 18 50C18 67.673 32.327 82 50 82C67.673 82 82 67.673 82 50C82 32.327 67.673 18 50 18ZM50 26C63.255 26 74 36.745 74 50C74 63.255 63.255 74 50 74C36.745 74 26 63.255 26 50C26 36.745 36.745 26 50 26Z" fill="white"/>
<path d="M50 34C41.163 34 34 41.163 34 50C34 58.837 41.163 66 50 66C58.837 66 66 58.837 66 50C66 41.163 58.837 34 50 34Z" fill="white"/>
<path d="M50 42C45.582 42 42 45.582 42 50C42 54.418 45.582 58 50 58C54.418 58 58 54.418 58 50C58 45.582 54.418 42 50 42Z" fill="#F24E1E"/>
</svg>
