<svg width="100" height="100" viewBox="0 0 100 100" fill="none" xmlns="http://www.w3.org/2000/svg">
<path d="M80.281 9.30347C77.8485 12.1354 76.7121 18.5177 79.1822 24.9799C81.6476 31.4468 85.4325 30.0426 87.7899 36.6363C90.9033 45.334 89.4522 57.0232 89.4522 57.0232C89.4522 57.0232 93.1949 67.8577 95.8012 56.3469C101.568 34.7343 80.281 14.6291 80.281 9.30347Z" fill="url(#paint0_radial_867_14157)"/>
<path d="M50.5843 99.0559C75.5056 99.0559 95.6934 78.7535 95.6934 53.7266C95.6934 28.6996 75.5056 8.39722 50.6077 8.39722C25.7099 8.39722 5.52205 28.6949 5.52205 53.7266C5.47509 78.7817 25.6864 99.0559 50.5843 99.0559Z" fill="url(#paint1_radial_867_14157)"/>
<path d="M84.3855 81.6746C83.4088 82.365 82.385 82.9802 81.3238 83.5203C82.7325 81.4586 84.0333 79.3217 85.2167 77.1191C86.1794 76.053 87.0575 75.0198 87.776 73.9021C88.1235 73.3526 88.5179 72.6764 88.9359 71.8874C91.467 67.3225 94.2611 59.9398 94.3409 52.3552V52.3364C94.3409 52.1485 94.3456 51.9607 94.3409 51.7775C94.355 49.8755 94.1578 47.9734 93.7586 46.1137C93.7774 46.2593 93.7962 46.4049 93.8149 46.5504C93.7915 46.4377 93.7727 46.325 93.7492 46.2123C93.7868 46.4189 93.8149 46.6209 93.8478 46.8181C94.3644 51.2092 93.9981 55.497 92.1526 58.653C92.1244 58.7 92.0915 58.7422 92.0634 58.7892C93.0213 53.9895 93.3407 48.6873 92.2747 43.3804C92.2747 43.3804 91.8474 40.8021 88.6776 32.9685C86.8556 28.46 83.6154 24.764 80.7509 22.073C78.2432 18.9687 75.961 16.8835 74.7072 15.5638C72.0822 12.8023 70.9833 10.7312 70.5325 9.37866C70.1427 9.18141 65.1322 4.31597 64.733 4.13281C62.5447 7.52359 55.6699 18.1233 58.9429 28.0326C60.4268 32.5224 64.1742 37.1812 68.0953 39.7971C68.2691 39.9943 70.4292 42.3425 71.4576 47.64C72.5189 53.1113 71.9601 57.3803 69.7765 63.6969C67.2078 69.2386 60.6241 74.7146 54.4583 75.2735C41.2815 76.471 36.4541 68.6563 36.4541 68.6563C41.1641 70.5395 46.3672 70.145 49.537 68.1913C52.7302 66.2188 54.6602 64.7536 56.224 65.3312C57.7689 65.9042 58.9993 64.237 57.8957 62.5087C56.1535 59.8271 52.9791 58.4417 49.8281 58.9958C46.6349 59.5171 43.7093 62.0438 39.5205 59.597C39.2482 59.442 38.9852 59.2682 38.7363 59.0804C38.4593 58.8972 39.6332 59.3574 39.3609 59.1508C38.5485 58.7094 37.1068 57.7419 36.7312 57.3991C36.6701 57.3427 37.3651 57.6198 37.2994 57.5634C33.3877 54.3417 33.876 52.1626 33.9981 50.796C34.0967 49.7017 34.8058 48.3022 36.0033 47.7339C36.5809 48.0486 36.9425 48.2928 36.9425 48.2928C36.9425 48.2928 36.6936 47.7903 36.5621 47.5226C36.6091 47.5038 36.6513 47.5085 36.6983 47.4897C37.1726 47.7198 38.2198 48.3116 38.7739 48.6732C39.4924 49.1804 39.7225 49.6313 39.7225 49.6313C39.7225 49.6313 39.9103 49.5279 39.7694 49.0865C39.7178 48.9033 39.5018 48.3304 38.788 47.748L38.8302 47.7527C39.2576 47.9969 39.6614 48.274 40.0371 48.5887C40.239 47.8607 40.6006 47.0952 40.5208 45.7333C40.4738 44.7752 40.4926 44.5263 40.3236 44.1553C40.1733 43.8359 40.4081 43.7138 40.6711 44.0426C40.6241 43.7843 40.549 43.5307 40.4456 43.2912V43.2677C40.7744 42.1265 47.3815 39.1537 47.8605 38.8061C48.6494 38.2473 49.3116 37.5287 49.8046 36.6928C50.1709 36.1057 50.448 35.2838 50.5137 34.0393C50.5513 33.1423 50.1334 32.5412 43.451 31.8414C41.6243 31.6629 40.5537 30.3386 39.9432 29.1175C39.8305 28.8545 39.7178 28.615 39.6051 28.3755C39.4971 28.0984 39.4078 27.8119 39.3468 27.5207C40.4409 24.3836 42.2724 21.7301 44.9725 19.7248C45.1181 19.5886 44.3855 19.7576 44.5311 19.6261C44.7049 19.4712 45.8225 19.0203 46.0338 18.917C46.2921 18.7949 44.9303 18.2172 43.7234 18.3581C42.4978 18.4943 42.2348 18.6446 41.5821 18.9217C41.8544 18.6493 42.7185 18.2971 42.5166 18.2971C41.1923 18.499 39.5534 19.2692 38.1446 20.138C38.1399 19.9878 38.1728 19.8375 38.2292 19.6966C37.5764 19.9737 35.9657 21.0961 35.5008 22.0495C35.5196 21.8663 35.529 21.6832 35.529 21.5C35.0312 21.918 34.5804 22.3876 34.186 22.9042L34.1625 22.9277C30.3682 21.3967 27.0247 21.2981 24.1977 21.9837C23.5778 21.3638 23.2773 21.8147 21.8685 18.7244C21.7746 18.5366 21.9437 18.9076 21.8685 18.7244C21.6384 18.1233 22.0094 19.5228 21.8685 18.7244C19.5018 20.5936 16.3884 22.707 14.8951 24.2004C14.8763 24.2615 16.6373 23.7026 14.8951 24.2004C14.2846 24.3742 14.3269 24.7358 14.2329 28.0139C14.2095 28.2628 14.2282 28.5399 14.2095 28.7653C13.0167 30.2869 12.2043 31.5737 11.8944 32.2406C10.3494 34.9034 8.64947 39.0503 7.00119 45.6112C7.72906 43.8312 8.60251 42.1171 9.62153 40.4874C8.25031 43.9721 6.92606 49.4387 6.66309 57.8593C6.9965 56.1216 7.41913 54.4028 7.93568 52.7121C7.61166 59.7003 8.81852 66.6744 11.467 73.146C12.4156 75.466 13.984 78.9836 16.6513 82.844C25.0383 91.6685 36.8673 97.1632 49.969 97.1632C63.6624 97.1632 75.9469 91.1801 84.3855 81.6746Z" fill="url(#paint2_linear_867_14157)"/>
<path d="M74.2657 88.0851C90.8189 86.169 98.1446 69.1117 88.7339 68.7736C80.2343 68.5059 66.4235 88.9915 74.2657 88.0851Z" fill="url(#paint3_radial_867_14157)"/>
<path d="M89.9271 65.2937C101.315 58.6672 98.347 44.3479 98.347 44.3479C98.347 44.3479 93.9516 49.4529 90.9649 57.5917C88.0159 65.6507 83.0804 69.2951 89.9271 65.2937Z" fill="url(#paint4_radial_867_14157)"/>
<path d="M53.7725 96.5572C69.6495 101.624 83.2959 89.1135 74.8854 84.9384C67.2357 81.172 46.2402 94.162 53.7725 96.5572Z" fill="url(#paint5_radial_867_14157)"/>
<path d="M91.1101 71.3709C91.4952 70.8261 92.0164 69.079 92.4813 68.2994C95.2848 63.7721 95.3036 60.1653 95.3036 60.0855C96.9988 51.6273 96.8439 48.1755 95.8014 41.7884C94.9608 36.6459 91.298 29.2772 88.1235 25.7315C84.8504 22.0777 87.1561 23.2659 83.9864 20.5983C81.2111 17.5175 78.5156 14.4696 77.0505 13.2438C66.4517 4.38176 66.6912 2.49851 66.8932 2.17915C66.8603 2.21673 66.8086 2.27308 66.7429 2.34822C66.6161 1.84571 66.5269 1.42773 66.5269 1.42773C66.5269 1.42773 60.7321 7.22306 59.5159 16.8741C58.7175 23.1767 61.0796 29.7469 64.4935 33.9501C66.2733 36.1246 68.2832 38.1017 70.4902 39.8441V39.8394C73.073 43.5448 74.4912 48.1191 74.4912 53.0409C74.4912 65.3642 64.4982 75.3534 52.1714 75.3534C50.4903 75.3534 48.8185 75.1655 47.1796 74.7945C41.3614 73.6862 38.0038 70.7509 36.3273 68.7597C35.3693 67.6185 34.9608 66.7872 34.9608 66.7872C40.1733 68.6564 45.9352 68.2619 49.4384 66.327C52.9697 64.3686 55.1064 62.9174 56.8392 63.4903C58.5485 64.0586 59.9103 62.4055 58.6894 60.6913C57.4919 58.9771 54.3785 56.5256 49.7577 57.2066C46.2216 57.7232 42.9814 60.2311 38.3513 57.7983C38.0507 57.6434 37.7643 57.4743 37.4825 57.2864C37.1773 57.108 38.4733 57.5588 38.1728 57.3569C37.2712 56.9201 35.6746 55.9621 35.2613 55.6239C35.1909 55.5676 35.961 55.8446 35.8906 55.7883C31.5609 52.5901 32.101 50.4344 32.2371 49.0772C32.3452 47.9923 33.1341 46.6069 34.4583 46.0433C35.097 46.358 35.4961 46.5975 35.4961 46.5975C35.4961 46.5975 35.2238 46.0997 35.0735 45.832C35.1251 45.8132 35.1768 45.8179 35.2238 45.7991C35.7497 46.0245 36.9096 46.6163 37.5201 46.9732C38.3137 47.4757 38.5673 47.9266 38.5673 47.9266C38.5673 47.9266 38.7786 47.8232 38.6236 47.3865C38.5673 47.208 38.3278 46.6351 37.5389 46.0574L37.5858 46.0621C38.0554 46.3016 38.5015 46.5787 38.9195 46.8934C39.1402 46.1701 39.5393 45.414 39.4548 44.0614C39.4031 43.1128 39.4266 42.8639 39.2388 42.4975C39.0697 42.1829 39.3327 42.0608 39.6239 42.3848C39.5722 42.1265 39.4924 41.8776 39.375 41.6381L39.3797 41.6146C39.7413 40.4828 47.0575 37.5382 47.5882 37.1906C48.4475 36.6506 49.1801 35.9367 49.7389 35.0961C50.1474 34.5137 50.4527 33.7012 50.5278 32.4661C50.5513 31.9072 50.3822 31.4705 48.4428 31.0478C47.2782 30.7942 45.4797 30.55 42.7091 30.287C40.6851 30.1085 39.5018 28.7935 38.8255 27.5819C38.7034 27.3189 38.5767 27.084 38.4499 26.8492C38.3325 26.5721 38.2339 26.2903 38.1634 25.9992C39.3797 22.8244 41.5586 20.1193 44.3996 18.2642C44.564 18.1327 43.7469 18.2971 43.9112 18.1656C44.0991 18.0106 45.3388 17.5645 45.5736 17.4612C45.8601 17.3391 44.348 16.7661 43.019 16.907C41.6619 17.0432 41.3754 17.1888 40.6476 17.4659C40.9481 17.1982 41.9061 16.8459 41.6807 16.8506C40.2155 17.0526 38.3982 17.8134 36.8439 18.6775C36.8392 18.5272 36.872 18.377 36.9378 18.2408C36.2146 18.5178 34.4348 19.6309 33.9183 20.5749C33.9418 20.3964 33.9512 20.2132 33.9465 20.0301C33.4017 20.4387 32.904 20.9036 32.4625 21.4202L32.4344 21.4437C28.2315 19.9268 24.5358 19.8281 21.4036 20.5091C20.718 19.8939 19.6192 18.9593 18.0601 15.8973C17.9521 15.7141 17.8957 16.2777 17.8159 16.0945C17.2101 14.6903 16.8439 12.3891 16.9049 10.8064C16.9049 10.8064 15.6511 11.3747 14.618 13.7604C14.4255 14.1878 14.3034 14.4273 14.1813 14.6621C14.1249 14.7326 14.3081 13.8778 14.2799 13.9248C14.1014 14.2301 13.6318 14.6574 13.4299 15.2069C13.289 15.6155 13.0918 15.8456 12.965 16.3528L12.9368 16.3998C12.9274 16.2495 12.9744 15.7799 12.9415 15.8785C12.4579 16.86 12.0399 17.8744 11.6924 18.9123C11.1336 20.7486 10.4856 23.2424 10.3822 26.4923C10.3588 26.7365 10.3776 27.0136 10.3588 27.2343C9.03921 28.7419 8.13759 30.0193 7.79948 30.6815C6.08547 33.3114 4.20239 37.4255 2.37568 43.9299C3.18807 42.1547 4.16013 40.4499 5.27776 38.8485C3.76098 42.3003 2.29584 47.7246 2 56.0795C2.36628 54.3512 2.84057 52.6464 3.40878 50.9745C3.14581 56.5444 3.79385 63.4481 7.3158 71.2394C9.40549 75.823 14.2188 85.1265 25.9775 92.3871C37.7361 99.6477 29.9784 95.3647 36.8533 97.5954C37.3604 97.7786 37.877 97.9618 38.4029 98.1355C38.2432 98.0698 38.0836 97.9993 37.9239 97.9289C42.5025 99.3002 47.2501 100 52.0305 100C69.8328 100.014 75.0829 92.8662 75.0829 92.8662C75.0829 92.8662 75.0641 92.8803 75.0312 92.9037C75.2801 92.6689 75.5243 92.42 75.7591 92.1664C72.9509 94.8199 66.541 94.9936 64.1413 94.8058C68.2268 93.6035 70.9176 92.5891 76.1489 90.5837C76.7593 90.3583 77.3886 90.1 78.0272 89.8088C78.0977 89.7807 78.1681 89.7431 78.2339 89.7149C78.3606 89.6539 78.4874 89.6022 78.6142 89.5364C81.1641 88.3342 83.559 86.836 85.7567 85.0655C91.0115 80.8669 92.1526 76.7764 92.7537 74.0807C92.6692 74.339 92.4109 74.9401 92.2278 75.3346C90.8753 78.2276 87.8746 80.0075 84.6156 81.5291C86.1653 79.4956 87.6022 77.3775 88.9218 75.1843C89.9831 74.1323 90.3165 72.4792 91.1101 71.3709Z" fill="url(#paint6_radial_867_14157)"/>
<path d="M84.7144 81.4069C86.8557 79.0446 88.7811 76.3442 90.2368 73.2775C93.9889 65.3923 99.7837 52.28 95.2192 38.5901C91.608 27.7696 86.6538 21.8522 80.3659 16.071C70.1475 6.68294 67.2924 2.49377 67.2924 0C67.2924 0 55.4962 13.1545 60.6101 26.8679C65.724 40.5813 76.2053 40.0835 83.1365 54.3981C91.2934 71.244 76.534 89.6256 64.3293 94.7728C65.0759 94.6084 91.4577 88.6346 92.8477 73.5452C92.8196 73.8223 92.2232 77.9926 84.7144 81.4069Z" fill="url(#paint7_radial_867_14157)"/>
<path d="M50.5322 32.4566C50.5744 31.5643 50.1095 30.9679 42.7416 30.2775C39.7081 29.9957 38.5482 27.1967 38.196 26.0132C37.1159 28.8169 36.6745 31.7521 36.914 35.312C37.0784 37.6414 38.6421 40.1399 39.3887 41.6098C39.3887 41.6098 39.5531 41.3938 39.6329 41.314C41.0417 39.8487 46.9445 37.6132 47.4986 37.2939C48.1044 36.9088 50.4335 35.2087 50.5322 32.4566Z" fill="url(#paint8_linear_867_14157)"/>
<path d="M18.088 15.9019C17.98 15.7188 17.9236 16.2823 17.8438 16.0992C17.238 14.6949 16.8717 12.4219 16.9563 10.811C16.9563 10.811 15.7025 11.3793 14.6693 13.7651C14.4768 14.1924 14.3547 14.4319 14.2326 14.6668C14.1763 14.7372 14.3594 13.8825 14.3312 13.9294C14.1528 14.2347 13.6832 14.6621 13.4813 15.1881C13.3122 15.6201 13.1432 15.8503 13.0117 16.3856C12.9741 16.5312 13.0493 15.7422 13.0164 15.8409C10.6074 20.4997 10.1472 27.5396 10.4007 27.2437C15.5287 21.7677 21.408 20.4668 21.408 20.4668C20.7882 20.0019 19.4263 18.6728 18.088 15.9019Z" fill="url(#paint9_linear_867_14157)"/>
<path d="M37.5529 73.1882C30.4667 70.1637 22.4132 65.8947 22.7137 56.2014C23.127 43.4367 34.6179 45.9587 34.6179 45.9587C34.1859 46.062 33.026 46.8885 32.6128 47.7715C32.1807 48.8704 31.3871 51.3548 33.7868 53.9613C37.5576 58.0471 26.0432 63.6545 43.8126 74.2448C44.2634 74.4844 39.652 74.0946 37.5529 73.1882Z" fill="url(#paint10_linear_867_14157)"/>
<path d="M35.0359 66.8239C40.0605 68.5708 45.9117 68.2656 49.4196 66.3309C51.7675 65.0254 54.773 62.931 56.6279 63.4476C55.0265 62.8136 53.8103 62.5178 52.3498 62.4473C52.101 62.4473 51.8051 62.4426 51.5327 62.4144C50.9974 62.4144 50.4621 62.4426 49.9314 62.5037C49.0251 62.5882 48.0249 63.1564 47.1139 63.0672C47.0669 63.0625 47.9967 62.6821 47.9216 62.7009C47.4379 62.7995 46.9119 62.823 46.3578 62.8934C46.0056 62.931 45.7004 62.978 45.3529 62.992C34.8856 63.8796 26.0431 57.3193 26.0431 57.3193C25.2871 59.8505 29.4101 64.8657 35.0359 66.8239Z" fill="url(#paint11_linear_867_14157)"/>
<path d="M84.6956 81.4727C95.2802 71.0796 100.638 58.4464 98.3702 44.2727C98.3702 44.2727 99.2765 51.538 95.8438 58.9724C97.492 51.7165 97.6846 42.6994 93.3079 33.363C87.4662 20.8988 77.8583 14.3427 74.186 11.6047C68.6307 7.45782 66.325 3.24047 66.2828 2.36694C64.6204 5.76712 59.6004 17.4282 65.7427 27.4691C71.5 36.8759 80.5678 39.6703 86.9121 48.2975C98.6097 64.1994 84.6956 81.4727 84.6956 81.4727Z" fill="url(#paint12_linear_867_14157)"/>
<path d="M83.1783 54.431C79.4779 46.79 74.8618 43.4556 70.4946 39.8394C71.0017 40.5485 71.1285 40.8021 71.4103 41.2624C75.2562 45.3576 80.9242 55.3562 76.8059 67.9001C69.0576 91.5182 38.0738 80.3972 34.8242 77.2741C36.1391 90.9405 59.013 97.4826 73.9085 88.6205C82.3847 80.5944 89.2407 66.9562 83.1783 54.431Z" fill="url(#paint13_linear_867_14157)"/>
<defs>
<radialGradient id="paint0_radial_867_14157" cx="0" cy="0" r="1" gradientTransform="matrix(34.9141 1.55801 2.29091 -51.3233 94.3116 25.0071)" gradientUnits="userSpaceOnUse">
<stop offset="0.045" stop-color="#FFEA00"/>
<stop offset="0.12" stop-color="#FFDE00"/>
<stop offset="0.254" stop-color="#FFBF00"/>
<stop offset="0.429" stop-color="#FF8E00"/>
<stop offset="0.769" stop-color="#FF272D"/>
<stop offset="0.872" stop-color="#E0255A"/>
<stop offset="0.953" stop-color="#CC2477"/>
<stop offset="1" stop-color="#C42482"/>
</radialGradient>
<radialGradient id="paint1_radial_867_14157" cx="0" cy="0" r="1" gradientUnits="userSpaceOnUse" gradientTransform="translate(69.3893 19.6271) scale(98.5004 98.5095)">
<stop stop-color="#00CCDA"/>
<stop offset="0.22" stop-color="#0083FF"/>
<stop offset="0.261" stop-color="#007AF9"/>
<stop offset="0.33" stop-color="#0060E8"/>
<stop offset="0.333" stop-color="#005FE7"/>
<stop offset="0.438" stop-color="#2639AD"/>
<stop offset="0.522" stop-color="#401E84"/>
<stop offset="0.566" stop-color="#4A1475"/>
</radialGradient>
<linearGradient id="paint2_linear_867_14157" x1="56.9433" y1="74.1091" x2="37.4852" y2="10.464" gradientUnits="userSpaceOnUse">
<stop stop-color="#000F43" stop-opacity="0.4"/>
<stop offset="0.485" stop-color="#001962" stop-opacity="0.173"/>
<stop offset="1" stop-color="#002079" stop-opacity="0"/>
</linearGradient>
<radialGradient id="paint3_radial_867_14157" cx="0" cy="0" r="1" gradientTransform="matrix(33.0615 3.28265 3.28234 -33.0646 84.1338 51.4117)" gradientUnits="userSpaceOnUse">
<stop offset="0.003" stop-color="#FFEA00"/>
<stop offset="0.497" stop-color="#FF272D"/>
<stop offset="1" stop-color="#C42482"/>
</radialGradient>
<radialGradient id="paint4_radial_867_14157" cx="0" cy="0" r="1" gradientTransform="matrix(55.2107 5.48176 5.48131 -55.2153 84.2903 19.4099)" gradientUnits="userSpaceOnUse">
<stop offset="0.003" stop-color="#FFE900"/>
<stop offset="0.157" stop-color="#FFAF0E"/>
<stop offset="0.316" stop-color="#FF7A1B"/>
<stop offset="0.472" stop-color="#FF4E26"/>
<stop offset="0.621" stop-color="#FF2C2E"/>
<stop offset="0.762" stop-color="#FF1434"/>
<stop offset="0.892" stop-color="#FF0538"/>
<stop offset="1" stop-color="#FF0039"/>
</radialGradient>
<radialGradient id="paint5_radial_867_14157" cx="0" cy="0" r="1" gradientTransform="matrix(50.6614 5.03006 5.02965 -50.6655 87.0176 71.3687)" gradientUnits="userSpaceOnUse">
<stop offset="0.003" stop-color="#FF272D"/>
<stop offset="0.497" stop-color="#C42482"/>
<stop offset="0.986" stop-color="#620700"/>
</radialGradient>
<radialGradient id="paint6_radial_867_14157" cx="0" cy="0" r="1" gradientUnits="userSpaceOnUse" gradientTransform="translate(74.681 40.0462) scale(79.4889 79.4963)">
<stop offset="0.156" stop-color="#FFEA00"/>
<stop offset="0.231" stop-color="#FFDE00"/>
<stop offset="0.365" stop-color="#FFBF00"/>
<stop offset="0.541" stop-color="#FF8E00"/>
<stop offset="0.763" stop-color="#FF272D"/>
<stop offset="0.796" stop-color="#F92433"/>
<stop offset="0.841" stop-color="#E91C45"/>
<stop offset="0.893" stop-color="#CF0E62"/>
<stop offset="0.935" stop-color="#B5007F"/>
</radialGradient>
<radialGradient id="paint7_radial_867_14157" cx="0" cy="0" r="1" gradientUnits="userSpaceOnUse" gradientTransform="translate(68.7004 0.129102) scale(93.8623 93.8709)">
<stop offset="0.279" stop-color="#FFEA00"/>
<stop offset="0.402" stop-color="#FFDD00"/>
<stop offset="0.63" stop-color="#FFBA00"/>
<stop offset="0.856" stop-color="#FF9100"/>
<stop offset="0.933" stop-color="#FF6711"/>
<stop offset="0.994" stop-color="#FF4A1D"/>
</radialGradient>
<linearGradient id="paint8_linear_867_14157" x1="3.8623" y1="39.133" x2="39.9801" y2="33.6515" gradientUnits="userSpaceOnUse">
<stop stop-color="#C42482" stop-opacity="0.5"/>
<stop offset="0.474" stop-color="#FF272D" stop-opacity="0.5"/>
<stop offset="0.486" stop-color="#FF2C2C" stop-opacity="0.513"/>
<stop offset="0.675" stop-color="#FF7A1A" stop-opacity="0.72"/>
<stop offset="0.829" stop-color="#FFB20D" stop-opacity="0.871"/>
<stop offset="0.942" stop-color="#FFD605" stop-opacity="0.964"/>
<stop offset="1" stop-color="#FFE302"/>
</linearGradient>
<linearGradient id="paint9_linear_867_14157" x1="16.5543" y1="26.2042" x2="12.4545" y2="11.5083" gradientUnits="userSpaceOnUse">
<stop stop-color="#891551" stop-opacity="0.6"/>
<stop offset="1" stop-color="#C42482" stop-opacity="0"/>
</linearGradient>
<linearGradient id="paint10_linear_867_14157" x1="24.4101" y1="47.6744" x2="32.8424" y2="59.4379" gradientUnits="userSpaceOnUse">
<stop offset="0.005" stop-color="#891551" stop-opacity="0.5"/>
<stop offset="0.484" stop-color="#FF272D" stop-opacity="0.5"/>
<stop offset="1" stop-color="#FF272D" stop-opacity="0"/>
</linearGradient>
<linearGradient id="paint11_linear_867_14157" x1="40.5144" y1="68.2984" x2="41.28" y2="60.7373" gradientUnits="userSpaceOnUse">
<stop stop-color="#C42482"/>
<stop offset="0.083" stop-color="#C42482" stop-opacity="0.81"/>
<stop offset="0.206" stop-color="#C42482" stop-opacity="0.565"/>
<stop offset="0.328" stop-color="#C42482" stop-opacity="0.362"/>
<stop offset="0.447" stop-color="#C42482" stop-opacity="0.204"/>
<stop offset="0.562" stop-color="#C42482" stop-opacity="0.091"/>
<stop offset="0.673" stop-color="#C42482" stop-opacity="0.023"/>
<stop offset="0.773" stop-color="#C42482" stop-opacity="0"/>
</linearGradient>
<linearGradient id="paint12_linear_867_14157" x1="65.0614" y1="3.6691" x2="96.1284" y2="73.1335" gradientUnits="userSpaceOnUse">
<stop stop-color="#FFF14F"/>
<stop offset="0.268" stop-color="#FFEE4C"/>
<stop offset="0.452" stop-color="#FFE643"/>
<stop offset="0.612" stop-color="#FFD834"/>
<stop offset="0.757" stop-color="#FFC41E"/>
<stop offset="0.892" stop-color="#FFAB02"/>
<stop offset="0.902" stop-color="#FFA900"/>
<stop offset="0.949" stop-color="#FFA000"/>
<stop offset="1" stop-color="#FF9100"/>
</linearGradient>
<linearGradient id="paint13_linear_867_14157" x1="71.1944" y1="43.6205" x2="56.4781" y2="83.1299" gradientUnits="userSpaceOnUse">
<stop stop-color="#FF8E00"/>
<stop offset="0.04" stop-color="#FF8E00" stop-opacity="0.858"/>
<stop offset="0.084" stop-color="#FF8E00" stop-opacity="0.729"/>
<stop offset="0.13" stop-color="#FF8E00" stop-opacity="0.628"/>
<stop offset="0.178" stop-color="#FF8E00" stop-opacity="0.557"/>
<stop offset="0.227" stop-color="#FF8E00" stop-opacity="0.514"/>
<stop offset="0.282" stop-color="#FF8E00" stop-opacity="0.5"/>
<stop offset="0.389" stop-color="#FF8E00" stop-opacity="0.478"/>
<stop offset="0.524" stop-color="#FF8E00" stop-opacity="0.416"/>
<stop offset="0.676" stop-color="#FF8E00" stop-opacity="0.314"/>
<stop offset="0.838" stop-color="#FF8E00" stop-opacity="0.172"/>
<stop offset="1" stop-color="#FF8E00" stop-opacity="0"/>
</linearGradient>
</defs>
</svg>
