<svg width="100" height="100" viewBox="0 0 100 100" fill="none" xmlns="http://www.w3.org/2000/svg">
<g clip-path="url(#clip0_867_20235)">
<path fill-rule="evenodd" clip-rule="evenodd" d="M61.6668 20.8335L49.996 49.146L38.3127 20.8335H30.821L43.621 51.7835C44.1324 53.0423 45.0074 54.12 46.1342 54.8791C47.2611 55.6381 48.5887 56.044 49.9474 56.0449C51.306 56.0458 52.6341 55.6417 53.762 54.8841C54.8899 54.1265 55.7663 53.0499 56.2793 51.7918L69.1585 20.8335H61.6668ZM66.6502 63.9668L88.0002 42.1168L85.0877 35.1627L61.771 59.0752C60.8191 60.0507 60.1758 61.2852 59.9216 62.6243C59.6674 63.9635 59.8136 65.3478 60.3418 66.6043C60.8604 67.8525 61.7371 68.9192 62.8613 69.6696C63.9855 70.4201 65.3068 70.8207 66.6585 70.821L66.6668 70.8335L100 70.7502L97.0877 63.796L66.6585 63.9668H66.6502ZM12.0002 42.1002L14.9127 35.146L38.2293 59.0585C40.1793 61.0543 40.7418 64.0127 39.6585 66.5877C39.1394 67.8356 38.2626 68.9019 37.1385 69.6523C36.0144 70.4026 34.6934 70.8035 33.3418 70.8043L0.00849611 70.7293L0.000162772 70.7377L2.91266 63.7835L33.3418 63.9585L12.0002 42.1002Z" fill="#5019C5"/>
</g>
<defs>
<clipPath id="clip0_867_20235">
<rect width="100" height="100" fill="white"/>
</clipPath>
</defs>
</svg>
