<svg width="100" height="100" viewBox="0 0 100 100" fill="none" xmlns="http://www.w3.org/2000/svg">
<path d="M82.3037 2H17.6964C7.92297 2 0 9.87406 0 19.5872V80.2464C0 89.9593 7.92297 97.8335 17.6964 97.8335H82.3037C92.0771 97.8335 100 89.9593 100 80.2464V19.5872C100 9.87406 92.0771 2 82.3037 2Z" fill="#EB1000"/>
<path fill-rule="evenodd" clip-rule="evenodd" d="M72.8931 30.4152L68.8573 29.5101C68.3393 29.3858 67.7681 29.5278 67.3752 29.9005L64.3393 32.6868C63.1431 33.7871 61.2322 32.7045 61.5893 31.125L62.5002 27.1142C62.6252 26.5818 62.4822 26.0317 62.1072 25.6412L59.3039 22.6243C58.1964 21.4352 59.3039 19.554 60.8931 19.909L64.9289 20.8141C65.4468 20.9383 66.0181 20.7963 66.411 20.4236L69.4464 17.6373C70.6431 16.5371 72.5539 17.6196 72.1968 19.1991L71.286 23.2099C71.161 23.7423 71.3039 24.2925 71.6789 24.6829L74.4823 27.6999C75.5893 28.8889 74.4823 30.7701 72.8931 30.4152ZM38.5184 68.6732C38.5184 69.0636 38.3399 69.2411 37.947 69.2411H29.7863C29.4648 69.2411 29.3398 69.0103 29.3398 68.6732V26.737C29.3398 26.3644 29.4648 26.2224 29.8398 26.2224H56.0006C56.4472 26.2224 56.5543 26.3466 56.6256 26.7725L57.3576 33.8536C57.4293 34.244 57.2326 34.4215 56.8043 34.4215H38.5184V44.3952H55.0006C55.3756 44.3952 55.5543 44.5194 55.5543 44.9098V52.0798C55.5543 52.4702 55.3576 52.5944 55.0364 52.5944H38.5184V68.6732ZM62.2501 37.1573C62.2501 36.7846 62.4285 36.6071 62.8035 36.6071H70.9285C71.3573 36.6071 71.4823 36.7136 71.4823 37.1395V68.6228C71.4823 69.0486 71.3573 69.2261 70.8752 69.2261H62.911C62.4643 69.2261 62.2501 69.0307 62.2501 68.6049V37.1573Z" fill="white"/>
</svg>
