<svg width="100" height="100" viewBox="0 0 100 100" fill="none" xmlns="http://www.w3.org/2000/svg">
<g clip-path="url(#clip0_868_39445)">
<path opacity="0.35" fill-rule="evenodd" clip-rule="evenodd" d="M98.15 50.7874C99.1667 50.7874 100 51.3124 100 51.954V55.9165C100 56.5582 99.1667 57.0832 98.15 57.0832C97.1333 57.0832 96.3 56.5582 96.3 55.9165V51.9499C96.3 51.3124 97.1333 50.7874 98.15 50.7874ZM90.8 52.3374C91.8167 52.3374 92.65 52.8624 92.65 53.504V62.2332C92.65 62.8707 91.8167 63.3957 90.8 63.3957C89.7792 63.3957 88.95 62.8707 88.95 62.229V53.4999C88.95 52.8624 89.7833 52.3374 90.8 52.3374ZM83.4458 54.1457C84.4625 54.1457 85.2959 54.6665 85.2959 55.3082V65.1207C85.2959 65.7624 84.4625 66.2874 83.4458 66.2874C82.4292 66.2874 81.5958 65.7624 81.5958 65.1207V55.3082C81.5958 54.6665 82.4292 54.1457 83.4458 54.1457ZM76.0958 55.6415C77.1125 55.6415 77.9459 56.1624 77.9459 56.804V66.5124C77.9459 67.1499 77.1125 67.6749 76.0958 67.6749C75.0792 67.6749 74.2458 67.1499 74.2458 66.5082V56.7999C74.2458 56.1624 75.0792 55.6415 76.0958 55.6415ZM68.7417 56.9582C69.7625 56.9582 70.5917 57.4832 70.5917 58.1249V66.529C70.5917 67.1707 69.7583 67.6957 68.7417 67.6957C67.725 67.6957 66.8917 67.1707 66.8917 66.529V58.1249C66.8917 57.4832 67.725 56.9582 68.7417 56.9582ZM61.4292 62.3207C62.4458 62.3207 63.2792 62.8415 63.2792 63.4874V66.154C63.2792 66.7915 62.4458 67.3124 61.4292 67.3124C60.4125 67.3124 59.5792 66.7915 59.5792 66.1499V63.4832C59.5792 62.8415 60.4125 62.3207 61.4292 62.3207Z" fill="black"/>
<path fill-rule="evenodd" clip-rule="evenodd" d="M98.15 40.1249C99.1667 40.1249 100 40.6458 100 41.2874V47.8499C100 48.4916 99.1667 49.0166 98.15 49.0166C97.1333 49.0166 96.3 48.4916 96.3 47.8499V41.2874C96.3 40.6458 97.1333 40.1208 98.15 40.1208V40.1249ZM90.8 35.7166C91.8167 35.7166 92.65 36.2374 92.65 36.8833V48.5916C92.65 49.2291 91.8167 49.7499 90.8 49.7499C89.7792 49.7499 88.95 49.2291 88.95 48.5874V36.8791C88.95 36.2374 89.7833 35.7166 90.8 35.7166ZM83.4458 34.0583C84.4625 34.0583 85.2958 34.5833 85.2958 35.2249V50.5041C85.2958 51.1416 84.4625 51.6708 83.4458 51.6708C82.4292 51.6708 81.5958 51.1416 81.5958 50.5041V35.2208C81.5958 34.5833 82.4292 34.0583 83.4458 34.0583ZM76.0958 33.3333C77.1125 33.3333 77.9458 33.8583 77.9458 34.4999V52.3749C77.9458 53.0166 77.1125 53.5416 76.0958 53.5416C75.0792 53.5416 74.2458 53.0166 74.2458 52.3749V34.4999C74.2458 33.8583 75.0792 33.3333 76.0958 33.3333ZM68.7417 33.7874C69.7625 33.7874 70.5917 34.3124 70.5917 34.9541V53.0999C70.5917 53.7416 69.7583 54.2666 68.7417 54.2666C67.725 54.2666 66.8917 53.7416 66.8917 53.0999V34.9499C66.8917 34.3124 67.725 33.7833 68.7417 33.7833V33.7874ZM61.4292 34.9249C62.4458 34.9249 63.2792 35.4458 63.2792 36.0916V58.7332C63.2792 59.3708 62.4458 59.8999 61.4292 59.8999C60.4125 59.8999 59.5792 59.3749 59.5792 58.7332V36.0833C59.5792 35.4416 60.4125 34.9166 61.4292 34.9166V34.9249ZM53.925 36.8541C54.9417 36.8541 55.775 37.3749 55.775 38.0166V63.6916C55.775 64.3333 54.9417 64.8583 53.925 64.8583C52.9083 64.8583 52.075 64.3333 52.075 63.6916V38.0166C52.075 37.3749 52.9083 36.8499 53.925 36.8499V36.8541ZM46.575 40.1208C47.5917 40.1208 48.425 40.6458 48.425 41.2874V65.9874C48.425 66.6291 47.5917 67.1541 46.575 67.1541C45.5542 67.1541 44.725 66.6291 44.725 65.9874V41.2874C44.725 40.6458 45.5583 40.1208 46.575 40.1208ZM39.2208 44.3791C40.2417 44.3791 41.0708 44.9041 41.0708 45.5458V67.0499C41.0708 67.6916 40.2375 68.2166 39.2208 68.2166C38.2042 68.2166 37.3708 67.6916 37.3708 67.0499V45.5416C37.3708 44.8999 38.2042 44.3749 39.2208 44.3749V44.3791ZM31.8708 47.3208C32.8875 47.3208 33.7208 47.8458 33.7208 48.4874V69.6708C33.7208 70.3083 32.8875 70.8333 31.8708 70.8333C30.8542 70.8333 30.0208 70.3082 30.0208 69.6666V48.4874C30.0208 47.8458 30.8542 47.3208 31.8708 47.3208ZM24.5542 49.7583C25.575 49.7583 26.4042 50.2833 26.4042 50.9249V62.1958C26.4042 62.8374 25.5708 63.3624 24.5542 63.3624C23.5375 63.3624 22.7042 62.8374 22.7042 62.1958V50.9207C22.7042 50.2833 23.5375 49.7583 24.5542 49.7583ZM16.9833 38.7666C18 38.7666 18.8333 39.2916 18.8333 39.9332V55.6458C18.8333 56.2874 18 56.8124 16.9833 56.8124C15.9667 56.8124 15.1333 56.2874 15.1333 55.6458V39.9332C15.1333 39.2916 15.9667 38.7666 16.9833 38.7666ZM9.425 39.7958C10.4417 39.7958 11.2708 40.3208 11.2708 40.9624V45.7958C11.2708 46.4333 10.4375 46.9583 9.425 46.9583C8.40417 46.9583 7.575 46.4333 7.575 45.7916V40.9583C7.575 40.3208 8.40833 39.7958 9.425 39.7958ZM1.85 39.1458C2.86667 39.1458 3.7 39.6708 3.7 40.3124V42.4916C3.7 43.1291 2.86667 43.6541 1.85 43.6541C0.833333 43.6541 0 43.1291 0 42.4874V40.3124C0 39.6708 0.833333 39.1458 1.85 39.1458ZM24.5583 37.3041C25.575 37.3041 26.4042 37.8291 26.4042 38.4708V40.1041C26.4042 40.7458 25.5708 41.2708 24.5542 41.2708C23.5375 41.2708 22.7042 40.7458 22.7042 40.1041V38.4666C22.7042 37.8249 23.5375 37.2999 24.5542 37.2999L24.5583 37.3041Z" fill="black"/>
</g>
<defs>
<clipPath id="clip0_868_39445">
<rect width="100" height="100" fill="white"/>
</clipPath>
</defs>
</svg>
