<svg width="100" height="100" viewBox="0 0 100 100" fill="none" xmlns="http://www.w3.org/2000/svg">
<path d="M29.883 84.434C26.0736 81.4375 22.0099 78.5645 19.2332 74.5197C13.3899 67.3859 8.89099 59.1267 5.81501 50.447C3.95635 44.8036 3.3197 38.7526 0.923266 33.3267C-1.58355 29.386 1.35275 25.0781 5.66958 23.8257C7.59102 23.4569 10.9704 21.6443 6.8916 22.9395C3.23496 25.6232 2.8808 20.5044 6.63004 20.1801C9.18969 19.84 10.1318 17.7449 9.25613 15.859C6.50972 14.0673 15.9181 12.0988 11.1838 9.42564C6.25234 4.10545 18.0823 3.08117 15.1633 9.12327C14.4649 13.7697 23.4297 8.27162 21.3497 13.6378C23.4632 16.2142 29.2662 14.2237 29.1223 17.8385C32.202 18.0504 33.2592 20.642 36.15 20.8408C39.1465 22.1941 44.5776 23.2602 45.5977 26.637C42.6247 28.99 35.7415 21.7751 35.4108 28.2901C36.3085 37.9135 36.0799 47.8267 39.6011 56.9908C41.2662 62.5401 45.3031 66.9082 48.9493 71.2303C52.4386 75.4629 57.164 78.4426 61.9804 80.9515C66.2051 82.9446 70.76 84.2661 75.3645 85.0947C77.2321 83.6666 80.5294 78.3558 83.4432 80.5953C83.5813 83.1115 77.6605 85.8553 83.1643 85.577C86.3962 84.6024 88.6383 88.0765 91.2995 84.9425C93.7514 87.8474 101.491 83.0869 99.7464 89.0239C97.3871 90.5462 93.9465 89.626 91.5835 91.7201C87.6878 89.774 84.5857 93.461 80.2725 92.9949C75.4828 93.8529 70.6099 94.1992 65.7532 94.2065C57.7865 93.5772 49.6508 93.312 42.0713 90.5378C37.8026 89.2975 33.6353 86.866 29.883 84.434ZM36.6114 87.3494C40.7807 89.1521 44.8574 91.0526 49.4264 91.6254C56.6754 92.634 64.1608 94.1845 71.4359 92.77C68.1433 91.2833 64.7393 93.3491 61.4593 91.707C57.5254 92.5534 53.3038 91.4915 49.304 90.9683C44.7559 88.9423 39.848 87.5492 35.5887 84.92C30.2669 82.976 38.3414 87.4127 39.7784 87.772C43.1055 89.6605 36.1202 86.8043 35.1351 86.0191C32.349 84.456 31.9938 84.7824 34.8595 86.3696C35.4365 86.7075 36.0061 87.0616 36.6114 87.3494ZM28.6782 81.743C32.7183 83.2392 28.6604 78.9025 26.8096 79.1536C25.9893 77.7307 23.6761 76.8319 25.3077 76.0676C22.3719 77.0867 22.2323 72.1923 20.8528 72.8917C17.747 71.9109 19.6444 68.4373 15.9448 66.304C15.6069 64.0562 12.2693 62.1065 11.2053 58.7161C10.7345 56.9798 7.43356 51.995 9.46172 56.6341C11.188 61.1005 14.2253 64.9256 16.753 68.7455C18.7158 72.3827 21.0338 76.1843 24.6083 78.4536C25.8136 79.6097 26.977 81.3805 28.6782 81.743ZM17.0402 68.9652C17.1815 68.3547 17.7789 70.2855 17.0402 68.9652V68.9652ZM33.5166 83.5368C32.2302 83.032 34.4111 83.1361 33.5166 83.5368V83.5368ZM35.7095 84.3372C34.7088 84.9545 35.4825 83.2324 35.7095 84.3372V84.3372ZM38.4549 85.4818C36.4409 84.6971 39.7617 84.2373 38.4549 85.4818V85.4818ZM43.1599 88.1042C40.618 87.6611 43.954 86.9303 43.1599 88.1042V88.1042ZM34.1255 81.8058C31.5031 81.788 36.1552 80.4928 34.1255 81.8058V81.8058ZM36.1845 82.8327C35.4506 83.144 36.127 82.1385 36.1845 82.8327V82.8327ZM46.4765 89.2567C48.1312 90.3014 56.1386 91.5453 51.1245 89.6851C50.2854 89.8619 41.8275 87.2929 46.4765 89.2567ZM30.1372 76.5311C27.5687 75.7621 29.9766 75.8354 30.1372 76.5311V76.5311ZM34.929 79.3236C32.3406 78.6529 36.1756 78.4541 34.929 79.3236V79.3236ZM38.9592 81.7948C36.0558 81.1174 40.7483 81.12 38.9592 81.7948V81.7948ZM28.188 74.4083C30.1288 75.8966 36.0177 74.5987 31.161 73.519C28.9502 72.3409 23.9685 71.5342 27.3641 74.2294L28.1875 74.4078L28.188 74.4083ZM41.6889 82.648C38.2974 81.8613 42.4976 81.2701 41.6889 82.648V82.648ZM37.586 79.3879C42.3339 80.7308 33.594 76.3852 36.4147 78.8936L37.0398 79.1761L37.586 79.3879ZM45.8116 84.1416C41.7506 83.5217 50.3079 84.1845 45.8116 84.1416V84.1416ZM26.4575 71.8063C25.3485 71.8769 26.2818 70.9693 26.4575 71.8063V71.8063ZM53.4173 88.4082C51.95 89.5334 53.5371 86.8953 53.4173 88.4082V88.4082ZM34.1302 76.505C32.7256 76.472 33.8582 75.7083 34.1302 76.505V76.505ZM26.8839 71.2805C23.3502 70.1432 29.4655 71.1257 26.8839 71.2805V71.2805ZM18.2994 65.7317C15.4907 63.5074 17.9782 64.4945 18.2994 65.7317V65.7317ZM40.8356 80.034C40.3627 79.4946 40.6133 80.1517 40.8356 80.034V80.034ZM54.8627 88.6415C54.099 88.9533 54.8177 87.8176 54.8627 88.6415V88.6415ZM39.5943 78.7518C37.393 78.4306 39.8469 77.6899 39.5943 78.7518V78.7518ZM29.1443 72.129C26.0683 70.8306 31.0642 71.9234 29.1443 72.129V72.129ZM46.8212 83.1131C43.9048 82.5345 49.8135 81.9277 46.8212 83.1131V83.1131ZM37.6263 76.8717C41.0752 77.3163 33.5229 74.5255 36.8698 76.6216L37.6263 76.8717ZM49.6132 84.242C52.833 82.3169 51.7716 88.7498 55.0762 84.7861C58.3352 82.4058 52.2612 87.7281 56.2783 85.2098C59.1838 83.2669 63.4749 86.131 66.1858 87.0653C68.1349 86.9696 70.0308 88.7513 72.0291 87.6674C75.8762 86.6316 64.5055 86.1305 67.4863 84.2922C63.9656 85.3165 61.3657 83.0707 59.6331 80.816C55.6846 79.9042 51.1187 77.8855 49.1481 74.391C48.3446 73.079 50.3094 74.5757 48.4544 72.4309C46.0753 70.3148 44.8867 67.9126 43.2901 65.3399C41.3818 64.3219 41.1595 61.326 40.9664 65.2395C40.9821 62.7698 38.6626 61.1068 38.0971 61.7983C38.0866 59.4192 40.5783 60.6119 38.8342 58.8516C38.4586 56.3861 37.2229 53.817 36.851 51.0335C36.2735 49.6917 36.7694 46.8176 34.8804 49.8554C34.1925 53.0658 34.6523 45.9105 35.7226 48.2703C37.1272 45.8624 35.2178 46.1454 35.1399 46.4797C36.0553 44.4484 35.719 41.5665 34.9008 42.6661C35.3889 40.5129 35.6713 34.7418 34.171 35.7645C35.0807 33.513 35.8958 25.4621 31.9477 28.5318C30.348 28.5542 27.5776 29.1124 26.2682 29.7637C30.3747 32.0273 25.8549 30.5814 24.1835 30.2214C23.9659 32.316 22.3102 31.41 20.2418 31.4304C23.5453 31.8395 18.6332 34.8098 16.7379 33.6558C14.2766 34.8323 18.8618 37.7686 16.787 38.6762C17.0418 40.0452 13.0164 38.1824 13.3323 41.3431C10.9427 40.3382 13.0033 45.0929 14.1986 43.4848C18.2633 44.5849 17.0601 47.0922 17.1632 49.4746C16.5014 50.8624 13.8936 46.2118 16.5825 46.4273C14.4618 42.9815 14.2363 45.1818 12.4739 46.7826C12.0637 46.8987 16.9696 49.0602 13.891 50.129C16.5998 50.547 16.6767 52.9172 17.2286 54.417C18.856 56.1125 18.5233 52.5443 20.4709 54.5824C19.2384 52.7671 13.9418 49.4672 18.2058 50.5255C18.1833 48.6982 17.4347 47.2246 18.7414 47.2607C20.0351 44.9171 17.3865 53.0381 20.303 50.0594C21.1102 49.7073 21.31 47.7137 22.7617 50.2477C24.8688 52.3214 23.5228 53.8243 20.5494 51.9254C21.0814 53.7302 24.5267 54.3747 23.8791 57.1969C24.5659 59.6786 25.5259 58.7647 26.3629 58.6209C27.0199 61.0325 27.3924 59.2591 27.4238 58.1119C30.4302 58.7553 29.726 60.5329 30.6671 61.7743C32.7387 62.7096 27.701 55.4356 31.2583 59.5876C35.0007 62.966 32.6618 64.3763 29.3033 63.8354C31.4288 63.6628 32.1146 66.7084 34.7731 66.6017C37.1978 67.7547 38.8389 72.185 34.6601 70.3405C33.2111 69.0337 28.0813 67.4214 32.271 69.9073C36.1401 71.699 39.2129 72.7714 42.9449 75.0203C45.616 76.9271 46.7695 79.1112 47.7817 79.5428C45.5375 80.6152 41.0177 78.6869 44.3735 78.0958C42.2805 77.7144 39.9259 76.6562 41.9305 79.2645C43.6359 80.6874 47.9716 80.5372 48.749 80.6978C48.0898 82.15 46.9594 82.2651 48.7756 82.3781C46.7491 83.4578 49.4254 83.6252 49.6132 84.242ZM45.4695 72.5397C44.2365 71.2507 43.9179 68.8354 45.2503 70.9368C45.934 71.2115 47.4401 74.8833 45.4695 72.5397ZM58.9646 81.1121C58.9871 81.6965 59.7336 81.0624 58.9646 81.1121V81.1121ZM43.5224 69.3784C43.4753 67.4293 43.9686 70.8819 43.5224 69.3784V69.3784ZM42.1816 67.5736C40.6306 64.5772 44.1366 68.4222 42.1816 67.5736V67.5736ZM25.9271 56.3552C26.3754 57.9136 26.8379 56.1125 25.9271 56.3552V56.3552ZM38.8629 63.3672C39.4227 61.2658 39.5205 65.1301 38.8629 63.3672V63.3672ZM29.7239 57.0123C29.08 55.853 31.0715 58.0998 29.7239 57.0123V57.0123ZM37.5672 59.5269C36.0982 56.2349 38.6071 57.729 37.892 60.0658L37.5672 59.5269ZM24.0417 50.5067C23.3847 49.4264 22.2982 46.2579 22.6481 45.2911C22.9646 46.8657 25.9982 52.0703 24.1364 47.4464C22.0785 43.5706 26.5956 48.7045 27.0607 49.6712C27.2768 50.6333 25.7911 49.4086 26.7976 51.6633C24.9614 49.0963 25.7137 53.0815 24.0417 50.5067ZM19.862 47.6264C20.0336 45.1153 20.8188 49.348 19.862 47.6264V47.6264ZM21.7421 48.2735C22.6393 46.3782 23.2633 50.9152 21.7421 48.2735V48.2735ZM17.2186 44.7743C15.6623 43.2279 14.5366 41.8029 17.2919 43.8149C18.3538 43.8562 14.9326 40.5731 17.5471 42.7723C20.2967 43.2734 18.9047 47.2795 17.2186 44.7743ZM19.5947 44.7125C20.0744 45.594 20.4986 43.817 19.5947 44.7125V44.7125ZM21.0568 45.1813C19.6862 42.6127 22.7193 46.2579 21.0568 45.1813V45.1813ZM18.1503 42.4035C13.6263 38.3775 23.8356 44.509 18.8895 43.15L18.1503 42.4035ZM31.1134 49.9354C29.1553 48.7615 30.5944 41.6711 31.2619 46.5205C33.1651 45.9047 31.1568 49.0247 32.5765 48.9959C32.3526 50.9644 31.7176 51.6722 31.1128 49.9354H31.1134ZM35.9078 52.7692C36.0998 50.6322 36.3117 54.2298 35.9078 52.7692V52.7692ZM35.075 51.9463C35.097 53.0208 35.2905 51.0335 35.075 51.9463V51.9463ZM19.0381 41.081C16.1316 37.0707 27.485 45.1373 20.8993 42.098C20.2114 41.918 19.3833 41.8542 19.0381 41.081ZM28.2707 45.9759C27.9955 42.5991 28.8848 46.5356 28.2707 45.9759V45.9759ZM35.2806 50.4727C35.3209 51.7449 35.8231 48.5491 35.2806 50.4727V50.4727ZM19.4832 39.5498C21.2106 39.181 26.6422 42.5839 21.6542 40.5228C21.0997 39.9087 19.9185 40.188 19.4832 39.5498ZM34.317 46.9442C34.5016 43.4916 35.3481 44.882 34.3233 47.4385L34.317 46.9442ZM20.7686 38.3492C21.4722 37.3171 18.9 33.6814 21.1395 37.0451C22.1072 37.8141 23.9408 38.333 22.3217 38.6563C24.8683 40.9031 21.7008 39.2652 20.7686 38.3492ZM33.5836 45.8655C34.0125 48.1699 34.0701 41.9327 33.5836 45.8655V45.8655ZM19.2991 34.7161C19.5832 35.4328 19.8369 34.486 19.2991 34.7161V34.7161ZM22.6419 36.7056C23.5019 34.9008 24.2285 38.7186 22.6419 36.7056V36.7056ZM32.0702 41.9504C32.0613 41.2573 32.248 42.959 32.0702 41.9504V41.9504ZM31.524 40.7415C30.2152 37.5128 32.7413 42.4511 31.524 40.7415V40.7415ZM30.7205 38.6249C30.5008 37.291 31.467 40.301 30.7205 38.6249V38.6249ZM32.0283 36.499C31.1301 34.9165 33.1624 29.5257 33.389 32.8685C32.4411 35.4741 33.1154 36.9316 33.7766 33.4371C34.9981 30.687 33.5129 38.864 32.0283 36.499ZM33.3722 28.481C33.4591 29.0606 33.7635 28.0008 33.3722 28.481V28.481ZM31.128 72.7034C30.5955 72.2389 31.195 72.999 31.128 72.7034V72.7034ZM35.7509 75.0418C38.3226 75.702 38.3095 74.6416 35.9852 74.3272C34.735 73.1638 30.7906 71.9302 34.3217 74.1828C34.555 74.775 35.2942 74.7614 35.7509 75.0418ZM26.6202 68.9772C28.0374 70.0339 31.9566 71.9716 28.6385 69.38C29.7574 68.0795 26.4973 67.3879 27.5786 66.5185C24.828 64.8351 25.4087 64.9847 27.3359 65.0381C24.0297 63.5602 27.813 63.6706 27.6351 62.9136C26.3602 62.662 21.3037 60.6658 24.2787 63.0774C21.2545 61.5357 23.5579 63.6518 22.644 63.4279C19.5512 62.5851 25.3977 65.7835 22.1522 64.9894C23.9267 66.3956 26.9284 68.5906 22.9029 66.4772C22.3725 67.2409 25.7832 68.3976 26.6202 68.9772ZM31.4555 71.755C28.5731 69.4407 37.3354 73.6497 31.4555 71.755V71.755ZM56.2082 86.7504C55.4047 87.7454 56.2841 85.5838 56.2082 86.7504V86.7504ZM58.7522 87.8212C60.1086 86.5066 58.8076 89.9148 61 87.4995C61.0236 85.7701 60.932 84.7489 58.4807 86.8493C57.8048 87.2238 57.5024 88.8178 58.7522 87.8212ZM18.3679 62.459C15.4478 60.8295 17.951 60.8217 18.3679 62.459V62.459ZM21.0845 64.2387C17.4854 62.7248 20.0754 62.5663 21.0845 64.2387V64.2387ZM36.5392 73.5593C38.0479 74.8995 43.4696 74.5427 38.3717 73.7246C37.6169 72.6082 33.5778 72.8771 36.5392 73.5593ZM57.7844 86.6803C55.5349 87.5497 60.1071 84.7317 57.7844 86.6803V86.6803ZM62.6144 89.9995C61.6137 90.2731 62.6291 89.3739 62.6144 89.9995V89.9995ZM62.6217 89.1238C60.1301 89.2849 65.1934 86.3988 62.6217 89.1238V89.1238ZM11.6866 56.8653C9.49468 53.7375 10.3238 52.3319 8.2104 49.7785C7.81021 47.8257 4.5841 43.3943 6.54163 48.0888C8.33491 50.8347 8.86745 55.0856 11.6866 56.8653ZM61.8156 88.258C59.8738 86.9256 66.5473 85.1998 61.8156 88.258V88.258ZM65.4273 89.6726C63.929 89.2473 67.797 87.6381 65.4273 89.6726V89.6726ZM17.5628 59.0017C15.8119 58.873 18.2408 57.9931 17.5628 59.0017V59.0017ZM64.6734 88.7064C66.9673 87.2275 64.1451 87.4545 64.2575 88.8424L64.6734 88.7064ZM33.5401 69.0829C32.3286 69.1681 33.4617 68.0842 33.5401 69.0829V69.0829ZM35.4642 70.1903C34.5241 70.3844 34.8527 68.9542 35.4642 70.1903V70.1903ZM68.3541 89.706C71.2936 87.5858 66.5729 89.3001 67.7374 90.1078L68.3541 89.706ZM67.2294 89.162C64.7012 90.0513 69.6232 87.1558 67.2294 89.162V89.162ZM72.9786 92.9913C71.0263 92.6429 74.5867 91.9147 72.9786 92.9913V92.9913ZM19.0365 58.2746C21.1918 58.7574 27.6471 63.5812 23.8388 58.6083C21.8875 58.0308 23.0578 53.262 21.0683 54.1063C22.4038 56.3374 22.1669 57.2869 19.3629 55.8802C15.8386 54.1602 17.3824 56.7329 18.0708 57.4418C17.1328 57.6552 19.3127 58.2568 19.0365 58.2746ZM9.22004 50.5213C9.60558 48.9258 5.66801 41.7433 7.36032 46.9222C7.97134 48.0072 7.90961 50.0631 9.22004 50.5213ZM27.238 61.6299C26.1285 60.7019 27.1857 61.4986 27.238 61.6299V61.6299ZM29.9703 62.2655C26.9503 61.5792 29.9688 60.5758 29.9703 62.2655V62.2655ZM53.6475 77.1924C51.8626 77.1652 53.1961 76.0373 53.6475 77.1924V77.1924ZM54.7848 78.0226C54.1288 78.1476 54.6174 77.3765 54.7848 78.0226V78.0226ZM64.1697 83.9339C63.0434 83.8486 65.0726 83.2674 64.1697 83.9339V83.9339ZM14.1233 51.7737C11.3575 51.0607 16.7049 50.774 14.1233 51.7737V51.7737ZM51.5634 75.3614C49.9176 75.7757 51.5346 73.6895 51.5634 75.3614V75.3614ZM13.1032 49.3966C11.5694 49.0278 14.7615 48.8363 13.1032 49.3966V49.3966ZM17.917 51.7282C17.408 51.9364 17.8867 51.1789 17.917 51.7282V51.7282ZM76.6274 87.7312C78.7602 87.2986 83.6195 88.8167 84.4052 87.1663C81.8157 87.103 75.4451 85.3385 75.1438 87.5869L75.7109 87.6758L76.6274 87.7312ZM19.4466 52.1137C18.1262 52.0509 19.4838 50.4204 19.4466 52.1137V52.1137ZM6.79064 43.3346C4.6045 42.846 6.21573 40.1075 6.79064 43.3346V43.3346ZM9.80907 44.0932C7.04645 43.161 9.84569 43.0574 9.80907 44.0932V44.0932ZM11.5333 44.9406C11.0348 44.5362 11.143 45.4501 11.5333 44.9406V44.9406ZM22.3855 51.9019C21.1761 51.554 22.8966 51.4326 22.3855 51.9019V51.9019ZM10.385 43.0296C6.88899 42.6645 10.0931 40.5924 10.385 43.0296V43.0296ZM4.19699 39.0152C3.59382 39.4389 4.10858 37.8905 4.19699 39.0152V39.0152ZM5.11716 38.32C4.32724 38.49 4.96703 36.986 5.11716 38.32V38.32ZM10.2019 41.3556C12.3525 40.5108 6.28583 39.6084 9.76252 41.1961L10.2019 41.3556ZM78.2595 83.3935C76.5107 83.0032 79.6359 82.1317 78.2595 83.3935V83.3935ZM86.4815 87.6554C85.0931 87.8699 87.0329 86.0238 86.4815 87.6554V87.6554ZM10.723 38.6903C9.01759 39.0037 10.949 37.1121 10.723 38.6903V38.6903ZM3.4871 33.8425C3.09842 31.6145 3.15178 27.7036 6.86911 29.0256C1.90674 30.0106 10.3034 35.1932 9.24305 31.1013C11.3298 31.2034 13.325 29.8683 12.2301 31.8949C16.3413 31.4409 19.1913 27.8758 23.1624 28.3753C26.2556 27.9657 29.6376 27.6555 32.971 26.4105C35.7122 26.2127 38.3503 23.2623 36.8479 21.513C33.1101 21.197 29.1982 21.6647 25.0671 22.486C20.4897 23.437 16.3309 25.2455 11.7127 26.0213C7.21071 26.626 12.6177 27.6874 11.3288 27.9239C8.9794 28.7394 14.1301 29.2892 11.0238 30.1482C9.10547 29.7836 7.10922 29.1245 7.92844 27.1026C3.61579 27.6623 -0.173728 29.4519 3.23339 33.8404L3.4871 33.8425ZM13.8785 28.5506C14.8897 24.8259 19.2954 31.6156 15.5357 29.0449C15.0869 28.7091 14.3482 28.435 13.8785 28.5506ZM14.0752 26.7442C14.851 27.3542 15.5347 25.6572 14.0752 26.7442V26.7442ZM15.9281 26.774C16.0599 25.0598 20.1706 27.6811 16.606 27.3913L15.9281 26.774ZM18.4631 25.7545C18.7289 26.717 19.3891 24.6732 18.4631 25.7545V25.7545ZM19.1118 25.3203C20.6529 23.4684 27.8402 24.138 22.5791 25.1398C21.1693 24.0779 20.089 25.766 19.1118 25.3203ZM28.4915 23.8744C28.2566 18.8157 33.1509 25.6723 28.4915 23.8744V23.8744ZM31.1526 23.8602C32.1256 21.3105 34.9285 22.837 31.6025 23.3476C31.6752 23.6191 31.5052 24.6638 31.1526 23.8602ZM9.67306 37.3815C6.58662 35.8367 12.5806 35.6013 9.67306 37.3815V37.3815ZM11.8231 37.9789C9.60767 37.5394 12.8422 36.895 11.8231 37.9789V37.9789ZM5.48858 33.4831C3.52268 32.9977 7.14951 32.2067 5.48858 33.4831V33.4831ZM91.3345 87.1882C90.0649 87.8558 91.3826 85.7078 91.3345 87.1882V87.1882ZM82.6114 81.2351C81.4903 81.3842 82.8594 79.5307 82.6114 81.2351V81.2351ZM93.733 87.7626C96.0557 87.7705 100.771 87.0407 95.7167 87.0433C94.9242 87.1673 91.096 87.1406 93.733 87.7626ZM13.7137 36.9342C15.5933 36.805 16.6547 34.8605 13.3501 34.9725C8.22871 34.442 17.8683 36.726 12.6931 36.0726C11.9973 36.533 13.6739 37.0613 13.7137 36.9342ZM15.3689 37.7717C14.7882 38.4131 15.1727 36.5649 15.3689 37.7717V37.7717ZM17.3327 32.5352C16.2043 32.2648 18.1487 31.5235 17.3327 32.5352V32.5352ZM11.0813 22.0858C14.4361 20.9443 19.0239 19.6622 20.6074 22.6476C18.9957 20.7074 19.9572 18.7974 21.4795 21.6343C23.6327 24.5047 24.7103 20.3286 23.3104 19.3661C24.906 21.3487 26.7212 22.2856 24.3786 19.4916C26.9242 16.4298 19.2818 19.8923 17.5451 19.8578C16.7091 20.2324 8.91662 21.8446 11.0813 22.0863V22.0858ZM13.0477 18.3203C14.9608 16.8765 19.6642 19.1793 16.6463 16.8854C16.3508 16.6249 10.0366 18.6248 13.0477 18.3203ZM20.0226 18.6081C22.2616 18.6656 19.0569 15.6001 21.7248 16.9895C21.287 15.5577 18.6185 15.2894 17.3138 14.7176C16.5762 16.0264 18.8157 18.6258 20.0226 18.6086V18.6081ZM14.2703 12.2772C12.9128 12.8097 15.045 11.2273 14.2703 12.2772V12.2772ZM17.1213 12.9599C20.7298 12.4812 16.2017 11.4062 16.3942 12.9212L17.1213 12.9599ZM11.7985 8.79423C9.2577 5.47761 16.5767 9.35136 13.9951 5.87885C11.8226 4.14887 9.73479 7.82592 11.798 8.79423H11.7985ZM44.4049 26.3566C45.5699 24.2908 39.5937 23.572 43.6197 25.6242C43.9901 25.7487 43.9069 26.4994 44.4049 26.3566Z" fill="black"/>
</svg>
