<svg width="100" height="100" viewBox="0 0 100 100" fill="none" xmlns="http://www.w3.org/2000/svg">
<g clip-path="url(#clip0_867_19975)">
<path fill-rule="evenodd" clip-rule="evenodd" d="M90.3398 -0.000488281C93.3484 -0.000488281 96.1334 1.62757 97.5443 4.27414C98.8962 6.80918 98.8388 9.79648 97.3944 12.276L97.3452 12.3594L84.6856 33.5368C83.254 35.9315 80.6696 37.4262 77.9072 37.458L77.8171 37.4586L63.3607 37.4584L69.3693 51.2143L69.3933 51.2546L69.4302 51.3196C70.8452 53.8771 70.8107 56.9179 69.3433 59.4373L69.2938 59.5211L56.6342 80.6985C55.2026 83.0932 52.6182 84.5879 49.856 84.6197L49.7659 84.6202L32.0225 84.6201L19.267 98.0737L19.2429 98.0987C18.0426 99.3188 16.4208 99.9995 14.7299 99.9995C14.3072 99.9995 13.8843 99.9568 13.4658 99.8715C11.4033 99.4504 9.68957 98.0351 8.86468 96.0831L8.84141 96.0273L2.12883 80.6181L2.09352 80.559L2.05684 80.4954C2.05075 80.4846 2.04455 80.4735 2.03808 80.4617C0.623049 77.9044 0.657322 74.8637 2.1246 72.3441L2.17404 72.2603L14.4525 51.7205L5.40513 31.0077L5.57092 30.9232L5.56841 30.9108C5.18559 29.0055 5.49376 27.0186 6.4769 25.2784L6.5312 25.1837L6.58139 25.0986L19.2411 3.92113C20.6728 1.52657 23.2574 0.0318984 26.0194 -0.000488281H26.1095H90.3398ZM23.8666 84.4591L10.4157 84.459L14.3663 93.5979L14.376 93.6221C14.4415 93.7859 14.5475 93.8754 14.7051 93.9078C14.8458 93.9369 14.9596 93.907 15.0672 93.8089L15.086 93.7906L23.8666 84.4591ZM62.3186 53.0401H21.6596C21.6147 53.0401 21.5698 53.0416 21.525 53.0447L21.5127 53.0456L32.6611 78.5468H49.7639C50.4669 78.5468 51.1441 78.1704 51.5292 77.5659L51.5598 77.5164L64.2377 56.326C64.6159 55.6939 64.6578 54.9605 64.3581 54.3006C64.0126 53.5395 63.2105 53.0401 62.3186 53.0401ZM17.4331 58.2765L7.37101 75.2362C6.97063 75.9112 6.94742 76.7017 7.30596 77.3974L7.34399 77.4681L7.36425 77.5028L7.40487 77.5692L7.48534 77.6889L7.57517 77.8057L7.66111 77.9039L7.67602 77.9198L7.73414 77.9787L7.78464 78.0268C8.10116 78.3141 8.49243 78.4894 8.92397 78.5344L9.02092 78.5427L9.07705 78.5456L9.14818 78.5468H26.2205L17.4331 58.2765ZM14.7872 37.4995L19.2064 47.6347L19.2925 47.6053C20.0556 47.3499 20.8535 47.2115 21.6602 47.1989L21.7813 47.1979L61.193 47.1978L56.9644 37.4997L14.7872 37.4995ZM90.2275 5.91167H49.4234L60.5752 31.4184H77.6718C78.3761 31.4184 79.0539 31.0418 79.4392 30.437L79.4698 30.3874L92.1485 9.19743C92.5266 8.56549 92.5684 7.83265 92.2691 7.17325C91.9306 6.42783 91.1544 5.93307 90.2844 5.91235L90.2275 5.91167ZM43.177 5.91167H26.1749C25.4757 5.91167 24.8014 6.28737 24.4178 6.8913L24.3873 6.94076L11.7419 28.1311C11.3644 28.7637 11.3226 29.4982 11.622 30.159C11.9592 30.9037 12.7311 31.3971 13.596 31.4178L13.6525 31.4184H54.2994L43.177 5.91167Z" fill="#4B39EF"/>
</g>
<defs>
<clipPath id="clip0_867_19975">
<rect width="100" height="100" fill="white"/>
</clipPath>
</defs>
</svg>
