<svg width="100" height="100" viewBox="0 0 100 100" fill="none" xmlns="http://www.w3.org/2000/svg">
<path fill-rule="evenodd" clip-rule="evenodd" d="M69.928 17.3419H81.4428C91.6848 17.3419 100 25.6571 100 35.8991V76.3885C100 86.6305 91.6848 94.9457 81.4428 94.9457H80.5354C75.264 94.1211 72.9778 92.5401 71.2118 91.204L56.5716 79.1667C56.2048 78.8701 55.7474 78.7082 55.2757 78.7082C54.804 78.7082 54.3465 78.8701 53.9798 79.1667L49.2235 83.0776L35.8282 72.0634C35.4619 71.7663 35.0045 71.6041 34.5328 71.6041C34.0612 71.6041 33.6038 71.7663 33.2375 72.0634L14.628 88.4343C10.8827 91.4805 8.4053 90.9178 6.79878 90.7412C2.64911 87.3357 0 82.169 0 76.3885V35.8991C0 25.6571 8.31517 17.3419 18.5584 17.3419H30.0476L30.0269 17.3882L29.6396 18.5173L29.519 18.9046L28.9977 21.2175L28.9259 21.6231L28.6969 23.9397L28.6664 24.5755L28.6616 24.7984L28.6835 25.8605L28.7359 26.4829L28.865 27.4573L29.0294 28.3342L29.2243 29.1417L29.4776 30.0162L30.1353 31.8676L30.3521 32.423L31.497 34.8419L31.9014 35.5849L33.2253 37.8576L33.732 38.6773L35.5797 41.3983L35.8464 41.7588L38.2507 44.8878L39.0278 45.8512L41.7731 49.0606L42.3371 49.6781L44.6001 52.1129L45.4965 53.041L46.9776 54.5123L46.6804 54.7608L46.4953 54.9276C45.9922 55.3966 45.5148 55.8947 45.0678 56.4184C44.853 56.6718 44.6482 56.9334 44.4539 57.2028C44.1576 57.6144 43.8925 58.0475 43.661 58.4988C43.5427 58.733 43.4366 58.9733 43.3431 59.2186C43.1021 59.8452 42.9571 60.5047 42.9132 61.1747L42.9046 61.7532C42.9257 62.569 43.0919 63.3745 43.3955 64.1319C43.7031 64.8998 44.1517 65.6034 44.7182 66.2062C45.1299 66.6446 45.5988 67.0271 46.1128 67.3413C46.5501 67.6093 47.0166 67.8297 47.5013 67.9978C48.555 68.355 49.6731 68.4821 50.7801 68.3705H50.7862C51.7307 68.2789 52.6487 68.0064 53.4901 67.5679C53.8531 67.3754 54.199 67.1525 54.523 66.8992C55.4507 66.1772 56.1696 65.2212 56.6057 64.1295C56.9468 63.2781 57.1136 62.3683 57.099 61.4524L57.0722 60.9737C57.0104 60.3414 56.8595 59.721 56.624 59.1309C56.522 58.8739 56.4061 58.6226 56.2769 58.3782C56.0371 57.9279 55.7643 57.4959 55.4608 57.0859C55.3219 56.8983 55.1782 56.7143 55.0297 56.5342C54.5353 55.944 54.0032 55.3866 53.4365 54.8655L53.0358 54.5245L53.7142 53.8546L56.6301 50.8096L57.6386 49.7025L59.2061 47.9389L60.2256 46.7465L61.6798 44.9755L62.664 43.738L64.1097 41.8051L64.8393 40.8051L65.8746 39.2571L66.7369 37.938L68.3617 35.1086L69.291 33.2524L69.3178 33.1952L70.0291 31.4729C70.0385 31.4507 70.0466 31.4279 70.0535 31.4047L70.8196 29.0151L70.9 28.6667L71.2325 26.7642L71.297 26.249L71.3165 25.9336L71.3397 24.7424L71.3336 24.5207L71.2727 23.4538L71.1972 22.6255L70.8196 20.2371C70.8135 20.2054 70.8074 20.1737 70.7977 20.1421L70.3129 18.376L70.146 17.8851L69.928 17.3419ZM75.4016 67.8334C74.2406 67.8498 73.1317 68.3182 72.3106 69.1393C71.4896 69.9604 71.0211 71.0693 71.0047 72.2303C71.0217 73.391 71.4904 74.4994 72.3114 75.3202C73.1324 76.1409 74.2409 76.6093 75.4016 76.626C76.5624 76.609 77.6709 76.1405 78.492 75.3199C79.313 74.4993 79.7822 73.391 79.7998 72.2303C79.7831 71.0691 79.3143 69.9603 78.4931 69.1392C77.6718 68.3182 76.5628 67.8497 75.4016 67.8334Z" fill="url(#paint0_radial_867_19660)"/>
<path fill-rule="evenodd" clip-rule="evenodd" d="M43.4077 93.3565L42.6319 94.0081C41.9147 94.5999 41.0161 94.9276 40.0863 94.9362H18.556C14.2676 94.9415 10.1108 93.4556 6.79761 90.7329C8.40413 90.9095 10.8815 91.4722 14.6268 88.4261L33.2339 72.0564C33.6007 71.7603 34.0579 71.5988 34.5292 71.5988C35.0006 71.5988 35.4578 71.7603 35.8246 72.0564L49.2187 83.0694L53.9737 79.1597C54.7276 78.5507 55.8129 78.5507 56.5656 79.1597L71.2045 91.1957C72.9706 92.5319 75.2567 94.1116 80.5269 94.9362H70.7892C69.9287 94.926 69.0929 94.6475 68.3983 94.1396L68.2278 94.0081L67.5055 93.4076C67.4473 93.3374 67.3829 93.2726 67.3131 93.214C66.4946 92.5282 56.1235 83.9366 56.1235 83.9366C55.9042 83.7543 55.628 83.6547 55.3429 83.6552C55.0578 83.6556 54.7819 83.7561 54.5632 83.939C54.5632 83.939 54.5888 83.9707 43.5551 93.214C43.5025 93.2577 43.4532 93.3053 43.4077 93.3565ZM75.3944 67.8275C74.2351 67.8488 73.1292 68.3187 72.3092 69.1384C71.4892 69.9582 71.019 71.064 70.9975 72.2232C71.0196 73.3823 71.49 74.4877 72.3099 75.3074C73.1297 76.127 74.2353 76.5971 75.3944 76.6189C76.5535 76.5971 77.659 76.127 78.4789 75.3074C79.2987 74.4877 79.7691 73.3823 79.7913 72.2232C79.7697 71.064 79.2995 69.9582 78.4795 69.1384C77.6596 68.3187 76.5537 67.8488 75.3944 67.8275ZM46.9728 54.5077L45.4917 53.0364L44.5953 52.1083L42.3322 49.6735L41.7683 49.056L39.0242 45.8478L38.2471 44.8844L35.8428 41.7554L35.5761 41.3949L33.7284 38.6739L33.2217 37.8542L31.8978 35.5815L31.4934 34.8385L30.3485 32.4208L30.1317 31.8654L29.4752 30.0141L29.2219 29.1396L29.027 28.332L28.8626 27.4551L28.7335 26.4807L28.6811 25.8583L28.6592 24.7962L28.664 24.5733L28.6945 23.9376L28.9235 21.6222L28.9953 21.2166L29.5166 18.9036L29.636 18.5163L30.0233 17.3872L30.1476 17.0949L30.7638 15.7405L31.1914 14.9342L31.787 13.9525L32.3801 13.078L32.8027 12.5226L33.2899 11.9356L33.8259 11.3461L34.285 10.8857L35.4031 9.90152L36.2204 9.23285C36.2399 9.2158 36.2606 9.20118 36.2813 9.18657L37.2484 8.53251L38.0169 8.04288L39.4761 7.27434C39.498 7.26094 39.5236 7.24998 39.5467 7.23901L41.6149 6.38034L41.8061 6.30848L43.6452 5.77013L44.4223 5.59596L45.4722 5.38525L46.1689 5.27928L47.2371 5.14652L47.9654 5.08197L49.4112 5.00524L49.9775 4.99915L51.0506 5.02107L51.3295 5.0369L52.8836 5.16601L54.9384 5.45589L55.1759 5.50583L57.2075 6.01129L57.8043 6.18911L58.4669 6.41809L59.2744 6.72381L59.9126 6.9942L60.8504 7.43633L61.4412 7.73961L62.5033 8.36321L62.8991 8.60681L64.3473 9.66402L64.7626 10.0245L65.7711 10.9429L65.821 10.9928L66.6773 11.9112L66.972 12.2437L67.9769 13.5786L68.1815 13.8977L68.9793 15.2448L69.2192 15.7064L69.6686 16.7113L70.1388 17.8842L70.3056 18.375L70.7904 20.1411C70.7991 20.1724 70.8064 20.2041 70.8123 20.2361L71.1899 22.6246L71.2654 23.4516L71.3263 24.5185L71.3324 24.7402L71.3093 25.9314L71.2898 26.2468L71.2252 26.7621L70.8927 28.6645L70.8123 29.0129L70.0462 31.4026C70.0392 31.4257 70.0311 31.4484 70.0219 31.4708L69.3106 33.193L69.2838 33.2502L68.3544 35.1052L66.7296 37.9346L65.8673 39.2537L64.8332 40.8017L64.1037 41.8017L62.6579 43.7346L61.6738 44.9721L60.2195 46.7418L59.2001 47.9342L57.6325 49.6979L56.6241 50.805L53.7082 53.85L53.031 54.5199L53.4305 54.8609C53.9969 55.3822 54.5291 55.9388 55.0236 56.5295C55.1722 56.7098 55.3159 56.8937 55.4548 57.0813C55.7581 57.4905 56.0309 57.9229 56.2708 58.3723C56.3999 58.6159 56.5156 58.8681 56.618 59.1251C56.8506 59.7146 57.0077 60.3382 57.0662 60.9679L57.093 61.4465C57.1076 62.3625 56.9407 63.2735 56.5997 64.1237C56.1635 65.2154 55.4447 66.1713 54.5169 66.8934C54.193 67.1467 53.847 67.3696 53.4841 67.562C52.6429 68.0002 51.7254 68.2727 50.7814 68.3647H50.7753C49.6683 68.4757 48.5503 68.3487 47.4965 67.992C47.0115 67.8235 46.546 67.6034 46.108 67.3355C45.5944 67.0212 45.1254 66.6394 44.7134 66.2003C44.1473 65.5972 43.6987 64.8938 43.3907 64.1261C43.0876 63.3685 42.9214 62.5631 42.8998 61.7474L42.9084 61.1688C42.9523 60.4989 43.0972 59.8394 43.3383 59.2128C43.4321 58.9667 43.538 58.7268 43.6562 58.4929C43.8876 58.0423 44.1531 57.6099 44.4491 57.1982C44.6428 56.929 44.8486 56.6672 45.063 56.4138C45.51 55.8901 45.9874 55.3919 46.4904 54.923L46.6756 54.7562L46.9728 54.5077Z" fill="black"/>
<path fill-rule="evenodd" clip-rule="evenodd" d="M42.6318 94.0081L54.5631 83.939C54.7818 83.7561 55.0577 83.6556 55.3428 83.6552C55.6279 83.6547 55.9041 83.7543 56.1234 83.9366L68.2277 94.0081C68.9633 94.6073 69.8841 94.935 70.8329 94.9362H40.0424C40.9875 94.9362 41.9022 94.6086 42.6318 94.0081ZM50.059 58.0642L50.176 58.0983C50.2137 58.1166 50.2454 58.1422 50.2795 58.1653L50.3769 58.2518C50.6181 58.4735 50.852 58.7061 51.0773 58.9448C51.2356 59.1141 51.3903 59.2883 51.5389 59.4686C51.7277 59.6963 51.9043 59.935 52.0651 60.1835C52.1345 60.2931 52.199 60.404 52.2599 60.5197C52.3123 60.6195 52.3598 60.7231 52.4012 60.8278C52.4743 61.0105 52.5291 61.203 52.5462 61.3991L52.5425 61.7669C52.518 62.0989 52.415 62.4202 52.242 62.7046C52.069 62.989 51.8309 63.2282 51.5474 63.4026C51.1792 63.6254 50.7653 63.7615 50.3367 63.8009L49.8824 63.8143L49.4988 63.7802C49.3194 63.754 49.1428 63.7112 48.9714 63.6523C48.7969 63.5929 48.6294 63.5144 48.472 63.4185L48.1724 63.1992C47.8193 62.8978 47.5789 62.4856 47.4903 62.03C47.4755 61.9533 47.4637 61.8761 47.455 61.7985L47.444 61.4478C47.4501 61.3528 47.4647 61.259 47.4854 61.1652C47.5378 60.9606 47.6133 60.762 47.7083 60.5733C47.8314 60.337 47.9714 60.1092 48.1273 59.8924C48.3868 59.5416 48.6681 59.2079 48.969 58.8924C49.1626 58.6878 49.3611 58.4893 49.5682 58.2981L49.7156 58.1653C49.8179 58.0983 49.8191 58.0983 49.936 58.0642H50.059ZM49.3051 9.16466L49.3526 9.16101V50.1644L49.2503 49.9756C47.9005 47.4788 46.6439 44.9326 45.4831 42.3425C44.5415 40.2458 43.6886 38.1104 42.9265 35.942C42.3183 34.2148 41.8039 32.4559 41.3858 30.673C41.063 29.2565 40.8146 27.8193 40.7122 26.3674C40.6725 25.7479 40.6607 25.1269 40.6769 24.5064C40.6867 23.9656 40.7086 23.426 40.7427 22.8865C40.7963 22.0387 40.8828 21.1922 41.007 20.3518C41.1057 19.6905 41.2275 19.0315 41.3773 18.3799C41.4966 17.8623 41.6355 17.3483 41.7938 16.8428C42.0228 16.112 42.2968 15.3983 42.616 14.7016C42.7329 14.4507 42.8583 14.201 42.9899 13.9562C43.7816 12.4898 44.8558 11.139 46.2626 10.2365C47.1767 9.64147 48.2199 9.27395 49.3051 9.16466ZM54.6216 9.26819L57.3803 10.055C58.658 10.5264 59.8882 11.1402 61.0184 11.9076C62.5591 12.9474 63.8869 14.2719 64.9306 15.81C65.542 16.721 66.0487 17.7039 66.4446 18.7307C67.0182 20.2495 67.3739 21.8414 67.4993 23.4589C67.5359 23.8828 67.5566 24.3078 67.5651 24.7329C67.5748 25.1275 67.5724 25.5234 67.5407 25.918C67.4628 26.801 67.2971 27.6743 67.045 28.5245C66.8427 29.2202 66.604 29.9048 66.3301 30.5756C65.989 31.4099 65.6102 32.2284 65.1949 33.0274C64.2766 34.802 63.2181 36.5011 62.0854 38.1441C60.6812 40.1635 59.1844 42.1168 57.5996 43.9977C55.8789 46.0498 54.0845 48.0389 52.2197 49.961C53.485 47.5882 54.666 45.1714 55.7604 42.7152C56.3694 41.3462 56.9431 39.9626 57.4826 38.5655C58.0758 37.0309 58.6117 35.4755 59.0867 33.9007C59.4399 32.7204 59.7517 31.528 60.0087 30.3222C60.2292 29.2882 60.4022 28.2431 60.5093 27.192C60.5995 26.3151 60.6324 25.4333 60.6104 24.5539C60.6021 24.0156 60.5822 23.4775 60.5507 22.94C60.4216 20.7781 60.0928 18.6223 59.4619 16.5481C59.223 15.7616 58.9325 14.9918 58.5922 14.2437C57.7847 12.4849 56.6581 10.8418 55.1332 9.64211L54.6216 9.26819Z" fill="white"/>
<defs>
<radialGradient id="paint0_radial_867_19660" cx="0" cy="0" r="1" gradientUnits="userSpaceOnUse" gradientTransform="translate(53.0955 55.8058) scale(72.4412 72.4412)">
<stop stop-color="#BA7BF0"/>
<stop offset="0.45" stop-color="#996BEC"/>
<stop offset="1" stop-color="#5046E4"/>
</radialGradient>
</defs>
</svg>
