<svg width="100" height="100" viewBox="0 0 100 100" fill="none" xmlns="http://www.w3.org/2000/svg">
<g clip-path="url(#clip0_867_20631)">
<path d="M63.4532 32.1612H66.5047L75.1982 23.4678L75.6257 19.7791C59.4501 5.50238 34.7572 7.04071 20.4804 23.2163C16.5109 27.7097 13.6313 33.0541 12.0636 38.8385C13.0319 38.4403 14.1049 38.3774 15.1151 38.6541L32.4979 35.787C32.4979 35.787 33.3823 34.3241 33.8392 34.4163C41.5728 25.9241 54.5878 24.9348 63.516 32.1612H63.4532Z" fill="#EA4335"/>
<path d="M87.5801 38.8385C85.5807 31.4822 81.4813 24.8678 75.7765 19.8085L63.5788 32.0062C68.7303 36.2146 71.6645 42.5565 71.5387 49.2087V51.3757C77.5369 51.3757 82.395 56.238 82.395 62.2321C82.395 68.2303 77.5327 73.0884 71.5387 73.0884H49.8219L47.6548 75.2849V88.3083L49.8219 90.4754H71.5387C83.9879 90.5718 95.0328 82.5029 98.7298 70.6154C102.418 58.7237 97.8915 45.8134 87.5801 38.8385Z" fill="#4285F4"/>
<path d="M28.0756 90.3538H49.7925V72.971H28.0756C26.5289 72.971 24.999 72.6399 23.5906 71.9944L20.5391 72.9375L11.7869 81.631L11.024 84.6825C15.9325 88.3879 21.9223 90.3789 28.0756 90.3538Z" fill="#34A853"/>
<path d="M28.0756 33.9594C16.012 34.0306 5.32753 41.7558 1.4796 53.1864C-2.36833 64.617 1.46702 77.2339 11.0282 84.586L23.6241 71.9901C18.1581 69.5212 15.7312 63.0913 18.2001 57.6254C20.6689 52.1595 27.0989 49.7325 32.5648 52.2014C34.9708 53.2912 36.899 55.2194 37.9888 57.6254L50.5847 45.0295C45.2236 38.0253 36.8948 33.93 28.0756 33.9594Z" fill="#FBBC05"/>
</g>
<defs>
<clipPath id="clip0_867_20631">
<rect width="100" height="80.4753" fill="white" transform="translate(0 10)"/>
</clipPath>
</defs>
</svg>
