<svg width="100" height="100" viewBox="0 0 100 100" fill="none" xmlns="http://www.w3.org/2000/svg">
<g clip-path="url(#clip0_867_21171)">
<path fill-rule="evenodd" clip-rule="evenodd" d="M51.4169 24.8043C50.9648 23.2677 50.6209 21.7014 50.3877 20.1168V15.5001C59.0054 15.5854 67.2767 18.9046 73.5627 24.8001L51.4169 24.8043ZM48.5419 24.8043C49.0127 23.2501 49.3711 21.6585 49.6127 20.0335V15.5001C40.9951 15.5854 32.7238 18.9046 26.4377 24.8001H48.5377L48.5419 24.8043ZM25.9044 25.5835H48.2919C47.9665 26.5669 47.5952 27.5346 47.1794 28.4835C45.4597 32.597 42.9707 36.3446 39.8461 39.5251L25.9044 25.5835ZM24.8044 24.8043H12.4044V25.5835H24.5502C18.3306 32.0467 14.8171 40.6432 14.7294 49.6126H0.000244141V50.3876H14.7294C14.8171 59.357 18.3306 67.9535 24.5502 74.4168H12.4044V75.1918H24.8044V87.596H25.5836V75.4501C32.0468 81.6698 40.6433 85.1832 49.6127 85.271V100H50.3877V85.271C59.3571 85.1832 67.9537 81.6698 74.4169 75.4501V87.596H75.1919V75.1918H87.5961V74.4168H75.4502C81.6699 67.9535 85.1833 59.357 85.2711 50.3876H100V49.6126H85.2711C85.1833 40.6432 81.6699 32.0467 75.4502 25.5835H87.5961V24.8043H75.1919V12.4043H74.4169V24.5501C67.9537 18.3305 59.3571 14.817 50.3877 14.7293V0.00012207H49.6127V14.7293C40.6433 14.817 32.0468 18.3305 25.5836 24.5501V12.4043H24.8044V24.8043ZM50.3877 84.4959C59.006 84.4095 67.2773 81.0888 73.5627 75.1918H51.4169C50.9669 76.7209 50.6252 78.2876 50.3877 79.8835V84.4959ZM49.6127 79.9668C49.3717 78.351 49.0124 76.755 48.5377 75.1918H26.4377C32.7232 81.0888 40.9945 84.4095 49.6127 84.4959V79.9668ZM15.5044 49.6126H20.1169C21.7015 49.3795 23.2679 49.0356 24.8044 48.5835V26.4376C18.9089 32.7237 15.5897 40.9949 15.5044 49.6126ZM20.0336 50.3876H15.5002C15.5856 59.0053 18.9048 67.2765 24.8002 73.5626V51.4626C23.2384 50.9881 21.648 50.6288 20.0336 50.3876ZM84.4919 49.6126C84.4066 40.9949 81.0874 32.7237 75.1919 26.4376V48.5835C76.7211 49.0335 78.2877 49.3751 79.8836 49.6126H84.4919ZM79.9669 50.3876C78.3419 50.6293 76.7502 50.9876 75.1919 51.4626V73.5626C81.0889 67.2772 84.4096 59.0059 84.4961 50.3876H79.9669ZM74.4169 74.096V51.7085C73.4334 52.0339 72.4657 52.4051 71.5169 52.821C67.4033 54.5406 63.6557 57.0296 60.4752 60.1543L74.4169 74.096ZM74.4169 48.346V25.6376L74.3669 25.5835H51.6544C51.9711 26.5626 52.3294 27.5335 52.7377 28.4835C54.539 32.6593 57.1102 36.4587 60.3169 39.6835C63.5413 42.8917 67.3408 45.4642 71.5169 47.2668C72.4669 47.671 73.4336 48.0293 74.4169 48.346ZM25.5836 74.3668V51.7085C26.5627 52.0335 27.5336 52.4043 28.4836 52.821C32.6671 54.5707 36.4709 57.1165 39.6836 60.3168C42.8838 63.5295 45.4296 67.3333 47.1794 71.5168C47.5961 72.4668 47.9711 73.4335 48.2919 74.4168H25.6336L25.5836 74.3668ZM25.5836 48.346V26.3585L39.2919 40.0668C36.151 43.0967 32.4897 45.5357 28.4836 47.2668C27.5338 47.6704 26.5662 48.0305 25.5836 48.346ZM51.6544 74.4168H73.6419L59.9336 60.7085C56.9037 63.8494 54.4647 67.5107 52.7336 71.5168C52.3299 72.4665 51.9698 73.4342 51.6544 74.4168ZM41.8752 41.8751C38.4168 45.3186 34.3475 48.088 29.8752 50.0418C34.355 51.9447 38.4285 54.6886 41.8752 58.1251C45.3118 61.5718 48.0557 65.6453 49.9586 70.1251C51.9123 65.6529 54.6818 61.5835 58.1252 58.1251C61.572 54.6886 65.6455 51.9447 70.1252 50.0418C65.653 48.088 61.5836 45.3186 58.1252 41.8751C54.6817 38.4168 51.9123 34.3474 49.9586 29.8751C48.0557 34.3549 45.3118 38.4284 41.8752 41.8751Z" fill="url(#paint0_linear_867_21171)"/>
</g>
<defs>
<linearGradient id="paint0_linear_867_21171" x1="2441.9" y1="7558.1" x2="7519.4" y2="2519.4" gradientUnits="userSpaceOnUse">
<stop stop-color="#446EFF"/>
<stop offset="0.36661" stop-color="#2E96FF"/>
<stop offset="0.83221" stop-color="#B1C5FF"/>
</linearGradient>
<clipPath id="clip0_867_21171">
<rect width="100" height="100" fill="white"/>
</clipPath>
</defs>
</svg>
