<svg width="100" height="100" viewBox="0 0 100 100" fill="none" xmlns="http://www.w3.org/2000/svg">
<path d="M50 96.1175L68.4129 39.4487H31.5867L49.9996 96.1175H50Z" fill="#E24329"/>
<path d="M50.0001 96.1171L31.5868 39.4482H5.78198L50.0001 96.1171Z" fill="#FC6D26"/>
<path d="M5.78194 39.4482L0.186614 56.6697C-0.0621712 57.4353 -0.0622055 58.26 0.186516 59.0256C0.435238 59.7913 0.919947 60.4585 1.57118 60.9317L50 96.1174L5.78155 39.4486L5.78194 39.4482Z" fill="#FCA326"/>
<path d="M5.78198 39.4485H31.5868L20.4974 5.31709C19.9267 3.56078 17.4421 3.56117 16.8718 5.31709L5.78198 39.4485Z" fill="#E24329"/>
<path d="M50.0001 96.1171L68.4131 39.4482H94.2183L49.9998 96.1171H50.0001Z" fill="#FC6D26"/>
<path d="M94.218 39.4482L99.8134 56.6697C100.062 57.4354 100.062 58.2601 99.8133 59.0257C99.5645 59.7913 99.0797 60.4585 98.4284 60.9317L50 96.1174L94.218 39.4486V39.4482Z" fill="#FCA326"/>
<path d="M94.2183 39.4485H68.4131L79.5029 5.31709C80.0736 3.56078 82.5582 3.56117 83.1285 5.31709L94.2183 39.4485Z" fill="#E24329"/>
</svg>
