<svg width="100" height="100" viewBox="0 0 100 100" fill="none" xmlns="http://www.w3.org/2000/svg">
<g clip-path="url(#clip0_868_39451)">
<path d="M79.2833 16.0541C78.2034 16.0533 77.1475 16.3728 76.2493 16.9723C75.351 17.5717 74.6507 18.4241 74.2371 19.4217C73.8234 20.4192 73.715 21.5171 73.9255 22.5763C74.136 23.6355 74.6559 24.6084 75.4195 25.3721C76.1831 26.1357 77.1561 26.6556 78.2153 26.8661C79.2745 27.0766 80.3723 26.9681 81.3699 26.5545C82.3674 26.1408 83.2199 25.4406 83.8193 24.5423C84.4188 23.6441 84.7383 22.5882 84.7375 21.5083C84.7375 20.0606 84.1624 18.6723 83.1388 17.6486C82.1151 16.625 80.7268 16.0499 79.2791 16.0499L79.2833 16.0541ZM81.7583 24.3333C81.3947 24.333 81.0347 24.2611 80.6989 24.1217C80.3631 23.9823 80.058 23.7781 79.8011 23.5208C79.5442 23.2635 79.3405 22.9582 79.2016 22.6221C79.0627 22.2861 78.9914 21.926 78.9916 21.5624C78.9919 21.1988 79.0638 20.8388 79.2032 20.503C79.3426 20.1672 79.5468 19.8621 79.8041 19.6052C80.0614 19.3483 80.3667 19.1446 80.7028 19.0057C81.0388 18.8668 81.3989 18.7955 81.7625 18.7958C82.4968 18.7963 83.2008 19.0885 83.7197 19.6082C84.2385 20.1278 84.5297 20.8323 84.5291 21.5666C84.5286 22.3009 84.2363 23.0049 83.7167 23.5238C83.1971 24.0426 82.4926 24.3338 81.7583 24.3333Z" fill="#0039C6"/>
<path d="M81.9584 20.0583C81.5878 20.0782 81.2389 20.2394 80.9837 20.5088C80.7284 20.7782 80.5861 21.1351 80.5861 21.5063C80.5861 21.8774 80.7284 22.2344 80.9837 22.5037C81.2389 22.7731 81.5878 22.9343 81.9584 22.9542C82.329 22.9343 82.6778 22.7731 82.9331 22.5037C83.1884 22.2344 83.3307 21.8774 83.3307 21.5063C83.3307 21.1351 83.1884 20.7782 82.9331 20.5088C82.6778 20.2394 82.329 20.0782 81.9584 20.0583ZM58.8209 67.9875C58.8397 67.9654 58.852 67.9384 58.8562 67.9097C58.8604 67.8809 58.8563 67.8516 58.8446 67.825C58.8328 67.7985 58.8138 67.7758 58.7897 67.7595C58.7656 67.7433 58.7374 67.7342 58.7084 67.7333C57.4 67.7125 52.4625 67.3458 49.9375 63.225C49.1628 61.9649 48.7222 60.528 48.6573 59.0502C48.5924 57.5723 48.9054 56.1024 49.5667 54.7792C49.5765 54.7576 49.5816 54.7341 49.5816 54.7104C49.5816 54.6867 49.5765 54.6633 49.5667 54.6417L45.3792 47.1C45.3459 47.0333 45.2667 47.0167 45.1959 47.0292C36.7875 48.6792 31.8875 55.7958 33.3709 62.8125C33.7709 64.7208 34.5584 66.4125 35.7792 67.9667C38.8959 71.925 43.525 73.2167 46.925 73.1125C53.9667 72.9042 57.8834 69.0417 58.825 67.9875H58.8209ZM19.8584 28.775C22.7883 25.2279 26.2908 22.1958 30.2209 19.8042L23.4584 7.62084C23.2465 7.24 22.9356 6.92353 22.5586 6.70495C22.1816 6.48637 21.7525 6.3738 21.3167 6.37917L1.27921 6.54584C1.05566 6.5482 0.836564 6.60855 0.643334 6.72097C0.450104 6.83339 0.289359 6.99404 0.176821 7.1872C0.0642832 7.38036 0.00380512 7.59943 0.00130171 7.82297C-0.0012017 8.04651 0.0543553 8.26687 0.162539 8.4625L15.2459 35.65C16.9542 32.5 18.6792 30.1875 19.8584 28.775ZM73 45.5417C71.2417 45.5833 69.5667 45.5 68.65 45.6542C67.8875 45.7833 65.9125 46.1583 63.9 48.0458C63.8808 48.0648 63.8669 48.0885 63.8596 48.1145C63.8524 48.1406 63.8522 48.168 63.8589 48.1942C63.8657 48.2204 63.8792 48.2443 63.8981 48.2636C63.917 48.2829 63.9407 48.2969 63.9667 48.3042C65.3375 48.6667 66.6042 49.2917 67.8334 50.0375C70.4584 51.6333 72.8542 55.6458 73.5959 57.5375C73.6375 57.6625 73.8084 57.6708 73.8709 57.5542L81.0375 43.9292C81.1 43.8042 80.975 43.6625 80.8417 43.7167C77.4834 45.0833 74.6917 45.5083 72.9959 45.5458L73 45.5417ZM98.6959 6.3L79.7542 6.45417C79.32 6.45732 78.8947 6.57739 78.523 6.80175C78.1512 7.02611 77.8468 7.34648 77.6417 7.72917L77.1167 8.85417C78.6334 8.81667 87.225 9.4875 94.4417 18.4708L99.85 8.19167C99.9547 7.9939 100.006 7.77232 99.9995 7.54865C99.9928 7.32499 99.9281 7.1069 99.8117 6.91577C99.6954 6.72463 99.5313 6.56701 99.3357 6.45833C99.1401 6.34966 98.9196 6.29783 98.6959 6.3ZM45.1917 89.5708L48.7042 95.8917C48.8127 96.0878 48.9704 96.2523 49.1618 96.369C49.3531 96.4857 49.5716 96.5507 49.7956 96.5574C50.0197 96.5641 50.2416 96.5124 50.4397 96.4074C50.6377 96.3024 50.805 96.1476 50.925 95.9583L56.3834 87.3583C52.8014 88.7111 49.019 89.4616 45.1917 89.5708Z" fill="#0039C6"/>
<path d="M93.029 22.4125C86.9415 12.2667 78.3249 12.4417 78.3249 12.4417C74.3624 11.6667 72.3415 7.17916 63.2165 4.95416C54.6915 2.87083 49.9332 5.42083 53.3499 6.83333C58.8582 9.11666 61.9957 18.2083 63.6082 25.0583C65.6665 33.8083 70.1457 33.975 75.0999 33.4375C78.9499 33.0292 86.6624 29.0292 90.604 28.2042C94.8957 27.3042 96.2415 27.7833 93.0207 22.4125H93.029ZM78.9749 28.8208C78.0135 28.8206 77.0616 28.6309 76.1735 28.2628C75.2854 27.8946 74.4785 27.3551 73.7989 26.6751C72.4263 25.3018 71.6556 23.4395 71.6561 21.4979C71.6567 19.5563 72.4285 17.6944 73.8018 16.3219C75.1751 14.9494 77.0374 14.1786 78.979 14.1792C80.9206 14.1792 82.7827 14.9505 84.1556 16.3234C85.5286 17.6963 86.2999 19.5584 86.2999 21.5C86.2999 23.4416 85.5286 25.3037 84.1556 26.6766C82.7827 28.0495 80.9165 28.8208 78.9749 28.8208ZM53.1499 55.6833C52.0624 58.2792 53.2832 62.225 58.6332 62.5833C58.9665 62.5833 59.1332 62.3625 59.1332 62.0833C59.1332 61.8125 58.8915 61.6792 58.6332 61.5875C58.3749 61.4958 55.9082 60.6458 56.4499 57.7625C56.6249 56.8042 57.4832 55.9375 58.5332 55.5417C57.9415 54.4375 57.9374 52.95 58.7832 51.5208C57.354 51.5208 54.554 52.3292 53.1457 55.6875L53.1499 55.6833ZM70.1499 60.9333C70.1499 58.0833 68.2707 55.0583 66.7957 54.1C65.5165 53.6542 63.3957 54.35 62.1999 56.1292C63.604 57.0458 64.504 58.5125 64.6582 62.2958C64.8499 67.1875 61.1415 71.3958 56.179 73.7958C63.529 72.3792 70.1499 66.3375 70.1499 60.9333ZM25.8374 69.1292C11.6749 51.0333 20.1707 26.8333 40.8124 18.6333C15.1124 27.3 7.43736 55.675 21.8665 73.5C31.4457 85.3333 47.9249 85.7375 56.754 82.6667C46.0415 81.7792 34.5457 80.2542 25.8374 69.1292ZM62.8749 43.5208C62.9999 43.4708 62.9999 43.2958 62.8749 43.2417C62.6249 43.125 62.1457 43.0333 61.2624 43.2583C59.5499 43.6833 55.3457 44.3583 55.679 42.3167C55.9082 40.8625 58.2374 40.4 59.9415 37.6167C60.7832 36.2417 59.6915 33.9708 57.4832 33.9708C55.7832 33.9708 54.0332 34.7458 52.129 36.7625C49.4624 39.5792 48.9374 42.2208 49.9707 44.1625C50.9457 46.0042 53.2374 46.8 57.0624 46.1625C59.679 45.7333 60.479 44.575 62.879 43.5167L62.8749 43.5208Z" fill="#0039C6"/>
<path d="M61.1875 51.5168C61.1875 51.5168 59.1374 52.2543 59.3708 55.4085C60.1333 55.2168 60.3666 55.2918 61.4041 55.7918C61.8791 54.3835 63.0999 53.196 64.9041 53.196C65.2291 53.196 65.5499 53.2335 65.8624 53.296C64.6541 52.3835 63.4 51.6293 61.1958 51.5168H61.1875ZM76.0541 39.8876C65.8708 42.0335 65.7208 33.3043 58.2208 31.6168C48.1249 29.3501 35.1958 35.3876 29.5208 46.3876C27.2124 50.8626 25.0374 59.6293 30.6999 67.096C27.1416 57.4168 32.5083 50.296 35.9666 47.5043C39.2249 44.8835 43.2083 43.2293 47.1416 42.2251C47.1736 42.2176 47.2021 42.1996 47.2225 42.1739C47.2429 42.1482 47.254 42.1163 47.2541 42.0835C47.3208 39.9585 48.4041 37.6876 50.4499 35.5251C52.6208 33.2251 54.8458 32.1126 57.2458 32.1126C59.0041 32.1126 60.5499 33.0085 61.3874 34.5001C62.1583 35.8751 62.1583 37.521 61.3874 38.7751C60.9291 39.5251 60.4375 40.1335 59.9499 40.6376C59.8583 40.7251 59.9249 40.8876 60.0499 40.8876C64.7666 41.1835 68.6458 42.3335 72.1041 42.071C85.1625 41.071 89.8125 34.1126 91.4875 32.8335C93.0083 31.6751 81.5499 38.721 76.0458 39.8751L76.0541 39.8876Z" fill="#0039C6"/>
<path d="M63.1625 68.55C59.3458 72.3666 53.0958 77.75 41.0041 75.4875C32.2333 73.8458 25.5083 61.6875 27.4625 47.0208C28.5125 39.175 34.5958 31.8542 40.3041 29.4958C52.7833 24.3292 59.3458 29.8333 62.3791 33.2333C64.5291 35.6458 66.9875 40.6208 74.9375 40.5542C81.0041 40.5042 91.5125 33.3625 94.4291 30.6708C95.4291 29.75 94.3416 29.2417 92.6875 29.3875C86.3791 29.9542 80.5375 36.6875 71.9541 36.3208C67.7166 36.1417 62.3791 33.2292 60.4958 26.9458C58.2375 19.3958 58.1916 17.8208 55.5958 17.375C52.875 16.9083 48.7291 16.6542 42.7333 18.5208C34.9708 20.95 22.8 32.8375 22.025 47.0208C20.675 71.5375 31.6333 81.3667 48.525 83.45C50.4375 83.6833 54.6166 83.175 56.4791 82.775C58.8557 81.7921 61.0577 80.4315 63 78.7458C67.2083 74.9625 69.775 70.7542 70.375 64.6791C70.5833 62.6375 70.0875 59.9291 69.8125 58.7416C69.7166 60 67.2166 64.475 63.1583 68.5333V68.55H63.1625Z" fill="#0039C6"/>
</g>
<defs>
<clipPath id="clip0_868_39451">
<rect width="100" height="100" fill="white"/>
</clipPath>
</defs>
</svg>
