<svg width="100" height="100" viewBox="0 0 100 100" fill="none" xmlns="http://www.w3.org/2000/svg">
<g clip-path="url(#clip0_867_20667)">
<path d="M7.54695 42.3124C7.3522 42.3124 7.30351 42.215 7.40089 42.069L8.42334 40.7544C8.52072 40.6083 8.76416 40.511 8.95892 40.511H26.3407C26.5354 40.511 26.5841 40.657 26.4868 40.8031L25.659 42.069C25.5617 42.215 25.3182 42.3611 25.1722 42.3611L7.54695 42.3124ZM0.194998 46.7918C0.000244141 46.7918 -0.0484443 46.6944 0.0489326 46.5483L1.07139 45.2337C1.16877 45.0877 1.41221 44.9903 1.60696 44.9903H23.8089C24.0036 44.9903 24.101 45.1364 24.0523 45.2824L23.6628 46.4509C23.6141 46.6457 23.4194 46.7431 23.2246 46.7431L0.194998 46.7918ZM11.9776 51.2711C11.7828 51.2711 11.7342 51.125 11.8315 50.979L12.5132 49.7618C12.6105 49.6157 12.8053 49.4696 13.0001 49.4696H22.7377C22.9325 49.4696 23.0299 49.6157 23.0299 49.8104L22.9325 50.979C22.9325 51.1737 22.7377 51.3198 22.5917 51.3198L11.9776 51.2711ZM62.5162 41.436C59.4488 42.215 57.3552 42.7993 54.3365 43.5783C53.6062 43.7731 53.5575 43.8218 52.9246 43.0914C52.1942 42.2637 51.6587 41.7282 50.6362 41.2413C47.5688 39.7319 44.5989 40.1701 41.8236 41.9716C38.5128 44.1139 36.8087 47.2786 36.8574 51.2224C36.9061 55.1175 39.5839 58.3309 43.4303 58.8665C46.7411 59.3047 49.5164 58.1362 51.7074 55.6531C52.1456 55.1175 52.5351 54.5332 53.0219 53.8516H43.6251C42.6026 53.8516 42.3592 53.2186 42.7 52.3909C43.3329 50.8816 44.5015 48.3498 45.1831 47.0839C45.3292 46.7918 45.67 46.3049 46.4003 46.3049H64.1229C64.0255 47.6195 64.0255 48.9341 63.8308 50.2486C63.2952 53.7542 61.9806 56.9676 59.8383 59.7916C56.3328 64.417 51.7561 67.2896 45.9621 68.0686C41.1907 68.7015 36.76 67.7765 32.8649 64.8552C29.262 62.1286 27.2171 58.5257 26.6815 54.0463C26.0486 48.7393 27.6066 43.9678 30.82 39.7806C34.2769 35.2526 38.8536 32.38 44.4528 31.3575C49.0295 30.5298 53.4115 31.0654 57.3552 33.7433C59.9357 35.4474 61.7859 37.7844 63.0031 40.6083C63.2952 41.0465 63.1004 41.29 62.5162 41.436Z" fill="#00ACD7"/>
<path d="M78.632 68.3608C74.2014 68.2634 70.1603 66.9975 66.7521 64.0762C63.8795 61.5931 62.078 58.4284 61.4937 54.6794C60.6173 49.1776 62.1267 44.3087 65.4375 39.9755C68.9917 35.3014 73.2763 32.867 79.0702 31.8445C84.0364 30.9681 88.7105 31.455 92.9464 34.3276C96.7928 36.9568 99.1785 40.511 99.8115 45.1851C100.639 51.7581 98.7403 57.1138 94.2123 61.6905C90.9989 64.9526 87.0551 66.9975 82.5271 67.9226C81.2125 68.1661 79.8979 68.2147 78.632 68.3608ZM90.2199 48.6907C90.1712 48.0577 90.1712 47.5709 90.0738 47.084C89.1974 42.2638 84.7668 39.5373 80.1414 40.6084C75.6134 41.6309 72.6921 44.5035 71.6209 49.0802C70.7445 52.8779 72.5947 56.7243 76.1003 58.2823C78.7781 59.4508 81.456 59.3048 84.0365 57.9902C87.8828 55.994 89.9764 52.8779 90.2199 48.6907Z" fill="#00ACD7"/>
</g>
<defs>
<clipPath id="clip0_867_20667">
<rect width="100" height="100" fill="white"/>
</clipPath>
</defs>
</svg>
