<svg width="100" height="100" viewBox="0 0 100 100" fill="none" xmlns="http://www.w3.org/2000/svg">
<g clip-path="url(#clip0_867_19942)">
<path d="M100 51.1142C100 47.0006 99.6593 44.0006 98.9274 40.887H51.0183V59.4461H79.1365C78.5729 64.0552 75.5138 71.0006 68.7092 75.6688L68.6138 76.287L83.7592 87.787L84.8047 87.887C94.4502 79.1688 100 66.3324 100 51.1142Z" fill="#4285F4"/>
<path d="M51.023 99.9992C64.7957 99.9992 76.3594 95.5537 84.8094 87.8855L68.7094 75.6673C64.4003 78.6128 58.6185 80.6673 51.023 80.6673C44.6205 80.6679 38.3785 78.6641 33.1726 74.937C27.9668 71.21 24.0584 65.9466 21.9957 59.8855L21.3957 59.9355L5.64571 71.881L5.44116 72.4446C13.8321 88.7764 31.0685 99.9992 51.023 99.9992Z" fill="#34A853"/>
<path d="M22 59.8855C20.882 56.7085 20.3028 53.3671 20.2864 49.9992C20.2864 46.5537 20.9137 43.2219 21.9273 40.1128L21.9 39.4446L5.95455 27.3082L5.43182 27.5537C1.86724 34.499 0.00541634 42.1925 0 49.9992C0 58.0537 1.98182 65.6673 5.44091 72.4446L22 59.8855Z" fill="#FBBC05"/>
<path d="M51.023 19.3317C60.6048 19.3317 67.0639 23.3863 70.7503 26.7772L85.1458 12.9999C76.3048 4.94534 64.7957 -0.00012207 51.023 -0.00012207C31.0639 -0.00012207 13.8321 11.2226 5.44116 27.5544L21.9412 40.1135C24.0216 34.0529 27.942 28.7929 33.1554 25.0673C38.3689 21.3418 44.6152 19.3367 51.023 19.3317Z" fill="#EB4335"/>
</g>
<defs>
<clipPath id="clip0_867_19942">
<rect width="100" height="100" fill="white"/>
</clipPath>
</defs>
</svg>
