<svg width="100" height="100" viewBox="0 0 100 100" fill="none" xmlns="http://www.w3.org/2000/svg">
<g clip-path="url(#clip0_867_20651)">
<path fill-rule="evenodd" clip-rule="evenodd" d="M46.8252 31.6806C47.7917 31.1265 48.8862 30.835 50.0002 30.835C51.1142 30.835 52.2088 31.1265 53.1752 31.6806L96.7919 56.6806C97.7687 57.239 98.5805 58.0456 99.1451 59.0188C99.7098 59.992 100.007 61.0971 100.007 62.2222C100.007 63.3474 99.7098 64.4525 99.1451 65.4257C98.5805 66.3989 97.7687 67.2055 96.7919 67.7639L53.1752 92.7639C51.2086 93.8889 48.7919 93.8889 46.8252 92.7639L3.20857 67.7639C2.23287 67.2046 1.42213 66.3977 0.858306 65.4246C0.29448 64.4515 -0.00244141 63.3469 -0.00244141 62.2222C-0.00244141 61.0976 0.29448 59.9929 0.858306 59.0199C1.42213 58.0468 2.23287 57.2398 3.20857 56.6806L46.8252 31.6806ZM19.2252 62.2222L50.0002 79.8597L80.7752 62.2222L50.0002 44.5806L19.2252 62.2222Z" fill="url(#paint0_linear_867_20651)"/>
<path fill-rule="evenodd" clip-rule="evenodd" d="M46.8251 7.22108C47.7916 6.66739 48.8862 6.3761 50.0001 6.3761C51.114 6.3761 52.2085 6.66739 53.1751 7.22108L96.7917 32.2211C97.7675 32.7798 98.5784 33.5863 99.1424 34.559C99.7063 35.5318 100.003 36.6363 100.003 37.7607C100.003 38.8851 99.7063 39.9895 99.1424 40.9623C98.5784 41.935 97.7675 42.7416 96.7917 43.3002L53.1751 68.3002C51.2084 69.4252 48.7917 69.4252 46.8251 68.3002L3.20842 43.3002C2.23263 42.7416 1.42174 41.935 0.857785 40.9623C0.29383 39.9895 -0.00317383 38.8851 -0.00317383 37.7607C-0.00317383 36.6363 0.29383 35.5318 0.857785 34.559C1.42174 33.5863 2.23263 32.7798 3.20842 32.2211L46.8251 7.22108ZM19.2251 37.7627L50.0001 55.4002L80.7751 37.7627L50.0001 20.1211L19.2251 37.7627Z" fill="url(#paint1_linear_867_20651)"/>
<path fill-rule="evenodd" clip-rule="evenodd" d="M53.2668 42.7691L9.54593 67.6607L3.2251 56.5607L46.9501 31.6691L53.2668 42.7691Z" fill="url(#paint2_linear_867_20651)"/>
</g>
<defs>
<linearGradient id="paint0_linear_867_20651" x1="0.758569" y1="62.1139" x2="80.7377" y2="62.1139" gradientUnits="userSpaceOnUse">
<stop stop-color="#F9D100"/>
<stop offset="1" stop-color="#F97700"/>
</linearGradient>
<linearGradient id="paint1_linear_867_20651" x1="98.9167" y1="37.6544" x2="18.8292" y2="37.6544" gradientUnits="userSpaceOnUse">
<stop stop-color="#F9D100"/>
<stop offset="1" stop-color="#F97700"/>
</linearGradient>
<linearGradient id="paint2_linear_867_20651" x1="0.758431" y1="62.1107" x2="80.6251" y2="61.6357" gradientUnits="userSpaceOnUse">
<stop stop-color="#F9D100"/>
<stop offset="1" stop-color="#F97700"/>
</linearGradient>
<clipPath id="clip0_867_20651">
<rect width="100" height="100" fill="white"/>
</clipPath>
</defs>
</svg>
