<svg width="100" height="100" viewBox="0 0 100 100" fill="none" xmlns="http://www.w3.org/2000/svg">
<g clip-path="url(#clip0_867_22442)">
<path d="M96.3622 44.2265C96.1849 42.6279 96.007 40.674 95.2966 38.5426C94.7635 36.4112 93.8757 34.1021 92.6323 31.6155C91.3888 29.1288 89.7906 26.6421 87.8367 24.1554C87.1262 23.2673 86.238 22.2016 85.1723 21.3135C86.5932 15.6297 83.3963 10.834 83.3963 10.834C78.0676 10.4787 74.515 12.4325 73.2716 13.4982C73.0942 13.4982 72.9163 13.3206 72.5611 13.143C71.6733 12.7878 70.7851 12.4325 69.7194 12.0773C68.6538 11.722 67.7655 11.5444 66.6999 11.1892C65.6343 11.0116 64.5682 10.834 63.6804 10.6563C63.5025 10.6563 63.3251 10.6563 63.1473 10.6563C60.8382 3.1963 54.0887 -0.000854492 54.0887 -0.000854492C46.6288 4.79489 45.2078 11.3668 45.2078 11.3668C45.2078 11.3668 45.2078 11.5444 45.2078 11.722C44.8526 11.8996 44.3197 11.8996 43.9644 12.0773C43.4316 12.2549 42.8987 12.4325 42.1882 12.6102C41.6554 12.7878 41.1225 12.9654 40.412 13.3206C39.3463 13.8535 38.103 14.3863 37.0373 14.9192C35.9715 15.4521 34.9059 16.1625 33.8401 16.873C33.6625 16.873 33.6625 16.6954 33.6625 16.6954C23.183 12.7878 13.9467 17.5835 13.9467 17.5835C13.0586 28.5959 18.032 35.7007 19.0977 36.944C18.92 37.6545 18.5648 38.365 18.3872 39.0755C17.6768 41.5622 16.9662 44.2265 16.611 46.8909C16.611 47.2461 16.4334 47.6013 16.4334 47.9566C6.84191 52.7522 4 62.5212 4 62.5212C11.9929 71.7577 21.4068 72.2902 21.4068 72.2902C22.6501 74.422 23.8934 76.3754 25.492 78.3293C26.2025 79.0397 26.913 79.928 27.4458 80.6384C24.6039 88.9866 27.8011 95.914 27.8011 95.914C36.682 96.2692 42.5435 92.0062 43.7868 90.9405C44.6749 91.2957 45.563 91.4731 46.4511 91.8288C49.1154 92.5392 51.9574 92.8944 54.7991 93.0718C55.5095 93.0718 56.2204 93.0718 56.9308 93.0718H57.2861H57.4634H57.8187H58.1739C62.4369 99.1109 69.7194 99.9991 69.7194 99.9991C75.0481 94.4927 75.2255 88.9866 75.2255 87.7431V87.5658V87.3879C76.2911 86.6775 77.3567 85.7897 78.4228 84.9014C80.5541 82.9475 82.3302 80.8163 83.9289 78.5071C84.1067 78.3293 84.2841 78.1519 84.2841 77.7967C90.3232 78.1519 94.4083 74.0668 94.4083 74.0668C93.3427 67.8498 89.7901 64.8303 89.0797 64.2977H88.9023C88.9023 63.9421 88.9023 63.5868 88.9023 63.2316C88.9023 62.5212 88.9023 61.8108 88.9023 61.2782V60.3899V60.2121V60.0347V59.8569V59.5017V58.9691C88.9023 58.7912 88.9023 58.6139 88.9023 58.436C88.9023 58.2586 88.9023 58.0808 88.9023 57.903V57.3704V56.8373C88.7245 56.1269 88.7245 55.4165 88.5471 54.8834C87.8367 52.2196 86.9484 49.7326 85.5275 47.4235C84.1067 45.1146 82.508 43.1607 80.5541 41.3846C78.6002 39.6084 76.4689 38.365 74.1598 37.2993C71.8507 36.2336 69.5416 35.7007 67.0551 35.3455C65.8116 35.1678 64.746 35.1678 63.5025 35.1678H63.1473H62.9699H62.7921H62.6147H62.2595C62.0817 35.1678 61.9038 35.1678 61.7265 35.1678C61.1934 35.1678 60.483 35.3455 59.9504 35.3455C57.6413 35.7007 55.3322 36.5888 53.3783 37.8322C51.4244 39.0755 49.6483 40.4964 48.2273 42.095C46.8064 43.6936 45.7406 45.6474 45.0302 47.6013C44.3197 49.5552 43.9644 51.5087 43.7868 53.4626C43.7868 53.9956 43.7868 54.3508 43.7868 54.8834C43.7868 55.0613 43.7868 55.0613 43.7868 55.2391V55.5943C43.7868 55.7717 43.7868 56.1269 43.7868 56.3047C43.9644 57.1926 44.1421 58.2586 44.3197 59.1465C44.8526 60.9225 45.7406 62.5212 46.6288 63.9421C47.6944 65.3634 48.9378 66.429 50.1813 67.3168C51.4244 68.2051 52.8457 68.9155 54.2665 69.2707C55.6874 69.6259 56.9308 69.8037 58.3517 69.8037C58.5291 69.8037 58.7069 69.8037 58.8843 69.8037H59.0621H59.24C59.4173 69.8037 59.5952 69.8037 59.5952 69.8037C59.5952 69.8037 59.5952 69.8037 59.7725 69.8037H59.9504H60.1278C60.3056 69.8037 60.483 69.8037 60.6608 69.8037C60.8382 69.8037 61.016 69.8038 61.1934 69.6259C61.5486 69.6259 61.7265 69.4485 62.0817 69.4485C62.6147 69.2707 63.1473 69.0933 63.6804 68.7381C64.2129 68.5603 64.5682 68.2051 65.1012 67.8499C65.2786 67.8499 65.279 67.6725 65.4564 67.4946C65.9895 67.1394 65.9895 66.429 65.6342 66.0738C65.279 65.7186 64.746 65.5407 64.3908 65.896C64.2129 65.896 64.2129 66.0738 64.0356 66.0738C63.6803 66.2512 63.3251 66.429 62.7921 66.6064C62.4369 66.7842 61.9038 66.7842 61.5486 66.9616C61.3712 66.9616 61.016 66.9616 60.8382 66.9616C60.6608 66.9616 60.6608 66.9616 60.483 66.9616C60.3056 66.9616 60.3056 66.9616 60.1278 66.9616C59.9504 66.9616 59.9504 66.9616 59.7725 66.9616C59.5952 66.9616 59.4173 66.9616 59.4173 66.9616H59.24H59.0621C58.8843 66.9616 58.8847 66.9616 58.7069 66.9616C57.6413 66.7842 56.753 66.6064 55.6874 66.0738C54.6217 65.7186 53.7335 65.0081 52.8452 64.2977C51.9574 63.5868 51.247 62.5212 50.7139 61.6334C50.1813 60.7451 49.6483 59.5017 49.4705 58.2586C49.293 57.7256 49.293 57.0152 49.293 56.4821C49.293 56.3047 49.293 56.1269 49.293 55.9495V55.7717V55.5943C49.293 55.2391 49.293 54.8834 49.4705 54.5282C50.0035 51.8639 51.247 49.3774 53.3783 47.2461C53.9113 46.7131 54.4439 46.3579 54.9769 45.8248C55.5095 45.4696 56.2204 45.1146 56.753 44.7593C57.4634 44.4041 58.1739 44.2265 58.7069 44.0488C59.4173 43.8712 60.1278 43.6936 60.8382 43.6936C61.1934 43.6936 61.5486 43.6936 61.9038 43.6936H62.0817H62.4369H62.6147H62.9699C63.6804 43.6936 64.5682 43.8712 65.2786 44.0488C66.8773 44.4041 68.2981 44.9369 69.7194 45.8248C72.5611 47.4235 74.8702 49.9105 76.4689 52.7522C77.1794 54.173 77.7124 55.7717 78.0676 57.3704C78.0676 57.7256 78.245 58.2586 78.245 58.6139V58.9691V59.3243C78.245 59.5017 78.245 59.5017 78.245 59.6795C78.245 59.8569 78.245 59.8569 78.245 60.0347V60.3899V60.7451C78.245 60.9225 78.245 61.2777 78.245 61.4556C78.245 61.9886 78.245 62.3438 78.0676 62.8764C78.0676 63.2316 77.8898 63.7647 77.8898 64.1199C77.8898 64.4751 77.7119 65.0081 77.5346 65.3634C77.3567 66.2512 77.0015 67.1394 76.6463 67.8499C75.9359 69.4485 75.0481 71.0472 73.982 72.6455C71.8507 75.4876 69.009 77.9741 65.6342 79.395C64.0356 80.1058 62.2595 80.6384 60.483 80.9937C59.5952 81.1715 58.7069 81.1715 57.8187 81.3489H57.6413H57.4634H57.1082H56.753H56.5756C56.0426 81.3489 55.6874 81.3489 55.1543 81.3489C53.2009 81.1715 51.247 80.8163 49.4705 80.2832C47.6944 79.7506 45.7406 79.0397 44.1421 78.1519C40.7673 76.3754 37.7477 73.8889 35.2611 70.8694C34.0177 69.4485 32.952 67.8499 32.2415 66.0738C31.3534 64.2977 30.643 62.5212 30.1101 60.7451C29.5773 58.9691 29.222 57.0152 29.222 55.2391V54.8834V54.7061V54.3508V53.2852V53.1074V52.7522V52.5748C29.222 52.3969 29.222 52.0417 29.222 51.8639C29.222 50.9761 29.3996 49.9105 29.3996 49.0222C29.5773 48.1339 29.7549 47.0683 29.9325 46.1805C30.1101 45.2922 30.2877 44.2265 30.6429 43.3384C31.1758 41.5622 31.8863 39.786 32.5968 38.0098C34.1953 34.635 36.1492 31.6155 38.6358 29.3064C39.1687 28.7735 39.8792 28.0631 40.5897 27.5302C41.3002 26.9973 42.0107 26.4645 42.7211 26.1093C43.4316 25.5764 44.142 25.2211 44.8526 24.8659C45.2078 24.6883 45.563 24.5107 45.9183 24.3331C46.0959 24.3331 46.2735 24.1554 46.4511 24.1554C46.6287 24.1554 46.8064 23.9778 46.984 23.9778C47.6945 23.6226 48.5826 23.4449 49.293 23.0897C49.4705 23.0897 49.6483 22.9121 49.8261 22.9121C50.0035 22.9121 50.1813 22.7345 50.3587 22.7345C50.7139 22.5569 51.247 22.5569 51.6022 22.3793C51.7796 22.3793 51.9574 22.2016 52.3126 22.2016C52.49 22.2016 52.6678 22.2016 53.023 22.024C53.2009 22.024 53.3783 22.024 53.7335 21.8464H54.0887H54.4439C54.6217 21.8464 54.7991 21.8464 55.1543 21.6687C55.3322 21.6687 55.6874 21.6687 55.8652 21.4911C56.0426 21.4911 56.3978 21.4911 56.5756 21.4911C56.753 21.4911 56.9308 21.4911 57.1082 21.4911H57.4634H57.6413H57.8187C57.9965 21.4911 58.3517 21.4911 58.5291 21.4911H58.8843H59.0621C59.24 21.4911 59.4173 21.4911 59.5952 21.4911C60.483 21.4911 61.1934 21.4911 62.0817 21.4911C63.6804 21.4911 65.2786 21.6687 66.8773 22.024C69.8968 22.5569 72.739 23.6226 75.4033 24.8659C78.0676 26.1093 80.3763 27.7078 82.3302 29.484C82.508 29.6616 82.508 29.6616 82.6854 29.8393C82.8632 30.0169 82.8632 30.0169 83.0406 30.1945C83.2184 30.3721 83.5736 30.5497 83.751 30.905C83.9289 31.2602 84.2841 31.2602 84.4619 31.6155C84.6393 31.9707 84.9945 32.1483 85.1723 32.326C86.0601 33.214 86.7706 34.1021 87.4814 35.1678C88.9023 36.944 90.1458 38.8978 91.0336 40.674C91.0336 40.8517 91.2114 40.8517 91.2114 41.0293C91.2114 41.2069 91.3888 41.2069 91.3888 41.3846C91.5666 41.5622 91.5666 41.7398 91.744 42.095C91.9218 42.2726 91.9218 42.4503 92.0992 42.8055C92.2771 42.9831 92.2771 43.1607 92.4544 43.516C92.8101 44.4041 93.1653 45.1146 93.3427 45.8248C93.6979 47.0683 94.0531 48.1339 94.2309 49.0222C94.4083 49.3774 94.7635 49.7326 95.1188 49.5552C95.474 49.5552 95.8296 49.2 95.8296 48.8444C96.5401 46.7131 96.5401 45.4696 96.3622 44.2265Z" fill="url(#paint0_linear_867_22442)"/>
</g>
<defs>
<linearGradient id="paint0_linear_867_22442" x1="50.5193" y1="127.023" x2="50.5193" y2="11.3406" gradientUnits="userSpaceOnUse">
<stop stop-color="#FFF100"/>
<stop offset="1" stop-color="#F05A28"/>
</linearGradient>
<clipPath id="clip0_867_22442">
<rect width="100" height="100" fill="white"/>
</clipPath>
</defs>
</svg>
