<svg width="100" height="100" viewBox="0 0 100 100" fill="none" xmlns="http://www.w3.org/2000/svg">
<g clip-path="url(#clip0_867_19465)">
<path fill-rule="evenodd" clip-rule="evenodd" d="M53.4782 2.17833C53.71 2.64148 53.8483 3.14576 53.8851 3.66236C53.9219 4.17897 53.8566 4.69776 53.6929 5.18911C53.5291 5.68046 53.2702 6.13473 52.9308 6.52597C52.5915 6.9172 52.1783 7.23774 51.7151 7.46926L12.7612 26.9462L50 45.5656L87.2318 26.949L73.0061 19.8511L51.7377 30.474C51.2733 30.7159 50.7655 30.863 50.2437 30.9066C49.7219 30.9502 49.1966 30.8894 48.6986 30.7279C48.2005 30.5664 47.7396 30.3072 47.3427 29.9657C46.9458 29.6241 46.621 29.207 46.387 28.7385C46.1531 28.2701 46.0148 27.7597 45.9801 27.2373C45.9455 26.7148 46.0153 26.1907 46.1854 25.6955C46.3554 25.2002 46.6224 24.7438 46.9708 24.3529C47.3191 23.962 47.7418 23.6443 48.2142 23.4185L71.243 11.9154C71.7898 11.6423 72.3927 11.5002 73.004 11.5002C73.6153 11.5002 74.2182 11.6423 74.765 11.9154L97.8179 23.417C98.4733 23.7442 99.0246 24.2475 99.41 24.8705C99.7954 25.4934 99.9997 26.2114 100 26.9439C100 27.6765 99.7966 28.3946 99.4116 29.0178C99.0267 29.6411 98.4758 30.1448 97.8207 30.4725L51.8141 53.4758C51.2311 53.7673 50.6113 53.9004 50.0028 53.8933C49.3731 53.9019 48.7505 53.7593 48.1873 53.4772L2.17931 30.4725C1.52442 30.1449 0.973684 29.6415 0.588778 29.0185C0.203871 28.3956 0 27.6778 0 26.9455C0 26.2132 0.203871 25.4954 0.588778 24.8725C0.973684 24.2495 1.52442 23.7461 2.17931 23.4185L48.1873 0.415161C49.1228 -0.0525751 50.2057 -0.129587 51.1979 0.201065C52.1901 0.531717 53.0104 1.24295 53.4782 2.17833ZM0.478403 71.174C0.709941 70.7108 1.03046 70.2976 1.42167 69.9582C1.81287 69.6188 2.26709 69.3598 2.7584 69.196C3.24971 69.0321 3.76849 68.9666 4.2851 69.0033C4.80172 69.0399 5.30606 69.1779 5.76933 69.4095L50.0127 91.5326L94.2561 69.4095C95.1918 68.9417 96.2749 68.8647 97.2673 69.1955C98.2596 69.5263 99.08 70.2377 99.5478 71.1733C100.016 72.109 100.093 73.1921 99.7618 74.1845C99.431 75.1768 98.7195 75.9972 97.7839 76.465L51.7759 99.4683C51.2285 99.742 50.6248 99.8845 50.0127 99.8845C49.4007 99.8845 48.797 99.742 48.2496 99.4683L2.24157 76.465C1.77824 76.2333 1.36508 75.9126 1.0257 75.5213C0.686326 75.1299 0.427374 74.6755 0.26364 74.1841C0.0999068 73.6926 0.0345996 73.1737 0.0714492 72.657C0.108299 72.1403 0.246583 71.6373 0.478403 71.174Z" fill="black"/>
<path fill-rule="evenodd" clip-rule="evenodd" d="M0.478638 48.1681C0.946501 47.2327 1.76675 46.5215 2.75897 46.1908C3.75119 45.8602 4.83412 45.9372 5.76956 46.4049L50.013 68.5266L94.2564 46.4049C95.1901 45.9514 96.265 45.8844 97.2478 46.2183C98.2307 46.5522 99.0423 47.2601 99.5065 48.1885C99.9708 49.1169 100.05 50.1909 99.7279 51.1775C99.4055 52.1642 98.7071 52.9839 97.7841 53.459L51.7761 76.4623C51.2286 76.7357 50.625 76.878 50.013 76.878C49.401 76.878 48.7973 76.7357 48.2498 76.4623L2.24181 53.459C1.30643 52.9911 0.595193 52.1709 0.264541 51.1787C-0.0661104 50.1864 0.0109015 49.1035 0.478638 48.1681Z" fill="black"/>
</g>
<defs>
<clipPath id="clip0_867_19465">
<rect width="100" height="100" fill="white"/>
</clipPath>
</defs>
</svg>
