<svg width="100" height="100" viewBox="0 0 100 100" fill="none" xmlns="http://www.w3.org/2000/svg">
<g clip-path="url(#clip0_867_22427)">
<mask id="mask0_867_22427" style="mask-type:luminance" maskUnits="userSpaceOnUse" x="0" y="0" width="100" height="100">
<path d="M0 0H100V100H0V0Z" fill="white"/>
</mask>
<g mask="url(#mask0_867_22427)">
<path fill-rule="evenodd" clip-rule="evenodd" d="M13.9708 0.016045C13.6042 0.0866822 13.2361 0.149197 12.8667 0.203545C10.9583 0.499378 8.71667 1.44938 7.12501 2.63688C5.94167 3.52438 2.98751 6.56188 2.32084 7.57854C0.991232 9.59105 0.204306 11.913 0.0363972 14.3192C-0.131512 16.7254 0.325295 19.1342 1.36251 21.3119C2.00417 22.6535 2.82084 23.7702 4.32084 25.3619C5.10001 26.1869 6.12917 27.3869 6.61251 28.0285C9.81997 32.3218 11.7092 37.4553 12.05 42.8035C12.0917 43.3785 12.1958 49.4994 12.2875 56.4035C12.4667 70.041 12.4458 69.6535 13.1333 70.9244C14.2417 72.9827 17.05 74.216 19.275 73.6244C20.4833 73.3035 21.2042 72.7744 24.9125 69.516C28.9 66.016 29.4625 65.6327 30.9375 65.4327C31.4542 65.3619 33.5667 65.4327 37.8542 65.6535C44.1583 65.9869 44.6125 65.9827 45.5625 65.5869C47.2 64.9035 47.8083 63.9202 48.3167 61.1119C49.3458 55.4452 53.7167 50.4452 59.3167 48.5202C59.8 48.3535 60.8708 48.0869 61.7 47.9202C62.525 47.7535 63.475 47.4952 63.8083 47.3452C65.0417 46.7785 65.9542 45.5785 66.1667 44.2452C66.2375 43.7869 66.1375 41.9577 65.7958 37.5702C65.4167 32.6577 65.35 31.391 65.45 30.816C65.6875 29.391 66.0292 28.8994 69.6583 24.7827C71.5208 22.6744 73.2 20.716 73.3875 20.4369C74.4792 18.8119 74.5875 16.6452 73.6708 14.8327C72.9259 13.5003 71.7011 12.502 70.2458 12.041C69.8292 11.9202 66.7708 11.8869 55.4792 11.8827H41.2375L39.8417 11.6202C35.85 10.8744 32.4875 9.57854 29.4917 7.62854C27.9833 6.64521 27.0625 5.92021 25.25 4.27854C23.55 2.73688 22.7917 2.18688 21.4125 1.48688C19.6216 0.536568 17.6274 0.0333821 15.6 0.0202117C15.0573 -0.00673723 14.5136 -0.0109039 13.9708 0.016045ZM79.5042 24.4244C78.9542 24.6285 78.6 24.9535 77.5042 26.2577C75.0375 29.2035 74.4208 31.8244 75.2917 35.6577C75.7333 37.5994 75.9708 38.041 76.7958 38.4619C77.2333 38.6869 77.5 38.691 87.7833 38.6535L98.325 38.616L98.8167 38.3535C99.1375 38.1744 99.4106 37.9208 99.6131 37.6142C99.8155 37.3076 99.9415 36.9568 99.9802 36.5915C100.019 36.2261 99.9695 35.8567 99.8359 35.5144C99.7023 35.1721 99.4885 34.8669 99.2125 34.6244C96.1371 32.8614 93.0495 31.1197 89.95 29.3994C80.3958 24.0577 80.4458 24.0827 79.5042 24.4244ZM66.1042 52.3827C64.1329 53.1908 62.232 54.1608 60.4208 55.2827C56.9042 57.6035 54.3625 60.9494 52.4083 65.8244C51.5292 68.0119 51.5667 68.9494 52.575 69.7202C53.0375 70.0827 79.5667 82.8035 80.3542 83.0452C80.9917 83.241 81.4792 83.1577 82.1458 82.7369C82.4454 82.5378 82.6926 82.2695 82.8666 81.9548C83.0407 81.6401 83.1364 81.2881 83.1458 80.9285C83.1458 80.6785 83.0208 80.1785 82.875 79.8285C82.225 78.2952 69.9667 52.8827 69.7167 52.5577C69.0167 51.6327 68.075 51.591 66.1042 52.3827ZM30.7708 75.1202C28.8833 75.5452 27.3125 76.4535 25.4167 78.2244C24.1833 79.3785 24.0167 80.1744 24.7208 81.5494C24.9417 81.9785 27.2625 86.1494 29.8708 90.816C35.275 100.47 34.9542 100.008 36.3625 99.991C36.9958 99.9827 37.1875 99.9285 37.5958 99.641C37.8868 99.4231 38.1317 99.1498 38.3167 98.8369C38.5583 98.3785 38.5667 98.2035 38.65 88.0244C38.725 79.9827 38.7125 77.566 38.6042 77.166C38.4898 76.8098 38.2928 76.4857 38.0292 76.2202C37.6542 75.841 37.4458 75.7535 36.3375 75.4869C33.9125 74.9119 32.2042 74.7994 30.7708 75.1202Z" fill="#44A775"/>
</g>
</g>
<defs>
<clipPath id="clip0_867_22427">
<rect width="100" height="100" fill="white"/>
</clipPath>
</defs>
</svg>
