<svg width="100" height="100" viewBox="0 0 100 100" fill="none" xmlns="http://www.w3.org/2000/svg">
<g clip-path="url(#clip0_867_19374)">
<path d="M90.4103 41.321C95.2194 41.0897 99.4769 44.8208 99.8923 49.6347C101.691 72.9214 80.763 98.9644 50.7306 99.7982C45.9171 99.9322 41.9078 96.128 41.7741 91.3016C41.6413 86.4749 45.4342 82.4542 50.2476 82.3202C70.1713 81.7669 82.7936 64.5577 82.12 50.472C81.8895 45.6496 85.6007 41.5523 90.4103 41.321Z" fill="url(#paint0_linear_867_19374)"/>
<path d="M8.8112 40.8252C13.6262 40.8252 17.5293 44.7396 17.5293 49.5679C17.5293 69.7201 33.7332 82.7621 49.9174 82.3628C54.7313 82.244 58.7289 86.0607 58.8473 90.8871C58.9661 95.7143 55.16 99.7236 50.3465 99.8428C25.0381 100.466 0.00634766 80.204 0.00634766 49.5679C0.00634766 44.7396 3.99616 40.8252 8.8112 40.8252Z" fill="url(#paint1_linear_867_19374)"/>
<path d="M68.6311 50.2455C68.6311 45.3027 72.6635 41.2953 77.6372 41.2953H90.7616C95.7357 41.2953 99.8924 45.3027 99.8924 50.2455C99.8924 55.1891 95.7357 59.1961 90.7616 59.1961H77.6368C72.6635 59.1961 68.6311 55.1891 68.6311 50.2455Z" fill="url(#paint2_linear_867_19374)"/>
<path d="M41.0928 50.2588C41.0928 45.3082 45.099 41.2953 50.0356 41.2953C54.9725 41.2953 58.9791 45.3082 58.9791 50.2588C58.9791 55.2094 54.9725 59.2223 50.0356 59.2223C45.099 59.2223 41.0928 55.209 41.0928 50.2588Z" fill="url(#paint3_linear_867_19374)"/>
<path d="M58.7314 8.37874C58.9311 13.2028 55.1929 17.2758 50.3821 17.4763C29.6149 18.3413 16.9367 34.6636 17.5536 50.1621C17.7459 54.9862 14.0796 59.0537 9.26847 59.2464C4.45734 59.439 0.226443 55.5453 0.0345911 50.7205C-0.971164 25.4649 20.0583 0.497199 49.6585 0.00682448C54.4692 -0.193623 58.5313 3.55471 58.7306 8.37874H58.7314Z" fill="url(#paint4_linear_867_19374)"/>
</g>
<defs>
<linearGradient id="paint0_linear_867_19374" x1="53.9628" y1="120.727" x2="80.981" y2="124.2" gradientUnits="userSpaceOnUse">
<stop stop-color="#1A7D75"/>
<stop offset="1" stop-color="#1A8864"/>
</linearGradient>
<linearGradient id="paint1_linear_867_19374" x1="3.46577" y1="47.3877" x2="-10.2534" y2="83.4589" gradientUnits="userSpaceOnUse">
<stop offset="0.013" stop-color="#168A81"/>
<stop offset="1" stop-color="#31A97F"/>
</linearGradient>
<linearGradient id="paint2_linear_867_19374" x1="23.5208" y1="50.8602" x2="35.8097" y2="69.4933" gradientUnits="userSpaceOnUse">
<stop stop-color="#27A59B"/>
<stop offset="1" stop-color="#64D8A2"/>
</linearGradient>
<linearGradient id="paint3_linear_867_19374" x1="15.4404" y1="52.1359" x2="40.3018" y2="73.6724" gradientUnits="userSpaceOnUse">
<stop stop-color="#27A59B"/>
<stop offset="1" stop-color="#64D8A2"/>
</linearGradient>
<linearGradient id="paint4_linear_867_19374" x1="122.674" y1="-84.0948" x2="50.4509" y2="-108.472" gradientUnits="userSpaceOnUse">
<stop stop-color="#27A59B"/>
<stop offset="1" stop-color="#64D8A2"/>
</linearGradient>
<clipPath id="clip0_867_19374">
<rect width="100" height="100" fill="white"/>
</clipPath>
</defs>
</svg>
