<svg width="100" height="100" viewBox="0 0 100 100" fill="none" xmlns="http://www.w3.org/2000/svg">
<path d="M38.6211 63.6236L71.8661 39.0529C73.4961 37.8484 75.8256 38.3182 76.6023 40.1893C80.6896 50.0568 78.8635 61.9151 70.7312 70.0569C62.5993 78.1985 51.2843 79.9841 40.9422 75.9175L29.6443 81.1547C45.8488 92.2438 65.5261 89.5014 77.8224 77.182C87.5759 67.4169 90.5966 54.1063 87.7721 42.1031L87.7976 42.1286C83.7016 24.4951 88.8047 17.4469 99.2578 3.03423C99.505 2.6925 99.7525 2.35077 100 2.00049L86.2445 15.7724V15.7296L38.6127 63.6323" fill="black"/>
<path d="M31.7605 69.5956C20.1297 58.472 22.135 41.2571 32.059 31.33C39.3974 23.9826 51.4207 20.9839 61.9164 25.3923L73.1888 20.1808C71.1581 18.7114 68.5552 17.1308 65.5687 16.0202C52.0693 10.4585 35.9075 13.2265 24.9339 24.2047C14.3784 34.7728 11.059 51.0223 16.7591 64.8882C21.0172 75.2513 14.037 82.5813 7.00572 89.98C4.51402 92.6027 2.01381 95.2256 0 98.0022L31.7518 69.604" fill="black"/>
</svg>
