<svg width="100" height="100" viewBox="0 0 100 100" fill="none" xmlns="http://www.w3.org/2000/svg">
<g clip-path="url(#clip0_867_19294)">
<g clip-path="url(#clip1_867_19294)">
<path d="M18.0269 24.2294C18.0269 24.2294 19.7344 30.8144 19.9779 33.0098C20.222 35.2046 15.588 40.0824 15.588 42.5214C15.588 44.9606 16.5622 49.3505 21.9286 51.5459C27.295 53.7409 28.0259 59.35 28.0259 62.7654C28.0259 66.1797 26.0749 72.7641 26.0749 72.7641C26.0749 72.7641 24.856 89.1048 31.4404 92.0314C38.0248 94.9577 36.5621 94.9577 38.0248 94.9577C39.4879 94.9577 50.2195 99.349 56.5603 97.6413C62.9018 95.9342 64.6077 93.9832 64.6077 93.9832C64.6077 93.9832 70.9495 94.4706 72.9004 88.8604C74.8523 83.2513 76.0712 71.5449 75.3391 66.1791C74.6073 60.8127 73.6322 53.7412 78.0215 51.302C82.4129 48.8628 87.046 45.9371 86.3142 43.4976C85.5824 41.0584 81.6814 37.6438 81.6814 37.6438C81.6814 37.6438 80.7055 31.5471 81.4367 30.0835C82.1679 28.6202 86.5584 24.9609 84.1191 22.2788C81.6817 19.5963 77.2903 19.5963 77.2903 19.5963L71.6813 20.0834C71.6813 20.0834 62.1697 11.5477 49.7312 12.0354C37.2933 12.5231 29.4883 20.0834 29.4883 20.0834C29.4883 20.0834 25.3426 18.6201 21.6839 20.0834C18.0252 21.5473 17.2957 20.0831 18.0269 24.2294Z" fill="#FBA919"/>
<path d="M40.3124 60.5422C40.3124 60.5422 35.4825 67.9269 31.9398 73.1678C31.3916 73.9786 35.4825 74.0347 35.4825 74.0347L40.3124 60.5419V60.5422ZM42.6118 45.2312C42.6118 45.2312 41.1558 48.8634 40.3583 50.7888C39.4928 52.8822 36.1919 53.9235 36.1919 53.9235C36.1919 53.9235 37.9028 52.1289 37.9028 47.5826C37.9028 45.6755 40.3653 44.917 40.3653 44.917L42.6118 45.2312Z" fill="#E78724"/>
<path d="M41.1413 47.2847C41.1413 47.2847 38.1583 50.8355 32.6201 48.8468C27.0805 46.8589 26.5126 39.7566 26.5126 37.7681C26.5126 35.7797 37.0228 39.7566 38.4437 40.609C39.8642 41.4614 42.5615 44.8696 41.1413 47.2847ZM20.22 9.34356C20.22 9.34356 25.333 8.34846 28.7412 11.0475C32.1511 13.7459 33.1441 15.8768 33.1441 15.8768L27.3988 20.4309C27.3988 20.4309 24.6227 19.144 23.7706 15.4507C22.9185 11.7578 23.4867 10.0538 20.22 9.34356Z" fill="#E78724"/>
<path d="M39.6498 37.0286C37.4486 33.9038 33.8207 32.5408 30.924 32.315C25.9852 31.9287 23.6404 33.6748 23.6404 33.6748C23.6404 33.6748 31.7291 34.0172 34.0605 37.0792C38.4007 42.7783 44.7325 43.2413 45.745 41.9896C44.5741 42.048 43.2864 41.4679 41.9076 40.1645C41.0465 39.349 40.3484 38.0205 39.6498 37.0286ZM25.995 48.0776C25.995 48.0776 17.0205 44.9923 18.7262 41.8684C20.4302 38.7433 19.0738 37.0405 19.0738 37.0405C19.0738 37.0405 14.0626 40.7814 15.3393 44.7584C16.1243 47.199 17.4408 48.9663 24.6704 52.3544C28.1381 58.7956 25.3865 70.3892 25.5513 70.4435C25.8259 70.5348 30.4201 68.1729 30.1065 57.3261C30.0106 53.9956 29.7444 49.4485 25.995 48.0779V48.0776ZM37.7555 14.9013C33.9925 16.813 28.8371 19.4754 28.8371 19.4754L30.8662 20.4906C30.6724 20.8042 30.5791 20.9913 30.5791 20.9913L32.6617 21.9382C32.6617 21.9382 37.7456 25.621 40.8602 27.989C39.8218 24.7904 36.7732 19.7664 36.7732 19.7664C36.7732 19.7664 35.9094 17.4582 37.7555 14.9013ZM50.257 92.8307C38.6901 92.8307 34.7725 86.9589 34.7725 86.9589L36.5802 91.3607C37.2632 93.2648 44.552 99.1907 50.2396 99.1907" fill="#E78724"/>
<path d="M36.0399 82.9911C36.0399 82.9911 37.1042 89.4948 41.3653 89.4948C44.9862 89.4948 46.0531 84.0011 46.0531 82.8656L36.0399 82.9911ZM28.9489 73.1826C29.3276 72.1404 30.6532 67.9269 31.0789 64.0924C31.5893 59.4996 31.4033 52.7827 31.4033 52.7827C31.4033 52.7827 30.2663 57.1857 29.2721 57.8971C28.2785 58.6068 26.4315 63.4356 26.4315 63.4356C26.4315 63.4356 25.4422 70.6245 24.9714 73.0407C26.2746 73.3014 27.3714 72.5339 28.9489 73.1826ZM18.6591 44.6874C18.6591 44.6874 21.073 43.8344 21.7839 38.5799C22.4939 33.3245 20.9312 28.7794 20.9312 28.7794C20.9312 28.7794 21.073 36.023 20.2212 37.4438C19.3685 38.8635 18.6591 39.2899 17.6642 41.1368C16.6694 42.984 18.09 44.1189 18.6591 44.6874Z" fill="#E78724"/>
<path d="M21.5415 10.5867L21.0486 10.2745C19.5954 10.3237 21.5415 10.5867 21.5415 10.5867Z" fill="#FDC168"/>
<path d="M39.7201 13.3452C39.7201 13.3452 37.4486 12.9668 36.3116 11.2626C35.1747 9.55811 31.9561 6.14878 26.8245 6.111C21.6932 6.07264 16.6166 7.47491 16.6166 7.47491L21.048 10.2751C21.5168 10.2597 22.3364 10.2661 23.6916 10.3114C29.2532 10.4962 30.1094 15.9972 30.1094 15.9972L49.7098 13.2982" fill="#FBA919"/>
<path d="M41.6146 43.7292C41.6146 43.7292 38.963 46.3806 34.8907 45.5279C30.8188 44.6761 28.3563 42.8768 28.1671 39.7517C27.9779 36.6269 29.0201 35.3961 29.0201 35.3961C29.0201 35.3961 33.5646 36.8173 35.7437 38.7113C37.9217 40.6047 39.5314 43.6348 41.6146 43.7292Z" fill="white"/>
<path d="M38.4056 42.782C38.4056 42.782 36.1058 43.8323 33.5356 42.9767C30.171 41.8544 29.9469 38.3552 29.9469 38.3552C29.9469 38.3552 27.8826 44.4127 33.6698 45.5787C38.3114 46.5136 41.0566 43.8239 41.0566 43.8239L38.4056 42.7817V42.782Z" fill="#C9C9C9"/>
<path d="M40.0398 12.0601C39.7924 6.86545 44.051 2.72811 45.5268 2.55171C45.6081 3.43201 45.4442 6.86574 46.9194 7.92158C47.349 5.11705 48.8012 2.0248 54.5361 -0.000854492C53.3079 3.25676 54.3719 5.98544 54.8791 7.25024C58.795 3.6959 61.4335 4.28296 61.4335 4.28296C61.4335 4.28296 58.7124 8.9783 59.777 12.0592C51.9156 11.4428 40.0781 12.8942 40.0398 12.0601ZM23.3736 19.9732C21.4976 18.4169 22.8958 16.9728 22.7476 15.2046C22.6671 14.2639 22.5927 13.3763 22.2826 12.8866C20.5563 10.1611 16.4843 9.33402 16.4436 9.3253L14.5325 8.95098L15.7976 7.47112C15.9615 7.2793 21.1567 2.32211 29.1968 4.91797C34.821 6.73176 38.9845 12.8826 39.1394 13.131L36.3195 14.4572C36.2863 14.4048 32.9947 8.62315 28.1698 7.06744C24.2696 5.80903 20.6745 7.00641 19.1351 7.79109C20.7719 8.44442 22.9118 9.63453 24.2013 11.6704C24.8096 12.632 24.9124 13.8425 25.0115 15.0149C25.1423 16.5668 25.2644 18.0318 26.4065 18.9807L23.3736 19.9732ZM18.3638 42.6899C18.3638 42.6899 20.7269 39.7593 21.427 34.0572C21.7019 31.811 21.2134 27.381 20.4319 25.6767C20.574 29.8667 19.5088 34.0572 19.5088 34.0572C19.5088 34.0572 18.7907 41.8375 18.3638 42.6899Z" fill="#463014"/>
<path d="M30.8252 17.0135C30.8238 17.0074 30.0667 13.6989 27.9678 12.0287C25.0069 9.67344 21.3918 10.9263 21.357 10.9374L20.8321 9.31569C21.007 9.25901 25.1392 7.95701 28.9472 10.634C32.7782 13.326 33.238 15.7664 33.2778 16.0358L30.8252 17.0135ZM25.7861 40.5881C25.7861 40.5881 24.5463 38.8133 24.7692 36.8614C24.8802 35.8974 25.3272 34.9078 26.1244 34.5568C27.6066 33.9058 28.2634 35.5856 28.2634 35.5856C28.2634 35.5856 26.1776 36.1003 25.7861 40.5881Z" fill="#463014"/>
<path d="M39.3992 43.2936C39.4509 43.39 39.4777 43.4444 39.4777 43.4444C39.4777 43.4444 35.6103 46.3466 31.6474 43.4014C29.5258 41.8233 29.7263 37.9205 30.3762 36.2654C32.0664 36.6484 33.4998 37.3386 34.6978 38.1448C33.1836 36.7934 31.8584 35.7986 31.8618 35.7757L30.1408 35.2886L26.7957 34.1415C26.7529 34.3966 25.5329 40.1156 29.0547 44.0123C30.6154 45.7403 37.9333 49.6097 41.408 42.9933L39.3992 43.2933V43.2936Z" fill="#463014"/>
<path d="M39.0371 43.7187C41.2142 47.0324 46.7076 45.1387 46.6131 41.6355C46.6131 41.6355 42.9426 43.6612 39.6995 39.9313C37.8061 37.7539 31.7393 31.7499 23.5117 33.745C29.1934 34.9947 36.7159 40.1853 39.0371 43.7187Z" fill="#463014"/>
<path d="M22.7432 53.071C23.2669 53.3735 25.1141 55.2867 25.1153 58.1476C25.1153 59.5824 24.9726 66.7899 24.2623 71.1932C25.3303 71.8872 26.0743 72.0349 27.138 72.7422C27.6705 67.6426 28.0523 60.2515 27.8745 57.2676C27.671 53.8664 25.8497 51.5839 24.1609 50.6106C23.6319 50.3063 23.0795 50.0072 22.5229 49.7064C19.6303 48.1435 16.6389 46.5264 16.6389 43.7658C16.6389 41.6058 17.4788 40.9304 18.3675 40.2143L18.4635 40.1367C19.0534 39.6601 19.7207 39.1195 20.1162 38.2323C21.1953 35.8061 21.3717 29.6254 20.1162 28.0566C19.4902 27.2748 17.8133 24.6458 18.2955 22.8791C18.4791 22.2049 18.9038 21.705 19.5951 21.351C20.3267 20.9761 21.3151 20.7863 22.5316 20.7863C24.9211 20.7863 27.5716 21.5138 28.939 21.9468C33.8253 23.4955 39.7215 27.9607 41.4115 29.2924C41.46 29.3296 41.4885 29.3513 41.4937 29.3548L42.5752 30.107L41.8989 28.9753C41.857 28.9047 37.5735 21.8611 29.9141 19.2786C28.424 18.7761 25.4966 17.933 22.6194 17.933C20.9067 17.933 19.453 18.2323 18.3024 18.8214C16.8996 19.539 15.9498 20.6837 15.5552 22.1311C14.588 25.6787 17.7381 29.6286 17.8453 29.755C18.2126 30.4107 18.3684 35.1731 17.5198 37.0791C17.4035 37.3424 17.0833 37.6007 16.6784 37.9277C16.5514 38.0303 16.4096 38.1369 16.2594 38.2509C15.0623 39.1544 13.2523 40.5195 13.2523 43.6661C13.2523 47.9714 17.6157 50.3057 21.1224 52.1826C21.6978 52.4921 22.2468 52.785 22.7432 53.071Z" fill="#463014"/>
<path d="M23.3736 19.9732C21.4976 18.4169 22.8958 16.9728 22.7476 15.2046C22.6671 14.2639 22.5927 13.3763 22.2826 12.8866C20.5563 10.1611 16.4843 9.33402 16.4436 9.3253L14.5325 8.95098L15.7976 7.47111C15.9615 7.2793 21.1567 2.32211 29.1968 4.91797C34.821 6.73176 38.9845 12.8826 39.1394 13.131L36.3195 14.4572C36.2863 14.4048 32.9947 8.62315 28.1698 7.06744C24.2696 5.80903 20.6745 7.00641 19.1351 7.79109C20.7719 8.44442 22.9118 9.63453 24.2013 11.6704C24.8096 12.632 24.9124 13.8425 25.0115 15.0149C25.1423 16.5668 25.2644 18.0318 26.4065 18.9807L23.3736 19.9732Z" fill="#463014"/>
<path d="M23.3125 20.2921L23.1914 20.1915C21.8004 19.0371 22.0472 17.9002 22.2861 16.7999C22.3947 16.2922 22.5093 15.7673 22.4628 15.2288C22.3869 14.3235 22.314 13.4694 22.0413 13.0384C20.3979 10.4431 16.4256 9.61189 16.3864 9.60375L13.9998 9.13555L15.5819 7.28572C15.611 7.25085 18.9468 3.88367 24.5962 3.88367C26.1365 3.88367 27.7143 4.14 29.284 4.64714C35.1541 6.53969 39.3414 12.9172 39.3809 12.9802L39.5503 13.2511L36.2145 14.8199L36.0809 14.6077C35.7216 13.9957 32.5588 8.77954 28.0843 7.33629C26.9855 6.98173 25.8276 6.80241 24.6442 6.80241C22.5005 6.80241 20.7623 7.38657 19.8372 7.77891C21.3831 8.47496 23.2579 9.64647 24.4437 11.5172C25.0888 12.5362 25.1935 13.7815 25.2958 14.985C25.4213 16.4811 25.5399 17.8883 26.5896 18.7596L26.9858 19.088L23.3125 20.2921Z" fill="#463014"/>
<path d="M30.8252 17.0135C30.8238 17.0074 30.0667 13.6989 27.9678 12.0287C25.0069 9.67344 21.3918 10.9263 21.357 10.9374L20.8321 9.31569C21.007 9.25901 25.1392 7.95701 28.9472 10.634C32.7782 13.326 33.238 15.7664 33.2778 16.0358L30.8252 17.0135Z" fill="#463014"/>
<path d="M30.6215 17.4003L30.5477 17.0748C30.5401 17.0428 29.7976 13.8477 27.7902 12.2516C26.646 11.3408 25.2664 10.8781 23.6918 10.8781C22.4628 10.8781 21.5493 11.1716 21.4496 11.2062L21.1785 11.2963L20.4743 9.13319L20.7443 9.046C20.8652 9.00735 21.962 8.66528 23.5134 8.66528C25.56 8.66528 27.4949 9.266 29.1114 10.4012C33.0386 13.1607 33.5181 15.7126 33.5588 15.9943L33.5934 16.2169L30.6215 17.4003ZM23.6921 10.3111C25.3742 10.3111 26.9151 10.8284 28.1445 11.8061C29.9269 13.2258 30.7653 15.7318 31.0188 16.6304L32.9508 15.8603C32.7759 15.1782 32.0057 13.131 28.7844 10.8665C27.2433 9.78332 25.4704 9.23462 23.5137 9.23462C22.4398 9.23462 21.6057 9.4055 21.1936 9.50955L21.5421 10.5866C21.946 10.4779 22.7237 10.3111 23.6921 10.3111ZM41.1871 87.9347C40.3478 87.9347 39.4914 87.6301 38.8979 87.1163C38.4434 86.7245 36.9065 85.313 36.2288 83.5838C35.976 82.9371 36.0326 82.4198 36.3997 82.0475C36.6525 81.7923 37.1777 81.4875 38.2434 81.4875L39.0016 81.4863C39.9052 81.4852 41.4263 81.4852 42.7266 81.4852H43.9734C44.7842 81.4852 45.3655 81.6607 45.6994 82.0025C46.1286 82.4433 45.9912 83.0043 45.8709 83.2995C45.6622 83.8168 44.7976 85.4998 43.334 87.0646C42.81 87.6255 42.0474 87.9347 41.1871 87.9347ZM42.0669 43.9134L39.0368 43.7187C39.0368 43.7187 39.8113 45.0841 40.3132 46.8499C40.88 48.8474 39.7951 51.7667 39.7951 51.7667C39.7951 51.7667 43.8353 47.1923 42.0669 43.9134ZM38.2844 95.9356C27.4996 95.1068 23.7052 84.916 23.7052 82.7935L26.5216 82.7947L25.1136 82.7935H26.5216C26.5359 83.7111 29.4017 92.4284 38.5 93.1282L38.2844 95.9356Z" fill="#463014"/>
<path d="M35.2537 77.6774C35.0852 76.7035 35.0677 75.7796 35.2732 74.872C34.4537 74.2558 32.9831 74.0271 31.8796 73.6694C30.9772 73.0983 26.3595 74.2547 23.0097 70.2005C18.8122 65.1238 19.6954 62.0929 19.6954 62.0929C18.6192 63.2885 17.5762 62.8328 15.9359 68.4082C14.293 73.9847 16.7069 77.8721 21.2058 81.7749C23.3311 83.6183 26.3356 84.378 28.9202 84.6686C28.0544 83.7997 30.3989 83.7125 32.0147 83.108C31.886 81.8031 32.1019 80.5365 33.0746 79.5167C33.6611 78.9018 34.4159 78.5344 35.1991 78.2415C35.2427 78.1403 35.2796 78.0468 35.3212 77.9497C35.2936 77.8603 35.2711 77.7693 35.2537 77.6774Z" fill="white"/>
<path d="M31.9932 83.0741C31.8996 82.8 31.829 82.521 31.7598 82.24C31.6851 81.9334 31.3131 81.0638 31.7715 82.0566C31.6537 81.8023 31.5767 81.5404 31.5201 81.2765C24.2341 81.2672 17.8956 76.2647 19.1203 65.7479C18.1664 64.4816 16.8307 68.3013 16.8307 68.3013C16.8307 68.3013 13.1831 78.8923 22.6034 82.997C25.7421 84.3659 28.5162 85.3473 29.1706 84.9512C30.534 85.2282 31.7645 84.2778 32.226 83.6527C32.1397 83.4609 32.0606 83.2685 31.9932 83.0741Z" fill="#C9C9C9"/>
<path d="M35.1224 76.1525C35.1337 75.2649 35.3151 74.4049 35.7443 73.5485C35.7742 73.4895 35.8088 73.4328 35.8411 73.3753C33.0374 73.3511 29.8086 73.0829 27.059 71.9823C24.0368 70.7733 20.2563 66.6377 19.6068 61.7784C19.6068 61.7784 13.9152 66.1704 15.5874 75.5712C17.1574 84.3984 24.5442 87.2761 32.9685 87.7629C32.9732 87.706 32.0211 85.7396 32.3219 84.5355C27.5382 84.8831 22.189 83.035 19.6068 78.7861C17.2425 74.897 17.9057 68.2573 18.8773 67.2843C21.2473 74.7627 29.7754 76.283 35.1224 76.1525Z" fill="#463014"/>
<path d="M36.005 70.7989C34.4891 75.2475 31.3928 78.8481 31.3928 78.8481C31.3928 78.8481 35.6522 78.6542 35.8873 77.9006C36.0614 77.345 39.7335 68.7489 41.143 58.6787C39.8172 60.8569 36.135 70.4179 36.005 70.7989Z" fill="#463014"/>
<path d="M60.1377 60.5422C60.1377 60.5422 64.9664 67.9269 68.5103 73.1678C69.0584 73.9786 64.9664 74.0347 64.9664 74.0347L60.1377 60.5419V60.5422ZM57.8376 45.2312C57.8376 45.2312 59.2937 48.8634 60.09 50.7888C60.9561 52.8822 64.2564 53.9235 64.2564 53.9235C64.2564 53.9235 62.5458 52.1289 62.5458 47.5826C62.5458 45.6755 60.0836 44.917 60.0836 44.917L57.8376 45.2312Z" fill="#E78724"/>
<path d="M59.3082 47.2847C59.3082 47.2847 62.2909 50.8355 67.8308 48.8468C73.3707 46.8583 73.938 39.7566 73.938 37.7681C73.938 35.7797 63.4278 39.7566 62.0069 40.609C60.5864 41.4614 57.8882 44.8696 59.3082 47.2847ZM80.2297 9.34356C80.2297 9.34356 75.1167 8.34846 71.7071 11.0475C68.299 13.7459 67.3041 15.8768 67.3041 15.8768L73.0498 20.4309C73.0498 20.4309 75.827 19.1434 76.6791 15.4505C77.5309 11.7578 76.9631 10.0536 80.2297 9.34356Z" fill="#E78724"/>
<path d="M60.8 37.0286C63.0012 33.9038 66.6279 32.5407 69.5257 32.3149C74.4649 31.9287 76.8085 33.6747 76.8085 33.6747C76.8085 33.6747 68.7198 34.0171 66.3879 37.0791C62.0474 42.7783 55.7179 43.2413 54.7053 41.9895C55.876 42.0479 57.1646 41.4679 58.5421 40.1644C59.403 39.3489 60.1016 38.0205 60.8 37.0286ZM74.4547 48.0775C74.4547 48.0775 83.4284 44.9923 81.7238 41.8683C80.0199 38.7432 81.3751 37.0405 81.3751 37.0405C81.3751 37.0405 86.3875 40.7814 85.1096 44.758C84.3247 47.1987 83.0081 48.966 75.7785 52.3541C72.3108 58.7952 75.0624 70.3888 74.8985 70.4432C74.6236 70.5344 70.03 68.1725 70.3436 57.3258C70.4389 53.9953 70.7054 49.4481 74.4547 48.0775ZM62.6946 14.9012C66.4564 16.813 71.6127 19.4754 71.6127 19.4754L69.5842 20.4905C69.7777 20.8041 69.8713 20.9913 69.8713 20.9913L67.7887 21.9381C67.7887 21.9381 62.7045 25.6209 59.5896 27.989C60.6271 24.7906 63.6757 19.7666 63.6757 19.7666C63.6757 19.7666 64.5412 17.4582 62.6946 14.9012ZM50.1934 92.8306C61.7582 92.8306 65.6761 86.9588 65.6761 86.9588L63.8696 91.3606C63.1866 93.2648 55.8969 99.1906 50.2111 99.1906" fill="#E78724"/>
<path d="M64.4098 82.9911C64.4098 82.9911 63.3444 89.4948 59.0844 89.4948C55.4644 89.4948 54.3969 84.0011 54.3969 82.8656L64.4098 82.9911ZM71.5008 73.1826C71.1221 72.1404 69.7966 67.9269 69.3696 64.0924C68.8593 59.4996 69.0464 52.7827 69.0464 52.7827C69.0464 52.7827 70.1828 57.1857 71.1761 57.8971C72.1712 58.6068 74.017 63.4356 74.017 63.4356C74.017 63.4356 75.006 70.6245 75.4768 73.0407C74.1742 73.3014 73.0786 72.5339 71.5008 73.1826ZM81.7915 44.6874C81.7915 44.6874 79.3764 43.8344 78.6667 38.5799C77.9567 33.3245 79.5191 28.7794 79.5191 28.7794C79.5191 28.7794 79.3764 36.023 80.2291 37.4438C81.0818 38.8641 81.7915 39.2899 82.786 41.1368C83.7794 42.9834 82.3591 44.1189 81.7915 44.6874Z" fill="#E78724"/>
<path d="M78.908 10.5867L79.4017 10.2745C80.8551 10.3237 78.908 10.5867 78.908 10.5867Z" fill="#FDC168"/>
<path d="M60.7285 13.3453C60.7285 13.3453 63.0015 12.9669 64.1372 11.2627C65.2736 9.55815 68.4937 6.14883 73.6256 6.11076C78.7568 6.0724 83.8335 7.47466 83.8335 7.47466L79.4017 10.2748C78.933 10.2594 78.1134 10.2658 76.757 10.3112C71.1962 10.496 70.34 15.9969 70.34 15.9969L50.7403 13.2979" fill="#FBA919"/>
<path d="M58.8351 43.7292C58.8351 43.7292 61.4867 46.3806 65.5581 45.5279C69.6303 44.6761 72.0925 42.8768 72.282 39.7517C72.4709 36.6269 71.4299 35.3961 71.4299 35.3961C71.4299 35.3961 66.8839 36.8173 64.7063 38.7113C62.5283 40.6053 60.9189 43.6348 58.8351 43.7292Z" fill="white"/>
<path d="M62.0433 42.782C62.0433 42.782 64.3439 43.8323 66.9133 42.9767C70.2787 41.8544 70.5028 38.3552 70.5028 38.3552C70.5028 38.3552 72.566 44.4127 66.7787 45.5787C62.138 46.5136 59.3922 43.8239 59.3922 43.8239L62.0433 42.7817V42.782Z" fill="#C9C9C9"/>
<path d="M77.0758 19.9732C78.9518 18.4169 77.5548 16.9728 77.703 15.2046C77.782 14.2639 77.8564 13.3763 78.1668 12.8866C79.8931 10.1611 83.9651 9.33402 84.0069 9.3253L85.9187 8.95098L84.653 7.47111C84.4891 7.2793 79.2939 2.32211 71.2523 4.91797C65.6293 6.73176 61.4661 12.8826 61.3112 13.131L64.1302 14.4572C64.1642 14.4048 67.4561 8.62315 72.2811 7.06744C76.1813 5.80903 79.7757 7.00641 81.3146 7.79109C79.6787 8.44442 77.5379 9.63453 76.2484 11.6704C75.6401 12.632 75.5381 13.8425 75.4393 15.0149C75.3085 16.5668 75.1853 18.0318 74.0429 18.9807L77.0758 19.9732ZM82.0847 42.6899C82.0847 42.6899 79.7228 39.7593 79.0227 34.0572C78.7478 31.811 79.2355 27.381 80.0167 25.6767C79.8745 29.8667 80.9408 34.0572 80.9408 34.0572C80.9408 34.0572 81.659 41.8375 82.0847 42.6899Z" fill="#463014"/>
<path d="M69.6248 17.0135C69.6259 17.0074 70.383 13.6989 72.4822 12.0287C75.4428 9.67344 79.0582 10.9263 79.0919 10.9374L79.6182 9.31569C79.4427 9.25901 75.3112 7.95701 71.5019 10.634C67.6709 13.326 67.2123 15.7664 67.1713 16.0358L69.6248 17.0135ZM74.6636 40.5881C74.6636 40.5881 75.9034 38.8133 75.6794 36.8614C75.5695 35.8974 75.1228 34.9078 74.3251 34.5568C72.8432 33.9058 72.1861 35.5856 72.1861 35.5856C72.1861 35.5856 74.2722 36.1003 74.6636 40.5881Z" fill="#463014"/>
<path d="M61.0508 43.2936C60.9991 43.3901 60.9723 43.4444 60.9723 43.4444C60.9723 43.4444 64.8379 46.3466 68.8012 43.4014C70.9239 41.8233 70.7234 37.9205 70.0724 36.2654C68.383 36.6484 66.9499 37.3387 65.7511 38.1449C67.2655 36.7935 68.5911 35.7987 68.5864 35.7757L70.3087 35.2886L73.6532 34.1421C73.6962 34.3973 74.9159 40.1162 71.393 44.0132C69.8323 45.7409 62.5144 49.6103 59.0408 42.9939L61.0508 43.2933V43.2936Z" fill="#463014"/>
<path d="M61.4118 43.7187C59.2347 47.0324 53.7428 45.1387 53.8375 41.6355C53.8375 41.6355 57.5069 43.6612 60.75 39.9313C62.6432 37.7539 68.7114 31.7499 76.9384 33.745C71.257 34.9947 63.7345 40.1853 61.4118 43.7187Z" fill="#463014"/>
<path d="M77.7077 53.071C77.1834 53.3735 75.3353 55.2867 75.3353 58.1476C75.3342 59.5824 75.4771 66.7899 76.1883 71.1932C75.12 71.8872 74.376 72.0349 73.3123 72.7422C72.7799 67.6426 72.3968 60.2515 72.5761 57.2676C72.7793 53.8664 74.5998 51.5839 76.2883 50.6106C76.8172 50.3063 77.37 50.0072 77.9277 49.7064C80.8203 48.1435 83.8117 46.5264 83.8117 43.7658C83.8117 41.6058 82.9712 40.9304 82.0825 40.2143L81.9877 40.1367C81.3978 39.6601 80.729 39.1195 80.3347 38.2323C79.2553 35.8061 79.0783 29.6254 80.3335 28.0566C80.9595 27.2748 82.6376 24.6458 82.1554 22.8791C81.9706 22.2049 81.5457 21.705 80.8546 21.351C80.1228 20.9761 79.1361 20.7863 77.9181 20.7863C75.53 20.7863 72.8781 21.5138 71.5119 21.9468C66.6256 23.4955 60.7297 27.9607 59.0382 29.2924C58.99 29.3296 58.9621 29.3513 58.9569 29.3548L57.8746 30.107L58.5509 28.9753C58.5939 28.9047 62.8765 21.8611 70.5357 19.2786C72.026 18.7761 74.9532 17.933 77.8303 17.933C79.5433 17.933 80.9952 18.2323 82.1473 18.8214C83.5504 19.539 84.4996 20.6837 84.8949 22.1311C85.8621 25.6787 82.7117 29.6286 82.6041 29.755C82.2371 30.4107 82.0816 35.1731 82.9288 37.0791C83.0456 37.3424 83.3656 37.6007 83.7716 37.9277C83.8983 38.0303 84.039 38.1369 84.1904 38.2509C85.3878 39.1544 87.1969 40.5195 87.1969 43.6661C87.1969 47.9714 82.8335 50.3057 79.3279 52.1826C78.7522 52.4921 78.2026 52.785 77.7077 53.071Z" fill="#463014"/>
<path d="M72.5023 19.4667C71.8083 18.2911 70.0331 16.0214 65.9426 14.0268C61.3772 11.8018 56.0936 10.6724 50.2361 10.6698V10.6683H50.2134V10.6689C44.355 10.6718 39.0702 11.8015 34.5063 14.0262C30.4154 16.0211 28.6415 18.2906 27.9469 19.4661L27.6487 19.8605L31.1519 20.6403L31.2629 20.4999L31.3216 20.3714C31.3757 20.1398 31.8453 18.8898 35.7507 16.9854C39.9261 14.949 44.7961 13.9164 50.2238 13.9146C55.6527 13.9164 60.5207 14.949 64.6955 16.9854C68.6015 18.8898 69.0726 20.1398 69.1261 20.3711L69.1845 20.4999L69.2944 20.6403L72.7984 19.8605L72.5023 19.4667Z" fill="#463014"/>
<path d="M77.0758 19.9732C78.9518 18.4169 77.5548 16.9728 77.703 15.2046C77.782 14.2639 77.8564 13.3763 78.1668 12.8866C79.8931 10.1611 83.9651 9.33402 84.0069 9.3253L85.9187 8.95098L84.653 7.47111C84.4891 7.2793 79.2939 2.32211 71.2523 4.91797C65.6293 6.73176 61.4661 12.8826 61.3112 13.131L64.1302 14.4572C64.1642 14.4048 67.4561 8.62315 72.2811 7.06744C76.1813 5.80903 79.7757 7.00641 81.3146 7.79109C79.6787 8.44442 77.5379 9.63453 76.2484 11.6704C75.6401 12.632 75.5381 13.8425 75.4393 15.0149C75.3085 16.5668 75.1853 18.0318 74.0429 18.9807L77.0758 19.9732Z" fill="#463014"/>
<path d="M73.4657 19.0895L73.8604 18.7608C74.911 17.8895 75.0287 16.4823 75.1557 14.9861C75.2574 13.7824 75.3623 12.5367 76.0072 11.5184C77.1924 9.64823 79.0684 8.47643 80.6136 7.77951C79.6886 7.38774 77.95 6.80359 75.8061 6.80359C74.6221 6.80359 73.4666 6.98261 72.3671 7.33747C67.8915 8.78071 64.7289 13.9968 64.3709 14.6089L64.2366 14.8211L60.9008 13.2523L61.0705 12.9814C61.1098 12.9183 65.2962 6.54115 71.1663 4.64831C72.7359 4.14117 74.3137 3.88513 75.8552 3.88513C81.5047 3.88513 84.8408 7.25318 84.8692 7.28719L86.4517 9.13702L84.0642 9.60492C84.0247 9.61306 80.0527 10.444 78.4081 13.0398C78.1355 13.4711 78.064 14.3244 77.9867 15.2303C77.9416 15.7691 78.0547 16.2939 78.1648 16.8014C78.4034 17.9017 78.6502 19.0398 77.2584 20.193L77.1375 20.2935L73.4657 19.0895Z" fill="#463014"/>
<path d="M69.6248 17.0135C69.6259 17.0074 70.383 13.6989 72.4822 12.0287C75.4428 9.67344 79.0582 10.9263 79.0919 10.9374L79.6182 9.31569C79.4427 9.25901 75.3112 7.95701 71.5019 10.634C67.6709 13.326 67.2123 15.7664 67.1713 16.0358L69.6248 17.0135Z" fill="#463014"/>
<path d="M66.858 16.2168L66.8912 15.9942C66.9327 15.7126 67.4126 13.1612 71.3389 10.4011C72.9542 9.26596 74.8898 8.66553 76.9363 8.66553C78.4886 8.66553 79.5854 9.00672 79.7069 9.04596L79.9763 9.13314L79.2727 11.2963L79.0009 11.2062C78.8992 11.1719 77.9864 10.8781 76.7579 10.8781C75.1836 10.8781 73.8049 11.3401 72.6607 12.2515C70.653 13.8482 69.9102 17.0434 69.9032 17.0748L69.8294 17.3997L66.858 16.2168ZM78.9079 10.5866L79.2576 9.5095C78.8452 9.40488 78.0102 9.23457 76.9363 9.23457C74.9799 9.23457 73.2065 9.78385 71.6662 10.8664C68.4437 13.1316 67.6735 15.1781 67.4989 15.8602L69.4324 16.6304C69.6853 15.7312 70.5228 13.2251 72.3061 11.806C73.5366 10.8281 75.0758 10.311 76.7576 10.311C77.7248 10.311 78.504 10.4779 78.9082 10.5866H78.9079ZM57.1169 87.0645C55.6536 85.5001 54.7878 83.8165 54.5786 83.2995C54.4588 83.0048 54.3228 82.4433 54.7518 82.0021C55.0863 81.6606 55.6661 81.4851 56.4766 81.4851H57.7243C59.0245 81.4851 60.5448 81.4851 61.4489 81.4863L62.2075 81.4874C63.2723 81.4874 63.7972 81.792 64.0497 82.0475C64.4171 82.4192 64.4743 82.9362 64.2212 83.5837C63.5441 85.3132 62.0066 86.7248 61.5524 87.1162C60.9572 87.6301 60.1028 87.9347 59.2634 87.9347C58.4032 87.9347 57.6409 87.6254 57.1169 87.0645ZM58.3834 43.9134L61.4117 43.7187C61.4117 43.7187 60.6384 45.084 60.1365 46.8499C59.5698 48.8473 60.6547 51.7667 60.6547 51.7667C60.6547 51.7667 56.6141 47.1922 58.3834 43.9134Z" fill="#463014"/>
<path d="M50.2253 33.0955C48.2941 33.0955 45.7761 33.0426 43.8868 31.6848C43.8868 31.6848 46.3606 36.0212 50.2221 36.0212L50.2253 35.4725L50.2285 36.0212C54.0903 36.0212 56.5635 31.6851 56.5635 31.6851C54.6745 33.0423 52.1548 33.0955 50.2253 33.0955Z" fill="#E78724"/>
<path d="M55.5426 33.0746C53.6056 34.247 51.8755 34.6533 50.2253 34.6893C48.5745 34.6533 46.8453 34.247 44.908 33.0746C44.908 33.0746 47.7291 36.517 50.2111 36.5435V36.5455C50.2154 36.5455 50.2198 36.5444 50.225 36.5444C50.2294 36.5444 50.2337 36.5455 50.239 36.5455V36.5435C52.7203 36.517 55.5426 33.0746 55.5426 33.0746ZM62.1656 95.9356L61.9497 93.1276C71.0457 92.4281 73.9118 83.7108 73.9266 82.793H76.7434C76.7445 84.9154 72.949 95.1068 62.1656 95.9356Z" fill="#463014"/>
<path d="M65.1957 77.6774C65.3651 76.7035 65.3817 75.7796 65.1762 74.872C65.997 74.2558 67.4664 74.0271 68.5699 73.6694C69.4722 73.0983 74.0912 74.2547 77.4412 70.2005C81.6384 65.1238 80.754 62.0929 80.754 62.0929C81.8311 63.2885 82.8733 62.8328 84.5147 68.4082C86.1576 73.9847 83.7425 77.8721 79.2436 81.7749C77.1186 83.6183 74.1138 84.378 71.5293 84.6686C72.3951 83.7997 70.0506 83.7125 68.4356 83.108C68.5646 81.8031 68.3478 80.5365 67.3751 79.5167C66.7898 78.9018 66.0339 78.5344 65.2515 78.2415C65.2073 78.1403 65.1695 78.0468 65.1292 77.9497C65.155 77.861 65.1791 77.7715 65.1957 77.6774Z" fill="white"/>
<path d="M68.4553 83.0741C68.5501 82.8 68.6193 82.521 68.6887 82.24C68.7646 81.9334 69.1366 81.0638 68.6774 82.0566C68.7954 81.8023 68.8721 81.5404 68.9291 81.2765C76.215 81.2672 82.5536 76.2647 81.3277 65.7479C82.2815 64.4816 83.6181 68.3013 83.6181 68.3013C83.6181 68.3013 87.2657 78.8923 77.8454 82.997C74.7067 84.3659 71.9332 85.3473 71.2785 84.9512C69.914 85.2282 68.6832 84.2778 68.2228 83.6527C68.3089 83.4609 68.3897 83.2685 68.4553 83.0741Z" fill="#C9C9C9"/>
<path d="M65.3262 76.1525C65.316 75.2649 65.1335 74.4049 64.7057 73.5485C64.6752 73.4895 64.6406 73.4328 64.6086 73.3753C67.412 73.3511 70.6411 73.0829 73.3907 71.9823C76.4127 70.7733 80.1931 66.6377 80.843 61.7784C80.843 61.7784 86.5346 66.1704 84.8623 75.5712C83.2912 84.3984 75.9052 87.2761 67.4812 87.7629C67.4765 87.706 68.4289 85.7396 68.1278 84.5355C72.9101 84.8831 78.2596 83.035 80.8432 78.7861C83.206 74.897 82.5434 68.2573 81.5716 67.2843C79.2024 74.7627 70.6734 76.283 65.3262 76.1525Z" fill="#463014"/>
<path d="M68.728 78.3667C67.7215 77.2786 65.8711 75.9818 61.6045 75.9818L50.2396 75.9749H50.2117C46.9363 75.9772 38.8453 75.9818 38.8453 75.9818C34.5795 75.9818 32.7291 77.2789 31.7221 78.3667C30.2553 79.9503 30.0251 82.153 31.04 84.9063C33.7364 92.235 37.5259 99.6808 50.2111 99.6913V99.6925C50.2157 99.6925 50.2198 99.6913 50.225 99.6913C50.2294 99.6913 50.2338 99.6925 50.239 99.6925V99.6913C62.923 99.6803 66.7125 92.235 69.4098 84.9063C70.4246 82.153 70.1939 79.9503 68.728 78.3667ZM66.7532 84.3925C65.4686 88.0727 62.0157 96.9804 50.2247 96.9958C38.4323 96.9804 34.9809 88.073 33.696 84.3925C32.9852 82.3506 33.0392 80.8396 33.8623 79.9012C34.4246 79.2595 35.7162 78.4937 38.6596 78.4937L41.7347 78.4925C44.0033 78.4905 46.8518 78.4882 50.225 78.4867C53.5972 78.4882 56.447 78.4905 58.7151 78.4925L61.789 78.4937C64.7333 78.4937 66.0246 79.2592 66.5872 79.9012C67.4094 80.8405 67.464 82.3506 66.7529 84.3925H66.7532Z" fill="#463014"/>
<path d="M64.4442 70.7989C65.9601 75.2475 69.0564 78.8481 69.0564 78.8481C69.0564 78.8481 64.797 78.6542 64.5616 77.9006C64.3886 77.345 60.7166 68.7489 59.3071 58.6787C60.6317 60.8569 64.314 70.4179 64.4442 70.7989Z" fill="#463014"/>
</g>
</g>
<defs>
<clipPath id="clip0_867_19294">
<rect width="100" height="100" fill="white"/>
</clipPath>
<clipPath id="clip1_867_19294">
<rect width="74.4" height="100" fill="white" transform="translate(13 -0.000854492)"/>
</clipPath>
</defs>
</svg>
