<svg width="100" height="100" viewBox="0 0 100 100" fill="none" xmlns="http://www.w3.org/2000/svg">
<path d="M20.5367 43.7147C17.6174 45.0879 9.8907 51.2697 8.40252 53.1012C6.85702 54.9328 6.39927 52.0711 8.00181 47.3205C9.2607 43.4857 12.4664 38.277 17.8464 33.8128C20.9942 31.2371 27.92 27.517 32.1552 25.3417C33.014 24.8837 44.1177 20.1904 54.0196 17.8438C54.8783 17.6148 52.9894 19.2746 52.7031 20.1904C51.2149 24.5403 21.5092 43.1993 21.5092 43.1993L20.5367 43.7147ZM62.376 96.2C62.8911 99.2907 62.4333 99.5197 59.2282 99.9204C56.0229 100.321 53.6762 99.119 52.8178 98.3179C51.959 97.5162 51.7876 95.7422 52.6461 94.1397C53.1614 93.1092 53.6765 92.7659 53.9628 91.5067C54.2489 90.3048 54.4779 90.0185 54.7066 89.5608C54.9354 89.1598 54.993 88.7591 55.05 85.9547C55.1073 83.1503 55.05 77.8843 55.3364 75.6524C55.6227 73.363 65.5246 76.6825 65.5246 76.6825C65.5246 76.6825 63.1777 82.5206 62.5482 83.9514C61.9185 85.3826 61.9758 88.1296 61.9758 88.702C61.9758 89.2744 61.7471 90.4189 61.5751 90.4763C61.4034 90.5333 62.1475 92.0215 61.8039 92.8802C61.5749 93.6816 62.3189 95.7422 62.376 96.2ZM66.1538 8.68598C65.8101 6.51104 66.1538 2.21791 66.6115 1.53143C68.0426 -0.414784 75.5976 -0.643518 77.2005 1.64579C77.8872 2.67594 77.8299 5.0799 77.7155 6.6254C77.6012 8.17063 77.2005 11.4904 77.1431 12.5781C77.0861 13.3795 68.7867 14.6384 66.9552 12.4635C66.4398 11.8914 66.1538 8.68598 66.1538 8.68598ZM82.9812 90.6479C86.4726 93.1666 89.1626 93.6243 90.9369 94.5401C92.7111 95.4562 92.2534 97.2304 89.277 97.7455C86.873 98.2032 83.0956 97.2874 80.5772 97.2874C78.0589 97.2874 72.4496 97.5738 70.9614 96.5436C69.2445 95.3418 69.9883 93.1092 69.9883 93.1092C70.4463 91.8504 71.5908 89.0454 71.2475 86.7561C70.9041 84.4668 70.446 83.2076 69.5876 81.0897C68.7291 78.9721 68.0997 73.7637 68.9011 73.4774C69.7025 73.1911 69.4732 73.4774 70.5037 73.7061C71.5338 73.9349 72.6786 74.2785 74.9109 74.2785C77.1431 74.2785 79.6041 73.9349 80.4629 73.7635C81.3213 73.5918 82.0081 73.4198 81.7217 75.1943C81.4357 76.9686 80.5772 80.2883 80.5199 82.864C80.4629 85.4396 80.4629 88.416 80.6346 88.931C80.806 89.4461 82.0654 90.0185 82.9812 90.6479Z" fill="#010101"/>
<path d="M70.7327 14.4101C64.4369 19.8477 52.2454 21.3356 34.1591 28.3185C29.5229 30.0927 17.16 35.4157 14.1836 40.9677C24.1999 35.187 27.9203 43.1427 28.7214 51.3274C29.4653 58.997 33.3003 63.0038 43.1449 62.7745C53.2758 62.5458 56.3666 68.4409 59.1709 75.3667C64.6083 48.8661 73.3084 43.7151 78.9171 39.1935C90.8226 29.5203 76.1701 12.4639 70.7327 14.4101Z" fill="#8AC640"/>
<path d="M70.7327 14.4097C55.6225 19.6753 40.6837 20.9918 23.1124 31.8095C18.9342 34.3852 10.1198 40.2229 8.40259 51.3843C14.8128 44.2868 29.637 35.3583 47.7809 29.6919C56.9387 26.8299 63.6355 24.9413 71.7629 21.7932C71.1908 18.1298 71.1908 16.699 70.7327 14.4097Z" fill="#8AC640"/>
<path d="M90.0213 45.7749C90.0213 45.7749 88.9338 49.4954 86.7588 50.6975C86.7588 50.6975 85.1563 51.2699 81.9512 49.4957C81.0354 48.9806 80.3487 47.2064 80.4057 46.6337C80.463 45.2599 81.3215 44.6304 81.3215 44.6304C81.3215 44.6304 82.2375 43.0849 83.3247 43.1422C84.4125 43.1993 86.244 43.371 86.8164 42.8559C87.3312 42.2835 90.1359 43.8861 90.0213 45.7749ZM66.669 9.77342C66.669 9.77342 66.4402 12.6927 66.0395 14.524C65.9822 14.8677 64.2653 15.0391 63.0059 15.5544C65.4098 22.4227 79.8906 22.3653 81.7795 18.9886C80.8637 18.3591 79.0322 17.386 78.1737 17.0426C77.315 16.699 77.3723 16.7563 77.315 15.1537C77.2579 13.5509 77.1433 10.5748 77.0286 9.77342C76.9143 8.97201 68.0425 8.97201 66.669 9.77342Z" fill="#010101"/>
<path d="M67.2415 9.77352C67.2415 9.77352 67.2415 11.4334 67.0698 13.0359C67.0127 13.78 66.9554 14.2378 66.841 14.8102C66.7837 15.1538 68.787 16.5271 69.3594 19.5608C72.1067 25.6849 78.4601 22.6515 81.0928 19.7325C80.1771 19.1027 78.6889 18.2443 76.972 17.5575C76.1132 17.2139 76.5139 16.47 76.4569 14.8675C76.3996 13.265 76.1706 10.918 76.0562 10.0596C75.9413 9.20112 68.6153 8.97211 67.2415 9.77352Z" fill="#F0EFEF"/>
<path d="M66.6689 9.77342C66.6689 9.77342 66.6116 10.8039 66.4402 12.0057C67.184 12.7495 68.1571 13.7799 68.9015 14.4097C69.4165 14.8677 70.6754 14.8104 71.8205 14.8104C72.8507 14.8104 73.7664 14.9247 74.1671 14.696C75.0832 14.238 76.3994 13.0934 77.1435 12.2347C77.0865 11.2046 77.0291 10.2315 76.9721 9.77342C76.9142 8.97201 68.0424 8.97201 66.6689 9.77342Z" fill="#010101"/>
<path d="M71.8775 14.1235C71.1905 14.1235 70.3891 14.0665 69.7596 13.9518C69.4733 13.8948 69.1872 13.7231 68.9582 13.6084C68.5575 13.3221 68.1568 12.979 67.6993 12.6353C66.7833 11.9486 66.7262 11.5479 66.7262 11.3765C67.1269 7.77037 66.6116 4.73697 66.6116 4.73697C66.6116 4.73697 66.2109 3.19146 68.3858 2.79076C70.5608 2.39005 71.8772 2.33301 71.8772 2.33301C71.8772 2.33301 73.2511 2.33301 75.3687 2.79076C77.5436 3.19146 77.1429 4.73697 77.1429 4.73697C77.1429 4.73697 76.6278 7.77037 77.0285 11.3765C77.0285 11.5479 76.9715 11.9486 76.0554 12.6353C75.254 13.2077 74.6246 13.8372 73.9951 13.9518C73.3654 14.0665 72.564 14.1235 71.8775 14.1235Z" fill="#010101"/>
<path d="M71.8776 0.844727C68.1001 0.844727 67.3557 1.87487 66.2682 3.01967C66.0395 3.30573 66.2109 5.02292 66.6119 8.68605H67.127C67.127 8.68605 66.7833 7.65562 66.8406 6.45378C66.898 5.25194 67.127 5.30926 66.955 5.02292C66.7263 4.67926 66.2682 4.10686 67.2987 3.53475C68.3288 2.96235 69.9314 3.9925 71.8776 4.04982C73.8235 3.9925 75.4834 2.96235 76.5135 3.53475C77.5437 4.10686 77.0859 4.67926 76.8572 5.02292C76.6282 5.36631 76.9142 5.25166 76.9715 6.45378C77.0286 7.65562 76.6852 8.68605 76.6852 8.68605H77.2003C77.5437 5.02292 77.7727 3.42038 77.601 3.13404C76.6279 1.87487 75.6551 0.90177 71.8776 0.844727ZM90.0212 45.9467C90.0212 45.9467 88.9337 49.4382 86.8161 50.64C86.3581 50.4113 86.4154 50.0679 86.0147 49.5525C85.9001 49.3811 85.4994 49.2662 85.3279 49.0948C85.1563 48.9231 85.2136 48.6367 84.9272 48.408C84.6982 48.179 84.5265 48.3507 84.2975 48.179C84.0688 47.9503 84.0112 47.6639 83.8398 47.4925C83.7251 47.3779 83.2674 47.3208 83.153 47.2062C82.8667 46.9198 80.3486 46.4048 80.463 45.8324C80.6917 44.9736 81.1497 44.3442 81.1497 44.3442C81.1497 44.3442 82.2372 42.7416 83.3244 42.7987C84.4119 42.856 85.4423 43.085 86.0147 42.5699C86.6444 41.9973 90.1932 44.1152 90.0212 45.9467Z" fill="#010101"/>
<path d="M82.5807 20.6485C82.5807 20.6485 86.1865 19.7897 88.6478 22.1366C91.1091 24.5406 90.9371 27.5167 90.1933 29.3482C90.8227 30.0923 91.9675 32.1526 91.1091 34.6139C94.8866 37.819 93.2267 42.7416 89.8499 46.004C89.8499 46.004 89.0485 43.0276 85.8434 42.8559C85.9578 41.7114 82.867 40.7954 84.2979 37.819C82.123 37.3039 82.1803 35.8157 81.8369 33.9845C81.5506 32.1526 82.5807 20.6485 82.5807 20.6485Z" fill="#010101"/>
<path d="M81.2641 22.2514C81.2641 22.2514 85.4423 20.1338 87.9036 22.5377C90.3646 24.9417 89.6776 27.5744 88.9338 29.4059C89.5632 30.1497 91.0514 32.2679 90.1356 34.786C89.9639 35.3584 88.7047 35.3584 87.7887 36.8466C90.078 35.5298 91.5091 35.8734 92.0242 37.533C92.8256 40.1087 91.0511 43.1994 89.5059 44.9166C89.5059 44.8593 89.4485 44.802 89.4485 44.7449C89.2198 45.6037 88.9335 47.2632 87.2166 49.0948C86.3578 50.0106 85.6711 49.8962 84.6979 49.6672C83.5534 49.3809 83.1527 48.8655 81.5502 48.0073C80.6344 47.4923 81.1495 46.8625 81.1495 46.3475C81.1495 46.2331 81.2638 46.0611 81.4358 45.8324C81.5502 45.546 81.8936 45.0886 82.4086 44.5732C82.4086 44.5732 83.1527 43.5431 84.2405 43.6001C85.328 43.6574 86.4725 43.4287 86.7588 43.1424C86.7588 41.1391 84.4695 41.0818 85.2706 37.6477C85.328 37.476 85.6143 37.1897 86.5298 37.0753C85.156 36.7889 84.5265 36.7316 83.5534 35.8161C82.8667 35.1867 82.3516 34.3853 82.1796 33.3551C81.8365 31.5809 81.2641 22.2514 81.2641 22.2514Z" fill="#F0EFEF"/>
<path d="M69.1873 18.6454C68.8439 18.1874 67.0696 15.8981 63.6926 14.9823C62.7195 14.696 62.09 15.4974 61.1172 16.0698C60.8309 15.8981 59.5717 15.3257 58.8849 15.7261C58.1982 16.1266 57.7404 16.5275 57.0534 16.8136C56.7097 16.6419 55.7942 16.6419 55.0501 16.928C54.306 17.157 53.1612 17.6721 52.0738 19.1602C51.387 21.6215 64.2076 19.7897 64.2076 19.7897L69.1873 18.6454Z" fill="#010101"/>
<path d="M69.3019 18.6452C67.47 18.0154 67.7564 15.8978 63.6925 15.5544C62.8911 15.4971 62.376 16.1266 61.8036 16.5273C62.09 16.8136 62.376 17.2714 62.5477 17.7291C62.0327 17.157 61.1169 16.4126 60.2008 16.2409C59.3424 16.0695 58.77 16.699 57.8542 17.157C58.0256 17.3284 58.1976 17.6147 58.4263 17.9584C57.6249 17.4433 57.0528 17.2716 55.9653 17.6721C55.2212 17.9008 53.7904 18.5305 52.7029 20.076C52.0161 22.5373 64.2647 19.7897 64.2647 19.7897L69.3019 18.6452Z" fill="#8AC640"/>
<path d="M80.0623 19.561C80.0623 19.561 80.0623 18.9313 80.005 18.3592C80.005 18.2448 79.5472 17.9585 79.5472 17.8441L79.4329 17.7294C79.4329 17.7294 80.3486 17.2144 81.0354 17.5007C81.7792 17.7294 82.1799 18.7025 82.1799 18.7025C83.4964 18.2448 83.6108 18.7599 84.2405 19.4466C85.6143 19.1603 85.7857 19.6754 86.6445 20.9348C86.6445 20.9348 85.6143 20.7631 83.6111 21.1062C81.6648 21.3923 80.0623 19.5037 80.0623 19.561Z" fill="#010101"/>
<path d="M79.8333 19.275C79.8333 19.275 80.1767 18.9887 80.062 18.9314C80.6915 18.588 81.5502 18.1875 81.9509 19.275C83.2674 18.817 83.4391 19.4467 84.0686 20.1338C85.6711 19.3897 85.7855 20.3052 85.9001 20.7059C85.385 20.7059 84.6412 20.7632 83.6108 20.8776C81.6649 21.1639 79.776 19.2177 79.8333 19.275Z" fill="#8AC640"/>
<path d="M60.3732 17.8438C60.3732 17.8438 63.6356 18.9883 66.383 18.8166C69.1303 18.5878 73.8236 18.3588 76.3419 19.847C76.3419 19.847 78.9175 18.9309 81.3215 19.5607C83.7257 20.1901 88.1327 24.3113 86.8165 28.6611C86.7018 28.9475 85.9577 29.4052 85.0993 29.6916C85.0993 29.6916 85.5573 31.6375 84.7559 33.2401C83.9545 34.7856 82.1802 37.7619 82.1229 41.8828C82.0659 42.5696 81.9515 44.0004 81.8369 44.6872C77.3723 44.5158 70.5041 42.8556 63.7503 42.9703C63.8073 42.2265 63.8646 41.7684 63.9219 41.0243H64.0934C63.75 39.1354 63.6356 38.1623 63.2919 36.7315C61.117 35.358 58.8274 33.7554 56.8818 30.7217C54.9929 27.688 60.3732 17.8438 60.3732 17.8438ZM82.4663 48.7513C82.4663 48.7513 86.0151 61.4579 81.8369 66.7808C81.8369 66.7808 82.4663 69.2418 81.0354 71.8748C80.8064 73.0193 80.5201 74.0498 80.3487 75.1943C79.6046 79.9449 78.3451 81.9481 78.0018 89.5604L74.5674 89.5034C74.5674 89.5034 74.1667 84.0087 72.9648 81.0897C72.2783 79.4301 69.5878 77.1975 69.7027 74.9655C69.8171 73.2484 70.1604 71.8175 73.0798 69.5279C73.3085 66.2084 69.9888 63.0601 70.5041 50.6972L82.4663 48.7513Z" fill="#010101"/>
<path d="M81.4362 48.2359C82.352 54.074 84.4696 62.7167 80.6348 66.952C80.8611 68.0259 80.8804 69.1332 80.6918 70.2144C80.5775 70.9012 80.3484 71.6452 80.0624 72.4464C79.49 73.8202 79.261 75.8234 79.0893 77.0253C78.3452 81.7759 78.3452 82.0052 78.0018 89.6175L74.5674 89.5602C74.5674 89.5602 74.1667 84.0655 72.9649 81.1467C72.2784 79.4869 70.8472 78.056 70.7329 75.8237C70.6185 74.1068 71.8204 70.6727 74.6823 70.7871C74.5107 63.8615 71.3053 65.2351 70.4468 50.8116L81.4362 48.2359ZM60.3732 17.8438C60.3732 17.8438 61.6324 18.2445 63.0059 18.3588C64.3797 18.4732 65.8679 18.3588 67.1841 18.3015C69.9315 18.0728 73.8236 17.7864 76.3993 19.2746C76.3993 19.2746 77.8301 18.8166 79.3756 18.9309C80.0624 18.9883 80.7494 19.5607 81.5506 19.7897C84.0689 20.4191 86.4729 24.5973 85.3851 28.3751C85.2707 28.6614 84.4693 28.3751 83.5535 28.6614C83.7249 29.4628 83.8399 31.2944 82.9238 33.2403C81.951 35.1865 80.6918 37.7049 80.9206 42.5128C74.9108 42.2265 72.2208 41.826 66.2681 41.5397C65.753 39.4218 65.4093 37.3042 65.3523 36.2167C66.1537 35.816 66.6112 35.4729 67.2412 34.7858C65.5243 35.0722 64.8372 34.9575 63.8068 34.3851C62.7766 33.8127 60.9451 31.9812 60.0293 30.7793C59.9149 30.6647 59.2855 32.5533 57.8546 32.6109C57.3393 31.8668 59.5142 29.7489 59.1135 28.9478C57.6829 26.0285 60.3732 17.8438 60.3732 17.8438Z" fill="#F0EFEF"/>
<path d="M81.8936 43.4856C81.8936 43.4856 82.0079 45.5462 82.0079 46.0613C82.0079 46.6337 82.466 48.3506 82.523 49.152C81.8936 50.2395 79.1462 52.7007 74.1666 53.6165C69.2443 54.6467 62.7195 46.92 62.7195 46.92C62.8912 46.1759 63.4636 44.0007 63.8643 42.8562C63.9216 42.7418 64.036 42.4555 64.036 42.3411C64.5513 41.597 81.8936 43.4856 81.8936 43.4856Z" fill="#010101"/>
<path d="M80.6348 43.6576C80.6348 45.0885 80.8635 46.1189 81.0355 47.0347C81.3216 48.6945 81.7793 49.782 81.7793 50.8695C81.7793 54.1889 77.4294 53.6165 73.766 53.7312C68.8437 54.7616 64.6655 47.0347 64.6655 47.0347C65.0089 45.7182 65.2379 44.2303 65.753 42.9708C65.81 42.2841 65.9247 41.4256 65.9817 41.0249C72.9646 41.0249 77.8869 41.4256 80.7489 41.7114C80.8635 42.3411 80.7492 43.4286 80.6348 43.6576Z" fill="#F0EFEF"/>
<path d="M75.1397 51.0407C75.1397 51.0407 72.1063 44.2869 63.0055 46.2904C60.8308 52.4145 57.9115 59.4547 59.8004 67.067C57.9115 69.6427 55.7366 71.0738 55.7366 75.8241C55.7366 80.5747 55.9656 81.3762 55.9656 81.3762L62.6621 81.7198C62.6621 81.7198 64.8371 78.9154 65.6955 75.8817C65.9245 75.023 66.1535 73.4778 65.9819 71.7036C66.2106 71.3602 67.1837 70.559 67.2983 69.0135C67.2983 69.0135 70.5608 67.2966 72.4496 63.1184C74.2242 59.3401 73.7661 56.0777 75.1397 51.0407Z" fill="#010101"/>
<path d="M75.1398 51.0406C74.9684 50.4111 72.6788 44.2297 64.2077 46.061C59.2284 59.3399 61.06 64.8346 61.8038 67.2383C58.4267 71.5309 56.8815 72.4466 57.5685 81.1467H62.0331C64.0934 77.8843 64.5514 76.6822 64.6658 72.3896C64.6658 72.2179 64.0363 72.733 63.5783 73.3054C63.922 71.5311 64.8948 71.1878 65.6389 70.1003C65.9823 69.6423 66.2683 68.9555 66.2683 68.0397C70.2748 65.3497 71.763 61.9726 72.6215 58.4812C73.3085 56.0775 74.1096 52.128 75.1398 51.0406Z" fill="#F0EFEF"/>
<path d="M61.0026 41.8262C61.0026 41.8262 62.5481 41.8832 63.9219 42.3412C65.2384 42.799 65.2384 43.0851 65.7534 43.6577C66.2685 44.2304 67.5277 45.0886 67.299 45.947C67.1843 46.4051 66.8982 46.5194 66.4975 46.9202C66.3258 47.0918 65.0664 48.4654 64.7803 48.6371C64.6087 48.7514 64.3796 48.9234 64.2079 49.0378L63.3495 49.6102C62.7771 49.8965 62.3764 50.0682 61.7469 50.0109C61.7469 50.0109 60.3161 49.9536 59.4 48.9807C59.4 48.9807 59.2857 48.5227 59.5147 48.294C59.5147 48.294 58.3126 47.2635 57.9692 46.5768C57.6255 45.8903 57.6255 44.9172 57.8548 44.4021C57.9692 43.8865 60.2012 42.4556 61.0026 41.8262ZM62.4337 97.5168L62.262 98.948C62.262 98.948 61.7469 99.5774 57.9121 99.5204C54.02 99.463 52.9898 98.2612 52.6465 97.6315L52.4177 96.1433C52.4177 96.1433 53.1618 95.0558 53.3335 95.0558C54.5927 95.1702 58.8855 96.8874 61.8619 97.3451C62.1474 97.3451 62.2044 97.4595 62.4337 97.5168ZM70.7328 94.5978C70.7328 95.2272 70.6755 95.2272 70.6755 95.857C71.3622 96.372 73.0797 96.6584 76.3418 96.6008C81.0924 96.4864 85.4996 98.0319 90.8797 97.1158L90.937 96.0857L90.4219 96.0287L71.3622 94.4832L70.7328 94.5978Z" fill="#010101"/>
<path d="M74.9111 96.6009H76.3419C79.4329 96.4865 82.352 97.1733 85.4997 97.345C87.1596 97.2877 89.2202 96.887 89.0485 95.6851L72.7934 94.3113C71.8203 95.3988 72.5641 96.3146 74.9111 96.6009ZM56.2521 72.5045C56.7671 72.8479 60.2586 74.9085 65.9249 74.6222C65.8103 75.7096 65.8676 77.8275 63.3493 81.5477C62.0901 83.3792 61.0024 86.5846 60.7736 90.6485C60.831 91.5642 61.346 92.3654 60.6593 93.5675C60.888 94.3113 61.8038 95.7995 62.2618 96.7153C62.7196 97.6313 62.9486 98.6615 59.9149 98.7188C56.8242 98.7758 51.8446 98.4325 52.5316 96.0288C52.8753 94.7696 53.8481 93.4531 53.9628 92.9378C54.0771 92.4227 54.0771 90.8775 55.0499 89.847C55.9087 86.9853 55.6223 84.238 55.4509 81.6623C55.1646 78.972 55.1073 74.6795 56.2521 72.5045ZM61.5751 25.857C65.6389 20.4194 62.2045 16.0698 55.6799 17.386C53.047 17.9011 50.4143 19.7329 50.2423 23.0524C49.3838 23.1667 47.4379 23.2811 46.4648 26.8298C45.721 29.5772 45.3203 30.0923 44.0035 31.4658C43.1451 32.4389 44.0609 34.4422 44.6903 35.8733C46.8082 40.7956 53.333 41.2533 57.7402 44.9738C59.2284 44.5731 60.7736 42.9135 61.2317 41.826C57.5112 37.4185 58.3124 35.7016 56.8242 33.4123C58.427 32.8396 62.0901 30.6076 61.5751 25.857Z" fill="#010101"/>
<path d="M60.7736 25.5137C61.0024 25.17 61.4031 24.4262 61.575 24.1399C61.6324 24.0826 62.2618 25.17 62.3191 25.113C63.8643 22.5944 64.2651 18.9313 62.4905 18.5879C62.0898 18.5306 61.346 18.3591 60.7163 18.1298C59.5718 17.7291 58.5416 17.7291 56.7098 18.0728C54.1915 18.5306 51.6731 20.3621 51.6731 22.9951C51.6731 23.1668 53.4471 23.6819 53.9624 25.7998C53.1037 24.5976 51.6155 23.2812 49.8413 24.4259C47.9524 25.6278 48.9255 28.3751 46.4072 31.2368C45.5485 32.2099 45.6631 33.3547 46.5786 35.6441C48.0668 39.2501 55.107 41.1961 58.9418 44.6302C59.8576 44.2295 60.487 43.3137 60.945 42.6269C58.3694 39.9369 57.339 37.4183 56.5951 35.5867C55.6794 33.4691 54.6489 32.2673 52.6457 30.6642C53.6761 31.0649 54.4775 31.4656 54.935 31.809C55.4501 32.1523 56.1942 32.2097 56.8812 31.9806C59.3428 31.1228 60.6593 27.6884 60.7736 25.5137Z" fill="#F0EFEF"/>
<path d="M85.6715 26.4292C85.4998 28.6042 83.8972 27.5167 83.0388 27.116C81.3216 26.3719 79.6044 25.8568 77.6011 25.8568C75.5979 25.8568 73.0222 26.0285 70.7902 26.6009C67.6995 27.4594 66.7834 27.4023 65.4099 26.7153C64.0364 25.9712 61.6327 24.1396 61.6327 24.1396C61.6327 24.1396 61.5754 24.712 62.1478 25.4561C62.8916 26.3719 64.5517 27.5167 66.7837 28.2605C67.8712 28.6042 68.7299 28.3749 69.703 28.1462C74.797 26.887 80.1771 26.658 84.6986 29.4053C84.9277 29.5197 85.7291 29.1763 86.0724 28.6612C86.5299 27.9174 85.6715 26.4292 85.6715 26.4292Z" fill="#010101"/>
<path d="M59.6292 48.2363C60.0869 48.5227 60.6593 48.6944 61.2887 49.2094C61.2887 49.2094 60.7737 49.2094 60.5449 48.9807C60.2586 48.809 59.6862 48.2939 59.6292 48.2363Z" fill="#0A1825"/>
<path d="M76.1702 2.84813C75.9985 2.33305 74.739 1.41699 71.8203 1.41699C68.6722 1.41699 67.7565 2.3901 67.6994 2.90517C67.6994 3.07686 67.4704 4.90871 67.4131 5.65251C67.4131 5.65251 67.4131 6.56829 67.4701 7.94183C67.5275 8.85761 67.7565 9.37268 67.8708 10.5748C67.9852 11.8337 68.3289 12.6351 68.9583 13.6655C69.2446 13.8369 69.4734 14.0089 69.7597 14.0662C70.9045 14.295 72.9078 14.3523 73.9952 14.0662C74.6247 13.8945 75.4261 12.8071 75.5978 11.834C75.8265 10.6321 76.0555 9.77339 76.1129 9.02958C76.2272 8.28577 76.2846 6.62562 76.3416 6.16759C76.5136 4.90871 76.2272 2.9625 76.1702 2.84813Z" fill="#F0EFEF"/>
<path d="M70.1603 73.5918C70.1603 73.5918 73.194 74.9083 80.692 73.7635C80.692 73.7635 78.5743 84.4095 79.5474 89.7322C79.5474 89.7322 80.5203 91.106 87.7322 93.7387C87.7322 93.7387 90.9372 94.5401 90.8229 96.1429C90.8229 96.1429 90.9372 96.4863 87.0454 96.3717C83.1535 96.257 79.4901 95.5703 76.9145 95.5703C74.3388 95.5703 71.5915 95.6846 71.1337 94.9408C70.6187 94.2541 71.2481 92.4795 71.9922 91.4491C72.7939 90.3619 72.5646 89.5602 72.5075 87.6146C72.3353 82.5206 68.4431 77.2549 70.1603 73.5918Z" fill="#010101"/>
<path d="M69.5307 74.5651C69.13 75.1375 69.5877 77.3122 70.1601 79.4301C70.7325 81.5477 71.992 82.8071 72.278 86.2983C72.5641 89.7324 72.6214 90.1904 71.6483 92.1934C70.6752 94.1964 70.3892 96.0282 73.7659 96.0855C77.1427 96.1429 78.9746 96.0282 82.4087 96.5436C85.8431 97.0586 87.0449 97.2303 88.9338 96.9443C90.8227 96.6582 91.2231 96.0282 90.422 95.4561C89.6206 94.8837 86.3008 94.2543 84.87 93.1092C83.4962 92.079 79.6043 90.3618 79.5473 89.9041C79.3756 88.3586 79.3182 82.7495 79.6043 80.918C79.8906 79.0861 80.2911 76.4534 80.4057 75.7667C80.5204 75.0799 81.0925 74.3929 80.1194 74.6219C79.1465 74.8506 75.4834 75.366 72.7361 75.1943C69.9887 75.0229 69.7027 74.3931 69.5307 74.5651Z" fill="#8AC640"/>
<path opacity="0.3" d="M71.4769 92.2512C72.4497 92.7089 73.8809 93.0526 74.9683 93.0526C74.9683 93.0526 74.5673 94.9415 75.1971 96.086C75.8265 97.2308 70.6182 96.544 70.6182 96.544L70.3894 92.4802L71.4769 92.2512ZM86.6445 97.1734C87.5602 96.8871 88.19 95.857 87.4459 94.8841C86.6445 93.911 85.9577 93.7393 86.9879 93.6823C88.0183 93.625 91.7958 95.9143 91.7958 95.9143L89.8496 97.6885L86.6445 97.1734ZM69.359 76.7973C70.6755 77.2553 72.6787 77.3697 74.3959 77.3123C76.1128 77.2553 78.6885 77.026 80.3486 76.4539C82.0082 75.8815 81.3215 77.0833 81.3215 77.0833L80.4057 77.9421C80.4057 77.9421 78.2307 78.8005 74.6823 78.7435C70.5041 78.6861 69.2446 78.2284 69.2446 78.2284L69.359 76.7973ZM69.4734 79.6592C70.7901 80.1173 72.7931 80.2316 74.5103 80.1743C76.2272 80.1173 78.5168 80.1173 80.1767 79.4876C80.8634 79.2588 80.463 80.2316 80.463 80.2316L80.1767 80.7467C80.1767 80.7467 77.9444 81.5481 74.453 81.4905C70.2748 81.4335 69.5307 81.0898 69.5307 81.0898L69.4734 79.6592Z" fill="#010101"/>
<path d="M65.6958 39.5366C65.6958 39.9373 70.1603 42.1693 72.6213 42.6273C75.0826 43.0851 80.2339 42.6273 81.0351 42.4557L80.9204 43.2571C80.9204 43.2571 74.7963 44.1728 70.103 42.9137C65.4095 41.6545 65.9248 41.3682 65.9248 41.3682L65.6958 39.5366Z" fill="#010101"/>
<path d="M56.1375 88.3587C56.8243 88.7023 59.2855 89.3318 60.8881 88.9884C61.1168 88.9311 60.8881 85.0389 61.5178 83.2647C62.4336 80.8034 63.9218 78.8002 64.6083 74.4506C62.2043 74.2215 59.4572 73.5918 58.0261 73.1338C56.1948 78.7431 56.8245 83.5508 56.1375 88.3587ZM59.9726 91.9648C60.3733 92.0791 60.6594 92.5369 60.774 92.2511C61.0027 91.7358 60.3733 90.7629 60.316 90.0762V90.0188C59.8009 89.5611 56.3095 89.5038 56.5385 89.7325C56.1378 90.4766 55.5083 90.3622 55.2796 91.8504C55.1652 92.5942 56.081 91.9648 56.9392 91.9074C55.394 92.9376 53.6197 94.2544 53.3334 95.3989C52.99 97.0014 53.5624 97.4594 55.2796 98.3182C56.7678 98.6616 58.542 98.7189 59.9155 98.6616C61.461 98.3752 61.7474 97.6314 61.2894 96.601C60.602 95.0555 60.1443 93.0522 59.9726 91.9648Z" fill="#F0EFEF"/>
<path d="M60.6019 17.6147C62.4908 18.7022 65.1238 18.4162 66.0966 18.3588C66.3256 18.3588 68.6152 17.9581 68.7295 18.0152C68.9583 18.0725 68.9583 18.2442 68.9583 18.2442C68.9583 18.2442 68.0998 18.7019 66.1539 18.8163C64.3223 18.9307 62.1474 18.8163 60.9456 18.2442C59.5144 17.6147 60.6019 17.6147 60.6019 17.6147ZM80.0623 18.7022C80.4057 18.931 82.6379 19.7897 83.6111 20.8198C84.4695 21.7359 84.0118 21.6786 83.8398 21.4496C83.6111 21.1632 81.8365 19.9614 81.1498 19.6753C80.463 19.3893 79.6043 18.8739 79.6043 18.7595C79.6043 18.6452 80.0623 18.7022 80.0623 18.7022Z" fill="#010101"/>
<path d="M60.3156 42.4553C61.9755 42.3409 63.6927 42.7416 64.7802 43.8861C65.3526 44.4585 66.2683 45.088 66.154 45.6604C66.154 45.8321 65.8103 46.2901 65.5245 46.6335C65.3528 46.8622 64.8378 47.3773 64.6658 47.5492C64.4371 47.7209 63.6357 48.3507 63.464 48.465C63.2923 48.5797 63.0633 48.866 62.8916 48.9231C62.3194 49.2094 61.6897 48.9804 61.1173 48.6943C60.5452 48.408 61.232 48.3507 60.6022 47.8929C59.057 46.8054 58.1983 46.0611 58.828 43.9434C58.8851 43.5427 59.5145 43.0847 60.3156 42.4553Z" fill="#F0EFEF"/>
<path opacity="0.4" d="M45.7207 29.3484C40.5694 31.409 27.4621 37.9341 23.7419 39.9374C26.8327 41.8833 28.2635 46.5766 28.7216 51.3272C28.7786 51.7852 28.8359 52.1859 28.8932 52.6437C28.9503 53.0444 29.0076 53.3304 29.0647 53.5024C29.0647 53.5597 29.0647 53.6741 29.122 53.7311C32.499 44.5163 44.5756 34.7861 45.0336 34.042C45.2624 33.6986 44.7473 32.2104 45.5487 30.7798C46.5791 28.9477 48.5827 28.1463 45.7207 29.3484ZM57.9692 72.5618C60.6019 67.2962 60.6592 62.2592 60.6019 56.3638C60.6019 53.9025 62.3762 50.4111 61.4607 51.3842C58.0263 55.2187 49.3838 62.4309 43.145 62.8313C51.9021 62.5453 55.3362 66.9525 57.9692 72.5618Z" fill="#010101"/>
<path d="M18.7051 44.8021C21.9675 42.4554 38.8523 33.4696 42.9161 32.2101C46.9796 30.8936 45.7205 29.3481 45.7205 29.3481C45.7205 29.3481 29.2364 36.4454 19.3918 42.5698" fill="#010101"/>
<path opacity="0.4" d="M66.7833 28.2608C65.4668 27.7457 64.4366 29.2912 64.78 30.7794C65.1237 32.2676 68.2144 33.9272 68.0424 39.3648C67.9281 43.8293 66.955 45.6606 66.955 45.6606L64.78 42.9136C64.78 42.9136 64.4366 36.7318 63.6925 35.8161C62.9487 34.9003 60.6018 33.2404 59.686 32.3819C58.7703 31.5232 60.7162 30.3787 60.6018 28.7759C60.4874 27.2306 61.5749 24.1399 61.5749 24.1399L66.7833 28.2608ZM74.7392 52.6432C74.6249 56.9358 75.598 63.2892 75.9984 66.3229C76.3991 69.3563 76.9142 69.5853 75.9984 70.9591C75.0826 72.2756 73.8808 74.4505 73.8808 74.4505L69.9313 74.1069C69.9313 74.1069 73.0794 70.1004 73.2508 69.3563C73.4225 68.6125 71.6482 62.9461 71.6482 62.9461L74.7392 52.6432ZM67.1269 12.5781C67.9283 14.3521 68.9012 15.1535 70.4464 15.6689C71.3622 16.0123 74.968 16.4703 76.3991 14.8675C77.0285 14.1234 76.6278 12.1201 76.6278 12.1201L73.3654 14.7528L68.9582 13.9517L68.4431 12.6352L67.1269 12.5781Z" fill="#010101"/>
<path d="M67.4702 16.5273C68.9584 17.5004 72.6788 18.4162 73.709 18.5879C74.7391 18.8167 76.399 17.5004 77.2004 17.1571C78.0591 16.7564 79.5473 16.5273 81.2642 18.0728C81.4359 18.2445 80.8635 18.9886 80.8635 18.9886C80.8062 18.9313 80.4628 18.9313 80.0048 18.7023C79.547 18.4736 79.1463 18.3016 78.4596 18.3589C75.5976 18.7023 75.1398 19.6754 72.6215 19.1027C70.1032 18.53 69.4735 18.0726 67.0125 18.1869" fill="#8AC640"/>
<path d="M67.4702 16.5273C68.9584 17.5004 72.6788 18.4162 73.709 18.5879C74.7391 18.8167 76.399 17.5004 77.2004 17.1571C78.0591 16.7564 79.5473 16.5273 81.2642 18.0728C81.4359 18.2445 80.8635 18.9886 80.8635 18.9886C80.8062 18.9313 80.4628 18.9313 80.0048 18.7023C79.547 18.4736 79.1463 18.3016 78.4596 18.3589C75.5976 18.7023 75.1398 19.6754 72.6215 19.1027C70.1032 18.53 69.4735 18.0726 67.0125 18.1869" stroke="#010101" stroke-width="0.445667" stroke-miterlimit="10" stroke-linejoin="round"/>
<path d="M66.9551 16.6992C68.844 17.5006 72.5071 18.3591 73.5373 18.5881C74.5674 18.8171 76.2273 17.7867 77.0287 17.2716C78.4598 16.3558 80.2911 17.0999 81.1499 18.073C81.722 18.7025 81.9513 19.1032 81.9513 19.2749C81.9513 19.5036 81.2645 19.2749 81.2645 19.2749C80.8638 19.1032 80.4058 19.0461 80.0627 18.8168C79.6046 18.5881 79.1466 18.2447 78.4601 18.3018C75.5981 18.6454 75.0257 19.6183 72.5647 19.0459C70.1037 18.4735 69.474 17.9584 66.8413 18.1298" fill="#8AC640"/>
<path d="M58.0836 70.1577C57.9692 70.0434 58.198 69.929 58.0836 69.929C57.3398 69.929 56.3093 69.3566 55.7367 68.5552C53.2757 65.0067 49.6696 62.6601 43.1448 62.8318C33.3572 63.0605 29.4651 59.0543 28.7213 51.3846C28.3206 47.2065 27.1758 43.1426 24.8291 40.853L23.4553 41.7118C26.088 44.0011 26.9468 47.7215 27.5192 52.8155C28.4349 60.4851 34.6164 64.0339 41.8283 64.1483C49.3262 64.2626 52.0162 65.8081 54.8206 69.5859C55.7364 70.7877 56.7668 71.1884 57.5679 71.3601L58.0836 70.1577Z" fill="#010101"/>
<path opacity="0.4" d="M84.6413 33.355C84.813 34.2134 85.2708 35.8733 86.1866 36.6744C86.5875 37.0751 86.6446 37.1895 86.3012 37.1895C85.9575 37.1895 83.4392 37.0751 83.4392 37.0751L82.7524 35.8733L84.6413 33.355Z" fill="#010101"/>
</svg>
