<svg width="100" height="100" viewBox="0 0 100 100" fill="none" xmlns="http://www.w3.org/2000/svg">
<g clip-path="url(#clip0_867_19361)">
<path d="M0 0H100V100H0V0Z" fill="#CF4547"/>
<path d="M34.6007 50.6657C34.5537 50.7343 34.4714 50.9478 34.3499 51.3101C34.2285 51.6725 34.0816 52.125 33.9092 52.6695C33.7369 53.214 33.5488 53.8251 33.349 54.4989C33.1473 55.1727 32.9397 55.8622 32.7281 56.5634C32.5146 57.2666 32.3109 57.9541 32.1151 58.6298C31.9192 59.3036 31.7429 59.9148 31.5882 60.4593C31.4334 61.0038 31.3042 61.4602 31.2003 61.8304C31.0965 62.1986 31.0338 62.416 31.0103 62.4846C30.9535 62.702 30.8615 62.9449 30.7342 63.2113C30.6068 63.4776 30.458 63.7284 30.2856 63.9673C30.1133 64.2063 29.9233 64.4041 29.7156 64.5608C29.508 64.7175 29.2945 64.7959 29.0771 64.7959C28.7089 64.7959 28.4405 64.6725 28.274 64.4276C28.1075 64.1828 28.0233 63.7323 28.0233 63.0781V62.7921C28.0233 62.6961 28.0292 62.5943 28.0409 62.4865C28.0527 62.2691 28.1389 61.8598 28.2995 61.2584C28.4601 60.6591 28.654 59.9813 28.8773 59.2233C29.1006 58.4653 29.3435 57.6838 29.602 56.8709C29.8606 56.06 30.0937 55.3333 30.3013 54.6928C29.6902 55.3745 29.0301 56.0522 28.3152 56.7279C27.6022 57.4037 26.8696 58.0089 26.1234 58.5476C25.3751 59.0862 24.621 59.5269 23.861 59.8658C23.1011 60.2066 22.3705 60.377 21.6693 60.377C20.8642 60.377 20.1708 60.1988 19.5891 59.8462C19.0074 59.4917 18.5275 59.0275 18.1475 58.4555C17.7675 57.8836 17.4854 57.2352 17.3013 56.5125C17.1172 55.7897 17.0251 55.0669 17.0251 54.3442V54.0778C17.0251 53.9955 17.031 53.9152 17.0428 53.833C17.1113 52.5245 17.2994 51.1809 17.603 49.8039C17.9085 48.4269 18.3081 47.0558 18.8037 45.6945C19.2992 44.3312 19.8712 42.9993 20.5214 41.6968C21.1717 40.3942 21.8788 39.1642 22.6447 38.0066C23.4105 36.849 24.2234 35.7815 25.0872 34.806C25.951 33.8306 26.8363 32.9923 27.7452 32.2911C28.654 31.5898 29.5726 31.0414 30.4991 30.6457C31.4256 30.2501 32.3442 30.0522 33.2531 30.0522C34.301 30.0522 35.3136 30.3382 36.291 30.9102C37.2684 31.4821 38.1831 32.4105 39.0352 33.6915C39.2311 33.9775 39.3545 34.2674 39.4054 34.5612C39.4563 34.855 39.4837 35.1312 39.4837 35.3897C39.4837 36.0028 39.3368 36.4866 39.043 36.8411C38.7492 37.1957 38.4006 37.3719 37.999 37.3719C37.6308 37.3719 37.288 37.178 36.9727 36.7883C36.6553 36.4004 36.3028 35.8442 35.911 35.1214C35.5428 34.4672 35.1373 33.9932 34.6947 33.6994C34.252 33.4056 33.7702 33.2606 33.2531 33.2606C32.448 33.2606 31.5862 33.5956 30.6715 34.2635C29.7568 34.9314 28.8499 35.8148 27.9528 36.9117C27.0557 38.0085 26.1939 39.2621 25.3712 40.6743C24.5486 42.0846 23.8199 43.5301 23.1873 45.009C22.5546 46.4878 22.0512 47.947 21.6771 49.3847C21.303 50.8224 21.1169 52.1152 21.1169 53.261C21.1169 53.643 21.1424 54.0347 21.1952 54.4362C21.2481 54.8378 21.3441 55.2041 21.489 55.5312C21.632 55.8583 21.8279 56.1286 22.0767 56.3381C22.3235 56.5497 22.6369 56.6555 23.0168 56.6555C23.4419 56.6555 23.9257 56.5125 24.4663 56.2265C25.0069 55.9405 25.569 55.5664 26.1488 55.1022C26.7306 54.638 27.3143 54.1131 27.9019 53.5274C28.4895 52.9417 29.036 52.3483 29.5413 51.7489C30.0467 51.1495 30.4972 50.5737 30.8869 50.0213C31.2787 49.4689 31.5725 48.9891 31.7664 48.5797L33.3725 43.775C33.5684 43.2579 33.825 42.8896 34.1404 42.6703C34.4577 42.4528 34.7828 42.3432 35.1158 42.3432C35.2764 42.3432 35.437 42.3706 35.5996 42.4254C35.7602 42.4803 35.9052 42.5645 36.0305 42.682C36.1578 42.7976 36.2577 42.9484 36.3322 43.1325C36.4066 43.3166 36.4438 43.5321 36.4438 43.7769C36.4438 44.4311 36.387 45.0442 36.2714 45.6181C36.1559 46.192 36.009 46.7503 35.8307 47.2948C35.6525 47.8393 35.4547 48.3897 35.2353 48.9401C35.0198 49.4885 34.8063 50.0644 34.6007 50.6657ZM56.3698 54.6732C55.8625 55.3549 55.2729 56.0189 54.6011 56.6672C53.9273 57.3155 53.2339 57.8914 52.5209 58.3948C51.8079 58.8982 51.1048 59.3036 50.4153 59.6111C49.7239 59.9187 49.103 60.0714 48.5506 60.0714C47.9982 60.0714 47.5497 59.8873 47.203 59.5191C46.8583 59.1509 46.6859 58.5241 46.6859 57.6368C46.6859 57.01 46.778 56.2794 46.9621 55.4489C46.6624 55.9817 46.2883 56.5203 45.8397 57.0648C45.3912 57.6093 44.878 58.1069 44.3022 58.5574C43.7263 59.0079 43.0819 59.3722 42.3689 59.6503C41.6559 59.9304 40.8783 60.0695 40.038 60.0695C39.6581 60.0695 39.2918 60.0225 38.9412 59.9265C38.5906 59.8305 38.283 59.668 38.0186 59.4368C37.7542 59.2057 37.5407 58.8962 37.3801 58.5064C37.2195 58.1186 37.1391 57.6309 37.1391 57.0452C37.1391 57.0315 37.1627 56.8239 37.2077 56.4224C37.2528 56.0208 37.3997 55.3862 37.6484 54.5205C37.8952 53.6547 38.2791 52.5343 38.7962 51.1574C39.3153 49.7804 40.0459 48.1116 40.988 46.147C41.2289 45.6299 41.509 45.2577 41.8244 45.0325C42.1417 44.8072 42.4825 44.6956 42.8508 44.6956C43.0114 44.6956 43.1779 44.7191 43.3522 44.7661C43.5246 44.815 43.6852 44.8895 43.836 44.9913C43.9848 45.0932 44.1063 45.2225 44.1983 45.3792C44.2904 45.5359 44.3374 45.7161 44.3374 45.9217C44.3374 46.0588 44.3198 46.1881 44.2845 46.3095C44.2277 46.5426 44.1043 46.8443 43.9124 47.2203C43.7224 47.5964 43.501 48.0254 43.2484 48.5092C42.9957 48.993 42.7274 49.514 42.4453 50.0742C42.1632 50.6324 41.9008 51.2122 41.6599 51.8116C41.4189 52.4109 41.2113 53.022 41.0389 53.641C40.8666 54.2619 40.7686 54.8652 40.7451 55.4508C40.7451 55.6957 40.8019 55.9209 40.9175 56.1266C41.0331 56.3303 41.2231 56.4341 41.4875 56.4341C42.2357 56.4341 42.9487 56.1893 43.6284 55.6976C44.308 55.208 44.9348 54.5968 45.5107 53.8682C46.0865 53.1396 46.6076 52.3561 47.0737 51.5158C47.5399 50.6775 47.9297 49.9116 48.2392 49.2163C48.4585 48.7521 48.6505 48.2545 48.817 47.7237C48.9835 47.1929 49.1656 46.7013 49.3615 46.2508C49.5574 45.8003 49.7807 45.4262 50.0353 45.1265C50.288 44.8268 50.6053 44.676 50.9853 44.676C51.3986 44.676 51.7276 44.8327 51.9686 45.1461C52.2095 45.4595 52.3309 45.8355 52.3309 46.2704C52.3309 46.5152 52.2545 46.8541 52.0978 47.283C51.9411 47.712 51.7472 48.2036 51.5102 48.756C51.2752 49.3083 51.0186 49.8979 50.7424 50.5247C50.4662 51.1515 50.2096 51.79 49.9746 52.4364C49.7376 53.0847 49.5437 53.7174 49.387 54.3383C49.2322 54.9592 49.1539 55.5351 49.1539 56.0659C49.1539 56.5575 49.4066 56.8024 49.9139 56.8024C50.2704 56.8024 50.713 56.679 51.2438 56.4341C51.7746 56.1893 52.329 55.8445 52.9107 55.4019C53.4924 54.9592 54.0722 54.4382 54.6539 53.8369C55.2357 53.2375 55.7508 52.5892 56.1994 51.8938L56.3698 54.6732Z" fill="white" stroke="white" stroke-width="0.264085" stroke-miterlimit="10"/>
<path d="M56.9064 53.6509C56.7791 53.9643 56.6557 54.3286 56.5343 54.7458C56.4128 55.161 56.3541 55.5332 56.3541 55.8603C56.3541 56.064 56.3893 56.2285 56.4579 56.3519C56.5264 56.4753 56.6596 56.536 56.8555 56.536C57.0964 56.536 57.3981 56.4518 57.7624 56.2795C58.1248 56.109 58.5165 55.8838 58.9357 55.6037C59.3568 55.3256 59.7936 55.0043 60.248 54.642C60.7024 54.2816 61.1549 53.9055 61.6034 53.5177C62.052 53.1279 62.4809 52.7401 62.8903 52.3522C63.2997 51.9625 63.664 51.606 63.9872 51.2789C64.0792 51.1829 64.1889 51.1143 64.3143 51.0752C64.4396 51.034 64.5493 51.0144 64.6414 51.0144C64.8705 51.0144 65.0625 51.1104 65.2114 51.3004C65.3602 51.4904 65.4347 51.7431 65.4347 52.0565C65.4347 52.3424 65.3544 52.6637 65.1937 53.0182C65.0331 53.3727 64.7511 53.7214 64.3476 54.0602C63.6111 54.8653 62.8687 55.6272 62.1205 56.35C61.3723 57.0727 60.628 57.7093 59.8856 58.2617C59.1433 58.814 58.4068 59.2528 57.6762 59.5818C56.9456 59.9089 56.2346 60.0715 55.5432 60.0715C55.0711 60.0715 54.6774 59.9971 54.3601 59.8463C54.0428 59.6954 53.7901 59.4917 53.6001 59.2332C53.4101 58.9746 53.275 58.6671 53.1947 58.3126C53.1144 57.9581 53.0732 57.584 53.0732 57.1883C53.0732 56.5204 53.1575 55.8348 53.324 55.1336C53.4904 54.4324 53.6883 53.788 53.9194 53.2023C54.3229 52.1387 54.7303 51.083 55.1456 50.0331C55.5588 48.9833 55.9388 48.0215 56.2855 47.1499L61.5153 33.96C61.7229 33.4291 62.001 33.0531 62.3536 32.8357C62.7042 32.6182 63.0587 32.5085 63.4152 32.5085C63.7717 32.5085 64.0969 32.6241 64.3907 32.8552C64.6845 33.0864 64.8314 33.4624 64.8314 33.9795C64.8314 34.2244 64.7824 34.4849 64.6845 34.7571C64.5865 35.0294 64.4631 35.3232 64.3143 35.6366C64.0263 36.2771 63.6836 37.0606 63.2879 37.9871C62.8903 38.9135 62.4653 39.9223 62.0108 41.0133C61.5564 42.1043 61.0902 43.2384 60.6123 44.4175C60.1344 45.5966 59.6682 46.7445 59.2138 47.8629C58.7594 48.9813 58.3343 50.041 57.9367 51.0419C57.5352 52.0447 57.1924 52.9144 56.9064 53.6509Z" fill="white" stroke="white" stroke-width="0.264085" stroke-miterlimit="10"/>
<path d="M81.3687 49.9488C81.5293 49.8391 81.6801 49.751 81.8172 49.6824C81.9543 49.6139 82.0875 49.5806 82.2148 49.5806C82.4675 49.5806 82.6575 49.6942 82.7848 49.9175C82.9121 50.1427 82.9748 50.4189 82.9748 50.746C82.9748 51.1006 82.8984 51.461 82.7417 51.8292C82.587 52.1974 82.3539 52.503 82.0425 52.7498C80.8104 53.8408 79.7116 54.8358 78.746 55.7349C77.7784 56.6339 76.8676 57.4076 76.0096 58.0559C75.1517 58.7043 74.3154 59.2037 73.4986 59.5583C72.6818 59.9128 71.8062 60.0891 70.8739 60.0891C69.9984 60.0891 69.3226 59.8971 68.8447 59.5171C68.3668 59.1352 68.1278 58.6102 68.1278 57.9423V57.7895C68.1278 57.7425 68.1337 57.6838 68.1454 57.6152C68.1905 57.2059 68.3707 56.7358 68.6801 56.205C68.9916 55.6741 69.3657 55.1218 69.8025 54.5479C70.2393 53.974 70.7055 53.3962 71.201 52.8105C71.6966 52.2249 72.1529 51.6686 72.5741 51.1436C72.9932 50.6187 73.3419 50.1388 73.6181 49.702C73.8942 49.2652 74.0333 48.9127 74.0333 48.6385C74.0333 48.4739 73.9745 48.3446 73.8609 48.2506C73.7454 48.1546 73.5554 48.1076 73.291 48.1076C72.8307 48.1076 72.3566 48.2271 71.867 48.4661C71.3773 48.705 70.8935 49.0243 70.4175 49.4259C69.9396 49.8274 69.4734 50.2877 69.019 50.8067C68.5646 51.3258 68.1395 51.8625 67.7419 52.4227C67.3443 52.9829 66.9819 53.5431 66.6548 54.1091C66.3277 54.6752 66.0476 55.1962 65.8185 55.6741C65.7499 55.825 65.652 56.0365 65.5247 56.3088C65.3973 56.581 65.2602 56.8885 65.1114 57.2294C64.9606 57.5702 64.8039 57.9208 64.6354 58.2812C64.4689 58.6435 64.3161 58.9844 64.179 59.3036C64.04 59.6249 63.9166 59.9089 63.8069 60.1635C63.6972 60.4162 63.6188 60.5885 63.5738 60.6845C63.515 60.8079 63.421 61.039 63.2878 61.3799C63.1546 61.7207 63.0038 62.1183 62.8295 62.5766C62.6571 63.033 62.475 63.5129 62.2869 64.0182C62.0969 64.5236 61.9187 64.9996 61.7522 65.4501C61.5857 65.9006 61.4388 66.2943 61.3115 66.6351C61.1842 66.9759 61.1039 67.207 61.0686 67.3304C60.953 67.685 60.8179 68.0179 60.6631 68.3333C60.5084 68.6467 60.3302 68.9229 60.1284 69.1618C59.9267 69.4008 59.6975 69.5908 59.437 69.7338C59.1784 69.8768 58.8866 69.9473 58.5654 69.9473C58.1501 69.9473 57.8093 69.8474 57.537 69.6515C57.2667 69.4537 57.1316 69.0756 57.1316 68.5174C57.1316 68.2451 57.1668 67.9651 57.2354 67.6791C57.304 67.3931 57.3921 67.1091 57.494 66.831C57.5978 66.5509 57.7035 66.2786 57.8132 66.0142C57.9229 65.7478 58.0228 65.4932 58.1149 65.2464C58.7358 63.8831 59.3704 62.5159 60.0148 61.1468C60.6592 59.7757 61.2782 58.4203 61.8697 57.0766C62.4632 55.7349 63.0116 54.4147 63.5189 53.12C64.0243 51.8253 64.4454 50.5835 64.7784 49.3984C64.8705 49.1536 64.9978 48.8049 65.1584 48.3544C65.319 47.9039 65.5031 47.4613 65.7107 47.0245C65.9184 46.5877 66.1515 46.2097 66.41 45.8904C66.6686 45.5692 66.9486 45.4105 67.2464 45.4105C67.7067 45.4105 68.0396 45.5163 68.2473 45.7278C68.4549 45.9394 68.5587 46.2488 68.5587 46.6582C68.5587 46.7405 68.547 46.8697 68.5234 47.046C68.4999 47.2223 68.4706 47.4103 68.4373 47.6082C68.402 47.806 68.3648 47.994 68.3256 48.1703C68.2845 48.3466 68.2473 48.4759 68.214 48.5581C68.639 48.0939 69.0993 47.6356 69.5949 47.1773C70.0904 46.7209 70.6016 46.3076 71.1325 45.9393C71.6613 45.5711 72.2019 45.2714 72.7543 45.0383C73.3066 44.8072 73.859 44.6917 74.4113 44.6917C74.7913 44.6917 75.1674 44.7465 75.5415 44.8562C75.9156 44.9659 76.2486 45.1245 76.5424 45.3361C76.8362 45.5476 77.0752 45.814 77.2593 46.1333C77.4434 46.4545 77.5355 46.8247 77.5355 47.2478C77.5355 47.808 77.3944 48.4034 77.1124 49.038C76.8303 49.6727 76.4758 50.3092 76.0508 50.9497C75.6238 51.5902 75.1635 52.2151 74.6699 52.8203C74.1743 53.4275 73.7121 53.9799 73.2792 54.4774C72.8483 54.9749 72.4859 55.398 72.1921 55.7447C71.8983 56.0933 71.7455 56.3284 71.7338 56.4498C71.7338 56.6143 71.7867 56.7456 71.8885 56.8494C71.9904 56.9532 72.1647 57.0021 72.4076 57.0021C72.6034 57.0021 72.8914 56.8925 73.2714 56.675C73.6514 56.4576 74.1841 56.0796 74.8677 55.541C75.5513 55.0023 76.421 54.2795 77.4748 53.3727C78.5285 52.4677 79.8272 51.3258 81.3687 49.9488Z" fill="white" stroke="white" stroke-width="0.264085" stroke-miterlimit="10"/>
</g>
<defs>
<clipPath id="clip0_867_19361">
<rect width="100" height="100" fill="white"/>
</clipPath>
</defs>
</svg>
