<svg width="100" height="100" viewBox="0 0 100 100" fill="none" xmlns="http://www.w3.org/2000/svg">
<g clip-path="url(#clip0_867_18961)">
<path d="M100 50.0002C100 22.3877 77.5002 -0.0706662 49.8752 0.000167096C22.4585 0.0710004 0.0626671 22.4585 0.000167096 49.8752C-0.0706662 77.5002 22.3877 100 50.0002 100H82.8543C87.394 100 91.7476 98.1968 94.9576 94.9868C98.1676 91.7768 99.971 87.4231 99.971 82.8835V51.6668C99.9877 51.1127 100 50.5585 100 50.0002ZM24.2877 77.7668C16.3293 70.9752 11.421 60.1002 11.6502 49.0168C11.6668 48.2418 11.7043 47.4668 11.7752 46.6918V46.6418C12.9293 33.4168 21.471 21.0835 33.4418 15.3543C45.4168 9.62517 60.3835 10.721 71.4002 18.121C82.4168 25.5252 89.0793 38.971 88.3002 52.221C88.1077 55.1222 87.6489 57.9996 86.9293 60.8168C86.6543 61.9418 86.3168 63.1043 85.521 63.9418C84.7293 64.7793 83.3377 65.171 82.396 64.5002C81.496 63.8585 81.3627 62.6002 81.2877 61.5002C80.6627 52.6085 78.2877 43.4377 72.2793 36.8543C67.6596 31.8565 61.359 28.7381 54.5835 28.096C47.8083 27.5102 41.0463 29.3599 35.5127 33.3127C30.9335 36.5918 27.3377 41.2877 25.596 46.646C23.8627 52.0002 24.0377 58.0043 26.3252 63.1543C28.0203 66.9566 30.7671 70.1949 34.2418 72.4877C40.3543 76.5002 48.721 77.071 55.0752 73.446C61.4252 69.821 65.221 61.9543 63.6043 54.821C61.9835 47.6877 54.7543 42.1252 47.4793 42.8793C46.371 42.9918 44.7793 42.871 44.7418 41.7543C44.7085 40.8918 45.746 40.4377 46.596 40.2835C53.9752 38.9585 61.8877 42.7085 65.9293 49.021C69.9835 55.3335 70.1877 63.7877 66.8835 70.521C63.5752 77.2502 57.0085 82.1668 49.7252 83.9418C39.9043 86.3377 31.0127 83.5043 24.296 77.7668H24.2877Z" fill="url(#paint0_linear_867_18961)"/>
</g>
<defs>
<linearGradient id="paint0_linear_867_18961" x1="2.246" y1="3.6835" x2="114.529" y2="112.592" gradientUnits="userSpaceOnUse">
<stop offset="0.09" stop-color="#FFAB0C"/>
<stop offset="0.31" stop-color="#FF5538"/>
<stop offset="0.46" stop-color="#E9405D"/>
<stop offset="0.75" stop-color="#D266DA"/>
<stop offset="0.89" stop-color="#D584EF"/>
</linearGradient>
<clipPath id="clip0_867_18961">
<rect width="100" height="100" fill="white"/>
</clipPath>
</defs>
</svg>
