<svg width="100" height="100" viewBox="0 0 100 100" fill="none" xmlns="http://www.w3.org/2000/svg">
<g clip-path="url(#clip0_867_19059)">
<path d="M50.2757 -0.000854492L7 25.044L7.00543 75.0572L50.3789 99.9991L93.6539 74.954L93.6546 24.9683L50.2754 -0.000854492H50.2757Z" fill="#0E83CD"/>
<path d="M29.9739 71.6526L29.9773 50.0259L29.9807 28.3986L33.9098 26.1008L37.6732 28.328L37.714 37.1654L37.7547 46.0031H62.9034L62.9442 37.1715L62.9849 28.3395L66.8067 26.131L70.6812 28.399L70.6792 50.0114L70.6775 71.6241L66.8417 73.7664L62.9846 71.5962L62.9438 62.8081L62.9031 54.0196H37.7547L37.714 62.8054L37.7255 71.6353L33.8687 73.8974L29.9746 71.6526H29.9739Z" fill="white"/>
</g>
<defs>
<clipPath id="clip0_867_19059">
<rect width="100" height="100" fill="white"/>
</clipPath>
</defs>
</svg>
