<svg width="100" height="100" viewBox="0 0 100 100" fill="none" xmlns="http://www.w3.org/2000/svg">
<g clip-path="url(#clip0_867_19223)">
<path d="M49.3874 63.5708C48.0624 63.8583 46.6874 63.9916 45.2624 63.9916H33.054C27.0748 63.9916 21.2088 62.3609 16.0874 59.275C15.2067 58.7501 14.3503 58.1856 13.5207 57.5833C8.927 54.179 5.28198 49.6546 2.9332 44.4416C2.51654 43.4833 2.14154 42.525 1.79154 41.525C0.667521 38.1355 0.094958 34.5876 0.0957039 31.0166V4.16663H13.6249V31.0166C13.6249 31.6541 13.6415 32.2583 13.729 32.8625C13.7957 33.7541 13.929 34.5916 14.1457 35.4291C14.7571 38.0254 15.8945 40.4687 17.4877 42.608C19.0809 44.7473 21.0959 46.537 23.4082 47.8666C26.3221 49.5336 29.6179 50.4179 32.9749 50.4333H33.0749C36.8805 50.4567 40.566 51.768 43.5312 54.1536C46.4963 56.5391 48.5664 59.8585 49.404 63.5708H49.3874Z" fill="url(#paint0_linear_867_19223)"/>
<path d="M13.525 60.656V94.1519H0V43.1519C0.4375 44.7769 1.14167 46.6269 1.50833 47.3477C4.29964 52.75 8.43885 57.3399 13.525 60.6727V60.656Z" fill="#1E8CFE"/>
<path d="M65.9331 67.2967V94.1509H52.4081V67.2925C52.4175 66.6702 52.384 66.0479 52.3081 65.43C52.0058 62.3412 50.9712 59.369 49.29 56.7602C47.6087 54.1515 45.3295 51.9813 42.6414 50.43C39.7198 48.7671 36.4197 47.8833 33.0581 47.8634H32.9581C29.1572 47.8385 25.4763 46.5303 22.5123 44.1509C19.5483 41.7716 17.475 38.4606 16.6289 34.755C17.9539 34.4717 19.3331 34.3384 20.7581 34.3384H32.9581C38.9369 34.3372 44.8029 35.9664 49.9247 39.0509C50.8122 39.5717 51.6706 40.1425 52.4914 40.7467C57.0887 44.1431 60.73 48.67 63.0622 53.8884C64.9559 58.1047 65.9344 62.6746 65.9331 67.2967Z" fill="url(#paint1_linear_867_19223)"/>
<path d="M82.9336 16.1159C82.9336 13.8159 83.7711 11.8367 85.4336 10.1742C87.0961 8.49503 89.1086 7.67419 91.4419 7.67419C93.7753 7.67419 95.8378 8.51169 97.5003 10.1742C99.1794 11.7992 100 13.8159 100 16.1825C100 18.5492 99.1628 20.5784 97.5003 22.2409C95.8753 23.9159 93.8753 24.7409 91.4919 24.7409C90.3648 24.7604 89.2457 24.5486 88.2037 24.1186C87.1617 23.6886 86.2189 23.0495 85.4336 22.2409C83.7544 20.5617 82.9336 18.5325 82.9336 16.1159ZM98.4753 37.395V94.145H84.4753V37.3825H98.4753V37.395Z" fill="#0418FF"/>
<path d="M52.4084 37.6625V4.16663H65.9334V55.1666C65.5488 53.7283 65.0443 52.3248 64.4251 50.9708C61.6338 45.5685 57.4946 40.9786 52.4084 37.6458V37.6625Z" fill="#1E8CFE"/>
</g>
<defs>
<linearGradient id="paint0_linear_867_19223" x1="0.0998705" y1="34.0708" x2="49.3874" y2="34.0708" gradientUnits="userSpaceOnUse">
<stop stop-color="#0418FF"/>
<stop offset="1" stop-color="#1E8CFE"/>
</linearGradient>
<linearGradient id="paint1_linear_867_19223" x1="65.9331" y1="64.2425" x2="16.6289" y2="64.2425" gradientUnits="userSpaceOnUse">
<stop stop-color="#0418FF"/>
<stop offset="1" stop-color="#1E8CFE"/>
</linearGradient>
<clipPath id="clip0_867_19223">
<rect width="100" height="100" fill="white"/>
</clipPath>
</defs>
</svg>
