<svg width="100" height="100" viewBox="0 0 100 100" fill="none" xmlns="http://www.w3.org/2000/svg">
<g clip-path="url(#clip0_867_19984)">
<path d="M5.68042 48.3434C5.68042 32.8566 14.0761 18.5517 27.6992 10.806C34.413 7.00038 41.9985 5 49.7158 5C57.4331 5 65.0186 7.00038 71.7323 10.806C85.3554 18.5517 93.7511 32.8566 93.7511 48.3434C93.7511 72.2805 74.0369 91.6856 49.718 91.6856C25.3992 91.6856 5.68042 72.2759 5.68042 48.3434Z" fill="#FF9D0B"/>
<path d="M49.7181 87.2132C71.5233 87.2132 89.2056 69.8081 89.2056 48.3439C89.2056 26.8796 71.5233 9.47913 49.7181 9.47913C27.9084 9.47913 10.2261 26.8796 10.2261 48.3439C10.2261 69.8081 27.9084 87.2086 49.7181 87.2086V87.2132Z" fill="#FFD21E"/>
<path d="M49.4319 64.608C60.6004 64.608 64.205 54.8078 64.205 49.7758C64.205 47.1575 62.4186 47.9848 59.5549 49.3712C56.9094 50.6576 53.3502 52.4395 49.4455 52.4395C41.2726 52.4395 34.6724 44.7438 34.6724 49.7758C34.6724 54.8078 38.2634 64.608 49.4455 64.608H49.4319Z" fill="#FF323D"/>
<path d="M62.5459 37.7765C64.0004 38.2674 64.5686 41.1993 66.0323 40.4356C68.0642 39.3765 69.2461 37.2174 69.0279 34.9627C68.9147 33.8545 68.4743 32.8049 67.7628 31.9477C67.0513 31.0905 66.1008 30.4643 65.0323 30.149C63.9598 29.8244 62.8157 29.8211 61.7414 30.1393C60.667 30.4576 59.7093 31.0836 58.9867 31.9399C57.523 33.6854 57.273 36.1219 58.3503 38.1219C59.0458 39.4083 61.2504 37.3174 62.555 37.7628L62.5459 37.7765ZM35.786 37.7765C34.3314 38.2674 33.7496 41.1993 32.295 40.4356C31.3076 39.9256 30.4952 39.132 29.9622 38.1568C29.4292 37.1816 29.2 36.0692 29.304 34.9627C29.5222 32.7127 31.0995 30.8126 33.295 30.149C34.3675 29.8244 35.5116 29.8211 36.586 30.1393C37.6603 30.4576 38.618 31.0836 39.3406 31.9399C40.8043 33.6854 41.0543 36.1219 39.977 38.1219C39.2861 39.4083 37.0679 37.3174 35.7724 37.7628L35.786 37.7765ZM40.8771 62.0499C41.4828 60.8438 42.33 59.7752 43.3661 58.9104C44.4022 58.0455 45.6051 57.4029 46.9 57.0225C47.2181 56.9316 47.5545 57.2952 47.8954 57.7998L48.7682 59.1907C49.0818 59.6453 49.4 59.9862 49.7182 59.9862C50.0546 59.9862 50.4001 59.6498 50.7319 59.2044L51.6637 57.8316C52.0274 57.3316 52.3774 56.977 52.7274 57.0816C55.1684 57.8452 57.2093 59.518 58.4094 61.7453C62.6459 58.4543 64.205 53.086 64.205 49.7768C64.205 47.4677 62.814 47.8404 60.5231 48.9131L57.723 50.2586C55.3593 51.3496 52.5047 52.4405 49.4318 52.4405C46.359 52.4405 43.5135 51.3496 41.1452 50.2586L38.4679 48.9722C36.1042 47.8449 34.6587 47.4177 34.6587 49.7768C34.6587 52.9724 36.1133 58.0998 40.0543 61.4135L40.8725 62.0499H40.8771Z" fill="#3A3B45"/>
<path d="M76.4192 43.0313C76.9007 43.0355 77.3783 42.9447 77.8247 42.7641C78.2711 42.5836 78.6776 42.3168 79.0208 41.9791C79.364 41.6414 79.6373 41.2393 79.825 40.7958C80.0127 40.3524 80.1112 39.8763 80.1147 39.3948C80.1147 37.3902 78.4602 35.7583 76.4192 35.7583C75.938 35.7547 75.4609 35.8459 75.015 36.0267C74.5692 36.2075 74.1633 36.4744 73.8205 36.8121C73.4778 37.1498 73.2049 37.5517 73.0175 37.9948C72.83 38.4379 72.7317 38.9137 72.7282 39.3948C72.7282 41.4039 74.3828 43.0313 76.4192 43.0313ZM23.5813 43.0313C24.0624 43.0349 24.5396 42.9436 24.9854 42.7628C25.4313 42.582 25.8372 42.3152 26.18 41.9775C26.5227 41.6398 26.7956 41.2379 26.983 40.7948C27.1704 40.3516 27.2687 39.8759 27.2723 39.3948C27.2723 37.3902 25.6177 35.7583 23.5813 35.7583C23.0998 35.7541 22.6222 35.8449 22.1758 36.0254C21.7294 36.206 21.3229 36.4727 20.9797 36.8105C20.6365 37.1482 20.3632 37.5503 20.1755 37.9937C19.9878 38.4372 19.8893 38.9133 19.8857 39.3948C19.8857 41.4039 21.5403 43.0313 23.5813 43.0313ZM15.9765 55.3362C14.1356 55.3362 12.4992 56.0725 11.3537 57.4271C10.3766 58.6106 9.84143 60.0971 9.84 61.6318C9.12391 61.4196 8.38216 61.3065 7.63539 61.2954C5.87625 61.2954 4.28529 61.9591 3.15799 63.1546C2.1564 64.1717 1.52305 65.4941 1.35836 66.9121C1.19368 68.3301 1.50708 69.7624 2.24887 70.9821C1.24733 71.7854 0.534179 72.8926 0.216992 74.1367C-0.0557432 75.1458 -0.328478 77.2731 1.12611 79.4368C0.580326 80.2587 0.254818 81.207 0.180795 82.1908C0.106771 83.1746 0.286713 84.1609 0.70337 85.0552C1.78522 87.478 4.38529 89.4099 9.29453 91.4417L10.3855 91.8781C13.8765 93.2418 17.0811 94.1145 17.1038 94.1236C21.1494 95.2282 25.3223 95.8282 29.5224 95.9146C36.1817 95.9146 40.9454 93.9009 43.6819 89.9417C47.9093 83.8415 47.5093 78.2368 42.4364 72.8367L41.75 72.1366C38.6045 69.0275 36.4999 64.4546 36.068 63.4455C35.1816 60.4681 32.8407 57.1589 28.9678 57.1589C26.8769 57.1908 24.9268 58.2181 23.7404 59.909C22.604 58.4999 21.4903 57.3953 20.4903 56.7544C19.1503 55.864 17.585 55.3722 15.9765 55.3362ZM84.0239 55.3362C85.8649 55.3362 87.5104 56.0725 88.6468 57.4271C89.6287 58.6181 90.1605 60.0999 90.1605 61.6318C90.8787 61.4181 91.6242 61.3091 92.3742 61.2954C94.1379 61.2954 95.7288 61.9591 96.8516 63.1546C97.8532 64.1717 98.4865 65.4941 98.6512 66.9121C98.8159 68.3301 98.5025 69.7624 97.7607 70.9821C98.7607 71.7912 99.4744 72.9003 99.7835 74.1367C100.056 75.1458 100.329 77.2731 98.8744 79.4368C99.9835 81.1187 100.143 83.237 99.2971 85.0552C98.2153 87.478 95.6152 89.4099 90.7105 91.4417L89.6241 91.8781C86.124 93.2418 82.9194 94.1145 82.8966 94.1236C78.8511 95.2282 74.6782 95.8282 70.4781 95.9146C63.8188 95.9146 59.055 93.9009 56.3186 89.9417C52.0912 83.8415 52.4912 78.2368 57.5641 72.8367L58.2505 72.1366C61.4097 69.0275 63.5097 64.4546 63.9416 63.4455C64.8279 60.4681 67.1598 57.1589 71.0327 57.1589C73.1236 57.1908 75.0737 58.2181 76.2601 59.909C77.3965 58.4999 78.5102 57.3953 79.5238 56.7544C80.6329 56.018 81.9012 55.5498 83.2239 55.3907L84.0239 55.3362Z" fill="#FF9D0B"/>
<path d="M39.9316 87.4216C43.0589 82.9033 42.8316 79.5123 38.5451 75.2985C34.2496 71.0802 31.7495 64.8982 31.7495 64.8982C31.7495 64.8982 30.8177 61.3163 28.6949 61.6527C26.5675 61.9891 25.0129 67.3347 29.4676 70.612C33.9087 73.8894 28.5812 76.1122 26.863 73.0394C25.1584 69.962 20.4764 62.0573 18.0446 60.5345C15.6263 59.0253 13.9217 59.8617 14.4899 62.9936C15.0581 66.1165 25.2039 73.6758 24.2175 75.2985C23.2265 76.944 19.7492 73.3894 19.7492 73.3894C19.7492 73.3894 8.87611 63.6391 6.49877 66.1846C4.13507 68.7211 8.30792 70.8484 14.2263 74.3803C20.1719 77.9168 20.6355 78.8577 19.7946 80.1987C18.9446 81.5396 5.83966 70.653 4.61236 75.2758C3.38505 79.8714 17.99 81.2033 17.09 84.3943C16.1809 87.5762 6.79424 78.3759 4.88509 81.9533C2.95322 85.5443 18.1264 89.7626 18.2491 89.7944C23.1356 91.049 35.5814 93.6991 39.9316 87.4216ZM60.0776 87.4216C56.9548 82.9033 57.1684 79.5123 61.464 75.2985C65.7505 71.0802 68.2505 64.8982 68.2505 64.8982C68.2505 64.8982 69.1824 61.3163 71.3188 61.6527C73.4325 61.9891 74.9871 67.3347 70.5461 70.612C66.0914 73.8894 71.4325 76.1122 73.1371 73.0394C74.8507 69.962 79.5327 62.0573 81.9555 60.5345C84.3737 59.0253 86.092 59.8617 85.5101 62.9936C84.9419 66.1165 74.8053 73.6758 75.7962 75.2985C76.7735 76.944 80.2509 73.3894 80.2509 73.3894C80.2509 73.3894 91.1376 63.6391 93.5013 66.1846C95.865 68.7211 91.7058 70.8484 85.7738 74.3803C79.8282 77.9168 79.3736 78.8577 80.2054 80.1987C81.0555 81.5396 94.1604 70.653 95.3877 75.2758C96.615 79.8714 82.0237 81.2033 82.9192 84.3943C83.8283 87.5762 93.2058 78.3759 95.124 81.9533C97.0468 85.5443 81.8873 89.7626 81.76 89.7944C76.8644 91.049 64.4186 93.6991 60.0776 87.4216Z" fill="#FFD21E"/>
</g>
<defs>
<clipPath id="clip0_867_19984">
<rect width="100" height="100" fill="white"/>
</clipPath>
</defs>
</svg>
