<svg width="100" height="100" viewBox="0 0 100 100" fill="none" xmlns="http://www.w3.org/2000/svg">
<path fill-rule="evenodd" clip-rule="evenodd" d="M55.869 5.76561L85.1086 22.7711C86.8099 23.7605 88.2217 25.1792 89.203 26.8852C90.1843 28.5912 90.7006 30.5249 90.7004 32.493V67.3602C90.7001 69.5357 90.1213 71.6721 89.0233 73.5502C87.9252 75.4283 86.3475 76.9807 84.4518 78.048L55.432 94.3891C53.539 95.4548 51.4015 96.0097 49.2292 95.9994C47.0569 95.9891 44.9247 95.4139 43.042 94.3303L16.3172 78.9476C14.2541 77.7601 12.5404 76.0498 11.3487 73.989C10.157 71.9283 9.52947 69.5899 9.5293 67.2094V34.1209C9.52909 31.724 10.1418 29.3668 11.3093 27.2733C12.4768 25.1799 14.1602 23.4198 16.1996 22.1603L42.4721 5.94195C44.48 4.70266 46.7867 4.0317 49.1461 4.00064C51.5055 3.96958 53.8291 4.5796 55.869 5.76561Z" fill="#FF4088" stroke="#C9177E" stroke-width="6.90035"/>
<path fill-rule="evenodd" clip-rule="evenodd" d="M28.0623 78.5316V20.9675H40.1045V41.9353H60.0833V20.9675H72.1617V78.5316H60.0833V53.3608H40.1045V78.5316H28.0623Z" fill="white"/>
</svg>
