<svg width="100" height="100" viewBox="0 0 100 100" fill="none" xmlns="http://www.w3.org/2000/svg">
<g clip-path="url(#clip0_867_19626)">
<path d="M50 100C77.6142 100 100 77.6142 100 50C100 22.3858 77.6142 0 50 0C22.3858 0 0 22.3858 0 50C0 77.6142 22.3858 100 50 100Z" fill="#0055E9"/>
<path fill-rule="evenodd" clip-rule="evenodd" d="M50 0C52.1583 0 54.2833 0.1375 56.3667 0.4C62.4157 1.93834 67.7013 5.61871 71.2429 10.7582C74.7844 15.8978 76.3413 22.1475 75.6248 28.3478C74.9083 34.5481 71.967 40.278 67.3466 44.4744C62.7262 48.6707 56.7404 51.0485 50.5 51.1667L50 51.1708C37.5417 51.1708 28.1583 60.25 26.8583 72.4625C25.9292 81.1542 28.3292 90.8458 36.2 98.0708C15.3 92.0833 0 72.8292 0 50C0 22.3875 22.3875 0 50 0Z" fill="#A8DFF5"/>
<path fill-rule="evenodd" clip-rule="evenodd" d="M22.025 20.8344C23.1364 21.5725 24.0915 22.5222 24.8358 23.6295C25.5801 24.7367 26.099 25.9797 26.3629 27.2875C26.6268 28.5953 26.6305 29.9422 26.3737 31.2514C26.117 32.5606 25.6049 33.8064 24.8667 34.9177C8.35833 59.7761 11.4708 79.6802 35.9 97.9844C15.15 91.9011 0 72.7177 0 50.0011C0 42.5552 1.625 35.4927 4.54167 29.1427C5.59583 27.3302 6.72917 25.5094 7.94583 23.6802C9.43573 21.4362 11.7559 19.8757 14.3962 19.342C17.0364 18.8084 19.7805 19.3452 22.025 20.8344Z" fill="#0055E9"/>
<path fill-rule="evenodd" clip-rule="evenodd" d="M54.0834 0.166886C55.2167 0.254386 56.3459 0.38772 57.4584 0.554386C59.8875 0.996053 62.1125 1.61272 63.8667 2.38772C91.525 14.5836 97.4917 44.2711 71.15 67.5627C67.7352 70.5813 63.2611 72.1199 58.712 71.8402C54.1628 71.5604 49.911 69.4853 46.8917 66.0711C40.6 58.9627 41.475 48.6377 48.3792 41.8127C51.9542 38.2794 61.3292 36.7169 65.2334 31.6419C70.4709 24.8336 74.075 6.60439 54.7209 0.366886L54.0834 0.166886Z" fill="#00BCFF"/>
<path fill-rule="evenodd" clip-rule="evenodd" d="M56.3669 0.400203C62.4639 1.94276 67.7866 5.66087 71.3332 10.8546C74.8797 16.0483 76.4053 22.3593 75.6228 28.5995C74.8402 34.8397 71.8036 40.5786 67.0845 44.7358C62.3653 48.893 56.2893 51.1817 50.0002 51.171C47.5853 51.1641 45.1831 51.5223 42.8752 52.2335C43.4877 48.4627 45.3544 44.8002 48.3794 41.8127C51.9544 38.2794 61.3294 36.7169 65.2336 31.6419C70.5252 24.7627 74.1502 6.20854 54.0836 0.16687C54.8502 0.225203 55.6127 0.30437 56.3669 0.400203Z" fill="#ECECEE"/>
</g>
<defs>
<clipPath id="clip0_867_19626">
<rect width="100" height="100" fill="white"/>
</clipPath>
</defs>
</svg>
