<svg width="100" height="100" viewBox="0 0 100 100" fill="none" xmlns="http://www.w3.org/2000/svg">
<g clip-path="url(#clip0_867_18973)">
<path d="M0.804167 81.2619C0.294731 82.4831 0.0313642 83.7928 0.0291667 85.116C0.0291667 90.6035 4.6625 95.6077 12.3208 99.4369C13.0199 99.7766 13.7824 99.9662 14.5592 99.9936C15.336 100.021 16.1099 99.8855 16.8312 99.5959C17.5525 99.3062 18.2052 98.8689 18.7473 98.3119C19.2895 97.755 19.7091 97.0907 19.9792 96.3619L28.5167 75.8202C30.0125 72.2494 31.1917 68.5494 32.0417 64.7702C16.2292 67.4244 4.30833 73.4869 1.00833 80.9035L0.875 81.2202L0.804167 81.2619ZM32.0125 35.2327C31.1614 31.4524 29.9819 27.7537 28.4875 24.1785L19.9583 3.63687C19.6868 2.90816 19.266 2.2442 18.723 1.68755C18.18 1.1309 17.5266 0.69382 16.8049 0.404328C16.0831 0.114836 15.3088 -0.0206862 14.5316 0.00644363C13.7544 0.0335735 12.9915 0.222758 12.2917 0.561874C4.63333 4.39104 0 9.39937 0 14.8869C0 16.2077 0.266667 17.516 0.775 18.7369V18.7785L0.908333 19.0994C4.28333 26.516 16.1958 32.5744 32.0125 35.2327ZM87.7042 0.56604C95.3625 4.39104 99.9958 9.39937 99.9958 14.8827C99.976 16.2082 99.6987 17.5172 99.1792 18.7369L99.0667 18.9994C95.7958 26.466 83.8458 32.5577 67.9833 35.2327C68.8333 31.4535 70.0125 27.7535 71.5083 24.1785L80.0417 3.63687C80.3117 2.90749 80.7314 2.24273 81.2739 1.68538C81.8163 1.12803 82.4695 0.690436 83.1913 0.400775C83.9131 0.111113 84.6875 -0.0241997 85.4648 0.00354633C86.242 0.0312924 87.0049 0.221482 87.7042 0.561874V0.56604ZM68.0292 64.7702C68.8667 68.5452 70.0292 72.241 71.5167 75.8119L80.05 96.3619C80.3206 97.0903 80.7405 97.7541 81.2828 98.3107C81.825 98.8673 82.4776 99.3044 83.1987 99.594C83.9199 99.8835 84.6935 100.019 85.4701 99.9921C86.2467 99.965 87.0091 99.7759 87.7083 99.4369C95.3708 95.6035 100.004 90.6035 100.004 85.116C99.9984 83.7932 99.7352 82.4841 99.2292 81.2619L99.1167 81.0035C95.8583 73.5369 83.8625 67.4369 68.0292 64.7702ZM67.4917 39.6035C78.7208 37.8744 88.0542 34.5077 94.4917 30.1119L92.6667 34.4994C88.5748 44.4233 88.5748 55.5629 92.6667 65.4869L94.4792 69.8535C88.0333 65.4577 78.7 62.1244 67.4833 60.3744L67.1917 60.3327C61.502 59.469 55.7548 59.04 50 59.0494C44.2625 59.041 38.5333 59.466 32.8583 60.3285L32.5625 60.3702C21.3417 62.091 12.0083 65.4619 5.5625 69.8577L7.38333 65.4827C11.4752 55.5588 11.4752 44.4191 7.38333 34.4952L5.5625 30.1119C11.9792 34.5285 21.3125 37.8744 32.5333 39.6035L32.8292 39.6452C44.2208 41.341 55.8 41.341 67.1875 39.6452L67.4833 39.6035H67.4917Z" fill="#594CE9"/>
</g>
<defs>
<clipPath id="clip0_867_18973">
<rect width="100" height="100" fill="white"/>
</clipPath>
</defs>
</svg>
