<svg width="100" height="100" viewBox="0 0 100 100" fill="none" xmlns="http://www.w3.org/2000/svg">
<g clip-path="url(#clip0_867_18993)">
<path d="M98.7619 67.0304V70.4907L98.7143 73.4272C98.685 75.5498 98.494 77.667 98.1429 79.7606C97.625 82.9359 96.3587 85.9424 94.4487 88.5314C92.5387 91.1204 90.0398 93.2175 87.1587 94.6495C85.2419 95.6121 83.1933 96.286 81.0794 96.6495C78.9524 97.0145 76.7937 97.1415 74.6667 97.205C70.5397 97.2526 69.381 97.2526 68.2064 97.2526H30.5556C26.0794 97.2526 25.0952 97.2368 24.1111 97.205C21.9683 97.1415 19.8095 97.0145 17.6984 96.6495C15.5736 96.2891 13.5141 95.615 11.5873 94.6495C8.7203 93.1986 6.23497 91.0935 4.3323 88.5042C2.42963 85.9149 1.16302 82.9142 0.634921 79.7447C0.283077 77.6459 0.0920456 75.5233 0.0634921 73.3955C0.0419852 72.4274 0.0314025 71.4591 0.031746 70.4907L0 67.0304V32.205V28.7447L0.047619 25.8241C0.111111 23.7129 0.238095 21.586 0.619048 19.4748C1.13638 16.3034 2.40086 13.3006 4.30804 10.7145C6.21521 8.12836 8.71034 6.03311 11.5873 4.60183C13.51 3.64321 15.564 2.97459 17.6825 2.6177C19.7937 2.25263 21.9524 2.12564 24.0952 2.06215C28.2222 1.99866 29.3968 1.99866 30.5556 1.99866H67.254H53.0476H68.2064C72.6984 1.99866 73.6825 2.01453 74.6667 2.04628C76.7937 2.10977 78.9524 2.23675 81.0794 2.60183C83.2222 2.98278 85.2222 3.6177 87.1746 4.60183C90.0434 6.04815 92.5313 8.14973 94.4368 10.7364C96.3424 13.3231 97.612 16.3221 98.1429 19.4907C98.5238 21.586 98.6508 23.7129 98.7143 25.8399C98.746 26.7923 98.746 27.7764 98.7619 28.7447V67.0304Z" fill="black"/>
<mask id="mask0_867_18993" style="mask-type:luminance" maskUnits="userSpaceOnUse" x="0" y="1" width="99" height="97">
<path d="M98.7619 67.0304V70.4907L98.7143 73.4272C98.685 75.5498 98.494 77.667 98.1429 79.7606C97.625 82.9359 96.3587 85.9424 94.4487 88.5314C92.5387 91.1204 90.0398 93.2175 87.1587 94.6495C85.2419 95.6121 83.1933 96.286 81.0794 96.6495C78.9524 97.0145 76.7937 97.1415 74.6667 97.205C70.5397 97.2526 69.381 97.2526 68.2064 97.2526H30.5556C26.0794 97.2526 25.0952 97.2368 24.1111 97.205C21.9683 97.1415 19.8095 97.0145 17.6984 96.6495C15.5736 96.2891 13.5141 95.615 11.5873 94.6495C8.7203 93.1986 6.23497 91.0935 4.3323 88.5042C2.42963 85.9149 1.16302 82.9142 0.634921 79.7447C0.283077 77.6459 0.0920456 75.5233 0.0634921 73.3955C0.0419852 72.4274 0.0314025 71.4591 0.031746 70.4907L0 67.0304V32.205V28.7447L0.047619 25.8241C0.111111 23.7129 0.238095 21.586 0.619048 19.4748C1.13638 16.3034 2.40086 13.3006 4.30804 10.7145C6.21521 8.12836 8.71034 6.03311 11.5873 4.60183C13.51 3.64321 15.564 2.97459 17.6825 2.6177C19.7937 2.25263 21.9524 2.12564 24.0952 2.06215C28.2222 1.99866 29.3968 1.99866 30.5556 1.99866H67.254H53.0476H68.2064C72.6984 1.99866 73.6825 2.01453 74.6667 2.04628C76.7937 2.10977 78.9524 2.23675 81.0794 2.60183C83.2222 2.98278 85.2222 3.6177 87.1746 4.60183C90.0434 6.04815 92.5313 8.14973 94.4368 10.7364C96.3424 13.3231 97.612 16.3221 98.1429 19.4907C98.5238 21.586 98.6508 23.7129 98.7143 25.8399C98.746 26.7923 98.746 27.7764 98.7619 28.7447V67.0304Z" fill="white"/>
</mask>
<g mask="url(#mask0_867_18993)">
<path d="M96.1427 85.7923L91.2062 83.2526L96.1269 85.7923H96.1427ZM92.365 90.9193L96.2697 94.8876L92.3808 90.8876L92.365 90.9193ZM81.0793 96.6495L80.111 91.1733L81.0634 96.6495H81.0793ZM74.6666 97.205L74.7301 102.761H74.8094L74.6507 97.205H74.6666ZM30.5554 97.2368L30.5396 102.792H30.5554V97.2368ZM6.39672 90.9034L2.49196 94.8717L6.39672 90.8876V90.9034ZM0.0633836 73.3955L5.61894 73.2526L0.0633836 73.4114V73.3955ZM0.0316377 28.7447L5.58719 28.7923V28.7765L-0.000108242 28.7447H0.0316377ZM0.634812 19.4749L-4.84138 18.4907L0.634812 19.4907V19.4749ZM6.41259 8.332L10.3174 12.2844L6.41259 8.31613V8.332ZM24.111 2.04629L24.0475 -3.50927H23.9523L24.111 2.04629ZM67.2539 1.99867V7.55423V-3.55688V1.99867ZM53.0475 1.99867V-3.55688V7.55423V1.99867ZM68.2062 1.99867L68.2221 -3.55688V1.99867H68.2062ZM81.0793 2.60185L80.111 8.07804L81.0634 2.60185H81.0793ZM92.365 8.332L88.4602 12.2685L92.3808 8.34788L92.365 8.332ZM96.1427 13.459L91.2062 15.9987L96.1269 13.459H96.1427ZM98.7142 25.8399L93.1586 25.9828L98.7142 25.8241V25.8399ZM93.2062 67.0304V70.459L104.317 70.5225V67.0304H93.2062ZM93.2062 70.459C93.2062 71.4114 93.1904 72.332 93.1586 73.2526L104.27 73.5701L104.317 70.5225L93.2062 70.459ZM93.1586 73.2526C93.111 75.2685 92.9999 77.078 92.6824 78.7447L103.619 80.7447C104.079 78.2368 104.206 75.7606 104.254 73.5542L93.1586 73.2526ZM92.6824 78.7606C92.4196 80.3187 91.9219 81.828 91.2062 83.2368L101.079 88.3161C102.349 85.8399 103.143 83.332 103.619 80.7447L92.6824 78.7606ZM91.2062 83.2368C90.4936 84.6173 89.5667 85.8763 88.4602 86.9669L96.2697 94.8558C98.2062 92.951 99.8412 90.7288 101.079 88.3161L91.2062 83.2368ZM88.4602 86.9669C87.3491 88.0622 86.0793 88.9828 84.6824 89.6653L89.6666 99.6019C92.1024 98.3751 94.3306 96.7736 96.2697 94.8558L88.4602 86.9669ZM84.6666 89.6653C83.2697 90.3955 81.7935 90.8558 80.111 91.1574L82.0475 102.11C84.6968 101.653 87.2642 100.808 89.6666 99.6019L84.6666 89.6812V89.6653ZM80.111 91.1574C78.3967 91.4749 76.5554 91.586 74.5078 91.6336L74.8094 102.745C77.0316 102.681 79.5237 102.554 82.0475 102.11L80.111 91.1574ZM74.5872 91.6336C70.492 91.6812 69.3491 91.6812 68.2062 91.6812V102.792C69.3967 102.792 70.5872 102.792 74.7142 102.745L74.5872 91.6336ZM68.2062 91.6812H43.9681V102.792H68.2221V91.6812H68.2062ZM43.9523 91.6812H30.5554V102.792H43.9523V91.6812ZM30.5713 91.6812C26.0634 91.6812 25.1586 91.6653 24.2539 91.6336L23.9523 102.745C25.0158 102.776 26.0793 102.776 30.5396 102.792L30.5713 91.6812ZM24.2539 91.6336C22.2062 91.586 20.365 91.4749 18.6666 91.1574L16.7142 102.11C19.2539 102.554 21.7301 102.681 23.9523 102.745L24.2697 91.6336H24.2539ZM18.6666 91.1574C17.0779 90.8949 15.5372 90.3974 14.0951 89.6812L9.09513 99.6019C11.4984 100.803 14.0657 101.643 16.7142 102.094L18.6666 91.1574ZM14.0951 89.6812C12.6961 88.9809 11.4159 88.065 10.3015 86.9669L2.49196 94.8558C4.42965 96.7796 6.65795 98.3866 9.09513 99.6177L14.0951 89.6812ZM10.3015 86.9669C9.19555 85.8758 8.2688 84.6169 7.55545 83.2368L-2.31757 88.3161C-1.06849 90.7355 0.55466 92.9426 2.49196 94.8558L10.3015 86.9669ZM7.57132 83.2368C6.85001 81.8233 6.34695 80.3088 6.07926 78.7447L-4.85725 80.7447C-4.38106 83.332 -3.58741 85.8399 -2.31757 88.3161L7.57132 83.2368ZM6.07926 78.7447C5.77767 77.078 5.66656 75.2844 5.60307 73.2526L-5.50805 73.5701C-5.44455 75.7606 -5.3017 78.2368 -4.85725 80.7447L6.09513 78.7447H6.07926ZM5.60307 73.2526L5.57132 70.459L-5.53979 70.5225C-5.53979 71.5225 -5.53979 72.5384 -5.50805 73.5542L5.60307 73.2368V73.2526ZM5.57132 70.4431L5.55545 67.0304H-5.55566V70.5225L5.55545 70.4431H5.57132ZM5.55545 67.0304V55.5542H-5.55566V67.0304H5.55545ZM5.55545 55.5542V43.6812H-5.55566V55.5542H5.55545ZM5.55545 43.6812V32.205H-5.55566V43.6812H5.55545ZM5.55545 32.205V28.7923L-5.55566 28.6971V32.205H5.55545ZM5.55545 28.7765C5.55545 27.8241 5.58719 26.9034 5.60307 25.9828L-5.50805 25.6653L-5.53979 28.713L5.57132 28.7765H5.55545ZM5.60307 25.9828C5.66656 23.9511 5.77767 22.1574 6.07926 20.4749L-4.85725 18.4907C-5.25204 20.8679 -5.4643 23.2717 -5.49217 25.6812L5.61894 25.9828H5.60307ZM6.07926 20.4907C6.34695 18.9266 6.85001 17.4121 7.57132 15.9987L-2.31757 10.9193C-3.58741 13.3955 -4.38106 15.9034 -4.85725 18.4907L6.09513 20.4907H6.07926ZM7.57132 15.9987C8.28035 14.6247 9.20174 13.3712 10.3015 12.2844L2.49196 4.36375C0.552495 6.28111 -1.07082 8.49374 -2.31757 10.9193L7.57132 15.9987ZM10.3015 12.2685C11.4126 11.1733 12.6824 10.2685 14.0951 9.5701L9.09513 -0.382282C6.65754 0.848211 4.42914 2.45523 2.49196 4.37962L10.3015 12.2685ZM14.0951 9.5701C15.5078 8.83994 16.9681 8.37962 18.6666 8.07804L16.7142 -2.87434C14.111 -2.39815 11.5872 -1.62038 9.09513 -0.366409L14.0951 9.55423V9.5701ZM18.6666 8.07804C20.365 7.76058 22.2062 7.64946 24.2539 7.60184L23.9523 -3.50927C21.7301 -3.44577 19.238 -3.31879 16.7142 -2.87434L18.6666 8.07804ZM24.1745 7.60184C28.2697 7.55423 29.4126 7.55423 30.5554 7.55423V-3.55688C29.365 -3.55688 28.1745 -3.55688 24.0475 -3.50927L24.1745 7.60184ZM30.5554 7.55423H43.9523V-3.55688H30.5554V7.55423ZM43.9523 7.55423H67.2539V-3.55688H43.9681V7.55423H43.9523ZM67.2539 -3.55688H53.0475V7.55423H67.2539V-3.55688ZM53.0475 7.55423H68.2062V-3.55688H53.0475V7.55423ZM68.1904 7.55423C72.6983 7.55423 73.6031 7.5701 74.5078 7.60184L74.8253 -3.50927C73.7459 -3.54101 72.6824 -3.54101 68.2221 -3.55688L68.1904 7.55423ZM74.5078 7.60184C76.5713 7.64946 78.3967 7.76058 80.111 8.07804L82.0475 -2.87434C79.654 -3.26599 77.2346 -3.47822 74.8094 -3.50927L74.5078 7.60184ZM80.111 8.07804C81.7935 8.37962 83.2697 8.83994 84.6666 9.55423L89.6666 -0.366409C87.2633 -1.56745 84.696 -2.40719 82.0475 -2.85847L80.111 8.07804ZM84.6824 9.55423C86.076 10.2557 87.3508 11.1716 88.4602 12.2685L96.2697 4.37962C94.3322 2.45564 92.1039 0.848664 89.6666 -0.382282L84.6824 9.55423ZM88.4602 12.2844C89.5713 13.3638 90.492 14.6336 91.2062 15.9987L101.079 10.9193C99.8332 8.49332 98.2098 6.28058 96.2697 4.36375L88.4602 12.2844ZM91.2062 15.9987C91.9205 17.3796 92.3808 18.8241 92.6824 20.4749L103.619 18.4907C103.143 15.9034 102.349 13.3955 101.079 10.9193L91.2062 15.9987ZM92.6824 20.4749C92.9999 22.1574 93.111 23.9669 93.1586 25.9828L104.27 25.6653C104.206 23.4749 104.079 20.9987 103.619 18.4907L92.6824 20.4749ZM93.1586 25.9828C93.1904 26.9034 93.1904 27.8241 93.2062 28.7765L104.317 28.713L104.27 25.6812L93.1586 25.9987V25.9828ZM93.2062 28.7765V32.205H104.317V28.713L93.2062 28.7765ZM93.2062 32.205V43.6812H104.317V32.205H93.2062ZM93.2062 43.6812V55.5542H104.317V43.6812H93.2062ZM93.2062 55.5542V67.0304H104.317V55.5542H93.2062Z" fill="url(#paint0_linear_867_18993)"/>
</g>
<path fill-rule="evenodd" clip-rule="evenodd" d="M38.8573 42.9994C38.8573 42.5708 39.2065 42.2057 39.651 42.2057H54.2542C54.6986 42.2057 55.0478 42.5708 55.0478 42.9994V44.5867C55.0478 44.7972 54.9642 44.9991 54.8153 45.1479C54.6665 45.2967 54.4646 45.3803 54.2542 45.3803H39.651C39.4405 45.3803 39.2386 45.2967 39.0898 45.1479C38.9409 44.9991 38.8573 44.7972 38.8573 44.5867V42.9994ZM33.4129 34.047C33.4699 33.9947 33.5133 33.9293 33.5393 33.8564C33.5654 33.7835 33.5732 33.7054 33.5623 33.6288C33.5514 33.5522 33.5219 33.4795 33.4765 33.4168C33.4311 33.3542 33.3711 33.3035 33.3018 33.2692L27.6351 30.2534C27.5294 30.1988 27.448 30.1066 27.4069 29.9949C27.3657 29.8833 27.3679 29.7603 27.4129 29.6502L31.3176 19.9359C31.4922 19.4756 30.9208 19.0788 30.5557 19.4121L18.2542 30.5232C18.1976 30.5712 18.153 30.6316 18.124 30.6999C18.095 30.7681 18.0822 30.8421 18.0869 30.9161C18.0915 30.9901 18.1133 31.062 18.1506 31.126C18.1879 31.1901 18.2397 31.2446 18.3018 31.2851L23.7621 34.9835C23.852 35.0445 23.9184 35.1345 23.9502 35.2384C23.9819 35.3424 23.9772 35.4541 23.9367 35.555L20.3811 44.6184C20.1907 45.0946 20.7621 45.4756 21.143 45.1423L33.4129 34.0311V34.047Z" fill="white"/>
</g>
<defs>
<linearGradient id="paint0_linear_867_18993" x1="51.1427" y1="1.99867" x2="51.1427" y2="102.522" gradientUnits="userSpaceOnUse">
<stop stop-color="#F743B6"/>
<stop offset="1" stop-color="#FCC043"/>
</linearGradient>
<clipPath id="clip0_867_18993">
<rect width="100" height="95.2381" fill="white" transform="translate(0 1.99866)"/>
</clipPath>
</defs>
</svg>
