<svg width="100" height="100" viewBox="0 0 100 100" fill="none" xmlns="http://www.w3.org/2000/svg">
<path d="M17.7083 1H82.2917C92.0833 1 100 8.91667 100 18.7083V80.7917C100 90.5833 92.0833 98.5 82.2917 98.5H17.7083C7.91667 98.5 0 90.5833 0 80.7917V18.7083C0 8.91667 7.91667 1 17.7083 1Z" fill="#49021F"/>
<path d="M36.3333 26.5V69.4167C36.3333 69.875 36.125 70.0834 35.75 70.0834H27.5833C27.2083 70.0834 27.0417 69.875 27.0417 69.4167V26.5C27.0417 26.125 27.25 25.9584 27.625 25.9584H35.75C36 25.9167 36.25 26.0834 36.2917 26.375C36.3333 26.4167 36.3333 26.4584 36.3333 26.5Z" fill="#FF3366"/>
<path d="M60.4167 70.5833C57.3333 70.625 54.25 70 51.4583 68.7083C48.8333 67.5 46.6667 65.5 45.1667 63.0417C43.625 60.5 42.875 57.3333 42.875 53.5417C42.8333 50.4583 43.625 47.4167 45.1667 44.75C46.75 42.0417 49.0417 39.7917 51.7917 38.2917C54.7083 36.6667 58.2083 35.875 62.3333 35.875C62.5417 35.875 62.8333 35.875 63.2083 35.9167C63.5833 35.9583 64 35.9583 64.5 36V22.8333C64.5 22.5417 64.625 22.375 64.9167 22.375H73.375C73.5833 22.3333 73.75 22.5 73.7917 22.6667V22.75V62.4167C73.7917 63.1667 73.8333 64 73.875 64.9167C73.9583 65.7917 74 66.625 74.0417 67.3333C74.0417 67.625 73.9167 67.875 73.625 68C71.4583 68.9167 69.1667 69.5833 66.8333 70C64.75 70.375 62.5833 70.5833 60.4167 70.5833ZM64.5 62.25V43.9167C64.125 43.8333 63.75 43.75 63.375 43.7083C62.9167 43.6667 62.4583 43.625 62 43.625C60.375 43.625 58.75 43.9583 57.2917 44.7083C55.875 45.4167 54.6667 46.4583 53.75 47.7917C52.8333 49.125 52.375 50.9167 52.375 53.0833C52.3333 54.5417 52.5833 56 53.0833 57.375C53.5 58.5 54.125 59.5 54.9583 60.3333C55.75 61.0833 56.7083 61.6667 57.7917 62C58.9167 62.375 60.0833 62.5417 61.25 62.5417C61.875 62.5417 62.4583 62.5 63 62.4583C63.5417 62.5 64.0417 62.4167 64.5 62.25Z" fill="#FF3366"/>
</svg>
