<svg width="100" height="100" viewBox="0 0 100 100" fill="none" xmlns="http://www.w3.org/2000/svg">
<g clip-path="url(#clip0_867_20230)">
<path d="M100 52.4038C100 44.4983 97.9563 37.0717 94.3719 30.6178C109.649 -3.95802 78.0024 1.10605 76.2402 1.45097C69.5356 2.76308 63.3324 4.86933 57.6109 7.53965C56.7672 7.49199 55.918 7.46582 55.0629 7.46582C33.7093 7.46582 15.8351 22.3596 11.2605 42.3256C22.5152 29.6994 30.3914 24.6049 35.1082 22.5666C34.3604 23.2356 33.622 23.9151 32.8933 24.6049C32.6519 24.8326 32.4195 25.0639 32.1816 25.2928C31.7038 25.7502 31.2301 26.2118 30.7605 26.6776C30.4832 26.9537 30.2136 27.2323 29.9402 27.5108C29.5276 27.929 29.1181 28.3502 28.7117 28.7744C28.4249 29.0752 28.1453 29.3764 27.864 29.6776C27.488 30.079 27.1149 30.4832 26.7449 30.8901C26.4597 31.2053 26.1785 31.5202 25.898 31.8362C25.2653 32.5477 24.6408 33.2665 24.0245 33.9924C23.7034 34.3717 23.3843 34.7528 23.0675 35.1358C22.7886 35.4733 22.5105 35.81 22.2374 36.1471C21.9447 36.5094 21.6538 36.8732 21.3648 37.2385C21.0851 37.5909 20.8058 37.9424 20.5327 38.2944C20.2726 38.6291 20.0202 38.9627 19.766 39.2967C19.4788 39.6745 19.1894 40.0518 18.9101 40.4272C18.7101 40.6959 18.5183 40.9623 18.3218 41.2299C16.6285 43.5398 15.0067 45.9014 13.4589 48.3112C13.455 48.3167 13.4511 48.3221 13.4484 48.328C13.0697 48.9186 12.6953 49.512 12.3253 50.1081C12.3058 50.1397 12.2855 50.1717 12.2659 50.2042C11.9077 50.7821 11.5537 51.3625 11.2038 51.9456L11.1671 52.0061C10.2899 53.4672 9.43855 54.9438 8.61359 56.435C4.56632 63.7694 2.596 68.8936 2.51085 69.1979C-10.2696 114.889 29.6187 95.5944 35.1847 92.714C41.1781 95.6749 47.925 97.3413 55.0629 97.3413C74.6024 97.3413 91.227 84.8687 97.4153 67.451H73.8035C70.3098 73.3534 63.5836 77.3515 55.8562 77.3515C44.5343 77.3515 35.3566 68.7733 35.3566 58.1913H99.6301C99.8739 56.2964 100 54.3647 100 52.4038ZM91.6055 8.18223C95.4754 10.7943 98.5789 14.8959 93.2489 28.7096C88.1364 20.4877 80.4449 14.0381 71.3031 10.4932C75.4617 8.48496 85.7602 4.23691 91.6055 8.18223ZM9.36711 92.6222C6.21476 89.3898 5.65773 81.5171 12.6132 67.1714C16.123 77.2632 23.1273 85.719 32.1804 91.0855C27.6781 93.564 15.7249 99.1437 9.36711 92.6222ZM35.2574 45.903C35.6168 35.6182 44.5675 27.3834 55.5648 27.3834C66.5621 27.3834 75.5133 35.6182 75.8727 45.903H35.2574Z" fill="#1EBBEE"/>
</g>
<defs>
<clipPath id="clip0_867_20230">
<rect width="100" height="100" fill="white"/>
</clipPath>
</defs>
</svg>
