<svg width="100" height="100" viewBox="0 0 100 100" fill="none" xmlns="http://www.w3.org/2000/svg">
<g clip-path="url(#clip0_867_20639)">
<path d="M86.3041 27.7292C84.5791 21.7875 79.0208 17.4292 72.3166 17.4292C69.8468 17.4279 67.4145 18.0331 65.2333 19.1917C60.9166 12.6917 53.3499 8.33337 44.7291 8.33337C32.3749 8.33337 22.1249 17.3334 20.5958 28.9334C8.90827 30.7917 -6.10352e-05 40.5334 -6.10352e-05 52.4167C-6.10352e-05 65.5 10.9166 76.0834 24.4249 76.0834C31.1333 76.0834 37.2583 73.3917 41.6666 69.1209C42.8166 68.0084 43.8708 66.8 44.7333 65.4125C43.8756 66.692 42.8793 67.8727 41.7624 68.9334C36.9467 75.4284 34.3597 83.3062 34.3874 91.3917V91.6667C45.145 84.6264 57.6443 80.7075 70.4958 80.3459H70.6874C83.3333 80.3459 94.1583 72.55 98.2749 61.6C99.4347 58.4825 100.019 55.1804 99.9999 51.8542C99.9999 41.7417 94.5416 32.8334 86.3041 27.7292ZM29.0249 53.6209C29.0184 54.0794 28.9215 54.5321 28.7396 54.9531C28.5577 55.374 28.2945 55.7549 27.965 56.0739C27.6356 56.3929 27.2464 56.6437 26.8198 56.8119C26.3932 56.9801 25.9376 57.0625 25.4791 57.0542C25.0327 57.0515 24.5913 56.9603 24.1804 56.7858C23.7694 56.6113 23.3972 56.3571 23.0853 56.0378C22.7733 55.7184 22.5278 55.3404 22.363 54.9255C22.1981 54.5107 22.1172 54.0672 22.1249 53.6209V44.525C22.1172 44.0787 22.1981 43.6353 22.363 43.2204C22.5278 42.8055 22.7733 42.4275 23.0853 42.1082C23.3972 41.7888 23.7694 41.5346 24.1804 41.3601C24.5913 41.1856 25.0327 41.0944 25.4791 41.0917C27.3958 41.0917 29.0208 42.6709 29.0208 44.525L29.0249 53.6209ZM41.5708 58.075C41.5632 58.5456 41.4629 59.0101 41.2758 59.442C41.0887 59.8738 40.8183 60.2646 40.4801 60.5919C40.142 60.9192 39.7426 61.1768 39.3049 61.3497C38.8672 61.5227 38.3997 61.6078 37.9291 61.6C36.9794 61.6145 36.0628 61.2514 35.3808 60.5904C34.6987 59.9294 34.307 59.0247 34.2916 58.075V37.6584C34.307 36.7087 34.6987 35.804 35.3808 35.143C36.0628 34.482 36.9794 34.1189 37.9291 34.1334C38.3997 34.1257 38.8672 34.2107 39.3049 34.3837C39.7426 34.5567 40.142 34.8142 40.4801 35.1415C40.8183 35.4689 41.0887 35.8596 41.2758 36.2915C41.4629 36.7233 41.5632 37.1878 41.5708 37.6584V58.075ZM54.5041 53.7125C54.5041 55.5667 52.7791 57.1459 50.8624 57.1459C48.9458 57.1459 47.3208 55.5667 47.3208 53.7125V44.4334C47.3208 42.575 48.8499 41 50.8624 41C52.7791 41 54.4999 42.575 54.4999 44.4334V53.7125H54.5041ZM67.6249 58.1667C67.6173 58.6373 67.5171 59.1018 67.33 59.5336C67.1428 59.9655 66.8725 60.3562 66.5343 60.6836C66.1961 61.0109 65.7968 61.2684 65.3591 61.4414C64.9214 61.6144 64.4539 61.6994 63.9833 61.6917C63.0336 61.7062 62.117 61.343 61.4349 60.6821C60.7529 60.0211 60.3611 59.1164 60.3458 58.1667V37.75C60.3611 36.8004 60.7529 35.8957 61.4349 35.2347C62.117 34.5737 63.0336 34.2106 63.9833 34.225C64.4539 34.2173 64.9214 34.3024 65.3591 34.4754C65.7968 34.6483 66.1961 34.9058 66.5343 35.2332C66.8725 35.5605 67.1428 35.9513 67.33 36.3831C67.5171 36.815 67.6173 37.2795 67.6249 37.75V58.1667ZM80.4583 53.6209C80.4518 54.079 80.3549 54.5314 80.1733 54.9521C79.9917 55.3728 79.7288 55.7535 79.3998 56.0724C79.0708 56.3913 78.6821 56.6422 78.256 56.8107C77.8299 56.9792 77.3747 57.0619 76.9166 57.0542C76.4702 57.0515 76.0288 56.9603 75.6179 56.7858C75.2069 56.6113 74.8347 56.3571 74.5228 56.0378C74.2108 55.7184 73.9653 55.3404 73.8005 54.9255C73.6356 54.5107 73.5547 54.0672 73.5624 53.6209V44.525C73.5547 44.0787 73.6356 43.6353 73.8005 43.2204C73.9653 42.8055 74.2108 42.4275 74.5228 42.1082C74.8347 41.7888 75.2069 41.5346 75.6179 41.3601C76.0288 41.1856 76.4702 41.0944 76.9166 41.0917C78.8333 41.0917 80.4583 42.6709 80.4583 44.525V53.6209Z" fill="#2A80E2"/>
</g>
<defs>
<clipPath id="clip0_867_20639">
<rect width="100" height="100" fill="white"/>
</clipPath>
</defs>
</svg>
