<svg width="100" height="100" viewBox="0 0 100 100" fill="none" xmlns="http://www.w3.org/2000/svg">
<path d="M40.3585 49.9C40.353 42.8 40.3447 35.7 40.3335 28.6C40.3302 28.2107 40.1726 27.8385 39.8953 27.5651C39.6181 27.2918 39.2437 27.1395 38.8543 27.1417H9.496C9.1873 27.1406 8.89162 27.0172 8.67373 26.7985C8.45584 26.5799 8.33349 26.2837 8.3335 25.975V9.27504C8.3335 9.02504 8.42933 8.78754 8.60433 8.60837C8.68962 8.52136 8.7914 8.45222 8.90372 8.40501C9.01604 8.35779 9.13665 8.33344 9.2585 8.33337H57.8627C58.1563 8.33416 58.4383 8.44804 58.6501 8.65133C58.8619 8.85463 58.9873 9.13172 59.0002 9.42504C59.5835 22.5125 59.096 35.6584 59.1085 50.1L59.1418 71.3917C59.1429 71.7811 59.2984 72.1541 59.5741 72.4291C59.8498 72.704 60.2233 72.8584 60.6127 72.8584H89.971C90.2797 72.8595 90.5754 72.9829 90.7933 73.2016C91.0112 73.4202 91.1335 73.7163 91.1335 74.025V90.7292C91.1332 90.9136 91.079 91.0938 90.9775 91.2478C90.8761 91.4018 90.7319 91.5228 90.5627 91.5959C90.4505 91.6427 90.3301 91.6668 90.2085 91.6667H41.6043C41.3104 91.667 41.0278 91.5534 40.8158 91.3499C40.6037 91.1464 40.4787 90.8687 40.4668 90.5751C39.8835 77.4875 40.3835 64.3417 40.3585 49.9ZM90.0793 8.50421L73.846 8.42087C73.5351 8.41976 73.2364 8.54193 73.0154 8.7606C72.7944 8.97928 72.669 9.27664 72.6668 9.58754L72.5835 25.8459C72.5752 26.4959 73.1002 27.0209 73.7502 27.025L89.9793 27.1084C90.1336 27.1095 90.2866 27.0802 90.4296 27.0221C90.5726 26.9641 90.7027 26.8785 90.8126 26.7701C90.9225 26.6618 91.01 26.5329 91.07 26.3907C91.1301 26.2486 91.1616 26.096 91.1627 25.9417L91.246 9.68754C91.2471 9.53324 91.2178 9.38023 91.1598 9.23725C91.1017 9.09427 91.0161 8.96412 90.9077 8.85424C90.7994 8.74436 90.6705 8.65689 90.5283 8.59683C90.3862 8.53677 90.2336 8.5053 90.0793 8.50421ZM25.6918 72.9917H9.62516C9.29475 72.9917 8.97786 73.123 8.74423 73.3566C8.51059 73.5902 8.37933 73.9071 8.37933 74.2375V90.3C8.37933 90.9917 8.93766 91.55 9.62933 91.55H25.6918C25.8561 91.5506 26.0189 91.5186 26.1708 91.456C26.3227 91.3934 26.4608 91.3013 26.5769 91.1852C26.6931 91.069 26.7852 90.931 26.8478 90.7791C26.9104 90.6271 26.9424 90.4644 26.9418 90.3V74.2375C26.9424 74.0732 26.9104 73.9105 26.8478 73.7585C26.7852 73.6066 26.6931 73.4686 26.5769 73.3524C26.4608 73.2363 26.3227 73.1442 26.1708 73.0816C26.0189 73.019 25.8561 72.9912 25.6918 72.9917Z" fill="#4334F5"/>
</svg>
