<svg width="100" height="100" viewBox="0 0 100 100" fill="none" xmlns="http://www.w3.org/2000/svg">
<path fill-rule="evenodd" clip-rule="evenodd" d="M34.7542 100C32.5458 100 31.25 98.7167 31.25 96.5667V95.4375C31.25 93.2958 32.2833 92.2917 34.2 91.5792L38.4708 90.15C41.4208 89.0208 42.4459 87.7208 42.4459 84.7208V15.2792C42.4459 12.2792 41.4208 10.9917 38.4708 9.85L34.1667 8.41667C32.25 7.70417 31.2458 6.71667 31.2458 4.55833V3.43333C31.25 1.2875 32.575 0 34.7833 0H63.8167C66.0292 0 67.3583 1.2875 67.3583 3.43333V4.5625C67.3583 6.70417 66.3208 7.70833 64.4042 8.42083L60.1083 9.8375C57.0125 10.9708 55.975 12.2667 55.975 15.2667V84.7C55.975 87.7 57.0125 88.9833 60.1083 90.1292L64.375 91.5542C66.2917 92.2708 67.325 93.2542 67.325 95.4125V96.5458C67.325 98.6917 66 99.9792 63.7833 99.9792L34.7583 100H34.7542Z" fill="black"/>
</svg>
