<svg width="100" height="100" viewBox="0 0 100 100" fill="none" xmlns="http://www.w3.org/2000/svg">
<g clip-path="url(#clip0_867_18908)">
<g opacity="0.783251">
<g filter="url(#filter0_f_867_18908)">
<path d="M41.0874 4.21153L4.37908 41.8108C-9.52019 55.7101 13.378 54.5518 21.6641 59.8086C25.4953 62.3033 9.36856 65.5108 12.6652 68.8075C15.8727 72.1041 31.9994 75.1334 35.2069 78.341C38.4145 81.6376 28.7028 85.1124 31.9103 88.409C35.0287 91.7056 42.513 88.5872 43.8494 96.0714C44.8295 101.595 57.5705 98.8335 63.2728 94.1113C66.8367 91.0819 57.125 91.0819 60.3325 87.7853C68.3513 79.6774 75.4792 84.1323 78.4194 76.6481C80.0232 72.6387 66.3021 69.7876 69.9551 67.2037C78.6867 61.056 110.762 57.9375 95.9717 43.1473L57.9269 4.21153C53.2047 -0.243362 45.4532 -0.243362 41.0874 4.21153ZM83.2307 76.6481C83.2307 78.5191 97.7536 79.5883 96.9518 76.2026C95.7935 70.5003 84.8344 70.9458 83.2307 76.6481ZM21.3077 86.538C24.6043 89.3891 29.5938 85.9143 31.1975 81.9049C27.99 77.7173 16.14 82.1722 21.3077 86.538ZM81.4487 80.5684C77.3502 84.3105 82.1615 88.2308 86.1709 85.647C87.2401 84.9342 86.0818 81.4594 81.4487 80.5684Z" fill="black"/>
</g>
<g opacity="0.576355" filter="url(#filter1_f_867_18908)">
<path d="M41.0874 5.08165L4.37908 42.6809C-9.52019 56.5802 13.378 55.4219 21.6641 60.6787C25.4953 63.1735 9.36856 66.381 12.6652 69.6776C15.8727 72.9742 31.9994 76.0036 35.2069 79.2111C38.4145 82.5077 28.7028 85.9825 31.9103 89.2791C35.0287 92.5758 42.513 89.4573 43.8494 96.9416C44.8295 102.466 57.5705 99.7036 63.2728 94.9814C66.8367 91.9521 57.125 91.9521 60.3325 88.6555C68.3513 80.5475 75.4792 85.0024 78.4194 77.5182C80.0232 73.5088 66.3021 70.6577 69.9551 68.0738C78.6867 61.9261 110.762 58.8077 95.9717 44.0174L57.9269 5.08165C53.2047 0.626755 45.4532 0.626755 41.0874 5.08165ZM83.2307 77.5182C83.2307 79.3893 97.7536 80.4584 96.9518 77.0727C95.7935 71.3705 84.8344 71.8159 83.2307 77.5182ZM21.3077 87.4081C24.6043 90.2592 29.5938 86.7844 31.1975 82.775C27.99 78.5874 16.14 83.0423 21.3077 87.4081ZM81.4487 81.4385C77.3502 85.1806 82.1615 89.1009 86.1709 86.5171C87.2401 85.8043 86.0818 82.3295 81.4487 81.4385Z" fill="black"/>
</g>
</g>
<path d="M41.0874 3.34031L4.37908 40.9396C-9.52019 54.8389 13.378 53.6806 21.6641 58.9374C25.4953 61.4321 9.36856 64.6396 12.6652 67.9363C15.8727 71.2329 31.9994 74.2622 35.2069 77.4697C38.4145 80.7663 28.7028 84.2412 31.9103 87.5378C35.0287 90.8344 42.513 87.716 43.8494 95.2002C44.8295 100.724 57.5705 97.9622 63.2728 93.2401C66.8367 90.2107 57.125 90.2107 60.3325 86.9141C68.3513 78.8062 75.4792 83.2611 78.4194 75.7769C80.0232 71.7675 66.3021 68.9163 69.9551 66.3325C78.6867 60.1847 110.762 57.0663 95.9717 42.2761L57.9269 3.34031C53.2047 -1.11458 45.4532 -1.11458 41.0874 3.34031ZM83.2307 75.7769C83.2307 77.6479 97.7536 78.7171 96.9518 75.3314C95.7935 69.6291 84.8344 70.0746 83.2307 75.7769ZM21.3077 85.6667C24.6043 88.5179 29.5938 85.043 31.1975 81.0336C27.99 76.846 16.14 81.3009 21.3077 85.6667ZM81.4487 79.6972C77.3502 83.4393 82.1615 87.3596 86.1709 84.7757C87.2401 84.063 86.0818 80.5882 81.4487 79.6972Z" fill="black"/>
<mask id="mask0_867_18908" style="mask-type:luminance" maskUnits="userSpaceOnUse" x="0" y="0" width="100" height="98">
<path d="M41.1708 3.77369L4.8096 41.0175C-8.95824 54.7853 13.7234 53.638 21.9311 58.845C25.7261 61.3162 9.7519 64.4934 13.0173 67.7588C16.1945 71.0243 32.1688 74.025 35.346 77.2021C38.5231 80.4676 28.9033 83.9096 32.0805 87.175C35.1694 90.4405 42.5829 87.3515 43.9067 94.765C44.8775 100.237 57.498 97.5009 63.1464 92.8233C66.6766 89.8227 57.0568 89.8227 60.234 86.5572C68.1769 78.526 75.2374 82.9388 78.1498 75.5253C79.7384 71.5538 66.1471 68.7296 69.7655 66.1702C78.4146 60.0806 110.186 56.9917 95.5361 42.3413L57.8511 3.77369C53.1735 -0.639081 45.4953 -0.639081 41.1708 3.77369ZM32.4335 60.8749C33.2278 60.8749 59.6162 64.4051 49.4668 67.141C45.5836 68.2001 27.756 60.8749 32.4335 60.8749ZM82.9156 75.5253C82.9156 77.3787 97.3012 78.4377 96.5069 75.084C95.3596 69.4357 84.5042 69.877 82.9156 75.5253ZM21.5781 85.3216C24.8436 88.1458 29.7859 84.7038 31.3745 80.7324C28.1973 76.5844 16.4593 80.9971 21.5781 85.3216ZM81.1505 79.4085C77.0907 83.1153 81.8565 86.9985 85.828 84.4391C86.8871 83.733 85.7398 80.2911 81.1505 79.4085Z" fill="white"/>
</mask>
<g mask="url(#mask0_867_18908)">
<path d="M41.1708 3.77369L4.8096 41.0175C-8.95824 54.7853 13.7234 53.638 21.9311 58.845C25.7261 61.3162 9.7519 64.4934 13.0173 67.7588C16.1945 71.0243 32.1688 74.025 35.346 77.2021C38.5231 80.4676 28.9033 83.9096 32.0805 87.175C35.1694 90.4405 42.5829 87.3515 43.9067 94.765C44.8775 100.237 57.498 97.5009 63.1464 92.8233C66.6766 89.8227 57.0568 89.8227 60.234 86.5572C68.1769 78.526 75.2374 82.9388 78.1498 75.5253C79.7384 71.5538 66.1471 68.7296 69.7655 66.1702C78.4146 60.0806 110.186 56.9917 95.5361 42.3413L57.8511 3.77369C53.1735 -0.639081 45.4953 -0.639081 41.1708 3.77369ZM32.4335 60.8749C33.2278 60.8749 59.6162 64.4051 49.4668 67.141C45.5836 68.2001 27.756 60.8749 32.4335 60.8749ZM82.9156 75.5253C82.9156 77.3787 97.3012 78.4377 96.5069 75.084C95.3596 69.4357 84.5042 69.877 82.9156 75.5253ZM21.5781 85.3216C24.8436 88.1458 29.7859 84.7038 31.3745 80.7324C28.1973 76.5844 16.4593 80.9971 21.5781 85.3216ZM81.1505 79.4085C77.0907 83.1153 81.8565 86.9985 85.828 84.4391C86.8871 83.733 85.7398 80.2911 81.1505 79.4085Z" fill="url(#paint0_linear_867_18908)"/>
</g>
<path opacity="0.505263" d="M7.64467 43.0243C-2.33602 52.915 15.1976 50.1276 28.685 55.4327L56.559 6.4284C52.333 2.11243 46.938 2.47209 43.0716 6.4284L7.64467 43.0243Z" fill="url(#paint1_linear_867_18908)"/>
<path d="M55.6994 6.01351L70.2224 20.8038C71.5588 22.1402 71.5588 24.9023 70.757 25.7041L63.54 19.8237L62.1145 28.4662L56.1449 25.2586L46.4333 31.4064L43.2257 18.4872L38.0581 29.7135L25.1389 29.6244C22.6441 29.6244 23.0005 27.0406 25.5844 24.4568C30.6629 18.8436 40.5528 9.31013 43.6712 6.01351C46.8787 2.71689 52.4919 2.80599 55.6994 6.01351Z" fill="url(#paint2_linear_867_18908)"/>
<path opacity="0.216749" fill-rule="evenodd" clip-rule="evenodd" d="M35.7665 75.8832C35.7665 75.8832 37.3429 78.2902 37.1823 79.4225C36.8669 81.6445 32.0812 82.7534 33.1416 84.7314C34.1892 86.6856 37.9651 85.578 41.1345 87.6218C44.2903 89.6569 43.4418 93.8045 45.7355 94.8479C50.2089 96.8828 61.9573 91.3381 61.3674 91.4561C60.7775 91.574 49.7726 93.8606 47.2951 91.855C44.4703 89.5683 43.6604 87.9711 41.5769 86.619C39.6244 85.352 36.8816 84.8351 36.2432 83.7977C35.6048 82.7603 37.5217 81.4218 37.6542 79.4225C37.7337 78.2217 35.7665 75.8832 35.7665 75.8832Z" fill="url(#paint3_radial_867_18908)"/>
<g opacity="0.275862" filter="url(#filter2_f_867_18908)">
<path fill-rule="evenodd" clip-rule="evenodd" d="M35.7665 75.8832C35.7665 75.8832 37.3429 78.2902 37.1823 79.4225C36.8669 81.6445 32.0812 82.7534 33.1416 84.7314C34.1892 86.6856 37.9651 85.578 41.1345 87.6218C44.2903 89.6569 43.4418 93.8045 45.7355 94.8479C50.2089 96.8828 61.9573 91.3381 61.3674 91.4561C41.859 91.5303 45.4997 86.5036 37.9786 83.1977C36.8918 82.72 37.5217 81.4218 37.6542 79.4225C37.7337 78.2217 35.7665 75.8832 35.7665 75.8832Z" fill="url(#paint4_radial_867_18908)"/>
</g>
<path opacity="0.453202" fill-rule="evenodd" clip-rule="evenodd" d="M68.9179 65.6195C86.4273 59.1759 92.0524 58.2906 97.8221 52.5242C91.1396 58.1652 77.0118 61.1911 65.4966 66.2094L68.9179 65.6195Z" fill="url(#paint5_radial_867_18908)"/>
<g opacity="0.512315" filter="url(#filter3_f_867_18908)">
<path fill-rule="evenodd" clip-rule="evenodd" d="M68.9179 64.7931C97.7531 54.5742 92.8782 54.6327 97.8221 51.6978C88.6541 55.2072 71.5207 55.5814 65.4966 65.383L68.9179 64.7931Z" fill="url(#paint6_radial_867_18908)"/>
</g>
<path opacity="0.285714" d="M94.1058 72.963C94.1058 73.2681 93.7111 73.5607 93.0086 73.7764C92.3062 73.9921 91.3534 74.1133 90.36 74.1133C89.3666 74.1133 88.4138 73.9921 87.7114 73.7764C87.0089 73.5607 86.6143 73.2681 86.6143 72.963C86.6143 72.6579 87.0089 72.3654 87.7114 72.1497C88.4138 71.9339 89.3666 71.8127 90.36 71.8127C91.3534 71.8127 92.3062 71.9339 93.0086 72.1497C93.7111 72.3654 94.1058 72.6579 94.1058 72.963Z" fill="url(#paint7_linear_867_18908)"/>
<g opacity="0.620689" filter="url(#filter4_f_867_18908)">
<path d="M95.4035 74.2902C95.4035 74.9473 94.8721 75.5775 93.9263 76.0421C92.9805 76.5067 91.6976 76.7678 90.36 76.7678C89.0224 76.7678 87.7396 76.5067 86.7937 76.0421C85.8479 75.5775 85.3165 74.9473 85.3165 74.2902C85.3165 73.6332 85.8479 73.003 86.7937 72.5384C87.7396 72.0738 89.0224 71.8127 90.36 71.8127C91.6976 71.8127 92.9805 72.0738 93.9263 72.5384C94.8721 73.003 95.4035 73.6332 95.4035 74.2902Z" fill="url(#paint8_linear_867_18908)"/>
</g>
<g filter="url(#filter5_f_867_18908)">
<path fill-rule="evenodd" clip-rule="evenodd" d="M83.4879 75.6672C85.2668 77.3114 95.1703 78.1552 96.7897 75.1953C93.6107 77.4529 86.5415 76.6595 83.4879 75.6672Z" fill="url(#paint9_radial_867_18908)"/>
</g>
<path opacity="0.285714" d="M83.523 81.1555C83.6096 81.3259 83.6647 81.5102 83.6851 81.6979C83.7055 81.8855 83.6909 82.0729 83.642 82.2493C83.5932 82.4257 83.5111 82.5876 83.4004 82.7257C83.2897 82.8639 83.1526 82.9757 82.997 83.0546C82.8413 83.1335 82.6702 83.178 82.4933 83.1857C82.3164 83.1933 82.1373 83.1638 81.9661 83.099C81.795 83.0342 81.6352 82.9352 81.4959 82.8078C81.3565 82.6805 81.2404 82.5271 81.1541 82.3565C81.0675 82.1862 81.0125 82.0019 80.992 81.8142C80.9716 81.6265 80.9862 81.4391 81.0351 81.2627C81.0839 81.0864 81.1661 80.9245 81.2767 80.7863C81.3874 80.6481 81.5245 80.5364 81.6802 80.4574C81.8358 80.3785 82.007 80.334 82.1838 80.3264C82.3607 80.3187 82.5398 80.3482 82.711 80.413C82.8821 80.4778 83.0419 80.5768 83.1813 80.7042C83.3206 80.8316 83.4367 80.9849 83.523 81.1555Z" fill="url(#paint10_linear_867_18908)"/>
<g opacity="0.620689" filter="url(#filter6_f_867_18908)">
<path d="M84.2252 81.4736C84.3546 81.7284 84.4379 82.0034 84.4705 82.283C84.5031 82.5625 84.4843 82.8411 84.4152 83.1028C84.346 83.3645 84.2279 83.6041 84.0676 83.8081C83.9072 84.0121 83.7078 84.1763 83.4806 84.2915C83.2535 84.4066 83.0031 84.4704 82.7438 84.4792C82.4845 84.4881 82.2214 84.4417 81.9694 84.3428C81.7175 84.2439 81.4816 84.0945 81.2754 83.903C81.0692 83.7115 80.8966 83.4817 80.7675 83.2267C80.6381 82.9719 80.5548 82.6969 80.5222 82.4174C80.4896 82.1378 80.5084 81.8592 80.5775 81.5975C80.6466 81.3359 80.7648 81.0962 80.9251 80.8922C81.0855 80.6883 81.2849 80.524 81.512 80.4088C81.7392 80.2937 81.9896 80.2299 82.2489 80.2211C82.5082 80.2122 82.7713 80.2586 83.0233 80.3575C83.2752 80.4564 83.5111 80.6058 83.7173 80.7973C83.9235 80.9888 84.0961 81.2186 84.2252 81.4736Z" fill="url(#paint11_linear_867_18908)"/>
</g>
<g filter="url(#filter7_f_867_18908)">
<path fill-rule="evenodd" clip-rule="evenodd" d="M81.0588 84.4789C82.4884 85.5976 87.8689 85.7409 85.8276 82.4894C86.3599 85.036 82.6851 84.7668 81.0588 84.4789Z" fill="url(#paint12_radial_867_18908)"/>
</g>
<path fill-rule="evenodd" clip-rule="evenodd" d="M14.6487 67.6248C14.6487 67.332 32.9804 73.2115 36.1204 76.3551C33.5385 73.8358 20.4721 68.0419 18.4829 67.9787C16.4937 67.9155 14.8846 67.7428 14.6487 67.6248Z" fill="url(#paint13_radial_867_18908)"/>
<path opacity="0.285714" d="M28.42 80.218C28.4914 80.4303 28.2129 80.71 27.6458 80.9957C27.0788 81.2814 26.2697 81.5497 25.3964 81.7414C24.5232 81.9331 23.6574 82.0326 22.9895 82.0181C22.3215 82.0035 21.9062 81.8761 21.8349 81.6638C21.7636 81.4515 22.042 81.1717 22.6091 80.886C23.1761 80.6003 23.9852 80.3321 24.8585 80.1404C25.7317 79.9486 26.5975 79.8491 27.2655 79.8637C27.9334 79.8782 28.3487 80.0057 28.42 80.218Z" fill="url(#paint14_linear_867_18908)"/>
<g opacity="0.620689" filter="url(#filter8_f_867_18908)">
<path d="M29.8711 80.8912C30.0247 81.3485 29.705 81.8896 28.9823 82.3955C28.2595 82.9013 27.1929 83.3306 26.0171 83.5887C24.8413 83.8469 23.6527 83.9128 22.7126 83.772C21.7726 83.6312 21.1581 83.2952 21.0045 82.8379C20.8508 82.3807 21.1706 81.8396 21.8933 81.3337C22.6161 80.8278 23.6827 80.3986 24.8585 80.1404C26.0343 79.8822 27.2229 79.8163 28.163 79.9571C29.103 80.0979 29.7174 80.4339 29.8711 80.8912Z" fill="url(#paint15_linear_867_18908)"/>
</g>
<g opacity="0.615764" filter="url(#filter9_f_867_18908)">
<path fill-rule="evenodd" clip-rule="evenodd" d="M20.5181 83.198C20.5181 83.198 21.5107 85.8647 24.2343 86C26.9897 86.1369 30.1347 82.6933 30.3986 81.4579C29.9267 82.5197 27.2886 85.7207 23.8804 85.6755C21.9456 85.6499 20.5181 83.198 20.5181 83.198Z" fill="url(#paint16_radial_867_18908)"/>
</g>
<g filter="url(#filter10_f_867_18908)">
<path d="M49.3791 1.30786C46.6187 1.30786 43.9133 2.30758 42.0007 4.25923L5.30352 41.8474C1.94844 45.2025 1.14244 47.3988 1.3498 48.6411C1.45349 49.2622 1.75841 49.8021 2.40784 50.3674C3.05728 50.9327 4.03966 51.4868 5.21999 51.9823C7.58065 52.9732 10.7601 53.7714 13.8792 54.6274C16.9983 55.4833 20.0535 56.3867 22.3713 57.8572C22.7247 58.0873 23.0566 58.3708 23.2902 58.776C23.5237 59.1812 23.6057 59.7169 23.5129 60.1681C23.3272 61.0705 22.7716 61.5465 22.2043 61.9779C21.0696 62.8409 19.5106 63.5578 17.9443 64.3167C16.3779 65.0757 14.8036 65.8521 14.0184 66.4885C13.6258 66.8067 13.4837 67.0927 13.4894 67.0732C13.4951 67.0537 13.3853 66.8299 13.5729 67.0175C14.0645 67.5228 15.5991 68.388 17.5545 69.1614C19.5099 69.9349 21.903 70.7168 24.3203 71.5003C26.7377 72.2838 29.1829 73.0594 31.2533 73.8669C33.3237 74.6744 35.0111 75.4252 36.1258 76.5399C36.6806 77.1101 37.0726 77.8193 37.156 78.5446C37.2394 79.2699 37.043 79.9506 36.7662 80.5214C36.2126 81.6632 35.3225 82.5414 34.5109 83.3893C33.6993 84.2371 32.964 85.0468 32.7011 85.5889C32.5697 85.8599 32.5493 86.0365 32.5619 86.1457C32.5745 86.2549 32.5932 86.3651 32.8403 86.6191C32.8497 86.6282 32.859 86.6375 32.8682 86.6469C33.9316 87.7711 36.2423 87.9292 38.8544 88.5402C40.1605 88.8457 41.5264 89.3082 42.6968 90.3222C43.8672 91.3362 44.7455 92.8798 45.1191 94.972C45.2763 95.8581 45.7452 96.2896 46.8732 96.6426C48.0012 96.9956 49.7193 97.0573 51.6066 96.7818C55.381 96.2306 59.8571 94.3803 62.4375 92.2434C62.5979 92.107 62.5533 92.1431 62.6046 92.0763C62.431 91.9521 62.024 91.6874 61.3516 91.3524C60.5573 90.9566 59.6189 90.5865 58.9014 89.6818C58.5427 89.2294 58.2957 88.5152 58.4003 87.8163C58.5049 87.1174 58.8875 86.536 59.4026 86.0065C63.631 81.7312 67.7974 80.7104 70.9297 79.881C72.4958 79.4663 73.8069 79.087 74.7998 78.461C75.7928 77.8351 76.5685 76.9787 77.2222 75.3148C77.2942 75.1346 77.2922 75.0824 77.1943 74.8693C77.0965 74.6562 76.834 74.3153 76.4147 73.9505C75.5763 73.2207 74.178 72.4365 72.7951 71.6673C71.4123 70.8981 70.0683 70.181 69.092 69.2728C68.6039 68.8187 68.0923 68.2467 68.034 67.3795C67.9756 66.5122 68.5441 65.7297 69.2034 65.2634C71.6498 63.541 75.3478 62.2297 79.3661 60.8364C83.3844 59.443 87.7067 58.0012 91.2273 56.3536C94.7478 54.7061 97.337 52.8087 98.1602 50.8964C98.5718 49.9402 98.6472 48.9731 98.2159 47.7223C97.7845 46.4714 96.7996 44.9417 95.0418 43.1839L57.036 4.28707C57.0264 4.27807 57.0177 4.26819 57.0081 4.25923C54.9074 2.29218 52.127 1.30786 49.3791 1.30786ZM90.3084 72.5861C87.9605 72.6709 85.8005 73.7457 84.879 75.4261C85.1408 75.5246 85.3765 75.6355 85.7979 75.7324C87.0235 76.0144 88.734 76.1964 90.4198 76.2336C92.1056 76.2708 93.7914 76.1289 94.819 75.8438C95.2688 75.719 95.5072 75.5927 95.6265 75.5097C95.3986 74.5375 94.8559 73.8506 93.928 73.3379C92.967 72.8069 91.6501 72.5377 90.3084 72.5861ZM27.4945 80.6606C25.6324 80.5311 23.2921 81.2723 22.1486 82.192C21.5768 82.6518 21.3349 83.078 21.3133 83.3614C21.2917 83.6448 21.3821 84.0225 22.1486 84.67C22.1487 84.6793 22.1487 84.6886 22.1486 84.6978C23.3539 85.7403 24.7166 85.6316 26.2694 84.7813C27.571 84.0686 28.726 82.7314 29.4992 81.3288C28.9779 80.9926 28.3547 80.7205 27.4945 80.6606ZM81.8441 81.2175C81.4456 81.7241 81.2286 82.1958 81.2038 82.5261C81.1695 82.9821 81.2987 83.3344 81.6492 83.6677C82.3062 84.2923 83.7333 84.5611 85.1853 83.7791C85.1566 83.6106 85.1022 83.355 84.879 83.0273C84.4336 82.3732 83.3924 81.6685 81.8441 81.2175Z" stroke="url(#paint17_radial_867_18908)" stroke-width="0.435071"/>
</g>
<g opacity="0.325123" filter="url(#filter11_f_867_18908)">
<path fill-rule="evenodd" clip-rule="evenodd" d="M29.2578 60.1709C27.043 60.8243 19.8638 63.5371 20.8827 65.6093C21.8588 67.5944 38.5515 68.3943 41.1135 74.3107C42.2307 76.8907 38.5499 78.8369 39.482 81.4894C40.1997 83.5319 45.7522 88.664 49.265 91.0904C52.0203 92.9936 55.6392 89.5579 54.1656 86.7102C51.818 82.1735 62.1895 76.617 66.8914 74.0932C69.6347 72.6207 61.2355 65.3917 61.2355 65.3917L29.2578 60.1709Z" fill="url(#paint18_linear_867_18908)"/>
</g>
<path fill-rule="evenodd" clip-rule="evenodd" d="M30.0768 62.1744C32.0654 63.6349 35.99 62.754 38.347 63.8153C44.0043 66.3629 50.9588 69.2017 49.679 64.1758L48.2394 65.3715L48.2113 63.0928L44.8683 63.9092C44.8683 63.9092 42.279 61.8308 41.0919 61.1454C40.8439 61.0022 39.5704 62.2973 39.5704 62.2973L39.3414 60.9218C37.6865 60.7457 36.0482 60.668 34.6057 60.6796C31.1479 60.7073 28.8152 61.2478 30.0768 62.1744Z" fill="url(#paint19_linear_867_18908)"/>
<g opacity="0.477832" filter="url(#filter12_f_867_18908)">
<path fill-rule="evenodd" clip-rule="evenodd" d="M67.2177 66.8054C66.4521 69.6239 76.6273 73.4533 75.8647 75.3981C74.1858 79.6799 64.9984 76.7631 57.9725 85.731C56.9661 87.0155 59.3864 91.6045 59.0601 91.0606C58.7338 90.5168 56.2474 86.7261 56.8848 84.8609C58.8836 79.0112 78.2088 76.8305 74.6683 74.0385C72.6322 72.4328 65.3119 67.9966 67.2177 66.8054Z" fill="url(#paint20_radial_867_18908)"/>
</g>
<path opacity="0.586207" d="M90.1133 72.598C90.1133 72.7206 89.9958 72.8382 89.7867 72.9249C89.5777 73.0116 89.2941 73.0603 88.9984 73.0603C88.7027 73.0603 88.4192 73.0116 88.2101 72.9249C88.001 72.8382 87.8835 72.7206 87.8835 72.598C87.8835 72.4754 88.001 72.3578 88.2101 72.2711C88.4192 72.1844 88.7027 72.1357 88.9984 72.1357C89.2941 72.1357 89.5777 72.1844 89.7867 72.2711C89.9958 72.3578 90.1133 72.4754 90.1133 72.598Z" fill="white"/>
<path opacity="0.586207" d="M82.6628 81.136C82.6628 81.2586 82.5883 81.3761 82.4557 81.4628C82.3231 81.5495 82.1433 81.5982 81.9558 81.5982C81.7683 81.5982 81.5884 81.5495 81.4559 81.4628C81.3233 81.3761 81.2488 81.2586 81.2488 81.136C81.2488 81.0134 81.3233 80.8958 81.4559 80.8091C81.5884 80.7224 81.7683 80.6737 81.9558 80.6737C82.1433 80.6737 82.3231 80.7224 82.4557 80.8091C82.5883 80.8958 82.6628 81.0134 82.6628 81.136Z" fill="white"/>
<path opacity="0.586207" d="M26.2667 80.7279C26.2667 80.8505 26.1349 80.9681 25.9003 81.0548C25.6657 81.1414 25.3476 81.1902 25.0158 81.1902C24.6841 81.1902 24.3659 81.1414 24.1314 81.0548C23.8968 80.9681 23.765 80.8505 23.765 80.7279C23.765 80.6053 23.8968 80.4877 24.1314 80.401C24.3659 80.3143 24.6841 80.2656 25.0158 80.2656C25.3476 80.2656 25.6657 80.3143 25.9003 80.401C26.1349 80.4877 26.2667 80.6053 26.2667 80.7279Z" fill="white"/>
<path opacity="0.251232" d="M25.5597 60.3887C19.1865 64.3305 9.27789 65.765 20.1213 68.3831C18.8296 65.5069 22.9177 65.8242 25.5597 60.3887Z" fill="url(#paint21_linear_867_18908)"/>
<g opacity="0.363158" filter="url(#filter13_f_867_18908)">
<path d="M48.1833 96.2823C48.1833 96.2823 58.0124 95.3565 60.2861 92.5205C61.6164 90.8613 54.9994 88.9251 56.4278 87.2996C61.801 81.1851 66.3173 81.4404 72.5473 78.8795C78.7773 76.3185 76.4784 75.0643 74.4633 73.9399C71.0121 72.0141 63.331 69.9623 65.8719 65.3923C68.4288 60.7936 90.8203 54.4067 90.8203 54.4067C97.6057 52.0885 96.7542 47.8961 93.4307 44.4001L73.4174 24.4956C73.4174 24.4956 74.4107 43.3727 70.372 51.47C65.381 61.4763 38.8101 72.6413 49.9236 73.8761C53.8393 74.3112 55.719 75.6471 57.3198 78.6619C60.6161 84.8699 48.1833 96.2823 48.1833 96.2823Z" fill="url(#paint22_linear_867_18908)"/>
</g>
</g>
<defs>
<filter id="filter0_f_867_18908" x="-1.4353" y="-0.564942" width="102.684" height="101.129" filterUnits="userSpaceOnUse" color-interpolation-filters="sRGB">
<feFlood flood-opacity="0" result="BackgroundImageFix"/>
<feBlend mode="normal" in="SourceGraphic" in2="BackgroundImageFix" result="shape"/>
<feGaussianBlur stdDeviation="0.717652" result="effect1_foregroundBlur_867_18908"/>
</filter>
<filter id="filter1_f_867_18908" x="-6.21965" y="-4.47917" width="112.253" height="110.698" filterUnits="userSpaceOnUse" color-interpolation-filters="sRGB">
<feFlood flood-opacity="0" result="BackgroundImageFix"/>
<feBlend mode="normal" in="SourceGraphic" in2="BackgroundImageFix" result="shape"/>
<feGaussianBlur stdDeviation="3.10982" result="effect1_foregroundBlur_867_18908"/>
</filter>
<filter id="filter2_f_867_18908" x="31.1406" y="74.0353" width="32.0961" height="23.1097" filterUnits="userSpaceOnUse" color-interpolation-filters="sRGB">
<feFlood flood-opacity="0" result="BackgroundImageFix"/>
<feBlend mode="normal" in="SourceGraphic" in2="BackgroundImageFix" result="shape"/>
<feGaussianBlur stdDeviation="0.923947" result="effect1_foregroundBlur_867_18908"/>
</filter>
<filter id="filter3_f_867_18908" x="63.4961" y="49.6973" width="36.3265" height="17.6862" filterUnits="userSpaceOnUse" color-interpolation-filters="sRGB">
<feFlood flood-opacity="0" result="BackgroundImageFix"/>
<feBlend mode="normal" in="SourceGraphic" in2="BackgroundImageFix" result="shape"/>
<feGaussianBlur stdDeviation="1.00023" result="effect1_foregroundBlur_867_18908"/>
</filter>
<filter id="filter4_f_867_18908" x="84.4082" y="70.9044" width="11.9038" height="6.77168" filterUnits="userSpaceOnUse" color-interpolation-filters="sRGB">
<feFlood flood-opacity="0" result="BackgroundImageFix"/>
<feBlend mode="normal" in="SourceGraphic" in2="BackgroundImageFix" result="shape"/>
<feGaussianBlur stdDeviation="0.454181" result="effect1_foregroundBlur_867_18908"/>
</filter>
<filter id="filter5_f_867_18908" x="82.7135" y="74.4209" width="14.8507" height="3.51417" filterUnits="userSpaceOnUse" color-interpolation-filters="sRGB">
<feFlood flood-opacity="0" result="BackgroundImageFix"/>
<feBlend mode="normal" in="SourceGraphic" in2="BackgroundImageFix" result="shape"/>
<feGaussianBlur stdDeviation="0.38721" result="effect1_foregroundBlur_867_18908"/>
</filter>
<filter id="filter6_f_867_18908" x="79.9093" y="79.6227" width="5.17408" height="5.45496" filterUnits="userSpaceOnUse" color-interpolation-filters="sRGB">
<feFlood flood-opacity="0" result="BackgroundImageFix"/>
<feBlend mode="normal" in="SourceGraphic" in2="BackgroundImageFix" result="shape"/>
<feGaussianBlur stdDeviation="0.298647" result="effect1_foregroundBlur_867_18908"/>
</filter>
<filter id="filter7_f_867_18908" x="80.5496" y="81.9802" width="6.2439" height="3.72828" filterUnits="userSpaceOnUse" color-interpolation-filters="sRGB">
<feFlood flood-opacity="0" result="BackgroundImageFix"/>
<feBlend mode="normal" in="SourceGraphic" in2="BackgroundImageFix" result="shape"/>
<feGaussianBlur stdDeviation="0.25461" result="effect1_foregroundBlur_867_18908"/>
</filter>
<filter id="filter8_f_867_18908" x="20.2284" y="79.1463" width="10.4187" height="5.43655" filterUnits="userSpaceOnUse" color-interpolation-filters="sRGB">
<feFlood flood-opacity="0" result="BackgroundImageFix"/>
<feBlend mode="normal" in="SourceGraphic" in2="BackgroundImageFix" result="shape"/>
<feGaussianBlur stdDeviation="0.369177" result="effect1_foregroundBlur_867_18908"/>
</filter>
<filter id="filter9_f_867_18908" x="19.8908" y="80.8306" width="11.135" height="5.80051" filterUnits="userSpaceOnUse" color-interpolation-filters="sRGB">
<feFlood flood-opacity="0" result="BackgroundImageFix"/>
<feBlend mode="normal" in="SourceGraphic" in2="BackgroundImageFix" result="shape"/>
<feGaussianBlur stdDeviation="0.313621" result="effect1_foregroundBlur_867_18908"/>
</filter>
<filter id="filter10_f_867_18908" x="0.52082" y="0.509224" width="98.7839" height="97.2433" filterUnits="userSpaceOnUse" color-interpolation-filters="sRGB">
<feFlood flood-opacity="0" result="BackgroundImageFix"/>
<feBlend mode="normal" in="SourceGraphic" in2="BackgroundImageFix" result="shape"/>
<feGaussianBlur stdDeviation="0.290554" result="effect1_foregroundBlur_867_18908"/>
</filter>
<filter id="filter11_f_867_18908" x="17.5762" y="56.9628" width="53.0739" height="37.8843" filterUnits="userSpaceOnUse" color-interpolation-filters="sRGB">
<feFlood flood-opacity="0" result="BackgroundImageFix"/>
<feBlend mode="normal" in="SourceGraphic" in2="BackgroundImageFix" result="shape"/>
<feGaussianBlur stdDeviation="1.60403" result="effect1_foregroundBlur_867_18908"/>
</filter>
<filter id="filter12_f_867_18908" x="55.701" y="65.7256" width="21.2845" height="26.4594" filterUnits="userSpaceOnUse" color-interpolation-filters="sRGB">
<feFlood flood-opacity="0" result="BackgroundImageFix"/>
<feBlend mode="normal" in="SourceGraphic" in2="BackgroundImageFix" result="shape"/>
<feGaussianBlur stdDeviation="0.539895" result="effect1_foregroundBlur_867_18908"/>
</filter>
<filter id="filter13_f_867_18908" x="44.8218" y="22.0856" width="53.5336" height="76.6066" filterUnits="userSpaceOnUse" color-interpolation-filters="sRGB">
<feFlood flood-opacity="0" result="BackgroundImageFix"/>
<feBlend mode="normal" in="SourceGraphic" in2="BackgroundImageFix" result="shape"/>
<feGaussianBlur stdDeviation="1.205" result="effect1_foregroundBlur_867_18908"/>
</filter>
<linearGradient id="paint0_linear_867_18908" x1="65.8987" y1="10.3928" x2="46.3779" y2="28.0439" gradientUnits="userSpaceOnUse">
<stop stop-color="#C0CDF9"/>
<stop offset="1" stop-color="#07092D" stop-opacity="0.288043"/>
</linearGradient>
<linearGradient id="paint1_linear_867_18908" x1="22.2111" y1="23.3326" x2="44.6901" y2="45.8117" gradientUnits="userSpaceOnUse">
<stop stop-color="white"/>
<stop offset="1" stop-color="white" stop-opacity="0"/>
</linearGradient>
<linearGradient id="paint2_linear_867_18908" x1="46.3442" y1="10.0229" x2="73.0735" y2="36.7523" gradientUnits="userSpaceOnUse">
<stop stop-color="white"/>
<stop offset="1" stop-color="white" stop-opacity="0"/>
</linearGradient>
<radialGradient id="paint3_radial_867_18908" cx="0" cy="0" r="1" gradientUnits="userSpaceOnUse" gradientTransform="translate(32.9885 93.8532) scale(22.6717 15.1755)">
<stop stop-color="white"/>
<stop offset="1" stop-color="white" stop-opacity="0"/>
</radialGradient>
<radialGradient id="paint4_radial_867_18908" cx="0" cy="0" r="1" gradientUnits="userSpaceOnUse" gradientTransform="translate(44.9424 94.397) scale(28.9272 19.3627)">
<stop stop-color="white"/>
<stop offset="1" stop-color="white" stop-opacity="0"/>
</radialGradient>
<radialGradient id="paint5_radial_867_18908" cx="0" cy="0" r="1" gradientUnits="userSpaceOnUse" gradientTransform="translate(81.6593 59.3668) scale(16.1628 6.84263)">
<stop stop-color="white"/>
<stop offset="1" stop-color="white" stop-opacity="0"/>
</radialGradient>
<radialGradient id="paint6_radial_867_18908" cx="0" cy="0" r="1" gradientUnits="userSpaceOnUse" gradientTransform="translate(85.0807 61.2538) scale(16.1628 6.84263)">
<stop stop-color="white"/>
<stop offset="1" stop-color="white" stop-opacity="0"/>
</radialGradient>
<linearGradient id="paint7_linear_867_18908" x1="91.1563" y1="71.1344" x2="91.2153" y2="74.1133" gradientUnits="userSpaceOnUse">
<stop stop-color="white"/>
<stop offset="1" stop-color="white" stop-opacity="0"/>
</linearGradient>
<linearGradient id="paint8_linear_867_18908" x1="91.2743" y1="70.7926" x2="91.2743" y2="75.3157" gradientUnits="userSpaceOnUse">
<stop stop-color="white"/>
<stop offset="1" stop-color="white" stop-opacity="0"/>
</linearGradient>
<radialGradient id="paint9_radial_867_18908" cx="0" cy="0" r="1" gradientUnits="userSpaceOnUse" gradientTransform="translate(90.1388 76.178) scale(6.65092 0.982643)">
<stop stop-color="white"/>
<stop offset="1" stop-color="white" stop-opacity="0"/>
</radialGradient>
<linearGradient id="paint10_linear_867_18908" x1="81.8187" y1="79.9693" x2="83.285" y2="82.5601" gradientUnits="userSpaceOnUse">
<stop stop-color="white"/>
<stop offset="1" stop-color="white" stop-opacity="0"/>
</linearGradient>
<linearGradient id="paint11_linear_867_18908" x1="81.2672" y1="79.0518" x2="83.3127" y2="83.086" gradientUnits="userSpaceOnUse">
<stop stop-color="white"/>
<stop offset="1" stop-color="white" stop-opacity="0"/>
</linearGradient>
<radialGradient id="paint12_radial_867_18908" cx="0" cy="0" r="1" gradientUnits="userSpaceOnUse" gradientTransform="translate(83.7072 84.6663) rotate(-26.8861) scale(2.87567 0.982642)">
<stop stop-color="white"/>
<stop offset="1" stop-color="white" stop-opacity="0"/>
</radialGradient>
<radialGradient id="paint13_radial_867_18908" cx="0" cy="0" r="1" gradientUnits="userSpaceOnUse" gradientTransform="translate(24.8536 70.5689) scale(10.7358 4.3704)">
<stop stop-color="white" stop-opacity="0.330049"/>
<stop offset="1" stop-color="white" stop-opacity="0"/>
</radialGradient>
<linearGradient id="paint14_linear_867_18908" x1="25.3999" y1="79.5146" x2="25.9012" y2="81.6347" gradientUnits="userSpaceOnUse">
<stop stop-color="white"/>
<stop offset="1" stop-color="white" stop-opacity="0"/>
</linearGradient>
<linearGradient id="paint15_linear_867_18908" x1="25.4236" y1="79.254" x2="26.1316" y2="82.4785" gradientUnits="userSpaceOnUse">
<stop stop-color="white"/>
<stop offset="1" stop-color="white" stop-opacity="0"/>
</linearGradient>
<radialGradient id="paint16_radial_867_18908" cx="0" cy="0" r="1" gradientUnits="userSpaceOnUse" gradientTransform="translate(25.1339 85.825) rotate(-15.4869) scale(6.07516 2.27303)">
<stop stop-color="white"/>
<stop offset="1" stop-color="white" stop-opacity="0"/>
</radialGradient>
<radialGradient id="paint17_radial_867_18908" cx="0" cy="0" r="1" gradientUnits="userSpaceOnUse" gradientTransform="translate(53.8284 11.7148) scale(84.0597 82.7332)">
<stop stop-color="white"/>
<stop offset="1" stop-color="white" stop-opacity="0"/>
</radialGradient>
<linearGradient id="paint18_linear_867_18908" x1="29.2578" y1="75.905" x2="54.4919" y2="82.577" gradientUnits="userSpaceOnUse">
<stop stop-color="white"/>
<stop offset="1" stop-color="white" stop-opacity="0"/>
</linearGradient>
<linearGradient id="paint19_linear_867_18908" x1="42.6344" y1="60.5652" x2="39.7999" y2="67.0597" gradientUnits="userSpaceOnUse">
<stop stop-color="#EEEEEC"/>
<stop offset="1" stop-color="#EEEEEC" stop-opacity="0"/>
</linearGradient>
<radialGradient id="paint20_radial_867_18908" cx="0" cy="0" r="1" gradientUnits="userSpaceOnUse" gradientTransform="translate(66.5552 78.6834) scale(13.2104 16.7883)">
<stop stop-color="white"/>
<stop offset="1" stop-color="white" stop-opacity="0"/>
</radialGradient>
<linearGradient id="paint21_linear_867_18908" x1="19.9037" y1="62.7816" x2="23.8738" y2="65.9358" gradientUnits="userSpaceOnUse">
<stop stop-color="white"/>
<stop offset="1" stop-color="white" stop-opacity="0"/>
</linearGradient>
<linearGradient id="paint22_linear_867_18908" x1="66.3749" y1="79.9671" x2="54.5791" y2="48.207" gradientUnits="userSpaceOnUse">
<stop stop-color="#729FCF"/>
<stop offset="1" stop-color="#729FCF" stop-opacity="0"/>
</linearGradient>
<clipPath id="clip0_867_18908">
<rect width="100" height="100" fill="white"/>
</clipPath>
</defs>
</svg>
