<svg width="100" height="100" viewBox="0 0 100 100" fill="none" xmlns="http://www.w3.org/2000/svg">
<g clip-path="url(#clip0_867_18840)">
<path d="M49.9999 97.4578C76.2102 97.4578 97.4577 76.2103 97.4577 50C97.4577 23.79 76.2102 2.54248 49.9999 2.54248C23.7899 2.54248 2.54236 23.79 2.54236 50C2.54236 76.2103 23.7899 97.4578 49.9999 97.4578Z" fill="white"/>
<path d="M50.0002 0C22.386 0 0.000244141 22.3857 0.000244141 50C0.000244141 77.6144 22.386 100 50.0002 100C77.6146 100 100 77.6144 100 50C100 22.3857 77.6146 0 50.0002 0ZM50.0002 5.08475C74.8062 5.08475 94.9156 25.194 94.9156 50C94.9156 74.8059 74.8062 94.9153 50.0002 94.9153C25.1942 94.9153 5.08499 74.8059 5.08499 50C5.08499 25.194 25.1942 5.08475 50.0002 5.08475Z" fill="#4000BF"/>
<path fill-rule="evenodd" clip-rule="evenodd" d="M50.5652 14.407C70.223 14.407 86.1587 30.3425 86.1587 50.0003C86.1587 69.6578 70.223 85.5935 50.5652 85.5935C30.9078 85.5935 14.9722 69.6578 14.9722 50.0003C14.9722 45.1959 15.9239 40.6141 17.6493 36.4328C20.1685 39.8635 24.2312 42.0906 28.814 42.0906C36.4587 42.0906 42.6559 35.8935 42.6559 28.2488C42.6559 23.666 40.4287 19.6034 36.9977 17.0842C41.1793 15.3588 45.7612 14.407 50.5652 14.407Z" fill="url(#paint0_linear_867_18840)"/>
</g>
<defs>
<linearGradient id="paint0_linear_867_18840" x1="50.5652" y1="85.5935" x2="50.5652" y2="14.407" gradientUnits="userSpaceOnUse">
<stop stop-color="#7400E1"/>
<stop offset="1" stop-color="#4000BF"/>
</linearGradient>
<clipPath id="clip0_867_18840">
<rect width="100" height="100" fill="white"/>
</clipPath>
</defs>
</svg>
