<svg width="100" height="100" viewBox="0 0 100 100" fill="none" xmlns="http://www.w3.org/2000/svg">
<path d="M23.0839 81.9253C23.0839 81.9253 32.4172 80.8837 32.938 80.717C33.4589 80.542 43.1464 81.0587 43.1464 81.0587L49.3672 82.617L55.0755 84.692L56.6297 85.2128L65.1005 82.0962L75.3089 80.542L82.2214 80.7128L87.5797 81.4045L89.8297 82.0962L89.6547 91.4378L84.988 90.2253L75.9922 89.5337L69.7672 90.0503L64.4089 91.2628L59.5714 92.8212L56.113 94.2045L48.8464 91.4378L40.0297 89.7045H29.8255L23.0839 90.917V81.9253Z" fill="#858599" fill-opacity="0.5"/>
<path d="M56.0838 95.833C40.3629 87.1746 23.6671 92.3663 23.5004 92.4205L21.6129 93.0205V81.1038L22.6129 80.7788C23.3379 80.5455 40.6296 75.1371 57.4713 84.408L56.0838 86.9371C42.5671 79.4955 28.3337 82.2913 24.5004 83.2496V89.1663C29.5129 87.9746 43.6463 85.6913 57.4713 93.3038L56.0838 95.833Z" fill="#858599"/>
<path d="M55.8882 95.8324L54.4966 93.3033C68.3257 85.6908 82.4549 87.9741 87.4716 89.1658V83.2533C83.6382 82.2908 69.4007 79.5033 55.8882 86.9408L54.4966 84.4116C71.3382 75.1408 88.6299 80.5491 89.3549 80.7866L90.3549 81.1074V93.0324L88.4716 92.4199C88.3049 92.3658 71.6132 87.1783 55.8882 95.8324Z" fill="#858599"/>
<path d="M73.9837 68.6505C73.9906 68.1478 73.8969 67.6489 73.7079 67.183C73.519 66.7172 73.2388 66.2938 72.8837 65.938C72.5463 65.5829 72.1366 65.3043 71.6823 65.121C71.228 64.9377 70.7397 64.854 70.2504 64.8755C69.2367 64.9407 68.2821 65.375 67.567 66.0963C66.8379 66.9797 66.4837 67.9005 66.4879 68.9505C66.4801 69.4385 66.5705 69.9231 66.7538 70.3755C66.937 70.8279 67.2093 71.2388 67.5545 71.5838C68.2837 72.363 69.1795 72.7172 70.2379 72.6463C71.2629 72.6463 72.1503 72.2297 72.8754 71.4255C73.5898 70.6763 73.9895 69.6815 73.992 68.6463L73.9837 68.6505ZM44.8712 71.4297C45.5863 70.6974 45.9818 69.7115 45.9712 68.688C45.9785 67.6408 45.5883 66.6297 44.8795 65.8588C44.1538 65.2176 43.2098 64.8791 42.242 64.913C41.2463 64.9879 40.3032 65.3892 39.5587 66.0547C38.8437 66.8327 38.4493 67.8522 38.4545 68.9088C38.4545 69.9505 38.8254 70.8463 39.5545 71.588C40.2629 72.3672 41.1504 72.7172 42.2045 72.6505C43.2879 72.6172 44.167 72.2338 44.867 71.4297H44.8712Z" fill="#858599" fill-opacity="0.5"/>
<path d="M55.8339 81.8736C52.9464 81.8736 50.1089 81.632 47.938 81.0736C42.0922 79.5736 37.438 76.8653 33.7172 72.7986C29.8464 68.5611 29.6005 64.482 29.3422 60.1611C29.3089 59.607 29.2755 59.0486 29.2339 58.4736C28.888 53.6945 26.6255 46.2195 26.6047 46.1486L26.4255 45.5611L26.7839 45.0653C29.9587 40.6573 34.3069 37.2287 39.3339 35.1695C44.0339 33.2111 49.6255 32.1861 56.438 32.0361C67.7755 31.3736 80.138 36.0903 85.838 43.2528L86.1964 43.707L83.613 55.7486C83.588 56.3945 83.3964 59.782 82.463 66.707C81.3672 74.8195 71.3464 79.4611 66.2005 80.7778C63.5839 81.4528 59.6589 81.8736 55.8339 81.8736ZM29.1255 46.0278C29.6839 47.9445 31.3672 53.9945 31.6797 58.2945C31.7214 58.8736 31.7547 59.4486 31.788 60.0111C32.038 64.2195 32.2422 67.5486 35.5214 71.1445C38.9172 74.8528 43.1755 77.3278 48.5422 78.7028C53.0922 79.8695 61.2964 79.5111 65.588 78.407C69.2839 77.457 79.088 73.4486 80.038 66.3695C81.038 58.9278 81.1714 55.5653 81.1755 55.5361V55.4278L83.5589 44.3278C79.8089 37.1278 77.588 35.6528 72.8172 33.8528C67.7922 31.957 61.663 34.1653 56.5547 34.4695H56.513C43.488 34.7528 33.938 30.5736 29.1214 46.0236L29.1255 46.0278Z" fill="#858599"/>
<path d="M81.4374 45.2568C82.3666 47.6443 82.7582 48.8402 83.6291 51.0318C83.6291 51.0318 85.9291 47.336 86.6582 44.6902C87.3874 42.0193 86.9416 38.6152 86.3666 35.436C84.9332 30.0943 83.8166 29.6818 79.5041 26.5193C77.456 25.1324 75.271 23.9596 72.9832 23.0193C67.8757 21.0641 62.4881 19.9387 57.0249 19.686C51.5961 19.6159 46.1912 20.4178 41.0166 22.061C38.687 22.854 36.4492 23.8947 34.3416 25.1652C29.8624 28.061 26.7457 32.1402 25.0082 37.3818C24.5416 39.3527 23.7999 41.2443 23.9874 43.0693C24.8207 51.4443 30.2874 55.1235 29.9124 53.1068C29.4249 50.5027 29.7374 48.9652 30.4082 46.4735C31.6749 41.7652 34.6791 38.286 39.4207 36.0693H39.4374C40.3582 35.811 45.0374 33.1527 51.2457 36.3277C52.8957 37.036 55.7791 38.9485 57.2207 38.9027C58.6666 38.861 60.7457 37.4652 62.2624 36.5193C65.1082 34.736 67.8041 34.1277 71.3624 35.2568C76.5416 36.8818 79.7166 40.561 81.4374 45.2568Z" fill="#858599"/>
<path d="M5.0712 41.0828L8.96287 42.2245L13.4254 41.9953L16.6337 39.8203L20.0712 36.7286L22.5879 33.2911L25.7962 29.9703L28.8837 28.0245L33.117 27.1078L30.2545 32.1453L27.8504 34.5453L22.8129 41.5286L20.5254 44.9661L17.892 46.7995L14.1129 49.3161C14.1129 49.3161 10.792 50.0036 10.4504 50.1161C10.1129 50.2328 7.36287 50.6911 7.36287 50.6911L4.9587 50.5745L3.12537 50.0036L4.84203 46.5661L5.07537 44.0495V41.0745L5.0712 41.0828Z" fill="#858599" fill-opacity="0.5"/>
<path d="M15.0296 21.285L14.6838 23.91L13.7671 25.7475L12.6255 27.4642L9.75879 29.1809L13.1963 30.8975L16.9755 32.385L20.8671 33.1892L22.5838 33.3059L26.7088 30.4392L31.0546 26.5475L29.5671 26.0892L24.1921 25.5184L20.1796 24.0267L17.3171 22.5434L15.0255 21.285H15.0296Z" fill="#858599" fill-opacity="0.5"/>
<path d="M6.33787 51.6633C5.12953 51.6633 3.85453 51.5883 2.51703 51.4508L0.000366211 51.1591L1.24203 50.3675L1.90453 49.6466C1.9962 49.5091 2.2587 49.0466 2.6962 48.0758V48.0675C3.40453 46.5466 3.6462 44.005 3.4337 40.5133L3.2837 38.1633L5.0962 39.6633C6.98787 41.23 9.36287 41.605 12.3462 40.7966C15.0129 40.0383 17.917 37.5466 20.9629 33.405C23.767 29.3716 27.7962 26.6383 32.9629 25.2716L33.4462 25.1425L36.7087 27.6841L33.7754 27.4758C33.4919 27.7445 33.2261 28.0312 32.9795 28.3341L32.9212 28.405L32.8462 28.4716C31.1629 31.4633 28.7545 34.4133 26.3462 37.6425L26.3129 37.7008C25.942 38.3508 25.5629 39.0216 25.1504 39.6883V39.7258L25.017 39.9383C22.5504 43.9466 19.8379 46.9508 16.9545 48.8758C14.3087 50.73 10.7462 51.6633 6.33787 51.6633ZM4.25453 49.5591C9.22953 49.88 13.1045 49.0925 15.7962 47.1966L15.817 47.1841C18.4254 45.4466 20.9129 42.6925 23.2045 39.0008C23.2431 38.8888 23.3009 38.7845 23.3754 38.6925C23.7837 38.03 24.167 37.355 24.542 36.6925C26.1754 33.5675 28.0504 30.7841 30.1379 28.405C27.0212 29.78 24.5504 31.8216 22.6379 34.5758L22.6212 34.6008C19.2545 39.1883 16.0712 41.8591 12.9004 42.7591C10.0962 43.5175 7.63787 43.3841 5.55037 42.3633C5.59203 45.2383 5.26703 47.3925 4.56287 48.9175C4.45453 49.1591 4.35453 49.3675 4.26287 49.555H4.25453V49.5591Z" fill="#858599"/>
<path d="M6.57083 51.6608C5.3625 51.6608 4.0875 51.5858 2.75 51.4483L2.95833 49.4233C8.67083 50.0274 13.0625 49.2774 16.025 47.1941L16.05 47.1816C18.6583 45.4441 21.1417 42.6899 23.4333 39.0024C23.4997 38.8157 23.6131 38.6493 23.7625 38.5191L25.0958 40.0608C25.2653 39.9089 25.3722 39.6995 25.3958 39.4733L25.375 39.7149L25.25 39.9316C22.7833 43.9399 20.0708 46.9441 17.1875 48.8691C14.5375 50.7233 10.9792 51.6608 6.57083 51.6608ZM23.9625 32.1524C23.531 32.1818 23.0989 32.204 22.6667 32.2191C19.2375 32.3399 15.5833 31.3858 11.7708 29.3774C15.0708 27.2441 15.9917 24.8108 15.8625 22.6233C16.65 23.2483 17.4708 23.7941 18.325 24.2608C23.9292 27.4191 29.85 27.9191 39.9708 25.0858L39.2833 23.1691C29.6667 25.8233 24.4583 25.3858 19.3125 22.4816C17.8068 21.6529 16.446 20.5848 15.2833 19.3191L15.1458 19.1691L13.0625 16.9108L13.4542 19.8149C13.5125 20.0566 14.7042 25.7191 9.24583 28.4816L7.5875 29.3191L9.18333 30.2691C13.6542 32.9274 17.9917 34.2691 22.075 34.2691L23.9625 32.1524ZM49.7083 63.3733C49.379 63.3656 49.0591 63.2617 48.7881 63.0744C48.5171 62.887 48.3069 62.6245 48.1833 62.3191C46.825 59.2149 45.7583 57.9233 44.1458 55.9649C42.5208 53.9899 39.05 50.6441 38.4792 50.1608C37.7125 49.5108 37.4958 48.6274 37.9542 48.0149C38.1833 47.7149 38.8667 47.1024 40.2708 48.0358C43.1167 49.9191 49.4292 55.5858 51.1375 60.1358C51.7625 61.7899 51.1375 62.9149 50.3 63.2566C50.1112 63.3349 49.9086 63.3746 49.7042 63.3733H49.7083ZM61.9875 63.4566C61.7783 63.4566 61.5714 63.4141 61.3792 63.3316C60.5417 62.9774 59.9375 61.8441 60.5792 60.1983C62.3458 55.6733 68.7333 50.0858 71.6 48.2399C73.0167 47.3233 73.6917 47.9399 73.9167 48.2483C74.3708 48.8608 74.1417 49.7399 73.3708 50.3816C72.7917 50.8608 69.2792 54.1524 67.625 56.1149C65.9917 58.0524 64.9125 59.3316 63.5083 62.4191C63.3839 62.7212 63.1742 62.9805 62.9049 63.1655C62.6356 63.3504 62.3183 63.453 61.9917 63.4608V63.4524L61.9875 63.4566Z" fill="#858599"/>
<path d="M68.2589 13.8176C68.3006 11.4592 67.1547 9.42591 64.8131 7.72591C62.4381 6.05924 59.5964 5.21758 56.2922 5.19258C52.9922 5.16758 50.1631 5.98008 47.8297 7.63841C45.4839 9.30924 44.2881 11.3217 44.2589 13.6592C44.2672 14.3926 44.3297 15.0592 44.4256 15.6842C53.1756 12.8676 61.0131 13.1009 67.9256 16.3801C68.1131 15.5051 68.2256 14.6592 68.2589 13.8176Z" fill="#858599" fill-opacity="0.5"/>
<path d="M31.6671 61.3175L31.6254 61.2175C31.5105 60.9567 31.4103 60.6896 31.3254 60.4175L31.0796 59.63L29.4629 59.6842L29.3379 61.0425C29.3462 61.0967 29.3754 61.2259 29.4046 61.4592V61.505C29.4171 61.5884 29.4212 61.655 29.4379 61.7217C29.4594 62.0525 29.4095 62.3841 29.2916 62.6939C29.1737 63.0038 28.9905 63.2847 28.7546 63.5175C28.2879 64.0175 27.6796 64.2342 26.8796 64.2009C25.8796 64.1592 25.5462 63.7634 25.3879 63.4675C24.9504 62.6759 24.9212 62.255 24.9421 62.0675C25.0046 61.555 25.1087 61.0092 25.2629 60.4634C25.4921 59.605 25.3171 58.6134 24.7379 57.5134L24.1421 56.38C23.8871 55.8708 23.6913 55.3339 23.5587 54.78C23.437 54.1457 23.4684 53.4914 23.6504 52.8717C23.8128 52.2346 24.2044 51.6797 24.7504 51.3134C25.3625 50.9197 26.1003 50.771 26.8171 50.8967L26.8796 50.905H26.9421C27.7421 50.905 28.3962 50.9884 28.8962 51.1175C28.7525 50.3204 28.7147 49.5079 28.7837 48.7009C28.2779 48.4831 27.7455 48.3332 27.2004 48.255H27.1671L26.7712 48.2217C25.5696 48.1136 24.3646 48.3893 23.3296 49.0092C22.1962 49.6759 21.4296 50.6509 21.0629 51.9259C20.7448 53.0307 20.7019 54.1965 20.9379 55.3217C20.9712 55.4925 21.0087 55.6967 21.0754 55.8884C21.2546 56.4509 21.5462 57.0759 21.9504 57.7467C22.5671 58.7592 22.7546 59.0925 22.8046 59.205L22.8254 59.2425C22.9004 59.38 22.9171 59.5925 22.8671 59.8675L22.8462 59.9634C22.8018 60.2028 22.7546 60.4417 22.7046 60.68C22.2254 61.9217 22.1754 63.0717 22.5546 64.0759C22.7223 64.5777 22.9876 65.0414 23.3351 65.4404C23.6826 65.8394 24.1055 66.1658 24.5796 66.4009C25.1379 66.6759 25.7796 66.8509 26.4962 66.9217C26.8879 66.9634 27.2962 66.9634 27.7212 66.9425C28.3796 66.9216 29.0226 66.7378 29.5926 66.4077C30.1626 66.0776 30.642 65.6115 30.9879 65.0509C31.3442 64.5256 31.5906 63.9337 31.7124 63.3107C31.8341 62.6878 31.8286 62.0466 31.6962 61.4259L31.6796 61.3175H31.6671ZM91.3546 50.2467C90.998 49.0097 90.1647 47.9651 89.0379 47.3425C88.0352 46.7562 86.869 46.501 85.7129 46.6134L85.5837 46.6259L85.1962 46.6717H85.1629C84.3856 46.8088 83.64 47.087 82.9629 47.4925C83.0538 48.2736 83.0313 49.0637 82.8962 49.8384L83.3129 49.6717C83.8462 49.4509 84.5712 49.2759 85.5296 49.13L85.5837 49.1217C85.9242 49.0427 86.2779 49.0402 86.6194 49.1144C86.961 49.1886 87.2818 49.3377 87.5587 49.5509C88.2046 50.0217 88.6421 50.6092 88.8921 51.3342C89.1004 52.0175 89.1296 52.605 88.9837 53.1259C88.8288 53.7101 88.6282 54.2813 88.3837 54.8342C88.1309 55.3723 87.8656 55.9044 87.5879 56.43C87.1908 57.1541 87.0416 57.9882 87.1629 58.805C87.2629 59.5384 87.3712 60.1467 87.4879 60.6634C87.5656 61.1254 87.5137 61.5999 87.3379 62.0342L87.3254 62.0592C87.1712 62.5467 86.3462 62.8092 85.8671 62.9259C84.7712 63.1884 84.2796 62.7884 83.9879 62.4259C83.503 61.8256 83.2474 61.0723 83.2671 60.3009L83.2837 60.08C83.2956 59.9498 83.3151 59.8204 83.3421 59.6925L83.3087 58.2884L81.5129 58.33L81.3212 59.1009C81.2527 59.3685 81.1635 59.6304 81.0546 59.8842L81.0087 59.9967L80.9879 60.1175C80.7796 61.3967 81.0421 62.6092 81.7671 63.7342L81.7837 63.7592C82.5754 64.9009 83.7129 65.5342 85.0629 65.58C85.4254 65.6009 85.7712 65.5884 86.1046 65.5634C86.9046 65.4884 87.6171 65.2759 88.2254 64.9384C89.1398 64.4224 89.8236 63.5777 90.1379 62.5759C90.4921 61.5259 90.4212 60.38 89.9296 59.1759L89.8046 58.4634L89.7962 58.4092C89.7411 58.1586 89.7629 57.8972 89.8587 57.6592C90.0462 57.2092 90.3004 56.6884 90.6129 56.0967C91.0212 55.3759 91.2879 54.7634 91.4296 54.2467C91.5 54.0417 91.5462 53.8291 91.5671 53.6134C91.7563 52.492 91.6807 51.3419 91.3462 50.255L91.3546 50.2467ZM69.1254 16.055C69.2629 15.2842 69.3462 14.5592 69.3754 13.8342C69.4254 11.1342 68.1212 8.79669 65.5004 6.88836C62.9629 5.10919 59.9004 4.19669 56.4004 4.16752C52.8879 4.13419 49.8379 5.03002 47.3337 6.80502C44.7171 8.68002 43.3712 10.98 43.3337 13.6509V13.6759C43.3421 14.2092 43.3754 14.7425 43.4421 15.3009C43.2063 15.5668 43.0669 15.9044 43.0462 16.2592V16.3009C43.0462 17.2009 43.1796 18.105 43.4504 18.98L43.4546 19.005C43.8296 20.1092 44.4754 21.1634 45.3712 22.13L45.6337 22.4134L47.9962 22.6759C50.0171 23.8509 52.7129 24.48 56.0296 24.5384H56.4587C58.9046 24.5384 61.0421 24.2384 62.8212 23.6509L62.8671 23.6342C63.5337 23.3717 64.1837 23.0592 64.8046 22.7009C66.6879 22.88 68.1004 21.9509 68.8254 20.0634L69.0046 19.8717L68.9962 19.6009C69.2754 18.7467 69.7671 17.0675 69.1254 16.055ZM48.5129 8.45919C50.6546 6.93836 53.3004 6.18002 56.3796 6.20086C59.4629 6.22586 62.1296 7.01752 64.3087 8.54252C66.3796 10.0467 67.3712 11.7675 67.3379 13.7717C67.3212 14.1425 67.2962 14.5217 67.2421 14.9134C63.6975 13.44 59.8931 12.6933 56.0546 12.7175C52.6546 12.7175 49.0962 13.2592 45.3962 14.3425C45.3832 14.1136 45.3749 13.8843 45.3712 13.655C45.3962 11.6467 46.4254 9.94669 48.5129 8.45919ZM67.3171 18.0134L66.6296 19.5009C66.6296 19.5009 65.7337 20.7967 64.7546 20.6342L64.3712 20.5717L64.0462 20.7759C63.4463 21.1479 62.813 21.4631 62.1546 21.7175C60.5004 22.2592 58.4462 22.5175 56.0629 22.4842C53.1129 22.4259 50.7462 21.9009 49.0296 20.9009L48.8754 20.8134L48.6754 20.6884L46.6296 20.4634C46.2379 20.005 45.6879 19.0467 45.6879 19.0467L45.1254 17.4134L45.0921 16.5634C53.3754 13.955 60.8837 14.1717 67.4046 17.2092C67.4129 17.33 67.3171 18.0134 67.3171 18.0134ZM67.9296 19.53V19.5134L67.9421 19.53H67.9296Z" fill="#858599"/>
</svg>
