<svg width="100" height="100" viewBox="0 0 100 100" fill="none" xmlns="http://www.w3.org/2000/svg">
<g clip-path="url(#clip0_867_18831)">
<path d="M90.9348 0H9.06524C4.05859 0 0 4.05859 0 9.06524V90.9348C0 95.9414 4.05859 100 9.06524 100H90.9348C95.9414 100 100 95.9414 100 90.9348V9.06524C100 4.05859 95.9414 0 90.9348 0Z" fill="#DC395F"/>
<path d="M33.4199 31.463C36.7441 31.463 39.5289 28.8575 39.5289 25.4426C39.5289 22.0301 36.7441 19.425 33.4199 19.425C30.0957 19.425 27.3117 22.0301 27.3117 25.4426C27.3117 28.8571 30.0957 31.463 33.4199 31.463ZM20.7535 63.6974C20.3945 65.2248 20.2145 66.874 20.2145 68.2193C20.2145 73.5205 23.0891 77.0396 29.198 77.0396C34.2645 77.0396 38.3719 74.031 41.3293 69.1728L39.5234 76.4201H49.584L55.334 53.3579C56.7715 47.5189 59.5563 44.488 63.7789 44.488C67.1027 44.488 69.1688 46.5552 69.1688 49.9677C69.1688 50.9564 69.0789 52.0333 68.7195 53.2017L65.7547 63.8021C65.3055 65.3294 65.1266 66.8576 65.1266 68.2939C65.1266 73.3263 68.0902 77.0072 74.2891 77.0072C79.5895 77.0072 83.8113 73.5951 86.1473 65.4197L82.1949 63.8939C80.2184 69.3709 78.5113 70.3611 77.1637 70.3611C75.816 70.3611 75.0973 69.4634 75.0973 67.6677C75.0973 66.8591 75.2777 65.9619 75.5465 64.8814L78.4219 54.554C79.1402 52.129 79.4102 49.9786 79.4102 48.0028C79.4102 40.277 74.7383 36.245 69.0789 36.245C63.7789 36.245 58.3883 41.0259 55.6938 46.0575L57.6695 37.0263H42.3086L40.1523 44.981H47.3395L42.9137 62.6997C39.4383 70.4255 33.0543 70.5509 32.2531 70.3716C30.9375 70.0748 30.0961 69.5751 30.0961 67.8658C30.0961 66.8794 30.2758 65.4626 30.725 63.7544L37.4633 37.0263H20.3945L18.2383 44.981H25.3348L20.7539 63.6974" fill="white"/>
</g>
<defs>
<clipPath id="clip0_867_18831">
<rect width="100" height="100" fill="white"/>
</clipPath>
</defs>
</svg>
