<svg width="100" height="100" viewBox="0 0 100 100" fill="none" xmlns="http://www.w3.org/2000/svg">
<g clip-path="url(#clip0_867_18816)">
<path fill-rule="evenodd" clip-rule="evenodd" d="M95.1022 28.2993L95.5103 29.2517C98.5034 35.8503 100 42.7891 100 50C100 77.5509 77.5509 100 50 100C22.449 100 0 77.5509 0 50C0 22.449 22.449 0 50 0C58.0953 0 65.7822 1.90476 72.8572 5.44219L73.8094 5.91838L72.9931 6.59863C70.9525 8.23128 69.3878 10.2721 68.3675 12.6531L68.0953 13.3333L67.4831 13.0612C61.9728 10.4762 56.1225 9.11566 50 9.11566C27.415 9.11566 9.11566 27.415 9.11566 50C9.11566 72.585 27.415 90.8844 50 90.8844C72.585 90.8844 90.8844 72.5169 90.8844 50C90.8844 44.6259 89.8641 39.3197 87.755 34.3538L87.4831 33.6734L88.1631 33.4013C90.5441 32.5169 92.7209 31.0204 94.4219 29.1157L95.1022 28.2993ZM82.7209 29.2518C88.4694 29.2518 93.1294 24.5919 93.1294 18.8436C93.1294 13.0953 88.4694 8.43544 82.7209 8.43544C76.9728 8.43544 72.3128 13.0953 72.3128 18.8436C72.3128 24.5919 76.9728 29.2518 82.7209 29.2518ZM49.9997 27.2111C37.4147 27.2111 27.2106 37.415 27.2106 50.0003C27.2106 62.5853 37.4147 72.7894 49.9997 72.7894C62.5847 72.7894 72.7887 62.5853 72.7887 50.0003C72.7887 37.415 62.5847 27.2111 49.9997 27.2111Z" fill="#3880FF"/>
</g>
<defs>
<clipPath id="clip0_867_18816">
<rect width="100" height="100" fill="white"/>
</clipPath>
</defs>
</svg>
