<svg width="100" height="100" viewBox="0 0 100 100" fill="none" xmlns="http://www.w3.org/2000/svg">
<g clip-path="url(#clip0_867_21864)">
<path d="M36.7528 77.3358C36.7528 77.3358 32.9315 79.5579 39.4724 80.3099C47.3967 81.2138 51.4464 81.0844 60.1791 79.4314C60.1791 79.4314 62.4751 80.871 65.6811 82.118C46.1053 90.5078 21.3767 81.6319 36.7528 77.3358ZM34.3606 66.3873C34.3606 66.3873 30.0746 69.56 36.6204 70.237C45.0853 71.1102 51.7701 71.1817 63.3377 68.9543C63.3377 68.9543 64.9376 70.5763 67.4534 71.4634C43.7847 78.3845 17.4222 72.0092 34.3606 66.3873Z" fill="#5382A1"/>
<path d="M54.5268 47.8154C59.3504 53.3687 53.2595 58.3661 53.2595 58.3661C53.2595 58.3661 65.5071 52.0435 59.8823 44.1259C54.629 36.7427 50.6001 33.0737 72.4099 20.425C72.4099 20.425 38.1759 28.975 54.5268 47.8151" fill="#E76F00"/>
<path d="M80.4175 85.4339C80.4175 85.4339 83.2454 87.7638 77.303 89.5665C66.0036 92.9897 30.2732 94.0233 20.3473 89.7029C16.7794 88.151 23.4705 85.9968 25.5752 85.5445C27.7701 85.0685 29.0247 85.1574 29.0247 85.1574C25.0566 82.362 3.37677 90.6462 18.0125 93.0183C57.9258 99.4912 90.7704 90.1039 80.4175 85.4339ZM38.5901 55.0436C38.5901 55.0436 20.4156 59.3606 32.1543 60.9279C37.1105 61.5915 46.9909 61.4415 56.1944 60.6702C63.7159 60.0361 71.2685 58.6869 71.2685 58.6869C71.2685 58.6869 68.6163 59.8227 66.6976 61.1329C48.2414 65.9869 12.5875 63.7288 22.8518 58.7636C31.5324 54.5676 38.5904 55.0436 38.5904 55.0436H38.5901ZM71.1935 73.2676C89.9554 63.5183 81.2806 54.1495 75.2258 55.4119C73.7417 55.7206 73.0801 55.9881 73.0801 55.9881C73.0801 55.9881 73.6311 55.1253 74.6833 54.7518C86.6613 50.5405 95.8735 67.172 70.8165 73.759C70.8165 73.7593 71.1069 73.4998 71.1935 73.2676Z" fill="#5382A1"/>
<path d="M59.882 0.000289532C59.882 0.000289532 70.2726 10.3946 50.0271 26.3772C33.7926 39.1985 46.3251 46.5086 50.0205 54.8609C40.544 46.3109 33.5893 38.7841 38.2552 31.7791C45.103 21.4957 64.0742 16.5102 59.882 0" fill="#E76F00"/>
<path d="M40.4336 99.6856C58.4425 100.839 86.0969 99.046 86.7518 90.5248C86.7518 90.5248 85.4929 93.7554 71.8685 96.3207C56.4977 99.2131 37.54 98.8755 26.2959 97.0216C26.2962 97.0216 28.5977 98.9267 40.4339 99.6856" fill="#5382A1"/>
</g>
<defs>
<clipPath id="clip0_867_21864">
<rect width="100" height="100" fill="white"/>
</clipPath>
</defs>
</svg>
