<svg width="100" height="100" viewBox="0 0 100 100" fill="none" xmlns="http://www.w3.org/2000/svg">
<path d="M89.8774 49.2358C89.8774 44.0954 85.71 39.9279 80.5696 39.9279C80.2386 39.9279 79.9127 39.9456 79.591 39.9796L92.3754 2.27332H38.046L50.8127 39.9467C50.6243 39.9348 50.4356 39.9287 50.2469 39.9282C45.1064 39.9282 40.939 44.095 40.939 49.2361C40.939 53.3912 43.6623 56.9092 47.4205 58.1061C45.4356 61.5443 42.9377 64.6414 40.1017 67.3172C36.2454 70.955 31.832 73.7137 27.0587 75.4133C21.3754 72.4938 18.6918 66.0009 21.1132 60.3081C21.3868 59.6651 21.666 59.0135 21.9328 58.3647C26.0499 57.4038 29.1183 53.7129 29.1183 49.3027C29.1183 44.162 24.9508 39.9949 19.8101 39.9949C14.6693 39.9949 10.5022 44.162 10.5022 49.3027C10.5022 52.4551 12.0704 55.2397 14.468 56.9234C12.1643 62.1687 8.77773 67.6584 7.72258 74.0209C6.45802 81.6458 7.71832 89.7398 14.3132 94.3108C29.6721 104.956 46.3441 87.7116 63.9224 83.3766C70.293 81.8059 77.2861 82.0589 82.8988 78.8084C87.1138 76.3672 89.8927 72.3212 90.681 67.7792C91.4605 63.2922 90.3246 58.8246 87.7126 55.2021C89.1139 53.5301 89.8805 51.4174 89.8774 49.2358Z" fill="#99425B"/>
<path d="M88.4415 67.3902C87.757 71.3337 85.3214 74.778 81.7598 76.8412C78.4395 78.7641 74.4609 79.3381 70.2481 79.9454C67.9914 80.2706 65.6579 80.6076 63.3782 81.1695C57.3506 82.6559 51.5122 85.556 45.8665 88.3604C34.5674 93.9727 24.8095 98.8191 15.6087 92.4421C8.86887 87.7711 9.17996 79.1287 9.96512 74.3929C10.6929 70.005 12.6604 65.9641 14.5627 62.0563C14.8868 61.3922 15.2083 60.7268 15.5272 60.0601C16.4861 60.4434 17.4923 60.6959 18.5187 60.8105C16.582 67.202 19.6277 74.1516 26.0199 77.4354L26.895 77.885L27.8212 77.5552C32.8748 75.7552 37.5316 72.8676 41.6619 68.9704C44.3316 66.4516 46.6273 63.6649 48.514 60.6872C49.0876 60.7738 49.6669 60.8172 50.2469 60.8173C56.1141 60.8173 60.9724 56.4312 61.7243 50.7664C64.1259 50.6785 66.6766 50.6778 69.0919 50.7657C69.8431 56.4312 74.7022 60.8176 80.5693 60.8176C83.0226 60.8176 85.298 60.0488 87.1727 58.7427C88.4741 61.4068 88.9599 64.4044 88.4415 67.3902ZM19.8105 42.2681C23.6895 42.2681 26.8451 45.424 26.8451 49.3031C26.8451 50.6962 26.4362 51.9955 25.7343 53.0896C24.5651 54.9133 22.5774 56.1633 20.2938 56.3192C20.134 56.3299 19.9728 56.3377 19.8105 56.3377C18.946 56.3377 18.1179 56.18 17.3523 55.8937C15.8102 55.3138 14.5189 54.214 13.701 52.7839C13.0937 51.7244 12.7746 50.5243 12.7756 49.3031C12.7756 45.424 15.9314 42.2681 19.8105 42.2681ZM43.2127 49.2361C43.2127 45.7117 45.818 42.7854 49.2031 42.2795C49.544 42.2281 49.8926 42.2015 50.2473 42.2015C52.5025 42.2015 54.5104 43.2698 55.798 44.9251C56.1205 45.3379 56.396 45.7853 56.6193 46.2591C57.0566 47.1906 57.2828 48.2071 57.2819 49.2361C57.2819 49.7984 57.2139 50.3451 57.0888 50.8695C56.4032 53.7395 53.9559 55.9334 50.957 56.2352C50.7239 56.2586 50.4872 56.2707 50.2473 56.2707C48.8942 56.2718 47.5698 55.8803 46.4349 55.1436C44.4982 53.889 43.2127 51.7103 43.2127 49.2361ZM72.5731 40.8707C71.0423 42.3319 69.9406 44.1842 69.3874 46.2269C66.7359 46.1291 64.0817 46.1291 61.4302 46.2269C60.835 44.0188 59.6012 42.0708 57.9413 40.5911L65.2207 25.8721L72.5731 40.8707ZM41.2168 4.54729H89.2043L77.8701 37.9752C77.3825 38.092 76.903 38.2406 76.4348 38.4199L65.2384 15.5796L54.0101 38.2835C53.5207 38.1155 53.0204 37.9806 52.5128 37.8799L41.2168 4.54729ZM87.6039 49.2365C87.6039 49.9415 87.4987 50.6225 87.3048 51.2656C86.845 52.7796 85.8901 54.0954 84.5933 55.0019C83.4146 55.8291 82.0093 56.2723 80.5693 56.271C77.3213 56.271 74.5814 54.0576 73.7756 51.0601C73.6157 50.4654 73.5346 49.8523 73.5347 49.2365C73.5347 48.2748 73.7289 47.3579 74.0797 46.5224C74.2607 46.0949 74.4835 45.6864 74.745 45.3028C76.011 43.4342 78.1472 42.2019 80.5693 42.2019C80.7915 42.2019 81.0104 42.2132 81.2276 42.2337C84.7991 42.5665 87.6042 45.5792 87.6042 49.2365H87.6039ZM92.1508 49.2365C92.1508 43.5823 88.0769 38.8646 82.7111 37.8569L95.5466 0H34.8753L47.7306 37.9334C42.5512 39.086 38.6661 43.7144 38.6661 49.2361C38.6661 53.3823 40.8572 57.024 44.141 59.0705C42.5615 61.4239 40.6886 63.6383 38.5421 65.6636C35.1378 68.8748 31.3456 71.3103 27.2572 72.9129C23.1389 70.326 21.3982 65.4475 23.2059 61.1978L23.3476 60.8647L23.6134 60.2397C28.1366 58.662 31.3917 54.357 31.3917 49.3031C31.3917 42.9169 26.1963 37.7215 19.8105 37.7215C13.4247 37.7215 8.22862 42.9169 8.22862 49.3031C8.22862 52.5263 9.55376 55.4451 11.686 57.5469C11.2883 58.3895 10.8847 59.2293 10.475 60.0661C8.52518 64.0702 6.31567 68.6087 5.47984 73.6488C3.82022 83.6582 6.49743 91.6598 13.0186 96.1791C16.9756 98.9215 20.9943 100 25.0381 100C32.6523 100 40.3551 96.1745 47.889 92.4322C53.3146 89.7376 58.9252 86.9509 64.4671 85.584C66.5292 85.0755 68.6508 84.7694 70.8972 84.4455C75.352 83.8028 79.9581 83.1385 84.0384 80.7755C88.7682 78.036 92.0056 73.4405 92.9211 68.1683C93.707 63.6419 92.7613 59.1084 90.4547 55.2634C91.5661 53.4496 92.1532 51.3633 92.1508 49.2361V49.2365Z" fill="white"/>
</svg>
