<svg width="100" height="100" viewBox="0 0 100 100" fill="none" xmlns="http://www.w3.org/2000/svg">
<mask id="mask0_867_18782" style="mask-type:alpha" maskUnits="userSpaceOnUse" x="2" y="0" width="97" height="93">
<path d="M20.9814 4.68541C36.4615 26.4366 61.4374 38.3897 86.2737 33.7697C88.0334 33.4441 89.9403 32.8628 91.9247 32.0953C95.692 30.6458 100.63 36.5526 97.7695 39.4052C95.8781 41.2966 94.0642 43.0252 92.4441 44.4593C81.2584 54.3892 68.91 63.3423 55.4531 71.1095C41.9109 78.931 27.8881 85.1788 13.6095 89.9073C11.6096 90.5662 9.29185 91.2484 6.78806 91.9228C2.88896 92.977 0.245643 85.7524 3.39282 83.2176C5.06719 81.8689 6.54 80.4968 7.71051 79.1325C24.1208 59.9316 25.5781 32.762 14.1909 8.60776C13.6948 7.56129 13.1522 6.29001 12.5863 4.90246C11.005 1.04213 15.625 -1.81049 18.3303 1.3677C19.4 2.62347 20.3302 3.77072 20.9814 4.68541Z" fill="#FFB000"/>
</mask>
<g mask="url(#mask0_867_18782)">
<g clip-path="url(#paint0_diamond_867_18782_clip_path)" data-figma-skip-parse="true"><g transform="matrix(0.0472425 0.0814119 -0.105663 0.0613154 59.7905 80.9891)"><rect x="0" y="0" width="1712.78" height="1273.78" fill="url(#paint0_diamond_867_18782)" opacity="1" shape-rendering="crispEdges"/><rect x="0" y="0" width="1712.78" height="1273.78" transform="scale(1 -1)" fill="url(#paint0_diamond_867_18782)" opacity="1" shape-rendering="crispEdges"/><rect x="0" y="0" width="1712.78" height="1273.78" transform="scale(-1 1)" fill="url(#paint0_diamond_867_18782)" opacity="1" shape-rendering="crispEdges"/><rect x="0" y="0" width="1712.78" height="1273.78" transform="scale(-1)" fill="url(#paint0_diamond_867_18782)" opacity="1" shape-rendering="crispEdges"/></g></g><path d="M167.969 124.643L40.4927 204.609L-48.3882 37.3431L79.0883 -42.6309L167.969 124.643Z" data-figma-gradient-fill="{&#34;type&#34;:&#34;GRADIENT_DIAMOND&#34;,&#34;stops&#34;:[{&#34;color&#34;:{&#34;r&#34;:0.15294118225574493,&#34;g&#34;:0.69803923368453979,&#34;b&#34;:0.94117647409439087,&#34;a&#34;:1.0},&#34;position&#34;:0.0},{&#34;color&#34;:{&#34;r&#34;:0.14901961386203766,&#34;g&#34;:0.87450981140136719,&#34;b&#34;:0.98431372642517090,&#34;a&#34;:1.0},&#34;position&#34;:0.20000000298023224},{&#34;color&#34;:{&#34;r&#34;:0.18823529779911041,&#34;g&#34;:0.96078431606292725,&#34;b&#34;:0.99607843160629272,&#34;a&#34;:1.0},&#34;position&#34;:0.40999999642372131},{&#34;color&#34;:{&#34;r&#34;:0.94117647409439087,&#34;g&#34;:0.99607843160629272,&#34;b&#34;:0.98823529481887817,&#34;a&#34;:1.0},&#34;position&#34;:0.64999997615814209},{&#34;color&#34;:{&#34;r&#34;:0.98431372642517090,&#34;g&#34;:0.77647060155868530,&#34;b&#34;:0.062745101749897003,&#34;a&#34;:1.0},&#34;position&#34;:0.86000001430511475},{&#34;color&#34;:{&#34;r&#34;:0.99215686321258545,&#34;g&#34;:0.61176472902297974,&#34;b&#34;:0.13333334028720856,&#34;a&#34;:1.0},&#34;position&#34;:1.0}],&#34;stopsVar&#34;:[{&#34;color&#34;:{&#34;r&#34;:0.15294118225574493,&#34;g&#34;:0.69803923368453979,&#34;b&#34;:0.94117647409439087,&#34;a&#34;:1.0},&#34;position&#34;:0.0},{&#34;color&#34;:{&#34;r&#34;:0.14901961386203766,&#34;g&#34;:0.87450981140136719,&#34;b&#34;:0.98431372642517090,&#34;a&#34;:1.0},&#34;position&#34;:0.20000000298023224},{&#34;color&#34;:{&#34;r&#34;:0.18823529779911041,&#34;g&#34;:0.96078431606292725,&#34;b&#34;:0.99607843160629272,&#34;a&#34;:1.0},&#34;position&#34;:0.40999999642372131},{&#34;color&#34;:{&#34;r&#34;:0.94117647409439087,&#34;g&#34;:0.99607843160629272,&#34;b&#34;:0.98823529481887817,&#34;a&#34;:1.0},&#34;position&#34;:0.64999997615814209},{&#34;color&#34;:{&#34;r&#34;:0.98431372642517090,&#34;g&#34;:0.77647060155868530,&#34;b&#34;:0.062745101749897003,&#34;a&#34;:1.0},&#34;position&#34;:0.86000001430511475},{&#34;color&#34;:{&#34;r&#34;:0.99215686321258545,&#34;g&#34;:0.61176472902297974,&#34;b&#34;:0.13333334028720856,&#34;a&#34;:1.0},&#34;position&#34;:1.0}],&#34;transform&#34;:{&#34;m00&#34;:94.484909057617188,&#34;m01&#34;:-211.3269042968750,&#34;m02&#34;:118.21147155761719,&#34;m10&#34;:162.82380676269531,&#34;m11&#34;:122.63072967529297,&#34;m12&#34;:-61.738204956054688},&#34;opacity&#34;:1.0,&#34;blendMode&#34;:&#34;NORMAL&#34;,&#34;visible&#34;:true}"/>
</g>
<path d="M83.9172 57.1022C73.6695 69.7297 71.5068 83.3106 73.4369 94.9536C73.4757 95.1629 73.5067 95.4032 73.5455 95.659C74.0571 99.1473 69.9409 101.294 67.1581 99.1318C67.0185 99.0232 66.879 98.9147 66.7472 98.8139C57.3987 91.6979 46.3758 86.3415 31.7019 88.0314C40.5853 85.4268 49.6703 81.5742 58.5382 76.4504C68.2821 70.8226 76.8244 64.2182 83.9172 57.1099V57.1022Z" fill="url(#paint1_linear_867_18782)"/>
<defs>
<clipPath id="paint0_diamond_867_18782_clip_path"><path d="M167.969 124.643L40.4927 204.609L-48.3882 37.3431L79.0883 -42.6309L167.969 124.643Z"/></clipPath><linearGradient id="paint0_diamond_867_18782" x1="0" y1="0" x2="500" y2="500" gradientUnits="userSpaceOnUse">
<stop stop-color="#27B2F0"/>
<stop offset="0.2" stop-color="#26DFFB"/>
<stop offset="0.41" stop-color="#30F5FE"/>
<stop offset="0.65" stop-color="#F0FEFC"/>
<stop offset="0.86" stop-color="#FBC610"/>
<stop offset="1" stop-color="#FD9C22"/>
</linearGradient>
<linearGradient id="paint1_linear_867_18782" x1="31.6942" y1="78.5511" x2="83.9172" y2="78.5511" gradientUnits="userSpaceOnUse">
<stop stop-color="#1C6FFF"/>
<stop offset="1" stop-color="#24B5EF"/>
</linearGradient>
</defs>
</svg>
