<svg width="100" height="100" viewBox="0 0 100 100" fill="none" xmlns="http://www.w3.org/2000/svg">
<path d="M5.85743 68.0259C5.95326 68.2426 6.06159 68.4426 6.17826 68.6426C6.23243 68.7593 6.30743 68.8801 6.3741 68.9884C6.48243 69.2051 6.5991 69.4134 6.7116 69.6218L7.36577 70.7218C7.48661 70.9259 7.60328 71.1259 7.74078 71.3259C7.96995 71.7176 8.24078 72.1009 8.47829 72.4926C8.58662 72.6551 8.68662 72.8176 8.80746 72.9801C9.26579 73.6926 9.68247 74.2843 10.1283 74.8593C10.445 75.2885 10.7616 75.7093 11.1033 76.1302C11.2158 76.2885 11.3408 76.4468 11.4575 76.6052L12.3783 77.7218C12.4908 77.851 12.6033 78.001 12.7242 78.1343C13.1325 78.626 13.5658 79.101 13.9992 79.5844C13.9992 79.5927 14.0117 79.601 14.02 79.6135C14.5575 80.2885 15.1367 80.8885 15.77 81.4219L15.7867 81.4385C16.12 81.7802 16.4534 82.1177 16.8075 82.451L17.2284 82.8552C17.6909 83.2886 18.1534 83.7177 18.6409 84.1344C18.6492 84.1344 18.6534 84.1427 18.6617 84.1469L18.8992 84.3552C19.3242 84.7261 19.7534 85.0927 20.1909 85.4344L20.7118 85.8719C21.0659 86.1552 21.4326 86.4219 21.7951 86.7011L22.3618 87.1344C22.7493 87.4261 23.1618 87.7094 23.5576 87.9928C23.7034 88.0969 23.8493 88.2011 23.9993 88.2969L24.1201 88.3928L25.291 89.1594L25.791 89.4928C26.4035 89.8844 27.0118 90.2511 27.6202 90.6178C27.7952 90.7053 27.9702 90.8011 28.1327 90.9011C28.5827 91.1595 29.0493 91.422 29.5035 91.6595C29.7535 91.8011 30.0119 91.922 30.2702 92.0511C30.5827 92.2261 30.9077 92.397 31.241 92.572C31.3327 92.6011 31.4077 92.6303 31.4827 92.672L31.4994 92.6553C31.6369 92.7178 31.766 92.7845 31.8994 92.8511C32.3994 93.1011 32.9202 93.3386 33.4619 93.572C33.5619 93.6136 33.6702 93.6553 33.7786 93.7136C34.3786 93.9762 34.9786 94.2262 35.5994 94.4678C35.7411 94.5095 35.8911 94.5803 36.0369 94.6345C36.5994 94.847 37.1786 95.0637 37.7536 95.2678L37.9619 95.3428C38.5994 95.5595 39.2286 95.7678 39.8786 95.9637C40.0286 96.0053 40.1828 96.0595 40.3411 96.1012C41.0036 96.3012 41.6453 96.5387 42.3162 96.6637C85.1208 104.426 97.5584 71.0551 97.5584 71.0551C87.1083 84.5969 68.5623 88.1678 50.9996 84.1927C50.3496 84.0427 49.6996 83.8344 49.0412 83.6427C48.112 83.3797 47.1908 83.0893 46.2787 82.7719L46.6745 82.8927L46.4162 82.7927C45.8495 82.601 45.3037 82.3885 44.7495 82.176C44.6139 82.1185 44.4763 82.0657 44.337 82.0177L44.2912 82.0052C43.6787 81.7594 43.0828 81.5094 42.4912 81.2469C42.362 81.2052 42.2536 81.1469 42.1245 81.0969C41.4237 80.7915 40.7291 80.4719 40.0411 80.1385L40.6161 80.3927C40.4661 80.3264 40.3188 80.2541 40.1745 80.176C39.7828 79.9927 39.3911 79.7844 39.0078 79.5885C38.7158 79.4502 38.4282 79.3029 38.1453 79.1468L38.2286 79.1885C37.7578 78.9385 37.2869 78.6677 36.8119 78.4135C36.6703 78.3135 36.5078 78.2302 36.3453 78.1385C35.6392 77.7281 34.9418 77.303 34.2536 76.8635L34.5161 77.0218C34.3397 76.9129 34.1673 76.7975 33.9994 76.676L34.0244 76.6927C33.5766 76.4176 33.1374 76.1286 32.7077 75.826C32.566 75.7343 32.4369 75.6343 32.291 75.5343C31.8421 75.2279 31.4003 74.9111 30.966 74.5843L31.066 74.6551C30.891 74.5135 30.7035 74.3801 30.516 74.2426C30.1494 73.9551 29.7785 73.6801 29.4118 73.3801L28.9202 72.9885C28.3962 72.5715 27.8821 72.1423 27.3785 71.701L27.3743 71.6968L25.9285 70.3843L25.5118 69.9926C25.1701 69.6468 24.8201 69.3176 24.4701 68.9759L24.066 68.5593C23.6346 68.132 23.2136 67.6944 22.8034 67.2467L22.7784 67.2176L22.7076 67.1592C22.2664 66.6747 21.8317 66.1844 21.4034 65.6884C21.2909 65.5592 21.1868 65.4217 21.0701 65.2842L20.1242 64.1384C19.6979 63.6028 19.2811 63.0597 18.8742 62.5092L18.7076 62.2759C8.96579 49.0424 5.44075 30.7797 13.2367 15.7963L6.35326 24.5005C-2.501 37.1631 -1.40515 53.6299 5.36575 67.0759C5.51992 67.4051 5.69076 67.7134 5.85743 68.0259Z" fill="#1266A9"/>
<path d="M35.6786 49.784L35.6328 49.7174L35.5952 49.6674L35.6786 49.784Z" fill="black"/>
<path d="M40.3368 55.2506L40.7118 55.6256C41.1868 56.0839 41.6744 56.5298 42.1702 56.9756L42.2327 57.0298C42.7327 57.4715 43.2952 57.934 43.8744 58.384L43.9619 58.4506C44.1035 58.5465 44.2244 58.659 44.3619 58.7548C44.9452 59.2048 45.5327 59.634 46.1452 60.0632L46.2077 60.1007C46.4661 60.2882 46.7411 60.459 47.0327 60.6423C47.1494 60.7173 47.2827 60.8173 47.4077 60.8923C47.8494 61.1757 48.2827 61.4382 48.7286 61.709C48.7994 61.7382 48.8619 61.7757 48.9286 61.8048C49.3036 62.034 49.7119 62.2548 50.1036 62.4548C50.2411 62.5382 50.3744 62.6007 50.5161 62.6798C50.7953 62.8173 51.0703 62.9632 51.3369 63.1048L51.4703 63.1632C52.0328 63.4382 52.6078 63.6965 53.1703 63.9507C53.312 64.0049 53.4328 64.0507 53.5536 64.109C54.0161 64.309 54.487 64.5007 54.9495 64.6757C55.1578 64.7465 55.3536 64.8299 55.5495 64.8924C55.9745 65.0507 56.4203 65.1965 56.8412 65.3424L57.4245 65.5299C58.0328 65.7174 58.6495 65.9632 59.2954 66.0632C92.3498 71.5049 99.9999 46.1838 99.9999 46.1838C93.1124 56.0464 79.7831 60.7465 65.5788 57.0756C64.8697 56.8968 64.1665 56.6953 63.4704 56.4715L63.7079 56.5381C63.5079 56.4839 63.3329 56.4214 63.1412 56.3631C62.7079 56.2131 62.2621 56.0673 61.8412 55.9131L61.2412 55.6881C60.7745 55.5006 60.2995 55.3256 59.8454 55.1256C59.7037 55.0631 59.5745 55.0214 59.4662 54.9589C58.8829 54.6964 58.2953 54.4381 57.7245 54.1631L56.8662 53.7173L56.3703 53.4673C55.987 53.2673 55.6328 53.0589 55.2661 52.8464C55.1726 52.8025 55.0822 52.7524 54.9953 52.6964L55.0078 52.7006C54.5661 52.4256 54.1078 52.1589 53.6828 51.8797C53.5411 51.8006 53.412 51.7047 53.2786 51.6214L52.412 51.0589C51.812 50.6422 51.2244 50.1964 50.6286 49.7631C50.4953 49.6422 50.3661 49.5422 50.2369 49.4339C43.991 44.5463 39.066 37.8671 36.7285 30.3045C34.2659 22.4419 34.8076 13.6252 39.0618 6.47095L33.8326 13.8377C27.4117 23.0086 27.7742 35.2671 32.7743 44.9672C33.6868 46.7589 34.6118 48.2714 35.6326 49.713C36.5826 51.0714 37.6326 52.6631 38.8993 53.7548C39.3493 54.2673 39.8327 54.7548 40.3368 55.2506Z" fill="#1266A9"/>
<path d="M56.9414 5.86254C53.1539 11.3918 52.7913 18.2585 55.3997 24.3544C58.1706 30.8294 63.8331 35.9128 70.4332 38.3212C70.704 38.4254 70.9666 38.5129 71.2457 38.6129L71.6124 38.7254C71.9957 38.8462 72.3832 38.9879 72.7791 39.0754C91.0334 42.5796 95.9752 29.7503 97.3043 27.8628C92.9585 34.0711 85.6709 35.5628 76.7291 33.4003C75.9516 33.2107 75.1863 32.9742 74.4374 32.692L74.5749 32.7378C73.6431 32.4153 72.7304 32.0397 71.8416 31.6128L71.9999 31.6836C70.2915 30.8503 68.8249 29.9503 67.4623 28.9169C59.4706 22.8752 54.5289 11.3709 59.7456 2L56.9414 5.86254Z" fill="#1266A9"/>
</svg>
