<svg width="100" height="100" viewBox="0 0 100 100" fill="none" xmlns="http://www.w3.org/2000/svg">
<g clip-path="url(#clip0_867_19910)">
<path d="M81.25 -0.000488281H18.75C8.39466 -0.000488281 0 8.39417 0 18.7495V81.2495C0 91.6049 8.39466 99.9995 18.75 99.9995H81.25C91.6053 99.9995 100 91.6049 100 81.2495V18.7495C100 8.39417 91.6053 -0.000488281 81.25 -0.000488281Z" fill="#FAEBD7"/>
<path d="M15.5273 0.312012C11.6992 0.995605 8.49609 2.63623 5.70312 5.35107C3.22266 7.75342 1.54297 10.644 0.546875 14.2573L0.0976562 15.9175V49.9995V84.0815L0.527344 85.7222C2.38281 92.6167 7.32422 97.5581 14.2578 99.4526L15.918 99.9019H50H84.082L85.7422 99.4526C92.6172 97.5776 97.6172 92.5776 99.4531 85.7417L99.9023 84.0815V49.9995C99.9023 12.1479 100 15.2144 98.6133 11.7378C96.6016 6.6792 92.0117 2.46045 86.7188 0.800293C84.1211 -0.000488281 84.1211 -0.000488281 49.8242 0.019043C22.3633 0.0385742 16.8359 0.0776367 15.5273 0.312012ZM84.1406 4.99951C85 5.17529 86.4258 5.68311 87.5 6.19092C89.0625 6.95264 89.6094 7.34326 91.1328 8.8667C92.6562 10.3901 93.0469 10.937 93.8086 12.4995C95.4297 15.8589 95.332 13.2222 95.2734 50.6831C95.1953 87.8511 95.332 84.4331 93.75 87.6167C92.4219 90.3511 89.4531 93.105 86.6211 94.2769C84.0625 95.3511 85.332 95.312 50 95.312C14.668 95.312 15.9375 95.3511 13.3789 94.2769C10.5469 93.105 7.57812 90.3511 6.25 87.6167C4.66797 84.4331 4.80469 87.8511 4.72656 50.6831C4.66797 13.2026 4.57031 15.8198 6.19141 12.4995C6.95312 10.937 7.36328 10.3706 8.86719 8.8667C10.3906 7.34326 10.9375 6.95264 12.5 6.19092C15.7617 4.60889 13.1445 4.72607 49.8633 4.70654C78.8281 4.68701 82.8125 4.72607 84.1406 4.99951Z" fill="#2F4F4F"/>
<path d="M34.1406 31.6792L34.082 48.3394L29.9414 48.3979L25.7812 48.437V42.187V35.937H21.582H17.3828V41.269V46.5815L20.3711 49.5698L23.3398 52.5386H29.9805H36.6211L39.5117 49.6479L42.3828 46.7769V30.8979V15.0386H38.2812H34.1797L34.1406 31.6792Z" fill="#2F4F4F"/>
<path d="M53.75 18.0269L50.7812 20.9956V25.2925V29.5894L57.0312 35.8394L63.2812 42.0894V45.2534V48.437H61.3281H59.375L55.2734 46.3862C53.0273 45.2534 51.0938 44.3354 50.9766 44.3354C50.8594 44.3354 50.7812 44.8433 50.7812 45.4683V46.5815L53.7695 49.5698L56.7383 52.5386H61.2305H65.7227L68.7109 49.5503L71.6797 46.5815V42.2847V37.9878L65.4297 31.7378L59.1797 25.4878V22.3237V19.1401H61.2305H63.2812L67.3828 21.1909C69.6289 22.3237 71.5234 23.2417 71.582 23.2417C71.6406 23.2417 71.6797 22.7339 71.6797 22.1089V20.9956L68.6914 18.0073L65.7227 15.0386H61.2305H56.7383L53.75 18.0269Z" fill="#2F4F4F"/>
<path d="M16.4062 73.4369V87.4994H24.2188H32.0312V85.9369V84.3744H27.3438H22.6562V71.8744V59.3744H19.5312H16.4062V73.4369Z" fill="#2F4F4F"/>
<path d="M38.2812 60.937V62.4995H41.4062H44.5312V60.937V59.3745H41.4062H38.2812V60.937Z" fill="#2F4F4F"/>
<path d="M75.7812 62.4994V65.6244H74.2188H72.6562V67.1869V68.7494H74.2188H75.7812V75.9369V83.1049L77.9883 85.3119L80.1758 87.4994H82.6758H85.1562V85.9369V84.3744H83.5938H82.0312V76.5619V68.7494H83.5938H85.1562V67.1869V65.6244H83.5938H82.0312V62.4994V59.3744H78.9062H75.7812V62.4994Z" fill="#2F4F4F"/>
<path d="M38.2812 76.5619V87.4994H41.4062H44.5312V76.5619V65.6244H41.4062H38.2812V76.5619Z" fill="#2F4F4F"/>
<path d="M50.7812 76.5619V87.4994H53.9062H57.0312V78.1244V68.7494H60.1562H63.2812V78.1244V87.4994H66.4062H69.5312V78.7494V70.0189L67.3242 67.8119L65.1367 65.6244H57.9492H50.7812V76.5619Z" fill="#2F4F4F"/>
</g>
<defs>
<clipPath id="clip0_867_19910">
<rect width="100" height="100" fill="white"/>
</clipPath>
</defs>
</svg>
