<svg width="100" height="100" viewBox="0 0 100 100" fill="none" xmlns="http://www.w3.org/2000/svg">
<g clip-path="url(#clip0_867_21625)">
<path d="M49.9152 74.4375C72.0391 104.597 93.6902 66.0195 93.6582 42.8203C93.6211 15.3922 65.8203 0.0625 49.8973 0.0625C24.3395 0.0621094 0 21.1844 0 50.0844C0 82.207 27.9004 100 49.8973 100C44.9195 99.2832 28.3309 95.7289 28.1082 57.5207C27.9578 31.6793 36.5379 21.3547 49.8613 25.8965C50.1598 26.007 64.5574 31.6867 64.5574 50.2402C64.5574 68.7152 49.9152 74.4371 49.9152 74.4371V74.4375Z" fill="url(#paint0_linear_867_21625)"/>
<path d="M49.8893 25.8752C35.2705 20.8365 17.3623 32.8854 17.3623 57.0182C17.3623 96.4232 46.5627 99.9998 50.1026 99.9998C75.6604 99.9998 99.9998 78.8771 99.9998 49.9775C99.9998 17.8549 72.0994 0.0619558 50.1026 0.0619558C56.1951 -0.781794 82.9405 6.6557 82.9405 43.2096C82.9405 67.0478 62.9701 80.0252 49.9811 74.4807C49.6826 74.3701 35.2846 68.6904 35.2846 50.1369C35.2846 31.6615 49.8893 25.8752 49.8893 25.8752Z" fill="url(#paint1_linear_867_21625)"/>
</g>
<defs>
<linearGradient id="paint0_linear_867_21625" x1="14.7896" y1="14.7903" x2="89.4888" y2="80.3966" gradientUnits="userSpaceOnUse">
<stop/>
<stop offset="1" stop-color="white"/>
</linearGradient>
<linearGradient id="paint1_linear_867_21625" x1="85.2375" y1="85.2368" x2="4.38639" y2="30.0243" gradientUnits="userSpaceOnUse">
<stop/>
<stop offset="1" stop-color="white"/>
</linearGradient>
<clipPath id="clip0_867_21625">
<rect width="100" height="100" fill="white"/>
</clipPath>
</defs>
</svg>
