<svg width="100" height="100" viewBox="0 0 100 100" fill="none" xmlns="http://www.w3.org/2000/svg">
<path fill-rule="evenodd" clip-rule="evenodd" d="M82.2415 24.0674C82.9207 23.1966 83.5165 22.4008 84.1457 21.6299C84.4374 21.2674 84.4124 20.9924 84.129 20.6133C81.3999 17.0258 81.1415 13.0424 82.7124 9.00077C83.8915 5.9591 86.4999 4.5341 89.6874 4.22994C91.6749 4.04244 93.6249 4.2466 95.4332 5.21327C97.8082 6.4841 99.1915 8.4216 99.6415 11.0966C99.9999 13.2299 99.9332 15.3133 99.329 17.3799C98.2582 21.0383 95.629 22.9341 92.0249 23.4133C89.0332 23.8133 85.9999 23.8633 82.9832 24.0674C82.7499 24.0841 82.5124 24.0674 82.2415 24.0674Z" fill="#027AFF"/>
<path fill-rule="evenodd" clip-rule="evenodd" d="M74.8417 7.68262H56.8167L42.5459 40.2243H22.3709V7.82428H6.25002V91.666H22.375V56.3451H50.8084C53.2102 56.345 55.5619 55.6586 57.5868 54.3668C59.6116 53.075 61.2252 51.2315 62.2375 49.0535V91.666H78.3625V56.3451C78.3628 52.2717 76.8215 48.3491 74.0481 45.3655C71.2748 42.382 67.4751 40.5586 63.4125 40.2618V40.2201H54.5584C56.6918 39.4913 58.6522 38.3308 60.3175 36.8111C61.9828 35.2913 63.3172 33.4449 64.2375 31.3868L74.8417 7.68262Z" fill="black"/>
</svg>
