<svg width="100" height="100" viewBox="0 0 100 100" fill="none" xmlns="http://www.w3.org/2000/svg">
<g clip-path="url(#clip0_867_18732)">
<path d="M22.5502 57.3962C24.6644 50.933 27.4548 44.7111 30.8752 38.8337C44.0835 15.9504 63.3544 2.34621 73.9169 8.44205C50.1585 -5.27462 19.1585 3.93372 4.67521 29.017C2.94665 32.0097 1.50015 35.1565 0.354381 38.417C-0.724786 41.4962 0.737715 44.8087 3.56271 46.442L22.5502 57.4004V57.3962Z" fill="url(#paint0_radial_867_18732)"/>
<path d="M77.4502 42.3506C75.3348 48.814 72.543 55.036 69.121 60.9131C55.9127 83.7964 36.6418 97.4048 26.0793 91.3048C49.8418 105.026 80.8418 95.8131 95.3252 70.7298C97.0532 67.7383 98.4997 64.5929 99.646 61.3339C100.725 58.2589 99.2627 54.9423 96.4377 53.3131L77.4502 42.3548V42.3506Z" fill="url(#paint1_radial_867_18732)"/>
<path d="M69.1252 60.9171C82.3335 38.0338 84.4835 14.5421 73.9168 8.44214C63.3627 2.3463 44.0918 15.9588 30.8752 38.8338C39.5168 23.8755 55.0793 16.688 65.6418 22.7838C76.2002 28.8838 77.7585 45.9505 69.121 60.913L69.1252 60.9171Z" fill="url(#paint2_linear_867_18732)"/>
<path d="M30.875 38.835C17.6666 61.7183 15.5166 85.21 26.0833 91.3058C36.6416 97.4058 55.9125 83.7975 69.125 60.9141C60.4833 75.8766 44.9208 83.0641 34.3583 76.9641C23.8 70.8683 22.2416 53.7975 30.8791 38.8391L30.875 38.835Z" fill="url(#paint3_linear_867_18732)"/>
</g>
<defs>
<radialGradient id="paint0_radial_867_18732" cx="0" cy="0" r="1" gradientUnits="userSpaceOnUse" gradientTransform="translate(21.5544 56.8212) rotate(-59.132) scale(60.7279 83.22)">
<stop offset="0.095" stop-color="#FFF959"/>
<stop offset="0.326" stop-color="#0DF35E"/>
<stop offset="0.64" stop-color="#0BF2F9"/>
<stop offset="1" stop-color="#04A6F0"/>
</radialGradient>
<radialGradient id="paint1_radial_867_18732" cx="0" cy="0" r="1" gradientUnits="userSpaceOnUse" gradientTransform="translate(78.4429 42.9255) rotate(120.868) scale(60.7279 83.22)">
<stop offset="0.095" stop-color="#FFF959"/>
<stop offset="0.326" stop-color="#0DF35E"/>
<stop offset="0.64" stop-color="#0BF2F9"/>
<stop offset="1" stop-color="#04A6F0"/>
</radialGradient>
<linearGradient id="paint2_linear_867_18732" x1="64.9085" y1="7.49213" x2="75.2585" y2="41.088" gradientUnits="userSpaceOnUse">
<stop stop-color="#003EFF"/>
<stop offset="1" stop-color="#0BFFE7"/>
</linearGradient>
<linearGradient id="paint3_linear_867_18732" x1="35.0916" y1="92.26" x2="24.7416" y2="58.6641" gradientUnits="userSpaceOnUse">
<stop stop-color="#003EFF"/>
<stop offset="1" stop-color="#0BFFE7"/>
</linearGradient>
<clipPath id="clip0_867_18732">
<rect width="100" height="100" fill="white"/>
</clipPath>
</defs>
</svg>
