<svg width="100" height="100" viewBox="0 0 100 100" fill="none" xmlns="http://www.w3.org/2000/svg">
<g clip-path="url(#clip0_868_39461)">
<path fill-rule="evenodd" clip-rule="evenodd" d="M44.4983 0.0728903C53.6847 -0.140746 63.8983 0.0456177 73.1346 1.58198C84.2574 3.43198 93.4937 11.6229 97.1301 22.1865C98.0028 24.7319 98.6664 28.291 99.1301 32.8501C100.426 45.7819 100.348 59.4501 98.3846 72.8682C96.4573 85.9955 85.4301 96.5636 72.4301 98.55C68.8392 99.0955 63.8438 99.5818 57.4574 100H43.1392C36.3665 99.6591 30.8802 99.1364 26.6802 98.4227C21.3802 97.5227 16.5256 95.1818 12.112 91.3909C6.25748 86.3637 2.73475 80.0137 1.55294 72.3546C1.07924 69.1087 0.715401 65.8478 0.46203 62.5773C-0.101605 55.7364 -0.0879688 47.5683 0.175667 41.4865C0.375667 36.791 0.839302 32.0637 1.57112 27.3001C3.23475 16.4683 10.6438 7.37742 20.9347 3.24107C23.8756 2.05925 27.762 1.24107 32.5802 0.804707C36.5418 0.424199 40.5154 0.180115 44.4938 0.0728903H44.4983ZM42.562 11.4229C38.0029 10.1501 33.6302 9.65015 29.6393 9.96833C27.6308 10.1125 25.647 10.4971 23.7302 11.1138C17.0711 13.2956 12.5166 18.2501 10.7711 25.2001C9.80292 29.041 9.72565 33.4001 10.5302 38.0683C11.3166 42.6228 12.9347 47.4001 15.312 52.1637C20.2756 62.1273 28.2847 71.5273 37.7756 78.5409C42.0029 81.6637 46.4256 84.2409 50.8665 86.1637C55.9756 88.3727 61.0165 89.6818 65.721 90.0273C69.5756 90.3 73.1528 89.9227 76.321 88.9C81.0392 87.3773 84.7392 84.4591 87.121 80.3818C88.9301 77.2909 89.9528 73.591 90.1346 69.45L90.1528 68.991C90.173 68.3108 90.173 67.6302 90.1528 66.9501L90.121 66.3637C89.9164 62.3682 88.9983 58.1092 87.3983 53.7501C85.5866 48.8988 83.1885 44.2874 80.2574 40.0183C74.3332 31.3409 66.6982 23.9658 57.821 18.3456C52.7847 15.1865 47.6029 12.8365 42.562 11.4229Z" fill="url(#paint0_radial_868_39461)"/>
</g>
<defs>
<radialGradient id="paint0_radial_868_39461" cx="0" cy="0" r="1" gradientUnits="userSpaceOnUse" gradientTransform="translate(49.9983 50.0001) rotate(136.332) scale(69.1222 101.072)">
<stop offset="0.413" stop-color="#CBFF00"/>
<stop offset="0.678" stop-color="#7EF426"/>
</radialGradient>
<clipPath id="clip0_868_39461">
<rect width="100" height="100" fill="white"/>
</clipPath>
</defs>
</svg>
