<svg width="100" height="100" viewBox="0 0 100 100" fill="none" xmlns="http://www.w3.org/2000/svg">
<g clip-path="url(#clip0_867_19926)">
<path d="M91.2519 23.4978C90.6801 21.6681 89.3079 20.1815 87.5926 19.2667L52.7145 2.57092C51.7996 2.1135 50.7704 1.99915 49.8556 1.99915C48.9408 1.99915 47.9116 1.99915 46.9967 2.22785L12.1186 19.038C10.4033 19.8384 9.14542 21.325 8.688 23.2691L0.111422 60.8917C-0.231641 62.8357 0.225777 64.7797 1.36932 66.3807L25.4981 96.2272C26.8704 97.5994 28.8144 98.5143 30.7584 98.6286H69.1815C71.2399 98.8573 73.1839 97.9425 74.4418 96.2272L98.5706 66.3807C99.7141 64.7797 100.172 62.8357 99.9428 60.8917L91.2519 23.4978Z" fill="white" stroke="white" stroke-width="5" stroke-miterlimit="10"/>
<path d="M91.2519 23.4978C90.6801 21.6681 89.3079 20.1815 87.5926 19.2667L52.7145 2.57092C51.7996 2.1135 50.7704 1.99915 49.8556 1.99915C48.9408 1.99915 47.9116 1.99915 46.9967 2.22785L12.1186 19.038C10.4033 19.8384 9.14542 21.325 8.688 23.2691L0.111422 60.8917C-0.231641 62.8357 0.225777 64.7797 1.36932 66.3807L25.4981 96.2272C26.8704 97.5994 28.8144 98.5143 30.7584 98.6286H69.1815C71.2399 98.8573 73.1839 97.9425 74.4418 96.2272L98.5706 66.3807C99.7141 64.7797 100.172 62.8357 99.9428 60.8917L91.2519 23.4978Z" fill="#326DE6"/>
<path d="M85.8772 59.405C85.7629 59.405 85.6485 59.405 85.6485 59.2907C85.6485 59.1763 85.4198 59.1763 85.1911 59.1763C84.7337 59.062 84.2763 59.062 83.8188 59.062C83.5901 59.062 83.3614 59.062 83.1327 58.9476H83.0184C81.7605 58.8333 80.3882 58.6046 79.1303 58.2615C78.7872 58.1471 78.4442 57.8041 78.3298 57.461L77.415 57.2323C77.8724 53.916 77.6437 50.4854 76.9576 47.1691C76.1571 43.8528 74.7848 40.6509 72.9552 37.7921L73.6413 37.1059V36.9916C73.6413 36.6485 73.7556 36.1911 73.9844 35.9624C75.0135 35.0475 76.0427 34.3614 77.1863 33.6753C77.415 33.5609 77.6437 33.4466 77.8724 33.3322C78.3298 33.1035 78.6729 32.8748 79.1303 32.6461C79.2447 32.5317 79.359 32.5318 79.4734 32.4174C79.5877 32.303 79.4734 32.303 79.4734 32.1887C80.5026 31.3882 80.7313 30.016 79.9308 28.9868C79.5877 28.5293 78.9016 28.1863 78.3298 28.1863C77.7581 28.1863 77.1863 28.415 76.7289 28.7581L76.6145 28.8724C76.5002 28.9868 76.3858 29.1011 76.2714 29.1011C75.9284 29.4442 75.5853 29.7872 75.3566 30.1303C75.2423 30.359 75.0136 30.4734 74.8992 30.5877C74.0987 31.5026 73.0695 32.4174 72.0403 33.1035C71.8116 33.2179 71.5829 33.3322 71.3542 33.3322C71.2399 33.3322 71.0112 33.3322 70.8968 33.2179H70.7824L69.8676 33.7896C68.9528 32.8748 67.9236 31.96 67.0087 31.0451C62.7776 27.7289 57.5173 25.6705 52.1427 25.0987L52.0283 24.1839V24.2982C51.6853 24.0695 51.5709 23.7265 51.4565 23.3834C51.4565 22.1255 51.4565 20.8676 51.6853 19.4953V19.381C51.6853 19.1523 51.7996 18.9236 51.7996 18.6949C51.914 18.2375 51.914 17.78 52.0283 17.3226V16.6365C52.1427 15.4929 51.2278 14.3494 50.0843 14.235C49.3982 14.1207 48.712 14.4638 48.1403 15.0355C47.6828 15.4929 47.4541 16.0647 47.4541 16.6365V17.2083C47.4541 17.6657 47.5685 18.1231 47.6828 18.5805C47.7972 18.8092 47.7972 19.0379 47.7972 19.2666V19.381C48.0259 20.6389 48.0259 21.8968 48.0259 23.269C47.9116 23.6121 47.7972 23.9552 47.4541 24.1839V24.4126L47.3398 25.3274C46.0819 25.4418 44.824 25.6705 43.4517 25.8992C38.0771 27.0427 33.1598 29.9016 29.3861 33.904L28.7 33.4466H28.5857C28.4713 33.4466 28.357 33.5609 28.1282 33.5609C27.8995 33.5609 27.6708 33.4466 27.4421 33.3322C26.4129 32.5317 25.3837 31.6169 24.5833 30.7021C24.4689 30.4734 24.2402 30.359 24.1258 30.2447C23.7828 29.9016 23.5541 29.5585 23.211 29.2155C23.0966 29.1011 22.9823 29.1011 22.8679 28.9868C22.7536 28.8724 22.7536 28.8724 22.7536 28.8724C22.2962 28.5293 21.7244 28.3006 21.1526 28.3006C20.4665 28.3006 19.8947 28.5293 19.5517 29.1011C18.8655 30.1303 19.0942 31.5026 20.0091 32.303C20.1234 32.303 20.1234 32.4174 20.1234 32.4174C20.1234 32.4174 20.3521 32.6461 20.4665 32.6461C20.8096 32.8748 21.267 33.1035 21.7244 33.3322C21.9531 33.4466 22.1818 33.5609 22.4105 33.6753C23.5541 34.3614 24.6976 35.0475 25.6124 35.9624C25.8412 36.1911 26.0699 36.6485 25.9555 36.9916V36.8772L26.6416 37.5633C26.5273 37.7921 26.4129 37.9064 26.2986 38.1351C22.7536 43.7385 21.267 50.371 22.2962 56.8892L21.3813 57.118C21.3813 57.2323 21.267 57.2323 21.267 57.2323C21.1526 57.5754 20.8096 57.8041 20.4665 58.0328C19.2086 58.3758 17.9507 58.6046 16.5784 58.7189C16.3497 58.7189 16.121 58.7189 15.8923 58.8333C15.4349 58.8333 14.9775 58.9476 14.5201 58.9476C14.4057 58.9476 14.2914 59.062 14.0627 59.062C13.9483 59.062 13.9483 59.062 13.8339 59.1763C12.576 59.405 11.7756 60.5486 12.0043 61.8065C12.233 62.8357 13.2622 63.5218 14.2914 63.4074C14.5201 63.4074 14.6344 63.4074 14.8631 63.2931C14.9775 63.2931 14.9775 63.2931 14.9775 63.1787C14.9775 63.0644 15.3206 63.1787 15.4349 63.1787C15.8923 63.0644 16.3497 62.8357 16.6928 62.7213C16.9215 62.607 17.1502 62.4926 17.3789 62.4926H17.4933C18.7512 62.0352 19.8947 61.6921 21.267 61.4634H21.3813C21.7244 61.4634 22.0675 61.5778 22.2962 61.8065C22.4105 61.8065 22.4105 61.9208 22.4105 61.9208L23.4397 61.8065C25.155 67.0668 28.357 71.7553 32.8168 75.1859C33.846 75.9864 34.7608 76.6726 35.9043 77.2443L35.3326 78.0448C35.3326 78.1592 35.4469 78.1592 35.4469 78.1592C35.6756 78.5022 35.6756 78.9596 35.5613 79.3027C35.1039 80.4462 34.4177 81.5898 33.7316 82.619V82.7333C33.6173 82.962 33.5029 83.0764 33.2742 83.3051C33.0455 83.5338 32.8168 83.9912 32.4737 84.4486C32.3594 84.563 32.3594 84.6774 32.245 84.7917C32.245 84.7917 32.245 84.9061 32.1306 84.9061C31.5589 86.0496 32.0163 87.4219 33.0455 87.9936C33.2742 88.108 33.6173 88.2224 33.846 88.2224C34.7608 88.2224 35.5613 87.6506 36.0187 86.8501C36.0187 86.8501 36.0187 86.7357 36.1331 86.7357C36.1331 86.6214 36.2474 86.507 36.3618 86.3927C36.4761 85.9353 36.7048 85.5922 36.8192 85.1348L37.0479 84.4486C37.391 83.1908 37.9627 82.0472 38.5345 80.9037C38.7632 80.5606 39.1063 80.3319 39.4493 80.2175C39.5637 80.2175 39.5637 80.2175 39.5637 80.1032L40.0211 79.1883C43.223 80.4463 46.5393 81.018 49.9699 81.018C52.0283 81.018 54.0867 80.7893 56.1451 80.2175C57.403 79.9888 58.6609 79.5314 59.8044 79.1883L60.2618 79.9888C60.3762 79.9888 60.3762 79.9888 60.3762 80.1032C60.7192 80.2175 61.0623 80.4463 61.291 80.7893C61.8628 81.9329 62.4346 83.0764 62.7776 84.3343V84.4486L63.0063 85.1348C63.1207 85.5922 63.2351 86.0496 63.4638 86.3927C63.5781 86.507 63.5781 86.6214 63.6925 86.7357C63.6925 86.7357 63.6925 86.8501 63.8068 86.8501C64.2642 87.6506 65.0647 88.2224 65.9796 88.2224C66.3226 88.2224 66.5513 88.108 66.8944 87.9936C67.3518 87.7649 67.8092 87.3075 67.9236 86.7357C68.0379 86.164 68.0379 85.5922 67.8092 85.0204C67.8092 84.9061 67.6949 84.9061 67.6949 84.9061C67.6949 84.7917 67.5805 84.6774 67.4662 84.563C67.2375 84.1056 67.0087 83.7625 66.6657 83.4195C66.5513 83.1908 66.437 83.0764 66.2083 82.8477V82.619C65.4078 81.5898 64.836 80.4462 64.3786 79.3027C64.2642 78.9596 64.2642 78.5022 64.493 78.1592C64.493 78.0448 64.6073 78.0448 64.6073 78.0448L64.2642 77.13C70.0963 73.585 74.5561 68.096 76.6145 61.5778L77.5294 61.6921C77.6437 61.6921 77.6437 61.5778 77.6437 61.5778C77.8724 61.3491 78.2155 61.2347 78.5585 61.2347H78.6729C79.9308 61.4634 81.1887 61.8065 82.3322 62.2639H82.4466C82.6753 62.3783 82.904 62.4926 83.1327 62.4926C83.5901 62.7213 83.9332 62.95 84.3906 63.0644C84.505 63.0644 84.6193 63.1787 84.848 63.1787C84.9624 63.1787 84.9624 63.1787 85.0767 63.2931C85.3055 63.4074 85.4198 63.4074 85.6485 63.4074C86.6777 63.4074 87.5925 62.7213 87.9356 61.8065C87.8212 60.5486 86.9064 59.6337 85.8772 59.405ZM52.8288 55.86L49.7412 57.3467L46.6537 55.86L45.8532 52.5438L48.0259 49.7993H51.4565L53.6293 52.5438L52.8288 55.86ZM71.4686 48.427C72.0403 50.8285 72.1547 53.2299 71.926 55.6313L61.0623 52.5438C60.0331 52.3151 59.4614 51.2859 59.6901 50.2567C59.8044 49.9136 59.9188 49.6849 60.1475 49.4562L68.7241 41.6801C69.982 43.7385 70.8968 46.0256 71.4686 48.427ZM65.2934 37.449L55.9164 44.0815C55.1159 44.539 53.9723 44.4246 53.4006 43.6241C53.1719 43.3954 53.0575 43.1667 53.0575 42.8236L52.3714 31.2739C57.403 31.8456 61.8628 34.0184 65.2934 37.449ZM44.5953 31.6169L46.8824 31.1595L46.3106 42.5949C46.3106 43.6241 45.3958 44.4246 44.3666 44.4246C44.0235 44.4246 43.7948 44.3103 43.4517 44.1959L33.9603 37.449C36.9335 34.5901 40.5929 32.5317 44.5953 31.6169ZM30.644 41.6801L39.1063 49.2275C39.9067 49.9136 40.0211 51.0572 39.335 51.8576C39.1063 52.2007 38.8776 52.3151 38.4201 52.4294L27.3278 55.6313C26.9847 50.8285 28.1282 45.9112 30.644 41.6801ZM28.7 61.006L40.0211 59.062C40.9359 59.062 41.8508 59.6337 41.9651 60.5486C42.0795 60.8916 42.0795 61.3491 41.8508 61.6921L37.5053 72.2127C33.5029 69.5826 30.301 65.5802 28.7 61.006ZM54.6585 75.1859C53.0575 75.529 51.4565 75.7577 49.7412 75.7577C47.3398 75.7577 44.824 75.3003 42.5369 74.6142L48.1403 64.4366C48.712 63.7505 49.6269 63.5218 50.4274 63.9792C50.7704 64.2079 50.9991 64.4366 51.3422 64.7797L56.8312 74.7285C56.1451 74.8429 55.4589 74.9572 54.6585 75.1859ZM68.6097 65.2371C66.8944 67.9816 64.4929 70.3831 61.7484 72.0984L57.2886 61.3491C57.0599 60.4342 57.5173 59.5194 58.3178 59.1763C58.6609 59.062 59.0039 58.9476 59.347 58.9476L70.7824 60.8916C70.2107 62.4926 69.5245 63.9792 68.6097 65.2371Z" fill="white"/>
</g>
<defs>
<clipPath id="clip0_867_19926">
<rect width="100" height="100" fill="white"/>
</clipPath>
</defs>
</svg>
