<svg width="100" height="100" viewBox="0 0 100 100" fill="none" xmlns="http://www.w3.org/2000/svg">
<path d="M49.0208 0.125033C22.1958 0.125033 0.449951 21.875 0.449951 48.6917C0.449951 63.3334 6.93329 76.4625 17.1791 85.375L41.2083 36.1042H68.0874L38.7916 96.1792C42.1541 96.9 45.5833 97.2625 49.0208 97.2625C75.8458 97.2625 97.5916 75.5125 97.5916 48.6875C97.5916 21.8625 75.8416 0.116699 49.0208 0.116699V0.125033Z" fill="url(#paint0_linear_868_39469)"/>
<path d="M17.1791 85.3709L43.6875 31.0125C43.7583 30.8625 43.8333 30.7084 43.9166 30.5542L44.275 29.8042H44.2958C46.674 25.335 50.2232 21.597 54.5633 18.9906C58.9034 16.3842 63.8707 15.0077 68.9333 15.0084C80.5333 15.0084 90.4791 22.0917 94.7 32.1584C87.9416 13.4709 70.0333 0.116699 49.0208 0.116699C22.1958 0.116699 0.449951 21.8625 0.449951 48.6875C0.449951 63.3292 6.93329 76.4625 17.1791 85.3709Z" fill="url(#paint1_linear_868_39469)"/>
<defs>
<linearGradient id="paint0_linear_868_39469" x1="56.1208" y1="20.0959" x2="52.3208" y2="88.7584" gradientUnits="userSpaceOnUse">
<stop offset="0.313" stop-color="#9EC0E0"/>
<stop offset="1" stop-color="white"/>
</linearGradient>
<linearGradient id="paint1_linear_868_39469" x1="57.2458" y1="17.6209" x2="23.5291" y2="72.4417" gradientUnits="userSpaceOnUse">
<stop stop-color="white"/>
<stop offset="1" stop-color="#BCD5EC"/>
</linearGradient>
</defs>
</svg>
