<svg width="100" height="100" viewBox="0 0 100 100" fill="none" xmlns="http://www.w3.org/2000/svg">
<path fill-rule="evenodd" clip-rule="evenodd" d="M85.0834 80.4626H99.3251V4.16675L71.0709 21.5709L42.8292 4.44175L42.9376 37.2251H57.1792L57.0709 27.9667L71.3209 36.4459L85.0834 27.9667V80.4626Z" fill="black"/>
<path fill-rule="evenodd" clip-rule="evenodd" d="M12.7666 44.7247C24.3666 36.0997 41.6916 34.7497 54.1875 48.5039L54.2291 48.5456L54.2708 48.5997L92.4375 99.5998H76.4375L44.3958 57.0289C37.6041 49.7914 28.1833 49.9914 21.4166 54.3706C14.65 58.7456 10.7375 67.1748 14.9666 76.3706C21.1916 89.8956 40.6 90.0164 47.1541 76.8206L47.2875 76.5539L55.7041 87.5081C43.2875 104.041 16.8333 103.866 5.01663 85.2081C-4.96253 69.4581 1.1583 53.3539 12.7666 44.7247Z" fill="black"/>
</svg>
