<svg width="100" height="100" viewBox="0 0 100 100" fill="none" xmlns="http://www.w3.org/2000/svg">
<path d="M58.7083 63.3629C58.4292 63.8212 57.5917 63.8462 56.875 63.4254C56.5331 63.2339 56.2571 62.9433 56.0833 62.592C55.95 62.2962 55.9458 62.017 56.075 61.8045C56.2208 61.567 56.525 61.4462 56.8833 61.4462C57.2042 61.4462 57.5708 61.542 57.9083 61.742C58.6167 62.1629 58.9875 62.9087 58.7083 63.3629ZM100 50.0004C100 63.7837 88.6 75.0004 74.5875 75.0004H25.4167C11.4 75.0004 0 63.7879 0 50.0004C0 36.2129 11.4 25.0004 25.4125 25.0004H74.5833C88.6 25.0004 100 36.217 100 50.0004ZM48.975 62.542C49.375 62.0587 47.525 60.7129 47.1458 60.2212C46.3792 59.4004 46.375 58.2212 45.8542 57.2629C44.5875 54.3712 43.1292 51.5004 41.0917 49.0545C38.9333 46.3754 36.275 44.1587 33.9417 41.6462C32.2042 39.892 31.7417 37.3962 30.2125 35.5045C28.1 32.442 21.4292 31.6045 20.45 35.9337C20.4542 36.0712 20.4125 36.1545 20.2917 36.242C19.75 36.6295 19.2708 37.0712 18.8667 37.6045C17.875 38.9587 17.725 41.2587 18.9583 42.4795C19 41.8379 19.0208 41.2295 19.5417 40.7712C20.4958 41.5795 21.9375 41.8629 23.0417 41.2587C25.4917 44.6962 24.8833 49.4545 26.825 53.1587C27.3667 54.0337 27.9042 54.9295 28.5917 55.6962C29.1542 56.5504 31.0833 57.5629 31.1958 58.3545C31.2167 59.7129 31.0542 61.2004 31.9625 62.3379C32.3875 63.192 31.3375 64.0462 30.4958 63.942C29.3958 64.0879 28.0583 63.2129 27.0958 63.7504C26.7542 64.1129 26.0917 63.7129 25.7958 64.217C25.6958 64.4754 25.1458 64.842 25.475 65.092C25.8375 64.8212 26.175 64.5379 26.6667 64.6962C26.5917 65.092 26.9083 65.1462 27.1583 65.2587C27.15 65.5254 26.9917 65.8004 27.2 66.0254C27.4417 65.7837 27.5833 65.442 27.9708 65.3462C29.2458 67.017 30.5458 63.6504 33.3042 65.167C32.7458 65.142 32.25 65.2087 31.8708 65.6629C31.775 65.7629 31.6958 65.8837 31.8625 66.017C33.3542 65.0712 33.3458 66.342 34.3125 65.9504C35.0542 65.567 35.7958 65.092 36.6792 65.2254C35.8208 65.4712 35.7875 66.1504 35.2833 66.7254C35.2 66.8087 35.1583 66.9129 35.2542 67.0587C37.0417 66.9087 37.1875 66.3254 38.6292 65.6087C39.7042 64.9629 40.775 66.5295 41.7042 65.6379C41.9125 65.4462 42.1917 65.5129 42.4458 65.4837C42.1208 63.7754 38.5458 65.7962 38.6 63.5087C39.75 62.7379 39.4875 61.2629 39.5667 60.0754C40.8875 60.7962 42.3583 61.217 43.6583 61.9087C44.3125 62.9462 45.3375 64.3212 46.7083 64.2295L46.8125 63.9295C47.2292 64.0004 47.7625 64.267 47.9917 63.7504C48.6083 64.392 49.5208 64.3587 50.3292 64.1962C50.9292 63.7129 49.2042 63.0295 48.9708 62.5379L48.975 62.542ZM67.525 54.4754L64.8042 50.8629C62.4292 53.5379 60.8458 54.8379 60.8167 54.8629C60.8 54.8754 59.2875 56.3254 57.9083 57.5712C56.5542 58.792 55.4833 59.7545 54.9375 60.8129C54.7739 61.1987 54.6883 61.613 54.6854 62.032C54.6825 62.4511 54.7626 62.8665 54.9208 63.2545C55.275 64.0879 55.9958 64.6795 57.0667 65.017C57.3875 65.117 57.6917 65.1587 57.9875 65.1587C59.9167 65.1587 61.1833 63.2545 61.1917 63.242C61.2083 63.217 62.85 60.9087 64.8458 58.0004C65.5125 57.0337 66.2708 56.0087 67.525 54.4754ZM80.3167 62.7962C80.316 62.2617 80.117 61.7466 79.7583 61.3504L79.4208 60.9754L70.1083 50.5962C68.1604 48.3886 66.2749 46.1266 64.4542 43.8129L64.1125 43.1129V41.8795C64.1114 41.4296 64.0193 40.9846 63.8417 40.5712L63.1167 38.8712C63.1042 38.8462 63.1 38.817 63.1042 38.792L63.1333 38.5545C63.1333 38.517 63.1542 38.4837 63.1875 38.4587C64.8556 37.0901 66.9743 36.3932 69.1292 36.5045C69.5583 36.5212 69.6292 36.2962 69.6458 36.1962C69.7042 35.7212 68.6042 35.167 67.5875 34.9587C66.1833 34.6795 62.4542 33.9295 59.475 35.8545L59.45 35.8712C57.525 37.4545 55.975 38.6629 55.9583 38.6795L55.925 38.7129C55.7559 38.9187 55.63 39.1565 55.5549 39.4121C55.4797 39.6677 55.4568 39.9357 55.4875 40.2004C55.5708 40.7295 55.2958 40.9212 55.2792 40.9295C55.2625 40.942 54.8792 41.1795 54.4875 40.9087C54.0083 40.5587 53.1792 41.1587 53.0083 41.2962L51.7583 42.3545L51.7333 42.3795C51.7083 42.4045 51.1708 43.0212 51.8917 44.0129C52.5125 44.8712 52.7292 45.1587 53.2667 45.817C53.8167 46.4837 54.8 47.3337 54.8542 47.3754C54.8792 47.3962 55.4792 47.8462 56.3125 47.2212C56.9917 46.7045 57.5375 46.242 57.5375 46.242C57.5792 46.2045 57.9792 45.8879 57.9958 45.4129V45.0545C57.9833 44.7212 57.9833 44.6212 58.2375 44.4629C58.3625 44.4629 58.7333 44.5962 59.0542 44.7545C59.5345 45.0214 60.0716 45.1699 60.6208 45.1879C61.0792 45.2462 61.5875 45.7629 61.7625 45.9712C61.7792 45.9879 63.3333 47.5962 65.5208 50.4045C65.9375 50.942 67.4708 52.9462 67.8875 53.5045L70.7833 57.3837C72.7583 60.0254 74.9667 62.9879 75.9708 64.3212C76.3042 64.7629 76.7917 65.0629 77.3417 65.167L77.7167 65.2379C78.1056 65.3179 78.509 65.2904 78.8834 65.1582C79.2578 65.0261 79.5891 64.7943 79.8417 64.4879L79.8583 64.4587C80.1578 64.079 80.3194 63.6089 80.3167 63.1254V62.792V62.7962ZM82.0667 39.0712L81.6292 38.6462C81.5659 38.5838 81.4904 38.5351 81.4075 38.5032C81.3246 38.4713 81.2359 38.4568 81.1472 38.4607C81.0584 38.4646 80.9714 38.4868 80.8915 38.5259C80.8117 38.565 80.7409 38.6201 80.6833 38.6879L77.9625 41.8545C77.8841 41.9453 77.7736 42.0021 77.6542 42.0129L76.6875 42.1087C76.6258 42.115 76.5635 42.109 76.5042 42.0911C76.4448 42.0732 76.3896 42.0438 76.3417 42.0045L74.7958 40.7129C74.7466 40.6727 74.7063 40.6227 74.6776 40.566C74.6489 40.5093 74.6324 40.4472 74.6292 40.3837L74.6083 39.6212C74.604 39.5104 74.6412 39.4019 74.7125 39.317L77.3625 36.1795C77.4604 36.066 77.5143 35.9211 77.5143 35.7712C77.5143 35.6213 77.4604 35.4764 77.3625 35.3629L77.0917 35.0545C77.0053 34.9556 76.891 34.8851 76.7638 34.8524C76.6367 34.8196 76.5025 34.8262 76.3792 34.8712C75.2367 35.2893 74.1196 35.7734 73.0333 36.3212C71.4208 37.1754 70.3 38.5337 70.1083 39.8629C69.9667 40.8379 70.025 42.4462 70.075 43.3129C70.0931 43.6584 70.0136 44.002 69.8458 44.3045C69.6375 44.6837 69.2708 45.292 68.7167 46.0254C68.4292 46.4087 68.25 46.5545 68.0083 46.8379L71.0042 50.3045C71.725 49.4754 72.3583 48.8462 72.9083 48.242C73.9125 47.142 74.225 47.1295 75.0625 47.1045C75.5792 47.0837 76.2875 47.0629 77.4083 46.7879C80.4667 46.0379 81.4333 42.7795 81.475 42.6337L82.2333 39.6754C82.26 39.5695 82.2587 39.4585 82.2294 39.3533C82.2002 39.2481 82.1441 39.1523 82.0667 39.0754V39.0712ZM35.0417 59.7212C34.7083 60.9837 34.6042 63.1379 32.9333 63.2004C32.7958 63.9295 33.4458 64.2045 34.0375 63.9712C34.625 63.7045 34.9042 64.1795 35.1042 64.6545C36.0083 64.7837 37.3542 64.3545 37.4 63.3004C36.0458 62.5337 35.6292 61.0712 35.0375 59.717L35.0417 59.7212Z" fill="#1C3C3C"/>
</svg>
