<svg width="100" height="100" viewBox="0 0 100 100" fill="none" xmlns="http://www.w3.org/2000/svg">
<g clip-path="url(#clip0_867_18675)">
<path fill-rule="evenodd" clip-rule="evenodd" d="M25.4124 25.0004H74.5832C88.5999 25.0004 99.9999 36.217 99.9999 50.0004C99.9999 63.7837 88.5999 75.0004 74.5874 75.0004H25.4165C11.3999 75.0004 -0.00012207 63.7837 -0.00012207 50.0004C-0.00012207 36.217 11.3999 25.0004 25.4124 25.0004ZM47.9915 63.7504C48.6082 64.392 49.5207 64.3587 50.329 64.192L50.3374 64.1962C50.7124 63.8962 50.179 63.517 49.6707 63.1545C49.3624 62.9379 49.0665 62.7295 48.979 62.542C49.2624 62.2087 48.4249 61.4379 47.7749 60.842C47.5525 60.6512 47.3437 60.4451 47.1499 60.2254C46.6915 59.7295 46.504 59.1087 46.3165 58.4837C46.1915 58.067 46.0665 57.6504 45.8582 57.267C44.5915 54.3754 43.1374 51.5045 41.0957 49.0587C39.7832 47.4337 38.2874 45.9754 36.7915 44.517C35.8192 43.5854 34.8703 42.6295 33.9457 41.6504C33.004 40.6962 32.4374 39.5212 31.8665 38.342C31.3915 37.3587 30.9165 36.3712 30.2165 35.5087C28.104 32.4462 21.4374 31.6087 20.4582 35.942C20.4582 36.0754 20.4165 36.1587 20.2957 36.2462C19.754 36.6379 19.2749 37.0795 18.8707 37.6087C17.879 38.967 17.729 41.2629 18.9624 42.4837L18.9665 42.4045C19.0082 41.792 19.0499 41.2129 19.5457 40.7754C20.4957 41.5795 21.9457 41.867 23.0499 41.2629C24.3832 43.1379 24.8082 45.4087 25.2374 47.6795C25.5915 49.5795 25.9457 51.4795 26.829 53.1629L26.8874 53.2545C27.404 54.1004 27.929 54.9629 28.5957 55.7004C28.8415 56.0712 29.3374 56.467 29.8332 56.8629C30.4874 57.3837 31.1415 57.9045 31.204 58.3587V58.9545C31.1999 60.142 31.1957 61.3712 31.9707 62.342C32.3999 63.1962 31.3457 64.0504 30.504 63.9462C30.0374 64.0087 29.5332 63.8879 29.029 63.7712C28.3415 63.6045 27.6582 63.4462 27.104 63.7587C26.9457 63.9254 26.7249 63.9254 26.4999 63.9337C26.2332 63.942 25.9624 63.9504 25.804 64.2254C25.7707 64.3045 25.6957 64.392 25.6165 64.4879C25.4415 64.6962 25.254 64.9254 25.479 65.0962L25.5415 65.0545C25.8832 64.7962 26.2082 64.5545 26.6665 64.7045C26.6082 65.0379 26.829 65.1295 27.0499 65.217L27.1624 65.267C27.1577 65.3456 27.1465 65.4236 27.129 65.5004C27.0915 65.6879 27.0582 65.867 27.204 66.0295C27.2723 65.9584 27.3363 65.8833 27.3957 65.8045C27.5499 65.6129 27.6999 65.4212 27.9749 65.3462C28.5749 66.1379 29.179 65.8087 29.9374 65.4004C30.7957 64.9379 31.8499 64.367 33.3124 65.1712C32.7499 65.1462 32.2499 65.2129 31.8749 65.6712C31.779 65.7712 31.6999 65.8879 31.8665 66.0212C32.729 65.4712 33.0915 65.667 33.429 65.8545C33.679 65.9879 33.9082 66.117 34.3124 65.9545L34.604 65.8045C35.2499 65.4587 35.9124 65.1129 36.6832 65.2337C36.104 65.3962 35.8999 65.7545 35.6749 66.142C35.5665 66.3379 35.4499 66.5379 35.2832 66.7254C35.1957 66.8129 35.1582 66.917 35.254 67.0587C36.4624 66.9629 36.9207 66.6629 37.5374 66.2587C37.829 66.067 38.1624 65.8462 38.6249 65.617C39.1415 65.3045 39.6582 65.5045 40.1582 65.7004C40.6999 65.9087 41.2207 66.1087 41.704 65.642C41.8582 65.5045 42.0499 65.5004 42.2415 65.5004C42.3082 65.5004 42.379 65.5004 42.4499 65.492C42.2957 64.7004 41.4499 64.7087 40.5832 64.717C39.5832 64.7295 38.5707 64.742 38.604 63.5129C39.529 62.892 39.5374 61.817 39.5457 60.8004C39.5457 60.5504 39.5457 60.3129 39.5665 60.0795C40.2457 60.4545 40.9665 60.7462 41.6832 61.0337C42.3582 61.3045 43.029 61.5754 43.6582 61.9087C44.3165 62.9504 45.3415 64.3254 46.7082 64.2337C46.7415 64.1254 46.7749 64.0379 46.8165 63.9295C46.8957 63.9462 46.979 63.9629 47.0624 63.9879C47.4207 64.0712 47.804 64.167 47.9915 63.7504ZM74.779 51.9629C75.5707 52.7379 76.6415 53.1712 77.7624 53.1712C78.8832 53.1712 79.954 52.7379 80.7457 51.9629C81.1359 51.5837 81.4464 51.1303 81.6589 50.6294C81.8714 50.1286 81.9817 49.5903 81.9832 49.0462C81.9817 48.5021 81.8714 47.9638 81.6589 47.4629C81.4464 46.9621 81.1359 46.5087 80.7457 46.1295C80.1629 45.5607 79.4295 45.1706 78.6321 45.0052C77.8347 44.8398 77.0066 44.9061 76.2457 45.1962L73.829 41.7337L72.1415 42.867L74.5707 46.3462C73.8777 47.1301 73.5128 48.1506 73.5516 49.1962C73.5904 50.2418 74.0299 51.2324 74.779 51.9629ZM67.2082 40.7545C67.9086 41.0937 68.688 41.236 69.4631 41.1663C70.2381 41.0965 70.9796 40.8174 71.6082 40.3587C72.3266 39.8356 72.857 39.0948 73.1207 38.2462C73.3818 37.401 73.3584 36.4935 73.054 35.6629C72.745 34.8281 72.1751 34.1151 71.429 33.6295C70.5995 33.0854 69.6068 32.8461 68.6204 32.9525C67.634 33.0589 66.7152 33.5043 66.0207 34.2129C65.5698 34.6789 65.2355 35.2449 65.045 35.8648C64.8546 36.4846 64.8134 37.1407 64.9249 37.7795C65.0422 38.4164 65.3092 39.0162 65.704 39.5295C66.0999 40.0504 66.6165 40.467 67.2082 40.7545ZM67.2082 64.7212C67.9088 65.0594 68.6881 65.2012 69.4629 65.1315C70.2378 65.0618 70.9792 64.7832 71.6082 64.3254C72.3266 63.8023 72.857 63.0614 73.1207 62.2129C73.3818 61.3677 73.3584 60.4601 73.054 59.6295C72.745 58.7947 72.1751 58.0817 71.429 57.5962C70.5997 57.0513 69.6068 56.8115 68.6203 56.9179C67.6337 57.0243 66.7147 57.4703 66.0207 58.1795C65.5695 58.6454 65.235 59.2114 65.0445 59.8313C64.8541 60.4512 64.8131 61.1074 64.9249 61.7462C65.0422 62.3831 65.3092 62.9829 65.704 63.4962C66.0999 64.017 66.6165 64.4337 67.2082 64.7212ZM71.0832 50.0712V48.0212H64.6249C64.4613 47.3963 64.1514 46.8193 63.7207 46.3379L66.154 42.8087L64.3832 41.6587L61.954 45.1879C61.2094 44.9285 60.4074 44.8807 59.6372 45.0499C58.867 45.2191 58.1589 45.5986 57.5915 46.1462C57.2028 46.5228 56.8934 46.9734 56.6816 47.4715C56.4697 47.9695 56.3598 48.505 56.3582 49.0462C56.3582 50.1337 56.804 51.1795 57.5915 51.9462C58.1589 52.4938 58.867 52.8733 59.6372 53.0425C60.4074 53.2117 61.2094 53.1639 61.954 52.9045L64.3832 56.4337L66.1332 55.2837L63.7207 51.7545C64.1514 51.2731 64.4613 50.6961 64.6249 50.0712H71.0832Z" fill="#1C3C3C"/>
</g>
<defs>
<clipPath id="clip0_867_18675">
<rect width="100" height="100" fill="white"/>
</clipPath>
</defs>
</svg>
