<svg width="100" height="100" viewBox="0 0 100 100" fill="none" xmlns="http://www.w3.org/2000/svg">
<path d="M34.8873 60.4258C34.9415 60.1758 34.9873 59.9342 35.0456 59.7175L35.2998 60.3217C35.779 61.4883 36.254 62.6425 37.4081 63.2967C37.3581 64.355 36.0165 64.7842 35.1081 64.655C34.9081 64.18 34.629 63.705 34.0456 63.9717C33.4498 64.205 32.7956 63.93 32.9373 63.2008C34.3248 63.1508 34.6331 61.655 34.8873 60.4258ZM76.604 38.5217C75.279 38.5217 74.0373 39.03 73.1081 39.9467L69.3498 43.6425C68.3373 44.6425 67.8165 46.0258 67.9206 47.4467L67.9456 47.68C68.079 48.7717 68.5665 49.755 69.3498 50.5217C69.8915 51.055 70.4873 51.3967 71.2123 51.63C71.3197 52.2127 71.282 52.8128 71.1025 53.3774C70.923 53.9421 70.6073 54.4538 70.1831 54.8675L69.9498 55.0967C68.5139 54.6227 67.232 53.7711 66.2386 52.6311C65.2453 51.4911 64.577 50.1047 64.304 48.6175L64.2623 48.38L64.0706 48.5342C63.9456 48.6342 63.8206 48.7425 63.704 48.8592L59.9456 52.555C59.4888 53.0034 59.1259 53.5383 58.8782 54.1285C58.6305 54.7187 58.503 55.3524 58.503 55.9925C58.503 56.6326 58.6305 57.2663 58.8782 57.8565C59.1259 58.4467 59.4888 58.9816 59.9456 59.43C60.9081 60.38 62.1748 60.855 63.4456 60.855C64.7123 60.855 65.9748 60.38 66.9373 59.4342L70.6956 55.7342C71.2842 55.1587 71.7155 54.442 71.9482 53.6524C72.181 52.8629 72.2076 52.0268 72.0254 51.2241C71.8432 50.4214 71.4584 49.6787 70.9075 49.067C70.3567 48.4553 69.6583 47.995 68.879 47.73C68.7722 47.0958 68.8211 46.4452 69.0214 45.8341C69.2217 45.2229 69.5675 44.6696 70.029 44.2217C71.4764 44.7063 72.7686 45.5678 73.7726 46.7176C74.7766 47.8673 75.4562 49.2638 75.7415 50.7633L75.7831 51.0008L75.979 50.8467C76.104 50.7467 76.229 50.6383 76.3456 50.5217L80.104 46.8217C80.5613 46.3736 80.9246 45.8388 81.1726 45.2485C81.4207 44.6582 81.5484 44.0244 81.5484 43.3842C81.5484 42.7439 81.4207 42.1101 81.1726 41.5198C80.9246 40.9296 80.5613 40.3948 80.104 39.9467C79.1716 39.0275 77.9132 38.5151 76.604 38.5217Z" fill="#1C3C3C"/>
<path fill-rule="evenodd" clip-rule="evenodd" d="M74.5875 25.0004H25.4167C11.4 25.0004 0 36.217 0 50.0004C0 63.7837 11.4 75.0004 25.4125 75.0004H74.5833C88.6 75.0004 100 63.7837 100 50.0004C100 36.217 88.6 25.0004 74.5875 25.0004ZM50.3333 64.1962C49.5208 64.3629 48.6083 64.392 47.9917 63.7545C47.8042 64.1712 47.425 64.0754 47.0708 63.9879C46.9869 63.9651 46.9021 63.9456 46.8167 63.9295C46.775 64.0337 46.7458 64.1295 46.7083 64.2337C45.3375 64.3212 44.3125 62.9462 43.6583 61.9087C43.017 61.5831 42.3591 61.2911 41.6875 61.0337C40.9708 60.742 40.25 60.4504 39.5667 60.0754C39.5517 60.3153 39.5462 60.5558 39.55 60.7962C39.5417 61.8129 39.5333 62.892 38.6042 63.5087C38.575 64.7379 39.5875 64.7254 40.5875 64.717C41.45 64.7045 42.2958 64.6962 42.45 65.4837C42.3808 65.4914 42.3113 65.4956 42.2417 65.4962C42.05 65.4962 41.8583 65.4962 41.7125 65.6379C41.225 66.1004 40.7042 65.9004 40.1625 65.692C39.6625 65.5004 39.15 65.3004 38.6333 65.6087C38.2558 65.7985 37.8911 66.0128 37.5417 66.2504C36.8811 66.7469 36.0842 67.029 35.2583 67.0587C35.1583 66.9087 35.2 66.8129 35.2833 66.7254C35.3479 66.6514 35.4077 66.5735 35.4625 66.492C35.5417 66.3754 35.6083 66.2545 35.675 66.142C35.9 65.7462 36.1042 65.392 36.6833 65.2254C35.9125 65.1045 35.25 65.4545 34.6 65.7962L34.5833 65.8045C34.4935 65.8525 34.4032 65.8998 34.3125 65.9462C33.9083 66.1129 33.6708 65.9837 33.4292 65.8504C33.0875 65.6629 32.7292 65.467 31.8625 66.017C31.6958 65.8837 31.7792 65.7629 31.8708 65.6587C32.25 65.2045 32.7458 65.1379 33.3083 65.1629C31.8458 64.3587 30.7917 64.9295 29.9333 65.392C29.175 65.8004 28.5708 66.1254 27.9708 65.342C27.7 65.4129 27.5458 65.6045 27.3958 65.792C27.3333 65.8754 27.2708 65.9504 27.2 66.0212C27.0542 65.8587 27.0875 65.6754 27.125 65.4879L27.1458 65.3795C27.1526 65.3382 27.1568 65.2964 27.1583 65.2545L27.0458 65.2129C26.825 65.1212 26.6083 65.0295 26.6708 64.6962C26.1833 64.5295 25.8375 64.8212 25.4792 65.0879C25.2542 64.917 25.4375 64.692 25.6125 64.4837C25.6875 64.4028 25.7507 64.3116 25.8 64.2129C25.9583 63.942 26.2292 63.9337 26.4917 63.9254C26.7167 63.9212 26.9417 63.9129 27.0958 63.7504C27.65 63.4379 28.3333 63.6004 29.0208 63.7629C29.525 63.8795 30.0292 64.0004 30.4958 63.9379C31.3417 64.042 32.3875 63.1879 31.9625 62.3337C31.1875 61.3629 31.1958 60.1337 31.2 58.9462V58.3504C31.1333 57.9004 30.4833 57.3795 29.8333 56.8587C29.3333 56.4629 28.8333 56.0629 28.5917 55.692C27.925 54.9545 27.4042 54.1004 26.8875 53.2545L26.825 53.1545C25.9417 51.4712 25.5875 49.5712 25.2333 47.6754C24.8042 45.4004 24.3792 43.1337 23.0417 41.2587C21.9333 41.8587 20.4917 41.5712 19.5375 40.767C19.0375 41.2129 18.9958 41.7962 18.9625 42.417L18.9583 42.4754C17.7208 41.2587 17.875 38.9587 18.8625 37.6004C19.2667 37.067 19.75 36.6295 20.2875 36.242C20.4125 36.1545 20.4542 36.067 20.45 35.9337C21.4292 31.6004 28.1 32.4379 30.2083 35.5045C30.9042 36.3629 31.3792 37.3462 31.8542 38.3295C32.425 39.5087 32.9917 40.6879 33.9375 41.642C34.8542 42.6295 35.8208 43.5712 36.7875 44.5129C38.2833 45.9712 39.7792 47.4254 41.0875 49.0504C43.1292 51.4962 44.5833 54.367 45.8542 57.2587C46.0625 57.642 46.1875 58.0629 46.3125 58.4795C46.4958 59.1045 46.6833 59.7254 47.1458 60.217C47.2542 60.3629 47.4958 60.5837 47.7667 60.8337C48.4167 61.4295 49.2542 62.2004 48.9708 62.5379C49.0083 62.617 49.0833 62.7045 49.1792 62.7879C49.3125 62.9045 49.4875 63.0295 49.6625 63.1545C50.1708 63.517 50.7083 63.8962 50.3333 64.1962ZM82.7417 49.4254L78.9833 53.1212C77.9833 54.1087 76.7458 54.842 75.4042 55.2462L75.3333 55.267L75.3083 55.3295C74.8739 56.4614 74.2002 57.4862 73.3333 58.3337L69.575 62.0337C67.9375 63.6462 65.7583 64.5337 63.4333 64.5337C61.1125 64.5337 58.9333 63.6462 57.2917 62.0337C56.4879 61.2462 55.8493 60.3061 55.4134 59.2687C54.9775 58.2313 54.7529 57.1173 54.7529 55.992C54.7529 54.8667 54.9775 53.7528 55.4134 52.7153C55.8493 51.6779 56.4879 50.7379 57.2917 49.9504L61.05 46.2504C62.0583 45.2587 63.2625 44.5462 64.6292 44.1337L64.6958 44.117L64.7208 44.0504C65.1583 42.917 65.825 41.9004 66.7 41.0337L70.4583 37.3379C72.0958 35.7254 74.2792 34.8379 76.6 34.8379C78.925 34.8379 81.1 35.7254 82.7417 37.3379C84.3833 38.9504 85.2833 41.0962 85.2833 43.3795C85.2833 45.667 84.3833 47.8129 82.7417 49.4212V49.4254Z" fill="#1C3C3C"/>
</svg>
