<svg width="100" height="100" viewBox="0 0 100 100" fill="none" xmlns="http://www.w3.org/2000/svg">
<g clip-path="url(#clip0_867_18692)">
<path d="M26.363 53.8423C34.338 53.8298 40.5255 54.2257 45.0255 56.2507C47.0546 57.159 48.9588 58.3215 50.7005 59.709L51.7255 60.5673C54.3088 62.8548 59.5963 66.4632 66.1088 65.234C66.938 65.0757 67.7338 64.8673 68.4963 64.609C72.1233 64.0796 75.8196 64.2814 79.3674 65.2023C82.9153 66.1233 86.243 67.7448 89.1546 69.9715C84.7588 75.9923 78.0296 80.009 70.4338 80.5965L69.7255 80.6382C60.8171 81.0882 54.0921 76.9757 49.6296 73.159C41.738 68.9257 35.5588 67.859 31.9463 66.9382C29.989 66.4088 28.1224 65.5886 26.4088 64.5048L25.413 63.859C24.0533 62.9108 22.9194 61.6745 22.0921 60.2382C21.0464 58.4083 20.5178 56.3286 20.563 54.2215L21.8713 54.0632C23.3632 53.9056 24.8628 53.8319 26.363 53.8423ZM93.813 42.0048C94.138 43.5882 94.4796 44.3632 94.6046 45.5382C95.0551 50.0336 94.7594 54.5725 93.7296 58.9715C89.0397 56.5042 84.0207 54.7209 78.8255 53.6757C79.3088 52.1757 79.5755 50.5923 79.6171 48.9882C79.6505 47.7173 79.5046 47.2423 79.2838 46.0132C81.5296 45.634 84.3255 45.0132 86.8796 44.3465C89.5755 43.6382 91.5713 42.8173 93.813 42.0048ZM49.0921 24.6548L49.738 24.1257C52.1713 22.1923 59.513 17.1257 69.7588 18.0423C74.438 18.459 78.3046 20.0007 81.338 21.784C84.1796 23.459 86.588 25.9173 88.5713 28.5132C86.7796 29.8048 84.1338 31.1923 80.588 32.2965C76.6609 33.507 72.5147 33.8343 68.4463 33.2548C62.8921 31.8548 56.7838 33.8965 52.6005 38.4673C50.2755 41.0048 47.5838 43.1715 44.513 44.6923C39.863 46.9965 32.7588 46.9507 24.488 46.484C23.4342 46.4239 22.3833 46.321 21.338 46.1757C22.0829 43.9785 23.2666 41.9556 24.8171 40.2298C26.6983 38.1459 29.0638 36.5574 31.7046 35.6048C40.2338 32.2965 47.3213 26.3382 49.0921 24.6548ZM11.0088 30.4465C8.37026 29.0673 5.90798 27.3745 3.67545 25.4048C2.73379 24.5715 1.26712 25.2507 1.26712 26.5257V36.934C1.26574 37.1568 1.31402 37.3771 1.40844 37.5789C1.50285 37.7807 1.64104 37.9589 1.81295 38.1007L6.02545 42.2007C6.60686 37.9078 8.32761 33.8491 11.0088 30.4465ZM3.58379 75.6548C3.36424 75.8135 3.10483 75.908 2.83462 75.9275C2.56442 75.9471 2.29411 75.891 2.05401 75.7655C1.8139 75.6401 1.61349 75.4502 1.47524 75.2172C1.33698 74.9842 1.26636 74.7174 1.27129 74.4465V61.6673C1.27129 61.2798 1.41712 60.9132 1.67129 60.6382L1.89629 60.4423C1.92059 60.4259 1.94561 60.4106 1.97129 60.3965L6.14212 58.5798C6.93572 62.9301 8.59338 67.077 11.0171 70.7757L3.57545 75.6548H3.58379Z" fill="#0A60B5"/>
<path fill-rule="evenodd" clip-rule="evenodd" d="M30.45 19.7972C38.8 19.3806 45.0417 22.9222 48.2584 25.2847C45.8209 27.4639 39.2292 32.7181 31.4375 35.7514C30.7455 36.0018 30.0705 36.2969 29.4167 36.6347C26.7245 37.9752 24.4499 40.026 22.8387 42.5654C21.2275 45.1049 20.341 48.0364 20.275 51.0431C20.25 52.0514 20.3 53.0556 20.4334 54.0431H20.3917C20.3667 55.0722 20.45 57.4889 21.9209 60.0181C23.2292 62.2764 24.9875 63.4847 25.8584 64.0097C26.2917 64.3014 26.9834 64.7181 27.8375 65.1597C29.0788 65.8253 30.3989 66.3321 31.7667 66.6681L33.2334 67.0264C36.95 67.9181 42.5875 69.2722 49.4959 72.9472C50.1959 73.5431 50.9459 74.1389 51.7542 74.7222C51.5042 74.9472 51.3 75.1389 51.1334 75.2972C49.7084 76.5181 41.8875 82.9681 30.45 81.9472C26.3559 81.5791 22.3971 80.2946 18.8667 78.1889C13.7625 75.1639 9.90419 70.3847 7.80002 64.7931C4.66076 56.4623 4.32864 47.3341 6.85419 38.7972C9.95002 28.3389 18.9792 20.6681 29.7375 19.8472L30.45 19.7972ZM88.9084 69.6514C85.9923 67.4518 82.6694 65.8517 79.1315 64.9434C75.5936 64.0352 71.9109 63.8368 68.2959 64.3597C67.5334 64.6097 66.7375 64.8181 65.9125 64.9722C59.4 66.1931 54.1209 62.6139 51.5375 60.3472C51.0355 59.9071 50.517 59.486 49.9834 59.0847C51.7124 57.5308 53.6404 56.2137 55.7167 55.1681C60.3709 52.8556 67.4792 52.9014 75.7584 53.3639C87.1625 54.0097 95.0417 59.5097 98.1834 62.0389C98.5375 62.3181 98.7375 62.7472 98.7375 63.1972V73.5764C98.7432 73.8598 98.6662 74.1386 98.5159 74.3789C98.3656 74.6192 98.1486 74.8104 97.8913 74.9293C97.6341 75.0482 97.3478 75.0896 97.0674 75.0484C96.787 75.0072 96.5247 74.8851 96.3125 74.6972C94.0574 72.7224 91.5712 71.0281 88.9084 69.6514ZM52.3459 38.6347C51.5959 39.4556 50.8125 40.2347 49.9875 40.9681C51.5834 42.1722 53.3084 43.1847 55.1375 43.9972C59.6375 46.0056 65.8167 46.3972 73.7875 46.3889C82.3505 46.3553 90.7395 43.9683 98.0375 39.4889C98.2527 39.3551 98.43 39.1685 98.5525 38.9467C98.675 38.725 98.7387 38.4756 98.7375 38.2222V25.4847C98.7426 25.2124 98.6716 24.9441 98.5324 24.7099C98.3932 24.4758 98.1914 24.2852 97.9497 24.1596C97.708 24.034 97.4361 23.9784 97.1645 23.999C96.8929 24.0197 96.6325 24.1157 96.4125 24.2764C94.1125 25.9556 90.6917 28.0972 86.2792 29.7764C84.4156 30.8913 82.4268 31.7822 80.3542 32.4306C76.4254 33.6469 72.2755 33.9756 68.2042 33.3931C62.6459 31.9889 56.5375 34.0389 52.3459 38.6347Z" fill="#E11312"/>
<path d="M6.2418 64.2095C5.83346 63.0303 5.45013 61.7512 5.1168 60.3887L2.61263 61.472L2.55013 61.5678L2.53346 61.6637V74.447C2.53346 74.6428 2.70013 74.7345 2.82513 74.6428L9.20013 70.447C8.16544 68.8055 7.2999 67.0632 6.6168 65.247L6.2418 64.2095ZM93.1168 44.4887L92.9085 43.6762L91.4501 44.2178C88.0157 45.6012 84.4318 46.58 80.771 47.1345L80.796 47.2762C80.871 47.8262 80.9001 48.3428 80.8793 49.0178C80.8556 50.0463 80.7441 51.0709 80.546 52.0803L80.421 52.6178C84.7743 53.3847 88.9737 54.8553 92.8543 56.972L93.1001 55.5387C93.3418 53.947 93.4835 52.322 93.5293 50.672L93.5376 49.0053C93.5193 47.8892 93.454 46.7743 93.3418 45.6637L93.2793 45.2137L93.121 44.4887H93.1168ZM2.53763 26.5262V36.9345C2.53763 36.9887 2.55013 37.0345 2.60013 37.097L5.21679 39.647L5.45013 38.7178C5.65429 37.972 5.89596 37.222 6.1793 36.4678L6.63763 35.3345C7.19596 34.0387 7.83346 32.847 8.53346 31.7512L9.13763 30.8553L9.02096 30.7887C7.24174 29.7637 5.54868 28.596 3.95846 27.297L2.83346 26.3387C2.71679 26.2387 2.53346 26.3262 2.53346 26.5262H2.53763ZM28.421 64.022C29.3585 64.5262 30.3918 64.9512 31.546 65.2803L31.5918 65.2928L31.5251 65.5137L31.6043 65.297L32.5335 65.5387L35.8418 66.3512C39.196 67.2095 43.6126 68.5428 48.7793 71.1428L50.2085 71.8803L50.3126 71.9678C50.9876 72.5428 51.7126 73.122 52.4918 73.6845L53.771 74.6137L53.6918 74.6845C58.4835 77.9512 63.7293 79.6845 69.6418 79.3845L70.3418 79.3428C76.671 78.8512 82.5001 75.8303 86.7168 71.0095L87.3626 70.2303L86.3876 69.5845C84.5686 68.4429 82.6147 67.5317 80.571 66.872L79.2501 66.4803C75.8821 65.5615 72.3632 65.3319 68.9043 65.8053C68.0686 66.0826 67.2153 66.3039 66.3501 66.4678C60.8585 67.5095 55.8585 65.6012 51.6835 62.1887L49.9126 60.6887C48.2548 59.3692 46.4378 58.2634 44.5043 57.397C40.8751 55.7637 36.0376 55.1553 27.7793 55.1053H25.6043C24.8626 55.1178 24.2085 55.147 23.5585 55.1887L22.7793 55.2428L21.8626 55.3303L21.9043 55.747C22.021 56.7553 22.296 57.7887 22.7876 58.8303L23.196 59.6137L23.6501 60.3345C24.5626 61.5512 25.5751 62.3137 26.2418 62.7428L27.1501 63.3178L27.5251 63.5345L28.421 64.022ZM52.8918 58.3762L51.9918 59.0637L53.2335 60.097C55.9001 62.2053 60.3751 64.7095 65.6835 63.7137L66.446 63.5512L67.1876 63.3637L68.021 63.1053L68.6751 63.0178C72.0035 62.6019 75.3788 62.7682 78.6501 63.5095L79.696 63.7678C83.0915 64.6771 86.2944 66.1932 89.1501 68.2428L89.5835 68.5637L90.5668 69.0887C92.6776 70.2694 94.6725 71.6463 96.5251 73.2012L97.146 73.7303L97.2043 73.772L97.2501 73.7845L97.3626 73.7637C97.3962 73.7479 97.425 73.7234 97.446 73.6928C97.4691 73.6585 97.4808 73.6176 97.4793 73.5762V63.197L97.4585 63.1053L97.4043 63.0387L97.0168 62.7303C95.8086 61.7878 94.5452 60.9182 93.2335 60.1262L93.1418 60.0845C88.6082 57.6961 83.7584 55.9635 78.7376 54.9387C77.7269 54.7982 76.7107 54.6995 75.6918 54.6428L73.9418 54.5512C70.4876 54.3845 67.3043 54.3178 64.4626 54.5012C61.1376 54.7137 58.3876 55.2637 56.2793 56.3137C55.0948 56.9058 53.9617 57.5957 52.8918 58.3762ZM7.75013 40.2928C7.60846 40.8345 7.47513 41.3887 7.35013 41.9595L6.95013 44.8595L6.84179 44.7512C6.25858 48.7654 6.30074 52.8457 6.96679 56.847L7.1043 56.7845L7.38763 58.3553C8.14837 62.5397 9.74244 66.5284 12.0751 70.0845L12.621 70.9262C14.4974 73.4031 16.8347 75.4942 19.5043 77.0845C22.8745 79.0949 26.654 80.3211 30.5626 80.672C40.3543 81.547 47.3793 76.6845 49.7043 74.8303L49.0293 74.2637C45.5626 72.4095 42.2376 71.0553 38.8126 70.0137C37.521 69.6137 36.271 69.2803 34.821 68.9303L31.6335 68.1595C29.5398 67.6009 27.5443 66.724 25.7168 65.5595L24.6876 64.8887C23.671 64.1803 22.7293 63.3053 21.9085 62.2387C21.5102 61.7426 21.1495 61.2175 20.8293 60.6678L20.4543 59.9678C19.5852 58.2166 19.1291 56.2895 19.121 54.3345C19.0786 53.5848 19.0425 52.8348 19.0126 52.0845V51.0095L19.0543 50.1345C19.2624 47.2145 20.1887 44.3911 21.7508 41.9152C23.3129 39.4394 25.4625 37.3878 28.0085 35.9428L28.5418 35.6512C29.4293 35.1595 30.3335 34.7595 31.246 34.4303L32.521 33.9095L33.796 33.3428L34.3376 33.0887C38.2445 31.1473 41.9334 28.7951 45.3418 26.072L46.171 25.3928L45.8376 25.1803C42.7043 23.2095 37.8626 21.0303 31.7543 21.0428L30.521 21.0762L29.8251 21.1178C23.1168 21.6345 17.096 24.9595 12.921 30.0178L11.7251 31.5803C10.0999 33.892 8.86277 36.4535 8.06263 39.1637L7.74596 40.2928H7.75013ZM21.5418 51.0762V52.0137L21.5835 52.8345L21.7418 52.8137C22.2835 52.7553 22.8335 52.7095 23.396 52.6762L24.8043 52.6095C25.2918 52.5928 25.8043 52.5845 26.3626 52.5845H27.8293C36.4126 52.6428 41.5085 53.2887 45.5501 55.1053C47.0501 55.7803 48.4918 56.5845 49.8585 57.522C51.4821 56.1499 53.2625 54.9751 55.1626 54.022L56.146 53.5762C58.496 52.6178 61.271 52.1428 64.3001 51.9512C67.7751 51.722 71.6835 51.8553 75.8293 52.0887C76.5376 52.1303 77.2376 52.1887 77.9168 52.2595L78.1418 51.1595C78.2668 50.4345 78.3376 49.7012 78.3543 48.9553C78.3626 48.5928 78.3585 48.3053 78.3376 48.0303L78.2626 47.447C76.8293 47.5887 75.3376 47.6637 73.7918 47.6678L72.2251 47.6637C65.0001 47.622 59.0876 47.1595 54.6293 45.1678L53.496 44.6345C52.0001 43.8851 50.5749 43.0024 49.2376 41.997L50.0668 42.597C48.5296 43.8512 46.8583 44.9314 45.0835 45.8178C40.7501 47.9678 35.0001 48.3345 24.4168 47.7387C23.6247 47.6935 22.8341 47.6254 22.046 47.5345C21.7418 48.6803 21.571 49.8678 21.5418 51.0762ZM79.6585 33.9595C76.2525 34.8734 72.7084 35.1586 69.2001 34.8012L67.9001 34.6345C64.0376 33.6595 59.8376 34.5053 56.3251 36.8637C55.5751 37.3887 54.8668 37.9803 54.1918 38.6345L53.5335 39.3137C53.0499 39.8433 52.5497 40.3575 52.0335 40.8553L52.621 41.2303C53.5918 41.8303 54.6001 42.3637 55.646 42.8303L56.5126 43.1845C60.6626 44.7678 66.3168 45.1178 73.7835 45.1095L75.1918 45.0845C76.4626 45.0428 77.6918 44.9512 78.8793 44.8095L79.071 44.7762C81.2376 44.4053 83.9876 43.797 86.5585 43.1262C87.6168 42.8512 88.521 42.5762 89.6126 42.197C92.3157 41.1784 94.9162 39.906 97.3793 38.397L97.4501 38.322L97.4751 38.222V25.4845L97.4418 25.372C97.4271 25.3482 97.4077 25.3277 97.3846 25.3119C97.3616 25.2961 97.3355 25.2853 97.308 25.2802C97.2805 25.2751 97.2523 25.2758 97.2251 25.2823C97.1979 25.2888 97.1724 25.3009 97.1501 25.3178C95.021 26.8678 91.9585 28.8095 88.0585 30.4428L87.7001 30.5887C86.849 31.0887 85.9713 31.5422 85.071 31.947L84.1043 32.3637C83.0049 32.8617 81.8765 33.2931 80.7251 33.6553L79.6585 33.9595ZM31.8918 36.947L31.4668 37.1053C31.15 37.2298 30.8373 37.3646 30.5293 37.5095L29.9918 37.7762C29.724 37.9075 29.46 38.0464 29.2001 38.1928C27.9918 38.9303 26.8376 39.872 25.7585 41.0678C24.9112 42.0067 24.1809 43.0449 23.5835 44.1595L23.1168 45.1137L23.5251 45.1553L24.5585 45.2262L27.2085 45.3595C35.6668 45.722 40.5001 45.2762 43.946 43.5678C45.5053 42.7891 46.9762 41.8447 48.3335 40.7512L49.9335 39.2887L50.6918 38.5387L52.0751 37.0803C53.4475 35.7081 55.0212 34.5531 56.7418 33.6553C60.471 31.6553 64.7085 31.0137 68.6293 32.0053C72.5103 32.5723 76.4691 32.259 80.2126 31.0887C80.8793 30.8803 81.5168 30.6637 82.1293 30.4345C83.1293 30.022 84.0376 29.5762 84.8543 29.1262L85.7376 28.6178L86.7085 28.222L85.946 27.3053C84.6676 25.8416 83.2119 24.5428 81.6126 23.4387L80.696 22.8595C77.3294 20.8577 73.5557 19.6387 69.6543 19.2928C61.871 18.597 55.421 21.2262 50.546 25.0928L49.971 25.5595C47.2585 28.1428 43.1126 31.2178 38.5126 33.7678C36.4626 34.9262 34.2335 36.0303 31.896 36.9428L31.8918 36.947ZM98.6918 40.5803L98.1793 40.8887L96.8251 41.6678C96.3335 41.9428 95.8001 42.2262 95.2293 42.5137L95.6501 44.1803C95.7501 44.6053 95.8168 44.997 95.8585 45.4137C96.2922 49.7292 96.0589 54.0858 95.1668 58.3303C96.7918 59.3512 98.071 60.3137 98.971 61.0387C99.293 61.2986 99.5527 61.6274 99.7308 62.0009C99.9089 62.3744 100.001 62.7832 100 63.197V73.5762L99.971 73.9845C99.9087 74.4374 99.7334 74.8673 99.4614 75.2347C99.1894 75.6021 98.8293 75.8952 98.4143 76.0869C97.9993 76.2786 97.5427 76.3629 97.0866 76.3319C96.6305 76.3009 96.1895 76.1556 95.8043 75.9095L95.4876 75.6595C93.6703 74.0732 91.6994 72.6718 89.6043 71.4762L88.771 72.4845C84.1168 77.897 77.6126 81.3012 70.521 81.847L69.7876 81.897C62.9793 82.2387 57.021 80.1595 51.7751 76.4262L51.3001 76.8137C48.7793 78.8303 41.096 84.1803 30.3418 83.2178L29.0251 83.072C25.2092 82.5479 21.5377 81.2612 18.2293 79.2887L17.1751 78.6303C14.6703 76.9749 12.4617 74.91 10.6418 72.522L4.32929 76.6678C3.922 76.9664 3.43965 77.1457 2.93625 77.1856C2.43285 77.2256 1.92826 77.1247 1.47894 76.8942C1.02963 76.6637 0.653324 76.3127 0.39215 75.8805C0.130977 75.4483 -0.0047617 74.952 0.000127571 74.447V61.6678C0.000127571 60.9678 0.266794 60.2928 0.833461 59.697L1.16679 59.4137L1.45846 59.247L4.58346 57.8887C4.17468 55.6344 3.95171 53.3503 3.91679 51.0595V49.4678C3.97096 47.0137 4.23763 44.722 4.63346 42.6137L1.01679 39.0762C0.698329 38.8176 0.44174 38.4911 0.265825 38.1205C0.0899111 37.7499 -0.000871804 37.3447 0.000127571 36.9345V26.5262C0.000127571 24.1803 2.75013 22.9012 4.51679 24.4637C6.31263 26.047 8.35429 27.5303 10.6335 28.8095C15.2376 23.0053 22.021 19.1512 29.646 18.572L29.7126 19.4845L29.6501 18.5678L30.3835 18.522C38.521 18.1137 44.7335 21.2928 48.2543 23.7178L48.2835 23.6887L48.946 23.147C54.3001 18.897 61.3376 16.0303 69.871 16.7887C74.1508 17.1681 78.2904 18.5053 81.9835 20.7012C84.5751 22.2303 86.9418 24.422 89.1168 27.1595C91.4172 26.0557 93.6124 24.7447 95.6751 23.2428L96.021 23.0262C96.4394 22.8105 96.9066 22.7068 97.377 22.725C97.8474 22.7433 98.3051 22.8829 98.7056 23.1303C99.1061 23.3778 99.4358 23.7246 99.6626 24.1371C99.8894 24.5496 100.006 25.0138 100 25.4845V38.222L99.971 38.6303C99.9128 39.029 99.7682 39.4101 99.5472 39.7469C99.3263 40.0838 99.0343 40.3682 98.6918 40.5803Z" fill="black"/>
</g>
<defs>
<clipPath id="clip0_867_18692">
<rect width="100" height="100" fill="white"/>
</clipPath>
</defs>
</svg>
