<svg width="100" height="100" viewBox="0 0 100 100" fill="none" xmlns="http://www.w3.org/2000/svg">
<path d="M98.4938 22.485C98.5296 22.6175 98.5479 22.7541 98.5482 22.8914V44.2255C98.5482 44.4993 98.4759 44.7683 98.3387 45.0052C98.2014 45.2422 98.0041 45.4387 97.7665 45.5749L79.8604 55.8842V76.3181C79.8604 76.8742 79.5649 77.3875 79.0827 77.6675L41.7052 99.1844C41.6196 99.233 41.5263 99.2642 41.433 99.2972C41.398 99.3089 41.3649 99.3303 41.328 99.34C41.0667 99.4088 40.792 99.4088 40.5308 99.34C40.488 99.3283 40.4491 99.305 40.4083 99.2894C40.3227 99.2583 40.2333 99.2311 40.1516 99.1844L2.7819 77.6675C2.5445 77.5312 2.34725 77.3346 2.21002 77.0977C2.07279 76.8608 2.00043 76.5919 2.00024 76.3181V12.3157C2.00024 12.1757 2.01969 12.0396 2.05469 11.9074C2.06635 11.8626 2.09358 11.8218 2.10913 11.7771C2.1383 11.6954 2.16552 11.6118 2.2083 11.536C2.23746 11.4854 2.28024 11.4446 2.31524 11.3979C2.35996 11.3357 2.40079 11.2715 2.45329 11.2171C2.49801 11.1724 2.55635 11.1393 2.6069 11.1004C2.66329 11.0538 2.71384 11.0032 2.77801 10.9663H2.77995L21.4658 0.207802C21.7024 0.0716552 21.9706 0 22.2435 0C22.5165 0 22.7847 0.0716552 23.0213 0.207802L41.7071 10.9663H41.711C41.7732 11.0051 41.8257 11.0538 41.8821 11.0985C41.9327 11.1374 41.9891 11.1724 42.0338 11.2151C42.0882 11.2715 42.1271 11.3357 42.1738 11.3979C42.2068 11.4446 42.2516 11.4854 42.2788 11.536C42.3235 11.6138 42.3488 11.6954 42.3799 11.7771C42.3955 11.8218 42.4227 11.8626 42.4343 11.9093C42.4701 12.0418 42.4884 12.1784 42.4888 12.3157V52.2909L58.0597 43.3252V22.8894C58.0597 22.7533 58.0791 22.6153 58.1141 22.485C58.1277 22.4383 58.153 22.3975 58.1685 22.3528C58.1997 22.2711 58.2269 22.1875 58.2697 22.1117C58.2988 22.0611 58.3416 22.0203 58.3747 21.9736C58.4213 21.9114 58.4602 21.8472 58.5147 21.7928C58.5594 21.7481 58.6158 21.715 58.6663 21.6761C58.7246 21.6294 58.7752 21.5789 58.8374 21.5419H58.8394L77.5271 10.7835C77.7637 10.6471 78.0319 10.5754 78.3049 10.5754C78.5779 10.5754 78.8461 10.6471 79.0827 10.7835L97.7685 21.5419C97.8346 21.5808 97.8852 21.6294 97.9435 21.6742C97.9921 21.7131 98.0485 21.748 98.0932 21.7908C98.1477 21.8472 98.1865 21.9114 98.2332 21.9736C98.2682 22.0203 98.311 22.0611 98.3382 22.1117C98.3829 22.1875 98.4082 22.2711 98.4393 22.3528C98.4568 22.3975 98.4821 22.4383 98.4938 22.485ZM95.4332 43.3252V25.5844L88.8942 29.3488L79.8604 34.5501V52.2909L95.4352 43.3252H95.4332ZM76.7474 75.4178V57.6653L67.8615 62.7402L42.4868 77.2223V95.142L76.7474 75.4178ZM5.1152 15.0087V75.4178L39.3719 95.1401V77.2242L21.4755 67.0957L21.4697 67.0918L21.4619 67.088C21.4016 67.053 21.3511 67.0024 21.2947 66.9596C21.2461 66.9207 21.1897 66.8896 21.1469 66.8468L21.143 66.841C21.0925 66.7924 21.0575 66.7321 21.0147 66.6777C20.9758 66.6252 20.9291 66.5805 20.898 66.526L20.8961 66.5202C20.8611 66.4619 20.8397 66.3919 20.8144 66.3257C20.7891 66.2674 20.7561 66.213 20.7405 66.1507V66.1488C20.7211 66.0749 20.7172 65.9971 20.7094 65.9213C20.7016 65.863 20.6861 65.8046 20.6861 65.7463V23.9744L11.6543 18.7711L5.1152 15.0106V15.0087ZM22.2455 3.35387L6.67656 12.3157L22.2416 21.2775L37.8086 12.3137L22.2416 3.35387H22.2455ZM30.342 59.2831L39.3738 54.0837V15.0087L32.8348 18.7731L23.801 23.9744V63.0494L30.342 59.2831ZM78.3049 13.9296L62.7379 22.8914L78.3049 31.8532L93.8699 22.8894L78.3049 13.9296ZM76.7474 34.5501L67.7137 29.3488L61.1746 25.5844V43.3252L70.2064 48.5246L76.7474 52.2909V34.5501ZM40.9274 74.5292L63.7607 61.4939L75.1744 54.9801L59.6191 46.0241L41.7091 56.3353L25.3857 65.7327L40.9274 74.5292Z" fill="#FF2D20"/>
</svg>
