<svg width="100" height="100" viewBox="0 0 100 100" fill="none" xmlns="http://www.w3.org/2000/svg">
<g clip-path="url(#clip0_867_14207)">
<mask id="mask0_867_14207" style="mask-type:luminance" maskUnits="userSpaceOnUse" x="0" y="0" width="101" height="101">
<path d="M0.000244141 0.000366211H100V100H0.000244141V0.000366211Z" fill="white"/>
</mask>
<g mask="url(#mask0_867_14207)">
<path fill-rule="evenodd" clip-rule="evenodd" d="M89.4713 54.5841V41.405C89.4713 39.0716 89.4713 37.7591 89.4129 36.7966C89.4093 36.5223 89.38 36.2489 89.3255 35.98C89.2049 35.6643 89.0363 35.3691 88.8255 35.105C88.6205 34.9261 88.397 34.7697 88.1588 34.6383C86.8562 33.8147 85.5321 33.0255 84.188 32.2716L72.7546 25.68C70.7421 24.5133 69.6046 23.8716 68.7296 23.4383C68.5023 23.2986 68.257 23.1907 68.0005 23.1175C67.6627 23.0593 67.3174 23.0593 66.9796 23.1175C66.8921 23.1175 66.688 23.23 66.2505 23.4383C65.3755 23.8716 64.2671 24.5133 62.2213 25.68L50.7921 32.2675C48.7796 33.4341 47.6421 34.0758 46.8255 34.6341C46.4171 34.8966 46.2421 35.0425 46.1546 35.1008C45.9219 35.3494 45.7506 35.6491 45.6546 35.9758C45.6546 36.0633 45.6005 36.2966 45.5713 36.7925C45.513 37.7508 45.513 39.0675 45.513 41.4008V54.5883C45.513 56.9216 45.513 58.2341 45.5713 59.1966C45.6005 59.6925 45.6296 59.9258 45.6546 60.0091C45.7755 60.3341 45.9505 60.6258 46.1546 60.8841C46.2088 60.9466 46.3838 61.0925 46.8213 61.355C47.6421 61.88 48.7505 62.5508 50.7921 63.7175L62.2255 70.3091C64.238 71.4758 65.3755 72.1175 66.2505 72.5591C66.4792 72.6979 66.7259 72.8045 66.9838 72.8758C67.3216 72.9341 67.6668 72.9341 68.0046 72.8758C68.0879 72.8758 68.2963 72.7591 68.7338 72.555C69.6088 72.1175 70.7171 71.4758 72.7588 70.3091L84.1921 63.7175C86.2046 62.5508 87.3421 61.9091 88.163 61.355C88.5713 61.0925 88.7463 60.9466 88.8296 60.8883C89.0624 60.6397 89.2336 60.34 89.3296 60.0133C89.3296 59.9216 89.388 59.6925 89.4129 59.1966C89.4754 58.2341 89.4755 56.9216 89.4755 54.5883L89.4713 54.5841ZM96.6171 28.0133C95.2171 26.4675 93.2921 25.355 89.4713 23.1383L78.0338 16.5466C74.1838 14.33 72.2838 13.2216 70.2421 12.7841C68.434 12.4055 66.5669 12.4055 64.7588 12.7841C62.7171 13.2216 60.7921 14.33 56.9713 16.5466L45.5421 23.1383C41.688 25.355 39.7921 26.4675 38.3963 28.0133C37.1713 29.3841 36.2338 30.9883 35.6505 32.7383C35.0088 34.7175 35.0088 36.9383 35.0088 41.3716V54.555C35.0088 58.9925 35.0088 61.2091 35.6505 63.1925C36.2338 64.9425 37.1713 66.5758 38.3963 67.9175C39.7921 69.4591 41.7213 70.5716 45.5421 72.7883L56.9755 79.38C60.8296 81.5966 62.7255 82.705 64.7671 83.1425C66.5755 83.5175 68.438 83.5175 70.2505 83.1425C72.2921 82.705 74.2171 81.5966 78.0421 79.38L89.4755 72.7883C93.3255 70.5716 95.2254 69.4633 96.6213 67.9133C97.8463 66.5466 98.7796 64.9425 99.363 63.1925C100.005 61.2091 100.005 58.9925 100.005 54.555V41.3758C100.005 36.9425 100.005 34.7216 99.363 32.7425C98.7933 30.9902 97.8547 29.3784 96.6171 28.0133Z" fill="#2D9CDB"/>
<path fill-rule="evenodd" clip-rule="evenodd" d="M54.4627 54.5843V41.4051C54.4627 39.0718 54.4627 37.7593 54.4044 36.7968C54.4023 36.5225 54.3744 36.2491 54.3211 35.9801C54.2006 35.6644 54.0319 35.3692 53.8211 35.1051C53.6161 34.9262 53.3926 34.7698 53.1544 34.6384C51.8518 33.8148 50.5277 33.0257 49.1836 32.2718L37.7461 25.6759C35.7336 24.5093 34.6002 23.8676 33.7211 23.4343C33.4938 23.2945 33.2485 23.1865 32.9919 23.1134C32.6541 23.0553 32.3089 23.0553 31.9711 23.1134C31.8877 23.1134 31.6794 23.2259 31.2419 23.4343C30.3669 23.8676 29.2586 24.5093 27.2169 25.6759L15.7836 32.2676C13.7711 33.4343 12.6336 34.0759 11.8127 34.6343C11.4044 34.8968 11.2294 35.0426 11.1461 35.1009C10.9133 35.3495 10.7421 35.6492 10.6461 35.9759C10.6461 36.0634 10.5877 36.2968 10.5627 36.7926C10.5002 37.7509 10.5002 39.0676 10.5002 41.4009V54.5884C10.5002 56.9218 10.5002 58.2343 10.5586 59.1968C10.5586 59.6926 10.6169 59.9259 10.6461 60.0093C10.7627 60.3343 10.9377 60.6259 11.1461 60.8843C11.3507 61.0647 11.5742 61.2226 11.8127 61.3551C12.6294 61.8801 13.7377 62.5509 15.7836 63.7176L27.2169 70.3093C29.2294 71.4759 30.3669 72.1176 31.2419 72.5593C31.4694 72.6976 31.7147 72.8042 31.9711 72.8759C32.3089 72.9342 32.6541 72.9342 32.9919 72.8759C33.0794 72.8759 33.2836 72.7593 33.7211 72.5551C34.5961 72.1176 35.7044 71.4759 37.7461 70.3093L49.1836 63.7176C51.1961 62.5509 52.3336 61.9093 53.1502 61.3551C53.5586 61.0926 53.7336 60.9468 53.8211 60.8884C54.0539 60.6399 54.2252 60.3402 54.3211 60.0134C54.3211 59.9218 54.3752 59.6926 54.4044 59.1968C54.4627 58.2343 54.4627 56.9176 54.4627 54.5843ZM61.6127 28.0134C60.2127 26.4676 58.2836 25.3551 54.4627 23.1384L43.0294 16.5468C39.1794 14.3301 37.2794 13.2218 35.2377 12.7843C33.4296 12.4056 31.5626 12.4056 29.7544 12.7843C27.7127 13.2218 25.7877 14.3301 21.9627 16.5468L10.5336 23.1384C6.68358 25.3551 4.78774 26.4676 3.38774 28.0134C2.16274 29.3843 1.22941 30.9884 0.646077 32.7384C0.000244141 34.7176 0.000244141 36.9384 0.000244141 41.3718V54.5551C0.000244141 58.9926 0.000244141 61.2093 0.641911 63.1926C1.22524 64.9426 2.15858 66.5759 3.38358 67.9176C4.78358 69.4593 6.70858 70.5718 10.5294 72.7884L21.9669 79.3801C25.8169 81.5968 27.7169 82.7051 29.7586 83.1426C31.5627 83.5176 33.4294 83.5176 35.2419 83.1426C37.2836 82.7051 39.2086 81.5968 43.0294 79.3801L54.4627 72.7884C58.3169 70.5718 60.2127 69.4634 61.6127 67.9134C62.8386 66.5429 63.7715 64.9365 64.3544 63.1926C64.9961 61.2093 64.9961 58.9926 64.9961 54.5551V41.3759C64.9961 36.9426 64.9961 34.7218 64.3544 32.7426C63.7844 30.9904 62.85 29.3787 61.6127 28.0134Z" fill="#2F80ED"/>
<path d="M50.0297 63.2203C50.2922 63.3662 50.5589 63.512 50.8464 63.687L60.3297 69.1703C59.0464 70.1912 57.263 71.212 54.4964 72.8203L50.0297 75.3828L45.5714 72.8203C42.7964 71.2162 41.0172 70.1953 39.738 69.1703L49.2172 63.687C49.5089 63.512 49.7672 63.3662 50.0297 63.2203Z" fill="#2F80ED"/>
</g>
</g>
<defs>
<clipPath id="clip0_867_14207">
<rect width="100" height="100" fill="white"/>
</clipPath>
</defs>
</svg>
