<svg width="100" height="100" viewBox="0 0 100 100" fill="none" xmlns="http://www.w3.org/2000/svg">
<g clip-path="url(#clip0_867_18640)">
<path d="M94.8535 63.8079C94.8535 68.511 91.0054 72.3591 86.3023 72.3591H14.4291C9.72595 72.3591 5.87793 68.511 5.87793 63.8079V36.5751C5.87793 31.8719 9.72595 28.0239 14.4291 28.0239H86.3023C91.0054 28.0239 94.8535 31.8719 94.8535 36.5751V63.8079Z" fill="url(#paint0_linear_867_18640)"/>
<path d="M79.8184 49.6098C83.5748 50.924 85.4523 53.1758 85.4523 56.3617C85.4523 58.4588 84.6737 60.1232 83.1199 61.3543C81.5677 62.5862 79.3534 63.3507 76.4711 63.3507C73.5889 63.3507 70.9228 62.5156 68.4673 61.1447C68.4939 60.4176 68.686 59.6199 69.0388 58.7541C69.3915 57.8882 69.809 57.2003 70.2874 56.6978C72.5442 57.8706 74.5081 58.458 76.1751 58.458C76.9629 58.458 77.5724 58.3258 77.9968 58.0596C78.4218 57.7943 78.6331 57.4382 78.6331 56.9907C78.6331 56.1498 77.9818 55.5208 76.6834 55.1017L74.3509 54.2207C70.8224 52.9347 69.058 50.8394 69.058 47.9288C69.058 45.8035 69.7992 44.119 71.2815 42.8729C72.7639 41.6286 74.7619 40.5571 77.274 40.5571C78.5168 40.5571 79.8851 40.7318 81.3823 41.0812C82.8779 41.4315 84.1066 42.2941 85.0665 42.7681C85.1231 43.5516 84.9659 44.4117 84.6008 45.3483C84.2331 46.2858 83.7823 46.9495 83.2441 47.3414C80.871 46.2783 78.8962 45.7468 77.3141 45.7468C76.7476 45.7468 76.3209 45.8724 76.0214 46.1253C75.7252 46.3774 75.5796 46.6983 75.5796 47.0902C75.5796 47.7615 76.1153 48.2922 77.1892 48.684L79.8184 49.6098Z" fill="#F6F6F6"/>
<path d="M61.0558 49.6098C64.8123 50.924 66.6889 53.1758 66.6889 56.3617C66.6889 58.4588 65.9103 60.1232 64.359 61.3543C62.8052 62.5862 60.5901 63.3507 57.7087 63.3507C54.8289 63.3507 52.1595 62.5156 49.7048 61.1447C49.7314 60.4176 49.9236 59.6199 50.2771 58.7541C50.6298 57.8882 51.0456 57.2003 51.5257 56.6978C53.785 57.8706 55.748 58.458 57.4142 58.458C58.2027 58.458 58.8124 58.3258 59.235 58.0596C59.6585 57.7943 59.8714 57.4382 59.8714 56.9907C59.8714 56.1498 59.2201 55.5208 57.9216 55.1017L55.5908 54.2207C52.0614 52.9347 50.2963 50.8394 50.2963 47.9288C50.2963 45.8035 51.0375 44.119 52.5214 42.8729C54.0029 41.6286 56 40.5571 58.5122 40.5571C59.7541 40.5571 61.1258 40.7318 62.6197 41.0812C64.117 41.4315 65.344 42.2941 66.3047 42.7681C66.3613 43.5516 66.204 44.4117 65.8389 45.3483C65.4721 46.2858 65.0205 46.9495 64.4831 47.3414C62.109 46.2783 60.1343 45.7468 58.5514 45.7468C57.9858 45.7468 57.5574 45.8724 57.2596 46.1253C56.9642 46.3774 56.817 46.6983 56.817 47.0902C56.817 47.7615 57.3535 48.2922 58.4274 48.684L61.0558 49.6098Z" fill="#F6F6F6"/>
<path d="M47.3732 49.9058C47.3732 48.6198 47.1685 47.4311 46.7593 46.3397C46.3509 45.2484 45.7644 44.3125 45.0025 43.529C44.2396 42.7454 43.3155 42.1306 42.2291 41.6831C41.141 41.2364 39.9199 40.5626 38.5649 40.5626C36.9552 40.5626 35.5504 41.2913 34.3509 41.8511C33.1514 42.4102 32.1632 43.1787 31.3871 44.1578C30.6093 45.1376 30.0304 46.2906 29.6494 47.619C29.2684 48.9474 29.0779 50.3947 29.0779 51.9602C29.0779 53.5807 29.2326 55.0795 29.5437 56.4495C29.854 57.8179 30.3837 59.0057 31.1317 60.014C31.8803 61.0204 32.8544 61.8032 34.0547 62.3613C35.255 62.9204 36.7447 63.3496 38.5232 63.3496C41.7981 63.3496 44.5648 62.4013 46.8239 60.8084C46.6002 59.1879 46.0229 57.8994 45.0955 56.9486C43.9417 57.3819 42.921 57.6922 42.036 57.8828C41.1501 58.0709 40.369 58.1657 39.6945 58.1657C38.3444 58.1657 37.3728 57.8221 36.7831 57.1285C36.1941 56.4372 35.8709 55.6196 35.8137 54.3776H46.8256C47.1894 53.2015 47.3732 51.6119 47.3732 49.9058ZM35.7718 50.1962C35.8557 48.7688 36.1161 47.2415 36.5495 46.6127C36.9838 45.9831 37.6484 45.6686 38.5458 45.6686C39.4701 45.6686 40.1638 46.003 40.6254 46.6743C41.088 47.3456 41.3191 48.6981 41.3191 49.7329L41.3199 50.1962H35.7718Z" fill="#F6F6F6"/>
<path d="M97.0703 52.9869C95.8734 54.0325 95.1788 55.5372 95.1788 57.5045V64.8312C95.1788 67.2668 94.43 69.1192 92.739 70.3927C91.0495 71.6646 89.0798 72.2943 86.8314 72.3549L85.4989 72.3449V68.6941C86.6734 68.3514 87.1558 67.953 87.6233 67.5005C88.4701 66.7352 89.1189 65.4899 89.1189 63.7606V57.8456C89.1505 55.835 89.3052 54.2596 90.0372 53.1216C90.7718 51.9837 92.2016 50.9888 94.3269 50.1295C91.9795 49.0548 90.4031 47.6515 89.5996 45.9205C89.1272 44.8924 89.118 43.5049 89.118 41.7597V36.3354C89.118 34.5436 88.5315 33.2885 87.8103 32.5722C87.3413 32.1047 86.7955 31.7312 85.4971 31.4493V28.0221C87.0851 28.0387 87.8869 28.0205 88.8119 28.0221C90.236 28.0105 91.4289 28.7891 92.4669 29.6001C93.5974 30.4893 94.4009 31.6913 94.8717 33.2043C95.1395 34.0786 95.1778 34.9138 95.1778 35.7089V41.9826C95.1778 44.1985 95.8325 45.8456 96.9513 46.9211C97.5819 47.545 98.4719 48.1155 100 48.6305V51.4646C98.6459 51.839 97.7957 52.3463 97.0703 52.9869Z" fill="#F6F6F6" stroke="#404040" stroke-width="0.538843" stroke-miterlimit="10"/>
<path d="M12.8374 28.024V28.0289C12.3824 28.0264 11.9706 28.0247 11.6413 28.0256C10.2163 28.0131 9.02357 28.7917 7.98635 29.6035C6.85424 30.4927 5.88523 31.6532 5.58165 33.2078C5.40862 34.1195 5.44523 34.9163 5.44523 35.7124V41.9861C5.44523 44.2012 4.62089 45.8474 3.50291 46.9247C2.87315 47.5485 1.5289 48.1182 0 48.6331V51.467C1.35503 51.8406 2.65943 52.3463 3.38303 52.9885C4.58083 54.0349 5.44419 55.5406 5.44419 57.5077V64.8343C5.44419 67.2683 6.02488 69.1225 7.71425 70.3942C9.40373 71.6652 11.3726 72.2974 13.621 72.3589L15.1258 72.3489V68.6955C13.952 68.352 13.3 67.9535 12.83 67.5027C11.984 66.7365 11.5048 65.4921 11.5048 63.7636V57.8478C11.4724 55.8357 11.148 54.2618 10.4152 53.123C9.68241 51.9867 8.25248 50.9902 6.12468 50.1317C8.473 49.0562 10.0484 47.6537 10.852 45.9235C11.3253 44.8946 11.505 43.5071 11.505 41.762V36.3377C11.505 34.5459 11.9208 33.2908 12.6412 32.5738C13.0322 32.1845 13.7275 31.8642 14.6934 31.6047L16.2206 31.6154C16.2206 30.3009 16.2206 29.478 16.2206 28.0237H12.8376V28.024H12.8374Z" fill="#F6F6F6" stroke="#404040" stroke-width="0.538843" stroke-miterlimit="10"/>
<path d="M26.9177 57.7482H25.774C24.5305 57.7482 24.0622 57.0944 24.0622 55.781V31.6424C24.0622 30.191 23.643 29.1719 23.1063 28.5848C22.5698 27.9991 21.6382 28.005 20.3114 28.005H17.7286L17.4241 27.9991V28.024L17.4216 31.6167V56.949C17.4216 58.9636 17.8742 60.4377 18.6793 61.3759C19.4853 62.3125 20.847 62.78 22.7669 62.78C24.0945 62.78 25.6051 62.6403 27.2986 62.3599C27.3835 62.077 27.4259 61.4715 27.4259 60.5424C27.4259 59.6107 27.2564 58.6816 26.9177 57.7482Z" fill="#F6F6F6"/>
</g>
<defs>
<linearGradient id="paint0_linear_867_18640" x1="50.3657" y1="28.0239" x2="50.3657" y2="72.3591" gradientUnits="userSpaceOnUse">
<stop offset="0.1497" stop-color="#2A4F84"/>
<stop offset="0.3884" stop-color="#294E82"/>
<stop offset="1" stop-color="#172E4E"/>
</linearGradient>
<clipPath id="clip0_867_18640">
<rect width="100" height="100" fill="white"/>
</clipPath>
</defs>
</svg>
