<svg width="100" height="100" viewBox="0 0 100 100" fill="none" xmlns="http://www.w3.org/2000/svg">
<path d="M17.7067 1H82.2933C92.0827 1 100 8.91732 100 18.7067V80.7972C100 90.5866 92.0827 98.5039 82.2933 98.5039H17.7067C7.91732 98.5039 0 90.5866 0 80.7972V18.7067C0 8.91732 7.91732 1 17.7067 1Z" fill="#001E36"/>
<path d="M52.4961 69.9157H26.092C25.624 69.9157 25.429 69.6817 25.429 69.1747V26.585C25.39 26.312 25.585 26.039 25.897 26C25.936 26 25.975 26 26.053 26H34.2044C34.3994 25.961 34.6724 26.117 34.6724 26.351C34.6724 26.39 34.6724 26.429 34.6724 26.468V61.4524H53.9392C54.3682 61.4524 54.4852 61.6474 54.4072 62.0374L53.1981 69.2917C53.1981 69.4867 53.0811 69.6817 52.9641 69.7987C52.8081 69.8767 52.6521 69.9157 52.4961 69.9157Z" fill="#31A8FF"/>
<path d="M59.1654 36.5694H66.4587C66.8877 36.5694 67.1998 36.8424 67.3168 37.2324C67.4728 37.5054 67.5898 37.8564 67.6678 38.2075C67.7458 38.6365 67.8238 39.0655 67.8628 39.4945C67.9018 39.9625 67.9408 40.4696 67.9408 40.9766C69.1888 39.5335 70.7099 38.3245 72.387 37.3884C74.298 36.3354 76.4431 35.8284 78.5882 35.9064C78.8612 35.8674 79.1342 36.0624 79.1732 36.3744C79.1732 36.4134 79.1732 36.4524 79.1732 36.5304V44.6817C79.1732 45.0327 78.9782 45.1497 78.5102 45.1497C75.8191 44.9937 73.089 45.5008 70.6319 46.5538C69.8129 46.9438 68.9938 47.4118 68.3698 48.1139V69.3697C68.3698 69.7987 68.2138 69.9547 67.8238 69.9547H59.7115C59.3604 69.9937 59.0874 69.7987 59.0484 69.4477C59.0484 69.4087 59.0484 69.3307 59.0484 69.2917V46.2028C59.0484 45.1887 59.0484 44.1747 59.0094 43.0827C58.9704 41.9906 58.9704 40.8986 58.9314 39.8455C58.8924 38.9095 58.8144 38.0125 58.6974 37.0764C58.6584 36.8814 58.7754 36.6474 58.9704 36.6084C59.0484 36.5304 59.0874 36.5304 59.1654 36.5694Z" fill="#31A8FF"/>
</svg>
