<svg width="100" height="100" viewBox="0 0 100 100" fill="none" xmlns="http://www.w3.org/2000/svg">
<g clip-path="url(#clip0_867_18629)">
<path fill-rule="evenodd" clip-rule="evenodd" d="M12.9138 16.3773C12.3853 16.9582 12.4203 17.8493 12.9755 18.4046L81.5954 87.0245C82.1507 87.5797 83.0418 87.6147 83.6227 87.0862C93.6843 77.9306 100 64.7302 100 50.0547C100 22.4103 77.5898 0 49.9453 0C35.2698 0 22.0694 6.3157 12.9138 16.3773ZM4.33736 29.4002C4.08379 29.9594 4.21165 30.6149 4.64572 31.049L68.951 95.3543C69.3851 95.7883 70.0407 95.9162 70.5998 95.6627C72.0853 94.9888 73.532 94.2446 74.9358 93.4342C75.7702 92.9525 75.8979 91.8141 75.2167 91.1328L8.86715 24.7833C8.18593 24.1021 7.04754 24.2299 6.56585 25.0642C5.75542 26.468 5.01117 27.9147 4.33736 29.4002ZM0.436162 47.8136C0.135072 47.5125 -0.0251285 47.0976 0.00321647 46.6727C0.135968 44.6829 0.384997 42.725 0.743569 40.8055C0.958574 39.6546 2.36489 39.2553 3.19278 40.0831L59.9169 96.8072C60.7447 97.6351 60.3454 99.0414 59.1945 99.2564C57.275 99.615 55.3171 99.864 53.3273 99.9968C52.9024 100.025 52.4875 99.8649 52.1864 99.5638L0.436162 47.8136ZM3.91718 61.7817C2.8837 60.7482 1.2159 61.6387 1.59439 63.0505C6.20575 80.2499 19.7501 93.7943 36.9495 98.4056C38.3613 98.7841 39.2518 97.1163 38.2183 96.0828L3.91718 61.7817Z" fill="#222326"/>
</g>
<defs>
<clipPath id="clip0_867_18629">
<rect width="100" height="100" fill="white"/>
</clipPath>
</defs>
</svg>
