<svg width="100" height="100" viewBox="0 0 100 100" fill="none" xmlns="http://www.w3.org/2000/svg">
<path fill-rule="evenodd" clip-rule="evenodd" d="M50.1166 35.6083L50.0833 35.6292L62.7083 57.5042C64.4601 60.1817 65.3913 63.3128 65.3874 66.5125C65.3874 69.6542 64.5041 72.5958 62.9707 75.1042L88.6916 66.8083L48.4583 0L38.7666 16.1333L50.1166 35.6083ZM28.4874 100L48.6958 83.1125H48.6416C39.3958 83.1125 31.9041 75.6792 31.9041 66.5125C31.9041 63.2042 32.8833 60.1208 34.5708 57.5292L46.5082 36.7958L36.5874 19.7667L8.33325 66.8083L28.4583 100H28.4874ZM57.2374 80.7583H57.2332L34.2583 100H68.3499L85.6332 71.7958L57.2374 80.7583Z" fill="black"/>
</svg>
