<svg width="100" height="100" viewBox="0 0 100 100" fill="none" xmlns="http://www.w3.org/2000/svg">
<g clip-path="url(#clip0_867_22759)">
<path d="M66.0625 71.342C57.3458 75.192 47.9041 73.6129 44.2708 72.342C44.2708 73.217 44.2291 75.9129 44.0708 79.7587C43.9125 83.6087 42.6875 86.0379 42.0916 86.7754C42.1583 89.1795 42.2125 94.4295 41.8958 96.192C41.5921 97.6178 40.9065 98.9341 39.9125 100H34.5625C35.0375 97.5962 36.875 96.0587 37.7333 95.592C38.2083 90.6212 37.275 86.3045 36.7416 84.7712C36.2166 86.642 34.9208 90.9795 33.9708 93.3879C33.1928 95.3007 32.1959 97.117 31 98.8004H27.0375C26.8375 96.392 28.1625 95.592 29.0166 95.592C29.4125 94.8545 30.3625 92.5462 31 89.1754C31.6333 85.8129 30.7333 79.492 30.2083 76.7545V68.1379C23.8666 64.7295 21.4916 61.3212 19.9041 57.5129C18.6375 54.4712 18.9791 49.8337 19.3125 47.8962C18.9125 47.1629 17.7583 45.292 17.3291 42.6879C16.7375 39.0795 17.0666 36.4754 17.3291 35.0712C16.9333 34.6712 16.1416 32.6254 16.1416 27.6545C16.1416 22.6879 17.5958 20.1087 18.3208 19.4379V17.2337C15.5458 17.0337 12.775 15.8337 11.1875 14.2295C9.60412 12.6254 10.7916 10.2212 11.7833 9.4212C12.775 8.61703 13.7625 9.21703 15.15 8.81703C16.5375 8.41703 17.725 8.01703 18.3166 6.81703C18.8 5.8462 17.8625 1.86703 17.3333 0.000366211C19.7083 0.3212 21.2291 2.40453 21.6916 3.4087V0.000366211C24.6625 1.40453 30.0125 4.8087 31.7958 12.2254C33.2208 18.1587 34.2375 30.5962 34.5666 36.0712C42.1625 36.1379 51.8041 34.9879 60.5208 36.8754C68.4416 38.592 72.0083 42.0837 76.1666 42.0837C80.3291 42.0837 82.7083 39.6795 85.675 41.6837C88.65 43.6879 90.2333 49.3004 89.8375 53.5087C89.5208 56.8754 86.9333 57.9837 85.6791 58.117C84.0958 63.4087 85.6791 68.4712 86.6666 70.342V77.9545C87.1291 78.6212 88.0541 80.6837 88.0541 83.567C88.0541 86.4545 87.1291 88.3754 86.6666 88.9795C87.4583 93.467 86.3333 98.0629 85.675 99.8004H80.3291C80.9625 98.1962 82.0458 97.7962 82.5083 97.7962C83.4583 92.8254 82.7708 88.242 82.3083 86.5754C79.3 84.8087 77.3583 81.7004 76.7625 80.3629C76.8291 81.4962 76.6416 84.6504 75.375 88.1754C74.1083 91.7045 72.2083 93.7879 71.4166 94.3879V98.5962H66.0666C66.0666 96.0337 67.5166 95.5254 68.2458 95.592C69.1708 93.9254 71.4125 91.3837 71.4125 86.3754C71.4125 82.1462 68.4416 80.1587 66.2625 76.3545C65.2291 74.5462 65.7333 72.2795 66.0666 71.342H66.0625Z" fill="url(#paint0_linear_867_22759)"/>
</g>
<defs>
<linearGradient id="paint0_linear_867_22759" x1="16.7541" y1="8.41703" x2="102.554" y2="80.3212" gradientUnits="userSpaceOnUse">
<stop offset="0.062" stop-color="#F6DCD9"/>
<stop offset="0.326" stop-color="#FFA5EA"/>
<stop offset="0.589" stop-color="#45DFF8"/>
<stop offset="1" stop-color="#BC8DEB"/>
</linearGradient>
<clipPath id="clip0_867_22759">
<rect width="100" height="100" fill="white"/>
</clipPath>
</defs>
</svg>
