<svg width="100" height="100" viewBox="0 0 100 100" fill="none" xmlns="http://www.w3.org/2000/svg">
<g clip-path="url(#clip0_867_15174)">
<path d="M58.2339 49.6273C58.2339 49.6273 58.0048 40.1106 62.8173 34.444C67.6256 28.7815 73.8089 24.4731 77.7006 21.7565C81.5964 19.0398 87.0923 15.6356 86.4048 10.769C85.7173 5.89396 81.8714 2.66479 65.1548 2.66479C48.4381 2.66479 36.9464 4.2023 26.2923 9.74813C15.6423 15.2981 20.1589 22.4731 24.6923 23.6856C28.6923 24.7565 33.7881 25.1856 37.8256 29.4481C45.1506 37.169 44.3798 49.0606 44.3798 49.0606L58.2339 49.6273Z" fill="url(#paint0_radial_867_15174)"/>
<path d="M30.7501 53.4767C30.7501 53.4767 17.7001 71.3809 14.2584 75.8017C10.8168 80.2184 3.72509 87.4684 4.18759 88.3726C4.64592 89.2767 10.0293 91.4309 10.0293 91.4309C10.0293 91.4309 37.2793 95.2809 39.4501 95.2809C41.6251 95.2809 86.2793 82.7101 86.2793 82.7101C86.2793 82.7101 70.5959 49.5101 65.5501 51.4351C60.5084 53.3642 30.7501 53.4767 30.7501 53.4767Z" fill="#717578"/>
<path d="M52.0458 64.1258C52.0458 64.1258 48.1541 67.5216 46.325 69.3383C44.4916 71.1591 39.3666 75.2341 40.0333 75.9091C40.575 76.4633 48.3125 72.9841 49.1166 72.5841C49.8083 72.2466 58.35 69.1049 58.9208 69.9049C59.4916 70.7008 57.0041 72.5841 56.175 73.7549C55.4041 74.8424 41.7666 88.4383 38.5458 89.2758C36.2291 89.8841 22.1708 90.6383 21.7125 89.5008C21.25 88.3758 26.7458 80.6674 25.3791 79.5299C24.0041 78.3966 18.3875 82.0424 15.0708 83.9716C11.7583 85.8966 6.60413 88.3633 5.79997 88.4799C4.9958 88.5966 4.1958 88.3633 4.1958 88.3633C4.1958 88.3633 3.95414 89.7799 11.0708 93.0049C16.675 95.5466 21.2583 97.8799 36.6083 99.3508C51.9541 100.822 62.9416 99.4674 69.35 98.5549C75.7666 97.6466 87.5541 94.0174 90.65 92.6633C93.7375 91.3049 96.1291 89.9008 95.8041 88.9299C95.6875 88.5883 77.8291 65.1383 77.8291 65.1383L68.1916 50.9883L52.0458 64.1216V64.1258Z" fill="#474B4E"/>
<path d="M40.7916 40.9556C37.2291 41.4806 35.9583 45.4806 32.25 50.1473C30.1125 52.8389 28.2833 54.6639 27.2666 55.8973C26.125 57.2806 24.6125 60.1389 26.125 60.9431C27.6333 61.7473 29.9666 59.3431 30.6041 58.0139C31.2375 56.6931 32.175 55.3389 33.0583 56.2681C33.9375 57.1973 33.9958 58.8181 31.7375 60.6848C29.475 62.5556 26.8291 64.7306 27.0833 66.6639C27.3333 68.6014 28.65 69.1556 30.1625 68.7181C31.6708 68.2848 35.3208 64.1098 36.7041 62.0556C38.0916 60.0056 40.2875 56.4514 41.8 56.4514C43.3125 56.4514 43.2875 59.5639 40.2916 63.0514C36.8333 67.0806 35.1458 68.4764 31.0416 72.1473C26.7791 75.9514 27.3333 77.3139 28.0875 78.0598C28.8458 78.8098 30.9833 78.9889 34.0625 76.3806C37.1458 73.7639 41.4916 68.8514 43.3791 66.6639C45.2666 64.4889 46.9625 62.1223 48.9208 62.2473C50.8708 62.3723 50.3625 64.2973 50.6125 65.2389C50.8625 66.1681 50.8625 67.9098 53.1875 67.9098C55.5125 67.9098 56.7708 65.5431 57.5291 63.6764C58.2791 61.8056 58.2166 59.3181 59.725 59.0681C61.2375 58.8181 61.4208 60.3139 62.6208 62.6806C63.8125 65.0473 68.4125 74.8764 69.5458 76.6223C70.6791 78.3681 71.9375 81.6639 75.6458 80.5389C79.3541 79.4223 74.5791 72.6348 73.4458 70.9514C72.3125 69.2723 69.0416 63.6014 67.7791 59.8056C66.525 56.0139 66.525 54.8223 67.3458 54.2014C68.1583 53.5764 69.5458 55.3223 71.375 58.6848C73.1958 62.0473 74.775 65.1639 76.2166 66.4098C77.6583 67.6556 78.9166 67.5306 79.55 66.9639C80.175 66.4098 80.4291 64.2889 78.7916 62.6723C76.8547 60.699 75.099 58.5557 73.5458 56.2681C71.3699 53.0094 69.3021 49.6799 67.3458 46.2848C65.8375 43.6723 64.9708 41.8764 62.9166 41.5598C60.2541 41.1556 58.3416 43.1223 56.8333 44.1764C55.3208 45.2306 53.25 45.7973 51.1666 45.6723C49.0916 45.5473 46.325 43.3056 45.1916 42.3098C44.0666 41.3306 42.9333 40.6473 40.7958 40.9556H40.7916Z" fill="url(#paint1_radial_867_15174)"/>
<path d="M42.6504 44.3274C42.6504 44.3274 44.0754 44.6274 45.1171 45.3982C46.1587 46.1732 48.7171 48.2399 52.0462 48.1899C55.3796 48.1482 57.2337 46.5649 58.5754 45.7899C59.9212 45.0191 61.1712 45.1482 61.1712 45.1482C61.1712 45.1482 58.9129 53.8607 52.2087 54.1191C43.4379 54.4607 42.6504 44.3274 42.6504 44.3274Z" fill="#EC5F32"/>
<path d="M84.3418 45.5075C83.1168 45.6825 83.7543 47.42 83.9252 51.52C84.1043 55.6242 84.0627 57.3534 86.0335 57.3575C88.5043 57.3659 87.7293 52.2117 87.2585 50.6492C86.8002 49.0867 85.8168 45.2992 84.3418 45.5075Z" fill="url(#paint2_radial_867_15174)"/>
<path d="M84.046 25.5016C83.5085 26.5641 85.2127 27.7599 86.7918 29.6058C87.8543 30.8558 89.4168 33.9391 91.5835 34.1724C93.7502 34.4016 94.0002 31.8308 92.9252 30.3516C91.8752 28.9058 90.0627 27.4599 88.0168 26.4224C85.9752 25.3849 84.4585 24.6891 84.046 25.5016Z" fill="url(#paint3_radial_867_15174)"/>
<path d="M56.4126 15.2056C57.0585 15.4972 57.696 15.0889 57.9293 14.2222C58.0835 13.6514 60.6668 9.49725 64.4751 6.94308C67.571 4.85975 69.0335 4.85975 70.6126 4.22642C71.571 3.83475 72.4251 2.37225 71.9543 1.27642C71.5084 0.23475 70.5501 -0.16525 68.9751 0.0680838C67.9751 0.213917 64.3335 1.13475 60.7335 4.98475C56.296 9.72225 56.0585 13.0181 55.9418 13.5931C55.8251 14.1681 55.7918 14.9222 56.4126 15.2056Z" fill="url(#paint4_radial_867_15174)"/>
<path d="M47.8752 15.727C46.6752 16.0437 45.6544 14.3395 43.5002 12.1437C41.3335 9.93951 39.4085 9.65617 38.3502 8.31868C37.296 6.98534 37.4794 5.48534 38.4127 4.67701C39.3419 3.86867 40.9794 3.75201 42.4377 4.84784C43.896 5.94367 45.771 8.03117 47.1127 10.9187C47.8419 12.4812 48.9919 15.4353 47.8752 15.727Z" fill="url(#paint5_radial_867_15174)"/>
<path d="M19.5003 24.5423C18.6545 23.7548 15.2837 25.1507 12.6962 27.3007C11.4628 28.3257 10.2212 29.5382 9.70866 30.809C9.28366 31.8882 9.30033 33.2548 10.3045 33.9215C11.2128 34.5173 12.3212 34.2382 13.0962 33.6465C14.1587 32.8257 14.8962 31.1715 15.517 30.259C16.6087 28.6632 18.4212 27.1465 19.017 26.6382C19.5587 26.1632 20.142 25.1382 19.5045 24.5465L19.5003 24.5423Z" fill="url(#paint6_radial_867_15174)"/>
<path d="M22.3 46.3754C21.325 46.0795 19.8625 47.1337 18.6375 51.767C17.5542 55.867 17.2208 59.5629 19.95 59.6295C22.8167 59.7045 21.625 55.5712 21.9625 51.8379C22.2958 48.1129 23.2708 46.6712 22.2958 46.3795L22.3 46.3754Z" fill="url(#paint7_radial_867_15174)"/>
<path d="M22.0418 40.9977C23.6418 41.3143 24.4793 40.1102 24.8085 39.006C25.0668 38.1227 26.1668 33.5393 31.8918 33.0268C37.4293 32.5268 41.3918 38.0393 41.9627 38.6477C42.5377 39.2518 43.296 39.3602 43.721 38.931C44.1002 38.556 44.0252 37.8685 43.646 36.9352C43.2543 35.9393 38.6793 28.1602 30.5543 29.181C22.8585 30.1435 20.2002 36.0143 20.2668 38.256C20.3252 39.8268 20.7835 40.7477 22.0418 40.9977Z" fill="url(#paint8_radial_867_15174)"/>
<path d="M58.5251 39.9942C59.5668 40.3359 60.0543 39.1859 60.4293 38.6484C60.8085 38.1067 62.8126 34.3067 66.3793 32.4859C69.9543 30.6692 72.6418 30.4692 76.0043 31.9817C77.796 32.7859 79.0543 34.9609 79.8168 36.2901C80.8418 38.0734 82.2668 38.5484 83.6251 37.8026C84.9876 37.0609 85.1876 34.8359 83.1835 32.1776C81.5585 30.0276 77.9335 26.3567 71.5085 26.9984C61.271 28.0109 58.5085 36.8859 58.2418 37.7359C57.9501 38.7151 57.8126 39.7609 58.5251 39.9942Z" fill="url(#paint9_radial_867_15174)"/>
<path d="M53.5916 41.9089C54.6583 42.0173 54.9333 41.5506 55.2291 39.7256C55.8958 35.6131 56.9333 27.8506 62.4374 21.5714C66.7833 16.6131 71.6749 17.2131 73.8333 18.5423C75.7208 19.7048 76.1833 20.8173 76.9458 21.6256C77.7083 22.4298 79.2458 23.3923 80.6208 22.4298C81.7708 21.6298 82.0583 19.5964 80.0583 17.3714C78.0624 15.1464 76.0249 13.3298 71.0166 12.9214C66.0041 12.5131 61.0541 15.7006 58.3916 19.5464C55.7333 23.3923 53.7916 28.8464 53.1833 32.5464C52.5666 36.2381 52.5166 39.5173 52.5166 40.2839C52.5166 41.0339 52.7208 41.8173 53.5916 41.9089Z" fill="url(#paint10_radial_867_15174)"/>
<path d="M49.3211 41.9167C50.4377 41.75 50.5961 40.9042 50.4461 39.5917C50.2919 38.2792 49.2961 31.0625 47.2961 25.45C45.3086 19.8375 42.2961 14.6042 36.4127 13.5167C30.5377 12.4292 25.8669 16.5167 25.2086 17.1875C24.1877 18.2417 23.1211 20.0042 24.3961 21.4209C25.6711 22.8417 27.7377 21.7375 29.0627 20.3167C30.3877 18.9 32.6211 16.9625 36.2544 18.075C39.8794 19.1875 41.6002 22.55 43.1877 25.7417C44.7711 28.9292 46.0294 33.5209 46.6919 35.95C47.3586 38.3709 47.7752 40.2917 48.0377 41.0042C48.2961 41.6709 48.8086 41.9875 49.3211 41.9167Z" fill="url(#paint11_radial_867_15174)"/>
</g>
<defs>
<radialGradient id="paint0_radial_867_15174" cx="0" cy="0" r="1" gradientUnits="userSpaceOnUse" gradientTransform="translate(2282.59 4804.96) scale(4440.1 4440.21)">
<stop offset="0.1743" stop-color="#E79F68"/>
<stop offset="0.2776" stop-color="#E6A272"/>
<stop offset="0.4528" stop-color="#E3AB8D"/>
<stop offset="0.5312" stop-color="#E2AF9B"/>
<stop offset="0.7833" stop-color="#E1D1CC"/>
<stop offset="0.8828" stop-color="#E0E0E0"/>
</radialGradient>
<radialGradient id="paint1_radial_867_15174" cx="0" cy="0" r="1" gradientUnits="userSpaceOnUse" gradientTransform="translate(468.018 2563.05) rotate(90) scale(5695.69 3046.13)">
<stop offset="0.3896" stop-color="#CB2D30"/>
<stop offset="0.4916" stop-color="#D23730"/>
<stop offset="0.6646" stop-color="#E45231"/>
<stop offset="0.7153" stop-color="#EA5B31"/>
<stop offset="0.7921" stop-color="#EA6032"/>
<stop offset="0.887" stop-color="#EC6F36"/>
<stop offset="0.9672" stop-color="#ED823A"/>
</radialGradient>
<radialGradient id="paint2_radial_867_15174" cx="0" cy="0" r="1" gradientUnits="userSpaceOnUse" gradientTransform="translate(-30.5243 -72.8896) scale(1027.37 1027.75)">
<stop offset="0.0448" stop-color="#CB2D30"/>
<stop offset="0.3439" stop-color="#D23730"/>
<stop offset="0.8512" stop-color="#E45231"/>
<stop offset="1" stop-color="#EA5B31"/>
</radialGradient>
<radialGradient id="paint3_radial_867_15174" cx="0" cy="0" r="1" gradientUnits="userSpaceOnUse" gradientTransform="translate(-188.152 -103.251) scale(1319.95 1319.8)">
<stop offset="0.2939" stop-color="#CB2D30"/>
<stop offset="0.5149" stop-color="#D23730"/>
<stop offset="0.89" stop-color="#E45231"/>
<stop offset="1" stop-color="#EA5B31"/>
</radialGradient>
<radialGradient id="paint4_radial_867_15174" cx="0" cy="0" r="1" gradientUnits="userSpaceOnUse" gradientTransform="translate(36.0237 2017.1) scale(1988.8 1988.74)">
<stop offset="0.0448" stop-color="#CB2D30"/>
<stop offset="0.3439" stop-color="#D23730"/>
<stop offset="0.8512" stop-color="#E45231"/>
<stop offset="1" stop-color="#EA5B31"/>
</radialGradient>
<radialGradient id="paint5_radial_867_15174" cx="0" cy="0" r="1" gradientUnits="userSpaceOnUse" gradientTransform="translate(1403.24 1416.68) scale(1599.11 1599.36)">
<stop offset="0.4232" stop-color="#CB2D30"/>
<stop offset="0.6038" stop-color="#D23730"/>
<stop offset="0.9102" stop-color="#E45231"/>
<stop offset="1" stop-color="#EA5B31"/>
</radialGradient>
<radialGradient id="paint6_radial_867_15174" cx="0" cy="0" r="1" gradientUnits="userSpaceOnUse" gradientTransform="translate(1294.71 -223.122) scale(1389.54 1390)">
<stop offset="0.3406" stop-color="#CB2D30"/>
<stop offset="0.547" stop-color="#D23730"/>
<stop offset="0.8973" stop-color="#E45231"/>
<stop offset="1" stop-color="#EA5B31"/>
</radialGradient>
<radialGradient id="paint7_radial_867_15174" cx="0" cy="0" r="1" gradientUnits="userSpaceOnUse" gradientTransform="translate(482.676 -180.984) scale(1601.46 1601.34)">
<stop offset="0.4833" stop-color="#CB2D30"/>
<stop offset="0.6451" stop-color="#D23730"/>
<stop offset="0.9195" stop-color="#E45231"/>
<stop offset="1" stop-color="#EA5B31"/>
</radialGradient>
<radialGradient id="paint8_radial_867_15174" cx="0" cy="0" r="1" gradientUnits="userSpaceOnUse" gradientTransform="translate(609.611 627.352) scale(940.554 940.637)">
<stop offset="0.0448" stop-color="#CB2D30"/>
<stop offset="0.3439" stop-color="#D23730"/>
<stop offset="0.8512" stop-color="#E45231"/>
<stop offset="1" stop-color="#EA5B31"/>
</radialGradient>
<radialGradient id="paint9_radial_867_15174" cx="0" cy="0" r="1" gradientUnits="userSpaceOnUse" gradientTransform="translate(686.531 683.634) scale(1053.29 1053.33)">
<stop offset="0.0448" stop-color="#CB2D30"/>
<stop offset="0.3439" stop-color="#D23730"/>
<stop offset="0.8512" stop-color="#E45231"/>
<stop offset="1" stop-color="#EA5B31"/>
</radialGradient>
<radialGradient id="paint10_radial_867_15174" cx="0" cy="0" r="1" gradientUnits="userSpaceOnUse" gradientTransform="translate(-1289.96 1309.99) scale(3532 3531.54)">
<stop offset="0.3943" stop-color="#CB2D30"/>
<stop offset="0.5839" stop-color="#D23730"/>
<stop offset="0.9057" stop-color="#E45231"/>
<stop offset="1" stop-color="#EA5B31"/>
</radialGradient>
<radialGradient id="paint11_radial_867_15174" cx="0" cy="0" r="1" gradientUnits="userSpaceOnUse" gradientTransform="translate(3686.62 2121.36) scale(3382.04 3382.39)">
<stop offset="0.4205" stop-color="#CB2D30"/>
<stop offset="0.6019" stop-color="#D23730"/>
<stop offset="0.9097" stop-color="#E45231"/>
<stop offset="1" stop-color="#EA5B31"/>
</radialGradient>
<clipPath id="clip0_867_15174">
<rect width="100" height="100" fill="white"/>
</clipPath>
</defs>
</svg>
