<svg width="100" height="100" viewBox="0 0 100 100" fill="none" xmlns="http://www.w3.org/2000/svg">
<g clip-path="url(#clip0_867_15152)">
<path fill-rule="evenodd" clip-rule="evenodd" d="M39.0941 11.2692C41.898 6.78699 45.6173 2.94686 50.0057 -0.000976562C54.3378 2.87806 58.009 6.64523 60.7776 11.0482C68.0868 21.1843 71.7725 33.4823 71.2453 45.9678C73.5175 47.8004 75.8587 49.5599 78.0936 51.4278C81.2978 54.284 82.7884 58.5952 82.0358 62.8191C80.956 68.0247 79.9219 73.2407 78.7816 78.4339C78.0248 80.7041 75.5669 81.9321 73.2945 81.1731C72.8984 81.0397 72.5253 80.852 72.1812 80.6123C68.514 77.6667 64.9409 74.6188 61.2864 71.6707C58.4655 74.3121 54.8172 75.8966 50.9625 76.153C46.5137 76.3698 42.1629 74.8022 38.8751 71.7959C36.2484 73.7284 33.8071 76.0509 31.2387 78.1252C30.113 79.2302 28.86 80.1953 27.5028 81.0021C25.2701 81.8674 22.7579 80.7604 21.8907 78.5275C21.849 78.4192 21.8114 78.3107 21.7781 78.2004C20.6044 73.1217 19.3765 68.06 18.2403 62.9754C17.3563 58.5599 18.9491 54.011 22.3973 51.1132C24.3924 49.5036 26.4125 47.9234 28.4472 46.3599C29.0122 46.0721 28.7287 45.4259 28.7579 44.9276C28.4868 32.8901 32.1206 21.0863 39.1128 11.2859M42.7111 27.0049C40.0552 30.426 40.3741 35.296 43.4596 38.3397C47.0098 41.8047 52.6388 41.9215 56.3287 38.6045C58.9534 36.2384 59.856 32.5025 58.5989 29.1982C57.3252 26.0189 54.3711 23.8216 50.9583 23.5172C47.7937 23.1878 44.6813 24.5032 42.7091 27.0007" fill="#754ABC"/>
<path d="M37.8268 82.4357C37.9123 81.2473 38.9442 80.3529 40.1326 80.4363C40.4453 80.4592 40.7497 80.5488 41.0248 80.7011C46.6974 83.4446 53.3144 83.4446 58.9892 80.7011C60.0442 80.1236 61.368 80.5115 61.9452 81.5684C62.0724 81.7977 62.1558 82.0479 62.1914 82.3085C62.2081 85.4876 62.2081 88.6669 62.1914 91.8462C62.0724 93.0283 61.0177 93.8914 59.8356 93.7704C59.4749 93.7351 59.1309 93.6079 58.8329 93.4035C57.88 92.5947 57.0212 91.6856 56.1059 90.835C54.6509 93.5556 53.2873 96.3137 51.8238 99.0261C51.1589 100.029 49.8057 100.3 48.803 99.6349C48.5695 99.4786 48.3674 99.2805 48.2088 99.049C46.7412 96.3304 45.384 93.5556 43.9019 90.8393C42.999 91.6941 42.138 92.6009 41.1833 93.4077C40.1993 94.0769 38.8588 93.8205 38.1895 92.8364C37.9873 92.5382 37.8622 92.1922 37.8268 91.8315C37.8018 88.696 37.8268 85.5585 37.8268 82.423" fill="#754ABC"/>
<path d="M49.9362 36.6371C52.3443 36.6934 54.3392 34.7858 54.3955 32.3799V32.3528C54.3559 29.9469 52.3734 28.0269 49.9675 28.0645L49.9362 28.0665C47.5305 28.0125 45.5353 29.92 45.4833 32.3257L45.4811 32.3528C45.5229 34.7607 47.5076 36.6787 49.9133 36.6371H49.9362Z" fill="#754ABC"/>
</g>
<defs>
<clipPath id="clip0_867_15152">
<rect width="100" height="100" fill="white"/>
</clipPath>
</defs>
</svg>
