<svg width="100" height="100" viewBox="0 0 100 100" fill="none" xmlns="http://www.w3.org/2000/svg">
<g clip-path="url(#clip0_868_39474)">
<path fill-rule="evenodd" clip-rule="evenodd" d="M2.11242 82.8458C1.78691 82.846 1.46575 82.771 1.17402 82.6266C0.882283 82.4822 0.627868 82.2723 0.430628 82.0134C0.233387 81.7544 0.0986579 81.4534 0.0369556 81.1338C-0.0247467 80.8142 -0.0117528 80.4846 0.0749231 80.1708L17.8749 15.6042C18.0514 14.9624 18.3772 14.3714 18.8257 13.8795C19.2742 13.3876 19.8327 13.0088 20.4556 12.7739C21.0784 12.5391 21.748 12.4549 22.4096 12.5282C23.0712 12.6016 23.7061 12.8303 24.2624 13.1959L47.6874 28.5584C48.3747 29.0085 49.1784 29.2482 49.9999 29.2482C50.8215 29.2482 51.6252 29.0085 52.3124 28.5584L75.8333 13.1875C76.39 12.8229 77.0251 12.5952 77.6867 12.5228C78.3483 12.4505 79.0176 12.5356 79.64 12.7712C80.2624 13.0069 80.8203 13.3863 81.2681 13.8787C81.7158 14.371 82.0409 14.9623 82.2166 15.6042L99.9249 80.175C100.011 80.4886 100.023 80.8179 99.9612 81.1371C99.8989 81.4563 99.7636 81.7568 99.5659 82.015C99.3682 82.2733 99.1134 82.4823 98.8215 82.6257C98.5296 82.7691 98.2085 82.843 97.8833 82.8417H75.2916C79.4046 78.0762 81.6672 71.9908 81.6666 65.6959V64.9584C81.6662 58.799 79.4255 52.85 75.3624 48.2209L72.4583 33.6584C72.3992 33.3542 72.2637 33.0702 72.0646 32.8329C71.8654 32.5956 71.6091 32.4129 71.3199 32.3021C71.0306 32.1912 70.7179 32.1558 70.4111 32.1992C70.1044 32.2425 69.8138 32.3633 69.5666 32.55L58.6249 40.7542C58.2404 41.0427 57.7943 41.2383 57.3215 41.3258C56.8488 41.4133 56.3623 41.3902 55.8999 41.2584C52.0424 40.1562 47.9533 40.1562 44.0958 41.2584C43.6341 41.3902 43.1482 41.4132 42.6761 41.3257C42.2041 41.2383 41.7587 41.0426 41.3749 40.7542L30.4249 32.5417C30.1781 32.3573 29.8884 32.2389 29.5831 32.1976C29.2779 32.1564 28.9671 32.1936 28.6802 32.3057C28.3933 32.4179 28.1397 32.6013 27.9434 32.8387C27.7471 33.0761 27.6146 33.3597 27.5583 33.6625L24.7458 48.8792C20.6352 53.0576 18.3321 58.6845 18.3333 64.5459V65.9334C18.3333 72.075 20.5291 78.0167 24.5333 82.6833L24.6666 82.8417L2.11242 82.8458Z" fill="#29E154"/>
<path d="M38.3875 70.1793H44.7208V55.4043H39.3458L38.3875 70.1793ZM61.6083 70.1793H55.275V55.4043H60.65L61.6083 70.1793Z" fill="black"/>
</g>
<defs>
<clipPath id="clip0_868_39474">
<rect width="100" height="100" fill="white"/>
</clipPath>
</defs>
</svg>
