<svg width="100" height="100" viewBox="0 0 100 100" fill="none" xmlns="http://www.w3.org/2000/svg">
<g clip-path="url(#clip0_867_15128)">
<path d="M93.1626 27.6104C98.5305 38.1458 99.8854 50.2733 96.9748 61.7335C94.0642 73.1937 87.0867 83.205 77.3422 89.9021C67.5976 96.5993 55.7507 99.5256 44.0087 98.1358C32.2666 96.746 21.4302 91.1349 13.5184 82.3479C5.60657 73.5609 1.15895 62.1974 1.00418 50.3744C0.849406 38.5513 4.99803 27.0752 12.6771 18.0841C20.3562 9.09306 31.042 3.20022 42.7437 1.50353C54.4453 -0.193167 66.3648 2.422 76.2813 8.86178" stroke="#808080" stroke-width="1.1309" stroke-dasharray="4.25 4.25"/>
<path d="M49.7372 87.4328C70.5562 87.4328 87.4333 70.5557 87.4333 49.7367C87.4333 28.9177 70.5562 12.0405 49.7372 12.0405C28.9182 12.0405 12.041 28.9177 12.041 49.7367C12.041 70.5557 28.9182 87.4328 49.7372 87.4328Z" fill="#000080"/>
<path d="M65.3515 45.163C71.4493 45.163 76.3925 40.2198 76.3925 34.122C76.3925 28.0243 71.4493 23.0811 65.3515 23.0811C59.2538 23.0811 54.3105 28.0243 54.3105 34.122C54.3105 40.2198 59.2538 45.163 65.3515 45.163Z" fill="white"/>
<path d="M87.4333 23.0814C93.5311 23.0814 98.4744 18.1382 98.4744 12.0404C98.4744 5.94253 93.5311 0.999268 87.4333 0.999268C81.3355 0.999268 76.3922 5.94253 76.3922 12.0404C76.3922 18.1382 81.3355 23.0814 87.4333 23.0814Z" fill="#000080"/>
<path d="M39.5255 68.5843V65.8023H27.3118V43.8516H24.1566V68.5843H39.5255Z" fill="white"/>
<path d="M56.4816 68.5841V50.8064H53.6657V60.6113C53.6657 64.2415 51.7658 66.6163 48.8142 66.6163C46.575 66.6163 45.15 65.2593 45.15 63.1219V50.8064H42.3341V64.2415C42.3341 67.1931 44.5394 69.093 47.9999 69.093C50.6123 69.093 52.2747 68.177 53.9371 65.836V68.5841H56.4816Z" fill="white"/>
<path d="M77.1648 68.5164V66.379C76.8595 66.4468 76.7238 66.4468 76.5541 66.4468C75.5703 66.4468 75.0274 65.9379 75.0274 65.0558V55.1492C75.0274 51.994 72.7204 50.2976 68.3438 50.2976C64.0351 50.2976 61.3888 51.96 61.2192 56.0652H64.069C64.3065 53.8939 65.5957 52.91 68.242 52.91C70.7866 52.91 72.2115 53.8599 72.2115 55.5563V56.3027C72.2115 57.4901 71.499 57.999 69.2598 58.2704C65.2565 58.7793 64.6458 58.915 63.5601 59.3561C61.4906 60.2043 60.4388 61.7988 60.4388 63.9702C60.4388 67.1932 62.678 69.0931 66.2743 69.0931C68.5474 69.0931 70.7526 68.1432 72.3133 66.4807C72.6186 67.8378 73.84 68.8217 75.231 68.8217C75.8077 68.8217 76.2488 68.7539 77.1648 68.5164ZM72.2115 62.4434C72.2115 64.988 69.633 66.6165 66.885 66.6165C64.6797 66.6165 63.3905 65.8361 63.3905 63.9023C63.3905 62.0363 64.6458 61.2221 67.6653 60.781C70.6508 60.3739 71.2615 60.2382 72.2115 59.7971V62.4434Z" fill="white"/>
</g>
<defs>
<clipPath id="clip0_867_15128">
<rect width="100" height="100" fill="white"/>
</clipPath>
</defs>
</svg>
