<svg width="100" height="100" viewBox="0 0 100 100" fill="none" xmlns="http://www.w3.org/2000/svg">
<g clip-path="url(#clip0_867_18980)">
<path d="M0.00012207 39.999C0.00012207 25.998 0.00012207 18.997 2.72512 13.649C5.12192 8.94518 8.94628 5.12082 13.6501 2.72402C18.9981 -0.000976562 26.0001 -0.000976562 40.0001 -0.000976562H60.0001C74.0011 -0.000976562 81.0021 -0.000976562 86.3501 2.72402C91.054 5.12082 94.8783 8.94518 97.2751 13.649C100 18.997 100 25.999 100 39.999V59.999C100 74 100 81.001 97.2751 86.349C94.8783 91.0529 91.054 94.8772 86.3501 97.274C81.0021 99.999 74.0001 99.999 60.0001 99.999H40.0001C25.9991 99.999 18.9981 99.999 13.6501 97.274C8.94628 94.8772 5.12192 91.0529 2.72512 86.349C0.00012207 81.001 0.00012207 73.999 0.00012207 59.999V39.999Z" fill="#179DE3"/>
<path d="M77.4801 34.6181C75.2169 33.7781 73.1616 32.4596 71.4546 30.7526C69.7475 29.0456 68.4291 26.9903 67.5891 24.7271C66.7483 26.9897 65.4294 29.0443 63.7225 30.7511C62.0156 32.4578 59.9608 33.7764 57.6981 34.6171C59.9606 35.4584 62.0152 36.7775 63.7219 38.4845C65.4286 40.1915 66.7473 42.2464 67.5881 44.5091C68.429 42.2462 69.7479 40.1912 71.455 38.4843C73.1621 36.7774 75.2172 35.4587 77.4801 34.6181Z" fill="white"/>
<path d="M50.1221 24.999H25.1221V74.999H75.1121V49.999L50.1221 74.989V24.999Z" fill="white"/>
</g>
<defs>
<clipPath id="clip0_867_18980">
<rect width="100" height="100" fill="white"/>
</clipPath>
</defs>
</svg>
