<svg width="100" height="100" viewBox="0 0 100 100" fill="none" xmlns="http://www.w3.org/2000/svg">
<path fill-rule="evenodd" clip-rule="evenodd" d="M63.7249 85.95C43.7249 85.95 27.45 69.7 27.45 49.7208C27.45 44.8542 31.4 40.9042 36.275 40.9042C41.15 40.9042 45.1083 44.8542 45.1083 49.7208C45.116 54.654 47.0805 59.3826 50.5708 62.8689C54.061 66.3552 58.7918 68.3145 63.7249 68.3167C68.6581 68.3145 73.3889 66.3552 76.8791 62.8689C80.3694 59.3826 82.3339 54.654 82.3416 49.7208V37.375C82.3416 32.5042 86.3 28.5583 91.1749 28.5583C96.0458 28.5583 100 32.5 100 37.375V49.7208C100 69.6958 83.7249 85.95 63.7249 85.95Z" fill="black"/>
<path fill-rule="evenodd" clip-rule="evenodd" d="M8.82917 71.1417C7.67045 71.1428 6.52287 70.9156 5.45198 70.473C4.3811 70.0305 3.4079 69.3813 2.58798 68.5625C1.76806 67.7438 1.11749 66.7715 0.673438 65.7012C0.229384 64.631 0.000546823 63.4837 0 62.325L0 49.975C0 30 16.275 13.75 36.275 13.75C56.275 13.75 72.55 30 72.55 49.975C72.5495 51.1334 72.3208 52.2803 71.877 53.3503C71.4332 54.4203 70.783 55.3923 69.9635 56.2111C69.144 57.0298 68.1713 57.679 67.1009 58.1218C66.0305 58.5646 64.8834 58.7922 63.725 58.7917C62.5659 58.7933 61.4179 58.5665 60.3465 58.1242C59.2752 57.6819 58.3015 57.0328 57.4811 56.214C56.6608 55.3952 56.0098 54.4227 55.5655 53.3522C55.1212 52.2817 54.8922 51.1341 54.8917 49.975C54.8828 45.0426 52.9178 40.315 49.4277 36.8296C45.9376 33.3442 41.2074 31.3855 36.275 31.3833C31.3426 31.3855 26.6124 33.3442 23.1223 36.8296C19.6322 40.315 17.6672 45.0426 17.6583 49.975V62.325C17.6578 63.4841 17.4288 64.6317 16.9845 65.7022C16.5402 66.7727 15.8892 67.7452 15.0689 68.564C14.2485 69.3828 13.2748 70.0319 12.2035 70.4742C11.1321 70.9165 9.98824 71.1433 8.82917 71.1417Z" fill="black"/>
</svg>
