<svg width="100" height="100" viewBox="0 0 100 100" fill="none" xmlns="http://www.w3.org/2000/svg">
<g clip-path="url(#clip0_867_15101)">
<path d="M29.1211 16.8145L0.258626 74.2395C-0.0266721 74.8092 -0.0741427 75.4689 0.126644 76.0736C0.32743 76.6783 0.76005 77.1786 1.32946 77.4645L16.8836 85.2812C17.1657 85.4232 17.473 85.5083 17.7879 85.5316C18.1029 85.5549 18.4193 85.5159 18.7192 85.4168C19.0191 85.3178 19.2965 85.1606 19.5356 84.9543C19.7747 84.748 19.9709 84.4966 20.1128 84.2145L48.9711 26.7895C49.113 26.5072 49.1979 26.1997 49.2209 25.8845C49.2439 25.5694 49.2045 25.2528 49.1051 24.9529C49.0056 24.653 48.848 24.3757 48.6413 24.1367C48.4346 23.8977 48.1828 23.7019 47.9003 23.5603L32.3461 15.7478C32.0642 15.6054 31.757 15.5202 31.442 15.497C31.1271 15.4737 30.8106 15.513 30.5109 15.6125C30.2112 15.7121 29.9341 15.8699 29.6956 16.0768C29.4571 16.2838 29.2619 16.5359 29.1211 16.8187V16.8145Z" fill="url(#paint0_linear_867_15101)"/>
<path d="M80.1874 15.9666H97.5999C98.9249 15.9666 100.004 17.0499 100.004 18.3707V82.6416C100.004 83.2796 99.7509 83.8915 99.3001 84.343C98.8494 84.7946 98.2379 85.0488 97.5999 85.0499H80.1874C79.5494 85.0488 78.9379 84.7946 78.4871 84.343C78.0364 83.8915 77.7832 83.2796 77.7832 82.6416V18.3749C77.7832 17.0499 78.8624 15.9666 80.1874 15.9666Z" fill="url(#paint1_linear_867_15101)"/>
<path d="M53.3958 17.0225L41.0417 79.6183C40.9179 80.2427 41.0472 80.8906 41.4012 81.4196C41.7552 81.9486 42.3048 82.3154 42.9292 82.4391L59.9917 85.8808C61.3 86.1433 62.575 85.2975 62.8292 83.9891L75.1792 21.3975C75.3018 20.7732 75.172 20.1258 74.8182 19.5971C74.4644 19.0684 73.9155 18.7014 73.2917 18.5766L56.225 15.1308C55.9147 15.0683 55.5951 15.0677 55.2846 15.1291C54.9741 15.1904 54.6787 15.3124 54.4154 15.4882C54.1522 15.6639 53.9262 15.8899 53.7506 16.1532C53.5749 16.4165 53.4571 16.7119 53.3958 17.0225Z" fill="url(#paint2_linear_867_15101)"/>
</g>
<defs>
<linearGradient id="paint0_linear_867_15101" x1="6.25029" y1="81.2478" x2="50.0003" y2="-0.00218415" gradientUnits="userSpaceOnUse">
<stop stop-color="#FF00FF"/>
<stop offset="0.17" stop-color="#E90CF9"/>
<stop offset="0.54" stop-color="#C023ED"/>
<stop offset="0.73" stop-color="#B02DE9"/>
<stop offset="1" stop-color="#B02DE9"/>
</linearGradient>
<linearGradient id="paint1_linear_867_15101" x1="-0.000135094" y1="99.9999" x2="99.9999" y2="-0.000114627" gradientUnits="userSpaceOnUse">
<stop stop-color="#B02DE9"/>
<stop offset="0.02" stop-color="#B02DE9"/>
<stop offset="0.8" stop-color="#6D00CC"/>
<stop offset="1" stop-color="#6D00CC"/>
</linearGradient>
<linearGradient id="paint2_linear_867_15101" x1="-2.10271e-06" y1="100.002" x2="100" y2="0.00164505" gradientUnits="userSpaceOnUse">
<stop stop-color="#FF00FF"/>
<stop offset="0.02" stop-color="#FF00FF"/>
<stop offset="0.09" stop-color="#E90CF9"/>
<stop offset="0.23" stop-color="#C023ED"/>
<stop offset="0.3" stop-color="#B02DE9"/>
<stop offset="0.42" stop-color="#A42BE3"/>
<stop offset="0.63" stop-color="#8626D5"/>
<stop offset="0.85" stop-color="#6021C3"/>
<stop offset="1" stop-color="#6021C3"/>
</linearGradient>
<clipPath id="clip0_867_15101">
<rect width="100" height="100" fill="white"/>
</clipPath>
</defs>
</svg>
