<svg width="100" height="100" viewBox="0 0 100 100" fill="none" xmlns="http://www.w3.org/2000/svg">
<path d="M57 45.365L65.984 24.115C66.0904 23.8597 66.3883 23.7389 66.6457 23.8458C66.9021 23.9522 67.025 24.2458 66.917 24.5017L58.9995 43.2262L57 45.365Z" fill="#939598"/>
<path d="M64.7499 34.5505C64.7499 34.5505 60.4505 40.1851 57.4159 43.4404C54.3787 46.6968 49.9531 51.8309 49.9531 51.8309V63.3096C49.985 63.3075 50.0143 63.3011 50.0462 63.3011C50.7803 63.3011 51.3749 63.8888 51.3749 64.6149C51.3749 65.3415 50.7797 65.9303 50.0462 65.9303C50.0143 65.9303 49.985 65.9229 49.9531 65.9202V77.5011C49.9531 77.5011 55.5265 73.7138 59.5638 70.05C64.1159 65.9186 69.1749 59.4676 69.1749 59.4676L64.7499 34.5511V34.5505Z" fill="#931A2B"/>
<path d="M46.7973 13.547L46.7559 18.022L30.5149 24.5273L30.8005 20.5512L46.7979 13.5459L46.7973 13.547Z" fill="#A7A9AC"/>
<path d="M69.36 20.3947L69.6764 24.3691L53.3536 17.9947L53.2764 13.5213L69.36 20.3947ZM50.0302 12.1319L50.0472 16.7026L26.2892 7.42339L26.7823 2.1936L50.0302 12.1319ZM26.7823 2.1936L26.2892 7.42339L23.1387 9.28243L23.6834 4.17605L26.7823 2.1936Z" fill="#BCBEC0"/>
<path d="M73.1723 1.99902L73.7043 7.22562L50.0473 16.7027L50.0298 12.1315L73.1723 1.99902Z" fill="#A7A9AC"/>
<path d="M76.2947 3.95643L76.8792 9.05909L73.7048 7.22558L73.1729 1.99951L76.2947 3.95643Z" fill="#BCBEC0"/>
<path d="M33.7482 25.4415L30.5142 24.5277L46.7557 18.0224L23.1387 9.28303L26.2892 7.42346L50.0472 16.7027L73.7046 7.22559L76.8791 9.0591L53.3536 17.9953L69.6764 24.3692L66.4504 25.3096L50.0621 19.2458L33.7482 25.4405V25.4415Z" fill="#808285"/>
<path d="M23.3952 38.5665C23.3781 38.5665 23.3611 38.5665 23.3446 38.5638C23.067 38.5362 22.8638 38.2925 22.8914 38.016L25.7866 9.12766C25.8143 8.85372 26.0558 8.65159 26.3398 8.67925C26.6175 8.70585 26.8207 8.95159 26.793 9.22606L23.8984 38.1144C23.8718 38.3729 23.6537 38.5665 23.3962 38.5665H23.3952ZM75.4532 38.5665C75.1888 38.5665 74.9649 38.3612 74.9494 38.0957L73.1994 9.00904C73.1824 8.73244 73.3946 8.49468 73.6739 8.47819C73.9595 8.45957 74.193 8.6718 74.2101 8.9484L75.9585 38.0335C75.976 38.3101 75.7643 38.5473 75.4851 38.5644C75.4739 38.566 75.4638 38.566 75.4532 38.5665ZM41.6579 44.3798L33.2829 24.6351C33.1749 24.3798 33.2962 24.0851 33.5526 23.9782C33.8111 23.8718 34.1074 23.992 34.2154 24.2468L43.5111 46.1617L41.6579 44.3798Z" fill="#939598"/>
<path d="M48.7196 64.616C48.7196 63.9213 49.2643 63.3585 49.9536 63.3101V51.8314C49.9536 51.8314 45.5265 46.6968 42.4909 43.4404C39.4558 40.1851 35.1558 34.5505 35.1558 34.5505L30.7302 59.4697C30.7302 59.4697 35.7887 65.9202 40.3409 70.0516C44.3781 73.7154 49.9526 77.5021 49.9526 77.5021V65.9207C49.2648 65.8723 48.7196 65.309 48.7196 64.616Z" fill="#A81E2C"/>
<path d="M50.0461 65.3665C49.9238 65.3665 49.7993 65.3229 49.7025 65.2335L32.2717 49.2085L32.2664 47.8373L50.043 64.1777L67.594 47.6426L67.6648 48.9575L50.3946 65.2277C50.2967 65.3213 50.1711 65.367 50.0451 65.367L50.0461 65.3665Z" fill="#939598"/>
<path d="M86.5043 38.0564L64.7505 34.5511C64.7505 34.5511 66.7739 46.0708 66.7739 65.3543C66.7739 84.6399 64.1181 97.7878 64.1181 97.7878L86.125 95.408C86.125 95.408 88.9064 84.8867 88.9064 66.7303C88.9053 48.5745 86.5032 38.0559 86.5032 38.0559L86.5043 38.0564ZM76.4484 88.8968C75.8548 88.8968 75.3734 88.4213 75.3734 87.833C75.3734 87.2468 75.8543 86.7692 76.4484 86.7692C77.0426 86.7692 77.5229 87.2468 77.5229 87.833C77.5229 88.4202 77.0431 88.8968 76.4484 88.8968ZM33.1325 65.3537C33.1325 46.0702 35.1559 34.5505 35.1559 34.5505L13.4027 38.0559C13.4027 38.0559 11 48.575 11 66.7314C11 84.8899 13.7819 95.4091 13.7819 95.4091L35.7883 97.7899C35.7883 97.7872 33.1325 84.6404 33.1325 65.3537ZM23.0537 88.8271C22.5005 88.8271 22.0511 88.3819 22.0511 87.8341C22.0511 87.2857 22.4995 86.841 23.0532 86.841C23.6064 86.841 24.0553 87.2857 24.0553 87.833C24.0553 88.3798 23.6069 88.8255 23.0532 88.8255L23.0537 88.8271Z" fill="#CE2227"/>
<path d="M76.4483 45.3646C76.9973 45.3646 77.4424 44.924 77.4424 44.3805C77.4424 43.8371 76.9973 43.3965 76.4483 43.3965C75.8992 43.3965 75.4541 43.8371 75.4541 44.3805C75.4541 44.924 75.8992 45.3646 76.4483 45.3646Z" fill="#A51724"/>
<path d="M76.4495 88.3342C76.4107 88.3342 76.3708 88.3289 76.3309 88.3193C76.0596 88.256 75.8915 87.9879 75.9559 87.7161C75.9713 87.6544 77.4596 81.2539 77.4596 66.4305C77.4596 51.5784 75.9681 44.5539 75.9537 44.4858C75.8958 44.2145 76.0692 43.9486 76.3415 43.8901C76.6128 43.8316 76.8846 44.0039 76.9426 44.2746C76.958 44.3438 78.4713 51.4741 78.4713 66.4305C78.4713 81.3954 77.0027 87.6863 76.9404 87.947C76.8846 88.1805 76.6771 88.3347 76.449 88.3347L76.4495 88.3342Z" fill="#939598"/>
<path d="M23.0537 45.5346C23.6976 45.5346 24.2196 45.0178 24.2196 44.3803C24.2196 43.7429 23.6976 43.2261 23.0537 43.2261C22.4097 43.2261 21.8877 43.7429 21.8877 44.3803C21.8877 45.0178 22.4097 45.5346 23.0537 45.5346Z" fill="#A51724"/>
<path d="M23.0524 88.3341C22.8062 88.3341 22.5907 88.1549 22.5524 87.9065C22.5402 87.8235 21.2822 79.3894 21.2822 66.1692C21.2822 52.9485 22.5402 44.3926 22.5524 44.3075C22.5939 44.0336 22.8503 43.8448 23.1269 43.8857C23.4035 43.9256 23.595 44.1809 23.554 44.4538C23.5407 44.5389 22.2945 53.0283 22.2945 66.1703C22.2945 79.3176 23.5418 87.6783 23.5535 87.7586C23.5961 88.0299 23.4046 88.2878 23.128 88.3288C23.1024 88.3309 23.0769 88.3341 23.0524 88.3341Z" fill="#939598"/>
</svg>
