<svg width="100" height="100" viewBox="0 0 100 100" fill="none" xmlns="http://www.w3.org/2000/svg">
<path fill-rule="evenodd" clip-rule="evenodd" d="M97.8111 17.0008C96.2761 17.0514 96.7203 17.743 93.3971 18.564C90.0403 19.3905 85.9805 18.8845 82.3706 20.4027C72.924 24.3612 71.3945 39.6669 60.143 45.5878C52.7657 49.7545 45.2422 50.7104 38.5172 52.819C33.1192 54.9838 29.7623 56.4176 25.8037 59.8308C22.7336 62.4792 21.9857 65.0489 18.775 68.372C15.5193 72.7973 3.17697 68.8669 0 74.4167C1.67564 75.5019 2.64275 75.7999 5.58355 75.412C4.97627 76.5647 1.1077 78.0829 1.81057 79.781C1.81057 79.781 11.1615 81.4847 19.0449 76.7277C22.7223 75.232 26.1692 72.0663 31.8821 71.3072C39.2819 70.3232 47.6207 72.8591 56.5668 73.5733C54.7169 77.2282 52.8107 79.3874 50.7696 82.4013C50.1398 83.0817 51.3094 83.6833 53.4798 83.2728C57.3822 82.3057 60.2105 81.2598 63.0163 79.3199C66.6769 76.7952 68.2513 74.4842 71.3383 70.8236C74.0205 75.1252 83.4783 76.0699 85.4182 72.3531C81.8083 70.8236 81.0379 62.8672 82.2749 59.4315C83.7369 56.159 84.7884 51.5313 85.9693 47.2297C87.032 43.3555 87.6898 37.4458 88.9606 34.4207C90.4788 30.6589 93.4309 29.4837 95.6463 27.4876C97.8618 25.4914 100.066 23.827 99.9985 19.2612C99.976 17.7767 99.2113 16.9558 97.8111 17.0008Z" fill="#1F305F"/>
<path d="M2.82262 78.9936C8.61988 79.168 10.1943 79.0161 14.777 77.0256C18.6737 75.3331 23.8861 70.7729 28.4913 69.2997C35.2501 67.1292 42.4981 67.4553 49.6899 68.3044C52.0965 68.5912 54.5144 68.9904 56.2406 68.8049C58.934 67.1517 59.0633 62.6646 60.7334 62.3047C60.2779 70.9866 56.5555 76.542 52.8331 81.5802C60.6771 80.197 65.9177 75.2994 69.0891 69.2378C70.0506 67.3991 71.6475 64.3908 72.3785 62.3216C72.9576 63.6936 71.625 64.5652 72.2492 66.0609C77.2986 61.8943 79.6827 57.1485 81.7294 50.1985C84.1023 42.1577 86.5371 35.2471 88.0665 32.8686C89.5566 30.5463 91.8788 29.1125 93.9987 27.628C96.4053 25.9355 98.5589 24.1755 98.93 20.9536C96.3884 20.7174 95.8037 20.1326 95.4269 18.8506C94.1561 19.5647 92.9866 19.7221 91.6652 19.7615C90.5181 19.7952 89.2586 19.7446 87.7179 19.9021C74.9932 21.2066 74.4027 33.6446 65.153 42.7762C64.557 43.3554 63.5392 44.2101 62.8644 44.7161C60.008 46.8472 56.9491 48.0168 53.7271 49.2482C48.509 51.2388 43.5609 51.8179 38.6689 53.5386C35.0759 54.7981 31.7358 56.2432 28.7837 58.2618C28.0471 58.7679 27.0463 59.6676 26.4052 60.1905C24.6734 61.6075 23.5376 63.1763 22.4355 64.7957C21.2996 66.4601 20.2088 68.1751 18.5387 69.8114C15.8341 72.4654 5.7353 70.5873 2.17597 73.0502C1.78236 73.3257 1.46184 73.6518 1.24817 74.0454C3.18809 74.9283 4.48698 74.3884 6.71929 74.6302C6.99481 76.7613 2.09726 78.0209 2.82262 78.9936Z" fill="#C0765A"/>
<path fill-rule="evenodd" clip-rule="evenodd" d="M83.4783 25.1654C85.2776 26.7286 89.0562 25.4746 88.3815 22.3651C85.5812 22.129 83.9618 23.0793 83.4783 25.1654Z" fill="#1F305F"/>
<path d="M96.0344 21.5275C95.5565 22.534 94.6399 23.8272 94.6399 26.3857C94.6342 26.8243 94.3081 27.1279 94.3025 26.4475C94.325 23.9453 94.9885 22.8657 95.6913 21.4487C96.0118 20.8696 96.2087 21.1057 96.0344 21.5275Z" fill="#1F305F"/>
<path d="M95.5506 21.1506C94.9827 22.1065 93.6219 23.8553 93.4027 26.4081C93.3633 26.8467 93.0034 27.1166 93.0597 26.4418C93.3071 23.9565 94.3923 22.3989 95.2189 21.0438C95.59 20.4928 95.7643 20.7458 95.5506 21.1506Z" fill="#1F305F"/>
<path d="M95.1122 20.6502C94.4655 21.5555 92.3738 23.6585 91.9352 26.1776C91.8565 26.6105 91.4797 26.8467 91.5922 26.1832C92.0477 23.726 93.8526 21.7917 94.786 20.5153C95.2021 19.9923 95.3596 20.2622 95.1122 20.6502Z" fill="#1F305F"/>
<path d="M94.7185 20.0877C93.9537 20.8975 91.4572 23.574 90.67 26.0087C90.5294 26.4248 90.1245 26.6104 90.327 25.9637C91.1198 23.5908 93.3071 21.038 94.4149 19.9078C94.9041 19.4524 95.0165 19.7448 94.7185 20.0877Z" fill="#1F305F"/>
</svg>
