<svg width="100" height="100" viewBox="0 0 100 100" fill="none" xmlns="http://www.w3.org/2000/svg">
<g clip-path="url(#clip0_867_15059)">
<path d="M5.0505 20H94.9495C96.289 20 97.5736 20.5321 98.5207 21.4793C99.4679 22.4264 100 23.711 100 25.0505V74.5455C100 75.8849 99.4679 77.1695 98.5207 78.1167C97.5736 79.0639 96.289 79.596 94.9495 79.596H5.0505C3.71103 79.596 2.42641 79.0639 1.47926 78.1167C0.532105 77.1695 0 75.8849 0 74.5455V25.0505C0 23.711 0.532105 22.4264 1.47926 21.4793C2.42641 20.5321 3.71103 20 5.0505 20Z" stroke="black" stroke-width="5.05051"/>
<path d="M12.6262 66.9697V32.6262H22.7272L32.8282 45.2525L42.9293 32.6262H53.0303V66.9697H42.9293V47.2727L32.8282 59.8989L22.7272 47.2727V66.9697H12.6262ZM75.7575 66.9697L60.606 50.303H70.707V32.6262H80.808V50.303H90.9091L75.7575 66.9697Z" fill="black"/>
</g>
<defs>
<clipPath id="clip0_867_15059">
<rect width="100" height="100" fill="white"/>
</clipPath>
</defs>
</svg>
