<svg width="100" height="100" viewBox="0 0 100 100" fill="none" xmlns="http://www.w3.org/2000/svg">
<g clip-path="url(#clip0_867_15030)">
<path d="M28.7377 16.666H28.6377L28.5085 27.5618H28.6002C35.746 27.5618 41.2919 33.216 53.3502 53.5868L54.0794 54.8243L54.1294 54.9077L60.8794 44.7493L60.8294 44.6702C59.3543 42.2552 57.829 39.8714 56.2544 37.5202C54.7041 35.1999 53.0711 32.9359 51.3585 30.7327C43.3877 20.5493 36.721 16.666 28.7377 16.666Z" fill="url(#paint0_linear_867_15030)"/>
<path d="M28.6375 16.666C20.625 16.7077 13.5292 21.9077 8.41667 29.8744C8.40272 29.8979 8.38884 29.9215 8.375 29.9452L17.7667 35.0744L17.8125 35.0035C20.8042 30.491 24.5208 27.6119 28.5125 27.566H28.6L28.7333 16.666H28.6375Z" fill="url(#paint1_linear_867_15030)"/>
<path d="M8.41276 29.874L8.36693 29.9449C5.00026 35.1949 2.49193 41.6449 1.14193 48.599L1.12109 48.6907L11.6794 51.1907L11.6961 51.099C12.8211 44.9865 14.9711 39.3157 17.7628 35.0782L17.8086 35.0074L8.41276 29.874Z" fill="url(#paint2_linear_867_15030)"/>
<path d="M11.6958 51.0996L1.14167 48.5996L1.12083 48.6913C0.383333 52.5163 0.00833333 56.4038 0 60.2996V60.3954L10.825 61.3663V61.2704C10.7856 57.8612 11.0787 54.4562 11.7 51.1038L11.6958 51.0996Z" fill="url(#paint3_linear_867_15030)"/>
<path d="M11.1542 64.7359C10.9601 63.6165 10.85 62.4842 10.825 61.3484V61.2567L2.46574e-05 60.2817V60.3817C-0.0121236 62.6901 0.19154 64.9946 0.608358 67.2651L11.1709 64.8276C11.1652 64.797 11.1597 64.7665 11.1542 64.7359Z" fill="url(#paint4_linear_867_15030)"/>
<path d="M13.6249 70.3745C12.4416 69.0828 11.6082 67.2245 11.1707 64.8412L11.1541 64.7537L0.591553 67.1912L0.608219 67.2787C1.40822 71.487 2.97489 74.987 5.21655 77.6412L5.27489 77.712L13.6832 70.4412C13.6623 70.419 13.6456 70.3968 13.6249 70.3745Z" fill="url(#paint5_linear_867_15030)"/>
<path d="M44.9165 40.2256C38.5499 50.0173 34.6916 56.1631 34.6916 56.1631C26.2124 69.4964 23.2791 72.4839 18.5624 72.4839C17.6348 72.5081 16.713 72.3315 15.86 71.9661C15.0071 71.6008 14.2432 71.0554 13.6207 70.3673L5.21655 77.6339L5.27489 77.7048C8.37489 81.3256 12.7416 83.3339 18.1499 83.3339C26.3291 83.3339 32.2082 79.4673 42.6665 61.1256L50.0249 48.0839C48.3924 45.4185 46.6918 42.7981 44.9165 40.2256Z" fill="#0082FB"/>
<path d="M56.2586 24.7757L56.192 24.8423C54.5253 26.634 52.917 28.6256 51.3586 30.7423C52.9336 32.7548 54.5586 35.009 56.2545 37.534C58.2545 34.4382 60.1211 31.9298 61.9503 30.0048L62.017 29.9381L56.2586 24.7757Z" fill="url(#paint6_linear_867_15030)"/>
<path d="M87.1583 23.8035C82.7208 19.3035 77.4292 16.666 71.7708 16.666C65.8042 16.666 60.7833 19.9452 56.2583 24.766L56.1917 24.8327L61.95 29.9993L62.0166 29.9285C64.9958 26.816 67.8833 25.2619 71.0833 25.2619C74.525 25.2619 77.75 26.8868 80.5416 29.741L80.6041 29.8077L87.225 23.8702L87.1583 23.8035Z" fill="#0082FB"/>
<path d="M99.9915 58.8532C99.7415 44.4074 94.6998 31.4949 87.2248 23.8699L87.1582 23.8032L80.5415 29.7366L80.604 29.8032C86.229 35.6032 90.0915 46.3866 90.4415 58.8491V58.9449H99.9915V58.8532Z" fill="url(#paint7_linear_867_15030)"/>
<path d="M99.9916 58.9576V58.8618H90.4416V58.9535C90.4583 59.5368 90.4666 60.1285 90.4666 60.7202C90.4666 64.116 89.9624 66.8618 88.9333 68.8452L88.8875 68.9368L96.0041 76.3618L96.0583 76.2785C98.6416 72.2785 100 66.7243 100 59.9868C100 59.641 99.9999 59.2993 99.9916 58.9576Z" fill="url(#paint8_linear_867_15030)"/>
<path d="M88.9333 68.8308L88.8875 68.9141C87.9958 70.5891 86.725 71.7058 85.0667 72.1933L88.3083 82.4516C88.9331 82.2405 89.5429 81.9871 90.1333 81.6933C92.4406 80.5269 94.4027 78.7773 95.825 76.6183L96.0083 76.3475L96.0583 76.2641L88.9333 68.8308Z" fill="url(#paint9_linear_867_15030)"/>
<path d="M83.0003 72.47C81.9086 72.47 80.9503 72.3076 80.0086 71.8867L76.6836 82.3951C78.5544 83.0325 80.5461 83.3201 82.7669 83.3201C84.8169 83.3201 86.6961 83.0159 88.4003 82.4242L85.1503 72.1659C84.4544 72.3742 83.7336 72.4784 83.0003 72.47Z" fill="url(#paint10_linear_867_15030)"/>
<path d="M76.346 68.8894L76.2877 68.8186L68.6377 76.7936L68.7044 76.8644C71.3585 79.7061 73.896 81.4686 76.7752 82.4353L80.096 71.9353C78.8835 71.4144 77.7085 70.4644 76.346 68.8894Z" fill="url(#paint11_linear_867_15030)"/>
<path d="M76.2874 68.8109C73.9958 66.1359 71.1541 61.6776 66.6916 54.4776L60.8749 44.7442L60.8291 44.6609L54.0791 54.8192L54.1291 54.9026L58.2499 61.8526C62.2458 68.5609 65.4999 73.4109 68.6374 76.7901L68.7041 76.8567L76.3458 68.8817C76.3262 68.8582 76.3068 68.8346 76.2874 68.8109Z" fill="url(#paint12_linear_867_15030)"/>
</g>
<defs>
<linearGradient id="paint0_linear_867_15030" x1="2485.36" y1="3427.78" x2="478.008" y2="788.971" gradientUnits="userSpaceOnUse">
<stop offset="0.0006" stop-color="#0867DF"/>
<stop offset="0.4539" stop-color="#0668E1"/>
<stop offset="0.8591" stop-color="#0064E0"/>
</linearGradient>
<linearGradient id="paint1_linear_867_15030" x1="449.54" y1="1413.38" x2="1881.83" y2="323.264" gradientUnits="userSpaceOnUse">
<stop offset="0.1323" stop-color="#0064DF"/>
<stop offset="0.9988" stop-color="#0064E0"/>
</linearGradient>
<linearGradient id="paint2_linear_867_15030" x1="639.635" y1="1929.76" x2="1223.55" y2="455.417" gradientUnits="userSpaceOnUse">
<stop offset="0.0147" stop-color="#0072EC"/>
<stop offset="0.6881" stop-color="#0064DF"/>
</linearGradient>
<linearGradient id="paint3_linear_867_15030" x1="550.274" y1="1200.03" x2="621.507" y2="250.462" gradientUnits="userSpaceOnUse">
<stop offset="0.0731" stop-color="#007CF6"/>
<stop offset="0.9943" stop-color="#0072EC"/>
</linearGradient>
<linearGradient id="paint4_linear_867_15030" x1="582.641" y1="467.417" x2="562.17" y2="314.605" gradientUnits="userSpaceOnUse">
<stop offset="0.0731" stop-color="#007FF9"/>
<stop offset="1" stop-color="#007CF6"/>
</linearGradient>
<linearGradient id="paint5_linear_867_15030" x1="494.003" y1="226.759" x2="806.49" y2="891.693" gradientUnits="userSpaceOnUse">
<stop offset="0.0731" stop-color="#007FF9"/>
<stop offset="1" stop-color="#0082FB"/>
</linearGradient>
<linearGradient id="paint6_linear_867_15030" x1="422.354" y1="903.585" x2="799.195" y2="380.859" gradientUnits="userSpaceOnUse">
<stop offset="0.2799" stop-color="#007FF8"/>
<stop offset="0.9141" stop-color="#0082FB"/>
</linearGradient>
<linearGradient id="paint7_linear_867_15030" x1="931.712" y1="242.912" x2="1768.76" y2="3331.87" gradientUnits="userSpaceOnUse">
<stop stop-color="#0082FB"/>
<stop offset="0.9995" stop-color="#0081FA"/>
</linearGradient>
<linearGradient id="paint8_linear_867_15030" x1="756.249" y1="140.429" x2="265.17" y2="1136.08" gradientUnits="userSpaceOnUse">
<stop offset="0.0619" stop-color="#0081FA"/>
<stop offset="1" stop-color="#0080F9"/>
</linearGradient>
<linearGradient id="paint9_linear_867_15030" x1="417.916" y1="876.818" x2="814.153" y2="606.1" gradientUnits="userSpaceOnUse">
<stop stop-color="#027AF3"/>
<stop offset="1" stop-color="#0080F9"/>
</linearGradient>
<linearGradient id="paint10_linear_867_15030" x1="316.09" y1="643.565" x2="1038.76" y2="643.565" gradientUnits="userSpaceOnUse">
<stop stop-color="#0377EF"/>
<stop offset="0.9994" stop-color="#0279F1"/>
</linearGradient>
<linearGradient id="paint11_linear_867_15030" x1="530.443" y1="549.46" x2="937.324" y2="789.657" gradientUnits="userSpaceOnUse">
<stop offset="0.0019" stop-color="#0471E9"/>
<stop offset="1" stop-color="#0377EF"/>
</linearGradient>
<linearGradient id="paint12_linear_867_15030" x1="772.268" y1="679.53" x2="2101.33" y2="2355.67" gradientUnits="userSpaceOnUse">
<stop offset="0.2765" stop-color="#0867DF"/>
<stop offset="1" stop-color="#0471E9"/>
</linearGradient>
<clipPath id="clip0_867_15030">
<rect width="100" height="100" fill="white"/>
</clipPath>
</defs>
</svg>
