<svg width="100" height="100" viewBox="0 0 100 100" fill="none" xmlns="http://www.w3.org/2000/svg">
<path d="M67.825 8.33301C72.6417 8.33301 76.5458 12.1955 76.5458 16.958V69.0455C76.5793 69.8435 76.9211 70.5975 77.4993 71.1485C78.0776 71.6995 78.8471 72.0047 79.6458 71.9997C80.4438 72.0036 81.2123 71.698 81.7896 71.1471C82.367 70.5961 82.7082 69.8428 82.7417 69.0455V37.9122C82.7477 36.785 82.9756 35.67 83.4125 34.6309C83.8494 33.5919 84.4867 32.649 85.288 31.8562C86.0893 31.0634 87.0389 30.4363 88.0826 30.0105C89.1263 29.5847 90.2437 29.3686 91.3708 29.3747C92.4984 29.3686 93.616 29.5848 94.66 30.0109C95.7039 30.4369 96.6537 31.0645 97.4551 31.8577C98.2564 32.6509 98.8936 33.5943 99.3303 34.6338C99.767 35.6734 99.9945 36.7888 100 37.9163V65.2538C99.9956 65.9703 99.707 66.6557 99.1977 67.1596C98.6883 67.6635 97.9998 67.9447 97.2833 67.9413C96.9282 67.9435 96.5761 67.8758 96.2472 67.7419C95.9183 67.608 95.6189 67.4107 95.3663 67.1611C95.1136 66.9115 94.9126 66.6147 94.7747 66.2874C94.6368 65.9602 94.5647 65.609 94.5625 65.2538V37.9163C94.5603 37.4994 94.476 37.087 94.3144 36.7026C94.1529 36.3182 93.9172 35.9694 93.6208 35.6761C93.3244 35.3829 92.9732 35.1508 92.5871 34.9933C92.2011 34.8358 91.7878 34.7558 91.3708 34.758C90.9539 34.7558 90.5406 34.8358 90.1545 34.9933C89.7685 35.1508 89.4172 35.3829 89.1209 35.6761C88.8245 35.9694 88.5888 36.3182 88.4272 36.7026C88.2656 37.087 88.1813 37.4994 88.1792 37.9163V69.0497C88.1732 70.1643 87.9477 71.2668 87.5156 72.2942C87.0835 73.3217 86.4533 74.254 85.6609 75.0378C84.8685 75.8217 83.9294 76.4419 82.8974 76.8628C81.8653 77.2838 80.7604 77.4974 79.6458 77.4913C78.5312 77.4974 77.4264 77.2838 76.3943 76.8628C75.3622 76.4419 74.4232 75.8217 73.6308 75.0378C72.8384 74.254 72.2082 73.3217 71.7761 72.2942C71.344 71.2668 71.1185 70.1643 71.1125 69.0497V16.9663C71.078 16.12 70.7165 15.3201 70.1041 14.7349C69.4917 14.1497 68.6762 13.8249 67.8292 13.8288C66.9821 13.8238 66.1661 14.1475 65.553 14.7319C64.9398 15.3164 64.5773 16.1159 64.5417 16.9622L64.5375 83.2288C64.5243 85.4791 63.6179 87.6321 62.0177 89.2143C60.4175 90.7965 58.2545 91.6785 56.0042 91.6663C54.8896 91.6724 53.7847 91.4588 52.7526 91.0378C51.7206 90.6169 50.7815 89.9967 49.9891 89.2129C49.1967 88.429 48.5665 87.4967 48.1344 86.4692C47.7023 85.4418 47.4768 84.3393 47.4708 83.2247V75.1663C47.4708 73.683 48.6875 72.4788 50.1875 72.4788C51.6875 72.4788 52.9042 73.683 52.9042 75.1663V83.2247C52.9042 84.3205 53.4958 85.333 54.4542 85.883C55.4125 86.4288 56.5958 86.4288 57.5542 85.883C58.0244 85.6164 58.4156 85.2299 58.6879 84.763C58.9601 84.296 59.1038 83.7652 59.1042 83.2247V16.958C59.1042 12.1955 63.0083 8.33301 67.825 8.33301ZM44.1833 8.33301C49 8.33301 52.9042 12.1955 52.9042 16.958V64.9705C52.9025 65.3254 52.8309 65.6765 52.6935 66.0038C52.556 66.331 52.3554 66.6279 52.1031 66.8775C51.8507 67.1271 51.5517 67.3246 51.223 67.4585C50.8943 67.5924 50.5424 67.6602 50.1875 67.658C49.8326 67.6602 49.4807 67.5924 49.152 67.4585C48.8233 67.3246 48.5243 67.1271 48.2719 66.8775C48.0196 66.6279 47.819 66.331 47.6815 66.0038C47.5441 65.6765 47.4725 65.3254 47.4708 64.9705V16.958C47.4653 16.0912 47.116 15.2621 46.4996 14.6527C45.8832 14.0434 45.0501 13.7036 44.1833 13.708C43.3166 13.7036 42.4835 14.0434 41.8671 14.6527C41.2507 15.2621 40.9013 16.0912 40.8958 16.958V75.3455C40.8826 77.6205 39.9667 79.7972 38.3495 81.3973C36.7322 82.9974 34.5458 83.8899 32.2708 83.8788C29.9951 83.891 27.8077 82.999 26.1895 81.3988C24.5713 79.7986 23.6549 77.6212 23.6417 75.3455V37.9163C23.6395 37.4994 23.5552 37.087 23.3936 36.7026C23.232 36.3182 22.9963 35.9694 22.7 35.6761C22.4036 35.3829 22.0523 35.1508 21.6663 34.9933C21.2802 34.8358 20.8669 34.7558 20.45 34.758C20.0331 34.7558 19.6198 34.8358 19.2337 34.9933C18.8477 35.1508 18.4964 35.3829 18.2 35.6761C17.9037 35.9694 17.668 36.3182 17.5064 36.7026C17.3448 37.087 17.2605 37.4994 17.2583 37.9163V53.7497C17.2523 54.8769 17.0244 55.9918 16.5875 57.0309C16.1506 58.07 15.5133 59.0128 14.712 59.8056C13.9107 60.5984 12.9611 61.2256 11.9174 61.6514C10.8737 62.0772 9.75635 62.2932 8.62917 62.2872C7.50198 62.2932 6.38465 62.0772 5.34096 61.6514C4.29727 61.2256 3.34767 60.5984 2.54637 59.8056C1.74508 59.0128 1.10778 58.07 0.670874 57.0309C0.233966 55.9918 0.00600287 54.8769 0 53.7497L0 48.008C0 46.5205 1.21667 45.3163 2.71667 45.3163C4.21667 45.3163 5.4375 46.5247 5.4375 48.008V53.7497C5.4375 55.4913 6.86667 56.9038 8.62917 56.9038C10.3917 56.9038 11.8208 55.4913 11.8208 53.7497V37.9122C11.8341 35.6372 12.7499 33.4605 14.3672 31.8604C15.9845 30.2603 18.1708 29.3678 20.4458 29.3788C22.7216 29.3666 24.909 30.2587 26.5272 31.8589C28.1453 33.4591 29.0618 35.6364 29.075 37.9122V75.3455C29.075 77.0913 30.5042 78.5038 32.2708 78.5038C34.0333 78.5038 35.4625 77.0913 35.4625 75.3455V16.958C35.4625 12.1955 39.3667 8.33301 44.1833 8.33301Z" fill="url(#paint0_linear_867_15001)"/>
<defs>
<linearGradient id="paint0_linear_867_15001" x1="0.00012207" y1="50" x2="100" y2="50" gradientUnits="userSpaceOnUse">
<stop stop-color="#E2167E"/>
<stop offset="1" stop-color="#FE603C"/>
</linearGradient>
</defs>
</svg>
