<svg width="100" height="100" viewBox="0 0 100 100" fill="none" xmlns="http://www.w3.org/2000/svg">
<path d="M14.2832 14.168H28.5707V28.4513H14.2832V14.168ZM71.4249 14.168H85.7165V28.4513H71.4249V14.168Z" fill="#FFD700"/>
<path d="M14.2832 28.4502H42.854V42.7377H14.2874L14.2832 28.4502ZM57.1415 28.4502H85.7124V42.7377H57.1415V28.4502Z" fill="#FFAF00"/>
<path d="M14.2832 42.7405H85.7165V57.0238H14.2832V42.7405Z" fill="#FF8205"/>
<path d="M14.2832 57.0227H28.5707V71.306H14.2832V57.0227ZM42.8582 57.0227H57.1457V71.306H42.8582V57.0227ZM71.4249 57.0227H85.7165V71.306H71.4249V57.0227Z" fill="#FA500F"/>
<path d="M0 71.3091H42.8583V85.5966H0V71.3091ZM57.1417 71.3091H100V85.5966H57.1417V71.3091Z" fill="#E10500"/>
</svg>
