<svg width="100" height="100" viewBox="0 0 100 100" fill="none" xmlns="http://www.w3.org/2000/svg">
<g clip-path="url(#clip0_1085_3108)">
<path d="M100 92.339V7.65933C100 4.18276 97.6876 1.25308 94.5157 0.313232L90.9181 2.46792L50.9704 45.0617L49.7165 48.9765L48.9868 52.7335L61.4439 99.2882L63.3696 99.9992H92.3399C96.5696 99.9992 100 96.5695 100 92.339Z" fill="#EA6618"/>
<path d="M1.57834e-06 7.66016V92.3398C-0.000796566 93.5824 0.301125 94.8063 0.879651 95.906C1.45818 97.0056 2.29588 97.9477 3.32031 98.6508L5.77735 97.4766L48.0586 52.2031L49.7164 48.9773L49.7805 45.8555L38.2727 2.07187L36.5289 0H7.66016C3.42969 0 1.57834e-06 3.42969 1.57834e-06 7.66016Z" fill="#D65813"/>
<path d="M49.7163 48.9773L94.5155 0.314064C93.8091 0.105258 93.0763 -0.000519375 92.3397 1.91737e-06H36.5295L49.7163 48.9773Z" fill="#E05E11"/>
<path d="M7.66016 99.9992H63.3695L49.7164 48.9766L3.32031 98.65C4.59571 99.5313 6.10988 100.002 7.66016 99.9992Z" fill="#DE5C16"/>
<path d="M37.0779 37.9022H42.6326C44.8482 46.2546 47.3693 53.5851 50.1794 60.2015C53.363 52.7577 55.6974 45.4218 57.6716 37.9022H62.924C60.5708 47.246 56.7255 56.6679 52.3255 66.3897H47.6794C43.4529 57.1765 39.8552 47.7038 37.0779 37.9022ZM18.7498 23.4272H31.1037V76.4093H18.6951V72.3257H26.2998V27.4007H18.7498V23.4272ZM81.3138 27.4007H73.7638V72.3257H81.3685V76.4093H68.9607V23.4272H81.3138V27.4007Z" fill="white"/>
</g>
<defs>
<clipPath id="clip0_1085_3108">
<rect width="100" height="100" fill="white"/>
</clipPath>
</defs>
</svg>
