<svg width="100" height="100" viewBox="0 0 100 100" fill="none" xmlns="http://www.w3.org/2000/svg">
<g clip-path="url(#clip0_867_14987)">
<path d="M91.3462 76.9448L52.6989 99.2746C51.8841 99.749 50.958 99.999 50.0151 99.999C49.0721 99.999 48.146 99.749 47.3312 99.2746L8.68389 76.9448C7.01991 75.9786 6 74.2076 6 72.3288V27.6693C6 25.7371 7.01991 24.0195 8.68389 23.0532L47.3312 0.723477C48.146 0.248999 49.0721 -0.000976562 50.0151 -0.000976562C50.958 -0.000976563 51.8841 0.248999 52.6989 0.723477L91.3462 23.0532C93.0106 24.0195 94.0301 25.7907 94.0301 27.6693V72.3288C93.9765 74.2073 92.9566 75.9786 91.3462 76.9448Z" fill="#8D6748"/>
<path d="M49.9615 6.78931C49.1565 6.78931 48.3511 7.00388 47.6534 7.43337L14.2663 26.7034C12.8169 27.5087 11.9583 29.0651 11.9583 30.675V69.2154C11.9583 70.8794 12.8169 72.3824 14.2663 73.1877L47.6534 92.4577C48.3511 92.8872 49.1561 93.1018 49.9615 93.1018C50.7661 93.1018 51.5718 92.8872 52.2695 92.4577L85.6567 73.1874C87.1061 72.3824 87.9647 70.8257 87.9647 69.2157V30.675C87.9647 29.0114 87.1061 27.5087 85.6567 26.7034L52.2695 7.43303C51.5715 7.00388 50.7665 6.78931 49.9615 6.78931ZM49.9615 8.39964C50.4979 8.39964 50.9814 8.56057 51.4642 8.82913L84.8513 28.0991C85.7639 28.6356 86.354 29.6558 86.354 30.7294V69.2694C86.354 70.3429 85.7639 71.3625 84.8513 71.8993L51.4645 91.1693C50.9814 91.4375 50.4982 91.5988 49.9615 91.5988C49.4304 91.5966 48.9103 91.4478 48.4584 91.1689L15.0713 71.8996C14.1587 71.3628 13.5682 70.3433 13.5682 69.2697V30.7294C13.5682 29.6558 14.1587 28.6359 15.0709 28.0988L48.4581 8.82913C48.9412 8.56057 49.478 8.3993 49.9608 8.3993L49.9615 8.39964ZM46.8749 42.0014H51.3837C51.545 42.0014 51.6523 41.9474 51.7596 41.8401C54.4434 38.8343 54.712 32.5539 54.712 30.6754C54.712 30.4072 54.4971 30.1386 54.1752 30.1386H44.0837C43.8155 30.1386 43.547 30.3532 43.547 30.6754C43.547 32.5003 43.8155 38.7807 46.4994 41.8401C46.6067 41.9474 46.714 42.0014 46.8749 42.0014ZM45.6404 31.8026H52.7258C52.994 31.8026 53.2626 32.0172 53.2626 32.3394C53.2626 33.8424 52.994 38.0826 51.1691 40.2834C51.0082 40.391 50.9009 40.4447 50.7396 40.4447H47.573C47.4117 40.4447 47.3044 40.391 47.1971 40.2834C45.3719 38.1366 45.1573 33.8424 45.1037 32.3394C45.1037 32.0711 45.3182 31.8026 45.6404 31.8026ZM50.1492 29.0654C50.1492 29.0654 52.0818 27.9379 50.9006 25.8984C50.2029 24.8245 49.881 23.9122 50.1492 23.5363C49.4515 24.3953 48.2707 25.3076 49.5588 27.2401C49.9886 27.7233 50.2029 28.7428 50.1492 29.0651V29.0654ZM48.0021 29.226C48.0021 29.226 49.2902 28.4746 48.4852 27.0789C48.0021 26.3812 47.7875 25.7371 48.0021 25.5222C47.519 26.1126 46.7676 26.703 47.6263 28.0451C47.8948 28.3134 48.0021 29.0114 48.0021 29.226ZM47.8412 39.8006H50.5251C50.6324 39.8006 50.7396 39.747 50.8469 39.6397C51.7596 38.5661 52.189 36.9021 52.4036 35.4527C52.4036 35.4527 52.35 35.9359 51.0619 36.419C49.2909 37.0631 46.1772 36.6336 46.1772 36.6336C46.4454 37.7608 46.8753 38.8343 47.519 39.6397C47.5726 39.747 47.7339 39.8006 47.8412 39.8006ZM27.6586 54.8837V44.1485H25.6727L22.3984 49.194L19.1241 44.1485H17.1379V54.9373H19.0165V47.2615L22.3444 52.2534H22.3981L25.78 47.2079V54.8837H27.6586ZM39.6826 44.363C38.9845 44.0948 38.2332 43.9335 37.4282 43.9335C36.6228 43.9335 35.8715 44.0408 35.1734 44.3634C34.4754 44.6316 33.8853 45.0607 33.4022 45.5439C32.8948 46.05 32.4934 46.6521 32.2213 47.3151C31.9531 48.0132 31.7915 48.7106 31.7915 49.4622V49.5159C31.7915 50.2672 31.9531 51.0189 32.2213 51.663C32.4896 52.3611 32.8654 52.9511 33.3485 53.4343C33.8317 53.9174 34.4221 54.3469 35.1195 54.6151C35.8175 54.8837 36.5692 55.0449 37.3742 55.0449C38.1795 55.0449 38.9309 54.9373 39.6289 54.6151C40.3266 54.3469 40.9171 53.9174 41.3999 53.4343C41.9073 52.9283 42.3088 52.3262 42.581 51.6633C42.8493 50.9653 43.0105 50.2672 43.0105 49.5159V49.4622C43.0105 48.7106 42.8489 47.9596 42.5807 47.3151C42.3125 46.6174 41.937 46.027 41.4538 45.5442C40.9707 45.0607 40.3803 44.6313 39.6826 44.363ZM40.9707 49.5695C40.9707 50.0527 40.8634 50.5358 40.7021 51.0189C40.4876 51.4481 40.273 51.8776 39.9508 52.1998C39.6211 52.5273 39.2404 52.7992 38.8236 53.0048C38.3938 53.2197 37.911 53.327 37.3742 53.327C36.8914 53.327 36.3546 53.2197 35.9251 53.0048C35.5084 52.7993 35.1277 52.5276 34.7979 52.2001C34.4757 51.8239 34.2075 51.4481 34.0462 50.9656C33.8853 50.4822 33.778 49.9994 33.778 49.4622V49.4086C33.778 48.9255 33.8853 48.4423 34.0462 47.9592C34.2612 47.5297 34.4757 47.1006 34.7979 46.7784C35.1276 46.4507 35.5083 46.1787 35.9251 45.973C36.3546 45.7585 36.8374 45.6512 37.3742 45.6512C37.9106 45.6512 38.3941 45.7585 38.8236 45.973C39.2404 46.1787 39.6211 46.4507 39.9508 46.7784C40.273 47.1542 40.5412 47.5297 40.7021 48.0128C40.8634 48.496 40.9704 48.9791 40.9704 49.5159V49.5695H40.9707ZM48.9147 47.9592C49.1293 47.5297 49.3442 47.1002 49.6661 46.7784C49.9959 46.4509 50.3766 46.1789 50.7933 45.973C51.2228 45.7585 51.6523 45.6512 52.189 45.6512C52.8331 45.6512 53.3699 45.7584 53.853 46.0267C54.3362 46.2952 54.7656 46.6174 55.1948 46.9929L56.4296 45.5975C56.1611 45.3293 55.8928 45.1144 55.6243 44.8995C55.3561 44.6849 55.0339 44.524 54.712 44.363C54.3362 44.2554 54.014 44.1481 53.5845 44.0408C53.1553 43.9872 52.7258 43.9335 52.2427 43.9335C51.3837 43.9335 50.686 44.0945 49.9883 44.3627C49.2906 44.6313 48.7002 45.0607 48.217 45.5439C47.7432 46.0659 47.362 46.6649 47.0898 47.3151C46.8085 47.9961 46.6626 48.7254 46.6603 49.4622V49.5159C46.6603 50.2672 46.8213 50.965 47.0898 51.663C47.358 52.3611 47.7339 52.9511 48.217 53.4343C48.7002 53.9174 49.2906 54.3469 49.9346 54.6151C50.614 54.9017 51.3444 55.0479 52.0818 55.0449C52.5649 55.0449 53.0477 55.0449 53.5308 54.9373C53.9067 54.8837 54.3362 54.7224 54.658 54.5615C54.9802 54.4005 55.3024 54.2393 55.6243 53.971C55.9465 53.7028 56.2147 53.4879 56.4833 53.1657L55.2488 51.9312C54.7656 52.3611 54.2825 52.6829 53.853 52.9511C53.4235 53.2197 52.8331 53.327 52.189 53.327C51.7059 53.327 51.2228 53.1657 50.7933 53.0048C50.3641 52.8438 49.9883 52.5216 49.6661 52.2001C49.3442 51.8239 49.0757 51.4481 48.9147 50.965C48.7538 50.4822 48.6462 49.999 48.6462 49.4622V49.4086C48.6462 48.9255 48.7538 48.4423 48.9147 47.9592ZM60.2407 44.1485V54.8837H62.1193V50.3749H67.2725V54.8837H69.151V44.1481H67.2725V48.6036H62.1193V44.1481H60.2407V44.1485ZM80.8525 52.3074L81.926 54.884H83.9119L79.1885 44.0948H77.4705L72.7472 54.8837H74.6797L75.8066 52.3071H80.8525V52.3074ZM78.3295 46.3492L80.1544 50.6434H76.5046L78.3295 46.3492ZM15.7962 58.8553H84.2341V58.2649H15.7962V58.8553ZM55.1415 38.0823C55.1415 38.2969 55.0875 38.4581 55.0875 38.6731H84.2341V38.0823H55.1412H55.1415ZM43.1715 38.0823H15.7962V38.6731H43.2251C43.2251 38.4585 43.1711 38.2972 43.1711 38.0823H43.1715Z" fill="white"/>
</g>
<defs>
<clipPath id="clip0_867_14987">
<rect width="100" height="100" fill="white"/>
</clipPath>
</defs>
</svg>
