<svg width="100" height="100" viewBox="0 0 100 100" fill="none" xmlns="http://www.w3.org/2000/svg">
<g clip-path="url(#clip0_867_14978)">
<path d="M0 33.1946H11.1125V44.3071H0V33.1946ZM33.3333 44.3029H44.4458V55.4154H33.3333V44.3029Z" fill="#36CED0"/>
<path d="M0 44.3031H11.1125V55.4156H0V44.3031ZM11.1125 55.4156H22.2208V66.5281H33.3333V77.6364H11.1125V55.4156ZM11.1125 22.0823H33.3333V33.1948H22.2208V44.3031H11.1125V22.0823ZM44.4458 55.4156H55.5583V66.5281H44.4458V55.4156Z" fill="#624AFF"/>
<path d="M100 33.1946H88.8875V44.3071H100V33.1946ZM66.6667 44.3029H55.5542V55.4154H66.6667V44.3029Z" fill="#36CED0"/>
<path d="M100 44.3031H88.8878V55.4156H100V44.3031ZM88.8878 55.4156H77.7795V66.5281H66.667V77.6364H88.8878V55.4156ZM88.8878 22.0823H66.667V33.1948H77.7795V44.3031H88.8878V22.0823Z" fill="#624AFF"/>
</g>
<defs>
<clipPath id="clip0_867_14978">
<rect width="100" height="100" fill="white"/>
</clipPath>
</defs>
</svg>
