<svg width="100" height="100" viewBox="0 0 100 100" fill="none" xmlns="http://www.w3.org/2000/svg">
<path d="M62.4758 7.82471C57.0891 7.82471 52.7258 12.1888 52.7258 17.5747C52.7307 19.3404 53.215 21.0715 54.127 22.5834C55.039 24.0953 56.3444 25.3312 57.9039 26.1591L52.5234 36.37C51.2076 35.9439 49.8332 35.7259 48.45 35.7239C41.1312 35.7239 35.1992 41.656 35.1992 48.9739C35.2109 49.92 35.3242 50.863 35.5375 51.7849L24.8266 55.7036C23.8169 54.0958 22.4156 52.7706 20.7541 51.8519C19.0926 50.9333 17.2251 50.4514 15.3266 50.4513C9.125 50.4513 4.10156 55.4747 4.10156 61.6755C4.10156 67.8739 9.125 72.9005 15.3258 72.9005C21.5242 72.9005 26.55 67.8739 26.55 61.6755C26.5484 60.8679 26.4604 60.0628 26.2875 59.2739L36.5539 54.7661C37.639 56.9989 39.3295 58.882 41.4328 60.2007C43.5361 61.5194 45.9675 62.2207 48.45 62.2247C51.3579 62.2128 54.1812 61.2445 56.4844 59.4692L65.1234 67.6935C63.2762 70.3904 62.2832 73.5808 62.2734 76.8497C62.2734 85.8396 69.5609 93.1239 78.5484 93.1239C87.5391 93.1239 94.8234 85.8396 94.8234 76.8489C94.8234 67.8614 87.5391 60.5739 78.5484 60.5739C74.8087 60.5859 71.1869 61.8844 68.2914 64.2513L59.0992 56.8021C60.777 54.5359 61.6881 51.7936 61.7 48.9739C61.6983 46.8239 61.1737 44.7065 60.1714 42.8043C59.1692 40.9021 57.7193 39.2722 55.9469 38.0552L60.5062 27.0997C61.1531 27.2403 61.8125 27.3161 62.475 27.3255C67.8578 27.3255 72.225 22.9614 72.225 17.5755C72.225 12.1911 67.8586 7.82471 62.4758 7.82471Z" fill="#3CAFCE"/>
</svg>
