<svg width="100" height="100" viewBox="0 0 100 100" fill="none" xmlns="http://www.w3.org/2000/svg">
<path d="M27.5414 92.5763C12.4797 89.2794 0.883594 75.9646 0.125781 61.0981L0 57.8747L3.90156 57.8817C7.38594 57.888 7.80234 57.8192 7.60156 57.1786C5.69531 51.1169 6.22266 43.6513 9.42188 37.4677C12.6828 31.1661 11.1508 31.4552 17.4203 36.1208C22.0578 39.5724 22.557 39.6833 22.7266 38.8239C22.8281 38.3106 23.1453 36.6817 23.4312 35.2044C23.718 33.7271 24.7516 30.9247 25.7297 28.9771L27.507 25.4356L25.5047 23.9669C21.8352 21.2716 18.3 15.8028 16.5898 10.1716C15.4344 6.36924 15.8484 5.89033 18.5977 7.84658C24.7766 12.245 30.9984 13.7372 45.3359 14.256C49.6586 14.4122 54.2727 14.8106 55.6742 15.1489C61.3992 16.5302 67.0742 20.17 70.5719 24.7036C72.1391 26.7349 72.5844 27.0489 74.207 27.2716C75.2242 27.4106 77.2219 27.9278 78.6461 28.4208L81.2359 29.3169C93.9344 15.3239 90.1852 39.0513 93.1773 57.1685C91.2734 58.9794 86.8414 61.731 85.8305 61.731C85.0008 61.731 80.7742 57.3153 79.3859 55.0372C78.6867 53.8888 78.6695 53.7763 78.3453 53.1247C77.9672 53.2708 75.8227 53.9528 74.6625 54.1731C73.5023 54.3935 72.493 54.7489 72.4203 54.9622C72.3477 55.1755 71.6664 56.1685 70.9047 57.1692C69.75 58.6872 69.4648 58.4356 69.2633 61.9427C68.5469 74.3646 59.5383 85.9872 47.9594 90.6638C41.5164 93.2669 33.9383 93.9763 27.5414 92.5763ZM41.4508 91.0216C53.9367 88.456 63.6492 79.1231 66.8469 66.6216C67.3156 64.7856 67.6328 62.345 67.7 61.2013C67.9461 57.0185 67.9969 58.6677 69.9656 55.6778C71.2109 53.7856 72.5633 51.3419 72.9703 50.2481L73.7102 48.2606L72.6203 46.9653C70.9531 44.9849 70.6594 43.1739 70.6562 34.8864L70.6539 27.2403L68.9789 25.1372C65.943 21.3239 60.9086 18.0786 55.9977 16.77C54.4602 16.3591 50.1484 15.9825 44.2812 15.745C32.0031 15.2489 26.6359 14.181 20.9562 11.1044C19.6648 10.4052 18.5187 9.92315 18.4094 10.0333C18.0719 10.3692 19.6266 14.1231 21.1766 16.713C24.4695 22.2177 29.3695 25.5489 35.4656 26.4271C37.9344 26.7825 38.5492 26.7192 38.4836 27.5325C38.4016 28.5497 34.6586 27.7716 31.4227 27.1239C30.1094 26.8614 28.9898 26.4286 28.8398 26.5224C28.0961 26.9817 25.4078 33.2849 24.8672 35.8349C23.7516 41.0989 22.8633 40.0036 35.5656 49.0185C41.7961 53.4396 47.1344 57.3466 47.4281 57.7013C47.8656 58.2271 47.6047 58.5239 47.3422 58.5841C45.9914 58.8903 42.2969 55.6755 29.7703 46.7739C20.4461 40.1489 12.7328 34.7255 12.6273 34.7255C12.2492 34.7255 9.97344 39.6216 9.30625 41.87C8.14375 45.7841 8.01797 45.6997 12.9508 45.7872C17.1523 45.8622 17.2703 45.6974 17.2758 46.5403C17.282 47.4216 16.4375 47.1958 12.7398 47.2935L8.20391 47.413V52.0052L15.0609 52.1208C21.6625 52.2325 21.9188 51.931 21.9172 52.87C21.9164 53.7505 20.8461 53.5216 15.2719 53.6192C7.71406 53.7513 8.10938 53.4919 9.29922 57.5403C11.2398 64.1427 16.2719 70.2591 22.3617 73.4153C24.2055 74.3724 26.5695 75.3864 27.6141 75.6692C32.8078 77.0755 39.3953 76.8755 44.0328 75.17C47.5328 73.8833 48.0242 73.5794 48.2945 74.5067C48.4836 75.1575 47.3734 75.5239 46.2086 76.0255C40.0461 78.6763 31.8883 78.8935 25.5992 76.5739C18.5758 73.9817 13.1195 69.1911 9.77891 62.6825L7.99297 59.2028L4.68047 59.2013L1.36953 59.1989L1.67422 61.8364C2.63516 70.1528 6.02578 76.9349 12.0945 82.6747C19.9836 90.1364 30.7977 93.2106 41.4508 91.0216ZM55.2688 45.4825C52.7508 44.8271 50.2977 42.431 49.5344 39.8817C47.5969 33.4153 54.2555 27.3146 60.4352 29.8958C63.7336 31.2731 65.6992 34.081 65.7281 37.4575C65.7766 43.0872 60.7828 46.9185 55.2688 45.4825ZM60.5422 43.481C63.0016 42.2411 64.468 39.5903 64.1875 36.8927C63.7055 32.2724 58.6703 29.5669 54.3586 31.613C50.1594 33.6052 49.6227 39.9966 53.4141 42.8552C55.8094 44.6606 57.8477 44.8396 60.5422 43.481ZM55.0719 39.5216C53.8305 37.9435 54.0422 35.9489 54.5812 36.3771C56.1187 37.5989 57.1063 35.8966 56.6063 35.1208C56.1063 34.3435 56.6766 34.3036 57.4273 34.3036C58.4977 34.3036 60.4469 35.8817 60.5555 36.8349C60.8164 39.1396 59.5719 40.6333 57.393 40.6333C56.3328 40.6333 55.7125 40.3364 55.0719 39.5216ZM76.4555 51.82C77.5203 51.5138 77.5813 51.2778 76.9938 49.7325C76.4109 48.1997 75.4156 48.3911 74.668 50.1786C73.8445 52.1497 73.8633 52.5513 74.768 52.2989C75.1742 52.1856 75.9336 51.9708 76.4555 51.82ZM90.0641 46.2075C90.0641 44.6192 88.718 40.3896 87.4633 38.0356C85.0016 33.4161 79.4781 29.5458 74.5086 28.9575L72.3414 28.7005V36.1646C72.3414 43.97 72.6406 45.5138 74.3461 46.5067C74.7695 46.7536 78.2758 46.9419 82.5742 46.9497C89.4945 46.9614 90.0641 46.9052 90.0641 46.2075Z" fill="#00BD9F"/>
<path d="M85.8186 61.7777C85.8905 61.1387 86.8452 61.3035 87.4335 61.0645C87.81 60.9121 85.346 66.7496 85.2163 66.8793C85.2303 66.5473 85.6749 63.0652 85.8186 61.7777Z" fill="#E6E7E8"/>
<path d="M85.2162 66.8794C84.7022 64.9396 84.292 62.6997 84.3873 60.7544C85.6037 61.4575 85.9873 60.695 85.8475 61.6872C85.7154 62.6192 85.3115 66.3856 85.2162 66.8794Z" fill="#BCBEC0"/>
<path d="M89.8633 38.2723C89.4359 37.3348 88.9024 33.7504 89.4492 31.0824C89.6063 30.3145 89.3453 30.109 87.668 29.6871C86.5875 29.4152 85.0469 28.9184 84.2453 28.5832C83.0359 28.0777 82.875 27.8691 83.3 27.3566C83.9719 26.5473 86.6492 24.5371 87.9227 24.002L90.3109 22.998L89.9281 26.1105C89.3852 30.5262 89.2117 30.2145 92.4102 30.1535C93.8073 30.072 95.1988 29.9124 96.5781 29.6754C97.8563 32.4301 97.9086 32.484 99.457 36.748C99.293 37.0934 98.6555 37.0145 97.5891 37.4863C96.5094 37.9645 94.1578 38.6816 92.5594 38.8535C89.7445 39.1535 90.3219 39.2785 89.8633 38.2723Z" fill="#05BF9D"/>
<path d="M91.7515 45.5701C91.7593 44.7521 91.3999 42.9505 90.9687 41.5669L90.1851 39.0498L92.3398 38.824C93.5249 38.6998 95.3491 38.2841 96.3937 37.8998C98.3155 37.1919 98.889 36.9482 99.4562 36.7474C100.202 39.4896 100.045 42.3138 99.7788 44.0998C97.4273 45.4857 97.1257 45.5607 93.3335 46.7591L91.7366 47.2419L91.7515 45.5701ZM85.8444 32.9873C84.3444 31.4435 82.8257 30.2029 82.3726 29.963C82.0194 29.7755 81.7194 29.4943 81.2429 29.324C81.6611 28.9048 82.0955 28.5021 82.5452 28.1169C84.896 29.0974 85.4734 29.5279 89.3968 30.2607C89.1616 33.0216 89.2241 33.4857 89.0265 36.2607L85.8444 32.9873Z" fill="#05B697"/>
<path d="M86.8033 53.1374C87.0189 51.9303 87.176 50.4475 87.2181 49.8092C87.2517 49.3038 87.3845 48.8374 87.3845 48.8374L89.5236 48.6491C90.9728 48.5225 90.9166 48.5397 91.7174 48.4131C91.7517 47.842 91.7517 48.0077 91.7517 47.842C91.7517 47.5342 91.7424 47.3967 91.7361 47.2405C94.0064 46.5584 96.7408 45.7499 99.7791 44.0999C99.7791 45.3241 99.0213 47.642 98.2955 49.6124C97.6595 51.3389 96.5252 53.1038 96.1705 53.6022C95.3916 53.9631 94.9377 54.4084 93.7596 54.7584C92.9314 55.0045 90.3978 55.442 88.4666 55.6077C87.6244 55.6803 86.8877 55.5975 86.4728 55.5983H86.3642L86.8033 53.1374Z" fill="#05AE92"/>
<path d="M90.3107 22.998C94.2459 25.1441 95.6779 27.748 96.5779 29.6754C95.4303 29.9176 93.8685 30.1621 91.6982 30.2098L89.3967 30.2613C89.6795 27.6543 90.0068 25.3512 90.3107 22.998Z" fill="#05C7A2"/>
<path d="M86.0915 58.6188L86.3649 55.5993L84.7376 55.2087C82.718 54.7243 79.0219 53.1134 78.1368 52.1313C77.7704 51.7251 77.3407 50.8704 77.1813 50.2329L76.5274 48.9267L82.0047 48.9204L87.3844 48.8384L86.9922 51.9571C86.7954 53.5181 86.993 51.9571 86.3649 55.5993C87.7352 55.5853 86.9969 55.6415 87.7344 55.5853C89.2719 55.4681 91.6563 55.1524 92.1133 55.079C93.5555 54.8454 96.1696 53.4313 96.1696 53.6024C95.3258 54.8813 93.9844 56.5063 92.3922 57.8665C90.5852 59.4103 88.4813 60.6493 86.861 61.3235L85.8102 61.7228L86.0915 58.6188Z" fill="#05A58C"/>
<path d="M82.5729 58.961C81.2393 57.5759 79.3643 55.3571 78.9127 54.336L77.5182 51.186L81.3542 53.9751C83.6643 54.7954 84.6299 55.1157 86.3643 55.5985C86.2377 56.9103 85.9612 61.3931 85.8096 61.722C84.376 60.9454 84.0487 60.4939 82.5729 58.961Z" fill="#079D86"/>
</svg>
