<svg width="100" height="100" viewBox="0 0 100 100" fill="none" xmlns="http://www.w3.org/2000/svg">
<g clip-path="url(#clip0_867_14671)">
<path d="M54.592 31.0751C53.2775 31.13 51.0564 31.483 51.0564 31.632C51.0564 31.6939 52.6219 32.4782 52.7419 32.4782C52.8517 32.4782 54.6689 33.3849 55.0728 33.6358C55.5998 33.9731 55.9771 34.2789 55.8665 34.2789C55.7959 34.2789 53.9301 33.5566 53.2226 33.2531C52.647 33.0108 50.2541 32.297 49.0895 32.0218C48.4589 31.8743 48.1922 31.8194 47.1201 31.6233C45.539 31.3347 43.6794 31.3175 42.8708 31.5833C41.7124 31.9598 41.4521 32.4225 41.4521 34.1291C41.4521 35.0703 41.4983 35.4679 41.703 36.3134C41.7924 36.6812 42.0434 37.4898 42.1603 37.7628C42.194 37.849 42.3038 38.1157 42.3956 38.351C42.4905 38.5839 42.7759 39.187 43.0269 39.6803C44.4363 42.4779 46.5468 44.8096 49.5216 46.8613C50.4596 47.5044 53.0085 48.724 54.0312 49.0157C54.2916 49.0863 54.3779 49.233 54.1661 49.233C53.9309 49.233 51.7741 48.6385 51.3325 48.4518C51.1645 48.3773 50.994 48.3088 50.8212 48.2463C49.2863 47.6275 47.3256 46.3531 45.7045 44.9037C43.9283 43.323 42.5082 41.383 41.5383 39.2121C40.9164 37.8082 40.4937 36.173 40.3893 34.7479C40.3282 33.9331 40.2639 33.737 40.0521 33.7464C39.9815 33.7464 39.3109 33.7221 38.5722 33.6821C36.5628 33.5958 33.8178 33.817 31.1002 34.286C25.9043 35.1707 20.2982 37.2145 14.529 40.3297C13.5696 40.8492 12.6217 41.3897 11.686 41.9508C11.5762 42.0152 11.2295 42.2261 10.9142 42.4222C10.6013 42.6183 10.2311 42.8363 10.0962 42.9218C9.79819 43.0967 6.49948 45.3358 6.1042 45.6331C5.95675 45.7405 5.54657 46.0464 5.2007 46.2982C3.63447 47.4558 0.225174 50.2376 0.029102 50.52C-0.0657968 50.6611 0.0840022 50.7317 0.286348 50.6611C0.390659 50.6204 0.657317 50.5655 0.871427 50.5357C1.09181 50.5012 1.65885 50.3545 2.13021 50.1984C2.60862 50.0478 3.12312 49.8918 3.27056 49.8518C4.43758 49.5788 4.90973 49.4839 5.59206 49.3828C5.90185 49.3435 6.35831 49.273 6.61555 49.233C9.81388 48.764 11.3401 48.6479 12.7644 48.7545C15.8584 49.0055 18.8183 49.5333 20.5124 50.1333C21.7805 50.5898 24.3601 51.9842 25.4941 52.8203C26.1498 53.3144 28.2572 55.4124 28.7231 56.0461C29.0838 56.5488 29.4854 56.9872 29.5803 56.9872C29.6117 56.9872 29.6509 55.3873 29.6603 53.4391L29.6815 49.9004L33.8241 49.8769C37.0836 49.8612 37.9871 49.8855 38.0428 49.9553C38.122 50.0572 38.3118 50.3945 38.9337 51.5427C39.5251 52.6485 39.816 53.1819 39.9972 53.5003C40.0913 53.6752 40.3093 54.0799 40.4937 54.4014C40.6646 54.723 40.9862 55.3175 41.2074 55.7245C41.4277 56.1323 41.6081 56.4782 41.6081 56.4931C41.6081 56.5637 41.9328 56.9872 41.9885 56.9872C42.0191 56.9872 42.0983 56.8672 42.1532 56.7362C42.2152 56.5951 42.3807 56.2821 42.5155 56.0461C42.6567 55.8108 42.9077 55.3512 43.0818 55.0296C43.2567 54.7081 43.4928 54.261 43.6183 54.0493C43.9641 53.4297 44.3257 52.7591 44.6261 52.2109C44.9446 51.6051 45.2725 51.0043 45.6096 50.4086C45.7107 50.2125 45.837 50.0071 45.8762 49.9553C45.9405 49.8847 46.8683 49.8604 50.2235 49.8753L54.4822 49.8996L54.5057 56.8147C54.5214 62.2616 54.5434 63.7203 54.6234 63.7203C54.6689 63.7109 54.9842 63.5297 55.3088 63.3031C55.7653 62.9847 55.9614 62.7886 56.1731 62.427C56.6539 61.6059 58.017 60.3134 58.9299 59.8107C60.0395 59.1977 61.2328 58.7501 62.4718 58.4821C63.7305 58.2154 64.1015 58.1762 66.9602 58.0742C72.1773 57.8939 72.9491 57.8625 72.9891 57.8233C73.0134 57.8021 72.9436 57.5966 72.8393 57.3605C72.7295 57.1339 72.5412 56.7111 72.4071 56.4296C71.9107 55.3575 71.9107 54.9983 72.4314 54.472C72.7844 54.1034 73.6965 53.7818 75.2651 53.4697C75.5231 53.4148 75.8478 53.3442 75.9788 53.2987C76.1144 53.2587 76.2791 53.2281 76.3497 53.2281C76.5489 53.2281 78.1144 52.8446 78.4453 52.7191C78.6728 52.625 79.901 52.3583 81.3652 52.076C82.0021 51.9505 83.6569 51.6227 85.0263 51.3466C85.8929 51.1756 86.7972 50.9945 87.0325 50.9482C87.2686 50.9027 87.609 50.8321 87.7807 50.8015C87.9548 50.7623 88.1815 50.7129 88.2921 50.6972C88.4019 50.6761 88.954 50.5655 89.514 50.4494C89.9339 50.3574 90.356 50.2755 90.7798 50.2039C91.1751 50.1671 94.1436 49.4533 94.8268 49.233C95.9146 48.88 96.2361 48.7396 96.9224 48.2801C97.6604 47.7781 97.8659 47.5052 98.5976 46.0464C99.4101 44.4261 99.5262 44.1531 99.756 43.47C100.109 42.383 100.087 41.9689 99.6368 41.5124C99.3207 41.2003 98.6439 40.8787 98.1506 40.8081C97.7804 40.7619 97.731 40.7768 97.5506 40.9728C97.44 41.0905 97.3451 41.2309 97.3451 41.2795C97.3451 41.3501 97.2196 41.6936 96.8667 42.5391C96.833 42.6253 96.7632 42.8363 96.7075 43.0073C96.662 43.1822 96.5663 43.4245 96.5114 43.5563C96.4102 43.7759 96.4016 43.7367 96.4408 43.1273C96.4808 42.5234 96.582 42.0152 96.8118 41.2458C96.8518 41.0991 96.9067 40.8481 96.9287 40.6913L96.9679 40.4089L96.1499 40.0819C95.2989 39.729 94.5656 39.4231 94.1437 39.2333C93.9993 39.1815 93.6472 39.0404 93.3562 38.9298C93.0558 38.82 92.6943 38.6788 92.5445 38.6082C92.2714 38.4874 91.9956 38.3731 91.7171 38.2655C91.19 38.06 89.3485 37.4349 87.7799 36.9416C86.7328 36.6205 85.6842 36.3041 84.6342 35.9926C84.2646 35.8986 83.8969 35.7972 83.5314 35.6883C83.406 35.6546 83.0962 35.5691 82.8601 35.5079C81.4751 35.1252 81.1143 35.0295 80.617 34.8883C80.3431 34.8094 80.0675 34.7361 79.7904 34.6687C79.6406 34.6319 79.2336 34.537 78.8869 34.4507C78.2799 34.3009 75.7372 33.7158 74.3584 33.3998L73.3749 33.1731C73.2008 33.1339 72.8887 33.0719 72.6675 33.0319C72.4534 32.9927 72.0056 32.9064 71.6809 32.8359C71.3593 32.7755 70.6668 32.6398 70.146 32.5543C69.6284 32.4625 69.0064 32.3527 68.7704 32.3127C66.5955 31.9206 66.4489 31.8986 62.551 31.4673C60.1495 31.1943 56.9198 30.9645 56.1331 31.0045C56.0077 31.0045 55.3096 31.0351 54.592 31.0751ZM45.4904 34.9346C47.5703 35.6091 49.5922 36.5251 50.9772 37.4192C52.0799 38.1306 53.4493 39.267 53.8203 39.7752L53.9763 39.987L53.6791 39.8701C53.5144 39.7995 53.1677 39.6505 52.9074 39.5243C51.5223 38.8811 51.3725 38.8286 51.3725 38.9698C51.3725 39.0066 51.6941 39.5243 52.0799 40.1031C52.4752 40.6913 52.7874 41.2089 52.7874 41.256C52.7874 41.2952 52.6407 41.2309 52.4564 41.1054C51.749 40.6207 50.0878 39.9227 49.9937 40.0639C49.9694 40.1031 50.48 40.7525 51.1364 41.5124C51.7796 42.2724 52.316 42.9218 52.316 42.9712C52.316 43.0873 52.1905 43.0716 51.5929 42.8512C50.9772 42.634 50.8212 42.6097 50.8212 42.7595C50.8212 42.8606 52.1505 44.6527 52.6776 45.2715C52.8274 45.4433 52.9466 45.6088 52.9466 45.648C52.9466 45.8354 51.1027 44.6378 49.7977 43.6049C47.9311 42.1163 46.1272 40.1188 45.1782 38.4678C44.3963 37.1189 44.1296 36.3934 44.1296 35.5934C44.1296 35.1252 44.1516 35.0303 44.3257 34.864C44.4276 34.7574 44.5555 34.668 44.6018 34.668C44.648 34.668 45.0425 34.7879 45.4904 34.9346ZM70.3452 37.7228C71.0989 37.8577 72.131 38.0357 72.6275 38.1243C73.1239 38.2106 73.7302 38.311 73.9663 38.351C74.2023 38.3972 74.5388 38.4584 74.7137 38.4976C74.8862 38.5376 75.2258 38.6082 75.4619 38.6631C76.2399 38.8357 76.4297 38.8749 77.7042 39.1721C79.0736 39.4937 79.3739 39.5548 79.7904 39.6403C80.1457 39.7109 80.4978 39.8458 80.4978 39.907C80.4978 39.9321 80.2406 40.0819 79.9253 40.2442C79.279 40.5658 79.1441 40.5901 76.4846 40.6913C74.6745 40.7681 73.7059 40.7462 72.8236 40.605C71.0432 40.3305 70.1248 39.8309 69.408 38.7494C69.157 38.3816 68.9915 38.271 68.4151 38.1243C68.2033 38.06 67.8794 37.9737 67.7077 37.9188C67.5328 37.8639 67.2355 37.7777 67.0457 37.7228C66.4787 37.5761 66.801 37.4898 67.9437 37.4898C68.7304 37.4898 69.2825 37.5424 70.3452 37.7228ZM79.8147 48.6636C79.7503 48.6789 79.6831 48.6789 79.6186 48.6636C79.5637 48.6385 79.603 48.6236 79.7135 48.6236C79.821 48.6236 79.861 48.6393 79.8155 48.6628L79.8147 48.6636ZM79.4751 48.7553C79.4751 48.7945 79.3834 48.8494 79.2634 48.8745C79.0187 48.9357 78.0595 49.2118 77.7442 49.3122C77.6336 49.3522 77.2783 49.4628 76.9568 49.5553C76.145 49.7906 74.178 50.4306 73.651 50.6361C72.6581 51.0125 70.3272 52.2478 69.9993 52.5787C69.5092 53.0564 69.3586 53.5709 69.4323 54.5575C69.4535 54.974 69.5092 55.4986 69.5578 55.7245C69.6527 56.2186 69.597 56.3527 69.408 56.108C69.2182 55.8657 68.8166 54.9896 68.6998 54.5575C68.6355 54.3646 68.5657 54.1042 68.5257 53.9787C68.3845 53.534 68.4394 53.007 68.6606 52.6885C68.9578 52.2321 70.0299 51.5058 71.2887 50.9027C71.8863 50.6117 73.6259 50.0165 75.2258 49.5482C75.5474 49.4541 75.9027 49.3435 76.0133 49.313C77.1466 48.9294 79.4751 48.5616 79.4751 48.7553ZM54.5771 49.2816C54.552 49.3035 54.4822 49.313 54.4265 49.2879C54.3622 49.2667 54.3873 49.2424 54.4728 49.2424C54.5614 49.233 54.6077 49.2581 54.5771 49.2816Z" fill="#850000"/>
<path d="M38.0664 64.4257V69.9063H41.9878C44.932 69.9063 45.9304 69.8828 46.001 69.8122C46.1202 69.6946 46.1453 58.9451 46.0253 58.9451C45.9861 58.9451 45.9312 59.0063 45.9061 59.0769C45.8747 59.1475 45.0175 60.4862 43.994 62.0517C42.3737 64.5269 41.9235 65.13 41.9235 64.8241C41.9235 64.7692 39.2397 60.5811 38.5534 59.5694C38.4622 59.438 38.3812 59.2998 38.3111 59.1561C38.2468 59.0369 38.1699 58.9443 38.1307 58.9443C38.097 58.9443 38.0664 61.4109 38.0664 64.4257Z" fill="#850000"/>
</g>
<defs>
<clipPath id="clip0_867_14671">
<rect width="100" height="100" fill="white"/>
</clipPath>
</defs>
</svg>
