<svg width="100" height="100" viewBox="0 0 100 100" fill="none" xmlns="http://www.w3.org/2000/svg">
<g clip-path="url(#clip0_1085_3154)">
<path d="M29.5156 0C13.2344 0 0 13.2562 0 29.5156V70.4844C0 86.7656 13.2344 100 29.5156 100H70.4844C86.7656 100 100 86.7656 100 70.4844V50.6461H40.9695V68.7063H81.9398V70.4859C81.9398 76.8023 76.8016 81.9406 70.4852 81.9406H29.5148C23.1984 81.9406 18.0602 76.8023 18.0602 70.4859V29.5148C18.0602 23.1984 23.1984 18.0602 29.5148 18.0602C35.8312 18.0602 40.9695 23.1984 40.9695 29.5148V43.1711H59.0312V29.5156C59.0312 23.1992 64.1687 18.0609 70.4859 18.0609C76.8031 18.0609 81.9406 23.1992 81.9406 29.5156V43.1719H100V29.5156C100 13.2344 86.7656 0 70.4844 0C62.5453 0 55.3164 3.15859 50 8.29688C44.6844 3.17969 37.4555 0 29.5156 0Z" fill="#E73C00"/>
</g>
<defs>
<clipPath id="clip0_1085_3154">
<rect width="100" height="100" fill="white"/>
</clipPath>
</defs>
</svg>
