<svg width="100" height="100" viewBox="0 0 100 100" fill="none" xmlns="http://www.w3.org/2000/svg">
<path d="M33.0875 8.33325C34.0458 8.33325 34.9708 8.63742 35.7458 9.20825C36.5208 9.77492 37.1 10.5749 37.4 11.4999L39.8708 19.0583C40.175 19.9791 40.7542 20.7791 41.525 21.3499C42.3 21.9166 43.2292 22.2249 44.1833 22.2249H55.8125C56.7708 22.2249 57.6958 21.9166 58.4708 21.3499C59.2478 20.7773 59.8262 19.976 60.125 19.0583L62.6 11.4958C62.8988 10.578 63.4772 9.77666 64.2542 9.20409C65.025 8.63742 65.9542 8.33325 66.9083 8.33325H73.9917C74.95 8.33325 75.8792 8.63742 76.6542 9.20825C77.425 9.77492 78.0042 10.5749 78.3083 11.4999L81.025 19.8083C81.5167 21.3124 82.7333 22.4541 84.2333 22.8416L96.5542 25.9749C97.5375 26.2249 98.4125 26.8041 99.0375 27.6166C99.6625 28.4291 99.9958 29.4333 100 30.4666V69.5333C100 70.5666 99.6625 71.5666 99.0375 72.3833C98.4187 73.1932 97.5455 73.7714 96.5583 74.0249L84.2375 77.1583C83.4927 77.3488 82.8086 77.7259 82.25 78.2541C81.6876 78.7878 81.2679 79.4539 81.0292 80.1916L78.3083 88.4999C78.0107 89.4171 77.4338 90.2184 76.6583 90.7916C75.8833 91.3583 74.95 91.6666 74 91.6666H66.9083C65.9542 91.6666 65.025 91.3624 64.2542 90.7916C63.4772 90.219 62.8988 89.4177 62.6 88.4999L61.0833 83.8749C60.8557 83.1783 60.7937 82.4383 60.9022 81.7135C61.0107 80.9888 61.2867 80.2993 61.7083 79.6999C62.1212 79.1045 62.6725 78.6182 63.3148 78.2829C63.9571 77.9476 64.6713 77.7733 65.3958 77.7749H77.2708C78.4792 77.7749 79.6333 77.2916 80.4875 76.4208C81.3375 75.5541 81.8208 74.3791 81.8208 73.1499V26.8499C81.8208 25.6249 81.3375 24.4458 80.4875 23.5791C80.0694 23.1503 79.5698 22.8093 79.0182 22.576C78.4666 22.3428 77.8739 22.222 77.275 22.2208H63.6375C62.4292 22.2208 61.275 22.7083 60.4208 23.5791C59.5708 24.4458 59.0875 25.6208 59.0875 26.8499V59.2583C59.0875 60.4874 58.6125 61.6666 57.7583 62.5333C57.3399 62.9613 56.8402 63.3016 56.2886 63.5341C55.7369 63.7666 55.1445 63.8867 54.5458 63.8874H45.4542C44.8555 63.8867 44.2631 63.7666 43.7115 63.5341C43.1598 63.3016 42.6601 62.9613 42.2417 62.5333C41.3856 61.6583 40.9069 60.4824 40.9083 59.2583V26.8499C40.9083 25.6249 40.4292 24.4458 39.575 23.5791C39.1572 23.151 38.6583 22.8104 38.1075 22.5771C37.5566 22.3439 36.9649 22.2228 36.3667 22.2208H22.725C21.5167 22.2208 20.3625 22.7083 19.5083 23.5791C18.6583 24.4458 18.175 25.6208 18.175 26.8499V73.1499C18.175 74.3749 18.6583 75.5541 19.5083 76.4208C20.3625 77.2916 21.5167 77.7791 22.725 77.7791H34.6C35.3241 77.7773 36.0379 77.9512 36.6801 78.2857C37.3224 78.6203 37.8739 79.1055 38.2875 79.6999C38.7112 80.2976 38.9885 80.9864 39.097 81.7109C39.2056 82.4353 39.1424 83.1752 38.9125 83.8708L37.3958 88.5041C37.0971 89.4219 36.5187 90.2232 35.7417 90.7958C34.9708 91.3624 34.0417 91.6666 33.0875 91.6666H26C25.0458 91.6666 24.1167 91.3624 23.3417 90.7916C22.5647 90.219 21.9863 89.4177 21.6875 88.4999L18.9708 80.1916C18.7309 79.4535 18.3097 78.7874 17.7458 78.2541C17.1872 77.7259 16.5032 77.3488 15.7583 77.1583L3.44167 74.0249C2.45448 73.7714 1.58127 73.1932 0.962504 72.3833C0.337002 71.5649 -0.00128874 70.5632 3.68952e-06 69.5333V30.4666C3.68952e-06 29.4333 0.337504 28.4291 0.962504 27.6166C1.5875 26.8041 2.4625 26.2249 3.44167 25.9749L15.7625 22.8374C16.5042 22.6499 17.1875 22.2708 17.75 21.7416C18.3083 21.2124 18.7292 20.5458 18.9708 19.8083L21.6917 11.4958C21.9904 10.578 22.5688 9.77666 23.3458 9.20409C24.1167 8.64575 25.0417 8.33325 26 8.33325H33.0875Z" fill="#99D52A"/>
</svg>
