<svg width="100" height="100" viewBox="0 0 100 100" fill="none" xmlns="http://www.w3.org/2000/svg">
<path d="M37.7961 31.248L18.018 68.7527H0L15.4453 39.4691C17.8391 34.927 23.8109 31.248 28.7875 31.248H37.7961ZM81.982 40.6254C81.982 35.4449 86.0148 31.2488 90.9906 31.2488C95.9664 31.2488 100 35.4441 100 40.6254C100 45.8043 95.9672 50.0004 90.9906 50.0004C86.0148 50.0004 81.982 45.8059 81.982 40.6254ZM41.1742 31.248H59.1922L39.4141 68.7527H21.3961L41.1742 31.248ZM62.4539 31.248H80.4719L65.032 60.5316C62.6375 65.0738 56.6609 68.7527 51.6852 68.7527H42.6758L62.4539 31.248Z" fill="black"/>
</svg>
