<svg width="100" height="100" viewBox="0 0 100 100" fill="none" xmlns="http://www.w3.org/2000/svg">
<path d="M87.028 54.2592C87.028 55.1096 87.4376 55.7837 88.5836 55.7837C89.9318 55.7837 91.3681 54.8158 91.4545 52.6189C90.8254 52.518 90.1902 52.4603 89.5532 52.4461C88.1998 52.4443 87.028 52.8246 87.028 54.2592Z" fill="black"/>
<path d="M0 34V66.0698H100V34H0ZM28.3087 58.1863H22.7776V50.7436C22.7776 48.4586 22.0154 47.5788 20.522 47.5788C18.7054 47.5788 17.9725 48.8682 17.9725 50.7142V55.3188H19.7217V58.1898H14.1906V50.7436C14.1906 48.4586 13.4301 47.5788 11.935 47.5788C10.1184 47.5788 9.38553 48.8682 9.38553 50.7142V55.3188H11.8987V58.1898H3.84063V55.3188H5.59848V47.8432H3.69717V44.9723H9.37862V46.9634C10.1702 45.5582 11.5478 44.7078 13.3921 44.7078C15.2934 44.7078 17.0547 45.617 17.6994 47.5511C18.4323 45.7933 19.9257 44.7078 22.0067 44.7078C24.3799 44.7078 26.5491 46.1442 26.5491 49.2796V55.3188H28.307L28.3087 58.1863ZM36.7176 58.4784C32.6454 58.4784 29.8315 55.9877 29.8315 51.7686C29.8315 47.9003 32.1753 44.7061 36.9181 44.7061C41.661 44.7061 43.9806 47.9003 43.9806 51.5923C43.9841 55.8131 40.9368 58.4802 36.7176 58.4802V58.4784ZM57.7564 58.1863H46.2103L45.8301 56.1934L53.0896 47.8415H48.9586L48.3726 49.8932L45.6469 49.6011L46.1153 44.9705H57.7305L58.0226 46.9634L50.694 55.3188H54.965L55.5803 53.2671L58.5688 53.5592L57.7564 58.1863ZM64.9053 58.1863H60.9489V53.44H64.9053V58.1863ZM64.9053 49.7169H60.9489V44.9723H64.9053V49.7169ZM66.9795 58.1863L72.699 38.0342H76.4203L70.7061 58.1863H66.9795ZM74.6573 58.1863L80.3733 38.0342H84.0947L78.3839 58.1863H74.6573ZM94.3479 58.4784C92.5901 58.4784 91.6239 57.4517 91.4476 55.8408C90.6853 57.189 89.3371 58.4784 87.199 58.4784C85.2977 58.4784 83.1268 57.4517 83.1268 54.6983C83.1268 51.4453 86.2622 50.6848 89.2801 50.6848C90.0049 50.6786 90.7294 50.7178 91.4493 50.8023V50.3633C91.4493 49.0151 91.4199 47.4042 89.2801 47.4042C88.4884 47.4042 87.8731 47.463 87.2578 47.7845L86.7686 49.6598L83.7507 49.3366L84.3367 45.9091C86.6511 44.9705 87.823 44.6992 89.9922 44.6992C92.8355 44.6992 95.2381 46.1649 95.2381 49.1828V54.9264C95.2381 55.6887 95.5302 55.9532 96.1472 55.9532C96.336 55.9503 96.5234 55.9207 96.7038 55.865L96.7332 57.8579C96.0023 58.256 95.1853 58.4696 94.3531 58.4802L94.3479 58.4784Z" fill="black"/>
<path d="M36.8628 47.6082C34.9287 47.6082 33.7274 49.0428 33.7274 51.5352C33.7274 53.8202 34.7818 55.5781 36.8386 55.5781C38.8022 55.5781 40.0916 53.9965 40.0916 51.4764C40.0864 48.8094 38.6518 47.6082 36.8628 47.6082Z" fill="black"/>
</svg>
