<svg width="100" height="100" viewBox="0 0 100 100" fill="none" xmlns="http://www.w3.org/2000/svg">
<path d="M65.6255 96.875V100H84.3755V96.875H65.6255ZM62.4997 90.6234H59.3779V93.7484H62.4997V90.6234ZM65.6247 96.8742V93.7492L62.4997 93.7484V96.8742H65.6247ZM59.3779 87.4977H56.2521V90.6227H59.3771L59.3779 87.4977ZM65.6255 74.9992V78.1242H68.7505V74.9992H65.6255ZM75.0021 78.1242V74.9992H71.8771V78.1242H68.7505V81.25H81.2505V78.125H75.0029M81.2505 74.9992V78.125L84.3755 78.1242V74.9992H81.2505ZM90.6271 93.7492H93.7529V90.6234H90.6279V93.7484M90.6279 96.8742V93.7484L84.3755 93.7492V96.875L90.6255 96.8742M53.1255 96.8742H40.6255V100H62.5005V96.875L53.1255 96.8742ZM34.3755 100V96.875H6.25208V100H34.3755ZM43.7529 87.4977V84.3727H37.5005V93.7492H34.3755V96.875L40.6255 96.8742V87.4977H43.7529ZM21.8779 34.3719H25.0029V28.1242H21.8779V34.3719ZM28.1255 59.3734V53.1227H25.0036V56.2477H15.6255V81.25H34.3755V78.125H31.2505V74.9992H28.1247V78.1242H18.7505V59.375H25.0021V75H28.124V59.375M37.5005 56.2469V71.8719H34.3755V78.1227H37.5005V74.9977H40.6255V53.1219H37.5005V56.2469ZM37.5005 43.7484V40.6234H34.3755V43.7484H37.5005ZM31.249 43.7484V46.8734H34.3755V43.7484L31.2505 43.7477M31.2505 49.9984V46.8734H28.1247V53.1203H31.2497V50M18.7521 3.12188V9.37344H21.8771V3.12188H18.7521ZM9.37864 3.12188H18.7521V0H6.25208V37.4969H3.12708V96.8734H6.25208V40.6227H34.3771V34.3711H31.2505V37.4969H28.1247V34.3719H25.0029V37.4969H18.7505V28.125H21.8755V21.8734H18.7505V18.7484H15.6255V37.4984H9.37708V3.12109M25.0021 15.6234V9.37266H21.8763V15.6234H25.0021ZM31.2505 21.8719H34.3755V15.6242H31.2505V21.8719ZM37.5005 28.1227H34.3755V34.3703H37.5005V28.1227ZM28.1255 21.8719V28.1234H31.2505V21.8719H28.1255ZM25.0036 15.6242V21.8719H28.1255V15.6242H25.0036ZM37.5005 9.37344H34.3755V15.6242H37.5005V9.37344ZM40.6255 9.37344V3.12188H37.5005V9.37344H40.6255ZM96.8755 68.7469H93.7536L93.7529 90.6234H96.8755V68.7469ZM90.6271 65.625V68.7469H93.7536L93.7529 65.625H90.6271ZM90.6279 46.875H93.7529V43.7484H90.6279V46.8734M93.7529 46.8734V56.2469H96.8755V46.875H93.7529M84.3771 62.4992V65.6242H90.6279V62.4992H84.3771ZM81.2521 56.2477H84.3771V53.1227H81.2521V56.2477ZM84.3771 56.2477V59.3734H93.7536V56.2484L84.3771 56.2477ZM56.2529 62.4984V46.875H53.1279V56.2477H50.0005V50H40.6255V53.1219L46.8755 53.1227V78.1242H43.7536V84.3719H46.8755V81.25H53.1255V87.4977H56.2521L56.2513 74.9977H53.1263V78.1234H49.9997V59.3734H53.1255V62.5H56.2513M59.3763 65.625V62.5H56.2513V65.625H59.3763ZM65.6255 53.1234H75.0005V74.9992H81.2482V71.8742H78.1224V62.4992H84.374V59.3742H78.1224V53.1227H81.2474V50H65.6255V53.1219M65.6255 59.3727V53.1219H62.4997V65.625H59.3779V68.7469H62.4997V71.8719H56.2521L56.2513 74.9977H65.6255V59.3727ZM56.2521 40.6234H59.3771V37.4984H53.1271V0H40.6271V3.12188H49.9997V37.4969H43.7529V18.7469H40.6271V21.8727H37.5005V28.125H40.6255V37.4977H37.5005V40.6234H56.2505M59.3755 43.7484H56.2505V46.875H59.3755V43.7484ZM59.3755 43.7484L62.4982 43.7492V40.6234H59.3771L59.3755 43.7484ZM62.4982 34.3719H59.3763V37.4977H62.4982V34.3719ZM84.3755 40.6219V43.7469H90.6255V40.6219H84.3755ZM84.3755 37.4969H62.4997V40.6219H84.3755V37.4969ZM84.3755 34.3711V37.4969L87.5005 37.4961V34.3711H84.3755ZM81.2505 28.1234H78.124V31.2484H81.2505V28.1234ZM81.2505 21.8719H84.3755V18.7469H78.1255V21.8719H81.2505ZM75.0029 28.125H78.1255V24.9992H75.0036V28.1242M65.6271 28.1242V24.9992H56.2521V34.3727H59.3771V28.125H65.6255M68.7505 28.125H65.6255V34.3727H78.124V31.25H68.7505V28.125ZM65.6255 21.8734V24.9992H75.0021V21.8742L65.6255 21.8734ZM62.4997 18.7477H59.3779V21.8727L65.6255 21.8734V18.7477H62.4997ZM68.7513 15.625V18.7469H78.124V15.625H68.7513ZM68.7505 9.37344H65.6255V15.625H68.7513L68.7505 9.375M59.3786 6.24844H56.2529V18.7469L59.3779 18.7477V6.24766M59.3779 3.12266V6.24766H65.6255V3.12188L59.3779 3.12266ZM78.1247 3.12266H81.2505V0H65.6255V3.12188L78.1247 3.12266ZM78.1247 9.37422V6.24766H68.7505V9.37266L78.1247 9.37422ZM87.5005 24.9992V21.8742H84.3755V24.9992H87.5005ZM90.6263 24.9992H87.5005L87.5013 34.3727H90.6263V24.9992ZM87.5013 6.24922V3.12422H81.2497V6.24922H87.5013ZM90.6263 6.24922H87.5013V12.5H81.2497V9.37422H78.1247L78.124 15.625H90.6255L90.6263 6.24922Z" fill="black"/>
<path d="M56.2516 90.6242V93.7492H59.3766V90.6242H56.2516ZM59.3766 96.875H62.5V93.75H59.3781V96.875M65.625 74.9984H68.75V71.8734H65.625V74.9984ZM40.6266 93.7484V96.8742H43.7516V93.7492L40.6266 93.7484ZM46.8734 90.6227H43.7516V93.7492L46.8734 93.7484V90.6227ZM49.9992 93.7484H53.125V90.6234H50L49.9992 93.7484ZM53.125 93.7484L53.1242 96.8742H56.2492V93.7492H53.1242M49.9992 96.8742V93.7484L46.8727 93.7492V96.8742H49.9992ZM49.9992 56.2477H53.1242V53.1227H49.9992V56.2477ZM34.375 65.6258H37.5008V62.5H34.3758V65.625M37.5008 68.7477H34.3758V71.8727H37.5008V68.7477ZM34.3758 56.2484V59.3742H37.5008V56.2492L34.3758 56.2484ZM65.625 65.6258V68.7477H68.75V65.6258H65.625ZM65.625 56.2484H68.75V53.1234H65.625V56.2484ZM68.75 59.3742H65.625V62.5008H68.75V59.3758M56.2516 46.8758V43.75H53.1266V46.875L56.2516 46.8758ZM59.3766 43.7508V40.625H56.2516V43.75L59.3766 43.7508Z" fill="#000080"/>
<path d="M56.2516 93.7492V96.8742H59.3766V93.7492H56.2516ZM40.6266 90.6234V93.7484H43.7531V90.6234H40.6266ZM43.7516 96.8742H46.875V93.7492L43.7531 93.7484L43.7516 96.8742ZM53.125 90.6234V93.7484H56.2508V90.6234H53.125ZM50 93.7484V90.6234H46.875V93.7492L50 93.7484ZM50 93.7484V96.875H53.1258V93.75H50.0008M37.5 53.1219H40.625V50H37.5V53.1219ZM34.375 65.6242V68.7461H37.5V65.625L34.375 65.6242ZM34.375 56.2477H37.5V53.1219L34.375 53.1227V56.2477ZM37.5 59.3734H34.375V62.5H37.5V59.375M53.125 50.0016H49.9984V53.1234H53.125V50M65.625 65.625H68.75V62.4992H65.625V65.625ZM68.75 68.7469H65.625V71.8719H68.75V68.7469ZM65.625 56.2477V59.3734H68.75V56.2484L65.625 56.2477Z" fill="#800080"/>
<path d="M71.8756 74.9981V71.873H68.7506V74.9981H71.8756ZM31.249 71.873H28.124V74.9981H31.249V71.873ZM34.3748 78.1238V74.9988H31.2498V78.1238H34.3748ZM49.9998 84.3715H53.1248V81.2496H49.9998V84.3715ZM53.1248 87.4965H49.9998V90.6223H53.1248V87.4965ZM46.8748 84.3715V87.4965H49.9998V84.3715H46.8748ZM46.8748 87.4965H43.7529V90.6223H46.8748V87.4965ZM34.3748 68.7473H31.2498V71.8723H34.3748V68.7473ZM31.2498 62.4996V65.6246H34.3748V62.4996H31.2498ZM28.124 68.7473H31.2498L31.249 65.6254H28.124V68.7473ZM31.249 59.3738H28.124V62.5004H31.249V59.3754M31.249 53.1238H28.124V56.2488H31.249V53.1238ZM34.3748 59.3738V56.2488H31.249V59.3738H34.3748ZM34.3748 50.0012H31.2498V53.123H34.3748V50.0012ZM34.3748 46.8754V50.0012L37.5006 50.0004V46.8754H34.3748ZM53.1248 43.7496H49.9982V46.8746H53.1248V43.7496ZM40.6264 46.8746V43.7496H37.4998V46.8746H40.6248M46.8732 46.8746V50.0004H49.9982V46.8746H46.8732ZM40.6248 46.8746L40.6256 49.9996H43.7506V46.8746H40.6248ZM43.7506 43.7488V40.623H40.6256V43.748L43.7506 43.7488ZM46.8732 40.6238V43.7488L49.9982 43.7496V40.6238H46.8732ZM46.8732 43.7488H43.7506V46.8746H46.8732V43.7488ZM75.0006 68.748H71.8756V71.873H75.0006V68.748ZM75.0006 62.5004H71.8756V65.6254H75.0006V62.5004ZM71.8756 59.3754H75.0006V56.2488H71.8756V59.3754ZM68.7498 59.3754V62.5004H71.8756V59.3754H68.7498ZM68.7498 65.6254V68.748H71.8756V65.6254H68.7498ZM68.7498 53.123V56.248H71.8748V53.123H68.7498ZM56.2506 43.748V40.623H53.1256V43.748H56.2506Z" fill="#FF00FF"/>
<path d="M71.8753 78.1238V74.9988H68.7503V78.1238H71.8753ZM75.001 71.873H71.876V74.9981H75.001V71.873ZM53.1245 87.4973V90.6223H56.2503V87.4973H53.1245ZM34.3745 74.9981V71.873H31.2479V74.9981H34.3745ZM49.9995 87.4973H46.8737V90.6223H49.9987L49.9995 87.4973ZM49.9995 84.3715V87.4973H53.1245V84.3715H49.9995ZM46.8737 81.2496V84.3715H49.9995L49.9987 81.2496H46.8737ZM43.7518 87.4973H40.626V90.6223H43.751L43.7518 87.4973ZM43.7518 87.4973H46.8737V84.3715H43.7526V87.4965M31.2487 62.5004H34.3745V59.3754H31.2495L31.2487 62.5004ZM31.2487 65.6254V68.748H34.3737V65.6254H31.2487ZM31.2487 68.748L28.1229 68.7473V71.8723L31.2479 71.873L31.2487 68.748ZM31.2487 62.5004L28.1237 62.4996V65.6246L31.2487 65.6254V62.5004ZM28.1237 59.3746H31.2487V56.248H28.1237V59.3746ZM34.3745 56.2496V53.1238H31.2495V56.2488L34.3745 56.2496ZM37.5003 50.002H34.3753L34.3745 53.1238H37.5003V50.0004M37.5003 43.7488H34.3753V46.8738H37.5003V43.7488ZM31.2487 46.8738V50.0004H34.3745V46.8754H31.2495M49.9995 46.8754V50.0004H53.1245V46.8754H49.9995ZM53.1245 43.7496V40.6238H49.9995V43.7488L53.1245 43.7496ZM46.8737 43.7496V46.8754H49.9995L49.9987 43.7504L46.8737 43.7496ZM43.7518 46.8746V43.7496H40.626V46.8746H43.7518ZM43.7518 46.8746V49.9996H46.8745V46.8738L43.7518 46.8746ZM40.626 49.9996V46.8746H37.4995V49.9996H40.6245M40.6245 43.7488V40.623H37.4995V43.748L40.6245 43.7488ZM43.751 43.7488H46.8729V40.6238H43.751V43.7488ZM71.8745 68.7488H68.7495V71.8738H71.8745V68.7488ZM71.8745 68.7488H75.0003V65.6254H71.8753V68.7473M75.0003 59.3738H71.8753V62.4988H75.0003V59.3738ZM75.0003 53.123H71.8753V56.248H75.0003V53.123ZM68.7495 62.4996V65.6246H71.8745V62.4996H68.7495ZM68.7495 56.248V59.3738H71.8753L71.8745 56.2488L68.7495 56.248Z" fill="#0000FF"/>
<path d="M81.2497 74.9977H84.3747V71.8727H81.2497V74.9977ZM87.5005 84.3711V87.4961H84.3755V90.6219H68.7505V87.4969H62.5005V84.3711H59.3786V78.1234H56.2529V87.4969H59.3779V90.6219H62.5005V93.7477H65.6255V96.8734H84.3755V93.7484H90.6271V90.6219H93.7521V81.25H90.6271V84.3719H87.5021M81.2505 68.7477H78.1247V71.8727H81.2497L81.2505 68.7477ZM84.3763 53.1227V56.2484H93.7529V50.0016H90.6279V53.1234H84.3755M62.4997 62.4992H59.3779V65.6242H62.4997V62.4992ZM59.3779 59.3742H56.2521V62.4992H59.3779V59.3742ZM84.3771 50H81.2505V53.1219H84.3755L84.3771 50Z" fill="#808000"/>
<path d="M37.501 87.4973H34.376V90.6223H9.37598V93.748H6.25098V96.8738H34.3752V93.7488H37.501V87.4973ZM43.7525 78.1238H40.6268V84.3715H43.7518L43.7525 78.1238ZM43.7525 78.1238H46.8752V74.9988H43.7533L43.7525 78.1238ZM31.2494 40.623V43.748H34.3752V40.623H31.2494ZM31.2494 43.748H28.1236V46.8738H31.2486L31.2494 43.748ZM15.6252 50.0004V56.2473H25.0025V53.1223H28.1244V50.0004H15.6252Z" fill="#800000"/>
<path d="M15.6252 56.248V50.0012H28.1252V43.7488H31.2502V40.623H6.25098V93.748H9.37676V90.623H34.3752V87.4973H37.501V84.3715H40.626V78.1238H43.7525V74.9988H46.8744V53.1223H40.6268V74.9988H37.5002V78.1238H34.3752V81.2504H15.6252V56.248Z" fill="#FF0000"/>
<path d="M18.7508 18.7458V15.624H15.6258V12.499H12.5V37.4974H15.625V18.7474H18.7508M21.8758 9.37397H18.7508V12.499H21.8758V9.37397ZM15.6258 3.12241V6.24897H18.7508V3.12397H15.6258M43.7531 18.7482V15.624H40.6273V18.7458H43.7523M31.25 28.124H28.125V31.249H31.25V28.124ZM28.125 24.9982V21.8732H25.0031V24.9982H28.125ZM25.0031 18.7474V15.624H21.8773V18.7458H25.0023M50.0016 3.12085H46.875V37.4958H50V3.12085M87.5016 34.3701V24.9974H84.375V34.3708H87.5M84.375 37.4958V34.3708H81.25V37.4958H84.375ZM84.375 24.9974V21.8724H81.25V24.9974H84.375ZM78.1234 18.7458H75.0016V21.8716H78.125V18.7466M65.625 9.37163H62.5V18.7451H68.7516V15.624H65.625V9.37319M65.625 9.37319H68.75V6.24663H65.625V9.37163M78.1234 3.12163V6.24663H81.2484V3.12085L78.1234 3.12163ZM87.5 12.4974V6.24663H84.375V12.4974H87.5Z" fill="#808080"/>
<path d="M40.6271 3.12085V9.37241H37.5005V15.6232H34.3755V21.8708H31.249V31.2474H28.124V24.9974H25.0021V18.7458H21.8763V12.499H18.7505V6.24741H15.6255V3.12241H9.37708V37.4974H12.5005V12.499H15.6255V15.624H18.7513V21.8716H21.8763V28.124H25.0021V34.3716H28.1255V37.4966H31.2505V34.3716H34.3755V28.124H37.5005V21.8724H40.6271V15.624H43.7521V37.4966H46.874V3.12163L40.6271 3.12085ZM65.6255 28.1224H59.3779V34.3701H62.4997V37.4951H81.2497V34.3701H84.3747V24.9974H81.2497V21.8724H75.0021V24.9974H78.124V28.1224H81.249V31.249H78.124V34.3701H65.6255V28.124M68.7505 18.7466H65.6255V21.8724H75.0021V18.7474L68.7505 18.7466ZM65.6255 9.37397V6.24741H59.3779V18.7458H62.4997V9.37241H65.6247M78.1247 6.24663V9.37163H81.2497V12.499H84.3747V6.24585H78.124M78.124 6.24585V3.12085H65.6255V6.24585H78.124Z" fill="#C0C0C0"/>
<path d="M78.124 62.5V68.7477H81.249V71.8727H84.3755V78.1242H81.2497V81.2492H68.7505V78.1242H65.6255V74.9992H56.2521V78.1242H59.3771V84.3719H62.5005V87.4969H68.7505V90.6227H84.3755V87.4977H87.5005V84.3719H90.6263V81.25H93.7521V68.7477H90.6271V65.6258H84.3755V62.5H78.124ZM84.3755 43.75V40.625H62.4997V43.75H59.3779V46.875H56.2521V59.375H59.3771V62.5H62.5005V53.1234H65.6255V50.0008H84.3755V53.1227H90.6271V50.0008H93.7521V46.8758H90.6271V43.7492L84.3755 43.75Z" fill="#FFFF00"/>
</svg>
