<svg width="100" height="100" viewBox="0 0 100 100" fill="none" xmlns="http://www.w3.org/2000/svg">
<g clip-path="url(#clip0_867_14953)">
<path d="M23.9295 16.6663C7.0962 16.6663 1.27537 55.4579 0.00870409 65.9579C-0.0996292 66.8579 1.01287 67.3246 1.69204 66.7163C34.8462 36.9246 50.2087 81.6913 63.367 81.6913C56.0004 81.6913 50.6045 61.1079 43.8254 43.0954C38.5545 29.1038 32.4504 16.6663 23.9295 16.6663Z" fill="url(#paint0_linear_867_14953)"/>
<path d="M98.2506 65.668C98.8881 66.4389 100.142 65.9305 99.9881 64.943C98.4714 55.3472 93.4798 29.9639 82.9964 29.9639C76.5506 29.9639 74.9089 42.8139 73.2589 55.7055L73.2506 55.7472C87.3381 55.7472 92.6881 58.9055 98.2506 65.6639V65.668Z" fill="url(#paint1_linear_867_14953)"/>
<path d="M43.8215 43.0972C50.6007 61.1056 56.0007 81.6931 63.3632 81.6931C69.9174 81.6931 71.5924 68.7055 73.2507 55.7514L73.259 55.7097C74.909 42.8139 76.5507 29.9597 82.9924 29.9597C70.0757 29.9597 63.3632 76.8264 43.8215 43.0972Z" fill="#DDB1FF"/>
</g>
<defs>
<linearGradient id="paint0_linear_867_14953" x1="0.000370796" y1="48.1788" x2="63.3712" y2="50.0788" gradientUnits="userSpaceOnUse">
<stop stop-color="#3239DC"/>
<stop offset="1" stop-color="#5A38E2"/>
</linearGradient>
<linearGradient id="paint1_linear_867_14953" x1="73.2506" y1="47.4472" x2="100.013" y2="48.0555" gradientUnits="userSpaceOnUse">
<stop stop-color="#3239DC"/>
<stop offset="1" stop-color="#5A38E2"/>
</linearGradient>
<clipPath id="clip0_867_14953">
<rect width="100" height="100" fill="white"/>
</clipPath>
</defs>
</svg>
