<svg width="100" height="100" viewBox="0 0 100 100" fill="none" xmlns="http://www.w3.org/2000/svg">
<g clip-path="url(#clip0_1085_3186)">
<path d="M90.0195 0C84.5047 0 80.0367 4.46953 80.0367 9.98203C80.0367 11.9195 80.5977 13.7227 81.5539 15.2539L75.1984 21.6102C67.2141 14.3836 56.6266 9.98203 45.0094 9.98203C20.1523 9.98203 0 30.1344 0 54.9914C0 79.85 20.1523 100 45.0094 100C69.8672 100 90.0195 79.85 90.0195 54.9914C90.0195 43.375 85.6164 32.7867 78.3906 24.8016L84.7469 18.4461C86.327 19.4378 88.1547 19.9639 90.0203 19.9641C95.5312 19.9641 100 15.4953 100 9.98281C100 4.47031 95.5312 0 90.0195 0Z" fill="#113B6A"/>
<path d="M33.3095 47.7214C32.9705 47.7214 32.572 47.736 32.1142 47.7652C31.6559 47.7959 31.1923 47.8412 30.7236 47.9011C30.2548 47.961 29.7962 48.0358 29.3478 48.1253C28.9476 48.2017 28.5534 48.3064 28.1681 48.4386C27.7093 48.6188 27.4249 48.7938 27.315 48.9636C27.2051 49.1329 27.1702 49.347 27.2103 49.6058L27.5392 51.1582C27.6189 51.4566 27.7231 51.6264 27.8517 51.6675C27.9814 51.7066 28.2556 51.7066 28.6744 51.6675C28.9733 51.6483 29.3022 51.6186 29.6611 51.5785C30.0205 51.5389 30.3798 51.5092 30.7392 51.4894C31.0981 51.4696 31.4418 51.4498 31.7705 51.43C32.0981 51.4092 32.3718 51.3988 32.5916 51.3988C33.1504 51.3988 33.5994 51.4334 33.9384 51.5027C34.277 51.573 34.5405 51.6774 34.7291 51.816C34.9176 51.9555 35.0473 52.1358 35.1181 52.3566C35.1869 52.5753 35.2218 52.8441 35.2228 53.1628V53.6402H31.7853C30.9082 53.6402 30.1106 53.7253 29.3923 53.8957C28.6741 54.0649 28.066 54.3436 27.5681 54.7316C27.0692 55.1201 26.6856 55.6332 26.4173 56.2707C26.1475 56.9097 26.0231 57.6876 26.0439 58.6042C26.0439 59.1834 26.0986 59.7368 26.208 60.2644C26.3173 60.7925 26.5218 61.2561 26.8212 61.655C27.1192 62.054 27.5421 62.3777 28.09 62.6261C28.6379 62.8746 29.3514 62.9988 30.2306 62.9988C30.6077 62.9988 31.0259 62.9641 31.4853 62.8949C31.9633 62.8193 32.4333 62.6996 32.8892 62.5371C33.3758 62.3645 33.8464 62.1496 34.2955 61.8949C34.756 61.634 35.1867 61.3236 35.5798 60.9691L35.6423 60.9972C35.8418 61.7951 36.2205 62.3188 36.7783 62.5683C37.3366 62.8167 37.9845 62.9412 38.722 62.9417C39.4001 62.9407 40.0179 62.8704 40.5751 62.7308C41.1533 62.611 41.4423 62.3524 41.4423 61.955V60.0394C41.4423 59.8608 41.4022 59.7365 41.322 59.6667C41.2416 59.5972 41.0751 59.5511 40.8158 59.5308C40.6236 59.5187 40.4329 59.4889 40.2462 59.4417C40.1202 59.4113 40.006 59.3441 39.9181 59.2488C39.8379 59.1592 39.783 59.0243 39.7533 58.8441C39.7184 58.5959 39.7035 58.3454 39.7087 58.0949V53.3746C39.7087 52.4772 39.6392 51.6795 39.5001 50.9816C39.36 50.2837 39.0658 49.6957 38.6173 49.2175C38.1689 48.7389 37.521 48.3699 36.6736 48.1105C35.8262 47.8522 34.7048 47.722 33.3095 47.7214ZM48.622 47.7238C47.7444 47.7238 46.9345 47.8238 46.1923 48.0238C45.4486 48.2246 44.8072 48.5214 44.2736 48.9222C43.7428 49.3175 43.3104 49.83 43.0103 50.4199C42.7035 51.0194 42.5504 51.7188 42.5509 52.5183C42.5499 53.398 42.7038 54.1079 43.0126 54.648C43.322 55.186 43.7457 55.6149 44.2837 55.9347C44.8212 56.2556 45.4442 56.4964 46.1525 56.6574C46.8608 56.8157 47.6238 56.9548 48.4416 57.0746C49.0791 57.1548 49.5173 57.2696 49.7564 57.4191C49.9949 57.5696 50.1142 57.8647 50.1142 58.3042C50.1142 58.7037 49.9551 58.9881 49.6369 59.1574C49.3166 59.3282 48.778 59.4136 48.0212 59.4136C47.3529 59.4064 46.6851 59.3714 46.0197 59.3089C45.2582 59.2459 44.4997 59.1511 43.7462 59.0246C43.4077 58.9647 43.1788 58.9647 43.0595 59.0246C42.9397 59.0839 42.8494 59.2527 42.7884 59.5308L42.4619 60.9558C42.3624 61.3516 42.3824 61.643 42.522 61.83C42.6606 62.0175 42.9791 62.2001 43.4775 62.3777C43.7765 62.4766 44.1202 62.5654 44.5087 62.6441C45.3331 62.8118 46.1673 62.9261 47.0064 62.9863C47.3938 63.0149 47.782 63.0298 48.1705 63.0308C49.0278 63.0298 49.8507 62.9454 50.6392 62.7777C51.4251 62.6084 52.127 62.335 52.7447 61.9574C53.3557 61.5865 53.8646 61.0691 54.2251 60.4519C54.5939 59.8264 54.7783 59.0462 54.7783 58.1113C54.7783 57.1759 54.6189 56.4251 54.3001 55.8589C53.9931 55.3085 53.5549 54.8423 53.0244 54.5019C52.4947 54.1639 51.8796 53.9201 51.1791 53.7707C50.4785 53.6217 49.7382 53.4975 48.958 53.398C48.5069 53.3198 48.0608 53.2151 47.622 53.0847C47.2715 52.9759 47.0965 52.7332 47.097 52.3566C47.0965 52.0373 47.1905 51.7832 47.3791 51.5941C47.6619 51.3105 48.0439 51.3207 48.8009 51.341C49.0416 51.341 49.3283 51.3527 49.6681 51.3722C50.0067 51.392 50.3702 51.4165 50.7587 51.4457C51.1473 51.4753 51.5416 51.5152 51.9416 51.5652C52.3395 51.6157 52.7074 51.661 53.0455 51.7011C53.3845 51.7402 53.5994 51.7298 53.69 51.6699C53.7796 51.6095 53.8639 51.4399 53.9431 51.1613L54.2712 49.6238C54.3718 49.2415 54.3267 48.9753 54.1361 48.8253C53.9475 48.6738 53.6533 48.5277 53.2533 48.3871C52.9089 48.2585 52.5549 48.1571 52.1947 48.0839C51.7939 48.0022 51.3899 47.937 50.9837 47.8886C50.5714 47.8396 50.158 47.7995 49.7439 47.7683C49.3703 47.74 48.9967 47.7252 48.622 47.7238ZM19.6416 47.7527C18.9238 47.7537 18.1262 47.9084 17.2486 48.2167C16.372 48.5261 15.6048 48.9298 14.947 49.4277C14.9307 49.4285 14.9147 49.4229 14.9025 49.4121C14.8931 49.4022 14.8783 49.397 14.858 49.3964V48.6792C14.8591 48.5241 14.8232 48.3709 14.7533 48.2324C14.6837 48.0941 14.508 48.0214 14.2291 48.0214H10.9712C10.7129 48.0214 10.5392 48.0813 10.4501 48.2011C10.3595 48.3209 10.3142 48.4803 10.3142 48.6792V62.1355C10.3142 62.3345 10.3595 62.4884 10.4501 62.5972C10.5392 62.7066 10.7132 62.7613 10.972 62.7613H14.2291C14.5087 62.7623 14.6835 62.698 14.7533 62.5683C14.8236 62.4381 14.8585 62.2938 14.858 62.1355V52.8652C15.2173 52.7464 15.6757 52.5725 16.233 52.3433C16.7913 52.1141 17.31 51.9993 17.7892 51.9988C18.4257 51.9998 18.8884 52.1746 19.1775 52.523C19.4671 52.8714 19.6124 53.4639 19.6134 54.3003C19.6134 55.6165 19.6082 56.9225 19.5978 58.2183C19.5883 59.523 19.5838 60.8277 19.5845 62.1324C19.5845 62.5511 19.8038 62.761 20.2423 62.7621H23.5306C23.8093 62.7621 23.9832 62.6975 24.0525 62.5683C24.1233 62.4391 24.1582 62.2949 24.1572 62.1355V53.6433C24.1572 52.9454 24.1223 52.2475 24.0525 51.5496C23.9921 50.8875 23.8043 50.2434 23.4994 49.6527C23.1994 49.085 22.7452 48.6266 22.1369 48.2777C21.5301 47.9282 20.6983 47.7532 19.6416 47.7527ZM65.604 47.7527C64.8264 47.7527 64.059 47.897 63.3017 48.1855C62.5443 48.4757 61.8379 48.8845 61.2087 49.3964L61.1486 49.3652V48.6792C61.1486 48.5194 61.1087 48.3696 61.029 48.23C60.9509 48.0915 60.7733 48.022 60.4962 48.0214H57.2291C56.9905 48.0214 56.827 48.0813 56.7384 48.2011C56.6494 48.3209 56.6051 48.4803 56.6056 48.6792V62.1324C56.6056 62.3316 56.6486 62.4886 56.7384 62.5972C56.827 62.7066 56.9905 62.7613 57.2291 62.7613H60.4962C60.7728 62.7613 60.9504 62.6962 61.029 62.566C61.1077 62.4363 61.1475 62.2917 61.1486 62.1324V52.8652C61.6013 52.6336 62.0696 52.4339 62.5501 52.2675C63.0621 52.0878 63.4988 51.9983 63.8603 51.9988C64.4015 51.9977 64.8077 52.1516 65.0791 52.4605C65.3499 52.7699 65.4848 53.3433 65.4837 54.1808V62.1324C65.4837 62.3316 65.5306 62.4886 65.6197 62.5972C65.7082 62.7066 65.8725 62.7613 66.1126 62.7613H69.4017C69.6809 62.7623 69.8554 62.698 69.9251 62.5683C69.996 62.4341 70.032 62.2842 70.0298 62.1324V52.8652C70.4642 52.6414 70.9132 52.4469 71.3736 52.2832C71.8923 52.0936 72.3309 51.9988 72.6892 51.9988C73.247 51.9977 73.6655 52.1464 73.9447 52.4449C74.2249 52.7444 74.365 53.3524 74.365 54.2691V62.1324C74.365 62.3316 74.4087 62.4886 74.4978 62.5972C74.5879 62.7066 74.7629 62.7613 75.0228 62.7613H78.3111C78.5694 62.7623 78.7337 62.698 78.8041 62.5683C78.8749 62.4381 78.9098 62.2928 78.9087 62.1324V53.6113C78.9087 52.9139 78.8791 52.2162 78.8197 51.5183C78.7593 50.8214 78.5845 50.1944 78.2955 49.6371C78.0059 49.0787 77.5673 48.6246 76.9798 48.2746C76.3923 47.9266 75.5702 47.7527 74.5134 47.7527C73.616 47.7522 72.7236 47.9462 71.8361 48.3347C70.9807 48.7052 70.1813 49.1936 69.4611 49.7855C69.1628 49.1101 68.6323 48.5641 67.9658 48.2464C67.2877 47.9173 66.5004 47.7527 65.604 47.7527ZM32.4431 56.5417H35.1337V58.5472C34.7155 58.8076 34.2025 59.0467 33.5947 59.2644C32.9853 59.4842 32.4517 59.5938 31.9939 59.5933C31.4757 59.5923 31.1215 59.5019 30.9314 59.3222C30.7429 59.143 30.6483 58.8246 30.6478 58.3667C30.6478 57.6688 30.8077 57.1904 31.1275 56.9316C31.4468 56.6722 31.8853 56.5417 32.4431 56.5417Z" fill="white"/>
</g>
<defs>
<clipPath id="clip0_1085_3186">
<rect width="100" height="100" fill="white"/>
</clipPath>
</defs>
</svg>
