<svg width="100" height="100" viewBox="0 0 100 100" fill="none" xmlns="http://www.w3.org/2000/svg">
<path d="M49.4789 25.4427C45.4164 26.1192 42.0055 27.7864 39.4531 30.338C36.432 33.3591 34.8961 36.9786 34.375 42.3435C34.1406 44.7911 34.0102 54.427 34.2188 54.427C34.2711 54.427 34.7656 54.2442 35.3125 54.0099C36.5883 53.463 39.3492 53.463 40.7813 53.9841L41.875 54.3747L42.0055 48.0989C42.1352 41.406 42.2914 40.3903 43.5414 37.8903C44.4008 36.2239 46.4844 34.2708 48.2555 33.463C50.2867 32.5255 53.2555 32.1614 55.5469 32.5255C60.443 33.3333 63.3594 35.9895 64.5836 40.7286C65.0781 42.6302 65.1039 43.6192 65.1039 54.088V65.3645H72.9688L72.8383 53.0466C72.7602 41.406 72.7086 40.6247 72.1617 38.5411C70.6773 32.7599 67.0836 28.5677 62.057 26.6661C59.375 25.6505 56.8227 25.2599 53.307 25.2864C51.5625 25.3122 49.8438 25.3903 49.4789 25.4427Z" fill="black"/>
<path d="M17.76 44.6874C15.5209 45.8069 14.3225 47.8124 14.3225 50.521C14.3225 51.3804 14.4788 52.4741 14.6874 52.9686C15.1819 54.1929 16.5881 55.6772 17.8124 56.328C19.2967 57.1093 22.1092 57.1093 23.5678 56.3538L24.635 55.8069L27.9686 58.0725L31.3022 60.3647V63.828L27.9686 66.1194L24.6092 68.4116L23.7499 67.8905C22.4999 67.1616 20.078 67.0054 18.5936 67.578C17.0311 68.1772 15.4163 69.6093 14.8178 70.9632C14.1663 72.3436 14.1663 75.0522 14.8178 76.4319C15.3647 77.6561 16.6405 79.01 17.7866 79.6093C18.2553 79.8436 19.3749 80.078 20.3124 80.1561C22.4999 80.3124 24.3491 79.5835 25.6772 78.021C26.7444 76.771 27.4475 74.5835 27.2655 73.0725L27.135 72.0054L30.4944 69.7397L33.8538 67.4741L35.0522 68.021C36.8749 68.8022 39.5835 68.6194 41.3022 67.578C43.1772 66.4061 44.1147 64.7397 44.2186 62.396C44.2967 60.7554 44.2186 60.3905 43.5678 59.1147C41.8749 55.885 38.0991 54.6616 34.8694 56.2757L33.9061 56.7444L30.5991 54.4788L27.2913 52.2132L27.2131 50.3905C27.1616 48.203 26.5366 46.7968 24.9999 45.521C23.0467 43.8538 20.1303 43.5155 17.76 44.6874Z" fill="#018BFF"/>
</svg>
