<svg width="100" height="100" viewBox="0 0 100 100" fill="none" xmlns="http://www.w3.org/2000/svg">
<g clip-path="url(#clip0_1085_3218)">
<path d="M92.1483 62.4582C88.7741 62.4582 85.8976 64.5895 84.7882 67.5785H37.0538C36.6597 66.5191 36.042 65.5571 35.2427 64.7579C34.4434 63.9587 33.4812 63.3412 32.4218 62.9473V15.2129C35.4108 14.1035 37.5421 11.2262 37.5421 7.85195C37.5421 3.51602 34.0288 0.00195328 29.6929 0.00195328C28.6619 0.00174802 27.6411 0.204654 26.6886 0.599081C25.7361 0.993508 24.8706 1.57173 24.1416 2.30071C23.4126 3.02969 22.8344 3.89515 22.44 4.84765C22.0456 5.80014 21.8427 6.82102 21.8429 7.85195C21.8429 11.2262 23.9741 14.1027 26.9632 15.2121V62.9465C23.9741 64.0559 21.8429 66.9332 21.8429 70.3074C21.8429 71.477 22.0999 72.584 22.5585 73.5809L11.1249 85.016C9.92915 84.467 8.61454 84.2274 7.30197 84.3192C5.98939 84.4111 4.72098 84.8315 3.61335 85.5417C2.50573 86.252 1.59445 87.2293 0.963306 88.3838C0.332161 89.5384 0.00140999 90.833 0.00146485 92.1488C0.00146485 96.4848 3.51475 99.9988 7.85147 99.9988C9.16715 99.9988 10.4617 99.6681 11.6162 99.037C12.7706 98.4059 13.7479 97.4947 14.4581 96.3872C15.1683 95.2796 15.5887 94.0113 15.6807 92.6989C15.7726 91.3864 15.5332 90.0719 14.9843 88.8762L26.4194 77.4418C27.446 77.9143 28.5628 78.1584 29.6929 78.1574C33.0671 78.1574 35.9437 76.0262 37.053 73.0371H84.7874C85.8968 76.0262 88.7741 78.1574 92.1483 78.1574C96.4843 78.1574 99.9983 74.6434 99.9983 70.3074C99.9983 65.9715 96.4851 62.4582 92.1483 62.4582Z" fill="#001423"/>
<path d="M100 7.85195C100 9.16774 99.6693 10.4624 99.0382 11.617C98.407 12.7715 97.4957 13.7488 96.3881 14.4591C95.2805 15.1693 94.0121 15.5897 92.6995 15.6816C91.3869 15.7734 90.0723 15.5338 88.8766 14.9848L77.4422 26.4207C77.9149 27.4472 78.1594 28.564 78.1586 29.6941C78.1586 33.0684 76.0273 35.9449 73.0383 37.0543V84.7887C76.0273 85.898 78.1586 88.7754 78.1586 92.1496C78.1586 96.4855 74.6445 99.9996 70.3086 99.9996C69.2777 99.9998 68.2568 99.7969 67.3043 99.4025C66.3518 99.0081 65.4863 98.4298 64.7573 97.7009C64.0284 96.9719 63.4501 96.1064 63.0557 95.1539C62.6613 94.2014 62.4584 93.1805 62.4586 92.1496C62.4586 88.7754 64.5898 85.8988 67.5789 84.7895V37.0551C66.5195 36.661 65.5575 36.0433 64.7583 35.244C63.9591 34.4446 63.3415 33.4825 62.9477 32.423H15.2109C14.1016 35.4121 11.225 37.5434 7.85078 37.5434C6.81978 37.5437 5.79882 37.3408 4.84623 36.9465C3.89364 36.5521 3.02809 35.9739 2.29903 35.2449C1.56997 34.5159 0.991678 33.6504 0.597202 32.6978C0.202727 31.7453 -0.000205146 30.7244 1.55619e-07 29.6934C1.55619e-07 25.3574 3.51406 21.8434 7.85 21.8434C11.2242 21.8434 14.1016 23.9746 15.2102 26.9637H62.9453C64.0547 23.9746 66.9312 21.8434 70.3062 21.8434C71.4363 21.8423 72.5531 22.0865 73.5797 22.559L85.0133 11.1246C84.4644 9.92883 84.2249 8.61424 84.3169 7.30171C84.4089 5.98918 84.8294 4.72084 85.5397 3.6133C86.25 2.50577 87.2274 1.59459 88.3819 0.963539C89.5365 0.332491 90.8311 0.00182746 92.1469 0.00195316C96.4828 0.00195316 99.9969 3.51523 99.9969 7.85195H100Z" fill="#00857D"/>
</g>
<defs>
<clipPath id="clip0_1085_3218">
<rect width="100" height="100" fill="white"/>
</clipPath>
</defs>
</svg>
