<svg width="100" height="100" viewBox="0 0 100 100" fill="none" xmlns="http://www.w3.org/2000/svg">
<g clip-path="url(#clip0_867_14760)">
<path d="M50 100C77.6142 100 100 77.6142 100 50C100 22.3858 77.6142 0 50 0C22.3858 0 0 22.3858 0 50C0 77.6142 22.3858 100 50 100Z" fill="#5C2D91"/>
<path opacity="0.1" d="M16.7355 12.9995C11.6526 17.5289 7.54833 23.0486 4.67414 29.2203C1.79995 35.3921 0.216439 42.0857 0.0206758 48.8911C-0.175088 55.6964 1.02102 62.47 3.53568 68.7968C6.05034 75.1235 9.83057 80.87 14.6447 85.6841C19.4588 90.4982 25.2053 94.2784 31.532 96.7931C37.8587 99.3078 44.6324 100.504 51.4377 100.308C58.2431 100.112 64.9367 98.5288 71.1084 95.6546C77.2802 92.7804 82.7999 88.6761 87.3293 83.5933L16.7355 12.9995Z" fill="white"/>
<path d="M11.5627 58.203C11.271 58.2076 10.9816 58.1517 10.7126 58.0387C10.4437 57.9258 10.2011 57.7583 10.0002 57.5468C9.79377 57.3428 9.63063 57.0993 9.52055 56.8309C9.41047 56.5624 9.35572 56.2744 9.35956 55.9843C9.35748 55.6944 9.41304 55.407 9.52302 55.1387C9.633 54.8705 9.7952 54.6268 10.0002 54.4218C10.1991 54.2067 10.441 54.0358 10.7101 53.92C10.9793 53.8043 11.2697 53.7463 11.5627 53.7499C11.8552 53.7492 12.1448 53.8084 12.4135 53.924C12.6823 54.0396 12.9245 54.209 13.1252 54.4218C13.3337 54.625 13.4993 54.868 13.612 55.1364C13.7247 55.4048 13.7824 55.6932 13.7814 55.9843C13.7842 56.2757 13.7274 56.5646 13.6145 56.8332C13.5017 57.1019 13.3352 57.3447 13.1252 57.5468C12.9226 57.756 12.6797 57.9221 12.4111 58.0348C12.1426 58.1476 11.854 58.2049 11.5627 58.203Z" fill="white"/>
<path d="M42.6094 57.8125H38.5156L23.875 35.0937C23.5103 34.534 23.2065 33.9368 22.9687 33.3125H22.8437C22.9829 34.6096 23.0351 35.9146 23 37.2187V57.8125H19.6719V29.3281H24L38.25 51.6406C38.8437 52.5677 39.2292 53.2031 39.4062 53.5469H39.4844C39.3195 52.1575 39.2516 50.7582 39.2812 49.3594V29.3281H42.6094V57.8125Z" fill="white"/>
<path d="M65.1406 57.8125H50V29.3281H64.4375V32.3438H53.4063V41.8125H63.6875V44.8125H53.4063V54.6875H65.1563L65.1406 57.8125Z" fill="white"/>
<path d="M87.5 32.3438H79.2187V57.8125H75.8906V32.3438H67.7031V29.3281H87.5V32.3438Z" fill="white"/>
<path d="M40.8127 77.1876C39.6847 77.7339 38.4404 77.9967 37.1877 77.9532C36.3554 77.9907 35.5246 77.8498 34.7512 77.5399C33.9777 77.23 33.2795 76.7582 32.7034 76.1563C31.5553 74.8712 30.9504 73.1909 31.0159 71.4688C30.9738 70.5365 31.1195 69.6051 31.4443 68.7301C31.7691 67.8551 32.2663 67.0543 32.9065 66.3751C33.5304 65.736 34.2804 65.2337 35.1089 64.9001C35.9374 64.5665 36.8263 64.409 37.719 64.4376C38.7873 64.4011 39.8515 64.5873 40.844 64.9845V66.547C39.8885 66.018 38.811 65.7486 37.719 65.7657C37.0305 65.7463 36.346 65.8759 35.7122 66.1456C35.0785 66.4153 34.5105 66.8187 34.0471 67.3282C33.0726 68.4384 32.5683 69.8841 32.6409 71.3595C32.5679 72.7571 33.0382 74.1288 33.9534 75.1876C34.3923 75.6596 34.9282 76.0311 35.5243 76.2765C36.1203 76.522 36.7624 76.6355 37.4065 76.6095C38.6062 76.6409 39.791 76.3379 40.8284 75.7345L40.8127 77.1876Z" fill="#F2F2F2"/>
<path d="M47.2029 77.9532C46.5809 77.9733 45.9619 77.8596 45.3877 77.6197C44.8135 77.3798 44.2975 77.0193 43.8748 76.5626C43.0204 75.6091 42.5768 74.3569 42.6404 73.0782C42.6014 72.4083 42.6959 71.7373 42.9186 71.1042C43.1412 70.4712 43.4875 69.8887 43.9373 69.3907C44.3963 68.9427 44.9424 68.5937 45.5417 68.3653C46.1411 68.1368 46.7809 68.0338 47.4217 68.0626C48.0273 68.0303 48.6328 68.1295 49.1965 68.3534C49.7602 68.5773 50.2688 68.9205 50.6873 69.3595C51.5177 70.3603 51.9367 71.6394 51.8591 72.9376C51.9247 74.2551 51.4702 75.5457 50.5935 76.5313C50.1628 76.9969 49.6373 77.3647 49.0524 77.61C48.4675 77.8552 47.8368 77.9723 47.2029 77.9532ZM47.3123 69.4063C46.8825 69.3882 46.4541 69.4674 46.0591 69.6378C45.6642 69.8082 45.3127 70.0656 45.031 70.3907C44.4298 71.1649 44.13 72.1309 44.1873 73.1095C44.1327 74.0589 44.4335 74.9946 45.031 75.7345C45.3157 76.055 45.668 76.3082 46.0626 76.4757C46.4571 76.6433 46.884 76.721 47.3123 76.7032C47.7316 76.728 48.151 76.6563 48.5383 76.4938C48.9256 76.3313 49.2705 76.0822 49.5466 75.7657C50.1147 74.9895 50.3913 74.038 50.3279 73.0782C50.3897 72.1137 50.1134 71.1579 49.5466 70.3751C49.2744 70.052 48.9309 69.7963 48.5433 69.6282C48.1556 69.4601 47.7342 69.3842 47.3123 69.4063Z" fill="#F2F2F2"/>
<path d="M59.1562 69.875C58.8188 69.6539 58.4181 69.5496 58.0156 69.5782C57.7009 69.5896 57.3937 69.6782 57.1213 69.8363C56.8488 69.9943 56.6194 70.2169 56.4531 70.4844C55.9881 71.2207 55.7641 72.0836 55.8125 72.9532V77.7344H54.25V68.3594H55.8125V70.3125C55.9843 69.7082 56.3259 69.1659 56.7969 68.75C57.2044 68.3964 57.7261 68.2021 58.2656 68.2032C58.5677 68.1896 58.8696 68.232 59.1562 68.3282V69.875Z" fill="#F2F2F2"/>
<path d="M68.3125 73.4374H61.7031C61.6588 74.3109 61.9431 75.1693 62.5 75.8437C62.7896 76.1325 63.137 76.357 63.5193 76.5024C63.9017 76.6478 64.3104 76.7108 64.7188 76.6874C65.778 76.6769 66.8024 76.3078 67.625 75.6405V77.0468C66.6589 77.6836 65.515 77.9955 64.3594 77.9374C63.7763 77.9668 63.194 77.8673 62.6538 77.6458C62.1136 77.4243 61.629 77.0864 61.2344 76.6562C60.421 75.6415 60.0143 74.3604 60.0938 73.0624C60.0376 71.7612 60.479 70.4874 61.3281 69.4999C61.7146 69.0535 62.1954 68.6985 62.7359 68.4607C63.2764 68.2229 63.8629 68.1082 64.4531 68.1249C64.9861 68.0951 65.5188 68.1864 66.0114 68.3921C66.5039 68.5978 66.9435 68.9124 67.2969 69.3124C68.0163 70.2611 68.3712 71.4366 68.2969 72.6249L68.3125 73.4374ZM66.75 72.1718C66.7817 71.4478 66.5608 70.7352 66.125 70.1562C65.9112 69.9146 65.6456 69.7245 65.3479 69.6C65.0503 69.4755 64.7284 69.42 64.4063 69.4374C64.07 69.4333 63.7366 69.4992 63.4272 69.6311C63.1179 69.7629 62.8393 69.9577 62.6094 70.203C62.0951 70.7471 61.7716 71.4435 61.6875 72.1874L66.75 72.1718Z" fill="#F2F2F2"/>
</g>
<defs>
<clipPath id="clip0_867_14760">
<rect width="100" height="100" fill="white"/>
</clipPath>
</defs>
</svg>
