<svg width="100" height="100" viewBox="0 0 100 100" fill="none" xmlns="http://www.w3.org/2000/svg">
<g clip-path="url(#clip0_1085_3224)">
<path d="M87.8049 4.99213C87.1169 4.96659 86.4306 5.07703 85.7854 5.31713C83.1072 6.30619 81.6979 9.22963 82.6346 11.846C83.5721 14.4632 86.5033 15.7828 89.1814 14.7929V14.7913C91.8588 13.8015 93.2697 10.8796 92.3314 8.26478C91.6275 6.3015 89.8025 5.06791 87.8057 4.99135L87.8049 4.99213ZM56.7189 25.8281C54.983 25.8474 53.2635 26.1664 51.6361 26.771C43.9486 29.6117 39.8994 38.0031 42.5924 45.5148C45.2838 53.0265 53.6994 56.8124 61.3846 53.9726C69.0729 51.1335 73.1221 42.7398 70.4299 35.2288C68.3283 29.3601 62.7322 25.7656 56.7189 25.8281ZM16.2064 50.5702C15.5182 50.5446 14.8316 50.6551 14.1861 50.8952C11.5072 51.8851 10.0979 54.8085 11.0354 57.4242C11.9736 60.0413 14.9041 61.3601 17.5814 60.3703C20.2603 59.3804 21.6682 56.4578 20.7307 53.8413C20.0275 51.8796 18.2041 50.646 16.2072 50.5695L16.2064 50.5702ZM72.3057 78.9999C71.36 78.9647 70.4167 79.1166 69.5299 79.4468C65.8502 80.8062 63.9119 84.8234 65.1994 88.4179C66.4885 92.014 70.5166 93.8265 74.1947 92.4671H74.1963C77.876 91.1077 79.8143 87.0898 78.5244 83.4953C77.558 80.7984 75.051 79.1046 72.3057 78.9999Z" fill="#FF7F0E"/>
<path d="M88.0539 0.00593987C85.3519 -0.0852442 82.7201 0.876346 80.7133 2.68797C77.1094 5.93797 76.3297 11.1559 78.5922 15.1411L72.5172 20.6114C68.3872 17.4742 63.3933 15.6814 58.211 15.4755C54.8143 15.3422 51.4248 15.882 48.2375 17.0638C35.7508 21.6778 28.8047 34.913 32.068 47.3341L24.4977 50.1341C22.7367 47.3934 19.7281 45.7098 16.4867 45.5794C15.6191 45.559 14.7523 45.6483 13.9071 45.845L12.361 41.4856C14.95 39.8684 16.2031 36.6544 15.1625 33.7169L15.1641 33.7153C14.2649 31.1794 11.9031 29.5802 9.33362 29.4677C8.45151 29.4302 7.57066 29.5669 6.74143 29.87C3.31487 31.1231 1.47424 34.8794 2.67346 38.263C3.71252 41.195 6.70549 42.8708 9.71487 42.4497L11.25 46.7802C6.7969 49.1223 4.55862 54.3895 6.27112 59.1669C8.1383 64.3731 14 66.9966 19.2719 65.0481C23.8367 63.3606 26.5539 58.7856 25.9906 54.2098L33.5375 51.4216C38.5024 62.1333 50.5711 67.7317 62.1992 64.9239L65.3227 73.6388C62.0193 75.3987 59.5225 78.3654 58.3524 81.9208L54.2297 81.2497C54.1747 79.768 53.6077 78.3511 52.6254 77.2405C51.643 76.1298 50.3061 75.394 48.8422 75.1583C45.2672 74.5747 41.8172 76.9708 41.136 80.5184C40.4555 84.0653 42.843 87.4598 46.4188 88.0427C49.5227 88.5497 52.5281 86.8098 53.7125 84.0192L57.7485 84.677C57.511 86.7239 57.7094 88.8419 58.4453 90.8958C61.05 98.1645 69.2328 101.821 76.5946 99.1012C83.9547 96.3817 87.886 88.2872 85.2797 81.0177C84.4888 78.8098 83.1369 76.8457 81.357 75.3184L89.6305 60.9341L89.5914 60.913C92.5469 61.5286 95.6813 60.0552 97.0414 57.2216C98.6305 53.9731 97.207 50.0122 93.9149 48.5669H93.9117C93.1121 48.2087 92.2487 48.0142 91.3727 47.995H91.3711C89.3024 47.9489 87.2875 48.8856 85.9617 50.5294L80.7445 48.0239C82.4969 42.87 82.6219 37.1653 80.6688 31.7153C79.5863 28.6918 77.9114 25.9147 75.7422 23.5466L81.518 18.3442C85.3117 20.9786 90.6352 20.6997 94.2516 17.4364C98.4235 13.6739 98.8219 7.26688 95.0766 3.19735C93.2031 1.16219 90.6539 0.0942211 88.0531 0.00515862L88.0539 0.00593987ZM87.9485 2.70516C89.8563 2.76766 91.7164 3.5536 93.0805 5.03485C95.807 7.99813 95.5461 12.6169 92.4344 15.4231C89.3242 18.2302 84.6125 18.0559 81.8844 15.0934C79.1578 12.1302 79.4172 7.51141 82.5305 4.7036C84.0093 3.36066 85.9519 2.64468 87.9485 2.70672V2.70516ZM58.0172 20.7442C65.8469 21.027 72.9367 25.8419 75.6821 33.5036C79.3438 43.7192 73.8555 55.1653 63.2938 59.0677V59.0692H63.2922C52.7281 62.9716 41.3453 57.8138 37.6844 47.5997C34.0242 37.3848 39.5125 25.938 50.075 22.0348C52.6125 21.0894 55.3109 20.6509 58.0172 20.7442ZM9.2633 31.2177C11.15 31.2903 12.8492 32.4552 13.5039 34.3013L13.5024 34.3028C14.3758 36.7653 13.0469 39.5184 10.4922 40.452C7.93596 41.388 5.20471 40.138 4.33205 37.6755C3.45862 35.2122 4.78909 32.4591 7.34534 31.5247H7.3469C7.95951 31.2982 8.61058 31.1938 9.2633 31.2177ZM16.3883 48.277C19.2969 48.3794 21.9196 50.1677 22.9383 53.0091C24.2969 56.7973 22.2633 61.0481 18.3305 62.5013C14.3977 63.9544 10.1836 62.0403 8.8258 58.2513C7.46643 54.463 9.50158 50.2122 13.4336 48.7591C14.3777 48.4075 15.3814 48.2437 16.3883 48.277ZM91.3258 49.7536C91.9707 49.7678 92.6064 49.9107 93.1953 50.1739L93.2016 50.1755C95.5875 51.2184 96.6235 54.0747 95.4594 56.4489L95.457 56.4567C94.2953 58.8786 91.3836 59.9575 88.9672 58.877L88.961 58.8739C86.575 57.8309 85.5391 54.9731 86.7031 52.5981L86.7055 52.5919C87.5774 50.7755 89.432 49.7153 91.3242 49.7536H91.3258ZM79.6383 50.7927L84.6742 53.0442C84.0258 55.5598 84.9758 58.2489 87.0453 59.7802L79.036 73.7044C77.0945 72.6243 74.9269 72.0143 72.7071 71.9231C72.1964 71.9256 71.6863 71.9558 71.1789 72.0138L67.886 62.8278C73.0279 60.2284 77.1616 55.9948 79.6383 50.7927ZM72.568 75.6911C76.6281 75.8341 80.2945 78.3278 81.7156 82.295C83.6125 87.5841 80.7735 93.5216 75.2821 95.5505C69.7899 97.5794 63.9055 94.9067 62.0102 89.6177C60.1133 84.327 62.9524 78.3911 68.4445 76.3638C69.762 75.8728 71.1628 75.6443 72.568 75.6911ZM47.5766 76.8356C47.9005 76.8221 48.2276 76.8419 48.5578 76.895H48.5594C51.1992 77.327 52.8953 79.7434 52.3946 82.3513C51.893 84.9614 49.3414 86.738 46.7008 86.3067C44.0602 85.8755 42.3633 83.4583 42.8649 80.8497C43.3039 78.5661 45.3125 76.9231 47.5766 76.8356Z" fill="#2C7FB8"/>
</g>
<defs>
<clipPath id="clip0_1085_3224">
<rect width="100" height="100" fill="white"/>
</clipPath>
</defs>
</svg>
