<svg width="100" height="100" viewBox="0 0 100 100" fill="none" xmlns="http://www.w3.org/2000/svg">
<path d="M55.3008 33.2101V40.9859L48.5687 44.8742V49.7351L59.5125 43.4148V30.7781L55.3008 33.2101Z" fill="#00AC69"/>
<path d="M37.6251 30.7781L41.8337 33.2102L48.5689 29.3219L55.3009 33.2102L59.5118 30.7781L48.5689 24.4609L37.6251 30.7781Z" fill="#1CE783"/>
<path d="M37.625 30.7781V35.639L44.357 39.5296V47.3062L48.5687 49.7359V37.0968L37.625 30.7781ZM72.4297 57.639V60.3953H74.1875V75.2781H77.2891V57.639H72.4297ZM79.825 57.639V60.7406H82.9227V57.639H79.825ZM91.4797 62.3789C87.7594 62.3789 85.0312 65.107 85.0312 68.9523C85.0312 72.7945 87.7594 75.5226 91.4797 75.5226C94.818 75.5226 96.4875 73.4203 97.1523 71.5671L94.3297 70.5632C94.0828 71.4367 93.3375 72.675 91.4797 72.675C89.618 72.675 88.132 71.1859 88.132 68.9554C88.132 66.721 89.618 65.2351 91.4797 65.2351C93.3383 65.2351 94.0828 66.4742 94.3297 67.2195L97.1375 66.2179C96.4602 64.4507 94.7875 62.3789 91.4797 62.3789ZM6.69531 62.382C4.33984 62.382 3.22266 63.871 3.22266 63.871H3.10078L2.85312 62.632H0V75.2781H3.10078V67.9664C3.10078 66.3554 4.21484 65.2382 5.82891 65.2382C7.44609 65.2382 8.55703 66.3523 8.55703 67.9664V75.2789H11.6578V67.7164C11.6578 64.4898 9.54844 62.382 6.69531 62.382ZM20.0859 62.382C16.3672 62.382 13.6383 65.1101 13.6383 68.9554C13.6383 72.8007 16.2141 75.5289 20.0867 75.5289C23.2242 75.5289 25.1102 73.682 25.8969 72.3242L23.0531 71.3054C22.7719 71.821 21.6367 72.8093 20.0867 72.8093C18.2797 72.8093 16.9859 71.6773 16.7391 69.9468H26.1625C26.2512 69.5399 26.2931 69.1242 26.2875 68.7078C26.2875 65.1039 23.5594 62.382 20.0867 62.382H20.0859ZM65.8875 62.382C62.1672 62.382 59.4391 65.1101 59.4391 68.9554C59.4391 72.8007 62.0117 75.5289 65.8875 75.5289C69.025 75.5289 70.9109 73.682 71.6977 72.3242L68.8516 71.3054C68.5703 71.821 67.4352 72.8093 65.8883 72.8093C64.0789 72.8093 62.7875 71.6773 62.5406 69.9468H71.9641C72.0505 69.5401 72.0914 69.127 72.0867 68.7078C72.0867 65.1039 69.3602 62.382 65.8875 62.382ZM57.1898 62.632C56.7565 62.6313 56.3289 62.7317 55.941 62.925C55.5532 63.1184 55.2157 63.3995 54.9555 63.746H54.8305L54.5836 62.6351H51.9805V75.2781H55.0875V67.9664C55.0875 66.3554 55.832 65.6101 57.443 65.6101H59.0328V62.632H57.1898ZM27.0727 62.632L30.2945 75.2781H34.0695L36.1789 67.0968H36.3555L38.4648 75.2781H42.2391L45.4617 62.632H42.2391L40.1305 70.9421H39.9539L37.8445 62.632H34.6891L32.5805 70.9421H32.4039L30.2945 62.632H27.0727ZM79.8219 62.632V75.2812H82.9227V62.632H79.8219ZM20.0859 64.9882C21.8227 64.9882 22.9391 66.2273 23.1867 67.8382H16.7383C17.1102 66.2273 18.2273 64.9882 20.0859 64.9882ZM65.8867 64.9882C67.6234 64.9882 68.7367 66.2273 68.9875 67.8382H62.5391C62.9109 66.2273 64.025 64.9882 65.8867 64.9882ZM98.8063 72.846C98.5692 72.8436 98.3366 72.9112 98.1379 73.0405C97.9391 73.1698 97.783 73.3549 97.6891 73.5726C97.5968 73.7907 97.5713 74.0313 97.6158 74.2639C97.6604 74.4965 97.7729 74.7106 97.9392 74.8793C98.1054 75.0479 98.318 75.1634 98.55 75.2111C98.7819 75.2589 99.0228 75.2368 99.2422 75.1476C99.6906 74.964 99.9844 74.5281 99.9844 74.0421C99.9898 73.8851 99.9632 73.7286 99.9062 73.5822C99.8491 73.4359 99.7628 73.3026 99.6526 73.1907C99.5423 73.0788 99.4104 72.9905 99.2649 72.9312C99.1194 72.872 98.9633 72.843 98.8063 72.846ZM98.7297 73.032C98.8675 73.0233 99.0055 73.043 99.1354 73.0899C99.2652 73.1368 99.384 73.2099 99.4845 73.3046C99.5849 73.3993 99.6648 73.5137 99.7192 73.6405C99.7736 73.7674 99.8014 73.9041 99.8008 74.0421C99.807 74.1753 99.7856 74.3082 99.7381 74.4327C99.6905 74.5572 99.6178 74.6705 99.5245 74.7656C99.4311 74.8607 99.3191 74.9356 99.1956 74.9854C99.072 75.0353 98.9395 75.0591 98.8063 75.0554C98.541 75.0611 98.2841 74.9622 98.0911 74.7801C97.8981 74.5979 97.7846 74.3472 97.775 74.082C97.7643 73.8167 97.8585 73.5578 98.0371 73.3613C98.2158 73.1648 98.4645 73.0465 98.7297 73.032ZM98.3484 73.4109V74.6585H98.5312V74.2257H98.6898L99.1203 74.6593H99.3523L98.9227 74.2257C99.0045 74.2258 99.0845 74.201 99.152 74.1547C99.2195 74.1084 99.2714 74.0426 99.3008 73.9662C99.3301 73.8898 99.3356 73.8062 99.3165 73.7266C99.2974 73.647 99.2546 73.575 99.1937 73.5203C99.1073 73.4437 98.9942 73.4044 98.8789 73.4109H98.3484ZM98.9344 73.5937C99.0531 73.6031 99.1477 73.7031 99.1477 73.8257C99.1477 73.9601 99.0656 74.0421 98.882 74.0421H98.5344V73.5945H98.882C98.8994 73.5915 98.9171 73.5908 98.9344 73.5937Z" fill="#1D252C"/>
</svg>
