<svg width="100" height="100" viewBox="0 0 100 100" fill="none" xmlns="http://www.w3.org/2000/svg">
<g clip-path="url(#clip0_1085_3237)">
<path d="M78.9656 31.657V59.6265H85.0633V52.5859L91.7711 59.6257H100.005V59.296L91.1609 50.3273L99.5047 42.6335V42.3406H91.4625L85.0633 48.5749V31.6578L78.9656 31.657ZM66.7602 41.7031C65.2518 41.7031 63.8643 41.938 62.5977 42.4078C61.3281 42.8781 60.2359 43.5281 59.3109 44.3429C58.4 45.1512 57.6646 46.1376 57.15 47.2414C56.6349 48.357 56.3776 49.5544 56.3781 50.8335C56.3776 52.2507 56.6349 53.5367 57.15 54.6914C57.6502 55.8234 58.3808 56.8387 59.2953 57.6726C60.2055 58.5031 61.2852 59.1468 62.5453 59.5953C63.8057 60.0447 65.1771 60.2697 66.6594 60.2703C68.163 60.2697 69.5628 60.0447 70.8586 59.5953C72.1503 59.1473 73.256 58.5117 74.1758 57.6882C75.0958 56.8714 75.8367 55.8728 76.3516 54.7554C76.8797 53.6203 77.1453 52.3726 77.1453 50.9953C77.1453 49.6281 76.8859 48.371 76.3734 47.239C75.8583 46.121 75.1151 45.1231 74.1914 44.3093C73.2596 43.4916 72.1589 42.8528 70.8891 42.3929C69.6198 41.9325 68.2435 41.7026 66.7602 41.7031ZM28.9977 41.8648C27.7372 41.8648 26.5745 42.107 25.5094 42.5914C24.4634 43.0607 23.523 43.7365 22.7445 44.5781C21.9695 45.4234 21.3594 46.4062 20.9109 47.5468C20.4599 48.6796 20.2349 49.9096 20.2359 51.2367C20.2359 52.5398 20.4438 53.7242 20.8586 54.7984C21.2766 55.8632 21.857 56.7789 22.607 57.5414C23.3728 58.311 24.285 58.9193 25.2898 59.3304C26.3247 59.7575 27.4591 59.971 28.693 59.971C29.2508 59.971 29.7695 59.9312 30.2398 59.8515C30.7027 59.7734 31.1553 59.6434 31.5891 59.464C32.0313 59.2736 32.455 59.0426 32.8547 58.7742C33.3137 58.4551 33.7465 58.1001 34.1492 57.7125V62.2437H34.1461V62.6835H28.4359L24.1453 67.5148V68.3445H40.25V42.3398H34.1484V44.1585C32.7609 42.6328 31.0391 41.864 28.9977 41.864V41.8648ZM8.975 42.3195L6.1 45.5968V42.3859H0V59.6781H6.10078V48.0101H11.8289L12.3047 48.0007V59.6742H18.4055V48.8585C18.4055 47.9367 18.3169 47.1158 18.1398 46.396C17.9604 45.6741 17.6145 45.0041 17.1297 44.4398C16.8084 44.0656 16.446 43.7289 16.0492 43.4359C15.6969 43.1782 15.3198 42.9562 14.9234 42.7734C14.7245 42.685 14.5205 42.6086 14.3125 42.5445C13.9889 42.4455 13.6587 42.3701 13.3242 42.3187L8.975 42.3195ZM42.7859 42.3406V59.632H48.9016L48.9078 48.0601H53.3453L58.1906 42.582V42.3406H51.5391L48.893 45.3195V42.3406H42.7859ZM30.5117 46.9914C31.0305 46.9914 31.5273 47.0929 32.0133 47.2968C32.4861 47.4895 32.9156 47.7748 33.2766 48.1359C33.6398 48.4992 33.9203 48.9109 34.1398 49.3812C34.3534 49.852 34.4602 50.3697 34.4602 50.9343C34.4581 51.4621 34.3469 51.9836 34.1336 52.4664C33.9282 52.9323 33.6444 53.3596 33.2945 53.7296C32.9438 54.0898 32.5289 54.3679 32.0492 54.5726C31.5643 54.7751 31.0435 54.8777 30.518 54.8742C29.9801 54.8806 29.4464 54.778 28.9492 54.5726C28.4803 54.379 28.0556 54.0922 27.7008 53.7296C27.3485 53.364 27.0678 52.9355 26.8734 52.4664C26.668 51.9692 26.5655 51.4355 26.5719 50.8976C26.5708 50.357 26.6766 49.8515 26.8891 49.3812C27.0945 48.9193 27.3877 48.5017 27.7523 48.1515C28.116 47.8021 28.5373 47.5183 28.9977 47.3125C29.4731 47.097 29.9898 46.9877 30.5117 46.9921V46.9914ZM66.7633 46.9914C67.2894 46.9879 67.8107 47.0918 68.2953 47.2968C68.7649 47.4857 69.1892 47.7716 69.5406 48.1359C69.8914 48.4992 70.1656 48.9203 70.3828 49.4023C70.5953 49.883 70.701 50.3937 70.7 50.9343C70.7051 51.4716 70.597 52.004 70.3828 52.4968C70.1765 52.9633 69.8917 53.3909 69.5406 53.7609C69.1866 54.1228 68.763 54.4093 68.2953 54.6031C67.8102 54.807 67.3031 54.9078 66.7633 54.9078C66.2363 54.9108 65.7141 54.8072 65.2281 54.6031C64.7593 54.411 64.3353 54.124 63.9828 53.7601C63.632 53.4007 63.3547 52.9789 63.1406 52.4968C62.9281 52.0156 62.8224 51.4825 62.8234 50.8976C62.8224 50.357 62.9281 49.8515 63.1406 49.3812C63.3474 48.9206 63.6323 48.4993 63.9828 48.1359C64.3344 47.7765 64.7461 47.4953 65.2281 47.2968C65.7141 47.0927 66.2363 46.9891 66.7633 46.9921V46.9914Z" fill="#02228E"/>
</g>
<defs>
<clipPath id="clip0_1085_3237">
<rect width="100" height="100" fill="white"/>
</clipPath>
</defs>
</svg>
