<svg width="100" height="100" viewBox="0 0 100 100" fill="none" xmlns="http://www.w3.org/2000/svg">
<path d="M97.2745 16.6719L93.8604 70.2398L61.219 0L97.2745 16.6719ZM74.6651 85.9375L50.001 100L25.3354 85.9375L26.7292 77.7422H73.2737L74.6651 85.9375ZM6.10493 70.2406L2.72681 16.6727L38.7815 0L6.10493 70.2406Z" fill="url(#paint0_radial_1085_3239)"/>
<path fill-rule="evenodd" clip-rule="evenodd" d="M73.1562 43.3519L73.1531 43.3762C71.7104 51.7876 66.1281 57.1053 56.4062 59.3293C58.8109 61.0137 61.6179 61.4699 64.8687 60.7066C58.7992 62.9566 53.4445 63.0402 48.7906 60.9762C49.6094 63.8746 51.5289 65.9652 54.5797 67.2801C47.0179 65.6558 42.0594 60.4199 39.7148 51.5754C38.5172 53.1551 38.6078 55.7894 39.9804 59.5223C35.8867 54.5652 35.1226 49.3543 37.707 43.9027C40.4143 37.91 45.3341 35.5092 52.4664 36.7004C62.1484 47.3238 68.3906 50.4262 71.164 45.9949C72.3781 42.2051 71.1304 37.5418 67.414 32.0238C64.7445 28.2543 61.6015 25.6098 58.0109 24.134C57.2758 22.048 55.9679 20.5863 54.132 19.8215C52.8539 19.2254 51.6711 19.109 50.6359 19.5301C50.4679 19.5992 50.3004 19.6698 50.1336 19.7418C48.4851 20.4473 45.7476 21.6199 42.6992 20.4621C40.444 19.6053 38.8607 20.1545 37.9492 22.1098C37.0518 24.1139 36.4508 25.2025 36.1461 25.3754C35.682 25.7363 34.6953 26.1137 33.1945 26.5004C31.694 26.8879 30.7526 27.4853 30.3703 28.2926C29.6656 30.0035 29.4104 31.3845 29.6047 32.4355C29.2664 33.7387 28.7219 34.6191 27.9742 35.0558C27.81 35.1509 27.6446 35.2439 27.4781 35.3348C26.6937 35.7676 26.3008 35.984 26.1047 36.9082L26.089 36.9832C25.8656 38.023 25.7922 38.3676 26.8625 41.8363C26.164 46.9816 27.0125 51.9379 29.4078 56.6848C29.4047 56.6785 32.757 65.0512 41.9789 69.4152C51.7471 73.4543 60.4442 72.0225 68.0703 65.1199C63.5523 66.0308 60.2265 66.0933 58.1094 65.3215C66.1617 64.734 71.4312 60.8082 73.9453 53.548C70.5969 56.134 68.0047 57.641 66.1844 58.0465C69.3015 56.0605 71.4344 53.7691 72.5984 51.1918C73.7609 48.6137 73.9474 46.0006 73.1578 43.3527L73.1562 43.3519ZM60.8664 32.6723C60.1304 33.6223 59.1531 35.8324 61.1265 37.0762C63.1 38.3199 62.2203 36.7637 61.5344 35.8293C60.8484 34.8957 60.8664 32.6723 60.8664 32.6723Z" fill="url(#paint1_radial_1085_3239)"/>
<defs>
<radialGradient id="paint0_radial_1085_3239" cx="0" cy="0" r="1" gradientUnits="userSpaceOnUse" gradientTransform="translate(50.0956 45.7164) rotate(90) scale(54.2307 51.2743)">
<stop stop-color="#AA1BB6"/>
<stop offset="1" stop-color="#452070"/>
</radialGradient>
<radialGradient id="paint1_radial_1085_3239" cx="0" cy="0" r="1" gradientUnits="userSpaceOnUse" gradientTransform="translate(49.946 48.5567) rotate(26.565) scale(37.5343 33.4948)">
<stop offset="0.271" stop-color="#B1219B"/>
<stop offset="1" stop-color="#5306A1"/>
</radialGradient>
</defs>
</svg>
