<svg width="100" height="100" viewBox="0 0 100 100" fill="none" xmlns="http://www.w3.org/2000/svg">
<path d="M50.9374 2.89917C36.8827 2.89917 24.2186 9.20151 15.5936 19.132C16.8733 19.2179 18.1366 19.4406 19.3671 19.7945C19.3749 19.7945 19.3936 19.7851 19.4061 19.7945C27.371 11.414 38.5561 6.1437 50.9374 6.1437H51.0741C75.0663 6.1437 94.7085 25.7945 94.7085 49.9125C94.7085 74.0335 75.0671 93.6742 51.0741 93.6742H50.9366C26.953 93.6742 7.3116 74.0335 7.3116 49.9125C7.3116 46.4757 7.73582 43.1468 8.4866 39.9328C8.05691 37.0398 7.51941 34.9039 6.89363 33.8695C5.02073 39.0109 4.06251 44.4405 4.06238 49.9125C4.06238 75.8 25.1874 96.8265 50.9374 96.8265H51.0749C76.8249 96.8265 98.0014 75.8 98.0014 49.9125C98.0014 24.0242 76.8257 2.89995 51.0749 2.89995L50.9374 2.89917Z" fill="#87802A"/>
<path d="M87.5392 35.0108C84.0213 24.9796 75.4767 16.2999 64.7736 12.3726C58.1361 9.93428 47.5588 10.6054 40.7838 12.7843C35.3642 14.539 35.0861 14.539 30.0783 17.521C28.183 18.6046 24.658 17.6554 23.3033 19.4249C21.9424 21.1827 24.7955 23.7616 24.933 25.9288C24.933 26.8741 28.3205 20.371 28.3205 21.1827C28.3205 23.2124 26.0158 27.5523 25.6041 30.5398C24.7955 36.2218 26.8252 52.8913 28.183 58.3194C28.4486 59.1319 31.0244 58.1827 31.708 57.9108C32.7916 57.7733 33.7408 54.2483 35.3642 53.1655C42.4135 48.1546 46.2002 41.6507 52.0299 40.564C57.3244 39.6093 63.6939 42.7343 65.9947 47.071C67.2181 49.3757 68.1642 51.9444 68.1642 53.5741C68.1642 54.7952 67.7556 55.4694 67.4806 54.7952C65.8603 50.1866 64.2306 46.6624 62.7439 45.4413C59.2197 42.5976 57.5869 41.7796 52.4416 42.8632C47.1588 44.0835 37.2681 53.7148 34.1431 58.0483C32.2447 60.6265 31.5736 65.0976 32.9197 67.1304C37.1306 73.2241 40.5181 74.8538 47.9705 75.3913C48.2424 75.3913 50.4088 76.8866 49.4627 76.8866C39.9689 76.8866 35.2267 74.3085 28.858 64.2773C28.183 63.1937 26.6908 59.1312 26.2791 57.9108C23.7088 50.9952 24.3838 39.4843 23.0291 30.2624C22.6291 27.5515 22.0799 24.4327 20.7213 22.5382C18.5549 19.2882 5.41111 19.9616 3.51579 23.3499C2.4322 24.1616 2.02361 24.8421 2.8322 25.3819C10.0197 30.8023 10.0197 36.7687 10.2931 42.5968C10.5681 50.1866 10.5681 55.7444 13.272 62.7937C18.6924 77.5577 30.8869 87.3265 44.5806 89.2187C61.2486 91.6601 73.3095 85.0194 82.3916 73.496C90.5275 63.1968 91.8752 47.2085 87.5392 35.0108ZM37.3931 26.3288C37.5306 25.2444 37.8025 22.678 38.6142 21.8546C40.1064 20.5085 42.1385 19.6874 43.9056 20.7741C46.476 22.2663 47.6963 24.0241 47.5588 26.8741C47.2963 29.5812 44.1713 30.9398 41.8635 31.2108C43.7713 30.2616 46.201 29.1819 45.801 26.4655C45.526 25.5202 43.6314 25.928 42.951 25.1077C42.4135 24.4327 43.0845 22.2663 42.4135 22.1319C42.0017 22.1319 41.4611 22.1319 41.0556 22.2663C39.4322 22.6749 37.9392 24.1616 37.3931 26.3288ZM34.2775 43.0007C34.8244 42.1913 36.1822 40.8335 37.1275 39.4851C38.4767 37.7171 38.3517 36.6374 40.2439 34.6046C38.6142 37.3077 39.2947 38.5288 37.8025 40.1593C37.1275 40.8335 36.4439 41.9202 34.2775 43.0007Z" fill="#903A36"/>
</svg>
