<svg width="100" height="100" viewBox="0 0 100 100" fill="none" xmlns="http://www.w3.org/2000/svg">
<path d="M50.3968 15.9991C50.3968 15.9991 46.565 19.0271 42.6587 22.0347C38.6403 21.9071 30.7587 22.8068 26.4881 24.3599C22.554 21.8676 19.0972 19.1158 19.0972 19.1158C19.0972 19.1158 16.1433 24.1977 14.2857 27.1799C11.5307 28.6451 8.76477 30.2931 6.29958 32.4735C3.4323 31.3349 0.108483 29.9468 0 29.9009C3.79713 37.5598 6.34974 45.2289 13.2936 49.8384C24.3486 32.3788 75.7204 33.988 87.004 49.7394C94.2962 45.9359 97.1322 37.7527 100 30.1977C99.6855 30.3013 95.7835 31.6077 93.254 32.5724C91.7437 30.9282 88.1839 28.4002 86.1607 27.1798C84.2415 23.6656 81.4484 18.9179 81.4484 18.9179C81.4484 18.9179 78.1401 21.3785 74.3055 24.0631C69.1251 23.1068 62.8592 21.9449 57.5892 22.2326C54.0017 19.2838 50.3968 15.9991 50.3968 15.9991Z" fill="#F3D400"/>
<path d="M3.92603 46.1774C3.92603 46.1774 9.30792 59.2087 13.0457 68.2637C28.8842 89.1595 69.3292 90.6122 86.9612 68.6682C91.1336 59.2651 96.7627 46.0505 96.7627 46.0505C92.2392 52.7518 84.8776 57.3776 80.3436 59.8694C77.1219 61.6344 69.6881 62.7013 69.6881 62.7013L50.1717 52.5877L30.5432 62.499C30.5432 62.499 23.2083 61.3205 19.8877 59.7683C13.1857 56.1907 8.67819 51.9639 3.92603 46.1774Z" fill="#FFE953"/>
</svg>
