<svg width="100" height="100" viewBox="0 0 100 100" fill="none" xmlns="http://www.w3.org/2000/svg">
<path d="M49.9999 40.1L1.76709 23.761V71.8172L49.9999 90.8719V40.1Z" fill="black"/>
<path d="M98.2328 23.761L50 40.1V90.8719L98.2328 71.8172V23.761Z" fill="#1C1C1C"/>
<path d="M98.3126 23.7611L50.0798 7.90405L1.84937 23.7611L50.0798 40.1001L98.3126 23.7611Z" fill="#353338"/>
<path d="M71.7041 45.4646C71.7041 45.4646 73.2182 43.7037 73.7549 43.8631C75.1494 44.2811 77.1025 45.1053 77.8479 44.3967C78.9729 43.3287 80.3197 42.7428 80.3197 42.7428L80.301 29.8584L71.7041 32.7631V45.4646Z" fill="#C5B514"/>
<path d="M32.0743 13.8306L80.3103 29.8587L71.7376 32.7634L23.4282 16.6657L32.0743 13.8306Z" fill="#EED714"/>
<path d="M33.4192 58.2245C32.5801 54.1752 28.3684 49.912 23.5958 48.8862C18.9911 47.894 15.4786 50.1713 14.8004 53.4612L14.0012 54.3151L12.884 50.6838L12.0325 44.8792L13.4973 46.1401C13.9036 45.5877 14.1934 45.151 15.2395 44.4737L16.2567 41.4612L17.9989 43.8385C19.1918 43.6401 20.3942 43.4143 21.8012 43.7627L23.5958 41.5502L25.4301 44.437C26.9223 44.6292 28.2434 45.3495 29.5926 46.0604L31.6372 44.2081L32.8731 47.9768C34.1856 49.2346 34.5543 49.869 35.0762 50.7018L37.0083 50.0096L35.8754 56.2284L34.4262 59.6737L33.4192 58.2245Z" fill="#F5E83F"/>
<path d="M34.5978 58.85L33.4197 58.1148L31.3322 61.3125L28.5525 61.7008L23.5962 56.3234L18.915 58.9719L16.5134 57.2172L14.8009 53.3656L13.8673 53.5125L12.8845 50.5859L14.8009 59.5461C16.1869 64.3922 20.6056 68.0539 23.5962 69.0578C26.697 70.0992 31.7228 69.3906 33.4197 65.018L35.8767 56.1188L34.5978 58.85Z" fill="#F5E83F"/>
</svg>
