<svg width="100" height="100" viewBox="0 0 100 100" fill="none" xmlns="http://www.w3.org/2000/svg">
<g clip-path="url(#clip0_867_18861)">
<path fill-rule="evenodd" clip-rule="evenodd" d="M88.0383 17.5488C70.117 -3.45878 38.5588 -5.96069 17.5512 11.9606C-3.45634 29.882 -5.95825 61.4401 11.9631 82.4476C29.8844 103.455 61.4425 105.957 82.45 88.0359C103.458 70.1145 105.96 38.5564 88.0383 17.5488ZM63.1289 43.7912C65.0559 43.7912 66.2863 45.8791 65.3194 47.5458L65.0414 48.0251L46.1723 79.0697C45.8216 79.6467 45.1953 79.9987 44.5204 79.9987H42.7192C41.485 79.9987 40.5825 78.8335 40.8917 77.6385L46.0118 57.843C46.421 56.2603 45.2263 54.7171 43.5916 54.7171H35.7272C34.0925 54.7171 32.8978 53.1741 33.3068 51.5914L41.0327 21.7055C41.3137 20.6997 42.2244 19.9917 43.2687 20.0035C43.3951 20.005 43.5099 20.0071 43.6051 20.0101L51.5254 20.0099C53.0406 20.0092 54.208 21.3457 54.0038 22.8469L53.955 23.2043L50.9346 40.8701C50.6736 42.397 51.8496 43.7912 53.3988 43.7912H63.1289Z" fill="url(#paint0_radial_867_18861)"/>
<mask id="mask0_867_18861" style="mask-type:alpha" maskUnits="userSpaceOnUse" x="0" y="0" width="100" height="100">
<path d="M49.9982 99.9979C77.6115 99.9979 99.9965 77.613 99.9965 49.9997C99.9965 22.3864 77.6115 0.00146484 49.9982 0.00146484C22.385 0.00146484 0 22.3864 0 49.9997C0 77.613 22.385 99.9979 49.9982 99.9979Z" fill="url(#paint1_radial_867_18861)"/>
</mask>
<g mask="url(#mask0_867_18861)">
<g filter="url(#filter0_f_867_18861)">
<path d="M2.77853 33.5645C0.175795 41.0422 -0.613778 49.0312 0.474798 56.8736C1.56338 64.7163 4.49897 72.1883 9.03996 78.6744C13.5809 85.1606 19.5974 90.4757 26.5943 94.182C33.5911 97.8884 41.368 99.8799 49.285 99.9928C57.202 100.106 65.0325 98.3369 72.1322 94.8318C79.2319 91.3267 85.3975 86.1853 90.1218 79.8313C94.8459 73.4773 97.9935 66.0923 99.3055 58.2838C100.617 50.4756 100.056 42.4671 97.6675 34.9182L83.1301 39.5175C84.79 44.7643 85.18 50.3304 84.2683 55.7574C83.3566 61.1845 81.1689 66.3173 77.8852 70.7336C74.6019 75.15 70.3165 78.7231 65.3819 81.1593C60.4476 83.5957 55.0051 84.8249 49.5025 84.7464C44 84.6679 38.5946 83.2837 33.7318 80.7078C28.8687 78.1319 24.6871 74.4378 21.531 69.9297C18.3748 65.4213 16.3345 60.2283 15.5779 54.7775C14.8213 49.3264 15.3701 43.7738 17.1791 38.5765L2.77853 33.5645Z" fill="white"/>
</g>
</g>
</g>
<defs>
<filter id="filter0_f_867_18861" x="-24.9991" y="8.56534" width="149.995" height="116.432" filterUnits="userSpaceOnUse" color-interpolation-filters="sRGB">
<feFlood flood-opacity="0" result="BackgroundImageFix"/>
<feBlend mode="normal" in="SourceGraphic" in2="BackgroundImageFix" result="shape"/>
<feGaussianBlur stdDeviation="12.4996" result="effect1_foregroundBlur_867_18861"/>
</filter>
<radialGradient id="paint0_radial_867_18861" cx="0" cy="0" r="1" gradientUnits="userSpaceOnUse" gradientTransform="translate(10.0013 49.9983) scale(97.4983 994.24)">
<stop stop-color="#31B2F3"/>
<stop offset="0.473958" stop-color="#F27CEC"/>
<stop offset="1" stop-color="#FD6641"/>
</radialGradient>
<radialGradient id="paint1_radial_867_18861" cx="0" cy="0" r="1" gradientUnits="userSpaceOnUse" gradientTransform="translate(9.99964 49.9999) scale(97.4965 994.222)">
<stop stop-color="#F27CEC"/>
<stop offset="0.484375" stop-color="#31B2F3"/>
<stop offset="1" stop-color="#7D7573"/>
</radialGradient>
<clipPath id="clip0_867_18861">
<rect width="100" height="100" fill="white"/>
</clipPath>
</defs>
</svg>
