<svg width="100" height="100" viewBox="0 0 100 100" fill="none" xmlns="http://www.w3.org/2000/svg">
<path fill-rule="evenodd" clip-rule="evenodd" d="M39.6344 34.1961L16.0352 75.3344L10.5258 65.9336L16.8852 54.9156L4.25469 54.8828L1.5625 50.1852L4.31172 45.3805L22.2906 45.4375L28.7516 34.225L39.6344 34.1961ZM41.4453 67.082L88.6398 67.0844L83.3063 76.5875L70.6461 76.5523L76.9328 87.5797L74.2375 92.275L68.7297 92.2813L59.7883 76.5805L46.9109 76.5539L41.4453 67.082ZM68.9141 49.0555L45.3188 7.91484L56.1625 7.8125L62.4617 18.8656L68.8055 7.87188L74.1938 7.87344L76.9531 12.6727L67.9141 28.3164L74.3305 39.5555L68.9141 49.0555Z" fill="#7EBAE4"/>
<path fill-rule="evenodd" clip-rule="evenodd" d="M31.1179 51.143L54.7132 92.2836L43.8694 92.3859L37.5702 81.3328L31.2265 92.3266L25.8382 92.325L23.0788 87.5258L32.1179 71.882L25.7015 60.643L31.1179 51.143ZM58.5241 33.0125L11.3296 33.0102L16.664 23.5078L29.3233 23.543L23.0366 12.5156L25.7319 7.82031L31.2405 7.8125L40.1812 23.5133L53.0593 23.5398L58.5241 33.0125ZM60.3655 65.9938L83.9648 24.8547L89.4741 34.2563L83.114 45.2734L95.7452 45.307L98.4374 50.0047L95.6882 54.8094L77.7093 54.7523L71.2483 65.9648L60.3655 65.9938Z" fill="#5277C3"/>
</svg>
