<svg width="100" height="100" viewBox="0 0 100 100" fill="none" xmlns="http://www.w3.org/2000/svg">
<path d="M47.7039 97.8207C48.4005 98.2236 49.191 98.4357 49.9957 98.4357C50.8004 98.4357 51.5909 98.2236 52.2875 97.8207L90.2609 75.9082C90.9584 75.5057 91.5376 74.9267 91.9402 74.2293C92.3429 73.5319 92.5548 72.7408 92.5547 71.9356V28.077C92.5541 27.2722 92.3421 26.4818 91.94 25.7847C91.5379 25.0876 90.9597 24.5084 90.2633 24.1051L52.2906 2.17464C51.5928 1.77232 50.8015 1.56055 49.9961 1.56055C49.1906 1.56055 48.3993 1.77232 47.7016 2.17464L9.73828 24.1043C9.04097 24.5069 8.46194 25.086 8.05943 25.7834C7.65692 26.4807 7.44512 27.2718 7.44531 28.077V71.9379C7.44574 72.7427 7.65793 73.5331 8.06055 74.2299C8.46318 74.9267 9.04206 75.5052 9.73906 75.9075L47.7039 97.8207Z" fill="#76D04B"/>
<path d="M74.584 39.5448L72.8903 38.5706C75.495 34.7291 77.0504 28.9549 75.0997 20.3206C75.0997 20.3206 70.7051 32.637 61.8723 32.2292L51.5286 26.276C51.1427 26.05 50.7067 25.9236 50.2598 25.9081H50.0215C49.5732 25.9246 49.1359 26.0513 48.7481 26.2768L38.4044 32.2292C29.5715 32.6377 25.1762 20.3213 25.1762 20.3213C23.2239 28.9542 24.7825 34.7291 27.3864 38.5706L25.6926 39.5448C25.2679 39.79 24.9154 40.1428 24.6705 40.5678C24.4257 40.9927 24.2972 41.4747 24.2981 41.9651L24.3489 77.6917C24.3489 78.1909 24.6067 78.6526 25.0442 78.8948C25.4723 79.1526 26.0012 79.1526 26.427 78.8948L40.1301 71.0487C40.9973 70.5331 41.5247 69.6252 41.5247 68.6323V51.9416C41.5235 51.4529 41.6514 50.9725 41.8957 50.5491C42.1399 50.1257 42.4916 49.7744 42.9153 49.5307L48.7489 46.1713C49.172 45.9228 49.6542 45.7927 50.145 45.7948C50.62 45.7948 51.1075 45.9174 51.5301 46.1698L57.3629 49.5299C57.7871 49.7733 58.1393 50.1245 58.3839 50.5479C58.6285 50.9713 58.7569 51.4519 58.7559 51.9409V68.6323C58.7559 69.6252 59.2895 70.5409 60.1512 71.0487L73.8497 78.8948C74.2794 79.1526 74.8168 79.1526 75.2426 78.8948C75.6668 78.6526 75.934 78.1901 75.934 77.6917L75.9786 41.9651C75.9804 41.4747 75.8525 40.9925 75.6079 40.5674C75.3632 40.1424 75.0106 39.7896 74.5856 39.5448H74.584Z" fill="#4F4D3F"/>
</svg>
