<svg width="100" height="100" viewBox="0 0 100 100" fill="none" xmlns="http://www.w3.org/2000/svg">
<path d="M50 98.2817C49.0625 98.2817 48.2031 98.0474 47.5781 97.7349L9.84375 76.0161C8.51563 75.2349 7.42188 73.2817 7.42188 71.7974V28.2036C7.42188 26.7192 8.59375 24.7661 9.84375 23.9849L47.5781 2.26611C48.2031 1.87549 49.0625 1.71924 50 1.71924C50.9375 1.71924 51.7969 1.95361 52.4219 2.26611L90.0781 24.063C91.4062 24.8442 92.5 26.7974 92.5 28.2817V71.7974C92.5 73.2817 91.3281 75.2349 90.0781 76.0161L52.4219 97.813C51.7969 98.1255 50.9375 98.2817 50 98.2817Z" fill="#3D3B47"/>
<path d="M50 2.89111C50.7031 2.89111 51.4062 3.04736 51.875 3.28174L89.5312 25.0005C90.4688 25.5474 91.4062 27.1099 91.4062 28.2036V71.7192C91.4062 72.813 90.4688 74.3755 89.5312 74.9224L51.875 96.7192C51.4062 96.9536 50.7031 97.1099 50 97.1099C49.2969 97.1099 48.5938 96.9536 48.125 96.7192L10.4687 75.0005C9.53125 74.4536 8.59375 72.8911 8.59375 71.7974V28.2036C8.59375 27.1099 9.53125 25.5474 10.4687 25.0005L48.125 3.28174C48.5938 3.04736 49.2969 2.89111 50 2.89111ZM50 0.547363C48.9062 0.547363 47.8125 0.781738 46.9531 1.25049L9.29687 22.9692C7.65625 23.9849 6.25 26.3286 6.25 28.2036V71.7192C6.25 73.6724 7.57812 76.0161 9.29687 76.9536L46.9531 98.7505C47.8125 99.2192 48.9062 99.4536 50 99.4536C51.0938 99.4536 52.1875 99.2192 53.0469 98.7505L90.7031 76.9536C92.3438 76.0161 93.75 73.6724 93.75 71.7192V28.2036C93.75 26.2505 92.4219 23.9067 90.7031 22.9692L53.0469 1.25049C52.1875 0.781738 51.0938 0.547363 50 0.547363Z" fill="#CCCCCC"/>
<path d="M50 46.6414H50.2344C51.3281 46.7195 52.3438 47.3445 52.9688 48.282C53.2813 48.8289 53.4375 49.532 53.4375 50.2351C53.2813 52.032 51.875 53.3601 50.0781 53.3601H49.8437C48.75 53.282 47.7344 52.657 47.1094 51.7195C46.7969 51.1726 46.6406 50.4695 46.6406 49.7664C46.7187 48.0476 48.2031 46.6414 50 46.6414ZM50 46.407C48.125 46.407 46.5625 47.8914 46.4063 49.7664C46.3281 50.4695 46.4844 51.1726 46.875 51.7976C47.5 52.8132 48.5156 53.5164 49.7656 53.5945H50C51.875 53.5945 53.4375 52.1101 53.5937 50.2351C53.6719 49.532 53.4375 48.8289 53.125 48.2039C52.5 47.1882 51.4844 46.4851 50.2344 46.407H50Z" fill="#EFF3F3"/>
<path d="M50.0781 48.8276C50.7031 48.9058 51.25 49.4526 51.1719 50.0776C51.0938 50.7026 50.5469 51.2495 49.9219 51.1714C49.2969 51.0933 48.75 50.5464 48.8281 49.9214C48.8281 49.2964 49.4531 48.7495 50.0781 48.8276ZM50 54.7651H49.6875C48.125 54.687 46.6406 53.7495 45.8594 52.4214C45.3906 51.562 45.1563 50.6245 45.2344 49.687C45.3125 48.5933 45.7812 47.5776 46.4844 46.7964V46.7183L15.625 70.2339L51.0938 54.6089C50.7031 54.687 50.3906 54.7651 50 54.7651Z" fill="#EFF3F3"/>
<path d="M48.8281 45.3901C49.2969 45.312 49.7656 45.2339 50.3125 45.2339C51.875 45.312 53.3594 46.2495 54.1406 47.5776C54.6094 48.437 54.8437 49.3745 54.7656 50.312C54.6875 51.4839 54.2188 52.4995 53.4375 53.2808L84.6094 30.312L48.8281 45.3901Z" fill="#0977F7"/>
</svg>
