<svg width="100" height="100" viewBox="0 0 100 100" fill="none" xmlns="http://www.w3.org/2000/svg">
<path d="M49.9995 0L93.2729 25.0414V75.0102L49.9995 100L6.72607 75.0094V25.0266L49.9995 0Z" fill="#8F0000"/>
<path d="M50.0176 4.14029C49.8761 4.13745 49.7365 4.1731 49.6137 4.24342L10.4731 26.8004C10.3559 26.8683 10.2586 26.9657 10.1909 27.0829C10.1232 27.2001 10.0874 27.333 10.0872 27.4684V72.5825C10.0872 72.859 10.234 73.113 10.4731 73.2512L49.6137 95.8114C49.7311 95.879 49.8642 95.9146 49.9997 95.9146C50.1351 95.9146 50.2682 95.879 50.3856 95.8114L89.4653 73.2489C89.7043 73.1114 89.8739 72.8575 89.8739 72.5809V27.4684C89.8739 27.1926 89.7043 26.938 89.4653 26.8004L50.3856 4.24342C50.2735 4.17951 50.1474 4.14435 50.0184 4.14108L50.0176 4.14029ZM49.9997 5.80436L88.3278 27.9137V52.3919H72.9723C70.2551 52.3919 67.9278 54.6614 67.9278 57.3786V58.0473C58.6996 57.9786 55.9473 55.5903 52.5153 52.5887C49.6622 50.0942 46.0887 47.3637 38.9012 46.2231C40.2411 44.8794 41.0473 43.352 41.7653 42.0497C42.5372 40.6505 43.2348 39.5419 44.3512 38.7755C45.2215 38.1786 46.7051 37.82 48.627 37.7051V38.3325C48.627 41.0505 50.7379 43.2739 53.4551 43.2739H73.1286C75.8457 43.2739 78.2848 41.0505 78.2848 38.3325V33.4997C78.2848 30.7825 75.8567 28.5926 73.1387 28.5926H53.4637C50.7457 28.5926 48.6262 30.7825 48.6262 33.4989V34.3801C46.0848 34.5051 43.9223 35.0044 42.4528 36.013C40.6348 37.2606 39.6395 38.9544 38.8254 40.4301C38.0114 41.9059 37.3442 43.1755 36.3754 44.0645C35.5481 44.8223 34.3911 45.3426 32.5083 45.5801C32.2653 43.0817 30.0942 41.2794 27.5372 41.2645H11.6715V27.9137L49.9997 5.80436ZM53.4637 31.9919H73.1379C74.0559 31.9919 74.7278 32.5809 74.7278 33.4989V38.3325C74.7278 39.2505 74.0465 39.8739 73.1286 39.8739H53.4543C52.5364 39.8739 51.7895 39.2505 51.7895 38.3325V33.4997C51.7895 32.5817 52.5457 31.9919 53.4637 31.9919ZM11.6715 44.3544H27.5364C28.4536 44.3544 29.1356 45.1153 29.1356 46.0333V50.8669C29.1356 51.7848 28.4543 52.3919 27.5364 52.3911H11.6723L11.6715 44.3544ZM32.6036 49.0286C43.6872 49.2028 46.7442 51.9958 50.3067 55.1122C53.727 58.1028 57.9348 61.2403 67.9278 61.3731V62.2122C67.9278 64.9294 70.2551 67.0731 72.9723 67.0731H88.3278V72.1348L49.9997 94.2505L11.6723 72.1356V55.7919H27.5387C30.2559 55.7919 32.6028 53.5856 32.6028 50.8676L32.6036 49.0286ZM72.9739 55.7911H88.3293V63.6739H72.9746C72.0575 63.6739 71.3286 63.0458 71.3286 62.1278V57.3778C71.3286 56.4606 72.0575 55.7919 72.9746 55.7919L72.9739 55.7911Z" fill="white"/>
<path d="M77.3713 30.7271L77.3666 30.7481C77.9393 31.5325 78.2838 32.4786 78.2838 33.4997V38.3333C78.2838 41.0513 75.8455 43.2747 73.1275 43.2747H53.4549C50.7377 43.2747 48.6268 41.0513 48.6268 38.3333V37.7067C46.7049 37.8208 45.2205 38.1794 44.3518 38.7763C43.2346 39.5419 42.5369 40.6513 41.765 42.0505C41.0463 43.3528 40.2416 44.8802 38.901 46.2239C46.0885 47.3645 49.6619 50.095 52.515 52.5896C55.9471 55.5911 58.6994 57.9802 67.9275 58.0481V57.3794C67.9275 54.6622 70.2549 52.3927 72.9721 52.3927H88.3291V43.5903L77.3713 30.7271ZM32.6057 49.0302L32.6033 50.8685C32.6033 53.5864 30.2564 55.7927 27.5393 55.7927H11.6729V55.8161L43.4494 90.4716L50.0002 94.2505L88.3283 72.1356V67.0739H72.9744C70.2572 67.0739 67.9299 64.9302 67.9299 62.213V61.3739C57.9377 61.2411 53.7291 58.1036 50.3096 55.113C46.7463 51.9966 43.6893 49.2036 32.6064 49.0294L32.6057 49.0302Z" fill="#720101"/>
</svg>
