<svg width="100" height="100" viewBox="0 0 100 100" fill="none" xmlns="http://www.w3.org/2000/svg">
<g clip-path="url(#clip0_1085_3278)">
<path d="M86.8066 84.1414C123.486 33.8382 58.0472 9.00307 30.38 52.6859C26.8855 46.8664 25.3996 39.3257 28.4753 27.8421C15.6824 42.725 14.0621 58.1945 28.0175 74.482C39.1503 53.632 53.1644 50.1656 67.7246 50.0984L67.7152 60.7429C61.123 60.0773 56.6003 65.0218 51.9433 69.514C44.2285 75.2539 37.5878 83.5945 33.2425 97.0617C-21.0637 76.6515 -3.44887 -3.26177 54.1402 0.400733C48.2011 6.73901 43.1136 13.389 43.416 22.0312C87.6847 -9.29458 118.651 51.3859 87.1269 83.8296" fill="url(#paint0_linear_1085_3278)"/>
<path d="M67.6939 69.4995C66.6196 60.7909 58.0751 63.1433 51.9438 69.5128C56.6009 65.0206 61.1149 60.0761 67.7157 60.7417L67.6939 69.4995Z" fill="url(#paint1_linear_1085_3278)"/>
<path d="M67.7063 69.5132L67.6939 81.1031C79.7274 75.2351 85.236 56.2679 84.7563 43.6218C95.0017 57.2664 93.6618 70.6359 87.1189 83.8289H87.1274C78.1829 93.3289 65.4603 99.4539 51.9532 99.9507L51.9438 69.5132C58.0751 63.1437 66.6196 60.7906 67.7063 69.5132Z" fill="url(#paint2_linear_1085_3278)"/>
<path d="M87.1184 83.8277C93.6613 70.6449 94.9887 57.2652 84.7559 43.6215C84.5215 41.1801 83.8559 38.8363 82.373 37.1582C97.5488 47.8512 98.2113 68.5043 87.1184 83.8277Z" fill="url(#paint3_linear_1085_3278)"/>
<path d="M87.1272 83.8278C98.2116 68.506 97.5491 47.8419 82.3733 37.1583C65.1272 26.327 41.1038 37.1489 30.3804 52.6763C58.1358 8.93487 123.447 33.9044 86.8069 84.1302" fill="url(#paint4_linear_1085_3278)"/>
</g>
<defs>
<linearGradient id="paint0_linear_1085_3278" x1="20.0457" y1="86.7133" x2="78.1955" y2="16.5024" gradientUnits="userSpaceOnUse">
<stop stop-color="#33AAE6"/>
<stop offset="0.992" stop-color="#4B3892"/>
</linearGradient>
<linearGradient id="paint1_linear_1085_3278" x1="51.9464" y1="65.0946" x2="67.7149" y2="65.0946" gradientUnits="userSpaceOnUse">
<stop stop-color="#3D85C9"/>
<stop offset="1" stop-color="#4A4198"/>
</linearGradient>
<linearGradient id="paint2_linear_1085_3278" x1="51.9454" y1="71.7866" x2="92.2353" y2="71.7866" gradientUnits="userSpaceOnUse">
<stop stop-color="#61C67C"/>
<stop offset="1" stop-color="#366794"/>
</linearGradient>
<linearGradient id="paint3_linear_1085_3278" x1="82.3707" y1="60.4947" x2="94.7023" y2="60.4947" gradientUnits="userSpaceOnUse">
<stop stop-color="#2F6B7F"/>
<stop offset="1" stop-color="#325D87"/>
</linearGradient>
<linearGradient id="paint4_linear_1085_3278" x1="50.1291" y1="29.8821" x2="87.9671" y2="85.9657" gradientUnits="userSpaceOnUse">
<stop stop-color="#3B7FC4"/>
<stop offset="0.467" stop-color="#90B1DF"/>
<stop offset="0.764" stop-color="#7381C0"/>
<stop offset="1" stop-color="#5F5FAB"/>
</linearGradient>
<clipPath id="clip0_1085_3278">
<rect width="100" height="100" fill="white"/>
</clipPath>
</defs>
</svg>
