<svg width="100" height="100" viewBox="0 0 100 100" fill="none" xmlns="http://www.w3.org/2000/svg">
<g clip-path="url(#clip0_867_14833)">
<path d="M8.03333 4.314L63.4867 0.227337C70.2967 -0.355996 72.0467 0.0373373 76.3267 3.144L94.03 15.5873C96.9533 17.7273 97.9267 18.3107 97.9267 20.6407V88.884C97.9267 93.1607 96.3667 95.6907 90.92 96.0773L26.5233 99.9673C22.43 100.161 20.4867 99.5773 18.3433 96.854L5.31 79.9407C2.96667 76.8273 2 74.4973 2 71.774V11.114C2 7.61734 3.56 4.70067 8.03333 4.314Z" fill="white"/>
<path fill-rule="evenodd" clip-rule="evenodd" d="M63.49 0.227337L8.02667 4.314C3.56 4.70067 2 7.61734 2 11.114V71.774C2 74.4973 2.97 76.8273 5.30667 79.9407L18.3433 96.854C20.4867 99.5773 22.43 100.161 26.52 99.9673L90.9233 96.0773C96.37 95.6907 97.93 93.1607 97.93 88.884V20.6407C97.93 18.4307 97.0533 17.794 94.4733 15.9073L94.0333 15.5873L76.3333 3.144C72.05 0.0373373 70.3 -0.355996 63.4867 0.227337H63.49ZM27.9767 19.524C22.72 19.8773 21.5233 19.9573 18.54 17.534L10.95 11.5073C10.1733 10.7273 10.5633 9.754 12.5067 9.56067L65.8233 5.674C70.2967 5.284 72.6333 6.84067 74.3833 8.20067L83.53 14.8107C83.92 15.0073 84.89 16.1707 83.7233 16.1707L28.6567 19.4773L27.9767 19.524ZM21.8467 88.3007V30.3673C21.8467 27.8373 22.6267 26.6707 24.96 26.474L88.1967 22.7807C90.34 22.5873 91.3133 23.9473 91.3133 26.474V84.0207C91.3133 86.5507 90.9233 88.6907 87.42 88.884L26.9067 92.384C23.4067 92.5773 21.8467 91.414 21.8467 88.3007ZM81.5867 33.474C81.9733 35.224 81.5867 36.974 79.83 37.174L76.9167 37.7507V80.524C74.3833 81.884 72.05 82.6607 70.1033 82.6607C66.99 82.6607 66.21 81.6873 63.8767 78.774L44.8067 48.834V77.8007L50.84 79.164C50.84 79.164 50.84 82.664 45.9733 82.664L32.55 83.4407C32.16 82.6607 32.55 80.7173 33.91 80.3307L37.4133 79.3607V41.0607L32.55 40.6673C32.16 38.9173 33.13 36.3907 35.8567 36.1973L50.2567 35.224L70.1033 65.5573V38.724L65.0433 38.144C64.6567 36.0007 66.21 34.4473 68.1567 34.254L81.5867 33.474Z" fill="black"/>
</g>
<defs>
<clipPath id="clip0_867_14833">
<rect width="96.6667" height="100" fill="white" transform="translate(2)"/>
</clipPath>
</defs>
</svg>
