<svg width="100" height="100" viewBox="0 0 100 100" fill="none" xmlns="http://www.w3.org/2000/svg">
<g clip-path="url(#clip0_868_39482)">
<path d="M54.1364 72.0608L58.7818 76.7366C58.994 76.9487 59.0606 77.2669 58.9485 77.5456L51.6818 96.085C51.4082 96.7912 50.9277 97.3982 50.3031 97.8264C49.6785 98.2547 48.9391 98.4843 48.1818 98.485C46.6364 98.485 45.2455 97.5305 44.6818 96.082L34.2243 69.4032L17.3091 86.4244C17.2398 86.4946 17.1572 86.5503 17.0662 86.5884C16.9751 86.6264 16.8775 86.646 16.7788 86.646C16.6802 86.646 16.5825 86.6264 16.4914 86.5884C16.4004 86.5503 16.3178 86.4946 16.2485 86.4244L11.9849 82.1366C11.8442 81.9947 11.7653 81.803 11.7653 81.6032C11.7653 81.4035 11.8442 81.2118 11.9849 81.0699L32.8637 60.0638C33.5299 59.3658 34.4292 58.9367 35.3909 58.8578C36.1858 58.8138 36.9744 59.0215 37.6446 59.4512C38.3148 59.881 38.8325 60.511 39.1243 61.2517L48.1909 84.3729L52.9091 72.3214C52.9543 72.2042 53.0281 72.1001 53.1238 72.0188C53.2196 71.9375 53.3341 71.8814 53.4571 71.8558C53.5801 71.8302 53.7076 71.8358 53.8278 71.8721C53.9481 71.9085 54.0573 71.9744 54.1455 72.0638L54.1364 72.0608ZM79.0576 13.5759L62.1394 30.5972L51.6849 3.91534C51.3596 3.0747 50.743 2.37899 49.9475 1.9551C49.1521 1.53122 48.2307 1.40741 47.3515 1.60625C46.097 1.88504 45.097 2.83958 44.6273 4.04564L37.4152 22.4456C37.3617 22.5822 37.3489 22.7313 37.3785 22.8749C37.4081 23.0185 37.4787 23.1505 37.5818 23.2547L42.2273 27.9305C42.6121 28.3153 43.2576 28.179 43.4606 27.6729L48.1818 15.6214L57.2455 38.7396C57.4722 39.3228 57.8411 39.8402 58.3185 40.2448C58.796 40.6493 59.3669 40.9282 59.9795 41.0562C60.5921 41.1841 61.2269 41.157 61.8263 40.9774C62.4258 40.7977 62.9709 40.4712 63.4121 40.0275L84.3879 18.9214C84.5285 18.7795 84.6075 18.5878 84.6075 18.3881C84.6075 18.1883 84.5285 17.9966 84.3879 17.8547L80.1212 13.5669C80.0519 13.4967 79.9693 13.441 79.8783 13.4029C79.7873 13.3649 79.6896 13.3453 79.5909 13.3453C79.4923 13.3453 79.3946 13.3649 79.3036 13.4029C79.2125 13.441 79.13 13.4967 79.0606 13.5669L79.0576 13.5759ZM25.994 54.7456L14.0152 49.9972L36.9909 40.8759C38.4758 40.285 39.4606 38.8002 39.3697 37.1184C39.2976 36.1515 38.8714 35.2452 38.1727 34.5729L17.3061 13.5729C17.2367 13.5027 17.1542 13.447 17.0631 13.409C16.9721 13.371 16.8744 13.3514 16.7758 13.3514C16.6771 13.3514 16.5794 13.371 16.4884 13.409C16.3974 13.447 16.3148 13.5027 16.2455 13.5729L11.9818 17.8638C11.8403 18.0058 11.7608 18.1982 11.7608 18.3987C11.7608 18.5992 11.8403 18.7915 11.9818 18.9335L28.9 35.9547L2.38487 46.4759C1.67834 46.7552 1.07211 47.2404 0.644903 47.8686C0.217696 48.4968 -0.0107422 49.239 -0.0107422 49.9987C-0.0107422 50.7584 0.217696 51.5005 0.644903 52.1287C1.07211 52.7569 1.67834 53.2422 2.38487 53.5214L20.8061 60.8305C20.9415 60.8874 21.0911 60.9019 21.235 60.8722C21.3788 60.8424 21.5103 60.7698 21.6121 60.6638L26.2576 55.9911C26.3469 55.9023 26.4127 55.7926 26.4489 55.6719C26.4852 55.5513 26.4908 55.4235 26.4652 55.3002C26.4396 55.1768 26.3837 55.0618 26.3025 54.9655C26.2212 54.8692 26.1173 54.7947 26 54.7487L25.994 54.7456ZM93.9758 46.4729L75.5515 39.1638C75.4165 39.1076 75.2676 39.0934 75.1243 39.1232C74.981 39.1529 74.8501 39.2252 74.7485 39.3305L70.1031 44.0032C70.0137 44.0918 69.9478 44.2013 69.9113 44.3218C69.8748 44.4423 69.869 44.57 69.8942 44.6933C69.9195 44.8166 69.9751 44.9317 70.056 45.0281C70.1369 45.1246 70.2406 45.1993 70.3576 45.2456L82.3394 50.0002L59.3606 59.1214C58.62 59.4189 57.9917 59.9418 57.5647 60.6162C57.1378 61.2906 56.9339 62.0823 56.9818 62.879C57.0364 63.8396 57.5031 64.7396 58.1788 65.4244L79.0576 86.4275C79.1269 86.4976 79.2095 86.5534 79.3005 86.5914C79.3916 86.6294 79.4893 86.649 79.5879 86.649C79.6866 86.649 79.7842 86.6294 79.8753 86.5914C79.9663 86.5534 80.0489 86.4976 80.1182 86.4275L84.3788 82.1396C84.5194 81.9977 84.5984 81.806 84.5984 81.6063C84.5984 81.4065 84.5194 81.2148 84.3788 81.0729L67.4637 64.0517L93.9788 53.5305C94.6853 53.2513 95.2916 52.766 95.7188 52.1378C96.146 51.5096 96.3744 50.7675 96.3744 50.0078C96.3744 49.2481 96.146 48.5059 95.7188 47.8777C95.2916 47.2495 94.6853 46.7643 93.9788 46.485L93.9758 46.4729Z" fill="url(#paint0_linear_868_39482)"/>
</g>
<defs>
<linearGradient id="paint0_linear_868_39482" x1="94.1352" y1="97.1683" x2="-1.44292" y2="5.80055" gradientUnits="userSpaceOnUse">
<stop stop-color="#FF6200"/>
<stop offset="0.399" stop-color="#E433FF"/>
<stop offset="0.96" stop-color="#6842FF"/>
</linearGradient>
<clipPath id="clip0_868_39482">
<rect width="100" height="100" fill="white"/>
</clipPath>
</defs>
</svg>
