<svg width="100" height="100" viewBox="0 0 100 100" fill="none" xmlns="http://www.w3.org/2000/svg">
<g clip-path="url(#clip0_867_14812)">
<path d="M52.321 9.40611C52.3212 9.10146 52.2441 8.80174 52.0969 8.53502C51.9497 8.2683 51.7372 8.04331 51.4793 7.88111L39.2502 0.264445C38.9726 0.0916103 38.6522 0 38.3252 0C37.9982 0 37.6777 0.0916103 37.4002 0.264445L15.0043 14.1478L14.9127 14.2103C14.6794 14.3769 14.4896 14.5971 14.3591 14.8523C14.2286 15.1075 14.1612 15.3903 14.1627 15.6769V30.0228L2.95434 36.6686C2.68808 36.8281 2.46783 37.0541 2.31517 37.3244C2.16251 37.5946 2.08268 37.8999 2.0835 38.2103V61.6186C2.10358 61.9117 2.19541 62.1953 2.3509 62.4445C2.50639 62.6937 2.72077 62.9009 2.97517 63.0478L14.1627 69.5478V84.1811C14.1605 84.4862 14.2363 84.7868 14.3829 85.0544C14.5294 85.322 14.7419 85.5478 15.0002 85.7103L37.3918 99.7353C37.6677 99.9077 37.9862 99.9998 38.3115 100.001C38.6368 100.003 38.9561 99.9135 39.2335 99.7436L51.4627 92.2853C51.7252 92.1241 51.9418 91.8979 52.0914 91.6286C52.241 91.3592 52.3187 91.0559 52.3168 90.7478V54.5478H48.7793V59.2894L25.3335 73.5436L27.1502 76.6144L48.7793 63.4644V89.7353L38.3335 96.1103L29.6168 90.6519L38.7835 85.1269L36.9752 82.0436L26.2252 88.5269L17.696 83.1853V68.9936L27.5877 63.0353L25.7835 59.9561L15.4668 66.1769L5.621 60.4561V51.0186L16.3918 44.5186L14.5835 41.4436L5.621 46.8478V39.2311L15.8918 33.1394L25.6502 39.4394V48.4853L18.3585 53.2769L20.2793 56.2769L27.2377 51.7144L33.6252 56.2478L35.6502 53.3103L29.1918 48.7269V39.2686L39.8335 32.5728C40.0896 32.4093 40.3002 32.1838 40.4459 31.9172C40.5916 31.6506 40.6676 31.3516 40.6668 31.0478V19.7019H37.1335V30.0478L27.2918 36.2519L17.696 30.0686V16.6811L25.5002 11.8353V23.1353H29.0418V9.64778L38.321 3.89361L48.7752 10.4061V44.3228H52.3168V9.40611H52.321Z" fill="url(#paint0_linear_867_14812)"/>
<path fill-rule="evenodd" clip-rule="evenodd" d="M78.9421 51.1385C79.3672 53.4378 80.6361 55.4953 82.5 56.9073C84.3638 58.3192 86.6881 58.9836 89.0166 58.7702C91.3451 58.5568 93.5098 57.4809 95.086 55.7537C96.6621 54.0265 97.5359 51.7726 97.5359 49.4343C97.5359 47.0961 96.6621 44.8422 95.086 43.115C93.5098 41.3878 91.3451 40.3119 89.0166 40.0985C86.6881 39.8851 84.3638 40.5495 82.5 41.9614C80.6361 43.3734 79.3672 45.4309 78.9421 47.7302H44.6963V51.1385H78.9463H78.9421ZM94.1296 49.4302C94.1507 50.2267 94.012 51.0194 93.7217 51.7615C93.4314 52.5036 92.9954 53.18 92.4395 53.7508C91.8835 54.3216 91.2189 54.7753 90.4847 55.0851C89.7506 55.3949 88.9619 55.5545 88.165 55.5545C87.3682 55.5545 86.5795 55.3949 85.8453 55.0851C85.1112 54.7753 84.4465 54.3216 83.8906 53.7508C83.3346 53.18 82.8987 52.5036 82.6084 51.7615C82.3181 51.0194 82.1794 50.2267 82.2005 49.4302C82.2416 47.8756 82.888 46.3984 84.0021 45.3134C85.1162 44.2284 86.6099 43.6212 88.165 43.6212C89.7202 43.6212 91.2139 44.2284 92.328 45.3134C93.4421 46.3984 94.0885 47.8756 94.1296 49.4302Z" fill="url(#paint1_linear_867_14812)"/>
<path fill-rule="evenodd" clip-rule="evenodd" d="M75.3791 61.3632H55.7749V57.9548H78.7874V75.0007H85.6082V92.0465H68.5624V75.0048H75.3791V61.3632ZM71.9707 88.6382V78.409H82.1957V88.6382H71.9707Z" fill="url(#paint2_linear_867_14812)"/>
<path fill-rule="evenodd" clip-rule="evenodd" d="M75.3791 37.5017H55.7749V40.9101H78.7874V23.8684H88.6832L77.0832 5.30591L65.4874 23.8601H75.3791V37.5017ZM77.0874 11.7392L71.6332 20.4601H82.5291L77.0874 11.7392Z" fill="url(#paint3_linear_867_14812)"/>
</g>
<defs>
<linearGradient id="paint0_linear_867_14812" x1="14.5835" y1="14.5853" x2="85.4168" y2="89.5853" gradientUnits="userSpaceOnUse">
<stop stop-color="#43E3E4"/>
<stop offset="0.25" stop-color="#4A9FFF"/>
<stop offset="0.5" stop-color="#AA4BFB"/>
<stop offset="0.75" stop-color="#FC5978"/>
<stop offset="1" stop-color="#FF6D32"/>
</linearGradient>
<linearGradient id="paint1_linear_867_14812" x1="14.5838" y1="14.5843" x2="85.4171" y2="89.5843" gradientUnits="userSpaceOnUse">
<stop stop-color="#43E3E4"/>
<stop offset="0.25" stop-color="#4A9FFF"/>
<stop offset="0.5" stop-color="#AA4BFB"/>
<stop offset="0.75" stop-color="#FC5978"/>
<stop offset="1" stop-color="#FF6D32"/>
</linearGradient>
<linearGradient id="paint2_linear_867_14812" x1="14.5832" y1="14.584" x2="85.4166" y2="89.584" gradientUnits="userSpaceOnUse">
<stop stop-color="#43E3E4"/>
<stop offset="0.25" stop-color="#4A9FFF"/>
<stop offset="0.5" stop-color="#AA4BFB"/>
<stop offset="0.75" stop-color="#FC5978"/>
<stop offset="1" stop-color="#FF6D32"/>
</linearGradient>
<linearGradient id="paint3_linear_867_14812" x1="14.5832" y1="14.5851" x2="85.4166" y2="89.5851" gradientUnits="userSpaceOnUse">
<stop stop-color="#43E3E4"/>
<stop offset="0.25" stop-color="#4A9FFF"/>
<stop offset="0.5" stop-color="#AA4BFB"/>
<stop offset="0.75" stop-color="#FC5978"/>
<stop offset="1" stop-color="#FF6D32"/>
</linearGradient>
<clipPath id="clip0_867_14812">
<rect width="100" height="100" fill="white"/>
</clipPath>
</defs>
</svg>
