<svg width="100" height="100" viewBox="0 0 100 100" fill="none" xmlns="http://www.w3.org/2000/svg">
<g clip-path="url(#clip0_1085_3289)">
<path d="M29.9446 0.108533L86.8172 10.757C87.4196 10.8695 87.9032 11.582 87.9032 12.3554V87.7226C87.9032 88.496 87.4196 89.2093 86.8172 89.3226L29.9446 99.971C27.0235 100.001 28.1696 99.5023 28.1696 98.5077V1.57181C28.1696 0.577283 27.4727 -0.260217 29.9446 0.109314V0.108533Z" fill="#346598"/>
<path d="M28.8625 0.0218238C27.7086 0.0593238 28.1688 0.764012 28.1688 1.57261V98.5078C28.1688 99.5023 27.0227 100.002 29.9438 99.971L36.4586 98.7507V1.32886L29.943 0.110105C29.4797 0.0397926 29.1282 0.0132301 28.8625 0.0218238Z" fill="#28527A"/>
<path d="M28.4672 0C22.6969 0.00625 16.9844 1.45313 13.1852 4.49531C12.3828 5.18281 12.0977 5.69844 12.0977 6.58906V93.4141C12.0977 94.3047 12.3672 94.6023 13.336 95.3984C16.9063 98.118 22.6719 100.008 28.468 100.001C29.4352 99.9938 29.9961 99.6617 29.9961 98.6633V1.33828C29.9961 0.339844 29.5438 -0.0140625 28.468 0.00078125L28.4672 0Z" fill="#1A344E"/>
<path d="M23.7234 39.8945L22.9258 39.9445V40.3148C22.9258 40.4851 22.894 40.6062 22.8305 40.6781C22.7742 40.7578 22.6791 40.8015 22.5453 40.8093L18.0508 41.0695C17.918 41.0773 17.8221 41.0458 17.7633 40.975C17.7034 40.9125 17.6734 40.7989 17.6734 40.6343V40.2757L16.9445 40.3226V43.2609L17.6734 43.2296V42.8703C17.6734 42.714 17.7034 42.5973 17.7633 42.5203C17.8226 42.4432 17.9153 42.4015 18.0414 42.3953L23.7234 42.1156V39.8945ZM23.5734 59.6578L22.5969 59.5992V61.0398L23.5734 61.107V59.6578ZM23.5633 43.689L22.7765 43.7203V43.9875C22.7765 44.2343 22.745 44.4098 22.682 44.514C22.6258 44.6182 22.5138 44.6942 22.3461 44.7421L16.9445 46.3984V47.4796L20.6398 48.8664L16.9445 50.3328V51.4031L22.3453 52.9656C22.514 53.0109 22.626 53.0854 22.6812 53.189C22.7453 53.2921 22.7771 53.4669 22.7765 53.7132V53.9945L23.5633 54.014V52.0515L18.7609 50.7593L22.4078 49.3882V48.3195L18.7609 47.0148L23.5633 45.6648V43.689ZM23.2961 64.5187L22.9359 63.1328L21.8008 63.039V62.05L21.0531 61.9937V62.9781L18.389 62.7601C17.8656 62.7169 17.4693 62.8567 17.2 63.1796C16.9318 63.501 16.7976 64.0015 16.7976 64.6812C16.7976 65.1156 16.8466 65.4973 16.9445 65.8265C17.043 66.1567 17.1838 66.4671 17.3672 66.7578L18.1211 66.8398V65.7125L17.6937 65.6687C17.5687 65.4666 17.5062 65.1846 17.5062 64.8226C17.5062 64.5434 17.5687 64.3395 17.6937 64.2109C17.8187 64.0906 18.0276 64.0434 18.3203 64.0695L21.0531 64.3164V66.1343L21.8008 66.2109V64.3835L23.2961 64.5187ZM21.957 16.8953C21.957 16.3708 21.8875 15.9375 21.7484 15.5953C21.6179 15.2616 21.3945 14.9723 21.1047 14.7617L21.8008 14.5304V12.907L21.0219 13.089V13.3546C21.0219 13.5223 20.9909 13.6473 20.9289 13.7296C20.8742 13.8093 20.7778 13.8648 20.6398 13.896L18.0414 14.4921C17.9086 14.5229 17.8127 14.5078 17.7539 14.4468C17.7002 14.3932 17.6734 14.2838 17.6734 14.1187V13.8109L16.9445 13.9812V16.7968L17.6734 16.6398V16.3187C17.6734 16.1625 17.7002 16.0453 17.7539 15.9671C17.8133 15.8968 17.9091 15.8468 18.0414 15.8171L20.0765 15.3679C20.4318 15.2898 20.7088 15.3677 20.9078 15.6015C21.1078 15.8359 21.2078 16.1677 21.2078 16.5968C21.2078 16.9927 21.1286 17.2955 20.9703 17.5054C20.8187 17.7138 20.5719 17.8526 20.2297 17.9218L16.9445 18.5937V20.7078L17.6734 20.5687V20.2234C17.6734 20.0588 17.7 19.9341 17.7531 19.8492C17.813 19.7716 17.9094 19.7195 18.0422 19.6929L20.2406 19.2632C21.3812 19.0398 21.957 18.2492 21.957 16.8953ZM21.957 23.5867C21.957 22.545 21.7211 21.8049 21.2492 21.3664C20.7883 20.9367 20.1445 20.8015 19.325 20.9539C18.5208 21.1033 17.8979 21.4742 17.4562 22.0664C17.0172 22.6539 16.7976 23.4471 16.7976 24.446C16.7976 25.445 17.0172 26.1651 17.4562 26.6062C17.8979 27.0515 18.5208 27.2153 19.325 27.0976C20.1463 26.9768 20.7877 26.621 21.2492 26.0304C21.7206 25.4434 21.9565 24.6289 21.957 23.5867ZM21.957 36.1671C21.943 35.2223 21.7138 34.5101 21.2695 34.0304C20.8216 33.5466 20.1565 33.3518 19.2742 33.446C18.4575 33.533 17.8383 33.8783 17.4164 34.482C17.0034 35.0893 16.7971 35.8596 16.7976 36.7929C16.7976 37.333 16.8466 37.796 16.9445 38.182C17.0362 38.5768 17.1805 38.9398 17.3773 39.271L18.0703 39.2226V38.0703L17.7133 38.0976C17.6233 37.9193 17.5601 37.7287 17.5258 37.532C17.4903 37.2718 17.4736 37.0094 17.4758 36.7468C17.4758 36.1963 17.6013 35.7445 17.8523 35.3914C18.1101 35.0445 18.5101 34.8442 19.0523 34.7906V39.3656L19.518 39.3343C20.2581 39.2833 20.8492 38.9984 21.2914 38.4796C21.7351 37.9562 21.957 37.2161 21.957 36.2593V36.1671ZM21.957 70.7179C21.943 69.77 21.7138 69.008 21.2695 68.432C20.8216 67.8507 20.1565 67.5112 19.2742 67.4132C18.4575 67.3226 17.8383 67.5335 17.4164 68.046C17.0034 68.5632 16.7971 69.2885 16.7976 70.2218C16.7976 70.7625 16.8466 71.2362 16.9445 71.6429C17.0362 72.0575 17.1805 72.4518 17.3773 72.8257L18.0703 72.9281V71.7765L17.7133 71.7257C17.6253 71.5324 17.5623 71.3287 17.5258 71.1195C17.4897 70.8554 17.473 70.5891 17.4758 70.3226C17.4758 69.7716 17.6013 69.3468 17.8523 69.0484C18.1101 68.7578 18.5101 68.645 19.0523 68.7101V73.2851L19.518 73.3546C20.2581 73.4645 20.8492 73.3083 21.2914 72.8859C21.7351 72.4588 21.957 71.7669 21.957 70.8101V70.7179ZM21.8008 26.6195L21.0844 26.725V26.9906C21.0844 27.2015 21.0635 27.3473 21.0219 27.4281C20.9795 27.5258 20.9024 27.6043 20.8055 27.6484L16.9445 29.8937V31.246L20.8055 32.5015C20.9148 32.5401 20.987 32.5953 21.0219 32.6671C21.0635 32.7468 21.0844 32.8875 21.0844 33.089V33.3679L21.8008 33.2921V31.5289L17.982 30.439L21.8008 28.3828V26.6195ZM21.8008 54.057L21.032 54.0382V54.3039C21.032 54.4638 21.0008 54.5763 20.9383 54.6414C20.8773 54.707 20.7815 54.7377 20.6508 54.7335L18.0414 54.6554C17.9086 54.6523 17.8125 54.6124 17.7531 54.5359C17.7005 54.4687 17.6739 54.3528 17.6734 54.1882V53.8789L16.9445 53.8609V56.6773L17.6734 56.7085V56.4C17.6734 56.2437 17.7 56.1333 17.7531 56.0687C17.813 56.0057 17.9091 55.9765 18.0414 55.9812L19.964 56.0546C20.3255 56.0687 20.5922 56.1796 20.764 56.3875C20.9427 56.5968 21.032 56.9414 21.032 57.421V58.1281L21.8008 58.1671V57.5843C21.8008 57.2203 21.7591 56.9013 21.6758 56.6273C21.5957 56.3671 21.4402 56.1365 21.2289 55.9648L21.8008 55.8078V54.057ZM21.8008 58.7515L21.0219 58.7085V59.0742C21.0219 59.2429 20.9909 59.3588 20.9289 59.4218C20.8737 59.4947 20.781 59.527 20.6508 59.5187L18.0508 59.3625C17.918 59.3546 17.8221 59.3119 17.7633 59.2343C17.7039 59.1645 17.6739 59.0473 17.6734 58.8828V58.525L16.9445 58.4843V61.4234L17.6734 61.4781V61.1187C17.6734 60.9625 17.7034 60.8494 17.7633 60.7796C17.8226 60.7088 17.9153 60.6781 18.0414 60.6875L21.8008 60.9453V58.7515ZM21.8008 74.6085L21.032 74.489V74.7539C21.032 74.9138 21.0008 75.0226 20.9383 75.0804C20.8773 75.1377 20.7815 75.1559 20.6508 75.1351L18.0414 74.7195C17.9086 74.6986 17.8125 74.6463 17.7531 74.5625C17.7005 74.4885 17.6739 74.369 17.6734 74.2039V73.8953L16.9445 73.7828V76.5984L17.6734 76.7242V76.4156C17.6734 76.2593 17.7 76.1526 17.7531 76.0953C17.813 76.039 17.9091 76.0223 18.0414 76.0453L19.964 76.3671C20.3255 76.4281 20.5922 76.5739 20.764 76.8046C20.9427 77.0369 21.032 77.3929 21.032 77.8726V78.5789L21.8008 78.7179V78.1343C21.8008 77.7708 21.7591 77.4466 21.6758 77.1617C21.5926 76.8863 21.4385 76.6376 21.2289 76.4406L21.8008 76.3585V74.6085ZM21.207 36.3117C21.207 37.382 20.7055 37.9554 19.7101 38.0312V34.7265C20.1726 34.6812 20.5377 34.7927 20.8055 35.0609C21.0737 35.3302 21.207 35.7471 21.207 36.3117ZM21.2078 70.6992C21.2078 71.7695 20.7062 72.2335 19.7109 72.0937V68.789C20.1734 68.8442 20.5385 69.0351 20.8062 69.3617C21.0745 69.6898 21.2078 70.1356 21.2078 70.6992ZM21.1781 23.7171C21.1781 24.3239 21.0234 24.7992 20.714 25.1429C20.412 25.4835 19.9495 25.7023 19.3265 25.7992C18.7151 25.8934 18.264 25.819 17.9734 25.5757C17.6818 25.3335 17.5362 24.9161 17.5367 24.3234C17.5367 23.7312 17.6823 23.2656 17.9734 22.9265C18.2651 22.5937 18.7161 22.3731 19.3265 22.2648C19.9495 22.1539 20.412 22.2145 20.714 22.4468C21.0234 22.6869 21.1781 23.1104 21.1781 23.7171Z" fill="#D4D4D4"/>
<path d="M43.3413 50.739L45.2554 50.7335C46.2627 50.7309 46.9655 50.5135 47.364 50.0812C47.8109 49.5973 48.0343 48.8182 48.0343 47.7437V27.032C48.0343 25.9575 47.8356 25.1851 47.4382 24.7148C47.0403 24.1888 46.3379 23.8729 45.3312 23.7671L43.7265 23.6V17.45L53.1984 18.671L53.6249 24.0046C55.2234 21.932 57.0077 20.5343 58.9702 19.8C60.9452 19.0328 63.2812 18.8351 65.9546 19.1929C72.5812 20.0789 75.7538 24.4664 75.7538 32.3906V48.0007C75.7538 48.9559 75.9101 49.6481 76.2226 50.0773C76.5721 50.4575 77.1319 50.6466 77.9023 50.6445L79.5007 50.6398V55.8492L69.296 56.1226V31.9468C69.2965 29.4916 68.859 27.6778 67.9835 26.5054C67.1007 25.2734 65.6562 24.5437 63.6296 24.3195C61.3898 24.0726 59.5124 24.6085 58.0163 25.9437C56.5007 27.2953 55.7359 29.332 55.7359 32.039V47.8156C55.7359 48.8572 55.8984 49.6122 56.2234 50.0804C56.5937 50.4955 57.214 50.7015 58.0843 50.6984L59.8499 50.6937V56.3742L43.3421 56.8164L43.3413 50.739Z" fill="#EDEDED"/>
</g>
<defs>
<clipPath id="clip0_1085_3289">
<rect width="100" height="100" fill="white"/>
</clipPath>
</defs>
</svg>
