<svg width="100" height="100" viewBox="0 0 100 100" fill="none" xmlns="http://www.w3.org/2000/svg">
<path d="M95.3444 50.0005C95.3444 32.3708 73.2288 18.0786 45.9468 18.0786C75.7999 18.0786 99.9999 32.3716 99.9999 50.0005C99.9999 67.6294 75.7999 81.9224 45.9468 81.9224C73.228 81.9224 95.3444 67.6302 95.3444 50.0005Z" fill="#1B27A0"/>
<path d="M3.71567 46.9783L1.55785 55.5463C1.49647 55.8044 1.37868 56.0458 1.21293 56.253C1.04719 56.4602 0.837616 56.6281 0.59926 56.7447C0.389885 56.8486 -0.0046461 56.876 4.13984e-05 57.1103C0.0031664 57.2705 0.260198 57.3447 0.420354 57.3447H9.94692C10.136 57.3447 10.4625 57.2971 10.468 57.1174C10.4719 56.9588 10.2485 56.8619 10.0946 56.8229C9.31879 56.6244 9.33364 55.9033 9.49379 55.2635L11.6672 46.6189C11.7899 46.1291 11.9516 45.5783 12.7672 45.5783H15.3321C15.9883 45.5783 16.3696 45.9346 16.1063 46.9783L13.9493 55.5463C13.8878 55.8045 13.7699 56.0459 13.604 56.2531C13.4381 56.4603 13.2284 56.6282 12.9899 56.7447C12.7805 56.8486 12.3868 56.876 12.3907 57.1103C12.3938 57.2705 12.6508 57.3447 12.8118 57.3447H22.3375C22.5274 57.3447 22.8532 57.2971 22.8586 57.1174C22.8633 56.9588 22.6391 56.8619 22.486 56.8229C21.7094 56.6244 21.8086 55.6002 21.9602 54.9814L23.8274 47.3416C24.5055 44.5674 23.6766 42.4588 20.3766 42.4588H13.0688L12.143 43.3549C12.1899 43.0635 12.2071 42.4588 11.4868 42.4588H4.0102C3.91567 42.4588 3.80317 42.5471 3.93051 42.7307C4.58285 43.6697 4.06176 45.6033 3.71567 46.9783ZM26.2711 42.4588C26.1774 42.4588 26.0641 42.5471 26.1915 42.7299C26.8446 43.6697 26.3219 45.6025 26.1493 46.29L22.6063 60.351C22.3079 61.5346 22.0704 62.7205 23.8071 62.7205H30.5165C30.8547 62.7205 31.1969 62.7525 31.2 62.5877C31.2032 62.3338 31.0164 62.2752 30.6704 62.0369C30.0469 61.6088 30.3235 60.7674 30.4704 60.1525L31.1555 57.3447H39.7649C42.6985 57.3447 44.2008 55.0682 45.1922 51.0127L46.0891 47.3408C46.7672 44.5674 45.9383 42.458 42.6391 42.458H35.3305L34.4055 43.3564C34.4524 43.0643 34.4688 42.458 33.7493 42.458L26.2711 42.4588ZM35.0282 45.5791H37.5946C38.2508 45.5791 38.6258 45.9338 38.3665 46.9775L36.8086 53.2697C36.6875 53.7588 36.5235 54.3088 35.7086 54.3088H33.1438C32.4875 54.3088 32.1094 53.9541 32.3688 52.9096L33.9297 46.6182C34.0508 46.1283 34.2133 45.5791 35.0282 45.5791ZM64.75 52.5611C63.979 55.2408 62.3446 57.3439 59.3696 57.3439H45.1313L45.2368 54.2736C45.2555 53.7424 45.5102 53.3103 46.1008 53.4205C46.711 53.5338 46.7899 54.2322 47.804 54.2322H55.6821C55.9883 54.2322 56.3805 54.1236 56.3805 53.633C56.3805 53.1424 55.9883 53.033 55.6821 53.0338L49.6258 53.0533C45.9399 53.065 46.6907 49.2236 47.2118 47.2432C47.9211 44.5463 49.618 42.4588 52.593 42.4588H66.0797L65.9743 45.5307C65.9563 46.0619 65.7008 46.4939 65.1102 46.3838C64.5008 46.2705 64.4219 45.5721 63.4071 45.5721H55.7094C55.4024 45.5721 55.011 45.6807 55.011 46.1713C55.011 46.6619 55.4024 46.7705 55.7094 46.7705H62.368C65.9493 46.7705 65.4266 50.2111 64.75 52.5611ZM84.8243 52.5611C84.0524 55.2408 82.418 57.3439 79.4438 57.3439H65.2055L65.311 54.2736C65.3289 53.7424 65.5844 53.3103 66.175 53.4205C66.7852 53.5338 66.8641 54.2322 67.8782 54.2322H75.7563C76.0625 54.2322 76.454 54.1236 76.454 53.633C76.454 53.1424 76.0625 53.033 75.7563 53.0338L69.7001 53.0533C66.0133 53.065 66.7649 49.2236 67.286 47.2432C67.9946 44.5463 69.6922 42.4588 72.6665 42.4588H86.154L86.0485 45.5307C86.0305 46.0619 85.775 46.4939 85.1844 46.3838C84.5743 46.2705 84.4961 45.5721 83.4813 45.5721H75.7829C75.4766 45.5721 75.0852 45.6807 75.0852 46.1713C75.0852 46.6619 75.4758 46.7705 75.7829 46.7705H82.4422C86.0235 46.7705 85.5008 50.2111 84.8243 52.5611Z" fill="url(#paint0_linear_1085_3298)"/>
<path d="M53.3875 44.2414C51.5687 44.4211 53.4031 46.5094 52.1172 47.1774C50.7836 47.8703 50.2789 46.7289 50.2312 45.9868C50.1625 44.9047 51.5125 43.6641 53.1234 43.6977C53.6601 43.7086 53.7828 44.2016 53.3875 44.2414ZM73.4609 44.2414C71.643 44.4211 73.4765 46.5094 72.1906 47.1774C70.857 47.8703 70.3523 46.7289 70.3055 45.9868C70.2367 44.9047 71.5867 43.6641 73.1976 43.6977C73.7344 43.7086 73.857 44.2016 73.4609 44.2414ZM9.10312 44.3618C8.39921 44.8758 7.73827 45.5071 7.48359 46.2633C7.09374 47.4211 6.47265 46.8969 6.28827 45.3172C6.1789 44.3852 6.63984 43.9993 7.51484 43.8407C8.62968 43.6391 9.74921 43.9344 9.10312 44.3618ZM31.7234 44.3618C31.0195 44.8758 30.3586 45.5071 30.1047 46.2633C29.7141 47.4211 29.0937 46.8969 28.9086 45.3172C28.7992 44.3852 29.2601 43.9993 30.1351 43.8407C31.25 43.6391 32.3695 43.9344 31.7234 44.3618ZM18.0305 44.3407C18.607 44.836 19.1187 45.4446 19.2148 46.1735C19.3609 47.2899 20.0633 46.7844 20.5547 45.2618C20.8437 44.3633 20.4766 43.9914 19.6641 43.8383C18.6297 43.6438 17.4922 43.9282 18.0305 44.3407ZM40.4117 44.3407C40.9883 44.836 41.5 45.4446 41.5961 46.1735C41.7422 47.2899 42.4445 46.7844 42.9359 45.2618C43.225 44.3633 42.8578 43.9914 42.0453 43.8383C41.0109 43.6438 39.8734 43.9282 40.4117 44.3407Z" fill="white" fill-opacity="0.4"/>
<path d="M98.4562 50.0005C98.4562 31.7286 73.2288 18.0786 45.9468 18.0786C75.7999 18.0786 99.9999 32.3716 99.9999 50.0005C99.9999 67.6294 75.7999 81.9224 45.9468 81.9224C73.228 81.9224 98.4562 68.2724 98.4562 50.0005Z" fill="url(#paint1_linear_1085_3298)"/>
<defs>
<linearGradient id="paint0_linear_1085_3298" x1="68.962" y1="42.3912" x2="68.962" y2="62.7014" gradientUnits="userSpaceOnUse">
<stop offset="0.136" stop-color="#1B2AA3"/>
<stop offset="0.407" stop-color="#005DD1"/>
<stop offset="0.72" stop-color="#0A37B2"/>
</linearGradient>
<linearGradient id="paint1_linear_1085_3298" x1="100.001" y1="18.0791" x2="100.001" y2="81.922" gradientUnits="userSpaceOnUse">
<stop offset="0.25" stop-color="white" stop-opacity="0"/>
<stop offset="0.5" stop-color="white" stop-opacity="0.8"/>
<stop offset="0.75" stop-color="white" stop-opacity="0"/>
</linearGradient>
</defs>
</svg>
