<svg width="100" height="100" viewBox="0 0 100 100" fill="none" xmlns="http://www.w3.org/2000/svg">
<path d="M7.27554 1.95922C4.65366 2.29516 2.33804 3.84828 1.05835 6.13422C0.356787 7.38813 0.0333496 8.64828 0.0310059 10.1319C0.0310059 11.5295 0.263037 12.567 0.861475 13.7936C1.97163 16.0889 4.07788 17.7061 6.69585 18.2702C7.36773 18.4139 9.00054 18.4264 9.7021 18.2952C12.7052 17.7303 15.113 15.6584 16.0833 12.8108C16.413 11.8561 16.4802 11.3858 16.4802 10.1561C16.4802 8.96 16.4466 8.685 16.1537 7.73891C15.3232 5.01078 13.1169 2.88734 10.3677 2.1725C9.44898 1.935 8.16069 1.84594 7.27632 1.95922H7.27554ZM44.1404 19.9459C33.2701 20.8748 24.1794 28.6131 21.5638 39.16C21.2341 40.4788 21.1115 41.2045 20.8888 43.0905C20.8099 43.7655 20.7701 73.0045 20.8498 74.3163C20.9654 76.3577 21.2584 78.1006 21.8013 79.9803C24.2279 88.3944 30.8834 95.035 39.2755 97.4123C40.7044 97.8116 42.2177 98.1014 43.8224 98.2756C44.6107 98.3577 45.4404 98.3639 60.0099 98.3639C76.2873 98.3639 75.6896 98.3733 77.3927 98.1381C81.6311 97.5476 85.6514 95.8954 89.0802 93.335C90.4451 92.3155 92.1443 90.7319 93.1732 89.5264C94.1584 88.3631 95.2818 86.7733 96.0201 85.4733C97.5154 82.8522 98.617 79.6475 99.0412 76.6842C99.3005 74.9084 99.2826 76.0405 99.3005 59.6678C99.3162 48.9991 99.3068 44.2694 99.2669 43.7006C98.9013 38.2139 96.9177 33.2522 93.3685 28.9553C92.7732 28.2319 90.9607 26.4217 90.2341 25.8209C86.5966 22.8084 82.5255 20.9381 77.9779 20.1959C76.0404 19.8788 77.3771 19.9038 60.3513 19.8913C47.8998 19.8881 44.7505 19.8975 44.1404 19.9459ZM41.8943 31.5827C45.6443 32.2506 48.7146 34.8717 49.9263 38.4366C50.6896 40.6889 50.6685 43.0663 49.8716 45.2881C49.3404 46.7678 48.3091 48.3303 47.1919 49.3405C45.1966 51.1623 42.8162 52.0998 40.1857 52.0998C37.3474 52.0998 34.8474 51.0686 32.8552 49.078C31.1763 47.3967 30.1693 45.3436 29.8826 42.9928C29.8029 42.3584 29.8154 41.0397 29.9068 40.3811C30.5505 35.6873 34.2584 32.0741 39.0138 31.4936C39.6326 31.4209 41.2537 31.4702 41.8943 31.5827ZM75.1466 57.0545C78.8146 57.5248 82.0216 59.0717 84.6623 61.6444C86.6388 63.5733 87.988 65.728 88.8419 68.3342C89.3951 70.0006 89.5998 71.2545 89.6326 73.1194C89.6662 75.0178 89.5076 76.342 89.031 78.0178C88.0037 81.6733 85.5959 84.9998 82.4216 87.1506C78.3201 89.9342 73.3216 90.7217 68.4873 89.3483C66.656 88.8327 64.4716 87.71 62.9388 86.5045C58.9044 83.3178 56.5857 78.5577 56.5919 73.4459C56.5974 67.7569 59.5396 62.4686 64.4044 59.4288C66.5919 58.0561 69.0669 57.235 71.7771 56.9819C72.4451 56.917 74.4295 56.9631 75.1466 57.0545Z" fill="#004880"/>
</svg>
