<svg width="100" height="100" viewBox="0 0 100 100" fill="none" xmlns="http://www.w3.org/2000/svg">
<path d="M42.9784 20.3172L26.2753 11.8883L7.93311 21.0391L25.0964 29.6539L42.9784 20.3172ZM50.6409 24.1852L68.1573 33.0312L49.9862 42.1523L32.7987 33.525L50.6409 24.1852ZM74.0378 12.0125L92.0354 21.0375L75.9378 29.1187L58.387 20.2641L74.0378 12.0125ZM66.2917 8.125L50.0886 0L34.0612 8L50.7581 16.4172L66.2917 8.125ZM53.6253 77.8922V100L73.2519 90.2055L73.2339 68.0883L53.6253 77.8922ZM73.2245 60.3672L73.2026 38.4828L53.6245 48.2156V70.1094L73.2245 60.3672ZM96.7854 56.2688V78.4641L80.0433 86.8156L80.03 64.7227L96.7854 56.2688ZM96.7854 48.507V26.7578L80.012 35.0961L80.0245 57.0242L96.7854 48.507Z" fill="#4DABCF"/>
<path d="M46.6956 48.2151L33.4784 41.5651V70.2885C33.4784 70.2885 17.3065 35.8877 15.8127 32.7963C15.6206 32.3956 14.826 31.9604 14.6237 31.8518C11.7088 30.3307 3.21509 26.0315 3.21509 26.0315V76.7948L14.9651 83.094V56.5479C14.9651 56.5479 30.9635 87.287 31.1284 87.626C31.2956 87.9612 32.8917 91.1963 34.612 92.3354C36.8932 93.8502 46.6885 99.7393 46.6885 99.7393L46.6956 48.2151Z" fill="#4C75CF"/>
</svg>
