<svg width="100" height="100" viewBox="0 0 100 100" fill="none" xmlns="http://www.w3.org/2000/svg">
<path d="M56.1008 83.6667H93.2752C94.4558 83.6668 95.6158 83.3588 96.6383 82.7737C97.6608 82.1885 98.5098 81.3468 99.1 80.3332C99.6902 79.3197 100 78.1698 100 76.9997C99.9995 75.8295 99.688 74.68 99.097 73.667L74.1318 30.8098C73.5418 29.7965 72.693 28.955 71.6707 28.3699C70.6483 27.7848 69.4887 27.4768 68.3082 27.4768C67.1277 27.4768 65.968 27.7848 64.9457 28.3699C63.9233 28.955 63.0745 29.7965 62.4843 30.8098L56.1008 41.7755L43.6202 20.3325C43.0295 19.3193 42.1803 18.4779 41.1577 17.8929C40.1352 17.3079 38.9753 17 37.7945 17C36.6138 17 35.454 17.3079 34.4313 17.8929C33.4088 18.4779 32.5595 19.3193 31.969 20.3325L0.902951 73.667C0.311951 74.68 0.000500603 75.8295 6.03104e-07 76.9997C-0.000499397 78.1698 0.309901 79.3197 0.900017 80.3332C1.49013 81.3468 2.33915 82.1885 3.36167 82.7737C4.38418 83.3588 5.54415 83.6668 6.72488 83.6667H30.0598C39.3053 83.6667 46.1235 79.6417 50.8152 71.789L62.2055 52.2383L68.3063 41.7755L86.6163 73.2037H62.2055L56.1008 83.6667ZM29.6793 73.193L13.3946 73.1893L37.8055 31.2874L49.9855 52.2383L41.8305 66.2417C38.7148 71.3367 35.1752 73.193 29.6793 73.193Z" fill="#00DC82"/>
</svg>
