<svg width="100" height="100" viewBox="0 0 100 100" fill="none" xmlns="http://www.w3.org/2000/svg">
<g clip-path="url(#clip0_867_14747)">
<path d="M42.55 37.4V31.75C43.0792 31.7084 43.6167 31.6792 44.1667 31.6625C59.15 31.175 68.9875 44.9292 68.9875 44.9292C68.9875 44.9292 58.3709 60.125 46.9792 60.125C45.4724 60.1319 43.9751 59.8854 42.55 59.3959V42.275C48.3834 43 49.5542 45.6584 53.0625 51.6834L60.8667 44.9042C59.0255 42.5928 56.7049 40.7082 54.0649 39.3803C51.425 38.0524 48.5284 37.3128 45.575 37.2125C44.5599 37.2175 43.5459 37.2787 42.5375 37.3959M42.5375 18.7458V27.1834C43.0792 27.1417 43.6167 27.1042 44.1542 27.0834C64.9959 26.3583 78.575 44.6917 78.575 44.6917C78.575 44.6917 62.9792 64.2334 46.7292 64.2334C45.3209 64.2334 43.9167 64.1042 42.5334 63.85V69.0583C43.6917 69.2167 44.8584 69.2959 46.025 69.2959C61.1459 69.2959 72.0792 61.3375 82.6667 51.925C84.4209 53.3708 91.6084 56.8959 93.0875 58.4417C83.0209 67.1209 59.5542 74.1208 46.2542 74.1208C44.9709 74.1208 43.7417 74.0375 42.5292 73.9208V81.25H100V18.75H42.5417L42.5375 18.7458ZM42.5375 59.3959V63.8459C28.5542 61.2792 24.675 46.3042 24.675 46.3042C29.4324 41.3755 35.7384 38.2305 42.5375 37.3959V42.2792H42.5167C40.5217 42.2602 38.5481 42.6918 36.7431 43.5416C34.9381 44.3915 33.3481 45.6377 32.0917 47.1875C32.0917 47.1875 34.6542 56.6667 42.5375 59.3959ZM17.7 45.65C23.6834 37.5875 32.7167 32.5333 42.5375 31.75V27.1792C24.2084 28.6958 8.33337 44.6792 8.33337 44.6792C8.33337 44.6792 17.325 71.4584 42.5417 73.9084V69.05C24.0417 66.6667 17.7084 45.6584 17.7084 45.6584H17.7V45.65Z" fill="#74B71B"/>
</g>
<defs>
<clipPath id="clip0_867_14747">
<rect width="100" height="100" fill="white"/>
</clipPath>
</defs>
</svg>
