<svg width="100" height="100" viewBox="0 0 100 100" fill="none" xmlns="http://www.w3.org/2000/svg">
<g clip-path="url(#clip0_1085_3314)">
<path d="M46.4143 0.14753C68.5128 -1.38763 83.1667 9.43034 91.5456 22.6069C95.7448 29.2147 99.8698 39.2452 99.887 49.5577C99.9081 60.7608 96.2776 70.4585 91.5456 77.5772C86.6792 84.8921 80.3886 90.9366 72.5104 94.9022C59.3362 101.534 40.93 101.716 28.8729 95.3319C15.4479 88.2194 5.12215 78.0678 1.28309 60.4647C-0.255971 53.4217 -0.431752 44.3178 1.70887 36.5085C2.21356 34.678 3.12684 32.7475 3.84793 30.9483C7.32372 22.2913 13.237 14.7632 20.5315 9.55691C23.4643 7.46628 27.0222 5.38503 30.1565 3.99753C34.062 2.2694 40.6354 0.545967 46.4143 0.14753Z" fill="white"/>
<path d="M50.4688 4.27296e-05C49.116 0.00398008 47.7636 0.0529656 46.4141 0.146918C40.6344 0.545355 34.0625 2.26879 30.1563 3.9977C27.0219 5.38364 23.4641 7.46645 20.5305 9.55629C13.2367 14.7625 7.32347 22.2907 3.84768 30.9469C3.12659 32.7469 2.21253 34.6774 1.70862 36.5079C-0.434347 44.3172 -0.256222 53.4211 1.28284 60.4641C5.1219 78.0672 15.4477 88.2188 28.8766 95.3313C40.9289 101.716 59.336 101.534 72.5102 94.9016C80.3875 90.9352 86.6789 84.8914 91.5453 77.5766C96.2774 70.4579 99.9078 60.7586 99.8867 49.5571C99.8688 39.2446 95.7461 29.2102 91.5453 22.6063C83.6907 10.25 70.3227 -0.024176 50.4688 4.27296e-05ZM50.711 2.40004C65.5492 2.38286 77.1391 9.40239 84.4883 17.4719C86.5633 19.7532 88.6367 22.0157 90.0477 24.3172C92.6618 28.575 94.3336 33.6063 95.611 38.4344C100.388 56.4946 93.2078 73.6235 84.2719 82.9235C77.5961 89.8743 69.3992 94.5758 58.6047 96.6118C46.4586 98.9063 34.8063 95.9172 26.5196 91.2649C18.0078 86.4844 11.9774 79.6922 7.48518 70.9454C3.15393 62.511 1.13831 49.0938 4.27659 38.004C7.0969 28.0391 11.911 19.7665 19.4633 13.836C24.7 9.72504 30.7211 5.90942 38.9274 3.78364C41.8742 3.01801 44.5977 2.69926 47.6985 2.50004C48.701 2.43389 49.7055 2.40054 50.7102 2.40004H50.711ZM49.5664 4.49848C48.5851 4.50841 47.6044 4.55532 46.6266 4.63911C33.9039 5.72426 24.9688 11.4313 18.1782 18.1149C13.4219 22.7946 9.8469 28.5274 7.4844 35.2266C4.01565 45.0579 4.22893 56.6625 8.12581 66.6688C11.4508 75.1993 16.8938 82.0844 24.5961 87.4141C31.8352 92.4282 42.2266 96.3157 53.9 95.3305C68.1141 94.1282 78.5157 86.8344 85.3422 78.4305C87.0875 76.2813 88.8242 73.8524 89.8344 70.9446C90.8235 68.8524 91.3071 67.4282 91.7571 66.6688C93.6524 62.4204 94.6594 57.936 94.968 52.9766C95.9164 37.7258 90.0469 25.8133 81.9188 17.6852C77.9867 13.7524 73.1508 10.2086 67.375 8.05864C62.1344 6.11098 56.2969 4.43207 49.5657 4.4977L49.5664 4.49848Z" fill="black"/>
<path d="M50.2327 3.82886L49.9952 4.06714L50.4522 4.52339C50.6163 4.52339 50.7757 4.53042 50.9366 4.53354L50.2327 3.82886ZM46.7741 7.56558L46.7569 11.6007C46.7514 13.846 48.028 14.8906 50.071 14.8976C52.1139 14.9062 53.4436 13.8953 53.4538 11.5726L53.4679 7.59058L51.4444 7.58276L51.4311 11.6281C51.4233 12.6343 50.9038 13.1046 50.0983 13.1015C49.2983 13.0984 48.778 12.6031 48.7796 11.5664L48.7968 7.57261L46.7741 7.56558ZM59.2194 8.59683L58.7116 10.2648L60.7718 10.8929L59.185 16.0992L61.0913 16.6796L62.6772 11.4765L64.7421 12.1054L65.2499 10.4359L59.2186 8.59604L59.2194 8.59683ZM38.3436 9.21948L36.5132 9.80776L35.8124 17.6335L37.8077 16.9945L37.9046 15.614L40.5421 14.7664L41.4343 15.8304L43.4678 15.1781L38.3436 9.21948ZM38.1343 11.7648L39.521 13.4679L37.9866 13.9585L38.1343 11.7648ZM70.6343 12.7648L66.6553 18.7468L68.3092 19.8515L69.8249 17.575L71.9538 18.9937L70.4382 21.2671L72.0975 22.3695L76.0772 16.3875L74.4225 15.2843L72.9319 17.5242L70.803 16.1054L72.2936 13.8664L70.6343 12.7648ZM27.853 14.625C27.121 14.6632 26.3788 14.9218 25.7053 15.4078C23.9163 16.7179 23.56 19.0476 24.7757 20.714L24.7889 20.732C26.0046 22.3992 28.3046 22.764 30.0952 21.4601C31.8874 20.15 32.2444 17.8195 31.0288 16.1531L31.0147 16.1359C30.6573 15.6383 30.1801 15.2389 29.6273 14.9748C29.0744 14.7107 28.4647 14.5904 27.853 14.625ZM27.8116 16.5171C28.4155 16.5171 29.0022 16.8265 29.3874 17.3531L29.3983 17.3656C30.0093 18.2031 29.9405 19.3468 29.0546 19.996C28.1749 20.6375 27.035 20.35 26.4241 19.5125L26.4132 19.4945C25.8022 18.657 25.871 17.5132 26.7499 16.8718C27.057 16.6436 27.429 16.5193 27.8116 16.5171ZM49.6968 18.3273L49.9991 18.6296L46.5968 22.0359L43.7725 19.2132L43.4053 19.3164L46.3593 22.2726L42.9561 25.6757L39.5483 22.2742L42.121 19.7015L41.4202 19.9281L39.3155 22.0367L38.2921 21.0132C38.178 21.057 38.0725 21.1054 37.9585 21.1539L39.078 22.2726L35.6757 25.6757L33.4397 23.4437C33.3423 23.502 33.2449 23.5617 33.1475 23.6226L35.4389 25.9132L32.0358 29.3164L29.3085 26.5929C29.2257 26.6648 29.1499 26.7476 29.0686 26.8234L31.7983 29.5539L28.3921 32.9562L25.778 30.3437C25.7093 30.4296 25.6335 30.5148 25.5647 30.6015L28.1585 33.1945L24.7507 36.5968L22.8483 34.6945C22.7936 34.7968 22.7428 34.9007 22.6874 35.0039L24.5178 36.8343L21.1116 40.2406L20.5647 39.6914C20.5205 39.808 20.4783 39.9223 20.4382 40.0343L20.8741 40.4734L20.0194 41.3328C19.9608 41.5382 19.91 41.7523 19.8577 41.9648L21.1116 40.7109L24.5178 44.114L21.1116 47.5203L19.2218 45.6328C19.2046 45.7734 19.1983 45.921 19.1843 46.0648L20.8741 47.7546L18.9819 49.6499C18.9819 49.8117 18.9718 49.9695 18.9718 50.1312L21.1116 47.9906L24.5178 51.3976L21.1116 54.8007L19.0507 52.7414C19.0608 52.9023 19.0577 53.0664 19.0718 53.232L20.8741 55.0382L19.4319 56.4804C19.4522 56.6179 19.4796 56.7445 19.5046 56.882L21.1116 55.271L24.5178 58.6773L21.1116 62.082L20.7405 61.7148C20.8608 62.0062 20.9163 62.1578 21.0936 62.5726L21.1116 62.5546L24.5178 65.9593L23.4397 67.0374C23.5007 67.1335 23.56 67.2296 23.6249 67.3226L24.7507 66.1953L28.1569 69.5984L26.6335 71.1242C26.7085 71.2054 26.7882 71.2851 26.8632 71.364L28.3913 69.8359L31.7975 73.2421L30.4358 74.6023C30.5233 74.671 30.6202 74.7328 30.7093 74.8015L32.0319 73.4765L35.4382 76.8828L34.8546 77.4671C34.9577 77.5218 35.0608 77.5726 35.1632 77.6281L35.671 77.1164L37.1452 78.5898C37.4202 78.7101 37.6944 78.8328 37.9757 78.95L35.9093 76.882L39.3155 73.4757L42.7186 76.882L39.9296 79.671C40.0468 79.7085 40.1639 79.7539 40.2811 79.7914L42.9553 77.1164L46.3593 80.5226L45.8233 81.0593C45.96 81.0781 46.0913 81.1062 46.228 81.1242L46.5952 80.757L47.0561 81.2203C47.2285 81.2374 47.4014 81.252 47.5749 81.264L46.8296 80.5226L50.2358 77.1164L53.6382 80.5226L52.953 81.2132C53.1311 81.1953 53.3061 81.1718 53.4811 81.1507L53.8764 80.7601L54.1921 81.0726C54.329 81.0544 54.4665 81.0348 54.6046 81.014L54.1124 80.5226L57.5163 77.1164L60.085 79.6851L60.435 79.5648L57.7538 76.8828L61.1561 73.4757L64.5632 76.8828L62.846 78.5968C63.1486 78.4593 63.4473 78.3171 63.7421 78.1703L64.7968 77.1156L65.1264 77.446C65.2264 77.3875 65.3327 77.3359 65.4319 77.282L65.0335 76.882L68.4405 73.4757L69.478 74.5164L69.7343 74.3039L68.6733 73.2429L72.0796 69.8367L73.2202 70.9765C73.2957 70.8932 73.3691 70.8106 73.4405 70.7289L72.3139 69.5984L75.7202 66.196L76.4108 66.8859C76.4694 66.7859 76.5202 66.6828 76.5796 66.5843L75.9577 65.9593L77.7053 64.2101L77.7288 64.1554C77.8944 63.864 78.0319 63.5578 78.1835 63.2593L75.721 65.7249L72.3147 62.3187L75.721 58.9156L78.8178 62.0093C78.8658 61.9015 78.9126 61.7919 78.9585 61.6804L75.9585 58.6781L79.36 55.2757L80.6725 56.5874C80.7038 56.4554 80.728 56.3296 80.7585 56.1992L79.5975 55.0382L81.2538 53.3796C81.2772 53.2007 81.3046 53.0187 81.3249 52.8367L79.3608 54.8007L75.9577 51.3984L79.36 47.9914L81.5007 50.1343C81.503 49.9796 81.521 49.832 81.521 49.6812L79.5975 47.7585L81.3046 46.0476L81.2499 45.6328L79.3608 47.521L75.9577 44.1179L79.36 40.7117L80.5249 41.8757C80.463 41.6514 80.3979 41.4279 80.3296 41.2054L79.5975 40.4734L79.9686 40.1062C79.9272 39.9898 79.8827 39.8765 79.8382 39.7601L79.3616 40.2406L75.9577 36.8343L77.6921 35.0999L77.528 34.7906L75.721 36.5999L72.3178 33.1937L74.8452 30.6664L74.6077 30.4289L72.0804 32.957L68.6741 29.5539L71.2116 27.0156L70.9772 26.7789L68.4405 29.3164L65.0343 25.9132L67.4139 23.5335C67.3171 23.4718 67.228 23.4109 67.1288 23.3484L64.8007 25.6765L61.3936 22.2742L62.6155 21.0507L62.2866 20.907L61.1569 22.0367L58.7741 19.6531C58.5569 19.5882 58.3374 19.5296 58.1202 19.471L60.9233 22.2726L57.5171 25.6757L54.1132 22.2742L57.1663 19.2203L56.7811 19.1312L53.8757 22.0367L50.4733 18.6304L50.7725 18.3312C50.6163 18.3273 50.46 18.3312 50.3014 18.3312L50.2366 18.396L50.171 18.3312C50.0132 18.3281 49.8551 18.3268 49.6968 18.3273ZM50.2358 18.8664L53.6429 22.2726L50.2366 25.6757L46.8335 22.2742L50.2358 18.8664ZM39.3155 22.5062L42.7186 25.9132L39.3155 29.3164L35.9093 25.9132L39.3155 22.5062ZM46.596 22.5062L49.9991 25.9132L46.5968 29.3164L43.1928 25.9132L46.596 22.5062ZM53.8757 22.5062L57.2819 25.9132L53.8757 29.3164L50.4733 25.9132L53.8757 22.5062ZM61.16 22.5062L64.5624 25.9132L61.16 29.3164L57.7538 25.9132L61.16 22.5062ZM35.6757 26.1468L39.078 29.5539L35.6757 32.9562L32.2686 29.5539L35.6757 26.1468ZM42.9561 26.1468L46.3585 29.5539L45.2491 30.6632C45.5074 30.5309 45.7762 30.4203 46.0553 30.3312L46.596 29.7906L46.9428 30.1359C47.0874 30.1156 47.2335 30.1093 47.3803 30.1007L46.8335 29.5539L50.235 26.1476L53.6429 29.5539L53.0952 30.0992C53.2405 30.107 53.385 30.1164 53.5296 30.1359L53.8757 29.7867L54.421 30.332C54.6934 30.4169 54.9564 30.5231 55.21 30.6507L54.1132 29.5539L57.5163 26.1476L60.9225 29.5539L57.5319 32.9414C57.6559 33.183 57.7606 33.4354 57.846 33.6984L57.8772 33.7914L60.9233 36.8335L59.3952 38.3632L59.5124 38.7148L61.1561 37.071L64.5632 40.4734L61.2093 43.8273L61.4983 44.6929L64.5632 47.7585L63.0264 49.2914L63.1428 49.6468L64.796 47.9906L68.2014 51.3976L64.8413 54.7554L65.1194 55.5945L68.203 58.6781L66.6577 60.2234L66.7749 60.5781L68.4405 58.9156L71.8428 62.3187L68.4405 65.7249L68.3288 65.6132C68.3553 65.8421 68.3468 66.0664 68.3444 66.2921L68.4405 66.1953L71.8428 69.5984L68.4405 73.0046L66.0421 70.607C65.9483 70.6703 65.8663 70.7476 65.7686 70.8039L68.2038 73.239L64.7968 76.6453L61.3944 73.2429L63.1124 71.5242L63.0936 71.5257C62.9514 71.5257 62.8124 71.5039 62.6718 71.4929L61.1561 73.0054L57.7538 69.5992L58.5093 68.8437C58.4518 68.7423 58.3976 68.6392 58.3468 68.5343L57.5163 69.3656L54.1132 65.9593L56.621 63.4499L56.5054 63.0929L53.8764 65.7257L50.4725 62.3187L51.5718 61.2195H51.0983L50.2374 62.0812L49.3749 61.2195H48.8999L49.9999 62.3195L46.5975 65.7257L44.3678 63.4976L44.2561 63.8562L46.36 65.9601L42.9569 69.3664L42.4468 68.8562C42.3926 68.9577 42.3353 69.0575 42.2749 69.1554L42.7202 69.5992L39.3163 73.0054L37.7968 71.4898C37.6094 71.4702 37.4232 71.441 37.2389 71.4023L39.0788 73.2398L35.6725 76.646L32.2702 73.2398L34.9514 70.5585C34.8593 70.4945 34.7608 70.4367 34.6741 70.3671L32.0335 73.0062L28.6296 69.5999L32.0319 66.1968L32.7093 66.871C32.6889 66.7078 32.6905 66.5414 32.6858 66.375L32.2694 65.9601L32.7225 65.5062C32.7499 65.3097 32.788 65.1149 32.8366 64.9226L32.0327 65.7257L28.6296 62.3195L32.0319 58.9164L34.06 60.9406L34.1741 60.5828L32.2694 58.6789L35.6757 55.2726L35.8085 55.4039L35.9202 55.0499L35.91 55.039L35.9303 55.0179L36.1483 54.3265L35.6741 54.8015L32.2678 51.3992L35.6741 47.9921L37.5546 49.8734L37.6678 49.5132L35.91 47.7593L39.2889 44.3796L39.5077 43.6914L39.3163 43.8812L35.91 40.4749L39.3163 37.0718L41.0483 38.8039L41.1624 38.4468L39.5507 36.8351L42.6507 33.7367C42.7444 33.4476 42.8655 33.1742 43.0022 32.9101L42.9561 32.9578L39.5499 29.5546L42.9561 26.1468ZM64.7999 26.1468L68.203 29.5554L64.8007 32.9578L61.3936 29.5554L64.7999 26.1468ZM32.0343 29.7874L35.4389 33.1937L32.0358 36.5968L28.6288 33.1945L32.035 29.7867L32.0343 29.7874ZM39.3155 29.7874L42.7186 33.1937L39.3155 36.5968L35.9093 33.1945L39.3155 29.7874ZM61.16 29.7906L64.5624 33.1937L61.1561 36.5999L57.7538 33.1937L61.16 29.7906ZM68.4397 29.7906L71.8436 33.1937L68.4405 36.5999L65.0343 33.1937L68.4405 29.7914L68.4397 29.7906ZM47.653 31.0789C45.7921 31.0789 44.1569 32.3187 43.5944 34.0664L33.8436 64.9539C33.1678 67.2109 34.4077 69.6343 36.66 70.3117C37.0886 70.449 37.5358 70.5193 37.9858 70.5203C38.8935 70.5188 39.7775 70.2304 40.5115 69.6964C41.2454 69.1624 41.7918 68.41 42.0725 67.5468L44.3288 60.2187H56.6171L59.0374 67.6054C59.6249 69.4078 61.2936 70.5273 63.0936 70.5273C63.5541 70.526 64.0117 70.4532 64.4499 70.3117C66.7022 69.5765 67.8874 67.1515 67.1561 64.8992L56.8983 34.0085C56.335 32.2648 54.6413 31.0796 52.8397 31.0796H47.6522L47.653 31.0789ZM28.3913 33.432L31.7975 36.8343L28.3913 40.2414L24.9882 36.8351L28.3913 33.432ZM35.6749 33.432L39.078 36.8343L35.6757 40.2414L32.2686 36.8351L35.6749 33.432ZM64.8007 33.432L68.203 36.8343L64.8007 40.2414L61.3936 36.8351L64.8007 33.432ZM72.0804 33.432L75.4835 36.8343L72.0811 40.2414L68.6733 36.8351L72.0804 33.432ZM24.7499 37.071L28.1561 40.4742L24.7499 43.8804L21.3475 40.4742L24.7499 37.071ZM32.0311 37.071L35.4374 40.4742L32.0311 43.8804L28.628 40.4742L32.0311 37.071ZM68.4397 37.071L71.8421 40.4742L68.4397 43.8804L65.0335 40.4742L68.4397 37.071ZM75.7202 37.071L79.1233 40.4742L75.7202 43.8804L72.3132 40.4742L75.7194 37.0718L75.7202 37.071ZM28.3889 40.7117L31.7952 44.1148L28.3889 47.521L24.9874 44.1156L28.3897 40.7124L28.3889 40.7117ZM35.6725 40.7117L39.0757 44.1148L35.6741 47.521L32.2655 44.1148L35.6725 40.7117ZM64.7991 40.7117L68.2014 44.1148L64.7936 47.521L61.3928 44.1187L64.7991 40.7117ZM72.0788 40.7117L75.4803 44.1179L72.0796 47.5218L68.671 44.1156L72.0772 40.7117H72.0788ZM24.7499 44.3523L28.1561 47.7562L24.7499 51.1624L21.3475 47.7562L24.7499 44.3523ZM32.0319 44.3523L35.4382 47.7562L32.0319 51.1624L28.6288 47.7601L32.0319 44.3523ZM68.4405 44.3523L71.8421 47.7601L68.4397 51.1617L65.0335 47.7601L68.4405 44.3523ZM75.7194 44.3523L79.1218 47.7601L75.7194 51.1617L72.3124 47.7601L75.7186 44.3531L75.7194 44.3523ZM28.3889 47.9929L31.7952 51.4L28.3889 54.8031L24.9858 51.4015L28.3889 47.9929ZM72.0772 47.9929L75.4811 51.4L72.0796 54.8031L68.671 51.4015L72.0772 47.9929ZM95.0374 48.6351C95.0405 48.7984 95.0428 48.9554 95.0428 49.1171L95.6968 49.7695L95.9343 49.532L95.0374 48.6351ZM5.04363 49.0242L3.02019 51.0539L3.25066 51.2867L5.04519 49.4976C5.04519 49.3398 5.0405 49.1812 5.04519 49.0242H5.04363ZM3.23894 51.4929L2.99988 51.7312L5.21394 53.9375C5.19649 53.7663 5.18086 53.5949 5.16707 53.4234L3.23894 51.4929ZM24.7491 51.6335L28.1553 55.0406L24.7491 58.4429L21.3468 55.0406L24.7491 51.6335ZM32.0303 51.6335L35.4374 55.0406L32.0311 58.4421L28.628 55.0398L32.0303 51.6335ZM68.4397 51.6335L71.8413 55.0406L68.4389 58.4429L65.0327 55.0406L68.4397 51.6335ZM75.7186 51.6335L79.121 55.0406L75.7186 58.4429L72.3116 55.0406L75.7178 51.6343L75.7186 51.6335ZM96.3866 52.3421L94.8975 53.8273L94.8585 54.3429L96.6186 52.5781L96.3866 52.3406V52.3421ZM28.3905 55.2718L31.7968 58.6781L28.3905 62.0828L24.9874 58.6789L28.3905 55.2718ZM72.0796 55.2757L75.4827 58.6789L72.0804 62.0828L68.6725 58.6789L72.0796 55.2757ZM24.7514 58.9164L28.1577 62.3195L24.7514 65.7257L21.3483 62.3195L24.7514 58.9164ZM28.3921 62.5554L31.7983 65.9601L28.3921 69.3664L24.9882 65.9601L28.3913 62.557L28.3921 62.5554ZM50.2358 62.5554L53.6382 65.9601L50.2366 69.3664L46.8296 65.9601L50.2358 62.557V62.5554ZM72.0796 62.5554L75.4835 65.9601L72.0811 69.3664L68.6733 65.9601L72.0796 62.557V62.5554ZM46.5952 66.196L49.9999 69.5992L46.5975 73.0054L43.1897 69.5992L46.5952 66.196ZM53.8764 66.196L57.2827 69.5992L53.8764 73.0054L50.4733 69.5992L53.8764 66.196ZM42.9553 69.8367L46.3577 73.2406L42.9553 76.6468L39.5475 73.2406L42.9553 69.8367ZM50.2343 69.8367L53.6389 73.2445L50.2358 76.6476L46.8288 73.2414L50.235 69.8374L50.2343 69.8367ZM57.5155 69.8367L60.9218 73.2445L57.5155 76.6476L54.1124 73.2445L57.5155 69.8382V69.8367ZM46.5952 73.4773L49.9983 76.8843L46.596 80.2867L43.1882 76.8843L46.5952 73.4773ZM53.8749 73.4773L57.2811 76.8843L53.8749 80.2867L50.4725 76.8843L53.8749 73.4773ZM73.728 76.7679C73.5753 76.7634 73.4224 76.7678 73.2702 76.7812C72.4978 76.8593 71.7647 77.16 71.16 77.6468C69.4194 79.0203 69.1499 81.3656 70.428 82.9867L70.4413 83.0007C71.7225 84.621 74.0335 84.8992 75.7749 83.5257C77.5163 82.1492 77.7843 79.807 76.503 78.1859L76.4889 78.1679C76.16 77.7461 75.7421 77.402 75.265 77.16C74.788 76.918 74.2627 76.7842 73.728 76.7679ZM29.1499 78.5156L25.4546 84.6796L27.1616 85.707L28.5452 83.3992L30.7358 84.7109L29.3561 87.0187L31.0624 88.0421L34.7577 81.8773L33.0507 80.8539L31.646 83.196L29.4514 81.8843L30.8569 79.5421L29.1499 78.5156ZM73.2999 78.6796C73.8991 78.6562 74.496 78.9437 74.8999 79.4531L74.9132 79.4703C75.5546 80.2843 75.5319 81.4273 74.6757 82.1007C73.8139 82.7835 72.6663 82.5367 72.0249 81.7226L72.0108 81.7093C71.3686 80.8953 71.3929 79.7484 72.2553 79.0687C72.5525 78.8303 72.9192 78.6939 73.2999 78.6796ZM65.6069 81.7062L63.6421 82.4335L63.6046 83.814L61.0046 84.7757L60.0671 83.7562L58.0647 84.4984L63.446 90.2218L65.2483 89.5562L65.6069 81.7062ZM40.396 83.7351L38.978 88.9898L36.8975 88.4273L36.4436 90.1124L42.5296 91.7546L42.9827 90.071L40.9014 89.5085L42.3194 84.2539L40.396 83.7351ZM51.4749 85.0539C49.4319 85.1429 48.1546 86.2179 48.2577 88.5359L48.4327 92.5164L50.4514 92.4273L50.2733 88.3859C50.2319 87.3789 50.7327 86.8851 51.5327 86.85C52.3327 86.8148 52.8764 87.2828 52.9233 88.3195L53.0999 92.3109L55.1179 92.221L54.9429 88.1898C54.8436 85.9429 53.5147 84.9648 51.4749 85.0539ZM63.5936 85.4726L63.5421 87.671L62.0827 86.0328L63.5952 85.4726H63.5936ZM46.5913 95.3195L47.5772 96.3039L47.8139 96.071L47.1069 95.3632C46.935 95.3531 46.7632 95.332 46.5913 95.3195ZM53.8647 95.3328C53.6968 95.3468 53.5311 95.3531 53.3647 95.364L52.6835 96.0429L52.921 96.2773L53.8647 95.3328Z" fill="white"/>
</g>
<defs>
<clipPath id="clip0_1085_3314">
<rect width="100" height="100" fill="white"/>
</clipPath>
</defs>
</svg>
