<svg width="100" height="100" viewBox="0 0 100 100" fill="none" xmlns="http://www.w3.org/2000/svg">
<path d="M51.8812 83.6327C51.6832 82.8406 52.0792 81.8505 51.6832 81.0585C51.4851 80.2664 50.8911 80.2664 50.6931 79.6723C49.901 78.0882 48.9109 76.306 48.9109 74.3258C48.9109 72.7416 48.3168 71.1575 48.1188 69.5733C48.1188 68.7812 48.1188 67.9891 48.1188 67.1971C48.1188 66.801 48.1188 66.405 47.9208 66.0089C47.9208 65.8109 47.9208 65.4149 47.7228 65.4149L47.9208 64.8208C47.9208 64.6228 49.703 64.6228 50.297 64.6228C51.2871 64.6228 52.0792 64.6228 53.0693 64.8208C55.0495 64.8208 56.6337 64.8208 58.6139 64.6228C62.7723 64.0287 64.5545 62.2466 65.5446 61.6525C69.3069 59.0783 71.0891 54.5238 71.0891 54.5238C71.6832 53.1377 71.6832 50.5634 73.0693 49.5733C74.6535 48.1872 77.2277 48.3852 79.0099 47.5931C80 47.1971 80.7921 46.801 81.9802 46.999C82.7723 47.1971 84.1584 48.1872 84.5545 46.801C84.3564 46.603 84.1584 46.405 83.9604 46.207C85.5446 46.0089 83.9604 42.6426 83.3663 41.8505C82.3762 40.8604 80.9901 40.2664 79.4059 39.8703C77.4258 39.2763 75.6436 38.6822 73.8614 39.0783C70.6931 39.6723 70.8911 37.8901 69.1089 37.8901C66.9307 37.8901 62.9703 38.0882 62.1782 40.2664C61.7822 41.2565 61.5842 41.2565 60.9901 42.0486C60.5941 42.6426 60.9901 43.2367 60.7921 44.0288C60.5941 44.8208 60.198 47.5931 59.802 48.5832C59.2079 50.1674 58.4158 52.1476 57.0297 52.1476C55.0495 52.3456 53.4653 52.5436 51.8812 51.9495C50.8911 51.5535 49.3069 50.9594 48.5149 50.7614C44.7525 49.1773 44.1584 47.5931 44.1584 47.5931C43.7624 46.999 42.7723 45.8109 42.3762 44.4248C41.9802 42.8406 41.1881 41.6525 40.9901 40.8604C40.5941 40.0684 40 38.6822 39.4059 37.2961C38.6139 35.5139 37.6238 34.1278 36.8317 33.5337C35.6436 32.5436 34.6535 30.9594 32.2772 31.3555C31.8812 31.3555 30.297 31.5535 29.1089 32.5436C28.3168 33.1377 28.1188 34.5238 27.3267 35.7119C26.9307 36.306 26.1386 38.2862 25.5446 39.8703C25.1485 41.0585 24.9505 41.8505 24.3564 42.2466C23.9604 42.6426 23.5644 43.0387 22.9703 42.8406C22.5743 42.6426 22.1782 42.4446 21.7822 42.2466C21.1881 41.8505 20 39.6723 19.2079 38.2862C18.6139 36.9 17.2277 34.9198 16.4356 33.9297C15.2475 32.3456 14.6535 31.9495 12.8713 31.9495C9.30693 31.9495 8.91089 33.9297 7.32673 36.9C6.53465 38.2862 6.33663 40.2664 4.9505 41.8505C4.35644 42.6426 1.78218 46.405 0 46.999V74.3258V74.1278C0.19802 73.7317 0.19802 73.3357 0.39604 73.1377C1.18812 71.7515 2.77228 70.3654 3.56436 68.7812C3.9604 67.9891 4.55446 67.1971 4.9505 66.207C5.14851 65.6129 5.34653 64.4248 5.74257 63.8307C6.13861 63.0387 6.93069 62.8406 7.72277 62.6426C9.10891 62.4446 10.099 64.4248 11.6832 65.2169C12.2772 65.6129 15.4455 66.603 16.4356 66.801C18.0198 67.1971 19.604 67.3951 21.1881 67.7911C21.9802 67.9891 22.7723 67.9891 23.7624 68.1872C24.5545 68.1872 27.5248 68.3852 27.5248 68.5832C26.1386 69.3753 25.1485 71.3555 24.5545 72.9396C23.9604 74.5238 23.5644 76.306 22.9703 77.6921C22.1782 79.2763 20.5941 80.0684 20.7921 82.0486C20.7921 82.8406 20.9901 83.6327 20.7921 84.4248C20.5941 85.4149 20.198 86.0089 20 86.9991C19.604 88.1872 19.2079 91.9495 18.8119 92.9396L21.9802 92.5436C22.3762 91.7515 22.5743 88.1872 22.7723 87.7911C23.3663 86.0089 24.1584 84.6228 25.3465 83.2367C26.5347 81.8505 26.5347 80.2664 27.1287 78.6822C27.9208 76.9 28.9109 75.7119 29.901 74.1278C31.6832 71.3555 32.8713 67.5931 36.4356 66.801C36.8317 66.801 39.0099 68.3852 40 69.3753C41.1881 70.5634 42.3762 71.7515 43.1683 73.3357C44.5545 76.306 45.9406 80.6624 46.3366 82.8406C46.5347 84.2268 46.7327 84.2268 47.7228 85.4149C48.1188 85.8109 48.9109 87.3951 49.3069 87.9891C49.505 88.5832 50.099 89.9693 50.297 90.7614C50.495 91.1575 51.0891 92.5436 51.4851 93.7317H54.4554C53.2673 90.3654 52.2772 86.999 51.8812 83.6327Z" fill="white"/>
<path d="M50.2971 90.5634C49.901 89.7713 49.505 88.3852 49.307 87.7911C49.1089 87.1971 48.1188 85.6129 47.7228 85.2169C46.7327 84.2268 46.5347 84.0288 46.3367 82.6426C45.9406 80.2664 44.5545 75.91 43.1683 73.1377C42.3763 71.5535 41.1881 70.3654 40 69.1773C39.0099 68.1872 36.8317 66.603 36.4357 66.603C32.6733 67.3951 31.6832 70.9595 29.901 73.9298C28.9109 75.5139 27.9208 76.9001 27.1287 78.4842C26.3367 80.0684 26.5347 81.8506 25.3466 83.0387C24.1584 84.4248 23.3664 85.8109 22.7723 87.5931C22.5743 87.9892 22.3763 91.5535 21.9802 92.3456L27.5248 91.9496C32.6733 92.3456 31.0891 94.3258 39.2079 93.9298L51.8812 93.5337C51.0891 92.3456 50.4951 90.9595 50.2971 90.5634Z" fill="url(#paint0_linear_867_14739)"/>
<path d="M87.1287 6.99902H12.4752C5.54455 6.99902 0 12.7416 0 19.6723V47.197C1.78218 46.405 4.35644 42.6426 5.14852 41.6525C6.53465 40.0683 6.73267 37.8901 7.52475 36.702C9.10891 33.7317 9.50495 31.7515 13.0693 31.7515C14.8515 31.7515 15.4455 32.1475 16.6337 33.7317C17.4257 34.7218 18.8119 36.702 19.4059 37.8901C20.198 39.4743 21.3861 41.4545 21.9802 41.8505C22.3762 42.2465 22.7723 42.4446 23.1683 42.4446C23.7624 42.6426 24.1584 42.2465 24.5545 41.8505C25.1485 41.4545 25.3465 40.6624 25.7426 39.4743C26.3366 37.8901 27.1287 35.9099 27.5248 35.3159C28.3168 34.1277 28.5149 32.7416 29.3069 32.1475C30.495 31.1574 31.8812 31.1574 32.4752 30.9594C34.8515 30.5634 35.8416 32.1475 37.0297 33.1376C37.8218 33.7317 38.8119 35.1178 39.604 36.9C40.198 38.2862 40.9901 39.6723 41.1881 40.4644C41.3861 41.2564 42.1782 42.4446 42.5743 44.0287C42.9703 45.4149 43.9604 46.405 44.3564 47.197C44.3564 47.197 44.9505 48.9792 48.7129 50.3654C49.505 50.7614 51.0891 51.1574 52.0792 51.5535C53.6634 52.1475 55.2475 52.1475 57.2277 51.7515C58.6139 51.7515 59.4059 49.7713 60 48.1871C60.396 47.197 60.7921 44.4248 60.9901 43.6327C61.1881 42.8406 60.5941 42.2465 61.1881 41.6525C61.7822 40.8604 61.9802 40.8604 62.3762 39.8703C62.9703 37.6921 67.1287 37.4941 69.3069 37.4941C71.0891 37.4941 70.8911 39.2763 74.0594 38.6822C75.8416 38.2862 77.6238 38.8802 79.604 39.4743C81.1881 39.8703 82.7723 40.4644 83.5644 41.4545C84.1584 42.0485 85.5446 45.6129 84.1584 45.8109C84.3564 46.0089 84.3564 46.2069 84.7525 46.405C84.3564 47.7911 82.9703 46.801 82.1782 46.603C81.1881 46.405 80.396 46.603 79.2079 47.197C77.4257 47.9891 74.6535 47.9891 73.2673 49.1772C71.8812 50.3654 71.8812 52.7416 71.2871 54.1277C71.2871 54.1277 69.505 58.6822 65.7426 61.2564C64.7525 62.0485 62.9703 63.6327 58.8119 64.2267C57.0297 64.4248 55.2475 64.6228 53.2673 64.4248C52.2772 64.4248 51.4851 64.4248 50.495 64.2267C49.901 64.2267 48.1188 64.2267 48.1188 64.4248L47.9208 65.0188C47.9208 65.2168 47.9208 65.6129 48.1188 65.6129C48.1188 66.0089 48.1188 66.405 48.3168 66.801C48.3168 67.5931 48.3168 68.3852 48.3168 69.1772C48.3168 70.7614 48.9109 72.3456 49.1089 73.9297C49.1089 75.7119 50.099 77.6921 50.8911 79.2763C51.2871 79.8703 51.6832 79.8703 51.8812 80.6624C52.0792 81.4545 51.8812 82.2466 52.0792 83.2366C52.4752 86.603 53.4653 89.9693 55.0495 93.1376C56.8317 92.7416 58.8119 92.1475 61.1881 91.7515C65.5446 91.1574 71.6832 91.3555 75.6436 91.1574C85.5446 90.1673 91.0891 95.3159 100 93.1376V19.6723C99.802 12.7416 94.2574 6.99902 87.1287 6.99902Z" fill="url(#paint1_linear_867_14739)"/>
<path d="M22.9703 77.6922C23.7624 76.1081 24.1584 74.5239 24.5545 72.9398C25.1485 71.3556 25.9406 69.3754 27.5248 68.5833C27.3267 68.3853 24.3564 68.1873 23.7624 68.1873C22.9703 68.1873 22.1782 67.9893 21.1881 67.7913C19.604 67.3952 17.8218 67.1972 16.4356 66.8012C15.4455 66.6031 12.4752 65.415 11.6832 65.217C10.099 64.4249 9.10891 62.4447 7.72277 62.6427C6.93069 62.8408 6.13861 63.0388 5.74257 63.8309C5.34653 64.4249 5.14851 65.613 4.9505 66.4051C4.55446 67.1972 4.15842 68.1873 3.56436 68.9794C2.57426 70.5635 0.990099 71.9497 0.39604 73.3358C0.19802 73.7319 0.19802 73.9299 0 74.3259V91.3556C0.792079 91.5536 1.58416 91.7517 2.57426 91.9497C9.50495 93.7319 11.2871 93.9299 18.2178 93.1378H18.8119C19.4059 91.9497 19.802 88.3853 20 87.1972C20.198 86.4051 20.5941 85.613 20.7921 84.6229C20.9901 83.8309 20.7921 83.0388 20.7921 82.2467C20.5941 80.0685 22.1782 79.2764 22.9703 77.6922Z" fill="url(#paint2_linear_867_14739)"/>
<defs>
<linearGradient id="paint0_linear_867_14739" x1="36.6081" y1="66.6622" x2="36.6081" y2="93.9801" gradientUnits="userSpaceOnUse">
<stop stop-color="#F29100"/>
<stop offset="1" stop-color="#EC670F"/>
</linearGradient>
<linearGradient id="paint1_linear_867_14739" x1="49.885" y1="7.03962" x2="49.885" y2="94.0329" gradientUnits="userSpaceOnUse">
<stop stop-color="#F29100"/>
<stop offset="1" stop-color="#EC670F"/>
</linearGradient>
<linearGradient id="paint2_linear_867_14739" x1="13.7537" y1="62.5936" x2="13.7537" y2="93.4324" gradientUnits="userSpaceOnUse">
<stop stop-color="#F29100"/>
<stop offset="1" stop-color="#EC670F"/>
</linearGradient>
</defs>
</svg>
