<svg width="100" height="100" viewBox="0 0 100 100" fill="none" xmlns="http://www.w3.org/2000/svg">
<path d="M18.9021 86.8105C17.4584 86.7066 16.3537 86.2949 15.3529 85.4863C14.8423 85.0762 14.3841 84.6047 13.9889 84.0824C13.2873 83.1332 12.7928 81.8363 12.5818 80.3957C12.4568 79.5348 12.4662 80.2856 12.4506 69.1684L12.3287 57.8465C12.185 56.6988 11.8982 55.8809 11.2701 54.8254C10.1928 53.0191 8.65137 51.3738 7.29355 50.5801C7.01855 50.4184 6.95449 50.3692 6.8873 50.2566C6.83574 50.1652 6.82324 50.1191 6.82324 49.9793C6.82324 49.8395 6.83574 49.7934 6.89043 49.702C6.95762 49.5863 6.98809 49.5613 7.4248 49.2957C7.98965 48.9512 8.45293 48.5723 9.10293 47.9191C10.1529 46.8691 11.0865 45.5879 11.6576 44.416C12.1029 43.5004 12.2834 42.7832 12.4053 41.4043C12.4264 41.1606 12.4389 38.5207 12.4514 30.7902L12.5826 19.5629C12.7936 18.1223 13.2842 16.8316 13.9896 15.8762C14.5146 15.1621 15.3412 14.402 16.0529 13.9777C16.6838 13.6081 17.3783 13.3598 18.1006 13.2457C18.7381 13.1387 18.8576 13.1356 21.2076 13.1356H23.4506L23.5482 13.1871C23.6743 13.2543 23.772 13.3647 23.8232 13.4981C23.8506 13.5715 23.8568 13.8488 23.8568 14.8496V16.1098L23.7959 16.2285C23.7574 16.3024 23.7035 16.3672 23.6377 16.4183C23.5718 16.4694 23.4958 16.5056 23.4146 16.5246C23.3324 16.5428 22.7495 16.552 21.6662 16.552L19.7771 16.5762C18.5256 16.6981 17.6834 17.0801 17.1068 17.7848C16.5365 18.484 16.2889 19.1824 16.2186 20.3059C16.2029 20.5527 16.1943 24.484 16.1943 31.509L16.1701 42.6512C16.0545 44.1707 15.6639 45.4066 14.8943 46.6918C14.3211 47.6788 13.5879 48.5637 12.7248 49.3106C12.2943 49.6887 12.249 49.7559 12.2639 50.0098C12.2764 50.2262 12.3279 50.3059 12.6271 50.5621C13.3271 51.1589 13.9466 51.8441 14.4701 52.6004C15.4068 53.977 15.9287 55.2887 16.1061 56.7082L16.1607 57.1051C16.1701 57.1567 16.185 62.284 16.1912 68.4973L16.2373 80.0113C16.2834 80.3441 16.3779 80.7832 16.4451 80.9973C16.592 81.4426 16.8904 81.9402 17.2475 82.3309C17.7264 82.8527 18.4318 83.1824 19.4053 83.3379C19.7139 83.3895 19.8357 83.3926 21.5779 83.4051C23.6467 83.4207 23.5467 83.4113 23.7053 83.5941C23.8639 83.777 23.8576 83.7223 23.8576 85.1105C23.8576 86.1082 23.8514 86.3895 23.824 86.4598C23.7728 86.5931 23.6751 86.7035 23.549 86.7707L23.4514 86.8254L21.3154 86.8285C20.1404 86.8285 19.0568 86.8223 18.9045 86.8105H18.9021ZM76.5162 86.8012C76.4471 86.7775 76.3834 86.7402 76.3289 86.6915C76.2744 86.6428 76.2303 86.5836 76.199 86.5176L76.135 86.3895L76.1443 85.0957L76.1506 83.802L76.2146 83.6918C76.2525 83.6265 76.3035 83.5697 76.3644 83.5251C76.4254 83.4804 76.4949 83.4489 76.5686 83.4324C76.6389 83.4168 77.2826 83.4082 78.3084 83.4082L80.2154 83.3809C80.856 83.3231 81.4818 83.1613 81.9185 82.9418C82.4373 82.6793 82.7732 82.3715 83.1451 81.8129C83.4506 81.3582 83.6303 80.8488 83.7342 80.1684C83.774 79.9121 83.7771 79.1676 83.792 68.6207L83.835 57.1066C83.9842 55.8129 84.2467 54.8941 84.7506 53.9051C85.3975 52.6262 86.292 51.4793 87.3053 50.6184C87.5826 50.3832 87.6834 50.2582 87.7232 50.1145C87.7904 49.8731 87.699 49.6777 87.3873 49.4152C86.484 48.6535 85.7173 47.7434 85.1201 46.7238C84.3662 45.4637 84.0061 44.3738 83.835 42.8574C83.8107 42.6496 83.8014 40.0684 83.7889 31.3309L83.7342 19.7918C83.6459 19.2027 83.4873 18.7113 83.2701 18.3395C83.0139 17.9004 82.6443 17.4785 82.3178 17.2527C81.799 16.8926 81.085 16.6637 80.2303 16.5785C80.0717 16.5629 79.3178 16.5543 78.3232 16.5512C77.2857 16.5512 76.6389 16.5418 76.5686 16.527C76.4949 16.5105 76.4254 16.479 76.3644 16.4343C76.3035 16.3897 76.2525 16.3329 76.2146 16.2676L76.1506 16.1574L76.1443 14.8668L76.135 13.5762L76.1959 13.4481C76.2298 13.3747 76.2793 13.3096 76.341 13.2574C76.4026 13.2052 76.475 13.1671 76.5529 13.1457C76.6842 13.109 81.0545 13.1301 81.3654 13.1699C82.7357 13.3348 83.6881 13.7129 84.6279 14.4637C84.924 14.6957 85.5162 15.2785 85.76 15.5684C86.2371 16.1619 86.619 16.8261 86.892 17.5371C87.2029 18.352 87.3896 19.2309 87.5115 20.4512C87.5326 20.6645 87.5451 23.3684 87.5545 31.041L87.6123 41.716C87.774 43.1684 88.049 44.0113 88.7326 45.1496C89.7912 46.9168 91.2318 48.4699 92.5748 49.3027C92.6967 49.3762 92.8467 49.4707 92.9045 49.5074C93.0725 49.6113 93.1545 49.7457 93.1639 49.941C93.1795 50.216 93.0904 50.3559 92.7795 50.5363C91.3662 51.3449 89.8623 52.9348 88.7326 54.8121C88.049 55.9473 87.774 56.7926 87.6123 58.2457C87.5724 58.5902 87.5693 59.402 87.5545 68.9207L87.5115 79.5106C87.356 81.0824 87.0873 82.123 86.5686 83.1512C86.2178 83.8441 85.8271 84.3723 85.2139 84.9699C84.7896 85.3816 84.5881 85.5496 84.1795 85.8246C83.4803 86.2973 82.6443 86.6121 81.7256 86.7434C81.1459 86.8254 80.7217 86.841 78.6373 86.8379C77.0014 86.8379 76.5865 86.8316 76.5162 86.8043V86.8012ZM49.0443 74.6098C46.5178 74.491 44.3537 74.0879 42.074 73.3191C37.6639 71.8301 33.8037 69.1293 30.7764 65.4184C28.085 62.1223 26.3357 58.2652 25.6553 54.1418C25.4295 52.759 25.3443 51.6879 25.3443 50.2082C25.3443 48.9785 25.3936 48.2215 25.5365 47.077C26.1381 42.3379 28.1061 37.7785 31.1092 34.159C32.1635 32.8974 33.3412 31.7443 34.6248 30.7168C40.6521 25.8856 48.6389 24.1801 56.167 26.1113C61.4342 27.4629 66.1037 30.5301 69.4725 34.8543C72.3153 38.5085 74.0683 42.8913 74.5295 47.4981C74.624 48.4379 74.6396 48.7856 74.6396 49.9793C74.6396 51.1731 74.624 51.5207 74.5295 52.4637C74.1512 56.2296 72.9094 59.8575 70.9006 63.0652C69.2823 65.6365 67.2076 67.8902 64.7787 69.7152C60.4967 72.9273 55.2815 74.6506 49.9287 74.6223L49.0443 74.6098ZM50.7717 62.2715C53.225 62.1203 55.5769 61.2378 57.5241 59.7377C59.4713 58.2376 60.9246 56.1887 61.6967 53.8551C62.4318 51.6392 62.5217 49.26 61.9561 46.9949C61.2264 44.0348 59.3803 41.4223 56.8014 39.7074C54.7876 38.3771 52.4281 37.6663 50.0146 37.6629C47.4331 37.661 44.9163 38.4705 42.82 39.977C40.7237 41.4835 39.1539 43.6108 38.3326 46.0582C37.8965 47.3191 37.6818 48.646 37.6982 49.9801C37.6982 51.1184 37.799 51.9457 38.0678 53.0137C38.9404 56.4863 41.3334 59.4379 44.5592 61.0277C46.0732 61.7723 47.6107 62.1754 49.3568 62.2817C49.8289 62.2999 50.3015 62.2968 50.7732 62.2723L50.7717 62.2715Z" fill="#BFBFC2"/>
<path d="M49.1881 74.5641L47.0397 74.3961C42.5163 73.8552 38.2342 72.0603 34.6772 69.2141C33.3289 68.1332 32.0928 66.9196 30.9873 65.5914C27.8163 61.7859 25.9303 57.2633 25.4881 52.414C25.3601 50.946 25.3601 49.4696 25.4881 48.0016C25.9303 43.0851 27.835 38.3273 30.8897 34.5125C33.1189 31.7497 35.9194 29.502 39.0991 27.9234C43.0996 25.9518 47.56 25.1018 52.0053 25.4641C58.8905 26.0226 65.1733 29.4219 69.4373 34.8906C71.1671 37.1117 72.4991 39.6156 73.3741 42.2914C74.0303 44.2937 74.3998 46.2039 74.5616 48.4437C74.6014 49.0141 74.6014 50.943 74.5616 51.514C74.3998 53.7539 74.0303 55.6734 73.3741 57.6664C72.1822 61.3127 70.1466 64.6262 67.4327 67.3375C64.692 70.0812 61.4514 72.0953 57.8139 73.3101C55.8258 73.9723 53.7616 74.3795 51.6709 74.5219C51.1889 74.5555 49.5655 74.5828 49.1897 74.5648L49.1881 74.5641ZM51.178 62.2992C51.6244 62.2501 52.0683 62.1808 52.5084 62.0914C54.597 61.6597 56.5385 60.6955 58.1447 59.2925C59.7508 57.8895 60.9671 56.0951 61.6756 54.0836C62.0365 53.0543 62.261 51.9821 62.3436 50.8945C62.3741 50.4945 62.3741 49.4633 62.3436 49.0664C62.1545 46.6742 61.3241 44.4555 59.9022 42.5601C59.0674 41.4497 58.0523 40.4871 56.8991 39.7125C56.4389 39.3932 55.9531 39.1126 55.4467 38.8734C54.1417 38.2318 52.7336 37.8258 51.2873 37.6742C50.5891 37.6182 49.888 37.6049 49.1881 37.6344C44.742 37.9516 40.8811 40.5336 38.9217 44.4976C38.0731 46.2 37.633 48.0767 37.6366 49.9789C37.6366 52.3961 38.3412 54.7484 39.6717 56.7812C40.1277 57.4657 40.6489 58.1043 41.228 58.6883C43.3397 60.8156 46.0592 62.0695 49.0897 62.3195C49.4288 62.3469 50.8631 62.332 51.1772 62.2984L51.178 62.2992Z" fill="#0F82C2"/>
</svg>
