<svg width="100" height="100" viewBox="0 0 100 100" fill="none" xmlns="http://www.w3.org/2000/svg">
<path d="M14.0158 98.4178C12.9783 94.6834 13.8072 87.2186 15.6642 83.5803C16.4939 81.9522 16.4939 81.9522 15.2588 79.6725C12.1056 73.8498 11.8916 65.392 14.7181 58.3303C15.7884 55.6553 15.7884 55.6553 14.7205 53.6748C10.3306 45.542 11.7142 35.8155 18.2377 28.9405C21.0658 25.96 21.0658 25.96 20.7189 23.8506C19.5955 17.0272 21.0103 7.74359 23.7994 3.63968C28.8338 -3.76969 36.4877 0.659994 38.5283 12.1631C38.8041 13.7178 39.0783 15.0569 39.1377 15.1373C39.197 15.2178 40.5267 14.7717 42.0908 14.1459C47.7533 11.8803 53.0306 11.9584 58.2478 14.3834C59.7322 15.0741 60.9783 15.5881 61.015 15.5256C61.0525 15.4631 61.3025 14.0702 61.5705 12.4287C63.4767 0.781088 71.2431 -3.84469 76.3283 3.63968C79.1197 7.74749 80.5369 17.0616 79.4041 23.8506C79.0517 25.96 79.0517 25.96 81.665 28.7022C88.2127 35.5717 89.6845 45.403 85.3603 53.3858C84.1963 55.5366 84.1963 55.5366 85.2064 57.8342C88.2166 64.6803 88.0759 73.7498 84.8689 79.6725C83.6338 81.9522 83.6338 81.9522 84.4642 83.5803C86.3205 87.2186 87.1494 94.6826 86.1127 98.4178C85.6728 99.9998 85.6728 99.9998 82.8978 99.9998C80.1228 99.9998 80.1228 99.9998 80.4916 98.6287C81.4884 94.9287 80.9377 89.0108 79.2728 85.5069C77.3463 81.4569 77.347 81.4983 79.1947 78.5037C82.7783 72.6991 82.8541 65.2084 79.3978 58.4912C77.7853 55.3584 77.7963 54.9998 79.5963 52.3264C86.3736 42.2553 79.7947 28.5491 67.8923 27.9436C64.2048 27.7561 64.2048 27.7561 63.2963 25.9366C58.2634 15.8584 43.04 15.3897 37.1556 25.1311C35.6361 27.6475 35.6361 27.6475 32.0916 27.8787C19.8517 28.6795 12.5673 45.2928 20.9884 53.203C22.3259 54.46 22.2759 55.4873 20.7306 58.4912C17.2736 65.2084 17.3494 72.6991 20.9322 78.5037C22.7806 81.4983 22.7806 81.4569 20.8556 85.5069C19.1892 89.0108 18.6392 94.9287 19.6361 98.6287C20.0048 99.9998 20.0048 99.9998 17.2298 99.9998C14.4548 99.9998 14.4548 99.9998 14.015 98.4178H14.0158ZM30.258 22.5358C33.7767 22.1764 34.0244 21.7662 33.6783 16.8873C33.183 9.91624 30.6822 4.39124 28.7947 6.09984C26.2197 8.42953 24.4541 23.9889 26.8689 23.0616C27.2181 22.928 28.7439 22.6912 30.258 22.5358ZM74.0939 17.9061C74.0627 9.53578 71.7338 3.79827 69.4455 6.45765C67.3877 8.84984 65.4377 19.2076 66.6392 21.3576C67.0463 22.0858 72.183 23.2881 73.6892 23.0077C73.9431 22.9608 74.1041 20.9358 74.0939 17.9061ZM43.9166 65.2748C28.6369 60.9623 33.6392 42.11 50.0634 42.11C64.8681 42.11 71.2502 57.8584 58.983 64.1217C55.6853 65.8061 47.9056 66.4014 43.9166 65.2748ZM57.0994 61.0936C66.2634 56.8983 61.1306 45.578 50.0634 45.578C37.4353 45.578 33.7158 59.0428 45.522 62.0209C48.4689 62.7639 54.5056 62.2803 57.0994 61.0936ZM48.5869 56.2264C48.5869 55.0045 48.3189 54.3553 47.5322 53.6717C45.565 51.9608 46.4486 51.1748 50.2744 51.2319C53.3939 51.2772 54.2791 52.3858 52.3025 53.7709C51.5822 54.2764 51.3291 54.8623 51.3291 56.0272C51.3291 57.4936 51.2361 57.6092 49.958 57.7327C48.6244 57.8608 48.5869 57.8202 48.5869 56.2264ZM28.1072 49.1819C26.9228 47.9975 26.7892 46.5022 27.7088 44.7241C29.49 41.2795 34.2431 42.3694 34.2431 46.2225C34.2431 49.535 30.3416 51.4162 28.1072 49.1819ZM67.1174 48.9842C65.5056 47.3725 65.4236 45.1553 66.9197 43.6592C68.6572 41.9217 71.2267 42.4194 72.4197 44.7241C74.4908 48.7319 70.2627 52.1287 67.1174 48.9842Z" fill="black"/>
</svg>
