<svg width="100" height="100" viewBox="0 0 100 100" fill="none" xmlns="http://www.w3.org/2000/svg">
<g clip-path="url(#clip0_867_21203)">
<path d="M58.9442 53.3107C58.9442 53.3107 80.3776 41.3006 80.7471 41.4854C78.6983 33.4824 73.5623 26.6171 66.4632 22.3923C59.3642 18.1675 50.8805 16.9274 42.8692 18.9434C35.3324 20.8463 28.7964 25.5337 24.5769 32.0621C24.7617 32.0621 58.9442 53.3107 58.9442 53.3107Z" fill="#0364B8"/>
<path d="M38.0652 35.7574C34.1165 33.34 29.5764 32.0611 24.9465 32.062H24.577C17.9628 32.1642 11.6595 34.8875 7.05181 39.6338C2.4441 44.3801 -0.0913061 50.7612 0.00251405 57.3756C0.0829034 62.3882 1.62404 67.2684 4.43701 71.4181L38.8043 67.9075L58.9443 48.5066L38.0652 35.7574Z" fill="#0F78D4"/>
<path d="M80.9321 41.4854H79.6387C76.9018 41.4651 74.1925 42.0322 71.6935 43.1483L59.1292 48.3219L72.8022 63.4731L97.5614 71.2334C98.8328 68.8819 99.6264 66.3021 99.8964 63.6426C100.166 60.983 99.9076 58.2963 99.1347 55.7373C98.3618 53.1783 97.0903 50.7974 95.3932 48.732C93.6962 46.6665 91.6072 44.9572 89.2467 43.7026C86.6457 42.43 83.8214 41.6769 80.9321 41.4854Z" fill="#1490DF"/>
<path d="M79.6386 60.7014L74.465 57.5603L62.6397 50.539L58.9443 48.3218L49.521 52.3867L31.2287 60.1471L22.9141 63.473L4.43701 71.2333C6.74752 74.5315 9.81646 77.2265 13.3856 79.0914C16.9547 80.9564 20.9196 81.9367 24.9465 81.95H79.4538C83.1266 81.9296 86.7267 80.9245 89.8789 79.0397C93.0312 77.1548 95.6203 74.459 97.3765 71.2333L79.6386 60.7014Z" fill="#28A8EA"/>
</g>
<defs>
<clipPath id="clip0_867_21203">
<rect width="100" height="100" fill="white"/>
</clipPath>
</defs>
</svg>
