<svg width="100" height="100" viewBox="0 0 100 100" fill="none" xmlns="http://www.w3.org/2000/svg">
<g clip-path="url(#clip0_1085_3368)">
<path d="M45.9199 25.4484C38.4012 25.4836 28.7715 26.6937 16.9684 33.8773L16.5043 34.1648C9.09964 38.7383 3.99026 44.3734 1.31682 50.9258C0.479322 52.9836 -0.648022 57.6367 0.468384 62.0117C0.950415 63.925 1.84885 65.8484 3.05823 67.5687C5.78948 71.4578 10.3801 74.0375 15.3192 74.4734C22.2949 75.0906 27.5739 71.989 29.452 66.182C30.7418 62.175 29.452 56.2961 24.502 53.2969C20.4731 50.8562 16.1442 51.4117 13.6309 53.0547C11.4543 54.4859 10.2199 56.7086 10.2403 59.1515C10.2887 63.482 14.0574 65.7828 16.7684 65.7898C17.5559 65.7898 18.3457 65.6554 19.2371 65.3672C19.5559 65.2703 19.8543 65.1515 20.1824 64.9515L20.284 64.8922L20.3285 64.8609C20.6299 64.6618 20.8776 64.3916 21.0499 64.0741C21.2223 63.7567 21.3139 63.4018 21.3168 63.0406C21.3161 62.8368 21.2869 62.634 21.2301 62.4383C20.9114 61.3422 19.8153 60.6804 18.6817 60.8851L18.5293 60.9195L18.3215 60.982L18.0199 61.0859C17.6302 61.1814 17.2318 61.2372 16.8309 61.2523C16.5121 61.2312 14.9559 60.7711 14.9559 59.0789V59.0578C14.9559 58.4343 15.2043 58 15.3434 57.7609C15.8278 57.0078 17.1574 56.2718 18.9528 56.4234C21.3059 56.625 23.0043 57.8218 24.1317 60.0773C25.1754 62.175 24.9012 64.7539 23.4278 66.6429C21.9614 68.5156 19.3543 69.3125 15.8887 68.9414C12.3895 68.5594 9.43323 66.5664 7.77932 63.4672C6.15745 60.4343 6.07073 56.839 7.5512 54.0804C11.0903 47.4625 17.7739 47.5312 21.4418 48.1586C26.866 49.0914 33.0371 54.0461 35.2278 59.7656C35.5809 60.6765 35.7614 61.4015 35.9176 62.0633L36.1535 63.0515L42.2824 66.0125C42.4137 66.0773 42.4598 66.0984 42.5114 66.0601C42.577 66.0117 42.5387 65.8836 42.5387 65.8836C42.5004 65.7484 42.4106 65.6234 42.2715 63.925C42.1543 62.4172 41.9176 58.2922 44.0153 56.25C44.8301 55.45 46.0715 54.7351 47.052 54.5101C51.066 53.5359 55.777 54.2086 60.2317 59.3109C62.5364 61.9461 63.6606 63.1484 64.2254 63.6859C64.2254 63.6859 64.3535 63.807 64.4231 63.8625C64.4957 63.925 64.5442 63.9742 64.6551 64.0359C64.8387 64.1375 72.3129 67.5437 72.3129 67.5437C72.3129 67.5437 72.3996 67.5851 72.4653 67.5062C72.5309 67.4273 72.4684 67.3469 72.4684 67.3469C72.4199 67.2906 67.734 61.2945 68.5653 56.3547C69.2239 52.4226 72.3856 52.7765 76.7606 53.2656C78.1879 53.4312 79.8137 53.6156 81.4949 53.6539C86.1957 53.6851 91.2582 52.8258 94.3778 51.4734C96.3949 50.607 97.6809 50.0281 98.4887 49.3C98.7793 49.0648 98.9285 48.675 99.0848 48.2601L99.1957 47.9859C99.327 47.65 99.5176 46.9375 99.602 46.5476C99.6356 46.3765 99.6778 46.2086 99.5317 46.1C99.4035 46 99.102 46.1797 99.102 46.1797C97.7324 46.9945 94.3074 48.5398 91.1051 48.6062C87.1317 48.6859 79.0762 44.6226 78.2442 44.1937L76.559 40.2484C82.3207 44.0062 87.1012 46.0828 90.7582 46.4047C94.8317 46.7625 98.0067 44.564 99.3832 43.6492C99.5629 43.5273 99.7426 43.3968 99.9098 43.2679C99.941 43.2476 100.011 43.1844 99.9996 43.1289C99.7707 41.7148 97.6465 34.8609 96.034 33.2148C95.5903 32.764 95.2371 32.3242 94.5192 31.9047C88.6957 28.5453 74.8785 26.5179 74.2332 26.4281C74.2332 26.4281 74.1676 26.4133 74.1223 26.4554C74.0863 26.4898 74.0801 26.5554 74.0801 26.5554L74.0176 29.707C72.6074 29.2367 62.3489 25.9562 52.7371 25.6265C50.6981 25.5562 48.4254 25.4359 45.9199 25.4484ZM89.6793 32.2164C92.9348 32.3312 95.4934 35.0523 95.3824 38.2726C95.3555 39.0418 95.1761 39.7979 94.8547 40.4972C94.5332 41.1964 94.0761 41.8249 93.5098 42.3461C92.9406 42.8751 92.2724 43.2865 91.5437 43.5565C90.8151 43.8265 90.0402 43.9499 89.2637 43.9195C86.0121 43.8023 83.4567 41.0836 83.5645 37.8601C83.5913 37.0906 83.7706 36.334 84.0919 35.6343C84.4132 34.9345 84.8702 34.3055 85.4364 33.7836C86.5885 32.7218 88.1136 32.1585 89.6793 32.2164ZM89.6278 33.9398C89.0879 33.9178 88.5489 34.003 88.0421 34.1903C87.5352 34.3776 87.0705 34.6634 86.6746 35.0312C86.2788 35.3935 85.9595 35.8314 85.7354 36.3189C85.5114 36.8065 85.3871 37.334 85.3699 37.8703C85.2942 40.1242 87.077 42.0195 89.3465 42.1031C90.4397 42.1406 91.5036 41.7456 92.3074 41.0039C92.7024 40.6412 93.0209 40.2032 93.2441 39.7156C93.4673 39.2281 93.5909 38.7008 93.6074 38.1648C93.6871 35.9117 91.9043 34.0195 89.6278 33.9398ZM90.3035 35.9883C91.3153 35.9883 92.134 36.525 92.134 37.1976C92.134 37.8601 91.3129 38.4047 90.3035 38.4047C89.2918 38.4047 88.4731 37.8601 88.4731 37.1976C88.4731 36.5258 89.2918 35.9883 90.3035 35.9883ZM74.5926 64.9648C74.423 64.9641 74.2549 64.9969 74.098 65.0614C73.9411 65.1259 73.7985 65.2208 73.6784 65.3406C73.5583 65.4604 73.4631 65.6027 73.3982 65.7595C73.3333 65.9162 73.3001 66.0842 73.3004 66.2539C73.2991 66.4242 73.3316 66.5932 73.396 66.7509C73.4605 66.9086 73.5556 67.0519 73.6759 67.1725C73.7962 67.2932 73.9392 67.3887 74.0967 67.4537C74.2542 67.5186 74.423 67.5516 74.5934 67.5508C74.9363 67.5512 75.2653 67.4153 75.5081 67.1732C75.7509 66.931 75.8875 66.6023 75.8879 66.2594C75.8883 65.9164 75.7525 65.5874 75.5103 65.3446C75.2681 65.1019 74.9394 64.9652 74.5965 64.9648H74.5926ZM74.5926 65.1664H74.5965C75.1746 65.1664 75.6395 65.6547 75.6395 66.2617C75.6395 66.8687 75.1746 67.357 74.5965 67.35C74.0184 67.35 73.5496 66.8687 73.5496 66.2547C73.5496 65.6523 74.0184 65.1664 74.5926 65.1664ZM74.527 65.5336C74.3543 65.5336 74.2387 65.5508 74.1145 65.5679V67.007H74.3473V66.3867H74.5098C74.6973 66.3867 74.7879 66.4554 74.8254 66.639C74.8535 66.8297 74.8879 66.9625 74.9223 67.0062H75.1645C75.1403 66.9617 75.1098 66.875 75.0715 66.65C75.0442 66.4375 74.9567 66.3242 74.8293 66.3V66.289C74.9856 66.2445 75.1129 66.125 75.1129 65.939C75.1129 65.8008 75.0653 65.7031 74.9778 65.6414C74.8903 65.5797 74.7488 65.5336 74.527 65.5336ZM74.5168 65.7101C74.777 65.7101 74.8707 65.8351 74.8707 65.9633C74.8707 66.1406 74.7074 66.2094 74.5168 66.2094H74.3473V65.7211C74.3887 65.7133 74.441 65.7101 74.5168 65.7101Z" fill="#73BA25"/>
</g>
<defs>
<clipPath id="clip0_1085_3368">
<rect width="100" height="100" fill="white"/>
</clipPath>
</defs>
</svg>
