<svg width="100" height="100" viewBox="0 0 100 100" fill="none" xmlns="http://www.w3.org/2000/svg">
<path d="M96.7851 87.4451V87.4216C96.7938 87.2414 96.7664 87.0613 96.7047 86.8918C96.643 86.7222 96.5482 86.5666 96.4258 86.4341C96.2694 86.2935 96.0867 86.1852 95.8882 86.1154C95.6898 86.0457 95.4795 86.0159 95.2695 86.0279H93.6781V90.2779H94.5562V88.8615H95.0945L95.8781 90.2779H96.889L95.9828 88.6958C96.2299 88.5966 96.44 88.4228 96.5838 88.1987C96.7276 87.9745 96.798 87.7111 96.7851 87.4451ZM95.8969 87.4732C95.9011 87.5629 95.8855 87.6525 95.8513 87.7356C95.8171 87.8187 95.7651 87.8933 95.699 87.9541C95.6328 88.0149 95.5541 88.0604 95.4684 88.0875C95.3828 88.1145 95.2922 88.1224 95.2031 88.1107H94.5515V86.8263H95.1844C95.6562 86.8263 95.8969 87.0388 95.8969 87.4638V87.4732ZM99.5 88.2334C99.4991 87.3744 99.2435 86.5351 98.7657 85.8214C98.2878 85.1077 97.6091 84.5516 96.8153 84.2236C96.0215 83.8955 95.1482 83.8102 94.3059 83.9783C93.4636 84.1465 92.6901 84.5605 92.0831 85.1682C91.4761 85.7759 91.0628 86.5499 90.8956 87.3923C90.7284 88.2348 90.8147 89.108 91.1436 89.9014C91.4725 90.6948 92.0292 91.373 92.7435 91.8501C93.4577 92.3271 94.2973 92.5818 95.1562 92.5818C96.3086 92.5803 97.4133 92.1216 98.2278 91.3063C99.0422 90.491 99.4998 89.3857 99.5 88.2334ZM95.1562 91.5099C94.508 91.5101 93.8742 91.318 93.3351 90.9579C92.7961 90.5978 92.3759 90.086 92.1277 89.4871C91.8796 88.8882 91.8146 88.2292 91.941 87.5934C92.0675 86.9576 92.3796 86.3735 92.838 85.9151C93.2964 85.4567 93.8804 85.1446 94.5163 85.0182C95.1521 84.8917 95.8111 84.9567 96.41 85.2048C97.0089 85.453 97.5207 85.8732 97.8808 86.4123C98.2408 86.9513 98.4329 87.5851 98.4328 88.2334C98.4326 89.1024 98.0872 89.9358 97.4726 90.5503C96.858 91.1647 96.0253 91.5099 95.1562 91.5099ZM67.8633 40.174H87.5156V59.8263H67.8633V40.174ZM0.49998 40.174H20.1523V59.8263H0.49998V40.174ZM67.8633 68.5568C67.862 69.7161 67.4009 70.8276 66.5812 71.6473C65.7614 72.4671 64.6499 72.9282 63.4906 72.9294H24.5203C23.361 72.9282 22.2495 72.4671 21.4297 71.6473C20.61 70.8276 20.1489 69.7161 20.1476 68.5568V65.4451H0.49998V84.4935C0.505542 86.6361 1.35884 88.6895 2.87347 90.205C4.3881 91.7205 6.44095 92.575 8.58357 92.5818H79.4133C81.5629 92.5853 83.6261 91.7355 85.1497 90.219C86.6733 88.7024 87.5326 86.6432 87.539 84.4935V65.4451H67.8633V68.5568ZM79.4273 7.41772H8.59842C6.45647 7.42432 4.40412 8.27807 2.88946 9.79259C1.37479 11.3071 0.520842 13.3594 0.514042 15.5013V34.5544H20.1625V31.4427C20.1625 30.2832 20.6231 29.1711 21.4429 28.3511C22.2628 27.5311 23.3748 27.0703 24.5344 27.0701H63.5047C64.6644 27.0701 65.7766 27.5308 66.5966 28.3508C67.4166 29.1708 67.8773 30.283 67.8773 31.4427V34.5544H87.539V15.5013C87.5314 13.3549 86.6734 11.299 85.153 9.78387C83.6326 8.26875 81.5738 7.41792 79.4273 7.41772Z" fill="#ED1944"/>
</svg>
