<svg width="100" height="100" viewBox="0 0 100 100" fill="none" xmlns="http://www.w3.org/2000/svg">
<path fill-rule="evenodd" clip-rule="evenodd" d="M62.5123 23.6653C59.4303 23.6653 56.9318 26.1754 56.9318 29.2692V44.0809H55.7381V45.2778H56.9318V61.2864C56.9318 64.3833 59.4303 66.8903 62.5123 66.8903C65.5943 66.8903 68.0928 64.3833 68.0928 61.2864V45.2786H69.2928V44.0817H68.0928V29.27C68.0928 26.1762 65.5943 23.6653 62.5123 23.6653ZM62.5123 26.2676V44.0809H59.1232V29.6684C59.1218 28.7681 59.478 27.904 60.1136 27.2662C60.7491 26.6285 61.6119 26.2693 62.5123 26.2676ZM54.142 28.4653L47.0311 28.6145L52.8732 32.4473L53.0014 32.4059V32.4684L54.142 28.4653ZM53.0014 32.4676L52.9865 32.5215L52.8732 32.4473L46.2061 34.5137L52.8732 36.5864L52.9865 36.5122L53.0014 36.5629V32.4676ZM53.0014 36.5629V36.6278L52.8732 36.5864L47.0311 40.4192L54.142 40.5653L53.0014 36.5629ZM70.8834 28.4653L72.0295 32.4708V32.4051L72.1576 32.4465L77.9943 28.6137L70.8834 28.4653ZM72.1576 32.4465L72.0443 32.5208L72.0295 32.4708V36.5622L72.0443 36.5114L72.1576 36.5856L78.8193 34.5129L72.1576 32.4465ZM72.1576 36.5856L72.0295 36.627V36.5622L70.8834 40.5645L77.9943 40.4184L72.1576 36.5856ZM60.8209 32.47C60.16 32.47 59.6209 33.0059 59.6209 33.67C59.6209 33.9885 59.7472 34.2941 59.9722 34.5196C60.1971 34.7451 60.5023 34.8723 60.8209 34.8731C61.4818 34.8731 62.0146 34.334 62.0146 33.67C62.0153 33.5127 61.9849 33.3569 61.9252 33.2115C61.8655 33.066 61.7777 32.9338 61.6668 32.8223C61.5559 32.7108 61.4241 32.6223 61.2789 32.5619C61.1338 32.5014 60.9781 32.4702 60.8209 32.47ZM64.21 32.47C64.8678 32.47 65.4037 33.0059 65.4037 33.67C65.4037 34.334 64.8678 34.8731 64.21 34.8731C63.8914 34.8723 63.5862 34.7451 63.3612 34.5196C63.1363 34.2941 63.01 33.9885 63.01 33.67C63.01 33.0059 63.549 32.47 64.21 32.47ZM60.8209 35.6708C60.16 35.6708 59.6209 36.2067 59.6209 36.8708C59.6209 37.1893 59.7472 37.4948 59.9722 37.7204C60.1971 37.9459 60.5023 38.0731 60.8209 38.0739C61.4818 38.0739 62.0146 37.5348 62.0146 36.8708C62.0153 36.7135 61.9849 36.5577 61.9252 36.4122C61.8655 36.2668 61.7777 36.1345 61.6668 36.0231C61.5559 35.9116 61.4241 35.8231 61.2789 35.7626C61.1338 35.7022 60.9781 35.671 60.8209 35.6708ZM64.21 35.6708C64.8678 35.6708 65.4037 36.2067 65.4037 36.8708C65.4037 37.5348 64.8678 38.0739 64.21 38.0739C63.8914 38.0731 63.5862 37.9459 63.3612 37.7204C63.1363 37.4948 63.01 37.1893 63.01 36.8708C63.01 36.2067 63.549 35.6708 64.21 35.6708ZM60.8209 38.8747C60.16 38.8747 59.6209 39.4106 59.6209 40.0715C59.6217 40.1083 59.6238 40.1451 59.6271 40.1817C59.6548 40.4799 59.7923 40.7571 60.0129 40.9597C60.2335 41.1622 60.5214 41.2756 60.8209 41.2778C61.1192 41.2772 61.4066 41.165 61.6265 40.9634C61.8463 40.7617 61.9829 40.4851 62.0092 40.1879V40.1817C62.0126 40.1451 62.0146 40.1083 62.0154 40.0715C62.0156 39.9146 61.9849 39.7591 61.925 39.614C61.8652 39.4689 61.7773 39.337 61.6664 39.2259C61.5556 39.1147 61.4239 39.0265 61.279 38.9662C61.134 38.906 60.9779 38.8749 60.8209 38.8747ZM64.21 38.8747C64.3669 38.8749 64.5223 38.906 64.6673 38.9662C64.8122 39.0265 64.9439 39.1147 65.0547 39.2259C65.1656 39.337 65.2534 39.4689 65.3133 39.614C65.3732 39.7591 65.4039 39.9146 65.4037 40.0715C65.4029 40.1083 65.4008 40.1451 65.3975 40.1817C65.3381 40.795 64.8287 41.2778 64.2092 41.2778C63.5842 41.2778 63.0686 40.7981 63.0154 40.1879V40.1817C63.0121 40.1451 63.01 40.1083 63.0092 40.0715C63.0092 39.4106 63.549 38.8747 64.21 38.8747ZM53.1443 44.0801V61.4856C53.1443 66.6817 57.3404 70.8981 62.5123 70.8981C67.6842 70.8981 71.8803 66.6817 71.8803 61.4856V44.0809H70.6865V61.4864C70.6865 66.0184 67.0271 69.6934 62.5123 69.6934C57.9975 69.6934 54.3443 66.0192 54.3443 61.4864V44.0809L53.1443 44.0801ZM62.5123 45.277H65.9014V57.2567H65.8803L65.9014 57.2864V60.6872L65.8568 61.2325L62.5131 57.2575H65.8811L62.5131 53.2645H65.8873L62.5131 49.2684H65.8959L62.5123 45.277ZM65.8561 61.2348C65.7273 62.0488 65.3059 62.7877 64.6709 63.3129L62.5123 61.2497L65.8561 61.2348ZM57.5334 73.1293V76.3333H67.4975V73.1293H57.5334Z" fill="#E3B019"/>
<path d="M32.7489 44.0819C29.6669 44.0819 27.1685 46.589 27.1685 49.6858V55.6476C27.1685 58.7444 29.6669 61.2546 32.7489 61.2546C35.831 61.2546 38.3325 58.7444 38.3325 55.6476H35.1435C35.1441 55.9626 35.0826 56.2747 34.9626 56.5659C34.8426 56.8572 34.6664 57.122 34.444 57.3452C34.2216 57.5683 33.9575 57.7455 33.6666 57.8665C33.3758 57.9876 33.064 58.0502 32.7489 58.0507C32.1132 58.0488 31.5043 57.7947 31.0559 57.3441C30.6075 56.8935 30.3563 56.2833 30.3575 55.6476V54.2663H35.1427V51.0655H30.3575V49.6866C30.3563 49.0509 30.6075 48.4407 31.0559 47.9901C31.5043 47.5395 32.1132 47.2854 32.7489 47.2835C33.064 47.284 33.3758 47.3466 33.6666 47.4676C33.9575 47.5887 34.2216 47.7659 34.444 47.989C34.6664 48.2122 34.8426 48.477 34.9626 48.7682C35.0826 49.0595 35.1441 49.3716 35.1435 49.6866H38.3325C38.3325 46.5897 35.831 44.0819 32.7489 44.0819ZM51.1552 61.2522H47.9567V49.6835C47.9567 48.3554 46.888 47.2804 45.5653 47.2804C44.9296 47.2822 44.3207 47.5364 43.8723 47.987C43.4239 48.4376 43.1727 49.0478 43.1739 49.6835L43.1825 61.2522H39.9841V49.6835C39.9841 46.5866 42.4825 44.0796 45.5645 44.0796C48.6466 44.0796 51.145 46.5866 51.145 49.6835L51.1536 61.2522M12.3724 49.6835V55.6483C12.3724 58.7452 9.87393 61.2522 6.79189 61.2522C3.70986 61.2522 1.21143 58.7452 1.21143 55.6483V49.6835C1.21143 46.5866 3.70986 44.0796 6.79189 44.0796C9.87393 44.0796 12.3724 46.5866 12.3724 49.6835ZM9.1833 49.6835C9.1833 48.3554 8.11455 47.2804 6.79189 47.2804C6.1562 47.2822 5.54724 47.5364 5.09883 47.987C4.65042 48.4376 4.39924 49.0478 4.40049 49.6835V55.6483C4.39924 56.284 4.65042 56.8942 5.09883 57.3448C5.54724 57.7954 6.1562 58.0496 6.79189 58.0515C7.10675 58.0508 7.4184 57.9882 7.70903 57.8671C7.99965 57.7459 8.26355 57.5687 8.48565 57.3455C8.70774 57.1223 8.88367 56.8576 9.00338 56.5664C9.12309 56.2751 9.18423 55.9632 9.1833 55.6483V49.6835ZM25.4419 49.6835V55.6483C25.4419 58.7452 22.9435 61.2522 19.8614 61.2522C19.033 61.2536 18.2148 61.0694 17.4669 60.7132V66.2937H14.2778V45.2796C14.2778 45.2796 15.5849 45.3812 16.4067 45.2796C17.8216 45.1069 17.8685 44.0796 19.8606 44.0796C22.9427 44.0796 25.4411 46.5866 25.4411 49.6835H25.4419ZM22.2528 49.6835C22.2541 49.0478 22.0029 48.4376 21.5545 47.987C21.1061 47.5364 20.4971 47.2822 19.8614 47.2804C19.5464 47.2809 19.2345 47.3435 18.9437 47.4645C18.6529 47.5856 18.3887 47.7627 18.1663 47.9859C17.944 48.2091 17.7678 48.4738 17.6477 48.7651C17.5277 49.0564 17.4663 49.3685 17.4669 49.6835V55.6483C17.4663 55.9634 17.5277 56.2754 17.6477 56.5667C17.7678 56.858 17.944 57.1228 18.1663 57.3459C18.3887 57.5691 18.6529 57.7463 18.9437 57.8673C19.2345 57.9884 19.5464 58.051 19.8614 58.0515C20.4971 58.0496 21.1061 57.7954 21.5545 57.3448C22.0029 56.8942 22.2541 56.284 22.2528 55.6483V49.6835ZM79.6559 44.0819C76.5708 44.0819 74.0724 46.589 74.0724 49.6858V61.2546H77.2708C77.2637 59.0192 77.2608 56.7838 77.2622 54.5483H82.0474V61.2546H85.2458C85.2395 61.2546 85.2372 57.8179 85.2372 54.5483V49.6858C85.2372 46.589 82.738 44.0819 79.6559 44.0819ZM79.6559 47.2827C80.2916 47.2846 80.9006 47.5387 81.349 47.9893C81.7974 48.4399 82.0486 49.0501 82.0474 49.6858V51.3476H77.2622V49.6858C77.2616 49.3708 77.323 49.0587 77.443 48.7675C77.5631 48.4762 77.7393 48.2114 77.9616 47.9882C78.184 47.7651 78.4482 47.5879 78.739 47.4669C79.0298 47.3458 79.3409 47.2832 79.6559 47.2827ZM90.8161 58.0515H93.2075C93.8432 58.0496 94.4522 57.7954 94.9006 57.3448C95.349 56.8942 95.6002 56.284 95.5989 55.6483H98.788C98.788 58.7452 96.2895 61.2522 93.2075 61.2522H87.627V44.0796H90.8161V58.0515Z" fill="#7D000C"/>
</svg>
