<svg width="100" height="100" viewBox="0 0 100 100" fill="none" xmlns="http://www.w3.org/2000/svg">
<g clip-path="url(#clip0_867_14927)">
<path d="M9.03786 36.4524L9.45453 33.5565C10.4712 26.669 13.292 20.5857 17.7587 15.2107C21.5804 10.5346 26.3956 6.76847 31.8545 4.18569C36.717 1.89403 41.8337 0.427359 47.292 0.0940257C52.0254 -0.197641 56.6295 0.214859 61.1795 1.44403C63.5803 2.091 65.9058 2.99046 68.117 4.12736C71.0129 5.61903 71.4212 7.92319 69.0712 10.119C63.6336 15.2422 57.6066 19.7012 51.117 23.4024C45.8247 26.3946 40.2644 28.886 34.5087 30.844C29.5485 32.5126 24.4815 33.8448 19.342 34.8315C17.4712 35.1982 14.0337 35.7399 9.03369 36.4565L9.03786 36.4524Z" fill="url(#paint0_linear_867_14927)"/>
<path d="M17.2834 38.2555C24.6126 39.9638 32.0501 41.0055 39.5459 41.543C46.0959 42.0138 52.6709 42.0013 59.2418 41.693C65.7876 41.3888 72.2334 40.5013 78.6501 39.3222C80.8834 38.9138 83.0459 38.2305 85.3709 38.293C90.1418 38.4138 93.4293 40.9388 94.5709 45.4388C96.2168 51.9013 96.3001 58.3763 94.5418 64.7972C92.8178 71.2057 89.5159 77.0804 84.9376 81.8847C80.051 87.0593 74.0328 91.0325 67.3543 93.493C60.2084 96.1597 52.8001 97.018 45.1876 96.3263C43.2209 96.1756 41.2699 95.8634 39.3543 95.393C39.1474 95.3412 38.9319 95.3341 38.7221 95.3722C38.5123 95.4103 38.3131 95.4927 38.1376 95.6138C33.0418 98.6222 27.5001 100.043 21.5668 100.001C19.893 99.9744 18.2239 99.8156 16.5751 99.5263C13.3668 99.0013 12.2251 96.0972 14.2084 93.568C15.2918 92.193 16.2751 90.7763 16.8834 89.1347C17.1626 88.3847 17.4251 87.6305 17.6501 86.8597C17.8376 86.316 17.8597 85.7289 17.7136 85.1727C17.5675 84.6164 17.2597 84.116 16.8293 83.7347C13.1376 80.1472 10.0459 76.1097 7.90011 71.4597C3.40845 61.7346 2.94178 51.8055 6.64178 41.7263C7.32533 39.8998 8.13851 38.1244 9.07511 36.4138L9.37511 36.4597C13.2126 37.3222 15.8501 37.9221 17.2834 38.2555Z" fill="url(#paint1_linear_867_14927)"/>
</g>
<defs>
<linearGradient id="paint0_linear_867_14927" x1="2125.68" y1="1363.86" x2="2892.21" y2="2577.56" gradientUnits="userSpaceOnUse">
<stop stop-color="#6595F1"/>
<stop offset="1" stop-color="#336BD7"/>
</linearGradient>
<linearGradient id="paint1_linear_867_14927" x1="4587.56" y1="36.4138" x2="4587.56" y2="6395.25" gradientUnits="userSpaceOnUse">
<stop stop-color="#6595F1"/>
<stop offset="1" stop-color="#336BD7"/>
</linearGradient>
<clipPath id="clip0_867_14927">
<rect width="100" height="100" fill="white"/>
</clipPath>
</defs>
</svg>
