<svg width="100" height="100" viewBox="0 0 100 100" fill="none" xmlns="http://www.w3.org/2000/svg">
<path d="M52.8502 54.5284C48.7518 58.63 48.7518 65.2768 52.8502 69.3784C56.9518 73.4768 63.5987 73.4768 67.6971 69.3784C71.7987 65.2768 71.7987 58.63 67.6971 54.5284C63.5987 50.43 56.9518 50.43 52.8502 54.5284ZM63.9495 65.637C63.467 66.1201 62.894 66.5033 62.2632 66.7648C61.6325 67.0262 60.9565 67.1608 60.2737 67.1608C59.5909 67.1608 58.9148 67.0262 58.2841 66.7648C57.6534 66.5033 57.0804 66.1201 56.5979 65.637C56.1152 65.1545 55.7323 64.5817 55.471 63.9512C55.2097 63.3207 55.0753 62.6449 55.0753 61.9624C55.0753 61.2799 55.2097 60.6041 55.471 59.9736C55.7323 59.3431 56.1152 58.7702 56.5979 58.2878C57.0804 57.8047 57.6534 57.4215 58.2841 57.16C58.9148 56.8985 59.5909 56.764 60.2737 56.764C60.9565 56.764 61.6325 56.8985 62.2632 57.16C62.894 57.4215 63.467 57.8047 63.9495 58.2878C65.9792 60.3081 65.9792 63.6073 63.9495 65.637ZM67.5237 2.86825L61.0901 9.30106C60.4844 9.9113 60.1446 10.7362 60.1446 11.596C60.1446 12.4558 60.4844 13.2807 61.0901 13.8909L86.2065 39.0073C86.8167 39.613 87.6416 39.9528 88.5014 39.9528C89.3612 39.9528 90.1861 39.613 90.7963 39.0073L97.2292 32.5737C98.487 31.3159 98.487 29.2448 97.2292 27.9878L72.1018 2.86746C71.4931 2.26348 70.6703 1.92456 69.8127 1.92456C68.9552 1.92456 68.1324 2.26426 67.5237 2.86825ZM22.4518 85.0737C23.0003 84.5228 23.3083 83.777 23.3083 82.9995C23.3083 82.222 23.0003 81.4762 22.4518 80.9253L19.1838 77.6542C18.6321 77.1063 17.886 76.7988 17.1084 76.7988C16.3309 76.7988 15.5848 77.1063 15.0331 77.6542L8.27993 84.4112L8.26743 84.4206L6.41509 82.5651C5.38931 81.5393 3.71978 81.5393 2.70415 82.5651C1.67837 83.5901 1.67837 85.2597 2.70415 86.2761L13.8338 97.4026C14.0771 97.6464 14.3661 97.8397 14.6842 97.9716C15.0024 98.1036 15.3434 98.1715 15.6877 98.1715C16.0321 98.1715 16.3731 98.1036 16.6913 97.9716C17.0094 97.8397 17.2983 97.6464 17.5416 97.4026C18.5573 96.3768 18.5674 94.7073 17.5416 93.6948L15.6862 91.8393L15.6987 91.83L22.4518 85.0737Z" fill="#F5A800"/>
<path d="M56.482 21.3386L42.1906 35.6293C40.9211 36.8988 40.9211 38.9894 42.1906 40.2589L51.0156 49.0816C57.2531 44.5925 66 45.148 71.6117 50.7636L78.7586 43.616C80.0257 42.3464 80.0257 40.2589 78.7586 38.9894L61.1093 21.3386C60.8057 21.0346 60.4451 20.7934 60.0482 20.6289C59.6512 20.4643 59.2258 20.3796 58.7961 20.3796C58.3664 20.3796 57.9409 20.4643 57.544 20.6289C57.147 20.7934 56.7857 21.0346 56.482 21.3386ZM47.3047 52.8011L42.0922 47.5886C40.8711 46.3683 38.8695 46.3683 37.6515 47.5886L19.2687 65.9793C18.6823 66.5699 18.3533 67.3685 18.3533 68.2007C18.3533 69.033 18.6823 69.8316 19.2687 70.4222L29.6836 80.8379C30.2742 81.4245 31.073 81.7537 31.9054 81.7537C32.7379 81.7537 33.5366 81.4245 34.1273 80.8379L45.9492 68.9964C43.45 63.8332 43.8984 57.5957 47.3047 52.8011Z" fill="#425CC7"/>
</svg>
