<svg width="100" height="100" viewBox="0 0 100 100" fill="none" xmlns="http://www.w3.org/2000/svg">
<g clip-path="url(#clip0_1085_3350)">
<path d="M42.8193 33.7206C44.088 31.7384 45.3542 29.7546 46.6177 27.769C40.1271 28.2573 34.1248 29.9425 29.0466 32.5112C29.8287 33.9745 30.8435 35.8128 31.6263 37.2347C34.428 36.193 37.3543 35.5237 40.3302 35.244C40.833 35.1936 41.3179 35.0305 41.7488 34.7667C42.1798 34.503 42.5457 34.1454 42.8193 33.7206Z" fill="#ABD038"/>
<path d="M66.5149 43.0842C67.9267 43.7545 69.2978 43.9577 71.2173 43.9577C74.7306 43.9577 81.3634 43.9678 85.0095 43.978C81.8001 38.6452 76.2954 34.2077 69.3993 31.303C66.9517 32.9381 59.9438 37.6303 58.8267 38.3709C63.254 40.5342 65.1235 42.4233 66.5149 43.0842Z" fill="#EE332D"/>
<path d="M47.9586 27.6861C47.7665 28.2549 46.0399 33.4346 45.4915 35.1104C48.2743 35.2322 50.9555 35.6588 53.4641 36.3596C54.9601 36.7797 56.5595 36.6202 57.943 35.9127L68.0586 30.7533C62.8282 28.7525 56.8766 27.6143 50.5493 27.6143C49.6853 27.6183 48.8215 27.6423 47.9586 27.6861Z" fill="#F2BA1A"/>
<path d="M15.1639 45.36L18.4443 45.3701C18.8812 45.371 19.3135 45.2812 19.7138 45.1064C20.1141 44.9315 20.4738 44.6755 20.7701 44.3545C22.5475 42.4154 24.7311 40.7092 27.2389 39.2967C27.6763 39.055 28.0288 38.6847 28.2488 38.236C28.4687 37.7873 28.5455 37.2819 28.4686 36.7881C28.2803 35.5686 28.0873 34.3498 27.8896 33.1318C22.1709 36.2295 17.7232 40.4545 15.1639 45.36Z" fill="#3DAE2B"/>
<path d="M94.6172 48.06H93.8657V50.0194H93.2055V48.06H92.4438V47.4905H94.6172V48.06ZM97.7352 47.4905V50.0194H97.1157V48.1006H97.1055L96.5774 50.0194H96.0696L95.5415 48.1006H95.5313V50.0194H94.911V47.4913H95.886L96.3235 49.178L96.761 47.4913M16.2907 50.1717C15.4773 49.2285 14.4686 48.4733 13.3344 47.9584C12.1766 47.41 10.8563 47.1358 9.39458 47.1358C7.9313 47.1358 6.62115 47.4092 5.45396 47.9584C4.32799 48.4855 3.3225 49.2386 2.50005 50.1709C1.68231 51.1306 1.05497 52.2373 0.651615 53.4319C0.216302 54.7002 -0.0039211 56.0324 5.28354e-05 57.3733C5.28354e-05 58.7749 0.213334 60.1053 0.650053 61.3436C1.07662 62.5827 1.69615 63.6694 2.49849 64.6045C3.30083 65.5389 4.28599 66.2694 5.45396 66.8077C6.61177 67.3467 7.93208 67.6209 9.39458 67.6209C10.8571 67.6209 12.1672 67.3475 13.3344 66.8084C14.4652 66.2921 15.473 65.5408 16.2907 64.6045C17.1084 63.6449 17.7358 62.5382 18.1391 61.3436C18.5742 60.0653 18.7939 58.7236 18.7891 57.3733C18.7891 55.9819 18.5758 54.6709 18.1391 53.4327C17.736 52.2382 17.1089 51.1315 16.2915 50.1717H16.2907ZM15.011 60.1163C14.7774 61.01 14.4329 61.8124 13.9547 62.5131C13.4803 63.2134 12.8469 63.7913 12.1063 64.1999C11.3446 64.6155 10.4415 64.8295 9.40474 64.8295C8.35865 64.8295 7.46568 64.6163 6.70318 64.1999C5.95788 63.7979 5.32304 63.2186 4.85474 62.5131C4.36334 61.7831 4.00569 60.9715 3.79849 60.1163C3.56621 59.2208 3.45016 58.2992 3.45318 57.3741C3.45318 56.4405 3.56568 55.5264 3.79849 54.6319C4.03287 53.7381 4.3774 52.9358 4.85474 52.235C5.33234 51.5378 5.96504 50.9607 6.70318 50.5491C7.46568 50.1327 8.3688 49.9186 9.40474 49.9186C10.4508 49.9186 11.3446 50.1319 12.1063 50.5491C12.8515 50.9508 13.4863 51.5298 13.9547 52.235C14.4461 52.965 14.8038 53.7766 15.011 54.6319C15.2433 55.5273 15.3593 56.449 15.3563 57.3741C15.3543 58.2989 15.2384 59.2199 15.011 60.1163ZM33.3329 54.8147C32.7733 54.1268 32.0649 53.5749 31.261 53.2006C30.4282 52.8045 29.4532 52.6116 28.336 52.6116C27.4574 52.6051 26.5878 52.7887 25.7868 53.1499C24.9954 53.5053 24.3852 54.0936 23.9485 54.9163H23.8977V52.9866H20.9321V72.385H24.0602V65.3163H24.111C24.3454 65.703 24.6493 66.0374 25.0047 66.3116C25.3603 66.5973 25.7532 66.8331 26.1727 67.0124C26.5957 67.1959 27.0389 67.3288 27.493 67.4084C27.9453 67.4893 28.4039 67.5301 28.8633 67.5303C29.9102 67.5303 30.8133 67.3272 31.5852 66.9108C32.3398 66.5162 32.9934 65.9533 33.4954 65.2655C34.0032 64.585 34.379 63.7928 34.6227 62.8991C34.8665 62.0064 34.9881 61.0821 34.9876 60.1264C34.9933 59.133 34.8533 58.1441 34.5719 57.1913C34.3151 56.327 33.8944 55.5201 33.3329 54.8147ZM31.6477 61.9038C31.5055 62.492 31.2821 63.0311 30.9571 63.4975C30.6357 63.9587 30.2203 64.3466 29.7383 64.6358C29.2415 64.9303 28.6422 65.0733 27.9305 65.0733C27.2915 65.0733 26.7219 64.9405 26.2446 64.6866C25.7563 64.4337 25.3295 64.0766 24.9946 63.6405C24.6339 63.1718 24.3685 62.637 24.2133 62.0663C24.0337 61.4184 23.9448 60.7487 23.9493 60.0764C23.9493 58.5631 24.2852 57.3436 24.9547 56.4303C25.6251 55.5163 26.6204 55.0592 27.9313 55.0592C28.5709 55.0592 29.1394 55.2014 29.6368 55.4858C30.1265 55.7676 30.5492 56.1522 30.8758 56.6131C31.2193 57.098 31.4706 57.642 31.6172 58.2178C31.7797 58.817 31.8602 59.4467 31.8602 60.0772C31.8568 60.692 31.7855 61.3046 31.6477 61.9038ZM48.2938 55.1499C47.7021 54.3769 46.9458 53.7452 46.0797 53.3006C45.1961 52.8342 44.1915 52.6006 43.0735 52.6006C42.0071 52.6006 41.0618 52.8038 40.2196 53.1991C39.3766 53.6053 38.6555 54.1444 38.0665 54.835C37.4583 55.5337 36.9926 56.3444 36.6954 57.2217C36.3704 58.1256 36.218 59.0811 36.218 60.0858C36.218 61.1827 36.3704 62.1879 36.6751 63.1014C36.9797 64.0155 37.4266 64.7975 38.0157 65.4584C38.6213 66.1247 39.3671 66.6484 40.1993 66.992C41.0618 67.3577 42.0477 67.5405 43.1649 67.5405C43.9141 67.5444 44.6598 67.4383 45.3782 67.2256C46.0633 67.0255 46.7091 66.7095 47.2876 66.2913C47.8635 65.8794 48.3565 65.3626 48.7407 64.7678C49.1469 64.1686 49.4305 63.4788 49.5938 62.7163H46.6282C46.3542 63.4986 45.9378 64.0876 45.379 64.4834C44.8204 64.8795 44.079 65.0717 43.1657 65.0717C42.5047 65.0717 41.936 64.96 41.4586 64.7272C41.0017 64.5158 40.5989 64.2032 40.2805 63.8131C39.9601 63.4173 39.7218 62.9616 39.5797 62.4725C39.4245 61.9555 39.3455 61.4186 39.3454 60.8788H49.7766C49.9094 59.8217 49.8383 58.7959 49.5735 57.7905C49.3158 56.838 48.8817 55.9423 48.2938 55.1499ZM39.3352 58.8256C39.3498 58.3164 39.4564 57.814 39.6501 57.3428C39.8312 56.9024 40.093 56.4997 40.4219 56.1553C40.7493 55.8145 41.1435 55.5448 41.5797 55.3631C42.0266 55.1702 42.5243 55.0788 43.0719 55.0788C43.6008 55.0788 44.0876 55.1803 44.5149 55.3928C44.9286 55.5958 45.3005 55.8749 45.611 56.2155C45.9157 56.5514 46.1493 56.9467 46.3219 57.403C46.4961 57.86 46.5969 58.3381 46.6368 58.8249L39.3352 58.8256ZM62.6657 53.8092C61.7719 53.0069 60.543 52.5999 58.9891 52.5999C58.054 52.5999 57.2008 52.8241 56.4399 53.2702C55.668 53.717 55.0485 54.3366 54.5711 55.1186L54.5204 55.0678V52.9858H51.5547V67.1545H54.6829V58.7952C54.6829 58.2874 54.7649 57.8006 54.9266 57.3428C55.0783 56.9063 55.3128 56.5031 55.6172 56.1553C55.9132 55.8197 56.2762 55.5499 56.6829 55.3631C57.0993 55.1702 57.5766 55.0788 58.1157 55.0788C59.0501 55.0788 59.7407 55.3327 60.1782 55.8303C60.6149 56.328 60.8579 57.1405 60.8891 58.2577V67.1631H64.0172V57.4342C64.0165 55.8186 63.5586 54.6116 62.6657 53.8092ZM79.6672 59.4967C79.5149 60.7155 79.0782 61.7202 78.3868 62.4827C77.7071 63.2241 76.7422 63.61 75.5235 63.61C74.6094 63.61 73.8368 63.4374 73.2079 63.0819C72.5911 62.7465 72.0624 62.27 71.6649 61.6913C71.2567 61.0852 70.9609 60.4107 70.7915 59.6999C70.6081 58.9488 70.516 58.1784 70.5172 57.4053C70.5172 56.5827 70.6079 55.7803 70.7907 55.0084C70.961 54.2823 71.2569 53.5914 71.6649 52.967C72.0575 52.3787 72.587 51.8942 73.2079 51.5553C73.8376 51.21 74.6204 51.0272 75.5235 51.0272C76.0079 51.026 76.4889 51.1081 76.9454 51.2702C77.8193 51.5782 78.5635 52.1726 79.0571 52.9569C79.2934 53.3377 79.4492 53.7628 79.5149 54.2061L79.5454 54.3991H84.0954L84.0641 54.1444C83.9321 53.0069 83.618 51.9803 83.1204 51.0975C82.639 50.2328 81.9895 49.4731 81.2102 48.8631C80.4313 48.2561 79.5511 47.7919 78.6102 47.492C77.6461 47.178 76.6102 47.0256 75.5329 47.0256C74.0196 47.0256 72.6383 47.2889 71.4501 47.828C70.2883 48.3401 69.2494 49.0948 68.4032 50.0413C67.5805 50.9764 66.9407 52.0827 66.4938 53.342C66.0563 54.6022 65.8329 55.9624 65.8329 57.3944C65.8329 58.7959 66.0563 60.1366 66.4938 61.3756C66.9313 62.6147 67.5704 63.7124 68.4032 64.6256C69.2523 65.5617 70.2909 66.3063 71.4501 66.81C72.6376 67.3381 74.0196 67.6124 75.5329 67.6124C76.7422 67.6124 77.8688 67.4194 78.8743 67.0436C79.8605 66.6843 80.7651 66.1319 81.5352 65.4186C82.3059 64.697 82.9271 63.8308 83.3633 62.8694C83.8212 61.8842 84.1055 60.7569 84.2172 59.5381L84.2375 59.2944H79.6969L79.6672 59.4967ZM90.6251 63.1514V47.4905H85.9321V67.1538H100V63.1522L90.6251 63.1514Z" fill="#010101"/>
</g>
<defs>
<clipPath id="clip0_1085_3350">
<rect width="100" height="100" fill="white"/>
</clipPath>
</defs>
</svg>
