<svg width="100" height="100" viewBox="0 0 100 100" fill="none" xmlns="http://www.w3.org/2000/svg">
<g clip-path="url(#clip0_1085_3337)">
<path d="M26.4268 57.4666H0.0361328L0.0509766 57.8502L0.0970703 58.5884C0.101237 58.6947 0.107487 58.8009 0.11582 58.9072C0.166893 59.5725 0.231489 60.2367 0.30957 60.8994C0.30957 60.9314 0.314258 60.9587 0.318945 60.9916C0.360352 61.3283 0.401758 61.6697 0.452539 62.0072C0.452018 62.0113 0.453581 62.0155 0.457227 62.0197C0.759854 64.1187 1.2147 66.1929 1.81816 68.2259C1.82285 68.2353 1.82754 68.24 1.82754 68.2494C1.92622 68.5893 2.03041 68.9276 2.14004 69.2642C2.14473 69.2822 2.15488 69.3009 2.15957 69.3189C2.25176 69.6056 2.35332 69.8916 2.4502 70.1814C2.47832 70.2517 2.5002 70.3244 2.52832 70.3994C2.6166 70.6439 2.70332 70.8931 2.79551 71.1416C2.84238 71.2517 2.88301 71.3626 2.92598 71.4783C3.00801 71.6814 3.08613 71.8837 3.16504 72.0931C3.23014 72.2431 3.29473 72.3968 3.35879 72.5541C3.42285 72.7103 3.49238 72.872 3.55723 73.033C3.64577 73.2267 3.73171 73.4205 3.81504 73.6142C3.86973 73.734 3.92207 73.8509 3.97207 73.965C4.07832 74.1947 4.18926 74.4314 4.3002 74.6619L4.41035 74.8869C4.54056 75.1546 4.67285 75.4192 4.80723 75.6806C4.83066 75.722 4.84863 75.7634 4.86738 75.8009C5.02517 76.1075 5.18664 76.4123 5.35176 76.715C5.38457 76.7744 5.42129 76.8345 5.45332 76.89L27.9916 63.3822L28.0744 63.3314C27.1914 61.4863 26.6342 59.5024 26.4275 57.4673L26.4268 57.4666Z" fill="#91D400"/>
<path d="M2.14053 69.2646L1.28271 69.5092L1.29209 69.5326L2.14053 69.2646Z" fill="#91D400"/>
<path d="M32.9087 69.521L32.8493 69.5866L14.2603 88.0866C14.3571 88.1741 14.4493 88.2624 14.5462 88.3499C14.7217 88.5077 14.8972 88.6629 15.0728 88.8155C15.1649 88.8944 15.2524 88.9772 15.3446 89.0562C15.5571 89.2348 15.7696 89.4116 15.9821 89.5866C16.0368 89.6374 16.097 89.6835 16.1524 89.728C16.4201 89.9523 16.6923 90.1711 16.9688 90.3843C17.2368 90.5913 17.5001 90.7905 17.7673 90.9937C17.7813 91.0022 17.7907 91.0069 17.7985 91.0171C18.9197 91.8527 20.081 92.633 21.2782 93.3554C21.3196 93.3835 21.361 93.4062 21.4024 93.4343L22.0853 93.8358C22.2228 93.914 22.3665 93.9921 22.5056 94.0757C22.6384 94.1491 22.7673 94.2241 22.9024 94.2968C23.147 94.4265 23.3868 94.5601 23.6306 94.6843C24.3387 95.0536 25.0573 95.4027 25.7853 95.7312L26.4454 94.1397L35.797 71.5421L35.829 71.4593C34.7948 70.9101 33.8167 70.2604 32.9087 69.521Z" fill="#4C5930"/>
<path d="M30.9764 67.6829C30.6037 67.2645 30.2492 66.8302 29.9139 66.3813C29.7339 66.1442 29.5619 65.9011 29.3982 65.6524C29.2309 65.4071 29.0694 65.1578 28.9139 64.9048L6.34668 78.436C6.69824 79.0095 7.05762 79.5665 7.42637 80.1157C7.44043 80.1352 7.44981 80.1579 7.46309 80.1767L7.47715 80.1954C7.48652 80.2126 7.50059 80.2306 7.5084 80.2501C7.51387 80.254 7.51387 80.254 7.51387 80.2587C7.54668 80.3001 7.57402 80.3415 7.60606 80.3892C7.60606 80.3938 7.60605 80.3938 7.61074 80.397V80.4017C8.00964 80.989 8.42358 81.566 8.85215 82.1321C8.86152 82.1462 8.8709 82.1556 8.87559 82.1688C9.05996 82.4048 9.23965 82.6454 9.42324 82.8798C9.45055 82.9086 9.47562 82.9394 9.49824 82.972C9.69095 83.2116 9.88626 83.4517 10.0842 83.6923C10.132 83.7474 10.1778 83.8042 10.2217 83.8626C10.4024 84.0761 10.5824 84.2868 10.7615 84.4946C10.8412 84.5868 10.9232 84.6743 11.0014 84.7626C11.155 84.9376 11.3105 85.1126 11.4678 85.2876C11.5553 85.3845 11.6475 85.4767 11.735 85.5735C11.7725 85.6149 11.8139 85.6626 11.8553 85.704L12.2014 86.0767L12.3443 86.2196C12.5516 86.4368 12.7607 86.6496 12.9717 86.8579L31.5826 68.3337C31.3764 68.1202 31.1738 67.9032 30.9748 67.6829H30.9764Z" fill="#68A338"/>
<path d="M55.6483 69.5149C55.4405 69.6758 55.2381 69.8376 55.0256 69.9946L55.0725 70.0727L68.6436 92.4946C69.2723 92.0855 69.8907 91.6609 70.4983 91.2211C71.8246 90.2469 73.0967 89.201 74.3092 88.0883L55.7233 69.5883L55.6483 69.5149Z" fill="#4C5930"/>
<path d="M66.9563 93.545C67.0179 93.5138 67.0781 93.4799 67.1367 93.4434L67.132 93.4387C67.0734 93.4762 67.0164 93.509 66.9563 93.545ZM66.9195 93.5637L66.9148 93.5692C66.9195 93.5637 66.9242 93.5637 66.9289 93.559C66.9242 93.5637 66.9242 93.5637 66.9195 93.5637Z" fill="#91D400"/>
<path d="M66.9564 93.5452C67.0165 93.5101 67.0767 93.4812 67.1368 93.4437C67.0764 93.4801 67.0162 93.514 66.9564 93.5452ZM66.672 92.6773L66.2095 91.9163L53.5407 70.9851C53.2861 71.1388 53.026 71.2835 52.761 71.4187C52.4978 71.5616 52.2298 71.6905 51.9626 71.8202C49.5542 72.9602 46.9233 73.5528 44.2587 73.5554C42.5214 73.5557 40.7931 73.3052 39.1274 72.8116C38.8462 72.7241 38.5688 72.614 38.2884 72.5163C38.0071 72.4155 37.7212 72.3319 37.4438 72.2171L28.1017 94.7952L27.736 95.6819L27.4235 96.4421H27.4188L27.4923 96.4702C27.5204 96.4851 27.5431 96.4898 27.5704 96.5023H27.5759C27.5806 96.5023 27.5837 96.5069 27.5892 96.5069C27.811 96.5991 28.0313 96.6788 28.2532 96.7608C28.5345 96.8718 28.8131 96.978 29.0892 97.0796C29.2313 97.1296 29.3704 97.1944 29.5142 97.2405C32.4427 98.2683 35.4698 98.9904 38.547 99.3952C38.6704 99.4093 38.7915 99.428 38.9103 99.4421L39.2884 99.4835C39.5243 99.5108 39.761 99.539 39.9993 99.5616L40.1751 99.5757C40.4699 99.6028 40.7621 99.6273 41.0517 99.6491C41.1485 99.6538 41.2501 99.6585 41.347 99.6679C41.6056 99.6866 41.8587 99.6991 42.1126 99.714C42.2688 99.7181 42.4259 99.7244 42.5837 99.7327C42.7868 99.7374 42.9884 99.746 43.1915 99.7507C43.4821 99.7601 43.7774 99.7601 44.0728 99.7647H44.2806C46.7399 99.7647 49.1985 99.5616 51.6306 99.1554L51.7548 99.1374C52.0095 99.0905 52.2665 99.0444 52.5259 98.9991C52.6735 98.971 52.8165 98.9444 52.9634 98.9109C53.1123 98.8827 53.2634 98.852 53.4165 98.8187C53.666 98.7673 53.9148 98.712 54.1626 98.653L54.3024 98.6249C57.9953 97.7656 61.5638 96.4399 64.922 94.6796C65.1431 94.5655 65.3556 94.4358 65.5767 94.3163C65.836 94.1726 66.0946 94.0267 66.3524 93.8788C66.5321 93.7773 66.7165 93.6843 66.8923 93.578L66.897 93.5733H66.9017L66.9056 93.5686C66.9092 93.5692 66.9108 93.5676 66.9103 93.564H66.9149C66.9202 93.5603 66.9233 93.5588 66.9243 93.5593C66.9342 93.5509 66.9431 93.5447 66.9509 93.5405C67.0123 93.5062 67.0712 93.4707 67.1274 93.4343L66.672 92.6773ZM32.922 41.8647C33.1251 41.6983 33.3337 41.5413 33.5399 41.3843L33.4938 41.3062L19.9259 18.8843C19.2931 19.2927 18.6717 19.7186 18.0626 20.1616C16.7374 21.1324 15.468 22.177 14.2603 23.2905L32.8493 41.7905L32.922 41.8647Z" fill="#91D400"/>
<path d="M12.9688 24.5223C12.7555 24.7348 12.5586 24.9504 12.3508 25.1629C12.1477 25.3754 11.9344 25.5887 11.7328 25.8043C10.3149 27.336 9.00446 28.9639 7.81094 30.6762C7.68594 30.8606 7.55625 31.045 7.43281 31.2309C7.30209 31.4242 7.17447 31.6195 7.05 31.8168C7.00313 31.8861 6.95703 31.9567 6.91172 32.0286C2.7188 38.5831 0.346418 46.1358 0.0382813 53.9106C0.0275503 54.2074 0.0197374 54.5043 0.0148437 54.8012C0.00859375 55.0965 0 55.3918 0 55.6872H26.3266C26.3266 55.3918 26.3531 55.0965 26.3656 54.8012C26.3805 54.5012 26.3852 54.2059 26.4172 53.9106C26.7637 50.4069 28.1453 47.0857 30.3859 44.37C30.5742 44.1434 30.7867 43.927 30.9844 43.7098C31.1875 43.4879 31.3727 43.2622 31.5844 43.0497L12.9688 24.5223ZM67.2891 18.0168C67.0211 17.8562 66.7519 17.6979 66.4812 17.5418C66.343 17.4629 66.2094 17.3848 66.0703 17.3106C65.932 17.2325 65.7984 17.159 65.6602 17.0801C65.4232 16.9495 65.1847 16.8219 64.9445 16.6973C64.9081 16.6796 64.8716 16.6598 64.8352 16.6379C63.2943 15.8398 61.7089 15.1308 60.0867 14.5145C60.0453 14.4965 59.9992 14.4833 59.957 14.4684C56.7532 13.2597 53.42 12.4265 50.0242 11.9856C49.9047 11.9684 49.7797 11.9543 49.6555 11.9364L49.2859 11.8942C48.9806 11.8597 48.6748 11.829 48.3687 11.802C48.0859 11.7751 47.8028 11.7506 47.5195 11.7286C47.4094 11.7239 47.2984 11.7145 47.1883 11.7098C46.9477 11.6918 46.6984 11.6778 46.4586 11.6629L46.0711 11.6497V37.9153C47.4309 38.0553 48.7709 38.3462 50.0664 38.7825L69.4898 19.4512C68.7693 18.9533 68.0355 18.475 67.2891 18.0168Z" fill="#4C5930"/>
<path d="M43.39 11.6318C43.0947 11.6365 42.7947 11.6365 42.4994 11.6498C40.6354 11.7239 38.7777 11.913 36.9369 12.2162C36.8947 12.2271 36.8541 12.2318 36.8119 12.2396C36.5533 12.2826 36.2994 12.3333 36.0416 12.3794L35.6041 12.4623C35.4502 12.4935 35.2994 12.5208 35.151 12.5591C34.855 12.6207 34.5597 12.6852 34.265 12.7529C30.5708 13.6108 27.0005 14.9347 23.64 16.6927C23.4229 16.8084 23.2057 16.9404 22.99 17.0615C22.7314 17.2005 22.4729 17.3482 22.2104 17.4959C22.0213 17.6052 21.8268 17.7083 21.6322 17.8232H21.6291C21.6159 17.8324 21.6017 17.8403 21.5869 17.8466C21.5361 17.8779 21.4854 17.9013 21.4346 17.9341L21.4393 17.9388L21.8963 18.699L35.026 40.3919C35.2799 40.2357 35.5432 40.0966 35.8057 39.9583C37.8809 38.8432 40.1559 38.149 42.5002 37.9154C42.7955 37.8826 43.09 37.8599 43.3908 37.8412C43.6854 37.8279 43.9854 37.8138 44.2854 37.8138V11.613C43.9854 11.613 43.69 11.6224 43.39 11.6318Z" fill="#68A338"/>
<path d="M88.5155 53.5227L88.4741 52.8165C88.4647 52.6961 88.46 52.5805 88.4506 52.4618L88.3819 51.6305C88.373 51.5592 88.3668 51.4883 88.3631 51.418C88.3316 51.1087 88.2977 50.7995 88.2616 50.4907C88.2577 50.4633 88.2577 50.4399 88.2538 50.4172C88.2538 50.404 88.2538 50.3938 88.2483 50.3797C88.2069 50.0493 88.1655 49.7157 88.1139 49.3844C88.1144 49.3714 88.1131 49.3602 88.11 49.3508C87.8077 47.2553 87.3526 45.1847 86.7483 43.1555C86.6497 42.827 86.5481 42.4994 86.4436 42.1727C86.4295 42.131 86.4176 42.0896 86.4077 42.0485C86.31 41.7625 86.2178 41.4813 86.1163 41.1993C86.0889 41.125 86.0655 41.0469 86.0381 40.9688C85.9087 40.6091 85.7749 40.251 85.6366 39.8946C85.5579 39.6904 85.4793 39.4888 85.4006 39.2899C85.3366 39.1284 85.2722 38.9696 85.2077 38.8133C85.1428 38.6571 85.0733 38.5055 85.0092 38.3485L84.7459 37.7532L84.5936 37.4165C84.4874 37.1805 84.3717 36.9415 84.2616 36.7055C84.2241 36.6368 84.192 36.5633 84.16 36.493C84.0267 36.2222 83.8928 35.9532 83.7584 35.686C83.7407 35.6495 83.7212 35.6125 83.6999 35.575C83.5459 35.2797 83.3936 34.9844 83.2334 34.6938L83.2194 34.6672C82.4545 33.2655 81.6133 31.9067 80.6999 30.5969L61.2717 49.9329C61.7107 51.2225 62.0017 52.5579 62.1389 53.9133H88.5295L88.5155 53.5227Z" fill="#4C5930"/>
<path d="M62.2421 55.6865C62.2421 55.9881 62.214 56.2826 62.1999 56.5779C62.1858 56.8732 62.1812 57.1717 62.1491 57.4678C61.8027 60.9717 60.4211 64.2932 58.1804 67.0092C57.9913 67.2357 57.7851 67.4521 57.5819 67.6686C57.3835 67.8904 57.1944 68.117 56.9819 68.3287L75.5976 86.8553C75.8108 86.6428 76.0077 86.4256 76.2155 86.2139C76.4187 85.9975 76.6312 85.785 76.8296 85.5678C78.1921 84.1058 79.4529 82.5521 80.603 80.9178C80.6499 80.8529 80.6905 80.7881 80.7335 80.7287C80.8718 80.5303 81.0093 80.3272 81.1429 80.1287C81.2632 79.949 81.3827 79.7748 81.4976 79.5936C81.5538 79.5061 81.6093 79.4131 81.6647 79.3303C85.8536 72.7802 88.2213 65.2322 88.5241 57.4631C88.539 57.1678 88.5437 56.8725 88.553 56.5771C88.5569 56.2818 88.5663 55.9865 88.5663 55.6865H62.2421Z" fill="#68A338"/>
<path d="M96.3876 3.82861C91.5697 -0.964356 83.7642 -0.964356 78.9478 3.82861C75.1041 7.64893 74.3384 13.3661 76.6275 17.9552L49.7611 44.6958C45.1478 42.4224 39.4033 43.1841 35.5603 47.0083C30.7439 51.8021 30.7478 59.5747 35.5603 64.37C40.3806 69.163 48.1884 69.1583 53.0048 64.37C54.8275 62.5568 56.0326 60.2156 56.4491 57.6786C56.8656 55.1417 56.4724 52.538 55.3251 50.2372L82.19 23.4981C86.8033 25.7771 92.5416 25.0106 96.3869 21.1864C97.5318 20.0497 98.4404 18.6976 99.0605 17.2082C99.6806 15.7187 99.9998 14.1213 99.9998 12.5079C99.9998 10.8945 99.6806 9.29711 99.0605 7.80765C98.4404 6.31819 97.5318 4.96614 96.3869 3.82939L96.3876 3.82861Z" fill="#3F3F42"/>
</g>
<defs>
<clipPath id="clip0_1085_3337">
<rect width="100" height="100" fill="white"/>
</clipPath>
</defs>
</svg>
