<svg width="100" height="100" viewBox="0 0 100 100" fill="none" xmlns="http://www.w3.org/2000/svg">
<path fill-rule="evenodd" clip-rule="evenodd" d="M21.3771 59.8475C16.6287 59.8475 14.2724 56.9999 13.3482 54.0249C14.3794 58.8647 19.949 63.5796 37.524 65.6733C54.1318 67.6663 64.938 62.6671 68.5943 60.3421C68.5943 60.3421 71.0599 59.2741 69.5834 60.9217C69.5834 60.9217 59.1162 70.3975 38.6388 70.5194C18.1216 70.6202 1.84975 60.4702 1.93257 50.1733C1.83491 39.9194 18.1224 29.7475 38.6388 29.8303C59.156 29.928 69.5834 39.4249 69.5834 39.4249C71.0638 41.0694 68.5943 40.0108 68.5943 40.0108C64.9474 37.6913 54.1748 33.1202 37.524 34.6796C21.1693 36.2264 15.8287 41.6928 14.0193 45.3421C13.3388 46.7585 13.0271 48.0944 12.9513 49.4374C13.3935 45.9249 15.6185 41.8077 21.3623 41.8077C27.8779 41.8077 29.8552 47.1389 29.8552 50.7889C29.8552 54.4819 27.8654 59.8132 21.3623 59.8132L21.3771 59.8475ZM87.3896 56.3014H96.0505V59.396H83.7302V42.2944H87.3708V56.2803L87.3896 56.3014ZM74.0201 50.1858H81.2927V59.4171H78.8669L78.5037 57.2717C77.5818 58.3217 76.2451 59.8686 73.081 59.8686C68.8849 59.8686 65.0912 56.9178 65.0912 50.9272C65.0912 46.2522 67.7373 41.8608 73.6271 41.8608C78.9646 41.8608 81.0669 45.2663 81.2779 47.6046H77.6373C77.6373 46.9389 76.4013 44.7936 73.8287 44.7936C71.2349 44.7936 68.824 46.5577 68.824 50.946C68.824 55.6241 71.4177 56.8147 73.9115 56.8147C74.7107 56.8147 77.381 56.5061 78.1169 53.0522H74.0646V50.1717L74.0201 50.1858ZM21.463 43.9116C17.6787 43.9116 15.4083 46.8382 15.4083 50.885C15.4083 54.91 17.688 57.8585 21.463 57.8585C25.2474 57.8585 27.5177 54.9288 27.5177 50.885C27.5177 46.86 25.238 43.9116 21.463 43.9116ZM31.2591 48.4678H33.0263V50.0124H33.0693C33.5146 49.3835 34.3662 48.1475 36.3896 48.1475C39.3498 48.1475 41.4771 50.61 41.4771 53.6866C41.4771 56.3022 39.9419 59.7171 36.1365 59.7171C34.6443 59.7171 33.6646 59.0272 33.1794 58.2522H33.1365V63.7483H31.2599L31.2591 48.4678ZM36.0107 58.1452C38.0552 58.1452 39.4412 56.4053 39.4412 54.0038C39.4412 52.5999 38.8646 49.8202 35.9685 49.8202C33.2646 49.8202 32.9654 52.6827 32.9654 54.4561C32.9654 57.3585 34.8209 58.1366 36.0107 58.1366V58.1452ZM52.8287 55.9936C52.7646 56.5124 52.2521 58.0655 50.8482 58.9811C50.3357 59.3171 49.6123 59.7382 47.824 59.7382C44.6927 59.7382 42.8224 57.4155 42.8224 54.2421C42.8224 50.8514 44.4826 48.1694 48.163 48.1694C51.3794 48.1694 52.9544 50.6811 52.9544 54.5686H44.7966C44.7966 56.8514 45.8834 58.1663 48.0349 58.1663C49.8021 58.1663 50.849 56.8296 50.913 56.0116H52.7865L52.8287 55.9936ZM50.8451 53.0882C50.738 51.3944 50.0123 49.8257 47.7326 49.8257C46.0084 49.8257 44.6474 51.3944 44.6474 53.0882H50.8451ZM63.3326 59.4053H61.456V52.6764C61.456 50.778 60.9005 49.8139 59.0724 49.8139C58.0076 49.8139 56.1334 50.485 56.1334 53.4514V59.3991H54.2568V48.4499H56.0271V49.9944H56.0701C56.4763 49.4085 57.5169 48.1327 59.4333 48.1327C61.1576 48.1327 63.3334 48.8225 63.3334 51.9413V59.4061" fill="#B3B3B3"/>
<path fill-rule="evenodd" clip-rule="evenodd" d="M20.5382 58.6188C15.7437 58.6188 13.3484 55.7711 12.4234 52.7961C13.4671 57.6328 19.107 62.3508 36.8531 64.4445C53.6288 66.4313 64.5601 61.4383 68.2585 59.1102C68.2585 59.1102 70.7515 58.0453 69.2562 59.693C69.2562 59.693 58.7031 69.1688 37.9327 69.2906C17.2031 69.3883 0.723363 59.2414 0.848363 48.9445C0.747581 38.6906 17.2031 28.5195 37.9335 28.6016C58.6609 28.6992 69.257 38.1961 69.257 38.1961C70.7523 39.8406 68.2593 38.782 68.2593 38.782C64.5726 36.4625 53.6687 31.8914 36.8538 33.4477C20.2859 34.9977 14.9054 40.4633 13.096 44.1133C12.4606 45.3905 12.0929 46.7841 12.0156 48.2086C12.4609 44.6961 14.7101 40.5758 20.5085 40.5758C27.0695 40.5758 29.0866 45.9102 29.0866 49.6C29.0866 53.2898 27.0757 58.5844 20.5085 58.5844L20.5382 58.6188ZM87.3898 55.0695H96.1359V58.1672H83.6906V41.0594H87.3679V55.0516L87.3898 55.0695ZM73.8921 48.957H81.2499V58.1859H78.7991L78.4327 56.0469C77.4991 57.0938 76.1468 58.6438 72.9241 58.6438C68.6765 58.6438 64.8093 55.693 64.8093 49.7023C64.8093 45.0273 67.4827 40.6359 73.4273 40.6359C78.8109 40.6359 80.953 44.0414 81.1632 46.3797H77.4859C77.4859 45.7141 76.232 43.5688 73.6343 43.5688C71.0101 43.5688 68.5866 45.3328 68.5866 49.7211C68.5866 54.3992 71.2109 55.5898 73.7163 55.5898C74.5249 55.5898 77.2226 55.2813 77.9648 51.8273H73.8695V48.9469L73.8921 48.957ZM20.4952 42.6828C16.6687 42.6828 14.3585 45.6094 14.3585 49.6563C14.3585 53.6781 16.6624 56.6297 20.4952 56.6297C24.3218 56.6297 26.6351 53.7 26.6351 49.6563C26.6351 45.6313 24.3312 42.6828 20.4952 42.6828ZM30.4195 47.2359H32.2046V48.7828H32.2476C32.7023 48.1539 33.5601 46.918 35.6077 46.918C38.6015 46.918 40.7374 49.3805 40.7374 52.457C40.7374 55.0695 39.1843 58.4875 35.3538 58.4875C33.846 58.4875 32.8577 57.7977 32.3601 57.0227H32.3171V62.5188H30.4218V47.257L30.4195 47.2359ZM35.2109 56.9195C37.2796 56.9195 38.6804 55.1773 38.6804 52.775C38.6804 51.368 38.0945 48.5883 35.1679 48.5883C32.4366 48.5883 32.1343 51.4539 32.1343 53.2273C32.1343 56.1297 34.0077 56.9078 35.2109 56.9078V56.9195ZM52.1968 54.7617C52.1327 55.2867 51.6171 56.8336 50.1952 57.7523C49.6796 58.0883 48.9468 58.5094 47.1406 58.5094C43.9726 58.5094 42.096 56.1867 42.096 53.0102C42.096 49.6227 43.7773 46.9398 47.5187 46.9398C50.7687 46.9398 52.3531 49.4516 52.3531 53.3391H44.1132C44.1132 55.6219 45.2085 56.9344 47.3874 56.9344C49.1757 56.9344 50.2288 55.6008 50.2929 54.7828H52.1913L52.1968 54.7617ZM50.189 51.8594C50.0788 50.1625 49.3468 48.5969 47.0429 48.5969C45.2976 48.5969 43.9179 50.1625 43.9179 51.8594H50.189ZM62.8023 58.1734H60.907V51.4477C60.907 49.5461 60.3452 48.5852 58.4929 48.5852C57.4156 48.5852 55.5202 49.2531 55.5202 52.2227V58.1703H53.6218V47.2203H55.4101V48.7648H55.4531C55.8616 48.1789 56.9148 46.9031 58.8554 46.9031C60.5976 46.9031 62.7952 47.593 62.7952 50.7117V58.1367" fill="#5586A4"/>
<path fill-rule="evenodd" clip-rule="evenodd" d="M99.8079 58.0022C99.8072 58.2823 99.7319 58.5571 99.5897 58.7985C99.4476 59.0398 99.2439 59.239 98.9993 59.3756C98.7486 59.5186 98.4806 59.5866 98.1907 59.5866C97.9009 59.5866 97.6353 59.5162 97.3853 59.3756C97.1407 59.2374 96.9365 59.0375 96.7931 58.7959C96.6503 58.5559 96.5754 58.2815 96.5767 58.0022C96.5772 57.7241 96.6519 57.4511 96.7931 57.2116C96.937 56.9695 97.1417 56.7692 97.3869 56.6305C97.632 56.4918 97.9091 56.4196 98.1907 56.4209C98.4729 56.4191 98.7507 56.491 98.9964 56.6297C99.2421 56.7684 99.4473 56.969 99.5915 57.2116C99.7327 57.4511 99.8074 57.7241 99.8079 58.0022ZM99.497 58.0022C99.497 57.6514 99.3689 57.3491 99.1126 57.1022C98.9929 56.9804 98.8498 56.8842 98.6919 56.8192C98.534 56.7542 98.3646 56.7219 98.1939 56.7241C98.0226 56.7214 97.8526 56.7536 97.6941 56.8186C97.5357 56.8836 97.3921 56.9801 97.272 57.1022C97.149 57.2172 97.0515 57.3567 96.9859 57.5117C96.9202 57.6668 96.8878 57.8338 96.8907 58.0022C96.8878 58.171 96.9202 58.3385 96.9859 58.494C97.0515 58.6496 97.149 58.7897 97.272 58.9053C97.5272 59.1553 97.8345 59.2803 98.1939 59.2803C98.3645 59.2838 98.534 59.2524 98.692 59.1879C98.8501 59.1234 98.9932 59.0272 99.1126 58.9053C99.3689 58.6564 99.497 58.3553 99.497 58.0022ZM97.4618 57.1569H98.2337C98.4501 57.1569 98.6118 57.1998 98.7095 57.2881C98.8071 57.3764 98.8564 57.4897 98.8564 57.6326C98.8585 57.7423 98.8179 57.8485 98.7431 57.9287C98.6691 58.0121 98.5512 58.072 98.3892 58.1084C98.4423 58.125 98.492 58.151 98.5361 58.185C98.5911 58.2364 98.6375 58.2962 98.6736 58.3623C98.6767 58.3655 98.7712 58.5303 98.954 58.8475H98.4446L98.1118 58.2709C98.0571 58.2069 97.9986 58.1764 97.9439 58.1764C97.9282 58.1764 97.9134 58.1764 97.8892 58.1827V58.8483H97.4587L97.4618 57.1569ZM97.8923 57.8741H98.0782C98.2006 57.8746 98.2881 57.8553 98.3407 57.8162C98.4196 57.7576 98.4173 57.728 98.4173 57.6639C98.4173 57.5998 98.3931 57.5483 98.3439 57.5116C98.2946 57.4748 98.2126 57.4506 98.0939 57.4506H97.8923V57.8741Z" fill="#999999"/>
<path fill-rule="evenodd" clip-rule="evenodd" d="M99.8079 57.5932C99.8094 57.8716 99.7345 58.145 99.5915 58.3838C99.4508 58.6276 99.246 58.8281 98.9993 58.9635C98.7532 59.1043 98.4743 59.1778 98.1907 59.1768C97.904 59.1768 97.6353 59.1034 97.3853 58.9635C97.1353 58.8237 96.94 58.6307 96.7931 58.3838C96.6501 58.145 96.5752 57.8716 96.5767 57.5932C96.5772 57.312 96.6493 57.0474 96.7931 56.7995C96.9352 56.5576 97.1397 56.3584 97.3853 56.2229C97.6353 56.0823 97.9038 56.012 98.1907 56.012C98.6212 56.012 98.7525 56.0823 98.9993 56.2229C99.2462 56.3635 99.4478 56.5557 99.5915 56.7995C99.7353 57.0432 99.8079 57.312 99.8079 57.5932ZM99.497 57.5932C99.5001 57.4246 99.4674 57.2572 99.4011 57.1021C99.3349 56.947 99.2366 56.8076 99.1126 56.6932C98.8595 56.4401 98.5509 56.3151 98.1939 56.3151C97.8368 56.3151 97.5259 56.4401 97.272 56.6932C97.149 56.8082 97.0515 56.9477 96.9859 57.1028C96.9202 57.2578 96.8878 57.4249 96.8907 57.5932C96.8878 57.762 96.9202 57.9295 96.9859 58.0851C97.0516 58.2406 97.149 58.3807 97.272 58.4963C97.3925 58.6175 97.5364 58.7129 97.6948 58.777C97.8532 58.841 98.023 58.8723 98.1939 58.869C98.554 58.869 98.8595 58.7471 99.1126 58.4963C99.3657 58.2456 99.497 57.9471 99.497 57.5932ZM97.4618 56.7448H98.2337C98.4501 56.7448 98.6118 56.7909 98.7095 56.876C98.8072 56.9612 98.8564 57.0807 98.8564 57.2237C98.8569 57.3362 98.8191 57.4349 98.7431 57.5198C98.6691 57.6 98.5512 57.6599 98.3892 57.6995C98.4423 57.7161 98.492 57.742 98.5361 57.776C98.5899 57.8273 98.6363 57.8859 98.6736 57.9502C98.6772 57.9544 98.7707 58.1172 98.954 58.4385H98.4447L98.1118 57.862C98.0572 57.7979 97.9986 57.7643 97.9439 57.7643C97.9282 57.7643 97.9134 57.7674 97.8892 57.7706V58.4385H97.4587L97.4618 56.7448ZM97.8923 57.4651H98.0782C98.2006 57.4651 98.2881 57.4448 98.3407 57.4041C98.3646 57.3866 98.384 57.3637 98.3973 57.3372C98.4107 57.3107 98.4175 57.2814 98.4173 57.2518C98.418 57.2229 98.4117 57.1942 98.3989 57.1682C98.3861 57.1422 98.3672 57.1197 98.3439 57.1026C98.296 57.0625 98.2126 57.0422 98.0939 57.0417H97.8923V57.4651Z" fill="#5586A4"/>
</svg>
