<svg width="100" height="100" viewBox="0 0 100 100" fill="none" xmlns="http://www.w3.org/2000/svg">
<path d="M88.1805 52.0325C95.2149 56.1551 99.9422 63.7723 99.9571 72.4942C99.9821 85.6231 89.3188 96.2856 76.1446 96.3067C62.9703 96.3317 52.2704 85.7051 52.2461 72.5762C52.2305 63.8543 56.9305 56.2223 63.9524 52.0715L70.8071 63.6168C70.9782 63.9059 70.8805 64.2786 70.6024 64.4684C68.0086 66.2262 66.3086 69.1918 66.3149 72.552C66.3243 77.9387 70.7157 82.2997 76.1196 82.2872C81.525 82.2778 85.8977 77.9043 85.8883 72.5184C85.8828 69.159 84.1735 66.1981 81.5735 64.4497C81.2961 64.2606 81.1954 63.8879 81.3657 63.5981L88.1805 52.0325Z" fill="#128DFF"/>
<path d="M35.5289 51.892C31.9692 49.9053 27.9594 48.8651 23.8828 48.8709C10.7055 48.8709 0.0273438 59.5154 0.0273438 72.6443C0.0273438 85.7724 10.7055 96.4177 23.8828 96.4177C37.1219 96.4177 48.0625 85.217 47.7297 72.0334H34.3016C33.9477 72.0334 33.6703 72.3326 33.6672 72.6834C33.6336 77.9357 29.2359 82.3974 23.8828 82.3974C18.475 82.3974 14.0961 78.0302 14.0961 72.6435C14.0961 67.2568 18.475 62.8904 23.8828 62.8904C25.2961 62.8904 26.6422 63.1896 27.8562 63.7295C28.1555 63.8607 28.5094 63.7607 28.6742 63.4826L35.5289 51.892Z" fill="#8BDA67"/>
<path d="M37.4571 48.1625C30.4321 44.0273 25.7173 36.4016 25.7173 27.6797C25.7173 14.5508 36.3985 3.90625 49.5728 3.90625C62.747 3.90625 73.4282 14.5508 73.4282 27.6797C73.4282 36.4016 68.7134 44.0273 61.6884 48.1625L54.8517 36.6094C54.6806 36.3203 54.7782 35.9477 55.0595 35.7578C57.6532 34.0031 59.3587 31.0398 59.3587 27.6797C59.3587 22.2938 54.9767 17.9266 49.572 17.9266C44.1673 17.9266 39.7853 22.2938 39.7853 27.6805C39.7853 31.0398 41.4907 34.0031 44.0853 35.7586C44.3665 35.9477 44.4634 36.3195 44.2923 36.6102L37.4571 48.1625Z" fill="#FF2A44"/>
</svg>
