<svg width="100" height="100" viewBox="0 0 100 100" fill="none" xmlns="http://www.w3.org/2000/svg">
<path d="M50.1266 0.0507812C50.0561 0.0516914 49.9866 0.0685158 49.9235 0.1L26.3704 11.7516C26.3338 11.7682 26.303 11.7954 26.2818 11.8296C26.2607 11.8638 26.2502 11.9036 26.2516 11.9437V21.9172C26.2485 21.9445 26.2634 21.9688 26.2876 21.9844C26.3126 22 26.3423 22.0023 26.3673 21.9898L49.9876 10.2836C50.0254 10.264 50.0673 10.2538 50.1098 10.2538C50.1524 10.2538 50.1943 10.264 50.2321 10.2836L73.7852 21.9539C73.8712 21.9956 73.9139 21.9701 73.9134 21.8773C73.9618 18.6951 73.966 15.5109 73.9259 12.325C73.9196 12.0445 74.1727 11.9133 73.7337 11.6969C65.9092 7.82187 58.1079 3.95625 50.3298 0.1C50.2666 0.0685158 50.1972 0.0516914 50.1266 0.0507812ZM50.1133 26.1469C36.9376 26.1469 26.2602 36.825 26.2602 49.9992C26.2602 63.1734 36.9383 73.8516 50.1133 73.8516C63.2876 73.8516 73.9649 63.1734 73.9649 49.9992C73.9649 36.825 63.2876 26.1469 50.1133 26.1469ZM26.361 78.0109C26.3399 77.9992 26.3094 78.0023 26.2876 78.0141C26.2763 78.0213 26.2671 78.0312 26.2609 78.043C26.2546 78.0547 26.2514 78.0679 26.2516 78.0812V88.125C26.2485 88.1523 26.2673 88.1797 26.2938 88.1953L50.0641 99.9844C50.0748 99.9905 50.0869 99.9938 50.0993 99.9938C50.1116 99.9938 50.1238 99.9905 50.1344 99.9844L73.8923 88.2258C73.9053 88.2192 73.9162 88.2092 73.9238 88.1967C73.9314 88.1843 73.9353 88.17 73.9352 88.1555L73.9438 78.0969C73.9441 78.0835 73.9409 78.0704 73.9346 78.0586C73.9283 78.0468 73.9191 78.0369 73.9079 78.0297C73.8965 78.0226 73.8834 78.0186 73.87 78.0181C73.8566 78.0175 73.8433 78.0205 73.8313 78.0266L50.1555 89.7484C50.1448 89.7546 50.1327 89.7579 50.1204 89.7579C50.108 89.7579 50.0959 89.7546 50.0852 89.7484L26.361 78.0109Z" fill="#5528FF"/>
</svg>
