<svg width="100" height="100" viewBox="0 0 100 100" fill="none" xmlns="http://www.w3.org/2000/svg">
<path d="M29.5314 27.071L28.9525 45.7906C29.5233 45.5088 30.1111 45.2666 30.7158 45.064C31.3853 44.8365 32.0634 44.635 32.7486 44.4601C33.4486 44.2804 34.1577 44.1432 34.8759 44.0484C35.5556 43.957 36.2431 43.9078 36.9298 43.9046C37.8663 43.9041 38.7855 44.0091 39.6876 44.2195C40.5698 44.4191 41.4019 44.7969 42.1329 45.3296C42.8585 45.8609 43.4465 46.563 43.897 47.4359C44.3486 48.3057 44.5743 49.4013 44.5743 50.7226C44.5743 51.7539 44.4064 52.6843 44.0673 53.5054C43.7288 54.3273 43.2691 55.0122 42.6884 55.5601C42.1041 56.1131 41.4136 56.5415 40.6587 56.8195C39.8687 57.112 39.0325 57.2602 38.19 57.257C36.6431 57.257 35.3025 56.8445 34.1767 56.0203C33.0465 55.1994 32.2397 54.1109 31.7564 52.7546L31.6923 52.7796L27.49 56.7164C28.3284 58.0951 29.4536 59.2773 30.7892 60.1828C32.7559 61.5197 35.1738 62.1882 38.0431 62.1882C39.7546 62.1877 41.3671 61.914 42.8806 61.3671C44.3967 60.8177 45.7191 60.0273 46.8478 58.996C47.9764 57.9648 48.8715 56.6992 49.5329 55.1992C50.1954 53.6976 50.5251 51.9984 50.5251 50.0937C50.5246 48.3552 50.2264 46.8161 49.6306 45.4765C49.0332 44.1401 48.2022 43.0109 47.1376 42.089C46.0746 41.1697 44.8254 40.469 43.39 39.9867C41.9551 39.5023 40.3996 39.2601 38.7236 39.2601C38.1095 39.2606 37.4241 39.2932 36.6673 39.3578C35.9069 39.4213 35.2538 39.5343 34.7079 39.6968L35.0462 32.2929H49.0267V27.071H29.5314ZM70.2611 36.9898V62.9632C70.2611 63.6398 70.2296 64.2765 70.1665 64.8734C70.1004 65.4687 69.9546 65.9937 69.729 66.4484C69.5123 66.8857 69.1775 67.2538 68.7626 67.5109C68.3408 67.7692 67.7923 67.8981 67.1173 67.8976C66.5797 67.8924 66.0443 67.8269 65.5212 67.7023L65.0368 72.6374C65.329 72.7015 65.7134 72.7687 66.1954 72.8328C66.6819 72.8963 67.1663 72.9276 67.6486 72.9265C69.3907 72.9265 70.8009 72.6554 71.8814 72.1062C72.9611 71.5578 73.8165 70.8242 74.4478 69.9054C75.0767 68.9835 75.5009 67.907 75.7267 66.6648C75.9594 65.3635 76.0737 64.0438 76.0681 62.7218V36.9898H70.2611ZM14.1142 37.4226C13.0496 37.4226 12.0905 37.5427 11.2368 37.7828C10.44 38.0054 9.66809 38.314 8.9384 38.7046C8.26106 39.0773 7.68762 39.4921 7.22044 39.9625C6.79389 40.3802 6.41334 40.8425 6.08528 41.3414H5.93919V38.1007H0.375122V72.9273H6.18294V58.2203H6.27747C7.01965 59.3835 8.07434 60.3023 9.44856 60.9796C10.8184 61.6567 12.3249 61.9953 13.9681 61.9953C15.7421 61.9947 17.3309 61.664 18.7345 61.0031C20.1387 60.3437 21.3319 59.457 22.3142 58.3429C23.297 57.232 24.0572 55.9257 24.5876 54.4242C25.1199 52.9252 25.3866 51.321 25.3876 49.6117C25.3876 47.9028 25.1129 46.3067 24.5634 44.8234C24.0142 43.3406 23.2423 42.05 22.2415 40.9539C21.2382 39.855 20.0198 38.974 18.6618 38.3656C17.2754 37.7375 15.759 37.4231 14.1142 37.4226ZM90.9181 37.4226C89.775 37.4208 88.6364 37.5665 87.5306 37.8562C86.4778 38.1267 85.4796 38.5768 84.5798 39.1867C83.711 39.7814 82.9904 40.5678 82.4736 41.4851C81.9423 42.4218 81.6767 43.532 81.6767 44.8234C81.6767 45.9187 81.8702 46.8372 82.2572 47.5789C82.6291 48.3069 83.1573 48.9437 83.804 49.4437C84.4733 49.9553 85.2161 50.3627 86.0072 50.6523C86.8356 50.9594 87.6839 51.21 88.5462 51.4023C90.3202 51.8221 91.6509 52.2414 92.5384 52.6601C93.4238 53.0778 93.8665 53.7716 93.8665 54.7414C93.866 55.2559 93.754 55.6914 93.5306 56.0476C93.304 56.3992 92.9993 56.6882 92.6329 56.8929C92.2555 57.1056 91.848 57.2599 91.4243 57.3507C91.0042 57.448 90.5744 57.4972 90.1431 57.4976C88.8863 57.4971 87.7408 57.2234 86.7064 56.6765C85.6762 56.1276 84.8381 55.4338 84.1923 54.5953L80.3712 58.1749C81.5004 59.4015 82.9197 60.3442 84.629 61.0031C86.3072 61.6593 88.0954 61.9953 89.8986 61.9953C91.159 61.9953 92.3767 61.858 93.5517 61.5835C94.7298 61.3117 95.7611 60.8664 96.6493 60.2554C97.5403 59.6383 98.2708 58.817 98.7798 57.8601C99.3111 56.8778 99.5764 55.6765 99.5759 54.2562C99.5759 53.1276 99.3501 52.1684 98.8986 51.3789C98.4566 50.5998 97.8542 49.9234 97.1314 49.3945C96.3915 48.8534 95.5773 48.4219 94.7142 48.1132C93.8531 47.7979 92.9723 47.539 92.0775 47.3382C90.4322 46.9507 89.1822 46.5723 88.3275 46.2031C87.4738 45.8307 87.0475 45.1927 87.0486 44.289C87.0486 43.389 87.4329 42.7421 88.2079 42.3578C88.9829 41.9703 89.8345 41.775 90.7712 41.775C91.8363 41.775 92.8202 42.025 93.7228 42.525C94.6259 43.0257 95.3337 43.6117 95.8525 44.289L99.6251 40.9531C98.6881 39.7604 97.4215 38.8736 95.8251 38.2929C94.2534 37.7162 92.5923 37.4216 90.9181 37.4226ZM12.8087 42.1625C13.9374 42.1619 14.921 42.3796 15.7595 42.8156C16.5701 43.2298 17.2804 43.8162 17.8407 44.5335C18.3897 45.2519 18.8071 46.0618 19.0736 46.9257C19.3428 47.7957 19.4805 48.701 19.4822 49.6117C19.4795 50.5302 19.3418 51.4433 19.0736 52.3218C18.8133 53.1966 18.3955 54.0166 17.8407 54.7414C17.2915 55.45 16.5954 56.0296 15.7595 56.4812C14.921 56.9328 13.9374 57.1585 12.8087 57.1585C11.7431 57.1591 10.7918 56.9414 9.95481 56.5054C9.13021 56.0817 8.39868 55.4973 7.80325 54.7867C7.20704 54.0798 6.74669 53.2688 6.44544 52.3945C6.14425 51.5312 5.98952 50.6236 5.98762 49.7093C5.99107 48.787 6.14573 47.8715 6.44544 46.9992C7.03939 45.2144 8.29551 43.7257 9.95481 42.8398C10.7918 42.3882 11.7431 42.1625 12.8087 42.1625ZM59.2407 52.8031V56.4078L55.7564 55.282L55.0782 57.3757L58.5478 58.6265L56.4087 61.5531L58.1572 62.8867L60.3486 59.9882L62.6009 62.9632L64.404 61.657L62.265 58.6265L65.7072 57.4515L65.0298 55.364L61.5728 56.4078V52.8039L59.2407 52.8031Z" fill="#ED225D"/>
</svg>
