<svg width="100" height="100" viewBox="0 0 100 100" fill="none" xmlns="http://www.w3.org/2000/svg">
<path d="M50.0001 95.5249C53.8668 95.5249 56.9959 92.3916 56.9959 88.5249V27.8999H43.0043V88.5332C43.0043 92.3957 46.1334 95.5249 50.0001 95.5249Z" fill="#F9AB00"/>
<path d="M77.875 50.0207C74.2907 46.4392 69.6744 44.0707 64.6746 43.2479C59.6749 42.425 54.543 43.1893 50 45.4332L79.95 75.3832C81.1833 76.6166 83.3125 76.1291 83.8375 74.4666C85.1774 70.2365 85.3299 65.7197 84.2785 61.4089C83.227 57.0981 81.012 53.1588 77.875 50.0207Z" fill="#5BB974"/>
<path d="M22.125 50.0207C25.7093 46.4392 30.3256 44.0707 35.3254 43.2479C40.3251 42.425 45.457 43.1893 50 45.4332L20.05 75.3832C19.7679 75.6679 19.4174 75.8754 19.0321 75.9858C18.6468 76.0962 18.2396 76.1059 17.8495 76.0139C17.4594 75.9219 17.0994 75.7314 16.804 75.4604C16.5087 75.1895 16.2878 74.8473 16.1625 74.4666C14.8227 70.2365 14.6701 65.7197 15.7216 61.4089C16.773 57.0981 18.988 53.1588 22.125 50.0207Z" fill="#129EAF"/>
<path d="M75.6542 26.7749C63.7375 26.7749 53.6208 34.5874 50 45.4332H97.3625C97.8088 45.4341 98.2479 45.3211 98.6382 45.1047C99.0286 44.8884 99.3572 44.5759 99.593 44.197C99.8288 43.8181 99.9639 43.3853 99.9855 42.9395C100.007 42.4938 99.9146 42.0499 99.7167 41.6499C95.2167 32.8166 86.1333 26.7749 75.6542 26.7749Z" fill="#AF5CF7"/>
<path d="M54.9499 14.1C46.5208 22.5334 44.8916 35.2 49.9999 45.4334L83.4916 11.9375C83.8083 11.6228 84.0393 11.2324 84.1627 10.8033C84.2862 10.3742 84.2979 9.9207 84.1969 9.4858C84.0959 9.05089 83.8855 8.649 83.5856 8.31824C83.2857 7.98749 82.9062 7.73883 82.4833 7.59586C73.0499 4.53336 62.3583 6.6917 54.9499 14.1Z" fill="#FF8BCB"/>
<path d="M45.05 14.1C53.4792 22.5334 55.1084 35.2 50 45.4334L16.5084 11.9375C16.1917 11.6228 15.9607 11.2324 15.8373 10.8033C15.7138 10.3742 15.702 9.9207 15.8031 9.4858C15.9041 9.05089 16.1145 8.649 16.4144 8.31824C16.7143 7.98749 17.0937 7.73883 17.5167 7.59586C26.95 4.53336 37.6417 6.6917 45.05 14.1Z" fill="#FA7B17"/>
<path d="M24.3459 26.7749C36.2626 26.7749 46.3792 34.5874 50.0001 45.4332H2.63757C2.19129 45.4341 1.75218 45.3211 1.36184 45.1047C0.971503 44.8884 0.642874 44.5759 0.407097 44.197C0.17132 43.8181 0.0362062 43.3853 0.0145598 42.9395C-0.0070866 42.4938 0.0854516 42.0499 0.283405 41.6499C4.78341 32.8166 13.8667 26.7749 24.3459 26.7749Z" fill="#4285F4"/>
</svg>
