<svg width="100" height="100" viewBox="0 0 100 100" fill="none" xmlns="http://www.w3.org/2000/svg">
<g clip-path="url(#clip0_867_18803)">
<path d="M1 11.4573C1 5.12908 6.13008 -0.000976562 12.4583 -0.000976562H88.5001C94.8282 -0.000976562 99.9583 5.12908 99.9583 11.4573V88.5406C99.9583 94.869 94.8282 99.999 88.5001 99.999H12.4583C6.13008 99.999 1 94.869 1 88.5406V11.4573Z" fill="#F6E458"/>
<path d="M64.4169 22.3515C58.9572 20.7832 53.3881 20.5701 47.7131 21.0776C44.5372 21.4076 41.4841 22.038 38.5391 23.1443C32.1735 25.5353 27.3942 29.6764 24.5443 35.9117C22.5011 40.3818 21.7627 45.13 21.6857 50.0022C21.6044 55.1509 22.2496 60.2285 23.2749 65.2627C24.2042 69.8256 25.4418 74.2993 27.2093 78.6179C27.3772 79.0281 27.5864 79.1664 28.0346 79.1655C33.6246 79.1536 39.2149 79.1536 44.8052 79.1536C46.4599 79.1536 48.1149 79.1536 49.77 79.1533C49.8966 79.1533 50.0233 79.1464 50.1691 79.1383C50.2434 79.1344 50.3227 79.1299 50.4096 79.126C50.376 79.0461 50.3461 78.9727 50.3176 78.9038C50.2625 78.7685 50.2143 78.6508 50.1604 78.5355C49.7562 77.6707 49.3435 76.8098 48.9309 75.9486C48.0359 74.0807 47.1411 72.2128 46.3318 70.3083C43.8766 64.533 41.9967 58.5864 41.423 52.2918C41.17 49.5144 41.205 46.753 41.9758 44.0466C42.8564 40.9531 44.7465 38.7693 47.8802 37.8563C50.7578 37.0181 53.6756 37.0235 56.5374 37.9491C59.0916 38.7749 60.7568 40.5198 61.4653 43.1321C62.0094 45.1384 62.0091 47.1662 61.5976 49.189C61.2805 50.7461 60.6427 52.1672 59.4944 53.3039C57.4342 55.3431 54.8617 55.812 52.1011 55.6557C51.61 55.6279 51.1204 55.5743 50.6159 55.5186C50.3796 55.4928 50.1401 55.4665 49.8954 55.4422C49.9023 55.5204 49.9062 55.5922 49.9101 55.6596C49.917 55.7923 49.9233 55.9072 49.9505 56.0171C50.0682 56.49 50.1805 56.9646 50.2925 57.4392C50.5626 58.5825 50.8327 59.7257 51.1797 60.8451C51.8619 63.043 52.6545 65.1882 53.5534 67.2825C59.9609 66.7824 65.8623 65.1897 72.126 61.4296C72.2201 61.3703 72.3057 61.3167 72.3913 61.2634C75.0818 59.5883 77.2594 57.4155 78.7611 54.6098C81.1931 50.066 81.6672 45.207 80.9446 40.1916C80.199 35.0154 77.8762 30.6708 73.8775 27.263C71.1043 24.8993 67.8973 23.3513 64.4169 22.3515Z" fill="black"/>
</g>
<defs>
<clipPath id="clip0_867_18803">
<rect width="100" height="100" fill="white"/>
</clipPath>
</defs>
</svg>
