<svg width="100" height="100" viewBox="0 0 100 100" fill="none" xmlns="http://www.w3.org/2000/svg">
<g clip-path="url(#clip0_1085_3393)">
<path d="M50.0003 0C27.8144 0 9.84253 17.9008 9.84253 40H29.9222C29.9222 28.9594 38.9183 19.9992 50.0003 19.9992V0Z" fill="#D5FF00"/>
<path d="M90.1578 40C90.1578 17.9016 72.1859 0 50 0V19.9984C61.082 19.9984 70.0781 28.9586 70.0781 40.0008L90.1578 40Z" fill="#35DF79"/>
<path d="M50 80.0013C72.1859 80.0013 90.1578 62.0997 90.1578 40.0005H70.0781C70.0781 51.0388 61.082 59.9989 50 59.9989V80.0013Z" fill="#00B9F1"/>
<path d="M29.9218 80.0021V40.0005H9.84131V100H49.9999V80.0021H29.9218Z" fill="white"/>
</g>
<defs>
<clipPath id="clip0_1085_3393">
<rect width="100" height="100" fill="white"/>
</clipPath>
</defs>
</svg>
