<svg width="100" height="100" viewBox="0 0 100 100" fill="none" xmlns="http://www.w3.org/2000/svg">
<g clip-path="url(#clip0_867_19764)">
<path d="M49.9372 84.9388L20.47 67.9404C20.1124 67.7258 19.874 67.3444 19.874 66.9152V40.6427C19.874 40.1898 20.3746 39.9037 20.7561 40.1183L54.9675 59.8584C55.4444 60.1445 56.0404 59.7869 56.0404 59.2385V46.436C56.0404 45.9354 55.7781 45.4586 55.3252 45.1963L14.1761 21.451C13.8184 21.2364 13.3416 21.2364 12.984 21.451L7.59602 24.5741C7.23841 24.7887 7 25.1701 7 25.5992V74.4012C7 74.8303 7.23841 75.2118 7.59602 75.4264L49.8656 99.8393C50.2232 100.054 50.7001 100.054 51.0577 99.8393L86.5565 79.3362C87.0333 79.0502 87.0333 78.3826 86.5565 78.0965L75.4944 71.7072C75.0414 71.445 74.5169 71.445 74.064 71.7072L51.153 84.9388C50.7954 85.1534 50.3186 85.1534 49.961 84.9388H49.9372Z" fill="black"/>
<path d="M93.3272 24.55L51.0576 0.160925C50.7 -0.0536416 50.2232 -0.0536416 49.8656 0.160925L27.5268 13.0588C27.05 13.3448 27.05 14.0124 27.5268 14.2985L38.4935 20.6401C38.9465 20.9024 39.471 20.9024 39.924 20.6401L49.9371 14.8707C50.2947 14.6561 50.7715 14.6561 51.1291 14.8707L80.5963 31.8691C80.9539 32.0837 81.1923 32.4651 81.1923 32.8942V59.2859C81.1923 59.7866 81.4545 60.2634 81.9075 60.5256L92.8742 66.8434C93.3511 67.1295 93.9471 66.7719 93.9471 66.2236V25.599C93.9471 25.1698 93.7087 24.7884 93.3511 24.5738L93.3272 24.55Z" fill="black"/>
</g>
<defs>
<clipPath id="clip0_867_19764">
<rect width="100" height="100" fill="white"/>
</clipPath>
</defs>
</svg>
