<svg width="100" height="100" viewBox="0 0 100 100" fill="none" xmlns="http://www.w3.org/2000/svg">
<g clip-path="url(#clip0_1085_3398)">
<path d="M94.6654 49.1227C94.6654 22.5227 73.9833 0.960205 48.4662 0.960205C22.9521 0.960205 2.26538 22.5227 2.26538 49.1227C2.26538 75.7227 22.9513 97.2875 48.4654 97.2875C73.9826 97.2875 94.6654 75.7227 94.6654 49.1227Z" fill="white"/>
<path d="M41.6717 99.6222C30.8045 97.6996 21.4826 92.7378 13.7787 84.7738C7.22637 78.0019 2.71621 69.4753 0.666211 59.9714C-0.22207 55.8652 -0.22207 44.1222 0.666211 40.0183C2.05371 33.5941 4.7459 27.2152 8.41856 21.6519C10.8514 17.9691 17.9717 10.8503 21.6529 8.41675C27.2178 4.74487 33.6006 2.04956 40.0232 0.665967C44.1271 -0.222314 55.8717 -0.222314 59.9787 0.665967C69.9842 2.82612 78.3006 7.34409 85.4764 14.5199C92.6537 21.6964 97.1717 30.0105 99.335 40.0191C100.22 44.1222 100.22 55.8652 99.335 59.9722C97.1717 69.9769 92.6537 78.291 85.4764 85.4675C78.4154 92.5308 70.2029 97.0394 60.3615 99.2566C56.8717 100.045 45.3318 100.27 41.6717 99.6222ZM50.7084 89.6441C50.7084 86.3675 50.66 86.1308 49.9998 86.1308C49.3451 86.1308 49.2936 86.3558 49.3209 89.1753C49.3545 92.5066 49.5889 93.5285 50.267 93.3035C50.5803 93.2003 50.7084 92.1386 50.7084 89.6441ZM45.4295 90.773C46.3607 89.8386 46.6342 89.273 46.6342 88.266C46.6342 87.2378 46.5092 86.9886 46.0381 87.0792C45.7123 87.1402 45.3201 87.673 45.1678 88.2566C45.0162 88.841 44.3865 89.7441 43.7748 90.2644C42.667 91.1988 42.6248 91.9769 43.6771 91.9769C43.9787 91.9769 44.7662 91.4324 45.4295 90.773ZM57.1037 91.591C57.2342 91.3808 56.8389 90.7816 56.2271 90.2644C55.6131 89.7441 54.9857 88.841 54.8342 88.2566C54.6787 87.673 54.2865 87.1402 53.9607 87.0792C53.492 86.9886 53.367 87.2378 53.367 88.266C53.367 90.3043 56.2912 92.9081 57.1037 91.591ZM40.9631 85.2269C40.9631 85.023 40.4678 84.5847 39.8615 84.2535C35.9131 82.0902 31.2795 78.6472 28.7053 75.9644C23.6795 70.7222 21.4162 65.505 21.3615 59.0285C21.324 54.7003 21.8811 52.4425 23.9896 48.3996C26.0279 44.4902 28.3889 41.5402 34.8881 34.7894C42.1436 27.248 43.8139 25.2582 45.074 22.6542C45.9709 20.805 46.0896 20.13 46.2146 16.2207C46.3701 11.3652 46.074 8.01284 45.4904 8.01284C45.2256 8.01284 45.1771 9.27222 45.3264 12.1019C45.8131 21.1582 44.1311 23.9691 33.692 31.5402C26.5029 36.7542 23.2045 39.5871 20.7131 42.6839C17.1834 47.0667 15.6193 50.8605 15.2303 56.0042C14.2873 68.4011 22.1428 79.1519 36.0037 84.43C39.0615 85.5917 40.9631 85.8996 40.9631 85.2269ZM64.9475 84.223C69.7115 82.2363 73.335 79.8363 76.7521 76.405C81.9607 71.1699 84.1264 66.2746 84.4521 59.0285C84.735 52.6738 83.3568 48.4699 79.4232 43.7082C76.7279 40.448 73.8279 38.1144 66.0061 32.9191C55.4826 25.9246 53.0115 23.141 53.0115 18.2738C53.0115 16.9785 53.2459 15.1441 53.5287 14.198C54.0154 12.5824 54.0037 11.4691 53.5131 12.7433C53.0514 13.9511 51.992 13.3972 51.4232 11.6417L50.8764 9.9605L51.0826 11.5542C51.8186 17.2121 51.9107 19.5824 51.5842 24.5347C51.1436 31.23 50.3217 35.8058 48.0607 44.1253C45.8186 52.3847 45.4146 55.3785 45.6943 61.6847C45.9287 67.0167 46.674 71.005 48.4084 76.2105C50.0178 81.041 50.3186 81.4089 53.2795 82.1667C54.9068 82.5832 56.4498 83.2863 57.6756 84.1714C58.8287 85.005 59.9818 85.5464 60.6295 85.5582C61.2139 85.5675 63.1592 84.9683 64.9475 84.223ZM63.8764 81.8199C63.435 81.3785 63.642 81.0011 65.3701 79.091C70.8154 73.08 73.2561 66.8714 73.3256 58.8519C73.3748 53.3886 72.167 49.7683 68.4818 44.3261C66.8178 41.8652 60.9553 35.7261 58.1201 33.4722C56.042 31.8207 53.9029 29.0035 53.5225 27.4097C53.1365 25.7941 54.2193 26.2199 55.4725 28.1753C56.0873 29.1339 57.4201 30.5425 58.4334 31.3035C59.4459 32.0667 62.4428 34.2996 65.0928 36.2683C74.2053 43.0425 78.2639 48.8199 79.1732 56.3246C79.7029 60.6652 78.8631 65.1527 76.7459 69.3199C74.549 73.6363 70.5451 78.3394 67.1162 80.63C65.0045 82.0386 64.3381 82.2824 63.8764 81.8199ZM46.035 82.2761C46.1389 82.0082 45.2256 80.2957 44.0092 78.4675C40.7842 73.6308 39.3811 70.9628 38.0732 67.1753C36.9686 63.9839 36.9076 63.5496 36.8982 58.673C36.8865 51.305 37.6834 48.9683 43.5311 39.2589C49.0443 30.1042 49.7928 26.5574 49.1717 12.473C48.9467 7.42612 48.6943 3.22456 48.6092 3.13706C48.0279 2.55581 47.9029 4.05269 48.1193 9.12925C48.5451 19.2386 47.8912 24.8691 45.7615 29.4902C44.31 32.6355 42.685 35.0175 38.3162 40.4292C32.2318 47.9582 30.5154 51.9527 30.5459 58.4964C30.5701 62.9832 31.1756 65.7425 32.9889 69.5785C34.9514 73.7347 38.5631 77.9292 43.0904 81.3058C45.174 82.8636 45.7389 83.0488 46.035 82.2761Z" fill="#212178"/>
</g>
<defs>
<clipPath id="clip0_1085_3398">
<rect width="100" height="100" fill="white"/>
</clipPath>
</defs>
</svg>
