<svg width="100" height="100" viewBox="0 0 100 100" fill="none" xmlns="http://www.w3.org/2000/svg">
<path d="M82.4375 0V30.3H93.75V73.4167H81.5208V100L52.2 74.1917V99.7958H47.6542V74.1625L18.3 100V73.0625H6.25V29.95H18.2667V0L47.6542 27.0583V0.791667H52.1958V27.8333L82.4375 0ZM52.2 37.6833V68.1792L76.975 89.9875V60.1667L52.2 37.6833ZM47.6208 37.35L22.8458 59.8417V89.9875L47.6208 68.1792V37.3542V37.35ZM81.5208 68.9333H89.2042V34.7875H56.0833L81.5208 57.8708V68.9333ZM44.0958 34.4333H10.7917V68.5792H18.2917V57.8458L44.0917 34.4292L44.0958 34.4333ZM22.8125 10.3167V29.9417H44.125L22.8125 10.3167ZM77.8917 10.3167L56.5792 29.9417H77.8917V10.3167Z" fill="#22B8CD"/>
</svg>
