<svg width="100" height="100" viewBox="0 0 100 100" fill="none" xmlns="http://www.w3.org/2000/svg">
<g clip-path="url(#clip0_1085_3402)">
<path d="M8.38594 0.00415039C3.74219 0.00415039 0 3.86743 0 8.51196V82.5791L13.5469 34.4534H27.225L25.4211 40.776H25.6773C26.4492 39.8729 27.4812 39.0979 28.7719 38.1979C30.0602 37.2916 31.3539 36.5159 32.7789 35.744C34.1953 34.969 35.7422 34.4565 37.4203 33.9401C39.0992 33.4213 40.7773 33.2901 42.4563 33.2901C46.0656 33.2901 49.0359 33.937 51.6109 35.0971C54.193 36.2596 56.125 38.0659 57.675 40.2573C58.9633 42.1948 59.7414 44.5174 60.1258 47.2245L60.1469 47.2159C60.1719 47.4659 60.2539 47.7768 60.2539 48.0026C60.5133 50.9721 60.1258 54.3229 59.0945 57.9362C58.1883 61.2901 56.7781 64.519 54.8398 67.6159C53.0015 70.5933 50.7904 73.3237 48.2602 75.7409C45.7237 78.0531 42.8508 79.9669 39.7398 81.4166C36.6422 82.8385 33.4195 83.4854 29.9352 83.4854C27.1198 83.5079 24.3231 83.0264 21.6773 82.0635C19.2258 81.1604 17.5445 79.4854 16.5164 77.1596H16.257L9.80547 99.9987H91.4797C92.5988 100.001 93.7073 99.7821 94.7416 99.3548C95.776 98.9275 96.7157 98.3002 97.507 97.5088C98.2989 96.7184 98.9268 95.7793 99.3547 94.7455C99.7825 93.7117 100.002 92.6035 100 91.4846V19.6143C99.6094 19.4862 99.225 19.3581 98.9656 19.2268C98.2021 19.0621 97.424 18.9742 96.643 18.9643C94.3203 18.9643 92.3828 19.4838 90.8383 20.5151C89.4164 21.5463 88.1258 23.6127 87.2227 26.8385L85.0312 34.4463H93.4172L95.4797 41.0291L90.0602 46.3206H81.6719L71.4844 82.4502H56.775L66.9703 46.3206H61.2891L61.0969 46.4487H60.9047V46.3206L64.2562 34.4456H70.1883L72.5133 25.9315C73.2859 23.3565 74.1891 20.7776 75.3516 18.4518C76.3828 16.1299 77.9305 14.0635 79.7375 12.2565C81.5445 10.4495 83.8664 9.03149 86.5758 7.99946C89.2867 6.96821 92.7742 6.45259 96.7719 6.45259C97.8062 6.45259 98.7039 6.44946 99.7383 6.58071C99.2833 4.7491 98.2432 3.11592 96.7759 1.92902C95.3085 0.742126 93.4941 0.0663133 91.6078 0.00415039H8.38594ZM35.7328 46.3206C31.9945 46.3206 28.7719 47.4831 26.0617 49.6776C23.3516 51.8721 21.5461 54.8377 20.5141 58.4487C19.4828 62.0612 19.6133 65.0276 21.1641 67.219C22.4516 69.5417 25.0336 70.5784 28.9 70.5784C32.6445 70.5784 35.8672 69.4135 38.5773 67.219C41.2875 65.0276 43.2188 62.0612 44.2539 58.4479C45.2852 54.8385 45.0258 51.8721 43.6063 49.6776C42.1867 47.4831 39.4812 46.3206 35.7391 46.3206H35.7328Z" fill="black"/>
</g>
<defs>
<clipPath id="clip0_1085_3402">
<rect width="100" height="100" fill="white"/>
</clipPath>
</defs>
</svg>
