<svg width="100" height="100" viewBox="0 0 100 100" fill="none" xmlns="http://www.w3.org/2000/svg">
<path d="M28.5156 43.7505L30.4688 35.313L23.8281 48.438L28.5156 43.7505Z" fill="#22A882"/>
<path d="M69.3752 7.8125L67.969 15.1562L58.594 26.25L41.094 35.3906L69.3752 7.8125Z" fill="#99D5B5"/>
<path d="M67.4221 0L61.9534 15L41.094 35.3125L28.8284 50.5469L28.1252 51.3281L26.6409 51.5625L31.4065 31.4844L67.4221 0Z" fill="#C5E4D3"/>
<path d="M26.8748 51.0149L41.1716 35.3118L93.5935 7.88989L80.3904 26.093L45.3123 46.5618L28.8279 50.5461L26.8748 51.0149Z" fill="black"/>
<path d="M45.3125 46.5618L80.3125 26.093L81.5625 24.3743L91.6406 18.4368L82.9687 30.7024L79.1406 33.6711L59.5312 47.7336L47.5781 51.718L45.3125 46.5618Z" fill="#16A880"/>
<path d="M59.5312 47.7349L72.1875 43.7505L75.5469 41.4849L86.5625 31.4067L79.1406 33.6724L59.5312 47.7349Z" fill="black"/>
<path d="M28.8281 50.5461L45.3125 46.5618L47.5781 51.6399L37.8906 57.968L28.125 60.9368V51.3274L28.8281 50.5461Z" fill="#76C39B"/>
<path d="M48.8281 51.0151L34.5312 58.2026L45.5469 57.4995L64.4531 52.1089L80.2344 41.2495L48.8281 51.0151Z" fill="#C5E4D3"/>
<path d="M66.0156 51.0942L64.4531 52.1099L45.5469 57.5005L58.2031 56.563L61.7188 55.8599L72.9688 49.7661L66.0156 51.0942Z" fill="#99D5B5"/>
<path d="M69.375 68.8274L74.2969 72.7336V75.2336L69.375 68.8274Z" fill="black"/>
<path d="M32.5781 61.7195L41.9531 60.8601L55.3906 70.5476L61.5625 85.7039L53.9062 99.8445L55.1562 87.8132L54.8437 87.1882L49.0625 74.6101L30.0781 62.1882L32.5781 61.7195Z" fill="#C5E4D3"/>
<path d="M55.3906 70.5464L63.8281 91.3276V97.8901L67.4219 85.4683V76.8745L48.9844 65.8589L55.3906 70.5464Z" fill="black"/>
<path d="M48.8281 92.6567L46.4844 98.6724L56.3281 85.2349L50.3125 72.0317L48.9062 74.2192V92.6567H48.8281Z" fill="#16A880"/>
<path d="M47.1091 73.3601L46.406 84.2195L41.3279 89.0632L41.5623 92.8132L45.9373 94.532L48.8279 88.9851V74.3757L47.1091 73.3601Z" fill="#76C39B"/>
<path d="M45 72.032L46.5625 73.0476L45.8594 76.7195L43.2813 82.2664L36.0156 79.3757L35.7812 76.4851L36.25 76.3289L38.5156 74.7664L39.9219 71.407L45 72.032Z" fill="#178D6D"/>
<path d="M30.0781 62.1868L45 71.9524H40.1562L31.1719 64.4524L22.8906 62.1868H30.0781Z" fill="black"/>
<path d="M42.6562 60.782L57.4219 59.3757L66.0156 56.5632H58.2031L37.0313 58.0476L29.1406 58.7507L26.7969 62.8132L32.5781 61.7195L42.6562 60.782Z" fill="#178D6D"/>
<path d="M35.8594 86.8755V88.2036L38.9844 86.8755L39.375 87.5005L36.5625 89.063L35.2344 92.0317L38.0469 89.3755L38.6719 89.5317L38.0469 97.0317L41.4844 92.7349L41.25 88.9849L41.875 88.5161L40.3125 84.7661L35.8594 86.8755ZM34.6875 72.0317L30.2344 74.1411V75.4692L33.2812 74.063L33.75 74.688L30.8594 76.3286L29.6875 79.2192L32.4219 76.6411L33.0469 76.7192L32.4219 84.1411L36.1719 79.6099L35.8594 76.1724H36.4062L34.6875 72.0317Z" fill="black"/>
<path d="M25.7813 54.6094L19.6875 57.1875H25.7813L16.0938 61.0937L10.7813 64.0625L10.3906 65.1563L19.0625 62.1875H27.1094L28.125 60.3906V51.1719L18.3594 53.5937L25.7813 54.6094Z" fill="#C5E4D3"/>
<path d="M10.8594 64.1411L16.1719 61.1724L25.8594 57.2661H19.7656L25.8594 54.688L18.5156 53.6724L10.0781 56.1724L6.48438 61.8755L10.8594 64.1411Z" fill="#1FA780"/>
<path d="M8.75 68.7493L6.48438 66.7961V61.7961L10.8594 64.1399L9.84375 66.8743L10.9375 68.7493H8.75Z" fill="black"/>
<path d="M11.6406 61.4067L10.1563 60.313L7.96875 61.4849" stroke="black" stroke-width="0.234375"/>
<path d="M48.9065 58.1257L65.3127 68.8289L71.094 76.7976L73.1252 84.0632L67.5002 76.9539L41.094 61.1726L48.9065 58.1257Z" fill="#76C39B"/>
<path d="M61.0159 61.1726L56.9534 59.2976L51.6409 59.8445L52.2659 60.3132L61.0159 61.1726Z" fill="#99D5B5"/>
<path d="M70.3125 86.9526L70.2344 93.3589L68.3594 94.6089L69.375 89.4526L70.3125 86.9526Z" fill="#178D6D"/>
</svg>
