<svg width="100" height="100" viewBox="0 0 100 100" fill="none" xmlns="http://www.w3.org/2000/svg">
<g clip-path="url(#clip0_867_22503)">
<path fill-rule="evenodd" clip-rule="evenodd" d="M3.46 8.76C-2.98023e-07 13.845 0 20.965 0 35.2V64.8C0 79.035 -2.98023e-07 86.15 3.46 91.24C4.87688 93.3249 6.67512 95.1231 8.76 96.54C13.845 100 20.965 100 35.2 100H64.8C79.035 100 86.15 100 91.24 96.54C93.3249 95.1231 95.1231 93.3249 96.54 91.24C100 86.155 100 79.035 100 64.8V35.2C100 20.965 100 13.85 96.54 8.76C95.1231 6.67512 93.3249 4.87688 91.24 3.46C86.155 -2.98023e-07 79.035 0 64.8 0H35.2C20.965 0 13.85 -2.98023e-07 8.76 3.46C6.67512 4.87688 4.87688 6.67512 3.46 8.76ZM86.31 66.15C86.2995 65.6543 86.1915 65.1654 85.992 64.7115C85.7926 64.2575 85.5057 63.8472 85.1478 63.5041C84.4248 62.8112 83.4562 62.4338 82.455 62.455C81.4538 62.4762 80.5021 62.8943 79.8091 63.6172C79.1162 64.3402 78.7388 65.3088 78.76 66.31C78.905 72.835 77.24 75.87 75.135 77.36C72.795 79.03 68.695 79.725 61.96 78.72C60.984 78.6025 60.0008 78.8704 59.2192 79.4666C58.4377 80.0629 57.9196 80.9404 57.775 81.9127C57.6304 82.885 57.8708 83.8754 58.4451 84.6732C59.0193 85.471 59.8821 86.0134 60.85 86.185C68.075 87.26 74.695 86.935 79.505 83.515C84.555 79.925 86.475 73.815 86.31 66.15Z" fill="#FF4017"/>
</g>
<defs>
<clipPath id="clip0_867_22503">
<rect width="100" height="100" fill="white"/>
</clipPath>
</defs>
</svg>
