<svg width="100" height="100" viewBox="0 0 100 100" fill="none" xmlns="http://www.w3.org/2000/svg">
<g clip-path="url(#clip0_868_39492)">
<path fill-rule="evenodd" clip-rule="evenodd" d="M15.5124 18.925V100H30.7083V67.1125C30.7083 67.1125 30.7374 67.1125 30.7374 67.1417V65C35.9416 70.0042 42.4791 73.475 49.7166 74.6625C51.4583 74.9209 53.2332 75.0667 55.0333 75.0667C73.0541 74.5459 88.6582 61.1834 91.2791 42.8459C91.9901 37.9635 91.7214 32.9885 90.4888 28.2111C89.2562 23.4337 87.0843 18.9497 84.0999 15.0209C81.13 11.0682 77.409 7.74051 73.1505 5.2287C68.8919 2.71689 64.1794 1.07031 59.2832 0.383356C54.3821 -0.325605 49.3891 -0.0592873 44.5912 1.16701C39.7932 2.39331 35.2848 4.55544 31.3249 7.52919C30.3333 8.25002 29.4083 9.02919 28.5041 9.84169L17.8666 1.33752L8.33325 13.1375L15.5124 18.925ZM54.1666 13.775C59.119 13.7692 63.949 15.3144 67.9784 18.1937C72.0078 21.0731 75.0344 25.1419 76.6332 29.8292C77.6657 32.8833 78.0604 36.1168 77.7929 39.3296C77.5255 42.5424 76.6016 45.6662 75.0783 48.5076C73.5551 51.3489 71.465 53.8475 68.9374 55.8487C66.4097 57.8498 63.4983 59.311 60.3832 60.1417C58.3571 60.6911 56.2658 60.963 54.1666 60.95C50.0999 60.95 46.2916 59.9375 42.9499 58.1459C39.8989 56.5468 37.2461 54.2827 35.1874 51.5209C32.8071 48.3975 31.2756 44.7114 30.7416 40.8209C30.5653 39.6821 30.4776 38.5315 30.4791 37.3792C30.4791 24.3334 41.0874 13.775 54.1666 13.775Z" fill="black"/>
</g>
<defs>
<clipPath id="clip0_868_39492">
<rect width="100" height="100" fill="white"/>
</clipPath>
</defs>
</svg>
