<svg width="100" height="100" viewBox="0 0 100 100" fill="none" xmlns="http://www.w3.org/2000/svg">
<path d="M37.5527 63.6711L36.7666 63.5287C31.1845 62.4906 27.6572 59.1142 25.9868 53.8041C24.943 50.4947 26.837 48.0582 30.3087 47.8973C33.1496 47.7662 35.0963 49.3996 36.8165 51.3007C39.0337 53.75 41.0657 56.3673 43.2445 58.8551C46.3802 62.4365 50.0755 64.7419 55.1307 64.0299C59.6634 63.392 63.615 61.5735 67.0511 58.5788C67.5681 58.1288 68.1348 57.7358 68.6802 57.3171L68.337 56.9127C65.4506 57.8098 62.5085 58.1103 59.501 57.9593C54.9513 57.7315 50.6152 56.7803 46.7362 54.2825C43.1961 52.0027 40.5858 48.9482 39.3455 44.8684C38.343 41.5718 40.3936 39.2663 43.8098 39.7419C45.1598 39.9313 46.2961 40.5394 47.3172 41.4009C48.1474 42.1029 48.9448 42.8463 49.7921 43.527C53.7793 46.731 59.3501 46.909 64.4096 43.4301C56.0905 43.3931 50.4301 38.8163 45.4588 33.0163C43.5136 30.7464 41.614 28.4367 39.6275 26.2024C35.7855 21.8791 31.522 18.0713 25.6864 16.7711C18.2274 15.1122 11.029 16.1987 4.11967 19.3614C2.74265 19.9923 1.41974 20.7256 0 21.9076C0.703463 21.9076 1.08652 21.9161 1.46958 21.9076C4.95272 21.8164 7.56436 23.3643 9.44691 26.2138C10.8168 28.2886 11.4619 30.6339 11.9546 33.0462C12.6851 36.6276 12.3063 40.2774 12.7293 43.8758C13.8129 53.1234 18.5392 59.577 27.3397 62.8807C30.5679 64.094 33.8773 64.497 37.5527 63.6711ZM15.3096 21.4846C13.9197 21.8349 12.809 21.2739 11.6641 20.1147C13.625 19.6263 15.3551 19.4369 17.2135 19.3629C17.0611 20.5704 16.3491 21.2226 15.311 21.4846H15.3096ZM60.8809 75.489C60.7599 74.5975 59.998 74.2059 59.3999 73.7403C56.7555 71.6812 53.6611 70.9521 50.3816 70.8922C48.4236 70.8552 46.487 70.71 44.6414 70.0236C43.7941 69.7103 42.8472 69.3045 42.87 68.2123C42.8913 67.1015 43.8568 66.7882 44.7354 66.5262C45.4545 66.3126 46.1965 66.1745 47.0138 65.9822C44.9348 64.6494 42.9041 64.4657 40.1971 65.555C35.935 67.2667 31.7342 67.0645 27.4863 65.5308C25.0883 64.665 22.9594 63.3051 20.7436 62.1018L20.6824 62.1445C20.7015 62.1309 20.7205 62.1172 20.7393 62.1032C20.6852 61.9366 20.587 61.9324 20.4588 62.0263L20.6325 62.1787C22.4695 65.1905 24.953 67.6142 27.7583 69.6847C33.1596 73.6719 39.0593 76.0515 45.9629 74.9963C48.1947 74.6539 50.438 74.3913 52.6885 74.2088C55.5081 73.9809 58.1938 74.7755 60.8809 75.489ZM47.8654 32.2772C47.7159 32.169 47.5721 31.8985 47.2673 32.179C49.7522 35.5397 52.942 38.0146 56.784 39.5739C62.9842 42.0901 69.2769 42.5216 75.7134 40.3001C80.7117 38.5771 84.3045 40.2603 86.17 45.1133C86.4405 39.4813 83.1268 35.3773 77.8494 34.5742C74.8818 34.1213 72.1392 35.1053 69.3595 35.9128C61.6214 38.1556 54.4287 37.0491 47.8654 32.2772ZM86.4348 54.2427C87.443 54.3267 88.4512 54.4178 89.4594 54.5061C87.181 52.5054 84.4042 52.3459 81.5946 52.5068C77.3183 52.7489 74.2367 55.2167 71.4271 58.163C68.9508 60.7604 66.7137 63.6739 63.0212 64.7192C63.0824 64.8302 63.0981 64.8858 63.1152 64.8858C63.6136 64.8929 64.1106 64.9157 64.6061 64.8929C69.9718 64.6508 75.0256 63.5187 79.0456 59.624C80.313 58.3994 81.4451 57.0366 82.6683 55.7649C83.6879 54.7026 84.924 54.1145 86.4348 54.2412V54.2427ZM73.9704 47.5925C69.9661 47.9428 66.4887 49.599 63.222 51.7834C60.7072 53.4637 58.0186 54.2583 54.9969 53.7343C54.4643 53.6403 53.9289 53.572 53.3963 53.4922L53.3778 53.7144C53.57 53.814 53.7551 53.9294 53.9545 54.0091C54.4586 54.2085 54.9541 54.4477 55.4782 54.5716C61.2924 55.9543 66.8589 55.2466 71.8771 52.0041C75.0399 49.9607 78.3151 49.5733 81.8638 50.1016C82.2226 50.1558 82.58 50.2198 82.9403 50.254C83.2735 50.2853 83.6224 50.6171 84.0724 50.2583C80.9695 48.0169 77.6273 47.2735 73.9704 47.5925ZM59.6605 34.0017C61.7609 34.0744 63.8514 33.7995 66.0486 32.4937C65.405 32.5507 65.133 32.5507 64.871 32.6019C61.8435 33.2057 59.1279 32.545 56.7071 30.6325C55.82 29.9305 54.9171 29.2455 54.0171 28.5577C50.4528 25.8322 46.3645 24.9194 41.8931 24.9977C41.9643 25.217 41.97 25.3679 42.0469 25.4462C46.9127 30.3662 52.5433 33.7568 59.6605 34.0017ZM94.8721 59.2509C91.8618 56.2648 87.8204 55.8803 84.0809 58.4862C86.5559 58.5973 88.4142 59.3862 89.9208 60.9469C90.4534 61.4994 91.0073 62.0406 91.604 62.5219C93.8824 64.3589 97.7429 64.4472 100 62.7426C97.3499 61.7088 97.3499 61.7088 94.8721 59.2509ZM64.8852 82.1206C62.2394 77.1935 57.7922 76.0828 52.6529 76.4132C54.1686 76.8262 55.6024 77.4957 56.8922 78.3925C58.0884 79.227 59.0952 80.2594 60.0863 81.3189C62.0514 83.4165 65.1188 84.7023 67.1523 84.2666C66.2181 83.6799 65.3893 83.059 64.8852 82.1206ZM89.5064 54.6086C89.5064 54.5759 89.5079 54.5446 89.5107 54.5118L89.4594 54.5061L89.4893 54.5317L89.5064 54.6072V54.6086ZM61.0261 75.6043C60.9921 75.5847 60.9579 75.5652 60.9236 75.5459C60.927 75.5675 60.9342 75.5882 60.945 75.6072C60.9521 75.6186 60.9991 75.6072 61.0276 75.6043H61.0261ZM60.9236 75.5459L60.9122 75.4975L60.8809 75.489L60.888 75.526L60.9222 75.5459H60.9236Z" fill="#FD4F00"/>
</svg>
