<svg width="100" height="100" viewBox="0 0 100 100" fill="none" xmlns="http://www.w3.org/2000/svg">
<g clip-path="url(#clip0_1085_3432)">
<path d="M89.9529 55.7772H92.5287V46.7007C93.357 46.5004 94.2071 46.4051 95.0592 46.4171C96.4842 46.4171 97.4482 46.8843 97.4482 48.6202V55.7765H99.9998V48.5476C99.9998 45.2694 98.199 43.9819 95.1045 43.9819C93.3748 43.9819 91.2201 44.2413 89.9537 44.7296L89.9529 55.7772ZM85.367 49.9999C85.367 52.1999 84.8725 53.6069 82.5803 53.6069C80.2857 53.6069 79.7943 52.2007 79.7943 49.9999C79.7943 47.7999 80.3068 46.4327 82.5803 46.4327C84.8506 46.4327 85.367 47.8116 85.367 49.9999ZM82.5803 56.039C86.2053 56.039 87.9303 53.653 87.9303 49.9999C87.9303 46.2069 86.3404 43.9819 82.5803 43.9819C78.9732 43.9819 77.1975 46.3468 77.1975 49.9999C77.1975 53.8179 78.8084 56.039 82.5803 56.039ZM68.9295 51.6632C68.9295 54.9624 70.7303 56.0179 73.2357 56.0179C74.2205 56.0349 75.1992 55.8597 76.117 55.5022L75.7201 53.0671C74.9325 53.4135 74.0805 53.5893 73.2201 53.5827C72.1889 53.5827 71.5115 53.1155 71.5115 51.6874V46.6522H75.6803V44.2171H71.5053V41.1741H68.9295V51.6632ZM64.3373 49.9999C64.3373 52.1999 63.849 53.6069 61.5506 53.6069C59.2529 53.6069 58.7646 52.2007 58.7646 49.9999C58.7646 47.7999 59.2834 46.4327 61.5506 46.4327C63.8209 46.4327 64.3373 47.8116 64.3373 49.9999ZM61.5693 56.039C65.2006 56.039 66.9217 53.653 66.9217 49.9999C66.9217 46.2069 65.3287 43.9819 61.5693 43.9819C57.9646 43.9819 56.1857 46.3468 56.1857 49.9999C56.1857 53.8179 57.8037 56.039 61.5693 56.039ZM44.1092 55.7772H46.6857V46.7007C47.5131 46.4971 48.3635 46.4017 49.2154 46.4171C50.6404 46.4171 51.6021 46.8843 51.6021 48.6202V55.7765H54.1529V48.6202C54.1529 45.1749 52.2123 43.9819 49.3287 43.9819C48.4367 43.9645 47.5467 44.0744 46.6857 44.3085V39.3921H44.1092V55.7772ZM32.0248 60.7483H34.6006V55.7132C35.2232 55.939 35.8818 56.0515 36.5443 56.039C40.0818 56.039 42.0928 53.7718 42.0928 49.8358C42.0928 46.0452 40.3107 43.9819 36.2881 43.9819C34.8311 43.9792 33.384 44.2206 32.0068 44.696V60.7483H32.0248ZM39.4959 49.9999C39.4959 52.3897 38.8639 53.6069 36.4287 53.6069C35.7966 53.6505 35.1645 53.5208 34.6006 53.2319V46.6733C35.184 46.4858 35.7951 46.3992 36.4076 46.4171C38.7232 46.4171 39.4959 47.3546 39.4959 49.9843V49.9999Z" fill="#004480"/>
<path fill-rule="evenodd" clip-rule="evenodd" d="M8.03523 55.1552C8.09929 55.2278 8.16961 55.2981 8.2368 55.3661L8.45008 55.5732L4.62039 60.2114C4.40027 60.018 4.18661 59.8174 3.97976 59.6099C3.77508 59.4067 3.57351 59.2044 3.38445 58.988L8.02351 55.1552H8.03523ZM9.63445 56.4888L6.78133 61.7958C6.27729 61.5025 5.79197 61.1782 5.3282 60.8247L9.14305 56.1349C9.30476 56.2505 9.46648 56.3575 9.63445 56.4614V56.4888ZM7.13836 53.9919C7.2394 54.158 7.3493 54.3208 7.46805 54.4802L2.79617 58.2739C2.44103 57.8124 2.11664 57.328 1.82508 56.8239L7.13523 53.9708L7.13836 53.9919ZM10.9774 57.1419L9.21023 62.8817C8.66007 62.6955 8.12272 62.4734 7.60164 62.2169L10.4282 56.8974C10.6084 56.9807 10.7904 57.0549 10.9743 57.12L10.9774 57.1419ZM6.48445 52.631C6.55216 52.8153 6.62742 52.9963 6.71023 53.1739L1.3907 56.0036C1.13078 55.4826 0.907579 54.944 0.722732 54.3919L6.48445 52.631ZM12.4141 57.4958L11.8126 63.4896C11.2341 63.4063 10.6614 63.2871 10.0977 63.1325L11.8368 57.3825C12.0264 57.4284 12.2188 57.4661 12.4141 57.4958ZM6.10945 51.1911C6.14018 51.3859 6.17872 51.5791 6.22508 51.7708L0.454764 53.5036C0.304476 52.9421 0.191211 52.3714 0.115701 51.795L6.10945 51.1911ZM6.02039 49.7106V50.3028L0.0266387 50.8857C-0.00953061 50.3042 -0.00953061 49.721 0.0266387 49.1396L6.02039 49.7106ZM13.897 57.581L14.4766 63.5778C13.8938 63.6146 13.3141 63.6146 12.7313 63.5778L13.311 57.581C13.5063 57.5935 13.7016 57.5935 13.897 57.581ZM15.3712 57.3825L17.1102 63.1505C16.5467 63.3067 15.9751 63.4258 15.3954 63.5075L14.7938 57.5138C14.9868 57.4802 15.1821 57.4466 15.3712 57.4013V57.3825ZM6.22586 48.2302C6.17898 48.4218 6.14018 48.6161 6.10945 48.813L0.115701 48.206C0.191346 47.6307 0.30461 47.061 0.454764 46.5005L6.22586 48.2333V48.2302ZM16.7813 56.8974L19.6079 62.2169C19.0848 62.4737 18.5453 62.6958 17.993 62.8817L16.2352 57.12C16.4206 57.0535 16.603 56.9792 16.7821 56.8974H16.7813ZM6.72039 46.7989C6.63758 46.9786 6.56101 47.156 6.49383 47.3458L0.739139 45.563C0.929243 45.0099 1.15424 44.4718 1.41414 43.9489L6.72117 46.8052L6.72039 46.7989ZM18.0641 56.1349L21.8751 60.8099C21.4115 61.164 20.9285 61.4875 20.4259 61.7802L17.5751 56.4888C17.7399 56.3872 17.9016 56.281 18.0634 56.1622L18.0641 56.1349ZM7.46726 45.5388C7.34867 45.6955 7.23862 45.8585 7.13758 46.0271L1.83289 43.1708C2.12664 42.6708 2.45008 42.1849 2.80398 41.7239L7.46726 45.5388ZM23.8243 58.988C23.4369 59.4228 23.0242 59.8345 22.5884 60.2208L18.7587 55.5724L18.972 55.3653L19.1735 55.1544L23.8243 58.988ZM4.62039 39.7833L8.45008 44.4216L8.2368 44.6263C8.16961 44.6966 8.09929 44.7669 8.03523 44.8372L3.39695 41.0067C3.58601 40.7935 3.78445 40.5794 3.99148 40.3724C4.1993 40.1646 4.41336 39.963 4.62976 39.7771L4.62039 39.7833ZM25.3845 56.8208C25.0917 57.3281 24.7683 57.8125 24.4141 58.2739L19.7446 54.4591C19.8639 54.2997 19.9738 54.137 20.0743 53.9708L25.3845 56.8239V56.8208ZM6.78445 38.2239L9.6407 43.5278C9.47268 43.6329 9.30776 43.7428 9.14617 43.8575L5.33445 39.1942C5.79539 38.8403 6.28055 38.5138 6.78445 38.2239ZM26.486 54.3911C26.3012 54.9433 26.078 55.4818 25.818 56.0028L20.4985 53.1739C20.5813 52.9966 20.6548 52.8138 20.7251 52.6302L26.486 54.3911ZM9.22664 37.113L10.9813 42.881C10.7946 42.945 10.6141 43.0216 10.4345 43.1036L7.61492 37.781C8.13782 37.5252 8.67609 37.3021 9.22664 37.113ZM27.0938 51.795C27.0127 52.3717 26.8937 52.9425 26.7376 53.5036L20.9845 51.7708C21.0306 51.5789 21.0694 51.3852 21.1009 51.1903L27.0938 51.795ZM11.8141 36.5114L12.4157 42.5052C12.2204 42.5369 12.0279 42.5747 11.8384 42.6185L10.0993 36.8685C10.6629 36.7139 11.2357 36.5947 11.8141 36.5114ZM27.1829 49.131C27.2219 49.7106 27.2219 50.2903 27.1829 50.87L21.1891 50.2966V49.7044L27.1829 49.131ZM14.4774 36.4224L13.8977 42.4192H13.3118L12.7321 36.4224C13.3133 36.3862 13.8962 36.3862 14.4774 36.4224ZM26.7516 46.5005C26.9105 47.0625 27.0295 47.632 27.1087 48.2091L21.1149 48.8161C21.0867 48.6202 21.0491 48.4257 21.0024 48.2333L26.7516 46.5005ZM17.1204 36.8677L15.372 42.6177C15.181 42.5739 14.9887 42.5361 14.7954 42.5044L15.3962 36.5106C15.9759 36.5862 16.5475 36.6981 17.111 36.8466L17.1204 36.8677ZM19.6165 37.8021L16.7813 43.106C16.603 43.0219 16.4207 42.9463 16.2352 42.8794L17.993 37.1185C18.5453 37.3044 19.0848 37.5265 19.6079 37.7833L19.6165 37.8021ZM25.8149 44.0028C26.0712 44.5247 26.2938 45.0653 26.4829 45.6146L20.7251 47.3997C20.6571 47.2169 20.5782 47.0427 20.4954 46.8528L25.8149 44.0028ZM21.8657 39.1872L18.0454 43.8536C17.8852 43.7381 17.721 43.6281 17.5532 43.5239L20.4071 38.2169C20.9113 38.5065 21.3957 38.8299 21.8602 39.1872H21.8657ZM24.3985 41.7106C24.7527 42.1721 25.0764 42.6544 25.3696 43.1575L20.0688 46.0114C19.9668 45.8422 19.8568 45.678 19.7391 45.5192L24.3985 41.7021V41.7106ZM22.5891 39.7825C22.8087 39.9716 23.0165 40.17 23.2266 40.3778C23.4376 40.5849 23.6329 40.7919 23.8251 41.0122L19.1868 44.8481C19.122 44.7739 19.0537 44.7027 18.9821 44.6349L18.768 44.4271L22.6016 39.7888L22.5891 39.7825Z" fill="url(#paint0_linear_1085_3432)"/>
</g>
<defs>
<linearGradient id="paint0_linear_1085_3432" x1="2.45744" y1="42.1944" x2="24.7517" y2="57.8065" gradientUnits="userSpaceOnUse">
<stop offset="0.19" stop-color="#71D7FC"/>
<stop offset="0.29" stop-color="#67CAF1"/>
<stop offset="0.47" stop-color="#4EA9D5"/>
<stop offset="0.7" stop-color="#2574A9"/>
<stop offset="0.89" stop-color="#004480"/>
</linearGradient>
<clipPath id="clip0_1085_3432">
<rect width="100" height="100" fill="white"/>
</clipPath>
</defs>
</svg>
