<svg width="100" height="100" viewBox="0 0 100 100" fill="none" xmlns="http://www.w3.org/2000/svg">
<path d="M17.7086 1.24927H82.2914C92.0836 1.24927 100 9.16567 100 18.9579V81.0407C100 90.8329 92.0836 98.7493 82.2914 98.7493H17.7086C7.91641 98.7493 0 90.8329 0 81.0407V18.9579C0 9.16567 7.91641 1.24927 17.7086 1.24927Z" fill="#001E36"/>
<path d="M35.8336 26.0417C34.5836 26.0417 33.3336 26.0417 32.0422 26.0839C30.75 26.1253 29.5414 26.1253 28.4164 26.1675C27.2914 26.2089 26.25 26.2089 25.25 26.2503C24.2914 26.2917 23.625 26.2917 22.9164 26.2917C22.625 26.2917 22.5 26.4582 22.5 26.7503V69.6253C22.5 70.0003 22.6664 70.1675 23 70.1675H31.0836C31.375 70.1253 31.5836 69.8753 31.5414 69.5839V56.2089C32.3328 56.2089 32.9164 56.2089 33.3336 56.2503C33.75 56.2917 34.4164 56.2917 35.4164 56.2917C38.8336 56.2917 41.9586 55.9167 44.7914 54.8753C47.5 53.8753 49.8336 52.1253 51.5 49.7917C53.1667 47.4584 54 44.5001 54 40.9167C54 39.0417 53.6672 37.2503 53.0422 35.5003C52.3799 33.7174 51.3425 32.0976 50 30.7503C48.4155 29.211 46.5082 28.0437 44.4164 27.3332C42.0828 26.4582 39.25 26.0417 35.8336 26.0417ZM36.7633 34.2488C38.2477 34.2769 39.693 34.5363 41.0414 35.0832C42.25 35.5417 43.25 36.3753 43.9586 37.4582C44.6231 38.5788 44.9556 39.8652 44.9172 41.1675C44.9172 43.0003 44.5 44.4175 43.625 45.4589C42.7078 46.5003 41.5414 47.2925 40.2086 47.6675C38.6664 48.1675 37.0414 48.4167 35.4164 48.4167H33.2078C32.7078 48.4167 32.1672 48.3753 31.5836 48.3339V34.3339C31.875 34.2917 32.4586 34.2503 33.2922 34.2925C34.0836 34.2503 35.0414 34.2503 36.125 34.2503C36.3385 34.2451 36.5513 34.2446 36.7633 34.2488ZM71.7086 36.3761C68.75 36.3761 66.2914 36.8339 64.3336 37.8339C62.5422 38.6675 61 40.0003 59.9586 41.6667C59.0422 43.2089 58.5414 44.9167 58.5414 46.7089C58.5058 48.183 58.8351 49.6429 59.5 50.9589C60.2793 52.3602 61.3612 53.5701 62.6672 54.5003C64.5001 55.754 66.4891 56.7625 68.5836 57.5003C70.625 58.2917 72 58.9167 72.6672 59.4582C73.3336 60.0003 73.6672 60.5417 73.6672 61.1253C73.6672 61.8753 73.2086 62.5839 72.5422 62.8753C71.7922 63.2503 70.6672 63.4589 69.0836 63.4589C67.4172 63.4589 65.75 63.2503 64.1664 62.8339C62.3481 62.4278 60.6048 61.739 59 60.7925C58.875 60.7089 58.75 60.6675 58.625 60.7511C58.5 60.8339 58.4586 61.0003 58.4586 61.1253V68.3753C58.4172 68.7089 58.625 69.0003 58.9172 69.1667C60.2684 69.798 61.6976 70.2465 63.1672 70.5003C65.0422 70.8753 66.9164 71.0417 68.8328 71.0417C71.8328 71.0417 74.3336 70.5839 76.375 69.7089C78.25 68.9589 79.875 67.6675 81.0414 66.0003C82.1338 64.3614 82.7007 62.4283 82.6664 60.4589C82.7075 58.9712 82.3784 57.4966 81.7086 56.1675C80.9164 54.7503 79.7914 53.5839 78.4164 52.7089C76.4049 51.4457 74.2511 50.4246 72 49.6667C70.9947 49.2507 70.0076 48.7919 69.0414 48.2917C68.5 48.0003 68 47.6253 67.625 47.1667C67.375 46.8332 67.2086 46.4589 67.2086 46.0839C67.2086 45.7089 67.3336 45.2925 67.5414 44.9589C67.8336 44.5425 68.2914 44.2503 68.8328 44.1253C69.625 43.9175 70.5 43.7917 71.3328 43.8332C72.9164 43.8332 74.4578 44.0417 76 44.3753C77.4172 44.6667 78.75 45.1253 80 45.7925C80.1664 45.8753 80.375 45.8753 80.75 45.7925C80.8151 45.7443 80.8679 45.6814 80.9042 45.6089C80.9404 45.5364 80.959 45.4564 80.9586 45.3753V38.5839C80.9586 38.4167 80.9164 38.2503 80.875 38.0839C80.7914 37.9175 80.625 37.7503 80.4586 37.7089C79.3094 37.2392 78.1052 36.9171 76.875 36.7503C75.1641 36.5012 73.4375 36.3767 71.7086 36.3761Z" fill="#31A8FF"/>
</svg>
