<svg width="100" height="100" viewBox="0 0 100 100" fill="none" xmlns="http://www.w3.org/2000/svg">
<path d="M0 50.0003C0 64.5261 22.3859 76.3027 50 76.3027C77.6141 76.3027 100 64.5261 100 50.0003C100 35.4746 77.6133 23.698 50 23.698C22.3867 23.698 0 35.4746 0 50.0003Z" fill="url(#paint0_radial_867_14728)"/>
<path d="M50 74.3496C76.5352 74.3496 98.0469 63.4472 98.0469 50.0003C98.0469 36.5519 76.5352 25.6511 50 25.6511C23.4648 25.6511 1.95312 36.5519 1.95312 50.0003C1.95312 63.4472 23.4648 74.3496 50 74.3496Z" fill="#777BB3"/>
<path d="M27.1657 53.0183C29.3477 53.0183 30.9758 52.6159 32.0063 51.823C33.0266 51.037 33.7305 49.6769 34.1 47.78C34.4438 46.0065 34.3125 44.769 33.7094 44.1003C33.0938 43.4175 31.7618 43.0714 29.7508 43.0714H26.2633L24.3313 53.0183H27.1657ZM15.7602 65.2706C15.6802 65.2705 15.6012 65.2527 15.5289 65.2184C15.4566 65.1842 15.3927 65.1344 15.3419 65.0725C15.2912 65.0107 15.2547 64.9384 15.2352 64.8608C15.2156 64.7832 15.2135 64.7022 15.229 64.6237L20.3516 38.2659C20.3758 38.1427 20.442 38.0317 20.5389 37.9518C20.6357 37.8719 20.7573 37.828 20.8829 37.8276H31.925C35.3954 37.8276 37.9782 38.7698 39.6024 40.6284C41.2336 42.4956 41.7383 45.1081 41.1 48.3901C40.8399 49.7269 40.393 50.9683 39.7719 52.0808C39.1256 53.2252 38.3006 54.259 37.3282 55.1433C36.1321 56.262 34.7782 57.0745 33.3071 57.5519C31.8602 58.0237 30.0008 58.2628 27.7836 58.2628H23.3118L22.0352 64.8315C22.0111 64.9552 21.9448 65.0666 21.8476 65.1467C21.7504 65.2268 21.6283 65.2706 21.5024 65.2706H15.7602Z" fill="black"/>
<path d="M26.711 43.6133H29.7509C32.1782 43.6133 33.0212 44.1461 33.3079 44.4641C33.7821 44.9907 33.8727 46.1024 33.5665 47.6766C33.2235 49.4399 32.5876 50.6907 31.6759 51.3922C30.7431 52.111 29.2243 52.475 27.1657 52.475H24.9891L26.711 43.6133ZM31.9251 37.2852H20.8837C20.6319 37.2852 20.3879 37.3727 20.1935 37.5328C19.9992 37.6928 19.8664 37.9154 19.8181 38.1625L14.6954 64.5211C14.6651 64.6782 14.6699 64.8399 14.7094 64.9949C14.7489 65.1498 14.8222 65.2941 14.9239 65.4175C15.0256 65.5408 15.1533 65.6402 15.2979 65.7085C15.4425 65.7768 15.6003 65.8123 15.7602 65.8125H21.5024C21.7542 65.8123 21.9981 65.7246 22.1923 65.5644C22.3865 65.4042 22.5191 65.1815 22.5673 64.9344L23.7587 58.8047H27.7829C30.0579 58.8047 31.9735 58.5563 33.4759 58.0672C35.0204 57.5657 36.4415 56.7149 37.6993 55.5383C38.7123 54.6161 39.5718 53.5382 40.2454 52.3454C40.8946 51.1836 41.3618 49.8868 41.6321 48.493C42.304 45.0375 41.7579 42.2711 40.0102 40.2711C38.279 38.2891 35.5587 37.2844 31.9251 37.2844V37.2852ZM23.6727 53.5594H27.1657C29.4808 53.5599 31.2048 53.1238 32.3376 52.2508C33.4704 51.379 34.2355 49.923 34.6329 47.8829C35.0121 45.9235 34.8389 44.5412 34.1134 43.736C33.3868 42.9308 31.9326 42.5282 29.7509 42.5282H25.8165L23.6727 53.5594ZM31.9259 38.368C35.2477 38.368 37.6704 39.2399 39.1938 40.9836C40.7173 42.7274 41.1756 45.1612 40.5688 48.2852C40.3178 49.5727 39.8946 50.7493 39.2993 51.8149C38.703 52.8816 37.924 53.8573 36.9626 54.7422C35.8168 55.8152 34.5428 56.5795 33.1407 57.0352C31.7391 57.4915 29.9535 57.7193 27.7837 57.7188H22.8649L21.5032 64.7266H15.761L20.8845 38.368H31.9259Z" fill="white"/>
<path d="M54.2646 58.2638C54.1846 58.2639 54.1055 58.2462 54.033 58.2121C53.9606 58.178 53.8966 58.1283 53.8456 58.0665C53.7947 58.0048 53.7581 57.9325 53.7384 57.8549C53.7187 57.7773 53.7165 57.6963 53.7318 57.6177L55.9974 45.9552C56.2138 44.8458 56.1607 44.0505 55.849 43.713C55.6576 43.5075 55.0841 43.163 53.3881 43.163H49.2818L46.4334 57.8255C46.4089 57.949 46.3423 58.0601 46.245 58.1399C46.1477 58.2197 46.0256 58.2632 45.8998 58.263H40.2045C40.1245 58.263 40.0454 58.2454 39.973 58.2114C39.9006 58.1773 39.8366 58.1277 39.7857 58.066C39.7347 58.0044 39.6979 57.9322 39.6781 57.8547C39.6583 57.7772 39.6558 57.6963 39.6709 57.6177L44.7943 31.2591C44.8186 31.1356 44.885 31.0244 44.9822 30.9444C45.0793 30.8645 45.2013 30.8208 45.3271 30.8208H51.0224C51.1024 30.8207 51.1815 30.8384 51.2539 30.8724C51.3263 30.9065 51.3902 30.9561 51.4412 31.0178C51.4922 31.0794 51.5289 31.1516 51.5488 31.2291C51.5686 31.3066 51.5711 31.3875 51.556 31.4661L50.3201 37.8286H54.7365C58.1013 37.8286 60.3826 38.4208 61.7115 39.6419C63.0654 40.8864 63.4888 42.8763 62.9677 45.5583L60.5841 57.8255C60.5597 57.9488 60.4933 58.0599 60.3961 58.1397C60.2989 58.2194 60.1771 58.263 60.0513 58.263L54.2646 58.2638Z" fill="black"/>
<path d="M51.0233 30.2776H45.3272C45.0753 30.2776 44.8312 30.3653 44.6368 30.5255C44.4424 30.6857 44.3098 30.9085 44.2616 31.1557L39.1389 57.5135C39.1085 57.6706 39.1132 57.8324 39.1527 57.9875C39.1921 58.1425 39.2653 58.2869 39.367 58.4104C39.4688 58.5338 39.5965 58.6333 39.7412 58.7016C39.8858 58.77 40.0438 58.8055 40.2038 58.8057H45.8998C46.1517 58.8057 46.3958 58.718 46.5902 58.5578C46.7846 58.3976 46.9173 58.1748 46.9655 57.9276L49.7288 43.7049H53.3866C55.0803 43.7049 55.4366 44.0666 55.4498 44.0831C55.553 44.1924 55.6881 44.7041 55.4647 45.8518L53.1991 57.5135C53.1687 57.6707 53.1734 57.8326 53.2129 57.9877C53.2523 58.1428 53.3256 58.2872 53.4274 58.4107C53.5293 58.5341 53.6571 58.6336 53.8019 58.7019C53.9466 58.7702 54.1046 58.8056 54.2647 58.8057H60.0522C60.304 58.8055 60.5478 58.7178 60.7421 58.5576C60.9363 58.3974 61.0689 58.1747 61.117 57.9276L63.5006 45.662C64.0592 42.7823 63.5811 40.6229 62.0788 39.2424C60.6444 37.9252 58.2428 37.2854 54.7366 37.2854H50.9788L52.0889 31.5706C52.1194 31.4134 52.1148 31.2514 52.0754 31.0962C52.036 30.941 51.9627 30.7964 51.8609 30.6729C51.7591 30.5493 51.6312 30.4498 51.4863 30.3814C51.3415 30.3131 51.1834 30.2776 51.0233 30.2776ZM51.0233 31.3635L49.6616 38.3698H54.7366C57.9298 38.3698 60.1321 38.9271 61.3436 40.0416C62.5561 41.1552 62.9202 42.9599 62.4358 45.4557L60.0514 57.7206H54.2647L56.5311 46.0581C56.7889 44.7315 56.6939 43.8268 56.2459 43.344C55.798 42.8617 54.8454 42.6206 53.3881 42.6206H48.8342L45.8998 57.7198H40.203L45.3264 31.3612H51.0233V31.3635Z" fill="white"/>
<path d="M71.9813 53.0183C74.1633 53.0183 75.7922 52.6159 76.8235 51.823C77.8422 51.037 78.5469 49.6769 78.9165 47.78C79.2602 46.0065 79.1297 44.769 78.5258 44.1003C77.9102 43.4175 76.5782 43.0714 74.5672 43.0714H71.0805L69.1469 53.0183H71.9813ZM60.5782 65.2706C60.498 65.2707 60.4188 65.2531 60.3463 65.2189C60.2738 65.1848 60.2098 65.135 60.1588 65.0731C60.1079 65.0113 60.0713 64.9389 60.0517 64.8612C60.032 64.7835 60.0299 64.7024 60.0454 64.6237L65.168 38.2659C65.1923 38.1424 65.2587 38.0312 65.3559 37.9513C65.4531 37.8713 65.575 37.8276 65.7008 37.8276H76.7422C80.2125 37.8276 82.7954 38.7698 84.4188 40.6284C86.0508 42.4956 86.5547 45.1081 85.9165 48.3901C85.6722 49.6829 85.2242 50.9286 84.5891 52.0808C83.9428 53.2252 83.1178 54.259 82.1454 55.1433C80.95 56.262 79.5946 57.0745 78.1243 57.5519C76.6774 58.0237 74.818 58.2628 72.6 58.2628H68.129L66.8532 64.8315C66.829 64.9553 66.7626 65.0668 66.6652 65.1469C66.5679 65.227 66.4457 65.2708 66.3196 65.2706H60.5782Z" fill="black"/>
<path d="M71.5274 43.6133H74.5673C76.9946 43.6133 77.8376 44.1461 78.1235 44.4641C78.6001 44.9907 78.6891 46.1024 78.3837 47.6766C78.0399 49.4399 77.404 50.6907 76.4923 51.3922C75.5587 52.111 74.0399 52.475 71.9821 52.475H69.8056L71.5274 43.6133ZM76.7415 37.2852H65.7001C65.4484 37.2854 65.2046 37.373 65.0104 37.533C64.8162 37.6931 64.6836 37.9156 64.6352 38.1625L59.5118 64.5211C59.4815 64.6782 59.4863 64.84 59.5259 64.995C59.5654 65.15 59.6387 65.2944 59.7405 65.4178C59.8423 65.5411 59.9702 65.6405 60.1148 65.7088C60.2595 65.777 60.4175 65.8124 60.5774 65.8125H66.3196C66.5714 65.8123 66.8152 65.7246 67.0095 65.5644C67.2037 65.4042 67.3363 65.1815 67.3845 64.9344L68.5759 58.8047H72.5993C74.8735 58.8047 76.7899 58.5563 78.2915 58.0672C79.8368 57.5657 81.2579 56.7149 82.5165 55.5375C83.5291 54.6155 84.3883 53.5379 85.0618 52.3454C85.7118 51.1836 86.1774 49.8868 86.4485 48.493C87.1204 45.0375 86.5751 42.2711 84.8266 40.2711C83.0954 38.2891 80.3759 37.2844 76.7407 37.2844L76.7415 37.2852ZM68.4891 53.5594H71.9813C74.2964 53.5599 76.0209 53.1238 77.1548 52.2508C78.2876 51.379 79.0522 49.923 79.4485 47.8829C79.8293 45.9235 79.6561 44.5412 78.929 43.736C78.2019 42.9308 76.748 42.5282 74.5673 42.5282H70.6337L68.4891 53.5594ZM76.7415 38.368C80.0634 38.368 82.486 39.2399 84.0095 40.9836C85.5329 42.7274 85.991 45.1612 85.3837 48.2852C85.1337 49.5727 84.7108 50.7493 84.1149 51.8149C83.5191 52.8816 82.7399 53.8573 81.7774 54.7422C80.6316 55.8152 79.3576 56.5795 77.9556 57.0352C76.5545 57.4915 74.7691 57.7193 72.5993 57.7188H67.6813L66.3181 64.7266H60.5759L65.6993 38.368H76.7415Z" fill="white"/>
<defs>
<radialGradient id="paint0_radial_867_14728" cx="0" cy="0" r="1" gradientUnits="userSpaceOnUse" gradientTransform="translate(30.0203 32.9449) scale(65.6573 65.6573)">
<stop stop-color="#AEB2D5"/>
<stop offset="0.3" stop-color="#AEB2D5"/>
<stop offset="0.75" stop-color="#484C89"/>
<stop offset="1" stop-color="#484C89"/>
</radialGradient>
</defs>
</svg>
