<svg width="100" height="100" viewBox="0 0 100 100" fill="none" xmlns="http://www.w3.org/2000/svg">
<g clip-path="url(#clip0_1085_3447)">
<path d="M90.9078 24.9172L90.9055 6.3625C90.9051 4.67505 90.2345 3.05685 89.0412 1.86371C87.8479 0.670582 86.2297 0.0002071 84.5422 0L66.5625 0C65.6447 0.000245912 64.7377 0.198928 63.9038 0.582431C63.0699 0.965934 62.3288 1.52519 61.7313 2.22188L10.6235 61.8469C9.63523 63.0007 9.09212 64.4699 9.0922 65.9891V84.5438C9.0922 86.2314 9.76262 87.8499 10.956 89.0433C12.1493 90.2366 13.7678 90.907 15.4555 90.907H33.436C34.3539 90.9069 35.261 90.7083 36.0951 90.3248C36.9291 89.9413 37.6703 89.3819 38.268 88.6852L89.375 29.0602C90.3634 27.9061 90.9065 26.4366 90.9063 24.9172H90.9078Z" fill="#D249FC"/>
<path d="M90.9081 22.6873V6.36476C90.9081 2.84889 88.0592 0 84.5433 0H64.0882C63.7866 0 63.4861 0.0223458 63.1867 0.0670343L5.4647 8.30872C3.94851 8.52638 2.56158 9.28325 1.55817 10.4406C0.554759 11.5979 0.00210469 13.0781 0.00152588 14.6098V39.0969C0.00152588 42.6161 2.85042 45.465 6.36964 45.4617L35.3312 45.455C36.0149 45.455 36.6953 45.3443 37.3422 45.1265L86.5576 28.7236C87.8246 28.3003 88.9264 27.4894 89.7071 26.4055C90.4879 25.3216 90.908 24.0197 90.9081 22.6839V22.6873Z" fill="url(#paint0_linear_1085_3447)"/>
<path d="M99.9977 93.6346V40.5681C99.9977 38.0208 98.4794 35.7216 96.1433 34.7195L37.5634 9.60899C36.771 9.27019 35.9181 9.09573 35.0563 9.09619H6.36964C2.85042 9.09619 0.00152588 11.9451 0.00152588 15.4576V43.5276C0.00152588 44.7878 0.373558 46.0145 1.07405 47.0602L34.5134 97.1672C35.6931 98.9369 37.6807 99.9994 39.809 99.9994H93.6363C97.1488 99.9994 99.9977 97.1471 99.9977 93.6346Z" fill="url(#paint1_linear_1085_3447)"/>
<path d="M81.2492 18.75H18.75V81.2477H81.25L81.2492 18.75Z" fill="black"/>
<path d="M54.7421 26.6846C53.1588 26.6841 51.7338 26.9731 50.4671 27.5518C49.2114 28.1304 48.2236 28.9377 47.5039 29.9736C46.7945 31.0122 46.4403 32.1976 46.4414 33.5299C46.4408 34.6106 46.6585 35.5932 47.0945 36.4775C47.5304 37.3481 48.1712 38.0998 48.9617 38.6682C49.7804 39.2479 50.7408 39.6416 51.8429 39.8494L56.5429 40.7494C57.3169 40.9031 57.9221 41.2307 58.3585 41.7322C58.8059 42.2239 59.0299 42.8354 59.0304 43.5666C59.0304 44.1551 58.8502 44.6788 58.4898 45.1377C58.1304 45.5966 57.6289 45.9567 56.9851 46.2182C56.3518 46.4692 55.6304 46.5942 54.821 46.5932C53.971 46.5932 53.2062 46.4541 52.5296 46.1697C51.864 45.8859 51.3351 45.4932 50.9429 44.9916C50.5637 44.487 50.3621 43.8712 50.3695 43.24H45.8828C45.9046 44.6374 46.2971 45.8814 47.0601 46.9721C47.8247 48.0528 48.8786 48.8929 50.2218 49.4924C51.564 50.0924 53.0757 50.3926 54.757 50.3932C56.4476 50.3932 57.964 50.0963 59.307 49.4955C60.6492 48.8955 61.6968 48.0604 62.4499 46.99C63.2041 45.9088 63.5817 44.6801 63.5828 43.3041C63.5822 42.1921 63.3419 41.1666 62.8617 40.2275C62.3837 39.2809 61.6809 38.466 60.8148 37.8541C59.9424 37.2208 58.933 36.8005 57.7867 36.5932L53.2335 35.7416C52.5127 35.6005 51.9502 35.3166 51.546 34.89C51.1421 34.4549 50.9421 33.9174 50.9421 33.2854C50.9421 32.7385 51.1062 32.2604 51.4335 31.8447C51.7611 31.4176 52.22 31.0843 52.8101 30.8447C53.3992 30.6049 54.0484 30.4838 54.7906 30.4838C55.5322 30.4838 56.1973 30.6088 56.7859 30.8588C57.376 31.0994 57.8348 31.4382 58.1624 31.8752C58.5005 32.3117 58.6692 32.8132 58.6687 33.3799H63.1398C63.1283 32.071 62.757 30.9145 62.0257 29.9104C61.3065 28.8947 60.3085 28.1031 59.032 27.5354C57.7656 26.9689 56.3257 26.6846 54.7421 26.6846ZM26.557 27.0783V49.9994H31.025V41.3385H36.2648C37.9012 41.3385 39.3364 41.0437 40.5703 40.4541C41.8151 39.8541 42.7703 39.0137 43.4359 37.933C44.1124 36.8525 44.4515 35.5752 44.4515 34.1674C44.451 32.7596 44.1177 31.5205 43.4515 30.4502C42.7958 29.3809 41.8567 28.552 40.6343 27.9635C39.4124 27.3734 37.9997 27.0783 36.396 27.0783H26.557ZM31.0218 30.7955H36.0999C36.8531 30.7955 37.508 30.938 38.0648 31.2229C38.6325 31.4947 39.069 31.8872 39.3742 32.4002C39.6804 32.901 39.832 33.5135 39.832 34.201C39.832 34.8895 39.6794 35.4958 39.3742 36.0197C39.0695 36.5338 38.632 36.9283 38.0648 37.2127C37.5075 37.4861 36.8526 37.6226 36.0999 37.6221H31.0218V30.7955ZM26.5539 68.751V73.4385H51.5539V68.751H26.5539Z" fill="white"/>
</g>
<defs>
<linearGradient id="paint0_linear_1085_3447" x1="88.0919" y1="-1.12029" x2="4.303" y2="37.7273" gradientUnits="userSpaceOnUse">
<stop offset="0.16" stop-color="#D249FC"/>
<stop offset="0.55" stop-color="#FF2D90"/>
</linearGradient>
<linearGradient id="paint1_linear_1085_3447" x1="6.22327" y1="6.59971" x2="97.9479" y2="98.3259" gradientUnits="userSpaceOnUse">
<stop offset="0.3" stop-color="#FF2D90"/>
<stop offset="0.7" stop-color="#7256FF"/>
</linearGradient>
<clipPath id="clip0_1085_3447">
<rect width="100" height="100" fill="white"/>
</clipPath>
</defs>
</svg>
