<svg width="100" height="100" viewBox="0 0 100 100" fill="none" xmlns="http://www.w3.org/2000/svg">
<g clip-path="url(#clip0_867_14702)">
<path fill-rule="evenodd" clip-rule="evenodd" d="M44.3188 49.1517C51.0069 42.7795 48.966 34.8985 42.9088 25.3485C36.8515 15.7986 24.6583 12.4011 22.3836 14.5683C20.1089 16.7356 19.6047 32.2308 25.6619 41.7807C31.7191 51.3306 37.6307 55.5238 44.3188 49.1517Z" fill="url(#paint0_linear_867_14702)"/>
<path fill-rule="evenodd" clip-rule="evenodd" d="M50.1016 50.0337C55.0495 57.8346 61.6643 54.9823 69.8519 47.1814C78.0396 39.3806 81.4346 24.4375 79.7517 21.7843C78.0689 19.1311 65.2803 19.2641 57.0927 27.065C48.905 34.8659 45.1538 42.2329 50.1016 50.0337Z" fill="url(#paint1_linear_867_14702)"/>
<path fill-rule="evenodd" clip-rule="evenodd" d="M47.3963 45.742C55.612 46.7508 58.843 39.1607 60.3494 26.8919C61.8558 14.623 55.6459 1.65564 52.8516 1.31254C50.0573 0.969446 40.6695 12.0217 39.1631 24.2905C37.6567 36.5594 39.1806 44.7332 47.3963 45.742Z" fill="url(#paint2_linear_867_14702)"/>
<path fill-rule="evenodd" clip-rule="evenodd" d="M45.3273 99.9981C62.5526 99.9981 76.5219 94.9943 76.5219 72.3019C76.5219 49.6095 62.5526 30.9883 45.3273 30.9883C28.1021 30.9883 14.1437 49.6095 14.1437 72.3019C14.1437 94.9943 28.1021 99.9981 45.3273 99.9981Z" fill="url(#paint3_linear_867_14702)"/>
<path d="M61.0828 67.6691C63.5436 67.6691 65.5384 66.7413 65.5384 65.5968C65.5384 64.4522 63.5436 63.5244 61.0828 63.5244C58.6221 63.5244 56.6272 64.4522 56.6272 65.5968C56.6272 66.7413 58.6221 67.6691 61.0828 67.6691Z" fill="#EAADCC"/>
<path d="M28.0869 66.4105C30.5293 66.7104 32.6223 66.0326 32.7618 64.8966C32.9013 63.7606 31.0344 62.5966 28.592 62.2967C26.1496 61.9968 24.0565 62.6746 23.917 63.8106C23.7776 64.9466 25.6445 66.1106 28.0869 66.4105Z" fill="#EAADCC"/>
<path d="M48.1818 64.863C46.8408 65.9529 45.2919 66.3974 43.5351 66.1967C41.7784 65.9959 40.4762 65.2667 39.6287 64.0091" stroke="black" stroke-width="1.24342" stroke-linecap="round" stroke-linejoin="round"/>
<path fill-rule="evenodd" clip-rule="evenodd" d="M30.9262 54.0781C32.1559 54.0352 33.2866 54.4947 34.1206 55.2723C34.9546 56.0499 35.4919 57.1457 35.5348 58.3754C35.5777 59.6051 35.1182 60.7358 34.3405 61.5697C33.5628 62.4037 32.4669 62.9409 31.2372 62.9839C30.0076 63.0268 28.877 62.5673 28.0431 61.7896C27.2092 61.0119 26.672 59.9161 26.629 58.6864C26.5861 57.4567 27.0456 56.3261 27.8232 55.4922C28.6008 54.6583 29.6966 54.1211 30.9262 54.0781Z" fill="black"/>
<path fill-rule="evenodd" clip-rule="evenodd" d="M31.1602 57.8026C31.1323 57.002 30.4602 56.3755 29.66 56.4034C28.8592 56.4314 28.2327 57.1032 28.2607 57.9038C28.2886 58.7044 28.9604 59.3309 29.7612 59.303C30.5615 59.2748 31.1882 58.6032 31.1602 57.8026Z" fill="white"/>
<path fill-rule="evenodd" clip-rule="evenodd" d="M57.9232 55.2092C59.1529 55.1663 60.2835 55.6258 61.1174 56.4034C61.9513 57.181 62.4886 58.2768 62.5315 59.5065C62.5745 60.7362 62.115 61.8669 61.3374 62.7008C60.5597 63.5348 59.4639 64.072 58.2342 64.115C57.0045 64.1579 55.8739 63.6984 55.0399 62.9207C54.206 62.143 53.6687 61.0472 53.6258 59.8175C53.5828 58.5878 54.0424 57.4573 54.82 56.6233C55.5977 55.7894 56.6935 55.2521 57.9232 55.2092Z" fill="black"/>
<path d="M34.9135 58.3973C34.9874 60.5136 33.3318 62.2888 31.2155 62.3627C29.0994 62.4366 27.3243 60.7812 27.2504 58.6649C27.1765 56.5487 28.8318 54.7735 30.9479 54.6997C33.0642 54.6257 34.8396 56.2811 34.9135 58.3973ZM36.1561 58.3539C36.0583 55.5514 33.7071 53.3591 30.9045 53.457C28.1021 53.5548 25.9099 55.9058 26.0077 58.7083C26.1056 61.5109 28.4565 63.7033 31.2589 63.6054C34.0615 63.5075 36.254 61.1565 36.1561 58.3539Z" fill="white" stroke="white" stroke-width="0.62171"/>
<path d="M61.9102 59.5281C61.9841 61.6445 60.3288 63.4197 58.2125 63.4936C56.0964 63.5675 54.321 61.9121 54.2471 59.7957C54.1732 57.6796 55.8288 55.9044 57.9449 55.8305C60.0612 55.7566 61.8363 57.412 61.9102 59.5281ZM63.1529 59.4847C63.055 56.6823 60.704 54.49 57.9015 54.5878C55.0991 54.6857 52.9066 57.0367 53.0045 59.8391C53.1023 62.6417 55.4534 64.8341 58.2559 64.7363C61.0585 64.6384 63.2507 62.2874 63.1529 59.4847Z" fill="white" stroke="white" stroke-width="0.62171"/>
<path fill-rule="evenodd" clip-rule="evenodd" d="M58.1569 58.9337C58.1289 58.1331 57.4571 57.5066 56.6565 57.5345C55.8559 57.5625 55.2294 58.2343 55.2573 59.0349C55.2853 59.8355 55.9571 60.462 56.7577 60.4341C57.5583 60.4061 58.1848 59.7343 58.1569 58.9337Z" fill="white"/>
<path d="M21.7079 74.4043L37.0434 90.3615" stroke="#ECB732" stroke-width="2.2796" stroke-linecap="round"/>
<path d="M34.971 76.2695L25.2309 86.6314" stroke="#ECB732" stroke-width="2.2796" stroke-linecap="round"/>
<path d="M68.7506 74.4043L53.4151 90.3615" stroke="#ECB732" stroke-width="2.2796" stroke-linecap="round"/>
<path d="M55.4874 76.2695L65.2276 86.6314" stroke="#ECB732" stroke-width="2.2796" stroke-linecap="round"/>
<path d="M51.5499 39.1741L41.3953 49.3287" stroke="#FFC73B" stroke-width="2.2796" stroke-linecap="round"/>
<path d="M49.4776 49.3286L39.323 39.174" stroke="#FFC73B" stroke-width="2.2796" stroke-linecap="round"/>
</g>
<defs>
<linearGradient id="paint0_linear_867_14702" x1="3362.04" y1="-2594.67" x2="6131.73" y2="5154.58" gradientUnits="userSpaceOnUse">
<stop stop-color="#52CE63"/>
<stop offset="1" stop-color="#51A256"/>
</linearGradient>
<linearGradient id="paint1_linear_867_14702" x1="2693.69" y1="3367.46" x2="-5056.25" y2="6135.79" gradientUnits="userSpaceOnUse">
<stop stop-color="#52CE63"/>
<stop offset="1" stop-color="#51A256"/>
</linearGradient>
<linearGradient id="paint2_linear_867_14702" x1="3421.36" y1="414.913" x2="1891" y2="12878.7" gradientUnits="userSpaceOnUse">
<stop stop-color="#8AE99C"/>
<stop offset="1" stop-color="#52CE63"/>
</linearGradient>
<linearGradient id="paint3_linear_867_14702" x1="10237.6" y1="5782.55" x2="8584.34" y2="32930.3" gradientUnits="userSpaceOnUse">
<stop stop-color="#FFE56C"/>
<stop offset="1" stop-color="#FFC63A"/>
</linearGradient>
<clipPath id="clip0_867_14702">
<rect width="100" height="100" fill="white"/>
</clipPath>
</defs>
</svg>
