<svg width="100" height="100" viewBox="0 0 100 100" fill="none" xmlns="http://www.w3.org/2000/svg">
<g clip-path="url(#clip0_867_20370)">
<path d="M50.2752 -0.000976562C29.6881 -0.000976562 13 16.6871 13 37.2742C13 37.6777 13.007 38.0777 13.0209 38.4777V74.299C13.0209 74.299 13.0209 74.3025 13.0209 74.306V77.9476C13.0209 77.9476 13.0209 77.9476 13.0243 77.9441V86.949C13.0243 87.0186 13.0209 87.0847 13.0209 87.1542C13.0209 87.2238 13.0243 87.2934 13.0278 87.3629V87.5299H13.0313C13.2296 94.4479 18.8954 99.9955 25.8622 99.9955C32.8289 99.9955 38.5539 94.4479 38.7522 87.5299V74.306H49.4022C49.6909 74.313 49.9831 74.3164 50.2718 74.3164C70.8589 74.3164 87.547 57.8613 87.547 37.2742C87.547 16.6871 70.8624 -0.000976562 50.2752 -0.000976562ZM50.2752 48.5782C47.9971 48.5782 42.2233 48.5782 39.8269 48.5782H38.7626V37.2777C38.7626 30.944 43.9415 25.8068 50.2752 25.8068C56.6089 25.8068 61.7461 30.944 61.7461 37.2777C61.7461 43.6114 56.6089 48.5817 50.2752 48.5817V48.5782Z" fill="#E72264"/>
<path opacity="0.15" d="M25.5387 74.313H38.7348V87.5334H38.6756C38.4774 94.4514 32.8115 99.9991 25.8448 99.9991C18.8781 99.9991 13.2087 94.4514 13.0104 87.5334H13.007V87.3665C13.007 87.2969 13 87.2273 13 87.1578C13 87.0882 13.0035 87.0221 13.0035 86.9526V86.0204C13.4 79.8328 19.2398 74.313 25.5352 74.313H25.5387Z" fill="#1D1D1B"/>
<g opacity="0.05">
<path opacity="0.5" d="M13.0209 58.4108V74.3059C13.0209 60.3029 24.7874 48.7763 38.7556 48.585V43.5139C28.3734 44.6061 19.1807 50.1954 13.0209 58.4108Z" fill="black"/>
<path d="M13.0417 86.2672C16.0747 84.0412 19.7546 82.73 23.7266 82.73H38.7591V74.3059H25.8796C19.0763 74.3059 13.5148 79.5822 13.0417 86.2672Z" fill="black"/>
</g>
<g opacity="0.05">
<path opacity="0.5" d="M38.7556 48.585V43.98C28.2864 45.006 19.0485 50.7171 13.0209 59.1029V74.3059C13.0209 60.3029 24.7874 48.7763 38.7556 48.585Z" fill="black"/>
<path d="M25.8796 74.3059C19.2607 74.3059 13.8139 79.304 13.0905 85.7316C16.1199 83.3665 19.8624 81.9683 23.9214 81.9683H38.7557V74.3094H25.8761L25.8796 74.3059Z" fill="black"/>
</g>
<g opacity="0.05">
<path opacity="0.5" d="M38.7556 48.5851V44.4426C28.1925 45.3991 18.8955 51.2493 13.0209 59.823V74.3025C13.0209 60.2995 24.7874 48.7729 38.7556 48.5816V48.5851Z" fill="black"/>
<path d="M25.8796 74.3059C19.445 74.3059 14.12 79.0257 13.16 85.1925C16.1721 82.6917 19.9772 81.1996 24.1161 81.1996H38.7556V74.3059H25.8761H25.8796Z" fill="black"/>
</g>
<g opacity="0.05">
<path opacity="0.5" d="M38.7556 48.5851V44.9087C28.0847 45.7921 18.725 51.8024 13.0209 60.5847V74.3059C13.0209 60.3029 24.7874 48.7764 38.7556 48.5851Z" fill="black"/>
<path d="M25.8796 74.3059C19.6293 74.3059 14.4226 78.7614 13.2539 84.6673C16.2416 82.0274 20.0989 80.4344 24.3144 80.4344H38.7591V74.3059H25.8796Z" fill="black"/>
</g>
<g opacity="0.05">
<path opacity="0.5" d="M38.7556 48.5853V45.3784C27.9595 46.1784 18.5268 52.3764 13.0209 61.3883V74.3061C13.0209 60.3031 24.7874 48.7766 38.7556 48.5853Z" fill="black"/>
<path d="M25.8796 74.3062C19.8172 74.3062 14.7391 78.4974 13.3722 84.1354C16.3181 81.3599 20.2241 79.666 24.5092 79.666H38.7556V74.3027H25.8761L25.8796 74.3062Z" fill="black"/>
</g>
<g opacity="0.05">
<path opacity="0.5" d="M38.7556 48.5852V45.8479C27.8169 46.5644 18.2937 52.9746 13.0209 62.2508V74.306C13.0209 60.3031 24.7874 48.7765 38.7556 48.5852Z" fill="black"/>
<path d="M25.8796 74.3062C20.0085 74.3062 15.0625 78.2365 13.5148 83.6032C16.4086 80.692 20.3528 78.9008 24.7074 78.9008H38.7591V74.3062H25.8796Z" fill="black"/>
</g>
<g opacity="0.05">
<path opacity="0.5" d="M38.7556 48.5851V46.3208C27.6499 46.9434 18.019 53.611 13.0209 63.1863V74.3059C13.0209 60.3029 24.7874 48.7764 38.7556 48.5851Z" fill="black"/>
<path d="M25.8796 74.3059C20.2067 74.3059 15.393 77.9788 13.6783 83.0743C16.506 80.0309 20.4884 78.1353 24.8987 78.1353H38.7556V74.3059H25.8761H25.8796Z" fill="black"/>
</g>
<g opacity="0.05">
<path opacity="0.5" d="M38.7556 48.5851V46.7974C27.4447 47.3191 17.6851 54.2997 13.0209 64.2263V74.306C13.0209 60.303 24.7874 48.7764 38.7556 48.5851Z" fill="black"/>
<path d="M25.8796 74.3059C20.4015 74.3059 15.7269 77.7319 13.8661 82.5561C16.6173 79.377 20.6241 77.3701 25.097 77.3701H38.7591V74.3059H25.8796Z" fill="black"/>
</g>
<g opacity="0.05">
<path opacity="0.5" d="M38.7556 48.5853V47.2844C27.1839 47.6983 17.2573 55.072 13.0209 65.4334V74.3061C13.0209 60.3031 24.7874 48.7765 38.7556 48.5853Z" fill="black"/>
<path d="M25.8796 74.3062C20.5997 74.3062 16.0642 77.4887 14.0817 82.0381C16.7355 78.7234 20.7702 76.6052 25.2952 76.6052H38.7591V74.3062H25.8796Z" fill="black"/>
</g>
</g>
<defs>
<clipPath id="clip0_867_20370">
<rect width="100" height="100" fill="white"/>
</clipPath>
</defs>
</svg>
