<svg width="100" height="100" viewBox="0 0 100 100" fill="none" xmlns="http://www.w3.org/2000/svg">
<path fill-rule="evenodd" clip-rule="evenodd" d="M73.2417 39.1C75.2417 39.1 76.8667 40.725 76.8667 42.725V58.8375L94.5542 43.575C94.8168 43.3472 95.1394 43.1998 95.4835 43.1503C95.8277 43.1008 96.1787 43.1513 96.495 43.2958C96.8112 43.4403 97.0792 43.6726 97.267 43.9652C97.4548 44.2578 97.5545 44.5982 97.5542 44.9458V89.6625C97.554 90.0054 97.4569 90.3412 97.2739 90.6312C97.091 90.9212 96.8297 91.1535 96.5202 91.3013C96.2108 91.449 95.8659 91.5062 95.5253 91.4661C95.1848 91.4261 94.8625 91.2905 94.5958 91.075L76.8667 76.7375V92.95C76.866 93.8134 76.5572 94.6482 75.9958 95.3042L75.6333 95.6708C75.2461 96.0108 74.7909 96.2643 74.2981 96.4145C73.8052 96.5646 73.286 96.608 72.775 96.5417L27.3292 90.6667V96.1C27.3292 97.0607 26.9478 97.9821 26.2689 98.6618C25.59 99.3415 24.669 99.7239 23.7083 99.725H3.625C2.66431 99.725 1.74291 99.3437 1.06321 98.6647C0.38351 97.9858 0.00110424 97.0648 0 96.1042L0 42.7292C0 40.7292 1.625 39.1042 3.625 39.1H73.2417ZM47.5833 57.2167H29.075C28.595 57.2167 28.1346 57.4071 27.7948 57.7461C27.455 58.0851 27.2636 58.545 27.2625 59.025V70.8875C27.2625 71.8875 28.075 72.6958 29.075 72.6958H47.5833C48.5833 72.6958 49.3917 71.8875 49.3958 70.8875V59.025C49.3947 58.545 49.2033 58.0851 48.8635 57.7461C48.5237 57.4071 48.0633 57.2167 47.5833 57.2167ZM53.4417 0C58.2531 0 62.8675 1.91135 66.2698 5.31357C69.672 8.71579 71.5833 13.3302 71.5833 18.1417C71.5833 22.9531 69.672 27.5675 66.2698 30.9698C62.8675 34.372 58.2531 36.2833 53.4417 36.2833C48.6302 36.2833 44.0158 34.372 40.6136 30.9698C37.2113 27.5675 35.3 22.9531 35.3 18.1417C35.3 13.3302 37.2113 8.71579 40.6136 5.31357C44.0158 1.91135 48.6302 0 53.4417 0ZM20.1917 5.47083C22.1768 5.47083 24.1425 5.86184 25.9766 6.62152C27.8106 7.3812 29.4771 8.49469 30.8808 9.8984C32.2845 11.3021 33.398 12.9686 34.1576 14.8026C34.9173 16.6366 35.3083 18.6024 35.3083 20.5875C35.3083 22.5726 34.9173 24.5384 34.1576 26.3724C33.398 28.2064 32.2845 29.8729 30.8808 31.2766C29.4771 32.6803 27.8106 33.7938 25.9766 34.5535C24.1425 35.3132 22.1768 35.7042 20.1917 35.7042C16.1825 35.7042 12.3375 34.1115 9.50257 31.2766C6.66764 28.4417 5.075 24.5967 5.075 20.5875C5.075 16.5783 6.66764 12.7333 9.50257 9.8984C12.3375 7.06348 16.1825 5.47083 20.1917 5.47083Z" fill="url(#paint0_linear_867_22549)"/>
<defs>
<linearGradient id="paint0_linear_867_22549" x1="62.5" y1="4.16667" x2="-2.08333" y2="100" gradientUnits="userSpaceOnUse">
<stop stop-color="#E8632A" stop-opacity="0.996"/>
<stop offset="0.586" stop-color="#B465E6" stop-opacity="0.996"/>
<stop offset="1" stop-color="#979FD9" stop-opacity="0.996"/>
</linearGradient>
</defs>
</svg>
