<svg width="100" height="100" viewBox="0 0 100 100" fill="none" xmlns="http://www.w3.org/2000/svg">
<path d="M35.4449 54.5248C32.2234 55.4391 30.1099 57.0421 28.7176 58.6438C30.0511 57.4768 31.8374 56.4058 34.2469 55.7228C36.7114 55.0243 38.8139 55.0293 40.5511 55.3646V54.0061C39.0691 53.8706 37.3701 53.9786 35.4449 54.5248ZM28.5704 43.1048L16.6063 46.2568C16.6063 46.2568 16.8243 46.5648 17.2281 46.9758L27.3721 44.3028C27.3721 44.3028 27.2284 46.1551 25.9801 47.8121C28.3414 46.0256 28.5704 43.1048 28.5704 43.1048ZM38.5851 71.2226C21.7484 75.7573 12.8407 56.2453 10.1438 46.1178C8.89779 41.4431 8.35387 37.9026 8.20889 35.6178C8.19332 35.3806 8.20052 35.1806 8.21729 34.9973C7.34389 35.0501 6.92574 35.5041 7.01082 36.8161C7.15579 39.0996 7.69972 42.6398 8.94572 47.3161C11.6414 57.4421 20.5504 76.9541 37.3871 72.4193C41.0519 71.4321 43.8051 69.6338 45.8719 67.3383C43.9669 69.0588 41.5826 70.4138 38.5851 71.2226ZM41.7491 31.1633V32.3616H48.3531C48.2176 31.9373 48.0811 31.5551 47.9456 31.1633H41.7491Z" fill="#2D4552"/>
<path d="M49.8291 41.0318C52.7991 41.8753 54.3699 43.9576 55.2001 45.8003L58.5116 46.7408C58.5116 46.7408 58.0599 40.2915 52.2264 38.6346C46.7691 37.084 43.4109 41.6668 43.0024 42.2598C44.5899 41.1288 46.9081 40.2028 49.8291 41.0318ZM76.1894 45.83C70.7271 44.2725 67.3701 48.8648 66.9676 49.4496C68.5564 48.3198 70.8734 47.3936 73.7931 48.2263C76.7584 49.0711 78.3279 51.1508 79.1606 52.9948L82.4769 53.9388C82.4769 53.9388 82.0179 47.4883 76.1894 45.83ZM72.8994 62.8345L45.3519 55.1333C45.3519 55.1333 45.6501 56.6453 46.7944 58.6031L69.9881 65.087C71.8976 63.9823 72.8994 62.8345 72.8994 62.8345ZM53.8006 79.4113C31.9884 73.5633 34.6254 45.7716 38.1549 32.6021C39.6081 27.1748 41.1021 23.1409 42.3411 20.4368C41.6019 20.2846 40.9896 20.674 40.3846 21.9045C39.0691 24.5726 37.3869 28.9168 35.7589 34.9983C32.2304 48.1675 29.5934 75.9583 51.4046 81.8063C61.6854 84.5606 69.6944 80.3745 75.6646 73.8005C69.9976 78.9333 62.7624 81.811 53.8006 79.4113Z" fill="#2D4552"/>
<path d="M41.7491 64.7099V59.1016L26.167 63.5201C26.167 63.5201 27.3184 56.8301 35.4449 54.5249C37.9094 53.8264 40.0121 53.8311 41.7491 54.1666V31.1634H49.5511C48.7016 28.5384 47.8799 26.5174 47.1896 25.1131C46.0479 22.7889 44.8774 24.3296 42.2201 26.5521C40.3486 28.1156 35.6186 31.4511 28.5009 33.3691C21.383 35.2884 15.6286 34.7794 13.2277 34.3636C9.82391 33.7764 8.04356 33.0289 8.21011 35.6179C8.35506 37.9014 8.89901 41.4419 10.145 46.1179C12.8407 56.2441 21.7496 75.7561 38.5864 71.2214C42.9844 70.0364 46.0886 67.6941 48.2404 64.7086H41.7491V64.7099ZM16.6051 46.2569L28.5704 43.1049C28.5704 43.1049 28.2216 47.7079 23.7361 48.8904C19.2492 50.0716 16.6051 46.2569 16.6051 46.2569Z" fill="#E2574C"/>
<path d="M86.7804 31.4292C83.6701 31.9745 76.2084 32.6537 66.9869 30.182C57.7629 27.7117 51.6429 23.3913 49.2181 21.3606C45.7809 18.4816 44.2689 16.4808 42.7809 19.5072C41.4654 22.1765 39.7831 26.5207 38.1549 32.6022C34.6266 45.7715 31.9896 73.5622 53.8006 79.4102C75.6071 85.2532 87.2164 59.8657 90.7449 46.6952C92.3731 40.615 93.0871 36.0107 93.2836 33.042C93.5076 29.679 91.1976 30.6552 86.7804 31.4292ZM42.9581 42.3247C42.9581 42.3247 46.3954 36.9787 52.2251 38.6357C58.0586 40.2927 58.5104 46.742 58.5104 46.742L42.9581 42.3247ZM57.1889 66.314C46.9346 63.3102 45.3531 55.1332 45.3531 55.1332L72.8994 62.8347C72.8994 62.8335 67.3391 69.2802 57.1889 66.314ZM66.9281 49.5095C66.9281 49.5095 70.3606 44.1672 76.1894 45.829C82.0179 47.4885 82.4769 53.9377 82.4769 53.9377L66.9281 49.5095Z" fill="#2EAD33"/>
<path d="M36.3039 60.6458L26.167 63.5188C26.167 63.5188 27.2681 57.2458 34.7356 54.7598L28.9956 33.2183L28.4996 33.369C21.3818 35.2885 15.6274 34.7793 13.2265 34.3635C9.82271 33.7765 8.04236 33.0288 8.20889 35.618C8.35386 37.9015 8.89779 41.4418 10.1438 46.118C12.8395 56.244 21.7484 75.756 38.5851 71.2213L39.0811 71.0655L36.3039 60.6458ZM16.6051 46.257L28.5704 43.1048C28.5704 43.1048 28.2216 47.7078 23.736 48.8903C19.2492 50.0715 16.6051 46.257 16.6051 46.257Z" fill="#D65348"/>
<path d="M57.6514 66.4265L57.1876 66.3137C46.9334 63.3102 45.3519 55.1332 45.3519 55.1332L59.5564 59.1037L67.0766 30.206L66.9856 30.182C57.7616 27.7117 51.6419 23.3913 49.2169 21.3606C45.7796 18.4816 44.2676 16.4808 42.7796 19.5072C41.4654 22.1765 39.7831 26.5207 38.1549 32.6022C34.6266 45.7715 31.9896 73.5622 53.8006 79.41L54.2476 79.5107L57.6514 66.4265ZM42.9581 42.3247C42.9581 42.3247 46.3954 36.9787 52.2251 38.6357C58.0586 40.2927 58.5104 46.742 58.5104 46.742L42.9581 42.3247Z" fill="#1D8D22"/>
<path d="M36.8203 60.4985L34.1018 61.27C34.7441 64.8905 35.8761 68.365 37.6528 71.4345C37.9621 71.3662 38.2688 71.3075 38.5838 71.2212C39.4093 70.9985 40.1748 70.7227 40.9118 70.422C38.9266 67.476 37.6133 64.083 36.8203 60.4985ZM35.7588 34.9985C34.3618 40.2125 33.1121 47.7172 33.4561 55.2447C34.0718 54.9775 34.7223 54.7285 35.4448 54.5235L35.9481 54.411C35.3346 46.3705 36.6608 38.177 38.1548 32.6022C38.5336 31.192 38.9133 29.8802 39.2918 28.657C38.6821 29.045 38.0256 29.4427 37.2778 29.8525C36.7736 31.409 36.2643 33.1102 35.7588 34.9985Z" fill="#C04B41"/>
</svg>
