<svg width="100" height="100" viewBox="0 0 100 100" fill="none" xmlns="http://www.w3.org/2000/svg">
<g clip-path="url(#clip0_1085_3482)">
<path d="M91.5736 100H8.42366C4.03147 100 0.467407 96.3195 0.467407 91.7828V8.21719C0.467407 3.67734 4.03147 0 8.42678 0H91.5736C95.9721 0 99.533 3.67734 99.533 8.21719V91.7828C99.533 96.3195 95.969 100 91.5736 100Z" fill="#3D4C73"/>
<path d="M41.7772 19.3625C41.6238 19.3765 41.4749 19.4221 41.3399 19.4965C41.2049 19.5708 41.0867 19.6723 40.9929 19.7945C40.7731 19.774 40.5526 19.7628 40.3319 19.7609C40.1965 19.7609 40.071 19.7701 39.9554 19.7883C39.2522 19.5125 38.503 19.507 38.1804 20.4C38.0616 20.7578 37.9929 21.1266 37.9804 21.5031C37.8463 21.602 37.7298 21.7227 37.6358 21.8602C36.9585 22.8352 37.053 24.5539 37.3233 25.6414C37.7804 27.4945 39.7554 28.9523 41.464 28.4031C41.6046 28.3781 41.7421 28.325 41.8608 28.2398C42.7733 28.4125 43.7686 28.1055 44.5647 27.1398C45.7468 25.6977 45.8679 23.7484 45.178 22.1305C45.1747 21.9995 45.1421 21.8709 45.0825 21.7542C45.0228 21.6375 44.9377 21.5357 44.8335 21.4563C44.4573 20.834 43.9499 20.3013 43.3468 19.8953C42.8296 19.55 42.2694 19.3141 41.7772 19.3625ZM76.8999 19.3625C76.7463 19.3768 76.5972 19.4225 76.462 19.4968C76.3268 19.5711 76.2083 19.6725 76.114 19.7945C75.8942 19.774 75.6737 19.7628 75.453 19.7609C75.3181 19.7609 75.1926 19.7701 75.0765 19.7883C74.3772 19.5125 73.6288 19.507 73.3061 20.4C73.1832 20.7583 73.115 21.126 73.1015 21.5031C72.9702 21.6039 72.8538 21.7219 72.7601 21.8602C72.0796 22.8352 72.1772 24.5539 72.4476 25.6414C72.9046 27.4945 74.8772 28.9523 76.5851 28.4031C76.7257 28.3781 76.8647 28.325 76.9835 28.2398C77.896 28.4125 78.8929 28.1055 79.6866 27.1398C80.871 25.6977 80.9913 23.7484 80.3022 22.1305C80.2975 21.9994 80.2639 21.871 80.2038 21.7545C80.1437 21.6379 80.0586 21.5361 79.9546 21.4563C79.5793 20.8344 79.073 20.3017 78.471 19.8953C77.9522 19.55 77.3913 19.3141 76.8999 19.3625ZM22.7343 20.0359C21.6733 19.9969 20.6397 20.4008 20.0015 21.4031C19.9443 21.4916 19.8916 21.5828 19.8436 21.6766C19.1017 22.3244 18.6024 23.2056 18.428 24.175C18.3162 24.2102 18.2187 24.2803 18.1497 24.3751C18.0808 24.4699 18.0442 24.5844 18.0452 24.7016C18.014 25.8305 18.5936 26.7172 19.428 27.3094C20.2952 28.0906 21.5882 28.4039 22.8483 28.4422C24.714 28.4914 25.9976 27.4688 26.578 26.1141L26.6007 26.0875C27.5913 24.7828 27.7062 22.9703 26.2835 21.9523C26.2037 21.8951 26.1222 21.8404 26.039 21.7883C25.7679 21.4315 25.4453 21.1169 25.0819 20.8547C24.3957 20.3593 23.5798 20.0747 22.7343 20.0359ZM58.903 20.0383C57.8429 20.0008 56.8077 20.4039 56.1687 21.4055C56.1109 21.492 56.0589 21.5823 56.0132 21.6758C55.2694 22.324 54.7694 23.2069 54.596 24.1781C54.4838 24.2126 54.3858 24.2826 54.3168 24.3776C54.2477 24.4725 54.2114 24.5873 54.2132 24.7047C54.178 25.8336 54.7585 26.7172 55.596 27.3125C56.4632 28.0938 57.7561 28.407 59.0132 28.4414C60.8788 28.4914 62.1671 27.4688 62.7436 26.1148L62.7655 26.0875C63.7593 24.7828 63.8757 22.9742 62.453 21.9547C62.3718 21.899 62.2908 21.8448 62.2101 21.7922C61.9385 21.435 61.6155 21.1201 61.2515 20.8578C60.5651 20.362 59.7489 20.0772 58.903 20.0383ZM24.0444 22.1125C24.4527 22.2149 24.8453 22.3717 25.2116 22.5789C25.346 22.7549 25.4564 22.9432 25.5429 23.1437C25.2716 22.902 24.9509 22.7223 24.603 22.6172C24.5311 22.4578 24.3968 22.3281 24.2366 22.2969L24.1897 22.2844C24.143 22.2257 24.0945 22.1684 24.0444 22.1125ZM60.214 22.1125C60.6217 22.215 61.0137 22.3719 61.3796 22.5789C61.5116 22.7547 61.6249 22.943 61.7124 23.1437C61.4406 22.9018 61.1194 22.7221 60.771 22.6172C60.6991 22.4578 60.5647 22.3281 60.4015 22.2969L60.3546 22.2844C60.3105 22.2249 60.2635 22.1675 60.214 22.1125ZM41.2413 22.6094C41.2913 22.632 41.3405 22.6578 41.3976 22.6891C41.4257 22.7073 41.4541 22.7271 41.4827 22.7484C41.5546 23.1375 41.5319 23.6641 41.2186 23.8367C41.1943 23.4279 41.2021 23.0178 41.2421 22.6102L41.2413 22.6094ZM76.3624 22.6094C76.4155 22.632 76.4647 22.6578 76.5187 22.6891L76.6069 22.7484C76.6788 23.1375 76.6538 23.6641 76.3397 23.8367C76.3147 23.4266 76.3249 23.0164 76.3632 22.6102L76.3624 22.6094ZM23.1171 23.5484C23.1459 23.5719 23.1773 23.5918 23.2108 23.6078C23.3124 23.6547 23.4147 23.6852 23.521 23.707C23.533 23.7857 23.5387 23.8643 23.5382 23.943C23.3624 23.7117 23.0421 23.693 22.8069 23.8305L22.7632 23.6547L23.1171 23.5484ZM59.2866 23.5484C59.3152 23.5718 59.3464 23.5917 59.3796 23.6078C59.4796 23.6547 59.5843 23.6852 59.6936 23.707C59.7025 23.7857 59.7067 23.8643 59.7062 23.943C59.5304 23.7117 59.2101 23.693 58.9718 23.8305L58.928 23.6547L59.2866 23.5484ZM21.6538 23.9141C21.6627 23.9865 21.6757 24.0589 21.6929 24.1312C21.721 24.2365 21.7538 24.3438 21.7913 24.4531C21.6819 24.3336 21.6319 24.1562 21.6538 23.9141ZM57.8218 23.9172C57.852 24.099 57.8968 24.2776 57.9561 24.4531C57.8491 24.3336 57.7999 24.1586 57.8218 23.9172ZM44.5663 24.0031C44.5882 24.7648 44.4007 25.5297 43.9804 26.182H43.9835C43.7233 26.5891 43.4108 26.8672 43.0788 27.0359C43.2976 26.6977 43.5069 26.2938 43.6952 25.8523C43.7379 25.7617 43.7775 25.6695 43.814 25.5758C43.9522 25.4508 44.0304 25.2617 43.9804 25.0836C43.9814 25.076 43.9835 25.0687 43.9866 25.0617C44.2593 24.8586 44.4515 24.4789 44.5265 24.0719L44.5663 24.0031ZM79.6913 24.0031C79.7191 24.7719 79.5146 25.5312 79.1046 26.182C78.8444 26.5891 78.5351 26.8672 78.203 27.0359C78.4186 26.6977 78.6311 26.2938 78.8163 25.8523C78.8606 25.7617 78.9017 25.6695 78.9397 25.5758C79.078 25.4508 79.1546 25.2617 79.1015 25.0836L79.1077 25.0617C79.3804 24.8586 79.5757 24.4789 79.6476 24.0719L79.6913 24.0031ZM38.1882 24.1586C38.364 24.8008 38.6202 25.4289 38.8835 25.9805C39.0374 26.3883 39.2311 26.8172 39.4819 27.1313C39.3542 27.0498 39.234 26.9573 39.1226 26.8547C38.539 26.3125 38.2812 25.4914 38.2093 24.7172C38.1948 24.5313 38.1878 24.345 38.1882 24.1586ZM73.3124 24.1586C73.4843 24.8008 73.7421 25.4289 74.0077 25.9805C74.1585 26.3883 74.3554 26.8172 74.603 27.1313C74.4753 27.0498 74.3551 26.9573 74.2436 26.8547C73.6601 26.3125 73.4061 25.4914 73.3304 24.7172C73.3149 24.5314 73.3089 24.345 73.3124 24.1586ZM24.6952 24.7734C24.7608 24.9648 24.7632 25.15 24.7226 25.3281L24.5757 25.0406C24.6226 24.9523 24.6632 24.8672 24.6944 24.7734H24.6952ZM60.8624 24.7766C60.9288 24.968 60.9327 25.1531 60.8913 25.3289L60.7436 25.0438C60.7888 24.9572 60.8284 24.868 60.8624 24.7766ZM22.9858 26.482C23.0332 26.5383 23.0827 26.593 23.1343 26.6461C22.8265 26.7336 22.503 26.7555 22.1858 26.7055L22.2397 26.6398C22.4936 26.6242 22.7444 26.5734 22.9858 26.482ZM59.1538 26.482C59.1996 26.5383 59.2491 26.593 59.3022 26.6461C58.9944 26.7336 58.6679 26.7555 58.3538 26.7055L58.4046 26.6383C58.6585 26.6227 58.9124 26.5734 59.1538 26.482ZM22.7343 36.4953C21.6733 36.4563 20.6397 36.8609 20.0015 37.8625C19.9443 37.9509 19.8916 38.0422 19.8436 38.1359C19.1019 38.7846 18.6027 39.6662 18.428 40.6359C18.3161 40.6711 18.2184 40.7414 18.1495 40.8364C18.0806 40.9313 18.044 41.0459 18.0452 41.1633C18.014 42.2914 18.5936 43.1766 19.428 43.7687C20.2952 44.5531 21.5882 44.8656 22.8483 44.9C24.714 44.9469 25.9976 43.9289 26.578 42.5742L26.6007 42.5453C27.5913 41.2383 27.7062 39.4289 26.2835 38.4102C26.2015 38.357 26.1233 38.3047 26.039 38.2516C25.7682 37.8931 25.4457 37.5769 25.0819 37.3133C24.3949 36.8193 23.5795 36.5352 22.7343 36.4953ZM58.903 36.4953C57.8429 36.4563 56.8077 36.8609 56.1687 37.8625C56.1119 37.9505 56.0601 38.0417 56.0132 38.1359C55.2698 38.7835 54.7699 39.6655 54.596 40.6359C54.4837 40.6705 54.3856 40.7406 54.3165 40.8357C54.2475 40.9308 54.2112 41.0458 54.2132 41.1633C54.178 42.2914 54.7585 43.1766 55.596 43.7687C56.4632 44.5531 57.7561 44.8656 59.0132 44.9C60.8788 44.9469 62.1671 43.9289 62.7436 42.5742L62.7655 42.5453C63.7593 41.2383 63.8757 39.4289 62.453 38.4102L62.2101 38.2516C61.938 37.8937 61.615 37.5776 61.2515 37.3133C60.5643 36.8192 59.7485 36.5351 58.903 36.4953ZM24.0444 38.5672C24.4516 38.6732 24.8438 38.8302 25.2116 39.0344C25.3468 39.2102 25.4554 39.4016 25.5429 39.6016C25.2718 39.359 24.9511 39.1785 24.603 39.0727C24.5311 38.9164 24.3968 38.7836 24.2366 38.7523L24.1897 38.743C24.143 38.683 24.0946 38.6244 24.0444 38.5672ZM60.214 38.5672C60.6203 38.6741 61.0119 38.831 61.3796 39.0344C61.5116 39.2102 61.6249 39.4016 61.7124 39.6016C61.4409 39.3588 61.1196 39.1783 60.771 39.0727C60.6991 38.9164 60.5647 38.7836 60.4015 38.7523L60.3546 38.743C60.3106 38.6822 60.2636 38.6235 60.214 38.5672ZM23.1171 40.0031C23.1459 40.0266 23.1773 40.0465 23.2108 40.0625C23.3119 40.1094 23.4153 40.144 23.521 40.1664C23.533 40.244 23.5387 40.3214 23.5382 40.3984C23.3624 40.1664 23.0421 40.1508 22.8069 40.2852L22.7632 40.1133L23.1171 40.0031ZM59.2866 40.0031C59.3152 40.0265 59.3464 40.0464 59.3796 40.0625C59.4796 40.1094 59.5843 40.144 59.6936 40.1664C59.7025 40.244 59.7067 40.3214 59.7062 40.3984C59.5304 40.1664 59.2101 40.1508 58.9718 40.2852L58.928 40.1133L59.2866 40.0031ZM21.6538 40.3727C21.6788 40.5586 21.7246 40.7385 21.7913 40.9125C21.6819 40.7938 21.6319 40.6141 21.6538 40.3727ZM57.8218 40.3727C57.8442 40.5586 57.889 40.7385 57.9561 40.9125C57.8491 40.7938 57.7999 40.6141 57.8218 40.3727ZM24.6944 41.232C24.7608 41.4227 24.7632 41.6086 24.7226 41.7867C24.6757 41.6898 24.6257 41.5961 24.5757 41.4984C24.6231 41.4146 24.6627 41.3263 24.6944 41.232ZM60.8624 41.232C60.9288 41.4227 60.9312 41.6086 60.8897 41.7867C60.8397 41.6898 60.7905 41.5961 60.7436 41.4984C60.791 41.4146 60.8306 41.3263 60.8624 41.232ZM22.9858 42.9406C23.0332 42.9948 23.0827 43.0492 23.1343 43.1039C22.8257 43.1895 22.5024 43.2087 22.1858 43.1602L22.2397 43.0977V43.0945C22.4936 43.0789 22.7444 43.0281 22.9858 42.9406ZM59.1538 42.9406C59.1996 42.9948 59.2491 43.0492 59.3022 43.1039C58.9934 43.1883 58.6704 43.2075 58.3538 43.1602L58.4046 43.0977V43.0945C58.6585 43.0789 58.9124 43.0281 59.1538 42.9406Z" fill="#7FCFBD"/>
<path d="M23.6315 53.9342C21.2057 53.9342 19.2393 55.9342 19.2393 58.4045V76.274C19.2393 78.7443 21.2057 80.7412 23.6315 80.7412C26.0573 80.7412 28.0237 78.7443 28.0237 76.274V58.4045C28.0237 55.9373 26.0581 53.9373 23.6315 53.9373M58.7659 53.9342C56.3393 53.9342 54.3768 55.9342 54.3768 58.4045V76.274C54.3768 78.7443 56.3393 80.7412 58.7659 80.7412C61.1893 80.7412 63.1581 78.7443 63.1581 76.274V58.4045C63.1581 55.9373 61.1893 53.9373 58.7659 53.9373M41.2003 36.0646C38.7737 36.0646 36.8081 38.0646 36.8081 40.5287V76.274C36.8081 78.7443 38.7737 80.7412 41.2003 80.7412C43.6268 80.7412 45.5893 78.7443 45.5893 76.274V40.5287C45.5893 38.0615 43.6268 36.0615 41.2003 36.0615M76.3339 36.0646C73.9081 36.0646 71.9424 38.0646 71.9424 40.5287V76.274C71.9424 78.7443 73.9081 80.7412 76.3339 80.7412C78.7573 80.7412 80.726 78.7443 80.726 76.274V40.5287C80.726 38.0615 78.7573 36.0615 76.3339 36.0615" fill="white"/>
</g>
<defs>
<clipPath id="clip0_1085_3482">
<rect width="100" height="100" fill="white"/>
</clipPath>
</defs>
</svg>
