<svg width="100" height="100" viewBox="0 0 100 100" fill="none" xmlns="http://www.w3.org/2000/svg">
<g clip-path="url(#clip0_1085_3486)">
<path d="M68.4689 9.01489L64.815 15.2805C64.6172 15.62 64.3336 15.9015 63.9928 16.0969C63.6519 16.2923 63.2657 16.3947 62.8728 16.3938C62.4757 16.3939 62.0858 16.2882 61.7431 16.0875C61.2289 15.7873 60.8549 15.2951 60.7034 14.7192C60.5519 14.1433 60.6353 13.5309 60.9353 13.0165L63.2689 9.01489H56.7072C56.7072 9.39771 56.6205 9.7852 56.415 10.1399L46.3189 27.5774C43.8431 31.8704 38.5314 34.3594 34.4009 34.3594H31.1689C30.5806 34.3484 30.02 34.107 29.6078 33.6871C29.1956 33.2671 28.9647 32.7022 28.9647 32.1137C28.9647 31.5253 29.1956 30.9603 29.6078 30.5404C30.02 30.1204 30.5806 29.879 31.1689 29.868H34.4009C37.3283 29.868 40.683 27.7875 42.3494 25.4758C43.4598 23.9342 46.6353 18.4472 51.8759 9.01489H45.9111C36.4884 29.3071 30.8736 25.3766 14.0306 25.3766C12.9158 27.0657 11.7947 28.7602 10.6986 30.4297H22.4525C23.0408 30.4407 23.6014 30.6821 24.0136 31.1021C24.4258 31.522 24.6567 32.087 24.6567 32.6754C24.6567 33.2639 24.4258 33.8288 24.0136 34.2488C23.6014 34.6687 23.0408 34.9102 22.4525 34.9211H7.77046C6.81365 36.4018 5.8709 37.8914 4.94233 39.3899L41.8392 39.1313L40.1876 39.1321C42.422 39.1774 46.0369 37.8696 47.7869 35.1188L56.4861 21.3688C56.6438 21.1196 56.849 20.9039 57.0901 20.734C57.3311 20.5641 57.6033 20.4434 57.891 20.3787C58.1787 20.3139 58.4763 20.3065 58.7669 20.3569C59.0575 20.4072 59.3353 20.5142 59.5845 20.6719C59.8337 20.8296 60.0494 21.0348 60.2193 21.2759C60.3892 21.5169 60.51 21.7891 60.5747 22.0768C60.6394 22.3645 60.6468 22.6622 60.5965 22.9528C60.5461 23.2433 60.4391 23.5212 60.2814 23.7704L51.5783 37.5258C48.9548 41.6477 43.9892 43.6891 40.1212 43.6235L2.27514 43.9008C0.521237 47.0563 0.00014274 49.118 0.0220177 50.0797H50.1908L75.7877 10.7797C74.172 9.84849 71.858 9.09536 68.897 9.01489H68.4689Z" fill="url(#paint0_linear_1085_3486)"/>
<path d="M50.1905 50.0813H0.0217069C-0.139231 52.4602 0.602176 54.9321 1.99827 57.1032H35.5873C40.8139 56.5292 45.4511 58.7027 49.4991 63.6235L57.9225 77.2407C58.0798 77.4902 58.1864 77.7683 58.2362 78.0591C58.2861 78.3498 58.2781 78.6475 58.2128 78.9352C58.1475 79.2229 58.0261 79.4949 57.8557 79.7356C57.6852 79.9764 57.469 80.1812 57.2194 80.3383C56.8616 80.5643 56.4471 80.684 56.024 80.6836C55.644 80.6842 55.27 80.5882 54.9372 80.4045C54.6044 80.2208 54.3238 79.9556 54.1217 79.6336C48.929 71.2154 45.7665 66.4537 44.6342 65.3485C42.9373 63.6907 40.7639 61.6079 35.5873 61.6079H4.82014L7.81702 66.3665H19.8108C20.4065 66.3665 20.9778 66.6031 21.399 67.0243C21.8202 67.4456 22.0569 68.0168 22.0569 68.6126C22.0569 69.2083 21.8202 69.7796 21.399 70.2008C20.9778 70.622 20.4065 70.8586 19.8108 70.8586H10.6444L13.4694 75.3454C33.6803 75.3454 36.4881 77.5907 43.4272 90.9852H49.3147C44.2865 82.006 41.1095 76.7092 39.7834 75.0946C37.7936 72.6735 35.1131 70.8579 31.642 70.8579H28.5264C27.9412 70.8424 27.3851 70.5991 26.9766 70.1797C26.5681 69.7603 26.3395 69.198 26.3395 68.6126C26.3395 68.0271 26.5681 67.4648 26.9766 67.0454C27.3851 66.626 27.9412 66.3827 28.5264 66.3672H31.642C36.4037 66.3672 41.7475 69.4258 43.6764 73.1493L54.3334 90.5868C54.4079 90.7159 54.4678 90.8488 54.5131 90.9852H62.5428L59.9772 86.5868C59.6772 86.0724 59.5938 85.4599 59.7453 84.884C59.8968 84.3081 60.2707 83.8159 60.785 83.5157C61.1278 83.3154 61.5176 83.2097 61.9147 83.2094C62.6881 83.2094 63.4397 83.6079 63.8569 84.3243L67.7428 90.9852H69.7178C71.2826 90.9899 72.4287 90.8235 74.6647 89.3813L50.1905 50.0813Z" fill="url(#paint1_linear_1085_3486)"/>
<path d="M75.7882 10.7808L72.6687 15.5276L76.5335 21.3245C76.6971 21.5699 76.8107 21.8451 76.8679 22.1344C76.9251 22.4238 76.9248 22.7215 76.8669 23.0107C76.809 23.2999 76.6947 23.5748 76.5305 23.8198C76.3663 24.0648 76.1555 24.2751 75.9101 24.4386C75.5426 24.6848 75.1102 24.8164 74.6679 24.8167C74.2977 24.8174 73.9331 24.7265 73.6066 24.552C73.2801 24.3775 73.0019 24.1249 72.7968 23.8167L69.989 19.6058L66.889 24.3222L77.964 42.4487C79.2332 44.5128 79.9025 46.8895 79.897 49.3125C79.8915 51.7356 79.2113 54.1092 77.9327 56.1675C77.8992 56.221 77.8634 56.2731 77.8257 56.3237L76.4694 58.155C76.2605 58.4373 75.9883 58.6666 75.6745 58.8244C75.3608 58.9823 75.0144 59.0642 74.6632 59.0636C74.182 59.0636 73.7137 58.9088 73.3272 58.6222C73.0903 58.4465 72.8903 58.2258 72.7386 57.9729C72.5869 57.7199 72.4865 57.4395 72.4432 57.1477C72.3999 56.8559 72.4145 56.5584 72.4862 56.2723C72.5578 55.9861 72.6851 55.7169 72.8608 55.48L74.1577 53.7308C74.9765 52.3826 75.4074 50.8346 75.4028 49.2572C75.3983 47.6799 74.9585 46.1344 74.1319 44.7909L64.1608 28.4729L49.9624 50.0808L61.128 33.2487L66.6429 41.7675C68.0274 43.9077 68.7616 46.4036 68.7564 48.9526C68.7513 51.5017 68.0071 53.9945 66.614 56.1292L60.0679 66.1573L49.9624 50.0808L62.953 70.7487L68.9382 62.7683C69.3018 62.3092 69.8303 62.0102 70.4111 61.935C70.9919 61.8599 71.5791 62.0144 72.0476 62.3658C72.5162 62.7172 72.829 63.2376 72.9194 63.8163C73.0099 64.3949 72.8708 64.986 72.5319 65.4636L65.5132 74.8214L68.9272 80.2511L85.4726 54.1269C87.3593 51.1487 87.3812 47.2847 85.5272 44.2847L77.5272 31.33C77.2289 30.8237 77.1408 30.2207 77.2818 29.6502C77.4229 29.0798 77.7819 28.5873 78.2819 28.2785C78.7819 27.9697 79.3829 27.8691 79.9562 27.9984C80.5295 28.1276 81.0292 28.4764 81.3483 28.9698L89.3499 41.9245C92.0999 46.3769 92.0671 52.1097 89.2679 56.5308L71.7913 84.1253C71.7209 84.2332 71.6417 84.3351 71.5546 84.43L74.664 89.38C76.0197 88.3097 76.9845 87.411 77.5585 86.6839C84.1481 78.3365 91.0069 68.3078 98.1351 56.5979C100.576 52.5886 100.639 47.6198 98.2249 43.6214C89.0374 28.4144 78.8312 12.2894 75.7874 10.7815L75.7882 10.7808Z" fill="url(#paint2_linear_1085_3486)"/>
</g>
<defs>
<linearGradient id="paint0_linear_1085_3486" x1="50.883" y1="35.5785" x2="43.2381" y2="22.8602" gradientUnits="userSpaceOnUse">
<stop stop-color="#520BF5"/>
<stop offset="1" stop-color="#9D1FE0"/>
</linearGradient>
<linearGradient id="paint1_linear_1085_3486" x1="50.3706" y1="64.3949" x2="41.0666" y2="79.2463" gradientUnits="userSpaceOnUse">
<stop stop-color="#9E1FA7"/>
<stop offset="1" stop-color="#E540AE"/>
</linearGradient>
<linearGradient id="paint2_linear_1085_3486" x1="99.9998" y1="50.0803" x2="64.9601" y2="50.0803" gradientUnits="userSpaceOnUse">
<stop stop-color="#4B6AF2"/>
<stop offset="1" stop-color="#4CA7EB"/>
</linearGradient>
<clipPath id="clip0_1085_3486">
<rect width="100" height="100" fill="white"/>
</clipPath>
</defs>
</svg>
