<svg width="100" height="100" viewBox="0 0 100 100" fill="none" xmlns="http://www.w3.org/2000/svg">
<path d="M72.803 46.7205C72.9186 47.4447 73.0374 48.1689 73.1795 48.8767H80.1756V46.7205H72.803ZM73.9624 52.108C74.1069 52.6033 74.26 53.0962 74.4295 53.5869C74.8363 53.7889 75.2314 54.0155 75.6147 54.2666H84.4834V52.108H73.9624ZM59.5631 53.1095C59.2303 53.2306 58.9045 53.372 58.585 53.5259V53.529C58.9053 53.3744 59.2295 53.2306 59.5631 53.1095ZM27.3381 80.1173V82.2736H53.242V80.1173H27.3381ZM42.4241 85.5048V87.6548H63.7499V85.5048H42.4241Z" fill="#3C6EB4"/>
<path d="M47.7456 12.7034C43.9096 12.7034 40.151 13.1463 37.9127 14.037C31.7487 16.2932 27.0143 22.4549 25.6112 29.9198C23.7635 38.6588 23.8737 45.4987 22.0393 51.9338C22.878 51.2946 23.8072 50.7838 24.7963 50.4182C26.2292 49.851 28.6315 49.5667 31.0846 49.5667C33.5377 49.5667 36.0456 49.8518 37.6713 50.4182C41.2424 51.7229 44.0596 55.0745 45.226 59.2338H52.819C54.3745 56.3581 56.7487 54.1377 59.5635 53.1104C62.6252 51.8963 69.8487 51.8995 73.3268 53.1104C73.7042 53.2479 74.0706 53.4151 74.4315 53.594C72.0393 46.6674 72.3432 39.4135 70.3362 29.9198C68.9338 22.4549 64.1979 16.2932 58.0346 14.037C55.4924 13.1495 51.5807 12.7042 47.7456 12.7034Z" fill="#CCCCCC"/>
<path d="M35.371 38.8958C34.6786 38.8966 34.0149 39.187 33.5257 39.7031C33.0364 40.2191 32.7616 40.9187 32.7616 41.6481C32.7616 42.3775 33.0364 43.0771 33.5257 43.5931C34.0149 44.1092 34.6786 44.3996 35.371 44.4004C36.0634 44.3998 36.7273 44.1095 37.2168 43.5934C37.7062 43.0773 37.9811 42.3776 37.9811 41.6481C37.9811 40.9187 37.7063 40.2191 37.217 39.7031C36.7278 39.187 36.0633 38.8966 35.371 38.8958ZM61.7694 38.8958C61.0771 38.8966 60.4134 39.187 59.9241 39.7031C59.4348 40.2191 59.16 40.9187 59.16 41.6481C59.16 42.3775 59.4348 43.0771 59.9241 43.5931C60.4134 44.1092 61.0771 44.3996 61.7694 44.4004C62.1129 44.4011 62.4531 44.3304 62.7706 44.1924C63.0881 44.0543 63.3767 43.8517 63.6198 43.5961C63.8628 43.3404 64.0557 43.0368 64.1873 42.7025C64.3189 42.3683 64.3866 42.01 64.3866 41.6481C64.3866 41.2862 64.3189 40.9279 64.1873 40.5937C64.0557 40.2594 63.8628 39.9558 63.6198 39.7002C63.3767 39.4445 63.0881 39.2419 62.7706 39.1038C62.4531 38.9658 62.1129 38.8951 61.7694 38.8958Z" fill="#E7E8E9"/>
<path d="M39.7697 39.6138L30.0603 42.2169L30.3384 43.2575L40.0494 40.6544L39.7697 39.6138ZM58.1447 39.6138L57.865 40.6544L67.5736 43.2575L67.8533 42.2169L58.1447 39.6138ZM40.7416 41.1825L30.9767 46.8224L31.5158 47.7544L41.2791 42.1153L40.7416 41.1825ZM57.1783 41.1825L56.6392 42.1153L66.4033 47.7544L66.9423 46.8224L57.1783 41.1825ZM41.4556 43.0536L34.7314 49.7872C35.1887 49.8461 35.6254 49.9166 36.0416 49.9989L42.2173 43.8145L41.4556 43.0536ZM56.4634 43.0536L55.7025 43.8145L64.147 52.2724C64.6262 52.2411 65.1132 52.2203 65.608 52.2099L56.4634 43.0536ZM41.7822 45.5052L38.6908 50.8646C39.0121 51.0229 39.3259 51.1979 39.6322 51.3895L42.7158 46.0427L41.7822 45.5052ZM56.1376 45.5052L55.2041 46.0427L59.3345 53.2052C59.4111 53.1747 59.4853 53.1388 59.5634 53.1106C59.8056 53.0146 60.083 52.9286 60.3736 52.8481L56.1376 45.5052Z" fill="#A7A9AC"/>
<path d="M57.235 39.7184C57.2351 40.7666 57.0182 41.8047 56.5968 42.7732C56.1753 43.7417 55.5575 44.6217 54.7787 45.363C53.9998 46.1043 53.0751 46.6923 52.0575 47.0935C51.0398 47.4947 49.949 47.7012 48.8475 47.7012C47.7459 47.7013 46.6551 47.4949 45.6373 47.0937C44.6196 46.6926 43.6948 46.1046 42.9159 45.3633C42.1369 44.622 41.519 43.7419 41.0975 42.7734C40.676 41.8048 40.4591 40.7667 40.4592 39.7184C40.4592 38.6701 40.6762 37.6321 41.0978 36.6636C41.5193 35.6951 42.1372 34.8152 42.9161 34.0739C43.6951 33.3327 44.6198 32.7448 45.6375 32.3437C46.6552 31.9426 47.746 31.7362 48.8475 31.7363C51.0719 31.7365 53.2051 32.5776 54.7779 34.0745C56.3507 35.5714 57.235 37.6015 57.235 39.7184Z" fill="white"/>
<path d="M52.4276 38.2805C52.1463 37.5516 52.1463 36.0938 51.3026 36.0938C50.4588 36.0938 49.6776 35.5469 48.8479 35.5469C48.0174 35.5469 47.2385 36.0938 46.3932 36.0938C45.5494 36.0938 45.5494 37.5516 45.2682 38.2812C44.9869 39.0094 48.8479 41.3781 48.8479 41.3781C48.8479 41.3781 52.7088 39.0094 52.4276 38.2805Z" fill="#808080"/>
<path d="M44.843 58.0391C45.1008 58.7313 45.304 59.4532 45.4626 60.1961H52.3368C52.6829 59.436 53.0852 58.7141 53.536 58.0383L44.843 58.0391ZM79.3563 58.0399C79.8114 58.726 80.2117 59.447 80.5532 60.1961H89.2032V58.0399H79.3563Z" fill="#3C6EB4"/>
<path d="M31.0854 49.5667C28.6322 49.5667 26.2291 49.851 24.7963 50.4182C20.8541 51.8588 17.8299 55.7917 16.933 60.5549C16.4643 62.7627 16.1947 64.7667 15.9658 66.6542H46.5018C46.2729 64.7667 46.0096 62.7635 45.5408 60.5549C44.6447 55.7917 41.6135 51.8596 37.6705 50.419C36.0439 49.8526 33.5377 49.5674 31.0846 49.5674L31.0854 49.5667Z" fill="#CCCCCC"/>
<path d="M23.1743 66.2822C22.818 66.2935 22.4745 66.4241 22.1938 66.6549H24.1938C23.9025 66.4159 23.5439 66.2852 23.1743 66.283V66.2822ZM40.0649 66.2822C39.7084 66.2933 39.3646 66.4239 39.0837 66.6549H41.0853C40.7935 66.4156 40.4343 66.2848 40.0642 66.283L40.0649 66.2822Z" fill="#E7E8E9"/>
<path d="M25.9392 66.5527L25.561 66.6543H25.9673L25.9392 66.5527ZM37.7923 66.5527L37.7649 66.6543H38.1712L37.7923 66.5527Z" fill="#A7A9AC"/>
<path d="M31.7955 61.7188C30.4039 61.7223 29.0682 62.2391 28.0703 63.1598C27.0724 64.0806 26.4903 65.3335 26.447 66.6539H37.1361C37.0928 65.3347 36.5119 64.083 35.5156 63.1624C34.5194 62.2418 33.1857 61.7243 31.7955 61.7188Z" fill="white"/>
<path d="M31.7954 64.146C31.2642 64.146 30.7665 64.4976 30.2267 64.4976C29.6868 64.4976 29.6829 65.4257 29.5032 65.8905C29.4407 66.053 29.7126 66.346 30.0775 66.6546H33.5118C33.8775 66.346 34.1431 66.053 34.0798 65.8905C33.9001 65.4257 33.9032 64.4976 33.3634 64.4976C32.8243 64.4976 32.3267 64.146 31.7954 64.146Z" fill="#808080"/>
<path d="M71.6685 1.14555L28.1232 1.27367C27.962 1.2744 27.803 1.31128 27.6579 1.38159C27.5129 1.45189 27.3854 1.55384 27.2849 1.67992L0.230251 35.8455C0.130997 35.9719 0.0612465 36.1189 0.0261019 36.2757C-0.00904281 36.4325 -0.00869304 36.5951 0.0271256 36.7518L9.83963 79.2229C9.87633 79.3811 9.94831 79.529 10.0502 79.6554C10.152 79.7819 10.2812 79.8838 10.4279 79.9534L49.7131 98.751C49.8593 98.8198 50.0191 98.8548 50.1807 98.8534C50.3424 98.8521 50.5016 98.8144 50.6467 98.7432L89.8248 79.7159C89.9709 79.6448 90.0991 79.5416 90.1998 79.4141C90.3004 79.2865 90.3709 79.1378 90.406 78.9791L99.974 36.4541C100.009 36.297 100.008 36.1341 99.9721 35.9773C99.9358 35.8205 99.865 35.6737 99.7646 35.5479L72.5154 1.54398C72.4133 1.4183 72.2843 1.31722 72.1378 1.24825C71.9913 1.17927 71.8304 1.14417 71.6685 1.14555ZM71.1553 3.3018L97.7568 36.4893L88.4178 78.0065L50.1795 96.5815L11.8271 78.2362L2.24588 36.7729L28.6506 3.42367L71.1553 3.3018Z" fill="#892CA0"/>
<path d="M83.3154 74.7937C82.842 71.5719 82.6123 68.0672 81.7381 63.9445C80.7787 58.8523 77.5404 54.6477 73.3256 53.1086C69.8475 51.8977 62.6248 51.8945 59.5631 53.1086C55.3482 54.6477 52.11 58.8523 51.1506 63.9445C50.2771 68.068 50.0467 71.5719 49.5732 74.7937" fill="#CCCCCC"/>
<path d="M57.8279 70.0684C57.5932 70.0685 57.3609 70.1172 57.1441 70.2117C56.9273 70.3062 56.7304 70.4447 56.5645 70.6193C56.3987 70.7938 56.2672 71.001 56.1775 71.229C56.0878 71.457 56.0418 71.7013 56.042 71.948C56.0418 72.1947 56.0878 72.4391 56.1775 72.6671C56.2672 72.8951 56.3987 73.1022 56.5645 73.2768C56.7304 73.4514 56.9273 73.5899 57.1441 73.6844C57.3609 73.7789 57.5932 73.8276 57.8279 73.8277C58.3018 73.8273 58.7561 73.629 59.0908 73.2765C59.4256 72.924 59.6135 72.4461 59.6131 71.948C59.6135 71.4499 59.4256 70.9721 59.0908 70.6196C58.7561 70.2671 58.3018 70.0688 57.8279 70.0684ZM75.8826 70.0684C75.6479 70.0685 75.4155 70.1172 75.1988 70.2117C74.982 70.3062 74.785 70.4447 74.6192 70.6193C74.4533 70.7938 74.3218 71.001 74.2322 71.229C74.1425 71.457 74.0965 71.7013 74.0967 71.948C74.0965 72.1947 74.1425 72.4391 74.2322 72.6671C74.3218 72.8951 74.4533 73.1022 74.6192 73.2768C74.785 73.4514 74.982 73.5899 75.1988 73.6844C75.4155 73.7789 75.6479 73.8276 75.8826 73.8277C76.3565 73.8273 76.8108 73.629 77.1455 73.2765C77.4803 72.924 77.6682 72.4461 77.6678 71.948C77.6682 71.4499 77.4803 70.9721 77.1455 70.6196C76.8108 70.2671 76.3565 70.0688 75.8826 70.0684Z" fill="#E7E8E9"/>
<path d="M60.792 70.3938L54.1514 72.1727L54.4311 73.2133L61.0701 71.4344L60.792 70.3938ZM73.4451 70.3938L73.1654 71.4344L79.8061 73.2133L80.0857 72.1727L73.4451 70.3938ZM61.4139 71.4813L54.7389 75.3297L55.2764 76.2618L61.9506 72.4149L61.4139 71.4813ZM72.824 71.4813L72.285 72.4149L78.9592 76.2618L79.4982 75.3297L72.824 71.4813Z" fill="#A7A9AC"/>
<path d="M72.7789 70.6328C72.7789 72.0769 72.1746 73.4618 71.099 74.483C70.0233 75.5041 68.5643 76.0779 67.043 76.0781C65.5215 76.0781 64.0624 75.5044 62.9865 74.4832C61.9107 73.462 61.3063 72.077 61.3063 70.6328C61.3063 69.1886 61.9107 67.8036 62.9865 66.7824C64.0624 65.7612 65.5215 65.1875 67.043 65.1875C68.5643 65.1877 70.0233 65.7615 71.099 66.7827C72.1746 67.8038 72.7789 69.1888 72.7789 70.6328Z" fill="white"/>
<path d="M69.4904 69.6497C69.2983 69.1528 69.2983 68.1575 68.7209 68.1575C68.1444 68.1575 67.6115 67.7856 67.0428 67.7856C66.4748 67.7856 65.9412 68.1583 65.3639 68.1583C64.7873 68.1583 64.7873 69.1528 64.5944 69.6505C64.4022 70.1474 67.0428 71.763 67.0428 71.763C67.0428 71.763 69.6834 70.1474 69.4904 69.6497Z" fill="#808080"/>
<path d="M48.8483 30.9307C43.8006 30.9307 39.653 34.8541 39.653 39.7213C39.653 44.5885 43.8006 48.5119 48.8483 48.5119C53.8967 48.5119 58.0444 44.5885 58.0444 39.7213C58.0444 34.8541 53.8952 30.9307 48.8483 30.9307ZM48.8483 32.5471C53.0655 32.5471 56.4288 35.7721 56.4288 39.7213C56.4288 43.6713 53.0655 46.8947 48.8483 46.8947C44.6311 46.8947 41.2678 43.6713 41.2678 39.7213C41.2678 35.7721 44.6319 32.5471 48.8483 32.5471ZM31.7952 60.9064C28.4717 60.9064 25.717 63.4533 25.6272 66.6533H27.2436C27.3311 64.3721 29.3038 62.5221 31.7952 62.5221C34.2874 62.5221 36.2577 64.3721 36.3452 66.6533H37.9608C37.8725 63.4541 35.117 60.9064 31.7952 60.9064ZM67.0444 64.3807C63.4623 64.3807 60.4975 67.1619 60.4975 70.6291C60.4975 74.0978 63.4623 76.8838 67.0444 76.8838C70.6264 76.8838 73.5905 74.0971 73.5905 70.6291C73.5905 67.1619 70.628 64.3807 67.0444 64.3807ZM67.0444 65.9971C69.7983 65.9971 71.9741 68.0807 71.9741 70.6299C71.9741 73.1768 69.7983 75.2682 67.0444 75.2682C64.2905 75.2682 62.1147 73.1768 62.1147 70.6291C62.1147 68.0814 64.2913 65.9971 67.0444 65.9971Z" fill="#60605B"/>
<path d="M12.4705 66.6545V68.8108H50.3314C50.4241 68.1103 50.5298 67.3915 50.6486 66.6545H12.4705ZM31.6533 74.735V76.885H87.6408V74.735H83.3087L83.3165 74.7944H49.5728L49.5806 74.735H31.6533Z" fill="#3C6EB4"/>
<path d="M47.747 11.8958H47.7455C43.8533 11.8958 40.0658 12.3208 37.6244 13.2887C31.1533 15.6661 26.2744 22.0583 24.8236 29.7543C23.533 35.8598 23.1908 41.0231 22.5041 45.6981C22.2111 47.6965 21.8494 49.6004 21.3353 51.4614C18.7095 53.5356 16.8236 56.7473 16.1337 60.4067C15.6525 62.6825 15.3861 64.7348 15.1541 66.6536H16.7775C17.0025 64.802 17.265 62.8567 17.7173 60.7239L17.7236 60.7161V60.702C18.5751 56.184 21.4501 52.5051 25.0736 51.1825L25.0876 51.1747L25.0939 51.1684C26.3228 50.6809 28.6931 50.3762 31.0845 50.3762C33.4728 50.3762 35.9369 50.6739 37.4001 51.1817C41.0205 52.5067 43.8931 56.1864 44.7439 60.702V60.7161L44.7501 60.7239C45.2033 62.8567 45.465 64.8028 45.69 66.6536H47.3142C47.0822 64.7333 46.8165 62.677 46.3345 60.3989C45.3892 55.3942 42.208 51.2161 37.9478 49.6606H37.9416L37.9353 49.6528C36.1447 49.0309 33.5994 48.7622 31.0837 48.7606C28.5728 48.7606 26.14 49.0208 24.5064 49.6668C24.1017 49.8153 23.7095 49.995 23.3251 50.1887C23.6416 48.7816 23.9022 47.3625 24.1064 45.9348C24.8056 41.1676 25.1337 36.0653 26.3986 30.0856L26.4064 30.0778V30.0653C27.7626 22.8465 32.3486 16.9356 38.1923 14.7965L38.2001 14.7903H38.2119C40.247 13.9809 43.9736 13.5122 47.747 13.5129C51.515 13.5129 55.3751 13.9684 57.7548 14.7965C63.5986 16.9348 68.1845 22.8458 69.5392 30.0645L69.547 30.0801V30.0856C70.8111 36.0653 71.147 41.1676 71.8462 45.9348C72.1611 48.0817 72.5697 50.1614 73.1587 52.2122C71.2884 51.6465 68.7806 51.3918 66.2876 51.3918C63.608 51.3918 61.0166 51.6731 59.283 52.359C54.7564 54.0153 51.3728 58.4528 50.3642 63.7801C49.4767 67.9661 49.2408 71.4981 48.7736 74.6731L50.3759 74.9098C50.8564 71.6418 51.0775 68.1707 51.9384 64.1106L51.9462 64.1028V64.0973C52.8587 59.2497 55.9486 55.2879 59.8447 53.8661H59.8501L59.8642 53.8583C61.1923 53.3317 63.7283 53.0067 66.2884 53.0067C68.847 53.0067 71.4822 53.3247 73.0572 53.8723H73.065C76.9533 55.2989 80.0353 59.2551 80.9478 64.0973V64.1106C81.808 68.17 82.0353 71.6418 82.5158 74.909L84.1197 74.6731C83.6533 71.4973 83.4165 67.9653 82.5298 63.7793C81.6345 59.0473 78.8642 55.0192 75.0845 53.0161C74.3001 50.6622 73.8189 48.2559 73.4431 45.6981C72.758 41.0262 72.4181 35.8668 71.1298 29.7684C69.6814 22.059 64.7994 15.6481 58.3158 13.2747H58.3017C55.5955 12.3293 51.6455 11.8965 47.747 11.8958ZM35.583 21.6325C34.753 21.6278 33.9332 21.8146 33.1871 22.1782C32.4411 22.5419 31.789 23.0727 31.2814 23.7293L30.7869 24.3653L32.0728 25.3528L32.5658 24.7098C32.9032 24.2813 33.3279 23.9294 33.8117 23.6777C34.2956 23.4259 34.8274 23.28 35.372 23.2497C36.3876 23.2067 37.4423 23.6153 38.1642 24.3317L38.7392 24.9067L39.8822 23.7567L39.3072 23.1887C38.3133 22.2073 36.9773 21.6499 35.5806 21.634L35.583 21.6325ZM61.6548 21.6325C60.2579 21.6487 58.9219 22.2067 57.9283 23.1887L57.3533 23.7567L58.49 24.9067L59.0658 24.3317C59.4346 23.973 59.8719 23.6922 60.3517 23.5063C60.8314 23.3204 61.3437 23.2331 61.858 23.2497C62.9322 23.2965 64.0142 23.8567 64.6705 24.7106L65.165 25.3528L66.4431 24.3653L65.9486 23.7293C65.4422 23.0733 64.7914 22.5428 64.0467 22.1792C63.3021 21.8155 62.4836 21.6284 61.6548 21.6325ZM35.5416 28.7536C34.4707 28.754 33.4439 29.1908 32.6868 29.968C31.9297 30.7452 31.5043 31.7991 31.5041 32.8981C31.5041 33.9972 31.9294 35.0514 32.6865 35.8287C33.4436 36.6061 34.4706 37.043 35.5416 37.0434C36.0723 37.0439 36.5979 36.9371 37.0884 36.729C37.5789 36.5209 38.0246 36.2157 38.4001 35.8307C38.7756 35.4457 39.0735 34.9886 39.2767 34.4854C39.4799 33.9822 39.5845 33.4428 39.5845 32.8981C39.5844 32.3535 39.4797 31.8142 39.2765 31.3111C39.0732 30.808 38.7753 30.3509 38.3999 29.966C38.0244 29.5811 37.5787 29.2759 37.0883 29.0679C36.5978 28.8598 36.0722 28.753 35.5416 28.7536ZM61.6884 28.7536C60.6177 28.7542 59.5911 29.1911 58.8342 29.9683C58.0772 30.7454 57.6519 31.7992 57.6517 32.8981C57.6517 33.9971 58.0769 35.0511 58.8339 35.8284C59.5909 36.6058 60.6176 37.0428 61.6884 37.0434C62.7594 37.043 63.7863 36.6061 64.5435 35.8287C65.3006 35.0514 65.7259 33.9972 65.7259 32.8981C65.7257 31.7992 65.3004 30.7454 64.5435 29.9683C63.7865 29.1911 62.7591 28.7542 61.6884 28.7536ZM48.8486 34.7379C48.2564 34.7379 47.7712 34.92 47.3681 35.0559C46.9642 35.1926 46.6416 35.2856 46.3931 35.2856C45.9501 35.2856 45.515 35.5286 45.2783 35.8137C45.0423 36.0981 44.9306 36.3918 44.8447 36.6715C44.6728 37.2286 44.5892 37.795 44.5134 37.9918C44.34 38.4403 44.5056 38.7973 44.6431 39.0317C44.7798 39.2661 44.947 39.4504 45.1353 39.6411C45.5134 40.0208 45.9916 40.4012 46.4744 40.7559C46.9689 41.1184 47.465 41.4481 47.8337 41.6887L47.8142 42.0137C47.6322 42.1622 47.1892 42.5551 46.4548 42.8036C46.0205 42.9504 45.583 43.0028 45.2033 42.9059C44.8806 42.8231 44.5595 42.5387 44.2298 42.1082C44.2509 41.9379 44.2587 41.8684 44.297 41.5879C44.365 41.0973 44.4634 40.5043 44.508 40.3286L42.9384 39.9364C42.8447 40.3114 42.765 40.8583 42.6947 41.3653C42.6244 41.8715 42.5728 42.3051 42.5728 42.3051L42.5392 42.5942L42.6947 42.8372C43.2642 43.7325 44.0236 44.2754 44.8048 44.4747C45.5861 44.6739 46.3439 44.5536 46.9767 44.3403C47.797 44.0614 48.4658 43.6137 48.8345 43.3325C49.2041 43.6137 49.8689 44.0629 50.6869 44.3403C51.3197 44.5543 52.0697 44.6747 52.8509 44.4747C53.6322 44.2747 54.3923 43.7325 54.9611 42.8372L55.1173 42.595L55.083 42.3051C55.083 42.3051 55.0314 41.8715 54.9611 41.3653C54.8908 40.8575 54.8095 40.3114 54.7173 39.9364L53.1486 40.3286C53.1923 40.5043 53.2908 41.0973 53.3595 41.5879C53.397 41.8645 53.4064 41.9317 53.4259 42.102C53.0947 42.5364 52.7775 42.8231 52.4525 42.9067C52.0728 43.0028 51.6361 42.9504 51.2017 42.8036C50.4673 42.5551 50.0236 42.1622 49.8423 42.0137L49.8283 41.7098C50.2025 41.4676 50.7095 41.1317 51.2212 40.7567C51.7041 40.4012 52.1822 40.02 52.5611 39.6395C52.7486 39.4497 52.9173 39.2653 53.0533 39.0317C53.1915 38.7973 53.3556 38.4403 53.1822 37.9911C53.1064 37.7958 53.0165 37.2286 52.8447 36.6707C52.7587 36.3926 52.6556 36.0973 52.4189 35.8122C52.1822 35.5278 51.747 35.2856 51.3033 35.2856C51.0556 35.2856 50.733 35.1918 50.3298 35.0559C49.9259 34.92 49.4416 34.7379 48.8486 34.7379ZM48.8486 36.3543C49.0869 36.3543 49.4033 36.4465 49.8095 36.5833C50.183 36.7098 50.6525 36.8489 51.1876 36.8747C51.2056 36.902 51.2541 36.9918 51.3033 37.152C51.39 37.4333 51.4783 37.8629 51.6001 38.2809C51.5611 38.334 51.5142 38.4004 51.4119 38.5036C51.1447 38.7723 50.7087 39.1215 50.2611 39.4497C49.5736 39.9551 49.1439 40.2184 48.8486 40.4036C48.5556 40.2192 48.1173 39.9583 47.4275 39.4504C46.9798 39.1223 46.5525 38.7723 46.2853 38.5036C46.1822 38.4004 46.1369 38.334 46.0978 38.2809C46.2181 37.8629 46.3072 37.434 46.3931 37.152C46.4206 37.0552 46.4597 36.9621 46.5095 36.8747C47.0439 36.8497 47.5072 36.7098 47.8814 36.5833C48.2861 36.4465 48.6111 36.3543 48.8486 36.3543ZM23.1126 54.9754C22.0189 55.0223 20.9955 55.5567 20.3267 56.4239L19.8345 57.0661L21.1111 58.0536L21.6056 57.4098C21.7972 57.1701 22.0371 56.9735 22.3096 56.8325C22.5822 56.6916 22.8813 56.6096 23.1876 56.5918C23.4765 56.5838 23.764 56.6335 24.0334 56.738C24.3027 56.8425 24.5485 56.9997 24.7564 57.2004L25.3314 57.7684L26.4666 56.6192L25.8916 56.0512C25.5265 55.6915 25.0915 55.4105 24.6135 55.2255C24.1356 55.0404 23.6248 54.9553 23.1126 54.9754ZM40.1736 54.9754C39.6622 54.9547 39.152 55.0395 38.6749 55.2246C38.1977 55.4097 37.7638 55.6911 37.4001 56.0512L36.8259 56.6192L37.9611 57.7676L38.5369 57.2004C38.7446 56.9997 38.9902 56.8424 39.2595 56.7378C39.5287 56.6331 39.8161 56.5833 40.1048 56.5911C40.4113 56.6088 40.7107 56.6909 40.9834 56.832C41.2561 56.973 41.496 57.1699 41.6876 57.4098L42.1744 58.0536L43.4587 57.0661L42.965 56.4239C42.6327 55.9944 42.2109 55.6423 41.7288 55.3922C41.2468 55.1421 40.7161 54.9999 40.1736 54.9754ZM75.8017 58.0317H75.8001C74.7791 58.044 73.8026 58.4518 73.0759 59.1692L72.5009 59.7364L73.6376 60.8848L74.2111 60.3176C74.4388 60.0981 74.7083 59.9264 75.0035 59.8128C75.2987 59.6991 75.6137 59.6458 75.9298 59.6559C76.5861 59.6833 77.2587 60.0286 77.6595 60.5481L78.154 61.1903L79.433 60.2036L78.9384 59.5614C78.5896 59.1089 78.146 58.7381 77.6389 58.475C77.1318 58.2119 76.5733 58.0627 76.0025 58.0379C75.9363 58.0348 75.8694 58.0327 75.8017 58.0317ZM57.9705 58.0317C57.9028 58.0317 57.835 58.034 57.7673 58.0387C57.1957 58.0635 56.6364 58.2126 56.1283 58.4756C55.6202 58.7385 55.1755 59.1091 54.8251 59.5614L54.333 60.2036L55.6173 61.1911L56.1095 60.5481C56.318 60.2862 56.5794 60.0714 56.8767 59.9176C57.1739 59.7639 57.5004 59.6747 57.8345 59.6559C58.1515 59.6459 58.4673 59.6993 58.7633 59.8129C59.0594 59.9266 59.3298 60.0981 59.5587 60.3176L60.1337 60.8856L61.2705 59.7372L60.6955 59.1692C59.9685 58.4519 58.9917 58.0436 57.9705 58.0317ZM23.2814 59.8114C22.5966 59.8116 21.9399 60.0902 21.4556 60.5859C20.9713 61.0816 20.699 61.754 20.6986 62.4551C20.6979 62.8029 20.7642 63.1474 20.8936 63.4689C21.0231 63.7905 21.2132 64.0827 21.4531 64.3289C21.693 64.5751 21.978 64.7705 22.2917 64.9038C22.6054 65.0371 22.9417 65.1058 23.2814 65.1059C23.6211 65.1058 23.9574 65.0371 24.2711 64.9038C24.5848 64.7705 24.8698 64.5751 25.1097 64.3289C25.3496 64.0827 25.5397 63.7905 25.6692 63.4689C25.7986 63.1474 25.8649 62.8029 25.8642 62.4551C25.8638 61.754 25.5915 61.0816 25.1072 60.5859C24.6229 60.0902 23.9662 59.8116 23.2814 59.8114ZM40.0095 59.8114C39.6698 59.8105 39.3333 59.8783 39.0193 60.0108C38.7052 60.1432 38.4197 60.3378 38.1791 60.5834C37.9386 60.8289 37.7477 61.1206 37.6174 61.4418C37.4871 61.763 37.4199 62.1073 37.4197 62.4551C37.419 62.8035 37.4855 63.1486 37.6154 63.4706C37.7453 63.7926 37.9361 64.0852 38.1767 64.3315C38.4174 64.5778 38.7031 64.773 39.0177 64.9059C39.3322 65.0388 39.6693 65.1068 40.0095 65.1059C40.3492 65.1058 40.6855 65.0371 40.9992 64.9038C41.3129 64.7705 41.5979 64.5751 41.8378 64.3289C42.0777 64.0827 42.2678 63.7905 42.3973 63.4689C42.5268 63.1474 42.593 62.8029 42.5923 62.4551C42.5919 61.754 42.3197 61.0816 41.8354 60.5859C41.351 60.0902 40.6943 59.8116 40.0095 59.8114ZM57.9416 63.152C57.2101 63.1533 56.509 63.4515 55.992 63.9812C55.475 64.5109 55.1843 65.229 55.1837 65.9778C55.1841 66.7268 55.4747 67.445 55.9917 67.9749C56.5087 68.5048 57.21 68.8031 57.9416 68.8043C58.3045 68.8048 58.6639 68.732 58.9993 68.5901C59.3347 68.4483 59.6396 68.2402 59.8964 67.9777C60.1532 67.7152 60.357 67.4035 60.4962 67.0603C60.6353 66.7172 60.707 66.3493 60.7072 65.9778C60.7069 65.6063 60.6351 65.2385 60.4959 64.8955C60.3568 64.5524 60.153 64.2408 59.8961 63.9784C59.6393 63.716 59.3345 63.5079 58.9991 63.3661C58.6638 63.2243 58.3044 63.1516 57.9416 63.152ZM75.8267 63.152C75.4639 63.1516 75.1045 63.2243 74.7691 63.3661C74.4337 63.5079 74.1289 63.716 73.8721 63.9784C73.6153 64.2408 73.4115 64.5524 73.2723 64.8955C73.1332 65.2385 73.0614 65.6063 73.0611 65.9778C73.0613 66.3493 73.133 66.7172 73.2721 67.0603C73.4112 67.4035 73.615 67.7152 73.8718 67.9777C74.1287 68.2402 74.4335 68.4483 74.7689 68.5901C75.1044 68.732 75.4638 68.8048 75.8267 68.8043C76.5586 68.8035 77.2602 68.5054 77.7775 67.9754C78.2949 67.4455 78.5857 66.727 78.5861 65.9778C78.5855 65.2287 78.2946 64.5104 77.7773 63.9806C77.2599 63.4509 76.5584 63.1529 75.8267 63.152ZM31.7947 63.3411C31.3525 63.3411 31.0103 63.4715 30.7525 63.5583C30.4947 63.6442 30.322 63.6864 30.2259 63.6864C29.8587 63.6864 29.4783 63.902 29.2861 64.1333C29.0939 64.3645 29.015 64.5864 28.9548 64.7817C28.833 65.1747 28.7759 65.5356 28.7517 65.5997C28.5908 66.0161 28.7439 66.334 28.8533 66.52C28.883 66.5715 28.9158 66.6098 28.947 66.6544H31.4158C31.2941 66.5741 31.1746 66.4907 31.0572 66.4044C30.7775 66.1981 30.5048 65.9817 30.3541 65.8301V65.8223C30.4033 65.6192 30.4611 65.3754 30.4962 65.2606C30.5001 65.2481 30.4994 65.259 30.5041 65.2489C30.79 65.2067 31.0767 65.1497 31.2666 65.0848C31.5259 64.9981 31.7056 64.9575 31.7947 64.9575C31.8827 64.9564 32.0561 64.9991 32.315 65.0856C32.5048 65.1497 32.7939 65.2067 33.0791 65.2489C33.083 65.259 33.0814 65.2489 33.0853 65.2606C33.1212 65.3754 33.1853 65.6176 33.2337 65.8231L33.2275 65.8301C33.0767 65.9817 32.8056 66.1981 32.5251 66.4036C32.4094 66.4889 32.2922 66.5723 32.1736 66.6536H34.6423C34.6736 66.6106 34.7064 66.5708 34.7353 66.52C34.8447 66.334 34.9986 66.0161 34.8369 65.5997C34.8134 65.5364 34.7486 65.1747 34.6259 64.7817C34.5633 64.5444 34.4506 64.3233 34.2955 64.1333C34.1033 63.902 33.7306 63.6864 33.3634 63.6864C33.2681 63.6869 33.0921 63.6442 32.8353 63.5583C32.5775 63.4715 32.2369 63.3411 31.7947 63.3411ZM67.0439 66.9793C66.583 66.9793 66.2236 67.1168 65.9478 67.2098C65.672 67.3028 65.4814 67.3504 65.3666 67.3504C64.99 67.3504 64.6041 67.5653 64.4056 67.8036C64.2087 68.0403 64.1251 68.2739 64.0619 68.4801C63.9337 68.8926 63.8697 69.2793 63.8392 69.359C63.6759 69.7809 63.8345 70.1012 63.9462 70.2918C64.0587 70.484 64.1884 70.62 64.3259 70.759C64.6017 71.0348 64.9361 71.2965 65.272 71.5426C65.5494 71.7458 65.8197 71.9301 66.0501 72.0848C65.8978 72.2059 65.6954 72.3715 65.3251 72.4965C65.0595 72.5864 64.8126 72.6075 64.6158 72.5575C64.472 72.5208 64.3103 72.3536 64.1494 72.1731C64.1619 72.0739 64.165 72.0676 64.183 71.9426C64.2298 71.6106 64.2962 71.1989 64.3181 71.1114L62.7501 70.7192C62.6783 71.0067 62.629 71.3708 62.5806 71.7184C62.5322 72.0676 62.4994 72.3684 62.4994 72.3684L62.4658 72.652L62.622 72.8965C63.0384 73.5512 63.6197 73.9739 64.2158 74.1262C64.8134 74.2786 65.3767 74.1817 65.84 74.0254C66.2637 73.877 66.6642 73.6695 67.0298 73.409C67.3095 73.6059 67.7228 73.8567 68.2205 74.0262C68.6837 74.1825 69.2455 74.2786 69.8423 74.1262C70.44 73.9739 71.0212 73.5512 71.4384 72.8965L71.5947 72.652L71.5603 72.3684C71.5603 72.3684 71.5205 72.0684 71.472 71.72C71.4244 71.3715 71.3759 71.0067 71.304 70.7192L69.7353 71.1114C69.7572 71.1989 69.8314 71.6114 69.8775 71.9426C69.8931 72.0676 69.8908 72.0739 69.9033 72.1731C69.7431 72.3528 69.5869 72.5208 69.4439 72.5575C69.247 72.6075 68.9986 72.5864 68.7329 72.4965C68.3736 72.3747 68.1759 72.2122 68.0236 72.0903C68.258 71.9356 68.5314 71.7497 68.815 71.5434C69.1509 71.2965 69.4853 71.0356 69.7611 70.759C69.9069 70.6202 70.0343 70.4632 70.14 70.2918C70.2525 70.1004 70.404 69.7801 70.2415 69.359C70.2103 69.2793 70.1455 68.8926 70.0173 68.4801C69.9548 68.2739 69.8767 68.0403 69.6806 67.8028C69.4822 67.5653 69.097 67.3497 68.7205 67.3497C68.6064 67.3497 68.4158 67.3028 68.1392 67.209C67.8634 67.1153 67.5048 66.9793 67.0439 66.9793ZM67.0439 68.595C67.1501 68.5955 67.3418 68.6429 67.6189 68.7372C67.8947 68.8214 68.1777 68.88 68.4642 68.9122C68.4744 68.934 68.4642 68.92 68.4759 68.959C68.5181 69.0958 68.5861 69.3583 68.6455 69.5958L68.6181 69.6231C68.3805 69.8475 68.1275 70.055 67.8611 70.2442C67.4665 70.5333 67.2798 70.6426 67.0439 70.7918C66.8095 70.6434 66.622 70.5348 66.2259 70.245C65.9589 70.0556 65.7054 69.8478 65.4673 69.6231C65.4501 69.6051 65.4564 69.6043 65.4415 69.5879C65.4994 69.3551 65.5619 69.0942 65.6033 68.9598C65.6158 68.9184 65.6126 68.934 65.6228 68.9129C65.9073 68.8801 66.1881 68.8213 66.4619 68.7372C66.7392 68.6434 66.9361 68.595 67.0431 68.595H67.0439Z" fill="black"/>
<path d="M35.5397 27.95C34.9004 27.95 34.2676 28.0792 33.6793 28.3297C33.0911 28.5802 32.5594 28.9469 32.1163 29.4078C31.5598 29.9777 31.1485 30.673 30.9171 31.4351C30.7475 31.9909 30.6761 32.572 30.7061 33.1523C30.7441 33.913 30.9554 34.6549 31.3238 35.3214C31.6922 35.988 32.2081 36.5616 32.8319 36.9984C33.156 37.2227 33.5062 37.4066 33.8749 37.5461C35.0259 37.9804 36.3008 37.9495 37.4296 37.4601C37.863 37.2723 38.2661 37.0212 38.6257 36.7148C39.0477 36.3589 39.4069 35.9345 39.6882 35.4593C40.2799 34.4642 40.508 33.2945 40.3335 32.15C40.2372 31.5105 40.0178 30.8957 39.6874 30.3398C39.3239 29.7299 38.8346 29.2045 38.2522 28.7984C37.9279 28.5743 37.5773 28.3907 37.2085 28.2515C36.6757 28.0506 36.1107 27.9484 35.5413 27.95H35.5397ZM61.6882 27.95C61.1193 27.951 60.5552 28.054 60.0225 28.2539C59.5796 28.4191 59.1642 28.6503 58.7905 28.9398C58.3535 29.275 57.9759 29.6812 57.6733 30.1414C56.9438 31.2457 56.682 32.5943 56.9452 33.8914C57.1352 34.8342 57.5931 35.7022 58.2639 36.3914C58.5929 36.7287 58.9686 37.0171 59.3796 37.2476C59.7961 37.48 60.2451 37.6486 60.7116 37.7476C61.1954 37.8504 61.6924 37.876 62.1843 37.8234C63.1389 37.7238 64.0408 37.3364 64.7702 36.7125C65.2526 36.305 65.652 35.8084 65.9468 35.25C66.4114 34.3752 66.6059 33.3822 66.5053 32.3968C66.4329 31.6709 66.2025 30.9696 65.8303 30.3422C65.4265 29.6646 64.868 29.0923 64.2007 28.6718C63.7971 28.421 63.3588 28.231 62.8999 28.1078C62.5048 28.0026 62.097 27.9495 61.6882 27.95ZM35.5397 29.5593H35.5413C35.7061 29.5588 35.8707 29.5714 36.0335 29.5968C36.4019 29.6536 36.7573 29.7758 37.0827 29.9578C37.3584 30.1106 37.6101 30.3033 37.8296 30.5297C38.1281 30.8347 38.3643 31.1951 38.5249 31.5906C38.6738 31.9515 38.7587 32.3357 38.7757 32.7257C38.7935 33.1226 38.7455 33.5196 38.6335 33.9007C38.5097 34.3129 38.3079 34.6975 38.0389 35.0336C37.7751 35.362 37.4504 35.6365 37.0827 35.8422C36.4637 36.1849 35.7481 36.3113 35.0491 36.2015C34.2582 36.0782 33.5433 35.6604 33.0475 35.032C32.7789 34.6959 32.5773 34.3113 32.4538 33.8992C32.3563 33.5748 32.3074 33.2379 32.3085 32.8992C32.3088 32.5606 32.358 32.2237 32.4546 31.8992C32.5782 31.4873 32.7798 31.103 33.0483 30.7672C33.3114 30.4393 33.6349 30.1651 34.0014 29.9593C34.4234 29.7259 34.8926 29.5908 35.3741 29.564C35.4288 29.5614 35.484 29.5593 35.5397 29.5593ZM61.6882 29.5593C62.0142 29.5599 62.3382 29.6102 62.6491 29.7086C63.051 29.8356 63.423 30.0426 63.7428 30.3172C64.0663 30.5908 64.3338 30.9246 64.5303 31.3C64.7363 31.6898 64.8634 32.1164 64.9046 32.5554C64.9698 33.2262 64.8396 33.9016 64.5296 34.5C64.3316 34.8742 64.0647 35.2077 63.7428 35.4828C63.5024 35.6858 63.234 35.8531 62.946 35.9797C62.5494 36.1524 62.1215 36.2415 61.6889 36.2415C61.2564 36.2415 60.8285 36.1524 60.4319 35.9797C60.046 35.8122 59.697 35.5703 59.4046 35.2679C59.1066 34.9627 58.8709 34.6024 58.7108 34.207C58.5622 33.8463 58.4776 33.4624 58.4608 33.0726C58.4467 32.7873 58.4674 32.5014 58.5225 32.2211C58.6077 31.7949 58.7728 31.3888 59.0093 31.0242C59.2415 30.6726 59.5378 30.3678 59.8827 30.1258C60.1866 29.9153 60.5247 29.7591 60.8819 29.664C61.145 29.5942 61.416 29.559 61.6882 29.5593ZM23.1936 59.0062C23.1645 59.0048 23.1353 59.0051 23.1061 59.007C21.3132 59.1007 19.8944 60.6273 19.8944 62.4554C19.8944 64.3429 21.4077 65.9109 23.2819 65.9109C25.1561 65.9109 26.6757 64.3429 26.6757 62.4554C26.6757 60.5679 25.1561 59.007 23.2819 59.007L23.1936 59.0062ZM39.9225 59.0062C39.8931 59.0048 39.8636 59.0051 39.8343 59.007C38.0413 59.1007 36.6155 60.6273 36.6155 62.4554C36.6155 64.3429 38.1358 65.9109 40.01 65.9109C41.8843 65.9109 43.3975 64.3429 43.3975 62.4554C43.3975 60.5679 41.8843 59.007 40.01 59.007L39.9225 59.0062ZM23.2819 60.6234C24.2616 60.6234 25.0593 61.4211 25.0593 62.4554C25.0593 63.4898 24.2616 64.2945 23.2819 64.2945C22.3022 64.2945 21.5093 63.4898 21.5093 62.4554C21.5093 61.4211 22.3022 60.6234 23.2819 60.6234ZM40.01 60.6234C40.9897 60.6234 41.7819 61.4211 41.7819 62.4554C41.7819 63.4898 40.9897 64.2945 40.01 64.2945C39.0303 64.2945 38.2319 63.4898 38.2319 62.4554C38.2319 61.4211 39.0303 60.6234 40.01 60.6234ZM57.9421 62.3406C55.9694 62.3406 54.3718 63.9898 54.3718 65.9781C54.3718 67.9672 55.9694 69.6164 57.9421 69.6164C59.9147 69.6164 61.5124 67.9679 61.5124 65.9781C61.5124 63.9898 59.9155 62.3406 57.9421 62.3406ZM75.8272 62.3406C73.8546 62.3406 72.2569 63.9898 72.2569 65.9781C72.2569 67.9672 73.8546 69.6164 75.8272 69.6164C77.7999 69.6164 79.3975 67.9679 79.3975 65.9781C79.3975 63.9898 77.8007 62.3406 75.8272 62.3406ZM57.8921 63.9562L57.9428 63.957C59.021 63.957 59.896 64.8429 59.896 65.9781C59.896 67.1132 59.021 68 57.9428 68C56.8647 68 55.9882 67.114 55.9882 65.9781C55.9882 64.8781 56.8085 64.0093 57.8413 63.957L57.8921 63.9562ZM75.7764 63.9562L75.828 63.957C76.9061 63.957 77.7811 64.8429 77.7811 65.9781C77.7811 67.1132 76.9061 68 75.828 68C74.7499 68 73.8733 67.114 73.8733 65.9781C73.8733 64.8781 74.6936 64.0093 75.7264 63.957L75.7764 63.9562Z" fill="#892CA0"/>
<path d="M34.1952 29.6672C33.6685 29.6668 33.1633 29.8838 32.7904 30.2706C32.4176 30.6573 32.2077 31.1822 32.2069 31.7297C32.2063 32.0015 32.2573 32.2708 32.357 32.522C32.4567 32.7733 32.6031 33.0016 32.7878 33.194C32.9725 33.3863 33.1919 33.5388 33.4334 33.6428C33.6749 33.7468 33.9338 33.8003 34.1952 33.8001C34.4566 33.8003 34.7155 33.7468 34.957 33.6428C35.1985 33.5388 35.4179 33.3863 35.6026 33.194C35.7873 33.0016 35.9337 32.7733 36.0334 32.522C36.1331 32.2708 36.1841 32.0015 36.1835 31.7297C36.1827 31.1822 35.9728 30.6573 35.6 30.2706C35.2271 29.8838 34.7219 29.6668 34.1952 29.6672ZM60.3303 29.6672C59.8037 29.6668 59.2984 29.8838 58.9256 30.2706C58.5527 30.6573 58.3429 31.1822 58.3421 31.7297C58.3415 32.0015 58.3925 32.2708 58.4921 32.522C58.5918 32.7733 58.7382 33.0016 58.9229 33.194C59.1076 33.3863 59.327 33.5388 59.5685 33.6428C59.8101 33.7468 60.0689 33.8003 60.3303 33.8001C60.5916 33.8001 60.8503 33.7465 61.0917 33.6424C61.333 33.5383 61.5522 33.3857 61.7368 33.1934C61.9213 33.0011 62.0676 32.7728 62.1671 32.5217C62.2667 32.2705 62.3177 32.0014 62.3171 31.7297C62.3163 31.1824 62.1066 30.6578 61.7341 30.2711C61.3616 29.8844 60.8567 29.6672 60.3303 29.6672ZM22.4218 60.3938C22.085 60.394 21.7621 60.533 21.524 60.7801C21.2859 61.0273 21.1522 61.3624 21.1522 61.7118C21.1521 61.885 21.1849 62.0565 21.2488 62.2166C21.3126 62.3766 21.4062 62.522 21.5243 62.6445C21.6423 62.767 21.7825 62.8641 21.9368 62.9304C22.091 62.9966 22.2564 63.0306 22.4233 63.0305C22.5903 63.0306 22.7556 62.9966 22.9099 62.9304C23.0641 62.8641 23.2043 62.767 23.3223 62.6445C23.4404 62.522 23.534 62.3766 23.5979 62.2166C23.6617 62.0565 23.6945 61.885 23.6944 61.7118C23.6944 61.5386 23.6615 61.3672 23.5976 61.2072C23.5338 61.0473 23.4401 60.9019 23.3221 60.7795C23.204 60.6571 23.0639 60.5601 22.9097 60.4939C22.7555 60.4277 22.5902 60.3937 22.4233 60.3938H22.4218ZM39.3124 60.5829C39.1455 60.5829 38.9802 60.617 38.8261 60.6833C38.6719 60.7495 38.5318 60.8467 38.4139 60.9692C38.2959 61.0916 38.2023 61.237 38.1385 61.397C38.0747 61.557 38.042 61.7285 38.0421 61.9016C38.0421 62.0748 38.0749 62.2462 38.1388 62.4062C38.2027 62.5661 38.2964 62.7114 38.4144 62.8338C38.5324 62.9562 38.6726 63.0533 38.8268 63.1195C38.981 63.1857 39.1463 63.2197 39.3132 63.2196C39.4802 63.2199 39.6456 63.186 39.8 63.12C39.9544 63.0539 40.0947 62.9568 40.2129 62.8344C40.3311 62.712 40.4249 62.5666 40.4889 62.4065C40.5529 62.2465 40.5858 62.0749 40.5858 61.9016C40.5859 61.7282 40.553 61.5565 40.489 61.3963C40.425 61.236 40.3312 61.0905 40.2129 60.968C40.0946 60.8455 39.9542 60.7484 39.7996 60.6823C39.6451 60.6162 39.4795 60.5824 39.3124 60.5829ZM57.0233 63.775C56.6635 63.7748 56.3183 63.9227 56.0635 64.1862C55.8086 64.4497 55.6649 64.8073 55.6639 65.1805C55.6635 65.3659 55.6984 65.5496 55.7666 65.721C55.8347 65.8924 55.9348 66.0482 56.0611 66.1794C56.1874 66.3106 56.3373 66.4147 56.5025 66.4857C56.6676 66.5566 56.8446 66.5931 57.0233 66.593C57.202 66.5931 57.379 66.5566 57.5442 66.4857C57.7093 66.4147 57.8593 66.3106 57.9856 66.1794C58.1118 66.0482 58.2119 65.8924 58.2801 65.721C58.3482 65.5496 58.3831 65.3659 58.3827 65.1805C58.3817 64.8073 58.238 64.4497 57.9832 64.1862C57.7283 63.9227 57.3831 63.7748 57.0233 63.775ZM75.185 63.9563C75.0062 63.9562 74.8291 63.9927 74.6638 64.0638C74.4986 64.1349 74.3486 64.2391 74.2223 64.3705C74.096 64.5018 73.9959 64.6578 73.9279 64.8294C73.8598 65.001 73.8251 65.1848 73.8257 65.3704C73.8265 65.7437 73.9701 66.1016 74.2249 66.3652C74.4798 66.6289 74.8251 66.7768 75.185 66.7766C75.545 66.7768 75.8903 66.6289 76.1451 66.3652C76.4 66.1016 76.5436 65.7437 76.5444 65.3704C76.545 65.1848 76.5103 65.001 76.4422 64.8294C76.3742 64.6578 76.2741 64.5018 76.1478 64.3705C76.0215 64.2391 75.8714 64.1349 75.7062 64.0638C75.541 63.9927 75.3639 63.9562 75.185 63.9563Z" fill="white"/>
</svg>
