<svg width="100" height="100" viewBox="0 0 100 100" fill="none" xmlns="http://www.w3.org/2000/svg">
<path fill-rule="evenodd" clip-rule="evenodd" d="M86.2834 28.65C85.7226 28.0872 85.0535 27.6438 84.3167 27.3466C83.5798 27.0495 82.7903 26.9046 81.9959 26.9208H81.9709C80.8644 26.9214 79.7687 26.7036 78.7465 26.2801C77.7243 25.8565 76.7956 25.2354 76.0138 24.4525C75.232 23.6695 74.6123 22.7399 74.1902 21.7171C73.7682 20.6942 73.5521 19.5982 73.5543 18.4917C73.5669 17.715 73.426 16.9434 73.1396 16.2214C72.8531 15.4993 72.4268 14.841 71.8851 14.2842C71.3434 13.7274 70.6971 13.2832 69.9832 12.977C69.2692 12.6708 68.5019 12.5087 67.7251 12.5H20.2959C19.5194 12.506 18.7518 12.6656 18.0372 12.9697C17.3227 13.2737 16.6754 13.7163 16.1328 14.2717C15.5901 14.8272 15.1628 15.4846 14.8754 16.206C14.588 16.9274 14.4463 17.6986 14.4584 18.475C14.4573 20.7124 13.568 22.8579 11.9859 24.44C10.4038 26.0221 8.25836 26.9114 6.02094 26.9125V26.9208C5.23362 26.9036 4.45082 27.0443 3.71883 27.3347C2.98683 27.6252 2.32049 28.0594 1.75918 28.6118C1.19788 29.1641 0.753013 29.8234 0.450874 30.5507C0.148735 31.2779 -0.00454258 32.0583 0.0001025 32.8458V48.0208C-0.0034118 48.8073 0.15056 49.5865 0.45294 50.3124C0.75532 51.0384 1.19999 51.6965 1.76073 52.248C2.32147 52.7994 2.98694 53.233 3.71789 53.5231C4.44885 53.8133 5.2305 53.9542 6.01677 53.9375C8.25093 53.9375 10.3939 54.8236 11.9756 56.4014C13.5574 57.9792 14.4488 60.12 14.4543 62.3542V77.7417C14.4542 78.1732 14.5881 78.594 14.8374 78.9462C15.0868 79.2983 15.4394 79.5643 15.8464 79.7075C16.2535 79.8506 16.6949 79.8638 17.1098 79.7453C17.5247 79.6268 17.8926 79.3824 18.1626 79.0458L26.7084 68.35H67.7209C68.4971 68.3435 69.2643 68.1835 69.9784 67.8791C70.6924 67.5748 71.3392 67.1322 71.8814 66.5768C72.4236 66.0214 72.8506 65.3642 73.1377 64.6431C73.4248 63.9219 73.5664 63.1511 73.5543 62.375V62.3667C73.5543 57.7 77.3209 53.9292 81.9959 53.9292C82.7832 53.9481 83.5663 53.8089 84.2987 53.5196C85.0312 53.2304 85.6981 52.797 86.2599 52.2453C86.8218 51.6935 87.2672 51.0345 87.5697 50.3075C87.8722 49.5804 88.0256 48.8 88.0209 48.0125V32.8333C88.0209 31.3208 87.4376 29.8083 86.2834 28.65ZM76.2001 48.1792C76.1781 50.4025 75.2795 52.5272 73.6996 54.0916C72.1196 55.6559 69.986 56.5334 67.7626 56.5333H20.2543C18.0309 56.5334 15.8973 55.6559 14.3173 54.0916C12.7374 52.5272 11.8387 50.4025 11.8168 48.1792V32.6792C11.8398 30.4569 12.7382 28.3334 14.317 26.7694C15.8959 25.2054 18.0278 24.3271 20.2501 24.325H67.7501C69.9739 24.3249 72.1079 25.2022 73.6885 26.7665C75.2692 28.3307 76.1687 30.4555 76.1918 32.6792V48.1792H76.2001Z" fill="black"/>
<path fill-rule="evenodd" clip-rule="evenodd" d="M30.8874 31.5432C29.3167 31.5421 27.8099 32.1647 26.6981 33.2742C25.5862 34.3837 24.9605 35.8892 24.9583 37.4599V43.3849C24.9583 44.9563 25.5825 46.4634 26.6936 47.5745C27.8048 48.6857 29.3118 49.3099 30.8833 49.3099C32.4547 49.3099 33.9617 48.6857 35.0729 47.5745C36.184 46.4634 36.8083 44.9563 36.8083 43.3849V37.4599C36.8083 34.1932 34.1583 31.5349 30.8833 31.5349L30.8874 31.5432ZM57.1249 31.5432C55.5542 31.5432 54.0478 32.1669 52.9368 33.2772C51.8257 34.3874 51.201 35.8934 51.1999 37.4641V43.3891C51.1999 44.9605 51.8242 46.4675 52.9353 47.5787C54.0465 48.6898 55.5535 49.3141 57.1249 49.3141C58.6963 49.3141 60.2034 48.6898 61.3145 47.5787C62.4257 46.4675 63.0499 44.9605 63.0499 43.3891V37.4599C63.0499 34.1932 60.3999 31.5349 57.1249 31.5349V31.5432Z" fill="black"/>
<path fill-rule="evenodd" clip-rule="evenodd" d="M30.383 94.346L38.6872 83.9626H79.7038C80.4799 83.9556 81.2468 83.7952 81.9606 83.4907C82.6744 83.1862 83.3209 82.7435 83.8631 82.1882C84.4052 81.6329 84.8322 80.976 85.1195 80.2551C85.4068 79.5342 85.5487 78.7636 85.5372 77.9876C85.535 75.7542 86.4184 73.611 87.9937 72.0278C89.5691 70.4446 91.7079 69.5506 93.9414 69.5418H93.983C94.77 69.5614 95.553 69.4225 96.2852 69.1333C97.0175 68.8442 97.6841 68.4107 98.2454 67.8587C98.8067 67.3067 99.2513 66.6475 99.5527 65.9202C99.8541 65.1929 100.006 64.4124 99.9997 63.6251V48.6501C99.9997 47.2168 99.5289 45.8168 98.6497 44.6876L96.9955 42.5251V59.721C96.9985 60.5073 96.8441 61.2862 96.5415 62.0119C96.2389 62.7376 95.7943 63.3955 95.2336 63.9468C94.673 64.4981 94.0078 64.9317 93.2771 65.2221C92.5464 65.5125 91.765 65.6538 90.9788 65.6376H90.9497C88.7173 65.6465 86.5793 66.5392 85.0035 68.1204C83.4277 69.7017 82.5424 71.8428 82.5413 74.0751C82.5529 74.8522 82.4107 75.6239 82.123 76.3458C81.8353 77.0677 81.4077 77.7256 80.8648 78.2816C80.3219 78.8377 79.6744 79.2809 78.9596 79.5859C78.2448 79.8908 77.4768 80.0514 76.6997 80.0585H35.6872L26.6497 91.3585C26.2945 91.8567 26.1437 92.4721 26.2285 93.0781C26.3133 93.6841 26.6271 94.2346 27.1053 94.6163C27.5836 94.9979 28.19 95.1817 28.7997 95.1299C29.4094 95.0781 29.976 94.7946 30.383 94.3376V94.346Z" fill="url(#paint0_linear_867_14644)"/>
<path fill-rule="evenodd" clip-rule="evenodd" d="M20.8502 83.3004L29.6835 72.2588H70.7002C71.4778 72.2523 72.2465 72.0919 72.9618 71.7869C73.6771 71.4819 74.325 71.0383 74.8681 70.4817C75.4111 69.9251 75.8386 69.2664 76.1259 68.5438C76.4132 67.8212 76.5545 67.0488 76.5419 66.2713C76.5419 61.6213 80.2919 57.8504 84.9335 57.8338H84.9835C85.7703 57.8505 86.5525 57.7093 87.2837 57.4186C88.015 57.1279 88.6806 56.6935 89.2411 56.1411C89.8017 55.5887 90.2458 54.9296 90.5472 54.2027C90.8486 53.4757 91.0012 52.6957 90.996 51.9088V34.7004L93.1627 37.5338C94.0377 38.6713 94.5127 40.0629 94.5127 41.4921V56.4671C94.5151 57.2529 94.3604 58.0312 94.0579 58.7564C93.7554 59.4816 93.3111 60.139 92.751 60.6902C92.1909 61.2413 91.5264 61.675 90.7965 61.9658C90.0665 62.2567 89.2858 62.3988 88.5002 62.3838H88.4585C86.2269 62.3948 84.0904 63.289 82.5163 64.871C80.9422 66.4529 80.0585 68.5938 80.0585 70.8254C80.0701 71.6023 79.9279 72.3737 79.6401 73.0954C79.3523 73.8171 78.9247 74.4747 78.3817 75.0304C77.8388 75.5862 77.1913 76.029 76.4765 76.3335C75.7617 76.638 74.9938 76.7981 74.2169 76.8046H33.2085L25.2252 86.8046C24.7616 87.3842 24.0868 87.7559 23.3491 87.838C22.6115 87.92 21.8715 87.7057 21.2919 87.2421C20.7123 86.7785 20.3405 86.1037 20.2585 85.366C20.1764 84.6284 20.3908 83.8884 20.8544 83.3088L20.8502 83.3004Z" fill="url(#paint1_linear_867_14644)"/>
<defs>
<linearGradient id="paint0_linear_867_14644" x1="141.708" y1="30.4293" x2="4.5247" y2="115.479" gradientUnits="userSpaceOnUse">
<stop stop-color="#46A6F7"/>
<stop offset="1" stop-color="#8364FF"/>
</linearGradient>
<linearGradient id="paint1_linear_867_14644" x1="20.4794" y1="97.9629" x2="101.417" y2="39.4338" gradientUnits="userSpaceOnUse">
<stop stop-color="#FF44D3"/>
<stop offset="1" stop-color="#CF4BFF"/>
</linearGradient>
</defs>
</svg>
