<svg width="100" height="100" viewBox="0 0 100 100" fill="none" xmlns="http://www.w3.org/2000/svg">
<g clip-path="url(#clip0_1085_3524)">
<g clip-path="url(#clip1_1085_3524)">
<path d="M100 50C100 22.3858 77.6142 0 50 0C22.3858 0 0 22.3858 0 50C0 77.6142 22.3858 100 50 100C77.6142 100 100 77.6142 100 50Z" fill="#6C00F6"/>
<path d="M60.779 27.6616L46.8257 35.6755V60.6869L39.1268 65.1497L31.3807 60.6833V51.7536L39.1268 47.3305L44.1073 50.2189V42.9942L39.0832 40.1419L25.1333 48.2464V64.2775L39.1304 72.3383L53.0801 64.2775V39.2697L60.8262 34.803L68.5684 39.2697V48.1594L60.8262 52.6658L55.802 49.7519V56.9405L60.779 59.8108L74.8665 51.7972V35.6755L60.779 27.6616Z" fill="white"/>
</g>
</g>
<defs>
<clipPath id="clip0_1085_3524">
<rect width="100" height="100" fill="white"/>
</clipPath>
<clipPath id="clip1_1085_3524">
<rect width="100" height="100" fill="white"/>
</clipPath>
</defs>
</svg>
