<svg width="100" height="100" viewBox="0 0 100 100" fill="none" xmlns="http://www.w3.org/2000/svg">
<path d="M38.5317 23.0002H37.063V30.6174H38.5317V23.0002ZM44.8521 23.0002H43.3833V30.6174H44.8521V23.0002ZM53.4927 8.46899L51.9849 5.85962L26.8442 20.3909L28.3521 23.0002L53.4927 8.46899Z" fill="#3BBCED"/>
<path d="M53.3438 8.46899L54.8516 5.85962L79.9922 20.3909L78.4844 23.0002L53.3438 8.46899Z" fill="#3BBCED"/>
<path d="M84.438 23.0396V20.0239H15.563V23.0396H84.438Z" fill="#3BBCED"/>
<path d="M57.1646 65.6333V20.938H60.1802V67.7974C59.3755 66.8833 58.3442 66.2192 57.1646 65.6333ZM52.0239 64.8599V1.81299H55.0395V65.2271C54.188 64.8208 52.1333 64.8599 52.0239 64.8599ZM23.4692 71.1489C19.7974 68.4302 17.3677 64.0864 17.3677 59.1567C17.3677 56.5474 18.063 53.9692 19.3521 51.7271H45.0786C46.3989 53.9692 47.063 56.5474 47.063 59.1567C47.063 61.438 46.7661 63.5708 45.8521 65.4849C43.9067 63.6099 41.0396 62.7974 38.1333 62.7974C32.9849 62.7974 28.5786 66.0005 27.438 70.7817C27.0317 70.7427 26.7739 70.7114 26.3755 70.7114C25.3755 70.7427 24.4224 70.8911 23.4692 71.1489ZM36.1099 34.0005H28.3208V41.8364H36.1099V34.0005ZM27.3208 34.0005H19.5317V41.8364H27.3208V34.0005ZM27.3208 42.7192H19.5317V50.5552H27.3208V42.7192ZM36.1099 42.7192H28.3208V50.5552H36.1099V42.7192ZM44.8521 42.7192H37.063V50.5552H44.8521V42.7192ZM44.8521 29.8052H37.063V37.6411H44.8521V29.8052Z" fill="#3BBCED"/>
<path d="M28.7195 72.3291C29.782 67.8057 33.8679 64.4229 38.7195 64.4229C41.8445 64.4229 44.6335 65.8213 46.5476 68.0322C48.2039 66.8916 50.1882 66.2275 52.3523 66.2275C58.0085 66.2275 62.6023 70.8213 62.6023 76.4932C62.6023 77.6729 62.4226 78.7744 62.0554 79.8369C63.3054 81.5322 64.0789 83.665 64.0789 85.9463C64.0789 91.6104 59.4851 96.2119 53.821 96.2119C51.321 96.2119 49.0398 95.3291 47.282 93.8604C45.407 96.4697 42.3601 98.2041 38.8992 98.2041C34.9304 98.2041 31.4773 95.9229 29.7507 92.6104C29.0554 92.7588 28.3523 92.8291 27.6179 92.8291C21.9617 92.8291 17.3289 88.2275 17.3289 82.5635C17.3289 76.8994 21.9226 72.2979 27.6179 72.2979C27.9851 72.2588 28.3523 72.2588 28.7195 72.3291Z" fill="#3BBCED"/>
</svg>
