<svg width="100" height="100" viewBox="0 0 100 100" fill="none" xmlns="http://www.w3.org/2000/svg">
<g clip-path="url(#clip0_1085_3534)">
<path d="M75.2406 0H24.7594C11.0851 0 0 11.0851 0 24.7594V75.2406C0 88.9148 11.0851 100 24.7594 100H75.2406C88.9148 100 100 88.9148 100 75.2406V24.7594C100 11.0851 88.9148 0 75.2406 0Z" fill="#3A78B1"/>
<path d="M57.9088 70.8166C57.9088 73.877 56.6931 76.812 54.5291 78.9759C52.3651 81.1399 49.4301 82.3557 46.3697 82.3557C43.3096 82.3552 40.375 81.1394 38.2114 78.9754C36.0477 76.8114 34.8322 73.8767 34.8322 70.8166C34.8322 67.7564 36.0478 64.8215 38.2117 62.6575C40.3755 60.4936 43.3103 59.2777 46.3705 59.2775C49.4309 59.2775 52.3659 60.4933 54.5299 62.6572C56.6939 64.8212 57.9088 67.7563 57.9088 70.8166ZM17.2119 86.9229V43.99C17.2119 28.8455 29.808 9.44629 51.5143 9.44629C73.2213 9.44629 86.1541 26.201 86.1541 43.365C86.1541 72.8361 58.1252 77.7635 58.1252 77.7635C58.1252 77.7635 59.8557 74.9994 59.8557 70.6728C59.8557 66.3463 57.933 63.9416 57.933 63.9416C57.933 63.9416 72.3557 60.0955 72.3557 43.0275C72.3557 25.9611 59.6158 23.076 51.683 23.076C37.9807 23.076 30.4564 34.7354 30.4564 43.3408V87.0674C30.4564 93.2924 26.2502 92.8119 26.2502 92.8119H21.6346C21.6346 92.8119 17.2119 92.8119 17.2119 86.9463V86.9229Z" fill="white"/>
</g>
<defs>
<clipPath id="clip0_1085_3534">
<rect width="100" height="100" fill="white"/>
</clipPath>
</defs>
</svg>
