<svg width="100" height="100" viewBox="0 0 100 100" fill="none" xmlns="http://www.w3.org/2000/svg">
<path d="M0 64.7091C0.599392 64.8141 3.93699 64.567 4.08025 64.7091L4.10647 64.818C4.13753 65.2377 3.98598 66.6437 4.08025 66.7391C4.18879 66.8439 6.0106 66.6313 6.12239 66.7391C6.23104 66.8478 6.00998 68.6704 6.12239 68.7753C6.23951 68.8791 8.05602 68.6629 8.16453 68.7753C8.27185 68.8933 8.05232 70.7047 8.16453 70.8092C8.28068 70.9134 10.0981 70.697 10.2067 70.8092C10.3143 70.9262 10.0944 72.7386 10.2067 72.8434C10.3218 72.9477 12.1403 72.7312 12.2488 72.8434C12.3567 72.9591 12.1365 74.7727 12.2488 74.8775C12.3403 74.9672 13.9127 74.8138 14.291 74.8775V78.9437H0V64.7091ZM0.00807171 44.3725C0.609885 44.4768 3.9393 44.2309 4.0863 44.3725H4.08025C4.18421 44.4816 3.97172 46.3018 4.08025 46.4066C4.19109 46.511 6.0138 46.2979 6.12239 46.4066C6.23038 46.518 6.01008 48.3358 6.12239 48.4405C6.23593 48.5453 8.05592 48.3283 8.16453 48.4405C8.27282 48.5546 8.05218 50.3699 8.16453 50.4746C8.27667 50.5792 10.0867 50.3645 10.2047 50.4746C10.3132 50.587 10.0926 52.4042 10.2047 52.5108C10.317 52.6156 12.1377 52.3984 12.2468 52.5108C12.3554 52.623 12.135 54.4373 12.2468 54.5447C12.3591 54.6497 14.1787 54.4327 14.2889 54.5447C14.3975 54.6572 14.1774 56.4702 14.2889 56.5789C14.4012 56.6836 16.2196 56.4671 16.3311 56.5789C16.4396 56.6911 16.2198 58.5033 16.3311 58.613C16.4433 58.7177 18.2606 58.5014 18.3732 58.613C18.4817 58.7252 18.2622 60.5361 18.3732 60.6471C18.4855 60.7519 20.3017 60.5357 20.4154 60.6471C20.524 60.7595 20.303 62.5783 20.4154 62.6831C20.4164 62.7996 20.5389 76.9986 20.4275 76.9197C20.3151 76.8147 18.4949 77.0319 18.3853 76.9197C18.2768 76.8073 18.497 74.9934 18.3853 74.8855C18.273 74.7808 16.4539 74.9975 16.3432 74.8855C16.2347 74.7733 16.4546 72.9605 16.3432 72.8514C16.2309 72.7467 14.4129 72.9632 14.301 72.8514C14.1926 72.7392 14.4122 70.9276 14.301 70.8173C14.1888 70.7125 12.3719 70.9289 12.2589 70.8173C12.1502 70.7049 12.3713 68.8863 12.2589 68.7813C12.143 68.6772 10.3253 68.8935 10.2168 68.7813C10.1092 68.6644 10.329 66.852 10.2168 66.7472C10.1018 66.6428 8.2832 66.8596 8.17461 66.7472C8.06675 66.6315 8.28692 64.818 8.17461 64.7131C8.06073 64.6085 6.24108 64.8255 6.13247 64.7131C6.02434 64.5986 6.2448 62.7839 6.13247 62.6792C6.01965 62.5742 4.19898 62.7916 4.09033 62.6792C3.98193 62.5657 4.20256 60.7506 4.09033 60.645C3.97794 60.5401 2.15701 60.7574 2.0482 60.645C1.93954 60.5326 2.1606 58.7138 2.0482 58.6089C1.94997 58.5208 0.386888 58.6721 0.00807171 58.6089V44.3725ZM0.00807171 24.0338C0.608745 24.1381 3.93221 23.8932 4.0863 24.0338H4.08025C4.18516 24.1387 3.9716 25.965 4.08025 26.0699C4.19599 26.1732 6.01397 25.9615 6.12239 26.0699C6.2292 26.1865 6.01027 27.9993 6.12239 28.104C6.24075 28.2075 8.05606 27.9918 8.16453 28.104C8.27165 28.2229 8.05234 30.0333 8.16453 30.138C8.28179 30.2416 10.0918 30.0268 10.2047 30.138C10.3131 30.2502 10.0938 32.0607 10.2047 32.1721C10.3169 32.2768 12.1326 32.061 12.2468 32.1721C12.3552 32.2842 12.1362 34.0937 12.2468 34.2062C12.359 34.3109 14.1737 34.0953 14.2889 34.2062C14.3976 34.3186 14.1765 36.1373 14.2889 36.2422C14.4024 36.3469 16.2224 36.1299 16.3311 36.2422C16.4392 36.3571 16.2188 38.1715 16.3311 38.2763C16.4435 38.3812 18.2646 38.1639 18.3732 38.2763C18.4816 38.3898 18.2611 40.2044 18.3732 40.3104C18.4856 40.4152 20.3067 40.198 20.4154 40.3104C20.5239 40.4226 20.3034 42.2375 20.4154 42.3444C20.4154 42.3444 20.5385 56.6206 20.4275 56.583C20.3153 56.4782 18.4999 56.694 18.3853 56.583C18.2767 56.4706 18.4977 54.6518 18.3853 54.5468C18.2712 54.4422 16.4518 54.6592 16.3432 54.5468C16.2353 54.4313 16.4555 52.6177 16.3432 52.5127C16.23 52.4081 14.4097 52.6251 14.301 52.5127C14.1928 52.3984 14.4133 50.5837 14.301 50.4788C14.1886 50.3738 12.3676 50.5912 12.2589 50.4788C12.1504 50.3657 12.371 48.5509 12.2589 48.4446C12.1465 48.3397 10.3259 48.5569 10.2168 48.4446C10.1082 48.3322 10.3286 46.518 10.2168 46.4105C10.1044 46.3058 8.28493 46.5225 8.17461 46.4105C8.06596 46.2981 8.28702 44.4793 8.17461 44.3745C8.05602 44.271 6.24093 44.4867 6.13247 44.3745C6.02552 44.2549 6.24463 42.4452 6.13247 42.3404C6.01481 42.2367 4.19882 42.4526 4.09033 42.3404C3.98309 42.222 4.20254 40.4111 4.09033 40.3063C3.97365 40.2024 2.15672 40.4185 2.0482 40.3063C1.94066 40.1891 2.16044 38.377 2.0482 38.2723C1.95506 38.1831 0.387851 38.3355 0.00807171 38.2723V24.0338Z" fill="black"/>
<path d="M42.8782 64.7232C42.9906 64.8282 44.8105 64.6112 44.9204 64.7232C45.0289 64.8357 44.808 66.6545 44.9204 66.7594C45.0394 66.8628 46.8541 66.6472 46.9624 66.7594C47.0694 66.8795 46.8504 68.6888 46.9624 68.7934C47.0806 68.8971 48.8961 68.6811 49.0046 68.7934C49.1118 68.9124 48.8924 70.7229 49.0046 70.8275C49.1217 70.9314 50.9383 70.7153 51.0468 70.8275C51.1542 70.945 50.9345 72.7568 51.0468 72.8616C51.1627 72.9655 52.9726 72.7506 53.0869 72.8616C53.1953 72.9738 52.9763 74.7831 53.0869 74.8957C53.1767 74.9856 54.749 74.8323 55.129 74.8957V78.9617H42.8782C42.8782 78.9617 42.766 64.6325 42.8782 64.7232ZM42.8621 42.3444C42.8621 42.3444 44.789 42.2332 44.9041 42.3444C45.0128 42.4568 44.7919 44.2756 44.9041 44.3806C45.0182 44.4851 46.8378 44.2682 46.9463 44.3806C47.0543 44.4959 46.8341 46.3097 46.9463 46.4147C47.0593 46.5195 48.8798 46.3023 48.9885 46.4147C49.0967 46.5286 48.8763 48.3432 48.9885 48.4486C49.1009 48.5536 50.9219 48.3362 51.0306 48.4486C51.1391 48.5614 50.9186 50.3763 51.0306 50.4827C51.143 50.5877 52.9633 50.3705 53.0728 50.4827C53.1813 50.5952 52.961 52.4092 53.0728 52.5169C53.185 52.6216 55.0042 52.4049 55.115 52.5169C55.2235 52.6293 55.0026 54.4481 55.115 54.5528C55.2332 54.6566 57.0485 54.4406 57.157 54.5528C57.264 54.6723 57.045 56.4824 57.157 56.587C57.2745 56.6907 59.0907 56.4748 59.1991 56.587C59.3064 56.7052 59.0869 58.5163 59.1991 58.6211C59.2934 58.7101 60.8634 58.5574 61.2413 58.6211V74.8895H57.1611C57.0975 74.5159 57.2493 72.9533 57.1611 72.8556C57.0526 72.7471 55.2342 72.9626 55.1189 72.8556C55.0102 72.7469 55.2313 70.9244 55.1189 70.8194C55.0055 70.7149 53.1854 70.9318 53.0767 70.8194C52.9687 70.7047 53.1891 68.8903 53.0767 68.7853C52.9643 68.6805 51.1433 68.8977 51.0346 68.7853C50.9263 68.6718 51.1468 66.8572 51.0346 66.7514C50.9224 66.6464 49.1013 66.8638 48.9926 66.7514C48.8839 66.639 49.1044 64.8243 48.9926 64.7173C48.8802 64.6123 47.0603 64.8293 46.9504 64.7173C46.8419 64.6048 47.062 62.7912 46.9504 62.6831C46.838 62.5784 45.0192 62.7949 44.9082 62.6831C44.7995 62.5707 45.0206 60.7519 44.9082 60.6472C44.7902 60.5434 42.9745 60.7594 42.866 60.6472C42.7588 60.4709 42.9743 42.4492 42.8621 42.3444ZM42.8439 24.0338C43.4428 24.1386 46.7752 23.8924 46.9242 24.0338H46.9281C47.0331 24.1387 46.8196 25.965 46.9281 26.0699C47.0417 26.1737 48.8618 25.9614 48.9703 26.0699C49.0775 26.1845 48.8581 27.9993 48.9703 28.104C49.0864 28.208 50.904 27.9917 51.0125 28.104C51.1201 28.221 50.9002 30.0333 51.0125 30.1381C51.1275 30.2423 52.9459 30.0258 53.0546 30.1381C53.1625 30.2538 52.9422 32.0673 53.0546 32.1721C53.1687 32.2767 54.9881 32.0598 55.0968 32.1721C55.2049 32.2867 54.9844 34.1014 55.0968 34.2062C55.2098 34.311 57.0303 34.0938 57.1388 34.2062C57.2473 34.3196 57.0266 36.1374 57.1388 36.2423C57.2605 36.3451 59.0706 36.1302 59.1791 36.2423C59.2876 36.3549 59.0671 38.1693 59.1791 38.2763C59.2688 38.3662 60.8417 38.2129 61.2211 38.2763V54.5448H59.1791C59.1115 54.1702 59.2727 52.5987 59.1791 52.5088C59.0615 52.4022 57.2475 52.6208 57.1388 52.5088C57.0303 52.3964 57.2508 50.5821 57.1388 50.4747C57.0266 50.3699 55.2067 50.5867 55.0968 50.4747C54.9881 50.3625 55.2084 48.5493 55.0968 48.4406C54.9844 48.3358 53.1658 48.5524 53.0546 48.4406C52.9461 48.3284 53.1658 46.5162 53.0546 46.4066C52.9422 46.3019 51.1249 46.518 51.0125 46.4066C50.904 46.2944 51.1234 44.4833 51.0125 44.3725C50.9002 44.2678 49.0839 44.4837 48.9703 44.3725C48.8616 44.2601 49.0827 42.4413 48.9703 42.3363C48.855 42.2322 47.0368 42.4487 46.9281 42.3363C46.8204 42.22 47.0405 40.4072 46.9281 40.3024C46.8138 40.1979 44.9946 40.4146 44.8861 40.3024C44.778 40.1871 44.9983 38.3731 44.8861 38.2683C44.7952 38.1785 43.2223 38.3319 42.8439 38.2683V24.0338Z" fill="black"/>
<path d="M20.4149 42.3447C20.5308 42.4488 22.3486 42.2325 22.457 42.3447C22.5647 42.4615 22.3448 44.2741 22.457 44.3788C22.5719 44.4832 24.3907 44.2664 24.4992 44.3788C24.6071 44.4943 24.387 46.308 24.4992 46.4129C24.6131 46.5175 26.4327 46.3005 26.5414 46.4129C26.6495 46.5272 26.429 48.3421 26.5414 48.4469C26.6542 48.5518 28.4749 48.3345 28.5836 48.4469C28.6921 48.5601 28.4712 50.3781 28.5836 50.483C28.7049 50.586 30.5152 50.3708 30.6237 50.483C30.7322 50.5953 30.5117 52.4097 30.6237 52.5172C30.7359 52.6219 32.5559 52.405 32.6659 52.5172C32.7744 52.6294 32.5541 54.4428 32.6659 54.5511C32.7781 54.6561 34.5969 54.4393 34.7078 54.5511C34.8163 54.6635 34.5967 56.4759 34.7078 56.5852C34.8203 56.69 36.6378 56.4736 36.75 56.5852C36.8585 56.6974 36.6391 58.5088 36.75 58.6193C36.8622 58.7241 38.679 58.5079 38.7922 58.6193C38.9009 58.7317 38.6798 60.5505 38.7922 60.6553C38.9077 60.7597 40.7257 60.5431 40.8344 60.6553C40.942 60.7721 40.7222 62.5847 40.8344 62.6894C40.9489 62.794 42.7679 62.577 42.8766 62.6894C42.9842 62.8314 42.8774 78.8169 42.8766 78.9599H40.8464C40.7831 78.584 40.9361 77.0167 40.8464 76.926C40.7379 76.8173 38.9131 77.0345 38.8044 76.926C38.6957 76.8173 38.9162 74.9989 38.8044 74.8919C38.692 74.7869 36.8719 75.0039 36.7622 74.8919C36.6535 74.7795 36.8738 72.966 36.7622 72.8578C36.6498 72.753 34.831 72.9696 34.72 72.8578C34.6116 72.7456 34.8314 70.9332 34.72 70.8236C34.6078 70.7189 32.7901 70.9352 32.6779 70.8236C32.5692 70.7112 32.7903 68.8926 32.6779 68.7877C32.5613 68.6837 30.7442 68.8999 30.6357 68.7877C30.5284 68.6699 30.7479 66.8583 30.6357 66.7535C30.5202 66.6494 28.7022 66.8659 28.5937 66.7535C28.4858 66.637 28.7059 64.8242 28.5937 64.7194C28.479 64.6151 26.66 64.8318 26.5515 64.7194C26.4434 64.6041 26.6637 62.7903 26.5515 62.6855C26.4379 62.5807 24.618 62.7977 24.5093 62.6855C24.4011 62.5712 24.6218 60.7561 24.5093 60.6514C24.3967 60.5464 22.5759 60.7638 22.4672 60.6514C22.3587 60.5384 22.5796 58.7202 22.4672 58.6152H20.4149C20.414 58.4718 20.303 42.2404 20.4149 42.3447ZM20.4149 62.6774C20.5272 62.7822 22.3444 62.5659 22.457 62.6774C22.5657 62.7896 22.3446 64.6085 22.457 64.7134C22.5734 64.8174 24.3907 64.6012 24.4992 64.7134C24.6067 64.8306 24.387 66.6428 24.4992 66.7475C24.6145 66.8517 26.4329 66.6351 26.5414 66.7475C26.6493 66.8635 26.4292 68.6767 26.5414 68.7817C26.6557 68.886 28.4749 68.6693 28.5836 68.7817C28.6916 68.8963 28.4712 70.7108 28.5836 70.8156C28.6968 70.9203 30.5171 70.7032 30.6258 70.8156C30.734 70.9292 30.5133 72.7445 30.6258 72.8497C30.7378 72.9543 32.5475 72.7396 32.6659 72.8497C32.7744 72.9621 32.5539 74.7789 32.6659 74.8859C32.7556 74.9756 34.3283 74.8225 34.7078 74.8859V78.95H20.4149C20.4143 78.858 20.3035 62.6126 20.4149 62.6774ZM24.4831 24.0341C24.8573 24.0977 26.4282 23.9411 26.5253 24.0341C26.6338 24.1425 26.4141 25.9577 26.5253 26.0681C26.6375 26.1729 28.4542 25.9568 28.5675 26.0681C28.6759 26.1805 28.455 27.9993 28.5675 28.1042C28.683 28.2084 30.5009 27.9919 30.6094 28.1042C30.7171 28.2211 30.4972 30.0335 30.6094 30.1383C30.7241 30.2427 32.5431 30.026 32.6516 30.1383C32.7595 30.2539 32.5394 32.0676 32.6516 32.1724C32.7653 32.277 34.5851 32.06 34.6938 32.1724C34.8021 32.2868 34.5814 34.1016 34.6938 34.2064C34.8064 34.3113 36.6273 34.094 36.736 34.2064C36.8445 34.3196 36.6238 36.1347 36.736 36.2405C36.8484 36.3454 38.6691 36.1282 38.7782 36.2405C38.8866 36.3529 38.6657 38.1717 38.7782 38.2766C38.8982 38.3797 40.7119 38.1644 40.8201 38.2766C40.927 38.3974 40.7081 40.206 40.8201 40.3106C40.9394 40.4139 42.7495 40.199 42.8602 40.3106C42.9689 40.423 42.7491 42.2352 42.8602 42.3447C42.8602 42.3447 42.9768 58.7181 42.8644 58.6133C42.7499 58.5088 40.9309 58.7255 40.8222 58.6133C40.7141 58.4982 40.9346 56.684 40.8222 56.5792C40.7088 56.4744 38.8887 56.6916 38.78 56.5792C38.6717 56.4654 38.8924 54.648 38.78 54.543C38.6581 54.4403 36.8484 54.6552 36.7399 54.543C36.6316 54.43 36.8519 52.6155 36.7399 52.5091C36.6275 52.4041 34.807 52.6213 34.6979 52.5091C34.5892 52.3967 34.8095 50.5826 34.6979 50.475C34.5855 50.37 32.7661 50.587 32.6557 50.475C32.5473 50.3626 32.7671 48.5496 32.6557 48.4409C32.5433 48.3361 30.7251 48.5527 30.6136 48.4409C30.5051 48.3287 30.7247 46.5167 30.6136 46.4067C30.5014 46.302 28.684 46.5183 28.5714 46.4067C28.4627 46.2943 28.6838 44.4755 28.5714 44.3708C28.4553 44.2666 26.6379 44.483 26.5292 44.3708C26.4218 44.2534 26.6414 42.4414 26.5292 42.3366C26.4141 42.2323 24.5957 42.4491 24.487 42.3366C24.3794 42.2205 24.5994 40.4073 24.487 40.3025C24.373 40.198 22.5535 40.4149 22.4451 40.3025C22.337 40.1876 22.5573 38.3733 22.4451 38.2685C22.3508 38.175 20.7812 38.3359 20.4028 38.2685V22H24.4831V24.0341Z" fill="black"/>
<path d="M69.3742 46.4022C69.4792 46.5072 69.2655 48.3318 69.3742 48.4367C69.4829 48.5415 71.3075 48.328 71.4162 48.4367C71.5249 48.5452 71.3038 50.3663 71.4162 50.4711C71.5286 50.576 73.3495 50.3586 73.4582 50.4711C73.5669 50.5835 73.3458 52.4006 73.4582 52.5056C73.5706 52.6106 75.3915 52.3932 75.5001 52.5056C75.6088 52.618 75.3877 54.4352 75.5001 54.5401C75.6126 54.6449 77.4334 54.4277 77.5421 54.5401C77.6508 54.6525 77.4297 56.4697 77.5421 56.5745C77.6545 56.6794 79.4754 56.462 79.5841 56.5745C79.6928 56.6869 79.4717 58.504 79.5841 58.609C79.6965 58.714 81.5174 58.4966 81.6261 58.609C81.7345 58.7214 81.5137 60.5386 81.6261 60.6435C81.7385 60.7483 83.5593 60.5311 83.668 60.6435C83.7765 60.7559 83.5556 62.5731 83.668 62.6779C83.7804 62.7828 85.6013 62.5654 85.71 62.6779C85.8185 62.7903 85.5976 64.6074 85.71 64.7124C85.8224 64.8174 87.6433 64.6 87.752 64.7124C87.8605 64.8248 87.6396 66.642 87.752 66.7469C87.8644 66.8519 89.6853 66.6345 89.794 66.7469C89.9024 66.8593 89.6815 68.6765 89.794 68.7815C89.9064 68.8862 91.7272 68.6728 91.8359 68.7815C91.9258 68.8713 91.7721 70.4412 91.8359 70.8158H97.9579C98.0218 71.1904 97.868 72.7604 97.9579 72.8503C98.0478 72.9402 99.6216 72.7867 99.9999 72.8503V76.9155C99.6216 76.9793 98.0478 76.8256 97.9579 76.9155C97.868 77.0054 98.0218 78.5754 97.9579 78.95H67.3511C67.2872 78.5754 67.4409 77.0054 67.3511 76.9155C67.261 76.8256 65.6874 76.9793 65.3091 76.9155V46.4134C65.9085 46.5183 69.2467 46.271 69.3891 46.4134L69.3742 46.4022ZM77.5345 64.705C77.3884 64.5626 74.0539 64.8099 73.4545 64.705C73.3906 65.0796 73.5443 66.6494 73.4545 66.7395C73.3644 66.8294 71.7908 66.6756 71.4125 66.7395V70.8046C71.7908 70.8683 73.3644 70.7147 73.4545 70.8046C73.5443 70.8945 73.3906 72.4643 73.4545 72.8392H77.5345C77.5983 72.4643 77.4446 70.8945 77.5345 70.8046C77.6246 70.7147 79.1981 70.8683 79.5764 70.8046V66.7395C79.1981 66.6756 77.6246 66.8294 77.5345 66.7395C77.4297 66.6345 77.6432 64.8099 77.5345 64.705Z" fill="black"/>
</svg>
