<svg width="100" height="100" viewBox="0 0 100 100" fill="none" xmlns="http://www.w3.org/2000/svg">
<g clip-path="url(#clip0_1085_3537)">
<path d="M15.1123 47.2196C14.9779 47.4579 14.8435 47.6595 14.7092 47.8978L14.5076 47.7938C14.3709 48.5689 13.8982 49.247 13.4271 49.3806C13.5615 49.4478 13.6959 49.5149 13.7998 49.4813C13.8974 49.4478 13.9646 49.2767 14.0342 49.1767L14.9443 47.861L15.249 47.3509L15.1154 47.2165L15.1123 47.2196ZM3.87791 62.0517C4.04978 62.0517 4.21697 62.0853 4.41853 62.0853C4.41853 61.9509 4.58963 61.9813 4.58963 61.8501H4.69041C4.69041 62.0181 4.724 62.1524 4.724 62.3228H4.01541C3.98181 62.2892 3.84744 62.0853 3.88103 62.0517H3.87791ZM3.60994 60.4978C3.50916 60.3946 3.34119 60.297 3.34119 60.1931C3.30759 60.0618 3.40838 59.8939 3.50916 59.7228C3.57634 59.961 3.61072 60.1626 3.67713 60.4009C3.64353 60.4314 3.60994 60.4649 3.60994 60.4978ZM4.45525 58.3345C4.58963 58.6759 4.724 59.0485 4.85838 59.3876C4.82478 59.3876 4.62322 59.4884 4.58963 59.5212C4.45525 59.1829 4.28728 58.8103 4.14978 58.4743C4.18338 58.4415 4.38806 58.3376 4.45525 58.3376V58.3345ZM79.556 90.6345C79.724 90.5704 79.9256 90.5329 80.1967 90.4696C79.892 90.704 79.6568 90.872 79.4553 91.0735C79.4185 91.0431 79.3849 91.0063 79.3513 91.0063C79.4185 90.872 79.4857 90.772 79.556 90.6345ZM38.0888 19.2501C38.2873 19.1126 38.4584 19.0118 38.6592 18.8774L38.7263 18.9446C38.5224 19.2134 38.3545 19.4821 38.1193 19.8204C38.0857 19.5884 38.0857 19.4509 38.049 19.2837C38.0154 19.2837 38.049 19.2837 38.0857 19.2501H38.0888ZM47.9732 36.3439C48.2756 36.2064 48.581 36.0751 48.9498 35.904C48.9162 36.1056 48.9162 36.2431 48.9162 36.3767C48.807 36.339 48.6932 36.3167 48.5779 36.3103C48.3763 36.3439 48.0037 36.6118 47.8357 36.6462C47.8029 36.6462 47.9701 36.3774 47.9701 36.3439H47.9732ZM73.2779 64.9899C73.3459 65.329 73.9865 65.497 73.3459 65.836C73.4498 65.9063 73.5474 65.936 73.6482 66.0063C73.6407 66.0581 73.6172 66.1062 73.581 66.1439C73.5138 66.1751 73.3795 66.2415 73.3123 66.2079C73.2787 66.2079 73.2107 66.0735 73.2107 66.0063C73.2107 65.7017 73.2451 65.3993 73.2787 64.9931L73.2779 64.9899ZM73.2779 58.2337C73.3123 58.2337 73.3459 58.2673 73.3459 58.2673L73.3123 58.2306C73.3123 58.197 73.3123 58.197 73.2787 58.2306L73.2779 58.2337ZM78.6099 91.6142C78.2381 91.8821 77.8654 92.1204 77.3928 92.2212C77.3592 92.1876 77.3592 92.154 77.3256 92.1173C77.6974 91.8829 78.1006 91.6478 78.4724 91.4095C78.506 91.4735 78.574 91.5439 78.6068 91.611L78.6099 91.6142ZM15.3498 45.8345C15.7224 45.3642 16.0951 44.8915 16.4982 44.4181C16.5279 44.4517 16.7967 44.5196 16.8334 44.5524C16.4607 45.0259 15.9545 45.6665 15.5818 46.1735C15.5146 46.1064 15.4138 45.8712 15.3474 45.8345H15.3498ZM5.76775 62.3899C5.499 61.8165 5.22713 61.2095 4.95916 60.6353C4.99275 60.6017 5.22713 60.4985 5.26072 60.4985C5.63338 61.0376 5.80134 61.679 6.07322 62.2564C6.07322 62.2564 5.80447 62.3899 5.76775 62.3899ZM14.3709 46.1735C14.1693 46.4782 13.9678 46.8173 13.7631 47.122C13.7295 47.086 13.3607 47.2564 13.3271 47.2235C13.5279 46.9181 14.0349 46.3774 14.2365 46.0728C14.2701 46.1063 14.3037 46.1431 14.3709 46.1759V46.1735ZM74.9998 92.9993C75.0334 92.9993 75.0334 92.9688 75.067 92.9688C75.3013 93.0001 75.5701 93.0329 75.842 93.0329C75.4029 93.3376 75.131 93.3048 74.9967 92.9993H74.9998ZM14.4349 47.5923C14.4709 47.4915 14.5381 47.3907 14.6052 47.2899C14.6724 47.2899 14.7732 47.2532 14.7732 47.2532C14.9107 47.0189 14.9107 46.8509 15.0451 46.6462C15.0115 46.6126 14.9779 46.6126 14.9412 46.579C14.7396 46.7165 14.5381 46.8876 14.3373 47.0212C14.4037 47.0884 14.4037 47.1228 14.4037 47.1892C14.1357 47.1556 14.0318 47.2931 13.8974 47.6626C13.8638 47.7665 13.6959 47.797 13.5248 47.9314C13.492 48.0017 13.4584 48.1689 13.3912 48.3376L13.4248 48.3735C13.3756 48.4181 13.3186 48.4533 13.2568 48.4774C13.0552 48.679 12.817 48.8493 12.6162 49.0478C12.5818 49.1517 12.5482 49.2524 12.5482 49.3524C12.7865 49.1181 13.1888 48.679 13.4943 48.4071L13.5279 48.4407C13.6623 48.2392 13.7631 48.0376 13.9006 47.8337C13.931 47.8673 13.931 47.9009 13.9677 47.9368C13.8638 48.2056 13.7631 48.5071 13.6631 48.779C13.5927 48.8126 13.4912 48.8806 13.4912 48.8462C13.3576 48.9501 13.2568 49.0814 13.1193 49.1853L12.5123 49.5884C12.1763 49.8931 11.8373 50.1618 11.4685 50.4673C11.2303 50.8392 10.9951 51.1751 10.724 51.6173C11.1303 51.5142 11.2303 51.6845 11.1967 52.0235C11.6693 52.0907 11.7029 51.7188 11.8373 51.447C11.8709 51.3798 11.9076 51.2423 11.9717 51.2087C12.2763 50.9399 12.6154 50.7048 12.9513 50.4337C13.0185 50.3665 13.0185 50.229 13.0185 50.129C13.0185 50.0946 12.8474 50.0946 12.7467 50.061C13.0521 49.7228 13.492 49.1517 13.7935 48.7798C13.9615 48.6759 14.1295 48.5415 14.1295 48.4407C14.0982 48.0681 14.3342 47.9673 14.606 47.8306C14.4685 47.729 14.4342 47.629 14.4342 47.5985L14.4349 47.5923ZM99.7279 43.4728C99.6607 42.154 99.6271 40.836 99.4935 39.5173C99.2552 37.729 99.0201 35.904 98.6146 34.1462C98.3123 32.6931 97.8084 31.3079 97.299 29.9228C96.6584 28.3024 96.0177 26.6478 95.2084 25.0915C93.8935 22.5923 92.1717 20.3618 90.5849 18.0329C89.5381 16.5439 88.1896 15.3298 87.1763 13.8095C86.6029 12.9306 85.7599 12.1892 84.9146 11.5142C83.5662 10.4314 82.1498 9.44854 80.731 8.50557C79.6537 7.76104 78.5732 7.05244 77.4263 6.40869C76.5138 5.90244 75.5373 5.49619 74.5904 5.05713C73.5107 4.5501 72.467 3.93994 71.2521 3.70557C70.9474 3.64073 70.6787 3.53682 70.3732 3.43604C69.5982 3.16494 68.8568 2.8626 68.0787 2.62432C66.8974 2.25244 65.7529 1.81573 64.5349 1.51104C63.3607 1.20557 62.1427 1.00401 60.9279 0.832913C59.5795 0.634476 58.1967 0.564945 56.8451 0.433695C55.9685 0.329788 55.0935 0.229007 54.2474 0.195413C52.9662 0.131351 51.6506 0.131351 50.3693 0.0977571C49.7287 0.0610384 49.0537 -0.00614912 48.4131 0.0274446C47.4304 0.0680661 46.4505 0.158809 45.4771 0.29932C44.5342 0.400101 43.5881 0.56807 42.6787 0.70557C41.5678 0.839163 40.4537 0.906351 39.3396 1.04385C38.2928 1.17823 37.2131 1.38291 36.1693 1.5501C35.7967 1.61729 35.4248 1.75166 35.0552 1.81885C34.2467 1.98994 33.4013 2.05713 32.5928 2.32823C31.1367 2.77471 29.6963 3.27057 28.274 3.81494C26.9592 4.35479 25.6771 4.92901 24.4295 5.60635C23.1474 6.31416 21.9295 7.15635 20.7185 7.97119C19.5519 8.7509 18.4137 9.57226 17.306 10.4337C16.2287 11.2821 15.2162 12.2251 14.2357 13.1712C13.699 13.7118 13.2592 14.3556 12.7529 14.9626C11.9107 15.9423 11.0654 16.8884 10.2568 17.9017C9.58494 18.747 8.97556 19.6259 8.33416 20.5048C7.18963 22.0548 6.20994 23.7126 5.30056 25.3696C4.92869 26.0439 4.59275 26.7212 4.25369 27.3954C3.74744 28.4056 3.20681 29.3884 2.73728 30.4353C2.39822 31.1462 2.12713 31.9212 1.92478 32.6993C1.45032 34.3619 0.989625 36.0283 0.54275 37.6985C0.1365 39.1876 0.0365003 40.7407 0.00603158 42.261C-0.0306872 43.6126 0.106813 44.9314 0.240407 46.2798C0.274782 46.6189 0.0732191 47.0243 0.475563 47.2931C0.341969 47.6657 0.441969 47.8696 0.643532 47.9337C0.409157 48.3064 0.745094 48.5446 0.613063 48.8829C0.576344 48.9501 0.714625 49.0845 0.777907 49.1853C0.777907 49.2892 0.747438 49.4235 0.777907 49.5243C0.814625 49.829 0.949 50.1314 0.949 50.4696C0.949 50.7079 1.15056 50.9767 1.21775 51.2149C1.25134 51.3157 1.21775 51.4829 1.15056 51.5532C0.949 51.7884 0.982594 51.9899 1.28494 52.1274C1.45525 52.5634 1.38806 52.7681 1.35525 52.9728C1.42166 53.2743 1.31775 53.3751 1.35525 53.4454C1.62322 53.986 1.72713 54.5931 1.75759 55.2001C1.75759 55.3376 1.82478 55.472 1.89509 55.6399C1.92869 55.6399 1.89509 56.2806 1.89509 56.2806C2.05916 56.1829 2.19666 56.1493 2.36463 56.079C2.46853 56.5188 2.56931 56.9274 2.70369 57.297C2.87166 57.5681 2.87166 57.6993 2.80447 57.7329C2.93884 58.3407 3.00603 58.9173 3.24041 59.4907C3.24041 58.8501 3.17634 58.2095 3.07634 57.5993C3.54588 57.7696 3.95134 57.9376 4.22322 57.9376C4.25681 57.8337 4.29041 57.6993 4.32478 57.6329C4.12244 57.4313 3.95213 57.129 3.75056 56.9243C3.81775 57.1931 3.75056 57.297 3.75056 57.4009C3.61619 57.3306 3.44588 57.2634 3.27713 57.1931C3.4115 57.029 3.549 56.8571 3.75056 56.6563C3.75056 56.3509 3.58259 56.079 3.10994 56.1126C3.31072 56.0454 3.51541 55.9485 3.75056 55.8782C4.12244 55.6767 3.71697 55.304 3.71697 54.8313C3.75056 54.2571 3.41228 53.6829 3.31072 53.0767C3.14275 52.1306 3.17634 50.711 3.07634 49.7649C2.87478 49.5939 2.70369 50.0337 2.67009 50.0673C2.7792 50.8757 2.86881 51.6866 2.93884 52.4993C2.73728 51.8251 2.60291 51.0806 2.43494 50.2689C2.40134 50.5064 2.36775 50.6071 2.36775 50.7454C2.19978 50.9095 2.33416 51.1173 2.43494 51.3517C2.20056 51.2485 1.92869 51.2853 1.92869 51.2853V52.2306C1.59275 51.8923 1.49197 51.6235 1.32088 51.3853C1.25369 51.1173 1.22009 50.8454 1.15681 50.5767C1.22009 50.4063 1.15681 50.3056 1.15681 50.2048C1.12035 49.9673 1.08572 49.6965 1.05291 49.3923C1.0865 49.3595 1.01931 48.8556 1.01931 48.8556C1.28728 48.8868 1.45838 48.9196 1.62634 48.9196C1.29041 48.4837 1.52556 48.2118 1.66306 47.9399C1.73025 47.8056 1.96541 47.772 2.03259 47.6353C2.30369 47.1282 2.74353 46.7259 2.74353 46.0814C2.74353 45.7767 2.84431 45.4407 2.87791 45.136C2.94509 44.5618 3.0115 43.9853 3.04197 43.411C3.11228 42.6696 3.04197 41.9251 3.21384 41.2173C3.49437 40.0228 3.82091 38.8397 4.19275 37.6704C4.46721 36.826 4.77156 35.9916 5.10525 35.1688C5.60916 33.8532 6.08494 32.5353 6.72556 31.286C7.63494 29.4587 8.68181 27.704 9.69509 25.9126C10.3357 24.7985 11.0107 23.7517 11.7185 22.6689C12.3928 21.622 13.0646 20.5415 13.8427 19.5618C14.9256 18.1767 16.1037 16.8915 17.4193 15.7439C18.7709 14.5267 20.0529 13.2782 21.5021 12.161C23.3877 10.7048 25.3963 9.41532 27.5053 8.30713C29.2263 7.39776 31.0146 6.68682 32.8029 6.00869C33.9506 5.57276 35.199 5.36807 36.3795 4.99619C37.7287 4.55635 39.0779 4.35557 40.4935 4.32119C41.406 4.2876 42.2849 4.18369 43.1943 4.08369C44.0278 4.0216 44.86 3.9432 45.6904 3.84854C45.5896 3.98291 45.556 4.05244 45.5232 4.11963C45.1537 4.66026 44.7474 5.2001 44.3748 5.74073C44.0732 6.17979 43.7342 6.65323 43.4326 7.09229C42.8888 7.80323 42.3154 8.51182 41.8123 9.25635C41.0334 10.3696 40.3256 11.5204 39.517 12.6345C38.7084 13.7149 37.8295 14.7282 36.9873 15.7751C35.8732 17.2306 34.8263 18.7134 33.7154 20.1657C32.7021 21.5517 31.6248 22.8728 30.6451 24.2587C29.767 25.4696 28.9912 26.7579 28.1459 28.0032C26.9013 29.8649 25.6529 31.6868 24.4045 33.5446C23.4251 34.9599 22.4355 36.368 21.4357 37.7689C21.3685 37.8728 21.2638 37.9032 21.167 37.9704C20.8951 38.4095 20.8951 38.6446 20.7943 38.8493C20.5256 39.3556 20.2545 39.8618 19.949 40.3353C19.781 40.604 19.5467 40.8415 19.342 41.1103C19.3084 40.704 19.8818 40.5032 19.6107 39.9962C19.4459 40.2681 19.2748 40.5032 19.1068 40.7743L18.7006 41.5806C18.8349 41.6837 19.0732 41.7509 18.8349 41.9524C18.7342 42.1235 18.6342 42.3251 18.5334 42.4962C18.7013 42.3923 18.8013 42.2946 18.9052 42.1571C18.9052 42.5298 18.7006 42.8314 18.5334 43.1368C18.399 43.4056 18.0599 43.6095 17.8248 43.811C17.8584 43.8446 18.0935 43.9454 18.1271 43.979C18.4318 43.8782 18.5334 43.7103 18.567 43.811C18.6701 43.6767 18.7709 43.5767 18.8045 43.4728C18.9357 43.1368 19.1404 42.8649 19.4763 42.7306C19.6131 42.6634 19.7138 42.5603 19.8146 42.4626C20.8279 41.4126 21.8717 40.3993 22.7842 39.2853C24.2006 37.561 25.4849 35.7696 26.8342 34.0149C27.4076 33.2704 28.0818 32.529 28.6896 31.8181C28.7904 32.5931 28.7232 33.3376 28.6896 34.0485C28.5857 35.297 28.5178 36.5485 28.4209 37.8298C28.3842 38.336 28.4209 38.8431 28.3842 39.3493C28.3842 39.4868 28.2834 39.5876 28.2834 39.722C28.2834 40.0603 28.3842 40.4329 28.3842 40.7688C28.2834 42.0196 28.1459 43.2345 28.0451 44.4853C28.0115 44.754 28.1467 45.0259 28.2099 45.2634C28.0459 47.086 28.4178 49.0142 28.1123 50.9399C28.3474 50.5681 28.4146 50.3329 28.4146 50.0946C28.4482 49.8931 28.4146 49.6915 28.4146 49.454V49.1149C28.4482 48.5079 28.5826 47.8673 28.5154 47.2564C28.4482 46.5821 28.4482 45.9415 28.5826 45.297C28.6529 45.029 28.549 44.6899 28.7201 44.3517V44.8579C28.6865 46.7798 28.7537 48.7095 28.4849 50.6353C28.4513 50.8024 28.5888 51.1079 28.2162 51.0743C27.9115 51.6814 28.2834 52.1212 27.9474 52.4595C27.8771 52.5267 28.0115 52.829 28.0451 53.0337C27.9084 53.4399 27.9084 53.4399 28.1123 53.4728C28.1459 54.2149 28.2138 54.8892 28.2467 55.6001C28.7842 54.3189 28.5154 52.997 28.7537 51.6814C28.7873 52.222 28.8209 52.7618 28.7873 53.3329C28.7873 54.2149 28.7537 55.0595 28.7201 55.936C28.7201 56.1063 28.6865 56.2743 28.6529 56.4454C28.549 56.9181 28.5185 57.3907 28.3482 57.8282C28.2131 58.1665 28.2834 58.6759 28.2834 59.079V60.3642C28.4178 60.9407 28.2467 61.2431 28.3474 61.5813C28.2467 61.9204 28.2131 62.0212 28.2467 62.122L28.3482 62.6282C29.0248 62.561 28.7201 63.0681 28.9888 63.3392C28.7873 63.611 28.8545 63.7087 28.8545 63.8462C28.8545 64.1509 28.8232 64.4228 28.7904 64.7251C28.7904 65.5032 28.7568 66.2782 28.7568 67.0228C28.7568 67.1267 28.7904 67.2243 28.7904 67.3251C28.7904 67.3954 28.7568 68.2743 28.7568 68.2743C28.824 68.3751 28.7568 68.4751 28.6529 68.5759C28.6193 68.5759 28.5185 64.2853 28.5185 64.2853H28.0115C27.9474 66.3118 28.1154 68.1368 27.7435 70.029C27.3373 70.0626 27.206 70.1298 26.7638 70.1298C25.717 70.1298 24.6732 70.1298 23.6263 70.1634C22.3787 70.1634 21.1638 70.197 19.9154 70.197C19.3084 70.197 18.6677 70.2634 18.0599 70.2634C17.2513 70.2634 16.406 70.1634 15.6006 70.1634C14.349 70.1634 13.1342 70.2642 11.8865 70.297C10.9771 70.3306 10.0646 70.3306 9.15525 70.3673C8.54744 70.3985 7.93728 70.4314 7.33338 70.4985C7.0615 70.5321 6.82634 70.6329 6.48806 70.7368C6.3865 70.7368 6.15213 70.7032 5.95056 70.7368C5.60916 70.804 5.30994 71.0056 4.96775 71.0728C4.46463 71.1759 4.32713 71.3103 4.39431 71.8173V72.1556C4.36072 72.2196 5.13884 72.0524 5.13884 72.0524C5.06853 72.0524 5.03494 72.2532 4.93416 72.4243C5.20603 72.3204 5.374 72.2532 5.54197 72.186C6.04822 72.4243 6.48728 72.2899 6.89041 72.3939C8.20603 72.7298 9.55447 72.8673 10.9037 72.9978C11.7826 73.0681 12.6248 73.1017 13.5037 73.1353C14.749 73.2024 15.9998 73.2696 17.2459 73.2696C18.2927 73.2696 19.3053 73.1657 20.349 73.1657C21.7982 73.1657 23.2513 73.2329 24.7006 73.2696C25.0053 73.2696 25.3412 73.2329 25.6803 73.2329H28.1404C30.3373 73.1657 32.5287 73.1321 34.7224 73.0688C35.9709 73.0313 37.2529 72.9649 38.5006 72.9314L42.349 72.8274C43.8318 72.7939 45.3154 72.7939 46.7677 72.7634C47.8818 72.7634 48.9592 72.7267 50.0763 72.6931C51.3209 72.6595 52.6029 72.5587 53.8545 72.4915C54.5287 72.4579 55.2029 72.3876 55.8779 72.3235C56.6888 72.2563 57.5318 72.1556 58.3404 72.122C59.5545 72.0517 60.8029 72.0189 62.0201 71.9517C63.5373 71.8501 65.0545 71.7165 66.6076 71.6829C68.0232 71.6157 69.4732 71.6493 70.892 71.6157C72.1404 71.579 73.3881 71.5118 74.6732 71.4782L76.8006 71.3774C76.8006 71.3774 78.2162 71.3439 78.924 71.2735C80.1388 71.2071 81.3537 71.0728 82.5685 71.0392C83.3435 71.0056 84.1185 71.0392 84.8935 71.0056C86.142 70.972 87.4232 70.9017 88.6748 70.9017C89.1443 70.9017 89.6513 70.972 90.2584 71.0056C89.9896 71.2399 89.8193 71.3774 89.6177 71.5454C89.7521 71.579 89.8865 71.6493 90.0209 71.7134C89.8646 71.826 89.676 71.885 89.4834 71.8814C89.4131 72.0524 89.3459 72.1196 89.2787 72.4579H89.8865C89.6513 72.4579 89.4467 72.7626 89.2115 72.9649C88.9435 72.8946 88.7053 72.965 88.5709 73.3368C88.8053 73.4712 88.7724 73.5712 88.7388 73.7095C88.3357 73.8407 88.031 73.9774 88.2013 74.4173C88.0646 74.4813 87.8967 74.5517 87.7256 74.6517C87.5615 74.9204 87.2552 74.9876 87.3224 75.3603C87.4568 75.3939 87.5912 75.4642 87.6951 75.4946C87.524 75.5618 87.356 75.6626 87.1888 75.729C86.581 76.1017 86.8529 76.2728 86.9873 76.4399C86.8834 76.5079 86.7826 76.5751 86.6826 76.6087C86.749 76.9134 86.8498 76.9806 86.8834 76.9806C86.748 77.0827 86.5792 77.2181 86.3771 77.3868C86.2756 77.6915 86.1388 77.8259 86.0045 78.0274C85.8701 78.229 85.8029 78.5001 85.6318 78.7017C84.9271 79.4798 84.4209 80.3954 83.5084 81.0032C83.1693 81.2376 82.8677 81.5431 82.5654 81.8485C81.9576 82.422 81.417 83.0626 80.7763 83.6064C79.9342 84.3142 79.0584 84.9548 78.1459 85.5954C77.0326 86.3743 75.9217 87.1524 74.8076 87.8939C74.2006 88.3001 73.5263 88.6017 72.8849 88.9743C72.2412 89.3462 71.6334 89.6853 70.9928 90.0548C70.5896 90.3228 70.2178 90.6954 69.7779 90.9001C68.6646 91.3759 67.4834 91.779 66.3357 92.2181C65.2217 92.6946 64.4138 93.097 63.5709 93.4024C62.7868 93.6665 61.9868 93.8805 61.1756 94.0431C60.9068 94.1103 60.6013 94.0431 60.2967 94.0767C59.7224 94.1806 59.1482 94.3149 58.5756 94.3813C57.092 94.5829 55.606 94.7204 54.1224 94.922C53.2435 95.0259 52.4013 95.1907 51.5256 95.2946C50.9185 95.3282 50.2771 95.261 49.6701 95.261C49.231 95.261 48.7576 95.3642 48.3185 95.2946C47.6099 95.1931 46.9021 95.0259 46.1935 94.8915C46.0263 94.8579 45.7881 94.7876 45.6545 94.8579C45.3857 94.9923 45.1474 94.7907 44.8756 94.8579C44.7115 94.8915 44.5396 94.754 44.3724 94.754C44.2349 94.7235 44.0678 94.7907 43.8959 94.754C43.5271 94.6532 43.1912 94.5196 42.7826 94.5524C42.3795 94.586 41.974 94.3845 41.5373 94.2845C40.9303 94.147 40.3592 94.0157 39.7482 93.8782C39.5138 93.811 39.3123 93.7071 39.0748 93.5735C38.199 93.5735 37.6217 93.5392 37.0849 93.3384C36.6115 93.1704 36.1724 92.9321 35.6654 92.9993C35.5342 93.0329 35.431 92.9688 35.2967 92.9688C35.1928 92.8314 35.0951 92.5603 34.9943 92.5603C34.3201 92.5962 33.9138 92.0228 33.3404 91.8517C33.0381 91.7485 32.7998 91.4126 32.4982 91.3118C31.7537 91.0071 31.149 90.3657 30.3068 90.2649C30.0349 90.2314 29.767 90.0938 29.4615 89.9962C29.5654 90.1274 29.6295 90.2314 29.7303 90.3321C28.7537 89.8556 27.8412 89.3189 26.9318 88.8126C26.7974 88.779 26.6967 88.6446 26.5959 88.5743L25.6834 87.9673C25.1795 88.0704 24.9756 87.8657 24.8381 87.7993C23.9287 87.1587 22.8849 86.7493 22.006 86.0415C21.6334 85.7368 21.1974 85.5345 20.9287 85.1626C20.4521 84.5884 19.8818 84.1829 19.2412 83.8438C18.7342 83.5759 18.2615 83.2704 17.7912 82.9688C17.5537 82.797 17.3154 82.5962 17.3154 82.2235C17.3154 81.9853 17.2178 81.7509 16.9123 81.8853C16.7787 81.6837 16.6443 81.4454 16.4732 81.3782C16.0701 81.2142 15.799 80.9056 15.4967 80.636C15.192 80.3649 14.9568 79.9931 14.5873 79.8587C13.9099 79.5899 13.5037 79.0165 13.1013 78.5431C12.1553 77.4259 11.3123 76.2087 10.4334 75.0306C10.367 74.9267 10.2326 74.8595 10.1318 74.7587C10.2662 75.1314 10.4334 75.4337 10.6013 75.772C10.2654 75.6376 10.031 75.4001 9.82947 75.1649C9.79275 75.1985 12.1553 79.0837 12.1553 79.0837C12.3592 79.3853 12.5271 79.6907 12.7287 79.9962C12.5255 80.0146 12.3213 79.9733 12.1413 79.8772C11.9613 79.7812 11.8132 79.6346 11.7154 79.4556C11.4131 78.9157 11.0748 78.5767 10.3998 78.647C10.33 78.4024 10.2752 78.1537 10.2357 77.9024C10.0982 77.9024 9.99744 77.9024 9.75916 77.8689C10.2115 78.57 10.6511 79.2792 11.0779 79.9962C10.906 79.8946 10.8092 79.8282 10.7357 79.7946C11.3435 80.4353 11.7826 81.2478 12.5576 81.6532C12.7256 82.4282 13.6045 82.8001 13.806 83.5446C13.6412 83.5087 13.5013 83.4743 13.3326 83.4415C13.0646 83.1056 12.7592 82.7665 12.4576 82.3946C12.524 82.6329 12.6217 82.8337 12.7592 83.0017C13.1654 83.5087 13.5373 84.0149 14.0076 84.4548C14.1779 84.6282 14.4138 84.6954 14.4138 85.0009C14.6818 85.1353 14.7857 85.1649 14.8865 85.1649C14.9537 85.3696 14.8529 85.6751 15.2552 85.6079C15.5271 86.1149 15.7959 86.1149 16.1677 85.947C16.6076 86.386 16.8427 86.4196 17.1474 86.1509C17.1474 86.3157 17.1787 86.4868 17.1787 86.6212C17.3154 86.554 17.2818 86.4532 17.2818 86.2853C17.4498 86.4196 17.5506 86.4868 17.6178 86.554C17.956 87.0274 18.2584 87.4665 18.7318 87.8392C19.3724 88.379 19.9459 88.9524 20.5506 89.4595C21.7342 90.4392 23.0529 91.2509 24.3654 91.9954C25.9857 92.9079 27.5388 93.8876 29.1896 94.7634C31.1795 95.8134 33.3068 96.5212 35.4982 97.0274C36.3099 97.1993 37.0842 97.3665 37.8967 97.5681C38.6013 97.772 39.3123 98.0774 40.0209 98.2454C41.1006 98.4798 42.2115 98.6845 43.292 98.886C43.5263 98.9196 43.7685 98.9532 44.0365 98.9876C44.3388 99.0571 44.7084 98.9196 44.7756 99.0235C44.9459 99.2923 45.0802 99.1548 45.2818 99.1212C45.5162 99.054 45.7881 99.054 46.0568 99.054C47.0029 99.0876 47.9123 99.2884 48.8584 99.2251C49.0631 99.2251 49.3646 99.054 49.5357 99.3892C49.8381 99.2556 50.006 99.2556 50.1404 99.2251C50.1771 99.5275 50.1404 99.5275 50.0763 99.561C50.0092 99.5939 49.9045 99.6274 49.7709 99.7282C50.9857 99.9634 52.1326 99.997 53.1427 99.7282C54.9006 99.8626 56.4177 99.661 57.8701 99.1548C58.0045 99.3228 58.1053 99.561 58.3068 99.222C58.374 99.1212 58.5451 99.0845 58.6787 99.0509C58.981 98.9837 59.3537 98.8493 59.6217 98.9501C59.9271 99.0517 60.031 98.7821 60.2623 98.7821C60.6482 98.7834 61.0335 98.7488 61.4131 98.679C61.6146 98.6478 61.8193 98.5446 62.0537 98.4774C61.8227 98.3627 61.5679 98.3041 61.3099 98.3064C61.7162 98.1048 62.0881 97.9337 62.4599 97.7696C62.3896 97.8696 62.3224 98.004 62.1888 98.004H62.6615C62.5576 98.004 62.4232 98.3064 62.2552 98.511C63.467 98.2064 64.581 97.9337 65.6615 97.6626C65.2888 96.9548 66.0646 97.1923 66.3357 96.7868C65.9998 96.8907 65.6615 96.9884 65.3224 97.0548C66.4701 96.4814 67.6506 95.9751 68.799 95.4712C68.631 95.6728 68.4263 95.7735 68.124 95.9446C68.3256 95.9751 68.4631 95.9751 68.5638 96.0087C69.1006 96.179 68.9701 95.6728 69.1373 95.3681C69.7779 95.3681 70.0467 95.2665 70.3482 95.1665C70.6873 95.0626 71.0232 94.9618 71.3623 94.8274C71.9021 94.5931 72.4092 94.2899 72.949 94.0189C73.0498 93.9853 73.2178 94.0189 73.3521 94.0189C73.724 93.7806 73.8584 93.579 73.9592 93.6126C74.4318 93.6798 74.7677 93.5087 74.9021 93.0728C75.1365 92.9048 75.3084 92.7681 75.4756 92.6665C76.2178 92.2603 76.9256 91.8548 77.667 91.4524C77.9388 91.4524 78.0732 91.4524 78.1404 91.4157C78.5679 91.2108 78.9853 90.9856 79.3912 90.7407C79.2752 90.6919 79.1622 90.636 79.0529 90.5735C79.3888 90.5032 79.4888 90.472 79.6935 90.4017C80.5021 89.4532 81.6154 88.8126 82.4584 88.0704C82.8302 88.0368 82.8303 87.9368 82.8303 87.8696C82.9646 87.6978 83.099 87.497 83.267 87.3595C84.0115 86.6853 84.817 86.1118 85.4951 85.4009C86.4715 84.4275 87.4052 83.4122 88.2935 82.3579C89.1021 81.4118 89.9138 80.4688 90.5881 79.4189C91.5342 77.9657 92.3428 76.4806 93.1849 74.9579C93.7927 73.8798 94.3334 72.797 94.9427 71.7157C95.0068 71.6157 95.1443 71.4814 95.2451 71.4814C96.1545 71.3774 97.067 71.3134 97.9459 71.2095C98.1474 71.1759 98.3826 71.0454 98.5865 70.9415C98.4834 70.7735 98.4162 70.5688 98.3185 70.4009C98.181 70.197 97.9795 70.029 97.842 69.8243C97.7076 69.6563 97.6076 69.4517 97.506 69.2509C97.4029 69.0829 97.3052 68.9485 97.2013 68.7775C96.9967 68.4056 96.7951 68.0329 96.6248 67.6298C96.5912 67.5267 96.5232 67.3618 96.5607 67.2579C97.1677 65.9423 97.4029 64.5235 97.9763 63.2048C98.5506 61.8532 98.7185 60.3337 98.9896 58.8806C99.224 57.4954 99.3592 56.1095 99.5271 54.7274C99.6302 53.7478 99.7646 52.8017 99.7951 51.822C100.003 50.2689 99.9326 48.8126 99.899 47.361C99.8654 46.0782 99.7951 44.7603 99.731 43.4751L99.7279 43.4728ZM15.0818 85.0587C14.8435 84.7899 14.642 84.4853 14.4068 84.2134L14.5084 84.1126C14.8771 84.5189 15.2498 84.9251 15.6185 85.3642C15.417 85.2603 15.1826 85.1923 15.0818 85.0587ZM15.6185 85.3642C15.7224 85.3314 15.8232 85.3306 15.9232 85.297C16.0279 85.4649 16.0951 85.6657 16.1927 85.8704C15.7224 85.8337 15.4873 85.6321 15.6224 85.3642H15.6185ZM50.7076 99.3165V99.2126C51.3482 99.1454 51.956 99.0782 52.5967 99.011V99.1126C51.956 99.2126 51.349 99.2767 50.7076 99.3134V99.3165ZM59.2107 98.4376C58.7404 98.5415 58.2342 98.6087 57.7615 98.6759C57.5935 98.7095 57.3888 98.8798 57.3217 98.5743C57.2545 98.6087 57.1873 98.6087 57.1201 98.6423C57.2881 99.1485 57.6943 98.7431 58.0295 98.9439C57.2881 99.0478 56.5834 99.1157 55.8724 99.2157V99.1485C56.0763 99.1149 56.3115 99.0814 56.5131 99.0446V98.9439C56.1771 98.9103 55.8388 98.8774 55.4998 98.8774C55.4021 98.8774 55.2654 99.0142 55.1638 99.0478C55.021 99.0891 54.8734 99.1116 54.7248 99.1149C54.1513 99.1485 53.5802 99.1485 53.0373 99.1821C53.0037 99.1821 52.9357 99.1485 52.9029 99.1485V99.0446C55.1607 98.7431 57.3888 98.4407 59.6506 98.1353C59.6842 98.2024 59.6842 98.2696 59.717 98.3368C59.5162 98.3368 59.381 98.4071 59.2107 98.4407V98.4376ZM59.717 98.1017C60.4959 97.9985 61.2037 97.9337 61.9451 97.8337C60.3951 98.2696 59.8881 98.3368 59.7201 98.1017H59.717ZM30.3318 29.8892C31.4099 28.4024 32.5232 26.9165 33.6037 25.397C33.9396 24.954 34.2107 24.4814 34.5467 24.0415C34.6506 23.9079 34.7842 23.8407 34.9529 23.7032L34.9185 23.6392C35.0529 23.4712 35.1873 23.3345 35.2576 23.1993C35.4287 22.9314 35.5295 22.6259 35.6638 22.3204C35.6967 22.2564 35.7974 22.1892 35.7974 22.1892C36.274 22.4243 36.274 21.9212 36.4381 21.7501C36.7411 21.4095 37.0344 21.0604 37.3177 20.7032C37.5185 20.4314 37.7201 20.197 37.8912 19.8907C37.9248 19.7876 37.824 19.6228 37.7873 19.4853H37.6865C37.7904 19.4181 37.8912 19.3181 37.9912 19.2509C38.0256 19.2509 38.0256 19.2509 38.0592 19.2173C38.2607 18.9118 38.4654 18.6064 38.6662 18.3384C39.0693 17.7978 39.5084 17.2579 39.9818 16.7845C39.9194 16.9447 39.8511 17.1027 39.7771 17.2579C39.8138 17.2579 39.8138 17.2915 39.8443 17.2915C40.2506 16.7509 40.6896 16.2446 41.0959 15.7017C41.0592 15.6704 41.0256 15.6345 40.992 15.6345C40.824 15.8048 40.6896 15.9728 40.5185 16.1439C40.4881 16.1071 40.4545 16.0735 40.4178 16.0735C40.7568 15.6345 41.0959 15.1985 41.431 14.6907C41.4982 14.7923 41.5654 14.9259 41.6998 15.1985C41.8373 14.8595 41.9717 14.6243 42.0724 14.386C41.9709 14.4899 41.8373 14.5907 41.7365 14.6907L41.6326 14.5907L42.2396 13.6782C42.8803 12.7657 43.5217 11.8189 44.1623 10.9071C44.4006 10.5712 44.7029 10.3001 44.9068 9.96104C45.5474 8.67979 46.5615 7.66338 47.3365 6.48213C47.5045 6.24776 47.7388 6.04229 47.9435 5.84151C48.1084 5.63682 48.2459 5.70401 48.3834 5.8751C49.2928 7.02198 50.2021 8.20323 51.1115 9.35401C51.7888 10.1993 52.4631 11.0079 53.1037 11.8868C53.8795 12.9704 54.624 14.0509 55.399 15.1306C56.2779 16.379 57.1537 17.6306 57.9959 18.9118C59.2779 20.8071 60.4927 22.6993 61.774 24.5884C62.7201 25.9735 63.6662 27.3259 64.5756 28.711H62.8513C61.2677 28.6774 59.6474 28.5431 58.0631 28.6103C55.9029 28.7142 53.7115 28.9493 51.5506 29.1196C48.8193 29.3548 46.0513 29.3884 43.3201 29.3884C42.3404 29.3884 41.3607 29.5259 40.3842 29.5931C39.2037 29.6603 38.056 29.7274 36.8748 29.761C35.4896 29.8282 34.1435 29.8618 32.7615 29.8985C31.9834 29.929 31.174 29.8985 30.3287 29.8985L30.3318 29.8892ZM69.0279 45.4282V45.7337C68.9943 45.7337 68.9615 45.7673 68.8943 45.7673C68.7599 45.2946 68.6256 44.7876 68.4545 44.3142C68.1185 43.3321 67.7467 42.3524 67.1396 41.4767C66.4615 40.5306 65.8576 39.5509 65.1802 38.5712C65.0123 38.3329 64.774 38.1321 64.5724 37.9306C63.8615 37.1524 63.1537 36.3407 62.2443 35.7665C60.9023 34.9268 59.4912 34.2028 58.0263 33.6024C57.6201 33.4353 57.2482 33.2306 56.8459 32.9954H57.6545L63.4224 32.8923C64.6701 32.861 65.8881 32.861 67.1334 32.7946C67.4381 32.7946 67.606 32.8946 67.774 33.1634C68.0787 33.6704 68.381 34.1767 68.7193 34.6868C68.7537 34.7501 68.8209 34.8509 68.8209 34.9548C68.8209 35.6993 68.8209 36.4751 68.8545 37.2196C68.8881 37.9946 68.9584 38.7392 68.9888 39.5173C68.9888 40.2923 68.9217 41.104 68.9552 41.9126C68.9888 43.0634 69.0224 44.2478 69.0224 45.4259L69.0279 45.4282ZM32.7248 34.1157C34.3115 34.0485 35.8279 33.9478 37.381 33.8774C38.5928 33.8103 39.8443 33.7767 41.056 33.7095C41.5623 33.6759 42.0357 33.6454 42.542 33.7095C42.0021 33.9813 41.4615 34.2532 40.9888 34.5884C40.381 34.9946 39.8107 35.5345 39.1998 35.9743C38.5928 36.4134 38.0529 36.954 37.5467 37.5274C36.906 38.3024 36.1974 38.9806 35.5201 39.722C35.0467 40.2649 34.5099 40.7689 34.1037 41.3454C33.5303 42.0876 33.0263 42.8954 32.4865 43.7407C32.6545 40.5298 32.8592 37.3564 32.7209 34.1126L32.7248 34.1157ZM54.7576 66.6173C53.6771 66.8853 52.5631 67.1907 51.449 67.3251C50.506 67.4626 49.5271 67.429 48.5474 67.429C47.6797 67.4296 46.8123 67.3949 45.9474 67.3251C44.9709 67.2235 43.9912 67.1235 43.0451 66.6845C42.2365 66.3118 41.3935 65.9759 40.5849 65.5704C39.7732 65.1642 38.9615 64.6915 38.3545 63.947C37.9178 63.4063 37.3107 62.9673 36.7701 62.4939C36.8717 62.9001 37.106 63.2384 37.4787 63.4735C37.3107 63.6751 37.0724 63.5774 36.7342 63.0345C36.6365 63.1017 36.5326 63.1376 36.4654 63.1681C36.5693 62.9337 36.667 62.6954 36.7701 62.4939C36.6365 62.2251 36.4654 61.9204 36.331 61.6485C36.0606 61.2051 35.8022 60.7544 35.556 60.297C35.4888 60.1954 35.4888 60.0954 35.4217 59.9946C35.2517 59.8002 35.0926 59.5965 34.9451 59.3845C34.6771 58.9814 34.442 58.5423 34.1029 58.136C34.1029 58.2399 34.1396 58.3407 34.1396 58.4751C34.1029 58.4751 34.0693 58.5087 34.0693 58.5087L33.3615 56.7845C33.3279 56.7845 33.3279 56.7845 33.2943 56.8181L33.899 59.0485C33.8678 59.0485 33.8349 59.0821 33.7974 59.0821C33.7006 58.9478 33.5967 58.8134 33.5295 58.6454C33.4623 58.3743 33.2576 58.3743 33.0928 58.4751C32.9896 58.5423 32.9224 58.7798 32.956 58.8813C33.1935 59.4548 33.4623 60.0282 33.7342 60.6017C33.8013 60.8064 33.8685 60.9743 33.9685 61.179C34.0052 61.2462 34.106 61.3126 34.106 61.4134C34.2404 61.6821 34.3412 61.9509 34.5092 62.1915C34.8138 62.5946 35.1498 63.0009 35.4545 63.4064C35.7576 63.8126 36.0256 64.2517 36.2974 64.6548C36.331 64.7251 36.4318 64.7251 36.4615 64.7587C36.6334 65.2649 37.2068 65.6337 37.6131 65.4329C37.7131 66.211 38.556 66.4798 38.8943 67.2243C38.4881 67.0532 38.1865 66.9196 37.9146 66.7845C37.881 66.8181 37.881 66.8517 37.8474 66.9189C38.2506 67.1204 38.656 67.3251 39.0256 67.5595C39.3646 67.7642 39.7029 67.9657 40.0053 68.2001C40.4115 68.5728 40.8842 68.7782 41.4545 68.9118C41.424 68.8079 41.3904 68.7743 41.3904 68.7743C42.3342 69.2142 43.3131 69.6868 44.0545 70.0556C40.5451 70.1259 36.8006 70.1938 32.9217 70.261C32.9217 69.6204 32.8888 69.0095 32.8888 68.3689C32.8888 68.1001 32.9529 67.8618 32.9193 67.5907C32.8154 66.0399 32.8154 64.4837 32.617 62.9642C32.4154 61.3439 32.4154 59.7532 32.449 58.1298C32.4803 57.2548 32.4154 56.3415 32.3787 55.4626C32.3787 54.2813 32.3787 53.1314 32.4154 51.9501C32.4154 51.7821 32.4826 51.6478 32.5529 51.4774H32.6537C32.6873 51.5446 32.6537 51.6478 32.7178 51.6814C32.8217 51.7853 32.9896 51.9501 33.0568 51.9165C33.2576 51.7821 33.5631 51.6478 33.6303 51.4439C33.7903 51.0472 33.8712 50.6231 33.8685 50.1954C33.8685 49.8907 34.0021 49.6892 34.1365 49.4845C34.2037 49.3829 34.2381 49.2829 34.3084 49.1485C34.1732 49.0446 34.0357 48.9774 33.8685 48.8439C34.0053 48.4712 33.9717 48.0313 34.4779 47.8306C34.5428 47.797 34.5428 47.6259 34.5795 47.5251C34.6131 47.2532 34.6435 46.9485 34.6803 46.6798C34.7474 46.7837 34.7834 46.8142 34.8474 46.8814C34.8651 46.8439 34.8877 46.809 34.9146 46.7774C34.9146 46.6462 34.881 46.3743 34.9146 46.3743C35.3209 46.3071 35.1498 45.8681 35.3545 45.6665C35.3849 45.6298 35.3209 45.529 35.3209 45.4618C35.3209 45.3946 35.3209 45.2946 35.3513 45.2946C35.824 45.1907 35.7576 44.6837 36.0592 44.4493C36.1631 44.379 36.1935 44.2813 36.331 44.1103C36.5998 44.5829 36.1263 44.8212 36.0928 45.1571C36.667 44.8212 36.8349 44.0095 36.499 43.7712C36.6334 43.6704 36.767 43.5368 36.8678 43.4024C37.2404 42.9962 37.6435 42.6243 37.9818 42.2181C38.2201 41.9157 38.3545 41.5439 38.5896 41.2415C38.7263 41.0704 38.9959 40.9368 39.1967 40.8329C39.8037 40.497 40.3779 40.1274 40.7498 39.5509C40.817 39.4837 40.9178 39.4165 41.0185 39.3493C41.1193 39.2821 41.3232 39.2821 41.3576 39.1814C41.3904 39.1142 41.2904 38.9439 41.2232 38.8431C41.3545 38.7759 41.4912 38.6415 41.7599 38.504C41.6592 38.7087 41.6256 38.8431 41.5584 38.9806L41.7232 39.1446C42.0279 38.9103 42.5013 38.6415 42.8068 38.4368C42.8068 38.4064 42.6357 38.2728 42.6357 38.2728C42.4342 38.3728 42.1326 38.5407 41.8271 38.6751C41.8912 38.5743 41.8912 38.5071 41.931 38.4735C42.4006 38.1688 42.874 37.8665 43.3803 37.6282C44.5542 37.0854 45.7345 36.5564 46.9209 36.0415C47.1248 35.9399 47.3967 36.0079 47.6318 36.0079C47.7326 36.0079 47.7959 36.0079 47.8998 35.9743C48.4373 35.8064 48.9803 35.6353 49.5209 35.5009C49.7624 35.4344 50.0118 35.4005 50.2623 35.4001C51.2724 35.4337 52.2857 35.4337 53.2959 35.5017C53.7213 35.539 54.1403 35.629 54.5435 35.7696C55.0506 35.9407 55.5904 36.1759 56.0638 36.4103C56.6331 36.719 57.1852 37.0583 57.7177 37.4267C58.6943 38.0673 59.6068 38.7782 60.5834 39.3524C61.5287 39.9259 62.2709 40.704 62.8779 41.5837C63.6232 42.6306 64.4654 43.5759 64.8006 44.8579L65.3076 47.0884C65.4084 47.4946 65.6459 47.9009 65.542 48.3704C65.3748 49.2189 65.2373 50.0946 65.1029 50.9407C65.0388 51.279 64.9685 51.6204 65.0052 51.9532C65.0693 53.0032 64.6638 53.9157 64.2607 54.8618C64.1232 55.1634 63.9217 55.4688 63.7537 55.8071C63.7873 55.8415 63.9888 55.9415 64.0224 55.9415L64.3271 55.3345C64.3615 55.3345 64.3615 55.3345 64.3951 55.3712C64.2271 55.8415 64.0904 56.3509 63.9217 56.8243C63.5193 57.8712 63.1131 58.9509 62.6068 59.9642C62.3381 60.5376 61.8623 61.011 61.5263 61.554C61.1904 62.0243 60.9217 62.5306 60.5834 62.9704C60.281 63.3423 59.9763 63.7149 59.5701 63.9829C58.6607 64.661 57.7146 65.3345 56.7381 65.8751C56.131 66.2478 55.4224 66.4524 54.7482 66.6196L54.7576 66.6173ZM36.7732 64.8228L36.7396 64.8564C36.6693 64.8228 36.5693 64.7892 36.5021 64.722L35.6896 63.504C35.6263 63.4032 35.5896 63.3024 35.6263 63.1681C35.9882 63.7335 36.3707 64.2855 36.7732 64.8228ZM57.7607 69.4493C59.2771 68.8087 60.5256 67.8985 61.6701 66.8485C61.8404 66.6814 62.0084 66.5126 62.2131 66.3759C63.6287 65.497 64.6724 64.2821 65.6193 62.9306C66.699 61.3767 67.4068 59.6189 68.2857 57.9649C68.3529 57.8282 68.4201 57.697 68.4873 57.5931C68.4201 61.4446 68.8599 65.2282 69.3631 69.0462C65.5513 69.1806 61.6724 69.3149 57.7607 69.4524V69.4493ZM91.9709 68.436C91.9373 68.5063 91.867 68.5728 91.8334 68.6399C91.7998 68.5728 91.7998 68.4728 91.7662 68.3353C91.5646 68.8751 91.1256 68.6064 90.8232 68.6064C89.0013 68.6399 87.1459 68.6399 85.3209 68.6399C83.5693 68.6399 81.781 68.6399 80.0263 68.6712C79.4521 68.6712 78.8451 68.8048 78.2717 68.8415C76.8888 68.9056 75.506 68.9431 74.1209 68.9759C74.0201 68.9759 73.9193 68.8079 73.7513 68.6735C73.6913 68.7795 73.6232 68.8806 73.5474 68.9759C73.5107 68.9087 73.4459 68.8415 73.3756 68.7415C73.3488 68.8332 73.3154 68.9227 73.2756 69.0095H73.1779C73.1076 68.5392 72.9732 68.1001 72.9732 67.6267C72.9732 66.6142 73.0771 65.6009 73.1076 64.5845C73.1443 64.1142 73.1076 63.6751 73.1076 63.2329C73.2451 63.336 73.3459 63.4032 73.4802 63.504C73.5474 63.3696 73.6146 63.2696 73.6842 63.1681C73.6842 63.1681 73.6138 63.1345 73.5474 63.0681C73.6115 63.0345 73.681 62.9642 73.681 62.9306C73.7146 62.829 73.7826 62.729 73.7826 62.6618C73.7826 62.4235 73.7146 62.2228 73.681 62.0212C73.7146 62.0212 73.7482 62.0212 73.7826 61.9845L73.9834 62.9978H74.0873C73.9498 62.7626 74.3896 62.561 74.0201 62.2892C73.9865 62.2556 74.0537 62.0548 74.0537 61.9509C73.9498 61.7493 73.8857 61.5478 73.7818 61.2767C73.8154 61.2431 73.9193 61.2095 74.0201 61.1751C73.8857 61.1087 73.7818 61.0415 73.6818 61.0079C74.0201 60.7032 74.0201 60.5345 73.7146 60.1954C73.7849 60.1657 73.8521 60.1657 73.8521 60.1321C73.8521 59.8274 73.8521 59.5243 73.7849 59.2228C73.7178 58.8806 73.8865 58.4782 73.3787 58.2735C73.4131 58.3774 73.4467 58.4446 73.5138 58.5423C73.5138 58.5423 73.4123 58.5782 73.3123 58.6454C72.8724 58.2392 73.1443 57.697 73.0435 57.0892C73.2779 57.1595 73.4467 57.2267 73.6138 57.297C73.5474 57.0556 73.3795 56.7868 73.2779 56.4821H73.1412V54.2501C73.1412 54.2868 73.3756 54.2868 73.5138 54.3204C73.5138 54.2868 73.5443 54.2532 73.5443 54.2165C73.4427 54.0829 73.3092 53.9485 73.1717 53.7806L73.242 53.7103C72.9732 53.3743 73.1076 52.9048 73.1076 52.8009V50.436C73.4467 50.7743 72.9396 51.2142 73.4467 51.4157V51.0798H73.4099C73.3763 50.5728 73.3763 50.0665 73.3427 49.5564H73.2787C73.242 49.6267 73.242 49.6603 73.2084 49.7282H73.1412L73.3427 41.6524C73.681 42.0923 74.0506 42.5009 74.2881 42.9345C75.0638 44.3564 76.0771 45.5743 77.0201 46.8564C77.8318 47.9735 78.5732 49.1876 79.3146 50.3353C80.2248 51.7204 81.1037 53.1064 82.0154 54.4884C82.6873 55.5384 83.3982 56.5853 84.1029 57.6009C84.7435 58.511 85.4217 59.3899 86.0959 60.2688C86.6662 61.047 87.2771 61.822 87.8474 62.6001C88.5256 63.5454 89.199 64.4923 89.874 65.4048C90.2099 65.8743 90.5818 66.3478 90.9513 66.8204C91.156 67.0923 91.4576 67.297 91.6623 67.461C91.6287 67.461 91.5951 67.461 91.5279 67.4282C91.6318 67.5649 91.6959 67.6657 91.7631 67.7329C92.1357 67.9345 92.1693 68.1392 91.9678 68.4439L91.9709 68.436ZM93.6888 59.9915V59.7571C93.6888 59.8235 93.7224 59.9212 93.6888 59.9915ZM94.8365 45.0962C94.8029 45.0962 94.6013 44.8915 94.5677 44.8579C94.5341 44.9587 94.5677 45.0595 94.5006 45.197C94.467 45.0954 94.2318 45.1298 94.2318 45.029C94.1951 45.5017 94.4334 45.9743 94.3967 46.4478C94.5006 46.3774 94.9037 46.3439 95.0037 46.2431C95.0422 46.2781 95.0899 46.3014 95.1412 46.3103C94.467 46.8204 94.6349 47.3235 94.9396 47.9001C95.0037 48.0345 95.2084 48.3032 95.0037 48.5751C94.9396 48.6423 95.0404 48.8438 95.074 49.0142H95.1717V49.0782L94.867 49.1821C94.8029 49.0782 94.3967 48.8798 94.3967 48.7056V50.4337C94.7357 50.5345 94.7357 51.0071 94.8701 51.2454C94.9404 51.1415 94.9709 51.0743 95.0068 50.9735L95.0404 51.0071C95.0118 51.2127 94.9669 51.4157 94.906 51.6142C94.8396 51.9165 94.7724 52.1884 94.7388 52.4899C94.7388 52.5235 94.8029 52.5938 94.8029 52.6274C94.4334 53.4728 94.6349 54.4165 94.5006 55.2915C94.3998 55.9321 94.5006 56.6134 94.4334 57.2876C94.3631 57.861 94.2287 58.4689 94.0943 59.0454C94.0607 59.1462 93.9935 59.1798 93.8263 59.247C93.8935 58.8407 93.8599 58.5728 93.7927 58.2001C93.756 58.2001 93.3162 57.9618 93.2826 57.9618C93.2826 58.4384 93.5513 59.079 93.6552 59.6165C93.5513 59.5829 93.1482 59.3478 93.1146 59.3478C93.0443 59.754 93.0443 60.2931 93.0146 60.7329C92.9779 61.072 92.6756 61.3735 92.642 61.7462C92.642 61.9509 92.8763 62.0853 92.8435 62.4235H93.1123C93.1123 61.7493 93.417 61.1392 93.417 60.4314H93.5185C93.5513 60.4978 93.6553 60.5649 93.6217 60.5985C93.5513 60.9712 93.4138 61.3767 93.4506 61.7493C93.4506 61.9509 93.6185 62.1524 93.5545 62.3899C93.4842 62.5946 93.4506 62.7962 93.417 63.0985C93.3834 62.9306 93.3498 62.8634 93.3498 62.7626C93.3162 62.7626 93.0115 62.729 92.9779 62.729C92.9443 62.9306 93.2154 63.1321 93.1795 63.3024C93.1459 63.336 93.1123 63.336 93.0451 63.3696L91.931 61.7462C91.0447 60.4579 90.1678 59.1631 89.3006 57.8618C89.0716 57.54 88.8674 57.2013 88.6896 56.8485C87.648 55.05 86.4879 53.3228 85.217 51.6782C84.2373 50.4306 83.4592 49.0751 82.5498 47.7634C81.7076 46.5118 80.8654 45.2946 80.0201 44.0431C79.7178 43.6399 79.3451 43.2681 79.0771 42.8282C78.2013 41.4431 77.4232 40.0235 76.5467 38.6407C75.8053 37.4907 74.9967 36.3743 74.2185 35.2603C73.9498 34.8876 73.681 34.4821 73.4099 34.079C73.3673 34.0082 73.3441 33.9273 73.3427 33.8446C73.2756 33.0993 73.2053 32.3579 73.1717 31.647C73.1717 30.9728 73.242 30.2978 73.242 29.5868V28.9798C73.242 28.8087 73.2732 28.6751 73.2732 28.5032C73.306 28.4728 73.3396 28.4056 73.3732 28.372C72.3935 28.372 71.3834 28.336 70.4045 28.372C69.7631 28.4032 69.4279 28.1345 68.9881 27.6579C67.7068 26.2087 66.7599 24.5517 65.6459 22.9978C64.6021 21.5118 63.5224 20.0564 62.442 18.6032C61.5631 17.4228 60.6873 16.2751 59.8115 15.0907C58.8318 13.7392 57.8888 12.3899 56.8756 11.0384C55.6576 9.41807 54.4099 7.79463 53.1646 6.17354C52.5849 5.42901 51.9435 4.72119 51.3029 3.94307C51.742 4.01338 52.1513 4.08057 52.5545 4.11416L54.1748 4.21494C55.3888 4.31494 56.6045 4.38213 57.8154 4.55088C58.8287 4.6876 59.842 4.88916 60.8881 5.05713C63.1162 5.42901 65.3076 6.03682 67.4349 6.74776C68.6826 7.15401 69.8943 7.69307 71.1115 8.20088C73.8435 9.31416 76.4435 10.6657 79.0068 12.0853C79.8154 12.5243 80.2881 13.2329 80.8927 13.8767C81.7717 14.7892 82.6506 15.6985 83.4928 16.6446C84.4693 17.7579 85.3787 18.9087 86.3248 20.0564C87.167 21.0696 88.0435 22.0829 88.8912 23.0985C89.1599 23.4009 89.3646 23.7735 89.5966 24.1118C90.1365 24.9243 90.7435 25.7017 91.217 26.5782C91.5529 27.222 91.7537 27.9634 91.992 28.6743C92.3279 29.7212 92.6662 30.7345 93.0052 31.7814C93.2396 32.5595 93.4388 33.3712 93.6092 34.1798C93.7435 34.7196 93.7131 35.2938 93.8779 35.8337C94.0826 36.5446 93.8779 37.3204 94.0826 38.0314C94.1162 38.0985 94.1467 38.2017 94.1834 38.2689C94.3177 38.4032 94.4177 38.5376 94.217 38.7392C94.1857 38.7728 94.1857 38.9071 94.217 39.011C94.2873 38.9439 94.3201 38.8767 94.3873 38.7728C94.3873 38.8431 94.4185 38.8767 94.4185 38.9071C94.4185 39.0415 94.3849 39.1782 94.4185 39.3134C94.4185 39.3798 94.4849 39.4774 94.5185 39.5478C94.5857 39.4774 94.6529 39.4439 94.7873 39.3431C95.092 40.4939 95.1263 41.6415 95.1263 42.822C95.1263 43.9392 95.3279 45.0532 94.8576 46.1368C94.9584 45.7642 94.7232 45.4228 94.824 45.0868L94.8365 45.0962ZM18.6217 41.7485C18.7592 41.8517 18.9943 41.9157 18.7592 42.1204C18.5881 42.3548 18.3865 42.5603 18.2521 42.8282C18.1178 43.0665 18.0146 43.1329 17.8131 42.9657C18.0652 42.5485 18.335 42.1429 18.6217 41.7485ZM86.4342 77.1548C86.4342 77.2556 86.4685 77.3228 86.4685 77.4235C86.5388 77.2892 86.5388 77.222 86.5717 77.1548H86.4342ZM79.5529 90.6345L73.681 58.0657C73.581 58.0353 73.4467 57.9681 73.2115 57.8978C73.2787 58.0353 73.3123 58.136 73.3459 58.2368C73.5138 58.2032 73.5802 58.2032 73.6482 58.1696C73.6482 58.136 73.6482 58.1024 73.6842 58.0657L79.556 90.6376L79.5529 90.6345ZM73.4802 50.736C73.4467 50.836 73.4467 50.9368 73.4467 51.0376C73.4467 50.9368 73.4467 50.8329 73.4834 50.7329L73.4802 50.736ZM73.5138 51.4103C73.4802 51.4103 73.4802 51.4103 73.4467 51.3735V51.4071C73.4834 51.4407 73.4834 51.4407 73.517 51.4071L73.5138 51.4103ZM73.4467 51.6782V51.4407C73.349 51.4743 73.2482 51.4743 73.1107 51.511C73.2818 51.5751 73.4498 51.6087 73.4498 51.6751L73.4467 51.6782Z" fill="#DD3A0A"/>
</g>
<defs>
<clipPath id="clip0_1085_3537">
<rect width="100" height="100" fill="white"/>
</clipPath>
</defs>
</svg>
