<svg width="100" height="100" viewBox="0 0 100 100" fill="none" xmlns="http://www.w3.org/2000/svg">
<g clip-path="url(#clip0_867_21591)">
<path opacity="0.8" fill-rule="evenodd" clip-rule="evenodd" d="M4.17267 87.0346C2.80107 87.0346 1.67152 86.4698 0.864698 85.5016C0.0578743 84.5334 -0.184173 83.1618 0.138557 81.7902L15.1455 16.8409C15.7909 14.0977 18.3728 12 21.116 12H95.8278C97.1994 12 98.329 12.5648 99.1358 13.533C99.9426 14.5012 100.185 15.8728 99.8619 17.2444L84.855 82.1936C84.2095 84.9368 81.6277 87.0346 78.8845 87.0346H4.17267Z" fill="url(#paint0_linear_867_21591)"/>
<path fill-rule="evenodd" clip-rule="evenodd" d="M95.4241 12.8069H21.3577C19.0179 12.8069 16.7588 14.6626 16.194 17.0024L1.34846 82.0323C0.783687 84.3721 2.23597 86.2278 4.57576 86.2278H78.6422C80.9819 86.2278 83.241 84.3721 83.8058 82.0323L98.6514 17.083C99.2161 14.7433 97.7639 12.8069 95.4241 12.8069Z" fill="url(#paint1_linear_867_21591)"/>
<path fill-rule="evenodd" clip-rule="evenodd" d="M50.1614 69.1222H68.1535C70.2513 69.1222 71.9456 70.8972 71.9456 73.0756C71.9456 75.254 70.2513 77.0291 68.1535 77.0291H50.1614C48.0636 77.0291 46.3693 75.254 46.3693 73.0756C46.3693 70.8972 48.0636 69.1222 50.1614 69.1222ZM61.8603 51.5334C61.5376 52.1789 60.8921 52.8244 59.7626 53.6312L26.2794 77.6745C24.4237 78.9654 21.8419 78.4813 20.3896 76.545C19.018 74.6086 19.3407 71.9461 21.1157 70.6552L51.2909 48.7902V48.3061L32.3306 28.1356C30.7976 26.5219 30.959 23.8594 32.6533 22.1651C34.4283 20.5514 37.0908 20.5514 38.6238 22.1651L61.3762 46.3698C62.7478 47.9027 62.8285 50.0005 61.8603 51.5334Z" fill="#2C5591"/>
<path fill-rule="evenodd" clip-rule="evenodd" d="M60.973 50.7266C60.6503 51.372 60.0048 52.0175 58.8752 52.8243L25.4728 76.8676C23.6171 78.1586 21.0352 77.6745 19.5829 75.7381C18.2113 73.8017 18.5341 71.1392 20.3091 69.8483L50.4843 47.9834V47.4993L31.5239 27.3287C29.991 25.715 30.1523 23.0525 31.8467 21.3582C33.6217 19.7445 36.2842 19.7445 37.8172 21.3582L60.5696 45.5629C61.9412 47.0152 62.0219 49.1129 60.973 50.7266ZM49.5968 68.7187H67.5889C69.6867 68.7187 71.381 70.413 71.381 72.4301C71.381 74.5278 69.6867 76.1415 67.5889 76.1415H49.5968C47.499 76.1415 45.8047 74.4472 45.8047 72.4301C45.8047 70.3324 47.499 68.7187 49.5968 68.7187Z" fill="white"/>
</g>
<defs>
<linearGradient id="paint0_linear_867_21591" x1="76.0655" y1="72.799" x2="18.9004" y2="21.7376" gradientUnits="userSpaceOnUse">
<stop stop-color="#A9C8FF"/>
<stop offset="1" stop-color="#C7E6FF"/>
</linearGradient>
<linearGradient id="paint1_linear_867_21591" x1="18.8049" y1="21.8191" x2="74.6637" y2="71.425" gradientUnits="userSpaceOnUse">
<stop stop-color="#2D4664"/>
<stop offset="0.169" stop-color="#29405B"/>
<stop offset="0.445" stop-color="#1E2F43"/>
<stop offset="0.79" stop-color="#0C131B"/>
<stop offset="1"/>
</linearGradient>
<clipPath id="clip0_867_21591">
<rect width="100" height="100" fill="white"/>
</clipPath>
</defs>
</svg>
