<svg width="100" height="100" viewBox="0 0 100 100" fill="none" xmlns="http://www.w3.org/2000/svg">
<g clip-path="url(#clip0_867_14549)">
<path fill-rule="evenodd" clip-rule="evenodd" d="M50.0086 0C22.4044 0 0.000244141 22.375 0.000244141 49.975C0.000244141 63.5833 5.45441 75.9417 14.2919 84.9542V50.025C14.2919 40.4917 18.0127 31.4958 24.7502 24.7625C28.0616 21.4339 32.0009 18.7958 36.3396 17.0012C40.6783 15.2067 45.3301 14.2914 50.0252 14.3083H50.3169L50.0086 14.3417C69.7377 14.3417 85.7377 30.3417 85.7377 50.0542C85.7377 51.775 85.6127 53.4625 85.3752 55.1333L65.1919 34.8833C63.204 32.8928 60.842 31.3151 58.242 30.241C55.6419 29.167 52.8551 28.6177 50.0419 28.625C47.2279 28.6191 44.4406 29.1693 41.8399 30.2441C39.2393 31.3188 36.8766 32.8968 34.8877 34.8875C32.8885 36.8743 31.3039 39.2386 30.226 41.8429C29.1481 44.4472 28.5983 47.2398 28.6086 50.0583C28.6086 55.7917 30.8419 61.1667 34.8877 65.225C36.8755 67.2175 39.2378 68.7971 41.8386 69.8726C44.4395 70.9481 47.2275 71.4984 50.0419 71.4917C52.8559 71.4976 55.6433 70.9473 58.2439 69.8726C60.8446 68.7979 63.2072 67.2198 65.1961 65.2292C68.9269 61.5096 71.1476 56.5398 71.4294 51.2792L83.2711 63.1667C78.0377 76.4167 65.1336 85.8042 50.0294 85.8042C42.2002 85.8042 34.7336 83.3042 28.5919 78.6625V95.1917C35.0919 98.2833 42.3419 100.004 49.9961 100.004C77.5961 100 100 77.625 100 50.025C100.034 22.3875 77.6461 0.0166667 50.0252 0.0166667L50.0086 0Z" fill="#2874FF"/>
</g>
<defs>
<clipPath id="clip0_867_14549">
<rect width="100" height="100" fill="white"/>
</clipPath>
</defs>
</svg>
