<svg width="100" height="100" viewBox="0 0 100 100" fill="none" xmlns="http://www.w3.org/2000/svg">
<path d="M50.3018 0L93.6035 25V75L50.3018 100L7 75V25L50.3018 0Z" fill="#673AB8"/>
<path d="M18.7946 74.5865C24.551 81.9546 42.8456 76.3406 60.1173 62.8463C77.3889 49.3524 87.2621 32.9597 81.5057 25.5913C75.7489 18.2232 57.4546 23.8375 40.1829 37.3315C22.9113 50.826 13.0381 67.2185 18.7946 74.5865ZM21.254 72.665C19.3446 70.2219 20.1789 65.4248 23.8159 59.3859C27.646 53.027 34.1477 46.007 42.1041 39.7909C50.0608 33.5747 58.4448 28.9641 65.5415 26.7861C72.281 24.7181 77.1372 25.0693 79.0462 27.5128C80.9556 29.9563 80.1213 34.7533 76.4843 40.7922C72.6542 47.1511 66.1525 54.1708 58.1961 60.3873C50.2394 66.6035 41.8551 71.2141 34.7587 73.3917C28.0192 75.46 23.163 75.1085 21.254 72.665Z" fill="white"/>
<path d="M81.5058 74.5865C87.2626 67.2185 77.3891 50.8257 60.1174 37.3315C42.8458 23.8375 24.5508 18.2232 18.7947 25.5913C13.0379 32.9593 22.9114 49.3524 40.1831 62.8463C57.4547 76.3406 75.749 81.9549 81.5058 74.5865ZM79.0464 72.665C77.1374 75.1089 72.2812 75.46 65.5416 73.3917C58.4449 71.2141 50.0609 66.6035 42.1046 60.3873C34.1479 54.1708 27.6458 47.1511 23.8163 40.7922C20.179 34.7533 19.3448 29.9566 21.2538 27.5128C23.1631 25.0693 28.0193 24.7181 34.7585 26.7861C41.8552 28.9641 50.2395 33.5747 58.1959 39.7909C66.1526 46.007 72.6543 53.027 76.4841 59.3859C80.1215 65.4245 80.9557 70.2212 79.0464 72.665Z" fill="white"/>
<path d="M50.1502 56.7208C53.813 56.7208 56.7818 53.7516 56.7818 50.0889C56.7818 46.4265 53.813 43.4573 50.1502 43.4573C46.4875 43.4573 43.5183 46.4265 43.5183 50.0889C43.5183 53.7516 46.4875 56.7208 50.1502 56.7208Z" fill="white"/>
</svg>
