<svg width="100" height="100" viewBox="0 0 100 100" fill="none" xmlns="http://www.w3.org/2000/svg">
<g clip-path="url(#clip0_1085_3553)">
<path d="M0 0H100V100H0V0Z" fill="#2A0634"/>
<path d="M0 0V100H100V0H0ZM96.0938 96.0938H3.90625V3.90625H96.0938V96.0938Z" fill="#E976B9"/>
<path d="M53.9062 36.7972C53.8281 29.4534 47.8125 23.594 40.4688 23.6722H26.0156V69.3753H33.5156V52.7347H40C47.6563 52.6565 53.9062 46.3284 53.9062 38.594V36.7972ZM46.4063 39.1409C46.4063 43.0472 43.2031 46.2503 39.2969 46.2503H33.5156V30.0784H39.2969C43.2031 30.0784 46.4063 33.2815 46.4063 37.1878V39.1409ZM60.2344 69.3753V38.2034C60.2344 38.2034 68.2031 34.219 76.0156 35.2347V41.719C76.0156 41.719 70.5469 41.719 68.125 42.7347V69.4534H60.2344V69.3753Z" fill="#E976B9"/>
</g>
<defs>
<clipPath id="clip0_1085_3553">
<rect width="100" height="100" fill="white"/>
</clipPath>
</defs>
</svg>
