<svg width="100" height="100" viewBox="0 0 100 100" fill="none" xmlns="http://www.w3.org/2000/svg">
<g clip-path="url(#clip0_1085_3557)">
<path d="M32.3906 76.7344C33.1875 76.3672 33.9922 76.0703 34.8203 75.7344C35.75 75.3984 36.6875 75.0703 37.6172 74.7656C38.7812 74.3984 39.9844 74.1016 41.1797 73.8359C42.8125 73.5 44.4453 73.2344 46.0703 73.0703C45.1406 75.9687 44.1406 78.8594 43.0078 81.7266C43.0391 82.2891 43.0781 82.8281 43.1094 83.3906C45.3359 82.9609 47.6328 82.7266 50 82.7266C52.3672 82.7266 54.6641 82.9609 56.8906 83.3906C56.8906 82.8281 56.9219 82.2578 56.9922 81.7266C55.8906 78.8672 54.8594 75.9687 53.9297 73.0703C55.5625 73.2344 57.2266 73.4687 58.8203 73.8359C60.0156 74.1016 61.1875 74.3984 62.3828 74.7656C63.3125 75.0625 64.25 75.3672 65.1797 75.7344C66.0156 76.0312 66.8125 76.3672 67.6094 76.7344C73.2656 79.2656 78.4297 82.9922 82.6562 87.8516C93.2734 78.6953 100 65.1484 100 50C100 22.4062 77.6328 0 50 0C22.3672 0 0 22.3672 0 50C0 65.1094 6.72656 78.6641 17.3438 87.8516C21.5703 82.9922 26.7344 79.2656 32.3906 76.7344Z" fill="#A0DBE8"/>
<path d="M35.6875 85.79C38.0156 84.7588 40.5156 83.9619 43.0781 83.4619C43.0781 82.8994 43.0469 82.3291 42.9766 81.7978C44.0781 78.9385 45.1094 76.04 46.0391 73.1416C44.4062 73.3057 42.7422 73.54 41.1484 73.9072C39.9531 74.1729 38.7812 74.4697 37.5859 74.8369C36.6562 75.1338 35.7188 75.4385 34.7891 75.8057L38.4141 76.7041L35.6875 85.79ZM27.0938 91.1494C27.1953 90.2197 27.2266 89.2822 27.2266 88.3213C27.2266 87.7588 27.6953 87.29 28.2578 87.29H29.1562L32.3516 76.7041C26.6953 79.2354 21.5312 82.9619 17.3047 87.8213C19.6328 89.8525 22.1641 91.6494 24.8281 93.2119C25.5938 92.5166 26.3281 91.8135 27.0938 91.1494ZM67.5781 76.7354L70.7734 87.3213H71.6719C72.2344 87.3213 72.7031 87.79 72.7031 88.3525C72.7031 89.3213 72.7734 90.251 72.8359 91.1807C73.6016 91.8447 74.3672 92.5088 75.0625 93.2432C77.7578 91.6807 80.2578 89.8838 82.5859 87.8525C78.3906 82.9932 73.2344 79.2666 67.5703 76.7354H67.5781ZM61.4844 76.6338L65.1094 75.7354C64.1797 75.3994 63.2422 75.0713 62.3125 74.7666C61.1484 74.3994 59.9453 74.1025 58.75 73.8369C57.1172 73.501 55.4844 73.2354 53.8594 73.0713C54.7891 75.9697 55.7891 78.8604 56.9219 81.7275C56.8906 82.29 56.8516 82.8291 56.8203 83.3916C59.4141 83.8916 61.8828 84.6885 64.2109 85.7197L61.4844 76.6338Z" fill="#525353"/>
<path d="M49.9687 87.3196H57.0234C56.8906 86.0227 56.8203 84.7258 56.8594 83.4602C54.6328 83.0305 52.3359 82.7961 49.9687 82.7961C47.6016 82.7961 45.3047 83.0305 43.0781 83.4602C43.1094 84.7571 43.0469 86.0227 42.9141 87.3196H49.9687ZM24.8672 93.2102C25.4297 93.5461 26.0313 93.8743 26.6328 94.2102C26.8359 93.2102 27 92.179 27.1016 91.1477C26.3359 91.8118 25.6016 92.5149 24.875 93.2102H24.8672Z" fill="black"/>
<path d="M35.2188 87.3208H42.9453C43.0781 86.0239 43.1484 84.7271 43.1094 83.4614C40.5156 83.9614 38.0469 84.7583 35.7187 85.7895L35.2188 87.3208ZM72.8672 91.1489C72.9688 92.1802 73.1328 93.2114 73.3359 94.2114C73.9375 93.9145 74.5 93.5786 75.1016 93.2114C74.3672 92.5161 73.6406 91.813 72.875 91.1489H72.8672ZM64.75 87.3208L64.2812 85.7895C61.9122 84.7405 59.4332 83.9596 56.8906 83.4614C56.8594 84.7583 56.9219 86.0239 57.0547 87.3208H64.7422H64.75Z" fill="black"/>
<path d="M35.2188 87.3203L35.6875 85.7891L38.4531 76.6328L34.8281 75.7344C33.9922 76.0312 33.1953 76.3672 32.3984 76.7344L29.2031 87.3203H35.2266H35.2188ZM64.2812 85.7891L64.75 87.3203H70.7734L67.5781 76.7344C66.7812 76.3672 65.9766 76.0703 65.1484 75.7344L61.5234 76.6328L64.2891 85.7891H64.2812Z" fill="#AA9678"/>
<path d="M29.2969 89.446C29.2969 89.446 29.3672 89.4148 29.3984 89.3757H29.2969V89.446Z" fill="#C0B098"/>
<path d="M49.9687 89.3818H29.3984C29.3984 89.3818 29.3281 89.4131 29.2969 89.4521C29.2266 91.4131 28.9609 93.3115 28.5312 95.1787C35.0234 98.2725 42.2812 100.007 49.9687 100.007V89.3896V89.3818Z" fill="#C0B098"/>
<path d="M70.6719 89.3818H70.5703C70.5703 89.3818 70.6406 89.4131 70.6719 89.4521V89.3818Z" fill="#AA9678"/>
<path d="M70.5703 89.3835H49.9609V100.001C57.3773 100.009 64.7016 98.3592 71.3984 95.1726C70.9687 93.3054 70.7031 91.3757 70.6328 89.446C70.6328 89.4148 70.6016 89.3757 70.5625 89.3757L70.5703 89.3835Z" fill="#AA9678"/>
<path d="M72.8672 91.1477C72.7656 90.218 72.7344 89.2805 72.7344 88.3196C72.7344 87.7571 72.2656 87.2883 71.7031 87.2883H28.2266C27.6641 87.2883 27.1953 87.7571 27.1953 88.3196C27.1953 89.2883 27.125 90.218 27.0625 91.1477C26.9609 92.179 26.7969 93.2102 26.5938 94.2102C27.2266 94.5461 27.8594 94.8743 28.4922 95.179C28.9219 93.3118 29.1875 91.3821 29.2578 89.4524V89.3821H70.6328V89.4524C70.7031 91.4133 70.9688 93.3118 71.3984 95.179C72.0312 94.8821 72.6641 94.5461 73.2969 94.2102C73.0938 93.2102 72.9609 92.179 72.8672 91.1477Z" fill="#8B7460"/>
<path d="M64.2812 80.1565C64.1172 79.9924 63.9844 79.7893 63.8125 79.594C63.9766 79.8284 64.1484 79.9924 64.2812 80.1565Z" fill="#525353"/>
<path d="M83.2578 38.8818C82.8579 38.3225 82.4249 37.7877 81.9609 37.2803C81.7578 37.0459 81.5625 36.8506 81.3594 36.6475C81.2891 36.5771 81.1953 36.5146 81.125 36.4443C80.9922 36.3115 80.8594 36.21 80.7266 36.1084V40.7725L82.4922 48.9287C82.5234 48.999 82.5234 49.0615 82.5625 49.1318L83.7969 50.5303H85.0937V50.1631C85.0937 46.3037 84.4609 42.6084 83.3281 39.1475C83.2969 39.0146 83.2969 38.9443 83.2578 38.8818Z" fill="#BBBCBD"/>
<path d="M82.6875 49.7041V49.7744C82.7187 49.9775 82.7187 50.1729 82.7187 50.376V50.5791C82.7187 50.7822 82.7187 50.9775 82.6875 51.1416V51.2119C82.6562 51.415 82.6172 51.6104 82.5859 51.8135L83.8203 50.4463L82.5859 49.0479C82.6172 49.2822 82.6562 49.4775 82.6875 49.7119V49.7041Z" fill="#676A6A"/>
<path d="M82.6563 51.2654V51.1951C82.6875 50.9919 82.6875 50.7966 82.6875 50.6326V50.3669C82.6875 50.1638 82.6875 49.9685 82.6563 49.7654V49.6951C82.625 49.4919 82.5859 49.2966 82.5547 49.0935C82.5234 49.0232 82.5234 48.9607 82.4844 48.8904C82.3516 48.4919 82.2188 48.156 82.0156 47.8591C81.9844 47.8279 81.9453 47.7888 81.9453 47.7576C81.875 47.6873 81.8438 47.6248 81.7813 47.5544C81.7109 47.4529 81.6172 47.3904 81.5156 47.3201C81.4844 47.2888 81.4453 47.2888 81.4141 47.2498C81.3438 47.1794 81.25 47.1482 81.1797 47.1169C81.1484 47.1169 81.1094 47.0857 81.0781 47.0857C80.9766 47.0544 80.8437 47.0154 80.7109 47.0154C80.5781 47.0154 80.4766 47.0466 80.3437 47.0857C80.3125 47.0857 80.2734 47.1169 80.2422 47.1169C80.1719 47.1482 80.0781 47.1873 80.0078 47.2498C79.9766 47.281 79.9375 47.281 79.9063 47.3201C79.8047 47.3904 79.7422 47.4841 79.6406 47.5544C79.5703 47.6248 79.5391 47.6873 79.4766 47.7576C79.4453 47.7888 79.4063 47.8279 79.4063 47.8591C79.2031 48.156 79.0391 48.4919 78.9375 48.8904V48.9216C78.8672 49.0857 78.8359 49.2888 78.8047 49.4841C78.8047 49.5544 78.7734 49.5857 78.7734 49.6482C78.7422 49.8826 78.7422 50.0779 78.7031 50.3123V50.4138C78.7031 52.3123 79.6016 53.8748 80.7031 53.8748C80.9063 53.8748 81.0703 53.8044 81.2656 53.7419C81.2969 53.7419 81.3359 53.7107 81.3672 53.7107C81.4375 53.6794 81.5 53.6091 81.5703 53.5779L81.6719 53.4763C81.7734 53.406 81.8359 53.3123 81.9375 53.2107C82.0078 53.1404 82.0391 53.0779 82.1016 52.9763C82.1328 52.906 82.1719 52.8748 82.2031 52.8123C82.2734 52.7107 82.3047 52.6091 82.3672 52.4763C82.3984 52.4451 82.3984 52.406 82.4375 52.3435C82.5078 52.1794 82.5391 52.0076 82.6016 51.8435C82.6016 51.6404 82.6328 51.4451 82.6328 51.2419L82.6563 51.2654ZM80.7891 49.9998C80.3594 49.9998 80.0234 49.4373 80.0234 48.7029C80.0234 47.9685 80.3594 47.406 80.7891 47.406C81.2188 47.406 81.5547 47.9685 81.5547 48.7029C81.5547 49.4373 81.1875 49.9998 80.7891 49.9998Z" fill="black"/>
<path d="M80.7891 49.9998C81.2119 49.9998 81.5547 49.4191 81.5547 48.7029C81.5547 47.9866 81.2119 47.406 80.7891 47.406C80.3662 47.406 80.0234 47.9866 80.0234 48.7029C80.0234 49.4191 80.3662 49.9998 80.7891 49.9998Z" fill="white"/>
<path d="M78.9297 48.8992C79.0625 48.5007 79.1953 48.1648 79.3984 47.8679C79.4297 47.8367 79.4688 47.7976 79.4688 47.7664C79.5391 47.696 79.5703 47.6335 79.6328 47.5632C79.7031 47.4617 79.7969 47.3992 79.8984 47.3289C79.9297 47.2976 79.9688 47.2976 80 47.2585C80.0703 47.1882 80.1641 47.157 80.2344 47.1257C80.2656 47.1257 80.3047 47.0945 80.3359 47.0945C80.4375 47.0632 80.5703 47.0242 80.7031 47.0242C80.8359 47.0242 80.9375 47.0554 81.0703 47.0945C81.1016 47.0945 81.1406 47.1257 81.1719 47.1257C81.2422 47.157 81.3359 47.196 81.4062 47.2585C81.4375 47.2898 81.4766 47.2898 81.5078 47.3289C81.6094 47.3992 81.6719 47.4929 81.7734 47.5632C81.8437 47.6335 81.875 47.696 81.9375 47.7664C81.9687 47.7976 82.0078 47.8367 82.0078 47.8679C82.2109 48.1648 82.375 48.5007 82.4766 48.8992L80.7109 40.7429L78.9453 48.8992H78.9297Z" fill="#909393"/>
<path d="M57.125 50.3994C57.125 50.2354 57.125 50.0635 57.0938 49.8994C57.0625 49.7354 57.0625 49.6025 57.0234 49.4307C56.9922 49.2666 56.9531 49.1338 56.8906 49.001C56.8594 48.8682 56.7891 48.7041 56.7266 48.5713C56.6562 48.4385 56.5937 48.3057 56.5234 48.1729C56.2891 47.7744 56.0234 47.4072 55.6875 47.1104C55.2578 46.7119 54.7578 46.376 54.2266 46.1416C53.9545 46.0336 53.6751 45.9448 53.3906 45.876H53.3594C53.0625 45.8057 52.7578 45.7744 52.4609 45.7744C52.1641 45.7744 51.8594 45.8057 51.5625 45.876H51.5312C51.2344 45.9463 50.9687 46.0088 50.6953 46.1104H50.6641C50.3984 46.2119 50.1328 46.3447 49.8984 46.5088C49.6641 46.6729 49.4297 46.8447 49.2344 47.04H49.2031C48.8672 47.376 48.5703 47.7354 48.3359 48.1416C48.2656 48.2744 48.2031 48.4072 48.1328 48.54C48.1328 48.54 48.1328 48.5713 48.1016 48.5713C48.0312 48.7041 48 48.8057 47.9688 48.9385C47.9688 48.9697 47.9375 48.9697 47.9375 49.0088C47.9063 49.1416 47.8672 49.2432 47.8359 49.376C47.8359 49.4072 47.8047 49.4463 47.8047 49.4775C47.7734 49.6104 47.7734 49.7119 47.7344 49.8447C47.7344 49.876 47.7344 49.915 47.7031 49.9463C47.7031 50.1104 47.6719 50.2822 47.6719 50.4463C47.6719 50.7432 47.7031 51.0479 47.7734 51.3447V51.376C47.8438 51.6729 47.9063 51.9385 48.0391 52.2432C48.2734 52.7744 48.6016 53.2744 49.0078 53.7041C49.3437 54.04 49.7031 54.3369 50.1094 54.5713L50.5078 54.7744H50.5391C50.6719 54.8447 50.8047 54.876 50.9063 54.9072L50.9766 54.9385C51.1094 54.9697 51.2109 55.0088 51.3438 55.04C51.375 55.04 51.4141 55.0713 51.4453 55.0713C51.5781 55.1025 51.6797 55.1025 51.8125 55.1416C51.8437 55.1416 51.8828 55.1416 51.9141 55.1729C52.0781 55.1729 52.25 55.2041 52.4141 55.2041C53.0781 55.2041 53.6797 55.0713 54.2422 54.8369C54.5078 54.7041 54.7734 54.5713 55.0391 54.4072C55.5391 54.0713 55.9687 53.6416 56.3047 53.1416C56.4687 52.876 56.6016 52.6104 56.7344 52.3447C56.9688 51.7822 57.1016 51.1494 57.1016 50.5166V50.4854L57.1328 50.415L57.125 50.3994ZM52.4297 49.8369C51.4609 49.8369 50.6641 49.04 50.6641 48.0713C50.6641 47.1025 51.4609 46.3057 52.4297 46.3057C53.3984 46.3057 54.1953 47.1025 54.1953 48.0713C54.1933 48.5389 54.0066 48.9868 53.6759 49.3175C53.3452 49.6482 52.8973 49.8349 52.4297 49.8369Z" fill="black"/>
<path d="M52.4297 49.8367C53.4048 49.8367 54.1953 49.0462 54.1953 48.071C54.1953 47.0959 53.4048 46.3054 52.4297 46.3054C51.4546 46.3054 50.6641 47.0959 50.6641 48.071C50.6641 49.0462 51.4546 49.8367 52.4297 49.8367Z" fill="white"/>
<path d="M49.1641 47.0398L52.4297 37.0867V34.7585C50.5991 34.3847 48.7355 34.1962 46.8672 34.196C46.2344 34.196 45.6016 34.2273 44.9688 34.2664C44.8672 34.2664 44.8047 34.2664 44.7031 34.2976C41.4375 34.532 38.2422 35.3992 35.2812 36.7585C32.7444 37.9253 30.3809 39.437 28.2578 41.2507C27.6953 41.7507 27.125 42.2507 26.5938 42.782L26.2969 43.0789C25.7969 43.5789 25.2969 44.1101 24.8359 44.6414C24.7344 44.7742 24.6328 44.8757 24.5391 45.0085C24.0739 45.566 23.6181 46.1311 23.1719 46.7039C23.1406 46.7351 23.1016 46.8054 23.0703 46.8367C22.6719 47.3992 22.2734 47.9695 21.875 48.571L21.6406 48.907C21.3438 49.407 21.0391 49.907 20.7734 50.407H35.5547L49.1719 47.0476L49.1641 47.0398Z" fill="#BBBCBD"/>
<path d="M61.6484 45.9375C61.6797 45.5391 61.7188 45.1719 61.7188 44.7734C61.75 44.2422 61.75 43.7422 61.7891 43.2109V41.6094C61.7891 40.5469 61.7188 39.5156 61.6875 38.4453C61.6562 37.375 61.6562 38.4453 61.6562 38.4141C61.6562 38.4141 61.625 38.4141 61.625 38.3828C61.4219 38.2813 60.9609 38.0156 60.5234 37.75H60.4922C60.3906 37.6797 60.2891 37.6172 60.1953 37.5859C60.125 37.5547 60.0625 37.4844 59.9922 37.4531L59.9609 37.4219C59.9013 37.3967 59.846 37.3625 59.7969 37.3203C59.1328 36.9531 58.4297 36.6563 57.7344 36.3516C56.0703 35.6563 53.8047 35.0234 52.5078 34.7188V37.0469L55.7344 46.9688C56.0703 47.2656 56.3672 47.6328 56.5703 48.0313C56.6406 48.1641 56.7031 48.2969 56.7734 48.4297C56.8437 48.5625 56.9062 48.6953 56.9375 48.8594C56.9687 48.9922 57.0391 49.1563 57.0703 49.2891C57.1016 49.4531 57.1406 49.5859 57.1406 49.7578C57.1719 49.9219 57.1719 50.0938 57.1719 50.2578V50.2891H61.1016C61.3672 48.8594 61.5703 47.3906 61.6641 45.9297C61.6641 45.9609 61.6641 46 61.6641 45.9297L61.6484 45.9375Z" fill="#E2DDDB"/>
<path d="M57.1563 64.5781C58.0547 63.6797 58.8906 62.8437 59.6875 62.0156C60.1563 61.5156 60.6172 61.0156 61.0859 60.5547C64.3828 56.9922 66.7813 53.6328 68.2422 49.3359C68.2734 49.2344 68.3125 49.1016 68.3438 48.9375V48.8672C68.375 48.7031 68.4141 48.5312 68.4453 48.3359C68.4453 48.2031 68.4766 48.0703 68.4766 47.9375C68.1094 46.0703 67.4141 44.2422 66.7813 42.4453V42.4766L66.75 42.4453C66.6172 42.3438 66.5156 42.2109 66.3828 42.1094C66.0156 41.7734 65.6484 41.4453 65.25 41.1094C64.0859 40.1406 62.8828 39.2422 61.625 38.4766C61.6953 39.5391 61.7266 40.5703 61.7266 41.6406V43.2422C61.7266 43.7734 61.6953 44.3047 61.6563 44.8047C61.625 45.2031 61.625 45.5703 61.5859 45.9688V46.1016C61.4531 47.5625 61.2891 49.0312 61.0234 50.4609L60.5547 52.6563C59.5859 56.5859 57.625 60.1094 56.0313 63.7734C55.5975 64.7458 55.1989 65.7334 54.8359 66.7344C54.8047 66.8359 54.7656 66.9375 54.7344 67.0313C55.2344 66.5 55.7031 66.0312 56.0313 65.7031C56.4609 65.2734 56.7969 64.9063 57.1641 64.5703L57.1563 64.5781Z" fill="#FBB040"/>
<path d="M49.2031 47.0383C49.4062 46.8352 49.6328 46.6711 49.8672 46.5071C50.1016 46.343 50.3672 46.2102 50.6328 46.1086H50.6641C50.9297 46.0071 51.1953 45.9055 51.5 45.8743H51.5312C51.8281 45.804 52.1328 45.7727 52.4297 45.7727C52.7266 45.7727 53.0313 45.804 53.3281 45.8743H53.3594C53.6563 45.9446 53.9219 46.0071 54.1953 46.1399C54.7266 46.3743 55.2266 46.6711 55.6562 47.1086L52.4297 37.1868L49.2031 47.0383Z" fill="#909393"/>
<path d="M48.0703 52.2266C47.9688 51.9609 47.8672 51.6641 47.8047 51.3594V51.3281C47.7344 51.0312 47.7031 50.7266 47.7031 50.4297C47.7031 50.2656 47.7031 50.0938 47.7344 49.9297C47.7344 49.8984 47.7344 49.8594 47.7656 49.8281C47.7656 49.6953 47.7969 49.5938 47.8359 49.4609C47.8359 49.4297 47.8672 49.3906 47.8672 49.3594C47.8984 49.2266 47.9375 49.125 47.9688 48.9922C47.9688 48.9609 48 48.9609 48 48.9219C48.0312 48.7891 48.1016 48.6563 48.1328 48.5547C48.1328 48.5547 48.1328 48.5234 48.1641 48.5234C48.2344 48.3906 48.2969 48.2578 48.3672 48.125C48.6016 47.7266 48.8984 47.3594 49.2344 47.0234L35.5859 50.3828H35.5547L49.0703 53.6797C48.6406 53.2813 48.3047 52.7812 48.0703 52.2187V52.2266Z" fill="#676A6A"/>
<path d="M78.7578 49.6641C78.7578 49.5937 78.7891 49.5312 78.7891 49.5C78.8203 49.2969 78.8594 49.1016 78.9219 48.9375V48.8672L80.6875 40.7109V36.0469C79.2266 34.8516 77.6953 34.1797 76.0625 34.1797C74 34.1797 72.1016 35.3125 70.6719 36.7109C69.1094 38.2422 67.9062 40.1719 66.9141 42.1016C66.8828 42.2031 66.8125 42.2656 66.7812 42.3672C67.0781 42.6328 67.3828 42.8984 67.6797 43.1641C68.3437 43.7656 69.0078 44.3984 69.6406 45.0312L70.5391 45.9297C70.8359 46.2656 71.1719 46.5625 71.4688 46.8984C71.8672 47.3281 72.2656 47.7344 72.6328 48.1641C72.7969 48.3281 72.9687 48.5312 73.1328 48.6953C73.6016 49.2266 74.0625 49.7266 74.5312 50.2578L74.6953 50.4219H78.7266V50.3203C78.7266 50.1172 78.7266 49.8906 78.7578 49.6562V49.6641Z" fill="#E2DDDB"/>
<path d="M18.3437 55.5632C18.3437 55.5632 18.375 55.4929 18.375 55.4617C18.6406 54.7976 18.9063 54.1335 19.2109 53.4617C19.2813 53.2585 19.375 53.0945 19.4766 52.9304C19.7109 52.3992 19.9766 51.8992 20.2422 51.3992C20.3438 51.196 20.4453 51.0007 20.5781 50.7664C20.6484 50.6648 20.7109 50.532 20.7813 50.4304C21.0781 49.9304 21.3437 49.4304 21.6484 48.9304L21.8828 48.5945C22.25 47.9929 22.6484 47.4304 23.0781 46.8601C23.1094 46.8289 23.1484 46.7585 23.1797 46.7273C23.6094 46.1257 24.0781 45.5632 24.5469 45.032C24.6484 44.8992 24.75 44.7976 24.8438 44.6648C25.3125 44.1335 25.8125 43.6023 26.3047 43.1023L26.6016 42.8054C27.1328 42.2742 27.6641 41.7742 28.2656 41.2742C30.4922 33.7507 37.3906 28.2585 45.5078 28.2585C48.7734 28.2585 52.0312 29.1882 54.8281 30.9226C57.6875 32.6882 60.0234 35.2507 61.5156 38.2117C61.5156 38.2117 61.5156 38.2429 61.5469 38.2429C61.5781 38.3132 61.6172 38.3757 61.6797 38.4773C62.9453 39.2429 64.1406 40.1414 65.3047 41.1101C65.7031 41.446 66.0703 41.7742 66.4375 42.1101C66.5703 42.2117 66.6719 42.3445 66.8047 42.446C66.8359 42.3445 66.875 42.282 66.9375 42.1804C68.0703 34.9539 71.2656 29.7273 75.0234 29.7273C77.8516 29.7273 80.3828 32.6882 81.9141 37.2507V37.282C82.3438 37.7507 82.7813 38.282 83.2109 38.8445C83.6406 39.407 83.2109 38.8757 83.2422 38.8757C83.2734 38.946 83.2734 39.0085 83.3125 39.0789L83.2422 38.8445C78.5469 24.9929 65.4688 15.0085 50.0234 15.0085C30.6484 15.0085 14.9688 30.6882 14.9688 50.0632C14.9688 53.8914 15.5703 57.5554 16.7031 60.9851V60.9539C16.9375 59.9226 17.2031 58.8914 17.5 57.8914C17.7656 57.0945 18.0312 56.3289 18.3359 55.5632H18.3437Z" fill="#525353"/>
<path d="M83.7891 50.468L82.5547 51.8352C82.5234 51.9993 82.4531 52.1711 82.3906 52.3352C82.3906 52.3665 82.3594 52.4055 82.3203 52.468C82.2891 52.5696 82.2188 52.7024 82.1563 52.8039C82.125 52.8743 82.0859 52.9055 82.0547 52.968C81.9844 53.0383 81.9531 53.1321 81.8906 53.2024C81.8203 53.304 81.7266 53.4055 81.625 53.468L81.5234 53.5696C81.4531 53.6399 81.3906 53.6711 81.3203 53.7024C81.2891 53.7024 81.25 53.7336 81.2188 53.7336C81.0547 53.8352 80.8516 53.8665 80.6563 53.8665C79.5547 53.8665 78.6563 52.3352 78.6563 50.4055H74.625C75.3906 51.2727 76.125 52.1399 76.8203 53.0383L76.8516 53.0696C77.5469 53.9368 78.25 54.804 78.9453 55.6633C78.9766 55.6946 79.0156 55.7649 79.0469 55.7961C79.7109 56.6321 80.3438 57.4602 80.9766 58.2961C81.0469 58.3665 81.1094 58.4602 81.1797 58.5305C81.8438 59.429 82.5078 60.3274 83.1797 61.1946V61.2258C84.3438 57.7961 84.9766 54.1711 85.0078 50.3743L83.7734 50.4758L83.7891 50.468Z" fill="white"/>
<path d="M44.7109 34.2581C44.8125 34.2581 44.875 34.2581 44.9766 34.2268C45.6094 34.1956 46.2422 34.1565 46.875 34.1565C48.7734 34.1565 50.6328 34.3596 52.4375 34.719C53.7031 35.0159 55.9688 35.6487 57.6641 36.3518C58.3594 36.6487 59.0625 36.9846 59.7266 37.3206C59.7578 37.3206 59.8281 37.3518 59.8906 37.4221C59.8906 37.4221 59.9219 37.4221 59.9219 37.4534C59.9922 37.4846 60.0547 37.5237 60.125 37.5862C60.2266 37.6565 60.3281 37.6877 60.4219 37.7502H60.4531C60.8828 37.9846 61.3516 38.2815 61.5547 38.3831C61.5859 38.3831 61.5859 38.4143 61.5859 38.4143L61.6172 38.4456C61.5859 38.3752 61.5469 38.3127 61.4844 38.2112C61.4844 38.2112 61.4844 38.1799 61.4531 38.1799C59.9531 35.1877 57.5938 32.6174 54.7656 30.8909C51.9688 29.1956 48.7109 28.2268 45.4453 28.2268C37.3203 28.2268 30.4297 33.719 28.2031 41.2424C30.3359 39.4143 32.6953 37.8831 35.2266 36.7502C38.2578 35.3518 41.4844 34.5237 44.7109 34.2502V34.2581Z" fill="black"/>
<path d="M70.7031 36.7507C72.1328 35.3523 74.0312 34.2195 76.0937 34.2195C77.7266 34.2195 79.2891 34.8835 80.7187 36.0867C80.8516 36.1882 80.9844 36.321 81.1172 36.4226C81.1875 36.4929 81.2812 36.5554 81.3516 36.6257C81.5547 36.8289 81.75 37.0242 81.9531 37.2585V37.2273C80.3906 32.6648 77.8906 29.7039 75.0625 29.7039C71.3047 29.7039 68.1016 34.8992 66.9766 42.157C67.9063 40.2273 69.1406 38.2976 70.7031 36.7664V36.7507Z" fill="black"/>
<path d="M37.4844 82.7881C37.8203 82.9209 38.1172 83.0225 38.4531 83.124C42.1774 84.4245 46.0943 85.0874 50.0391 85.085C54.6641 85.085 59.0938 84.1865 63.125 82.5537C63.3281 82.4521 63.5547 82.3896 63.7578 82.2881C64.0938 82.1553 64.4531 81.9912 64.7891 81.8193C65.0859 81.6865 65.3906 81.5537 65.6875 81.3896C65.6172 81.3896 65.5547 81.4209 65.4844 81.4209C64.2188 81.5537 62.9844 81.585 61.7578 81.3896C54.5313 80.3584 52.9375 76.8662 53.1719 73.2646C52.6406 72.9678 52.1406 72.6318 51.5703 72.2334C46.0078 68.2021 42.7188 63.9131 42.7188 63.9131C42.7188 63.9131 47.0156 67.21 53.4063 69.7021C53.5391 69.7725 53.6719 69.8037 53.8047 69.8662C54.1016 68.835 54.4688 67.835 54.7734 66.9678C54.8047 66.8662 54.8438 66.7646 54.875 66.6709C55.2422 65.6709 55.6406 64.6709 56.0703 63.71C57.6719 60.0459 59.6328 56.4834 60.5938 52.5928L61.0625 50.3975H57.1328V50.4287C57.1328 51.0928 57 51.6943 56.7656 52.2568C56.6328 52.5225 56.5 52.8193 56.3359 53.0537C56 53.5537 55.5703 53.9834 55.0703 54.3193C54.8047 54.4834 54.5391 54.6162 54.2734 54.749C53.7109 54.9834 53.0781 55.1162 52.4453 55.1162C52.2812 55.1162 52.1094 55.1162 51.9453 55.085C51.9141 55.085 51.875 55.085 51.8438 55.0537C51.7109 55.0537 51.6094 55.0225 51.4766 54.9834C51.4453 54.9834 51.4063 54.9521 51.375 54.9521C51.2422 54.9209 51.1406 54.8818 51.0078 54.8506L50.9375 54.8193C50.8047 54.7881 50.6719 54.7178 50.5703 54.6865H50.5391C50.4063 54.6162 50.2734 54.5537 50.1406 54.4834C49.7422 54.249 49.375 53.9834 49.0391 53.6162L35.5234 50.3193H20.7734C20.7031 50.4209 20.6406 50.5537 20.5703 50.6553C20.4688 50.8584 20.3359 51.0537 20.2344 51.2881C19.9687 51.7881 19.7031 52.3193 19.4688 52.8193C19.3672 52.9834 19.3047 53.1865 19.2031 53.3506C18.9062 54.0146 18.6406 54.6787 18.3672 55.3506C18.3672 55.3818 18.3359 55.4209 18.3359 55.4521C18.0391 56.2178 17.7734 57.0146 17.5391 57.8193C17.2422 58.8193 16.9766 59.8506 16.7422 60.8818C19.041 67.8986 23.5048 74.0062 29.4922 78.3271C29.6563 78.46 29.8594 78.5615 30.0234 78.6943C31.0234 79.3897 32.0547 80.0615 33.1172 80.624C34.5156 81.4912 35.9766 82.1865 37.4766 82.7881H37.4844Z" fill="white"/>
<path d="M61.6873 71.8679C61.617 72.2351 61.5857 72.6023 61.5857 72.9695C61.5545 73.6023 61.617 74.2351 61.7185 74.7976C61.7888 75.196 61.8513 75.5632 61.9529 75.9304C62.117 76.4617 62.2888 76.9617 62.5154 77.4304C62.742 77.8992 62.9842 78.3289 63.2107 78.6961C63.281 78.8289 63.3748 78.9617 63.4451 79.0632C63.5779 79.2273 63.6795 79.3992 63.8123 79.5632C63.9763 79.7664 64.1482 79.9617 64.281 80.1257C64.9138 80.8601 65.4451 81.2585 65.4451 81.2585V81.2898C65.4451 81.2898 65.4451 81.3601 65.4763 81.3914C65.5467 81.3914 65.6092 81.3601 65.6795 81.3601C67.242 81.157 68.8123 80.7273 70.3748 80.196C71.1717 79.8992 71.9763 79.5945 72.742 79.2664C72.9763 79.1648 73.2107 79.032 73.4373 78.9304C81.4607 75.032 88.1873 68.1804 88.1873 68.1804C78.1326 73.1414 68.2498 72.9382 61.6873 71.8757V71.8679Z" fill="#9F2255"/>
<path d="M81.0547 58.3586C80.4219 57.5227 79.7578 56.6946 79.125 55.8586C79.0937 55.8274 79.0547 55.7571 79.0234 55.7258C78.3281 54.8586 77.625 53.9915 76.9297 53.1321L76.8984 53.1008C76.1641 52.2024 75.4375 51.3352 74.7031 50.468C74.6719 50.3977 74.6016 50.3665 74.5703 50.304C74.1016 49.7727 73.6406 49.2727 73.1719 48.7415C73.0078 48.5774 72.8359 48.3743 72.6719 48.2102C72.2734 47.7805 71.9062 47.3743 71.5078 46.9446C71.2109 46.6086 70.875 46.3118 70.5781 45.9758L69.6797 45.0774C69.0469 44.4446 68.3828 43.8118 67.7187 43.2102C67.4219 42.9446 67.1172 42.679 66.8203 42.4133C67.4531 44.2415 68.1875 46.0774 68.5547 47.9758C68.6562 48.4758 68.7188 48.9446 68.7891 49.4055C69.6875 55.9602 67.5547 60.2571 64.2266 65.9133C63.9922 66.3118 63.7266 66.7493 63.4922 67.1477C62.7266 68.4133 62.2266 69.6477 61.9609 70.7727C61.8594 71.1399 61.7969 71.5071 61.7266 71.8743C68.2813 72.9368 78.1406 73.1399 88.2266 68.179C88.2266 68.179 86.2656 65.2805 83.2656 61.2883C82.6016 60.3899 81.9375 59.4915 81.2656 58.6243C81.1953 58.5227 81.1328 58.4211 81.0625 58.3586H81.0547Z" fill="#E2066F"/>
<path d="M65.4453 81.3279C65.4453 81.3279 64.9453 80.9294 64.2812 80.1951C64.1172 80.031 63.9844 79.8279 63.8125 79.6326C63.6797 79.4685 63.5781 79.2966 63.4453 79.1326C63.375 78.9998 63.2813 78.8982 63.2109 78.7654C62.9766 78.3669 62.7422 77.9685 62.5156 77.4998C62.3125 77.031 62.1172 76.531 61.9531 75.9998C61.8516 75.6326 61.75 75.2654 61.7188 74.8669C61.6172 74.3044 61.5859 73.6716 61.5859 73.0388C61.5859 72.6716 61.6172 72.3044 61.6875 71.9373C61.7578 71.5701 61.8203 71.2029 61.9219 70.8357C62.2188 69.7029 62.6875 68.5076 63.4531 67.2107C63.6875 66.781 63.9531 66.3748 64.1875 65.9763C67.5156 60.3201 69.6484 56.0544 68.75 49.4685C68.6797 48.9998 68.6172 48.4998 68.5156 48.0388C68.4844 48.3748 68.4141 48.6716 68.3516 48.906V48.9763C68.3203 49.1404 68.2813 49.2732 68.25 49.3748C66.7891 53.6716 64.3906 57.031 61.0938 60.5935C60.6641 61.0935 60.1953 61.5623 59.6953 62.0544C58.8984 62.8904 58.0312 63.7498 57.1641 64.6169C56.7969 64.9841 56.4297 65.3123 56.0625 65.6794C55.7266 66.0154 55.2656 66.4763 54.7656 67.0076C54.4688 67.8748 54.1016 68.8748 53.7969 69.906C53.6641 69.8357 53.5312 69.8044 53.3984 69.7419C47.0078 67.281 42.7109 63.9529 42.7109 63.9529C42.7109 63.9529 46.0078 68.2498 51.5625 72.2732C52.0938 72.6716 52.625 73.0076 53.1641 73.3044C52.9297 76.9294 54.5313 80.3982 61.75 81.4294C62.9844 81.5935 64.2109 81.5935 65.4766 81.4607C65.4766 81.3904 65.4453 81.3591 65.4453 81.3279Z" fill="black"/>
</g>
<defs>
<clipPath id="clip0_1085_3557">
<rect width="100" height="100" fill="white"/>
</clipPath>
</defs>
</svg>
