<svg width="100" height="100" viewBox="0 0 100 100" fill="none" xmlns="http://www.w3.org/2000/svg">
<g clip-path="url(#clip0_867_22244)">
<path d="M73.8095 19.0476H78.5715C79.9048 19.0476 80.9524 20.0952 80.9524 21.4286C80.9524 22.7619 79.9048 23.8095 78.5715 23.8095H73.8095C72.4762 23.8095 71.4286 22.7619 71.4286 21.4286C71.4286 20.0952 72.4762 19.0476 73.8095 19.0476Z" fill="#56B3B4"/>
<path d="M2.38095 95.2383H26.1904C27.5238 95.2383 28.5714 96.2859 28.5714 97.6192C28.5714 98.9526 27.5238 100 26.1904 100H2.38095C1.04762 100 0 98.9526 0 97.6192C0 96.2859 1.04762 95.2383 2.38095 95.2383Z" fill="#EA5E5E"/>
<path d="M59.5239 57.1431H73.8095C75.1428 57.1431 76.1904 58.1906 76.1904 59.5239C76.1904 60.8572 75.1428 61.9047 73.8095 61.9047H59.5239C58.1906 61.9047 57.1429 60.8572 57.1429 59.5239C57.1429 58.1906 58.1906 57.1431 59.5239 57.1431Z" fill="#BF85BF"/>
<path d="M30.9525 57.1431H50.0002C51.3335 57.1431 52.3811 58.1906 52.3811 59.5239C52.3811 60.8572 51.3335 61.9047 50.0002 61.9047H30.9525C29.6192 61.9047 28.5715 60.8572 28.5715 59.5239C28.5715 58.1906 29.6192 57.1431 30.9525 57.1431Z" fill="#EA5E5E"/>
<path d="M2.38095 57.1431H21.4286C22.7619 57.1431 23.8095 58.1906 23.8095 59.5239C23.8095 60.8572 22.7619 61.9047 21.4286 61.9047H2.38095C1.04762 61.9047 0 60.8572 0 59.5239C0 58.1906 1.04762 57.1431 2.38095 57.1431Z" fill="#56B3B4"/>
<path d="M2.38095 76.1904H26.1904C27.5238 76.1904 28.5714 77.2381 28.5714 78.5714C28.5714 79.9047 27.5238 80.9524 26.1904 80.9524H2.38095C1.04762 80.9524 0 79.9047 0 78.5714C0 77.2381 1.04762 76.1904 2.38095 76.1904Z" fill="#BF85BF"/>
<path d="M2.38095 38.0952H26.1904C27.5238 38.0952 28.5714 39.1429 28.5714 40.4762C28.5714 41.8096 27.5238 42.8572 26.1904 42.8572H2.38095C1.04762 42.8572 0 41.8096 0 40.4762C0 39.1429 1.04762 38.0952 2.38095 38.0952Z" fill="#BF85BF"/>
<path d="M26.1905 9.52393H73.8095C75.1428 9.52393 76.1905 10.5716 76.1905 11.9049C76.1905 13.2382 75.1428 14.2859 73.8095 14.2859H26.1905C24.8572 14.2859 23.8096 13.2382 23.8096 11.9049C23.8096 10.5716 24.8572 9.52393 26.1905 9.52393Z" fill="#F7BA3E"/>
<path d="M2.38095 9.52393H16.6667C18 9.52393 19.0476 10.5716 19.0476 11.9049C19.0476 13.2382 18 14.2859 16.6667 14.2859H2.38095C1.04762 14.2859 0 13.2382 0 11.9049C0 10.5716 1.04762 9.52393 2.38095 9.52393Z" fill="#EA5E5E"/>
<path d="M21.4286 85.7144H26.1905C27.5239 85.7144 28.5715 86.762 28.5715 88.0953C28.5715 89.4287 27.5239 90.4763 26.1905 90.4763H21.4286C20.0952 90.4763 19.0476 89.4287 19.0476 88.0953C19.0476 86.762 20.0952 85.7144 21.4286 85.7144Z" fill="#F7BA3E"/>
<path d="M21.4286 28.5715H26.1905C27.5239 28.5715 28.5715 29.6191 28.5715 30.9524C28.5715 32.2857 27.5239 33.3333 26.1905 33.3333H21.4286C20.0952 33.3333 19.0476 32.2857 19.0476 30.9524C19.0476 29.6191 20.0952 28.5715 21.4286 28.5715Z" fill="#56B3B4"/>
<path d="M2.38096 85.7144H11.9048C13.2381 85.7144 14.2857 86.762 14.2857 88.0953C14.2857 89.4287 13.2381 90.4763 11.9048 90.4763H2.38096C1.04762 90.4763 0 89.4287 0 88.0953C0 86.762 1.04762 85.7144 2.38096 85.7144Z" fill="#56B3B4"/>
<path d="M2.38096 28.5715H11.9048C13.2381 28.5715 14.2857 29.6191 14.2857 30.9524C14.2857 32.2857 13.2381 33.3333 11.9048 33.3333H2.38096C1.04762 33.3333 0 32.2857 0 30.9524C0 29.6191 1.04762 28.5715 2.38096 28.5715Z" fill="#F7BA3E"/>
<path opacity="0.5" d="M64.2858 85.7144H69.0476C70.3809 85.7144 71.4285 86.762 71.4285 88.0953C71.4285 89.4287 70.3809 90.4763 69.0476 90.4763H64.2858C62.9525 90.4763 61.9049 89.4287 61.9049 88.0953C61.9049 86.762 62.9525 85.7144 64.2858 85.7144Z" fill="#D0D4D8"/>
<path opacity="0.5" d="M35.7142 85.7144H54.7619C56.0953 85.7144 57.1429 86.762 57.1429 88.0953C57.1429 89.4287 56.0953 90.4763 54.7619 90.4763H35.7142C34.3809 90.4763 33.3333 89.4287 33.3333 88.0953C33.3333 86.762 34.3809 85.7144 35.7142 85.7144Z" fill="#D0D4D8"/>
<path opacity="0.5" d="M78.5714 85.7144H97.6191C98.9524 85.7144 100 86.762 100 88.0953C100 89.4287 98.9524 90.4763 97.6191 90.4763H78.5714C77.2381 90.4763 76.1904 89.4287 76.1904 88.0953C76.1904 86.762 77.2381 85.7144 78.5714 85.7144Z" fill="#D0D4D8"/>
<path d="M40.4762 47.6191H78.5714C79.9047 47.6191 80.9523 48.6667 80.9523 50C80.9523 51.3333 79.9047 52.3809 78.5714 52.3809H40.4762C39.1428 52.3809 38.0952 51.3333 38.0952 50C38.0952 48.6667 39.1428 47.6191 40.4762 47.6191Z" fill="#56B3B4"/>
<path d="M16.6666 47.6191H30.9523C32.2856 47.6191 33.3333 48.6667 33.3333 50C33.3333 51.3333 32.2856 52.3809 30.9523 52.3809H16.6666C15.3333 52.3809 14.2856 51.3333 14.2856 50C14.2856 48.6667 15.3333 47.6191 16.6666 47.6191Z" fill="#F7BA3E"/>
<path d="M2.38095 47.6191H7.14286C8.4762 47.6191 9.52382 48.6667 9.52382 50C9.52382 51.3333 8.4762 52.3809 7.14286 52.3809H2.38095C1.04762 52.3809 0 51.3333 0 50C0 48.6667 1.04762 47.6191 2.38095 47.6191Z" fill="#EA5E5E"/>
<path d="M45.2381 19.0476H64.2857C65.619 19.0476 66.6666 20.0952 66.6666 21.4286C66.6666 22.7619 65.619 23.8095 64.2857 23.8095H45.2381C43.9048 23.8095 42.8572 22.7619 42.8572 21.4286C42.8572 20.0952 43.9048 19.0476 45.2381 19.0476Z" fill="#BF85BF"/>
<path d="M2.38095 19.0476H35.7142C37.0476 19.0476 38.0952 20.0952 38.0952 21.4286C38.0952 22.7619 37.0476 23.8095 35.7142 23.8095H2.38095C1.04762 23.8095 0 22.7619 0 21.4286C0 20.0952 1.04762 19.0476 2.38095 19.0476Z" fill="#56B3B4"/>
<path d="M16.6666 66.6665H59.5239C60.8572 66.6665 61.9048 67.7141 61.9048 69.0475C61.9048 70.3808 60.8572 71.4284 59.5239 71.4284H16.6666C15.3333 71.4284 14.2856 70.3808 14.2856 69.0475C14.2856 67.7141 15.3333 66.6665 16.6666 66.6665Z" fill="#F7BA3E"/>
<path d="M2.38095 66.6665H7.14286C8.4762 66.6665 9.52382 67.7141 9.52382 69.0475C9.52382 70.3808 8.4762 71.4284 7.14286 71.4284H2.38095C1.04762 71.4284 0 70.3808 0 69.0475C0 67.7141 1.04762 66.6665 2.38095 66.6665Z" fill="#BF85BF"/>
<path d="M59.5239 28.5715H83.3333C84.6666 28.5715 85.7143 29.6191 85.7143 30.9524C85.7143 32.2857 84.6666 33.3333 83.3333 33.3333H59.5239C58.1906 33.3333 57.1429 32.2857 57.1429 30.9524C57.1429 29.6191 58.1906 28.5715 59.5239 28.5715Z" fill="#EA5E5E"/>
<path d="M59.5239 38.0952H83.3333C84.6666 38.0952 85.7143 39.1429 85.7143 40.4762C85.7143 41.8096 84.6666 42.8572 83.3333 42.8572H59.5239C58.1906 42.8572 57.1429 41.8096 57.1429 40.4762C57.1429 39.1429 58.1906 38.0952 59.5239 38.0952Z" fill="#F7BA3E"/>
<path d="M2.38095 0H59.5238C60.8571 0 61.9048 1.04762 61.9048 2.38095C61.9048 3.71429 60.8571 4.7619 59.5238 4.7619H2.38095C1.04762 4.7619 0 3.71429 0 2.38095C0 1.04762 1.04762 0 2.38095 0Z" fill="#56B3B4"/>
<path opacity="0.5" d="M69.0477 0H97.6191C98.9525 0 100 1.04762 100 2.38095C100 3.71429 98.9525 4.7619 97.6191 4.7619H69.0477C67.7144 4.7619 66.6667 3.71429 66.6667 2.38095C66.6667 1.04762 67.7144 0 69.0477 0Z" fill="#D0D4D8"/>
<path opacity="0.5" d="M69.0477 66.6665H78.5715C79.9048 66.6665 80.9524 67.7141 80.9524 69.0475C80.9524 70.3808 79.9048 71.4284 78.5715 71.4284H69.0477C67.7144 71.4284 66.6667 70.3808 66.6667 69.0475C66.6667 67.7141 67.7144 66.6665 69.0477 66.6665Z" fill="#D0D4D8"/>
<path opacity="0.5" d="M88.0953 66.6665H97.6192C98.9525 66.6665 100 67.7141 100 69.0475C100 70.3808 98.9525 71.4284 97.6192 71.4284H88.0953C86.762 71.4284 85.7144 70.3808 85.7144 69.0475C85.7144 67.7141 86.762 66.6665 88.0953 66.6665Z" fill="#D0D4D8"/>
<path opacity="0.5" d="M83.3334 57.1431H97.6191C98.9524 57.1431 100 58.1906 100 59.5239C100 60.8572 98.9524 61.9047 97.6191 61.9047H83.3334C82 61.9047 80.9524 60.8572 80.9524 59.5239C80.9524 58.1906 82 57.1431 83.3334 57.1431Z" fill="#D0D4D8"/>
<path opacity="0.5" d="M83.3334 9.52393H97.6191C98.9524 9.52393 100 10.5716 100 11.9049C100 13.2382 98.9524 14.2859 97.6191 14.2859H83.3334C82 14.2859 80.9524 13.2382 80.9524 11.9049C80.9524 10.5716 82 9.52393 83.3334 9.52393Z" fill="#D0D4D8"/>
<path opacity="0.5" d="M88.0953 47.6191H97.6192C98.9525 47.6191 100 48.6667 100 50C100 51.3333 98.9525 52.3809 97.6192 52.3809H88.0953C86.762 52.3809 85.7144 51.3333 85.7144 50C85.7144 48.6667 86.762 47.6191 88.0953 47.6191Z" fill="#D0D4D8"/>
<path opacity="0.5" d="M88.0953 19.0476H97.6192C98.9525 19.0476 100 20.0952 100 21.4286C100 22.7619 98.9525 23.8095 97.6192 23.8095H88.0953C86.762 23.8095 85.7144 22.7619 85.7144 21.4286C85.7144 20.0952 86.762 19.0476 88.0953 19.0476Z" fill="#D0D4D8"/>
<path opacity="0.5" d="M92.8572 28.5715H97.6191C98.9524 28.5715 100 29.6191 100 30.9524C100 32.2857 98.9524 33.3333 97.6191 33.3333H92.8572C91.5238 33.3333 90.4762 32.2857 90.4762 30.9524C90.4762 29.6191 91.5238 28.5715 92.8572 28.5715Z" fill="#D0D4D8"/>
<path opacity="0.5" d="M92.8572 38.0952H97.6191C98.9524 38.0952 100 39.1429 100 40.4762C100 41.8096 98.9524 42.8572 97.6191 42.8572H92.8572C91.5238 42.8572 90.4762 41.8096 90.4762 40.4762C90.4762 39.1429 91.5238 38.0952 92.8572 38.0952Z" fill="#D0D4D8"/>
<path opacity="0.5" d="M54.762 76.1904H97.6191C98.9524 76.1904 100 77.2381 100 78.5714C100 79.9047 98.9524 80.9524 97.6191 80.9524H54.762C53.4287 80.9524 52.3811 79.9047 52.3811 78.5714C52.3811 77.2381 53.4287 76.1904 54.762 76.1904Z" fill="#D0D4D8"/>
<path opacity="0.5" d="M35.7142 76.1904H45.238C46.5714 76.1904 47.619 77.2381 47.619 78.5714C47.619 79.9047 46.5714 80.9524 45.238 80.9524H35.7142C34.3809 80.9524 33.3333 79.9047 33.3333 78.5714C33.3333 77.2381 34.3809 76.1904 35.7142 76.1904Z" fill="#D0D4D8"/>
<path opacity="0.5" d="M73.8096 95.2383H97.6192C98.9525 95.2383 100 96.2859 100 97.6192C100 98.9526 98.9525 100 97.6192 100H73.8096C72.4762 100 71.4286 98.9526 71.4286 97.6192C71.4286 96.2859 72.4762 95.2383 73.8096 95.2383Z" fill="#D0D4D8"/>
<path opacity="0.5" d="M35.7142 95.2383H64.2856C65.6189 95.2383 66.6665 96.2859 66.6665 97.6192C66.6665 98.9526 65.6189 100 64.2856 100H35.7142C34.3809 100 33.3333 98.9526 33.3333 97.6192C33.3333 96.2859 34.3809 95.2383 35.7142 95.2383Z" fill="#D0D4D8"/>
<path opacity="0.5" d="M35.7142 28.5715H50C51.3334 28.5715 52.381 29.6191 52.381 30.9524C52.381 32.2857 51.3334 33.3333 50 33.3333H35.7142C34.3809 33.3333 33.3333 32.2857 33.3333 30.9524C33.3333 29.6191 34.3809 28.5715 35.7142 28.5715Z" fill="#D0D4D8"/>
<path opacity="0.5" d="M35.7142 38.0952H50C51.3334 38.0952 52.381 39.1429 52.381 40.4762C52.381 41.8096 51.3334 42.8572 50 42.8572H35.7142C34.3809 42.8572 33.3333 41.8096 33.3333 40.4762C33.3333 39.1429 34.3809 38.0952 35.7142 38.0952Z" fill="#D0D4D8"/>
</g>
<defs>
<clipPath id="clip0_867_22244">
<rect width="100" height="100" fill="white"/>
</clipPath>
</defs>
</svg>
