<svg width="100" height="100" viewBox="0 0 100 100" fill="none" xmlns="http://www.w3.org/2000/svg">
<path d="M50 0L3.2664 16.6L10.3945 78.15L50 100L89.6055 78.15L96.7336 16.6L50 0Z" fill="#DD0031"/>
<path d="M34.8069 17.5484L27.8335 24.5203L38.2937 25.5164L41.7804 17.5476L34.8069 17.5484ZM43.2757 17.5484L39.3069 26.9703L21.3577 25.5171L24.3468 37.9648L45.7655 45.9328H48.7546V17.5484H43.2757ZM50.7476 17.5484V45.9328H54.2343L75.653 37.964L78.6421 25.5164L60.196 26.9718L56.2273 17.5484H50.7476ZM57.721 17.5484L61.2077 25.5171L71.6687 24.5203L64.6944 17.5484H57.721ZM24.8437 39.957V56.8867L36.7991 66.8461V51.4085L40.2851 46.4304L35.8023 47.4265L30.3226 41.9484L24.8437 39.957ZM74.6562 39.957L69.1765 41.9492L63.6968 47.4265L59.214 46.4304L62.7023 51.4093V66.8468L74.6554 56.8867L74.6562 39.957ZM42.2171 46.357L38.2437 52.3445V74.7976L41.2241 79.2882L44.7007 82.7804H54.6351L58.1116 79.2882L61.0921 74.7976V52.3445L57.1187 46.357L54.6343 47.8539H44.703L42.2187 46.357H42.2171ZM30.3234 63.3601V69.8343L36.7999 76.307V68.8382L30.3234 63.3601ZM69.1773 63.3601L62.703 68.8375V76.3062L69.1773 69.8343V63.3601Z" fill="white"/>
</svg>
