<svg width="100" height="100" viewBox="0 0 100 100" fill="none" xmlns="http://www.w3.org/2000/svg">
<g clip-path="url(#clip0_1085_3608)">
<path d="M91.4164 21.9573C88.382 17.4261 83.3351 12.2526 78.2679 8.90185C67.7453 1.69248 55.5547 -0.864554 44.7687 0.25029C33.5234 1.46357 23.8937 5.70342 15.9797 12.7706C8.64528 19.3175 3.80387 27.3284 1.67262 34.9667C-0.488314 42.6003 -0.200814 49.6745 0.57028 54.9987C1.38278 60.4042 4.07575 67.2034 4.07575 67.2034C4.62262 68.5081 5.38669 69.0355 5.78356 69.2581C7.75075 70.3323 10.9789 69.3878 13.4554 66.605C13.5828 66.4315 13.6507 66.194 13.5828 65.9956C12.8914 63.3315 12.6422 61.3276 12.3945 59.7784C11.832 56.7112 11.5828 51.5729 11.9593 46.8229C12.1476 44.2519 12.6445 41.5042 13.5203 38.6198C15.2117 32.9229 18.7804 26.9776 24.3539 22.0347C30.3578 16.7136 38.0586 13.4261 45.3804 12.5776C47.9468 12.2706 52.8273 11.9714 58.7086 13.4229C59.9609 13.7354 65.3437 15.1394 71.1039 19.0401C75.2937 21.8886 78.6695 25.4089 80.9937 28.8854C83.3625 32.2073 85.9312 37.8058 86.6867 41.9073C87.7531 46.5753 87.7531 51.5214 86.9961 56.3378C86.0578 61.162 84.3648 65.855 81.7367 69.9831C79.9226 73.1839 76.1679 77.4112 71.725 80.587C67.7203 83.4034 63.1484 85.4386 58.4586 86.562C56.082 87.1253 53.6992 87.4839 51.2586 87.562C49.0867 87.6284 46.207 87.562 44.1867 87.2206C41.182 86.7425 40.5586 85.973 39.8679 84.9331C39.8679 84.9331 39.3929 84.1831 39.2586 82.1761C39.3039 63.8206 39.2961 68.7198 39.2961 59.1917C39.2961 56.4987 39.207 54.0581 39.232 51.8401C39.3586 48.2042 39.6648 45.7019 42.2664 42.9964C43.2148 41.9835 44.3614 41.1764 45.635 40.6255C46.9086 40.0746 48.2819 39.7916 49.6695 39.794C50.5507 39.794 53.5773 39.8354 56.2406 42.0495C59.0968 44.4323 59.5718 47.6894 59.6859 48.5605C60.3367 53.6573 56.9687 57.4526 55.6789 58.4167C54.4619 59.3306 53.109 60.0477 51.6695 60.5417C49.6054 61.2308 47.3328 61.4339 45.2906 61.298C45.1392 61.2869 44.989 61.3313 44.8679 61.4229C44.7469 61.5144 44.6633 61.6469 44.6328 61.7956L43.9468 65.3597C43.2742 68.0698 44.7789 69.0605 45.6523 69.4112C48.4492 70.2753 50.9289 70.6339 53.8671 70.4112C58.3695 70.0948 62.8125 68.3198 66.5812 64.8026C69.7922 61.7511 71.6203 57.9901 72.2453 53.7808C72.8679 49.1128 72.0554 44.0808 69.9281 39.8237C67.5867 35.1284 63.5468 31.2073 58.2203 29.0612C52.8398 26.9456 48.5632 26.8706 43.0461 28.2776L42.982 28.2987C39.4 29.5292 36.3336 31.0519 33.1429 34.3487C30.9523 36.6253 29.1609 39.3776 28.0718 42.487C26.9843 45.6183 26.6961 47.9558 26.6461 51.5901C26.5797 54.2831 26.7078 56.7831 26.7078 59.1245V74.5448C26.7078 79.4808 26.5398 80.3323 26.7078 82.8714C26.8 84.5542 27.0351 86.4573 27.7703 88.5026C28.5297 90.7565 30.1203 93.0714 31.2125 94.1355C32.7398 95.7636 34.6867 97.0769 36.6007 97.8886C40.9797 99.8339 46.9234 100.141 51.7461 99.9526C54.962 99.828 58.1581 99.3903 61.289 98.6456C67.6296 97.137 73.6211 94.4237 78.9375 90.6534C84.632 86.6409 89.5828 81.1683 92.3148 76.5151C95.8195 70.9933 98.0867 64.7901 99.2648 58.4198C100.329 52.0386 100.277 45.4894 98.8515 39.2019C97.7281 33.3706 94.7257 26.9698 91.2578 21.8019L91.4164 21.9573Z" fill="#1E87F0"/>
</g>
<defs>
<clipPath id="clip0_1085_3608">
<rect width="100" height="100" fill="white"/>
</clipPath>
</defs>
</svg>
