<svg width="100" height="100" viewBox="0 0 100 100" fill="none" xmlns="http://www.w3.org/2000/svg">
<g clip-path="url(#clip0_1085_3610)">
<path d="M83.6282 87.0022C104.063 68.4295 105.574 36.8077 87.0017 16.3725C68.4298 -4.06266 36.8079 -5.57438 16.3728 12.9975C-4.06317 31.5702 -5.57411 63.192 12.9978 83.628C31.5696 104.063 63.1923 105.573 83.6282 87.0022Z" fill="url(#paint0_radial_1085_3610)"/>
<path d="M63.904 15.7507C57.5555 10.264 49.4516 7.30849 41.1094 7.43818C24.0172 7.43818 7.2188 20.6944 5.92505 46.4983C4.52271 74.2179 22.5836 92.2069 48.0079 92.2069C85.6469 92.2069 106.473 57.4499 83.1704 19.7522C99.5508 57.4226 81.3227 81.1585 57.7954 81.1585C38.7141 81.1585 24.0946 68.1835 24.0946 44.3944C24.0805 10.0647 49.4735 7.68349 63.904 15.7507Z" fill="url(#paint1_radial_1085_3610)"/>
<path d="M73.2952 30.0666C72.2709 26.7275 71.0405 20.1642 75.5116 16.3556C72.9922 15.8139 70.3681 16.0425 67.9803 17.0119C65.5803 17.9889 63.5246 19.6568 62.0741 21.8041C57.9606 19.9397 53.4958 18.9775 48.9795 18.9822C44.4628 18.991 40.0003 19.9668 35.892 21.8439C34.4459 19.6871 32.3903 18.0096 29.9874 17.0252C27.5964 16.0486 24.9667 15.8156 22.4413 16.3564C27.0178 20.2634 25.6217 27.0298 24.5874 30.29C18.5467 37.1775 15.2272 46.0916 15.2678 55.3173C15.2678 63.0392 20.1624 71.8166 21.1233 83.5728L27.303 78.1314C33.9228 81.8263 41.4464 83.5897 49.0186 83.2212C56.5903 83.5894 64.1133 81.826 70.7327 78.1314L76.9163 83.5728C77.8952 71.8166 82.7717 63.0392 82.7717 55.3173C82.8264 45.9939 79.4459 36.9869 73.2952 30.0666Z" fill="url(#paint2_radial_1085_3610)"/>
<path d="M31.8619 92.3679C31.8331 91.6098 31.9671 90.8543 32.2548 90.1523C32.5476 89.4395 32.9837 88.7943 33.5361 88.257C34.1015 87.7079 34.7694 87.2752 35.5017 86.9836C36.2455 86.6879 37.0387 86.536 37.8392 86.5359C38.6423 86.5359 39.4361 86.6883 40.1751 86.9844C40.9077 87.2759 41.5759 87.7085 42.1415 88.2578C42.6939 88.7949 43.13 89.4397 43.4228 90.1523C43.7102 90.8544 43.8439 91.6099 43.815 92.3679V92.5523C44.8731 91.4335 45.5653 90.0189 45.7994 88.4969C46.0241 86.987 45.7743 85.4446 45.0845 84.0828C44.3923 82.7086 43.2876 81.5562 41.9072 80.7687C40.5105 79.9778 38.9212 79.5915 37.3173 79.6531C35.7048 79.7117 34.1454 80.2156 32.8345 81.1023C31.5236 81.989 30.5165 83.2195 29.94 84.6398C29.3645 86.0521 29.243 87.6085 29.5923 89.0929C29.9415 90.5773 30.7462 91.9336 31.9064 92.9906C31.8752 92.7846 31.8598 92.5763 31.8619 92.3679Z" fill="url(#paint3_radial_1085_3610)"/>
<path d="M66.1789 92.3679C66.2074 91.6098 66.0732 90.8543 65.7852 90.1523C65.4925 89.4395 65.0564 88.7943 64.5039 88.257C63.9387 87.7079 63.2711 87.2753 62.5391 86.9836C61.7953 86.6879 61.0021 86.536 60.2016 86.5359C59.4013 86.5363 58.6084 86.6885 57.8649 86.9844C57.1326 87.276 56.4647 87.7086 55.8993 88.2578C55.3469 88.7949 54.9108 89.4397 54.618 90.1523C54.3306 90.8544 54.1969 91.6099 54.2258 92.3679V92.5523C53.1677 91.4335 52.4755 90.0189 52.2414 88.4969C52.0167 86.987 52.2665 85.4446 52.9563 84.0828C53.6485 82.7086 54.7532 81.5562 56.1336 80.7687C57.5303 79.9778 59.1196 79.5915 60.7235 79.6531C62.336 79.7117 63.8954 80.2156 65.2063 81.1023C66.5172 81.989 67.5243 83.2195 68.1 84.6398C68.6757 86.052 68.7975 87.6084 68.4485 89.0929C68.0882 90.596 67.2815 91.9547 66.1344 92.9906C66.1608 92.7841 66.1762 92.5762 66.1789 92.3679Z" fill="url(#paint4_radial_1085_3610)"/>
<path opacity="0.53" d="M23.0108 58.3468C22.542 60.7163 19.5616 61.4624 19.5616 61.4624C18.9021 60.9903 18.3722 60.3597 18.0207 59.6288C17.6693 58.8979 17.5076 58.0902 17.5506 57.2804C17.3733 59.518 17.9253 61.7529 19.1241 63.6507C20.9595 62.3498 22.3231 60.4883 23.01 58.346L23.0108 58.3468ZM28.9147 59.5437C28.4459 61.9132 25.4623 62.6601 25.4623 62.6601C24.8003 62.1864 24.2688 61.553 23.9173 60.8189C23.5657 60.0847 23.4054 59.2736 23.4514 58.4608C23.2758 60.6985 23.8294 62.9328 25.0295 64.8296C26.8614 63.5334 28.2244 61.679 28.9147 59.5437ZM24.7397 64.9148C24.2709 67.2835 21.2905 68.0304 21.2905 68.0304C20.6312 67.555 20.1026 66.9209 19.7537 66.1869C19.4047 65.4528 19.2467 64.6425 19.2944 63.8312C19.1174 66.0686 19.6697 68.3033 20.8686 70.2007C22.6952 68.9023 24.0531 67.0481 24.7397 64.9148ZM30.6616 66.1007C30.1928 68.471 27.2131 69.2179 27.2131 69.2179C26.5512 68.744 26.0197 68.1105 25.6683 67.3762C25.3168 66.6419 25.1568 65.8306 25.203 65.0179C25.0184 67.2542 25.5627 69.4901 26.7545 71.3913C28.5957 70.0975 29.9662 68.2409 30.6616 66.1007ZM26.4998 71.564C26.0311 73.9343 23.0467 74.6804 23.0467 74.6804C22.3853 74.2064 21.8544 73.5728 21.5034 72.8387C21.1524 72.1045 20.9926 71.2936 21.0389 70.4812C20.8619 72.7186 21.4142 74.9533 22.6131 76.8507C24.4456 75.5547 25.8092 73.6995 26.4998 71.564ZM34.7967 60.7265C34.328 63.096 31.3436 63.8429 31.3436 63.8429C30.6825 63.3687 30.1519 62.7351 29.8011 62.0009C29.4504 61.2668 29.2908 60.4559 29.3373 59.6437C29.1612 61.8806 29.7129 64.1146 30.91 66.0124C32.7422 64.7163 34.1063 62.8619 34.7967 60.7265ZM75.6233 58.3468C76.092 60.7163 79.0717 61.4624 79.0717 61.4624C79.7334 60.9882 80.2648 60.3549 80.617 59.621C80.9676 58.8866 81.1275 58.0757 81.0819 57.2632C81.2576 59.5003 80.706 61.7344 79.5092 63.6327C77.6771 62.3366 76.3138 60.4822 75.6233 58.3468ZM69.7202 59.5437C70.1881 61.9132 73.1725 62.6601 73.1725 62.6601C73.8338 62.1859 74.3645 61.5524 74.7154 60.8183C75.0663 60.0841 75.2259 59.2732 75.1795 58.4608C75.3535 60.6983 74.7999 62.9322 73.6014 64.8296C71.7707 63.5329 70.4096 61.6785 69.7202 59.5437ZM73.8897 64.9148C74.3584 67.2835 77.3389 68.0304 77.3389 68.0304C78.0003 67.5561 78.5315 66.9228 78.8834 66.189C79.2341 65.4549 79.3943 64.6443 79.3491 63.8319C79.5263 66.069 78.9746 68.3033 77.7764 70.2007C75.9439 68.9047 74.5804 67.0503 73.8897 64.9148ZM67.9889 66.1007C68.4577 68.471 71.4381 69.2179 71.4381 69.2179C72.0995 68.7437 72.6303 68.11 72.9812 67.3757C73.3321 66.6414 73.4917 65.8304 73.4452 65.0179C73.6221 67.2553 73.0698 69.49 71.8709 71.3874C70.0398 70.0906 68.6784 68.2359 67.9889 66.1007ZM72.1342 71.564C72.603 73.9343 75.5873 74.6804 75.5873 74.6804C76.2485 74.2062 76.7791 73.5726 77.1298 72.8384C77.4806 72.1043 77.6401 71.2934 77.5936 70.4812C77.7696 72.719 77.2163 74.9536 76.0163 76.8507C74.1852 75.5541 72.8231 73.6997 72.1334 71.5647L72.1342 71.564ZM63.8327 60.728C64.3014 63.0968 67.2858 63.8437 67.2858 63.8437C67.9471 63.3695 68.4778 62.736 68.8287 62.0018C69.1796 61.2677 69.3392 60.4568 69.2928 59.6444C69.4696 61.8817 68.9173 64.116 67.7186 66.0132C65.8867 64.717 64.5237 62.8625 63.8334 60.7273L63.8327 60.728Z" fill="#231F20"/>
<path d="M33.714 56.0984C41.3 56.0984 47.45 50.1242 47.45 42.7546C47.45 35.3851 41.3007 29.4109 33.714 29.4109C26.1273 29.4109 19.9773 35.3851 19.9773 42.7546C19.9773 50.1242 26.1273 56.0984 33.714 56.0984Z" fill="white"/>
<path d="M37.2459 50.6038C41.1475 50.6038 44.3108 47.792 44.3108 44.3249C44.3108 40.8561 41.1467 38.0452 37.2459 38.0452C33.3452 38.0452 30.1819 40.8569 30.1819 44.3249C30.1819 47.792 33.3452 50.6038 37.2459 50.6038Z" fill="#BDBFC1"/>
<path d="M37.2459 49.0355C39.4131 49.0355 41.1709 47.1027 41.1709 44.7183C41.1709 42.3339 39.4131 40.4011 37.2459 40.4011C35.0787 40.4011 33.3217 42.3339 33.3217 44.7183C33.3217 47.1027 35.0795 49.0355 37.2459 49.0355Z" fill="#231F20"/>
<path d="M35.2838 44.325C35.9338 44.325 36.4611 43.6218 36.4611 42.7546C36.4611 41.8875 35.9338 41.1843 35.2838 41.1843C34.6338 41.1843 34.1064 41.8875 34.1064 42.7546C34.1064 43.6218 34.6346 44.325 35.2838 44.325ZM64.3268 56.0984C71.9127 56.0984 78.0627 50.1242 78.0627 42.7546C78.0627 35.3851 71.9127 29.4109 64.3268 29.4109C56.7408 29.4109 50.59 35.3851 50.59 42.7546C50.59 50.1242 56.74 56.0984 64.3268 56.0984Z" fill="white"/>
<path d="M67.4664 50.6038C71.1508 50.6038 74.1383 47.792 74.1383 44.3249C74.1383 40.8561 71.1508 38.0452 67.4664 38.0452C63.7821 38.0452 60.7946 40.8569 60.7946 44.3249C60.7946 47.792 63.7821 50.6038 67.4664 50.6038Z" fill="#BDBFC1"/>
<path d="M67.8584 49.0355C70.46 49.0355 72.5678 47.1027 72.5678 44.7183C72.5678 42.3339 70.46 40.4011 67.8584 40.4011C65.2569 40.4011 63.149 42.3339 63.149 44.7183C63.149 47.1027 65.2569 49.0355 67.8584 49.0355Z" fill="#231F20"/>
<path d="M65.112 44.3252C65.7612 44.3252 66.2893 43.6221 66.2893 42.7549C66.2893 41.8877 65.7612 41.1846 65.112 41.1846C64.462 41.1846 63.9338 41.8877 63.9338 42.7549C63.9338 43.6221 64.462 44.3252 65.112 44.3252Z" fill="white"/>
<path d="M49.411 69.4439C49.411 64.5345 56.8696 57.5767 56.8696 52.4501C56.8282 50.4918 56.0247 48.6269 54.6298 47.2517C53.2401 45.8795 51.3656 45.1104 49.4126 45.1111C47.4602 45.1123 45.5866 45.8812 44.1962 47.2517C42.801 48.6267 41.9972 50.4917 41.9556 52.4501C41.9556 57.5759 49.411 64.5345 49.411 69.4439Z" fill="url(#paint5_radial_1085_3610)"/>
</g>
<defs>
<radialGradient id="paint0_radial_1085_3610" cx="0" cy="0" r="1" gradientUnits="userSpaceOnUse" gradientTransform="translate(28.5412 36.0582) rotate(-42.27) scale(65.353 65.353)">
<stop stop-color="white"/>
<stop offset="0.181" stop-color="#FBFBFB"/>
<stop offset="0.365" stop-color="#EFEFF0"/>
<stop offset="0.552" stop-color="#DADBDC"/>
<stop offset="0.738" stop-color="#BEBFC2"/>
<stop offset="0.824" stop-color="#AEB0B3"/>
</radialGradient>
<radialGradient id="paint1_radial_1085_3610" cx="0" cy="0" r="1" gradientUnits="userSpaceOnUse" gradientTransform="translate(12.4821 38.2952) scale(58.4727 64.4514)">
<stop stop-color="#FAFDFF"/>
<stop offset="0.079" stop-color="#EEF5FA"/>
<stop offset="0.22" stop-color="#CFDFEC"/>
<stop offset="0.407" stop-color="#9DBBD5"/>
<stop offset="0.631" stop-color="#588AB5"/>
<stop offset="0.745" stop-color="#326FA4"/>
<stop offset="0.799" stop-color="#2B6698"/>
<stop offset="0.897" stop-color="#174E78"/>
<stop offset="0.994" stop-color="#003152"/>
</radialGradient>
<radialGradient id="paint2_radial_1085_3610" cx="0" cy="0" r="1" gradientUnits="userSpaceOnUse" gradientTransform="translate(33.2389 36.1236) scale(58.0056 62.5954)">
<stop stop-color="#FFD540"/>
<stop offset="0.667" stop-color="#EC1C24"/>
<stop offset="0.994" stop-color="#760000"/>
</radialGradient>
<radialGradient id="paint3_radial_1085_3610" cx="0" cy="0" r="1" gradientUnits="userSpaceOnUse" gradientTransform="translate(37.633 86.3211) scale(7.68473 7.23998)">
<stop stop-color="#DDDFE0"/>
<stop offset="0.174" stop-color="#D9DBDC"/>
<stop offset="0.351" stop-color="#CDCFD0"/>
<stop offset="0.531" stop-color="#B8BABB"/>
<stop offset="0.711" stop-color="#9C9E9F"/>
<stop offset="0.891" stop-color="#78797B"/>
<stop offset="1" stop-color="#5E5F61"/>
</radialGradient>
<radialGradient id="paint4_radial_1085_3610" cx="0" cy="0" r="1" gradientUnits="userSpaceOnUse" gradientTransform="translate(60.4047 86.3211) scale(7.68473 7.23998)">
<stop stop-color="#DDDFE0"/>
<stop offset="0.174" stop-color="#D9DBDC"/>
<stop offset="0.351" stop-color="#CDCFD0"/>
<stop offset="0.531" stop-color="#B8BABB"/>
<stop offset="0.711" stop-color="#9C9E9F"/>
<stop offset="0.891" stop-color="#78797B"/>
<stop offset="1" stop-color="#5E5F61"/>
</radialGradient>
<radialGradient id="paint5_radial_1085_3610" cx="0" cy="0" r="1" gradientUnits="userSpaceOnUse" gradientTransform="translate(48.4712 52.5166) scale(9.29125 9.34359)">
<stop stop-color="#DDDFE0"/>
<stop offset="0.174" stop-color="#D9DBDC"/>
<stop offset="0.351" stop-color="#CDCFD0"/>
<stop offset="0.531" stop-color="#B8BABB"/>
<stop offset="0.711" stop-color="#9C9E9F"/>
<stop offset="0.891" stop-color="#78797B"/>
<stop offset="1" stop-color="#5E5F61"/>
</radialGradient>
<clipPath id="clip0_1085_3610">
<rect width="100" height="100" fill="white"/>
</clipPath>
</defs>
</svg>
