<svg width="100" height="100" viewBox="0 0 100 100" fill="none" xmlns="http://www.w3.org/2000/svg">
<g clip-path="url(#clip0_867_14517)">
<path d="M50.0004 0C22.3871 0 0 22.3845 0 49.9987C0 77.612 22.3871 99.9982 50.0004 99.9982C77.6138 99.9982 100 77.612 100 49.9987C100 22.3845 77.6129 0 50.0004 0ZM50.0004 93.5782C42.1439 93.5782 35.7742 88.33 35.7742 81.8579H64.2267C64.2267 88.3291 57.8569 93.5782 50.0004 93.5782ZM73.4976 77.9764H26.5007V69.4546H73.4984L73.4976 77.9764ZM73.329 65.0684H26.6348C26.4795 64.8893 26.3207 64.7128 26.1707 64.5311C21.3601 58.6899 20.2271 55.6405 19.1268 52.5328C19.1083 52.4305 24.9601 53.7284 29.1098 54.6619C29.1098 54.6619 31.2451 55.156 34.3669 55.7252C31.3695 52.2116 29.5898 47.7451 29.5898 43.1798C29.5898 33.1572 37.2769 24.3989 34.5036 17.3198C37.2028 17.5395 40.0898 23.0162 40.2848 31.5795C43.1542 27.6142 44.3551 20.3727 44.3551 15.9327C44.3551 11.3356 47.3843 5.99561 50.4143 5.81296C47.7134 10.2644 51.114 14.0806 54.1369 23.5474C55.2707 27.1033 55.126 33.0875 56.0013 36.8825C56.2916 29.0004 57.6469 17.4998 62.6472 13.5292C60.4414 18.5295 62.9737 24.7863 64.7058 27.7942C67.5002 32.6472 69.1943 36.3239 69.1943 43.2778C69.1943 47.9401 67.4728 52.3299 64.569 55.7613C67.8708 55.1419 70.1508 54.5834 70.1508 54.5834L80.8732 52.4913C80.8741 52.4905 79.3158 58.8981 73.329 65.0684Z" fill="#E6522C"/>
</g>
<defs>
<clipPath id="clip0_867_14517">
<rect width="100" height="100" fill="white"/>
</clipPath>
</defs>
</svg>
