<svg width="100" height="100" viewBox="0 0 100 100" fill="none" xmlns="http://www.w3.org/2000/svg">
<g clip-path="url(#clip0_1085_3627)">
<path d="M99.9961 49.9965C99.9961 77.6129 77.6141 99.9981 49.9977 99.9981C22.3828 99.9988 0 77.6176 0 50.0004C0 22.384 22.382 0.00195312 49.9984 0.00195312C77.6149 0.00195312 99.9961 22.3848 99.9961 50.0004" fill="#ED163A"/>
<path d="M75.8094 25.8833L58.8024 25.727L48.8618 15.7817L37.1899 23.5356L39.2055 25.5474L34.479 25.5083L18.425 52.5114H12.136L16.0813 56.4646L12.1047 63.1599L48.936 99.9856L50.0016 99.9974C77.5907 99.9974 99.961 77.6466 100 50.07L75.8126 25.8794" fill="#D51C2F"/>
<path d="M25.3626 53.6532C25.3626 47.12 27.9579 40.8543 32.5776 36.2346C37.1973 31.6149 43.463 29.0196 49.9962 29.0196C56.5294 29.0196 62.7951 31.6149 67.4148 36.2346C72.0345 40.8543 74.6298 47.12 74.6298 53.6532H25.3626ZM80.7392 54.786V52.5126H87.8642C87.6004 43.2522 83.9392 34.4125 77.5782 27.6774L72.254 33.0017L70.6485 31.3923L75.9688 26.0681C69.2335 19.7076 60.3938 16.047 51.1337 15.7837V22.9087H48.8603V15.7837C39.6004 16.0472 30.761 19.7078 24.0259 26.0681L29.3501 31.3923L27.7407 33.0017L22.4165 27.6774C16.0558 34.4126 12.3949 43.2523 12.1313 52.5126H19.2563V54.786H12.0962V63.1251H87.8907V54.7899H80.7384" fill="#F5F5F5"/>
</g>
<defs>
<clipPath id="clip0_1085_3627">
<rect width="100" height="100" fill="white"/>
</clipPath>
</defs>
</svg>
