<svg width="100" height="100" viewBox="0 0 100 100" fill="none" xmlns="http://www.w3.org/2000/svg">
<path d="M96.243 50.0022L100 54.128C99.7901 54.3468 99.538 54.5207 99.259 54.6393C98.9799 54.7578 98.6797 54.8186 98.3766 54.8178C98.0601 54.8188 97.747 54.753 97.4577 54.6247C97.1684 54.4964 96.9094 54.3085 96.6977 54.0733L94.6195 51.7905L92.5414 54.0733C92.1297 54.528 91.5258 54.8178 90.8633 54.8178C90.5603 54.8172 90.2605 54.7559 89.9817 54.6374C89.7028 54.5189 89.4506 54.3457 89.2398 54.128L92.9961 50.0022L89.2398 45.8733C89.671 45.4433 90.2544 45.2008 90.8633 45.1983C91.5375 45.1983 92.1023 45.4733 92.5289 45.9436L94.6195 48.2256L96.6977 45.9436C96.9093 45.7083 97.1683 45.5202 97.4576 45.3918C97.7469 45.2634 98.06 45.1974 98.3766 45.1983C99.0078 45.1983 99.5875 45.4608 100 45.8733L96.243 50.0022ZM59.7109 50.0022L63.4672 54.128C63.2573 54.3468 63.0052 54.5207 62.7262 54.6393C62.4471 54.7578 62.1469 54.8186 61.8438 54.8178C61.5274 54.8187 61.2145 54.7528 60.9253 54.6245C60.6361 54.4962 60.3773 54.3084 60.1656 54.0733L58.0875 51.7905L56.0094 54.0733C55.797 54.3077 55.5379 54.4951 55.2487 54.6233C54.9596 54.7515 54.6468 54.8178 54.3305 54.8178C54.0275 54.8172 53.7277 54.7559 53.4489 54.6374C53.17 54.5189 52.9178 54.3457 52.707 54.128L56.4633 50.0022L52.707 45.8733C53.1382 45.4433 53.7216 45.2008 54.3305 45.1983C55.0047 45.1983 55.5695 45.4733 55.9969 45.9436L58.0875 48.2256L60.1656 45.9436C60.3772 45.7084 60.636 45.5204 60.9252 45.392C61.2144 45.2636 61.5274 45.1976 61.8438 45.1983C62.4789 45.1983 63.0547 45.4608 63.4672 45.8733L59.7109 50.0022ZM4.38516 49.9991L0 54.8178C0.251352 55.0775 0.553331 55.2828 0.887242 55.4211C1.22115 55.5593 1.57989 55.6275 1.94123 55.6215C2.30258 55.6155 2.65885 55.5354 2.98798 55.3861C3.31711 55.2369 3.6121 55.0216 3.85469 54.7538L6.28047 52.0866L8.17578 49.9991L6.28047 47.9272L3.85469 45.26C3.60713 44.9862 3.30477 44.7675 2.96721 44.6181C2.62965 44.4687 2.26445 44.3919 1.89531 44.3928C1.54315 44.3931 1.19449 44.4628 0.869274 44.5979C0.544062 44.7331 0.248673 44.931 0 45.1803L4.38516 49.9991ZM12.9367 49.9991L17.3219 54.8178C17.0705 55.0775 16.7685 55.2828 16.4346 55.4211C16.1007 55.5593 15.742 55.6275 15.3806 55.6215C15.0193 55.6155 14.663 55.5354 14.3339 55.3861C14.0048 55.2369 13.7098 55.0216 13.4672 54.7538L11.0414 52.0866L9.14609 49.9991L11.0414 47.9272L13.4672 45.26C13.7147 44.9862 14.0171 44.7675 14.3547 44.6181C14.6922 44.4687 15.0574 44.3919 15.4266 44.3928C16.1648 44.3928 16.8398 44.6975 17.3219 45.1803L12.9367 49.9991Z" fill="#E57000"/>
<path d="M85.4555 48.2C85.4555 47.6078 84.8509 47.6078 84.8509 47.6078H81.2594C80.6548 47.6078 80.6548 48.2 80.6548 48.2V51.8047C80.6548 52.4117 81.2594 52.4117 81.2594 52.4117H84.8509C85.4555 52.4117 85.4555 51.8047 85.4555 51.8047V48.2ZM87.8633 47.6078V52.4117C87.8647 52.7279 87.8034 53.0413 87.6828 53.3336C87.5623 53.626 87.3849 53.8915 87.161 54.1148C86.7078 54.5656 86.0947 54.8189 85.4555 54.8195H80.6548C80.0141 54.8195 79.4009 54.5664 78.9493 54.1148C78.7254 53.8915 78.548 53.626 78.4275 53.3336C78.3069 53.0413 78.2456 52.7279 78.2469 52.4117V47.6086C78.2458 47.2915 78.3072 46.9772 78.4277 46.6839C78.5481 46.3906 78.7253 46.1239 78.9489 45.899C79.1725 45.6742 79.4383 45.4957 79.731 45.3738C80.0238 45.2518 80.3377 45.1888 80.6548 45.1883H85.4555C86.0957 45.1899 86.7089 45.4457 87.1604 45.8995C87.612 46.3532 87.8648 46.9677 87.8633 47.6078ZM76.8712 46.0945V54.8195C76.2328 54.8187 75.6209 54.5647 75.1695 54.1134C74.7181 53.662 74.4642 53.05 74.4634 52.4117V47.8008C74.4634 47.6781 74.3774 47.5961 74.268 47.5961C74.1852 47.5961 74.118 47.6508 74.0751 47.7054L71.4079 53.6078C71.3565 53.7106 71.2777 53.7972 71.1803 53.8581C71.0828 53.919 70.9705 53.9519 70.8555 53.9531C70.7401 53.9494 70.6279 53.9141 70.5311 53.8512C70.4343 53.7882 70.3566 53.7 70.3063 53.5961L67.636 47.7054C67.6174 47.6745 67.5917 47.6484 67.561 47.6293C67.5303 47.6103 67.4955 47.5989 67.4594 47.5961C67.3344 47.5961 67.2516 47.6781 67.2516 47.8008V52.4117C67.2508 53.05 66.9969 53.662 66.5455 54.1134C66.0941 54.5647 65.4822 54.8187 64.8438 54.8195V46.0945C64.8438 45.6 65.2438 45.1883 65.7532 45.1883H67.2516C68.2282 45.1883 69.0829 45.7804 69.4516 46.6312V46.6039L70.8555 49.7133L72.2751 46.6039L72.2594 46.6312C72.6438 45.7797 73.4837 45.1883 74.4626 45.1883H75.9766C76.4712 45.1883 76.8712 45.6 76.8712 46.0945ZM48.9219 48.2C48.9219 47.6078 48.318 47.6078 48.318 47.6078H44.7266C44.1227 47.6078 44.1227 48.2 44.1227 48.2V51.8047C44.1227 52.4117 44.7266 52.4117 44.7266 52.4117H48.3188C48.9227 52.4117 48.9227 51.8047 48.9227 51.8047L48.9219 48.2ZM51.3298 47.6078V52.4117C51.3313 52.7279 51.27 53.0412 51.1496 53.3335C51.0292 53.6259 50.852 53.8914 50.6282 54.1148C50.1748 54.5658 49.5614 54.8191 48.9219 54.8195H44.122C43.4813 54.8195 42.8673 54.5664 42.4157 54.1148C42.1919 53.8914 42.0147 53.6259 41.8943 53.3335C41.7739 53.0412 41.7126 52.7279 41.7141 52.4117V47.6086C41.713 47.2915 41.7744 46.9772 41.8949 46.6839C42.0153 46.3906 42.1924 46.1239 42.4161 45.899C42.6397 45.6742 42.9055 45.4957 43.1982 45.3738C43.491 45.2518 43.8048 45.1888 44.122 45.1883H48.9219C49.239 45.1887 49.5529 45.2516 49.8456 45.3735C50.1383 45.4954 50.4041 45.6738 50.6278 45.8985C50.8514 46.1233 51.0285 46.3899 51.149 46.6832C51.2695 46.9765 51.3309 47.2907 51.3298 47.6078ZM37.3219 49.7015C37.9298 49.7015 37.9298 49.1093 37.9298 49.1093V48.2C37.9298 47.6078 37.3219 47.6078 37.3219 47.6078H33.1266V49.7015H37.3219ZM38.3962 51.7765L40.3376 54.5445C39.9947 54.7271 39.6119 54.8216 39.2235 54.8195C38.836 54.8219 38.4539 54.7291 38.1106 54.5493C37.7673 54.3695 37.4734 54.1082 37.2548 53.7883L35.8641 51.8039H33.1259V52.4117C33.125 53.05 32.8711 53.662 32.4197 54.1134C31.9683 54.5647 31.3564 54.8187 30.718 54.8195V46.0945C30.718 45.6 31.118 45.1883 31.6126 45.1883H37.9298C38.5699 45.1899 39.1831 45.4457 39.6347 45.8995C40.0862 46.3532 40.339 46.9677 40.3376 47.6078V49.4125C40.3359 49.9699 40.1418 50.5096 39.7881 50.9404C39.4343 51.3712 38.9426 51.6665 38.3962 51.7765ZM26.3298 50.3062C26.9219 50.3062 26.9219 49.7015 26.9219 49.7015V48.2C26.9219 47.6078 26.3298 47.6078 26.3298 47.6078H22.1063V50.3062H26.3298ZM29.3423 47.6078V50.0039C29.3414 50.3209 29.2782 50.6347 29.1561 50.9272C29.034 51.2198 28.8555 51.4855 28.6308 51.7091C28.406 51.9326 28.1394 52.1098 27.8462 52.2303C27.553 52.3509 27.239 52.4125 26.9219 52.4117H22.1063C22.1076 52.7272 22.0465 53.04 21.9267 53.3319C21.8068 53.6238 21.6306 53.8892 21.408 54.1129C21.1854 54.3366 20.9209 54.5141 20.6295 54.6354C20.3382 54.7566 20.0258 54.8192 19.7102 54.8195V46.0945C19.7102 45.6 20.1227 45.1883 20.6048 45.1883H26.9219C27.5636 45.1887 28.1789 45.4437 28.6326 45.8973C29.0864 46.351 29.3416 46.9661 29.3423 47.6078ZM10.3876 47.6109L8.6571 49.5187L6.92664 47.6109L2.92664 43.2133C3.38582 42.7552 4.00772 42.4976 4.65632 42.4968C5.37351 42.4968 5.97429 42.7898 6.42976 43.2867L8.6571 45.7195L10.8696 43.2867C11.0956 43.0367 11.3717 42.8372 11.68 42.7011C11.9882 42.565 12.3217 42.4954 12.6587 42.4968C13.3321 42.4968 13.9485 42.7742 14.3884 43.2133L10.3876 47.6109ZM10.3876 52.3906L8.6571 50.4828L6.92664 52.3906L2.92664 56.7883C3.38582 57.2463 4.00772 57.5039 4.65632 57.5047C5.37351 57.5047 5.97429 57.2117 6.42976 56.7148L8.6571 54.282L10.8727 56.7148C11.0983 56.9643 11.3738 57.1635 11.6813 57.2996C11.9889 57.4356 12.3216 57.5055 12.6579 57.5047C12.9793 57.5047 13.2976 57.4414 13.5945 57.3183C13.8914 57.1953 14.1612 57.0149 14.3884 56.7875L10.3876 52.3906Z" fill="black"/>
</svg>
