<svg width="100" height="100" viewBox="0 0 100 100" fill="none" xmlns="http://www.w3.org/2000/svg">
<path d="M17.7083 1H82.2917C92.0833 1 100 8.91667 100 18.7083V80.7917C100 90.5833 92.0833 98.5 82.2917 98.5H17.7083C7.91667 98.5 0 90.5833 0 80.7917V18.7083C0 8.91667 7.91667 1 17.7083 1Z" fill="#001E36"/>
<path d="M22.5 69.3751V26.5001C22.5 26.2084 22.625 26.0417 22.9167 26.0417C23.625 26.0417 24.2917 26.0417 25.25 26.0001C26.25 25.9584 27.2917 25.9584 28.4167 25.9167C29.5417 25.8751 30.75 25.8751 32.0417 25.8334C33.3333 25.7917 34.5833 25.7917 35.8333 25.7917C39.25 25.7917 42.0833 26.2084 44.4167 27.0834C46.5 27.7917 48.4167 28.9584 50 30.5001C51.3333 31.8334 52.375 33.4584 53.0417 35.2501C53.6667 37.0001 54 38.7917 54 40.6667C54 44.2501 53.1667 47.2084 51.5 49.5417C49.8333 51.8751 47.5 53.6251 44.7917 54.6251C41.9583 55.6667 38.8333 56.0417 35.4167 56.0417C34.4167 56.0417 33.75 56.0417 33.3333 56.0001C32.9167 55.9584 32.3333 55.9584 31.5417 55.9584V69.3334C31.5833 69.6251 31.375 69.8751 31.0833 69.9167C31.0417 69.9167 31 69.9167 30.9167 69.9167H23C22.6667 69.9167 22.5 69.7501 22.5 69.3751ZM31.5833 34.0834V48.0834C32.1667 48.1251 32.7083 48.1667 33.2083 48.1667H35.4167C37.0417 48.1667 38.6667 47.9167 40.2083 47.4167C41.5417 47.0417 42.7083 46.2501 43.625 45.2084C44.5 44.1667 44.9167 42.7501 44.9167 40.9167C44.9583 39.6251 44.625 38.3334 43.9583 37.2084C43.25 36.1251 42.25 35.2917 41.0417 34.8334C39.5 34.2084 37.8333 33.9584 36.125 34.0001C35.0417 34.0001 34.0833 34.0001 33.2917 34.0417C32.4583 34.0001 31.875 34.0417 31.5833 34.0834Z" fill="#31A8FF"/>
<path d="M80 45.5417C78.75 44.875 77.4166 44.4167 76 44.125C74.4583 43.7917 72.9166 43.5833 71.3333 43.5833C70.5 43.5417 69.625 43.6667 68.8333 43.875C68.2916 44 67.8333 44.2917 67.5416 44.7083C67.3333 45.0417 67.2083 45.4583 67.2083 45.8333C67.2083 46.2083 67.375 46.5833 67.625 46.9167C68 47.375 68.5 47.75 69.0416 48.0417C70 48.5417 71 49 72 49.4167C74.25 50.1667 76.4166 51.2083 78.4166 52.4583C79.7916 53.3333 80.9166 54.5 81.7083 55.9167C82.375 57.25 82.7083 58.7083 82.6666 60.2083C82.7083 62.1667 82.125 64.125 81.0416 65.75C79.875 67.4167 78.25 68.7083 76.375 69.4583C74.3333 70.3333 71.8333 70.7917 68.8333 70.7917C66.9166 70.7917 65.0416 70.625 63.1666 70.25C61.7083 70 60.25 69.5417 58.9166 68.9167C58.625 68.75 58.4166 68.4583 58.4583 68.125V60.875C58.4583 60.75 58.5 60.5833 58.625 60.5C58.75 60.4167 58.875 60.4583 59 60.5417C60.625 61.5 62.3333 62.1667 64.1666 62.5833C65.75 63 67.4166 63.2083 69.0833 63.2083C70.6666 63.2083 71.7916 63 72.5416 62.625C73.2083 62.3333 73.6666 61.625 73.6666 60.875C73.6666 60.2917 73.3333 59.75 72.6666 59.2083C72 58.6667 70.625 58.0417 68.5833 57.25C66.4583 56.5 64.5 55.5 62.6666 54.25C61.375 53.3333 60.2916 52.125 59.5 50.7083C58.8333 49.375 58.5 47.9167 58.5416 46.4583C58.5416 44.6667 59.0416 42.9583 59.9583 41.4167C61 39.75 62.5416 38.4167 64.3333 37.5833C66.2916 36.5833 68.75 36.125 71.7083 36.125C73.4166 36.125 75.1666 36.25 76.875 36.5C78.125 36.6667 79.3333 37 80.4583 37.4583C80.625 37.5 80.7916 37.6667 80.875 37.8333C80.9166 38 80.9583 38.1667 80.9583 38.3333V45.125C80.9583 45.2917 80.875 45.4583 80.75 45.5417C80.375 45.625 80.1666 45.625 80 45.5417Z" fill="#31A8FF"/>
</svg>
