<svg width="100" height="100" viewBox="0 0 100 100" fill="none" xmlns="http://www.w3.org/2000/svg">
<g clip-path="url(#clip0_1085_3664)">
<path d="M99.3742 0L67.2914 26.8734L64.7922 33.3344C64.3742 33.1758 63.9594 33.0719 63.593 33.0719C63.1761 33.0702 62.7632 33.1525 62.3789 33.314C61.9946 33.4755 61.6468 33.7128 61.3563 34.0117C60.7559 34.6124 60.4186 35.4269 60.4186 36.2762C60.4186 37.1255 60.7559 37.94 61.3563 38.5406C61.6574 38.8404 62.0147 39.0777 62.4078 39.239C62.8009 39.4003 63.222 39.4824 63.6469 39.4805C64.072 39.4826 64.4934 39.4006 64.8868 39.2393C65.2801 39.078 65.6378 38.8406 65.9391 38.5406C66.8789 37.6039 67.1383 36.1969 66.6164 35.0523L73.0773 32.5531L99.9484 0.573438L99.3742 0ZM67.9883 4.28594C65.1609 4.34297 62.1922 4.71641 59.1172 5.41641C56.0438 6.09349 52.9701 7.08333 49.8961 8.38594C35 2.29141 20.4164 2.96953 11.7188 11.6672C4.99844 18.3867 2.76172 28.7508 5.46875 40.7805C6.14609 43.8539 7.18672 46.9266 8.43828 49.9477C3.22891 62.7586 2.96953 75.3625 8.48984 84.1672L11.2484 80.8867C7.50078 74.0633 7.50078 64.8438 10.7813 55.1055C13.3852 60.1555 16.7164 65.1031 20.675 69.6867L23.3328 66.5617C18.9047 61.3008 15.3648 55.6758 12.8102 49.9477C16.1461 42.4461 21.3 34.8961 28.1242 28.0727C34.7922 21.4047 42.2906 16.1969 49.9477 12.757C55.5719 15.2602 61.2477 18.7492 66.6133 23.2813L69.7383 20.6234C65.2552 16.7912 60.3452 13.4886 55.1055 10.7813C56.7106 10.2223 58.3454 9.75259 60.0023 9.37422C68.2297 7.50078 75.4195 8.175 80.9406 11.1961L84.2211 8.4375C79.7438 5.57188 74.2078 4.16016 67.9883 4.28594ZM31.7203 8.33594C35.8398 8.39453 40.2602 9.20703 44.7906 10.7297C37.918 14.2695 31.1984 19.168 25.2078 25.207C19.1133 31.3016 14.2703 38.0211 10.782 44.7898C10.2602 43.1758 9.73828 41.5609 9.375 39.8945C7.03125 29.2164 8.85313 20.2078 14.5328 14.5313C18.8281 10.2336 24.8547 8.23672 31.7203 8.33438V8.33594ZM91.3547 15.6266L88.6445 18.9578C90.9367 23.1781 91.8242 28.4367 91.3023 34.3234C92.4756 36.1588 93.5534 38.0535 94.5313 40C96.5117 30.4695 95.4164 22.032 91.3547 15.6266ZM49.9484 24.7406C36.0938 24.7406 24.793 36.0414 24.793 49.8961C24.793 54.7391 26.2 59.2711 28.5953 63.1258L29.9461 62.6039C30.157 61.2492 30.7805 60.0008 31.7727 58.957C31.9805 58.7492 32.1859 58.5938 32.4484 58.3867C31.1519 55.744 30.4746 52.8405 30.468 49.8969C30.468 39.1672 39.2188 30.4172 49.9492 30.4172C52.8933 30.4173 55.7979 31.0939 58.4391 32.3945C58.5945 32.1867 58.75 31.9273 58.9578 31.7203C59.95 30.7281 61.1977 30.1063 62.6047 29.8953L63.1781 28.5438C59.3234 26.1453 54.7922 24.7414 49.9484 24.7414V24.7406ZM79.325 30.1578L76.6149 33.2828C81.0945 38.6445 84.6352 44.3242 87.1375 49.8969L87.0828 50.0523C83.6461 57.7086 78.3852 65.207 71.8758 71.7195C62.293 81.3024 50.9898 87.918 40 90.418C31.7727 92.2914 24.5828 91.6141 19.0617 88.593L15.7813 91.3547C20.1055 94.1133 25.3641 95.5203 31.2508 95.5203C34.3242 95.5203 37.5523 95.157 40.8852 94.3758C52.6039 91.718 64.6367 84.7383 74.7414 74.6367C80.6773 68.6977 85.6273 61.9781 89.2188 55.0508C93.2805 67.1359 92.2922 78.4367 85.4164 85.3117C80.2102 90.5211 72.0313 92.4469 62.6047 90.9359C60.8688 92.0175 59.0781 93.0087 57.2398 93.9055C61.25 94.9492 65.1039 95.5195 68.6992 95.5195C76.6156 95.5195 83.4391 93.0203 88.282 88.1773C100.886 75.5734 96.668 50.5227 79.325 30.1578ZM71.3539 36.6672L70.0023 37.1891C69.7914 38.5406 69.1695 39.7922 68.1773 40.8328C67.9695 41.0438 67.7625 41.1977 67.5 41.4047C68.7516 43.9563 69.4805 46.8734 69.4805 49.8945C69.4289 60.6766 60.6789 69.3758 49.9492 69.3758C46.8758 69.3758 44.0102 68.6461 41.4594 67.3953C41.3039 67.6063 41.1484 67.8656 40.9375 68.0727C39.9535 69.0602 38.6742 69.6999 37.2938 69.8945L36.7719 71.2492C40.6258 73.6453 45.1586 75.0516 50.0016 75.0516C63.8563 75.0516 75.157 63.7508 75.157 49.8961C75.157 45.0531 73.75 40.5211 71.3547 36.6664L71.3539 36.6672ZM49.9492 37.8117C43.2813 37.8117 37.8641 43.2289 37.8641 49.8969C37.8672 53.1008 39.1415 56.1726 41.4073 58.4378C43.6732 60.7031 46.7453 61.9766 49.9492 61.9789C53.1526 61.9758 56.2239 60.7019 58.4891 58.4367C60.7542 56.1716 62.0282 53.1003 62.0313 49.8969C62.0313 43.2289 56.6141 37.8117 49.9492 37.8117ZM36.3008 60.3641C35.8764 60.362 35.4557 60.4436 35.0629 60.6044C34.6701 60.7651 34.3129 61.0018 34.0117 61.3008C33.0719 62.2406 32.8125 63.6445 33.3344 64.7922L26.8734 67.2914L0 99.2703L0.573438 99.8438L32.5531 72.9672L35.1047 66.5094C35.5195 66.6648 35.9375 66.7688 36.3563 66.7688C36.7729 66.7709 37.1857 66.689 37.57 66.5281C37.9542 66.3671 38.3022 66.1304 38.593 65.832C38.8907 65.5346 39.1269 65.1813 39.2881 64.7925C39.4493 64.4037 39.5322 63.9869 39.5322 63.566C39.5322 63.1451 39.4493 62.7284 39.2881 62.3395C39.1269 61.9507 38.8907 61.5975 38.593 61.3C38.2911 61.001 37.9334 60.7643 37.5401 60.6036C37.1468 60.4429 36.7257 60.362 36.3008 60.3641ZM33.3867 76.5109L30.2102 79.218C33.0211 81.6133 35.8867 83.75 38.9078 85.6789C40 85.2609 42.3961 84.3242 43.4398 83.6984C39.7414 81.5625 36.7719 79.3773 33.3875 76.5117L33.3867 76.5109Z" fill="#2C3E50"/>
</g>
<defs>
<clipPath id="clip0_1085_3664">
<rect width="100" height="100" fill="white"/>
</clipPath>
</defs>
</svg>
