<svg width="100" height="100" viewBox="0 0 100 100" fill="none" xmlns="http://www.w3.org/2000/svg">
<g clip-path="url(#clip0_1085_3666)">
<path d="M18.8719 84.7968C22.5704 82.6608 22.5766 75.7484 18.8876 69.3546C15.1946 62.964 9.20396 59.5124 5.50474 61.646C1.80943 63.7819 1.80005 70.6944 5.49302 77.0882C9.18287 83.4812 15.1727 86.9335 18.8719 84.7968Z" fill="#F26E7E"/>
<path d="M94.5154 77.0962C98.2053 70.7056 98.199 63.7908 94.4998 61.6572C90.8045 59.5212 84.8139 62.9728 81.1209 69.3626C77.4318 75.7564 77.4381 82.6681 81.1365 84.8048C84.835 86.9415 90.8256 83.49 94.5154 77.0962Z" fill="#893390"/>
<path d="M44.0764 99.3681C47.7748 97.2322 47.7811 90.3197 44.0889 83.9259C40.399 77.5322 34.4084 74.0838 30.71 76.2173C27.0107 78.3533 27.0045 85.2658 30.6975 91.6595C34.3873 98.0525 40.3779 101.505 44.0764 99.3681Z" fill="#F26E7E"/>
<path d="M69.3182 91.6406C73.008 85.2469 73.0018 78.3352 69.3025 76.1984C65.6041 74.0656 59.6166 77.5164 55.9236 83.907C52.2346 90.3008 52.2408 97.2125 55.9393 99.3492C59.6346 101.486 65.6252 98.0344 69.3182 91.6406Z" fill="#893390"/>
<path d="M49.9875 15.4664C57.3703 15.4664 63.3539 12.0023 63.3539 7.73359C63.3539 3.46016 57.3695 0 49.9875 0C42.6055 0 36.6211 3.46094 36.6211 7.73437C36.6211 12.0031 42.6055 15.4664 49.9875 15.4664Z" fill="#F6BF29"/>
<path d="M18.8632 55.6667C22.5616 53.5307 22.5679 46.6182 18.8788 40.2245C15.1858 33.8338 9.19522 30.3823 5.49991 32.5159C1.80069 34.6518 1.79444 41.5643 5.48428 47.9581C9.17413 54.3518 15.1648 57.8034 18.8632 55.6667Z" fill="#F26E7E"/>
<path d="M24.7893 29.9977C32.1721 29.9977 38.1557 26.5336 38.1557 22.2649C38.1557 17.9961 32.1713 14.5305 24.7893 14.5305C17.4072 14.5305 11.4229 17.9954 11.4229 22.2649C11.4229 26.5344 17.4072 29.9977 24.7893 29.9977Z" fill="#F6BF29"/>
<path d="M94.5003 47.9744C98.1901 41.5838 98.187 34.6689 94.4878 32.5353C90.7894 30.3994 84.7987 33.851 81.1058 40.2408C77.4167 46.6346 77.423 53.5494 81.1214 55.683C84.8198 57.8197 90.8105 54.3682 94.5003 47.9744Z" fill="#893390"/>
<path d="M75.2194 29.9977C82.6022 29.9977 88.5858 26.5336 88.5858 22.2649C88.5858 17.9961 82.6015 14.5305 75.2194 14.5305C67.8374 14.5305 61.853 17.9954 61.853 22.2649C61.853 26.5344 67.8374 29.9977 75.2194 29.9977Z" fill="#F6BF29"/>
<path d="M44.067 70.238C47.7655 68.1021 47.7717 61.1896 44.0827 54.7958C40.3897 48.4021 34.3991 44.9536 30.7038 47.0872C27.0045 49.2232 26.9983 56.1357 30.6881 62.5294C34.378 68.9232 40.3686 72.3747 44.067 70.238Z" fill="#F26E7E"/>
<path d="M69.3023 62.521C72.9953 56.1304 72.9859 49.2156 69.2898 47.082C65.5914 44.946 59.6007 48.3976 55.9078 54.7874C52.2187 61.1812 52.225 68.0929 55.9234 70.2296C59.6218 72.3663 65.6125 68.9148 69.3023 62.521Z" fill="#893390"/>
<path d="M49.9875 44.5638C57.3703 44.5638 63.3539 41.0998 63.3539 36.831C63.3539 32.5576 57.3695 29.0974 49.9875 29.0974C42.6055 29.0974 36.6211 32.5584 36.6211 36.831C36.6211 41.0998 42.6055 44.5638 49.9875 44.5638Z" fill="#F6BF29"/>
</g>
<defs>
<clipPath id="clip0_1085_3666">
<rect width="100" height="100" fill="white"/>
</clipPath>
</defs>
</svg>
