<svg width="100" height="100" viewBox="0 0 100 100" fill="none" xmlns="http://www.w3.org/2000/svg">
<path d="M82.8203 56.0646H17.0781V52.3576C17.0781 51.1614 17.5533 50.0142 18.3991 49.1684C19.2449 48.3226 20.3921 47.8474 21.5883 47.8474H78.3086C78.9009 47.8473 79.4875 47.9639 80.0348 48.1905C80.5821 48.4171 81.0794 48.7493 81.4983 49.1681C81.9171 49.5869 82.2494 50.0842 82.4761 50.6314C82.7028 51.1787 82.8195 51.7652 82.8195 52.3576L82.8203 56.0646Z" fill="#DFDEDF"/>
<path d="M78.2398 99.0602H21.6578C20.4433 99.06 19.2785 98.5775 18.4197 97.7187C17.5609 96.8598 17.0783 95.6951 17.0781 94.4806V56.0649H82.8203V94.4806C82.8205 95.0821 82.7022 95.6778 82.472 96.2336C82.2419 96.7893 81.9045 97.2943 81.4791 97.7196C81.0537 98.1449 80.5487 98.4823 79.9929 98.7123C79.4371 98.9423 78.8414 99.0606 78.2398 99.0602Z" fill="white"/>
<path d="M71.7437 34.7096L79.7882 30.826V26.9424L61.2023 18.0674L79.7882 8.49707V4.75098L72.021 1.14551L50.0156 12.1018L27.6382 1.14551L20.4273 5.0291V8.35723L37.9023 17.9275L20.4265 26.8041V30.826L27.9164 34.7088L50.107 23.3361L71.7437 34.7096Z" fill="#00D8A2"/>
<path d="M27.8679 0.0545707C27.7959 0.0185532 27.7166 -0.000134922 27.6361 7.33282e-07C27.5557 0.000136389 27.4764 0.019092 27.4046 0.055352L19.4569 4.09598C19.3724 4.13912 19.3014 4.20477 19.2518 4.28569C19.2021 4.3666 19.1758 4.45965 19.1757 4.55457V8.70301C19.1757 8.8991 19.2866 9.07801 19.4616 9.16551L25.0882 11.946L23.9843 24.0147L19.5413 26.2202C19.4567 26.2623 19.3853 26.3268 19.3349 26.4067C19.2844 26.4866 19.2569 26.5788 19.2554 26.6733L19.1819 30.7514C19.1802 30.8481 19.2056 30.9433 19.2553 31.0262C19.3051 31.109 19.3771 31.1763 19.4632 31.2202L23.1522 33.0866L22.9335 35.4796L17.9054 48.5171C17.007 49.4515 16.5053 50.6974 16.5054 51.9936V94.9546C16.5066 96.292 17.0384 97.5744 17.9839 98.5202C18.9295 99.4661 20.2117 99.9982 21.5491 99.9999H78.4507C79.7881 99.9982 81.0703 99.4661 82.0159 98.5202C82.9615 97.5744 83.4932 96.292 83.4944 94.9546V51.9944C83.4945 50.7715 83.0477 49.5907 82.2382 48.6741L77.0929 32.9554L80.2569 31.4241C80.344 31.3817 80.4174 31.3156 80.4687 31.2334C80.52 31.1511 80.547 31.0561 80.5468 30.9593V26.6975C80.5468 26.6013 80.5199 26.507 80.4691 26.4252C80.4183 26.3435 80.3456 26.2776 80.2593 26.235L76.2257 24.253L75.2148 11.7014L80.264 9.16551C80.3492 9.1224 80.4207 9.05647 80.4707 8.97509C80.5206 8.89371 80.5469 8.80005 80.5468 8.70457V4.62254C80.5465 4.52805 80.5203 4.43544 80.471 4.35484C80.4216 4.27424 80.3511 4.20875 80.2671 4.16551L72.2523 0.058477C72.1798 0.0211987 72.0995 0.00162129 72.0181 0.00134969C71.9366 0.00107809 71.8562 0.02012 71.7835 0.0569145L50.246 10.9866C50.1745 11.0227 50.0955 11.0417 50.0153 11.042C49.9352 11.0422 49.8561 11.0238 49.7843 10.9882L27.8679 0.0545707ZM27.6437 1.8866L50.0155 13.4843L72.014 1.89051L77.6155 4.76004L57.246 15.01C56.4312 15.4202 56.4335 16.5827 57.2483 16.9905L77.4077 27.0811L72.1819 29.7897L50.0155 18.4296L27.4585 30.0194L22.3062 27.0616L43.1327 16.7093C43.9577 16.2999 43.9522 15.121 43.1218 14.7202V14.7218L22.2327 4.63582L27.6437 1.8866ZM78.8077 6.10848V7.95145L61.1202 16.8319V16.8304C61.0944 16.8147 59.2554 15.946 59.2554 15.946L78.8077 6.10848ZM21.1749 6.21785L40.6562 15.935L38.6866 16.7225L21.1749 8.05145V6.21785ZM72.8179 12.9054L73.6304 22.9796L63.078 17.7952L72.8179 12.9054ZM27.4741 13.1249L36.7187 17.6929L26.5968 22.7179L27.4741 13.1249ZM50.8851 21.2069L71.014 31.1522V33.1522L50.8851 22.8397V21.2085V21.2069ZM49.1452 21.21V22.8405L28.5062 33.2835V31.4429L49.1452 21.21ZM49.7827 24.5483C49.8549 24.5122 49.9346 24.4935 50.0153 24.4937C50.0961 24.494 50.1756 24.5132 50.2476 24.5499L71.5827 35.3983C71.6534 35.4342 71.7314 35.4533 71.8107 35.4541C71.89 35.4549 71.9683 35.4374 72.0397 35.403L74.5343 34.1944L75.5616 46.9499H24.3788L25.3772 36.0538L25.971 34.5147L27.7155 35.3968C27.7876 35.4332 27.8672 35.4521 27.9479 35.4521C28.0287 35.4521 28.1083 35.4332 28.1804 35.3968L49.7827 24.5483ZM20.9147 28.271L26.7663 31.6288V32.9671L20.9147 30.0061V28.271ZM78.8085 28.3139V30.1929L72.7523 33.1249V31.453L78.8085 28.3139ZM77.7257 42.8749L79.0726 46.9921C78.8665 46.9637 78.6587 46.9491 78.4507 46.9483H78.0522L77.7257 42.8749ZM22.1046 44.5311L21.8843 46.9483H21.5491C21.4211 46.9501 21.2931 46.9563 21.1655 46.9671L22.1046 44.5311ZM21.5499 48.4374H78.4507C79.393 48.438 80.2966 48.8128 80.9627 49.4794C81.6288 50.1459 82.003 51.0497 82.003 51.9921V55.3186H17.9968V51.9936C17.9966 51.0511 18.3707 50.1471 19.0368 49.4804C19.703 48.8137 20.6066 48.4388 21.5491 48.4382L21.5499 48.4374ZM22.0421 50.8694C21.7435 50.8694 21.4572 50.988 21.246 51.1991C21.0349 51.4103 20.9163 51.6966 20.9163 51.9952C20.9163 52.2938 21.0349 52.5801 21.246 52.7912C21.4572 53.0024 21.7435 53.121 22.0421 53.121C22.3407 53.121 22.627 53.0024 22.8381 52.7912C23.0493 52.5801 23.1679 52.2938 23.1679 51.9952C23.1679 51.6966 23.0493 51.4103 22.8381 51.1991C22.627 50.988 22.3407 50.8694 22.0421 50.8694ZM25.8897 50.8694C25.5912 50.8694 25.3048 50.988 25.0937 51.1991C24.8826 51.4103 24.764 51.6966 24.764 51.9952C24.764 52.2938 24.8826 52.5801 25.0937 52.7912C25.3048 53.0024 25.5912 53.121 25.8897 53.121C26.1883 53.121 26.4747 53.0024 26.6858 52.7912C26.8969 52.5801 27.0155 52.2938 27.0155 51.9952C27.0155 51.6966 26.8969 51.4103 26.6858 51.1991C26.4747 50.988 26.1883 50.8694 25.8897 50.8694ZM29.6179 50.8694C29.3193 50.8694 29.0329 50.988 28.8218 51.1991C28.6107 51.4103 28.4921 51.6966 28.4921 51.9952C28.4921 52.2938 28.6107 52.5801 28.8218 52.7912C29.0329 53.0024 29.3193 53.121 29.6179 53.121C29.9164 53.121 30.2028 53.0024 30.4139 52.7912C30.625 52.5801 30.7437 52.2938 30.7437 51.9952C30.7437 51.6966 30.625 51.4103 30.4139 51.1991C30.2028 50.988 29.9164 50.8694 29.6179 50.8694ZM17.9968 56.8093H82.003V94.9538C82.003 95.8961 81.6288 96.7999 80.9627 97.4665C80.2966 98.1331 79.393 98.5079 78.4507 98.5085H21.5491C20.6068 98.5079 19.7032 98.1331 19.0371 97.4665C18.371 96.7999 17.9968 95.8961 17.9968 94.9538V56.8093ZM21.8983 71.7655V80.3233H23.2851V77.0757H25.0757C25.271 77.0757 25.4559 77.06 25.6304 77.0288C25.8059 76.9975 25.9707 76.9514 26.1249 76.8905C26.4302 76.7707 26.7047 76.5838 26.928 76.3436C27.1536 76.1021 27.3256 75.8157 27.4327 75.503C27.4879 75.3431 27.5296 75.1723 27.5577 74.9905C27.5858 74.8093 27.6002 74.6173 27.6007 74.4147C27.6007 74.2142 27.5864 74.0233 27.5577 73.8421C27.5312 73.668 27.4888 73.4967 27.4312 73.3303C27.2705 72.8568 26.9597 72.4487 26.546 72.1678C26.4116 72.0772 26.2674 72.0017 26.1163 71.9428C25.958 71.8821 25.7938 71.8376 25.6265 71.81C25.4445 71.779 25.2602 71.7641 25.0757 71.7655H21.8983ZM57.2343 72.8124V74.5171H56.0265V75.7374H57.2351V78.0757C57.2351 78.2647 57.2473 78.441 57.2718 78.6046C57.2952 78.7686 57.3314 78.9205 57.3804 79.06C57.4288 79.2007 57.49 79.3288 57.564 79.4444C57.6374 79.56 57.7233 79.6642 57.8218 79.7569C57.9207 79.8507 58.0288 79.933 58.146 80.0038C58.2632 80.0746 58.3898 80.1337 58.5257 80.1811C58.6616 80.2285 58.8064 80.2642 58.9601 80.2882C59.1142 80.3116 59.2773 80.3233 59.4491 80.3233C59.5648 80.3233 59.6819 80.3147 59.8007 80.2975C59.9194 80.2809 60.0398 80.2553 60.1616 80.221C60.284 80.1861 60.408 80.1423 60.5335 80.0897C60.6595 80.0376 60.7874 79.9764 60.9171 79.9061L60.4874 78.6624C60.332 78.7472 60.1681 78.8153 59.9983 78.8655C59.8525 78.9079 59.7017 78.9307 59.5499 78.9335C59.485 78.9336 59.4202 78.9284 59.3562 78.9178C59.2984 78.9091 59.2418 78.8939 59.1874 78.8725C59.036 78.8125 58.9124 78.6983 58.8405 78.5522C58.8134 78.4993 58.7925 78.4435 58.778 78.3858C58.7608 78.3211 58.7478 78.2553 58.739 78.1889C58.7291 78.1138 58.7246 78.0381 58.7257 77.9624V75.7374H60.5671V74.5171H58.7265V72.8124H57.2343ZM23.2851 73.2139H25.0757C25.0986 73.2139 25.121 73.2145 25.1429 73.2155C25.2474 73.2194 25.3513 73.2338 25.453 73.2585L25.5101 73.2749C25.5293 73.2806 25.5476 73.2869 25.5647 73.2936C25.6345 73.3203 25.7009 73.3551 25.7624 73.3975C25.8087 73.428 25.8517 73.4634 25.8905 73.503L25.9304 73.5421C25.9775 73.5988 26.0206 73.6589 26.0593 73.7218L26.0851 73.7702L26.1093 73.8194C26.1243 73.8541 26.1382 73.8892 26.1507 73.9249L26.1679 73.9796L26.1843 74.0366L26.1968 74.096C26.2126 74.1787 26.2218 74.2626 26.2241 74.3468L26.2257 74.4147L26.2241 74.4819C26.2241 74.5038 26.2231 74.5257 26.221 74.5475L26.2147 74.6116C26.2104 74.6532 26.2044 74.6947 26.1968 74.7358L26.1843 74.7952L26.1679 74.8514C26.1413 74.9434 26.1049 75.0322 26.0593 75.1163C26.0316 75.1644 26.0002 75.2104 25.9655 75.2538L25.9304 75.2968V75.2983C25.83 75.4088 25.7046 75.4937 25.5647 75.546C25.5476 75.5527 25.5293 75.559 25.5101 75.5647L25.4538 75.5811C25.3735 75.6021 25.2913 75.6154 25.2085 75.621C25.1643 75.6249 25.12 75.627 25.0757 75.6272H23.2851V73.2139ZM38.971 74.3468C38.7845 74.3468 38.6062 74.36 38.4358 74.3866C38.2697 74.4117 38.1059 74.4501 37.946 74.5014C37.6399 74.6039 37.3559 74.7629 37.1085 74.9702V74.5171H35.6171V82.8421H37.1085V79.7132C37.2356 79.8147 37.3694 79.904 37.5101 79.9811C37.6512 80.0572 37.7996 80.1202 37.9554 80.1702C38.1106 80.2212 38.2726 80.2595 38.4413 80.285C38.6106 80.3111 38.7871 80.3241 38.971 80.3241C39.1575 80.3241 39.3379 80.3059 39.5124 80.2694C39.8626 80.1993 40.1938 80.0549 40.4835 79.846C40.7962 79.6236 41.0653 79.3455 41.2772 79.0257C41.3806 78.8661 41.467 78.6961 41.5351 78.5186C41.6038 78.3405 41.6549 78.1535 41.6882 77.9577C41.7226 77.7613 41.7395 77.5559 41.739 77.3413C41.7441 77.1346 41.7271 76.9279 41.6882 76.7249C41.6261 76.3431 41.486 75.9782 41.2765 75.653C41.0681 75.3276 40.7982 75.0461 40.4819 74.8241C40.3343 74.72 40.1765 74.6313 40.0108 74.5592C39.8491 74.4893 39.6805 74.4367 39.5077 74.4022C39.331 74.3666 39.1512 74.3486 38.971 74.3483V74.3468ZM46.2226 74.3468C46.0366 74.3468 45.8582 74.36 45.6874 74.3866C45.5216 74.4117 45.358 74.4501 45.1983 74.5014C44.892 74.6038 44.6077 74.7628 44.3601 74.9702V74.5171H42.8687V82.8421H44.3601V79.7132C44.4871 79.8147 44.6213 79.904 44.7624 79.9811C44.903 80.0572 45.0515 80.1202 45.2077 80.1702C45.3624 80.2212 45.5244 80.2595 45.6937 80.285C45.8629 80.3111 46.0392 80.3241 46.2226 80.3241C46.581 80.3241 46.9358 80.2516 47.2655 80.1108C47.427 80.0405 47.583 79.9522 47.7335 79.846C47.9687 79.6797 48.1798 79.4818 48.3608 79.2577C48.4797 79.1089 48.583 78.9485 48.6694 78.7788C48.7991 78.5197 48.8902 78.2431 48.9398 77.9577C48.9741 77.7613 48.9911 77.5559 48.9905 77.3413C48.9963 77.1346 48.9793 76.9279 48.9398 76.7249C48.8905 76.4384 48.7994 76.1607 48.6694 75.9007C48.6264 75.816 48.5794 75.7334 48.5288 75.653C48.4226 75.4892 48.3012 75.3356 48.1663 75.1944C48.0331 75.058 47.8877 74.934 47.7319 74.8241C47.4411 74.6153 47.1089 74.4715 46.7577 74.4022C46.5816 74.3662 46.4023 74.3481 46.2226 74.3483V74.3468ZM52.5819 74.3468C52.3757 74.3468 52.1783 74.3647 51.9897 74.4007C51.6198 74.4667 51.2677 74.6093 50.9562 74.8194C50.6345 75.0361 50.3585 75.3138 50.1437 75.6366C50.0376 75.7974 49.9488 75.9689 49.8788 76.1483C49.8067 76.332 49.7535 76.5226 49.7202 76.7171C49.6848 76.9155 49.6668 77.1238 49.6663 77.3421C49.6666 77.6511 49.7068 77.9589 49.7858 78.2577C49.8376 78.4431 49.9077 78.6229 49.9952 78.7944C50.127 79.0504 50.2984 79.284 50.503 79.4866C50.6416 79.6257 50.7884 79.747 50.9437 79.8507C51.2538 80.0604 51.6042 80.2033 51.9726 80.2702C52.1601 80.3056 52.3559 80.3233 52.5601 80.3233C52.7174 80.3233 52.8702 80.3142 53.0187 80.296C53.1671 80.2777 53.3103 80.2501 53.4483 80.2132C53.7206 80.1412 53.9809 80.0299 54.221 79.8827C54.4567 79.7362 54.6672 79.5526 54.8444 79.3389C54.9351 79.2306 55.0176 79.1137 55.0921 78.9882C55.1666 78.8626 55.2335 78.7277 55.2929 78.5835L53.9593 78.3022C53.8899 78.4212 53.805 78.5305 53.7069 78.6272C53.6127 78.7205 53.5072 78.7981 53.3905 78.86C53.2739 78.9225 53.1463 78.9694 53.0077 79.0007C52.8697 79.0319 52.7205 79.0473 52.5601 79.0468C52.4715 79.0468 52.3869 79.0389 52.3062 79.0233C52.1457 78.9926 51.9928 78.9308 51.8562 78.8413C51.6366 78.6981 51.4566 78.502 51.3327 78.271C51.2889 78.1902 51.2523 78.1058 51.2233 78.0186C51.1925 77.9265 51.1675 77.8326 51.1483 77.7374H55.4397V77.228C55.4316 77.0246 55.4076 76.8222 55.3679 76.6225C55.3285 76.4355 55.272 76.2524 55.1991 76.0757C55.0558 75.7271 54.8419 75.4119 54.571 75.1499C54.4359 75.0209 54.2895 74.9043 54.1335 74.8014C53.8316 74.6029 53.4933 74.4661 53.1382 74.3991C52.9544 74.365 52.7688 74.3475 52.5819 74.3468ZM64.0679 74.3468C63.8621 74.3468 63.6647 74.3647 63.4757 74.4007C63.1057 74.4667 62.7537 74.6093 62.4421 74.8194C62.2017 74.9819 61.9863 75.1788 61.803 75.4038C61.6187 75.6272 61.471 75.8785 61.3655 76.1483C61.2931 76.332 61.2397 76.5225 61.2062 76.7171C61.1707 76.9155 61.153 77.1238 61.153 77.3421C61.1533 77.6511 61.1935 77.9589 61.2726 78.2577C61.3243 78.4431 61.3944 78.6229 61.4819 78.7944C61.6137 79.0504 61.7851 79.284 61.9897 79.4866C62.1283 79.6257 62.2749 79.747 62.4296 79.8507C62.7405 80.0595 63.0909 80.2023 63.4593 80.2702C63.6468 80.3056 63.8424 80.3233 64.046 80.3233C64.2043 80.3233 64.3575 80.3142 64.5054 80.296C64.6509 80.2785 64.795 80.2508 64.9366 80.2132C65.2081 80.141 65.4676 80.0297 65.7069 79.8827C65.9429 79.7363 66.1537 79.5526 66.3312 79.3389C66.519 79.1121 66.6701 78.8572 66.7788 78.5835L65.4468 78.3022C65.3774 78.4212 65.2925 78.5305 65.1944 78.6272C65.1007 78.7205 64.9952 78.7981 64.878 78.86C64.7569 78.9235 64.6279 78.9708 64.4944 79.0007C64.3564 79.0319 64.2069 79.0473 64.046 79.0468C63.8792 79.0469 63.7138 79.0156 63.5585 78.9546C63.4043 78.8918 63.2634 78.8007 63.1429 78.6858C63.0125 78.567 62.9031 78.427 62.8194 78.2718C62.7756 78.1908 62.739 78.1061 62.7101 78.0186C62.6793 77.9265 62.6542 77.8326 62.6351 77.7374H66.9257V77.228C66.9175 77.0246 66.8935 76.8222 66.8538 76.6225C66.8147 76.4355 66.7584 76.2524 66.6858 76.0757C66.5423 75.727 66.3282 75.4118 66.0569 75.1499C65.9218 75.0209 65.7754 74.9043 65.6194 74.8014C65.318 74.6031 64.9802 74.4663 64.6257 74.3991C64.4422 74.3651 64.256 74.3476 64.0694 74.3468H64.0679ZM70.7663 74.3468C70.5595 74.3468 70.3616 74.3647 70.1726 74.4007C69.8035 74.4699 69.4521 74.6122 69.139 74.8194C68.8988 74.982 68.6838 75.1789 68.5007 75.4038C68.3163 75.6272 68.1687 75.8785 68.0632 76.1483C67.9911 76.332 67.9379 76.5226 67.9046 76.7171C67.8692 76.9155 67.8515 77.1238 67.8515 77.3421C67.8515 77.6511 67.8914 77.9589 67.9702 78.2577C68.022 78.4431 68.0921 78.6229 68.1796 78.7944C68.3114 79.0504 68.4827 79.284 68.6874 79.4866C68.8259 79.6257 68.9728 79.747 69.128 79.8507C69.4387 80.0594 69.7889 80.2022 70.1569 80.2702C70.3444 80.3056 70.5398 80.3233 70.7429 80.3233C70.9017 80.3233 71.0554 80.3142 71.2038 80.296C71.3488 80.2784 71.4924 80.2508 71.6335 80.2132C71.905 80.141 72.1645 80.0297 72.4038 79.8827C72.7634 79.6605 73.0628 79.3533 73.2757 78.9882C73.3502 78.8626 73.4174 78.7277 73.4773 78.5835L72.1437 78.3022C72.0742 78.4212 71.9894 78.5305 71.8913 78.6272C71.797 78.7205 71.6916 78.7981 71.5749 78.86C71.4582 78.9225 71.3306 78.9694 71.1921 79.0007C71.0445 79.0327 70.8939 79.0481 70.7429 79.0468C70.5766 79.0467 70.4117 79.0154 70.2569 78.9546C70.1025 78.8919 69.9612 78.8007 69.8405 78.6858C69.7104 78.567 69.6013 78.427 69.5179 78.2718C69.474 78.1908 69.4374 78.1061 69.4085 78.0186C69.3769 77.9266 69.3511 77.8326 69.3312 77.7374H73.6241V77.228C73.6155 77.0246 73.5909 76.8221 73.5507 76.6225C73.512 76.4355 73.4563 76.2525 73.3843 76.0757C73.2403 75.7269 73.0256 75.4117 72.7538 75.1499C72.6192 75.021 72.4733 74.9044 72.3179 74.8014C72.016 74.6029 71.6777 74.4661 71.3226 74.3991C71.1388 74.365 70.9532 74.3475 70.7663 74.3468ZM78.2655 74.4389C77.9676 74.4351 77.6717 74.4882 77.3937 74.5952C77.1192 74.6999 76.8687 74.8588 76.6569 75.0624C76.5819 75.1333 76.5105 75.2078 76.4429 75.2858C76.372 75.3685 76.3055 75.4548 76.2437 75.5444V74.5186H74.753V80.1538H76.2437V78.335C76.2442 78.1335 76.2549 77.9444 76.2757 77.7679C76.2965 77.5908 76.3278 77.4267 76.3694 77.2757C76.4111 77.1246 76.4632 76.9866 76.5257 76.8616C76.5852 76.7401 76.6589 76.626 76.7452 76.5218C76.9125 76.3193 77.1291 76.1632 77.3741 76.0686C77.4991 76.0186 77.6351 75.9811 77.7819 75.9561C77.9382 75.9306 78.0963 75.9183 78.2546 75.9194H78.5827L78.6608 74.4835C78.6066 74.4657 78.5505 74.4539 78.4937 74.4483C78.4178 74.4415 78.3417 74.4384 78.2655 74.4389ZM28.5124 74.5171V77.9514C28.5124 78.127 28.5252 78.2936 28.5507 78.4514C28.5757 78.6098 28.6142 78.7598 28.6663 78.9014C28.8204 79.3247 29.1015 79.69 29.471 79.9475C29.5913 80.0309 29.7197 80.1001 29.8562 80.1553C29.9926 80.2106 30.1369 80.2522 30.289 80.2803C30.4421 80.309 30.6033 80.3233 30.7726 80.3233C30.9559 80.3233 31.1304 80.309 31.296 80.2803C31.4606 80.2522 31.6168 80.21 31.7647 80.1538C32.0581 80.0424 32.324 79.8692 32.5444 79.646V80.1538H34.0358V74.5171H32.5444V77.0139C32.5444 77.1759 32.5374 77.328 32.5233 77.4702C32.5105 77.6035 32.4891 77.7358 32.4593 77.8663C32.4322 77.9802 32.3954 78.0915 32.3491 78.1991C32.3054 78.3001 32.2543 78.391 32.196 78.4718C32.0848 78.6296 31.9339 78.7552 31.7585 78.8358C31.6676 78.877 31.5722 78.9072 31.4741 78.9257C31.3654 78.9478 31.2546 78.9583 31.1437 78.9569C31.0605 78.9574 30.9776 78.9495 30.896 78.9335C30.7471 78.9043 30.6067 78.842 30.4851 78.7514C30.4246 78.7053 30.3691 78.6529 30.3194 78.5952C30.2662 78.5359 30.2195 78.4709 30.1804 78.4014C30.1399 78.3294 30.1067 78.2535 30.0812 78.1749C30.0547 78.091 30.0353 78.005 30.0233 77.9178C30.0114 77.824 30.0051 77.7296 30.0046 77.635V74.5171H28.5124ZM38.7108 75.6468C38.8221 75.6469 38.9332 75.6566 39.0429 75.6757C39.1955 75.7047 39.343 75.7563 39.4804 75.8288C39.5252 75.8527 39.5689 75.8793 39.6116 75.9085C39.6325 75.9231 39.6533 75.9384 39.6741 75.9546C39.695 75.9707 39.7153 75.9863 39.7351 76.0014L39.7952 76.0554L39.853 76.11C39.9625 76.2246 40.053 76.3559 40.121 76.4991C40.1682 76.5978 40.2048 76.7013 40.2304 76.8077C40.2598 76.9214 40.2789 77.0375 40.2874 77.1546C40.3006 77.3379 40.2935 77.522 40.2663 77.7038C40.2393 77.8665 40.191 78.0249 40.1226 78.1749C40.0768 78.2695 40.0215 78.3593 39.9577 78.4428C39.8601 78.5671 39.7433 78.675 39.6116 78.7624C39.394 78.9091 39.1421 78.9971 38.8804 79.0178C38.7726 79.0291 38.6639 79.0291 38.5562 79.0178C38.456 79.0074 38.3571 78.9872 38.2608 78.9577C38.1143 78.9117 37.9753 78.8443 37.8483 78.7577C37.711 78.6654 37.5865 78.5553 37.478 78.4304C37.3357 78.2659 37.2324 78.0715 37.1757 77.8616C37.1444 77.7511 37.1242 77.6378 37.1155 77.5233C37.1021 77.3437 37.1094 77.163 37.1374 76.985C37.1669 76.822 37.2198 76.6642 37.2944 76.5163C37.3458 76.4189 37.4074 76.3273 37.478 76.2429C37.5494 76.1566 37.6298 76.0783 37.7179 76.0093C37.8005 75.9428 37.8885 75.8835 37.9812 75.8319C38.0703 75.7833 38.164 75.7436 38.2608 75.7132C38.4065 75.668 38.5583 75.6456 38.7108 75.6468ZM45.9624 75.6468C46.0732 75.647 46.1837 75.6567 46.2929 75.6757C46.4455 75.7047 46.593 75.7563 46.7304 75.8288C46.7752 75.8527 46.8189 75.8793 46.8616 75.9085C46.8825 75.9231 46.9033 75.9384 46.9241 75.9546L46.9858 76.0014C47.0062 76.0191 47.0259 76.0371 47.0452 76.0554L47.1038 76.11C47.2142 76.2237 47.3045 76.3553 47.371 76.4991C47.419 76.5978 47.4564 76.7012 47.4827 76.8077C47.5249 76.9824 47.5453 77.1616 47.5437 77.3413C47.5458 77.5195 47.5253 77.6972 47.4827 77.8702C47.4415 78.0256 47.3786 78.1744 47.296 78.3124C47.2405 78.402 47.1761 78.4857 47.1038 78.5624C46.9932 78.6726 46.8675 78.7666 46.7304 78.8413C46.5945 78.916 46.4472 78.9678 46.2944 78.9944C46.1343 79.0242 45.9708 79.0321 45.8085 79.0178C45.7084 79.0074 45.6095 78.9872 45.5132 78.9577C45.3661 78.9118 45.2265 78.8444 45.0991 78.7577C45.0078 78.6967 44.9225 78.6271 44.8444 78.5499C44.7256 78.4376 44.6252 78.3074 44.5468 78.1639C44.4965 78.0676 44.4565 77.9663 44.4272 77.8616C44.3962 77.7511 44.3763 77.6378 44.3679 77.5233C44.3542 77.3437 44.3613 77.1631 44.389 76.985C44.4187 76.822 44.4719 76.6641 44.5468 76.5163C44.5982 76.4189 44.6597 76.3273 44.7304 76.2429C44.8017 76.1566 44.8821 76.0783 44.9702 76.0093C45.0512 75.9414 45.1389 75.882 45.2319 75.8319C45.3211 75.7833 45.4148 75.7436 45.5116 75.7132C45.6578 75.6691 45.8097 75.6468 45.9624 75.6468ZM52.5812 75.6468C52.6452 75.647 52.7091 75.6512 52.7726 75.6593L52.8288 75.6671C52.8934 75.6771 52.9574 75.6912 53.0202 75.7093C53.0807 75.7296 53.14 75.7536 53.1976 75.7811L53.2523 75.8077C53.3095 75.8373 53.3648 75.8705 53.4179 75.9069C53.5071 75.9715 53.5868 76.0483 53.6546 76.135C53.7022 76.1961 53.7441 76.2615 53.7796 76.3304C53.7999 76.3657 53.8174 76.4025 53.8319 76.4405L53.8554 76.4991C53.8708 76.5391 53.8847 76.5798 53.8968 76.621L53.9147 76.685H51.1929C51.2097 76.6139 51.2327 76.5443 51.2616 76.4772L51.278 76.4389C51.3079 76.3727 51.3434 76.3092 51.3843 76.2491C51.4258 76.1905 51.4724 76.1356 51.5233 76.085L51.5569 76.0522C51.6085 76.0028 51.6641 75.9578 51.7233 75.9179C51.7791 75.8795 51.8373 75.8448 51.8976 75.8139L51.9444 75.7905C52.0053 75.7615 52.0679 75.7364 52.1319 75.7155C52.195 75.6964 52.2592 75.6812 52.3241 75.6702L52.3843 75.6624C52.4495 75.653 52.5153 75.6478 52.5812 75.6468ZM64.0679 75.6468C64.1316 75.647 64.1953 75.6512 64.2585 75.6593L64.3155 75.6671C64.3802 75.6771 64.4441 75.6912 64.5069 75.7093C64.5675 75.7296 64.6267 75.7536 64.6843 75.7811L64.739 75.8077C64.7962 75.8373 64.8515 75.8705 64.9046 75.9069C64.9639 75.9492 65.0189 75.9974 65.0687 76.0507C65.0817 76.0642 65.0942 76.078 65.1062 76.0921L65.1429 76.135L65.1765 76.1804C65.2101 76.228 65.2401 76.2782 65.2663 76.3304C65.3151 76.4236 65.3544 76.5214 65.3835 76.6225L65.4015 76.6866H62.6788V76.685C62.6956 76.6139 62.7186 76.5443 62.7476 76.4772L62.7647 76.4389C62.7943 76.3727 62.8296 76.3092 62.8702 76.2491C62.9117 76.1902 62.9583 76.1351 63.0093 76.0843L63.0429 76.0522C63.0947 76.0027 63.1506 75.9578 63.2101 75.9179C63.2658 75.8795 63.324 75.8448 63.3843 75.8139L63.4312 75.7905C63.492 75.7615 63.5546 75.7364 63.6187 75.7155C63.6817 75.6964 63.7459 75.6812 63.8108 75.6702L63.8702 75.6624C63.9357 75.653 64.0017 75.6478 64.0679 75.6468ZM70.7663 75.6468C70.8301 75.647 70.8937 75.6512 70.9569 75.6593L71.014 75.6671C71.0783 75.6771 71.142 75.6912 71.2046 75.7093C71.2651 75.7296 71.3244 75.7536 71.3819 75.7811L71.4366 75.8077C71.4938 75.8373 71.5491 75.8705 71.6023 75.9069C71.7554 76.0169 71.8797 76.1621 71.9647 76.3304C71.9835 76.3658 72.0009 76.4025 72.0171 76.4405L72.0405 76.4991C72.0557 76.5391 72.0693 76.5798 72.0812 76.621L72.0991 76.685H69.3757C69.3925 76.6139 69.4155 76.5443 69.4444 76.4772L69.4616 76.4389C69.4912 76.3727 69.5265 76.3092 69.5671 76.2491C69.6083 76.1914 69.6543 76.1373 69.7046 76.0874L69.746 76.0483C69.7962 76.0004 69.8503 75.9568 69.9077 75.9179C69.9639 75.8789 70.0227 75.8437 70.0835 75.8124L70.1249 75.7921C70.1864 75.7624 70.2499 75.7368 70.3148 75.7155C70.3786 75.6963 70.4435 75.6811 70.5093 75.6702L70.5671 75.6624C70.6331 75.6529 70.6996 75.6477 70.7663 75.6468Z" fill="black"/>
</svg>
