<svg width="100" height="100" viewBox="0 0 100 100" fill="none" xmlns="http://www.w3.org/2000/svg">
<path d="M37.029 70.5179H70.7876L63.1001 63.3773H29.3422L37.029 70.5179ZM70.7876 45.4906H37.0297L29.3422 52.6281H63.1001L70.7876 45.4906ZM37.029 34.739H70.7844L63.1001 27.5984H29.3446L37.029 34.739ZM25.7891 41.807L20.711 36.7562L1.88209 55.4789C1.54944 55.8094 1.28564 56.2026 1.10594 56.6357C0.926251 57.0689 0.834232 57.5334 0.835213 58.0023C0.835213 58.9578 1.20787 59.8546 1.88209 60.5257L20.711 79.2523L25.7891 74.2039L9.5024 58.0023L25.7891 41.807ZM98.2477 37.5921L79.4243 18.864L74.3493 23.9109L90.6305 40.1132L74.3493 56.3148L79.4243 61.3624L98.2477 42.6429C98.5814 42.3116 98.8462 41.9175 99.0268 41.4833C99.2074 41.0491 99.3003 40.5835 99.3 40.1132C99.2991 39.6444 99.2057 39.1804 99.0251 38.7478C98.8446 38.3152 98.5804 37.9225 98.2477 37.5921Z" fill="#111419"/>
</svg>
