<svg width="100" height="100" viewBox="0 0 100 100" fill="none" xmlns="http://www.w3.org/2000/svg">
<path d="M54.3213 15.501H78.7596V31.3213H54.3213V15.501Z" fill="#0403FF"/>
<path d="M54.321 14.7808V32.0417H52.8406L52.8804 14.7808H54.321Z" fill="#0808BD"/>
<path d="M54.3212 15.499H78.7595V14.0583H52.8813V15.499H54.3212Z" fill="#000373"/>
<path d="M52.1611 13.3381H79.4807V32.0178H61.5205V31.2975H78.7814V14.0584H52.8814V32.0178L52.1611 32.7381V13.3381Z" fill="#000473"/>
<path d="M18.3801 60.7788H42.8184V76.5991H18.3801V60.7788Z" fill="#0403FF"/>
<path d="M18.3806 60.0586V77.3195H16.9001L16.94 60.0586H18.3806Z" fill="#0808BD"/>
<path d="M18.3808 60.7778H42.819V59.3403H16.9409V60.7778H18.3808Z" fill="#000373"/>
<path d="M42.8194 76.5982V59.3404H16.9405V77.2998H16.2202V58.6201H43.539V77.2998H42.8187" fill="#000473"/>
<path d="M18.3801 76.5991H42.8184V77.3194H18.3801V76.5991Z" fill="#0001DF"/>
<path d="M5.44141 91.6805V84.5001H49.2797L55.0414 78.7415H58.6391L50 87.3805H8.31875V91.6985H5.44141V91.6805Z" fill="#FFFFFD"/>
<path d="M5.44141 84.5005L11.8992 78.0396V84.5005H5.44141Z" fill="#BFBFC0"/>
<path d="M5.44141 91.6809H8.31953V94.559H5.44141V91.6809Z" fill="#BCBFB1"/>
<path d="M49.2796 84.5001L55.0413 78.7415H52.8804L47.1187 84.5001H49.2796Z" fill="#C2C2C2"/>
<path d="M58.6209 78.7598V88.8215L52.8592 94.5801H8.3186V91.6996H49.9999V87.3816L58.6209 78.7598Z" fill="#7E7E7E"/>
<path d="M32.7608 89.5391V91.7H8.3186V87.3821H49.9999V91.7H47.1194V89.5391H32.7608Z" fill="#C0C0C0"/>
<path d="M32.7612 89.5386H47.1409V91.6995H32.7612V89.5386Z" fill="#010101"/>
<path d="M41.3789 46.3985V39.2212H85.2203L90.9789 33.4595H94.5797L85.9586 42.0806H44.2594V46.3985H41.3789Z" fill="#FFFFFD"/>
<path d="M41.3789 39.2205L47.8398 32.7595V39.2205H41.3789Z" fill="#BFBFC0"/>
<path d="M41.3789 46.3989H44.2602V49.2802H41.3797L41.3789 46.3989Z" fill="#BCBFB1"/>
<path d="M85.22 39.2212L90.9786 33.4595H88.8208L83.0591 39.2212H85.22Z" fill="#C2C2C2"/>
<path d="M94.5583 33.4595V43.5212L88.7997 49.2798H44.259V46.3993H85.9403V42.0813L94.5583 33.4595Z" fill="#7E7E7E"/>
<path d="M68.6793 44.2585V46.3976H44.259V42.0796H85.9403V46.3976H83.0598V44.2397H68.6793V44.2585Z" fill="#C0C0C0"/>
<path d="M68.6797 44.2585H83.0594V46.3976H68.6797V44.2585Z" fill="#010101"/>
<path d="M52.1608 36.3402H80.921V11.898L88.1015 5.44019V32.7597L83.0601 37.798H50.7202" fill="#808080"/>
<path d="M49.2798 10.4613L80.8993 11.8988L79.4587 13.3395L83.0595 10.4613L88.1009 5.41992H54.3212L49.2798 10.4613Z" fill="#BFC1BB"/>
<path d="M52.1611 33.4595H80.9213V36.3407H52.1611V33.4595Z" fill="#C6BCBF"/>
<path d="M50.7202 32.7602H51.4405L52.1608 32.0399V13.3383H79.4804L80.921 11.8977H50.7202V32.7602Z" fill="#817F87"/>
<path d="M51.4404 32.7602L52.1607 32.0399H79.4803V13.3383L80.9209 11.8977V33.4586H51.4404V32.7602Z" fill="#FEFFFA"/>
<path d="M49.2798 10.4614H81.6196L80.8993 11.8989H50.7204V34.1802L49.2798 34.9005V10.4614Z" fill="white"/>
<path d="M50.7202 32.7617H51.4405V33.482L50.7202 34.2023V32.7617Z" fill="#BEBEBE"/>
<path d="M14.78 81.6202H44.9589V57.1812L52.1394 50.7202V78.0397L47.1011 83.0812H13.3394" fill="#808080"/>
<path d="M13.3394 55.7577L44.9589 57.1983L43.5214 58.639L47.119 55.7585L52.1604 50.7202H18.3808L13.3394 55.7577Z" fill="#BFC1BB"/>
<path d="M44.9587 78.761V81.6423H14.7798V78.0415H15.5001V78.7618L44.9587 78.761Z" fill="#C6BCBF"/>
<path d="M14.7798 78.0408H15.5001L16.2204 77.3205V58.6408H43.5392L44.9798 57.2002H14.7798V78.0408Z" fill="#817F87"/>
<path d="M15.5 78.0408L16.2203 77.3205H43.5391V58.6408L44.9797 57.2002V78.7611H15.5V78.0408Z" fill="#FEFFFA"/>
<path d="M13.3394 55.7576H45.6792L44.9589 57.1982H14.78V81.6396L13.3394 83.0802V55.7576Z" fill="white"/>
<path d="M14.7798 78.0396H15.5001V78.7599H14.7798V78.0396Z" fill="#BEBEBE"/>
<path d="M4.00098 84.4998L11.1791 77.3193H11.8994V78.76H11.1791L5.42051 84.5217V94.5803H52.8596L58.6213 88.8217V78.76H52.1604L53.601 77.3193H60.0588V88.8217L52.8815 95.9998H4.00098V84.4998Z" fill="black"/>
<path d="M13.3388 55.7579V83.0805L11.8982 84.5211V55.7579L18.3591 49.3H53.6005V78.0602L47.1396 84.5211H11.8982L13.3388 83.0805H47.1185L52.1599 78.0391V50.7196H18.3802L13.3388 55.7579Z" fill="black"/>
<path d="M39.9414 39.2206L47.1195 32.0401H47.8398V33.4807H47.1195L41.3609 39.2393V49.301H88.8008L94.5594 43.5393V33.4799H88.1016L89.5391 32.0393H96V43.5385L88.8227 50.719H39.9414V39.2206Z" fill="black"/>
<path d="M49.2795 10.4607V37.7802L47.8389 39.2208V10.4607L54.3209 3.99976H89.5381V32.7599L83.0803 39.2208H47.8389L49.2795 37.7802H83.0592L88.1006 32.7388V5.44038H54.3209L49.2795 10.4607Z" fill="black"/>
<path d="M36.3409 47.1192H48.5605L29.1597 66.5192V67.9599H31.3206L62.9401 42.8013V41.3606H51.4409L70.1206 21.9606V20.52H68.68L36.3409 45.6786V47.1192Z" fill="#FFFF01"/>
<path d="M31.5606 68.6787H28.4387V66.2193L46.8411 47.8201H35.6411V45.3177L68.4379 19.8201H70.8395V22.2584L53.1184 40.6576H63.6411V43.1599L31.5606 68.6787ZM29.8793 67.2599H31.0606L62.2192 42.4794V42.0982H49.7403L69.3997 21.6787V21.2396H68.9207L37.0606 46.038V46.3982H50.2989L29.8793 66.8201V67.2599Z" fill="black"/>
</svg>
