<svg width="100" height="100" viewBox="0 0 100 100" fill="none" xmlns="http://www.w3.org/2000/svg">
<path d="M73.5972 61.907L76.486 54.6017H84.8275L80.8686 43.52L85.8194 31L99.9999 68.6503H89.5423L87.1189 61.907H73.5972Z" fill="#3D3D3D"/>
<path d="M64.6762 68.6506L79.8562 31.0005H69.7923L59.4078 55.3305L52.0238 31.0005H44.2879L36.3595 55.3305L30.7676 44.2439L25.7078 59.8331L30.8453 68.6506H40.7495L47.9142 46.8315L54.7453 68.6506H64.6762Z" fill="#5A0FC8"/>
<path d="M9.55286 55.7259H15.7517C17.6297 55.7259 19.3019 55.5161 20.768 55.0967L22.3716 50.1581L26.8517 36.3543C26.5106 35.8131 26.1207 35.3016 25.6826 34.8194C23.3819 32.2731 20.0161 31 15.5849 31H0V68.6503H9.55286V55.7259ZM17.7584 39.662C18.6567 40.5661 19.1061 41.7766 19.1061 43.2927C19.1061 44.8206 18.7109 46.032 17.921 46.9276C17.0543 47.9229 15.4594 48.42 13.1351 48.42H9.55286V38.3053H13.1614C15.3274 38.3053 16.8596 38.7573 17.7584 39.662Z" fill="#3D3D3D"/>
</svg>
