<svg width="100" height="100" viewBox="0 0 100 100" fill="none" xmlns="http://www.w3.org/2000/svg">
<g clip-path="url(#clip0_1085_3730)">
<path d="M9.09375 75.0833L9.09687 93.638C9.09687 94.4737 9.2615 95.3011 9.58134 96.0732C9.90118 96.8452 10.37 97.5467 10.961 98.1375C11.5519 98.7283 12.2535 99.197 13.0256 99.5166C13.7977 99.8363 14.6253 100.001 15.4609 100H33.4398C34.3577 100 35.2646 99.8016 36.0985 99.4181C36.9324 99.0346 37.6735 98.4753 38.2711 97.7786L89.3773 38.1536C90.3652 37.0002 90.9083 35.5316 90.9086 34.013V15.4583C90.9087 14.6226 90.7442 13.7951 90.4244 13.0229C90.1047 12.2508 89.636 11.5492 89.0451 10.9583C88.4542 10.3673 87.7527 9.89852 86.9806 9.57869C86.2085 9.25885 85.381 9.09424 84.5453 9.09424H66.5641C65.6461 9.09437 64.739 9.293 63.905 9.67651C63.0709 10.06 62.3297 10.6193 61.732 11.3161L10.6258 70.9411C9.63755 72.095 9.09367 73.5641 9.09375 75.0833Z" fill="#00D886"/>
<path d="M9.09307 77.3125V93.6352C9.09307 95.3228 9.76348 96.9413 10.9568 98.1347C12.1502 99.328 13.7687 99.9984 15.4563 99.9984H35.9126C36.2136 99.9984 36.5136 99.9773 36.8126 99.9352L94.5345 91.6898C96.0509 91.4732 97.4383 90.7168 98.4419 89.5595C99.4455 88.4022 99.9979 86.9217 99.9977 85.3898V60.9023C99.9977 57.3867 97.1485 54.5375 93.6329 54.5391L64.6681 54.5461C63.9845 54.5461 63.3048 54.6555 62.6571 54.8727L13.4438 71.2773C12.1771 71.7001 11.0753 72.5105 10.2944 73.5938C9.51344 74.6771 9.09292 75.9786 9.09229 77.3141L9.09307 77.3125Z" fill="url(#paint0_linear_1085_3730)"/>
<path d="M0.00146484 6.36328V59.4375C0.00200056 60.6826 0.367586 61.9002 1.05298 62.9397C1.73838 63.9792 2.71351 64.7949 3.85772 65.2859L62.4351 90.3906C63.2276 90.7291 64.0803 90.9042 64.9421 90.9055H93.6343C95.3219 90.9055 96.9405 90.235 98.1338 89.0417C99.3271 87.8484 99.9976 86.2298 99.9976 84.5422V56.4719C99.9975 55.2144 99.625 53.9851 98.9273 52.9391L65.4858 2.83359C64.905 1.96248 64.118 1.24827 63.1948 0.75436C62.2716 0.260454 61.2407 0.00213746 60.1937 0.0023438L6.36553 4.79633e-08C5.52982 -0.000102555 4.70228 0.164413 3.93017 0.484152C3.15805 0.803891 2.45647 1.27259 1.8655 1.86349C1.27453 2.45438 0.805749 3.1559 0.485916 3.92798C0.166082 4.70006 0.00146484 5.52758 0.00146484 6.36328Z" fill="url(#paint1_linear_1085_3730)"/>
<path d="M81.2486 18.75H18.751V81.2477H81.2486V18.75Z" fill="black"/>
<path d="M58.2542 26.1089C56.0088 26.1089 53.9763 26.6391 52.1565 27.6995C50.3372 28.7495 48.9091 30.2011 47.8721 32.0542C46.8331 33.8964 46.3133 35.9563 46.3127 38.2339C46.3133 40.511 46.8331 42.5753 47.8721 44.4269C48.9112 46.269 50.3362 47.7198 52.1565 48.7815C53.9768 49.83 56.0104 50.3597 58.2542 50.3597C60.151 50.3597 61.8979 50.0042 63.4831 49.3011C65.0682 48.5979 66.3815 47.6159 67.4323 46.3534C68.4877 45.0932 69.2189 43.5939 69.562 41.9862H64.7698C64.4573 42.8347 63.9883 43.5826 63.3627 44.23C62.7487 44.8654 62.007 45.3558 61.1377 45.7011C60.2674 46.0464 59.3127 46.2206 58.2862 46.2206C56.901 46.2206 55.6557 45.8737 54.5401 45.1815C53.4229 44.4888 52.5461 43.5399 51.9096 42.3347C51.2846 41.119 50.9719 39.7521 50.9713 38.2339C50.9713 36.7151 51.2838 35.3524 51.9088 34.1456C52.5463 32.9289 53.4234 31.974 54.5401 31.2808C55.6557 30.5886 56.901 30.2479 58.2854 30.2479C59.312 30.2479 60.2666 30.4222 61.1377 30.7675C61.9795 31.0953 62.739 31.6039 63.3627 32.2573C63.9877 32.8933 64.4568 33.6347 64.7698 34.4815H69.562C69.2211 32.8771 68.4896 31.3816 67.4323 30.1276C66.3823 28.8542 65.0682 27.8706 63.4831 27.1667C61.8979 26.4636 60.151 26.1089 58.2542 26.1089ZM26.7143 26.5081V49.9534H31.2846V41.0987H36.6401C38.3146 41.0982 39.7831 40.7961 41.0456 40.1925C42.319 39.5792 43.2995 38.7183 43.9799 37.6128C44.6713 36.5073 45.019 35.1987 45.019 33.7589C45.019 32.319 44.6737 31.0573 43.9924 29.962C43.3237 28.8672 42.3646 28.0183 41.1151 27.4151C39.8643 26.8112 38.4143 26.5089 36.7729 26.5089L26.7143 26.5081ZM31.2846 30.3112H36.4752C37.2461 30.3118 37.9159 30.4576 38.4846 30.7487C39.0415 31.0062 39.5077 31.4258 39.8221 31.9526C40.1346 32.4651 40.2909 33.0933 40.2909 33.7972C40.2909 34.5003 40.1346 35.1193 39.8221 35.6542C39.5101 36.1797 39.0643 36.5875 38.4846 36.8776C37.9153 37.1568 37.2456 37.2964 36.4752 37.2964H31.2846V30.3112ZM26.5549 68.7472V73.437H51.5549V68.7472H26.5549Z" fill="white"/>
</g>
<defs>
<linearGradient id="paint0_linear_1085_3730" x1="11.909" y1="101.119" x2="95.6978" y2="62.2725" gradientUnits="userSpaceOnUse">
<stop offset="0.1" stop-color="#00D886"/>
<stop offset="0.59" stop-color="#F0EB18"/>
</linearGradient>
<linearGradient id="paint1_linear_1085_3730" x1="93.7774" y1="93.3994" x2="2.05296" y2="1.67493" gradientUnits="userSpaceOnUse">
<stop offset="0.3" stop-color="#F0EB18"/>
<stop offset="0.7" stop-color="#00C4F4"/>
</linearGradient>
<clipPath id="clip0_1085_3730">
<rect width="100" height="100" fill="white"/>
</clipPath>
</defs>
</svg>
