<svg width="100" height="100" viewBox="0 0 100 100" fill="none" xmlns="http://www.w3.org/2000/svg">
<path d="M55.0957 95.2514C52.5749 98.7097 47.4124 98.7097 44.8957 95.2514L23.9165 66.4347C23.3362 65.6374 22.9509 64.715 22.7916 63.7418C22.6323 62.7685 22.7034 61.7715 22.9991 60.8307C23.2949 59.8899 23.8071 59.0315 24.4947 58.3245C25.1823 57.6175 26.026 57.0816 26.9582 56.7597L47.9374 49.5181C49.2707 49.0597 50.7207 49.0597 52.054 49.5181L73.0332 56.7597C77.0415 58.1431 78.5707 63.0097 76.0749 66.4347L55.0957 95.2514ZM49.9957 90.0056L69.529 63.1764L49.9957 56.4347L30.4624 63.1764L49.9999 90.0097L49.9957 90.0056Z" fill="#E72564"/>
<path d="M98.7916 56.0944C101.308 59.5611 99.7124 64.4694 95.6416 65.7944L61.7541 76.8444C60.8163 77.1501 59.8199 77.2317 58.8448 77.0825C57.8698 76.9333 56.9433 76.5576 56.1398 75.9854C55.3363 75.4133 54.6782 74.6607 54.2183 73.7882C53.7584 72.9156 53.5095 71.9473 53.4916 70.9611L53.0874 48.7694C53.0624 47.3611 53.5083 45.9777 54.3583 44.8527L67.7291 27.1444C68.3228 26.3569 69.093 25.7197 69.9776 25.2837C70.8623 24.8478 71.8368 24.6254 72.823 24.6343C73.8092 24.6432 74.7796 24.8832 75.6562 25.3351C76.5328 25.7869 77.2913 26.438 77.8708 27.2361L98.7958 56.0944H98.7916ZM92.2333 59.3236L72.7499 32.4569L60.2999 48.9486L60.6749 69.6111L92.2333 59.3236Z" fill="#E723A0"/>
<path d="M75.0669 2.46323C76.0133 2.15708 77.0186 2.07906 78.0009 2.23552C78.9832 2.39199 79.9145 2.77851 80.7189 3.36354C81.5233 3.94857 82.178 4.71553 82.6295 5.60181C83.081 6.48809 83.3166 7.46857 83.3169 8.46323L83.3544 44.1049C83.3557 45.0916 83.1255 46.0648 82.6823 46.9463C82.2392 47.8279 81.5954 48.5932 80.8028 49.1808C80.0102 49.7684 79.0908 50.1618 78.1185 50.3296C77.1462 50.4973 76.1481 50.4346 75.2044 50.1466L53.9752 43.6716C52.6251 43.2615 51.4515 42.4106 50.6419 41.2549L37.9336 23.0632C37.3682 22.2549 37.0003 21.3253 36.8594 20.3491C36.7185 19.3729 36.8084 18.3772 37.122 17.442C37.4357 16.5068 37.9642 15.6582 38.6652 14.9643C39.3662 14.2704 40.2202 13.7506 41.1586 13.4466L75.0669 2.46323ZM76.1086 9.7049L44.5419 19.9299L56.3794 36.8674L76.146 42.8924L76.1086 9.7049Z" fill="#E520E9"/>
<path d="M24.9584 2.47935C24.012 2.1732 23.0067 2.09517 22.0244 2.25163C21.0421 2.4081 20.1108 2.79462 19.3064 3.37965C18.502 3.96468 17.8473 4.73164 17.3958 5.61792C16.9443 6.5042 16.7087 7.48469 16.7084 8.47935L16.6668 44.1168C16.6655 45.1035 16.8957 46.0767 17.3388 46.9583C17.782 47.8398 18.4257 48.6051 19.2183 49.1927C20.011 49.7803 20.9304 50.1738 21.9027 50.3415C22.875 50.5092 23.8731 50.4466 24.8168 50.1585L46.0459 43.6835C47.3918 43.2752 48.5668 42.421 49.3751 41.2668L62.0918 23.0752C62.657 22.2666 63.0247 21.3367 63.1654 20.3603C63.3061 19.3838 63.2158 18.3879 62.9017 17.4527C62.5877 16.5175 62.0587 15.6689 61.3572 14.9752C60.6557 14.2816 59.8013 13.7621 58.8626 13.4585L24.9584 2.47935ZM23.9168 9.72101L55.4876 19.946L43.6459 36.8835L23.8834 42.9085L23.9168 9.72101Z" fill="#E520E9"/>
<path d="M1.20834 56.0885C-1.30833 59.5551 0.287503 64.4635 4.35834 65.7926L38.2458 76.8385C39.1836 77.1442 40.1801 77.2257 41.1551 77.0765C42.1301 76.9274 43.0566 76.5516 43.8601 75.9795C44.6636 75.4074 45.3217 74.6548 45.7816 73.7822C46.2416 72.9096 46.4905 71.9413 46.5083 70.9551L46.9125 48.7676C46.9386 47.3567 46.4912 45.9778 45.6417 44.851L32.2708 27.1385C31.6767 26.3512 30.9064 25.7143 30.0215 25.2787C29.1367 24.8431 28.162 24.6211 27.1758 24.6304C26.1897 24.6397 25.2194 24.8801 24.3429 25.3324C23.4665 25.7846 22.7083 26.436 22.1292 27.2343L1.20834 56.0885ZM7.76667 59.3218L27.25 32.451L39.7 48.9468L39.325 69.6051L7.76667 59.3218Z" fill="#E723A0"/>
<path d="M70.5917 73.9629L76.0751 66.4379C76.5709 65.7546 76.9084 65.0171 77.0959 64.2587L66.1376 67.8337L59.3584 77.1462C60.1689 77.2018 60.9825 77.1 61.7542 76.8462L70.5917 73.9629ZM53.1084 49.8796L53.2459 57.5546L60.5042 60.0629L60.3626 52.3837L53.1084 49.8796ZM83.3459 34.7879L77.8709 27.2379C77.3989 26.5856 76.8063 26.0297 76.1251 25.6004L76.1376 37.1296L82.9042 46.4629C83.1959 45.7421 83.3542 44.9462 83.3542 44.1046L83.3459 34.7879ZM62.3542 46.2296L55.0126 43.9921L59.6376 37.8629L66.9792 40.1004L62.3542 46.2254V46.2296ZM50.0167 40.3546L54.4167 34.0629L50.0167 27.7712L45.6167 34.0629L50.0167 40.3546ZM39.0334 14.6212C39.6376 14.1129 40.3501 13.7087 41.1584 13.4462L49.9917 10.5879L58.8667 13.4629C59.6626 13.7212 60.3667 14.1171 60.9626 14.6129L49.9876 18.1671L39.0334 14.6212ZM45.0042 44.0087L40.3792 37.8754L33.0376 40.1129L37.6626 46.2379L45.0042 44.0004V44.0087ZM17.1042 46.4421L23.8876 37.0837L23.9001 25.5712C23.2334 25.9879 22.6292 26.5379 22.1292 27.2296L16.6792 34.7462L16.6709 44.1212C16.6709 44.9462 16.8251 45.7296 17.1042 46.4421ZM46.8917 49.8754L39.6376 52.3796L39.4959 60.0587L46.7542 57.5546L46.8917 49.8754ZM40.6251 77.1379L33.8417 67.8171L22.8876 64.2462C23.0792 65.0087 23.4167 65.7462 23.9167 66.4337L29.3876 73.9504L38.2459 76.8379C39.0459 77.0962 39.8501 77.1921 40.6251 77.1379Z" fill="#FF96D1"/>
</svg>
