<svg width="100" height="100" viewBox="0 0 100 100" fill="none" xmlns="http://www.w3.org/2000/svg">
<path d="M42.9922 23.0225L28.6203 28.2318L42.782 33.3686L57.1586 28.1521L42.9922 23.0225ZM28.7641 34.6045L14.3945 39.8209L28.5562 44.9506L42.9312 39.7412L28.7641 34.6045Z" fill="#F7F7F4"/>
<path d="M28.6203 28.2329L28.6156 44.8048L42.782 49.9415V33.3696L28.6203 28.2329ZM14.3945 39.822V56.3938L28.5562 61.5321V44.9517L14.3945 39.822Z" fill="#EFEEEA"/>
<path d="M28.7639 44.9055L14.3944 50.1196L28.5561 55.2563L42.9311 50.043L28.7639 44.9055ZM14.5374 56.5L0.16626 61.7086L14.328 66.8454L28.6952 61.6383L14.5374 56.5Z" fill="#F7F7F4"/>
<path d="M14.3944 50.1201V66.6967L28.5561 71.8334V55.2568L14.3944 50.1201ZM0.167041 61.7092L0.162354 78.2857L14.3288 83.4225V66.8459L0.167041 61.7092ZM14.3944 66.8646V83.4412L28.5561 88.5686V71.9967L14.3944 66.8646ZM28.6209 72.0154L28.6155 88.5873L42.7819 93.7256V77.1482L28.6209 72.0154Z" fill="#EFEEEA"/>
<path d="M71.4449 6.27441L57.2238 11.4307L57.2176 11.4299L42.8457 16.6385L42.8426 33.2104L57.0098 38.3471V21.7752L71.223 16.6158L71.2355 16.6205L85.6113 11.4111L71.4449 6.27441ZM42.9918 33.3135L28.6199 38.526L42.7816 43.6627L57.1582 38.4494L42.9918 33.3135ZM28.6199 38.5307L28.6152 55.1072L42.7816 60.2439V43.6674L28.6199 38.5307ZM28.6199 55.2713L28.6152 71.8518L42.7816 76.9807V60.4096L28.6199 55.2713Z" fill="#2F6491"/>
<path d="M71.2971 23.0775L85.4627 28.2142L99.8377 23.0017L85.6721 17.865L71.2971 23.0775Z" fill="#FFC91D"/>
<path d="M99.8379 23.0061L85.4613 28.2131V44.7897L99.8379 39.578V23.0061ZM99.8379 39.7413L85.4613 44.9459V44.9475L71.3793 50.0491V50.0428L57.0098 55.2561V71.8327L71.2355 66.6709V66.6819L85.4621 61.528V61.5311L99.8371 56.3225L99.8379 39.7413ZM85.6113 61.6381L71.3793 66.7936V66.7889L57.0098 71.9959V88.5678L71.2355 83.4123V83.4217L85.6113 78.21V61.6381Z" fill="#FFD242"/>
<path d="M85.612 11.4155L71.3799 16.5718V16.564L57.0104 21.7749V38.3515L71.2362 33.1921V33.2007L85.612 27.9874V11.4155ZM85.612 28.153L71.3799 33.3124V33.303L57.0104 38.5077L42.7815 43.6671V60.2437L57.0096 55.0882V55.0913L71.2354 49.9366V49.9413L85.6112 44.7327L85.612 28.153ZM57.1588 55.1999L42.7815 60.4093V76.9804L57.1581 71.7718L57.1588 55.1999Z" fill="#3775A9"/>
<path d="M63.1956 25.0073C62.915 25.0191 62.6382 25.0753 62.3752 25.1737C60.8518 25.7284 59.6143 27.4847 59.6143 29.1003C59.6143 30.7167 60.851 31.5769 62.3752 31.0253C63.8995 30.4714 65.1354 28.7144 65.1354 27.0988C65.1354 25.7863 64.3198 24.9698 63.1956 25.0073ZM99.8385 56.4831L85.4612 61.6956V78.2722L99.8377 73.0597L99.8385 56.4831ZM81.0651 68.798C80.7846 68.8097 80.5077 68.8659 80.2448 68.9644C78.7206 69.5152 77.4838 71.2714 77.4838 72.8878C77.4838 74.5034 78.7206 75.3667 80.244 74.8128C81.7674 74.262 83.0049 72.5027 83.0049 70.8863C83.0049 69.5761 82.1885 68.7605 81.0651 68.798ZM57.1588 71.9409L42.7815 77.1488V93.7253L57.1581 88.512L57.1588 71.9409Z" fill="white"/>
<path d="M71.3906 6.12238L42.7914 16.4849C42.7601 16.4965 42.7331 16.5174 42.714 16.5447C42.6948 16.5721 42.6845 16.6046 42.6844 16.638L42.6828 22.9638L28.5656 28.0794C28.5343 28.091 28.5073 28.1119 28.4882 28.1393C28.4691 28.1666 28.4587 28.1992 28.4586 28.2325L28.457 34.5443L14.3398 39.6693C14.3085 39.6807 14.2814 39.7014 14.2622 39.7286C14.2429 39.7558 14.2324 39.7883 14.232 39.8216V56.2818L0.110156 61.5583C0.0793957 61.5701 0.052886 61.5908 0.0340758 61.6179C0.0152655 61.6449 0.00502539 61.677 0.0046875 61.7099L0 78.2864C0 78.3552 0.0429687 78.4161 0.107031 78.4396L42.7273 93.8794C42.7626 93.8926 42.8015 93.8926 42.8367 93.8794L99.893 73.2138C99.9243 73.2022 99.9513 73.1813 99.9704 73.154C99.9895 73.1266 99.9999 73.094 100 73.0607V23.0029C99.9999 22.9695 99.9895 22.9369 99.9704 22.9096C99.9513 22.8822 99.9243 22.8613 99.893 22.8497L85.832 17.7497L85.7742 11.4161V11.4114C85.7739 11.3782 85.7635 11.3458 85.7444 11.3186C85.7253 11.2914 85.6984 11.2707 85.6672 11.2591L71.5 6.1216C71.4645 6.10823 71.4253 6.10823 71.3898 6.1216L71.3906 6.12238ZM71.4453 6.44816L85.1359 11.4114L71.3938 16.3911L57.6984 11.4333L71.4453 6.44816ZM85.4484 11.6474V27.8755L71.3969 32.9716V16.7396L85.4484 11.6474ZM57.068 11.6583L70.7492 16.6161L57.0102 21.6029L43.3242 16.6388L57.068 11.6583ZM71.0734 16.8427V33.2021L71.1133 33.2294L57.1719 38.2771V21.8904L71.0734 16.8427ZM43.0109 16.87L56.8477 21.8888V38.1177L43.0055 33.0974L43.0109 16.87ZM85.632 18.0239L99.3633 23.0029L85.7727 27.9318C85.868 24.5185 85.7516 21.281 85.632 18.0239ZM99.6758 23.2388V39.4654L85.7727 44.5083V28.2755L99.6758 23.2388ZM42.6844 23.3091L42.6813 33.1607L29.0977 28.2333L42.6844 23.3091ZM85.3 28.438V44.6747L71.5422 49.6599V33.4279L85.3 28.438ZM28.7828 28.4638L42.3344 33.3802L28.7797 38.2958L28.7812 34.6646V34.6599L28.7828 28.4638ZM42.9922 33.4864L56.6836 38.4497L42.782 43.4904L29.0945 38.5263L42.9922 33.4864ZM71.0734 33.5872V49.8239L57.3187 54.8091V38.5693L71.0734 33.5872ZM28.4562 34.8919L28.4539 44.7419L14.8687 39.8224L28.4562 34.8919ZM56.8469 38.7404V54.9786L42.9445 60.0146V43.7825L56.8469 38.7404ZM28.7828 38.7622L42.6203 43.781V60.0154L28.7781 54.9943L28.7828 38.7622ZM99.6758 39.9739V56.2114L85.7727 61.2505V45.0083L99.6758 39.9739ZM14.557 40.0536L28.1266 44.9685L14.5562 49.8896L14.557 40.0536ZM85.2992 45.1786V61.4161L71.5414 66.4021V50.1646L85.2992 45.1786ZM28.3938 45.2146V55.0271L14.8703 50.1208L28.3938 45.2146ZM71.0734 50.3286V66.5607L57.1703 71.6029V55.3724L71.0734 50.3286ZM14.557 50.3528L28.3938 55.3724V71.6021L14.557 66.5833V56.3943V50.3528ZM56.8461 55.3216V71.8341L56.8922 71.8654L42.9445 76.92V60.4099L42.9156 60.3685L56.8461 55.3216ZM28.7828 55.5021L42.6219 60.5224V76.7521L28.7781 71.7404L28.7828 55.5021ZM99.6758 56.7138V72.9482L85.7727 77.9833V61.7583L99.6758 56.7138ZM14.232 56.7841V66.6411L0.642969 61.7114L14.232 56.7841ZM85.3 61.9247V78.1513C79.4562 80.2708 82.0859 79.3177 85.7023 78.0083L71.5422 83.1372V66.9099L85.3 61.9247ZM0.328125 61.9427L14.1656 66.9614V83.188L0.324219 78.1724L0.328125 61.9427ZM71.0727 67.0732V83.3005L57.318 88.2864V72.0591L71.0727 67.0732ZM14.5562 67.0966L28.393 72.1122V88.3364L28.7773 88.4763L28.782 72.2466L42.6195 77.2622V93.495L14.557 83.3286L14.5562 67.0966ZM14.557 83.3286L28.393 88.3396V88.3364C45.993 94.7216 21.3875 85.7997 14.557 83.3286ZM56.8453 72.2271V88.4544L44.4328 92.9544L42.9437 93.495V77.2646L56.8453 72.2271Z" fill="#CCCCCC"/>
</svg>
