<svg width="100" height="100" viewBox="0 0 100 100" fill="none" xmlns="http://www.w3.org/2000/svg">
<path d="M24.6186 23.7488H72.5124C73.1352 23.7488 73.7325 23.9962 74.173 24.4366C74.6134 24.877 74.8608 25.4744 74.8608 26.0972C74.8608 26.7201 74.6134 27.3174 74.173 27.7578C73.7325 28.1982 73.1352 28.4457 72.5124 28.4457H24.6186C23.9964 28.445 23.3998 28.1976 22.9598 27.7576C22.5198 27.3176 22.2723 26.721 22.2717 26.0988C22.2721 25.4762 22.5194 24.8792 22.9594 24.4386C23.3993 23.9981 23.996 23.75 24.6186 23.7488Z" fill="#696969"/>
<path d="M25.0366 19.0002H34.664V21.2221H25.0366V19.0002Z" fill="#009FE3"/>
<path d="M37.6313 19.0002H47.2595V21.2221H37.6313V19.0002Z" fill="#C7D302"/>
<path d="M50.0549 19.0002H59.6862V21.2221H50.0549V19.0002Z" fill="#F07E16"/>
<path d="M62.4297 19.0002H72.0578V21.2221H62.4297V19.0002ZM62.4297 30.8909H72.0578V47.1682H62.4297V30.8909Z" fill="#DF2815"/>
<path d="M50.0549 30.8899H59.7049V57.3329H50.0549V30.8899Z" fill="#F07E16"/>
<path d="M37.6313 30.8899H47.2595V70.4977H37.6313V30.8899Z" fill="#C7D302"/>
<path d="M25.0366 30.8899H34.664V79.1649H25.0366V30.8899Z" fill="#009FE3"/>
</svg>
