<svg width="100" height="100" viewBox="0 0 100 100" fill="none" xmlns="http://www.w3.org/2000/svg">
<path d="M75.5 31.7985L68.9 38.3986C79.7 49.1986 79.7 66.5985 68.9 77.1985C58.1 87.9986 40.7 87.9986 30.1 77.1985C19.3 66.3985 19.3 48.9986 30.1 38.3986L47.2 21.2985L49.6 18.8986V5.99854L23.8 31.7985C9.4 46.1985 9.4 69.3985 23.8 83.7985C38.2 98.1985 61.4 98.1985 75.5 83.7985C89.9 69.2985 89.9 46.1985 75.5 31.7985Z" fill="#EE4C2C"/>
<path d="M62.5998 30.1982C65.2508 30.1982 67.3998 28.0492 67.3998 25.3982C67.3998 22.7472 65.2508 20.5981 62.5998 20.5981C59.9488 20.5981 57.7998 22.7472 57.7998 25.3982C57.7998 28.0492 59.9488 30.1982 62.5998 30.1982Z" fill="#EE4C2C"/>
</svg>
