<svg width="100" height="100" viewBox="0 0 100 100" fill="none" xmlns="http://www.w3.org/2000/svg">
<path fill-rule="evenodd" clip-rule="evenodd" d="M25.3122 43.7253C31.6664 39.3586 40.6997 36.4961 50.9247 36.4961C61.1456 36.4961 70.1831 39.3586 76.5372 43.7253C79.7456 45.9336 82.1706 48.4461 83.7872 51.1003C83.3331 41.6669 83.3331 41.6669 86.1956 39.0086C84.8744 37.8016 83.471 36.6878 81.9956 35.6753C73.8372 30.0628 62.8372 26.7461 50.9247 26.7461C39.0164 26.7461 28.0122 30.0628 19.8539 35.6794C11.7081 41.2836 5.99974 49.5211 5.99974 59.2086C5.99974 68.9003 11.7081 77.1378 19.8414 82.7336C28.0039 88.3544 39.0081 91.6669 50.9164 91.6669C62.8289 91.6669 73.8331 88.3544 81.9872 82.7336C90.1247 77.1378 95.8331 68.9086 95.8331 59.2086C95.8331 53.0419 93.5247 47.4711 89.7497 42.7919C89.5581 47.1086 88.0414 51.2503 85.5331 55.0294C85.9456 56.3836 86.1539 57.7919 86.1581 59.2086C86.1581 64.7503 82.8997 70.3086 76.5206 74.6961C70.1706 79.0628 61.1372 81.9253 50.9122 81.9253C40.6914 81.9253 31.6497 79.0628 25.2997 74.6961C18.9331 70.3086 15.6664 64.7503 15.6664 59.2086C15.6789 53.6669 18.9372 48.1128 25.3122 43.7253Z" fill="#3762FF"/>
<path fill-rule="evenodd" clip-rule="evenodd" d="M15.6123 47.8921C13.029 55.2671 13.6415 61.9129 16.9956 66.6837C20.354 71.4504 26.3873 74.2379 34.1498 74.2379C41.8998 74.2379 50.9373 71.4046 59.2373 65.4879C67.5415 59.5712 73.1956 51.9421 75.7665 44.5837C78.3498 37.2129 77.7373 30.5671 74.3831 25.7921C71.0248 21.0296 64.9915 18.2421 57.229 18.2421C49.479 18.2421 40.4415 21.0754 32.1415 26.9879C23.8373 32.9046 18.1831 40.5379 15.6123 47.8921ZM6.32897 44.6004C9.6623 35.1004 16.6915 25.8587 26.454 18.9046C36.2123 11.9421 47.2081 8.33374 57.2248 8.33374C67.2248 8.33374 76.7165 11.9754 82.4123 20.0712C88.104 28.1671 88.3748 38.3796 85.0498 47.8796C81.7165 57.3879 74.6873 66.6254 64.9248 73.5796C55.1581 80.5379 44.1706 84.1462 34.1456 84.1504C24.1456 84.1504 14.654 80.5087 8.95814 72.4129C3.25814 64.3171 2.99564 54.0962 6.32064 44.6046L6.32897 44.6004Z" fill="#1041F3"/>
</svg>
