<svg width="100" height="100" viewBox="0 0 100 100" fill="none" xmlns="http://www.w3.org/2000/svg">
<path d="M96.2959 19.1655C95.6896 18.968 95.0434 18.9259 94.4166 19.0432C93.7898 19.1604 93.2024 19.4331 92.7084 19.8363C85.5778 28.2609 76.1171 34.3911 65.5142 37.4571C54.9114 40.5232 43.6391 40.3884 33.1126 37.0696L30.7501 28.4613C30.3931 27.4551 29.6887 26.6094 28.7637 26.0763C27.8387 25.5431 26.7538 25.3576 25.7043 25.553L26.8293 34.6363C19.2626 31.1905 17.1918 30.6946 11.8834 24.428C11.1418 23.8696 5.26259 18.6321 3.70842 19.1655C8.14879 30.9843 16.9284 40.6655 28.2584 46.2363L31.3334 71.1113C31.3334 71.1113 32.7084 80.6363 41.6376 80.6363H60.7459C69.6793 80.6363 71.0543 71.1113 71.0543 71.1113L73.2126 53.278C67.4084 52.8196 63.7626 56.8488 62.6042 60.8363C60.6667 67.5613 60.6668 67.9863 60.2834 69.1613C59.5001 71.5571 56.9251 71.8446 56.9251 71.8446H45.4543C45.4543 71.8446 42.8834 71.553 42.0959 69.1613C41.5959 67.6155 39.0667 58.578 36.5334 49.4113C48.4728 52.7761 61.2405 51.5344 72.3078 45.9321C83.375 40.3298 91.9348 30.7754 96.2918 19.1613L96.2959 19.1655Z" fill="#06AEEF"/>
</svg>
