<svg width="100" height="100" viewBox="0 0 100 100" fill="none" xmlns="http://www.w3.org/2000/svg">
<g clip-path="url(#clip0_1085_3763)">
<path d="M67.1875 43.5382L18.961 53.6476C17.7019 53.8412 16.457 54.1179 15.2344 54.4757C11.4031 55.6088 8.02849 57.9251 5.59379 61.0929C-8.80464 79.796 6.64067 104.241 28.7188 99.3742L81.6251 91.7101C87.2063 90.4651 92.0875 87.1046 95.2422 82.3351C108.883 61.9679 91.2188 36.4914 67.1875 43.5382Z" fill="url(#paint0_linear_1085_3763)"/>
<path d="M40.6795 6.36673C34.7342 0.897978 25.9999 -1.64108 16.1952 1.2261C12.1231 2.43154 8.53581 4.89233 5.94517 8.25735C-3.90639 21.0933 -0.60952 36.4214 9.27329 44.3355L61.9061 88.2808C64.7879 90.1609 68.0236 91.4322 71.4145 92.0166C74.8054 92.601 78.2799 92.4862 81.6249 91.6792C87.2061 90.4342 92.0873 87.0737 95.2421 82.3042C103.367 70.2183 100.39 56.2495 91.5702 48.437L40.6795 6.36673Z" fill="url(#paint1_linear_1085_3763)"/>
<path d="M22.9221 0.117188C20.6484 0.260579 18.3949 0.63224 16.1955 1.22656C12.1235 2.432 8.53619 4.89279 5.94555 8.25781C-9.37477 28.125 7.03149 54.1406 30.5315 48.9609L93.6018 25.1719C95.4311 24.7668 97.0327 23.6693 98.0705 22.1094C101.977 16.2188 97.9846 9.03906 91.5705 9L25.5393 0C24.6018 0 23.7268 0.0546875 22.9221 0.117188Z" fill="url(#paint2_linear_1085_3763)"/>
<path d="M18.75 18.75H81.25V81.25H18.75V18.75Z" fill="black"/>
<path d="M26.5625 69.532H50V73.4382H26.5625V69.532ZM46.875 50.6335L44.2969 48.2898C42.2235 49.6132 39.8112 50.3079 37.3516 50.2898C30.1406 50.3289 25 44.9539 25 38.282C25 31.6335 30.2422 26.1882 37.5 26.1882C44.7578 26.1882 49.8906 31.5632 49.8906 38.2117V38.282C49.8833 40.6751 49.1625 43.0116 47.8203 44.9929L50.2266 47.032L46.875 50.6335ZM40.4922 44.9539L36.7188 41.7117L39.9922 38.0398L43.8281 41.5164C44.2498 40.4911 44.4572 39.3904 44.4375 38.282C44.4699 37.3302 44.3108 36.3815 43.9696 35.4924C43.6283 34.6032 43.1119 33.7917 42.451 33.106C41.79 32.4203 40.9981 31.8744 40.1221 31.5006C39.2461 31.1269 38.3039 30.933 37.3516 30.9304C33.2109 30.9304 30.3203 34.2039 30.3203 38.2117V38.282C30.2879 39.2328 30.4468 40.1804 30.7876 41.0686C31.1285 41.9568 31.6444 42.7675 32.3046 43.4524C32.9648 44.1374 33.7559 44.6828 34.6309 45.0561C35.506 45.4294 36.4471 45.6231 37.3984 45.6257C38.4676 45.6427 39.5263 45.4127 40.4922 44.9539ZM53.8047 26.5632H62.6172C69.9609 26.5632 75.0391 31.6101 75.0391 38.1882V38.282C75.0391 44.8601 69.9609 50.0007 62.6172 50.0007H53.8047V26.5632ZM58.9453 31.2507V45.3132H62.6172C66.8203 45.3132 69.6484 42.4695 69.6484 38.3289V38.282C69.693 37.3468 69.5417 36.4126 69.2041 35.5393C68.8666 34.6661 68.3502 33.873 67.6882 33.211C67.0262 32.549 66.2331 32.0326 65.3598 31.695C64.4865 31.3575 63.5524 31.2061 62.6172 31.2507H58.9453Z" fill="white"/>
</g>
<defs>
<linearGradient id="paint0_linear_1085_3763" x1="-2.03902" y1="78.5226" x2="79.5704" y2="66.7882" gradientUnits="userSpaceOnUse">
<stop offset="0.18" stop-color="#FC801D"/>
<stop offset="0.63" stop-color="#FF318C"/>
</linearGradient>
<linearGradient id="paint1_linear_1085_3763" x1="-13.9455" y1="-1.22702" x2="102.117" y2="85.0308" gradientUnits="userSpaceOnUse">
<stop stop-color="#FF318C"/>
<stop offset="0.4" stop-color="#B74AF7"/>
<stop offset="0.87" stop-color="#FF318C"/>
</linearGradient>
<linearGradient id="paint2_linear_1085_3763" x1="-27.4295" y1="36.9922" x2="101.281" y2="6.80469" gradientUnits="userSpaceOnUse">
<stop stop-color="#FF318C"/>
<stop offset="0.2" stop-color="#D73BAB"/>
<stop offset="0.51" stop-color="#9D4AD8"/>
<stop offset="0.75" stop-color="#7953F4"/>
<stop offset="0.87" stop-color="#6B57FF"/>
</linearGradient>
<clipPath id="clip0_1085_3763">
<rect width="100" height="100" fill="white"/>
</clipPath>
</defs>
</svg>
