<svg width="100" height="100" viewBox="0 0 100 100" fill="none" xmlns="http://www.w3.org/2000/svg">
<g clip-path="url(#clip0_1085_3769)">
<path d="M13.7311 13.2812L-0.189209 27.1V86.6516H86.242L100.161 72.8336V13.2812H90.5155H13.7311ZM37.1608 26.1141C43.692 26.1141 48.2764 27.9477 50.8756 31.65C53.5084 35.3141 54.8077 40.9859 54.8077 48.6602C54.8077 53.7172 54.2608 57.7914 53.203 60.8828C52.1069 64.0047 50.3639 66.382 47.9006 68.0117L53.2366 76.5352L46.7022 79.5563L41.06 70.3555C40.2397 70.6266 38.9389 70.7273 37.1616 70.7273C30.56 70.7273 25.9428 68.9633 23.3444 65.4328C20.7459 61.9023 19.4459 56.3 19.4459 48.6937C19.4459 41.0555 20.7788 35.3852 23.4116 31.6836C26.0444 27.9805 30.6616 26.1133 37.1616 26.1133L37.1608 26.1141ZM63.6655 28.5922H70.5444V37.7258H79.2999V43.5672H70.5444V57.4523C70.5444 60.0344 70.7459 61.7312 71.1225 62.5797C71.4991 63.4281 72.4897 63.8367 74.0311 63.8367L79.228 63.632L79.5381 69.132C76.6991 69.6742 74.5436 69.9461 73.0405 69.9461C69.4467 69.9461 66.9834 69.1312 65.6506 67.5016C64.317 65.8719 63.6319 62.7836 63.6319 58.2336V43.6023H58.8116V37.7258H63.6655V28.5922ZM37.1967 32.2602C33.228 32.2602 30.4928 33.5508 28.9858 36.1633C27.517 38.7789 26.7639 42.9211 26.7639 48.6602C26.7639 54.3633 27.4827 58.4719 28.9186 60.9164C30.3538 63.3609 33.1249 64.618 37.1959 64.618C41.2639 64.618 44.0014 63.3945 45.4381 60.9836C46.8413 58.5727 47.5569 54.4648 47.5569 48.7273C47.5569 42.9562 46.8405 38.7789 45.3694 36.1633C43.9006 33.5508 41.1967 32.2602 37.1967 32.2602Z" fill="#41CD52"/>
</g>
<defs>
<clipPath id="clip0_1085_3769">
<rect width="100" height="100" fill="white"/>
</clipPath>
</defs>
</svg>
