<svg width="100" height="100" viewBox="0 0 100 100" fill="none" xmlns="http://www.w3.org/2000/svg">
<g clip-path="url(#clip0_1085_3771)">
<path d="M39.6732 33.5625H60.3263C61.1016 33.5608 61.8696 33.7122 62.5863 34.0081C63.303 34.3039 63.9541 34.7385 64.5024 35.2867C65.0507 35.8349 65.4853 36.486 65.7812 37.2026C66.0772 37.9192 66.2287 38.6872 66.2271 39.4625V60.5375C66.2287 61.3129 66.0772 62.0809 65.7812 62.7975C65.4853 63.5141 65.0507 64.1652 64.5024 64.7134C63.9541 65.2616 63.303 65.6961 62.5863 65.992C61.8696 66.2879 61.1016 66.4393 60.3263 66.4375H39.6732C38.8978 66.4393 38.1298 66.2879 37.4131 65.992C36.6965 65.6961 36.0453 65.2616 35.497 64.7134C34.9488 64.1652 34.5142 63.5141 34.2182 62.7975C33.9222 62.0809 33.7707 61.3129 33.7724 60.5375V39.4625C33.7706 38.6871 33.9221 37.919 34.218 37.2023C34.5139 36.4856 34.9485 35.8344 35.4968 35.2862C36.0451 34.7379 36.6962 34.3033 37.413 34.0074C38.1297 33.7114 38.8978 33.5608 39.6732 33.5625ZM83.2692 66.0711V26.9352C83.2724 25.5394 82.9999 24.1568 82.4673 22.8667C81.9347 21.5765 81.1525 20.4043 80.1656 19.4173C79.1787 18.4303 78.0066 17.6479 76.7166 17.1151C75.4265 16.5823 74.0439 16.3096 72.6481 16.3125H27.3513C25.9556 16.3096 24.5731 16.5823 23.283 17.115C21.993 17.6478 20.821 18.4301 19.8341 19.417C18.8472 20.4039 18.065 21.5761 17.5324 22.8661C16.9997 24.1562 16.7271 25.5387 16.7302 26.9344V73.0641C16.7272 74.4597 16.9999 75.8422 17.5326 77.1321C18.0653 78.4221 18.8475 79.5941 19.8344 80.581C20.8212 81.5679 21.9933 82.3501 23.2832 82.8828C24.5732 83.4155 25.9557 83.6882 27.3513 83.6852L99.3599 83.6868C98.6294 92.8399 91.0239 99.9993 81.6857 99.9993H18.3138C15.9877 100.004 13.6836 99.5499 11.5336 98.6621C9.38362 97.7743 7.43016 96.4706 5.78535 94.8259C4.14054 93.1812 2.83677 91.2277 1.94889 89.0778C1.061 86.9279 0.606489 84.6237 0.611432 82.2977V17.7032C0.606282 15.3769 1.06067 13.0726 1.94851 10.9224C2.83635 8.77222 4.14016 6.8186 5.78507 5.17368C7.42999 3.52877 9.38361 2.22497 11.5338 1.33712C13.6839 0.449283 15.9883 -0.00510672 18.3146 4.32914e-05H81.6857C84.0118 -0.00500369 86.3161 0.449462 88.4662 1.33735C90.6163 2.22524 92.5698 3.52906 94.2146 5.17396C95.8595 6.81886 97.1632 8.77245 98.051 10.9226C98.9388 13.0727 99.3932 15.377 99.388 17.7032V66.0704L83.2692 66.0711Z" fill="#1A62B3"/>
</g>
<defs>
<clipPath id="clip0_1085_3771">
<rect width="100" height="100" fill="white"/>
</clipPath>
</defs>
</svg>
