<svg width="100" height="100" viewBox="0 0 100 100" fill="none" xmlns="http://www.w3.org/2000/svg">
<path d="M64.0469 20.406L50 28.5177L64.0469 36.6263V20.406Z" fill="#4695EB"/>
<path d="M35.953 20.406V36.6294L49.9999 28.5177L35.953 20.406Z" fill="#FF004A"/>
<path d="M64.0468 36.6315L49.9999 28.5198L35.953 36.6284L49.9999 44.7432L64.0468 36.6315Z" fill="#091313"/>
<path d="M21.1398 46.0653L35.1866 54.1739V37.9536L21.1398 46.0653Z" fill="#4695EB"/>
<path d="M35.1875 70.3982L49.2367 62.2865L35.1875 54.1748V70.3982Z" fill="#FF004A"/>
<path d="M35.1875 37.9536V54.1739L49.2367 62.2856V46.0653L35.1875 37.9536Z" fill="#091313"/>
<path d="M64.8124 70.399V54.1748L50.7639 62.2873L64.8124 70.399Z" fill="#4695EB"/>
<path d="M78.8601 46.0653L64.8132 37.9536V54.1739L78.8601 46.0653Z" fill="#FF004A"/>
<path d="M50.7632 62.2856L64.8124 54.1739V37.9536L50.7632 46.0653V62.2856Z" fill="#091313"/>
<path d="M80.4866 4.37622H19.5132C11.1851 4.37622 4.37646 11.184 4.37646 19.5129V80.4864C4.37646 88.8145 11.1843 95.6231 19.5132 95.6231H61.2702L49.9999 68.2458L41.821 85.5348H19.5132C16.7788 85.5348 14.4655 83.2207 14.4655 80.4864V19.5129C14.4655 16.7786 16.778 14.4653 19.5124 14.4653H80.4897C83.2241 14.4653 85.5374 16.7778 85.5374 19.5122V80.4864C85.5374 83.2207 83.2249 85.534 80.4905 85.534H67.2577L71.4108 95.6231H80.4866C88.8147 95.6231 95.6233 88.8153 95.6233 80.4864V19.5129C95.6233 11.1848 88.8155 4.37622 80.4866 4.37622Z" fill="#4695EB"/>
</svg>
