<svg width="100" height="100" viewBox="0 0 100 100" fill="none" xmlns="http://www.w3.org/2000/svg">
<g clip-path="url(#clip0_1085_3784)">
<path d="M57.2445 50.0003C57.2445 50.9518 57.057 51.8939 56.6928 52.773C56.3287 53.652 55.795 54.4507 55.1221 55.1234C53.7633 56.4821 51.9204 57.2454 49.9988 57.2453C48.0772 57.2452 46.2344 56.4817 44.8757 55.1229C43.517 53.764 42.7538 51.9211 42.7539 49.9996C42.754 48.078 43.5174 46.2351 44.8763 44.8765C46.2351 43.5178 48.078 42.7545 49.9996 42.7546C51.9212 42.7547 53.764 43.5182 55.1227 44.877C56.4814 46.2359 57.2446 48.0788 57.2445 50.0003ZM82.1594 31.4277C80.5869 28.7134 78.6732 26.2118 76.4648 23.9839L68.0844 28.8183C65.502 26.6133 62.5407 24.8956 59.3445 23.7488C56.5497 26.5548 54.2608 29.8227 52.5789 33.4082C61.9047 32.773 71.5328 36.1511 80.4687 43.1332L85.7422 40.0878C84.9203 37.0605 83.7164 34.1509 82.1594 31.4277ZM50 87.1277C53.1341 87.118 56.2544 86.7122 59.2867 85.9199V76.2519C62.49 75.1189 65.4594 73.4101 68.0484 71.2097C67.0138 67.3861 65.3291 63.769 63.0679 60.5167C58.9539 68.9058 51.2203 75.5558 40.7047 79.8035V85.8894C43.7361 86.7044 46.8609 87.1211 50 87.1277ZM17.8406 31.4363C16.2802 34.1559 15.0731 37.0635 14.2484 40.0886L22.6258 44.9222C22.0062 48.2605 22.0008 51.6878 22.6078 55.03C26.4354 56.0492 30.4103 56.3991 34.357 56.0644C29.1406 48.3097 27.2554 38.2816 28.8265 27.0511L23.5531 24.0058C21.3393 26.2284 19.4195 28.7256 17.8406 31.4363Z" fill="black"/>
<path d="M50 0.0976562C22.4398 0.0976562 0.0976562 22.4398 0.0976562 50C0.0976562 77.5602 22.4398 99.9023 50 99.9023C77.5602 99.9023 99.9023 77.5602 99.9023 50C99.9023 22.4398 77.5602 0.0976562 50 0.0976562ZM50 6.48516C73.9922 6.48516 93.5156 26.007 93.5156 50C93.5156 73.993 73.9922 93.5156 50 93.5156C26.0078 93.5156 6.48438 73.9922 6.48438 50C6.48438 26.0078 26.0078 6.48516 50 6.48516ZM50 12.8602C46.8659 12.8725 43.7458 13.2793 40.7133 14.0711V23.7398C37.5095 24.8701 34.5399 26.5777 31.9516 28.7781C32.9847 32.6023 34.6695 36.2196 36.932 39.4711C41.0461 31.0852 48.7789 24.432 59.2953 20.1844V14.1016C56.2624 13.2936 53.1387 12.8762 50 12.8594V12.8602ZM69.6016 43.8281C68.2855 43.7899 66.9683 43.8256 65.6562 43.9352C70.8672 51.6898 72.7539 61.718 71.182 72.9484L76.4555 75.9938C78.6599 73.7651 80.5761 71.2688 82.1594 68.5633C83.7219 65.85 84.9211 62.9383 85.7516 59.9109L77.3828 55.0781C78.0078 51.7 78.0078 48.2812 77.4008 44.9703C74.8531 44.2923 72.2359 43.9095 69.6008 43.8297L69.6016 43.8281ZM19.5312 56.8547L14.2578 59.9039C15.0867 62.9288 16.2903 65.8383 17.8406 68.5648C19.4131 71.2789 21.3269 73.7802 23.5352 76.0078L31.9156 71.1742C34.4973 73.3792 37.4589 75.0958 40.6555 76.2398C43.45 73.4348 45.7388 70.168 47.4211 66.5836C38.0953 67.2188 28.4672 63.8375 19.5312 56.8547Z" fill="#00B4FF"/>
</g>
<defs>
<clipPath id="clip0_1085_3784">
<rect width="100" height="100" fill="white"/>
</clipPath>
</defs>
</svg>
