<svg width="100" height="100" viewBox="0 0 100 100" fill="none" xmlns="http://www.w3.org/2000/svg">
<path d="M52.5167 5.58435C54.1542 8.45935 55.7834 11.3427 57.4084 14.2302C57.4741 14.3457 57.5692 14.4416 57.6842 14.5082C57.7991 14.5749 57.9297 14.6097 58.0625 14.6093H81.1959C81.9209 14.6093 82.5375 15.0677 83.0542 15.9718L89.1125 26.6802C89.9042 28.0843 90.1125 28.6718 89.2125 30.1677C88.1292 31.9593 87.075 33.7677 86.0459 35.5843L84.5167 38.326C84.075 39.1427 83.5875 39.4927 84.35 40.4593L95.4 59.7802C96.1167 61.0343 95.8625 61.8385 95.2209 62.9885C93.4 66.2593 91.5459 69.5052 89.6584 72.7385C88.9959 73.8718 88.1917 74.301 86.825 74.2802C83.5875 74.2135 80.3584 74.2385 77.1292 74.3468C77.06 74.3504 76.9928 74.3714 76.9338 74.4078C76.8748 74.4442 76.8259 74.4949 76.7917 74.5552C73.066 81.1563 69.309 87.7397 65.5209 94.3052C64.8167 95.526 63.9375 95.8177 62.5 95.8218C58.3459 95.8343 54.1584 95.8385 49.9292 95.8302C49.5355 95.8291 49.149 95.7241 48.8088 95.5258C48.4686 95.3276 48.1867 95.0431 47.9917 94.701L42.4292 85.0219C42.3968 84.9585 42.3472 84.9057 42.2859 84.8696C42.2247 84.8334 42.1544 84.8154 42.0834 84.8177H20.7584C19.5709 84.9427 18.4542 84.8135 17.4042 84.4343L10.725 72.8927C10.5275 72.5509 10.4228 72.1635 10.4213 71.7688C10.4199 71.3741 10.5217 70.9859 10.7167 70.6427L15.7459 61.8093C15.8175 61.6844 15.8552 61.5429 15.8552 61.3989C15.8552 61.2549 15.8175 61.1134 15.7459 60.9885C13.1262 56.453 10.522 51.9085 7.93337 47.3552L4.64171 41.5427C3.97504 40.251 3.92087 39.476 5.03754 37.5218C6.97504 34.1343 8.90004 30.751 10.8167 27.3718C11.3667 26.3968 12.0834 25.9802 13.25 25.976C16.8459 25.9609 20.4417 25.9595 24.0375 25.9718C24.1284 25.9711 24.2174 25.9465 24.2957 25.9004C24.374 25.8543 24.4387 25.7884 24.4834 25.7093L36.175 5.31351C36.3522 5.00324 36.608 4.74513 36.9167 4.56518C37.2254 4.38524 37.5761 4.28981 37.9334 4.28851C40.1167 4.28435 42.3209 4.28851 44.5292 4.26351L48.7667 4.16768C50.1875 4.15518 51.7834 4.30101 52.5167 5.58435ZM38.2167 7.26351C38.1728 7.26349 38.1297 7.27502 38.0916 7.29697C38.0536 7.31891 38.022 7.35049 38 7.38851L26.0584 28.2843C26.001 28.3828 25.919 28.4646 25.8203 28.5216C25.7217 28.5786 25.6098 28.6089 25.4959 28.6093H13.5542C13.3209 28.6093 13.2625 28.7135 13.3834 28.9177L37.5917 71.2344C37.6959 71.4093 37.6459 71.4927 37.45 71.4968L25.8042 71.5593C25.634 71.5537 25.4655 71.596 25.3182 71.6814C25.1708 71.7669 25.0505 71.8921 24.9709 72.0427L19.4709 81.6677C19.2875 81.9927 19.3834 82.1593 19.7542 82.1593L43.5709 82.1927C43.7625 82.1927 43.9042 82.276 44.0042 82.4469L49.85 92.6718C50.0417 93.0093 50.2334 93.0135 50.4292 92.6718L71.2875 56.1718L74.55 50.4135C74.5699 50.3779 74.599 50.3483 74.6341 50.3277C74.6693 50.3071 74.7093 50.2962 74.75 50.2962C74.7908 50.2962 74.8308 50.3071 74.866 50.3277C74.9011 50.3483 74.9301 50.3779 74.95 50.4135L80.8834 60.9552C80.9279 61.0341 80.9927 61.0996 81.0711 61.145C81.1495 61.1904 81.2386 61.2141 81.3292 61.2135L92.8417 61.1302C92.8712 61.1304 92.9003 61.1229 92.9259 61.1082C92.9515 61.0936 92.9728 61.0724 92.9875 61.0468C93.0018 61.0214 93.0092 60.9927 93.0092 60.9635C93.0092 60.9343 93.0018 60.9056 92.9875 60.8802L80.9042 39.6885C80.8607 39.6177 80.8377 39.5362 80.8377 39.4531C80.8377 39.37 80.8607 39.2885 80.9042 39.2177L82.125 37.1052L86.7917 28.8677C86.8917 28.6968 86.8417 28.6093 86.6459 28.6093H38.3334C38.0875 28.6093 38.0292 28.501 38.1542 28.2885L44.1292 17.851C44.174 17.7799 44.1977 17.6976 44.1977 17.6135C44.1977 17.5295 44.174 17.4471 44.1292 17.376L38.4375 7.39268C38.4158 7.35326 38.3838 7.32045 38.3449 7.29771C38.306 7.27497 38.2617 7.26316 38.2167 7.26351ZM64.425 40.6802C64.6167 40.6802 64.6667 40.7635 64.5667 40.9302L61.1 47.0343L50.2125 66.1385C50.1921 66.1757 50.1619 66.2066 50.1252 66.2279C50.0885 66.2492 50.0466 66.2601 50.0042 66.2593C49.9619 66.2592 49.9205 66.2479 49.8839 66.2267C49.8474 66.2055 49.817 66.1751 49.7959 66.1385L35.4084 41.0052C35.325 40.8635 35.3667 40.7885 35.525 40.7802L36.425 40.7302L64.4334 40.6802H64.425Z" fill="url(#paint0_linear_867_20783)"/>
<defs>
<linearGradient id="paint0_linear_867_20783" x1="4.16467" y1="4.16699" x2="9170.95" y2="4.16699" gradientUnits="userSpaceOnUse">
<stop stop-color="#00055F" stop-opacity="0.84"/>
<stop offset="1" stop-color="#6F69F7" stop-opacity="0.84"/>
</linearGradient>
</defs>
</svg>
