<svg width="100" height="100" viewBox="0 0 100 100" fill="none" xmlns="http://www.w3.org/2000/svg">
<g clip-path="url(#clip0_867_20104)">
<path d="M85.7856 99.9991L67.8297 82.1448L67.5553 82.184V81.9882L29.3696 44.2828L38.7789 35.1991L33.251 3.48438L7.02286 35.9823C2.55349 40.4849 1.73019 47.8068 4.945 53.21L21.3327 80.3829C23.8418 84.5724 28.3895 87.0783 33.2902 87.0391L41.4057 86.9607L85.7856 99.9991Z" fill="#18B6F6"/>
<path d="M95.5854 35.3554L91.9785 28.6993L90.0966 25.293L89.3518 23.9617L89.2734 24.0401L79.3936 6.92971C76.9238 2.62277 72.2977 -0.0397076 67.2794 -0.000550507L58.6151 0.234351L32.7789 0.312666C27.8784 0.351823 23.4091 2.93599 20.9391 7.12548L5.2179 38.292L33.3279 3.40584L70.1806 43.891L63.6332 50.5081L67.5538 82.1838L67.593 82.1054V82.1838H67.5146L67.593 82.2619L70.651 85.2377L85.5097 99.7638C86.137 100.351 87.1564 99.6465 86.725 98.9025L77.5512 80.8524L93.5468 51.2913L94.0563 50.7039C94.2523 50.4689 94.4483 50.2341 94.6053 49.9991C97.7417 45.7313 98.1729 40.0149 95.5854 35.3554Z" fill="#AC7EF4"/>
<path d="M70.2977 43.7346L33.3274 3.44507L38.5809 35.0032L29.1716 44.1262L67.4749 82.1447L64.0249 50.5865L70.2977 43.7346Z" fill="white"/>
</g>
<defs>
<clipPath id="clip0_867_20104">
<rect width="100" height="100" fill="white"/>
</clipPath>
</defs>
</svg>
