<svg width="100" height="100" viewBox="0 0 100 100" fill="none" xmlns="http://www.w3.org/2000/svg">
<path fill-rule="evenodd" clip-rule="evenodd" d="M50 78.4217C22.3859 78.4217 0 63.4295 0 44.935C0 26.4404 22.3859 11.4482 50 11.4482C77.6141 11.4482 100 26.4404 100 44.935C100 63.4295 77.6141 78.4217 50 78.4217ZM57.6531 24.5412C36.6641 24.5412 19.6484 34.7904 19.6484 47.4342C19.6484 60.0771 36.6641 70.3271 57.6531 70.3271C78.6422 70.3271 94.132 63.3193 94.132 47.4342C94.132 31.5537 78.6422 24.5412 57.6531 24.5412Z" fill="url(#paint0_linear_1085_3791)"/>
<path fill-rule="evenodd" clip-rule="evenodd" d="M76.1477 63.3073C76.1477 63.3073 79.1742 64.2206 80.9321 65.1104C81.5414 65.419 82.5977 66.0346 83.3586 66.844C83.8054 67.3173 84.1793 67.8544 84.468 68.4377L96.3946 88.5471L77.118 88.5549L68.1047 71.6284C68.1047 71.6284 66.2586 68.4565 65.1227 67.537C64.175 66.7698 63.7711 66.4971 62.8344 66.4971H58.2547L58.2578 88.5432L41.2008 88.5502V32.2346H75.4539C75.4539 32.2346 91.0555 32.5159 91.0555 47.3588C91.0555 62.2018 76.1477 63.3073 76.1477 63.3073ZM68.7281 44.4502L58.4016 44.4432L58.3969 54.0198L68.7281 54.0159C68.7281 54.0159 73.5125 54.001 73.5125 49.1448C73.5125 44.1917 68.7281 44.4502 68.7281 44.4502Z" fill="url(#paint1_linear_1085_3791)"/>
<defs>
<linearGradient id="paint0_linear_1085_3791" x1="0.000564052" y1="11.4409" x2="61.9319" y2="103.91" gradientUnits="userSpaceOnUse">
<stop stop-color="#CBCED0"/>
<stop offset="1" stop-color="#84838B"/>
</linearGradient>
<linearGradient id="paint1_linear_1085_3791" x1="41.2008" y1="32.2343" x2="97.5094" y2="87.4155" gradientUnits="userSpaceOnUse">
<stop stop-color="#276DC3"/>
<stop offset="1" stop-color="#165CAA"/>
</linearGradient>
</defs>
</svg>
