<svg width="100" height="100" viewBox="0 0 100 100" fill="none" xmlns="http://www.w3.org/2000/svg">
<g clip-path="url(#clip0_1085_3794)">
<path d="M93.3726 39.9907H61.946C61.5725 39.9907 61.2025 39.917 60.8574 39.774C60.5123 39.631 60.1987 39.4214 59.9347 39.1572C59.6706 38.893 59.4611 38.5793 59.3183 38.2341C59.1755 37.8889 59.1021 37.5189 59.1023 37.1453V4.39066C59.1038 3.81344 58.9912 3.24161 58.771 2.70806C58.5508 2.17452 58.2272 1.68978 57.8189 1.28173C57.4107 0.873688 56.9258 0.550385 56.3921 0.330421C55.8584 0.110458 55.2865 -0.00182498 54.7093 3.07831e-05H43.4843C42.9069 -0.00213416 42.3347 0.109915 41.8007 0.32973C41.2667 0.549545 40.7815 0.872787 40.3729 1.28085C39.9643 1.68892 39.6405 2.17376 39.42 2.70746C39.1995 3.24117 39.0868 3.8132 39.0882 4.39066V36.9266C39.0895 37.3293 39.0111 37.7283 38.8577 38.1006C38.7043 38.4729 38.4788 38.8113 38.1942 39.0962C37.9097 39.3812 37.5716 39.6071 37.1994 39.761C36.8273 39.9149 36.4284 39.9937 36.0257 39.993L25.7226 40.0297C24.0226 40.0297 22.6195 38.6625 22.6554 36.9625L22.7288 4.39456C22.7308 3.81685 22.6185 3.24445 22.3983 2.71035C22.1781 2.17624 21.8544 1.69098 21.4458 1.28251C21.0373 0.874037 20.552 0.550429 20.0178 0.330324C19.4837 0.110219 18.9112 -0.00203361 18.3335 3.07831e-05H7.10932C6.53172 -0.00161863 5.95949 0.110918 5.42554 0.33117C4.89158 0.551422 4.40642 0.875045 3.99796 1.28343C3.5895 1.69182 3.26579 2.17692 3.04544 2.71084C2.8251 3.24476 2.71246 3.81696 2.714 4.39456V96.086C2.714 98.2242 4.44838 100 6.62807 100H93.3726C94.4103 99.9988 95.4051 99.5858 96.1386 98.8519C96.8721 98.1179 97.2845 97.1229 97.2851 96.0852V43.9024C97.2884 43.3877 97.1895 42.8775 96.994 42.4013C96.7986 41.9252 96.5105 41.4926 96.1465 41.1287C95.7825 40.7648 95.3499 40.4768 94.8737 40.2814C94.3975 40.0861 93.8873 39.9872 93.3726 39.9907ZM78.6406 74.4078C78.6362 75.7584 78.0978 77.0524 77.1427 78.0074C76.1876 78.9623 74.8935 79.5006 73.5429 79.5047H64.6804C63.3301 79.5002 62.0364 78.9617 61.0817 78.0068C60.1269 77.0519 59.5886 75.7581 59.5843 74.4078V65.5469C59.5886 64.1966 60.1269 62.9028 61.0817 61.9479C62.0364 60.993 63.3301 60.4546 64.6804 60.45H73.5421C74.8926 60.4541 76.1866 60.9923 77.1416 61.9471C78.0967 62.9019 78.6353 64.1957 78.6398 65.5461L78.6406 74.4078Z" fill="#FF6600"/>
</g>
<defs>
<clipPath id="clip0_1085_3794">
<rect width="100" height="100" fill="white"/>
</clipPath>
</defs>
</svg>
