<svg width="100" height="100" viewBox="0 0 100 100" fill="none" xmlns="http://www.w3.org/2000/svg">
<g clip-path="url(#clip0_1085_3796)">
<path d="M100 50C100 77.3977 77.6148 99.6094 50 99.6094C22.3852 99.6094 0 77.3984 0 50C0 22.6016 22.3852 0.390625 50 0.390625C77.6148 0.390625 100 22.6016 100 50Z" fill="white"/>
<path d="M89.3406 80.6188C96.0187 72.1875 100 61.5563 100 50C100 22.6016 77.6148 0.390653 50 0.390653C44.1701 0.384531 38.3835 1.39171 32.8984 3.36722C53.1969 13.9336 80.0484 48.4039 89.3406 80.6188Z" fill="#3E5BA9"/>
<path d="M42.8398 32.0349C35.0391 23.6974 26.3062 17.0771 17.0523 12.6873C6.60234 21.7779 0 35.1248 0 49.9998C0 62.5076 4.66797 73.9349 12.3672 82.6591C19.1547 62.4279 31.9117 42.9287 42.8398 32.0349ZM52.0531 43.2849C41.2273 54.8591 30.4422 75.1208 26.5375 93.8162C33.5352 97.5099 41.5187 99.6091 49.9992 99.6091C58.7187 99.6091 66.9156 97.3943 74.0508 93.5021C69.9352 74.6427 62.1726 57.3724 52.0531 43.2849Z" fill="#9F1D20"/>
</g>
<defs>
<clipPath id="clip0_1085_3796">
<rect width="100" height="100" fill="white"/>
</clipPath>
</defs>
</svg>
