<svg width="100" height="100" viewBox="0 0 100 100" fill="none" xmlns="http://www.w3.org/2000/svg">
<g clip-path="url(#clip0_1085_3800)">
<path d="M100 50C100 63.2608 94.7322 75.9785 85.3553 85.3553C75.9785 94.7322 63.2608 100 50 100C36.7392 100 24.0215 94.7322 14.6447 85.3553C5.26784 75.9785 0 63.2608 0 50C0 36.7392 5.26784 24.0215 14.6447 14.6447C24.0215 5.26784 36.7392 0 50 0C63.2608 0 75.9785 5.26784 85.3553 14.6447C94.7322 24.0215 100 36.7392 100 50Z" fill="url(#paint0_radial_1085_3800)"/>
<path d="M26.5414 5.84766C33.55 2.11563 41.5531 4.88639e-07 50.0492 4.88639e-07C57.9732 -0.00110662 65.7843 1.87909 72.8399 5.48593C79.8955 9.09276 85.9939 14.3232 90.6336 20.7469C84.1953 40.0305 65.5586 49.4969 54.1859 50.2047C57.9359 51.7109 16.9632 15.7711 26.5414 5.84766Z" fill="url(#paint1_radial_1085_3800)"/>
<path d="M23.5437 24.6765C15.4508 24.6765 9.45935 24.8187 2.93904 33.1203C0.424651 40.122 -0.494069 47.597 0.249973 54.9992C24.2203 43.1046 42.6718 38.9632 51.4101 48.4679C51.4949 48.5166 51.575 48.5731 51.6492 48.6367C52.7466 49.6117 53.8484 50.5818 54.9547 51.5468C53.1586 36.8335 39.5054 24.6765 23.5437 24.6765Z" fill="url(#paint2_radial_1085_3800)"/>
<path d="M8.97388 78.5758C8.09731 69.1594 14.0622 59.2383 21.6848 53.6766C32.1473 46.0438 44.7622 44.6063 52.0379 48.9829C44.4317 34.9946 36.4715 32.879 30.2723 32.9001C14.6872 32.9524 3.16841 42.5797 0.118408 52.9415C0.672314 62.436 3.84497 71.2321 8.97388 78.5758Z" fill="url(#paint3_radial_1085_3800)"/>
<path d="M50.0501 100.001C33.0439 100.001 18.0189 91.5279 8.97432 78.5771C8.09776 69.1607 14.0626 59.2396 21.6853 53.6779C32.1478 46.045 44.7626 44.6075 52.0384 48.9841L50.0501 100.001Z" fill="url(#paint4_linear_1085_3800)"/>
<path d="M68.7877 61.5238C63.9573 59.5261 57.2409 53.6019 51.651 48.6363C50.4526 47.5722 46.1862 47.9863 45.6291 49.4988L40.9729 62.1464L68.7877 61.5238Z" fill="url(#paint5_linear_1085_3800)"/>
<path d="M36.6421 94.2817C32.8452 89.9262 30.6155 81.6848 33.7413 74.8012C36.2311 69.3192 41.5241 65.7254 45.4882 63.309C53.2304 58.5903 61.746 58.8778 69.4991 61.9481C81.3007 66.6215 92.4179 62.9309 99.9999 53.1536C98.3335 79.4911 76.4655 100 50.0499 100C47.3042 100.001 44.5632 99.7751 41.8546 99.3254C39.4405 98.0129 38.1889 96.0567 36.6421 94.2817Z" fill="url(#paint6_radial_1085_3800)"/>
<path d="M50.0501 100C39.7657 100.001 29.7304 96.8355 21.308 90.9337C21.2652 90.3289 21.2439 89.7228 21.2439 89.1166C21.2439 76.0572 32.0197 65.4705 45.3119 65.4705C58.6048 65.4705 69.3806 76.0572 69.3806 89.1166C69.3806 91.6267 68.9775 94.2205 68.1798 96.6048C62.399 98.8494 56.2515 100.001 50.0501 100Z" fill="url(#paint7_linear_1085_3800)"/>
<path d="M50.0497 9.73569e-08C59.4493 -0.000585905 68.6592 2.64425 76.6263 7.63203C79.9544 18.5461 72.0106 27.3555 65.895 31.5172C54.6263 39.1852 44.938 34.2172 36.5669 29.55C28.5177 25.0617 17.3231 21.2508 5.55518 27.1047C14.1372 10.4609 31.3075 9.73569e-08 50.0497 9.73569e-08Z" fill="url(#paint8_radial_1085_3800)"/>
<path d="M64.1567 17.6148C65.0216 28.7867 60.3349 35.9414 51.0911 35.3906C45.8466 34.6875 41.0239 32.0352 36.5669 29.55C28.5177 25.0617 17.3231 21.2508 5.55518 27.1047C14.1372 10.4609 31.3075 0 50.0497 0C50.2846 0 50.5195 0.0015625 50.7544 0.0046875C53.9544 1.23125 63.2927 6.44297 64.1567 17.6148Z" fill="url(#paint9_linear_1085_3800)"/>
<path d="M74.4234 40.9614V62.6364H76.9023C79.5211 62.6364 82.4531 61.3974 83.943 59.9083C89.9125 53.9388 87.5711 46.1982 83.8102 43.5044C82.6695 42.6872 80.3773 40.9614 76.6461 40.9614H74.4234ZM68.0344 37.7982C68.0344 35.9075 69.382 34.5583 71.1453 34.5607L77.2164 34.5693C86.2414 34.5825 93.0422 41.9083 93.8141 49.4372C94.9469 60.4825 86.9 69.0247 76.7695 69.0247L71.2828 69.0239C69.4125 69.0224 68.0312 67.6427 68.0312 65.7677L68.0344 37.7982ZM50.6234 34.6474C49.2156 34.6474 48.0375 35.4372 47.5508 36.7357C44.0703 46.006 40.5898 55.2763 37.118 64.5505C36.5883 65.9646 37.1609 67.4536 37.7742 68.0841C39.3711 69.7278 42.2219 69.12 43.0398 66.9646C43.7367 65.1263 44.5516 63.0185 45.2391 61.1763H56.0078C56.6953 63.0185 57.5102 65.1263 58.207 66.9646C59.0242 69.12 61.8758 69.7278 63.4727 68.0841C64.0859 67.4536 64.6578 65.9653 64.1289 64.5505C60.657 55.2771 57.1766 46.006 53.6961 36.7357C53.2086 35.4372 52.032 34.6474 50.6234 34.6474ZM50.6078 46.7083L53.668 54.8302H47.5484L50.6078 46.7083ZM15.1422 40.9443V49.695L20.5094 49.6872C23.2688 49.6833 25.2812 46.9458 24.7039 44.4466C24.2258 42.3802 22.4305 40.9435 20.4187 40.9435L15.1422 40.9443ZM29.9602 56.3458L33.4352 64.5903C33.7674 65.3659 33.7808 66.2411 33.4724 67.0265C33.164 67.8119 32.5587 68.4441 31.7875 68.7864C31.4025 68.9588 30.9868 69.0525 30.5651 69.0619C30.1433 69.0714 29.7239 68.9963 29.3316 68.8413C28.9392 68.6862 28.5818 68.4543 28.2804 68.1591C27.979 67.8639 27.7397 67.5114 27.5766 67.1224C26.4984 64.5802 25.3664 62.0599 24.35 59.4927C23.2672 56.7607 20.7359 56.0771 19.0703 56.0771H15.1305V65.8075C15.1305 67.6122 13.6891 69.0263 11.875 69.0263C9.85313 69.0263 8.74609 67.3997 8.74531 65.6458L8.74219 37.7732C8.74219 35.7661 10.2344 34.5833 12.0352 34.5653C14.8313 34.5372 17.6273 34.5271 20.4234 34.5622C23.55 34.6013 26.2148 35.7497 28.3555 38.0521C32.4594 42.4638 32.0078 49.1021 27.8055 53.1794C28.7047 54.1185 29.4219 55.0653 29.9617 56.345L29.9602 56.3458Z" fill="black" fill-opacity="0.2"/>
<path d="M74.4234 39.3989V61.0739H76.9023C79.5211 61.0739 82.4531 59.8349 83.943 58.3458C89.9125 52.3763 87.5711 44.6357 83.8102 41.9419C82.6695 41.1247 80.3773 39.3989 76.6461 39.3989H74.4234ZM68.0344 36.2357C68.0344 34.345 69.382 32.9958 71.1453 32.9982L77.2164 33.0068C86.2414 33.02 93.0422 40.3458 93.8141 47.8747C94.9469 58.92 86.9 67.4622 76.7695 67.4622L71.2828 67.4614C69.4125 67.4599 68.0312 66.0802 68.0312 64.2052L68.0344 36.2357ZM50.6234 33.0849C49.2156 33.0849 48.0375 33.8747 47.5508 35.1732C44.0703 44.4435 40.5898 53.7138 37.118 62.988C36.5883 64.4021 37.1609 65.8911 37.7742 66.5216C39.3711 68.1653 42.2219 67.5575 43.0398 65.4021C43.7367 63.5638 44.5516 61.456 45.2391 59.6138H56.0078C56.6953 61.456 57.5102 63.5638 58.207 65.4021C59.0242 67.5575 61.8758 68.1653 63.4727 66.5216C64.0859 65.8911 64.6578 64.4028 64.1289 62.988C60.657 53.7146 57.1766 44.4435 53.6961 35.1732C53.2086 33.8747 52.032 33.0849 50.6234 33.0849ZM50.6078 45.1458L53.668 53.2677H47.5484L50.6078 45.1458ZM15.1422 39.3818V48.1325L20.5094 48.1247C23.2688 48.1208 25.2812 45.3833 24.7039 42.8841C24.2258 40.8177 22.4305 39.381 20.4187 39.381L15.1422 39.3818ZM29.9602 54.7833L33.4352 63.0278C33.7674 63.8034 33.7808 64.6786 33.4724 65.464C33.164 66.2494 32.5587 66.8816 31.7875 67.2239C31.4025 67.3963 30.9868 67.49 30.5651 67.4994C30.1433 67.5089 29.7239 67.4338 29.3316 67.2788C28.9392 67.1237 28.5818 66.8918 28.2804 66.5966C27.979 66.3014 27.7397 65.9489 27.5766 65.5599C26.4984 63.0177 25.3664 60.4974 24.35 57.9302C23.2672 55.1982 20.7359 54.5146 19.0703 54.5146H15.1305V64.245C15.1305 66.0497 13.6891 67.4638 11.875 67.4638C9.85313 67.4638 8.74609 65.8372 8.74531 64.0833L8.74219 36.2107C8.74219 34.2036 10.2344 33.0208 12.0352 33.0028C14.8313 32.9747 17.6273 32.9646 20.4234 32.9997C23.55 33.0388 26.2148 34.1872 28.3555 36.4896C32.4594 40.9013 32.0078 47.5396 27.8055 51.6169C28.7047 52.556 29.4219 53.5028 29.9617 54.7825L29.9602 54.7833Z" fill="black" fill-opacity="0.36"/>
<path d="M74.4234 38.1633V59.8383H76.9023C79.5211 59.8383 82.4531 58.5992 83.943 57.1102C89.9125 51.1406 87.5711 43.4 83.8102 40.7063C82.6695 39.8891 80.3773 38.1633 76.6461 38.1633H74.4234ZM68.0344 35C68.0344 33.1094 69.382 31.7602 71.1453 31.7625L77.2164 31.7711C86.2414 31.7844 93.0422 39.1102 93.8141 46.6391C94.9469 57.6844 86.9 66.2266 76.7695 66.2266L71.2828 66.2258C69.4125 66.2242 68.0312 64.8445 68.0312 62.9695L68.0344 35ZM50.6234 31.8492C49.2156 31.8492 48.0375 32.6391 47.5508 33.9375C44.0703 43.2078 40.5898 52.4781 37.118 61.7524C36.5883 63.1664 37.1609 64.6555 37.7742 65.286C39.3711 66.9297 42.2219 66.3219 43.0398 64.1664C43.7367 62.3281 44.5516 60.2203 45.2391 58.3781H56.0078C56.6953 60.2203 57.5102 62.3281 58.207 64.1664C59.0242 66.3219 61.8758 66.9297 63.4727 65.286C64.0859 64.6555 64.6578 63.1672 64.1289 61.7524C60.657 52.4789 57.1766 43.2078 53.6961 33.9375C53.2086 32.6391 52.032 31.8492 50.6234 31.8492ZM50.6078 43.9102L53.668 52.032H47.5484L50.6078 43.9102ZM15.1422 38.1461V46.8977L20.5094 46.8899C23.2688 46.886 25.2812 44.1485 24.7039 41.6492C24.2258 39.5828 22.4305 38.1461 20.4187 38.1461H15.1422ZM29.9602 53.5477L33.4352 61.7922C33.7674 62.5678 33.7808 63.443 33.4724 64.2284C33.164 65.0137 32.5587 65.646 31.7875 65.9883C31.4025 66.1607 30.9868 66.2544 30.5651 66.2638C30.1433 66.2732 29.7239 66.1982 29.3316 66.0432C28.9392 65.8881 28.5818 65.6562 28.2804 65.361C27.979 65.0658 27.7397 64.7133 27.5766 64.3242C26.4984 61.782 25.3664 59.2617 24.35 56.6945C23.2672 53.9625 20.7359 53.2789 19.0703 53.2789H15.1305V63.0094C15.1305 64.8141 13.6891 66.2281 11.875 66.2281C9.85313 66.2281 8.74609 64.6016 8.74531 62.8477L8.74219 34.9758C8.74219 32.9688 10.2344 31.786 12.0352 31.768C14.8313 31.7399 17.6273 31.7297 20.4234 31.7649C23.55 31.8039 26.2148 32.9524 28.3555 35.2547C32.4594 39.6664 32.0078 46.3047 27.8055 50.382C28.7047 51.3211 29.4219 52.268 29.9617 53.5477H29.9602Z" fill="white"/>
</g>
<defs>
<radialGradient id="paint0_radial_1085_3800" cx="0" cy="0" r="1" gradientUnits="userSpaceOnUse" gradientTransform="translate(50 50) scale(50.3906)">
<stop stop-color="#541419"/>
<stop offset="0.578" stop-color="#4C1419"/>
<stop offset="0.926" stop-color="#4C1419"/>
</radialGradient>
<radialGradient id="paint1_radial_1085_3800" cx="0" cy="0" r="1" gradientTransform="matrix(10.2677 8.12216 -13.8323 17.4512 64.5305 29.6498)" gradientUnits="userSpaceOnUse">
<stop offset="0.327" stop-color="#451419"/>
<stop offset="1" stop-color="#5C141C"/>
</radialGradient>
<radialGradient id="paint2_radial_1085_3800" cx="0" cy="0" r="1" gradientTransform="matrix(29.2573 -4.05668 2.83155 20.3817 22.0474 48.1142)" gradientUnits="userSpaceOnUse">
<stop offset="0.465" stop-color="#B41B22"/>
<stop offset="1" stop-color="#B41B22" stop-opacity="0"/>
</radialGradient>
<radialGradient id="paint3_radial_1085_3800" cx="0" cy="0" r="1" gradientTransform="matrix(25.8493 -22.7997 16.8576 19.0745 26.3796 61.6956)" gradientUnits="userSpaceOnUse">
<stop offset="0.294" stop-color="#71121B"/>
<stop offset="0.428" stop-color="#68111C"/>
<stop offset="0.605" stop-color="#511419"/>
<stop offset="0.797" stop-color="#3F1417"/>
<stop offset="1" stop-color="#301114"/>
</radialGradient>
<linearGradient id="paint4_linear_1085_3800" x1="19.712" y1="55.4357" x2="31.1216" y2="65.8408" gradientUnits="userSpaceOnUse">
<stop offset="0.197" stop-color="#2E1414"/>
<stop offset="1" stop-color="#2E1414" stop-opacity="0"/>
</linearGradient>
<linearGradient id="paint5_linear_1085_3800" x1="49.7085" y1="56.023" x2="55.4332" y2="53.2717" gradientUnits="userSpaceOnUse">
<stop stop-color="#61141C" stop-opacity="0"/>
<stop offset="1" stop-color="#61141C"/>
</linearGradient>
<radialGradient id="paint6_radial_1085_3800" cx="0" cy="0" r="1" gradientTransform="matrix(47.5337 -20.513 13.0698 30.2256 58.0983 86.4815)" gradientUnits="userSpaceOnUse">
<stop offset="0.19" stop-color="#B31C21"/>
<stop offset="0.551" stop-color="#99191E"/>
<stop offset="0.947" stop-color="#5E111C"/>
</radialGradient>
<linearGradient id="paint7_linear_1085_3800" x1="45.5019" y1="65.6478" x2="43.7325" y2="99.3441" gradientUnits="userSpaceOnUse">
<stop stop-color="#BD1C23" stop-opacity="0.803"/>
<stop offset="1" stop-color="#BD1C23" stop-opacity="0.406"/>
</linearGradient>
<radialGradient id="paint8_radial_1085_3800" cx="0" cy="0" r="1" gradientTransform="matrix(14.3583 -0.479171 1.01936 30.4914 59.4757 21.2661)" gradientUnits="userSpaceOnUse">
<stop offset="0.198" stop-color="#5C141C"/>
<stop offset="0.599" stop-color="#75141C"/>
<stop offset="1" stop-color="#8B171C"/>
</radialGradient>
<linearGradient id="paint9_linear_1085_3800" x1="24.2536" y1="36.4516" x2="47.7848" y2="0.374563" gradientUnits="userSpaceOnUse">
<stop offset="0.172" stop-color="#68111C"/>
<stop offset="0.608" stop-color="#75141C"/>
<stop offset="0.804" stop-color="#91191E"/>
<stop offset="1" stop-color="#B81C23"/>
</linearGradient>
<clipPath id="clip0_1085_3800">
<rect width="100" height="100" fill="white"/>
</clipPath>
</defs>
</svg>
