<svg width="100" height="100" viewBox="0 0 100 100" fill="none" xmlns="http://www.w3.org/2000/svg">
<path d="M87.0422 62.5886V67.1605H95.3018C96.9942 67.1605 99.8989 65.9228 100 62.4623V60.6942C100 57.7389 97.5751 55.996 95.3018 55.996H91.1846V53.8743H99.3432V49.2772H91.513C89.4923 49.2772 86.7896 50.9443 86.7896 54.0511V55.6424C86.7896 58.7493 89.467 60.3406 91.513 60.3406C97.1962 60.3658 90.149 60.3406 95.4029 60.3406V62.5634L87.0422 62.5886ZM42.7886 61.4772C42.7886 61.4772 47.2089 61.0983 47.2089 55.3898C47.2089 49.6813 41.854 49.1509 41.854 49.1509H32.2051V67.1605H37.0548V62.8159L41.2478 67.1605H48.4213L42.7886 61.4772ZM40.9194 57.7894H37.0548V53.6722H40.9447C40.9447 53.6722 42.0308 54.0764 42.0308 55.7182C42.0308 57.36 40.9194 57.7894 40.9194 57.7894ZM59.1816 49.2772H54.2561C50.7451 49.2772 49.5579 52.4598 49.5579 53.9753V67.1605H54.4834V64.0031H59.1058V67.1605H63.8797V53.9753C63.8797 50.136 60.394 49.2772 59.1816 49.2772ZM59.1058 58.9008H54.4582V54.531C54.4582 54.531 54.4582 53.5459 55.999 53.5459H57.6913C59.0553 53.5459 59.0806 54.531 59.0806 54.531V58.9008H59.1058ZM66.1278 49.2772H71.2553V67.1605H66.1278V49.2772ZM78.4541 62.5381V49.2772H73.3518V67.1605H85.3498V62.5381H78.4541Z" fill="#CC0000"/>
<path d="M1.76807 67.1605H21.7226C21.7226 67.1605 17.9085 49.7572 30.538 42.7099C33.2912 41.3712 42.056 36.3699 56.4031 46.9787C56.8577 46.5998 57.2871 46.2967 57.2871 46.2967C57.2871 46.2967 44.1525 33.1873 29.5276 34.6523C22.1773 35.3091 13.1346 42.0027 7.8302 50.8433C2.52583 59.6839 1.76807 67.1605 1.76807 67.1605Z" fill="#CC0000"/>
<path d="M1.76807 67.1605H21.7226C21.7226 67.1605 17.9085 49.7572 30.538 42.7099C33.2912 41.3712 42.056 36.3699 56.4031 46.9787C56.8577 46.5998 57.2871 46.2967 57.2871 46.2967C57.2871 46.2967 44.1525 33.1873 29.5276 34.6523C22.1773 35.3091 13.1346 42.0027 7.8302 50.8433C2.52583 59.6839 1.76807 67.1605 1.76807 67.1605Z" fill="#CC0000"/>
<path d="M1.76807 67.1604H21.7226C21.7226 67.1604 17.9085 49.757 30.538 42.7097C33.2912 41.371 42.056 36.3697 56.4031 46.9785C56.8577 46.5996 57.2871 46.2965 57.2871 46.2965C57.2871 46.2965 44.1525 33.1871 29.5276 34.6521C22.152 35.3089 13.1093 42.0025 7.80495 50.8431C2.50057 59.6837 1.76807 67.1604 1.76807 67.1604ZM43.3442 36.0666L43.4453 34.3743C43.2179 34.248 42.5865 33.9449 40.9952 33.4902L40.8941 35.1573C41.7277 35.4352 42.5359 35.7383 43.3442 36.0666Z" fill="#CC0000"/>
<path d="M40.9447 41.4216L40.8437 43.0129C41.6772 43.0381 42.5107 43.1392 43.3443 43.316L43.4453 41.7499C42.5865 41.5731 41.753 41.4721 40.9447 41.4216ZM31.5989 33.5408H31.8515L31.3463 32C30.5633 32 29.755 32.0505 28.9214 32.1516L29.4014 33.6418C30.1339 33.5661 30.8664 33.5408 31.5989 33.5408ZM32.8113 42.8361L33.3923 44.5789C34.1248 44.2253 34.8573 43.9222 35.5898 43.6949L35.0341 42.0278C34.1753 42.2804 33.4428 42.5582 32.8113 42.8361ZM21.3438 36.193L20.2071 34.4501C19.5757 34.7785 18.9189 35.1321 18.2369 35.5362L19.3988 37.3044C20.0556 36.9002 20.687 36.5213 21.3438 36.193ZM26.5219 47.5595L27.7343 49.3781C28.1637 48.7467 28.6689 48.1657 29.2246 47.5847L28.0879 45.8671C27.507 46.3976 26.9765 46.9785 26.5219 47.5595ZM22.8593 55.6929L24.9053 57.3094C25.0063 56.3243 25.1831 55.3392 25.4357 54.3541L23.6171 52.9144C23.2887 53.849 23.0614 54.7835 22.8593 55.6929ZM11.7959 43.6949L10.0025 42.1288C9.3458 42.7603 8.71432 43.3918 8.13337 44.0232L10.0783 45.6903C10.6087 45.0083 11.1897 44.3263 11.7959 43.6949ZM4.16772 54.9856L1.26295 53.9247C0.783026 55.0109 0.252589 56.2738 0 56.9558L2.90477 58.0167C3.23314 57.1579 3.76358 55.9202 4.16772 54.9856ZM22.4804 62.1086C22.5309 63.4473 22.6572 64.5335 22.7835 65.2912L25.8146 66.3774C25.5873 65.3923 25.3599 64.2809 25.2084 63.0937L22.4804 62.1086Z" fill="#CC0000"/>
</svg>
