<svg width="100" height="100" viewBox="0 0 100 100" fill="none" xmlns="http://www.w3.org/2000/svg">
<g clip-path="url(#clip0_867_20019)">
<g clip-path="url(#clip1_867_20019)">
<path d="M0.464453 42.7895C0.226232 44.4591 0.0712223 46.1396 0 47.8246H75.9569C75.6917 47.3064 75.3354 46.8393 74.976 46.382C61.9906 29.6056 55.0055 31.0602 45.0132 30.634C41.6817 30.497 39.4225 30.4419 26.1619 30.4419C19.0646 30.4419 11.3486 30.46 3.83496 30.48C2.8623 33.1054 1.92422 35.6501 1.46748 37.7202H40.3904V42.7895H0.464453ZM76.5557 52.8989H0.0389648C0.119043 54.2516 0.245215 55.5861 0.427441 56.9027H71.071C74.2202 56.9027 75.9831 55.1159 76.5557 52.8989ZM4.39619 70.7319C4.39619 70.7319 16.1075 99.4882 49.9473 99.9989C70.173 99.9989 87.5519 87.9866 95.446 70.7319H4.39619Z" fill="black"/>
<path d="M49.9467 -0.000976562C31.2454 -0.000976562 14.9718 10.2686 6.37793 25.4494C13.0938 25.4354 26.1732 25.4273 26.1732 25.4273H26.1763V25.4224C41.6361 25.4224 42.2107 25.4914 45.2308 25.6175L47.1008 25.6864C53.6145 25.9036 61.6206 26.6028 67.9201 31.369C71.3396 33.9541 76.2767 39.6597 79.2197 43.7245C81.9405 47.4842 82.7232 51.8062 80.8733 55.947C79.1706 59.7526 75.5069 62.0227 71.0703 62.0227H1.62988C1.62988 62.0227 2.04326 63.775 2.66309 65.7093H97.4514C99.1347 60.6496 99.9952 55.3526 100 50.0203C100.001 22.397 77.591 -0.000976562 49.9467 -0.000976562Z" fill="black"/>
</g>
</g>
<defs>
<clipPath id="clip0_867_20019">
<rect width="100" height="100" fill="white"/>
</clipPath>
<clipPath id="clip1_867_20019">
<rect width="100" height="100" fill="white" transform="translate(0 -0.000976562)"/>
</clipPath>
</defs>
</svg>
