<svg width="100" height="100" viewBox="0 0 100 100" fill="none" xmlns="http://www.w3.org/2000/svg">
<g clip-path="url(#clip0_1085_3816)">
<path d="M61.8406 26.5056C61.207 26.5056 60.414 28.2478 60.0171 30.3087L58.9078 36.808C58.5906 38.8681 60.0187 40.6103 62.1578 40.6103H68.5765C69.2101 40.6103 69.8429 40.5322 70.3976 40.3736C70.1601 41.483 69.2898 42.2744 68.1007 42.2744H59.0679C57.6414 42.2744 56.532 40.9267 56.7695 39.5009L57.7203 34.0337C57.9578 32.608 56.8492 31.2603 55.4234 31.2603H10.6507C9.69918 31.2603 8.90621 31.815 8.51012 32.6861L0.110898 45.6025C-0.0476957 45.84 -0.048477 46.0783 0.189023 46.3158L1.77496 48.2166C1.8754 48.3227 2.01067 48.3893 2.15609 48.4041C2.30152 48.4188 2.4474 48.3808 2.56715 48.297L8.2734 43.7791V71.1181C8.2734 72.465 9.30309 73.4947 10.6507 73.4947H23.3281C24.6757 73.4947 25.7054 72.465 25.7054 71.1181V61.6087C25.7054 60.2619 26.7359 59.2314 28.0828 59.2314H59.7C61.0468 59.2314 62.0765 60.2619 62.0765 61.6087V71.1181C62.0765 72.465 63.107 73.4955 64.4539 73.4955H77.1328C78.4796 73.4955 79.5101 72.465 79.5101 71.1181V60.8962H72.7742C70.714 60.8962 68.8929 59.1541 68.8929 57.0142V50.4361C68.8929 49.1689 69.5257 48.0587 70.3968 47.3462V55.1916C70.3968 57.2517 72.1406 59.0744 74.2796 59.0744H84.6609C86.721 59.0744 88.5437 57.3306 88.5437 55.1916V35.3009C88.4648 33.0822 86.7211 31.34 84.582 31.34H63.3468C63.1882 31.34 63.1086 31.3392 63.0296 31.4181V30.3876C63.0296 28.3275 62.475 26.5056 61.8406 26.5056ZM97.025 26.5845C96.3906 26.5845 95.8359 28.3283 95.8359 30.4681V32.2103C95.8359 34.2712 94.0921 36.0939 91.9531 36.0939H89.8929V40.7697H96.6281C98.8468 40.6111 100.273 38.947 99.9562 36.8869L98.8468 30.3876C98.5296 28.3275 97.6593 26.5845 97.025 26.5845Z" fill="#2453FF"/>
</g>
<defs>
<clipPath id="clip0_1085_3816">
<rect width="100" height="100" fill="white"/>
</clipPath>
</defs>
</svg>
