<svg width="100" height="100" viewBox="0 0 100 100" fill="none" xmlns="http://www.w3.org/2000/svg">
<g clip-path="url(#clip0_1085_3818)">
<path d="M31.7701 0.00186546C31.2568 0.0174905 30.7045 0.20499 30.0772 0.691709C28.5404 0.108115 27.0514 -0.093447 25.7186 1.09405C23.6615 0.830772 22.9936 1.37374 22.4865 2.00655C22.0358 1.99718 19.1084 1.54874 17.7662 3.52218C14.3936 3.12843 13.3264 5.4753 14.5342 7.66515C13.8459 8.71593 13.1311 9.75343 14.742 11.7558C14.1733 12.8714 14.5264 14.0808 15.8693 15.5464C15.5147 17.1144 16.2108 18.2198 17.46 19.0823C17.2256 21.2276 19.4576 22.4761 20.124 22.9198C20.3795 24.1698 20.9131 25.3503 23.4623 26.0019C23.8818 27.8667 25.4147 28.1878 26.8975 28.5784C21.9951 31.3862 17.7904 35.0784 17.8193 44.1409L17.1006 45.4026C11.4795 48.7698 6.42169 59.5917 14.3303 68.3886C14.8475 71.1425 15.7131 73.1198 16.485 75.3089C17.6389 84.13 25.1686 88.2597 27.1545 88.7487C30.0654 90.9316 33.1647 93.0026 37.3592 94.4542C41.3123 98.4714 45.5967 100.002 49.9045 100H50.0943C54.4014 100.003 58.6858 98.4714 62.6389 94.4542C66.8342 93.0034 69.9326 90.9316 72.8428 88.7487C74.8295 88.2597 82.3584 84.13 83.5123 75.3081C84.2834 73.1198 85.1506 71.1425 85.6678 68.3886C93.5764 59.5917 88.5186 48.7683 82.8967 45.4003L82.1779 44.1394C82.2068 35.0784 78.0022 31.3855 73.0998 28.5769C74.5826 28.1862 76.1154 27.8651 76.5358 26.0011C79.0834 25.3487 79.617 24.1691 79.8725 22.9191C80.5397 22.4737 82.7709 21.2269 82.5365 19.08C83.7865 18.2191 84.4826 17.112 84.1287 15.5448C85.4709 14.08 85.824 12.8698 85.2537 11.755C86.8662 9.75343 86.1506 8.71515 85.4623 7.66437C86.6701 5.4753 85.6053 3.12765 82.2303 3.52062C80.8881 1.54874 77.9615 1.99718 77.51 2.00499C77.0029 1.37218 76.335 0.829991 74.2779 1.09327C72.9467 -0.0942282 71.4568 0.108897 69.9201 0.691709C68.0967 -0.725478 66.8889 0.410459 65.51 0.840147C63.3014 0.129209 62.7967 1.10343 61.7115 1.49952C59.3029 0.997959 58.5709 2.08937 57.4162 3.24171L56.0725 3.21593C52.4404 5.32452 50.635 9.61827 49.9967 11.8253C49.3561 9.61749 47.5561 5.32374 43.924 3.21593L42.5803 3.24093C41.424 2.08858 40.692 0.997959 38.2834 1.49952C37.199 1.10343 36.6951 0.129209 34.485 0.840147C33.5795 0.558897 32.7475 -0.0286033 31.7678 0.00108421L31.7701 0.00186546Z" fill="#050606"/>
<path d="M24.6102 9.27944C34.2484 14.1732 39.8508 18.1334 42.9203 21.5052C41.3492 27.7107 33.1484 27.9943 30.1492 27.8193C30.7633 27.538 31.2766 27.2005 31.4578 26.6841C30.7055 26.1568 28.0375 26.6279 26.175 25.5966C26.8898 25.4505 27.225 25.3083 27.5594 24.7888C25.7992 24.2357 23.9047 23.7591 22.7891 22.8435C23.3906 22.8513 23.9531 22.9763 24.7383 22.4388C23.1617 21.6029 21.4805 20.9396 20.1734 19.6607C20.9875 19.6412 21.8672 19.6529 22.1227 19.3576C20.6797 18.4779 19.4617 17.4982 18.4555 16.4279C19.5961 16.5638 20.0773 16.4466 20.3539 16.2498C19.2617 15.1505 17.882 14.2216 17.2242 12.8662C18.0711 13.1544 18.8461 13.2646 19.4039 12.8404C19.0328 12.0169 17.4461 11.531 16.5312 9.60757C17.4227 9.69273 18.3687 9.79897 18.5578 9.60757C18.1437 7.94663 17.4344 7.01382 16.7375 6.04663C18.6453 6.01851 21.5359 6.05366 21.4055 5.89429L20.2258 4.70757C22.0891 4.21382 23.9961 4.78726 25.3805 5.21304C26.0016 4.72944 25.3695 4.11929 24.6109 3.49429C26.1953 3.70366 27.6258 4.06304 28.9187 4.55601C29.6102 3.94116 28.4703 3.3271 27.9187 2.71226C30.3664 3.16929 31.4031 3.81147 32.432 4.45444C33.1805 3.74897 32.475 3.14976 31.9711 2.53569C33.8164 3.20835 34.7664 4.07788 35.7672 4.93413C36.1062 4.48413 36.6281 4.15288 35.9977 3.06538C37.307 3.80913 38.2945 4.68569 39.0227 5.66694C39.8336 5.15913 39.5062 4.46382 39.5109 3.82319C40.8719 4.9146 41.7367 6.07476 42.7937 7.20835C43.0062 7.05601 43.1922 6.53726 43.3578 5.71772C46.6055 8.82085 51.1937 16.638 44.5375 19.7373C38.8719 15.1357 32.1055 11.7896 24.6078 9.27944H24.6102ZM75.6594 9.27944C66.0211 14.174 60.4187 18.1326 57.3492 21.5052C58.9211 27.7107 67.1226 27.9943 70.1203 27.8193C69.5062 27.538 68.9937 27.2005 68.8125 26.6841C69.5656 26.1568 72.2328 26.6279 74.0961 25.5966C73.3805 25.4505 73.0445 25.3083 72.7109 24.7888C74.4703 24.2357 76.3664 23.7591 77.4805 22.8435C76.8789 22.8513 76.3164 22.9763 75.5312 22.4388C77.1078 21.6029 78.7891 20.9396 80.0969 19.6607C79.2812 19.6412 78.4031 19.6529 78.1477 19.3576C79.5906 18.4779 80.8078 17.4982 81.8148 16.4279C80.6742 16.5638 80.193 16.4466 79.9164 16.2498C81.0078 15.1505 82.3883 14.2216 83.0461 12.8662C82.1992 13.1544 81.4242 13.2646 80.8664 12.8404C81.2367 12.0169 82.8234 11.531 83.7391 9.60757C82.8469 9.69273 81.9016 9.79897 81.7117 9.60757C82.1273 7.94663 82.8367 7.01304 83.5328 6.04507C81.625 6.01772 78.7344 6.05288 78.8648 5.89429L80.0461 4.70757C78.1812 4.21304 76.2742 4.78569 74.8906 5.21147C74.2687 4.72866 74.9016 4.11851 75.6594 3.49429C74.0766 3.70288 72.6445 4.06147 71.3516 4.55522C70.6602 3.94038 71.8 3.32632 72.3516 2.71147C69.9047 3.16851 68.8687 3.81069 67.8383 4.45366C67.0906 3.74819 67.7961 3.14897 68.2992 2.53491C66.4539 3.20757 65.5039 4.0771 64.5039 4.93335C64.1656 4.48335 63.6422 4.1521 64.2727 3.0646C62.9633 3.80835 61.9758 4.68491 61.2477 5.66616C60.4367 5.15757 60.7641 4.46304 60.7594 3.82241C59.3984 4.91382 58.5336 6.07476 57.4773 7.20757C57.2641 7.05522 57.0781 6.53569 56.9125 5.71694C53.6656 8.82007 49.0766 16.6373 55.7328 19.7365C61.3961 15.1334 68.1609 11.788 75.6601 9.27866" fill="#63C54D"/>
<path d="M61.7907 72.4755C61.8242 78.2662 56.6821 82.9857 50.3063 83.0162C43.9305 83.0466 38.7352 78.3771 38.7008 72.5857V72.4755C38.6672 66.6833 43.8086 61.9638 50.1852 61.9333C56.5617 61.9029 61.7571 66.5724 61.7907 72.3638V72.474M43.7899 42.5208C48.5735 45.6068 49.436 52.6052 45.7164 58.149C41.9969 63.6927 35.1024 65.6865 30.3188 62.599C25.536 59.513 24.6727 52.5138 28.3922 46.9701C32.1125 41.4255 39.0063 39.4333 43.7899 42.5208ZM56.7016 41.9607C51.918 45.0482 51.0555 52.0458 54.7758 57.5904C58.4961 63.1349 65.3891 65.1279 70.1719 62.0396C74.9563 58.9537 75.8188 51.956 72.0985 46.4107C68.3782 40.8669 61.486 38.874 56.7016 41.9607ZM20.1774 47.599C25.3414 46.2357 21.9203 68.6458 17.7188 66.8068C13.0961 63.1451 11.6078 52.4193 20.1774 47.599ZM79.8625 47.3201C74.6977 45.9568 78.1188 68.3669 82.3211 66.5287C86.9438 62.8662 88.4321 52.1404 79.8625 47.3201ZM62.5407 30.5998C71.4532 29.1169 78.8688 34.3326 78.5703 43.8529C78.2774 47.5021 59.2571 31.1435 62.5407 30.5998ZM37.9149 30.3201C29.0008 28.8373 21.5844 34.0544 21.8836 43.5748C22.1774 47.2232 41.1977 30.8638 37.9149 30.3201ZM50.193 28.0998C44.8735 27.9646 39.7688 31.9904 39.7555 34.3232C39.7414 37.1607 43.9617 40.0654 50.2305 40.1388C56.6305 40.1833 60.7149 37.8146 60.736 34.8865C60.7586 31.5693 54.9133 28.049 50.193 28.0998ZM50.6039 86.2732C55.2422 86.0732 61.4664 87.7443 61.4782 89.9607C61.5555 92.113 55.8336 96.9763 50.2969 96.8826C44.5625 97.1263 38.9391 92.256 39.0125 90.5677C38.9266 88.0919 45.9961 86.1599 50.6039 86.2732ZM33.4399 73.1365C36.7414 77.056 38.2469 83.9396 35.4914 85.9685C32.8852 87.5185 26.5539 86.8802 22.0524 80.5123C19.0188 75.1701 19.4094 69.7326 21.5406 68.1357C24.7274 66.2232 29.6508 68.806 33.4391 73.1357M66.6867 71.8943C63.1125 76.0169 61.1227 83.5349 63.7297 85.956C66.2219 87.8373 72.911 87.574 77.8532 80.8201C81.4414 76.2841 80.2391 68.7099 78.1891 66.6982C75.1446 64.3779 70.775 67.3466 66.686 71.8935V71.8951" fill="#C51850"/>
</g>
<defs>
<clipPath id="clip0_1085_3818">
<rect width="100" height="100" fill="white"/>
</clipPath>
</defs>
</svg>
