<svg width="100" height="100" viewBox="0 0 100 100" fill="none" xmlns="http://www.w3.org/2000/svg">
<path d="M6.83594 0L6.84375 11.7484C18.1461 8.13672 31.6945 13.1031 37.643 20.4031C37.643 20.4031 66.143 17.9406 70.2234 36.4891C70.2234 36.4891 43.2227 25.0266 28.2062 46.2469C24.6359 51.2914 23.768 57.3773 21.5867 64.8367C17.5203 78.743 15.1211 89.1141 9.75625 100H29.2742L36.2203 67.4328H47.243L66.5125 100H91.3164L68.293 61.4328L70.7672 60.1109L71.0422 60.025C84.0672 56.2859 93.1641 44.1891 93.1641 30.6086C93.1641 13.7312 79.4555 0 62.6063 0H6.83594ZM16.2109 20.7031L16.4234 21.9945C16.8625 24.6539 19.1992 26.6867 22.0766 26.9133L22.3266 26.9336C25.4 27.1758 28.1656 25.1969 28.7109 22.3672L16.2109 20.7031Z" fill="#388EE9"/>
</svg>
