<svg width="100" height="100" viewBox="0 0 100 100" fill="none" xmlns="http://www.w3.org/2000/svg">
<g clip-path="url(#clip0_1085_3835)">
<path d="M49.2089 0.00756056C40.5964 0.116154 32.1276 2.99975 25.0433 7.85131C10.8597 14.5912 1.21904 29.6755 0.901855 45.3591C1.09248 50.2372 0.568262 55.1372 1.37295 59.9896C3.4542 73.8896 12.7456 86.4708 25.505 92.4099C38.4503 101.537 56.5065 102.511 70.3878 94.9052C73.6698 92.8474 77.1472 91.1451 80.3831 89.0099C92.9089 80.5115 100.31 65.0794 98.9354 49.9865C100.365 34.1912 92.1487 18.0271 78.5628 9.8474C75.8534 8.31147 73.1464 6.79975 70.4917 5.16693C63.9886 1.67084 56.5917 -0.132283 49.2089 0.00756056ZM49.2886 3.0185C51.7993 2.97987 54.3083 3.16972 56.7847 3.58569C53.5784 3.41537 50.4245 4.5474 47.2558 3.79819C46.0214 3.61459 44.144 3.64037 43.305 3.5599C45.2843 3.23876 47.2838 3.05785 49.2886 3.0185ZM41.4612 6.66225C37.0331 8.55209 32.9612 11.2849 29.6073 14.7443C24.955 15.8849 20.4472 18.1544 16.7104 20.9372C19.569 16.5888 23.2104 12.5872 27.6933 9.90678C32.0417 8.02162 36.7198 6.84662 41.4612 6.66225ZM58.5073 6.66225C63.687 6.94584 68.9769 8.10365 73.5253 10.6388C77.3949 13.4408 80.7034 16.9451 83.2784 20.9693C79.4206 17.9888 74.8776 15.9701 70.2487 14.6302C66.9151 11.2208 62.8878 8.53412 58.5073 6.66225ZM49.9839 7.24662C55.3737 8.19975 60.5198 10.4982 64.8511 13.8404C59.7987 13.4201 54.6065 14.206 49.98 16.3044C45.3558 14.2005 40.1667 13.4232 35.1175 13.8412C39.4456 10.499 44.5987 8.19975 49.9847 7.2474L49.9839 7.24662ZM37.1972 16.731C40.3331 16.7208 43.4979 17.1185 46.4651 18.1599C42.7854 20.2951 40.2073 23.7193 37.2175 26.6341C34.8651 28.1794 31.8456 28.0052 29.105 29.0161C27.3964 29.5419 25.7315 30.2068 24.1526 31.0427C25.2026 25.9724 27.6933 21.0162 31.3792 17.4302C33.2847 16.9833 35.2456 16.8052 37.1972 16.731ZM62.0558 16.731C64.3495 16.8482 66.9253 16.7552 68.9792 17.7107C72.3597 21.4099 74.8972 26.1872 75.7815 31.0232C72.3456 29.1341 68.4745 28.3622 64.6878 27.5599C63.0065 27.2068 61.4339 25.4818 60.2558 24.038C58.2901 21.7943 55.9839 19.7372 53.5237 18.1537C56.2526 17.1927 59.1714 16.7888 62.055 16.7318L62.0558 16.731ZM26.0784 19.0622C23.1315 23.2302 21.3706 28.2247 20.7003 33.2185C16.6112 36.1669 13.38 40.2529 11.219 44.8005C10.5136 39.338 11.0394 33.6349 13.0378 28.5037C16.5659 24.3943 21.0589 21.1052 26.0784 19.0622ZM73.8894 19.0622C78.9597 21.1544 83.6042 24.4701 87.0589 28.7263C88.8917 33.8739 89.471 39.3843 88.7487 44.8005C86.6183 40.1474 83.137 36.1193 79.1753 33.0318C78.6362 28.0294 76.744 23.1935 73.8894 19.0622ZM49.9698 19.6255C54.2198 21.6005 57.2667 25.3013 60.3972 28.606C62.6097 30.5943 64.9128 30.6154 67.7714 31.3365C70.7909 31.9732 73.7253 33.1372 76.3081 34.8372C76.7019 39.5693 74.9886 44.0177 73.7003 48.4576C72.9745 52.5771 75.7472 56.2583 76.0534 60.3146C76.1659 61.9287 76.6706 63.8677 76.1065 65.3201C72.2495 67.9794 67.5847 68.6701 63.1534 69.7935C59.269 71.2216 57.462 75.4013 54.1479 77.7138C52.7894 78.6513 51.3214 80.0341 49.755 80.2755C45.5784 78.2888 42.6511 74.6365 39.5378 71.388C36.4831 68.7161 32.012 69.2294 28.4464 67.5927C26.7979 66.9286 24.9698 66.2161 23.6589 65.0833C23.2644 60.3279 25.0651 55.874 26.3003 51.4036C26.8737 47.3451 24.2698 43.7341 23.9003 39.7451C23.6698 38.1161 23.5878 36.4716 23.6604 34.8294C27.4409 32.1919 32.1847 31.3091 36.4519 30.3732C38.2589 29.9044 40.3597 28.0997 41.7151 26.3279C44.048 23.6263 46.7714 21.2529 49.9698 19.6255ZM13.1933 20.9146C11.4011 23.6958 10.7448 27.0685 8.43154 29.5044C7.80342 30.2169 6.50186 32.6068 6.46436 32.4833C8.04179 28.2768 10.3166 24.3653 13.1933 20.9146ZM86.7737 20.9146C89.7034 24.4076 92.0417 28.5083 93.5948 32.7294C92.1479 29.8271 89.569 27.6513 88.6175 24.5076C88.0604 23.281 87.4659 22.0708 86.7737 20.9146ZM8.17686 35.713C7.57842 40.5146 7.9792 45.4357 9.23936 50.0872C7.90576 54.6841 7.62217 59.5529 8.17217 64.2943C5.8417 59.6669 4.18936 54.5122 4.11748 49.3099C4.63311 44.5888 5.96982 39.924 8.17686 35.713ZM91.7925 35.713C94.1237 40.2911 95.6815 45.3794 95.8808 50.5255C95.3651 55.3091 94.037 60.0286 91.7972 64.2943C92.344 59.5349 92.0659 54.6458 90.7136 50.0333C92.0362 45.3966 92.3651 40.4966 91.7917 35.713H91.7925ZM20.6503 37.0912C20.5956 41.2466 22.3714 45.5521 23.3261 49.2216C23.5784 52.3263 21.6323 55.1091 21.2472 58.1615C20.9116 59.7307 20.709 61.3254 20.6417 62.9287C16.7745 59.499 13.9589 54.9568 12.4034 50.0396C13.9175 45.0857 16.7808 40.5357 20.6503 37.0912ZM79.3183 37.0912C83.1659 40.5755 86.2487 45.1865 87.5136 50.206C85.9433 55.0615 83.1479 59.5458 79.3183 62.9365C79.3175 58.7122 77.7011 54.7888 76.6433 50.7982C76.3323 48.1747 78.0284 45.5497 78.5167 42.7982C78.9753 40.9341 79.2769 39.0146 79.3183 37.0912ZM11.2229 55.2365C13.3948 59.824 16.6831 63.9099 20.7925 66.8958C21.2292 71.931 23.3456 76.924 26.0362 80.963C20.937 78.799 16.1597 75.4943 12.8034 71.0833C11.1058 66.0005 10.4854 60.556 11.2229 55.2365ZM88.7464 55.2365C89.4339 60.7247 88.969 66.5372 86.8354 71.638C83.312 75.7021 78.8605 78.9419 73.8808 80.9818C76.7479 76.8029 78.6917 71.9458 79.1776 66.8849C83.2995 63.9107 86.5706 59.8169 88.7464 55.2365ZM6.36982 67.3029C7.75654 70.1388 10.3276 72.2287 11.2503 75.2841C11.7894 76.581 12.469 77.8099 13.1378 79.0419C10.2206 75.5607 7.95576 71.5544 6.36982 67.3029ZM93.5987 67.3029C92.0128 71.5552 89.7487 75.5607 86.8308 79.0419C88.2542 76.888 88.844 74.2615 90.2948 72.1763C91.4933 70.6201 92.6519 69.0271 93.5987 67.3029ZM24.1425 68.9622C27.7956 71.0896 32.0104 71.6185 36.0042 72.7177C38.7917 74.0263 40.3917 77.331 42.9479 79.2232C44.0435 80.2111 45.2271 81.0968 46.4839 81.8693C41.5714 83.506 36.1276 83.7521 31.1347 82.4888C27.6722 78.7138 25.1409 73.9974 24.1425 68.9622ZM75.8269 68.9622C74.8167 74.0396 72.2675 78.7693 68.7644 82.5669C63.7519 83.6763 58.3019 83.538 53.5065 81.8544C57.1456 79.7685 59.6987 76.3919 62.6183 73.4911C65.0112 71.799 68.5347 71.9943 71.3354 70.8513C72.8878 70.3618 74.3913 69.7294 75.8269 68.9622ZM16.6526 79.013C20.4847 81.9701 24.9558 84.1013 29.6448 85.2966C32.9667 88.7849 37.0745 91.4685 41.4839 93.3786C36.2276 93.0255 30.8167 91.9372 26.2433 89.2537C22.4722 86.4412 19.1769 82.9904 16.6526 79.013ZM83.3167 79.013C80.4347 83.388 76.7776 87.4482 72.2479 90.1255C67.8958 92.0366 63.2319 93.139 58.4847 93.3786C62.9144 91.4747 67.0105 88.7435 70.3636 85.288C75.0339 84.0888 79.4995 81.963 83.3167 79.013ZM49.9753 83.7451C54.6112 85.7935 59.7753 86.5966 64.8253 86.2005C60.4245 89.5365 55.1675 92.0443 49.6847 92.7349C44.4198 91.7302 39.3745 89.481 35.1464 86.2005C40.1933 86.5896 45.3401 85.8076 49.9753 83.7451ZM49.9847 95.863C52.1909 96.249 54.43 96.3974 56.6667 96.4404C52.2446 97.205 47.724 97.205 43.3019 96.4404C45.5409 96.3997 47.7753 96.2458 49.9847 95.863Z" fill="#7B61C1"/>
</g>
<defs>
<clipPath id="clip0_1085_3835">
<rect width="100" height="100" fill="white"/>
</clipPath>
</defs>
</svg>
