<svg width="100" height="100" viewBox="0 0 100 100" fill="none" xmlns="http://www.w3.org/2000/svg">
<path d="M51.3517 16.8489L72.2446 37.9888C71.9267 38.3247 71.6618 38.6138 71.3868 38.8888C63.9524 46.3505 56.5118 53.8028 49.0876 61.2708C41.3757 69.0151 33.6822 76.7776 26.0071 84.5583C25.2868 85.2911 24.9087 85.2724 24.2009 84.5528C19.9126 80.17 15.5642 75.8458 11.2485 71.4903C8.38603 68.6036 5.54541 65.6989 2.69775 62.7966C2.49307 62.5888 2.31025 62.3567 2.1001 62.1161C17.9259 46.438 33.7071 30.8083 49.7087 14.9536C50.054 15.3497 50.6774 16.0731 51.3509 16.8481L51.3517 16.8489Z" fill="#6AC6E7"/>
<path d="M91.904 57.2938C94.1438 59.4883 96.3321 61.6336 98.279 63.5438C91.0063 71.0969 83.8501 78.5282 76.7337 85.9165C63.6383 76.279 63.1165 51.404 75.8665 41.4368C81.2016 46.7102 86.5266 51.9774 91.904 57.2938Z" fill="#F45848"/>
</svg>
