<svg width="100" height="100" viewBox="0 0 100 100" fill="none" xmlns="http://www.w3.org/2000/svg">
<path d="M32.1369 2.98047C30.0666 2.98047 28.2174 3.44375 26.6393 4.35703C25.1213 5.23516 23.8463 6.54453 22.8479 8.24766C21.9127 9.84375 21.2236 11.7859 20.7986 14.0203C19.9814 18.3273 20.158 23.7188 21.3119 29.6094C21.4572 30.3508 21.6174 31.1016 21.79 31.8477C20.8964 32.1177 20.0082 32.4055 19.126 32.7109C13.565 34.65 8.91504 37.1836 5.67832 40.0383C4.0002 41.5164 2.70176 43.0797 1.81348 44.6828C0.869727 46.3883 0.391602 48.1367 0.391602 49.8813C0.391602 53.3781 2.32832 56.9219 5.99316 60.1359C9.44316 63.1633 14.3229 65.807 20.1002 67.7828C20.6382 67.9651 21.1822 68.1414 21.7322 68.3117C21.54 69.1474 21.3634 69.9866 21.2025 70.8289C20.1041 76.6149 19.976 81.9086 20.8291 86.1383C21.2729 88.3297 21.9768 90.2367 22.9229 91.807C23.9275 93.4758 25.2041 94.7648 26.715 95.6359C28.3072 96.5539 30.1807 97.0195 32.2846 97.0195C35.1479 97.0195 38.3502 96.1703 41.8002 94.4961C45.1838 92.8539 48.6377 90.5023 52.065 87.507C52.6133 87.0277 53.152 86.5375 53.6807 86.0367H54.4932V86.0352H79.0908C82.6788 86.0352 85.7734 85.5117 88.3744 84.4648C90.9814 83.4195 93.1025 82.0078 94.7721 80.2367C96.4416 78.4656 97.6588 76.3508 98.4393 73.8953C99.2205 71.4602 99.6096 68.8227 99.6096 66.0047C99.6111 61.0914 98.7205 57.0258 96.9572 53.7641C95.2088 50.5484 92.6359 48.4625 89.2385 47.5063C89.2122 47.4957 89.1901 47.4771 89.1752 47.453C89.1603 47.429 89.1535 47.4008 89.1557 47.3727C89.1544 47.3481 89.1595 47.3237 89.1706 47.3017C89.1817 47.2798 89.1984 47.2611 89.2189 47.2477C91.7486 45.8414 93.6924 43.8391 95.0549 41.2844C96.4273 38.7078 97.1135 35.6073 97.1135 31.9828C97.1135 26.0031 95.6002 21.5547 92.5877 18.5961C89.5752 15.6375 85.565 14.1664 80.5721 14.1664H53.6502C53.2308 13.7726 52.8063 13.3842 52.3768 13.0016C48.8174 9.84375 45.2689 7.36641 41.826 5.64453C38.2963 3.87656 35.0361 2.98047 32.1369 2.98047ZM32.1666 10.0055C33.9596 10.0055 36.2807 10.7094 38.876 12.0422C41.6893 13.4875 44.74 15.6375 47.6986 18.2641C47.882 18.4271 48.0695 18.5964 48.2611 18.7719C45.6596 21.6492 43.0947 24.8461 40.6299 28.2883C36.4299 28.6984 32.3924 29.3117 28.6119 30.1117C28.4756 29.5152 28.348 28.9167 28.2291 28.3164L28.2182 28.2555C27.3174 23.65 27.0979 19.443 27.583 16.0938C28.0033 13.2148 28.9424 11.157 30.165 10.4492C30.6729 10.1547 31.3463 10.0055 32.1666 10.0055ZM53.5002 23.2969V76.6844L50.3346 72.7766L48.2666 70.2234C47.2229 68.9344 45.551 66.55 43.5572 63.5094C42.4158 61.7724 41.3198 60.0059 40.2705 58.2117L40.2104 58.1086C39.2549 56.4609 38.5463 55.1344 37.976 54.0688C37.259 52.7266 36.561 51.3744 35.8822 50.0125L36.0057 49.7711L36.0135 49.7578C36.7596 48.2367 37.5447 46.7102 38.3525 45.2188L38.3604 45.2063L39.2174 43.5422L40.483 41.4445L40.4916 41.4305C40.9643 40.6258 41.4549 39.8133 41.9494 39.0164L42.8213 37.5773C43.9814 35.657 44.9135 34.2563 46.3846 32.2258C47.1775 31.1344 47.9291 30.175 49.1197 28.6867L49.1229 28.6836L49.1814 28.6094L49.2049 28.5797C49.6877 27.9633 50.176 27.3563 50.6549 26.7742L50.6705 26.7547L50.6799 26.743C51.6125 25.5882 52.5527 24.4395 53.5002 23.2969ZM63.383 24.3469H79.2111C81.8658 24.3469 83.8971 25.093 85.3025 26.5641C86.708 28.0344 87.4096 30.5922 87.4096 34.2188C87.4096 37.4445 86.6291 39.9031 85.0666 41.6359C83.5041 43.3688 81.5525 44.2156 79.2096 44.2156H63.3814C63.3236 44.2156 63.276 44.1539 63.276 44.0789L63.2768 24.4836C63.2768 24.4078 63.3236 24.3469 63.383 24.3469ZM35.5236 36.0125C34.3832 37.8795 33.2899 39.7749 32.2447 41.6969C31.6268 40.1147 31.0516 38.5163 30.5197 36.9031C32.1796 36.5625 33.8482 36.2656 35.5236 36.0125ZM23.6799 38.6305C24.8697 42.3203 26.3596 46.1367 28.1096 49.9898C26.3338 53.907 24.8236 57.7844 23.6174 61.5289C23.2013 61.3989 22.7869 61.2635 22.3744 61.1227C17.5713 59.482 13.5721 57.3625 10.8072 54.9953C8.6916 53.1836 7.4291 51.2727 7.4291 49.8836C7.4291 48.457 8.6916 46.6195 10.8947 44.8383C13.4596 42.7649 17.1088 40.8695 21.4416 39.3602C22.1775 39.1047 22.9275 38.8602 23.6799 38.6305ZM63.383 53.2766H80.533C83.501 53.2766 85.7814 54.2039 87.4361 56.1375C89.0924 58.0703 89.9049 60.7914 89.9049 64.3578C89.9049 67.9836 89.0768 70.8047 87.4377 72.7789C85.8127 74.7727 83.5018 75.7633 80.5338 75.7633H63.383C63.3244 75.7633 63.2768 75.7016 63.2768 75.6258V53.4141C63.2768 53.3391 63.3236 53.2781 63.383 53.2781V53.2766ZM32.2502 58.2734C33.3265 60.2469 34.454 62.1921 35.6314 64.107C33.8996 63.8688 32.1749 63.5809 30.4596 63.2438C31.0108 61.5709 31.6079 59.9135 32.2502 58.2734ZM28.5549 70.0328C32.2854 70.7961 36.3689 71.3719 40.7127 71.7445C43.2018 75.2109 45.7877 78.4297 48.408 81.3234C48.0846 81.6219 47.7598 81.9138 47.4338 82.1992C43.64 85.5164 39.8299 87.9133 36.4182 89.1336L36.3471 89.1586C34.8174 89.6984 33.4518 89.9719 32.29 89.9719C31.4338 89.9719 30.7416 89.8234 30.2338 89.5312C28.9979 88.818 28.0361 86.8047 27.5947 84.0078C27.0791 80.7484 27.2596 76.643 28.1158 72.1352C28.2494 71.4359 28.3955 70.732 28.5557 70.0336L28.5549 70.0328Z" fill="#41E0FF"/>
</svg>
