<svg width="100" height="100" viewBox="0 0 100 100" fill="none" xmlns="http://www.w3.org/2000/svg">
<path d="M30.6361 59.339C25.6683 59.339 21.619 55.2576 21.619 50.254C21.619 45.2504 25.6683 41.1689 30.6361 41.1689C35.604 41.1689 39.6533 45.2504 39.6533 50.254C39.6533 55.254 35.6004 59.339 30.6361 59.339ZM8.98501 77.3769C4.02433 77.3662 -0.0142581 73.2668 3.7837e-05 68.2632C0.00287096 65.8634 0.956959 63.5626 2.65321 61.865C4.34947 60.1674 6.64953 59.2115 9.04934 59.2068C14.0136 59.2175 18.0522 63.3169 18.0343 68.324C18.0296 70.7229 17.0748 73.0223 15.3788 74.7189C13.6829 76.4155 11.3839 77.3712 8.98501 77.3769ZM91.0506 77.3769C88.6511 77.3816 86.3474 76.4354 84.644 74.7454C82.9405 73.0554 81.9762 70.7593 81.962 68.3597C81.937 63.349 85.9577 59.2354 90.9148 59.2104C93.3131 59.2065 95.6153 60.1527 97.3179 61.8418C99.0204 63.531 99.9847 65.8257 99.9998 68.2239C100.028 73.2311 96.0041 77.3483 91.0506 77.3769Z" fill="black"/>
<path d="M74.1493 41.6978C71.6976 40.933 69.0778 40.6149 66.5081 40.3362C62.5339 39.9073 60.9506 38.3562 60.2787 34.3748C59.8999 32.1518 59.3709 29.8716 58.4095 27.8523C56.5761 24.0102 52.2801 22.2876 47.9664 23.2704C44.3209 24.1032 41.2938 27.7307 41.1258 31.4548C40.9328 35.7007 43.3631 39.3283 47.5375 40.5792C49.521 41.176 51.6297 41.4727 53.699 41.6264C57.4982 41.9016 58.7669 43.0345 59.7926 44.7643C60.4431 45.8579 61.0686 46.9337 61.0686 50.186C61.0686 53.4419 60.436 54.5177 59.7926 55.6077C58.7669 57.3375 57.4982 58.4669 53.699 58.7493C51.6261 58.8994 49.5175 59.1996 47.5375 59.7964C43.3631 61.0509 40.9328 64.6713 41.1258 68.9244C41.2938 72.6449 44.3245 76.2725 47.9664 77.1052C52.2801 78.0916 56.5761 76.3654 58.4095 72.5234C59.3745 70.5076 59.8999 68.2239 60.2787 66.0009C60.9542 62.0195 62.5375 60.4719 66.5081 60.0395C69.0814 59.7607 71.6976 59.439 74.1493 58.6742C77.8698 57.5127 80.1071 54.0423 80.1071 50.186C80.1071 46.3333 77.8698 42.8665 74.1493 41.6978Z" fill="#F44250"/>
</svg>
