<svg width="100" height="100" viewBox="0 0 100 100" fill="none" xmlns="http://www.w3.org/2000/svg">
<path d="M29.6602 5.41779C28.0039 5.47404 26.4258 5.87717 25 6.69904C22.15 8.34435 20.4484 11.3631 19.6836 14.9358C18.9195 18.5092 19 22.7584 19.7617 27.5139C20.0555 29.3475 20.4852 31.2756 20.982 33.2467C19.0266 33.8014 17.1414 34.3951 15.407 35.0576C10.907 36.7764 7.18828 38.8311 4.47578 41.2803C1.76328 43.7295 0 46.71 0 50.0006C0 53.2912 1.7625 56.274 4.47578 58.7225C7.1875 61.1725 10.9062 63.2272 15.4062 64.9459C17.1406 65.6084 19.0258 66.2006 20.9813 66.7561C20.4844 68.7272 20.0547 70.6553 19.7609 72.4881C18.9992 77.2459 18.9203 81.4936 19.6844 85.0662C20.45 88.6404 22.1492 91.6584 24.9992 93.3037C27.8492 94.949 31.3117 94.9131 34.7891 93.7881C38.2656 92.6631 41.9062 90.4701 45.6445 87.4319C47.0852 86.2615 48.5406 84.9272 50 83.51C51.4578 84.9272 52.9141 86.2615 54.3547 87.4319C58.0922 90.4709 61.7313 92.6639 65.2086 93.7889C68.6852 94.9139 72.15 94.949 75 93.3045C77.85 91.6584 79.5516 88.6404 80.3164 85.067C81.0805 81.4936 80.9984 77.2451 80.2367 72.4889C79.943 70.6553 79.5148 68.7272 79.018 66.7561C80.9734 66.2014 82.8586 65.6076 84.593 64.9459C89.093 63.2279 92.8117 61.1725 95.5242 58.7233C98.2367 56.274 100 53.2912 100 50.0006C100 46.71 98.2375 43.7287 95.5242 41.2803C92.8117 38.8319 89.093 36.7756 84.593 35.0576C82.8586 34.3959 80.975 33.8014 79.0195 33.2467C79.5164 31.2756 79.9445 29.3467 80.2383 27.5139C81 22.7584 81.0789 18.5092 80.3148 14.9358C79.5508 11.3623 77.8508 8.34435 75 6.69904C72.1492 5.05373 68.6875 5.08967 65.2102 6.21467C61.7336 7.33967 58.093 9.53342 54.3547 12.5709C52.9141 13.7428 51.4563 15.0772 49.9977 16.4944C48.5391 15.0779 47.0836 13.742 45.643 12.5709C41.9062 9.53342 38.2687 7.3381 34.7922 6.2131C33.0531 5.6506 31.3172 5.36154 29.6594 5.41623L29.6602 5.41779ZM29.8602 9.74982C30.8992 9.72014 32.0898 9.91154 33.4539 10.3514C36.1805 11.2342 39.45 13.1404 42.9016 15.9451C44.2313 17.0248 45.5914 18.2748 46.9617 19.6092C44.0992 22.7029 41.2602 26.2209 38.5133 30.1045C33.7766 30.542 29.3102 31.242 25.1984 32.1748C24.7297 30.3201 24.3266 28.5186 24.0555 26.8256C23.3523 22.435 23.3367 18.6498 23.9367 15.8467C24.5359 13.0444 25.657 11.3412 27.1742 10.4654C27.9328 10.0279 28.8211 9.77795 29.8602 9.74982ZM70.1406 9.74982C71.1797 9.77873 72.068 10.0272 72.8266 10.4654C74.3438 11.3404 75.4648 13.0436 76.0641 15.8459C76.6633 18.6483 76.65 22.4342 75.9469 26.8256C75.6758 28.517 75.2734 30.3209 74.8039 32.174C70.693 31.242 66.2258 30.5412 61.4875 30.1045C58.7406 26.2217 55.9 22.7029 53.0375 19.6084C54.4078 18.2748 55.7695 17.024 57.0992 15.9444C60.5508 13.1381 63.8203 11.235 66.5477 10.3522C67.9109 9.91154 69.1023 9.72092 70.1414 9.7506L70.1406 9.74982ZM50 22.7365C52.0454 24.9689 53.985 27.2959 55.8125 29.71C53.9031 29.624 51.9711 29.5662 50 29.5662C48.0297 29.5662 46.0977 29.6233 44.1875 29.71C46.0141 27.2952 47.9537 24.9682 50 22.7365ZM50 33.9147C53.1133 33.9147 56.1484 34.0373 59.0891 34.2584C60.7992 36.7628 62.4147 39.3304 63.932 41.9561C65.4474 44.5835 66.8635 47.2669 68.1773 50.0006C66.8634 52.7338 65.4473 55.4167 63.932 58.0436C62.4145 60.67 60.7987 63.2385 59.0883 65.7436C56.1484 65.9647 53.1133 66.0881 50.0008 66.0881C46.9668 66.0875 43.9339 65.9728 40.9086 65.7444C39.1989 63.239 37.584 60.6702 36.0672 58.0436C34.5519 55.4172 33.1358 52.7348 31.8219 50.0022C33.1362 47.2684 34.5529 44.585 36.0687 41.9576C37.5863 39.3315 39.2021 36.7633 40.9125 34.2584C43.9366 34.0301 46.9673 33.9154 50 33.9147ZM35.3336 34.8233C34.2858 36.4538 33.2751 38.1078 32.3023 39.7842C31.3368 41.4645 30.4095 43.1665 29.5211 44.8889C28.3437 42.0993 27.2978 39.2561 26.3867 36.3686C29.1914 35.7436 32.1773 35.2201 35.3336 34.8233ZM64.6672 34.8233C67.672 35.1983 70.6576 35.7139 73.6141 36.3686C72.703 39.2566 71.6571 42.1004 70.4797 44.8904C69.5914 43.1673 68.664 41.4645 67.6984 39.7834C66.7257 38.1071 65.715 36.453 64.6672 34.8225V34.8233ZM22.1602 37.4334C23.4086 41.46 25.0359 45.6787 27.0273 49.999C25.0352 54.3209 23.4102 58.5412 22.1602 62.5678C20.3203 62.0483 18.5586 61.4944 16.957 60.8834C12.8016 59.2975 9.51641 57.4162 7.38828 55.4944C5.26094 53.574 4.34688 51.7522 4.34688 49.9998C4.34688 48.2483 5.26094 46.4279 7.38828 44.5076C9.51641 42.5858 12.8023 40.7053 16.957 39.1194C18.5586 38.5076 20.3203 37.9529 22.1602 37.4326V37.4334ZM77.8398 37.4334C79.6805 37.9537 81.443 38.5084 83.043 39.1209C87.1992 40.7069 90.4844 42.5865 92.6125 44.5076C94.7398 46.4295 95.6539 48.2498 95.6539 50.0006C95.6539 51.7529 94.7398 53.5748 92.6125 55.4951C90.4844 57.417 87.1984 59.2967 83.0437 60.8834C81.4422 61.4944 79.6789 62.0475 77.8391 62.5678C76.5906 58.542 74.9641 54.3233 72.9742 50.0022C74.9656 45.6803 76.5906 41.4608 77.8398 37.4334ZM50 41.0881C47.6364 41.0885 45.3697 42.0276 43.6984 43.699C42.027 45.3703 41.0879 47.637 41.0875 50.0006C41.0879 52.3644 42.0271 54.6312 43.6986 56.3025C45.3701 57.9739 47.637 58.9129 50.0008 58.9131C52.3644 58.9127 54.6311 57.9736 56.3024 56.3022C57.9737 54.6309 58.9129 52.3642 58.9133 50.0006C58.9129 47.6369 57.9736 45.37 56.3021 43.6987C54.6306 42.0273 52.3638 41.0883 50 41.0881ZM70.4797 55.1123C71.6566 57.9024 72.702 60.7462 73.6125 63.6342C70.8094 64.2592 67.8234 64.7834 64.6687 65.1811C65.7158 63.5498 66.7257 61.8949 67.6977 60.2178C68.6632 58.5372 69.5913 56.835 70.4797 55.1123ZM29.5211 55.1139C30.4095 56.836 31.3368 58.5377 32.3023 60.2178C33.2755 61.8944 34.2862 63.549 35.3336 65.1803C32.3286 64.8062 29.343 64.2902 26.3867 63.6342C27.2978 60.7467 28.3437 57.9034 29.5211 55.1139ZM25.1969 67.8287C29.3078 68.76 33.775 69.4592 38.5133 69.8959C41.2602 73.7811 44.1008 77.2998 46.9633 80.3959C45.593 81.728 44.2328 82.978 42.9031 84.06C39.4516 86.8647 36.1789 88.7709 33.4516 89.6537C30.725 90.535 28.6898 90.4139 27.1727 89.5381C25.6555 88.6615 24.5359 86.96 23.9367 84.1576C23.3367 81.3545 23.3516 77.5694 24.0555 73.1764C24.3266 71.485 24.7273 69.6819 25.1969 67.8287ZM74.8023 67.8287C75.2711 69.6819 75.6742 71.485 75.9453 73.1764C76.6484 77.5694 76.6641 81.3545 76.0641 84.1576C75.4648 86.9608 74.3438 88.6631 72.8266 89.5405C71.3094 90.4155 69.275 90.535 66.5477 89.6522C63.8203 88.7694 60.5508 86.8631 57.0992 84.0584C55.7703 82.978 54.4086 81.728 53.0391 80.3944C55.9016 77.3006 58.7406 73.7803 61.4875 69.8959C66.2242 69.4592 70.6906 68.76 74.8023 67.8287ZM44.1875 70.2912C46.1239 70.3836 48.0622 70.4321 50.0008 70.4365C51.9397 70.4321 53.8782 70.3837 55.8148 70.2912C53.9879 72.7071 52.0477 75.0352 50.0008 77.2678C47.9544 75.0352 46.014 72.707 44.1875 70.2912Z" fill="#61DAFB"/>
</svg>
