<svg width="100" height="100" viewBox="0 0 100 100" fill="none" xmlns="http://www.w3.org/2000/svg">
<g clip-path="url(#clip0_1085_3840)">
<path d="M45.0156 48.1875C43.6875 48.375 42.7734 49.5781 42.9687 50.8672C43.0325 51.3312 43.2307 51.7663 43.5389 52.1189C43.8471 52.4716 44.2518 52.7263 44.7031 52.8516C44.7031 52.8516 50.539 54.7734 60.4687 55.5938C68.4453 56.2578 77.5 55.0234 77.5 55.0234C78.8281 54.9922 79.8672 53.8906 79.8359 52.5625C79.8283 52.2473 79.7586 51.9368 79.6307 51.6486C79.5028 51.3605 79.3192 51.1005 79.0906 50.8834C78.8619 50.6664 78.5927 50.4967 78.2983 50.3839C78.0039 50.2712 77.6901 50.2177 77.375 50.2266C77.2187 50.2266 77.0625 50.2578 76.8984 50.2891C76.8984 50.2891 68.039 51.3906 60.8437 50.7969C51.3515 50.0391 46.1797 48.3047 46.1797 48.3047C45.8047 48.1797 45.3906 48.1172 45.0156 48.1797V48.1875ZM45.0156 36.2969C43.6875 36.4844 42.7734 37.6875 42.9687 38.9766C43.0325 39.4405 43.2307 39.8757 43.5389 40.2283C43.8471 40.5809 44.2518 40.8356 44.7031 40.9609C44.7031 40.9609 50.539 42.8828 60.4687 43.7031C68.4453 44.3672 77.5 43.1328 77.5 43.1328C78.8281 43.1016 79.8672 42 79.8359 40.6719C79.8283 40.3567 79.7586 40.0462 79.6307 39.758C79.5028 39.4699 79.3192 39.2098 79.0906 38.9928C78.8619 38.7758 78.5927 38.606 78.2983 38.4933C78.0039 38.3806 77.6901 38.3271 77.375 38.3359C77.2187 38.3359 77.0625 38.3672 76.8984 38.3984C76.8984 38.3984 68.039 39.5 60.8437 38.9062C51.3515 38.1484 46.1797 36.4141 46.1797 36.4141C45.8047 36.2891 45.3906 36.2266 45.0156 36.2891V36.2969ZM45.0156 24.4062C43.6875 24.5938 42.7734 25.7969 42.9687 27.0859C43.0325 27.5499 43.2307 27.9851 43.5389 28.3377C43.8471 28.6903 44.2518 28.945 44.7031 29.0703C44.7031 29.0703 50.539 30.9922 60.4687 31.8125C68.4453 32.4766 77.5 31.2422 77.5 31.2422C78.8281 31.2109 79.8672 30.1094 79.8359 28.7812C79.8283 28.4661 79.7586 28.1555 79.6307 27.8674C79.5028 27.5793 79.3192 27.3192 79.0906 27.1022C78.8619 26.8851 78.5927 26.7154 78.2983 26.6027C78.0039 26.49 77.6901 26.4365 77.375 26.4453C77.2187 26.4453 77.0625 26.4766 76.8984 26.5078C76.8984 26.5078 68.039 27.6094 60.8437 27.0156C51.3515 26.2578 46.1797 24.5234 46.1797 24.5234C45.8047 24.3984 45.3906 24.3672 45.0156 24.3984V24.4062ZM45.0156 12.5469C43.6875 12.7344 42.7734 13.9375 42.9687 15.2266C43.0325 15.6905 43.2307 16.1257 43.5389 16.4783C43.8471 16.8309 44.2518 17.0856 44.7031 17.2109C44.7031 17.2109 50.539 19.1328 60.4687 19.9531C68.4453 20.6172 77.5 19.3828 77.5 19.3828C78.8281 19.3516 79.8672 18.25 79.8359 16.9219C79.8283 16.6067 79.7586 16.2962 79.6307 16.008C79.5028 15.7199 79.3192 15.4598 79.0906 15.2428C78.8619 15.0258 78.5927 14.856 78.2983 14.7433C78.0039 14.6306 77.6901 14.5771 77.375 14.5859C77.2187 14.5859 77.0625 14.6172 76.8984 14.6484C76.8984 14.6484 68.039 15.75 60.8437 15.1562C51.3515 14.3984 46.1797 12.6641 46.1797 12.6641C45.8108 12.515 45.4077 12.4717 45.0156 12.5391V12.5469ZM28.3672 0C15.875 0.09375 11.2422 3.94531 11.2422 3.94531V97.2031C11.2422 97.2031 15.7812 93.2891 30.414 93.8906C45.0468 94.4922 48.0468 99.6328 66.0234 99.9766C84 100.32 88.5078 97.2031 88.5078 97.2031L88.7578 2.14844C88.7578 2.14844 80.6875 4.45312 64.914 4.57812C49.1797 4.69531 45.3984 0.570312 30.9531 0.09375C30.0703 0.03125 29.2187 0 28.3672 0ZM38.8047 6.08594C38.8047 6.08594 46.375 8.57812 60.3437 9.27344C72.1718 9.875 84 8.10938 84 8.10938V92.6016C84 92.6016 78.0078 95.7578 63.0312 94.6797C51.4218 93.8594 38.6562 89.4453 38.6562 89.4453L38.8125 6.09375L38.8047 6.08594ZM31.5234 8.29688C32.8515 8.29688 33.9531 9.36719 33.9531 10.7266C33.9531 12.0859 32.8828 13.1562 31.5234 13.1562C31.5234 13.1562 27.6093 13.1875 25.2187 13.4062C21.2109 13.8125 18.4687 15.2656 18.4687 15.2656C17.3047 15.8984 15.8203 15.4219 15.2187 14.2578C14.5859 13.0938 15.0625 11.6094 16.2265 11.0078C17.3906 10.4062 19.789 9.11719 24.7422 8.64062C27.6093 8.32812 31.5234 8.29688 31.5234 8.29688ZM29.1875 20.2188C30.5156 20.1875 31.5234 20.2188 31.5234 20.2188C32.8515 20.375 33.7968 21.5781 33.6328 22.8984C33.5697 23.436 33.3272 23.9367 32.9444 24.3194C32.5617 24.7022 32.061 24.9447 31.5234 25.0078C31.5234 25.0078 27.6093 25.0391 25.2187 25.2578C21.2109 25.6641 18.4687 27.1172 18.4687 27.1172C17.3047 27.75 15.8203 27.2734 15.2187 26.1094C14.5859 24.9453 15.0625 23.4609 16.2265 22.8594C16.2265 22.8594 19.789 20.9688 24.7422 20.4922C26.1953 20.3047 27.8672 20.2422 29.1875 20.2109V20.2188ZM31.5234 32.0781C32.8515 32.0781 33.9531 33.1484 33.9531 34.5078C33.9531 35.8672 32.8828 36.9375 31.5234 36.9375C31.5234 36.9375 27.6093 36.9062 25.2187 37.1562C21.2109 37.5625 18.4687 39.0156 18.4687 39.0156C17.3047 39.6484 15.8203 39.1719 15.2187 38.0078C14.5859 36.8438 15.0625 35.3594 16.2265 34.7578C16.2265 34.7578 19.789 32.8672 24.7422 32.3906C27.6093 32.0469 31.5234 32.0781 31.5234 32.0781Z" fill="#32322A"/>
</g>
<defs>
<clipPath id="clip0_1085_3840">
<rect width="100" height="100" fill="white"/>
</clipPath>
</defs>
</svg>
