<svg width="100" height="100" viewBox="0 0 100 100" fill="none" xmlns="http://www.w3.org/2000/svg">
<path d="M70.5562 5.16289C61.7804 0.868363 51.9538 -0.573824 42.3695 1.02383C32.7851 2.62149 23.8945 7.18789 16.8695 14.1176C7.7054 23.2676 86.7663 13.1371 70.5562 5.16289Z" fill="#FCC397"/>
<path d="M87.3362 19.0203C87.3362 19.0203 83.5448 24.5766 71.537 26.1453C47.4581 29.4133 6.15884 29.6094 6.22212 29.4133C8.79868 23.6609 12.4127 18.4695 16.8713 14.118C22.0917 15.8121 27.6512 16.1826 33.0502 15.1961C41.8979 13.4641 49.7346 8.23516 58.4877 6.07813C62.4376 5.13593 66.512 4.82687 70.5588 5.16251C77.0862 8.42188 82.8206 13.1578 87.3377 19.0195L87.3362 19.0203Z" fill="#FC9F95"/>
<path d="M97.3436 42.2232C97.3436 42.4193 43.0881 47.7139 16.6405 46.1779C11.478 46.0436 6.57484 43.8123 2.98969 39.9686C3.69999 36.3581 4.81294 32.8387 6.30765 29.4764C14.0498 25.0615 22.7452 22.7451 31.5866 22.7443C42.5202 22.7443 53.2319 26.6334 64.1959 26.3396C72.3951 26.0428 80.3725 23.5178 87.3272 19.0186C92.5803 25.7084 96.0342 33.7123 97.3436 42.2232Z" fill="#F77C88"/>
<path d="M97.9531 50.0027V50.8199C86.643 53.4436 75.0561 54.6837 63.4469 54.5128C42.8987 53.9421 22.3945 52.2948 2.01874 49.5777C2.05311 46.3503 2.38124 43.1324 2.99843 39.9691C9.60468 44.212 17.3789 46.0847 25.118 45.2964C31.1618 44.3578 37.0307 42.5181 42.5289 39.8386C48.0272 37.1684 53.7471 34.9813 59.6242 33.3019C66.179 31.7227 73.013 31.7053 79.5758 33.2511C86.1445 34.7972 92.2867 37.8652 97.543 42.2238C97.8867 44.8003 98.0234 47.4027 97.9531 50.0027Z" fill="#F25192"/>
<path d="M43.5376 66.1144C29.1603 69.023 4.44934 65.7551 4.38684 65.4933C2.80627 60.4818 2.00706 55.2568 2.01731 50.0019V49.5769C4.24972 47.7665 6.67662 46.21 9.25325 44.9363C15.4618 41.8519 22.3665 40.5754 29.2236 41.2433C35.9577 42.2474 42.4934 44.2982 48.5939 47.3215C53.7385 49.7843 59.0129 51.9664 64.3939 53.8582C65.215 54.0871 59.4001 63.0746 43.5376 66.1144Z" fill="#D34CA3"/>
<path d="M96.2108 63.2393C95.1998 65.0049 85.6569 70.9198 72.7014 71.9331C55.5428 73.2729 35.2881 67.9127 42.0186 65.2002C52.5725 60.8862 61.7678 53.1729 72.7014 49.9377C81.0095 47.5551 89.8587 47.8641 97.9803 50.8206C97.9141 55.018 97.3196 59.1904 96.2108 63.2393Z" fill="#9A50A5"/>
<path d="M91.5702 74.742C83.2913 89.6123 23.2217 93.3381 14.4374 83.3373C9.93267 78.1701 6.51157 72.0951 4.38892 65.4928C11.7459 61.099 20.2952 59.3303 28.7202 60.46C39.4639 61.9631 49.0694 68.1732 59.6874 70.5912C68.2727 72.5939 77.2557 72.0487 85.5358 69.0225C89.3212 67.6121 92.9105 65.7231 96.2163 63.4014C95.139 67.3577 93.5791 71.1665 91.5717 74.742H91.5702Z" fill="#59569E"/>
<path d="M91.6329 74.6118C87.8751 81.4149 82.6118 87.2001 76.2751 91.4938C69.9392 95.7884 62.7087 98.4688 55.1782 99.3173C47.6389 100.165 40.0067 99.1542 32.9478 96.3735C25.8665 93.5899 19.5228 89.1118 14.4368 83.3048C15.89 83.8931 17.597 84.3829 19.0189 84.8415C27.4095 87.2003 36.2983 87.1209 44.6454 84.6126C49.986 82.9782 54.9782 80.3962 60.1923 78.4681C70.2777 74.7255 81.1013 73.4045 91.7907 74.6118H91.6329Z" fill="#39477F"/>
</svg>
