<svg width="100" height="100" viewBox="0 0 100 100" fill="none" xmlns="http://www.w3.org/2000/svg">
<g clip-path="url(#clip0_1085_3851)">
<path d="M0 0H100V100H0V0Z" fill="#292929"/>
<path d="M4.50134 4.50244H95.4982V95.4993H4.50134V4.50244Z" fill="black" stroke="white" stroke-width="3.79141"/>
<path d="M58.6483 74.29H43.8382V89.1002H58.6483V86.1393H46.8014V83.1768H52.6061V80.2135H46.8014V77.2525H58.6483V74.29ZM76.303 74.29H61.6116V89.1002H76.303V86.1393H64.4561V77.2541H76.303V74.29ZM93.5999 74.29H79.385V77.2533H85.3085V89.1002H88.2694V77.2533H93.6007L93.5999 74.29ZM25.9491 74.29V89.1002H28.9093V77.2533H37.796V83.1768H40.7593V74.29H25.9491Z" fill="white"/>
<path d="M37.796 80.2124H28.9093V83.1757H34.8327V86.139H37.796V80.2124ZM40.7593 86.139H37.796V89.0991H40.7593V86.139Z" fill="white"/>
</g>
<defs>
<clipPath id="clip0_1085_3851">
<rect width="100" height="100" fill="white"/>
</clipPath>
</defs>
</svg>
