<svg width="100" height="100" viewBox="0 0 100 100" fill="none" xmlns="http://www.w3.org/2000/svg">
<path d="M66.7034 55.5977C73.2755 55.5977 82.7843 54.2423 82.7843 46.4251C82.804 45.8218 82.7493 45.2183 82.6215 44.6284L78.7076 27.6281C77.804 23.8877 77.0108 22.1908 70.4439 18.9074C65.348 16.3016 54.2474 11.999 50.964 11.999C47.9065 11.999 47.0186 15.9391 43.3727 15.9391C39.8634 15.9391 37.2577 12.9972 33.9743 12.9972C30.8222 12.9972 28.7681 15.1459 27.1815 19.564C27.1815 19.564 22.7633 32.0253 22.196 33.8325C22.1058 34.1644 22.0668 34.508 22.0804 34.8517C22.0804 39.6954 41.1505 55.5766 66.7034 55.5766M83.793 49.5982C84.7019 53.9008 84.7019 54.3526 84.7019 54.92C84.7019 62.2748 76.4329 66.3568 65.5634 66.3568C40.9982 66.3726 19.4799 51.978 19.4799 42.464C19.4785 41.1396 19.7485 39.8291 20.2732 38.6132C11.4368 39.0545 0 40.6305 0 50.7277C0 67.2656 39.1857 87.6492 70.2128 87.6492C94.0005 87.6492 100 76.89 100 68.3951C100 61.7127 94.2212 54.1267 83.8035 49.5982" fill="#EE0000"/>
<path d="M83.793 49.5982C84.7019 53.9008 84.7019 54.3526 84.7019 54.92C84.7019 62.2748 76.4329 66.3568 65.5634 66.3568C40.9982 66.3726 19.4799 51.978 19.4799 42.464C19.4785 41.1397 19.7485 39.8291 20.2732 38.6132L22.196 33.8535C22.1079 34.1786 22.0689 34.5151 22.0804 34.8517C22.0804 39.6954 41.1505 55.5767 66.7035 55.5767C73.2756 55.5767 82.7844 54.2213 82.7844 46.4041C82.804 45.8008 82.7493 45.1973 82.6215 44.6074L83.793 49.5982Z" fill="black"/>
</svg>
