<svg width="100" height="100" viewBox="0 0 100 100" fill="none" xmlns="http://www.w3.org/2000/svg">
<path d="M50.7833 56.5879C50.7833 58.6469 49.2518 60.347 47.2659 60.614C44.9118 66.1017 40.1168 71.4558 33.5474 75.2487C28.0337 78.4319 22.1908 79.9853 16.9497 79.9853C10.2842 79.9853 4.59178 77.4739 1.78321 72.6093C-2.77805 64.709 1.66633 53.6858 12.2002 46.2369C12.2006 47.9384 12.3337 49.4987 12.6318 50.8831C11.7818 51.5997 11.0093 52.2134 10.2555 53.0038C8.31569 55.0373 6.76492 57.1442 5.70392 59.3939C3.7249 63.59 3.59114 67.5565 5.32707 70.5633C7.2827 73.9505 11.519 75.8932 16.9497 75.8932C21.6553 75.8932 26.8232 74.4057 31.5014 71.7048C34.2254 70.1322 36.6475 68.2434 38.7007 66.0909C40.6405 64.0572 42.162 61.8854 43.2231 59.6356C43.3156 59.4396 43.4028 59.2443 43.4868 59.0496C42.9658 58.3663 42.6557 57.5135 42.6557 56.5879C42.6557 54.3436 44.4752 52.5243 46.7195 52.5243C48.9639 52.5243 50.7833 54.3436 50.7833 56.5879ZM32.6476 18.999C41.7208 18.999 49.2405 28.5864 50.5972 41.1164C49.182 40.2659 47.7003 39.5571 46.1488 38.9971C45.9639 38.0287 45.7346 37.0775 45.4613 36.1462C44.67 33.4495 43.5499 31.046 42.132 29.0021C39.4878 25.1903 36.1194 23.0911 32.6476 23.0911C29.1759 23.0911 25.8075 25.1903 23.1632 29.0021C21.7453 31.046 20.6252 33.4495 19.8339 36.1462C18.9965 39.0006 18.5718 42.0426 18.5718 45.188C18.5718 48.3334 18.9965 51.3755 19.8339 54.2297C20.6252 56.9264 21.7453 59.33 23.1632 61.374C23.3102 61.5856 23.4594 61.7917 23.6107 61.9928C23.8529 61.9477 24.1022 61.9232 24.3573 61.9232C26.6018 61.9232 28.4211 63.7426 28.4211 65.9869C28.4211 68.2313 26.6018 70.0507 24.3573 70.0507C22.1131 70.0507 20.2937 68.2313 20.2937 65.9869C20.2937 65.5274 20.371 65.0861 20.5117 64.6742C16.8094 59.8798 14.4797 52.9268 14.4797 45.188C14.4797 30.7242 22.6137 18.999 32.6476 18.999ZM48.3066 75.8924C53.2899 75.8924 57.2675 74.2566 59.4 71.3699C60.6399 72.0252 62.018 72.4237 63.4728 72.6259C60.6481 77.4364 54.9339 79.9845 48.3066 79.9845C44.2084 79.9845 39.7435 79.0351 35.3547 77.0993C37.0625 76.1562 38.5756 75.2448 39.6963 74.3974C42.5971 75.3753 45.5321 75.8924 48.3066 75.8924ZM55.03 52.938C52.9768 50.7854 50.5547 48.8966 47.8308 47.324C43.1526 44.623 37.9851 43.1355 33.2804 43.1355H33.2798C32.2516 43.1356 31.2662 43.2053 30.331 43.3411C30.3072 43.3446 30.2842 43.3491 30.2606 43.3527C29.8358 45.1429 28.2277 46.4752 26.3075 46.4752C24.0631 46.4752 22.2438 44.6557 22.2438 42.4115C22.2438 40.1671 24.0631 38.3477 26.3075 38.3477C27.3613 38.3477 28.3213 38.7488 29.0434 39.4067C29.0489 39.4057 29.0543 39.4044 29.0599 39.4034C30.4062 39.1642 31.8194 39.0436 33.279 39.0434C38.5205 39.0432 44.3622 40.5963 49.8767 43.7801C58.9493 49.0183 64.6442 57.2335 65.1883 64.6671C63.5405 64.4817 62.1463 63.9349 60.8644 63.2278C60.6067 61.9867 60.1691 60.7011 59.5524 59.3932C58.4913 57.1433 56.9698 54.9715 55.03 52.938Z" fill="#999999"/>
<path d="M96.4879 46.7655C98.2881 49.4765 94.6224 51.5971 92.9807 48.8711C91.9799 47.1629 90.4449 45.5653 88.4328 44.1693C86.3889 42.7514 83.9852 41.6314 81.2886 40.8402C78.4343 40.0026 75.3922 39.5779 72.247 39.5779C69.1016 39.5779 66.0595 40.0026 63.2051 40.8402C62.714 40.9843 62.2336 41.1406 61.7623 41.3064C61.704 43.4998 59.9088 45.2603 57.7013 45.2603C55.4571 45.2603 53.6375 43.441 53.6375 41.1966C53.6375 38.9522 55.4571 37.1328 57.7013 37.1328C58.4481 37.1328 59.1472 37.3352 59.7485 37.6866C63.4633 36.2843 67.7202 35.4858 72.247 35.4858C83.1962 35.4858 92.576 40.1473 96.4879 46.7655ZM99.9045 56.5879C99.9045 58.6257 98.4046 60.3126 96.449 60.6062C92.5143 67.1903 83.1606 71.8217 72.2469 71.8217C63.7243 71.8217 56.1526 68.9975 51.3702 64.6248C49.0569 62.2993 51.8414 59.5974 53.999 61.485C54.617 62.0613 55.3052 62.614 56.061 63.1382C58.1048 64.5561 60.5084 65.6762 63.2051 66.4675C66.0595 67.305 69.1015 67.7296 72.2469 67.7296C75.3922 67.7296 78.4344 67.305 81.2886 66.4675C83.9853 65.6762 86.389 64.5561 88.4327 63.1382C90.206 61.908 91.6073 60.5209 92.6004 59.0399C92.0839 58.3583 91.7768 57.5092 91.7768 56.5879C91.7768 54.3436 93.5963 52.5243 95.8408 52.5243C98.085 52.5243 99.9045 54.3436 99.9045 56.5879Z" fill="#89D96D"/>
</svg>
