<svg width="100" height="100" viewBox="0 0 100 100" fill="none" xmlns="http://www.w3.org/2000/svg">
<path fill-rule="evenodd" clip-rule="evenodd" d="M28.9557 14.4582L48.3729 27.7121C48.811 28.004 49.3229 28.1638 49.8483 28.1729C50.3745 28.169 50.8876 28.0088 51.3238 27.7121L70.7557 14.4136C71.5107 13.873 71.9271 12.9718 71.8514 12.042C71.7757 11.1121 71.2193 10.2912 70.3869 9.88167L50.9695 0.268047C50.2331 -0.0893491 49.375 -0.0893491 48.6383 0.268047L29.2802 9.88167C28.4329 10.2934 27.869 11.1302 27.802 12.0752C27.7349 13.0203 28.175 13.9293 28.9557 14.4582ZM56.4438 31.8726C56.4452 32.7517 56.8755 33.5736 57.5945 34.0717L73.1607 44.7107C74.1571 45.3976 75.4905 45.3119 76.3921 44.5026L89.45 32.8236C90.0319 32.3036 90.355 31.5507 90.3321 30.7676C90.3095 29.9845 89.9431 29.2519 89.3319 28.7671L76.8643 18.7969C75.9579 18.077 74.6938 18.029 73.7362 18.6781L57.5945 29.7181C56.8881 30.2071 56.4595 31.0095 56.4438 31.8726ZM17.7274 46.345C18.3565 46.9102 18.6799 47.7438 18.5979 48.5888C18.5161 49.4386 18.0253 50.1938 17.2847 50.6095L7.98926 56.1814C7.04698 56.7448 5.85725 56.6636 4.99907 55.9774C4.14089 55.2914 3.79252 54.1429 4.12352 53.091L7.56136 42.2738C7.83105 41.4167 8.51464 40.7562 9.37619 40.5205C10.2371 40.2698 11.1654 40.4895 11.8255 41.1L17.7274 46.345ZM68.1441 47.4743L51.3386 35.9736C50.4455 35.3726 49.2807 35.3726 48.3876 35.9736L31.5819 47.4743C30.9136 47.9369 30.4902 48.6805 30.4312 49.495C30.3876 50.3155 30.7126 51.1119 31.3164 51.6645L48.1071 66.6867C48.5914 67.1186 49.2162 67.3564 49.8631 67.3552C50.5095 67.355 51.134 67.1174 51.6188 66.6867L68.4098 51.6645C69.0152 51.1143 69.3362 50.3145 69.2802 49.495C69.2333 48.6805 68.8136 47.9338 68.1441 47.4743ZM23.3194 44.5026L10.2762 32.8236C9.68933 32.2905 9.36548 31.524 9.39093 30.7286C9.40512 29.9445 9.76798 29.2081 10.3795 28.7226L22.8472 18.6929C23.7598 17.975 25.0265 17.9271 25.99 18.574L42.1169 29.614C42.8652 30.105 43.3167 30.9433 43.3167 31.8429C43.3167 32.7424 42.8652 33.581 42.1169 34.0717L26.5654 44.7105C25.5628 45.3945 24.2277 45.309 23.3194 44.5026ZM90.2909 61.2781L77.0117 53.3286C76.0255 52.7343 74.7702 52.8548 73.9131 53.6259L57.6831 68.1131C56.9983 68.7245 56.6769 69.6493 56.8331 70.5574C56.9895 71.4652 57.6012 72.2271 58.4502 72.5707L80.966 81.694C81.2748 81.8224 81.6057 81.8881 81.9398 81.8871C82.9848 81.8905 83.9333 81.2731 84.3595 80.3121L91.3386 64.6807C91.9064 63.4438 91.4543 61.9745 90.2909 61.2781ZM92.1352 42.2738L95.5731 53.091H95.5436C95.7979 53.9 95.6533 54.7829 95.1548 55.4669C94.6562 56.1512 93.8633 56.5545 93.0205 56.5531C92.5479 56.5545 92.0836 56.4262 91.6779 56.1817L82.3676 50.6095C81.6421 50.1852 81.1686 49.4307 81.0988 48.5888C81.0117 47.7431 81.336 46.9074 81.9693 46.345L87.8712 41.085C88.5379 40.4876 89.4593 40.2695 90.3205 40.5055C91.1814 40.7514 91.8626 41.4155 92.1352 42.2738ZM42.884 70.55C43.0429 69.6457 42.7245 68.7233 42.0431 68.1131L25.8129 53.6259C24.9559 52.8548 23.7006 52.7343 22.7145 53.3286L9.43521 61.2781C8.28545 61.9776 7.83055 63.4283 8.37288 64.666L15.3666 80.2974C15.946 81.6007 17.444 82.2107 18.7602 81.6793L41.2612 72.5559C42.1105 72.2152 42.7243 71.4564 42.884 70.55ZM50.8517 75.0076L68.9114 82.3181C69.7945 82.696 70.4045 83.5264 70.505 84.4874C70.6193 85.4605 70.1871 86.4167 69.3836 86.9688L51.309 99.5245C50.876 99.8288 50.3617 99.9945 49.8336 100C49.306 99.9919 48.7926 99.8264 48.3581 99.5245L30.2983 86.9688C29.4919 86.4181 29.0545 85.4629 29.1624 84.4874C29.2829 83.5164 29.9148 82.6869 30.8148 82.3181L48.8745 75.0076C49.5095 74.7543 50.2167 74.7543 50.8517 75.0076Z" fill="#BF4722"/>
</svg>
