<svg width="100" height="100" viewBox="0 0 100 100" fill="none" xmlns="http://www.w3.org/2000/svg">
<g clip-path="url(#clip0_868_39494)">
<path fill-rule="evenodd" clip-rule="evenodd" d="M100 100H0V0H100V100ZM8.91818 64.6909C17.8682 66.0546 31.7727 66.6 44.2818 63.9136C48.3909 63.0273 52.2045 61.8227 55.6 60.2636C49.2591 44.8091 47.9864 34.0545 49.8545 26.7273C51.9727 18.4409 58.0318 14.9545 63.4818 14.9H63.5273C66.6545 14.9 73.15 15.7045 77.5318 21.0364C82.0909 26.5818 83.0591 35.3636 78.7136 48.2682C76.4227 55.0545 72.1818 60.1591 66.9227 63.9773C72.9364 77.5818 76.5136 84.4227 78.6864 87.9955C79.7 89.6636 80.3773 90.5591 80.8091 91.0818H91.0818V8.91818H8.91818V64.6909ZM59.1455 68.45C55 70.3273 50.5682 71.6818 46.1591 72.6318C32.9318 75.4773 18.6182 75.0273 8.91818 73.6954V91.0818H70.15C67.7545 86.9 64.3 80.0682 59.1455 68.45ZM63.5545 23.8136C62.0864 23.8364 59.6 24.6364 58.5 28.9364C57.3636 33.3682 57.7682 41.5545 63.2955 55.4818C66.5 52.7636 68.9 49.4409 70.2545 45.4227C74.2 33.7136 72.3227 28.7409 70.6455 26.7C68.8 24.4545 65.6909 23.8182 63.5545 23.8136Z" fill="black"/>
</g>
<defs>
<clipPath id="clip0_868_39494">
<rect width="100" height="100" fill="white"/>
</clipPath>
</defs>
</svg>
