<svg width="100" height="100" viewBox="0 0 100 100" fill="none" xmlns="http://www.w3.org/2000/svg">
<g clip-path="url(#clip0_867_19085)">
<path fill-rule="evenodd" clip-rule="evenodd" d="M90.1367 77.1175C91.0373 88.6716 91.0373 94.0877 91.0373 99.9995H64.2847C64.2847 98.7119 64.3076 97.5337 64.3309 96.3393C64.4034 92.6256 64.4789 88.7535 63.8768 80.9337C63.0811 69.4852 58.1474 66.9411 49.0757 66.9411H41.0386H7V46.1113H50.3489C61.8079 46.1113 67.5373 42.6281 67.5373 33.4057C67.5373 25.2964 61.8079 20.3821 50.3489 20.3821H7V-0.000488281H55.1235C81.0652 -0.000488281 93.9565 12.243 93.9565 31.8008C93.9565 46.4293 84.8851 55.9697 72.6304 57.5598C82.9752 59.6268 89.023 65.5101 90.1367 77.1175Z" fill="black"/>
</g>
<defs>
<clipPath id="clip0_867_19085">
<rect width="100" height="100" fill="white"/>
</clipPath>
</defs>
</svg>
