<svg width="100" height="100" viewBox="0 0 100 100" fill="none" xmlns="http://www.w3.org/2000/svg">
<g clip-path="url(#clip0_867_14129)">
<path d="M49.4916 32.3377H14.5083C13.7041 32.3449 12.9064 32.1935 12.1608 31.8922C11.4152 31.5909 10.7362 31.1457 10.1628 30.5819C9.58931 30.0181 9.13257 29.3468 8.81865 28.6064C8.50473 27.8661 8.33979 27.0711 8.33325 26.2669V6.07108C8.33325 2.68358 11.1249 0.000244141 14.5083 0.000244141H43.3124C46.7583 0.000244141 49.4916 2.74191 49.4916 6.07108V32.3377ZM87.0082 67.5627H49.5291V32.2919H87.0082C90.6332 32.2919 93.6249 35.2794 93.6249 38.9002V60.9586C93.6249 64.6461 90.6374 67.5627 87.0082 67.5627ZM43.3124 100H14.5083C11.1249 100 8.33325 97.2627 8.33325 93.9419V73.7211C8.33325 70.4002 11.1249 67.6627 14.5083 67.6627H49.4916V93.9419C49.4916 97.2627 46.6999 100 43.3124 100Z" fill="#FD5402"/>
</g>
<defs>
<clipPath id="clip0_867_14129">
<rect width="100" height="100" fill="white"/>
</clipPath>
</defs>
</svg>
