<svg width="100" height="100" viewBox="0 0 100 100" fill="none" xmlns="http://www.w3.org/2000/svg">
<path d="M0.000244141 60.62H4.41902V53.6972H8.13082L11.6069 60.62H16.497L12.4318 52.6662C14.5822 51.6351 15.9667 49.5141 15.9667 46.8629C15.9667 42.6798 12.9325 39.999 8.39592 39.999H0.000244141V60.62ZM8.04241 43.6813C10.134 43.6813 11.4596 44.9186 11.4596 46.8629C11.4596 48.7777 10.134 50.0149 8.04241 50.0149H4.41902V43.6813H8.04241ZM25.2825 60.7967C29.3184 60.7967 31.9402 58.44 32.4115 55.4942H28.3167C27.9633 56.9082 26.7849 57.6447 25.1058 57.6447C23.0143 57.6447 21.6297 56.3485 21.5413 54.198V53.9918H32.5293C32.6177 53.5205 32.6472 53.0197 32.6472 52.5778C32.5883 48.1296 29.5246 45.3015 24.9879 45.3015C20.3041 45.3015 17.2109 48.3653 17.2109 53.0786C17.2109 57.7625 20.2451 60.7967 25.2825 60.7967ZM21.6297 51.2816C21.8654 49.4846 23.2204 48.3947 25.0174 48.3947C26.9028 48.3947 28.1695 49.4257 28.4641 51.2816H21.6297ZM34.095 55.5826C34.2718 58.823 37.1293 60.7967 41.3418 60.7967C45.4071 60.7967 48.2351 58.882 48.2351 55.8772C48.2351 52.4599 45.3482 51.6646 41.8721 51.3111C39.6921 51.046 38.396 50.9281 38.396 49.7792C38.396 48.8071 39.4564 48.2179 41.0767 48.2179C42.7558 48.2179 43.9047 48.9544 44.0226 50.1622H47.9994C47.7932 47.069 44.9947 45.2721 40.9294 45.2721C37.0408 45.2426 34.4191 47.2164 34.4191 50.2211C34.4191 53.3437 37.1587 54.1391 40.6937 54.5515C43.1388 54.8755 44.1698 54.964 44.1698 56.2012C44.1698 57.2617 43.1093 57.8214 41.3713 57.8214C39.3386 57.8214 38.1897 56.9082 38.0425 55.5826H34.095ZM57.9056 60.7967C61.9414 60.7967 64.5632 58.44 65.0345 55.4942H60.9398C60.5863 56.9082 59.408 57.6447 57.7288 57.6447C55.6372 57.6447 54.2527 56.3485 54.1643 54.198V53.9918H65.1524C65.2407 53.5205 65.2702 53.0197 65.2702 52.5778C65.2113 48.1296 62.1476 45.3015 57.611 45.3015C52.9271 45.3015 49.8339 48.3653 49.8339 53.0786C49.8339 57.7625 52.8682 60.7967 57.9056 60.7967ZM54.2527 51.2816C54.4883 49.4846 55.8435 48.3947 57.6404 48.3947C59.5258 48.3947 60.7925 49.4257 61.087 51.2816H54.2527ZM76.2303 45.3015C73.9035 45.3015 72.5185 46.1853 71.5467 47.3636L71.1634 45.4783H67.5401V60.62H71.6935V52.8724C71.6935 50.2506 72.931 48.7188 75.0811 48.7188C77.1729 48.7188 78.1453 50.0738 78.1453 52.6367V60.62H82.2989V52.2243C82.2989 47.0396 79.5004 45.3015 76.2303 45.3015ZM95.8467 47.3636C94.8742 46.1264 93.3717 45.3015 91.2807 45.3015C87.2447 45.3015 84.2695 48.3358 84.2695 53.0197C84.2695 57.8214 87.2447 60.7967 91.3099 60.7967C93.49 60.7967 94.9626 59.8246 95.9643 58.5284L96.3768 60.62H100V39.999H95.8467V47.3636ZM92.2232 57.409C89.9548 57.409 88.5114 55.6415 88.5114 53.0491C88.5114 50.4568 89.9548 48.6893 92.2232 48.6893C94.4917 48.6893 95.9051 50.4863 95.9051 53.0786C95.9051 55.6415 94.4917 57.409 92.2232 57.409Z" fill="black"/>
</svg>
