<svg width="100" height="100" viewBox="0 0 100 100" fill="none" xmlns="http://www.w3.org/2000/svg">
<path d="M100 13.0818L80.7266 46.4638L75.4805 37.3685H66.1578L74.4922 51.8162L70.8086 58.199L75.4703 66.2505L80.7617 57.1083L96.9586 85.163L100 86.9201V74.2794L86.9953 51.7552L100 29.231V13.0818ZM0 18.2302V66.2498H8.075V26.3037H10.582L14.7773 33.5716L8.90078 36.9623V48.4076L19.2016 66.2498H28.5281L14.9781 42.7794L25.807 36.5271L15.2437 18.2302H0ZM26.0023 37.3693L16.107 43.0826L29.482 66.2498H44.7141L47.943 60.6568V51.0084L39.868 55.6693V58.4732H33.7266V57.8279L51.343 47.6826L45.3945 37.3677L26.0023 37.3693ZM46.2539 37.3693L54.2953 51.3084L45.668 66.249H54.9945L60.0859 57.4287L65.1781 66.249H74.5023L65.875 51.3076L69.5602 44.9263L65.2039 37.3685L60.2977 45.8802L55.3914 37.3685L46.2539 37.3693ZM26.5742 45.4443H39.0547L29.6906 50.8365L26.5742 45.4443Z" fill="url(#paint0_linear_1085_3929)"/>
<path d="M25.5813 36.137L25.8079 36.5276H86.4641L86.6899 36.137H25.8071H25.5813Z" fill="black"/>
<defs>
<linearGradient id="paint0_linear_1085_3929" x1="-0.000528145" y1="86.9177" x2="-0.000528145" y2="18.2293" gradientUnits="userSpaceOnUse">
<stop stop-color="#A51415"/>
<stop offset="0.5" stop-color="#D81511"/>
<stop offset="1" stop-color="#BF100D"/>
</linearGradient>
</defs>
</svg>
