<svg width="100" height="100" viewBox="0 0 100 100" fill="none" xmlns="http://www.w3.org/2000/svg">
<g clip-path="url(#clip0_1085_3932)">
<path d="M75.0813 90.9122L93.636 90.9099C94.4716 90.9101 95.2992 90.7457 96.0713 90.426C96.8434 90.1064 97.545 89.6377 98.136 89.0469C98.7269 88.4561 99.1957 87.7546 99.5156 86.9826C99.8354 86.2105 100 85.383 100 84.5474V66.5677C99.9999 65.6497 99.8013 64.7426 99.4178 63.9086C99.0343 63.0745 98.475 62.3333 97.7782 61.7357L38.1501 10.6255C36.9964 9.63743 35.5276 9.09434 34.0086 9.09424H15.4532C14.6175 9.09414 13.7899 9.25865 13.0178 9.57839C12.2457 9.89813 11.5441 10.3668 10.9531 10.9577C10.3622 11.5486 9.8934 12.2501 9.57356 13.0222C9.25373 13.7943 9.08911 14.6218 9.08911 15.4575V33.4396C9.08924 34.3575 9.28787 35.2646 9.67138 36.0987C10.0549 36.9327 10.6142 37.6739 11.311 38.2716L70.936 89.3794C72.09 90.3678 73.5595 90.9109 75.0789 90.9107L75.0813 90.9122Z" fill="#007DFE"/>
<path d="M77.3139 90.9086H93.6366C95.3242 90.9086 96.9427 90.2382 98.1361 89.0448C99.3294 87.8515 99.9999 86.233 99.9999 84.5453V64.0883C99.9999 63.7872 99.9788 63.4872 99.9366 63.1883L91.6897 5.46406C91.4732 3.94761 90.717 2.56014 89.5598 1.55641C88.4027 0.552676 86.9223 4.96711e-05 85.3905 4.80163e-08H60.9014C60.0655 -0.000102636 59.2378 0.16449 58.4655 0.484376C57.6932 0.804261 56.9916 1.27317 56.4006 1.86431C55.8096 2.45546 55.3408 3.15725 55.0211 3.9296C54.7014 4.70195 54.537 5.52972 54.5374 6.36562L54.5452 35.332C54.5452 36.0156 54.6545 36.6945 54.8709 37.343L71.2772 86.5578C71.7 87.8246 72.5103 88.9264 73.5937 89.7073C74.677 90.4882 75.9785 90.908 77.3139 90.9086Z" fill="url(#paint0_linear_1085_3932)"/>
<path d="M6.36328 100H59.4391C60.6843 99.9994 61.902 99.6337 62.9414 98.9482C63.9809 98.2626 64.7966 97.2873 65.2875 96.143L90.3938 37.5648C90.7324 36.7721 90.9075 35.9191 90.9086 35.057V6.36484C90.9087 5.52904 90.7442 4.7014 90.4244 3.92918C90.1046 3.15697 89.6358 2.45531 89.0449 1.86427C88.4539 1.27323 87.7523 0.804383 86.9801 0.48451C86.208 0.164637 85.3803 -6.29777e-09 84.5445 0L56.4734 0C55.2159 0.000327131 53.9866 0.373026 52.9406 1.07109L2.83359 34.5125C1.96286 35.094 1.24895 35.8812 0.755099 36.8044C0.261248 37.7277 0.00269646 38.7584 0.0023438 39.8055L4.79633e-08 93.6359C-0.000102555 94.4716 0.164413 95.2992 0.484152 96.0713C0.803891 96.8434 1.27259 97.545 1.86349 98.136C2.45438 98.7269 3.1559 99.1957 3.92798 99.5155C4.70006 99.8354 5.52758 100 6.36328 100Z" fill="url(#paint1_linear_1085_3932)"/>
<path d="M81.25 18.75H18.75V81.25H81.25V18.75Z" fill="black"/>
<path d="M26.7087 26.5625V50H31.2806V41.15H35.2259L40.272 50H45.511L39.9298 40.6125C40.0444 40.5766 40.1603 40.5422 40.2774 40.5094C40.5407 40.4336 40.8032 40.3594 41.0407 40.25C42.3134 39.6219 43.2892 38.7641 43.9704 37.6563C44.6618 36.5469 45.0079 35.2695 45.0079 33.8047C45.0079 32.3391 44.6688 31.1055 43.9884 30.0172C43.3188 28.9297 42.3579 28.0695 41.1079 27.4625C39.8579 26.8563 38.4118 26.5625 36.772 26.5625H26.7087ZM48.8704 26.5625V50H57.7938C60.0147 50 62.0014 49.4974 63.754 48.4922C65.4932 47.517 66.9254 46.0753 67.8892 44.3297C68.8814 42.5297 69.3782 40.5195 69.3782 38.2812C69.3782 36.043 68.8821 34.0328 67.8892 32.2539C66.8954 30.4758 65.5173 29.0742 63.754 28.0703C62.0014 27.0651 60.0147 26.5625 57.7938 26.5625H48.8704ZM31.2813 30.3711H36.472C37.2423 30.3711 37.911 30.518 38.4798 30.7891C39.0603 31.0828 39.5079 31.4805 39.8196 32.0039C40.1321 32.5273 40.2868 33.1359 40.2868 33.8477C40.2868 34.5594 40.1329 35.1641 39.8196 35.7086C39.5071 36.232 39.0603 36.6305 38.4806 36.9234C37.9103 37.2156 37.2423 37.3414 36.4728 37.3414H31.2813V30.3711ZM53.4431 30.518H57.7431C59.1384 30.518 60.361 30.8312 61.411 31.4578C62.4603 32.0648 63.2673 32.9656 63.8368 34.1375C64.4066 35.3094 64.6915 36.6906 64.6915 38.2812C64.6915 39.8719 64.4066 41.2534 63.8368 42.4258C63.2673 43.5977 62.4603 44.4945 61.411 45.1023C60.361 45.7305 59.1384 46.0448 57.7431 46.0453H53.4431V30.518ZM26.5532 68.75V73.4375H51.5532V68.75H26.5532Z" fill="white"/>
</g>
<defs>
<linearGradient id="paint0_linear_1085_3932" x1="101.121" y1="88.0902" x2="62.273" y2="4.30153" gradientUnits="userSpaceOnUse">
<stop offset="0.21" stop-color="#007DFE"/>
<stop offset="0.55" stop-color="#FFB700"/>
</linearGradient>
<linearGradient id="paint1_linear_1085_3932" x1="93.4027" y1="6.22028" x2="1.67655" y2="97.9479" gradientUnits="userSpaceOnUse">
<stop offset="0.23" stop-color="#FFB700"/>
<stop offset="0.73" stop-color="#FF0A67"/>
</linearGradient>
<clipPath id="clip0_1085_3932">
<rect width="100" height="100" fill="white"/>
</clipPath>
</defs>
</svg>
