<svg width="100" height="100" viewBox="0 0 100 100" fill="none" xmlns="http://www.w3.org/2000/svg">
<path d="M66.9203 66.6135L53.3687 66.9432L48.2516 78.6697L34.9547 82.1408L26.6211 89.7393H93.668C97.1375 89.7393 99.975 86.9025 99.975 83.4322V50.1244L76.1906 56.0518L66.9203 66.6135ZM18.0602 67.6018L6.78828 77.2775C6.68672 76.5932 6.40859 75.8846 5.92734 75.301L0 80.2924C1.26641 81.7869 3.36875 82.0658 4.98984 81.0775L16.0078 76.0877L18.0602 67.6018ZM83.5359 33.5846L84.9031 37.1814C87.0062 36.6494 90.2734 34.3189 92.5531 32.5205C92.4773 33.1533 92.5023 33.7869 92.7305 34.3955L100 31.7088C99.6374 30.7473 98.9094 29.9681 97.9747 29.5412C97.0399 29.1143 95.9743 29.0743 95.0102 29.4299C94.9594 29.4549 94.8836 29.4799 94.8328 29.5314L94.8578 29.5057L83.5359 33.5846ZM96.0742 39.6627H96.0234L82.7 38.5236L79.6609 30.5447V22.0854C80.2688 22.415 80.9266 22.6174 81.6609 22.6174C83.8656 22.6174 85.6633 20.9205 85.8664 18.7932L89.0578 16.6908L88.9055 12.4096C88.8805 11.9799 88.5508 11.6244 88.1203 11.6244L84.1438 11.5736C83.3078 10.4088 81.7633 9.90176 80.3953 10.5354L71.6562 14.6377C71.682 14.6635 71.682 14.6885 71.682 14.7143C71.9636 15.289 72.4025 15.772 72.9477 16.1072C62.2844 21.6033 57.7758 29.0502 57.7758 29.0502L17.0469 50.9854C14.6656 52.2518 11.6766 51.3658 10.3852 48.9846C9.11875 46.6033 10.0047 43.615 12.3859 42.3228L23.9359 36.1174C26.8742 34.5471 28.5711 31.6088 28.7992 28.5439L21.8852 32.2674L10.3344 38.4728C5.82578 40.9041 4.12891 46.5525 6.53516 51.0619C8.20703 54.1768 11.4234 55.9502 14.7414 55.9502C16.2359 55.9502 17.7305 55.5955 19.1242 54.8354L24.3414 52.0244C23.9522 54.1506 24.1627 56.3431 24.9492 58.3564C25.2281 59.0658 25.4055 59.4963 25.4055 59.4963C27.2547 63.4978 24.8227 66.6393 21.6313 66.6393H20.6172L16.9445 82.5963C16.4441 82.0703 15.8017 81.701 15.0953 81.533L13.2719 89.0557C15.1211 89.4854 16.9445 88.5486 17.6789 86.8768L25.9875 71.9838C36.4992 70.9705 42.0211 63.8525 41.768 53.8221C52.6594 54.4807 67.1477 47.6424 73.607 38.2955C78.4953 44.501 87.7656 43.64 91.8695 42.0689L92.6547 41.7908C92.35 42.3228 92.1984 42.9564 92.1984 43.64L99.9492 43.5643C99.9242 41.3354 98.2016 39.6369 96.0742 39.6627ZM23.8852 25.5557C24.2656 26.265 24.443 27.0244 24.468 27.7846L28.5461 25.5814C28.3695 24.8481 28.0971 24.1413 27.7359 23.4791L27.5328 23.0729L23.6828 25.151L23.8852 25.5557ZM22.3914 22.7947L26.2414 20.7182L25.7344 19.8057C25.1773 18.7424 23.8352 18.3369 22.7711 18.8939C21.707 19.4518 21.3023 20.7939 21.8594 21.858L22.3914 22.7947Z" fill="#FFBE00"/>
<path d="M81.4585 12.5874C80.775 12.5874 80.2179 13.1452 80.2179 13.8538C80.2179 14.5382 80.775 15.1202 81.4585 15.1202C82.1421 15.1202 82.7257 14.5632 82.7257 13.8546C82.7257 13.146 82.1429 12.5874 81.4585 12.5874ZM74.164 21.9343C73.8601 22.1116 73.6828 22.3397 73.6828 22.3397C73.6828 22.3397 74.214 22.9476 74.8476 22.9476C75.4812 22.9476 76.0132 22.3397 76.0132 22.3397C76.0132 22.3397 75.8359 22.1116 75.532 21.9335C75.8183 21.8175 76.0836 21.6552 76.3171 21.453C76.3171 21.453 76.0125 21.1483 75.532 20.9718C75.8359 20.7944 76.0132 20.5663 76.0132 20.5663C76.0132 20.5663 75.4812 19.9585 74.8476 19.9585C74.214 19.9585 73.6835 20.5663 73.6835 20.5663C73.6835 20.5663 73.8601 20.7944 74.164 20.9718C73.7085 21.1491 73.3789 21.453 73.3789 21.453C73.3789 21.453 73.7085 21.7819 74.164 21.9343ZM69.9343 23.4796C69.9343 23.4796 69.4023 22.871 68.7687 22.871C68.1101 22.871 67.6039 23.4796 67.6039 23.4796C67.6039 23.4796 67.7812 23.7069 68.0851 23.8843C67.6289 24.0616 67.2999 24.3655 67.2999 24.3655C67.2999 24.3655 67.6039 24.6702 68.0851 24.8468C67.7804 25.0241 67.6039 25.2522 67.6039 25.2522C67.6039 25.2522 68.1351 25.8601 68.7687 25.8601C69.4273 25.8601 69.9343 25.2522 69.9343 25.2522C69.9343 25.2522 69.757 25.0241 69.4531 24.8468C69.9085 24.6694 70.2382 24.3655 70.2382 24.3655C70.2382 24.3655 69.9335 24.0616 69.4531 23.8843C69.757 23.6812 69.9343 23.4796 69.9343 23.4796ZM75.5062 29.4062C75.5062 29.4062 75.3289 29.178 75.0249 29.0007C75.3113 28.8845 75.5766 28.7219 75.8101 28.5194C75.8101 28.5194 75.5062 28.2155 75.0249 28.0382C75.3296 27.8608 75.5062 27.6335 75.5062 27.6335C75.5062 27.6335 74.9749 27.0257 74.3414 27.0257C73.7085 27.0257 73.1765 27.6335 73.1765 27.6335C73.1765 27.6335 73.3539 27.8608 73.6578 28.0382C73.2015 28.2155 72.8726 28.5194 72.8726 28.5194C72.8726 28.5194 73.1765 28.8241 73.6578 29.0007C73.3531 29.178 73.1765 29.4069 73.1765 29.4069C73.1765 29.4069 73.7078 30.014 74.3414 30.014C74.9742 30.014 75.5062 29.4062 75.5062 29.4062ZM69.1742 31.5085C69.4789 31.3312 69.6554 31.103 69.6554 31.103C69.6554 31.103 69.1242 30.4952 68.4906 30.4952C67.8578 30.4952 67.325 31.103 67.325 31.103C67.325 31.103 67.5023 31.3312 67.8062 31.5093C67.5199 31.6252 67.2546 31.7876 67.021 31.9897C67.021 31.9897 67.3257 32.2944 67.8062 32.471C67.5023 32.6483 67.325 32.8765 67.325 32.8765C67.325 32.8765 67.857 33.4843 68.4906 33.4843C69.1242 33.4843 69.6554 32.8765 69.6554 32.8765C69.6554 32.8765 69.4781 32.6483 69.1742 32.471C69.6304 32.2937 69.9593 31.9897 69.9593 31.9897C69.9593 31.9897 69.6554 31.7116 69.1742 31.5085ZM63.171 29.6851C63.4757 29.5077 63.6523 29.2796 63.6523 29.2796C63.6523 29.2796 63.121 28.6718 62.4875 28.6718C61.8289 28.6718 61.3218 29.2796 61.3218 29.2796C61.3218 29.2796 61.4992 29.5077 61.8031 29.6851C61.3476 29.8624 61.0179 30.1663 61.0179 30.1663C61.0179 30.1663 61.3226 30.4702 61.8031 30.6476C61.4992 30.8249 61.3218 31.053 61.3218 31.053C61.3218 31.053 61.8539 31.6608 62.4875 31.6608C63.146 31.6608 63.6523 31.053 63.6523 31.053C63.6523 31.053 63.475 30.8249 63.171 30.6468C63.6273 30.4702 63.9562 30.1663 63.9562 30.1663C63.9562 30.1663 63.6523 29.8874 63.171 29.6851ZM60.8664 36.8022C60.8664 36.8022 60.689 36.5741 60.3851 36.3968C60.8406 36.2202 61.1703 35.9155 61.1703 35.9155C61.1703 35.9155 60.8656 35.6116 60.3851 35.4343C60.689 35.2577 60.8664 35.0296 60.8664 35.0296C60.8664 35.0296 60.3343 34.4218 59.7007 34.4218C59.0421 34.4218 58.5359 35.0296 58.5359 35.0296C58.5359 35.0296 58.7132 35.2577 59.0171 35.4343C58.5609 35.6116 58.232 35.9155 58.232 35.9155C58.232 35.9155 58.5359 36.2202 59.0171 36.3968C58.7132 36.5741 58.5359 36.803 58.5359 36.803C58.5359 36.803 59.0671 37.4101 59.7007 37.4101C60.3343 37.4101 60.8664 36.8022 60.8664 36.8022ZM50.5828 37.8413C50.5828 37.8413 51.114 38.4491 51.7476 38.4491C52.3804 38.4491 52.9124 37.8405 52.9124 37.8405C52.9124 37.8405 52.7359 37.6132 52.4312 37.4358C52.8875 37.2585 53.2171 36.9546 53.2171 36.9546C53.2171 36.9546 52.9125 36.6499 52.4312 36.4733C52.7359 36.296 52.9124 36.0679 52.9124 36.0679C52.9124 36.0679 52.3812 35.4601 51.7484 35.4601C51.1148 35.4601 50.5828 36.0679 50.5828 36.0679C50.5828 36.0679 50.7601 36.296 51.064 36.4733C50.6078 36.6507 50.2789 36.9546 50.2789 36.9546C50.2789 36.9546 50.5828 37.2585 51.064 37.4358C50.8881 37.5512 50.7266 37.6878 50.5828 37.8413ZM56.2312 41.4632C56.5351 41.2858 56.7125 41.0577 56.7125 41.0577C56.7125 41.0577 56.1804 40.4499 55.5468 40.4499C54.8882 40.4499 54.382 41.0577 54.382 41.0577C54.382 41.0577 54.5593 41.2858 54.8632 41.4632C54.5768 41.5794 54.3116 41.742 54.0781 41.9444C54.0781 41.9444 54.382 42.2483 54.8632 42.4257C54.5585 42.603 54.382 42.8312 54.382 42.8312C54.382 42.8312 54.9132 43.439 55.5468 43.439C56.2054 43.439 56.7125 42.8312 56.7125 42.8312C56.7125 42.8312 56.5351 42.603 56.2312 42.4249C56.5175 42.309 56.7828 42.1466 57.0164 41.9444C57.0164 41.9444 56.6867 41.6147 56.2312 41.4632ZM62.4367 42.8054C62.7406 42.628 62.9179 42.3999 62.9179 42.3999C62.9179 42.3999 62.3867 41.7921 61.7531 41.7921C61.0945 41.7921 60.5875 42.3999 60.5875 42.3999C60.5875 42.3999 60.7648 42.628 61.0687 42.8062C60.7824 42.9221 60.5171 43.0844 60.2835 43.2866C60.2835 43.2866 60.5882 43.5913 61.0687 43.7679C60.7648 43.9452 60.5875 44.1733 60.5875 44.1733C60.5875 44.1733 61.1195 44.7812 61.7531 44.7812C62.4117 44.7812 62.9179 44.1733 62.9179 44.1733C62.9179 44.1733 62.7406 43.9452 62.4367 43.7679C62.8929 43.5905 63.2218 43.2866 63.2218 43.2866C63.2218 43.2866 62.8929 43.0077 62.4367 42.8054ZM67.5023 37.9171C67.807 37.7397 67.9835 37.5116 67.9835 37.5116C67.9835 37.5116 67.4523 36.9038 66.8187 36.9038C66.1601 36.9038 65.6531 37.5116 65.6531 37.5116C65.6531 37.5116 65.8304 37.7397 66.1343 37.9171C65.6789 38.0944 65.3492 38.3983 65.3492 38.3983C65.3492 38.3983 65.6539 38.7022 66.1343 38.8796C65.8304 39.0569 65.6531 39.2851 65.6531 39.2851C65.6531 39.2851 66.1851 39.8929 66.8187 39.8929C67.4773 39.8929 67.9835 39.2851 67.9835 39.2851C67.9835 39.2851 67.8062 39.0569 67.5023 38.8788C67.9585 38.7022 68.2874 38.3983 68.2874 38.3983C68.2874 38.3983 67.9585 38.0937 67.5023 37.9171ZM76.5703 33.839C76.875 33.6616 77.0515 33.4335 77.0515 33.4335C77.0515 33.4335 76.5203 32.8257 75.8867 32.8257C75.2539 32.8257 74.721 33.4335 74.721 33.4335C74.721 33.4335 74.8984 33.6616 75.2023 33.839C74.7468 34.0163 74.4171 34.3202 74.4171 34.3202C74.4171 34.3202 74.7218 34.6241 75.2023 34.8015C74.8984 34.9788 74.721 35.2069 74.721 35.2069C74.721 35.2069 75.2531 35.8147 75.8867 35.8147C76.5203 35.8147 77.0515 35.2069 77.0515 35.2069C77.0515 35.2069 76.8742 34.9788 76.5703 34.8007C77.0265 34.6241 77.3554 34.3202 77.3554 34.3202C77.3554 34.3202 77.0265 33.9905 76.5703 33.839ZM46.7828 41.539C47.0875 41.3616 47.264 41.1335 47.264 41.1335C47.264 41.1335 46.7328 40.5257 46.1 40.5257C45.4664 40.5257 44.9343 41.1335 44.9343 41.1335C44.9343 41.1335 45.1117 41.3616 45.4156 41.539C44.9593 41.7163 44.6304 42.0202 44.6304 42.0202C44.6304 42.0202 44.9343 42.3249 45.4156 42.5015C45.1109 42.6788 44.9343 42.9069 44.9343 42.9069C44.9343 42.9069 45.4656 43.5147 46.0992 43.5147C46.732 43.5147 47.264 42.9069 47.264 42.9069C47.264 42.9069 47.0875 42.6788 46.7828 42.5015C47.239 42.3241 47.5687 42.0202 47.5687 42.0202C47.5687 42.0202 47.239 41.7163 46.7828 41.539ZM52.8117 47.4921C53.1156 47.314 53.2929 47.0858 53.2929 47.0858C53.2929 47.0858 52.7609 46.478 52.1273 46.478C51.4937 46.478 50.9625 47.0858 50.9625 47.0858C50.9625 47.0858 51.1398 47.314 51.4437 47.4921C51.1574 47.608 50.8921 47.7704 50.6585 47.9726C50.6585 47.9726 50.9625 48.2772 51.4437 48.4538C51.1398 48.6311 50.9625 48.8593 50.9625 48.8593C50.9625 48.8593 51.4937 49.4671 52.1273 49.4671C52.7601 49.4671 53.2929 48.8593 53.2929 48.8593C53.2929 48.8593 53.1156 48.6311 52.8117 48.4538C53.2671 48.2765 53.5968 47.9726 53.5968 47.9726C53.5968 47.9726 53.2921 47.6686 52.8117 47.4913V47.4921ZM45.1117 48.5804C45.4156 48.403 45.5929 48.1749 45.5929 48.1749C45.5929 48.1749 45.0609 47.5671 44.4273 47.5671C43.7687 47.5671 43.2625 48.1749 43.2625 48.1749C43.2625 48.1749 43.4398 48.403 43.7437 48.5812C43.2875 48.7577 42.9585 49.0616 42.9585 49.0616C42.9585 49.0616 43.2625 49.3663 43.7437 49.5429C43.439 49.7202 43.2625 49.9483 43.2625 49.9483C43.2625 49.9483 43.7937 50.5561 44.4273 50.5561C45.0859 50.5561 45.5929 49.9483 45.5929 49.9483C45.5929 49.9483 45.4156 49.7202 45.1117 49.5429C45.5671 49.3655 45.8968 49.0616 45.8968 49.0616C45.8968 49.0616 45.5921 48.7577 45.1117 48.5804ZM38.8304 44.1476C39.1335 43.9702 39.3109 43.7429 39.3109 43.7429C39.3109 43.7429 38.7796 43.1351 38.146 43.1351C37.4875 43.1351 36.9804 43.7429 36.9804 43.7429C36.9804 43.7429 37.1578 43.9702 37.4617 44.1476C37.1753 44.2637 36.91 44.4263 36.6765 44.6288C36.6765 44.6288 36.9812 44.9335 37.4617 45.1101C37.1578 45.2874 36.9804 45.5163 36.9804 45.5163C36.9804 45.5163 37.5125 46.1233 38.146 46.1233C38.8046 46.1233 39.3109 45.5155 39.3109 45.5155C39.3109 45.5155 39.1335 45.2874 38.8296 45.1101C39.2859 44.9335 39.6148 44.6288 39.6148 44.6288C39.6148 44.6288 39.3117 44.3249 38.8304 44.1476ZM29.914 49.8976C29.6093 50.0749 29.4328 50.303 29.4328 50.303C29.4328 50.303 29.964 50.9108 30.5976 50.9108C31.2304 50.9108 31.7632 50.303 31.7632 50.303C31.7632 50.303 31.5859 50.0749 31.282 49.8976C31.7375 49.7202 32.0671 49.4163 32.0671 49.4163C32.0671 49.4163 31.7625 49.1124 31.282 48.9351C31.5859 48.7577 31.7632 48.5296 31.7632 48.5296C31.7632 48.5296 31.2312 47.9218 30.5976 47.9218C29.964 47.9218 29.4328 48.5296 29.4328 48.5296C29.4328 48.5296 29.6101 48.7577 29.914 48.9358C29.4578 49.1124 29.1289 49.4163 29.1289 49.4163C29.1289 49.4163 29.4578 49.6952 29.914 49.8976ZM37.9429 52.0257C38.2476 51.8483 38.4242 51.6194 38.4242 51.6194C38.4242 51.6194 37.8929 51.0124 37.2593 51.0124C36.6007 51.0124 36.0945 51.6202 36.0945 51.6202C36.0945 51.6202 36.2718 51.8483 36.5757 52.0257C36.1195 52.2022 35.7906 52.5069 35.7906 52.5069C35.7906 52.5069 36.0945 52.8108 36.5757 52.9882C36.271 53.1647 36.0945 53.3929 36.0945 53.3929C36.0945 53.3929 36.6257 54.0007 37.2593 54.0007C37.9179 54.0007 38.4242 53.3929 38.4242 53.3929C38.4242 53.3929 38.2468 53.1647 37.9429 52.9882C38.3992 52.8108 38.7281 52.5069 38.7281 52.5069C38.7281 52.5069 38.3992 52.1772 37.9429 52.0257ZM36.6257 58.5601C36.9304 58.3827 37.107 58.1554 37.107 58.1554C37.107 58.1554 36.5757 57.5468 35.9429 57.5468C35.2835 57.5468 34.7773 58.1554 34.7773 58.1554C34.7773 58.1554 34.9546 58.3827 35.2585 58.5601C34.8023 58.7374 34.4734 59.0413 34.4734 59.0413C34.4734 59.0413 34.7773 59.346 35.2585 59.5226C34.9539 59.6999 34.7773 59.928 34.7773 59.928C34.7773 59.928 35.3085 60.5358 35.9421 60.5358C36.6007 60.5358 37.107 59.928 37.107 59.928C37.107 59.928 36.9304 59.6999 36.6257 59.5226C36.9124 59.4064 37.1779 59.2438 37.4117 59.0413C37.4117 59.0413 37.082 58.7374 36.6257 58.5601ZM30.5218 57.5976C30.5218 57.5976 30.3445 57.3694 30.0406 57.1929C30.496 57.0155 30.8257 56.7116 30.8257 56.7116C30.8257 56.7116 30.521 56.4069 30.0406 56.2296C30.3445 56.053 30.5218 55.8249 30.5218 55.8249C30.5218 55.8249 29.9898 55.2171 29.3562 55.2171C28.6984 55.2171 28.1921 55.8249 28.1921 55.8249C28.1921 55.8249 28.3687 56.053 28.6726 56.2296C28.2171 56.4069 27.8875 56.7116 27.8875 56.7116C27.8875 56.7116 28.1921 57.0155 28.6726 57.1929C28.3687 57.3694 28.1914 57.5976 28.1914 57.5976C28.1914 57.5976 28.7234 58.2054 29.3562 58.2054C29.9648 58.2311 30.5218 57.5976 30.5218 57.5976ZM32.0921 63.778C32.3968 63.6007 32.5734 63.3726 32.5734 63.3726C32.5734 63.3726 32.0421 62.7647 31.4085 62.7647C30.75 62.7647 30.2429 63.3726 30.2429 63.3726C30.2429 63.3726 30.4203 63.6007 30.7242 63.7788C30.2687 63.9554 29.939 64.2593 29.939 64.2593C29.939 64.2593 30.2437 64.564 30.7242 64.7405C30.4203 64.9179 30.2429 65.146 30.2429 65.146C30.2429 65.146 30.775 65.7538 31.4085 65.7538C32.0671 65.7538 32.5734 65.146 32.5734 65.146C32.5734 65.146 32.396 64.9179 32.0921 64.7405C32.5484 64.5632 32.8773 64.2593 32.8773 64.2593C32.8773 64.2593 32.5734 63.9554 32.0921 63.778Z" fill="#0F2647"/>
</svg>
