<svg width="100" height="100" viewBox="0 0 100 100" fill="none" xmlns="http://www.w3.org/2000/svg">
<g clip-path="url(#clip0_867_19797)">
<g clip-path="url(#clip1_867_19797)">
<path d="M88.2596 32.9218C88.2596 27.0345 86.7177 21.5152 84.0018 16.7318C76.8004 9.32005 61.1359 7.60292 57.2462 16.6967C53.2512 26.0183 63.9569 36.3912 68.6353 35.5675C74.5927 34.5163 67.5839 20.8493 67.5839 20.8493C76.6952 38.0207 74.5927 32.7642 58.1222 48.5337C41.6518 64.3032 24.8309 97.5769 22.3779 98.9787C22.2728 99.0488 22.1677 99.1014 22.0449 99.1539H86.6476C87.7864 99.1539 88.5224 97.9449 88.0143 96.9287L71.1233 63.4972C70.7554 62.7788 71.0182 61.8852 71.719 61.4822C81.6013 55.8052 88.2596 45.1519 88.2596 32.9218Z" fill="url(#paint0_linear_867_19797)"/>
<path d="M88.2596 32.9218C88.2596 27.0345 86.7177 21.5152 84.0018 16.7318C76.8004 9.32005 61.1359 7.60292 57.2462 16.6967C53.2512 26.0183 63.9569 36.3912 68.6353 35.5675C74.5927 34.5163 67.5839 20.8493 67.5839 20.8493C76.6952 38.0207 74.5927 32.7642 58.1222 48.5337C41.6518 64.3032 24.8309 97.5769 22.3779 98.9787C22.2728 99.0488 22.1677 99.1014 22.0449 99.1539H86.6476C87.7864 99.1539 88.5224 97.9449 88.0143 96.9287L71.1233 63.4972C70.7554 62.7788 71.0182 61.8852 71.719 61.4822C81.6013 55.8052 88.2596 45.1519 88.2596 32.9218Z" fill="url(#paint1_linear_867_19797)"/>
<path d="M22.3778 98.9789C24.831 97.5772 41.6518 64.2859 58.1222 48.5164C74.5926 32.7468 76.6952 38.0033 67.584 20.832C67.584 20.832 32.7157 69.7177 20.1001 93.8977" fill="url(#paint2_linear_867_19797)"/>
<path d="M27.284 55.1744C50.8332 11.8783 53.917 7.51535 66.1822 7.51535C72.6302 7.51535 79.1308 10.424 83.336 15.5929C77.6064 6.35892 67.4612 0.173748 55.8444 -0.00146484H15.8424C15.0012 -0.00146484 14.3179 0.681885 14.3179 1.52292V82.1579C16.7009 76.0078 20.7484 67.2119 27.284 55.1744Z" fill="url(#paint3_linear_867_19797)"/>
<path d="M58.1223 48.5162C41.6518 64.2858 24.8309 97.577 22.3779 98.9788C19.9249 100.381 15.8073 100.556 13.617 98.1027C11.2866 95.4919 7.65966 91.2692 27.284 55.1744C50.8331 11.8783 53.917 7.51538 66.1823 7.51538C72.6302 7.51538 79.1308 10.424 83.336 15.5929C83.5638 15.9609 83.7915 16.3463 84.0194 16.7318C76.8179 9.32013 61.1535 7.60299 57.2636 16.6968C53.2686 26.0183 63.9745 36.3912 68.6528 35.5677C74.6101 34.5164 67.6015 20.8494 67.6015 20.8494C76.6953 38.0032 74.5926 32.7467 58.1223 48.5162Z" fill="url(#paint4_linear_867_19797)"/>
<path opacity="0.3" d="M29.2114 57.1019C52.7605 13.8057 55.8444 9.44278 68.1096 9.44278C73.4186 9.44278 78.7628 11.4227 82.8279 14.9972C78.6226 10.1962 72.3849 7.51538 66.1823 7.51538C53.917 7.51538 50.8331 11.8783 27.284 55.1744C7.65966 91.2692 11.2866 95.4919 13.617 98.1027C13.95 98.4707 14.3354 98.786 14.7384 99.0489C12.6884 96.0702 11.7773 89.149 29.2114 57.1019Z" fill="url(#paint5_linear_867_19797)"/>
</g>
</g>
<defs>
<linearGradient id="paint0_linear_867_19797" x1="39.8065" y1="53.2559" x2="66.7901" y2="59.5638" gradientUnits="userSpaceOnUse">
<stop stop-color="#FF6533"/>
<stop offset="0.157" stop-color="#FF5633"/>
<stop offset="0.434" stop-color="#FF4333"/>
<stop offset="0.714" stop-color="#FF3733"/>
<stop offset="1" stop-color="#FF3333"/>
</linearGradient>
<linearGradient id="paint1_linear_867_19797" x1="35.5862" y1="44.3113" x2="83.9463" y2="81.8078" gradientUnits="userSpaceOnUse">
<stop stop-color="#BF3338"/>
<stop offset="1" stop-color="#FF3333"/>
</linearGradient>
<linearGradient id="paint2_linear_867_19797" x1="37.1637" y1="51.6977" x2="44.1725" y2="59.0568" gradientUnits="userSpaceOnUse">
<stop stop-color="#FF6533"/>
<stop offset="0.157" stop-color="#FF5633"/>
<stop offset="0.434" stop-color="#FF4333"/>
<stop offset="0.714" stop-color="#FF3733"/>
<stop offset="1" stop-color="#FF3333"/>
</linearGradient>
<linearGradient id="paint3_linear_867_19797" x1="49.9065" y1="64.3658" x2="47.8039" y2="34.2284" gradientUnits="userSpaceOnUse">
<stop stop-color="#FF6533"/>
<stop offset="0.157" stop-color="#FF5633"/>
<stop offset="0.434" stop-color="#FF4333"/>
<stop offset="0.714" stop-color="#FF3733"/>
<stop offset="1" stop-color="#FF3333"/>
</linearGradient>
<linearGradient id="paint4_linear_867_19797" x1="40.7976" y1="51.181" x2="50.7531" y2="57.9509" gradientUnits="userSpaceOnUse">
<stop stop-color="#FBB040"/>
<stop offset="1" stop-color="#FB8840"/>
</linearGradient>
<linearGradient id="paint5_linear_867_19797" x1="50.9966" y1="12.9047" x2="40.834" y2="124.693" gradientUnits="userSpaceOnUse">
<stop stop-color="white"/>
<stop offset="1" stop-color="white" stop-opacity="0"/>
</linearGradient>
<clipPath id="clip0_867_19797">
<rect width="100" height="100" fill="white"/>
</clipPath>
<clipPath id="clip1_867_19797">
<rect width="100" height="100" fill="white" transform="translate(0 -0.00146484)"/>
</clipPath>
</defs>
</svg>
