<svg width="100" height="100" viewBox="0 0 100 100" fill="none" xmlns="http://www.w3.org/2000/svg">
<path d="M83.8038 20.1335L81.9622 26.7925C81.8647 27.1451 81.4967 27.3488 81.1462 27.2442L50.2547 18.0273C50.0493 17.966 49.8268 18.0094 49.6596 18.1436L19.0657 42.6777C18.9764 42.7493 18.8699 42.7962 18.7567 42.8136L0.553529 45.6189C0.216472 45.6708 -0.0238331 45.9734 0.0018842 46.3135L0.0809804 47.3595C0.106242 47.6936 0.380272 47.9543 0.715203 47.963L21.8589 48.5096L22.1001 48.5163L37.7232 40.1709C37.942 40.054 38.208 40.0712 38.4099 40.2151L49.4783 48.1051C49.6519 48.2288 49.7541 48.4295 49.7522 48.6426L49.6588 59.1118C49.6576 59.2472 49.6986 59.3798 49.7761 59.4909L65.3459 81.8315C65.468 82.0067 65.6681 82.1112 65.8816 82.1112H70.8104C71.3021 82.1112 71.6174 81.5882 71.3878 81.1534L60.2906 60.1307C60.1821 59.9251 60.191 59.6773 60.3141 59.4801L66.1001 50.2113C66.1631 50.1103 66.2524 50.0286 66.3585 49.9747L87.0443 39.4777C87.2545 39.371 87.5058 39.3859 87.702 39.5166L93.6132 43.4567C93.7204 43.5282 93.8464 43.5664 93.9753 43.5664H99.346C99.866 43.5664 100.177 42.988 99.891 42.5539L84.9782 19.948C84.6694 19.48 83.9532 19.5931 83.8038 20.1335Z" fill="black"/>
</svg>
