<svg width="100" height="100" viewBox="0 0 100 100" fill="none" xmlns="http://www.w3.org/2000/svg">
<path d="M26.4647 17.54C26.4647 22.9291 22.2319 27.2963 17.0101 27.2963C11.789 27.2963 7.55615 22.9291 7.55615 17.5393C7.55615 12.1533 11.789 7.78613 17.0101 7.78613C22.2312 7.78613 26.4647 12.1533 26.4647 17.5393V17.54ZM26.4647 50.7822C26.4647 56.1689 22.2319 60.5354 17.0101 60.5354C11.789 60.5354 7.55615 56.1682 7.55615 50.7822C7.55615 45.3963 11.789 41.0291 17.0101 41.0291C22.2312 41.0291 26.4647 45.3963 26.4647 50.7822ZM26.4647 84.0244C26.4647 89.4111 22.2319 93.7783 17.0101 93.7783C11.789 93.7783 7.55615 89.4111 7.55615 84.0252C7.55615 78.6393 11.789 74.2682 17.0101 74.2682C22.2312 74.2682 26.4647 78.6377 26.4647 84.0244ZM59.4546 50.7822C59.4546 56.1689 55.2218 60.5354 49.9999 60.5354C44.778 60.5354 40.5452 56.1682 40.5452 50.7822C40.5452 45.3963 44.778 41.0291 49.9999 41.0291C55.2218 41.0291 59.4546 45.3963 59.4546 50.7822ZM59.4546 17.54C59.4546 22.9291 55.2218 27.2963 49.9999 27.2963C44.778 27.2963 40.5452 22.9291 40.5452 17.5393C40.5452 12.1533 44.778 7.78613 49.9999 7.78613C55.2218 7.78613 59.4546 12.1533 59.4546 17.5393V17.54ZM92.4437 50.7822C92.4437 56.1689 88.2108 60.5354 82.9897 60.5354C77.7687 60.5354 73.5351 56.1682 73.5351 50.7822C73.5351 45.3963 77.771 41.0291 82.9897 41.0291C88.2108 41.0291 92.4437 45.3963 92.4437 50.7822ZM92.4437 17.54C92.4437 22.9291 88.2108 27.2963 82.9897 27.2963C77.7687 27.2963 73.5351 22.9291 73.5351 17.5393C73.5351 12.1533 77.771 7.78613 82.9897 7.78613C88.2108 7.78613 92.4437 12.1533 92.4437 17.5393V17.54ZM92.4437 84.0244C92.4437 89.4111 88.2108 93.7783 82.9897 93.7783C77.7687 93.7783 73.5351 89.4111 73.5351 84.0252C73.5351 78.6393 77.771 74.2682 82.9897 74.2682C88.2108 74.2682 92.4437 78.6377 92.4437 84.0244ZM59.4546 84.0244C59.4546 89.4111 55.2218 93.7783 49.9999 93.7783C44.778 93.7783 40.5452 89.4111 40.5452 84.0252C40.5452 78.6393 44.778 74.2682 49.9999 74.2682C55.2218 74.2682 59.4546 78.6377 59.4546 84.0244Z" fill="#22314E"/>
</svg>
