<svg width="100" height="100" viewBox="0 0 100 100" fill="none" xmlns="http://www.w3.org/2000/svg">
<path d="M44.3523 1.41026C47.8213 -0.504582 52.0555 -0.469488 55.4963 1.51575L88.9721 20.8428C92.4757 22.8642 94.6443 26.6143 94.6443 30.6541V69.3089C94.6443 73.3647 92.489 77.0981 88.9749 79.1184L63.8109 93.6466C63.8659 93.4919 63.9186 93.3361 63.9686 93.1793C64.4356 91.7309 64.6832 90.2007 64.6832 88.6363V49.9814C64.6832 44.6711 61.8586 39.7742 57.2517 37.1251L38.4937 26.2999V11.3266C38.4937 10.1466 38.676 8.99406 39.0212 7.90311C39.8697 5.2624 41.6745 2.97649 44.1438 1.54957L44.1513 1.54507C44.2221 1.5042 44.2893 1.45905 44.3523 1.41026Z" fill="#1868DB"/>
<path d="M35.8334 6.35352L10.6694 20.8817C7.15535 22.902 4.99998 26.6354 4.99998 30.6913V69.346C4.99998 73.3859 7.16798 77.1357 10.6715 79.1569L44.148 98.4844C47.5888 100.469 51.8232 100.505 55.2921 98.5899C55.3548 98.5413 55.4217 98.4962 55.4926 98.4553C57.9644 97.0292 59.7721 94.7425 60.6218 92.1007C60.9679 91.0087 61.1506 89.8548 61.1506 88.6735V73.7002L42.3937 62.8757C37.7874 60.2264 34.9609 55.3284 34.9609 50.0188V11.3638C34.9609 9.80164 35.2079 8.27349 35.6737 6.82688C35.7243 6.66809 35.7775 6.51016 35.8334 6.35352Z" fill="#1868DB"/>
</svg>
