<svg width="100" height="100" viewBox="0 0 100 100" fill="none" xmlns="http://www.w3.org/2000/svg">
<g clip-path="url(#clip0_1085_3952)">
<path d="M36.9498 98.434C24.3639 95.134 14.5404 87.7722 7.23342 76.1613C4.5467 71.8957 4.50061 70.3894 6.96779 67.3785C8.82795 65.1066 8.93498 65.0832 13.2076 66.0707C16.6381 66.8597 17.8951 67.6262 19.1787 69.7035C21.6733 73.7379 29.2514 80.5293 33.8139 82.8168C47.9037 89.8793 65.0701 86.9699 76.1248 75.6465C78.5311 73.1855 80.9865 69.9957 81.5819 68.5558C82.1756 67.1191 82.9358 65.9426 83.2678 65.9426C83.6006 65.9426 84.5701 67.4855 85.4209 69.3699L86.9639 72.7972L91.0358 72.3168C95.7897 71.7519 95.7936 71.8871 91.1178 78.9308C85.0889 88.0129 73.5365 95.9332 62.0912 98.8308C55.3725 100.532 44.2834 100.355 36.9498 98.434Z" fill="#6DE1FA"/>
<path d="M37.5102 63.3508C31.0516 55.5102 25.0008 47.5906 24.0625 45.7453L22.3516 42.3961L29.2797 35.4344L36.2063 28.4688H62.9297L69.9016 35.4797L76.8758 42.4906L74.9969 45.6813C72.7313 49.5266 50.643 77.5016 49.825 77.5617C49.5086 77.5836 43.9664 71.1883 37.5102 63.3508Z" fill="#FE405F"/>
<path d="M86.7994 66.3547C85.165 62.9875 85.0588 62.1219 85.8908 58.825C86.4064 56.775 86.6682 51.7774 86.4767 47.7156C86.1799 41.5578 85.6892 39.4539 83.5096 35.025C78.4189 24.6836 69.9955 17.5235 59.6267 14.7141L54.2353 13.2563L56.4072 10.4086C58.5478 7.60237 58.5557 7.518 57.1596 4.58675C56.3783 2.95159 55.9431 1.41487 56.19 1.16722C57.09 0.266435 66.3947 2.88753 72.3752 5.73128C80.9299 9.79847 90.2189 19.0266 94.4244 27.6367C99.9572 38.9664 101.253 50.5922 98.2822 62.2055C97.3674 65.7914 96.5228 68.8016 96.4103 68.893C96.2971 68.9867 94.5041 69.3071 92.4236 69.6094L88.6478 70.1586L86.7994 66.3547Z" fill="#97F0FF"/>
<path d="M2.61657 66.6234C-0.601397 58.1602 -0.65921 43.5766 2.49157 34.2992C8.9322 15.3281 26.3853 1.67734 45.8205 0.408594L52.0666 0L53.9759 3.43047L55.8885 6.86172L53.5978 10.0492C51.4666 13.0133 50.8869 13.2992 45.1924 14.1844C36.733 15.5016 30.5541 18.6297 24.5252 24.6633C14.3299 34.8578 11.4088 47.1906 15.5588 62.5273C16.0509 64.3477 15.9041 64.4766 13.8884 63.9852L9.7611 62.982C8.24001 62.6125 7.39157 63.1555 5.63532 65.6258L3.42204 68.7398L2.61657 66.6234Z" fill="#40DAF4"/>
</g>
<defs>
<clipPath id="clip0_1085_3952">
<rect width="100" height="100" fill="white"/>
</clipPath>
</defs>
</svg>
