<svg width="100" height="100" viewBox="0 0 100 100" fill="none" xmlns="http://www.w3.org/2000/svg">
<g clip-path="url(#clip0_867_14123)">
<path d="M68.1818 0.000244141H31.8181C14.2455 0.000244141 -3.05176e-05 14.2457 -3.05176e-05 31.8184V68.1821C-3.05176e-05 85.7547 14.2455 100 31.8181 100H68.1818C85.7545 100 100 85.7547 100 68.1821V31.8184C100 14.2457 85.7545 0.000244141 68.1818 0.000244141Z" fill="#FFD6A6"/>
<path d="M0.590848 25.6642C0.20903 27.6551 -6.10352e-05 29.7096 -6.10352e-05 31.8187V68.1823C-6.10352e-05 76.621 3.3522 84.7141 9.31927 90.6812C15.2863 96.6483 23.3794 100.001 31.8181 100.001H68.1817C70.2475 100.003 72.3087 99.8048 74.3363 99.4096C77.7788 92.0544 79.5574 84.0306 79.5454 75.9096C79.5454 45.2823 54.7181 20.4551 24.0908 20.4551C15.6908 20.4551 7.72721 22.3187 0.590848 25.6642Z" fill="#FF8549"/>
<path d="M23.8634 96.8197C35.2856 96.8197 44.5452 87.5601 44.5452 76.1379C44.5452 64.7156 35.2856 55.4561 23.8634 55.4561C12.4411 55.4561 3.18158 64.7156 3.18158 76.1379C3.18158 87.5601 12.4411 96.8197 23.8634 96.8197Z" fill="#FF2900"/>
</g>
<defs>
<clipPath id="clip0_867_14123">
<rect width="100" height="100" fill="white"/>
</clipPath>
</defs>
</svg>
