<svg width="100" height="100" viewBox="0 0 100 100" fill="none" xmlns="http://www.w3.org/2000/svg">
<g clip-path="url(#clip0_1085_3957)">
<path d="M55.7814 30.313C54.6095 29.8443 52.7345 29.5318 50.3907 29.4536C47.1095 29.3755 43.3595 29.7661 43.2032 29.8443V45.4693C53.5939 45.938 55.3126 44.1411 55.3126 44.1411C64.3751 39.5318 58.672 31.4849 55.7814 30.313Z" fill="#75AADB"/>
<path d="M50 0C22.3437 0 0 22.3437 0 50C0 77.6562 22.3437 100 50 100C77.6562 100 100 77.6562 100 50C100 22.3437 77.5781 0 50 0ZM72.3438 70.1562H64.0625L50.3125 49.6094H43.2812V65.625H50.3125V70.1562H32.4219V65.7031L38.3594 65.625L38.2812 29.7656C37.6562 29.6094 32.4219 29.1406 32.4219 29.1406V25C33.2031 25.7812 38.5938 25.9375 38.5938 25.9375C39.8438 26.0156 41.6406 26.0937 42.6562 25.8594C49.9219 24.5312 55.4688 25.5469 55.4688 25.5469C66.4062 28.0469 66.5625 37.8906 63.5156 43.2031C60.7813 47.7344 55.4688 48.8281 55.4688 48.8281L66.7188 65.8594L72.3438 65.7812V70.1562Z" fill="#75AADB"/>
<path d="M32.4962 68.0247V65.895L33.918 65.7849C34.8937 65.7163 35.8712 65.6788 36.8493 65.6724H38.3579V29.6833L37.6251 29.5841C36.6493 29.4685 35.6721 29.3651 34.6938 29.2739L32.4962 29.063V27.1021C32.4962 25.2802 32.5172 25.1528 32.8008 25.3052C34.0376 25.9669 41.1602 26.1411 45.168 25.6083C48.4508 25.1724 54.1485 25.2763 56.1329 25.8091C60.4165 26.9591 63.2501 29.4388 64.5891 33.2099C65.1493 34.7864 65.2274 37.7778 64.7579 39.6349C64.0524 42.4255 62.8907 44.3599 60.9571 45.9638C59.7993 46.9247 57.1704 48.331 56.1563 48.5341C55.8461 48.5958 55.5532 48.7091 55.5063 48.7849C55.4594 48.8614 57.9462 52.7474 61.0337 57.4208L66.6462 65.9177L69.4844 65.8646L72.3235 65.8114V70.1552L68.2282 70.1489L64.1344 70.1435L57.2438 59.8044L50.3555 49.4653H43.1852V65.6716H50.2547V70.1552H32.4962V68.0247ZM52.1508 45.2419C54.8665 44.8122 57.8266 43.0747 59.161 41.1302C61.1227 38.2685 60.3618 34.1067 57.3688 31.3278C56.3087 30.3435 55.6462 30.0544 53.6235 29.6872C51.9641 29.3856 46.8579 29.3325 44.4782 29.5919L43.2719 29.7231L43.2266 37.6005L43.1821 45.4771L43.7446 45.5599C44.8118 45.7161 50.518 45.5013 52.1508 45.2419Z" fill="white" stroke="white" stroke-width="0.615625"/>
</g>
<defs>
<clipPath id="clip0_1085_3957">
<rect width="100" height="100" fill="white"/>
</clipPath>
</defs>
</svg>
