<svg width="100" height="100" viewBox="0 0 100 100" fill="none" xmlns="http://www.w3.org/2000/svg">
<g clip-path="url(#clip0_1085_3980)">
<path d="M93.6288 4.79633e-08H40.5554C39.3101 0.000383006 38.0923 0.365897 37.0527 1.0513C36.013 1.73671 35.1972 2.71193 34.7061 3.85625L9.60145 62.4336C9.26296 63.2261 9.08785 64.0788 9.08661 64.9406V93.6336C9.08661 94.4693 9.25123 95.2968 9.57106 96.0689C9.89089 96.841 10.3597 97.5425 10.9506 98.1334C11.5416 98.7243 12.2432 99.193 13.0153 99.5127C13.7874 99.8325 14.615 99.997 15.4507 99.9969H43.521C44.7788 99.9969 46.0077 99.6242 47.0538 98.9258L97.1593 65.4844C98.0305 64.9034 98.7448 64.1163 99.2387 63.193C99.7326 62.2696 99.9909 61.2386 99.9905 60.1914L99.9929 6.36328C99.9929 5.52758 99.8283 4.70006 99.5084 3.92798C99.1886 3.1559 98.7198 2.45438 98.1288 1.86349C97.5379 1.27259 96.8363 0.803891 96.0642 0.484152C95.2921 0.164413 94.4645 -0.000102555 93.6288 4.79633e-08Z" fill="url(#paint0_linear_1085_3980)"/>
<path d="M22.6814 9.09424H6.3587C4.67106 9.09424 3.05253 9.76465 1.85918 10.958C0.665838 12.1513 -0.00457764 13.7699 -0.00457764 15.4575V35.9146C-0.00457764 36.2156 0.0167765 36.5156 0.0594849 36.8146L8.30402 94.5372C8.52067 96.0537 9.2771 97.441 10.4344 98.4446C11.5917 99.4482 13.0722 100.001 14.604 100H39.0923C42.6079 100 45.4571 97.1505 45.4556 93.6349L45.4485 64.67C45.4485 63.9864 45.3392 63.3075 45.122 62.6591L28.7189 13.445C28.296 12.1784 27.4855 11.0768 26.4022 10.296C25.3189 9.51522 24.0175 9.09482 22.6821 9.09424H22.6814Z" fill="url(#paint1_linear_1085_3980)"/>
<path d="M24.9126 9.09424L6.35792 9.09736C4.67047 9.09778 3.05227 9.76835 1.85914 10.9616C0.666004 12.1549 -0.00437054 13.7732 -0.00457764 15.4606V33.438C-0.00444435 34.356 0.194184 35.2631 0.57769 36.0971C0.961197 36.9311 1.52051 37.6724 2.2173 38.27L61.8423 89.3771C62.9956 90.3652 64.4642 90.9086 65.9829 90.9091H84.5376C85.3733 90.9092 86.2009 90.7447 86.973 90.4249C87.7451 90.1052 88.4467 89.6365 89.0376 89.0456C89.6286 88.4547 90.0974 87.7532 90.4172 86.9811C90.7371 86.209 90.9017 85.3815 90.9017 84.5458V66.5653C90.9015 65.6474 90.7029 64.7403 90.3194 63.9062C89.9359 63.0722 89.3766 62.3309 88.6798 61.7333L29.0548 10.6271C27.9013 9.63822 26.4319 9.09503 24.9126 9.0958V9.09424Z" fill="#FF8100"/>
<path d="M81.2423 18.75H18.7454V81.2477H81.2439L81.2423 18.75Z" fill="black"/>
<path fill-rule="evenodd" clip-rule="evenodd" d="M65.4546 26.5613L60.8014 41.9449L60.4499 43.9535L60.0475 41.9449L55.2272 26.5605H48.8655V49.9973H53.3686V33.2746L53.3014 32.1699L58.6921 49.998H62.0061L67.4632 32.0527L67.3967 33.2746V49.998H71.9171V26.5605L65.4546 26.5613ZM41.035 40.2387C42.3074 39.6251 43.284 38.7658 43.9647 37.6605C44.6564 36.5444 45.0022 35.2605 45.0022 33.809C45.0022 32.3582 44.6616 31.1035 43.9811 30.0098C43.3113 28.916 42.3514 28.0678 41.1014 27.4652C39.8514 26.8626 38.4061 26.5613 36.7655 26.5613H26.7046V49.9973H31.2749V41.1402H35.2124L40.2647 49.9965H45.5046L39.9186 40.6066C40.0311 40.5717 40.1441 40.5384 40.2577 40.5066C40.5257 40.4293 40.7936 40.3535 41.035 40.2387ZM31.2764 30.3613H36.4655C37.2358 30.3613 37.9056 30.5064 38.4749 30.7965C39.0322 31.054 39.4986 31.474 39.8132 32.0012C40.1257 32.5142 40.2819 33.128 40.2819 33.8426C40.2819 34.5566 40.1264 35.1652 39.8132 35.7004C39.5014 36.2262 39.0553 36.6316 38.4749 36.923C37.9051 37.2017 37.2353 37.3413 36.4655 37.3418H31.2764V30.3613ZM26.5468 68.7473H51.5468V73.4348H26.5468V68.7473Z" fill="white"/>
</g>
<defs>
<linearGradient id="paint0_linear_1085_3980" x1="6.59341" y1="93.7764" x2="98.3152" y2="2.05149" gradientUnits="userSpaceOnUse">
<stop offset="0.29" stop-color="#FF2358"/>
<stop offset="0.75" stop-color="#7256FF"/>
</linearGradient>
<linearGradient id="paint1_linear_1085_3980" x1="-1.12485" y1="11.9126" x2="37.7222" y2="95.6987" gradientUnits="userSpaceOnUse">
<stop offset="0.29" stop-color="#FF8100"/>
<stop offset="0.56" stop-color="#FF2358"/>
</linearGradient>
<clipPath id="clip0_1085_3980">
<rect width="100" height="100" fill="white"/>
</clipPath>
</defs>
</svg>
