<svg width="100" height="100" viewBox="0 0 100 100" fill="none" xmlns="http://www.w3.org/2000/svg">
<path d="M63.0291 90.9346C63.4166 92.1804 64.4416 93.2387 64.4666 94.6679C64.5583 95.1137 64.2541 96.4054 63.7666 95.5429C62.7291 92.0762 62.3916 95.3971 59.3291 90.6096C58.6708 89.3054 57.5416 90.3804 56.5666 90.4429C53.675 89.4929 54.525 89.2221 52.7958 91.6929C51.4833 92.0596 52.5916 89.0137 53.2166 88.6762C54.425 87.6429 56.3375 88.3179 57.0375 87.1929C58.2125 82.4304 54.3708 76.4971 52.2125 72.4012C51.5083 71.3012 52.2666 69.9971 52.1083 68.8096C51.4833 67.1096 51.325 67.5512 51.9041 65.7512C50.9583 63.7804 48.3083 66.8596 46.8208 66.8137C45.6333 66.8304 44.6416 64.9388 43.1 64.8138C37.5375 64.8304 32.3458 68.1804 26.7416 67.6096C25.7279 67.6205 24.7403 67.9323 23.9041 68.5054C22.1791 69.4304 20.1166 69.3512 18.5375 70.6804C18.0416 71.0762 17.4125 71.1137 16.8125 71.0887C15.6875 71.2554 14.825 72.6304 13.5458 72.5054C12.2458 72.0512 11.1875 72.8346 9.96247 72.7429C8.5458 71.5554 6.7083 72.5054 5.0708 72.7762C4.85969 72.8695 4.62604 72.8995 4.39822 72.8625C4.1704 72.8255 3.95823 72.7232 3.78747 72.5679C3.41247 72.2679 2.68747 72.2262 2.43747 71.8304C2.31247 71.5846 2.55413 71.2262 2.85413 70.9804C5.04997 69.2929 7.59163 68.2054 10.0208 66.9221C14.7958 64.4471 18.8458 60.8262 23.1875 57.6804C23.4625 57.4721 23.5416 57.1804 23.0416 57.1846C16.325 57.7471 9.9333 61.5512 3.29163 61.4012C2.5583 61.4971 1.87913 61.9304 1.11663 62.0262C-2.53337 61.2554 3.82497 57.1929 5.09163 56.7721C12.1916 53.8096 20.0833 53.2596 26.6916 49.1221C27.475 48.5721 25.9833 48.0054 26.675 46.9137C28.3 41.5387 33.2416 39.3929 38.0708 37.8137C40.5458 36.8512 42.8083 35.0137 45.5583 34.9846C46.9125 35.0512 48.2 34.5137 49.1083 33.4846C53.9541 29.0221 59.2833 25.1012 64.4166 20.9887C70.3041 13.5596 73.925 -0.573758 86.15 5.75541C89.9833 7.40124 94.375 7.27624 97.8458 9.82208C99.0833 10.6096 101.417 13.0096 98.8291 13.3637C91.7375 14.5762 88.1958 12.4054 87.8708 19.4221C87.7458 21.0471 88.1375 22.5471 87.2125 23.9471C87.1541 26.8387 88.6791 30.2304 86.8625 32.8179C85.3458 35.4429 86.5375 38.7054 85.2791 41.3471C84.3625 43.5721 82.5708 45.2221 80.9083 46.8596C75.475 53.6512 71.4666 61.3429 70.1208 70.0762C69.6125 72.6888 68.1291 76.5762 70.525 78.6429C73.0541 81.1929 75.7333 84.7179 79.6083 82.8596C80.8833 82.2762 83.2916 82.0721 83.1083 84.0012C82.9 84.3471 82.0333 83.5929 81.5625 83.7679C80.8958 84.1929 81.8625 85.0846 81.6833 85.7054C81.5916 86.2887 81.125 86.2054 80.725 85.9304C79.5541 85.4637 77.8708 85.9388 76.5375 85.8887C75.4625 86.0762 74.4041 86.5637 73.3625 86.0971C72.8791 85.8929 72.4083 85.6804 71.8791 85.6679C70.2541 85.5762 68.1958 86.4262 67.2833 85.0554C66.275 83.1637 66.0625 84.6221 65.0666 85.2554C64.0875 85.1929 64.7875 83.7971 65.125 83.3387C66.1625 80.9637 72.8166 85.4929 70.0541 81.5387C60.5125 73.1637 66.8166 70.3471 63.1958 70.3304C62.4875 69.9596 62.7666 68.6429 61.6708 69.6096C60.275 71.0679 59.7541 69.2012 59.7541 67.9429C59.5875 67.2137 59.0166 66.6929 59.2333 65.9471C59.325 64.3221 57.1666 66.3012 57.65 67.6554C57.8875 70.2221 57.1 72.7596 57.225 75.2929C58.225 80.6096 58.9333 87.3637 64.9916 88.9429C65.7291 89.2596 66.9208 90.7429 66.0458 91.2971C65.6583 91.2554 65.3791 90.8387 65.0333 90.6596C64.55 90.3346 63.9625 90.6971 63.4583 90.7346C63.3166 90.7679 63.0916 90.7637 63.0416 90.9262L63.0291 90.9346Z" fill="url(#paint0_linear_867_14117)"/>
<defs>
<linearGradient id="paint0_linear_867_14117" x1="9999.94" y1="4944.33" x2="0" y2="4944.33" gradientUnits="userSpaceOnUse">
<stop stop-color="#1D1A5C"/>
<stop offset="0.49586" stop-color="#3431C3"/>
<stop offset="1" stop-color="#7361F7"/>
</linearGradient>
</defs>
</svg>
