<svg width="100" height="100" viewBox="0 0 100 100" fill="none" xmlns="http://www.w3.org/2000/svg">
<g clip-path="url(#clip0_1085_3988)">
<path d="M5.76165 63.2307C3.71087 56.8432 3.1218 50.0987 4.30305 43.1596C4.81555 40.2815 5.60618 37.5198 6.47259 34.7213C6.47259 34.7213 11.914 16.8596 30.3281 8.69632C30.3281 8.69632 36.6757 5.34475 46.2187 5.11038C46.2187 5.11038 44.9187 3.8471 44.089 3.29475C39.5937 0.29788 32.8921 -0.688058 28.8304 3.53304C27.6062 4.79319 26.5804 6.17522 25.4398 7.43616C24.1366 8.85491 22.5585 10.0393 20.746 10.7073C19.1679 11.2994 17.5898 11.1807 15.9757 11.458C14.3195 11.733 12.6218 12.3252 11.2827 13.3901C9.82337 14.5744 9.23196 16.1487 9.07571 17.9643C8.91712 19.3838 8.95696 20.8424 8.87727 22.2612C8.67962 26.4424 7.33977 27.6237 4.3429 29.9518C3.08196 30.8979 2.01712 32.158 1.22649 33.501C-1.13835 37.6791 2.64837 42.0151 2.84368 46.2362C2.8843 47.1033 2.80462 47.9698 2.49055 48.7994C2.17259 49.7057 1.54446 50.2979 1.03118 51.0455C0.320242 52.0323 -0.152414 53.2158 0.0468048 54.4362C0.242117 55.6604 0.873367 56.8041 1.46555 57.8698C2.61009 59.7619 4.02884 61.4557 5.52805 63.0729C5.60618 63.0729 5.68352 63.1518 5.76243 63.2315" fill="#E32186"/>
<path d="M80.9999 78.3672C90.0695 74.4242 93.9335 67.6039 93.9335 67.6039C102.412 56.05 99.5335 43.8672 99.5335 43.8672C94.132 55.6164 89.1999 58.8515 89.1999 58.8515C102.491 38.6211 89.2796 26.3992 89.2796 26.3992C94.6812 37.9133 87.5062 51.9484 87.5062 51.9484C81.4726 64.6469 72.9155 69.182 72.9155 69.182C82.4585 70.9554 89.478 64.5281 89.478 64.5281C75.7929 79.314 60.9679 78.6062 60.9679 78.6062C67.1999 85.5859 76.5444 84.9937 76.5444 84.9937C64.3218 87.8711 52.8476 83.8093 43.4234 75.9625C41.6386 74.4989 39.9527 72.9189 38.3765 71.2328C38.3765 71.2328 36.9569 69.7343 36.6788 69.3406L36.6398 69.3015C36.4444 76.5945 44.0523 83.3758 44.0523 83.3758C34.5093 79.4336 30.1335 70.8758 30.1335 70.8758C30.1335 70.8758 23.7062 59.9148 28.3601 47.4172C33.0108 34.9172 47.089 32.2343 47.089 32.2343C58.7226 37.875 68.5796 39.6476 68.5796 39.6476C89.3593 43.1172 88.178 32.9461 88.178 32.9461C88.3734 24.1906 75.1655 14.8859 75.1655 14.8859C51.6241 -2.58284 30.3319 8.69372 30.3319 8.69372C11.9179 16.857 6.47648 34.7187 6.47648 34.7187C5.60929 37.5172 4.82023 40.2789 4.30694 43.1562C2.29601 54.8695 5.33194 65.9476 11.9179 75.8078C22.1687 91.1062 38.8101 96.389 38.8101 96.389C63.453 104.748 80.2898 92.4461 80.2898 92.4461C95.7866 81.7976 98.9023 69.4968 98.9023 69.4968C86.4023 79.2781 81.0007 78.3679 81.0007 78.3679L80.9999 78.3672ZM61.7585 20.8383C62.0384 20.8372 62.3158 20.8916 62.5746 20.9984C62.8333 21.1051 63.0684 21.2621 63.2662 21.4601C63.464 21.6582 63.6206 21.8935 63.7269 22.1524C63.8333 22.4114 63.8873 22.6888 63.8859 22.9687C63.8871 23.2484 63.8329 23.5256 63.7264 23.7842C63.6199 24.0428 63.4633 24.2777 63.2655 24.4755C63.0677 24.6732 62.8327 24.8298 62.574 24.9362C62.3154 25.0425 62.0382 25.0966 61.7585 25.0953C61.4787 25.0967 61.2013 25.0427 60.9424 24.9364C60.6835 24.8301 60.4483 24.6736 60.2502 24.4759C60.0521 24.2782 59.8952 24.0432 59.7884 23.7845C59.6816 23.5258 59.6271 23.2486 59.628 22.9687C59.6267 22.6886 59.6809 22.4109 59.7875 22.1518C59.8941 21.8927 60.0509 21.6574 60.249 21.4593C60.4471 21.2612 60.6825 21.1043 60.9416 20.9977C61.2007 20.8911 61.4784 20.8369 61.7585 20.8383Z" fill="url(#paint0_linear_1085_3988)"/>
<path d="M88.1327 32.9073C88.3281 24.1518 75.1202 14.8471 75.1202 14.8471C51.5788 -2.58181 30.2867 8.69476 30.2867 8.69476C11.8726 16.858 6.43119 34.7198 6.43119 34.7198C5.36635 37.7565 4.42026 42.4104 4.42026 42.4104C3.27572 48.2455 3.78822 53.6471 3.78822 53.6471C4.26166 58.8135 5.40541 62.2838 5.40541 62.2838C6.58979 65.9885 7.13979 67.133 7.13979 67.133C7.10229 67.0135 6.90463 66.1471 6.90463 66.1471C6.90463 66.1471 5.24682 58.1823 6.7851 50.5315C6.7851 50.5315 8.12494 42.5666 13.5695 36.4174C13.5695 36.4174 22.4015 23.8377 38.8445 28.7666C38.8445 28.7666 42.3937 30.0299 43.614 30.6588C44.8382 31.251 46.9656 32.1573 46.9656 32.1573C58.5984 37.7971 68.4554 39.5698 68.4554 39.5698C89.3148 43.0791 88.1335 32.908 88.1335 32.908L88.1327 32.9073ZM61.7531 25.1377C61.4731 25.1392 61.1957 25.0852 60.9368 24.9788C60.6779 24.8724 60.4426 24.7158 60.2445 24.5181C60.0464 24.3203 59.8895 24.0852 59.7827 23.8264C59.676 23.5677 59.6216 23.2903 59.6226 23.0104C59.6213 22.7302 59.6754 22.4526 59.782 22.1935C59.8886 21.9344 60.0455 21.699 60.2436 21.5009C60.4417 21.3028 60.6771 21.1459 60.9362 21.0393C61.1953 20.9328 61.4729 20.8786 61.7531 20.8799C62.033 20.8789 62.3103 20.9333 62.5691 21.04C62.8279 21.1468 63.0629 21.3037 63.2607 21.5018C63.4585 21.6999 63.6151 21.9352 63.7215 22.1941C63.8278 22.453 63.8819 22.7305 63.8804 23.0104C63.8817 23.2901 63.8276 23.5674 63.7212 23.8261C63.6148 24.0848 63.4581 24.3198 63.2603 24.5176C63.0625 24.7155 62.8275 24.8721 62.5687 24.9785C62.31 25.085 62.0328 25.1391 61.7531 25.1377Z" fill="url(#paint1_radial_1085_3988)"/>
<path d="M48.2695 17.0563L34.8234 12.8751C34.7437 12.8751 34.3507 12.6766 33.639 12.8751C33.639 12.8751 25.7132 14.8868 27.0937 19.2227C27.0937 19.2227 27.9234 21.9454 30.1695 24.5852L44.9554 23.8766L48.2695 17.0563Z" fill="url(#paint2_linear_1085_3988)"/>
</g>
<defs>
<linearGradient id="paint0_linear_1085_3988" x1="15.1847" y1="91.7774" x2="64.2506" y2="39.5783" gradientUnits="userSpaceOnUse">
<stop stop-color="#DF1C84"/>
<stop offset="0.401" stop-color="#DE1C85"/>
<stop offset="0.77" stop-color="#932C86"/>
<stop offset="1" stop-color="#5C2F87"/>
</linearGradient>
<radialGradient id="paint1_radial_1085_3988" cx="0" cy="0" r="1" gradientTransform="matrix(47.9405 0.113981 -0.0949844 40.0872 69.1919 25.7308)" gradientUnits="userSpaceOnUse">
<stop stop-color="#DF1C84"/>
<stop offset="0.139" stop-color="#DE1E85"/>
<stop offset="0.285" stop-color="#D62085"/>
<stop offset="0.434" stop-color="#C82286"/>
<stop offset="0.586" stop-color="#B72786"/>
<stop offset="0.739" stop-color="#9C2A86"/>
<stop offset="0.891" stop-color="#7C2E87"/>
<stop offset="1" stop-color="#5C2F87"/>
</radialGradient>
<linearGradient id="paint2_linear_1085_3988" x1="26.9021" y1="18.6862" x2="48.2573" y2="18.6862" gradientUnits="userSpaceOnUse">
<stop stop-color="#DF1C84"/>
<stop offset="0.238" stop-color="#D91E85"/>
<stop offset="0.658" stop-color="#C72085"/>
<stop offset="0.999" stop-color="#B42184"/>
</linearGradient>
<clipPath id="clip0_1085_3988">
<rect width="100" height="100" fill="white"/>
</clipPath>
</defs>
</svg>
