<svg width="100" height="100" viewBox="0 0 100 100" fill="none" xmlns="http://www.w3.org/2000/svg">
<g clip-path="url(#clip0_867_19957)">
<path d="M50 100C77.6142 100 100 77.6142 100 50C100 22.3858 77.6142 0 50 0C22.3858 0 0 22.3858 0 50C0 77.6142 22.3858 100 50 100Z" fill="url(#paint0_linear_867_19957)"/>
<path d="M49.5997 4.87891V12.2389H50.3997V4.87891H49.5997ZM46.4781 5.08691L45.6813 5.15091L46.0013 9.15091L46.7981 9.08691L46.4781 5.08691ZM53.5213 5.08691L53.2013 9.08691L53.9981 9.15091L54.3181 5.15091L53.5213 5.08691ZM42.5541 5.53011L41.7653 5.66771L43.0453 12.9485L43.8341 12.8101L42.5541 5.53011ZM57.4453 5.53011L56.1653 12.8101L56.9541 12.9493L58.2341 5.66771L57.4453 5.53011ZM38.7061 6.37491L37.9341 6.58371L38.9733 10.4245L39.7453 10.2157L38.7061 6.37491ZM61.2933 6.37491L60.2541 10.2149L61.0261 10.4245L62.0653 6.58451L61.2933 6.37491ZM35.0165 7.46531L34.2621 7.73411L36.7437 14.6941L37.4965 14.4245L35.0165 7.46531ZM64.9829 7.46531L62.5029 14.4253L63.2557 14.6933L65.7373 7.73411L64.9829 7.46531ZM68.6789 8.94691L66.9189 12.6277L67.6405 12.9717L69.4013 9.29171L68.6789 8.94691ZM31.3229 8.95251L30.5965 9.28531L32.2765 12.9653L33.0029 12.6341L31.3229 8.95251ZM27.8669 10.7605L27.1733 11.1589L30.8533 17.5589L31.5469 17.1605L27.8669 10.7605ZM72.1325 10.7605L68.4525 17.1605L69.1469 17.5589L72.8269 11.1589L72.1325 10.7605ZM24.4853 12.8085L23.8325 13.2701L26.1525 16.5509L26.8061 16.0885L24.4853 12.8085ZM75.5141 12.8085L73.1941 16.0885L73.8469 16.5509L76.1669 13.2701L75.5141 12.8085ZM21.4261 15.1829L20.8141 15.6981L25.5341 21.2981L26.1453 20.7829L21.4261 15.1829ZM78.5733 15.1829L73.8541 20.7829L74.4653 21.2981L79.1853 15.6981L78.5733 15.1829ZM18.4389 17.7933L17.8813 18.3669L20.7613 21.1669L21.3181 20.5933L18.4389 17.7933ZM15.7749 20.6525L15.2637 21.2669L20.9437 25.9869L21.4557 25.3709L15.7749 20.6525ZM84.2245 20.6525L78.5437 25.3717L79.0557 25.9877L84.7357 21.2669L84.2245 20.6525ZM13.3469 23.7509L12.8917 24.4093L16.2525 26.7293L16.7077 26.0701L13.3469 23.7509ZM86.6525 23.7509L83.2925 26.0701L83.7469 26.7293L87.1069 24.4093L86.6525 23.7509ZM11.2397 27.0925L10.8413 27.7861L17.2413 31.4661L17.6397 30.7725L11.2397 27.0925ZM88.7613 27.0925L82.3613 30.7725L82.7597 31.4661L89.1597 27.7861L88.7613 27.0925ZM9.44933 30.5165L9.11173 31.2413L12.7117 32.9213L13.0493 32.1957L9.44933 30.5165ZM90.5517 30.5165L86.9517 32.1965L87.2893 32.9205L90.8893 31.2405L90.5517 30.5165ZM7.89973 34.1029L7.61973 34.8525L14.4997 37.4141L14.7797 36.6637L7.89973 34.1029ZM92.0997 34.1029L85.2197 36.6637L85.4997 37.4141L92.3797 34.8525L92.0997 34.1029ZM6.66213 37.8517L6.45733 38.6253L10.3773 39.6661L10.5829 38.8925L6.66213 37.8517ZM93.3373 37.8517L89.4173 38.8925L89.6213 39.6661L93.5413 38.6261L93.3373 37.8517ZM5.75013 41.6845L5.61093 42.4725L12.8909 43.7533L13.0293 42.9645L5.75013 41.6845ZM94.2493 41.6845L86.9693 42.9645L87.1093 43.7533L94.3893 42.4725L94.2493 41.6845ZM5.23973 45.5205L5.16133 46.3173L9.16133 46.7173L9.23973 45.9205L5.23973 45.5205ZM94.7613 45.5205L90.7613 45.9205L90.8397 46.7173L94.8397 46.3173L94.7613 45.5205ZM5.04053 49.5189V50.3189H12.3997V49.5189H5.04053ZM87.5997 49.5189V50.3189H94.9597V49.5189H87.5997ZM9.16053 53.0413L5.16053 53.4413L5.23893 54.2365L9.23893 53.8365L9.16053 53.0413ZM90.8389 53.0413L90.7605 53.8365L94.7605 54.2365L94.8389 53.4413L90.8389 53.0413ZM12.8901 56.0053L5.61013 57.2853L5.75013 58.0725L13.0301 56.7925L12.8901 56.0053ZM87.1093 56.0053L86.9701 56.7925L94.2501 58.0725L94.3885 57.2845L87.1093 56.0053ZM10.3781 60.0933L6.45813 61.1317L6.66213 61.9053L10.5821 60.8661L10.3781 60.0933ZM89.6213 60.0933L89.4165 60.8661L93.3365 61.9053L93.5421 61.1317L89.6213 60.0933ZM14.4997 62.3445L7.61973 64.9037L7.89973 65.6533L14.7797 63.0941L14.4997 62.3445ZM85.4997 62.3445L85.2197 63.0941L92.0997 65.6541L92.3797 64.9037L85.4997 62.3445ZM12.7109 66.8365L9.11093 68.5165L9.44853 69.2413L13.0485 67.5613L12.7109 66.8365ZM87.2885 66.8365L86.9509 67.5613L90.5509 69.2413L90.8885 68.5157L87.2885 66.8365ZM17.2405 68.3725L10.8405 72.0525L11.2389 72.7461L17.6389 69.0661L17.2405 68.3725ZM82.7589 68.3725L82.3605 69.0661L88.7605 72.7461L89.1589 72.0517L82.7589 68.3725ZM16.2525 73.0301L12.8925 75.3501L13.3469 76.0085L16.7069 73.6885L16.2525 73.0301ZM83.7469 73.0301L83.2917 73.6877L86.6525 76.0077L87.1077 75.3501L83.7469 73.0301ZM20.9437 73.7709L15.2637 78.4909L15.7749 79.1069L21.4557 74.3869L20.9437 73.7709ZM79.0557 73.7709L78.5437 74.3869L84.2245 79.1069L84.7357 78.4909L79.0557 73.7709ZM25.5341 78.4613L20.8141 84.0613L21.4261 84.5773L26.1453 78.9773L25.5341 78.4613ZM74.4653 78.4613L73.8541 78.9773L78.5733 84.5773L79.1853 84.0613L74.4653 78.4613ZM79.2389 78.5925L78.6813 79.1661L81.5613 81.9661L82.1181 81.3925L79.2389 78.5925ZM30.8549 82.2773L27.1749 88.5973L27.8653 89.0005L31.5453 82.6805L30.8549 82.2773ZM69.1453 82.2773L68.4541 82.6805L72.1341 89.0005L72.8245 88.5973L69.1453 82.2773ZM26.1533 83.2085L23.8325 86.4885L24.4853 86.9501L26.8053 83.6693L26.1533 83.2085ZM73.8469 83.2085L73.1933 83.6693L75.5133 86.9501L76.1669 86.4877L73.8469 83.2085ZM36.7429 85.0645L34.2629 92.0245L35.0165 92.2925L37.4965 85.3333L36.7429 85.0645ZM63.2557 85.0645L62.5029 85.3333L64.9829 92.2933L65.7373 92.0237L63.2557 85.0645ZM43.0453 86.8101L41.7653 94.0901L42.5541 94.2285L43.8341 86.9485L43.0453 86.8101ZM56.9541 86.8101L56.1653 86.9493L57.4453 94.2293L58.2341 94.0893L56.9541 86.8101ZM32.3605 86.8629L30.5997 90.4629L31.3181 90.8149L33.0797 87.2149L32.3605 86.8629ZM67.6389 86.8629L66.9197 87.2149L68.6813 90.8149L69.3997 90.4629L67.6389 86.8629ZM49.5997 87.5189V94.8789H50.3997V87.5189H49.5997ZM38.9733 89.3365L37.9325 93.2565L38.7061 93.4613L39.7461 89.5413L38.9733 89.3365ZM61.0261 89.3365L60.2525 89.5413L61.2933 93.4613L62.0669 93.2565L61.0261 89.3365ZM46.0013 90.6861L45.6813 94.6861L46.4781 94.7501L46.7981 90.7501L46.0013 90.6861ZM53.9981 90.6861L53.2013 90.7501L53.5213 94.7501L54.3181 94.6861L53.9981 90.6861Z" fill="white"/>
<path d="M84.16 15.6001L45.76 45.7601L49.92 49.9201L84.16 15.6001Z" fill="#FF0000"/>
<path d="M49.9198 49.9201L54.7198 54.7201L84.1598 15.6001L49.9198 49.9201Z" fill="#D01414"/>
<path d="M45.76 45.7605L15.6 84.1605L49.92 49.9205L45.76 45.7605Z" fill="white"/>
<path d="M15.6 84.1609L54.72 54.7209L49.92 49.9209L15.6 84.1609Z" fill="#ACACAC"/>
</g>
<defs>
<linearGradient id="paint0_linear_867_19957" x1="50.016" y1="0.0096" x2="50.016" y2="100.003" gradientUnits="userSpaceOnUse">
<stop stop-color="#19D7FF"/>
<stop offset="1" stop-color="#1E64F0"/>
</linearGradient>
<clipPath id="clip0_867_19957">
<rect width="100" height="100" fill="white"/>
</clipPath>
</defs>
</svg>
