<svg width="100" height="100" viewBox="0 0 100 100" fill="none" xmlns="http://www.w3.org/2000/svg">
<path d="M41.4139 24.5635C44.5233 21.3291 48.8436 19.3213 53.6327 19.3213C59.9921 19.3213 65.5389 22.8682 68.4921 28.1338C71.1343 26.9526 73.9963 26.3429 76.8905 26.3447C88.3593 26.3447 97.6561 35.7276 97.6561 47.2901C97.6561 58.8604 88.3593 68.2432 76.8905 68.2432C75.4921 68.2432 74.1249 68.1026 72.7968 67.8369C70.1952 72.4776 65.2343 75.6104 59.5468 75.6104C57.1639 75.6104 54.9139 75.0635 52.9061 74.0791C50.2655 80.2822 44.1249 84.6338 36.9608 84.6338C29.4999 84.6338 23.1483 79.9151 20.7108 73.2979C19.6483 73.5244 18.5389 73.6416 17.4061 73.6416C8.52332 73.6416 1.328 66.3682 1.328 57.3994C1.328 51.3838 4.56238 46.1338 9.36707 43.3291C8.34668 40.9853 7.82266 38.4557 7.828 35.8994C7.828 25.5791 16.203 17.2119 26.5389 17.2119C32.6014 17.2041 37.9999 20.0947 41.4139 24.5635Z" fill="#00A1E0"/>
<path d="M15.2813 52.1711C15.2188 52.3274 15.3047 52.3586 15.3203 52.3899C15.5 52.5227 15.6875 52.6165 15.8672 52.7258C16.8516 53.2493 17.7735 53.3977 18.75 53.3977C20.7266 53.3977 21.9532 52.343 21.9532 50.6555V50.6243C21.9532 49.0618 20.5703 48.4915 19.2657 48.0852L19.0938 48.0305C18.1172 47.7102 17.2657 47.4368 17.2657 46.7961V46.7649C17.2657 46.2102 17.7578 45.804 18.5235 45.804C19.375 45.804 20.3828 46.0852 21.0313 46.4446C21.0313 46.4446 21.2188 46.5696 21.2891 46.3821C21.3282 46.2805 21.6563 45.3977 21.6875 45.304C21.7266 45.2024 21.6563 45.1243 21.5938 45.0852C20.8516 44.6321 19.8282 44.3274 18.7657 44.3274H18.5703C16.7657 44.3274 15.5 45.4211 15.5 46.9836V47.0149C15.5 48.6633 16.8907 49.2024 18.1953 49.5774L18.4063 49.6399C19.3594 49.929 20.1797 50.1868 20.1797 50.8508V50.8821C20.1797 51.4915 19.6485 51.9524 18.7891 51.9524C18.4532 51.9524 17.3907 51.9446 16.2422 51.218C16.1016 51.1399 16.0235 51.0774 15.9141 51.0149C15.8594 50.9758 15.7188 50.9211 15.6563 51.1008L15.2813 52.1711ZM44.211 52.1711C44.1485 52.3274 44.2344 52.3586 44.25 52.3899C44.4297 52.5227 44.6172 52.6165 44.7969 52.7258C45.7813 53.2493 46.7032 53.3977 47.6797 53.3977C49.6563 53.3977 50.8828 52.343 50.8828 50.6555V50.6243C50.8828 49.0618 49.5 48.4915 48.1953 48.0852L48.0235 48.0305C47.0469 47.7102 46.1953 47.4368 46.1953 46.7961V46.7649C46.1953 46.2102 46.6875 45.804 47.4532 45.804C48.3047 45.804 49.3125 46.0852 49.961 46.4446C49.961 46.4446 50.1485 46.5696 50.2188 46.3821C50.2578 46.2805 50.586 45.3977 50.6172 45.304C50.6563 45.2024 50.586 45.1243 50.5235 45.0852C49.7813 44.6321 48.7578 44.3274 47.6953 44.3274H47.5C45.6953 44.3274 44.4297 45.4211 44.4297 46.9836V47.0149C44.4297 48.6633 45.8203 49.2024 47.125 49.5774L47.336 49.6399C48.2891 49.929 49.1094 50.1868 49.1094 50.8508V50.8821C49.1094 51.4915 48.5782 51.9524 47.7188 51.9524C47.3828 51.9524 46.3203 51.9446 45.1719 51.218C45.0313 51.1399 44.9532 51.0774 44.8438 51.0149C44.8047 50.9915 44.6407 50.929 44.586 51.1008L44.211 52.1711ZM63.9532 48.8586C63.9532 49.8118 63.7735 50.5696 63.4219 51.1008C63.0782 51.6243 62.5469 51.8821 61.8203 51.8821C61.086 51.8821 60.5625 51.6243 60.2188 51.1008C59.875 50.5696 59.6953 49.8118 59.6953 48.8586C59.6953 47.9055 59.8672 47.1555 60.2188 46.6243C60.5625 46.1008 61.086 45.8508 61.8203 45.8508C62.5547 45.8508 63.0782 46.1008 63.4297 46.6243C63.7735 47.1477 63.9532 47.8977 63.9532 48.8586ZM65.6016 47.0852C65.4375 46.5383 65.1875 46.054 64.8516 45.6555C64.5086 45.2428 64.0756 44.9141 63.586 44.6946C63.086 44.4602 62.4844 44.343 61.8203 44.343C61.1485 44.343 60.5547 44.4602 60.0547 44.6946C59.5469 44.929 59.125 45.2571 58.7891 45.6555C58.4532 46.0618 58.2032 46.5383 58.0391 47.0852C57.875 47.6321 57.7969 48.2258 57.7969 48.8586C57.7969 49.4915 57.875 50.0852 58.0391 50.6321C58.2032 51.179 58.4532 51.6633 58.7891 52.0618C59.125 52.468 59.5547 52.7883 60.0547 53.0149C60.5625 53.2415 61.1563 53.3586 61.8203 53.3586C62.4922 53.3586 63.086 53.2415 63.586 53.0149C64.086 52.7883 64.5157 52.4602 64.8516 52.0618C65.1875 51.6633 65.4375 51.179 65.6016 50.6321C65.7657 50.0852 65.8438 49.4915 65.8438 48.8586C65.8438 48.2258 65.7657 47.6243 65.6016 47.0852ZM79.1485 51.6243C79.0938 51.4602 78.9375 51.5227 78.9375 51.5227C78.6953 51.6165 78.4453 51.7024 78.1719 51.7415C77.8985 51.7805 77.5938 51.804 77.2657 51.804C76.4688 51.804 75.836 51.5696 75.375 51.1008C74.9219 50.6321 74.6641 49.8743 74.6641 48.843C74.6641 47.9055 74.8906 47.2024 75.2969 46.6711C75.6953 46.1399 76.3125 45.8665 77.125 45.8665C77.8047 45.8665 78.3281 45.9446 78.8672 46.1165C78.8672 46.1165 79 46.1711 79.0625 45.9993C79.2031 45.6008 79.3125 45.3118 79.4688 44.8743C79.5156 44.7493 79.4063 44.6946 79.3672 44.679C79.1563 44.593 78.6485 44.4602 78.2657 44.4055C77.9063 44.3508 77.4922 44.3196 77.0313 44.3196C76.336 44.3196 75.7188 44.4368 75.1953 44.6711C74.6719 44.9055 74.2188 45.2258 73.8672 45.6321C73.5063 46.0502 73.2327 46.5363 73.0625 47.0618C72.8828 47.6086 72.7969 48.2024 72.7969 48.8352C72.7969 50.2024 73.1641 51.3118 73.8985 52.1165C74.625 52.929 75.7266 53.343 77.1563 53.343C78 53.343 78.8672 53.1711 79.4922 52.929C79.4922 52.929 79.6094 52.8743 79.5625 52.7336L79.1485 51.6243ZM82.0391 47.9368C82.1172 47.4055 82.2656 46.9602 82.4922 46.6165C82.836 46.093 83.3516 45.804 84.086 45.804C84.8203 45.804 85.3047 46.093 85.6485 46.6165C85.8828 46.9602 85.9766 47.4211 86.0156 47.9368H82.0391ZM87.586 46.7727C87.4453 46.2415 87.1016 45.7102 86.8672 45.468C86.5078 45.0774 86.1563 44.8118 85.8047 44.6633C85.298 44.4492 84.7532 44.3403 84.2031 44.343C83.5078 44.343 82.875 44.4602 82.3594 44.7024C81.8438 44.9446 81.4141 45.2727 81.0703 45.6868C80.7344 46.093 80.4766 46.5852 80.3125 47.1321C80.1485 47.679 80.0703 48.2805 80.0703 48.9133C80.0703 49.554 80.1563 50.1555 80.3203 50.6946C80.4922 51.2415 80.7656 51.718 81.1328 52.1165C81.5 52.5149 81.9688 52.8274 82.5391 53.0461C83.1016 53.2649 83.7813 53.3743 84.5625 53.3743C86.1719 53.3665 87.0235 53.0071 87.375 52.8196C87.4375 52.7883 87.4922 52.7258 87.4219 52.554L87.0547 51.5305C87 51.3821 86.8438 51.4368 86.8438 51.4368C86.4453 51.5852 85.875 51.8508 84.5547 51.8508C83.6875 51.8508 83.0469 51.593 82.6485 51.1946C82.2344 50.7883 82.0313 50.1868 82 49.3352L87.586 49.343C87.586 49.343 87.7344 49.343 87.75 49.1946C87.7578 49.1165 87.9453 48.0305 87.586 46.7727ZM37.3203 47.9368C37.3985 47.4055 37.5469 46.9602 37.7735 46.6165C38.1172 46.093 38.6328 45.804 39.3672 45.804C40.1016 45.804 40.586 46.093 40.9297 46.6165C41.1563 46.9602 41.2578 47.4211 41.2969 47.9368H37.3203ZM42.875 46.7727C42.7344 46.2415 42.3907 45.7102 42.1641 45.468C41.8047 45.0774 41.4532 44.8118 41.1016 44.6633C40.5949 44.4492 40.0501 44.3403 39.5 44.343C38.8047 44.343 38.1719 44.4602 37.6563 44.7024C37.1407 44.9446 36.711 45.2727 36.3672 45.6868C36.0313 46.093 35.7735 46.5852 35.6094 47.1321C35.4453 47.679 35.3672 48.2805 35.3672 48.9133C35.3672 49.554 35.4532 50.1555 35.6172 50.6946C35.7891 51.2415 36.0625 51.718 36.4297 52.1165C36.7969 52.5149 37.2657 52.8274 37.836 53.0461C38.3985 53.2649 39.0782 53.3743 39.8594 53.3743C41.4688 53.3665 42.3203 53.0071 42.6719 52.8196C42.7344 52.7883 42.7891 52.7258 42.7188 52.554L42.3516 51.5305C42.2969 51.3821 42.1407 51.4368 42.1407 51.4368C41.7422 51.5852 41.1719 51.8508 39.8516 51.8508C38.9844 51.8508 38.3438 51.593 37.9453 51.1946C37.5313 50.7883 37.3282 50.1868 37.2969 49.3352L42.8828 49.343C42.8828 49.343 43.0313 49.343 43.0469 49.1946C43.0469 49.1165 43.2344 48.0305 42.875 46.7727ZM25.25 51.593C25.0313 51.4211 25 51.3743 24.9297 51.2649C24.8203 51.093 24.7657 50.8508 24.7657 50.5383C24.7657 50.0461 24.9297 49.6946 25.2657 49.4602C25.2578 49.4602 25.7422 49.0383 26.8828 49.054C27.6797 49.0618 28.3985 49.1868 28.3985 49.1868V51.7258C28.3985 51.7258 27.6875 51.8743 26.8907 51.929C25.75 51.9915 25.25 51.593 25.25 51.593ZM27.4766 47.6711C27.25 47.6555 26.9532 47.6477 26.6016 47.6477C26.125 47.6477 25.6641 47.7102 25.2266 47.8274C24.7891 47.9446 24.3985 48.1243 24.0625 48.3665C23.7266 48.6086 23.4532 48.9211 23.25 49.2883C23.0547 49.6555 22.9532 50.093 22.9532 50.5774C22.9532 51.0696 23.0391 51.4993 23.211 51.8508C23.3828 52.2024 23.625 52.4993 23.9375 52.7258C24.25 52.9524 24.6328 53.1165 25.0782 53.218C25.5157 53.3196 26.0157 53.3665 26.5547 53.3665C27.125 53.3665 27.6953 53.3196 28.25 53.2258C28.7969 53.1321 29.4688 52.9993 29.6563 52.9524C29.8438 52.9055 30.0469 52.8508 30.0469 52.8508C30.1875 52.8196 30.1719 52.6711 30.1719 52.6711V47.5618C30.1719 46.4446 29.875 45.6086 29.2813 45.1008C28.6953 44.5852 27.836 44.3274 26.7188 44.3274C26.2969 44.3274 25.625 44.3821 25.2266 44.468C25.2266 44.468 24.0078 44.7024 23.5078 45.093C23.5078 45.093 23.3985 45.1633 23.461 45.3118L23.8594 46.3743C23.9063 46.5149 24.0391 46.468 24.0391 46.468C24.0391 46.468 24.0782 46.4524 24.1328 46.4211C25.211 45.8352 26.5625 45.8508 26.5625 45.8508C27.1641 45.8508 27.6328 45.968 27.9453 46.2102C28.25 46.4446 28.4063 46.7961 28.4063 47.5383V47.7727C27.9141 47.7102 27.4766 47.6711 27.4766 47.6711ZM72.5078 44.7961C72.5233 44.7578 72.5229 44.7149 72.5068 44.6768C72.4907 44.6388 72.4602 44.6086 72.4219 44.593C72.3281 44.554 71.8516 44.4524 71.4844 44.429C70.7813 44.3899 70.3907 44.5071 70.0469 44.6633C69.7032 44.8196 69.3203 45.0696 69.1016 45.3586V44.679C69.1016 44.5852 69.0313 44.5071 68.9375 44.5071H67.5078C67.4141 44.5071 67.3438 44.5852 67.3438 44.679V53.0071C67.3438 53.1008 67.4219 53.179 67.5156 53.179H68.9844C69.0782 53.179 69.1563 53.1008 69.1563 53.0071V48.843C69.1563 48.2883 69.2188 47.7258 69.3438 47.3743C69.461 47.0305 69.6328 46.7493 69.836 46.554C70.0391 46.3586 70.2735 46.218 70.5235 46.1399C70.7813 46.0618 71.0703 46.0305 71.2735 46.0305C71.5625 46.0305 71.8906 46.1086 71.8906 46.1086C72 46.1243 72.0547 46.054 72.0938 45.9602C72.1797 45.7102 72.4531 44.9446 72.5078 44.7961Z" fill="white"/>
<path d="M58.7343 40.9365C58.5546 40.8818 58.3905 40.8428 58.1796 40.8037C57.9686 40.7646 57.7108 40.749 57.4218 40.749C56.4139 40.749 55.6171 41.0381 55.0546 41.6006C54.4999 42.1631 54.1249 43.0146 53.9296 44.1318L53.8593 44.5068H52.5936C52.5936 44.5068 52.4374 44.499 52.4061 44.6709L52.1952 45.835C52.1796 45.9443 52.2264 46.0146 52.3749 46.0146H53.6093L52.3593 52.999C52.2655 53.5615 52.1483 54.0225 52.0233 54.374C51.8983 54.7178 51.7811 54.9756 51.6327 55.1709C51.4921 55.3506 51.3593 55.4834 51.1249 55.5615C50.9296 55.624 50.7108 55.6553 50.4686 55.6553C50.3358 55.6553 50.1561 55.6318 50.0233 55.6084C49.8905 55.585 49.8202 55.5537 49.7186 55.5146C49.7186 55.5146 49.578 55.46 49.5155 55.6006C49.4686 55.7178 49.1405 56.624 49.1014 56.7334C49.0624 56.8428 49.1171 56.9287 49.1874 56.96C49.3514 57.0147 49.4764 57.0537 49.6952 57.1084C50.0077 57.1787 50.2655 57.1865 50.5155 57.1865C51.0311 57.1865 51.4999 57.1162 51.8827 56.9756C52.2733 56.835 52.6093 56.585 52.9139 56.2568C53.2421 55.8975 53.4452 55.5225 53.6405 55.0068C53.8358 54.499 53.9999 53.8662 54.1327 53.1318L55.3905 46.0146H57.2264C57.2264 46.0146 57.3827 46.0225 57.4139 45.8506L57.6249 44.6865C57.6405 44.5771 57.5936 44.5068 57.4452 44.5068H55.6561C55.6639 44.4678 55.7499 43.835 55.953 43.249C56.0389 42.999 56.203 42.7959 56.3436 42.6553C56.4843 42.5146 56.6405 42.4209 56.8124 42.3662C56.9921 42.3115 57.1874 42.2803 57.4139 42.2803C57.578 42.2803 57.7499 42.2959 57.8749 42.3271C58.0468 42.3662 58.1171 42.3818 58.1639 42.3975C58.3436 42.4521 58.3749 42.3975 58.4061 42.3115L58.8358 41.1396C58.8827 41.0068 58.7733 40.9521 58.7343 40.9365ZM33.7968 53.0068C33.7968 53.1006 33.7264 53.1787 33.6327 53.1787H32.1483C32.0546 53.1787 31.9921 53.1006 31.9921 53.0068V41.0928C31.9921 40.999 32.0546 40.9209 32.1483 40.9209H33.6327C33.7264 40.9209 33.7968 40.999 33.7968 41.0928V53.0068Z" fill="white"/>
</svg>
