<svg width="100" height="100" viewBox="0 0 100 100" fill="none" xmlns="http://www.w3.org/2000/svg">
<path d="M95.8332 95.8337H90.7373V33.4503C90.7373 20.4587 80.0373 9.25866 66.804 9.25866H33.4457C20.2123 9.25866 9.51234 19.9462 9.51234 32.9503C9.51234 45.9462 20.2123 56.6337 33.4457 56.6337H36.754C42.3623 56.6337 46.9415 61.217 46.9415 66.817C46.9415 72.4253 42.3582 77.0087 36.754 77.0087H4.1665V71.9128H36.504C39.2998 71.9128 41.5998 69.617 41.5998 67.0795C41.5998 64.2878 39.2998 62.2462 36.504 62.2462H33.1957C17.404 61.967 4.1665 48.9837 4.1665 32.9545C4.1665 16.9087 17.3998 4.16699 33.4457 4.16699H67.054C82.8332 4.16699 95.8332 17.6628 95.8332 33.4503V95.8337Z" fill="#EE7624"/>
<path d="M37.0165 52.7994C44.1415 53.0494 51.0207 59.4161 51.0207 67.0578C51.0207 74.6953 44.654 81.3119 36.7665 81.3119H4.1665V86.4078H36.504C47.204 86.4078 56.1082 77.7536 56.1082 67.0578C56.1082 64.2578 55.5957 61.7119 54.3165 59.1661C53.2957 56.8703 51.5248 54.5828 49.7373 52.7994C47.6998 51.0119 45.4082 49.7411 42.8623 48.7286C40.6748 47.9994 38.4957 47.9244 36.2207 47.8453C35.3123 47.8119 34.3832 47.7786 33.4332 47.7036C31.6498 47.7036 27.5748 46.6828 25.2832 45.1619C23.0675 43.7271 21.3014 41.6967 20.1873 39.3036C19.4248 37.2661 18.9165 35.2328 18.9165 32.9369C18.9132 31.0641 19.2795 29.209 19.9943 27.4779C20.7091 25.7468 21.7584 24.1738 23.0821 22.8489C24.4059 21.524 25.978 20.4733 27.7084 19.757C29.4389 19.0407 31.2937 18.6728 33.1665 18.6744H66.7748C74.6707 18.6744 81.0332 25.5494 81.0332 33.1869V95.8203H86.129V33.4453C86.129 22.7453 77.4748 13.5786 66.7748 13.5786H33.4415C22.7415 13.5786 13.8373 22.2328 13.8373 32.9369C13.8373 35.7286 14.3498 38.2786 15.629 40.8286C16.684 43.2531 18.2453 45.4238 20.2082 47.1953C21.9957 48.9786 24.5373 50.2536 26.8248 51.2619C28.0998 51.7744 29.3707 52.0244 30.8915 52.2869C34.4623 52.5369 36.7498 52.7994 36.9998 52.7994H37.0165Z" fill="#EE7624"/>
<path d="M4.1665 95.8319H36.504V95.8194C52.5457 95.8194 65.7957 82.836 66.0457 66.5444C66.0457 50.7527 53.0582 37.7694 37.0165 37.7694H33.7082C30.9082 37.7694 28.6165 35.4694 28.6165 32.9361C28.6165 30.4027 30.6457 28.1027 33.4457 28.1027H67.0665C69.5998 28.1027 71.8957 30.6486 71.8957 33.4486V95.8235H76.9915V33.4319C76.9915 27.8277 72.4082 22.9944 66.804 22.9944H33.1957C30.4958 23.001 27.9084 24.0764 25.9993 25.9855C24.0902 27.8946 23.0148 30.482 23.0082 33.1819C23.0137 35.8821 24.0888 38.4701 25.9981 40.3795C27.9074 42.2888 30.4955 43.3639 33.1957 43.3694H36.504C49.7373 43.3694 60.4373 54.0694 60.4373 67.0527C60.4373 80.036 49.7373 90.736 36.504 90.736H4.1665V95.8319Z" fill="#EE7624"/>
</svg>
