<svg width="100" height="100" viewBox="0 0 100 100" fill="none" xmlns="http://www.w3.org/2000/svg">
<g clip-path="url(#clip0_1085_4004)">
<path d="M0 0H100V100H0V0Z" fill="#F03E2F"/>
<path d="M30.7994 25.9094C30.7994 34.5016 36.2002 39.6149 47.0135 42.3102L58.4713 44.9204C68.7049 47.2297 74.9362 52.9657 74.9362 62.3094C75.0118 66.391 73.6625 70.3714 71.1205 73.5657C71.1205 64.243 66.2119 59.2063 54.3713 56.1766L43.1213 53.6633C34.1119 51.6438 27.1588 46.929 27.1588 36.779C27.1146 32.8493 28.3973 29.0197 30.7994 25.9094Z" fill="white"/>
<path d="M64.0797 60.0206C68.9672 63.0924 71.1094 67.3885 71.1094 73.5541C67.0649 78.6448 59.9579 81.5018 51.6055 81.5018C37.5454 81.5018 27.7055 74.7034 25.5188 62.8885H39.0211C40.7594 68.3127 45.3625 70.826 51.5063 70.826C59.0063 70.826 63.9922 66.8948 64.0907 59.9987M37.818 38.6463C35.5946 37.3528 33.7636 35.4803 32.5204 33.2284C31.2853 30.9926 30.6898 28.4599 30.7993 25.9081C34.7024 20.8596 41.4915 17.7776 49.768 17.7776C64.0907 17.7776 72.3774 25.2096 74.4227 35.6713H61.4336C60.0016 31.5463 56.4157 28.3354 49.8774 28.3354C42.8915 28.3354 38.1243 32.3307 37.8508 38.6463" fill="#F9B1AB"/>
</g>
<defs>
<clipPath id="clip0_1085_4004">
<rect width="100" height="100" fill="white"/>
</clipPath>
</defs>
</svg>
