<svg width="100" height="100" viewBox="0 0 100 100" fill="none" xmlns="http://www.w3.org/2000/svg">
<g clip-path="url(#clip0_1085_4015)">
<path d="M42.1117 6.14669C45.4235 0.459189 52.8438 -1.66191 58.6852 1.4045C64.5274 4.47325 66.5797 11.5701 63.2703 17.2553L40.8547 55.7514C37.543 61.4365 30.1227 63.5608 24.2813 60.4912C18.4391 57.4248 16.3867 50.3272 19.6953 44.6412L42.1117 6.14669Z" fill="#21CFEE"/>
<path d="M59.1453 44.2493C62.457 38.5618 69.8765 36.44 75.7187 39.5071C81.5609 42.5759 83.6132 49.6728 80.3039 55.3571L57.8882 93.8548C54.5765 99.54 47.1562 101.663 41.3148 98.5946C35.4726 95.5275 33.4179 88.4306 36.7296 82.7431L59.1453 44.2493Z" fill="#173AEE"/>
</g>
<defs>
<clipPath id="clip0_1085_4015">
<rect width="100" height="100" fill="white"/>
</clipPath>
</defs>
</svg>
