<svg width="100" height="100" viewBox="0 0 100 100" fill="none" xmlns="http://www.w3.org/2000/svg">
<path d="M26.6895 0C16.2676 0 7.79102 8.49531 7.79102 18.9414V64.2758C7.79023 83.9828 23.7699 100 43.4324 100H74.977C84.009 99.2344 91.3051 92.1305 92.2082 83.1477V35.7242C92.2777 15.9477 76.3668 0 56.6348 0H26.6895ZM26.759 11.4203H56.634C69.9746 11.4203 80.884 22.3539 80.884 35.725V82.4516C80.3277 85.6547 77.7566 88.1625 74.491 88.5797H43.5027C30.0934 88.5797 19.2543 77.7156 19.2543 64.275V18.9422C19.2491 17.9544 19.4396 16.9754 19.8147 16.0617C20.1898 15.1479 20.7422 14.3175 21.4399 13.6183C22.1375 12.9191 22.9668 12.3649 23.8797 11.9878C24.7927 11.6107 25.7712 11.4181 26.759 11.4211V11.4203ZM37.3879 22.9109C33.7754 23.3289 30.9965 26.3227 30.8574 29.9437V53.7594C30.8574 55.3609 31.4832 56.7547 32.5262 57.7984C33.0521 58.3323 33.6796 58.7553 34.3717 59.0426C35.0638 59.3299 35.8065 59.4756 36.5559 59.4711C39.6824 59.4711 42.252 56.893 42.252 53.7602V38.6484C42.252 36.2812 44.1973 34.3312 46.5598 34.3312H53.9941C54.7436 34.3363 55.4865 34.191 56.1788 33.9042C56.8712 33.6173 57.4991 33.1945 58.0254 32.6609C59.0668 31.6164 59.6918 30.1531 59.6918 28.5516C59.6918 25.4172 56.9824 22.9109 53.8559 22.9109H37.3879ZM63.7215 40.6688C60.5949 40.6688 58.0246 43.2445 58.0246 46.3789V61.4906C58.0246 63.8578 56.0793 65.8078 53.7176 65.8078H46.2809C45.5315 65.8028 44.7887 65.9481 44.0966 66.2353C43.4044 66.5225 42.7769 66.9456 42.2512 67.4797C41.209 68.5234 40.5848 69.9859 40.5848 71.5875C40.6535 74.7211 43.2941 77.2281 46.4207 77.2281H62.8863C66.4996 76.8102 69.2801 73.8156 69.4184 70.1945V46.3789C69.4184 44.7773 68.7934 43.3836 67.7504 42.3398C67.2247 41.8058 66.5972 41.3826 65.905 41.0955C65.2128 40.8083 64.4701 40.6629 63.7207 40.668L63.7215 40.6688Z" fill="#521094"/>
</svg>
