<svg width="100" height="100" viewBox="0 0 100 100" fill="none" xmlns="http://www.w3.org/2000/svg">
<g clip-path="url(#clip0_867_14107)">
<path fill-rule="evenodd" clip-rule="evenodd" d="M18.0933 37.2098C18.9655 38.4121 26.3209 40.68 37.2927 43.0422C48.2644 45.1451 59.6747 53.4482 68.5482 50.8879C74.5504 49.1528 81.0618 33.6924 81.0618 31.3962V31.1605C81.0618 29.5574 79.8595 28.2702 77.8179 27.1999C69.4488 22.9234 67.8646 21.3486 64.7621 22.202C48.6558 26.6482 20.2197 24.3756 18.0933 37.2098Z" fill="#380D09"/>
<path fill-rule="evenodd" clip-rule="evenodd" d="M18.0933 68.602C18.9655 69.8232 26.3209 72.0722 37.2927 74.4391C49.5516 76.674 60.2122 83.9587 69.0905 81.3937C75.0926 79.6586 81.0618 65.0893 81.0618 62.7884V62.5621C81.0618 60.9637 79.8595 59.6718 77.8179 58.6062C71.4338 55.2114 62.9987 51.4725 59.901 52.3259C43.7663 56.7627 22.2 57.7387 18.0933 68.602Z" fill="#380D09"/>
<path fill-rule="evenodd" clip-rule="evenodd" d="M18.0036 43.9568V44.1831C17.9988 44.1077 17.9988 44.0321 18.0036 43.9568Z" fill="#555555"/>
<path fill-rule="evenodd" clip-rule="evenodd" d="M69.0668 6.0672C54.2335 10.3531 30.701 12.7719 18.0225 12.7719V36.9833C18.0265 37.0666 18.058 37.1462 18.112 37.2096C26.764 37.2096 53.4744 34.3806 69.5902 29.9486C72.4008 29.2332 75.1567 28.3177 77.8367 27.2092C79.8075 26.3228 81.0806 25.3892 81.0806 24.4179V-0.000976562C81.0617 2.29993 75.069 4.3368 69.0668 6.0672Z" fill="#DE3423"/>
<path fill-rule="evenodd" clip-rule="evenodd" d="M69.0668 37.4642C60.1885 40.0244 48.2078 41.9293 37.2926 43.042C29.9655 43.7917 23.1194 44.183 18.0225 44.183V68.3756C18.0265 68.4588 18.058 68.5384 18.112 68.6019C26.764 68.6019 53.4744 65.7729 69.5902 61.3455C72.4002 60.6281 75.1559 59.7127 77.8367 58.6061C79.8075 57.715 81.0806 56.7862 81.0806 55.8149V31.396C81.0617 33.6922 75.069 35.7291 69.0668 37.4642Z" fill="#DE3423"/>
<path fill-rule="evenodd" clip-rule="evenodd" d="M69.0669 68.8801C60.1886 71.4403 48.2078 73.3405 37.2926 74.4579C29.9561 75.2076 23.1006 75.5989 18.0037 75.5989V99.9989C26.5661 99.9989 53.4131 97.1935 69.5714 92.7426C75.5264 91.1018 81.0618 89.2346 81.0618 87.2072V62.7883C81.0618 65.1081 75.069 67.1261 69.0669 68.8801Z" fill="#DE3423"/>
</g>
<defs>
<clipPath id="clip0_867_14107">
<rect width="100" height="100" fill="white"/>
</clipPath>
</defs>
</svg>
