<svg width="100" height="100" viewBox="0 0 100 100" fill="none" xmlns="http://www.w3.org/2000/svg">
<path d="M76.7035 68.8516C88.9145 56.6485 90.9457 38.8829 81.2348 29.1797C71.5239 19.4766 53.7582 21.5079 41.5473 33.711C29.3364 45.9141 32.8676 69.2422 37.016 73.3829C40.3676 76.7344 64.4926 81.0547 76.7035 68.8516Z" fill="#F89939"/>
<path d="M26.5941 51.2187C19.5081 44.1406 9.19563 42.9609 3.56281 48.5859C-2.07 54.2187 -0.89031 64.5234 6.19563 71.6015C13.2816 78.6875 26.8206 76.6328 29.2269 74.2343C31.1722 72.289 33.6878 58.2968 26.5941 51.2187Z" fill="#3499CD"/>
<path d="M96.7349 66.9377C96.2817 66.9377 96.0552 66.6643 96.0552 66.1096C96.0552 65.6956 96.3286 64.7893 96.8677 63.4065C97.6567 61.3831 98.0552 59.9299 98.0552 59.0471C98.0552 58.5159 97.8989 58.0706 97.5864 57.719C97.2739 57.3674 96.8833 57.1877 96.4146 57.1877C95.7271 57.1877 94.938 57.5081 94.0474 58.1565C93.1567 58.8049 91.9614 59.969 90.4536 61.6565C90.6724 60.5627 91.1411 59.0627 91.8442 57.1565L88.4771 57.8049C87.7114 59.4612 87.1567 60.9534 86.813 62.2815C86.6411 62.9299 86.5161 63.6018 86.4302 64.2815C85.3755 65.3049 84.688 65.9221 84.3911 66.1487C84.0864 66.3752 83.7661 66.4846 83.438 66.4846C83.1333 66.4846 82.8911 66.3674 82.7114 66.1409C82.5317 65.9143 82.4458 65.6018 82.4458 65.219C82.4458 64.8049 82.5239 64.3284 82.6802 63.7893C82.9146 62.9807 83.1802 62.2346 83.7192 60.7424L85.0005 57.2112L83.7427 57.2659C82.6021 59.4377 81.2661 60.6096 79.7349 60.7737C80.1489 59.6956 80.3599 58.8674 80.3599 58.2893C80.3599 57.5549 80.0005 57.1877 79.2817 57.1877C78.4302 57.1877 77.7661 57.5862 77.2896 58.3909C76.8052 59.1956 76.563 59.9534 76.563 60.6643C76.563 61.7307 76.9614 61.8752 77.7505 62.2268C77.2349 62.9846 76.6567 63.6956 76.0317 64.3674C75.2896 65.1018 74.7114 65.6643 74.2895 66.0315C73.8599 66.4143 73.4614 66.6018 73.1021 66.6018C72.5396 66.6018 72.2583 66.2034 72.2583 65.4143C72.2583 64.6252 72.5708 63.2659 73.1958 61.2346L74.4146 57.1877H73.6411L70.8208 58.7502C70.3599 57.6956 69.5552 57.1643 68.4067 57.1643C67.4927 57.1643 66.4458 57.5549 65.2583 58.3284C64.0708 59.1018 63.0942 60.1096 62.3364 61.3674C61.7505 62.3362 61.3911 63.3518 61.2583 64.3987C60.1958 65.4612 59.3989 66.1487 58.8677 66.469C58.313 66.7971 57.7349 66.9612 57.1255 66.9612C55.5708 66.9612 54.6099 66.0627 54.2427 64.2659C58.2974 63.0784 60.3208 61.5315 60.3208 59.6252C60.3208 58.9065 60.063 58.3284 59.5474 57.8831C59.0317 57.4377 58.3442 57.219 57.4927 57.219C55.8442 57.219 54.3442 58.0081 52.9927 59.5862C51.7661 61.0159 51.1021 62.6018 50.9849 64.344C49.8677 65.4456 49.0239 66.1721 48.477 66.5237C47.9145 66.8831 47.3833 67.0627 46.8911 67.0627C46.3989 67.0627 46.0083 66.8284 45.7192 66.3596C45.4224 65.8909 45.2739 65.2581 45.2739 64.4534C45.2739 64.094 45.313 63.4377 45.3833 62.4768C47.2271 60.4768 48.5786 58.6018 49.4458 56.844C50.313 55.0862 50.7427 53.2659 50.7427 51.3909C50.7427 50.7268 50.6567 50.2034 50.4849 49.8127C50.313 49.4221 50.0942 49.2268 49.8286 49.2268C49.7739 49.2268 49.688 49.2424 49.5786 49.2815L46.0708 50.5784C44.8755 52.8596 43.8521 55.3518 43.0161 58.0627C42.1802 60.7659 41.7583 63.0862 41.7583 65.0159C41.7583 66.3049 42.0552 67.3284 42.6646 68.094C43.2661 68.8596 44.063 69.2424 45.0474 69.2424C45.9067 69.2424 46.8052 68.969 47.7505 68.4221C48.6958 67.8752 49.7895 67.0237 51.0474 65.8752C52.3052 64.7268 51.0474 65.8596 51.0474 65.8596C51.1958 66.7268 51.5552 67.4534 52.1177 68.0471C52.8911 68.844 53.8989 69.2502 55.1489 69.2502C56.2739 69.2502 57.2974 68.9768 58.227 68.4299C59.1255 67.9065 60.1333 67.0862 61.2583 66.0002C61.3521 66.8127 61.6177 67.5159 62.063 68.1174C62.6333 68.8752 63.3208 69.2581 64.1255 69.2581C64.9302 69.2581 65.7583 68.9456 66.5395 68.3206C67.3208 67.6956 68.1646 66.719 69.0864 65.4065C69.0005 67.9768 69.688 69.2581 71.1411 69.2581C71.7192 69.2581 72.3286 69.0471 72.9614 68.6252C73.5942 68.2034 74.6489 67.2893 76.1255 65.8909C77.4067 64.6252 78.3442 63.4377 78.9458 62.3284C79.7583 62.1877 80.5005 61.9456 81.1802 61.594C79.7896 63.7737 79.0942 65.5159 79.0942 66.8127C79.0942 67.5159 79.2896 68.1018 79.6724 68.5706C80.0552 69.0393 80.5317 69.2815 81.0942 69.2815C82.3208 69.2815 84.063 68.1799 86.313 66.0002C86.313 66.1721 86.2974 66.3362 86.2974 66.5081C86.2974 67.1174 86.3521 68.0393 86.4458 69.2815L89.5005 68.5627C89.5005 67.7346 89.5161 67.0784 89.5396 66.5862C89.5864 65.9299 89.6802 65.2112 89.813 64.4299C89.8989 63.969 90.1099 63.5315 90.4458 63.1174L91.2192 62.219C91.5005 61.8909 91.7739 61.594 92.0161 61.3362C92.3052 61.0315 92.563 60.7737 92.7895 60.5627C93.0474 60.3362 93.2739 60.1487 93.4692 60.0237C93.6802 59.8987 93.852 59.8284 93.977 59.8284C94.2036 59.8284 94.3208 59.9768 94.3208 60.2737C94.3208 60.5706 94.102 61.2581 93.6724 62.344C92.8599 64.3674 92.4536 65.8752 92.4536 66.8596C92.4536 67.5862 92.6411 68.1643 93.0239 68.6018C93.3989 69.0315 93.8989 69.2502 94.5161 69.2502C96.0317 69.2502 97.8599 68.1252 99.9849 65.8831V64.2971C98.4771 66.0706 97.3911 66.9612 96.7192 66.9612L96.7349 66.9377ZM45.7505 60.4612C46.3755 57.4065 47.0161 55.0393 47.6645 53.344C48.313 51.6487 48.813 50.7971 49.1489 50.7971C49.3052 50.7971 49.438 50.8987 49.5395 51.1096C49.6411 51.3127 49.688 51.594 49.688 51.9299C49.688 53.094 49.3286 54.4768 48.5942 56.094C47.8677 57.7034 46.9146 59.1643 45.7505 60.4612ZM54.9614 59.6956C55.5161 58.7659 56.0942 58.3049 56.7036 58.3049C57.3442 58.3049 57.6724 58.7502 57.6724 59.6331C57.6724 61.4221 56.4927 62.6409 54.1333 63.3049C54.1333 61.8206 54.4067 60.6174 54.9614 59.6956ZM68.6177 64.2659C67.8052 65.8362 66.9302 66.6174 66.0161 66.6174C65.6411 66.6174 65.3286 66.4612 65.0864 66.1565C64.8442 65.8518 64.7192 65.4456 64.7192 64.9456C64.7192 63.6331 65.1333 62.1877 65.9536 60.6252C66.7739 59.0627 67.6489 58.2815 68.5708 58.2815C68.9536 58.2815 69.2661 58.4221 69.4927 58.719C69.7192 59.0081 69.8364 59.4143 69.8364 59.9299C69.8364 61.2581 69.4302 62.7034 68.6177 64.2737V64.2659Z" fill="#010101"/>
<path d="M58.9534 50.687C59.0706 50.8511 59.1252 51.062 59.1252 51.312C59.1252 51.562 59.0549 51.7886 58.9143 51.9995C58.7737 52.2104 58.5706 52.3823 58.2971 52.4995C58.0315 52.6167 57.7268 52.6792 57.3909 52.6792C56.8284 52.6792 56.4065 52.562 56.1096 52.3276C55.8127 52.0933 55.6252 51.7495 55.5471 51.2886L56.2737 51.1714C56.3127 51.4605 56.4299 51.687 56.6096 51.8354C56.7971 51.9917 57.0549 52.0698 57.3909 52.0698C57.7268 52.0698 57.9768 51.9995 58.1409 51.8667C58.3049 51.7339 58.3831 51.5698 58.3831 51.3823C58.3831 51.2183 58.3127 51.0854 58.1643 50.9917C58.0627 50.9292 57.8127 50.8433 57.4143 50.7417C56.8752 50.6089 56.5081 50.4917 56.2971 50.3901C56.0862 50.2886 55.9299 50.1558 55.8284 49.9761C55.7268 49.7964 55.6643 49.6089 55.6643 49.398C55.6643 49.2026 55.7112 49.0308 55.7971 48.8667C55.8831 48.7026 56.0081 48.5698 56.1565 48.4604C56.2737 48.3745 56.4221 48.3042 56.6174 48.2495C56.8127 48.1948 57.0237 48.1636 57.2502 48.1636C57.5862 48.1636 57.8831 48.2105 58.1409 48.312C58.3987 48.4058 58.5862 48.5386 58.7112 48.7104C58.8362 48.8745 58.9143 49.1011 58.9612 49.3823L58.2424 49.4761C58.2112 49.2573 58.1174 49.0776 57.9612 48.9526C57.8049 48.8276 57.5862 48.7651 57.2971 48.7651C56.9612 48.7651 56.719 48.8198 56.5784 48.9292C56.4377 49.0386 56.3596 49.1714 56.3596 49.3198C56.3596 49.4136 56.3909 49.4995 56.4456 49.5776C56.5081 49.6558 56.6018 49.7183 56.7268 49.7729C56.7971 49.7964 57.0159 49.8589 57.3752 49.9605C57.8909 50.1011 58.2502 50.2104 58.4612 50.2964C58.6643 50.3823 58.8284 50.5151 58.9456 50.6792L58.9534 50.687ZM62.4456 51.812C62.2502 51.9917 62.0159 52.0776 61.7268 52.0776C61.3674 52.0776 61.0784 51.9448 60.8596 51.687C60.6409 51.4292 60.5237 50.9995 60.5237 50.4214C60.5237 49.8433 60.6409 49.4292 60.8674 49.1714C61.094 48.9136 61.3987 48.773 61.7659 48.773C62.0081 48.773 62.219 48.8433 62.3909 48.9917C62.5627 49.1401 62.6799 49.3589 62.7502 49.648L63.4612 49.5386C63.3752 49.1011 63.1877 48.7651 62.8909 48.5308C62.594 48.2964 62.2112 48.1792 61.7424 48.1792C61.3674 48.1792 61.0315 48.2651 60.7112 48.4448C60.3987 48.6167 60.1565 48.8823 60.0081 49.2339C59.8518 49.5855 59.7737 49.9917 59.7737 50.4604C59.7737 51.1792 59.9534 51.7339 60.3127 52.1167C60.6721 52.4995 61.1487 52.6948 61.7346 52.6948C62.2034 52.6948 62.6018 52.5542 62.9299 52.273C63.2502 51.9917 63.4534 51.6011 63.5315 51.1089L62.8127 51.0151C62.7581 51.3823 62.6409 51.6479 62.4456 51.8276V51.812ZM64.1565 52.5776H64.8909V48.2651H64.1565V52.5776ZM64.1565 47.4605H64.8909V46.6167H64.1565V47.4605ZM69.4143 48.2573H68.469L66.7346 50.0151V46.6167H66.0002V52.5698H66.7346V50.8589L67.2502 50.3667L68.6799 52.5698H69.5862L67.7659 49.8589L69.4143 48.2573ZM70.1643 47.4605H70.8987V46.6167H70.1643V47.4605ZM70.1643 52.5776H70.8987V48.2651H70.1643V52.5776ZM73.6096 51.9214C73.4768 51.937 73.3674 51.9526 73.2893 51.9526C73.1799 51.9526 73.094 51.937 73.0393 51.898C72.9846 51.8589 72.9377 51.812 72.9143 51.7573C72.8909 51.6948 72.8752 51.562 72.8752 51.3589V48.8354H73.6096V48.2651H72.8752V46.7573L72.1487 47.1948V48.2651H71.6096V48.8354H72.1487V51.3198C72.1487 51.7573 72.1799 52.0464 72.2346 52.1792C72.2971 52.3198 72.3987 52.4292 72.5393 52.5073C72.6877 52.5933 72.8909 52.6323 73.1565 52.6323C73.3206 52.6323 73.5002 52.6089 73.7112 52.5698L73.6018 51.9214H73.6096Z" fill="white"/>
</svg>
