<svg width="100" height="100" viewBox="0 0 100 100" fill="none" xmlns="http://www.w3.org/2000/svg">
<path d="M46.7242 74.3707C35.5902 73.9891 25.0018 71.4639 16.7685 67.2316C15.9931 66.8348 14.3005 65.89 14.3005 65.8572C14.3005 65.845 14.5692 65.9702 14.8965 66.1404C18.9266 68.2031 23.9915 69.9651 29.1067 71.0831C37.2179 72.8597 46.1015 73.3336 54.8057 72.4483C63.0215 71.6165 70.697 69.5927 77.2492 66.5372C83.1428 63.7861 87.8582 60.2681 91.0007 56.2884C95.8237 50.1681 96.4708 43.0741 92.7773 36.7814C90.3864 32.7033 86.3952 29.1082 80.916 26.1038C80.3917 25.8176 79.9797 25.5818 80.001 25.5818C80.0728 25.5818 82.3919 26.6998 83.1161 27.0874C86.6547 28.9655 89.4683 30.9687 91.9248 33.3504C95.0102 36.3434 96.9477 39.4256 97.8955 42.8505C98.7716 46.016 98.6083 49.5279 97.4392 52.6399C95.8656 56.8279 92.649 60.6825 87.9451 64.0212C80.3017 69.4409 69.3615 73.0298 57.2263 74.0967C53.7328 74.39 50.2253 74.4825 46.7211 74.3737L46.7242 74.3707Z" fill="url(#paint0_radial_1085_4023)"/>
<path d="M74.563 60.023H74.5036C74.4651 60.0097 74.4248 60.0026 74.3841 60.0019L74.2146 59.9956C74.1342 59.996 74.0542 60.006 73.9763 60.0253L73.738 60.0995V61.5628H73.0224V59.3745H73.738V59.6901C73.7824 59.6517 73.8283 59.615 73.8755 59.58C73.9259 59.5419 73.9786 59.507 74.0333 59.4753C74.0896 59.4432 74.1497 59.4183 74.2122 59.4011C74.2756 59.3797 74.3421 59.3686 74.4091 59.3683H74.4864C74.5161 59.3714 74.5403 59.3714 74.5638 59.3769L74.563 60.023ZM71.9606 61.6237C71.5263 61.6243 71.1935 61.5248 70.9622 61.3253C70.6153 61.0261 70.6161 60.8479 70.6161 60.4815C70.6161 60.1258 70.7234 59.8417 70.938 59.6292C71.2599 59.3104 71.4536 59.3073 71.8411 59.3073C72.1927 59.3084 72.458 59.3987 72.6372 59.5784C72.906 59.848 72.9028 60.0167 72.9028 60.3534V60.6011H71.3317C71.3395 60.7021 71.3625 60.7865 71.4005 60.8542C71.4366 60.92 71.4891 60.9755 71.5528 61.0151C71.6182 61.058 71.6911 61.0882 71.7677 61.1042C71.8559 61.1213 71.9457 61.1294 72.0356 61.1284C72.1178 61.1296 72.1998 61.1214 72.2802 61.1042C72.3559 61.0881 72.4298 61.064 72.5005 61.0323C72.5593 61.0078 72.614 60.9821 72.6646 60.955L72.7864 60.8776H72.8606V61.4409L72.6997 61.5003C72.6349 61.526 72.568 61.5459 72.4997 61.5597L72.2614 61.6042C72.1606 61.6168 72.0591 61.6228 71.9575 61.6222L71.9606 61.6237ZM72.1958 60.1901C72.1927 60.044 72.1567 59.937 72.0911 59.8589C72.0255 59.7808 71.9239 59.7456 71.7872 59.7456C71.6505 59.7456 71.5396 59.787 71.4591 59.8651C71.3786 59.9433 71.3395 60.0526 71.331 60.1901H72.1958ZM70.7645 59.3761L69.6052 62.3659H68.8364L69.1825 61.5105L68.3419 59.3761H69.0935L69.5763 60.7472L70.0294 59.3761H70.7645ZM67.6286 60.9948V60.5386L67.3364 60.5683C67.2601 60.576 67.1851 60.593 67.113 60.619C67.051 60.6399 67.0023 60.6706 66.9669 60.7112C66.9138 60.7722 66.9161 60.8097 66.9161 60.8808C66.9161 60.9823 66.945 61.0529 67.0028 61.0925C67.0895 61.1519 67.1458 61.1487 67.2591 61.1487C67.3256 61.1468 67.3913 61.1328 67.4528 61.1073C67.5182 61.0812 67.5779 61.0435 67.6286 60.9948ZM67.6286 61.3315L67.4974 61.4386C67.4495 61.4752 67.3976 61.5061 67.3427 61.5308C67.2824 61.5594 67.2196 61.5824 67.1552 61.5995C67.071 61.6176 66.985 61.6258 66.8989 61.6237C66.8056 61.6262 66.7127 61.6101 66.6256 61.5763C66.5385 61.5425 66.4591 61.4917 66.3919 61.4269C66.3257 61.3643 66.2736 61.2882 66.2391 61.2039C66.2046 61.1196 66.1885 61.0288 66.1919 60.9378C66.1914 60.7737 66.2252 60.6425 66.2935 60.544C66.3958 60.3964 66.4606 60.3651 66.5888 60.3058C66.7169 60.2464 66.8716 60.2042 67.0536 60.1808L67.6349 60.1269V60.1151C67.6349 59.9933 67.5872 59.9128 67.495 59.8644C67.4028 59.8159 67.2599 59.7956 67.0747 59.7956C66.9888 59.7956 66.8893 59.8105 66.7763 59.8401C66.6633 59.8686 66.5525 59.9054 66.445 59.9503H66.3825V59.4229C66.4968 59.3948 66.6123 59.3719 66.7286 59.3542C66.8863 59.3268 67.046 59.313 67.206 59.3128C67.6028 59.3123 67.8911 59.3758 68.0708 59.5034C68.3403 59.6948 68.3419 59.819 68.3419 60.0761V61.5636H67.6294L67.6286 61.3315ZM66.2935 61.5644H64.2606V58.6636H65.0271V61.0128H66.2942L66.2935 61.5644ZM62.2513 60.9948V60.5386L61.956 60.5683C61.8807 60.5762 61.8068 60.5933 61.7356 60.619C61.6737 60.6399 61.625 60.6706 61.5895 60.7112C61.5364 60.7722 61.5356 60.8097 61.5356 60.8808C61.5356 60.9823 61.5653 61.0529 61.6247 61.0925C61.7138 61.1519 61.7677 61.1487 61.881 61.1487C61.9467 61.1485 62.0116 61.1343 62.0716 61.1073C62.1372 61.08 62.1977 61.0417 62.2505 60.994L62.2513 60.9948ZM62.2513 61.3315L62.12 61.4386C62.0712 61.4754 62.0182 61.5063 61.9622 61.5308C61.9023 61.5603 61.8395 61.5833 61.7747 61.5995C61.6916 61.6174 61.6066 61.6255 61.5216 61.6237C61.4282 61.6262 61.3353 61.6101 61.2483 61.5763C61.1612 61.5425 61.0818 61.4917 61.0145 61.4269C60.9483 61.3642 60.8961 61.2882 60.8612 61.2039C60.8263 61.1196 60.8096 61.029 60.8122 60.9378C60.8127 60.7737 60.8476 60.6425 60.9169 60.544C61.0208 60.3964 61.0841 60.3651 61.2122 60.3058C61.3588 60.2406 61.5145 60.1985 61.6739 60.1808L62.2552 60.1269V60.1151C62.2552 59.9933 62.2106 59.9128 62.1153 59.8644C62.02 59.8159 61.8825 59.7956 61.695 59.7956C61.5951 59.7978 61.4958 59.8128 61.3997 59.8401C61.2859 59.8685 61.1744 59.9053 61.0661 59.9503H61.0067V59.4229C61.12 59.3949 61.2344 59.372 61.3497 59.3542C61.5081 59.3267 61.6686 59.3129 61.8294 59.3128C62.2237 59.3123 62.5119 59.3758 62.6942 59.5034C62.9677 59.6948 62.9653 59.819 62.9653 60.0761V61.5636H62.2528L62.2513 61.3315ZM60.6864 61.5644H59.9708V59.3761H60.6864V61.5644ZM60.7075 59.0659H59.9505V58.5355H60.7075V59.0659ZM59.6763 61.5644H58.9606V61.3378L58.8028 61.4542C58.7531 61.4896 58.7003 61.5205 58.645 61.5464C58.53 61.602 58.4031 61.6285 58.2755 61.6237C58.154 61.6282 58.0334 61.6022 57.9246 61.548C57.8158 61.4938 57.7224 61.4132 57.6528 61.3136C57.5002 61.1084 57.4237 60.8331 57.4231 60.4878C57.4231 60.2966 57.4489 60.1308 57.5005 59.9901C57.5778 59.7792 57.6255 59.7276 57.7153 59.6237C57.7988 59.5277 57.9026 59.4513 58.0192 59.4003C58.139 59.344 58.2643 59.3162 58.395 59.3167C58.4957 59.3138 58.5963 59.3259 58.6935 59.3526C58.7679 59.3771 58.8573 59.4149 58.9614 59.4659V58.5331H59.677L59.6763 61.5644ZM58.9606 60.962V59.8862C58.9154 59.8681 58.8686 59.8542 58.8208 59.8448C58.7727 59.8353 58.7238 59.8303 58.6747 59.83C58.5028 59.83 58.3737 59.8865 58.2872 59.9995C58.1575 60.169 58.156 60.2737 58.156 60.4792C58.1565 60.6948 58.1914 60.8508 58.2606 60.9472C58.3645 61.0917 58.4395 61.0901 58.5942 61.0901C58.6591 61.0892 58.7234 61.0781 58.7849 61.0573C58.8473 61.0332 58.9064 61.0012 58.9606 60.962ZM56.5278 61.6237C56.0958 61.6237 55.7614 61.5253 55.5325 61.3253C55.3036 61.1253 55.1841 60.8479 55.1841 60.4815C55.1851 60.1258 55.2935 59.8417 55.5091 59.6292C55.8325 59.3104 56.0247 59.3073 56.4122 59.3073C56.7638 59.3084 57.0291 59.3987 57.2083 59.5784C57.477 59.848 57.4739 60.0167 57.4739 60.3534V60.6011H55.9028C55.9106 60.7021 55.9336 60.7865 55.9716 60.8542C56.0077 60.92 56.0602 60.9755 56.1239 61.0151C56.1833 61.0568 56.2549 61.0865 56.3388 61.1042C56.4645 61.1308 56.5083 61.1284 56.6067 61.1284C56.6889 61.1296 56.7709 61.1214 56.8513 61.1042C56.927 61.0881 57.0009 61.064 57.0716 61.0323C57.1304 61.0078 57.1851 60.9821 57.2356 60.955L57.3575 60.8776H57.4317V61.4409L57.2708 61.5003C57.2055 61.5245 57.1387 61.5444 57.0708 61.5597L56.8325 61.6042C56.7317 61.6168 56.6302 61.6228 56.5286 61.6222L56.5278 61.6237ZM56.7661 60.1901C56.7599 60.044 56.7271 59.937 56.6614 59.8589C56.5958 59.7808 56.4919 59.7456 56.3575 59.7456C56.2185 59.7461 56.1091 59.786 56.0294 59.8651C55.9099 59.9839 55.9075 60.0526 55.9013 60.1901H56.7661ZM54.3513 61.5644V60.4729L54.345 60.1987C54.3435 60.1365 54.3313 60.0749 54.3091 60.0167C54.2897 59.973 54.2561 59.9372 54.2138 59.9151C54.1562 59.8911 54.0941 59.8799 54.0317 59.8823C53.9761 59.8827 53.9213 59.895 53.8708 59.9183C53.809 59.9437 53.75 59.9756 53.695 60.0136V61.5636H52.9763V60.4722L52.97 60.2011C52.9675 60.1386 52.9543 60.077 52.931 60.019C52.9107 59.9752 52.8774 59.9386 52.8356 59.9144C52.7794 59.8895 52.7181 59.8783 52.6567 59.8815C52.5972 59.8835 52.5386 59.8967 52.4841 59.9206L52.32 60.0128V61.5628H51.6044V59.3745H52.32V59.6159C52.4388 59.5232 52.55 59.4498 52.6536 59.3956C52.7614 59.3405 52.8811 59.3128 53.0021 59.3151C53.1317 59.3122 53.2595 59.3452 53.3716 59.4104C53.4805 59.4784 53.5659 59.5782 53.6161 59.6964C53.7536 59.5735 53.8838 59.4792 54.0067 59.4136C54.1199 59.3507 54.2468 59.3168 54.3763 59.3151C54.4836 59.3157 54.5789 59.3326 54.6622 59.3659C54.7456 59.3945 54.8198 59.445 54.877 59.512C54.9432 59.5829 54.9931 59.6674 55.0231 59.7597C55.0574 59.8838 55.0735 60.0122 55.0708 60.1409V61.5628L54.3513 61.5644ZM50.995 61.6089C50.7034 61.6078 50.4906 61.5503 50.3567 61.4362C50.156 61.2651 50.1599 61.1354 50.1599 60.8761V59.8534H49.8856V59.3761H50.1599V58.7534H50.8755V59.3761H51.5638V59.8534H50.8755V60.8284C50.8758 60.8817 50.8869 60.9343 50.9083 60.9831C50.9298 61.0288 50.9654 61.0663 51.0099 61.0901C51.0763 61.1202 51.1488 61.1344 51.2216 61.1315C51.273 61.1285 51.3241 61.1204 51.3739 61.1073C51.4186 61.0988 51.4617 61.0838 51.502 61.0628H51.5645V61.5456L51.3169 61.5901C51.2101 61.6035 51.1026 61.6103 50.995 61.6089ZM49.2872 61.6237C49.1109 61.6255 48.9352 61.6023 48.7653 61.555C48.6167 61.5131 48.4779 61.4422 48.3567 61.3464C48.2399 61.2505 48.1479 61.1277 48.0888 60.9886C48.0209 60.8284 47.9884 60.6554 47.9935 60.4815C47.9924 60.2711 48.0273 60.0933 48.0981 59.948C48.1626 59.8068 48.2585 59.6822 48.3786 59.5839C48.4993 59.4907 48.6371 59.422 48.7841 59.3815C48.9415 59.3388 49.1038 59.3167 49.2669 59.3159C49.5312 59.3151 49.7921 59.3753 50.0294 59.4917V60.0761H49.9372C49.9041 60.0461 49.8691 60.0182 49.8325 59.9925C49.7909 59.9623 49.745 59.9334 49.695 59.9058C49.62 59.8644 49.5849 59.855 49.5192 59.837C49.4483 59.8169 49.375 59.8069 49.3013 59.8073C49.1185 59.8068 48.9773 59.8675 48.8778 59.9894C48.7286 60.1722 48.7255 60.2753 48.7255 60.4815C48.7255 60.6998 48.7791 60.8628 48.8864 60.9706C49.0474 61.1323 49.1372 61.1315 49.313 61.1315C49.3932 61.1329 49.4733 61.124 49.5513 61.105C49.62 61.087 49.6763 61.0605 49.7271 61.0331C49.7778 61.0058 49.8138 60.9769 49.8489 60.9495L49.9356 60.869H50.0278V61.4534L49.888 61.5128C49.8333 61.5339 49.7775 61.5519 49.7208 61.5667L49.5271 61.6081C49.4471 61.6193 49.3664 61.6242 49.2856 61.623L49.2872 61.6237ZM47.1021 61.6237C46.6677 61.6237 46.3349 61.5253 46.1036 61.3284C45.7567 61.0331 45.7575 60.8487 45.7575 60.4847C45.757 60.1263 45.8653 59.8412 46.0825 59.6292C46.4083 59.3112 46.5981 59.3104 46.9856 59.3104C47.3377 59.3099 47.6021 59.4003 47.7786 59.5815C48.0435 59.8534 48.0442 60.0198 48.0442 60.3565V60.6011H46.4763C46.483 60.7021 46.506 60.7865 46.545 60.8542C46.5798 60.9208 46.6312 60.9773 46.6942 61.0183C46.7567 61.0578 46.8284 61.0868 46.9091 61.105C46.9972 61.1235 47.087 61.1324 47.1771 61.1315C47.2603 61.1315 47.3433 61.1226 47.4247 61.105C47.5044 61.0868 47.5778 61.0638 47.645 61.0362L47.806 60.9558L47.9278 60.8815H48.0052V61.4417L47.8442 61.5042C47.7789 61.5274 47.7121 61.5462 47.6442 61.5604C47.5647 61.5806 47.4841 61.5965 47.4028 61.6081C47.303 61.6195 47.2025 61.6252 47.1021 61.6237ZM47.3403 60.1901C47.3372 60.0472 47.2989 59.937 47.2333 59.862C47.1677 59.787 47.0661 59.7487 46.9294 59.7487C46.7927 59.7487 46.6817 59.7878 46.6044 59.8683C46.523 59.956 46.4763 60.0705 46.4731 60.1901H47.3403ZM45.9005 60.023H45.8411C45.8029 60.013 45.764 60.0059 45.7247 60.0019L45.5521 59.9956C45.4727 59.9955 45.3937 60.0055 45.3169 60.0253C45.2336 60.0472 45.1531 60.0719 45.0755 60.0995V61.5659H44.3599V59.3776H45.0755V59.6909C45.1193 59.6527 45.1652 59.617 45.213 59.5839C45.2619 59.5438 45.3148 59.5087 45.3708 59.4792C45.4208 59.449 45.4815 59.4232 45.5528 59.4019C45.6158 59.3828 45.6809 59.3718 45.7466 59.369L45.8239 59.3722C45.8498 59.373 45.8756 59.3751 45.9013 59.3784L45.9005 60.023ZM44.0622 61.5667H43.3466V59.3784H44.0622V61.5667ZM44.0833 59.0659H43.3263V58.5355H44.0833V59.0659ZM43.1888 60.1183C43.1934 60.3732 43.1286 60.6246 43.0013 60.8456C42.8886 61.047 42.7264 61.2164 42.5302 61.3378C42.3729 61.4331 42.201 61.4956 42.0145 61.5253C41.8182 61.5541 41.62 61.568 41.4216 61.5667H40.4677V58.6659H41.413C41.6144 58.6645 41.8157 58.6776 42.0153 58.705C42.2011 58.7318 42.3796 58.7956 42.5403 58.8925C42.7389 59.013 42.9025 59.1835 43.0145 59.387C43.1278 59.5925 43.1903 59.837 43.1903 60.1175L43.1888 60.1183ZM42.4021 60.112C42.4021 59.9214 42.3692 59.7573 42.2974 59.623C42.2284 59.4861 42.1179 59.3745 41.9817 59.3042C41.8802 59.2508 41.7682 59.2204 41.6536 59.2151L41.245 59.2065H41.2302V61.0222H41.245L41.6802 61.0136C41.7995 61.0078 41.9154 60.9718 42.0169 60.9089C42.1405 60.8357 42.2399 60.7279 42.3028 60.5987C42.3724 60.4464 42.4061 60.2802 42.4013 60.1128L42.4021 60.112ZM38.3896 61.6237C37.9575 61.6237 37.6231 61.5253 37.3942 61.3284C37.1653 61.1315 37.0458 60.8511 37.0458 60.4847C37.0458 60.1269 37.156 59.844 37.3708 59.6292C37.5856 59.4144 37.8864 59.3104 38.2739 59.3104C38.626 59.3099 38.8903 59.4003 39.0669 59.5815C39.3317 59.8534 39.3349 60.0198 39.3349 60.3565V60.6011H37.7638C37.7705 60.7026 37.7935 60.7881 37.8325 60.8573C37.8686 60.9232 37.9211 60.9786 37.9849 61.0183C38.0504 61.0603 38.1233 61.0897 38.1997 61.105C38.2878 61.1235 38.3777 61.1324 38.4677 61.1315C38.5499 61.1319 38.632 61.123 38.7122 61.105C38.7929 61.0878 38.8664 61.0649 38.9325 61.0362C38.9887 61.0126 39.0435 60.9858 39.0966 60.9558L39.2161 60.8815H39.2935V61.4448L39.1325 61.5042C39.0672 61.5284 39.0004 61.5483 38.9325 61.5636L38.6911 61.6081C38.5913 61.6195 38.4908 61.6245 38.3903 61.623L38.3896 61.6237ZM38.6278 60.1925C38.6242 60.0466 38.5893 59.9362 38.5231 59.8612C38.4239 59.7487 38.3536 59.7479 38.2192 59.7479C38.0802 59.7479 37.9708 59.7878 37.8911 59.8675C37.7716 59.987 37.7692 60.055 37.763 60.1925H38.6278ZM36.9169 61.5667H36.2013V58.5347H36.9169V61.5667ZM36.07 60.4433C36.069 60.7922 35.9755 61.0745 35.7896 61.2901C35.5106 61.6136 35.3724 61.6089 35.1013 61.6089C34.9867 61.6089 34.8872 61.5969 34.8028 61.573C34.7082 61.545 34.6172 61.5059 34.5317 61.4565V62.369H33.8161V59.3792H34.5317V59.6089C34.6301 59.5264 34.7382 59.4563 34.8536 59.4003C34.9721 59.345 35.1017 59.3175 35.2325 59.3198C35.4981 59.3203 35.7039 59.4206 35.8497 59.6206C36.0685 59.9206 36.07 60.0979 36.07 60.4433ZM35.3364 60.455C35.3359 60.243 35.301 60.0891 35.2317 59.9933C35.1278 59.8495 35.056 59.8472 34.9099 59.8472C34.8453 59.8492 34.7813 59.8591 34.7192 59.8769C34.6567 59.8948 34.5942 59.9276 34.5317 59.9659V61.0659C34.5708 61.0815 34.6125 61.0925 34.6567 61.0987C34.7231 61.1081 34.7583 61.1073 34.8208 61.1073C34.9935 61.1073 35.1247 61.0534 35.2083 60.9464C35.2919 60.8394 35.3364 60.6761 35.3364 60.455ZM32.8146 61.5667V60.4729L32.8083 60.2019C32.8052 60.1279 32.7932 60.0672 32.7724 60.0198C32.7411 59.9487 32.7185 59.9394 32.6771 59.9183C32.6195 59.894 32.5574 59.8828 32.495 59.8855C32.4399 59.8868 32.3854 59.8979 32.3341 59.9183C32.2738 59.9461 32.2161 59.9791 32.1614 60.0167V61.5667H31.4403V60.4729L31.4341 60.2019C31.4316 60.1394 31.4184 60.0778 31.395 60.0198C31.3762 59.9758 31.3425 59.9398 31.2997 59.9183C31.2435 59.8934 31.1822 59.8822 31.1208 59.8855C31.0621 59.8856 31.0041 59.8989 30.9513 59.9245C30.8942 59.9508 30.8393 59.9816 30.7872 60.0167V61.5667H30.0716V59.3784H30.7872V59.6198C30.9034 59.5256 31.0138 59.4521 31.1185 59.3995C31.2264 59.345 31.346 59.3174 31.4669 59.319C31.6075 59.3196 31.7317 59.3513 31.8396 59.4144C32.0013 59.5089 32.0247 59.5722 32.081 59.6972C32.2 59.5891 32.3311 59.495 32.4716 59.4167C32.5856 59.3533 32.7137 59.3194 32.8442 59.3183C32.9417 59.3162 33.0387 59.3323 33.1302 59.3659C33.2125 59.3967 33.2862 59.4468 33.345 59.512C33.4078 59.586 33.4563 59.671 33.488 59.7628C33.5203 59.8607 33.5362 59.987 33.5356 60.1417V61.5667H32.8146ZM29.7739 61.5667H29.0583V59.3784H29.7739V61.5667ZM29.795 59.0683H29.038V58.5347H29.795V59.0683ZM27.6396 61.6198C27.4044 61.6198 27.2013 61.5956 27.0224 61.5542C26.8435 61.5128 26.6825 61.4589 26.5302 61.3964V60.705H26.6021C26.7544 60.83 26.9208 60.923 27.106 60.9909C27.2777 61.055 27.4594 61.0883 27.6427 61.0894C27.6872 61.0894 27.7442 61.0831 27.8153 61.0776C27.8744 61.0694 27.9323 61.0545 27.988 61.0331C28.0388 61.0122 28.0846 60.9808 28.1224 60.9409C28.1416 60.9202 28.1565 60.8959 28.1662 60.8693C28.1759 60.8427 28.1801 60.8145 28.1786 60.7862C28.1797 60.7514 28.1722 60.7168 28.1566 60.6856C28.1411 60.6543 28.118 60.6275 28.0896 60.6073C28.0249 60.5612 27.9519 60.5277 27.8747 60.5089L27.5411 60.4347C27.4292 60.4118 27.3186 60.3829 27.2099 60.348C26.9739 60.2698 26.8049 60.1636 26.7028 60.0292C26.5497 59.8276 26.5505 59.7284 26.5505 59.5253C26.5505 59.255 26.6708 59.0354 26.9114 58.8667C27.2724 58.6136 27.4536 58.6159 27.8146 58.6159C27.9965 58.6148 28.1782 58.6318 28.3567 58.6667C28.5359 58.7026 28.6958 58.7503 28.8364 58.8097V59.4714H28.7708C28.6455 59.3731 28.5058 59.2946 28.3567 59.2386C28.196 59.1762 28.0252 59.1439 27.8528 59.1433C27.793 59.1423 27.7331 59.1462 27.6739 59.155C27.6159 59.165 27.5597 59.1831 27.5067 59.2089C27.4586 59.2297 27.4158 59.2612 27.3817 59.3011C27.3476 59.3386 27.3294 59.3879 27.331 59.4386C27.331 59.512 27.3578 59.5706 27.4114 59.6144C27.4919 59.68 27.5755 59.698 27.7333 59.7339L28.0286 59.7964C28.1313 59.8202 28.2327 59.8491 28.3325 59.8831C28.5445 59.955 28.7015 60.0524 28.8036 60.1753C28.9567 60.3597 28.9583 60.4612 28.9583 60.6612C28.9583 60.9508 28.839 61.1823 28.6005 61.3558C28.2427 61.6159 28.0427 61.6214 27.638 61.6214L27.6396 61.6198ZM74.3013 56.6901H54.6294V28.6394H62.031V51.3456H74.3005L74.3013 56.6901ZM52.6981 42.6855C52.6987 45.2969 52.0984 47.636 50.8974 49.7026C49.0958 52.8026 48.1786 53.3542 46.3458 54.4604C44.822 55.4012 43.1217 56.0201 41.3497 56.2792C39.5492 56.55 37.6325 56.6852 35.5997 56.6847H26.3794V28.63H35.5224C37.5937 28.6295 39.5323 28.7558 41.338 29.0089C43.142 29.2605 44.8744 29.8827 46.4263 30.8362C48.348 31.9991 49.9309 33.6458 51.0169 35.612C52.1377 37.6162 52.6981 39.975 52.6981 42.6886V42.6855ZM45.0997 42.6292C45.0997 40.7808 44.7659 39.2008 44.0981 37.8894C43.0966 35.9222 42.4083 35.5495 41.0216 34.8073C40.0467 34.2877 38.9681 33.9922 37.8646 33.9425L33.9177 33.8651H33.7778V51.4292H33.9177L38.1239 51.3425C39.2625 51.2852 40.3476 50.9493 41.3794 50.3347C42.5927 49.6073 43.5169 48.5995 44.1489 47.3206C44.781 46.0417 45.0997 44.4737 45.0997 42.6284V42.6292ZM12.2552 57.1878C9.99893 57.1873 8.01663 56.9797 6.3083 56.5651C3.7458 55.9433 3.01455 55.6355 1.54736 55.0214V48.3503H2.2208C3.69971 49.5456 5.32705 50.4605 7.10986 51.1019C8.89268 51.7433 10.6185 52.0644 12.2935 52.0644C12.7169 52.0644 13.2744 52.0196 13.9661 51.93C15.0036 51.7956 15.2153 51.7034 15.6388 51.5159C16.1338 51.3162 16.5793 51.0109 16.9442 50.6214C17.3021 50.2362 17.4778 49.7331 17.4778 49.1042C17.4784 48.4021 17.1882 47.8308 16.6075 47.3901C15.7364 46.7292 15.3349 46.63 14.5302 46.4276L11.3138 45.712C10.2325 45.5022 9.16535 45.2254 8.11846 44.8831C5.8346 44.1159 4.19893 43.0865 3.21143 41.7948C1.73018 39.8573 1.72705 38.8792 1.72705 36.9331C1.72601 34.3071 2.89346 32.1808 5.22939 30.5542C8.7333 28.1144 10.4786 28.1128 13.9755 28.1128C15.7326 28.114 17.4855 28.2846 19.2099 28.6222C20.9442 28.9623 22.4984 29.4214 23.8724 29.9995V36.4058H23.2192C22.1224 35.5146 20.7859 34.7604 19.2099 34.1433C16.8458 33.2175 16.0146 33.219 14.3513 33.219C13.7683 33.2138 13.1859 33.2587 12.6106 33.3534C12.0504 33.456 11.5048 33.6263 10.9856 33.8604C10.5234 34.0637 10.1144 34.3709 9.79033 34.7581C9.45283 35.1539 9.28382 35.5961 9.2833 36.0847C9.2833 36.8008 9.55049 37.3693 10.0849 37.7901C10.8864 38.4214 11.6528 38.5917 13.1817 38.9315L16.0435 39.5519C16.9591 39.7534 17.9388 40.0297 18.9825 40.3808C21.0247 41.0839 22.5481 42.0292 23.5435 43.2183C24.5388 44.4073 25.0372 45.9698 25.0372 47.919C25.0372 50.7065 23.8864 52.9482 21.5849 54.644C18.1325 57.1878 16.1716 57.187 12.2544 57.187L12.2552 57.1878Z" fill="#173354"/>
<path fill-rule="evenodd" clip-rule="evenodd" d="M24.3454 69.6189C24.1634 69.6189 24.0142 69.747 24.0142 69.9048C24.0142 70.0626 24.1634 70.1939 24.3454 70.1939C24.5274 70.1939 24.6735 70.0626 24.6735 69.9048C24.6735 69.747 24.5274 69.6189 24.3454 69.6189ZM38.4868 72.1916C38.204 72.1916 37.9712 72.3916 37.9712 72.6384C37.9712 72.8853 38.204 73.0884 38.4868 73.0884C38.7696 73.0884 39.0024 72.8884 39.0024 72.6384C39.0024 72.3884 38.7728 72.1916 38.4868 72.1916ZM31.1478 71.2197C30.9212 71.2197 30.736 71.3806 30.736 71.5806C30.736 71.7806 30.9212 71.9384 31.1478 71.9384C31.3743 71.9384 31.5618 71.7775 31.5618 71.5806C31.5618 71.3837 31.3767 71.2197 31.1478 71.2197ZM46.5267 72.4806C46.172 72.4806 45.8829 72.7314 45.8829 73.0408C45.8829 73.3501 46.172 73.6009 46.5267 73.6009C46.8813 73.6009 47.1704 73.3501 47.1704 73.0408C47.1704 72.7314 46.8813 72.4806 46.5267 72.4806ZM54.829 72.0486C54.3821 72.0486 54.0212 72.3619 54.0212 72.7494C54.0212 73.1369 54.3821 73.4501 54.829 73.4501C55.2759 73.4501 55.6337 73.1345 55.6337 72.7494C55.6337 72.3642 55.2728 72.0486 54.829 72.0486ZM63.1462 70.6236C62.5915 70.6236 62.1415 71.0142 62.1415 71.5001C62.1415 71.9861 62.5915 72.3736 63.1462 72.3736C63.7009 72.3736 64.154 71.983 64.154 71.5001C64.154 71.0173 63.704 70.6236 63.1462 70.6236ZM71.472 68.015C70.7774 68.015 70.2142 68.5072 70.2142 69.1119C70.2142 69.7166 70.7774 70.2056 71.472 70.2056C72.1665 70.2056 72.7329 69.7134 72.7329 69.1119C72.7329 68.5103 72.1665 68.015 71.472 68.015ZM79.4431 64.5478C78.6712 64.5478 78.0446 65.09 78.0446 65.7642C78.0446 66.4384 78.6704 66.9806 79.4431 66.9806C80.2157 66.9806 80.8415 66.4353 80.8415 65.7642C80.8415 65.0931 80.2157 64.5478 79.4431 64.5478ZM86.711 59.5603C85.8524 59.5603 85.1548 60.1658 85.1548 60.9103C85.1548 61.6548 85.8524 62.2634 86.711 62.2634C87.5696 62.2634 88.2642 61.658 88.2642 60.9103C88.2642 60.1626 87.5696 59.5603 86.711 59.5603ZM92.7025 52.5431C91.5845 52.5431 90.6814 53.3298 90.6814 54.3017C90.6814 55.2736 91.5845 56.0572 92.7025 56.0572C93.8204 56.0572 94.7235 55.2705 94.7235 54.3017C94.7235 53.333 93.8173 52.5431 92.7025 52.5431ZM95.2751 45.2634C94.4165 45.2634 93.722 45.8689 93.722 46.6166C93.722 47.3642 94.4165 47.9666 95.2751 47.9666C96.1337 47.9666 96.8314 47.3611 96.8314 46.6166C96.8314 45.872 96.1368 45.2634 95.2751 45.2634ZM94.4079 40.7205C95.022 40.7205 95.5196 40.2884 95.5196 39.758C95.5196 39.2275 95.022 38.7923 94.4079 38.7923C93.7939 38.7923 93.2993 39.2244 93.2993 39.758C93.2993 40.2916 93.797 40.7205 94.4079 40.7205ZM91.6985 35.4712C92.1368 35.4712 92.4915 35.1642 92.4915 34.783C92.4915 34.4017 92.1337 34.0947 91.6985 34.0947C91.2634 34.0947 90.9025 34.4017 90.9025 34.783C90.9025 35.1642 91.2603 35.4712 91.6985 35.4712ZM88.715 31.0681C88.4259 31.0681 88.1876 31.2767 88.1876 31.5298C88.1876 31.783 88.4259 31.9892 88.715 31.9892C89.004 31.9892 89.2454 31.7837 89.2454 31.5298C89.2454 31.2759 89.0071 31.0681 88.715 31.0681ZM85.5431 29.265C85.7368 29.265 85.8946 29.1275 85.8946 28.9611C85.8946 28.7947 85.7368 28.6541 85.5431 28.6541C85.3493 28.6541 85.1915 28.7916 85.1915 28.9611C85.1915 29.1306 85.3493 29.265 85.5431 29.265Z" fill="#173354"/>
<defs>
<radialGradient id="paint0_radial_1085_4023" cx="0" cy="0" r="1" gradientTransform="matrix(-14.2806 -27.9369 47.3207 -24.3107 90.3558 57.9413)" gradientUnits="userSpaceOnUse">
<stop stop-color="#656F71"/>
<stop offset="1" stop-color="#D3D4CF"/>
</radialGradient>
</defs>
</svg>
