<svg width="100" height="100" viewBox="0 0 100 100" fill="none" xmlns="http://www.w3.org/2000/svg">
<g clip-path="url(#clip0_1085_4030)">
<mask id="mask0_1085_4030" style="mask-type:luminance" maskUnits="userSpaceOnUse" x="-4" y="1" width="108" height="98">
<path d="M-3.23999 1.90234H103.239V98.0959H-3.23999V1.90234Z" fill="white"/>
</mask>
<g mask="url(#mask0_1085_4030)">
<path d="M49.9999 96.377C62.9231 96.3766 75.3169 91.4902 84.455 82.7925C93.5931 74.0949 98.727 62.2985 98.7274 49.9982C98.727 37.6979 93.5931 25.9015 84.455 17.2038C75.3169 8.5062 62.9231 3.61976 49.9999 3.61938C37.0767 3.61976 24.6829 8.5062 15.5448 17.2038C6.40675 25.9015 1.27285 37.6979 1.27246 49.9982C1.27285 62.2985 6.40675 74.0949 15.5448 82.7925C24.6829 91.4902 37.0767 96.3766 49.9999 96.377Z" fill="white" stroke="white" stroke-width="0.721397"/>
</g>
<mask id="mask1_1085_4030" style="mask-type:luminance" maskUnits="userSpaceOnUse" x="3" y="5" width="94" height="90">
<path d="M49.9994 94.6617C62.4441 94.6613 74.379 89.9558 83.1787 81.5802C91.9784 73.2047 96.9222 61.845 96.9226 50.0002C96.9222 38.1553 91.9784 26.7957 83.1787 18.4201C74.379 10.0445 62.4441 5.339 49.9994 5.33862C37.5547 5.339 25.6198 10.0445 16.8201 18.4201C8.02037 26.7957 3.07656 38.1553 3.07617 50.0002C3.07656 61.845 8.02037 73.2047 16.8201 81.5802C25.6198 89.9558 37.5547 94.6613 49.9994 94.6617Z" fill="white"/>
</mask>
<g mask="url(#mask1_1085_4030)">
<path d="M-13.1663 61.6894V112.698H113.164V65.4899L111.36 65.3738L109.556 65.2414L107.751 65.0901L105.946 64.9191L104.142 64.7249L102.337 64.5067L100.532 64.2632L98.7276 63.9915L96.9227 63.6903L95.1177 63.3574L93.3135 62.9921L91.5085 62.5931L89.7036 62.1588L87.8993 61.6894L86.0944 61.1841L84.2894 60.6421L82.4852 60.0657L80.6802 59.4555L78.8752 58.8116L77.071 58.138L75.2653 57.4363L73.4611 56.71L71.6568 55.9633L69.8511 55.1997L68.0469 54.4255L66.2427 53.6443L64.437 52.8645L62.6327 52.0903L60.8285 51.3295L59.0228 50.5877L57.2186 49.8726L55.4136 49.1914L53.6094 48.5509L51.8044 47.9562L49.9994 47.4157L48.1952 46.9336L46.3903 46.5169L44.5853 46.1685L42.7811 45.8941L40.9761 45.6949L39.1711 45.5745L37.3669 45.5344L35.5619 45.5745L33.757 45.6942L31.9527 45.8934L30.1478 46.1685L28.3428 46.5169L26.5386 46.9336L24.7336 47.4157L22.9286 47.9562L21.1244 48.5502L19.3187 49.1914L17.5145 49.8726L15.7103 50.5877L13.9045 51.3295L12.1003 52.0903L10.2961 52.8645L8.49039 53.645L6.68616 54.4255L4.88193 55.1997L3.07623 55.9633L1.272 56.7093L-0.53297 57.4363L-2.3372 58.138L-4.14216 58.8116L-5.94713 59.4555L-7.75136 60.0657L-9.55633 60.6428L-11.3613 61.1841L-13.1663 61.6894Z" fill="#5C7DA2"/>
</g>
<mask id="mask2_1085_4030" style="mask-type:luminance" maskUnits="userSpaceOnUse" x="3" y="5" width="94" height="90">
<path d="M49.9994 94.6617C62.4441 94.6613 74.379 89.9558 83.1787 81.5802C91.9784 73.2047 96.9222 61.845 96.9226 50.0002C96.9222 38.1553 91.9784 26.7957 83.1787 18.4201C74.379 10.0445 62.4441 5.339 49.9994 5.33862C37.5547 5.339 25.6198 10.0445 16.8201 18.4201C8.02037 26.7957 3.07656 38.1553 3.07617 50.0002C3.07656 61.845 8.02037 73.2047 16.8201 81.5802C25.6198 89.9558 37.5547 94.6613 49.9994 94.6617Z" fill="white"/>
</mask>
<g mask="url(#mask2_1085_4030)">
<path d="M-13.1663 45.0636V60.83L-11.362 60.324L-9.55633 59.7828L-7.7521 59.2064L-5.94713 58.5955L-4.1429 57.9522L-2.33794 57.2787L-0.53297 56.5763L1.27126 55.8507L3.07623 55.1032L4.88119 54.3403L6.68542 53.5661L8.49039 52.7849L10.2954 52.0051L12.0996 51.2309L13.9045 50.4694L15.7095 49.7283L17.5137 49.0133L19.3187 48.332L21.1237 47.6915L22.9279 47.0968L24.7336 46.5563L26.5378 46.0742L28.3421 45.6569L30.1478 45.3092L31.952 45.034L33.7562 44.8348L35.5619 44.7152L37.3662 44.6751L39.1704 44.7152L40.9761 44.8348L42.7803 45.034L44.5853 45.3085L46.3895 45.6569L48.1945 46.0742L49.9994 46.5563L51.8037 47.0968L53.6086 47.6908L55.4136 48.3313L57.2178 49.0133L59.0228 49.7283L60.8278 50.4694L62.632 51.2309L64.437 52.0051L66.2419 52.7856L68.0462 53.5654L69.8511 54.3396L71.6561 55.1032L73.4603 55.8507L75.2653 56.5763L77.0703 57.2787L78.8745 57.9522L80.6802 58.5955L82.4844 59.2064L84.2887 59.7835L86.0944 60.324L87.8986 60.83L89.7028 61.2995L91.5085 61.7337L93.3127 62.1328L95.1177 62.498L96.9219 62.8309L98.7269 63.1321L100.532 63.4038L102.336 63.648L104.141 63.8662L105.946 64.059L107.75 64.2308L109.555 64.3821L111.36 64.5144L113.164 64.6305V40.0286L111.36 39.4522L109.556 38.8413L107.751 38.198L105.946 37.5245L104.142 36.8228L102.337 36.0965L100.532 35.3491L98.7276 34.5861L96.9227 33.812L95.1177 33.0308L93.3135 32.2509L91.5085 31.4768L89.7036 30.716L87.8993 29.9742L86.0944 29.2591L84.2894 28.5778L82.4852 27.9374L80.6802 27.3427L78.8752 26.8022L77.071 26.32L75.2653 25.9027L73.4611 25.555L71.6568 25.2805L69.8511 25.0814L68.0469 24.961L66.2427 24.9209L64.437 24.961L62.6327 25.0807L60.8285 25.2798L59.0228 25.5543L57.2186 25.9027L55.4136 26.32L53.6094 26.8022L51.8044 27.3427L49.9994 27.9367L48.1952 28.5778L46.3903 29.2591L44.5853 29.9742L42.7811 30.716L40.9761 31.4768L39.1711 32.2509L37.3669 33.0315L35.5619 33.812L33.757 34.5861L31.9527 35.3491L30.1478 36.0965L28.3428 36.8228L26.5386 37.5245L24.7336 38.198L22.9286 38.8413L21.1244 39.4522L19.3187 40.0293L17.5145 40.5705L15.7103 41.0759L13.9045 41.5453L12.1003 41.9795L10.2961 42.3786L8.49039 42.7446L6.68616 43.0767L4.88193 43.378L3.07623 43.6496L1.272 43.8939L-0.53297 44.112L-2.3372 44.3056L-4.14216 44.4766L-5.94713 44.6279L-7.75136 44.7602L-9.55633 44.8764L-11.3613 44.977L-13.1663 45.0636Z" fill="#7DB0BC"/>
</g>
<mask id="mask3_1085_4030" style="mask-type:luminance" maskUnits="userSpaceOnUse" x="-4" y="1" width="108" height="98">
<path d="M-3.23999 1.90234H103.239V98.0959H-3.23999V1.90234Z" fill="white"/>
</mask>
<g mask="url(#mask3_1085_4030)">
<path d="M99.6295 49.9997C99.6291 40.6571 96.718 31.5244 91.2645 23.7564C85.811 15.9884 78.0599 9.93403 68.9914 6.35878C59.9228 2.78353 49.9441 1.84799 40.3169 3.67045C30.6898 5.49292 21.8466 9.99154 14.9055 16.5975C7.96502 23.204 3.23859 31.621 1.32383 40.7841C-0.590924 49.9472 0.391994 59.445 4.1483 68.0765C7.9046 76.7079 14.2656 84.0854 22.4269 89.276C30.5883 94.4667 40.1835 97.2374 49.9992 97.2378C63.1619 97.2377 75.7855 92.2607 85.0929 83.4019C94.4004 74.5431 99.6293 62.528 99.6295 49.9997ZM98.7274 49.9997C98.7269 59.1724 95.8687 68.139 90.5143 75.7657C85.1599 83.3924 77.5497 89.3367 68.6461 92.8469C59.7424 96.3571 49.9451 97.2757 40.493 95.4864C31.0409 93.6971 22.3585 89.2803 15.5436 82.7945C8.72968 76.3081 4.08946 68.0442 2.2097 59.0478C0.329934 50.0514 1.29505 40.7265 4.983 32.2521C8.67095 23.7778 14.9161 16.5345 22.9289 11.4383C30.9416 6.34198 40.3621 3.62153 49.9992 3.62088C62.9224 3.62125 75.3162 8.5077 84.4543 17.2053C93.5924 25.903 98.727 37.6994 98.7274 49.9997Z" fill="#444876" stroke="#444876" stroke-width="0.721397"/>
</g>
<mask id="mask4_1085_4030" style="mask-type:luminance" maskUnits="userSpaceOnUse" x="3" y="5" width="94" height="90">
<path d="M49.9994 94.6617C62.4441 94.6613 74.379 89.9558 83.1787 81.5802C91.9784 73.2047 96.9222 61.845 96.9226 50.0002C96.9222 38.1553 91.9784 26.7957 83.1787 18.4201C74.379 10.0445 62.4441 5.339 49.9994 5.33862C37.5547 5.339 25.6198 10.0445 16.8201 18.4201C8.02037 26.7957 3.07656 38.1553 3.07617 50.0002C3.07656 61.845 8.02037 73.2047 16.8201 81.5802C25.6198 89.9558 37.5547 94.6613 49.9994 94.6617Z" fill="white"/>
</mask>
<g mask="url(#mask4_1085_4030)">
<path d="M8.48999 113.557H19.3183V65.5873H8.48999V113.557ZM19.3183 113.557H30.1474V58.4093H19.3183V113.557ZM30.1474 113.557H40.9757V57.115H30.1474V113.557ZM40.9757 113.557H51.8033V62.8749H40.9757V113.557ZM51.8033 113.557H62.6324V70.8299H51.8033V113.557ZM62.6324 113.557H73.4607V76.2716H62.6324V113.557ZM73.4607 113.557H84.289V78.5681H73.4607V113.557Z" fill="#444876"/>
<path d="M19.3183 113.557H8.48999V65.5873H19.3183V113.557ZM19.3183 113.557H30.1474M19.3183 113.557V58.4093H30.1474V113.557M30.1474 113.557H40.9757M30.1474 113.557V57.115H40.9757V113.557M40.9757 113.557H51.8033M40.9757 113.557V62.8749H51.8033V113.557M51.8033 113.557H62.6324M51.8033 113.557V70.8299H62.6324V113.557M62.6324 113.557H73.4607M62.6324 113.557V76.2716H73.4607V113.557M73.4607 113.557H84.289V78.5681H73.4607V113.557Z" stroke="white" stroke-width="0.721397"/>
</g>
<path d="M57.5823 6.22534C57.1813 6.22884 56.7943 6.36545 56.4879 6.61158C56.1814 6.85772 55.9749 7.19795 55.9039 7.57355C55.8329 7.94915 55.9018 8.33656 56.0989 8.66892C56.296 9.00129 56.6087 9.25774 56.9832 9.39405C56.5632 9.53634 56.2091 9.81468 55.9828 10.1804C55.7566 10.5461 55.6727 10.9758 55.7457 11.3944C55.8187 11.8131 56.0441 12.194 56.3824 12.4704C56.7206 12.7469 57.1502 12.9014 57.5961 12.9068C58.0534 12.9171 58.4994 12.7701 58.852 12.4926C59.2046 12.2151 59.4402 11.8259 59.5155 11.3964C59.5909 10.9669 59.5009 10.526 59.2621 10.1545C59.0234 9.78307 58.6518 9.50608 58.2158 9.3744C58.5778 9.22787 58.8762 8.96771 59.0613 8.63725C59.2463 8.30679 59.3069 7.92596 59.2328 7.55818C59.1588 7.19041 58.9546 6.85788 58.6543 6.61596C58.3539 6.37404 57.9756 6.23406 57.5823 6.22534ZM54.1189 6.85778C53.708 6.85778 53.3139 7.01313 53.0234 7.28967C52.7328 7.56621 52.5696 7.94127 52.5696 8.33236C52.5696 8.72344 52.7328 9.09851 53.0234 9.37505C53.3139 9.65158 53.708 9.80694 54.1189 9.80694C54.5297 9.80694 54.9238 9.65158 55.2143 9.37505C55.5049 9.09851 55.6681 8.72344 55.6681 8.33236C55.6681 7.94127 55.5049 7.56621 55.2143 7.28967C54.9238 7.01313 54.5297 6.85778 54.1189 6.85778ZM47.0508 6.9954C46.7879 6.9954 46.5357 7.09483 46.3497 7.27182C46.1638 7.4488 46.0593 7.68885 46.0593 7.93914C46.0593 8.18943 46.1638 8.42946 46.3497 8.60645C46.5357 8.78343 46.7879 8.88286 47.0508 8.88286C47.3138 8.88286 47.566 8.78343 47.7519 8.60645C47.9379 8.42946 48.0423 8.18943 48.0423 7.93914C48.0423 7.68885 47.9379 7.4488 47.7519 7.27182C47.566 7.09483 47.3138 6.9954 47.0508 6.9954ZM50.6657 7.30014C50.3096 7.30014 49.9681 7.4348 49.7163 7.67446C49.4645 7.91413 49.3231 8.23918 49.3231 8.57812C49.3231 8.91706 49.4645 9.24212 49.7163 9.48179C49.9681 9.72145 50.3096 9.85609 50.6657 9.85609C51.0218 9.85609 51.3634 9.72145 51.6152 9.48179C51.867 9.24212 52.0084 8.91706 52.0084 8.57812C52.0084 8.23918 51.867 7.91413 51.6152 7.67446C51.3634 7.4348 51.0218 7.30014 50.6657 7.30014ZM34.9632 8.46671C34.587 8.48407 34.2322 8.63855 33.9724 8.89813C33.7126 9.15771 33.5676 9.50248 33.5676 9.861C33.5676 10.2195 33.7126 10.5643 33.9724 10.8239C34.2322 11.0835 34.587 11.2379 34.9632 11.2553C35.3395 11.2379 35.6942 11.0835 35.9541 10.8239C36.2139 10.5643 36.3588 10.2195 36.3588 9.861C36.3588 9.50248 36.2139 9.15771 35.9541 8.89813C35.6942 8.63855 35.3395 8.48407 34.9632 8.46671ZM65.1323 8.65021C64.7835 8.65021 64.449 8.78209 64.2024 9.01684C63.9557 9.25159 63.8172 9.56998 63.8172 9.90197C63.8172 10.234 63.9557 10.5523 64.2024 10.7871C64.449 11.0218 64.7835 11.1537 65.1323 11.1537C65.4811 11.1537 65.8156 11.0218 66.0623 10.7871C66.3089 10.5523 66.4475 10.234 66.4475 9.90197C66.4475 9.56998 66.3089 9.25159 66.0623 9.01684C65.8156 8.78209 65.4811 8.65021 65.1323 8.65021ZM39.8623 8.86975C39.3997 8.88904 38.9628 9.07751 38.6427 9.39587C38.3225 9.71424 38.1438 10.1379 38.1438 10.5786C38.1438 11.0193 38.3225 11.443 38.6427 11.7614C38.9628 12.0798 39.3997 12.2682 39.8623 12.2875C40.1047 12.2976 40.3467 12.2609 40.5738 12.1796C40.8009 12.0982 41.0083 11.974 41.1836 11.8143C41.3589 11.6546 41.4983 11.4628 41.5936 11.2505C41.6889 11.0381 41.7381 10.8096 41.7381 10.5786C41.7381 10.3477 41.6889 10.1192 41.5936 9.90679C41.4983 9.69442 41.3589 9.50261 41.1836 9.34293C41.0083 9.18325 40.8009 9.05901 40.5738 8.97769C40.3467 8.89637 40.1047 8.85965 39.8623 8.86975ZM43.6425 9.35473C43.4069 9.35473 43.181 9.4438 43.0144 9.60235C42.8478 9.7609 42.7542 9.97594 42.7542 10.2002C42.7542 10.4244 42.8478 10.6394 43.0144 10.798C43.181 10.9565 43.4069 11.0456 43.6425 11.0456C43.878 11.0456 44.104 10.9565 44.2705 10.798C44.4371 10.6394 44.5307 10.4244 44.5307 10.2002C44.5307 9.97594 44.4371 9.7609 44.2705 9.60235C44.104 9.4438 43.878 9.35473 43.6425 9.35473ZM61.0182 9.45631C60.7461 9.45631 60.4851 9.5592 60.2927 9.74233C60.1003 9.92546 59.9922 10.1738 59.9922 10.4328C59.9922 10.6918 60.1003 10.9402 60.2927 11.1233C60.4851 11.3064 60.7461 11.4093 61.0182 11.4093C61.2903 11.4093 61.5512 11.3064 61.7436 11.1233C61.936 10.9402 62.0441 10.6918 62.0441 10.4328C62.0441 10.1738 61.936 9.92546 61.7436 9.74233C61.5512 9.5592 61.2903 9.45631 61.0182 9.45631ZM31.7683 9.70208C31.4271 9.7186 31.1056 9.85924 30.8703 10.0949C30.6349 10.3306 30.5037 10.6434 30.5037 10.9686C30.5037 11.2938 30.6349 11.6065 30.8703 11.8422C31.1056 12.0779 31.4271 12.2185 31.7683 12.2351C32.1095 12.2185 32.431 12.0779 32.6664 11.8422C32.9017 11.6065 33.033 11.2938 33.033 10.9686C33.033 10.6434 32.9017 10.3306 32.6664 10.0949C32.431 9.85924 32.1095 9.7186 31.7683 9.70208ZM53.9088 9.79055C53.4514 9.79055 53.0127 9.96352 52.6892 10.2714C52.3657 10.5793 52.184 10.9968 52.184 11.4322C52.184 11.8677 52.3657 12.2852 52.6892 12.5931C53.0127 12.901 53.4514 13.0739 53.9088 13.0739C54.3663 13.0739 54.805 12.901 55.1285 12.5931C55.452 12.2852 55.6337 11.8677 55.6337 11.4322C55.6337 10.9968 55.452 10.5793 55.1285 10.2714C54.805 9.96352 54.3663 9.79055 53.9088 9.79055ZM68.0311 10.7572C67.5906 10.7572 67.168 10.9238 66.8565 11.2203C66.545 11.5168 66.37 11.919 66.37 12.3383C66.37 12.7576 66.545 13.1598 66.8565 13.4563C67.168 13.7528 67.5906 13.9194 68.0311 13.9194C68.3666 13.9146 68.6933 13.8167 68.971 13.6376C68.8597 13.9123 68.82 14.2087 68.8554 14.5013C68.8908 14.7938 69.0001 15.0738 69.1741 15.3174C69.348 15.5609 69.5814 15.7607 69.8542 15.8996C70.1271 16.0385 70.4312 16.1123 70.7406 16.1149C71.0012 16.1298 71.2622 16.0938 71.5076 16.0091C71.753 15.9244 71.9777 15.7929 72.1677 15.6226C72.3577 15.4522 72.5091 15.2467 72.6126 15.0186C72.7161 14.7905 72.7695 14.5447 72.7695 14.2962C72.7695 14.0478 72.7161 13.8019 72.6126 13.5738C72.5091 13.3457 72.3577 13.1402 72.1677 12.9699C71.9777 12.7995 71.753 12.668 71.5076 12.5833C71.2622 12.4987 71.0012 12.4627 70.7406 12.4776C70.3344 12.4794 69.9392 12.6032 69.6114 12.8315C69.6937 12.5939 69.7156 12.341 69.6752 12.0938C69.6348 11.8466 69.5332 11.612 69.3789 11.4095C69.2246 11.2069 69.0219 11.0422 68.7876 10.9288C68.5533 10.8154 68.294 10.7566 68.0311 10.7572ZM47.4536 11.4781C47.0873 11.4953 46.7419 11.6458 46.489 11.8987C46.236 12.1515 46.095 12.4873 46.095 12.8364C46.095 13.1855 46.236 13.5212 46.489 13.7741C46.7419 14.0269 47.0873 14.1775 47.4536 14.1946C47.8145 14.1707 48.1525 14.0174 48.3992 13.7656C48.646 13.5139 48.7833 13.1824 48.7833 12.838C48.7833 12.4937 48.646 12.1622 48.3992 11.9104C48.1525 11.6586 47.8145 11.502 47.4536 11.4781ZM63.8757 11.7862C63.4876 11.7862 63.1155 11.9329 62.8411 12.194C62.5667 12.4552 62.4125 12.8095 62.4125 13.1788C62.4125 13.5482 62.5667 13.9024 62.8411 14.1636C63.1155 14.4247 63.4876 14.5715 63.8757 14.5715C64.2638 14.5715 64.6359 14.4247 64.9103 14.1636C65.1847 13.9024 65.3389 13.5482 65.3389 13.1788C65.3389 12.8095 65.1847 12.4552 64.9103 12.194C64.6359 11.9329 64.2638 11.7862 63.8757 11.7862ZM43.071 12.3072C42.766 12.3072 42.4735 12.4225 42.2579 12.6277C42.0422 12.833 41.9211 13.1114 41.9211 13.4016C41.9211 13.6919 42.0422 13.9703 42.2579 14.1755C42.4735 14.3808 42.766 14.4961 43.071 14.4961C43.3759 14.4961 43.6684 14.3808 43.8841 14.1755C44.0997 13.9703 44.2209 13.6919 44.2209 13.4016C44.2209 13.1114 44.0997 12.833 43.8841 12.6277C43.6684 12.4225 43.3759 12.3072 43.071 12.3072ZM51.8742 12.4972C51.4039 12.4972 50.9529 12.675 50.6204 12.9915C50.2879 13.308 50.1011 13.7372 50.1011 14.1848C50.1011 14.6324 50.2879 15.0616 50.6204 15.3781C50.9529 15.6946 51.4039 15.8724 51.8742 15.8724C52.3444 15.8724 52.7954 15.6946 53.1279 15.3781C53.4604 15.0616 53.6472 14.6324 53.6472 14.1848C53.6472 13.7372 53.4604 13.308 53.1279 12.9915C52.7954 12.675 52.3444 12.4972 51.8742 12.4972ZM35.521 12.6185C35.0498 12.6185 34.5979 12.7966 34.2648 13.1137C33.9316 13.4308 33.7445 13.8609 33.7445 14.3093C33.7445 14.7578 33.9316 15.1878 34.2648 15.5049C34.5979 15.822 35.0498 16.0002 35.521 16.0002C35.9921 16.0002 36.444 15.822 36.7771 15.5049C37.1103 15.1878 37.2974 14.7578 37.2974 14.3093C37.2974 13.8609 37.1103 13.4308 36.7771 13.1137C36.444 12.7966 35.9921 12.6185 35.521 12.6185ZM74.1421 12.8741C73.8581 12.8741 73.5858 12.9814 73.385 13.1725C73.1842 13.3637 73.0714 13.6229 73.0714 13.8932C73.0714 14.1634 73.1842 14.4226 73.385 14.6138C73.5858 14.8049 73.8581 14.9123 74.1421 14.9123C74.426 14.9123 74.6984 14.8049 74.8992 14.6138C75.1 14.4226 75.2128 14.1634 75.2128 13.8932C75.2128 13.6229 75.1 13.3637 74.8992 13.1725C74.6984 12.9814 74.426 12.8741 74.1421 12.8741ZM60.667 13.3C60.3109 13.3 59.9694 13.4347 59.7176 13.6744C59.4658 13.914 59.3243 14.2391 59.3243 14.578C59.3243 14.917 59.4658 15.242 59.7176 15.4817C59.9694 15.7213 60.3109 15.856 60.667 15.856C61.0231 15.856 61.3646 15.7213 61.6164 15.4817C61.8682 15.242 62.0097 14.917 62.0097 14.578C62.0097 14.2391 61.8682 13.914 61.6164 13.6744C61.3646 13.4347 61.0231 13.3 60.667 13.3ZM27.9468 13.785C27.5839 13.785 27.2358 13.9223 26.9791 14.1665C26.7225 14.4108 26.5783 14.7421 26.5783 15.0876C26.5783 15.433 26.7225 15.7643 26.9791 16.0086C27.2358 16.2529 27.5839 16.3901 27.9468 16.3901C28.3098 16.3901 28.6579 16.2529 28.9145 16.0086C29.1712 15.7643 29.3153 15.433 29.3153 15.0876C29.3153 14.7421 29.1712 14.4108 28.9145 14.1665C28.6579 13.9223 28.3098 13.785 27.9468 13.785ZM31.3449 13.9259C30.9318 13.9441 30.5419 14.1131 30.2564 14.3978C29.9708 14.6825 29.8115 15.061 29.8115 15.4546C29.8115 15.8482 29.9708 16.2266 30.2564 16.5113C30.5419 16.796 30.9318 16.965 31.3449 16.9832C31.562 16.9928 31.779 16.9604 31.9826 16.8878C32.1862 16.8153 32.3723 16.7043 32.5295 16.5614C32.6867 16.4185 32.8119 16.2468 32.8974 16.0565C32.9829 15.8663 33.027 15.6615 33.027 15.4546C33.027 15.2477 32.9829 15.0429 32.8974 14.8526C32.8119 14.6624 32.6867 14.4906 32.5295 14.3478C32.3723 14.2049 32.1862 14.0938 31.9826 14.0213C31.779 13.9488 31.562 13.9164 31.3449 13.9259ZM55.3686 14.0406C55.1207 14.0406 54.8829 14.1343 54.7076 14.3012C54.5323 14.468 54.4339 14.6943 54.4339 14.9303C54.4339 15.1662 54.5323 15.3925 54.7076 15.5594C54.8829 15.7262 55.1207 15.8199 55.3686 15.8199C55.6165 15.8199 55.8542 15.7262 56.0295 15.5594C56.2048 15.3925 56.3033 15.1662 56.3033 14.9303C56.3033 14.6943 56.2048 14.468 56.0295 14.3012C55.8542 14.1343 55.6165 14.0406 55.3686 14.0406ZM67.2393 14.4306C66.7526 14.4306 66.2859 14.6146 65.9417 14.9421C65.5976 15.2697 65.4043 15.7139 65.4043 16.1771C65.4043 16.6403 65.5976 17.0846 65.9417 17.4121C66.2859 17.7397 66.7526 17.9237 67.2393 17.9237C67.726 17.9237 68.1927 17.7397 68.5368 17.4121C68.881 17.0846 69.0743 16.6403 69.0743 16.1771C69.0743 15.7139 68.881 15.2697 68.5368 14.9421C68.1927 14.6146 67.726 14.4306 67.2393 14.4306ZM38.5954 14.886C38.3369 14.886 38.0891 14.9838 37.9064 15.1577C37.7237 15.3316 37.621 15.5674 37.621 15.8134C37.621 16.0593 37.7237 16.2952 37.9064 16.4691C38.0891 16.643 38.3369 16.7407 38.5954 16.7407C38.8538 16.7407 39.1016 16.643 39.2843 16.4691C39.467 16.2952 39.5697 16.0593 39.5697 15.8134C39.5697 15.5674 39.467 15.3316 39.2843 15.1577C39.1016 14.9838 38.8538 14.886 38.5954 14.886ZM22.9376 15.0499C22.6573 15.0499 22.3884 15.1559 22.1902 15.3445C21.992 15.5332 21.8806 15.7891 21.8806 16.0559C21.8806 16.3227 21.992 16.5786 22.1902 16.7672C22.3884 16.9559 22.6573 17.0619 22.9376 17.0619C23.2179 17.0619 23.4867 16.9559 23.6849 16.7672C23.8832 16.5786 23.9945 16.3227 23.9945 16.0559C23.9945 15.7891 23.8832 15.5332 23.6849 15.3445C23.4867 15.1559 23.2179 15.0499 22.9376 15.0499ZM76.3695 15.1089C76.0042 15.1329 75.662 15.288 75.4121 15.5429C75.1623 15.7977 75.0233 16.1333 75.0233 16.4819C75.0233 16.8304 75.1623 17.166 75.4121 17.4209C75.662 17.6757 76.0042 17.8308 76.3695 17.8549C76.7349 17.8308 77.0771 17.6757 77.327 17.4209C77.5768 17.166 77.7158 16.8304 77.7158 16.4819C77.7158 16.1333 77.5768 15.7977 77.327 15.5429C77.0771 15.288 76.7349 15.1329 76.3695 15.1089ZM62.9014 15.7347C62.4977 15.7606 62.1176 15.9253 61.8322 16.1982C61.5467 16.4712 61.3753 16.8337 61.3501 17.218C61.3248 17.6024 61.4473 17.9824 61.6947 18.2871C61.9422 18.5918 62.2976 18.8004 62.6948 18.874C62.2882 19.0171 61.9465 19.2903 61.7282 19.6468C61.5099 20.0033 61.4286 20.421 61.4981 20.8283C61.5677 21.2356 61.7838 21.6072 62.1095 21.8795C62.4352 22.1519 62.8502 22.308 63.2835 22.3212C63.7438 22.2982 64.1789 22.1142 64.5054 21.8045C64.8318 21.4948 65.0265 21.0812 65.0521 20.6432C65.0777 20.2052 64.9324 19.7736 64.6441 19.4313C64.3558 19.0891 63.9449 18.8602 63.4901 18.7888C63.8445 18.6511 64.1384 18.4016 64.3222 18.082C64.5061 17.7625 64.5687 17.3924 64.4996 17.034C64.4306 16.6757 64.234 16.3509 63.9429 16.1143C63.6518 15.8777 63.2841 15.7436 62.9014 15.7347ZM47.161 15.9641C46.7209 15.9829 46.3054 16.1625 46.001 16.4656C45.6966 16.7687 45.5267 17.1718 45.5267 17.5911C45.5267 18.0104 45.6966 18.4135 46.001 18.7165C46.3054 19.0196 46.7209 19.1992 47.161 19.218C47.3944 19.2321 47.6283 19.2006 47.8483 19.1253C48.0684 19.05 48.2699 18.9326 48.4404 18.7802C48.6109 18.6279 48.7468 18.444 48.8397 18.2397C48.9326 18.0355 48.9805 17.8153 48.9805 17.5927C48.9805 17.3702 48.9326 17.1499 48.8397 16.9457C48.7468 16.7414 48.6109 16.5575 48.4404 16.4052C48.2699 16.2529 48.0684 16.1354 47.8483 16.0601C47.6283 15.9849 47.3944 15.95 47.161 15.9641ZM34.8737 16.0886C34.3751 16.1087 33.904 16.3113 33.5586 16.6541C33.2133 16.997 33.0205 17.4536 33.0205 17.9286C33.0205 18.4036 33.2133 18.8602 33.5586 19.203C33.904 19.5459 34.3751 19.7485 34.8737 19.7685C35.3723 19.7485 35.8435 19.5459 36.1888 19.203C36.5341 18.8602 36.7269 18.4036 36.7269 17.9286C36.7269 17.4536 36.5341 16.997 36.1888 16.6541C35.8435 16.3113 35.3723 16.1087 34.8737 16.0886ZM43.522 16.1083C43.1394 16.1258 42.7787 16.2828 42.5145 16.5466C42.2503 16.8105 42.1029 17.161 42.1029 17.5255C42.1029 17.89 42.2503 18.2406 42.5145 18.5044C42.7787 18.7683 43.1394 18.9253 43.522 18.9428C43.7235 18.952 43.925 18.9222 44.1141 18.8551C44.3032 18.7881 44.476 18.6852 44.6221 18.5527C44.7681 18.4201 44.8844 18.2608 44.9639 18.0842C45.0433 17.9077 45.0843 17.7176 45.0843 17.5255C45.0843 17.3335 45.0433 17.1434 44.9639 16.9668C44.8844 16.7903 44.7681 16.6309 44.6221 16.4984C44.476 16.3659 44.3032 16.263 44.1141 16.1959C43.925 16.1289 43.7235 16.0991 43.522 16.1083ZM26.1669 16.531C25.7834 16.531 25.4156 16.676 25.1445 16.9341C24.8733 17.1922 24.7209 17.5423 24.7209 17.9073C24.7209 18.2723 24.8733 18.6224 25.1445 18.8805C25.4156 19.1386 25.7834 19.2836 26.1669 19.2836C26.5504 19.2836 26.9182 19.1386 27.1894 18.8805C27.4605 18.6224 27.6129 18.2723 27.6129 17.9073C27.6129 17.5423 27.4605 17.1922 27.1894 16.9341C26.9182 16.676 26.5504 16.531 26.1669 16.531ZM71.2467 16.685C70.9362 16.685 70.6385 16.8024 70.419 17.0113C70.1995 17.2203 70.0761 17.5037 70.0761 17.7992C70.0761 18.0946 70.1995 18.378 70.419 18.587C70.6385 18.7959 70.9362 18.9133 71.2467 18.9133C71.5571 18.9133 71.8549 18.7959 72.0744 18.587C72.2939 18.378 72.4172 18.0946 72.4172 17.7992C72.4172 17.5037 72.2939 17.2203 72.0744 17.0113C71.8549 16.8024 71.5571 16.685 71.2467 16.685ZM40.5027 17.7467C40.131 17.7467 39.7746 17.8872 39.5118 18.1374C39.2491 18.3875 39.1014 18.7267 39.1014 19.0804C39.1014 19.4341 39.2491 19.7733 39.5118 20.0235C39.7746 20.2736 40.131 20.4141 40.5027 20.4141C40.8743 20.4141 41.2307 20.2736 41.4935 20.0235C41.7562 19.7733 41.9039 19.4341 41.9039 19.0804C41.9039 18.7267 41.7562 18.3875 41.4935 18.1374C41.2307 17.8872 40.8743 17.7467 40.5027 17.7467ZM58.35 17.7729C57.9483 17.7729 57.563 17.9248 57.2789 18.1952C56.9948 18.4656 56.8352 18.8324 56.8352 19.2148C56.8352 19.5971 56.9948 19.9639 57.2789 20.2343C57.563 20.5047 57.9483 20.6566 58.35 20.6566C58.7518 20.6566 59.1371 20.5047 59.4212 20.2343C59.7053 19.9639 59.8649 19.5971 59.8649 19.2148C59.8649 18.8324 59.7053 18.4656 59.4212 18.1952C59.1371 17.9248 58.7518 17.7729 58.35 17.7729ZM31.2312 17.8418C30.7634 17.8444 30.3142 18.0167 29.9752 18.3235C29.6362 18.6304 29.4328 19.0487 29.4066 19.4933C29.2478 19.304 29.0468 19.1505 28.8182 19.044C28.5896 18.9375 28.339 18.8805 28.0845 18.8772C27.6271 18.8772 27.1884 19.0502 26.8649 19.3581C26.5414 19.666 26.3597 20.0835 26.3597 20.5189C26.3597 20.9543 26.5414 21.3719 26.8649 21.6798C27.1884 21.9877 27.6271 22.1606 28.0845 22.1606C28.513 22.1573 28.9247 22.0019 29.2392 21.725C29.5537 21.448 29.7484 21.0694 29.7853 20.6631C29.9556 20.874 30.1746 21.0449 30.4253 21.1625C30.676 21.2801 30.9517 21.3413 31.2312 21.3414C31.7188 21.3414 32.1864 21.1571 32.5312 20.8289C32.876 20.5008 33.0697 20.0557 33.0697 19.5916C33.0697 19.1275 32.876 18.6824 32.5312 18.3543C32.1864 18.0261 31.7188 17.8418 31.2312 17.8418ZM54.2325 17.8483C53.9218 17.8641 53.6293 17.9926 53.4152 18.2075C53.2011 18.4224 53.0818 18.7073 53.0818 19.0034C53.0818 19.2995 53.2011 19.5844 53.4152 19.7993C53.6293 20.0142 53.9218 20.1427 54.2325 20.1585C54.5431 20.1427 54.8357 20.0142 55.0497 19.7993C55.2638 19.5844 55.3831 19.2995 55.3831 19.0034C55.3831 18.7073 55.2638 18.4224 55.0497 18.2075C54.8357 17.9926 54.5431 17.8641 54.2325 17.8483ZM23.1786 17.8811C22.8374 17.8976 22.5159 18.0382 22.2805 18.274C22.0452 18.5097 21.9139 18.8224 21.9139 19.1476C21.9139 19.4728 22.0452 19.7855 22.2805 20.0212C22.5159 20.2569 22.8374 20.3976 23.1786 20.4141C23.5198 20.3976 23.8413 20.2569 24.0766 20.0212C24.312 19.7855 24.4432 19.4728 24.4432 19.1476C24.4432 18.8224 24.312 18.5097 24.0766 18.274C23.8413 18.0382 23.5198 17.8976 23.1786 17.8811ZM80.6524 17.8942C80.1538 17.8942 79.6757 18.0827 79.3232 18.4182C78.9707 18.7537 78.7726 19.2088 78.7726 19.6833C78.7726 20.1579 78.9707 20.6129 79.3232 20.9485C79.6757 21.284 80.1538 21.4725 80.6524 21.4725C81.1509 21.4725 81.629 21.284 81.9816 20.9485C82.3341 20.6129 82.5321 20.1579 82.5321 19.6833C82.5321 19.2088 82.3341 18.7537 81.9816 18.4182C81.629 18.0827 81.1509 17.8942 80.6524 17.8942ZM74.4932 17.9925C74.0887 17.9925 73.7008 18.1454 73.4148 18.4177C73.1288 18.6899 72.9681 19.0591 72.9681 19.4441C72.9681 19.8291 73.1288 20.1984 73.4148 20.4706C73.7008 20.7428 74.0887 20.8958 74.4932 20.8958C74.8973 20.8958 75.2848 20.743 75.5705 20.4711C75.8562 20.1992 76.0167 19.8303 76.0167 19.4458C76.0167 19.0612 75.8562 18.6924 75.5705 18.4205C75.2848 18.1485 74.8973 17.9925 74.4932 17.9925ZM50.7105 18.0351C50.4867 18.0484 50.2767 18.1424 50.1232 18.298C49.9697 18.4535 49.8842 18.6589 49.8842 18.8723C49.8842 19.0857 49.9697 19.2911 50.1232 19.4467C50.2767 19.6022 50.4867 19.6962 50.7105 19.7096C50.9343 19.6962 51.1443 19.6022 51.2978 19.4467C51.4513 19.2911 51.5368 19.0857 51.5368 18.8723C51.5368 18.6589 51.4513 18.4535 51.2978 18.298C51.1443 18.1424 50.9343 18.0484 50.7105 18.0351ZM45.3053 18.8215C44.8473 18.8407 44.4146 19.0274 44.0976 19.3427C43.7806 19.658 43.6037 20.0776 43.6037 20.514C43.6037 20.9504 43.7806 21.37 44.0976 21.6853C44.4146 22.0006 44.8473 22.1873 45.3053 22.2065C45.7634 22.1873 46.196 22.0006 46.513 21.6853C46.83 21.37 47.007 20.9504 47.007 20.514C47.007 20.0776 46.83 19.658 46.513 19.3427C46.196 19.0274 45.7634 18.8407 45.3053 18.8215ZM19.7943 19.0706C19.4884 19.0706 19.1951 19.1862 18.9788 19.3921C18.7625 19.598 18.641 19.8772 18.641 20.1683C18.641 20.4595 18.7625 20.7387 18.9788 20.9445C19.1951 21.1504 19.4884 21.2661 19.7943 21.2661C20.1002 21.2661 20.3936 21.1504 20.6099 20.9445C20.8261 20.7387 20.9477 20.4595 20.9477 20.1683C20.9477 19.8772 20.8261 19.598 20.6099 19.3921C20.3936 19.1862 20.1002 19.0706 19.7943 19.0706ZM69.0674 19.6735C68.735 19.6735 68.4163 19.7992 68.1813 20.0229C67.9463 20.2466 67.8142 20.5499 67.8142 20.8663C67.8142 21.1826 67.9463 21.486 68.1813 21.7097C68.4163 21.9334 68.735 22.0591 69.0674 22.0591C69.3998 22.0591 69.7185 21.9334 69.9535 21.7097C70.1886 21.486 70.3206 21.1826 70.3206 20.8663C70.3206 20.5499 70.1886 20.2466 69.9535 20.0229C69.7185 19.7992 69.3998 19.6735 69.0674 19.6735ZM77.3783 20.0995C76.893 20.0995 76.4276 20.283 76.0844 20.6096C75.7412 20.9362 75.5484 21.3792 75.5484 21.8411C75.5484 22.3031 75.7412 22.746 76.0844 23.0727C76.4276 23.3993 76.893 23.5828 77.3783 23.5828C77.8636 23.5828 78.329 23.3993 78.6722 23.0727C79.0153 22.746 79.2081 22.3031 79.2081 21.8411C79.2081 21.3792 79.0153 20.9362 78.6722 20.6096C78.329 20.283 77.8636 20.0995 77.3783 20.0995ZM35.6277 20.5255C35.2962 20.5255 34.9783 20.6508 34.744 20.8739C34.5096 21.097 34.3779 21.3995 34.3779 21.715C34.3779 22.0305 34.5096 22.333 34.744 22.5561C34.9783 22.7792 35.2962 22.9045 35.6277 22.9045C35.9596 22.9045 36.2779 22.779 36.5126 22.5556C36.7473 22.3322 36.8791 22.0293 36.8791 21.7133C36.8791 21.3974 36.7473 21.0945 36.5126 20.8711C36.2779 20.6477 35.9596 20.5255 35.6277 20.5255ZM42.3101 20.6697C41.8554 20.6697 41.4193 20.8416 41.0978 21.1476C40.7762 21.4537 40.5956 21.8687 40.5956 22.3015C40.5956 22.7343 40.7762 23.1494 41.0978 23.4554C41.4193 23.7615 41.8554 23.9334 42.3101 23.9334C42.7648 23.9334 43.2009 23.7615 43.5224 23.4554C43.844 23.1494 44.0246 22.7343 44.0246 22.3015C44.0246 21.8687 43.844 21.4537 43.5224 21.1476C43.2009 20.8416 42.7648 20.6697 42.3101 20.6697ZM38.8673 20.8368C38.4785 20.8544 38.1118 21.0139 37.8432 21.282C37.5746 21.5502 37.4247 21.9065 37.4247 22.277C37.4247 22.6475 37.5746 23.0037 37.8432 23.2719C38.1118 23.54 38.4785 23.6995 38.8673 23.7171C39.2561 23.6995 39.6229 23.54 39.8915 23.2719C40.1601 23.0037 40.31 22.6475 40.31 22.277C40.31 21.9065 40.1601 21.5502 39.8915 21.282C39.6229 21.0139 39.2561 20.8544 38.8673 20.8368ZM83.9678 20.9777C83.6345 20.9777 83.3149 21.1037 83.0792 21.328C82.8435 21.5523 82.7112 21.8565 82.7112 22.1737C82.7112 22.491 82.8435 22.7952 83.0792 23.0195C83.3149 23.2438 83.6345 23.3698 83.9678 23.3698C84.301 23.3698 84.6207 23.2438 84.8563 23.0195C85.092 22.7952 85.2244 22.491 85.2244 22.1737C85.2244 21.8565 85.092 21.5523 84.8563 21.328C84.6207 21.1037 84.301 20.9777 83.9678 20.9777ZM73.8357 21.0563C73.4078 21.0824 73.0064 21.2626 72.713 21.5602C72.4197 21.8578 72.2564 22.2506 72.2564 22.6587C72.2564 23.0668 72.4197 23.4596 72.713 23.7572C73.0064 24.0549 73.4078 24.235 73.8357 24.2611C74.0658 24.2751 74.2965 24.2441 74.5135 24.1699C74.7306 24.0957 74.9293 23.9799 75.0975 23.8298C75.2657 23.6796 75.3998 23.4982 75.4914 23.2968C75.5831 23.0954 75.6303 22.8782 75.6303 22.6587C75.6303 22.4392 75.5831 22.2221 75.4914 22.0206C75.3998 21.8192 75.2657 21.6378 75.0975 21.4877C74.9293 21.3375 74.7306 21.2217 74.5135 21.1476C74.2965 21.0734 74.0658 21.0423 73.8357 21.0563ZM65.7314 21.5348C65.43 21.5348 65.1411 21.6487 64.928 21.8515C64.7149 22.0543 64.5952 22.3293 64.5952 22.6161C64.5952 22.9029 64.7149 23.178 64.928 23.3808C65.1411 23.5836 65.43 23.6975 65.7314 23.6975C66.0327 23.6975 66.3216 23.5836 66.5347 23.3808C66.7478 23.178 66.8675 22.9029 66.8675 22.6161C66.8675 22.3293 66.7478 22.0543 66.5347 21.8515C66.3216 21.6487 66.0327 21.5348 65.7314 21.5348ZM60.3468 21.5806C59.933 21.5898 59.5342 21.7301 59.2136 21.9794C58.8931 22.2287 58.6691 22.5727 58.5773 22.9569C58.5093 22.5892 58.3088 22.2556 58.0104 22.0134C57.7119 21.7712 57.3341 21.6356 56.9419 21.6298C56.4959 21.6298 56.0681 21.7984 55.7527 22.0986C55.4373 22.3988 55.2601 22.806 55.2601 23.2305C55.2601 23.6551 55.4373 24.0622 55.7527 24.3624C56.0681 24.6626 56.4959 24.8313 56.9419 24.8313C57.3113 24.8289 57.6696 24.7113 57.9619 24.4964C58.2542 24.2815 58.4643 23.9813 58.56 23.6418C58.6267 24.0509 58.8421 24.4248 59.1686 24.6985C59.495 24.9721 59.912 25.1281 60.3468 25.1393C60.8427 25.1393 61.3181 24.9518 61.6687 24.6181C62.0193 24.2844 62.2163 23.8319 62.2163 23.36C62.2163 22.8881 62.0193 22.4355 61.6687 22.1018C61.3181 21.7681 60.8427 21.5806 60.3468 21.5806ZM53.5749 21.7346C53.1969 21.7521 52.8404 21.9072 52.5793 22.168C52.3182 22.4288 52.1726 22.7753 52.1726 23.1355C52.1726 23.4957 52.3182 23.8421 52.5793 24.1029C52.8404 24.3637 53.1969 24.5189 53.5749 24.5363C53.7742 24.5455 53.9733 24.5161 54.1603 24.4498C54.3472 24.3836 54.5181 24.2819 54.6625 24.1509C54.807 24.0199 54.922 23.8624 55.0005 23.6878C55.0791 23.5133 55.1196 23.3254 55.1196 23.1355C55.1196 22.9456 55.0791 22.7577 55.0005 22.5832C54.922 22.4086 54.807 22.2511 54.6625 22.1201C54.5181 21.9891 54.3472 21.8874 54.1603 21.8212C53.9733 21.7549 53.7742 21.7255 53.5749 21.7346ZM27.1412 22.0656C26.6482 22.0656 26.1753 22.252 25.8266 22.5839C25.478 22.9157 25.2821 23.3658 25.2821 23.8351C25.2821 24.3044 25.478 24.7545 25.8266 25.0863C26.1753 25.4182 26.6482 25.6046 27.1412 25.6046C27.6343 25.6046 28.1072 25.4182 28.4558 25.0863C28.8045 24.7545 29.0003 24.3044 29.0003 23.8351C29.0003 23.3658 28.8045 22.9157 28.4558 22.5839C28.1072 22.252 27.6343 22.0656 27.1412 22.0656ZM49.7155 22.1115C49.4117 22.1334 49.1278 22.2637 48.9206 22.4764C48.7134 22.689 48.5983 22.9684 48.5983 23.2584C48.5983 23.5484 48.7134 23.8277 48.9206 24.0404C49.1278 24.2531 49.4117 24.3834 49.7155 24.4053C50.0194 24.3834 50.3033 24.2531 50.5105 24.0404C50.7177 23.8277 50.8328 23.5484 50.8328 23.2584C50.8328 22.9684 50.7177 22.689 50.5105 22.4764C50.3033 22.2637 50.0194 22.1334 49.7155 22.1115ZM22.373 22.2196C21.9502 22.2196 21.5448 22.3795 21.2458 22.664C20.9469 22.9485 20.779 23.3344 20.779 23.7368C20.779 24.1392 20.9469 24.5251 21.2458 24.8096C21.5448 25.0941 21.9502 25.254 22.373 25.254C22.7957 25.254 23.2012 25.0941 23.5001 24.8096C23.799 24.5251 23.967 24.1392 23.967 23.7368C23.967 23.3344 23.799 22.9485 23.5001 22.664C23.2012 22.3795 22.7957 22.2196 22.373 22.2196ZM80.9071 22.4949C80.6229 22.516 80.3574 22.6384 80.1638 22.8377C79.9702 23.0369 79.8627 23.2983 79.8627 23.5697C79.8627 23.8411 79.9702 24.1025 80.1638 24.3017C80.3574 24.5009 80.6229 24.6233 80.9071 24.6445V24.651C81.0633 24.6626 81.2203 24.6434 81.3683 24.5944C81.5163 24.5455 81.652 24.468 81.767 24.3668C81.882 24.2655 81.9737 24.1427 82.0365 24.0061C82.0992 23.8695 82.1316 23.7221 82.1316 23.573C82.1316 23.4239 82.0992 23.2764 82.0365 23.1398C81.9737 23.0032 81.882 22.8804 81.767 22.7791C81.652 22.6779 81.5163 22.6004 81.3683 22.5515C81.2203 22.5025 81.0633 22.4833 80.9071 22.4949ZM46.4208 22.8324C46.1638 22.8324 45.9173 22.9296 45.7355 23.1026C45.5538 23.2756 45.4516 23.5102 45.4516 23.7548C45.4516 23.9995 45.5538 24.2341 45.7355 24.4071C45.9173 24.5801 46.1638 24.6772 46.4208 24.6772C46.6778 24.6772 46.9243 24.5801 47.1061 24.4071C47.2878 24.2341 47.3899 23.9995 47.3899 23.7548C47.3899 23.5102 47.2878 23.2756 47.1061 23.1026C46.9243 22.9296 46.6778 22.8324 46.4208 22.8324ZM32.6841 23.1011C32.3577 23.1011 32.0446 23.2245 31.8138 23.4442C31.583 23.6639 31.4533 23.9619 31.4533 24.2726C31.4533 24.5833 31.583 24.8812 31.8138 25.1009C32.0446 25.3206 32.3577 25.444 32.6841 25.444C33.0105 25.444 33.3236 25.3206 33.5544 25.1009C33.7852 24.8812 33.9149 24.5833 33.9149 24.2726C33.9149 23.9619 33.7852 23.6639 33.5544 23.4442C33.3236 23.2245 33.0105 23.1011 32.6841 23.1011ZM16.3309 23.5304C15.9976 23.5304 15.678 23.6564 15.4423 23.8807C15.2067 24.105 15.0743 24.4092 15.0743 24.7264C15.0743 25.0436 15.2067 25.3478 15.4423 25.5721C15.678 25.7964 15.9976 25.9225 16.3309 25.9225C16.6642 25.9225 16.9838 25.7964 17.2194 25.5721C17.4551 25.3478 17.5875 25.0436 17.5875 24.7264C17.5875 24.4092 17.4551 24.105 17.2194 23.8807C16.9838 23.6564 16.6642 23.5304 16.3309 23.5304ZM36.3954 23.8712C35.9818 23.8712 35.5851 24.0275 35.2926 24.3059C35.0001 24.5843 34.8358 24.9619 34.8358 25.3556C34.8358 25.7493 35.0001 26.1268 35.2926 26.4052C35.5851 26.6836 35.9818 26.84 36.3954 26.84C36.809 26.84 37.2057 26.6836 37.4982 26.4052C37.7907 26.1268 37.955 25.7493 37.955 25.3556C37.955 24.9619 37.7907 24.5843 37.4982 24.3059C37.2057 24.0275 36.809 23.8712 36.3954 23.8712ZM42.6406 24.1071C42.142 24.1271 41.6709 24.3297 41.3255 24.6726C40.9802 25.0155 40.7874 25.4721 40.7874 25.947C40.7874 26.422 40.9802 26.8786 41.3255 27.2215C41.6709 27.5643 42.142 27.7669 42.6406 27.787C43.1392 27.7669 43.6104 27.5643 43.9557 27.2215C44.3011 26.8786 44.4939 26.422 44.4939 25.947C44.4939 25.4721 44.3011 25.0155 43.9557 24.6726C43.6104 24.3297 43.1392 24.1271 42.6406 24.1071ZM83.2964 24.2939C82.9193 24.3112 82.5636 24.4661 82.3032 24.7263C82.0428 24.9865 81.8975 25.3321 81.8975 25.6914C81.8975 26.0508 82.0428 26.3964 82.3032 26.6566C82.5636 26.9168 82.9193 27.0716 83.2964 27.089C83.4952 27.0982 83.6939 27.0688 83.8805 27.0027C84.067 26.9366 84.2375 26.8352 84.3816 26.7045C84.5257 26.5738 84.6404 26.4166 84.7188 26.2425C84.7972 26.0684 84.8376 25.8809 84.8376 25.6914C84.8376 25.502 84.7972 25.3145 84.7188 25.1404C84.6404 24.9662 84.5257 24.8091 84.3816 24.6784C84.2375 24.5477 84.067 24.4462 83.8805 24.3801C83.6939 24.314 83.4952 24.2847 83.2964 24.2939ZM48.242 25.1393C47.8859 25.1393 47.5444 25.2739 47.2926 25.5136C47.0408 25.7533 46.8993 26.0783 46.8993 26.4173C46.8993 26.7562 47.0408 27.0812 47.2926 27.3209C47.5444 27.5606 47.8859 27.6952 48.242 27.6952C48.5981 27.6952 48.9396 27.5606 49.1914 27.3209C49.4433 27.0812 49.5847 26.7562 49.5847 26.4173C49.5847 26.0783 49.4433 25.7533 49.1914 25.5136C48.9396 25.2739 48.5981 25.1393 48.242 25.1393ZM86.24 25.5981C85.7789 25.5981 85.3367 25.7724 85.0106 26.0827C84.6846 26.3931 84.5014 26.814 84.5014 27.2528C84.5014 27.6917 84.6846 28.1126 85.0106 28.423C85.3367 28.7333 85.7789 28.9077 86.24 28.9077C86.7011 28.9077 87.1433 28.7333 87.4694 28.423C87.7954 28.1126 87.9786 27.6917 87.9786 27.2528C87.9786 26.814 87.7954 26.3931 87.4694 26.0827C87.1433 25.7724 86.7011 25.5981 86.24 25.5981ZM18.9061 25.6996C18.4806 25.6996 18.0725 25.8605 17.7716 26.1469C17.4708 26.4333 17.3017 26.8216 17.3017 27.2266C17.3017 27.6316 17.4708 28.02 17.7716 28.3064C18.0725 28.5928 18.4806 28.7536 18.9061 28.7536C19.3316 28.7536 19.7397 28.5928 20.0405 28.3064C20.3414 28.02 20.5104 27.6316 20.5104 27.2266C20.5104 26.8216 20.3414 26.4333 20.0405 26.1469C19.7397 25.8605 19.3316 25.6996 18.9061 25.6996ZM32.1608 26.1813C31.7972 26.2053 31.4567 26.3597 31.2081 26.6133C30.9595 26.8669 30.8212 27.2009 30.8212 27.5478C30.8212 27.8946 30.9595 28.2286 31.2081 28.4822C31.4567 28.7358 31.7972 28.8902 32.1608 28.9142C32.3577 28.9272 32.5553 28.9015 32.7413 28.8387C32.9273 28.7759 33.0978 28.6774 33.2421 28.5492C33.3864 28.4211 33.5014 28.266 33.5801 28.0937C33.6588 27.9215 33.6994 27.7356 33.6994 27.5478C33.6994 27.3599 33.6588 27.1741 33.5801 27.0018C33.5014 26.8295 33.3864 26.6745 33.2421 26.5463C33.0978 26.4182 32.9273 26.3196 32.7413 26.2568C32.5553 26.194 32.3577 26.1683 32.1608 26.1813ZM39.2323 26.3419C38.7346 26.3419 38.2574 26.53 37.9055 26.865C37.5536 27.1999 37.3559 27.6541 37.3559 28.1278C37.3559 28.6014 37.5536 29.0557 37.9055 29.3906C38.2574 29.7255 38.7346 29.9136 39.2323 29.9136C39.7299 29.9136 40.2071 29.7255 40.559 29.3906C40.9109 29.0557 41.1086 28.6014 41.1086 28.1278C41.1086 27.6541 40.9109 27.1999 40.559 26.865C40.2071 26.53 39.7299 26.3419 39.2323 26.3419ZM25.2133 26.4893C24.9914 26.4893 24.7786 26.5732 24.6217 26.7226C24.4648 26.8719 24.3767 27.0744 24.3767 27.2856C24.3767 27.4968 24.4648 27.6993 24.6217 27.8487C24.7786 27.998 24.9914 28.0819 25.2133 28.0819C25.4351 28.0819 25.6479 27.998 25.8048 27.8487C25.9617 27.6993 26.0499 27.4968 26.0499 27.2856C26.0499 27.0744 25.9617 26.8719 25.8048 26.7226C25.6479 26.5732 25.4351 26.4893 25.2133 26.4893ZM22.2318 26.84C21.7378 26.84 21.2641 27.0267 20.9148 27.3592C20.5655 27.6917 20.3693 28.1426 20.3693 28.6127C20.3693 29.0829 20.5655 29.5338 20.9148 29.8663C21.2641 30.1987 21.7378 30.3855 22.2318 30.3855C22.7258 30.3855 23.1995 30.1987 23.5488 29.8663C23.8981 29.5338 24.0944 29.0829 24.0944 28.6127C24.0944 28.1426 23.8981 27.6917 23.5488 27.3592C23.1995 27.0267 22.7258 26.84 22.2318 26.84ZM11.869 27.1283C11.5495 27.1283 11.243 27.2492 11.017 27.4643C10.791 27.6793 10.6641 27.971 10.6641 28.2752C10.6641 28.5794 10.791 28.8711 11.017 29.0862C11.243 29.3013 11.5495 29.4221 11.869 29.4221C12.1886 29.4221 12.4951 29.3013 12.7211 29.0862C12.9471 28.8711 13.074 28.5794 13.074 28.2752C13.074 27.971 12.9471 27.6793 12.7211 27.4643C12.4951 27.2492 12.1886 27.1283 11.869 27.1283ZM28.3841 27.9934C28.0398 27.9934 27.7097 28.1236 27.4663 28.3552C27.2229 28.5869 27.0861 28.9011 27.0861 29.2288C27.0861 29.5564 27.2229 29.8706 27.4663 30.1023C27.7097 30.334 28.0398 30.4642 28.3841 30.4642C28.5545 30.4642 28.7233 30.4322 28.8808 30.3701C29.0382 30.308 29.1813 30.217 29.3018 30.1023C29.4224 29.9876 29.518 29.8514 29.5832 29.7015C29.6484 29.5517 29.682 29.391 29.682 29.2288C29.682 29.0666 29.6484 28.9059 29.5832 28.756C29.518 28.6061 29.4224 28.47 29.3018 28.3552C29.1813 28.2405 29.0382 28.1495 28.8808 28.0875C28.7233 28.0254 28.5545 27.9934 28.3841 27.9934ZM18.7305 28.8126C18.3167 28.8181 17.9178 28.9599 17.6014 29.2138C17.2851 29.4677 17.0709 29.8181 16.9953 30.2053C16.9326 29.855 16.743 29.5367 16.4593 29.3056C16.1757 29.0745 15.816 28.9453 15.4426 28.9404C15.0181 28.9404 14.6109 29.101 14.3106 29.3867C14.0104 29.6725 13.8418 30.06 13.8418 30.4642C13.8418 30.8683 14.0104 31.2558 14.3106 31.5416C14.6109 31.8274 15.0181 31.9879 15.4426 31.9879C15.8089 31.9832 16.1623 31.8589 16.4437 31.6358C16.7251 31.4127 16.9174 31.1043 16.9885 30.7624C17.0519 31.1609 17.2618 31.5251 17.5807 31.7903C17.8997 32.0554 18.3071 32.2044 18.7305 32.2107C19.1904 32.1915 19.6247 32.0041 19.943 31.6876C20.2612 31.371 20.4389 30.9498 20.4389 30.5117C20.4389 30.0735 20.2612 29.6523 19.943 29.3358C19.6247 29.0193 19.1904 28.8319 18.7305 28.8126ZM35.1904 29.1501C34.7225 29.1695 34.2804 29.3601 33.9565 29.6822C33.6326 30.0042 33.4517 30.4328 33.4517 30.8787C33.4517 31.3245 33.6326 31.7531 33.9565 32.0752C34.2804 32.3972 34.7225 32.5878 35.1904 32.6072C35.4356 32.6174 35.6803 32.5802 35.91 32.4979C36.1396 32.4156 36.3494 32.2899 36.5266 32.1284C36.7039 31.9669 36.8449 31.7729 36.9413 31.5581C37.0376 31.3434 37.0873 31.1122 37.0873 30.8787C37.0873 30.6451 37.0376 30.414 36.9413 30.1992C36.8449 29.9844 36.7039 29.7904 36.5266 29.6289C36.3494 29.4674 36.1396 29.3417 35.91 29.2594C35.6803 29.1772 35.4356 29.14 35.1904 29.1501ZM25.0755 30.1004C24.7708 30.1223 24.486 30.253 24.2782 30.4663C24.0704 30.6796 23.955 30.9597 23.955 31.2506C23.955 31.5415 24.0704 31.8216 24.2782 32.0349C24.486 32.2482 24.7708 32.3789 25.0755 32.4008C25.3853 32.385 25.677 32.2568 25.8904 32.0425C26.1039 31.8283 26.2228 31.5442 26.2228 31.249C26.2228 30.9537 26.1039 30.6697 25.8904 30.4554C25.677 30.2411 25.3853 30.1162 25.0755 30.1004ZM10.0099 30.4871C9.65566 30.4871 9.3159 30.621 9.06539 30.8595C8.81488 31.0979 8.67414 31.4213 8.67414 31.7585C8.67414 32.0957 8.81488 32.4191 9.06539 32.6575C9.3159 32.896 9.65566 33.0299 10.0099 33.0299C10.3642 33.0299 10.704 32.896 10.9545 32.6575C11.205 32.4191 11.3457 32.0957 11.3457 31.7585C11.3457 31.4213 11.205 31.0979 10.9545 30.8595C10.704 30.621 10.3642 30.4871 10.0099 30.4871ZM31.3035 31.0638C30.8497 31.0638 30.4145 31.2354 30.0936 31.5408C29.7728 31.8463 29.5925 32.2605 29.5925 32.6924C29.5925 33.1243 29.7728 33.5386 30.0936 33.844C30.4145 34.1494 30.8497 34.321 31.3035 34.321C31.7573 34.321 32.1926 34.1494 32.5134 33.844C32.8343 33.5386 33.0146 33.1243 33.0146 32.6924C33.0146 32.2605 32.8343 31.8463 32.5134 31.5408C32.1926 31.2354 31.7573 31.0638 31.3035 31.0638ZM21.6982 31.3718C21.4279 31.3718 21.1687 31.474 20.9776 31.6559C20.7865 31.8378 20.6791 32.0845 20.6791 32.3418C20.6791 32.599 20.7865 32.8457 20.9776 33.0277C21.1687 33.2096 21.4279 33.3117 21.6982 33.3117C21.9685 33.3117 22.2277 33.2096 22.4188 33.0277C22.6099 32.8457 22.7172 32.599 22.7172 32.3418C22.7172 32.0845 22.6099 31.8378 22.4188 31.6559C22.2277 31.474 21.9685 31.3718 21.6982 31.3718ZM16.7268 32.1157C16.4396 32.1175 16.1568 32.1825 15.9003 32.3054C15.6438 32.4283 15.4206 32.6059 15.248 32.8244C15.0754 33.0429 14.9582 33.2963 14.9053 33.565C14.8525 33.8337 14.8656 34.1103 14.9434 34.3734C14.7777 34.189 14.5725 34.0404 14.3415 33.9375C14.1106 33.8346 13.8592 33.7799 13.6042 33.777C13.1289 33.777 12.6731 33.9567 12.3371 34.2766C12.001 34.5965 11.8122 35.0303 11.8122 35.4826C11.8122 35.935 12.001 36.3688 12.3371 36.6887C12.6731 37.0085 13.1289 37.1882 13.6042 37.1882C13.8787 37.1873 14.1492 37.1263 14.395 37.0099C14.6407 36.8936 14.8551 36.725 15.0215 36.5172C15.1879 36.3094 15.3018 36.068 15.3546 35.8116C15.4073 35.5553 15.3974 35.2908 15.3256 35.0386C15.4982 35.2326 15.7127 35.389 15.9545 35.497C16.1963 35.605 16.4597 35.6621 16.7268 35.6645C17.2074 35.6448 17.6614 35.4493 17.9942 35.1187C18.3269 34.7881 18.5127 34.3479 18.5127 33.8901C18.5127 33.4323 18.3269 32.9921 17.9942 32.6615C17.6614 32.3309 17.2074 32.1353 16.7268 32.1157ZM27.7953 32.3778C27.3943 32.403 27.0183 32.5725 26.7436 32.8518C26.4689 33.1311 26.316 33.4993 26.316 33.8819C26.316 34.2645 26.4689 34.6327 26.7436 34.912C27.0183 35.1913 27.3943 35.3608 27.7953 35.386C28.0116 35.3996 28.2286 35.3708 28.4327 35.3013C28.6368 35.2319 28.8238 35.1233 28.982 34.9823C29.1403 34.8413 29.2664 34.6709 29.3527 34.4816C29.4389 34.2923 29.4834 34.0882 29.4834 33.8819C29.4834 33.6756 29.4389 33.4715 29.3527 33.2822C29.2664 33.0929 29.1403 32.9225 28.982 32.7815C28.8238 32.6405 28.6368 32.5319 28.4327 32.4625C28.2286 32.393 28.0116 32.3642 27.7953 32.3778ZM9.50385 33.7476C9.09479 33.7476 8.70248 33.9022 8.41323 34.1775C8.12398 34.4528 7.96148 34.8262 7.96148 35.2156C7.96148 35.6049 8.12398 35.9783 8.41323 36.2536C8.70248 36.5289 9.09479 36.6836 9.50385 36.6836C9.91291 36.6836 10.3052 36.5289 10.5945 36.2536C10.8837 35.9783 11.0462 35.6049 11.0462 35.2156C11.0462 34.8262 10.8837 34.4528 10.5945 34.1775C10.3052 33.9022 9.91291 33.7476 9.50385 33.7476ZM25.1857 34.2915C24.7767 34.2915 24.3844 34.4462 24.0951 34.7215C23.8059 34.9968 23.6434 35.3702 23.6434 35.7595C23.6434 36.1489 23.8059 36.5223 24.0951 36.7976C24.3844 37.0729 24.7767 37.2276 25.1857 37.2276C25.5948 37.2276 25.9871 37.0729 26.2763 36.7976C26.5656 36.5223 26.7281 36.1489 26.7281 35.7595C26.7281 35.3702 26.5656 34.9968 26.2763 34.7215C25.9871 34.4462 25.5948 34.2915 25.1857 34.2915ZM19.9183 35.2189C19.604 35.2347 19.3081 35.3647 19.0915 35.582C18.8749 35.7994 18.7542 36.0875 18.7542 36.3871C18.7542 36.6866 18.8749 36.9747 19.0915 37.1921C19.3081 37.4094 19.604 37.5394 19.9183 37.5552C20.0849 37.5637 20.2516 37.5397 20.4082 37.4848C20.5648 37.4298 20.708 37.3452 20.8291 37.2359C20.9502 37.1266 21.0466 36.9949 21.1125 36.849C21.1784 36.7031 21.2124 36.5459 21.2124 36.3871C21.2124 36.2282 21.1784 36.071 21.1125 35.9251C21.0466 35.7792 20.9502 35.6476 20.8291 35.5383C20.708 35.429 20.5648 35.3443 20.4082 35.2894C20.2516 35.2344 20.0849 35.2105 19.9183 35.2189ZM16.4307 37.0113C16.1431 37.0113 15.8673 37.12 15.6639 37.3136C15.4605 37.5072 15.3463 37.7697 15.3463 38.0435C15.3463 38.3172 15.4605 38.5798 15.6639 38.7734C15.8673 38.967 16.1431 39.0757 16.4307 39.0757C16.7183 39.0757 16.9942 38.967 17.1976 38.7734C17.4009 38.5798 17.5152 38.3172 17.5152 38.0435C17.5152 37.7697 17.4009 37.5072 17.1976 37.3136C16.9942 37.12 16.7183 37.0113 16.4307 37.0113ZM13.2565 38.0599C13.0282 38.0599 12.8093 38.1462 12.6479 38.2998C12.4865 38.4535 12.3958 38.6618 12.3958 38.8791C12.3958 39.0964 12.4865 39.3047 12.6479 39.4584C12.8093 39.612 13.0282 39.6983 13.2565 39.6983C13.4848 39.6983 13.7037 39.612 13.8651 39.4584C14.0265 39.3047 14.1172 39.0964 14.1172 38.8791C14.1172 38.6618 14.0265 38.4535 13.8651 38.2998C13.7037 38.1462 13.4848 38.0599 13.2565 38.0599ZM6.22288 38.4957C5.7981 38.5142 5.39714 38.6878 5.10341 38.9804C4.80967 39.2731 4.64575 39.6622 4.64575 40.0669C4.64575 40.4717 4.80967 40.8608 5.10341 41.1535C5.39714 41.4461 5.7981 41.6197 6.22288 41.6382C6.66116 41.6382 7.08149 41.4725 7.3914 41.1775C7.70131 40.8825 7.87541 40.4825 7.87541 40.0653C7.87541 39.6482 7.70131 39.2481 7.3914 38.9531C7.08149 38.6581 6.66116 38.4957 6.22288 38.4957Z" fill="#AFDAD2" stroke="white" stroke-width="0.181375"/>
</g>
<defs>
<clipPath id="clip0_1085_4030">
<rect width="100" height="100" fill="white"/>
</clipPath>
</defs>
</svg>
