<svg width="100" height="100" viewBox="0 0 100 100" fill="none" xmlns="http://www.w3.org/2000/svg">
<g clip-path="url(#clip0_867_14097)">
<path fill-rule="evenodd" clip-rule="evenodd" d="M50 0.000244141C22.3875 0.000244141 0 22.3836 0 50.0002C0 77.6169 22.3875 100 50 100C77.6125 100 100 77.6127 100 50.0002C100 22.3836 77.6125 0.000244141 50 0.000244141ZM64.9208 71.1294C61.5042 74.0502 56.6833 75.5086 50.45 75.5086C44.0833 75.5086 39.075 74.0711 35.425 71.1961C31.775 68.3169 29.9542 64.3627 29.9542 59.3336H39.6C39.9125 61.5419 40.525 63.1919 41.4417 64.2919C43.1167 66.2794 45.9833 67.2752 50.05 67.2752C52.4833 67.2752 54.4583 67.0127 55.9792 66.4836C58.8625 65.4794 60.3 63.6086 60.3 60.8752C60.3 59.2836 59.5917 58.0419 58.1833 57.1669C56.7708 56.3169 54.5333 55.5586 51.4708 54.9086L46.2333 53.7586C41.0875 52.6169 37.5542 51.3836 35.6292 50.0502C32.3667 47.8211 30.7417 44.3336 30.7417 39.5836C30.7417 35.2502 32.3333 31.6586 35.5208 28.7919C38.7083 25.9252 43.3958 24.4919 49.5708 24.4919C54.7333 24.4919 59.1292 25.8419 62.775 28.5461C66.4167 31.2461 68.325 35.1711 68.5042 40.3086H58.7917C58.6125 37.4002 57.3125 35.3336 54.8917 34.1086C53.275 33.3002 51.2667 32.8919 48.8708 32.8919C46.2 32.8919 44.0708 33.4169 42.4792 34.4669C40.8875 35.5169 40.0917 36.9836 40.0917 38.8627C40.0917 40.5919 40.875 41.8836 42.4458 42.7336C43.4542 43.3044 45.5958 43.9711 48.8708 44.7336L57.3583 46.7336C61.075 47.6086 63.8667 48.7836 65.7208 50.2461C68.6042 52.5211 70.0458 55.8127 70.0458 60.1211C70.0458 64.5377 68.3375 68.2086 64.9208 71.1294Z" fill="#0066FF"/>
</g>
<defs>
<clipPath id="clip0_867_14097">
<rect width="100" height="100" fill="white"/>
</clipPath>
</defs>
</svg>
