<svg width="100" height="100" viewBox="0 0 100 100" fill="none" xmlns="http://www.w3.org/2000/svg">
<path d="M59.875 14.0625C56.75 13.125 53.3125 12.5 49.875 12.5C34.5625 12.5 21.75 21.5625 15.8125 34.6875C15.1875 36.25 13.625 36.875 12.0625 36.25L6.125 34.0625C4.25 33.4375 3.625 31.25 4.25 29.6875C12.0625 12.1875 29.5625 0 49.875 0C54.5625 0 59.25 0.624999 63.625 2.1875C65.5 2.8125 66.4375 4.6875 65.8125 6.25L63.625 12.1875C63 13.75 61.4375 14.375 59.875 14.0625ZM84.25 15.625C84.25 17.2826 83.5915 18.8723 82.4194 20.0444C81.2473 21.2165 79.6576 21.875 78 21.875C76.3424 21.875 74.7527 21.2165 73.5806 20.0444C72.4085 18.8723 71.75 17.2826 71.75 15.625C71.75 13.9674 72.4085 12.3777 73.5806 11.2056C74.7527 10.0335 76.3424 9.375 78 9.375C79.6576 9.375 81.2473 10.0335 82.4194 11.2056C83.5915 12.3777 84.25 13.9674 84.25 15.625ZM43.9375 43.75H93.3125C95.1875 43.75 96.75 42.1875 97.0625 40.3125V34.375C97.0625 32.5 95.5 30.9375 93.625 30.9375H43.9375C42.0625 30.9375 40.5 32.5 40.5 34.375V40.3125C40.5 42.1875 42.0625 43.75 43.9375 43.75ZM6.4375 68.75H55.8125C57.6875 68.75 59.25 67.1875 59.5625 65.625V59.6875C59.5625 57.8125 58 56.25 56.125 56.25H6.4375C4.5625 56.25 3 57.8125 3 59.375V65.3125C3 67.1875 4.5625 68.75 6.4375 68.75ZM21.75 90.625C23.4076 90.625 24.9973 89.9665 26.1694 88.7944C27.3415 87.6223 28 86.0326 28 84.375C28 82.7174 27.3415 81.1277 26.1694 79.9556C24.9973 78.7835 23.4076 78.125 21.75 78.125C20.0924 78.125 18.5027 78.7835 17.3306 79.9556C16.1585 81.1277 15.5 82.7174 15.5 84.375C15.5 86.0326 16.1585 87.6223 17.3306 88.7944C18.5027 89.9665 20.0924 90.625 21.75 90.625ZM49.875 87.5C46.4375 87.5 43 86.875 39.875 85.9375C38.3125 85.625 36.75 86.25 36.125 87.8125L33.9375 93.75C33.3125 95.3125 34.25 97.1875 36.125 97.8125C40.5 99.375 45.1875 100 49.875 100C70.1875 100 87.6875 87.8125 95.5 70.3125C96.125 68.75 95.5 66.5625 93.625 65.9375L87.6875 63.75C86.125 63.125 84.5625 63.75 83.9375 65.3125C78 78.4375 65.1875 87.5 49.875 87.5Z" fill="#52BD94"/>
</svg>
