<svg width="100" height="100" viewBox="0 0 100 100" fill="none" xmlns="http://www.w3.org/2000/svg">
<path d="M64.9214 62.8901C61.2495 62.812 58.0464 65.5464 57.6558 69.2182C57.6558 69.3745 57.7339 69.4526 57.8901 69.4526H71.9526C72.1089 69.4526 72.187 69.3745 72.187 69.2182C71.8745 65.4682 68.6714 62.6557 64.9214 62.8901Z" fill="#CF0A2C"/>
<path d="M95.0776 15.5476L65.0776 49.1414C64.7651 49.532 64.1401 49.532 63.7495 49.2195L63.6714 49.1414L48.5151 33.4382C48.2026 33.1257 48.2026 32.657 48.437 32.2664L53.5151 25.782C53.8276 25.3914 54.3745 25.2351 54.7651 25.5476C54.8433 25.6257 54.9214 25.6257 54.9214 25.7039L63.5151 35.157C63.8276 35.5476 64.4526 35.5476 64.8433 35.2351L64.9214 35.157L88.9058 2.57886C89.1401 2.26636 89.062 1.87573 88.7495 1.64136C88.6714 1.56323 88.5151 1.56323 88.3589 1.48511H4.45264C4.06201 1.56323 3.74951 1.87573 3.74951 2.26636V97.7351C3.74951 98.1257 4.06201 98.4382 4.45264 98.4382H95.5464C95.937 98.4382 96.2495 98.1257 96.2495 97.7351V16.0164C96.2495 15.6257 95.937 15.3914 95.6245 15.3914C95.3901 15.3132 95.2339 15.3914 95.0776 15.5476ZM29.6089 87.8132C23.5933 88.0476 17.7339 86.0164 13.2808 82.032C12.9683 81.7195 12.8901 81.2507 13.2026 80.8601L16.7183 75.8601C17.0308 75.4695 17.5776 75.3914 17.9683 75.6257L18.0464 75.7039C21.3276 78.7507 25.5464 80.3914 29.9995 80.3914C34.687 80.3914 36.9526 78.2039 36.9526 75.9382C36.9526 68.8288 13.9058 73.7507 13.9058 58.6726C13.9058 52.032 19.687 46.4851 29.062 46.4851C34.4526 46.3289 39.7651 48.1257 43.9839 51.5632C44.2964 51.8757 44.3745 52.4226 44.062 52.7351L40.3901 57.5789C40.0776 57.9695 39.5308 58.0476 39.1401 57.7351C36.0151 55.2351 32.187 53.907 28.2026 53.9851C24.5308 53.9851 22.4995 55.6257 22.4995 57.9695C22.4995 64.2976 45.4683 60.0789 45.4683 75.0007C45.5464 82.2664 40.312 87.8132 29.6089 87.8132ZM79.8433 73.907C79.8433 74.3757 79.4526 74.6882 79.062 74.6882H58.0464C57.8901 74.6882 57.812 74.7664 57.812 74.9226C58.5151 78.9851 62.187 81.7976 66.3276 81.5632C68.9839 81.4851 71.4839 80.7039 73.5933 79.1414C73.9058 78.907 74.4526 78.907 74.687 79.2976L74.7651 79.3757L77.3433 83.1257C77.5776 83.4382 77.4995 83.907 77.187 84.2195C73.8276 86.7195 69.687 87.9695 65.5464 87.8132C56.4839 87.8132 49.687 81.7195 49.687 72.1882C49.4526 63.8289 56.0151 56.8757 64.3745 56.6414H65.0776C73.9058 56.6414 79.9995 63.282 79.9995 72.9695L79.8433 73.907Z" fill="#CF0A2C"/>
</svg>
