<svg width="100" height="100" viewBox="0 0 100 100" fill="none" xmlns="http://www.w3.org/2000/svg">
<g clip-path="url(#clip0_1085_4062)">
<path d="M49.9453 0C22.3695 0 0 22.3938 0 50C0 77.6062 22.3695 100 49.9453 100C77.518 100 99.8906 77.6062 99.8906 50C99.8906 22.3938 77.5172 0 49.9453 0ZM25.3664 79.4187L42.5813 15.4172H52.1516L34.9398 79.4187H25.3664ZM80.3313 55.9078L75.1039 60.1406L66.7875 50.6992L58.1211 60.1406L52.6859 56.1406L59.5609 45.6969L48.2266 41.2578L50.2469 34.025L62.2102 37.1406L63.2078 25.2578H69.9922L70.9898 37.1406L82.3273 34.257L84.65 41.257L73.4313 45.6977L80.3313 55.9078Z" fill="black"/>
</g>
<defs>
<clipPath id="clip0_1085_4062">
<rect width="100" height="100" fill="white"/>
</clipPath>
</defs>
</svg>
