<svg width="100" height="100" viewBox="0 0 100 100" fill="none" xmlns="http://www.w3.org/2000/svg">
<g clip-path="url(#clip0_867_20659)">
<path d="M0 0H100V100H0V0Z" fill="#34BDB2"/>
<path d="M65.8051 34.0005C60.5254 30.9372 55.8387 28.5282 49.7075 28.6345C46.1997 28.6954 43.1879 30.6021 42.5547 34.0915C41.9653 37.338 44.8512 39.1388 47.8536 40.2442C52.8329 42.0778 57.1676 44.0138 62.0602 46.0524C70.9543 49.7591 75.5149 55.7618 74.9758 63.4638C74.2899 73.2634 68.3922 80.2919 59.0192 82.6091C46.7715 85.6372 34.8782 81.0247 24.8293 74.5856C27.3657 70.722 30.3083 68.0845 32.8293 64.2442C38.6348 66.7153 43.1958 70.0544 49.2692 70.5751C53.5516 70.9423 58.404 70.738 59.3661 65.7079C60.2333 61.172 56.2856 58.7403 52.4352 57.3821C47.8512 55.7653 43.2758 53.7876 38.7805 51.9517C30.4708 48.5575 27.0895 41.9188 27.6586 34.0982C27.6586 29.5126 31.4633 20.2443 40.7918 17.3614C55.1247 12.9318 63.0215 17.4677 73.4149 24.147C70.6543 27.7978 68.5321 30.3935 65.8051 34.0005Z" fill="white"/>
</g>
<defs>
<clipPath id="clip0_867_20659">
<rect width="100" height="100" fill="white"/>
</clipPath>
</defs>
</svg>
