<svg width="100" height="100" viewBox="0 0 100 100" fill="none" xmlns="http://www.w3.org/2000/svg">
<path d="M95.8335 34.7212H65.2793V65.2795H95.8335V34.7212Z" fill="#06FDB7"/>
<path d="M4.16682 4.16699V65.2795H34.721V34.7212H65.2793V4.16699H4.16682Z" fill="#5B2AD8"/>
<path d="M58.4919 18.0547H59.2002L65.2794 24.1214V24.8297L58.4877 18.0547H58.4919ZM55.1002 18.0547H55.8085L65.2794 27.5047V28.213L55.1002 18.0547ZM51.7085 18.0547H52.4169L65.2794 30.888V31.5964L51.7085 18.0547ZM48.3169 18.0547H49.0252L65.2752 34.2714V34.7214H65.0252L48.3169 18.0547ZM44.9252 18.0547H45.6335L62.3419 34.7214H61.6335L44.9252 18.0547ZM41.5335 18.0547H42.2419L58.946 34.7214H58.2377L41.5294 18.0547H41.5335ZM38.1419 18.0547H38.8502L55.5544 34.7214H54.846L38.1377 18.0547H38.1419ZM34.7502 18.0547H35.4585L52.1669 34.7214H51.4585L34.7502 18.0547ZM31.3377 18.0547H32.046L48.7544 34.7214H48.046L31.3377 18.0547ZM27.946 18.0547H28.6544L45.3627 34.7214H44.6544L27.946 18.0547ZM24.5502 18.0547H25.2585L41.9627 34.7214H41.2544L24.546 18.0547H24.5502ZM21.1544 18.0547H21.8627L38.571 34.7214H37.8627L21.1544 18.0547ZM18.0544 18.3464V18.0547H18.471L35.1794 34.7214H34.721V34.9714L18.0544 18.3464ZM18.0544 21.7297V21.0214L34.721 37.6505V38.3589L18.0544 21.7297ZM18.0544 25.113V24.4047L34.721 41.0339V41.7422L18.0544 25.113ZM18.0544 28.5005V27.7922L34.721 44.4172V45.1255L18.0544 28.5005ZM18.0544 31.8839V31.1755L34.721 47.8005V48.5089L18.0544 31.8839ZM18.0544 35.2672V34.5589L34.721 51.1839V51.8922L18.0544 35.2672ZM18.0544 38.6505V37.9422L34.721 54.5714V55.2797L18.0544 38.6505ZM18.0544 42.0339V41.3255L34.721 57.9547V58.663L18.0544 42.0339ZM18.0544 45.4172V44.7089L34.721 61.338V62.0464L18.0544 45.4172ZM18.0544 48.8005V48.0922L34.721 64.7214V65.2797H34.571L18.0544 48.8005ZM18.0544 52.1922V51.4839L31.8794 65.2755H31.171L18.0544 52.1922ZM18.0544 55.5839V54.8797L28.4794 65.2797H27.771L18.0544 55.5839ZM18.0544 58.9672V58.263L25.0877 65.2797H24.3794L18.0544 58.9672ZM18.0544 62.3547V61.6464L21.696 65.2797H20.9877L18.0544 62.3547ZM65.2794 21.4422L61.8835 18.0547H62.5919L65.2794 20.738V21.4422Z" fill="#06FDB7"/>
<path d="M95.8335 65.2793H65.2793V95.8335H95.8335V65.2793Z" fill="#5B2AD8"/>
<path d="M65.2794 65.2793H34.721V95.8335H65.2794V65.2793Z" fill="#06FDB7"/>
</svg>
