<svg width="100" height="100" viewBox="0 0 100 100" fill="none" xmlns="http://www.w3.org/2000/svg">
<path d="M57.9561 10.5244C57.1244 9.14399 55.95 8.00203 54.5468 7.2093C53.1436 6.41657 51.5594 6 49.9478 6C48.3362 6 46.7519 6.41657 45.3488 7.2093C43.9456 8.00203 42.7712 9.14399 41.9394 10.5244L28.7657 33.0879C38.8299 38.1125 47.4047 45.6823 53.6387 55.0456C59.8727 64.4089 63.5491 75.24 64.3027 86.4635H55.0531C54.3008 76.8428 51.0494 67.5854 45.6207 59.6073C40.1919 51.6292 32.7739 45.2069 24.1009 40.9761L11.9082 62.058C16.7839 64.2447 21.0316 67.6222 24.2607 71.8798C27.4898 76.1375 29.5966 81.1386 30.3874 86.4234H9.14529C8.89337 86.4056 8.64984 86.3253 8.43667 86.1899C8.22351 86.0545 8.0474 85.8681 7.92425 85.6476C7.80109 85.4271 7.73475 85.1795 7.73122 84.9269C7.72768 84.6744 7.78706 84.425 7.904 84.2011L13.7901 74.1907C11.7959 72.5268 9.51679 71.238 7.06312 70.3867L1.23706 80.3971C0.630534 81.4375 0.236783 82.588 0.0786794 83.7818C-0.0794248 84.9756 0.00126938 86.1889 0.316074 87.3513C0.630879 88.5136 1.17352 89.6018 1.91247 90.5527C2.65142 91.5035 3.57195 92.2981 4.62058 92.8902C6.00221 93.6686 7.55947 94.082 9.14529 94.0914H38.2356C38.7759 87.4246 37.5853 80.7312 34.7793 74.6596C31.9732 68.588 27.6467 63.3439 22.2189 59.4353L26.8437 51.427C33.6937 56.1317 39.1985 62.5414 42.8149 70.0233C46.4312 77.5052 48.034 85.8008 47.4652 94.0914H72.1109C72.6848 81.5323 69.9526 69.0425 64.1872 57.8701C58.4219 46.6978 49.8253 37.2342 39.2566 30.4251L48.6064 14.4084C48.8147 14.0594 49.1525 13.8067 49.5462 13.7055C49.9399 13.6042 50.3577 13.6626 50.7086 13.8679C51.7697 14.4485 91.3309 83.4803 92.0717 84.2812C92.2022 84.5152 92.2686 84.7795 92.2641 85.0474C92.2597 85.3153 92.1846 85.5773 92.0465 85.8069C91.9083 86.0364 91.712 86.2254 91.4774 86.3548C91.2427 86.4842 90.9781 86.5493 90.7102 86.5435H81.1803C81.3004 89.0929 81.3004 91.6355 81.1803 94.1715H90.7503C91.9655 94.1794 93.1702 93.9463 94.2947 93.4855C95.4192 93.0248 96.4412 92.3455 97.3014 91.4872C98.1616 90.6288 98.8431 89.6083 99.3063 88.4848C99.7695 87.3613 100.005 86.1571 99.9999 84.9419C100.001 83.3368 99.5725 81.7606 98.7586 80.3771L57.9561 10.5244Z" fill="#362D59"/>
</svg>
