<svg width="100" height="100" viewBox="0 0 100 100" fill="none" xmlns="http://www.w3.org/2000/svg">
<path d="M79.5624 32.5938V67.1875L50.1405 84.625L49.8749 84.8672V97.8125L50.1405 98.0625L91.5468 74.125V25.875L91.1561 25.7812L79.4374 32.3125L79.4999 32.5938" fill="#2F406A"/>
<path d="M20.6249 67.499L50.1406 84.624V98.0615L8.42181 74.0303V25.9678L8.8515 25.9053L20.4999 32.6787L20.6249 33.0693V67.499Z" fill="#2379BD"/>
<path d="M20.6249 33.062L8.42181 25.9683L50.0468 1.93701L91.5781 25.8745L79.5624 32.5933L50.0468 15.7495L20.6249 33.062Z" fill="#03AFEF"/>
<path d="M49.6326 63.5396L49.3123 63.2114V50.2114L49.6326 50.0474L49.7108 49.7271L60.8592 43.2271L61.2029 43.3052V56.7036L49.6404 63.5474" fill="#2F406A"/>
<path d="M37.8749 57.1167V43.2026H38.1952L49.5311 49.8042L49.6249 50.062V63.5386L37.8749 57.1167Z" fill="#2379BD"/>
<path d="M49.4452 36.3584L37.8749 43.2021L49.6327 50.0459L61.1952 43.2959L49.4452 36.3584Z" fill="#03AFEF"/>
<path d="M35.2421 72.0234L34.9218 71.6953V58.6953L35.2421 58.5312L35.3202 58.2109L46.4686 51.7109L46.8124 51.7891V65.1797L35.2499 72.0234" fill="#2F406A"/>
<path d="M23.4843 65.624V51.6865H23.8046L35.1562 58.2725L35.2499 58.5303V72.0225L23.4843 65.624Z" fill="#2379BD"/>
<path d="M35.0468 44.8447L23.4843 51.6885L35.2421 58.5322L46.8046 51.7822L35.0468 44.8447Z" fill="#03AFEF"/>
<path d="M65.0547 72.3428L64.7344 72.0147V59.0147L65.0547 58.8506L65.1328 58.5303L76.2812 52.0303L76.625 52.1084V65.499L65.0547 72.3428Z" fill="#2F406A"/>
<path d="M53.2969 65.9219V52.0078H53.6172L64.961 58.5938L65.0547 58.8516V72.3438L53.2969 65.9219Z" fill="#2379BD"/>
<path d="M64.8436 45.1641L53.2811 52.0078L65.0389 58.8516L76.6014 52.1016L64.8436 45.1641Z" fill="#03AFEF"/>
<path d="M50.6641 80.8291L50.3438 80.501V67.501L50.6641 67.3369L50.7422 67.0166L61.8907 60.5166L62.2344 60.5947V73.9853L50.6719 80.8291" fill="#2F406A"/>
<path d="M38.9064 74.3984V60.4922H39.2267L50.5626 67.0937L50.6564 67.3516V80.8438L38.9064 74.3984Z" fill="#2379BD"/>
<path d="M50.4689 53.6479L38.9064 60.4917L50.6642 67.3355L62.2267 60.5855L50.4689 53.6479Z" fill="#03AFEF"/>
<path d="M49.6326 45.1006L49.3123 44.7725V31.7725L49.6326 31.6084L49.7108 31.2881L60.8592 24.7803L61.2029 24.8584V38.2803L49.6404 45.124" fill="#2F406A"/>
<path d="M37.8749 38.6724V24.7661H38.1952L49.5311 31.3677L49.6249 31.6255V45.1021L37.8749 38.6724Z" fill="#2379BD"/>
<path d="M49.4452 17.9219L37.8749 24.7656L49.6327 31.6094L61.1952 24.8594L49.4452 17.9219Z" fill="#03AFEF"/>
<path d="M35.2421 53.5869L34.9218 53.2588V40.2588L35.2421 40.0947L35.3202 39.7744L46.4686 33.2744L46.8124 33.3525V46.7432L35.2499 53.5869" fill="#2F406A"/>
<path d="M23.4843 47.1558V33.2417H23.8046L35.1562 39.8433L35.2499 40.1011V53.5854L23.4843 47.1558Z" fill="#2379BD"/>
<path d="M35.0468 26.4058L23.4843 33.2495L35.2421 40.0933L46.8046 33.3433L35.0468 26.4058Z" fill="#03AFEF"/>
<path d="M65.0547 53.9062L64.7344 53.5781V40.5781L65.0547 40.4141L65.1328 40.0938L76.2812 33.5938L76.625 33.6719V47.0625L65.0547 53.9062Z" fill="#2F406A"/>
<path d="M53.2969 47.4766V33.5938H53.6172L64.9532 40.1953L65.0469 40.4531V53.9062L53.2969 47.4766Z" fill="#2379BD"/>
<path d="M64.8438 26.7275L53.2969 33.5947L65.0547 40.4385L76.6172 33.6885L64.8438 26.7275Z" fill="#03AFEF"/>
<path d="M50.6641 62.3818L50.3438 62.0537V49.0537L50.6641 48.8897L50.7422 48.5693L61.8907 42.0693L62.2344 42.1475V55.5381L50.6719 62.3818" fill="#2F406A"/>
<path d="M38.9064 55.9609V42.0469H39.2267L50.5626 48.6484L50.6564 48.9062V62.3828L38.9064 55.9609Z" fill="#2379BD"/>
<path d="M50.4689 35.2031L38.9064 42.0469L50.6642 48.8906L62.2267 42.1406L50.4689 35.2031Z" fill="#03AFEF"/>
</svg>
