<svg width="100" height="100" viewBox="0 0 100 100" fill="none" xmlns="http://www.w3.org/2000/svg">
<path d="M85.5922 24.3134L66.0945 10.1158C54.2672 1.5025 50.2391 -1.86078 33.6 10.1158L14.1016 24.3134C2.27502 32.9275 -2.15936 35.7275 4.06251 55.29L11.5094 78.2619C16.0274 92.1986 17.3141 97.2923 37.7985 97.4056H61.8977C76.518 97.4056 81.7485 97.7533 88.1867 78.2619L95.6344 55.2892C100.152 41.3517 102.098 36.4744 85.5922 24.3134Z" fill="#8CC445"/>
<path d="M4.072 55.2781C4.072 55.2781 1.71809 46.8797 1.40637 43.8047L1.41028 43.8008C23.6782 52.9352 55.5509 60.0195 92.8423 63.868L88.1908 78.2734C81.7525 97.7641 76.522 97.393 61.9017 97.393H37.8079C17.3236 97.2789 16.0376 92.2109 11.5189 78.2734L4.072 55.2781Z" fill="#6FAD20"/>
<path d="M63.4078 32.3444L66.8046 19.2749H66.807L82.9304 31.0093C86.6726 33.5843 89.7507 36.2147 90.7695 40.4382C91.8031 44.721 90.3843 47.7491 89.3585 50.9147L80.7874 77.421C79.5015 81.7827 77.9468 85.5171 74.2546 87.7929C70.5101 90.1015 67.2015 89.7046 63.8804 89.7046H36.0757C31.5351 89.8265 27.5132 89.5358 24.2109 86.7187C24.2109 86.7187 20.2203 80.5866 19.1937 77.4202L10.5968 50.9147C9.07494 46.6179 8.13119 42.6804 9.78666 38.6569C11.4624 34.5835 14.3648 32.9655 17.0515 31.0085L33.1484 19.3022L36.5453 32.3726C31.5305 36.0394 26.5219 39.7146 21.5195 43.3983C21.5679 43.6421 31.5187 74.7069 32.3374 77.0023C32.3374 77.0023 33.4984 77.2038 35.8921 77.1335H63.8781C66.4367 77.1335 67.239 77.0624 67.5367 77.0554C67.6445 76.8226 77.8054 45.8288 78.4859 43.503L63.4078 32.3444Z" fill="white"/>
<path d="M49.3513 10.034C45.7498 10.2551 42.699 12.1958 39.5521 14.6176C39.5224 14.6411 39.5013 14.6723 39.474 14.6965L48.0967 47.9739H51.8599L60.5092 14.6965L60.431 14.6184C57.7435 12.6614 55.3021 10.3997 50.9193 10.0606C50.3977 10.0145 49.8734 10.0058 49.3506 10.0348L49.3513 10.034Z" fill="white"/>
</svg>
