<svg width="100" height="100" viewBox="0 0 100 100" fill="none" xmlns="http://www.w3.org/2000/svg">
<g clip-path="url(#clip0_867_19573)">
<path d="M92.5149 49.0376C94.2128 47.3397 96.9664 47.3397 98.6643 49.0376C100.362 50.7355 100.362 53.4892 98.6643 55.187L55.1868 98.6646C53.4889 100.362 50.7353 100.362 49.0374 98.6646C47.3394 96.9666 47.3394 94.2131 49.0374 92.5151L92.5149 49.0376ZM83.8196 1.21143C85.5175 -0.48635 88.2711 -0.486446 89.969 1.21143C91.6667 2.90931 91.6667 5.66295 89.969 7.36084L7.3606 89.9692C5.66271 91.667 2.90907 91.667 1.21118 89.9692C-0.486692 88.2714 -0.4866 85.5178 1.21118 83.8198L83.8196 1.21143Z" fill="black"/>
</g>
<defs>
<clipPath id="clip0_867_19573">
<rect width="100" height="100" fill="white"/>
</clipPath>
</defs>
</svg>
