<svg width="100" height="100" viewBox="0 0 100 100" fill="none" xmlns="http://www.w3.org/2000/svg">
<path d="M78.0077 90.1641C70.2265 95.5469 60.828 98.7344 50.6796 98.8438C24.0077 99.1328 1.74209 77.6875 1.07803 51.0156C0.390531 23.3359 22.6171 0.6875 50.1405 0.6875C62.4921 0.6875 73.7733 5.25 82.3905 12.7734C83.1718 13.4531 82.6015 14.7266 81.578 14.6094C64.3358 12.5859 47.4608 14.4688 36.7812 22.7578C24.453 32.3281 23.2812 46.8516 30.3905 59.6406C40.4218 77.6875 62.6405 77.8672 78.0077 88.4063C78.6249 88.8281 78.6249 89.7422 78.0077 90.1641Z" fill="#179EFF"/>
<path d="M99.2188 49.7654C99.2188 56.4373 97.8906 62.7966 95.4766 68.5935C83.125 61.992 69.9766 57.4919 64.0781 55.2888C57.1094 52.6716 51.0078 45.406 55.0781 39.0232C59.1484 32.6404 69.3047 31.4763 81.7969 34.6638C87.125 36.031 92.0547 39.5232 96.5469 43.6873C98.2266 45.2498 99.2188 47.4294 99.2266 49.7263C99.2188 49.7419 99.2188 49.7498 99.2188 49.7654Z" fill="#179EFF"/>
</svg>
