<svg width="100" height="100" viewBox="0 0 100 100" fill="none" xmlns="http://www.w3.org/2000/svg">
<path d="M50 98.4375C76.7513 98.4375 98.4375 76.7513 98.4375 50C98.4375 23.2487 76.7513 1.5625 50 1.5625C23.2487 1.5625 1.5625 23.2487 1.5625 50C1.5625 76.7513 23.2487 98.4375 50 98.4375Z" fill="black"/>
<path d="M28.1252 55.2339L16.094 56.4058C16.7971 59.4526 18.3596 61.8745 20.8596 63.5933C23.2815 65.2339 27.4221 66.0933 33.2815 66.0933C37.344 66.0933 40.6252 65.5464 43.0471 64.5308C45.3909 63.5151 47.1877 62.1089 48.2815 60.312C49.3752 58.5151 49.9221 56.7183 49.9221 54.8433C49.9221 52.9683 49.3752 51.3276 48.3596 49.7651C47.344 48.2026 45.7815 47.0308 43.8284 46.1714C41.8752 45.312 38.8284 44.687 34.7659 44.2183C32.1096 43.9058 30.3909 43.5151 29.5315 43.1245C28.7502 42.7339 28.3596 42.1089 28.3596 41.3276C28.3596 40.6245 28.6721 39.9995 29.2971 39.5308C29.9221 39.062 30.9377 38.8276 32.344 38.8276C33.6721 38.8276 34.844 39.1401 35.7815 39.7651C36.4846 40.2339 36.9534 41.0151 37.2659 42.0308L48.8284 40.8589C48.0471 38.7495 47.0315 37.1089 45.7815 35.8589C44.6096 34.6089 43.0471 33.6714 41.2502 33.1245C39.4534 32.4995 36.6409 32.2651 32.8127 32.2651C29.219 32.2651 26.3284 32.6558 24.219 33.437C22.1096 34.2183 20.3909 35.312 19.219 36.8745C17.969 38.437 17.4221 40.2339 17.4221 42.3433C17.4221 44.2964 17.969 46.0151 19.1409 47.5776C20.2346 49.1401 21.6409 50.1558 23.2815 50.7808C24.9221 51.4058 27.8909 52.1089 32.1096 52.8901C34.9221 53.3589 36.719 53.8276 37.344 54.1401C38.2815 54.6089 38.6721 55.312 38.6721 56.2495C38.6721 57.0308 38.3596 57.7339 37.6565 58.2026C36.719 58.9058 35.469 59.2964 33.8284 59.2964C32.344 59.2964 31.1721 58.9839 30.2346 58.3589C29.2971 57.7339 28.594 56.7183 28.1252 55.2339ZM52.4221 48.8276C52.4221 39.2183 60.0002 31.4839 70.5471 31.4839C75.469 31.4839 79.1409 32.6558 81.4065 33.6714L81.5627 33.7495V42.0308L81.094 41.7964C78.9846 40.8589 75.7815 39.6089 71.2502 39.6089C68.1252 39.6089 65.7034 40.7026 64.0627 42.3433C62.4221 43.9839 61.5627 46.2495 61.5627 48.6714C61.5627 53.5933 65.0002 57.812 70.7815 57.812C71.8752 57.812 73.0471 57.6558 73.9065 57.4995V49.062H82.6565V63.5151L82.5002 63.5933C79.2971 65.1558 74.9221 66.0933 70.7815 66.0933C59.9221 66.1714 52.4221 58.5933 52.4221 48.8276Z" fill="white"/>
</svg>
