<svg width="100" height="100" viewBox="0 0 100 100" fill="none" xmlns="http://www.w3.org/2000/svg">
<path fill-rule="evenodd" clip-rule="evenodd" d="M86.0957 0.000488281H78.8415C55.6124 0.000488281 42.2249 14.8338 42.2249 37.5755V41.4797C35.9637 39.6849 29.2872 39.9882 23.2145 42.3434C17.1418 44.6985 12.0066 48.976 8.59267 54.5229C5.17874 60.0699 3.67365 66.5816 4.30715 73.0641C4.94064 79.5466 7.67791 85.6437 12.1011 90.4248C16.5244 95.2058 22.3906 98.4083 28.8043 99.5431C35.218 100.678 41.8269 99.6831 47.6222 96.7101C53.4175 93.7372 58.0808 88.9495 60.9003 83.0781C63.7198 77.2066 64.5406 70.5738 63.2374 64.1922H86.0957C88.9943 64.1922 91.7742 63.0407 93.8238 60.9911C95.8734 58.9415 97.0249 56.1616 97.0249 53.263C97.0249 50.3644 95.8734 47.5845 93.8238 45.5349C91.7742 43.4853 88.9943 42.3338 86.0957 42.3338H63.354V36.613C63.354 27.9047 69.6457 21.613 78.8415 21.613H86.0957C88.9249 21.5574 91.6196 20.3945 93.6008 18.374C95.582 16.3535 96.6918 13.6365 96.6918 10.8067C96.6918 7.97694 95.582 5.26001 93.6008 3.23949C91.6196 1.21897 88.9249 0.0560466 86.0957 0.000488281ZM42.8749 70.163C42.926 68.9827 42.7411 67.8041 42.3308 66.6963C41.9205 65.5885 41.2932 64.5737 40.4856 63.7115C39.678 62.8493 38.7064 62.157 37.6278 61.6752C36.5491 61.1934 35.3851 60.9318 34.2041 60.9057C33.023 60.8796 31.8486 61.0896 30.7497 61.5233C29.6509 61.9571 28.6497 62.6058 27.8048 63.4316C26.96 64.2573 26.2885 65.2434 25.8297 66.332C25.371 67.4207 25.1341 68.59 25.1332 69.7713C25.1313 72.0924 26.0388 74.3219 27.6612 75.9819C29.2836 77.6419 31.4917 78.6002 33.8123 78.6514C36.1329 78.7026 38.3811 77.8427 40.0752 76.256C41.7693 74.6692 42.7743 72.4819 42.8749 70.163Z" fill="#7C3AED"/>
</svg>
