<svg width="100" height="100" viewBox="0 0 100 100" fill="none" xmlns="http://www.w3.org/2000/svg">
<g clip-path="url(#clip0_867_22498)">
<path fill-rule="evenodd" clip-rule="evenodd" d="M0.496507 36.6323L20.8181 9.04674C21.0259 8.76525 21.2898 8.52982 21.593 8.35528C21.8963 8.18074 22.2324 8.07086 22.5802 8.03256L49.7221 5.01539C49.9074 4.99487 50.0945 4.99487 50.2799 5.01539L77.4218 8.02939C77.7696 8.0677 78.1057 8.17758 78.4089 8.35212C78.7122 8.52666 78.976 8.76208 79.1839 9.04357L99.5086 36.6323C99.8486 37.0955 100.021 37.6603 99.9982 38.2344C99.9752 38.8085 99.7578 39.3577 99.3818 39.7921L51.443 95.2295C51.2645 95.4361 51.0436 95.6018 50.7953 95.7154C50.547 95.829 50.2772 95.8878 50.0041 95.8878C49.7311 95.8878 49.4613 95.829 49.213 95.7154C48.9647 95.6018 48.7438 95.4361 48.5653 95.2295L0.61694 39.7921C0.241395 39.3573 0.0246389 38.8079 0.00218281 38.2338C-0.0202733 37.6598 0.152902 37.0951 0.493338 36.6323H0.496507ZM56.9924 13.17L76.1572 31.273C76.3429 31.449 76.5775 31.5646 76.8302 31.6047C77.0828 31.6449 77.3417 31.6077 77.5728 31.4979C77.8039 31.3882 77.9964 31.2111 78.125 30.99C78.2536 30.7689 78.3123 30.514 78.2933 30.2589L77.3742 17.4105C77.3613 17.2533 77.4075 17.097 77.5037 16.972C77.5999 16.8471 77.7393 16.7624 77.8945 16.7347C78.0498 16.707 78.2098 16.7381 78.3433 16.8221C78.4768 16.906 78.5743 17.0367 78.6166 17.1887L82.8191 31.9006C82.9605 32.3959 83.2206 32.8494 83.5768 33.2216C83.933 33.5938 84.3746 33.8736 84.8633 34.0367L93.8324 37.0253C93.9755 37.0723 94.0971 37.1688 94.1756 37.2974C94.254 37.4259 94.2841 37.5783 94.2605 37.727C94.2368 37.8758 94.161 38.0112 94.0465 38.1091C93.9321 38.207 93.7865 38.261 93.6359 38.2613H85.0154C84.4826 38.2617 83.9585 38.3963 83.4915 38.6527C83.0246 38.9092 82.6298 39.2793 82.3437 39.7287L58.8465 76.6511C58.715 76.8525 58.512 76.9966 58.2785 77.0544C58.045 77.1121 57.7982 77.0791 57.588 76.9622C57.3778 76.8452 57.2198 76.6529 57.1457 76.424C57.0716 76.1952 57.0871 75.9467 57.1889 75.7288L74.0306 40.9933C74.1713 40.7033 74.2361 40.3824 74.2187 40.0605C74.2014 39.7387 74.1025 39.4265 73.9314 39.1534C73.7603 38.8803 73.5226 38.6551 73.2405 38.4991C72.9585 38.343 72.6415 38.2612 72.3192 38.2613H27.6828C27.3605 38.2612 27.0434 38.343 26.7614 38.4991C26.4794 38.6551 26.2417 38.8803 26.0706 39.1534C25.8995 39.4265 25.8006 39.7387 25.7832 40.0605C25.7659 40.3824 25.8306 40.7033 25.9713 40.9933L42.813 75.7288C42.9188 75.9472 42.9372 76.1977 42.8643 76.4291C42.7914 76.6605 42.6327 76.8553 42.4209 76.9736C42.209 77.0919 41.96 77.1247 41.7247 77.0653C41.4895 77.006 41.2858 76.8589 41.1555 76.6542L17.6583 39.7319C17.3723 39.2814 16.9771 38.9104 16.5095 38.6534C16.0419 38.3963 15.517 38.2615 14.9834 38.2613H6.09983C5.94921 38.261 5.80364 38.207 5.68919 38.1091C5.57474 38.0112 5.4989 37.8758 5.47525 37.727C5.4516 37.5783 5.4817 37.4259 5.56014 37.2974C5.63858 37.1688 5.76025 37.0723 5.90333 37.0253L15.1197 34.0303C15.6135 33.8694 16.0603 33.5896 16.4206 33.2154C16.781 32.8413 17.0438 32.3843 17.186 31.8847L21.3854 17.1887C21.4277 17.0367 21.5251 16.906 21.6586 16.8221C21.7921 16.7381 21.9522 16.707 22.1074 16.7347C22.2627 16.7624 22.402 16.8471 22.4982 16.972C22.5944 17.097 22.6406 17.2533 22.6277 17.4105L21.7086 30.2589C21.6897 30.514 21.7484 30.7689 21.877 30.99C22.0056 31.2111 22.1981 31.3882 22.4292 31.4979C22.6603 31.6077 22.9191 31.6449 23.1718 31.6047C23.4244 31.5646 23.659 31.449 23.8447 31.273L43.0095 13.17C43.1253 13.0531 43.282 12.9858 43.4466 12.9823C43.6111 12.9789 43.7705 13.0395 43.8911 13.1515C44.0117 13.2634 44.0841 13.4179 44.0928 13.5823C44.1016 13.7466 44.0461 13.9079 43.9381 14.032L31.0802 29.8564C30.9295 30.0422 30.8344 30.267 30.806 30.5047C30.7776 30.7424 30.8171 30.9832 30.9199 31.1994C31.0226 31.4155 31.1845 31.5982 31.3868 31.7262C31.589 31.8542 31.8234 31.9224 32.0627 31.9227H67.9392C68.1786 31.9224 68.4129 31.8542 68.6152 31.7262C68.8174 31.5982 68.9793 31.4155 69.0821 31.1994C69.1849 30.9832 69.2243 30.7424 69.196 30.5047C69.1676 30.267 69.0725 30.0422 68.9217 29.8564L56.0638 14.032C55.9558 13.9079 55.9003 13.7466 55.9091 13.5823C55.9179 13.4179 55.9902 13.2634 56.1108 13.1515C56.2314 13.0395 56.3909 12.9789 56.5554 12.9823C56.7199 12.9858 56.8766 13.0531 56.9924 13.17Z" fill="black"/>
</g>
<defs>
<clipPath id="clip0_867_22498">
<rect width="100" height="100" fill="white"/>
</clipPath>
</defs>
</svg>
