<svg width="100" height="100" viewBox="0 0 100 100" fill="none" xmlns="http://www.w3.org/2000/svg">
<g clip-path="url(#clip0_868_39496)">
<path d="M55.9709 7.31638C49.5406 2.30539 41.5493 -0.277893 33.4026 0.020847C25.2558 0.319587 17.4752 3.48122 11.4292 8.94971C4.60333 15.1229 0.506882 23.7531 0.0396921 32.9445C-0.427498 42.136 2.77278 51.1371 8.93754 57.9706C14.3974 64.0255 21.8174 67.9614 29.8925 69.0863C37.9676 70.2111 46.1807 68.4528 53.0875 64.1206L26.1584 34.2747L55.9709 7.31638Z" fill="#4D5EFF"/>
<path d="M44.0335 90.5916C50.4631 95.6004 58.4527 98.1824 66.5975 97.8836C74.7424 97.5849 82.5213 94.4246 88.5668 88.9582C95.3917 82.7845 99.4874 74.1544 99.9546 64.9633C100.422 55.7722 97.2222 46.7714 91.0585 39.9374C85.5986 33.8825 78.1786 29.9465 70.1035 28.8217C62.0284 27.6969 53.8153 29.4552 46.9085 33.7874L73.8376 63.6332L44.0251 90.5916H44.0335Z" fill="#00FFCE"/>
</g>
<defs>
<clipPath id="clip0_868_39496">
<rect width="100" height="100" fill="white"/>
</clipPath>
</defs>
</svg>
