<svg width="100" height="100" viewBox="0 0 100 100" fill="none" xmlns="http://www.w3.org/2000/svg">
<g clip-path="url(#clip0_867_22541)">
<path fill-rule="evenodd" clip-rule="evenodd" d="M36.5912 -0.000976562C31.0744 0.00310091 26.6096 4.48016 26.6137 9.99698C26.6096 15.5138 31.0785 19.9909 36.5953 19.9949H46.5769V10.0011C46.581 4.48424 42.1121 0.00717838 36.5912 -0.000976562C36.5953 -0.000976562 36.5953 -0.000976562 36.5912 -0.000976562ZM36.5912 26.6657H9.98166C4.46484 26.6698 -0.00406633 31.1468 1.11432e-05 36.6636C-0.0081438 42.1804 4.46076 46.6575 9.97758 46.6657H36.5912C42.108 46.6616 46.5769 42.1845 46.5729 36.6677C46.5769 31.1468 42.108 26.6698 36.5912 26.6657Z" fill="#36C5F0"/>
<path fill-rule="evenodd" clip-rule="evenodd" d="M99.8002 36.6636C99.8042 31.1468 95.3353 26.6698 89.8185 26.6657C84.3017 26.6698 79.8328 31.1468 79.8369 36.6636V46.6657H89.8185C95.3353 46.6616 99.8042 42.1845 99.8002 36.6636ZM73.1865 36.6636V9.99698C73.1906 4.48424 68.7258 0.00717838 63.2089 -0.000976562C57.6921 0.00310091 53.2232 4.48016 53.2273 9.99698V36.6636C53.2192 42.1804 57.6881 46.6575 63.2049 46.6657C68.7217 46.6616 73.1906 42.1845 73.1865 36.6636Z" fill="#2EB67D"/>
<path fill-rule="evenodd" clip-rule="evenodd" d="M63.205 99.9988C68.7219 99.9948 73.1908 95.5177 73.1867 90.0009C73.1908 84.4841 68.7219 80.007 63.205 80.0029H53.2234V90.0009C53.2193 95.5136 57.6882 99.9907 63.205 99.9988ZM63.205 73.3281H89.8187C95.3355 73.324 99.8044 68.847 99.8003 63.3302C99.8085 57.8133 95.3396 53.3363 89.8228 53.3281H63.2091C57.6923 53.3322 53.2234 57.8093 53.2275 63.3261C53.2234 68.847 57.6882 73.324 63.205 73.3281Z" fill="#ECB22E"/>
<path fill-rule="evenodd" clip-rule="evenodd" d="M0.000246929 63.33C-0.00383054 68.8468 4.46508 73.3239 9.98189 73.3279C15.4987 73.3239 19.9676 68.8468 19.9635 63.33V53.332H9.98189C4.46508 53.3361 -0.00383054 57.8132 0.000246929 63.33ZM26.6139 63.33V89.9966C26.6057 95.5135 31.0746 99.9905 36.5915 99.9987C42.1083 99.9946 46.5772 95.5175 46.5731 90.0007V63.3381C46.5813 57.8213 42.1124 53.3443 36.5955 53.3361C31.0746 53.3361 26.6098 57.8132 26.6139 63.33Z" fill="#E01E5A"/>
</g>
<defs>
<clipPath id="clip0_867_22541">
<rect width="100" height="100" fill="white"/>
</clipPath>
</defs>
</svg>
