<svg width="100" height="100" viewBox="0 0 100 100" fill="none" xmlns="http://www.w3.org/2000/svg">
<g clip-path="url(#clip0_867_14175)">
<path fill-rule="evenodd" clip-rule="evenodd" d="M96.8815 43.188L85.0357 50.0047L96.8815 56.8005C97.5919 57.2025 98.2147 57.7424 98.7135 58.3886C99.2122 59.0347 99.5767 59.774 99.7857 60.563C99.998 61.3536 100.052 62.1783 99.9449 62.9899C99.8376 63.8015 99.5711 64.5838 99.1607 65.2922C98.319 66.7172 96.9524 67.7547 95.3607 68.1797C93.7676 68.6022 92.0721 68.3775 90.644 67.5546L69.4357 55.3713C68.0729 54.5948 67.059 53.3261 66.6024 51.8255C66.3937 51.1729 66.2979 50.4895 66.319 49.8047C66.3534 48.7459 66.6562 47.7132 67.1992 46.8036C67.7422 45.894 68.5075 45.1373 69.4232 44.6047L90.6315 32.4338C91.3404 32.0242 92.123 31.7581 92.9346 31.651C93.7463 31.5438 94.5711 31.5976 95.362 31.8092C96.1528 32.0209 96.8943 32.3863 97.5439 32.8845C98.1936 33.3827 98.7387 34.004 99.1482 34.713C99.5613 35.4169 99.8305 36.1958 99.9401 37.0046C100.05 37.8134 99.9975 38.6359 99.7866 39.4244C99.5758 40.2128 99.2104 40.9515 98.7116 41.5976C98.2129 42.2437 97.5909 42.7843 96.8815 43.188ZM85.6649 76.2171L64.469 64.0505C63.3768 63.4152 62.1156 63.1316 60.8565 63.238C59.2943 63.3442 57.8313 64.0415 56.7649 65.188C55.694 66.338 55.0982 67.8505 55.0857 69.4255V93.788C55.0851 94.6061 55.2463 95.4162 55.5599 96.1718C55.8734 96.9275 56.3333 97.6137 56.9129 98.191C57.4925 98.7683 58.1806 99.2254 58.9375 99.5359C59.6943 99.8464 60.5051 100.004 61.3232 100C64.7732 100 67.5607 97.2172 67.5607 93.788V80.163L79.4315 86.9797C80.1392 87.3915 80.9212 87.6596 81.7327 87.7685C82.5442 87.8775 83.3692 87.8252 84.1605 87.6146C84.9517 87.404 85.6936 87.0393 86.3436 86.5414C86.9936 86.0434 87.5389 85.4221 87.9482 84.713C88.3584 84.0054 88.6248 83.2238 88.732 82.4131C88.8392 81.6023 88.7852 80.7783 88.573 79.9885C88.3609 79.1986 87.9947 78.4585 87.4956 77.8106C86.9966 77.1627 86.3744 76.6239 85.6649 76.2171ZM61.2065 52.388L52.3899 61.1463C52.0882 61.427 51.6972 61.5923 51.2857 61.613H48.6982C48.2872 61.5898 47.897 61.4249 47.594 61.1463L38.7815 52.388C38.5066 52.0884 38.3445 51.7024 38.3232 51.2963V48.713C38.3451 48.3033 38.5068 47.9135 38.7815 47.6088L47.5899 38.8505C47.8928 38.5755 48.2813 38.4136 48.6899 38.3922H51.2857C51.696 38.4113 52.0866 38.5734 52.3899 38.8505L61.2065 47.6088C61.4797 47.9141 61.64 48.3038 61.6607 48.713V51.2963C61.6367 51.7018 61.4792 52.0869 61.2065 52.388ZM54.1649 49.9588C54.1366 49.5471 53.9707 49.1567 53.694 48.8505L51.144 46.3213C50.838 46.046 50.4468 45.8842 50.0357 45.863H49.9357C49.5272 45.8844 49.1386 46.0463 48.8357 46.3213L46.2857 48.8505C46.0164 49.1591 45.8593 49.5497 45.8399 49.9588V50.0588C45.8399 50.413 46.0357 50.9005 46.2857 51.1505L48.8357 53.6922C49.0899 53.9422 49.5815 54.1505 49.9357 54.1505H50.0357C50.4465 54.1282 50.8375 53.9666 51.144 53.6922L53.694 51.1505C53.9694 50.8504 54.1341 50.4652 54.1607 50.0588V49.9588H54.1649ZM14.3149 23.7672L35.519 35.9505C36.6607 36.6047 37.9274 36.863 39.1357 36.763C40.6982 36.6547 42.1607 35.9547 43.2315 34.8047C44.2982 33.6588 44.8982 32.138 44.9107 30.5672V6.20465C44.9149 2.77965 42.1232 0.000488281 38.6815 0.000488281C35.2274 0.000488281 32.4399 2.77965 32.4399 6.20882V19.8338L20.5649 13.0047C19.8561 12.5942 19.0734 12.3274 18.2615 12.2196C17.4495 12.1118 16.6243 12.165 15.833 12.3763C15.0416 12.5876 14.2997 12.9527 13.6496 13.4509C12.9994 13.9491 12.4539 14.5705 12.044 15.2797C11.6349 15.986 11.3692 16.7662 11.2621 17.5754C11.155 18.3847 11.2087 19.2071 11.42 19.9956C11.6313 20.784 11.9962 21.523 12.4937 22.1702C12.9911 22.8175 13.6073 23.3601 14.3149 23.7672ZM60.8565 36.763C62.0649 36.863 63.3315 36.6047 64.4649 35.9505L85.6607 23.7713C86.3705 23.3686 86.9929 22.8284 87.4915 22.1824C87.9901 21.5364 88.355 20.7975 88.5649 20.0088C88.9931 18.4125 88.7698 16.7114 87.944 15.2797C87.1156 13.8493 85.7531 12.8065 84.1559 12.3807C82.5588 11.9548 80.8579 12.1808 79.4274 13.0088L67.5607 19.8338V6.20465C67.5607 2.77965 64.7732 0.000488281 61.3232 0.000488281C57.8649 0.000488281 55.0857 2.77965 55.0857 6.20882V30.563C55.0859 32.134 55.6814 33.6466 56.7521 34.7963C57.8229 35.9459 59.2895 36.6471 60.8565 36.7588V36.763ZM39.1357 63.238C37.8758 63.13 36.6131 63.4122 35.519 64.0463L14.3149 76.213C13.6053 76.6175 12.9834 77.1592 12.4855 77.8067C11.9876 78.4541 11.6236 79.1942 11.4149 79.9838C10.9863 81.5797 11.2081 83.2804 12.0315 84.713C12.8613 86.1419 14.2245 87.1829 15.8215 87.6072C17.4185 88.0314 19.1187 87.8042 20.5482 86.9755L32.4274 80.1588V93.7838C32.4274 97.2213 35.219 99.9963 38.669 99.9963C42.1107 99.9963 44.9024 97.2172 44.9024 93.788V69.4255C44.8983 67.8531 44.3017 66.34 43.2315 65.188C42.1654 64.0411 40.7022 63.3438 39.1399 63.238H39.1357ZM33.3857 51.8213C33.594 51.1713 33.6857 50.488 33.669 49.8047C33.6333 48.7432 33.3271 47.7084 32.7795 46.7984C32.2319 45.8884 31.461 45.1333 30.5399 44.6047L9.35653 32.438C7.92381 31.6127 6.22231 31.3892 4.62503 31.8164C3.02776 32.2436 1.66507 33.2868 0.835701 34.7172C0.42457 35.4226 0.157525 36.2026 0.0500398 37.012C-0.057445 37.8214 -0.00323213 38.6441 0.209537 39.4324C0.422306 40.2207 0.7894 40.9589 1.28955 41.6043C1.7897 42.2497 2.41295 42.7894 3.1232 43.1922L14.9607 50.0088L3.1232 56.8047C2.41207 57.2062 1.78844 57.746 1.28898 58.3921C0.789516 59.0383 0.424319 59.7778 0.214868 60.5672C0.00254322 61.3578 -0.0515439 62.1825 0.0557108 62.9941C0.162965 63.8056 0.42945 64.588 0.839868 65.2963C1.68153 66.7255 3.0482 67.763 4.63987 68.1838C6.23153 68.6088 7.92737 68.3838 9.35653 67.5588L30.5482 55.3755C31.9857 54.563 32.9524 53.2713 33.3982 51.8255L33.3857 51.8213Z" fill="#249EDC"/>
</g>
<defs>
<clipPath id="clip0_867_14175">
<rect width="100" height="100" fill="white"/>
</clipPath>
</defs>
</svg>
