<svg width="100" height="100" viewBox="0 0 100 100" fill="none" xmlns="http://www.w3.org/2000/svg">
<path d="M75.1988 22.1104C75.7779 23.7297 76.1241 25.4232 76.2271 27.1398V27.6754L72.4777 37.6916C73.3453 45.6026 74.1702 55.3668 73.2544 57.7344C72.8044 58.8912 71.444 60.9908 69.2319 63.9473L71.6315 86.1433L81.1334 79.3358C81.6174 78.9884 82.0118 78.5309 82.2837 78.001C82.5558 77.4709 82.6975 76.8838 82.6973 76.2881V26.9041C82.6977 26.0907 82.4336 25.299 81.9448 24.6487C81.4558 23.9986 80.7688 23.5248 79.9872 23.2994C78.7927 22.9566 77.1805 22.5388 75.1988 22.1104Z" fill="black"/>
<path d="M43.501 27.1719C47.9626 25.6684 52.7939 25.6684 57.2555 27.1719L58.4072 25.2811L59.1732 19.925C59.1732 19.925 53.8169 19.6411 50.421 19.6411C47.2662 19.6411 44.3204 19.7536 41.5835 19.9357L42.3546 25.292L43.501 27.1719Z" fill="black"/>
<path d="M27.459 57.7342C26.5484 55.3882 27.3733 45.6026 28.2356 37.6914L24.5131 27.6754V27.1398C24.6144 25.4252 24.9588 23.7335 25.5361 22.1157C23.5543 22.5442 21.9475 22.962 20.7156 23.3048C19.9329 23.5292 19.2446 24.0026 18.7547 24.6529C18.2647 25.3032 17.9998 26.0953 18 26.9095V76.2879C18.0004 76.8843 18.143 77.4717 18.416 78.0018C18.6889 78.5317 19.0843 78.989 19.5693 79.3356L29.1087 86.1702L31.5082 63.9956C29.2908 61.0122 27.9143 58.9019 27.459 57.7342Z" fill="black"/>
<path d="M63.8005 2.14257C63.8482 2.1416 63.8951 2.15418 63.9358 2.17881C63.9765 2.20347 64.0095 2.23918 64.0309 2.28181L65.2949 4.63319C68.6746 10.916 74.4004 22.7262 74.4004 27.1291V27.3326L70.651 37.4503V37.6164C71.8241 48.2538 72.1669 55.522 71.567 57.0593C71.0314 58.4305 68.9318 61.3443 67.1482 63.685L69.7458 84.8579L68.1818 85.9774L52.5526 97.1771C51.9155 97.6341 51.1511 97.8798 50.3672 97.8798C49.5832 97.8798 48.819 97.6341 48.182 97.1771L35.5414 88.0715L33.6185 86.6949L31.0529 84.8579L33.6238 63.7279C31.8402 61.3817 29.7031 58.4305 29.1675 57.0487C28.5676 55.5114 28.9104 48.2431 30.0888 37.6057V37.4397L26.3394 27.3272V27.1184C26.3394 22.7049 32.0545 10.8945 35.4449 4.62247L36.709 2.27111C36.7303 2.22848 36.7632 2.19277 36.804 2.16812C36.8447 2.14346 36.8917 2.13089 36.9393 2.13184C37.0046 2.13002 37.0682 2.15262 37.1178 2.19523C37.1673 2.23782 37.1991 2.29735 37.2071 2.36216L40.5869 25.9293L42.6812 29.3732L43.2168 29.1965C45.5187 28.3884 47.9336 27.9473 50.3725 27.8897C52.8217 27.9568 55.2457 28.3993 57.5607 29.202L58.0961 29.3732L60.1583 25.94L63.5326 2.37288C63.5407 2.30805 63.5726 2.24851 63.622 2.20592C63.6716 2.16333 63.7353 2.14075 63.8005 2.14257ZM63.8005 9.86425e-05C63.2192 -0.00403571 62.6563 0.203459 62.2166 0.583878C61.7771 0.964313 61.491 1.49167 61.4117 2.06758L58.0961 25.1794L57.1053 26.7863C54.9134 26.1231 52.6408 25.7626 50.3512 25.715C48.0714 25.7551 45.8085 26.1158 43.6292 26.7863L42.6383 25.1794L39.3229 2.06758C39.2446 1.4912 38.9589 0.963186 38.5189 0.582553C38.0792 0.201909 37.5155 -0.00518447 36.934 9.86425e-05C36.4952 -0.00281972 36.064 0.1138 35.6865 0.337439C35.3091 0.561081 34.9997 0.883307 34.7915 1.26952L33.5328 3.62085C31.9688 6.52389 24.1809 21.2961 24.1809 27.1398V27.729L24.3148 28.0932L27.8981 37.7343C26.6501 49.1483 26.3984 55.9131 27.1482 57.8467C27.3303 58.3127 27.8606 59.6785 31.3689 64.3491L28.8997 84.6222L28.7497 85.8809L29.7835 86.62L32.3491 88.4572L34.2666 89.8338L46.9126 98.8963C47.9134 99.614 49.1142 100 50.3458 100C51.5774 100 52.7782 99.614 53.779 98.8963L69.3923 87.7073L70.9563 86.588L71.9848 85.8487L71.8347 84.59L69.3603 64.2955C72.8311 59.6732 73.3667 58.3127 73.5434 57.8682C74.2985 55.9292 74.0468 49.159 72.7935 37.7503L76.3768 28.1092L76.5106 27.745V27.1558C76.5106 21.3123 68.7228 6.53463 67.1642 3.63159L65.9001 1.28557C65.6923 0.898986 65.3831 0.576444 65.0055 0.352742C64.628 0.129036 64.1966 0.0126619 63.7576 0.0161675L63.8005 9.86425e-05Z" fill="black"/>
<path d="M35.1826 60.3374L39.7728 58.9982C39.8715 58.9723 39.9597 58.9162 40.0247 58.8377L44.4114 53.8403C44.4817 53.7602 44.5743 53.7031 44.6775 53.6758C44.7805 53.6487 44.8892 53.653 44.9901 53.688C45.0907 53.723 45.1785 53.7875 45.2424 53.8727C45.3062 53.9581 45.3434 54.0605 45.3486 54.1671L46.1092 68.4894C46.1139 68.6069 46.0821 68.7229 46.0182 68.8214C45.713 69.2661 44.8345 70.6266 44.8345 71.4622C44.8345 72.5332 46.4414 73.9366 47.9731 75.0561C47.9905 75.0105 48.0103 74.9658 48.032 74.9221C48.5676 73.9473 49.2907 73.7706 49.6389 74.5205C49.7579 75.0745 49.7993 75.6422 49.7621 76.2077H49.789V77.5253C49.7892 77.6069 49.771 77.6874 49.7354 77.761C49.4515 78.3395 48.0803 80.7873 45.1451 80.7873C43.8917 80.7873 40.812 80.3802 39.4355 76.6201C37.7321 71.9549 37.7161 65.4257 37.7161 65.1525V64.7027L37.4375 64.3545C36.7038 63.4493 35.8307 62.3298 34.9309 61.1407C34.8851 61.0739 34.855 60.9974 34.8431 60.9173C34.8311 60.837 34.8374 60.7554 34.8617 60.6779C34.8859 60.6006 34.9274 60.5298 34.983 60.4707C35.0386 60.4117 35.1069 60.3661 35.1826 60.3374Z" fill="black"/>
<path d="M63.3934 64.3705L63.115 64.7187V65.1687C63.115 65.4417 63.115 71.9709 61.3956 76.6361C60.0191 80.3855 56.9392 80.8033 55.686 80.8033C52.7507 80.8033 51.401 78.3555 51.0957 77.7771C51.0602 77.7036 51.0418 77.6229 51.0422 77.5415V76.2237C51.0074 75.6582 51.0507 75.0903 51.1707 74.5365C51.492 73.7867 52.2044 73.9635 52.7776 74.9383C52.7776 74.9812 52.8151 75.0292 52.8365 75.0721C54.3951 73.9526 55.9751 72.5494 55.9751 71.4781C55.9751 70.6426 55.0968 69.2823 54.7915 68.8376C54.7275 68.7389 54.6957 68.6229 54.7004 68.5054L55.461 54.1831C55.4664 54.0767 55.5033 53.9743 55.5672 53.8889C55.6311 53.8035 55.7191 53.7392 55.8197 53.7042C55.9203 53.669 56.0291 53.6649 56.1323 53.6919C56.2353 53.719 56.328 53.7764 56.3982 53.8565L60.7851 58.8537C60.8501 58.9323 60.9381 58.9885 61.0368 59.0144L65.6217 60.3534C65.7056 60.3773 65.7825 60.4214 65.8455 60.4819C65.9086 60.5424 65.9561 60.6173 65.9836 60.7002C66.0108 60.783 66.0178 60.8714 66.0031 60.9576C65.9887 61.0438 65.9533 61.1251 65.9001 61.1943C65.0056 62.362 64.1273 63.4653 63.3934 64.3705Z" fill="black"/>
<path d="M40.6942 49.3359C40.6673 49.5291 40.5718 49.7062 40.4253 49.8349C40.279 49.9637 40.0911 50.0356 39.896 50.0376C39.9707 50.3692 40.1679 50.6602 40.4478 50.853C40.7278 51.0456 41.0703 51.1255 41.4066 51.0766C41.6251 51.0462 41.8325 50.961 42.0094 50.8289C42.1864 50.6968 42.3272 50.5224 42.4189 50.3215C42.5575 50.0251 42.5828 49.6882 42.4901 49.3742C42.3974 49.0605 42.1929 48.7916 41.9153 48.6182H44.1596C44.1766 48.6182 44.1931 48.6249 44.2049 48.6369C44.217 48.649 44.2239 48.6654 44.2239 48.6824C44.2441 49.0913 44.1812 49.5 44.0394 49.884C43.8975 50.2679 43.6796 50.6193 43.3984 50.9171C43.1175 51.2146 42.7792 51.4523 42.4039 51.6158C42.0286 51.7793 41.6241 51.8653 41.2148 51.8687C40.8053 51.8719 40.3996 51.7924 40.0217 51.6348C39.6439 51.4772 39.3018 51.2449 39.0161 50.9519C38.7302 50.6586 38.5068 50.3109 38.3589 49.9293C38.2108 49.5475 38.1416 49.1398 38.1553 48.7307V48.6182H40.4959H40.4585C40.5532 48.7097 40.6242 48.8228 40.6653 48.9478C40.7062 49.0729 40.7163 49.2062 40.6942 49.3359Z" fill="black"/>
<path d="M39.216 46.2452C39.1385 46.2452 39.0621 46.2284 38.9917 46.1961C38.9216 46.1637 38.8591 46.1165 38.8089 46.0577C38.1338 45.2704 36.1307 42.6245 39.6069 42.6245C42.2101 42.6245 44.2667 44.1992 45.4129 45.3347C45.4867 45.4098 45.5365 45.5051 45.5565 45.6085C45.5763 45.7119 45.5654 45.8189 45.5246 45.916C45.4841 46.0133 45.4159 46.0963 45.3283 46.1548C45.2407 46.2133 45.1379 46.2448 45.0327 46.2452H39.216Z" fill="black"/>
<path d="M60.2763 48.6448C60.264 48.6425 60.2512 48.6425 60.2389 48.6448H62.5795V48.7573C62.573 49.5615 62.2475 50.33 61.6746 50.8939C61.1014 51.458 60.3279 51.7712 59.5237 51.7649C58.7198 51.7586 57.9513 51.4329 57.3872 50.8599C56.8231 50.2869 56.5099 49.5132 56.5162 48.7091V48.6448H58.8195C58.5587 48.8099 58.3629 49.0601 58.2653 49.3529C58.1678 49.6457 58.1743 49.9633 58.2838 50.2517C58.3716 50.473 58.5175 50.6661 58.7062 50.8113C58.8946 50.9566 59.1188 51.0481 59.3551 51.0766C59.6898 51.1237 60.0301 51.043 60.3081 50.8504C60.5861 50.6578 60.7813 50.3676 60.8548 50.0376C60.66 50.0344 60.4728 49.9623 60.3267 49.8335C60.1804 49.705 60.0847 49.5287 60.0566 49.3359C60.037 49.2115 60.0467 49.0844 60.0847 48.9644C60.1228 48.8445 60.1885 48.735 60.2763 48.6448Z" fill="black"/>
<path d="M55.6968 46.2452C55.591 46.2458 55.4874 46.2151 55.399 46.157C55.3108 46.0989 55.2416 46.0158 55.2005 45.9185C55.1591 45.8211 55.1477 45.7137 55.1673 45.6099C55.187 45.5059 55.2371 45.4102 55.311 45.3347C56.4574 44.1992 58.5248 42.6245 61.1226 42.6245C64.5879 42.6245 62.5901 45.2704 61.9206 46.0577C61.8704 46.1165 61.8079 46.1637 61.7375 46.1961C61.6673 46.2284 61.5908 46.2452 61.5135 46.2452H55.6968Z" fill="black"/>
<path d="M55.6377 82.8547C55.2767 82.8557 54.917 82.8126 54.5665 82.7262C54.4666 82.7067 54.3632 82.7158 54.2683 82.7527C54.1734 82.7897 54.0912 82.853 54.0308 82.9352C53.6214 83.5187 53.0772 83.995 52.4447 84.3236C51.812 84.6524 51.1097 84.8243 50.3967 84.8243C49.6838 84.8243 48.9814 84.6524 48.3489 84.3236C47.7162 83.995 47.1723 83.5187 46.7626 82.9352C46.7031 82.852 46.6211 82.7877 46.5261 82.7498C46.4312 82.7118 46.3274 82.7017 46.227 82.7209C45.8954 82.8004 45.5555 82.8399 45.2147 82.8387H44.8987C44.8024 82.8316 44.7059 82.8506 44.6197 82.8937C44.5333 82.9368 44.4602 83.0024 44.4082 83.0835C44.356 83.1648 44.3267 83.2585 44.3235 83.355C44.3204 83.4515 44.3433 83.547 44.3898 83.6314C44.974 84.7208 45.8426 85.6311 46.9032 86.266C47.9638 86.9007 49.1768 87.2359 50.4127 87.2359C51.6489 87.2359 52.8617 86.9007 53.9223 86.266C54.9831 85.6311 55.8517 84.7208 56.4359 83.6314C56.4822 83.5474 56.5049 83.4525 56.502 83.3564C56.4988 83.2605 56.4701 83.1672 56.4187 83.0861C56.3671 83.005 56.2949 82.9394 56.2093 82.8959C56.1239 82.8524 56.0282 82.8326 55.9323 82.8387L55.6377 82.8547ZM51.8403 76.8612C52.2203 76.9894 52.581 77.1695 52.9115 77.3969C52.5634 76.8506 52.1402 76.6524 51.8403 76.8612ZM47.9302 77.3326C48.2432 77.1268 48.5817 76.9629 48.9372 76.8452C48.6479 76.6738 48.2677 76.8239 47.9302 77.3595V77.3326Z" fill="black"/>
<path d="M48.7765 75.7521C48.3819 75.8816 48.0056 76.0618 47.6572 76.2878C48.0321 75.7521 48.4552 75.5433 48.7765 75.7521Z" fill="black"/>
<path d="M53.2115 76.3628C52.8393 76.1056 52.4338 75.9001 52.0063 75.7522C52.3385 75.5219 52.8097 75.7522 53.2115 76.3628Z" fill="black"/>
<path d="M48.2626 82.0728C48.2181 82.072 48.1744 82.085 48.1376 82.1104C48.1008 82.1355 48.0728 82.1715 48.0575 82.2134C48.0421 82.2551 48.0403 82.3008 48.052 82.3437C48.0639 82.3868 48.0888 82.4249 48.1234 82.453C48.7656 82.9501 49.5555 83.2178 50.3675 83.2136C51.1782 83.2144 51.9665 82.9491 52.6119 82.4585C52.6453 82.4295 52.6694 82.3909 52.6805 82.3478C52.6917 82.3049 52.6898 82.2596 52.6747 82.2177C52.6595 82.176 52.6322 82.1398 52.596 82.1139C52.5601 82.088 52.5169 82.0738 52.4725 82.0728H48.2626Z" fill="black"/>
<path d="M30.0513 25.6829C30.2548 23.5404 32.2527 18.7842 34.3362 14.4617C34.3766 14.3795 34.4423 14.3124 34.5236 14.2702C34.6049 14.2281 34.6976 14.2131 34.7881 14.2275C34.8785 14.2419 34.962 14.2848 35.0262 14.3501C35.0905 14.4154 35.1321 14.4995 35.145 14.5902L35.5574 17.429C35.5628 17.4699 35.5628 17.5113 35.5574 17.5522C35.3164 19.1591 34.3469 24.7295 31.8563 28.6447C31.8138 28.7129 31.753 28.7677 31.6808 28.8029C31.6087 28.8381 31.5281 28.8521 31.4482 28.8438C31.3684 28.8355 31.2926 28.8049 31.2293 28.7555C31.166 28.706 31.1179 28.6398 31.0904 28.5645L30.0888 25.8863C30.0617 25.8221 30.0489 25.7527 30.0513 25.6829Z" fill="black"/>
<path d="M68.964 28.6447C66.4786 24.7295 65.5038 19.1484 65.2682 17.5522C65.2628 17.5113 65.2628 17.4699 65.2682 17.429L65.6753 14.5902C65.6881 14.4995 65.7298 14.4154 65.7941 14.3501C65.8582 14.2848 65.9418 14.2419 66.0322 14.2275C66.1227 14.2131 66.2152 14.2281 66.2967 14.2702C66.378 14.3124 66.4436 14.3795 66.484 14.4617C68.5569 18.7842 70.5546 23.519 70.769 25.6829C70.7846 25.7461 70.7846 25.8124 70.769 25.8756L69.7726 28.5538C69.7515 28.6398 69.7044 28.7173 69.6378 28.7758C69.5712 28.8343 69.4881 28.8711 69.3999 28.881C69.312 28.8909 69.2228 28.8735 69.1449 28.8314C69.067 28.7891 69.0037 28.724 68.964 28.6447Z" fill="black"/>
</svg>
