<svg width="100" height="100" viewBox="0 0 100 100" fill="none" xmlns="http://www.w3.org/2000/svg">
<g clip-path="url(#clip0_1085_4119)">
<path d="M49.9619 0C22.4189 0 0.000976562 22.418 0.000976562 49.9609C0.000976562 77.5039 22.4189 99.9219 49.9619 99.9219C77.5049 99.9219 99.9229 77.5039 99.9229 49.9609C99.9229 22.418 77.5057 0 49.9619 0ZM49.9619 8.34297C72.9963 8.34297 91.5807 26.9266 91.5807 49.9609C91.5807 72.9953 72.9963 91.5797 49.9619 91.5797C26.9275 91.5797 8.34316 72.9961 8.34316 49.9609C8.34316 26.9258 26.9275 8.34297 49.9619 8.34297Z" fill="#010101"/>
<path fill-rule="evenodd" clip-rule="evenodd" d="M37.8045 47.4333C48.7451 38.4958 59.4467 29.2474 70.6256 20.5708C64.7623 29.581 58.7318 38.4716 52.8685 47.481C47.8396 47.5044 42.81 47.5044 37.8045 47.4333ZM47.0529 52.4146C52.1061 52.4146 57.135 52.4145 62.1639 52.4864C51.1521 61.377 40.4982 70.6966 29.2959 79.3489C35.1592 70.3388 41.1896 61.4247 47.0529 52.4146Z" fill="#010101"/>
</g>
<defs>
<clipPath id="clip0_1085_4119">
<rect width="100" height="100" fill="white"/>
</clipPath>
</defs>
</svg>
