<svg width="100" height="100" viewBox="0 0 100 100" fill="none" xmlns="http://www.w3.org/2000/svg">
<g clip-path="url(#clip0_868_39499)">
<path d="M81.2625 4.63417e-07H18.7333C13.7649 4.63417e-07 9.00005 1.97369 5.48687 5.48687C1.97369 9.00005 4.63417e-07 13.7649 4.63417e-07 18.7333V81.2625C-0.000546789 83.7229 0.483601 86.1594 1.42479 88.4327C2.36599 90.706 3.74579 92.7717 5.48539 94.5117C7.225 96.2516 9.29033 97.6319 11.5634 98.5736C13.8365 99.5153 16.2729 100 18.7333 100H81.2625C83.7233 100.001 86.1601 99.5163 88.4337 98.5748C90.7073 97.6333 92.7731 96.2532 94.5131 94.5131C96.2532 92.7731 97.6333 90.7073 98.5748 88.4337C99.5163 86.1601 100.001 83.7233 100 81.2625V18.7333C100 16.2729 99.5153 13.8365 98.5736 11.5634C97.6319 9.29033 96.2516 7.225 94.5117 5.48539C92.7717 3.74579 90.706 2.36599 88.4327 1.42479C86.1594 0.483601 83.7229 -0.000546789 81.2625 4.63417e-07Z" fill="url(#paint0_linear_868_39499)"/>
<path d="M40.525 47.333C40.8632 47.333 41.1875 47.4673 41.4266 47.7064C41.6657 47.9456 41.8 48.2699 41.8 48.608C41.8 48.9462 41.6657 49.2705 41.4266 49.5096C41.1875 49.7487 40.8632 49.883 40.525 49.883C40.1868 49.883 39.8625 49.7487 39.6234 49.5096C39.3843 49.2705 39.25 48.9462 39.25 48.608C39.25 48.2699 39.3843 47.9456 39.6234 47.7064C39.8625 47.4673 40.1868 47.333 40.525 47.333Z" fill="url(#paint1_linear_868_39499)"/>
<path fill-rule="evenodd" clip-rule="evenodd" d="M35.0333 39.8374C35.1708 39.7999 35.3042 39.8457 35.4333 39.9749C36.0375 40.5999 36.65 41.2165 37.2667 41.8374L37.3542 41.904C37.3958 41.9249 37.425 41.9415 37.4542 41.9457L39.9875 42.5999C40.1625 42.6415 40.2708 42.7374 40.3083 42.8749C40.3458 43.0207 40.3 43.154 40.1708 43.2832L38.3083 45.1124C38.282 45.1397 38.2595 45.1705 38.2417 45.204C38.2235 45.2354 38.2095 45.269 38.2 45.304L37.5458 47.8332C37.5042 48.0082 37.4083 48.1165 37.2667 48.154C37.125 48.1957 36.9917 48.1457 36.8667 48.0165L35.0333 46.1582C34.9778 46.1059 34.9107 46.0673 34.8375 46.0457C33.9958 45.8249 33.15 45.6082 32.3083 45.3957C32.1333 45.354 32.025 45.2582 31.9875 45.1124C31.9458 44.9749 31.9958 44.8374 32.125 44.7124C32.75 44.104 33.3667 43.4957 33.9875 42.879C34.0138 42.8532 34.0363 42.8238 34.0542 42.7915C34.0726 42.7588 34.0867 42.7238 34.0958 42.6874L34.75 40.1582C34.7917 39.9832 34.8875 39.8749 35.0333 39.8374Z" fill="url(#paint2_linear_868_39499)"/>
<path d="M61.9584 41.5919C62.1322 41.582 62.3063 41.6077 62.4699 41.6673C62.6334 41.727 62.7831 41.8195 62.9097 41.9391C63.0363 42.0586 63.1371 42.2028 63.2061 42.3627C63.275 42.5226 63.3105 42.6949 63.3105 42.869C63.3105 43.0431 63.275 43.2154 63.2061 43.3753C63.1371 43.5352 63.0363 43.6794 62.9097 43.799C62.7831 43.9185 62.6334 44.011 62.4699 44.0707C62.3063 44.1304 62.1322 44.156 61.9584 44.1461C61.6323 44.1275 61.3257 43.9848 61.1014 43.7473C60.8771 43.5099 60.7522 43.1956 60.7522 42.869C60.7522 42.5424 60.8771 42.2281 61.1014 41.9907C61.3257 41.7532 61.6323 41.6106 61.9584 41.5919Z" fill="url(#paint3_linear_868_39499)"/>
<path fill-rule="evenodd" clip-rule="evenodd" d="M56.4708 34.1126C56.6167 34.0709 56.75 34.1209 56.875 34.2459L58.7 36.1125C58.7548 36.1628 58.8204 36.1999 58.8917 36.2209L61.4167 36.8792C61.5917 36.9209 61.6958 37.0167 61.7375 37.1625C61.775 37.3 61.7292 37.4334 61.5958 37.5584L59.7333 39.3834C59.6823 39.4383 59.6439 39.5037 59.6208 39.5751L58.9667 42.0959C58.925 42.2709 58.825 42.3792 58.6833 42.4167C58.5417 42.4542 58.4083 42.4084 58.2833 42.2792C57.6792 41.6542 57.0708 41.0334 56.4625 40.4167C56.4358 40.3885 56.4049 40.3646 56.3708 40.3459C56.3384 40.3268 56.3033 40.3128 56.2667 40.3042L53.7458 39.6459C53.5708 39.6042 53.4625 39.5084 53.425 39.3667C53.3875 39.2251 53.4333 39.0917 53.5625 38.9667C54.1875 38.3626 54.8042 37.7542 55.425 37.1459C55.4531 37.119 55.477 37.0881 55.4958 37.0542C55.5144 37.0215 55.5284 36.9865 55.5375 36.9501L56.1958 34.4292C56.2375 34.2542 56.3333 34.1459 56.4708 34.1126Z" fill="url(#paint4_linear_868_39499)"/>
<path fill-rule="evenodd" clip-rule="evenodd" d="M37.7708 13.9293C40.7805 12.6925 44.0566 12.2464 47.2874 12.6334C51.4541 13.1084 55.1666 14.8834 58.4249 17.9418C58.4682 17.9839 58.5215 18.0144 58.5798 18.0304C58.6381 18.0465 58.6995 18.0475 58.7583 18.0334C62.9943 16.9392 67.4784 17.344 71.4499 19.1793L71.6458 19.2668L72.1291 19.5084C76.286 21.6142 79.5287 25.1682 81.2458 29.5001C82.1166 31.6251 82.5541 33.8376 82.5624 36.1459C82.6249 37.8751 82.4374 39.5751 81.9999 41.2459C81.9766 41.3304 81.9758 41.4195 81.9978 41.5043C82.0197 41.5891 82.0636 41.6667 82.1249 41.7293C84.5999 44.2543 86.2416 47.2668 87.0541 50.7626C88.2583 56.7043 87.0249 62.0542 83.3583 66.8251L82.7916 67.5168C80.3629 70.2954 77.1754 72.304 73.6208 73.2959C73.5435 73.3186 73.4728 73.3596 73.4148 73.4155C73.3567 73.4713 73.313 73.5404 73.2874 73.6167C72.4916 75.9126 71.6874 77.8793 70.1999 79.8418C66.4499 84.7834 60.9458 87.5334 54.7374 87.5001C49.7916 87.4751 45.4041 85.6668 41.5833 82.0751C41.5255 82.0201 41.454 81.9818 41.3762 81.9642C41.2985 81.9466 41.2174 81.9503 41.1416 81.9751C39.5249 82.4959 37.8916 82.5751 36.1291 82.5543C33.3135 82.5311 30.5402 81.8656 28.0208 80.6084C25.3819 79.3002 23.0849 77.394 21.3124 75.0418C20.6791 74.2043 20.0499 73.4126 19.5916 72.4751C18.9601 71.1887 18.4442 69.8487 18.0499 68.4709C17.2177 65.3344 17.1991 62.0375 17.9958 58.8918C18.0201 58.818 18.0273 58.7396 18.0166 58.6626C18.0026 58.5852 17.963 58.5147 17.9041 58.4626C15.9778 56.5149 14.5052 54.1659 13.5916 51.5834C12.9861 49.9927 12.6346 48.3167 12.5499 46.6167C12.3981 44.3775 12.5964 42.1283 13.1374 39.9501C14.5416 35.3168 17.2291 31.6793 21.1916 29.0376C22.0749 28.4543 22.9083 27.9959 23.6958 27.6668C24.5916 27.2918 25.4874 26.9793 26.3874 26.7168C26.4516 26.6979 26.51 26.6632 26.5574 26.6159C26.6047 26.5685 26.6394 26.5101 26.6583 26.4459C27.3399 23.9908 28.5137 21.6999 30.1083 19.7126C32.122 17.1573 34.7613 15.1652 37.7708 13.9293ZM40.7833 37.8251C37.1791 35.2668 32.2499 36.5334 30.4374 40.5584C29.4958 42.6418 29.3124 44.8334 29.8833 47.1418L30.3333 48.9751L31.1458 51.9417C31.4791 53.6084 32.1124 55.1293 33.0583 56.5084L33.1499 56.6418C33.6499 57.2334 34.1999 57.7751 34.7916 58.2626C39.1208 61.8209 45.0249 59.4459 46.2041 54.1292L46.3583 53.4626L46.3999 53.2126C46.5833 51.9626 46.5249 50.7376 46.2333 49.5376C45.7104 47.4183 45.1408 45.3109 44.5249 43.2168C43.8458 40.9084 42.5999 39.1126 40.7833 37.8251ZM62.9833 32.6793C60.2916 30.1793 56.1374 30.0834 53.4624 32.6001C52.4208 33.5793 51.6916 34.9001 51.2833 36.5543C50.8765 38.2327 50.8765 39.9841 51.2833 41.6626L51.3249 41.8293L51.4999 42.3959C51.8958 43.7084 52.2624 45.0001 52.5999 46.2709C52.9541 47.5917 53.2333 48.4793 53.4499 48.9293C55.2416 52.7001 59.1374 55.4126 63.3749 53.6834C67.3166 52.0751 68.4999 47.4043 67.6083 43.6209C67.4748 43.0484 67.3289 42.4788 67.1708 41.9126C66.5458 39.4834 66.1041 37.8459 65.8333 37.0001C65.2772 35.3355 64.2945 33.8457 62.9833 32.6793Z" fill="url(#paint5_linear_868_39499)"/>
</g>
<defs>
<linearGradient id="paint0_linear_868_39499" x1="50" y1="4.63418e-07" x2="50" y2="100" gradientUnits="userSpaceOnUse">
<stop stop-color="#012659"/>
<stop offset="1" stop-color="#0968DA"/>
</linearGradient>
<linearGradient id="paint1_linear_868_39499" x1="41.0792" y1="12.4996" x2="59.2459" y2="87.5705" gradientUnits="userSpaceOnUse">
<stop stop-color="white"/>
<stop offset="1" stop-color="#6BB6FE"/>
</linearGradient>
<linearGradient id="paint2_linear_868_39499" x1="41.0792" y1="12.4999" x2="59.2458" y2="87.5707" gradientUnits="userSpaceOnUse">
<stop stop-color="white"/>
<stop offset="1" stop-color="#6BB6FE"/>
</linearGradient>
<linearGradient id="paint3_linear_868_39499" x1="41.0792" y1="12.5003" x2="59.2459" y2="87.5711" gradientUnits="userSpaceOnUse">
<stop stop-color="white"/>
<stop offset="1" stop-color="#6BB6FE"/>
</linearGradient>
<linearGradient id="paint4_linear_868_39499" x1="41.0792" y1="12.5001" x2="59.2458" y2="87.5709" gradientUnits="userSpaceOnUse">
<stop stop-color="white"/>
<stop offset="1" stop-color="#6BB6FE"/>
</linearGradient>
<linearGradient id="paint5_linear_868_39499" x1="41.0791" y1="12.5001" x2="59.2458" y2="87.5709" gradientUnits="userSpaceOnUse">
<stop stop-color="white"/>
<stop offset="1" stop-color="#6BB6FE"/>
</linearGradient>
<clipPath id="clip0_868_39499">
<rect width="100" height="100" fill="white"/>
</clipPath>
</defs>
</svg>
