<svg width="100" height="100" viewBox="0 0 100 100" fill="none" xmlns="http://www.w3.org/2000/svg">
<path d="M25.2825 28.9551C14.3028 28.9551 3.02393 32.3176 3.02393 45.3762C3.02393 54.3762 11.1325 57.2465 19.245 59.0301C29.3364 61.2051 35.1739 62.6887 35.1739 66.9426C35.1739 71.8926 30.0278 73.4762 25.9739 73.4762C20.4325 73.4762 15.2903 71.0012 15.1903 64.8676H1.83643C2.43252 78.4176 14.0028 82.8676 25.8778 82.8676C37.5489 82.8676 49.2239 78.5176 49.2239 65.0629C49.2239 55.5629 41.2114 52.5965 32.9989 50.7176C24.9864 48.8387 17.0692 48.1473 17.0692 43.1004C17.0692 38.9465 21.72 38.3504 24.8903 38.3504C29.9325 38.3504 34.0856 39.8387 34.4817 45.2762H47.8364C46.7528 32.7137 36.4614 28.9559 25.2817 28.9559L25.2825 28.9551Z" fill="white"/>
<path d="M82.7733 3.39355H81.6905L31.8366 3.67715C21.5405 3.14824 11.3991 5.66934 2.62799 10.7146L2.63659 10.7225C-1.94701 13.2248 -0.177474 20.1889 5.04518 20.1982C6.503 20.1982 7.80299 19.5811 8.72409 18.6021C14.3247 15.5835 20.5253 13.8452 26.8789 13.5123C33.2325 13.1794 39.5809 14.2603 45.4663 16.6771C67.4444 25.6982 77.9866 50.9271 68.9655 72.9061C66.6254 78.6148 63.0791 83.7502 58.5694 87.9607L58.6116 88.0146C53.3249 91.0607 62.1678 100.229 65.403 95.0561C70.894 89.8956 75.2134 83.6167 78.0694 76.6435C78.2741 76.1514 98.7022 26.3896 98.753 26.2561C102.236 17.7592 98.1733 8.04746 89.678 4.56074C87.3866 3.61855 85.2436 3.40215 82.7733 3.39355Z" fill="#F79A10"/>
</svg>
