<svg width="100" height="100" viewBox="0 0 100 100" fill="none" xmlns="http://www.w3.org/2000/svg">
<g clip-path="url(#clip0_1085_4142)">
<path d="M50 0.569824C22.7453 0.569824 0.570312 22.744 0.570312 49.9995C0.570312 77.255 22.7453 99.4292 50 99.4292C77.2563 99.4292 99.4297 77.2542 99.4297 49.9995C99.4297 22.7448 77.2555 0.569824 50 0.569824ZM52.6055 94.4526V85.8683L74.043 75.0089C74.2951 74.881 74.5068 74.6857 74.6548 74.4448C74.8028 74.2039 74.8811 73.9268 74.8813 73.644V68.73C75.8755 68.3852 76.7243 67.7149 77.2901 66.8275C77.8558 65.9402 78.1054 64.8878 77.9984 63.8409C77.9433 63.2248 77.7663 62.6258 77.4778 62.0786C77.1892 61.5315 76.7948 61.0471 76.3176 60.6536C75.8403 60.2601 75.2896 59.9654 74.6974 59.7865C74.1053 59.6076 73.4835 59.5481 72.8682 59.6115C72.2528 59.6749 71.6562 59.8598 71.113 60.1557C70.5698 60.4516 70.0907 60.8524 69.7036 61.3349C69.3166 61.8174 69.0292 62.372 68.8583 62.9665C68.6873 63.561 68.6362 64.1835 68.7078 64.798C68.7991 65.6819 69.1409 66.5213 69.6932 67.2175C70.2454 67.9137 70.985 68.4376 71.825 68.7276V72.7042L52.6063 82.4386V74.4542L61.0773 70.5347C61.3416 70.4121 61.5654 70.2166 61.7225 69.9712C61.8795 69.7259 61.9633 69.4408 61.9641 69.1495L61.9797 55.8479L77.6594 47.0386C78.1414 46.7683 78.4406 46.2573 78.4406 45.7058V41.9995C79.5248 41.6265 80.4336 40.8674 80.9939 39.8671C81.5542 38.8668 81.7267 37.6953 81.4785 36.5759C81.2303 35.4566 80.5788 34.4678 79.6482 33.7981C78.7176 33.1284 77.573 32.8247 76.4328 32.9448C75.3756 33.0534 74.3871 33.5195 73.6307 34.2661C72.8743 35.0126 72.3953 35.995 72.2729 37.0507C72.1505 38.1064 72.392 39.1722 72.9574 40.0721C73.5229 40.9719 74.3785 41.6519 75.3828 41.9995V44.8167L59.7031 53.6214C59.2211 53.8948 58.9219 54.4026 58.9219 54.9542L58.9063 68.173L52.6031 71.087V42.3433L65.7938 35.8925C66.0509 35.7674 66.2676 35.5725 66.4192 35.33C66.5707 35.0876 66.651 34.8073 66.6508 34.5214V29.6073C67.6454 29.2625 68.4943 28.5919 69.0601 27.7043C69.6259 26.8166 69.8753 25.7639 69.768 24.7167C69.7049 24.1067 69.5224 23.5152 69.2307 22.9758C68.939 22.4364 68.5439 21.9597 68.068 21.5731C67.5921 21.1864 67.0447 20.8972 66.457 20.7222C65.8693 20.5471 65.2529 20.4895 64.643 20.5526C64.0328 20.6154 63.441 20.7977 62.9014 21.0893C62.3618 21.3809 61.8849 21.7759 61.4981 22.2519C61.1112 22.7278 60.8219 23.2754 60.6468 23.8632C60.4717 24.451 60.4141 25.0676 60.4773 25.6776C60.5681 26.5614 60.9098 27.4008 61.4622 28.0967C62.0145 28.7926 62.7544 29.316 63.5945 29.605V33.5659L52.6039 38.9386V22.3417C53.4334 22.0543 54.165 21.5389 54.7149 20.8546C55.2648 20.1703 55.6106 19.3449 55.7128 18.473C55.815 17.6011 55.6693 16.7181 55.2925 15.9252C54.9157 15.1324 54.323 14.4618 53.5825 13.9904C52.8419 13.519 51.9835 13.2659 51.1057 13.2601C50.2279 13.2544 49.3662 13.4962 48.6195 13.9578C47.8728 14.4194 47.2714 15.0821 46.8842 15.87C46.497 16.6578 46.3398 17.5389 46.4305 18.412C46.5219 19.2955 46.8637 20.1345 47.4156 20.8303C47.9675 21.5262 48.7067 22.05 49.5461 22.3401V49.4058L41.7781 45.3245V33.0308C41.7784 32.7962 41.7244 32.5647 41.6204 32.3544C41.5165 32.1441 41.3654 31.9606 41.1789 31.8183L35.8648 27.748C36.2884 26.7285 36.3372 25.592 36.0024 24.54C35.6677 23.488 34.9712 22.5886 34.0364 22.0014C33.1016 21.4141 31.989 21.177 30.896 21.332C29.803 21.4871 28.8003 22.0243 28.0657 22.8484C27.3311 23.6725 26.9122 24.7301 26.8833 25.8337C26.8543 26.9372 27.2173 28.0154 27.9077 28.8768C28.598 29.7382 29.5713 30.3272 30.6546 30.5393C31.738 30.7514 32.8615 30.5729 33.8258 30.0355L38.7203 33.787V46.2495C38.7203 46.8183 39.0359 47.3394 39.5391 47.6034L49.5469 52.8612V62.8019L32.8516 55.08L33.0797 49.0315C33.0903 48.7407 33.0179 48.4529 32.8708 48.2017C32.7237 47.9506 32.5081 47.7466 32.2492 47.6136L24.5953 43.6878C24.7102 43.1956 24.7516 42.6784 24.6969 42.1487C24.556 40.9279 23.9397 39.8118 22.9815 39.0424C22.0233 38.273 20.8004 37.9122 19.578 38.0383C18.3556 38.1645 17.2322 38.7673 16.4512 39.7162C15.6703 40.6651 15.2949 41.8835 15.4063 43.1073C15.5337 44.3391 16.1453 45.4698 17.1064 46.2507C18.0675 47.0316 19.2995 47.3988 20.5313 47.2714C21.4173 47.1821 22.2585 46.838 22.9531 46.2808L29.9875 49.887L29.757 55.9808C29.7336 56.5979 30.0828 57.1683 30.6422 57.4261L49.5469 66.1714V73.2683C49.5295 73.4021 49.5295 73.5376 49.5469 73.6714V94.5253C47.956 94.5082 46.367 94.4072 44.7867 94.223V76.2964C44.7867 75.698 44.4391 75.1558 43.8961 74.9073L32.0352 69.4487C32.1029 68.7599 32.0167 68.0645 31.7825 67.4131C31.5484 66.7617 31.1723 66.1705 30.6815 65.6824C30.1907 65.1943 29.5975 64.8215 28.9448 64.5909C28.2921 64.3604 27.5963 64.2779 26.9078 64.3495C26.16 64.4262 25.4417 64.6824 24.8141 65.0962C24.1864 65.5101 23.668 66.0694 23.3029 66.7266C22.9378 67.3838 22.7369 68.1194 22.717 68.8709C22.6972 69.6224 22.8592 70.3676 23.1892 71.0431C23.5192 71.7186 24.0074 72.3044 24.6123 72.7508C25.2173 73.1971 25.9211 73.4908 26.6639 73.6067C27.4066 73.7227 28.1664 73.6576 28.8787 73.417C29.5909 73.1763 30.2345 72.7673 30.7547 72.2245L41.7289 77.2737V93.7519C21.1109 89.8651 5.4625 71.73 5.4625 49.9995C5.4625 25.4417 25.4422 5.46045 50.0016 5.46045C74.5586 5.46045 94.5375 25.4417 94.5375 49.9995C94.5375 73.6831 75.9539 93.1011 52.6047 94.4542L52.6055 94.4526Z" fill="#205081"/>
</g>
<defs>
<clipPath id="clip0_1085_4142">
<rect width="100" height="100" fill="white"/>
</clipPath>
</defs>
</svg>
