<svg width="100" height="100" viewBox="0 0 100 100" fill="none" xmlns="http://www.w3.org/2000/svg">
<g clip-path="url(#clip0_1085_4144)">
<path d="M57.1811 3.59644L96.4038 42.8191C97.3496 43.7606 98.1001 44.8797 98.6122 46.112C99.1243 47.3444 99.3879 48.6658 99.3879 50.0003C99.3879 51.3349 99.1243 52.6563 98.6122 53.8886C98.1001 55.121 97.3496 56.2401 96.4038 57.1816L57.1811 96.4043C56.2396 97.3501 55.1205 98.1005 53.8882 98.6127C52.6558 99.1248 51.3344 99.3884 49.9999 99.3884C48.6653 99.3884 47.3439 99.1248 46.1116 98.6127C44.8792 98.1005 43.7601 97.3501 42.8186 96.4043L3.59595 57.1816C2.65015 56.2401 1.89965 55.121 1.38754 53.8886C0.875438 52.6563 0.611816 51.3349 0.611816 50.0003C0.611816 48.6658 0.875438 47.3444 1.38754 46.112C1.89965 44.8797 2.65015 43.7606 3.59595 42.8191L42.8186 3.59644C43.7601 2.65064 44.8792 1.90014 46.1116 1.38803C47.3439 0.875927 48.6653 0.612305 49.9999 0.612305C51.3344 0.612305 52.6558 0.875927 53.8882 1.38803C55.1205 1.90014 56.2396 2.65064 57.1811 3.59644Z" fill="#0F3A80"/>
<path d="M37.9609 25.3039L31.4484 32.5391L29.4156 30.7086L25.1453 41.582L35.5125 36.1984L33.4797 34.3672L39.9891 27.1375C39.2335 26.6205 38.5512 26.0037 37.9609 25.3039ZM44.3359 28.8023V28.9367L44.4414 28.8195L44.3359 28.8023ZM47.0703 32.007L44.3359 35.043V60.8008H41.6016L45.7031 71.7383L49.8047 60.8008H47.0703V32.007ZM45.7031 10.9375C41.375 10.9375 37.8906 14.4219 37.8906 18.75C37.8906 23.0781 41.375 26.5625 45.7031 26.5625C45.9813 26.5625 46.2531 26.5391 46.5227 26.5094L47.0844 25.8844C47.213 26.0141 47.3451 26.1393 47.4805 26.2602C45.4336 24.4008 44.1406 21.7234 44.1406 18.75C44.1406 15.7398 45.4625 13.0305 47.5547 11.168C46.9489 11.0175 46.3273 10.9401 45.7031 10.9375ZM18.75 42.1875C14.4219 42.1875 10.9375 45.6719 10.9375 50C10.9375 54.3281 14.4219 57.8125 18.75 57.8125C23.0781 57.8125 26.5625 54.3281 26.5625 50C26.5625 45.6719 23.0781 42.1875 18.75 42.1875ZM26.8203 56.1367C26.2659 56.8655 25.6155 57.5159 24.8867 58.0703L33.4305 66.6141L31.4969 68.5469L42.1313 73.3813L37.2969 62.7469L35.3641 64.6805L26.8203 56.1367ZM50 73.4375C45.6719 73.4375 42.1875 76.9219 42.1875 81.25C42.1875 85.5781 45.6719 89.0625 50 89.0625C54.3281 89.0625 57.8125 85.5781 57.8125 81.25C57.8125 76.9219 54.3281 73.4375 50 73.4375Z" fill="#FFA600"/>
<path d="M81.25 42.1875C76.9219 42.1875 73.4375 45.6719 73.4375 50C73.4375 54.3281 76.9219 57.8125 81.25 57.8125C85.5781 57.8125 89.0625 54.3281 89.0625 50C89.0625 45.6719 85.5781 42.1875 81.25 42.1875ZM52.9297 28.8023V60.8H50.1953L54.2969 71.7375L58.3984 60.8H55.6641V28.8023C55.2112 28.8677 54.7544 28.9025 54.2969 28.9062C53.8393 28.9025 53.3826 28.8677 52.9297 28.8023ZM73.1797 56.1367L64.6359 64.6805L62.7031 62.7469L57.8687 73.3812L68.5031 68.5469L66.5695 66.6141L75.1133 58.0703C74.3845 57.5159 73.7341 56.8655 73.1797 56.1367ZM62.0391 25.3039C61.4487 26.0046 60.7662 26.6222 60.0102 27.1398L66.5203 34.3687L64.4883 36.1984L74.8555 41.5812L70.5844 30.7086L68.5516 32.5391L62.0391 25.3039ZM47.0844 25.8852L34.35 40.0281L32.3187 38.1992L28.0469 49.0703L38.4141 43.6867L36.3812 41.857L49.2617 27.5547C48.4637 27.099 47.7312 26.5379 47.0844 25.8852ZM54.2969 10.9375C49.9687 10.9375 46.4844 14.4219 46.4844 18.75C46.4844 23.0781 49.9687 26.5625 54.2969 26.5625C58.625 26.5625 62.1094 23.0781 62.1094 18.75C62.1094 14.4219 58.625 10.9375 54.2969 10.9375Z" fill="white"/>
</g>
<defs>
<clipPath id="clip0_1085_4144">
<rect width="100" height="100" fill="white"/>
</clipPath>
</defs>
</svg>
