<svg width="100" height="100" viewBox="0 0 100 100" fill="none" xmlns="http://www.w3.org/2000/svg">
<g clip-path="url(#clip0_867_14030)">
<path d="M8.99996 56.7859C8.99996 39.8383 21.052 27.5993 40.8256 9.14307C37.9995 43.4165 68.6948 45.1078 62.6644 62.2467C58.3601 74.4856 44.2125 70.7205 42.7082 68.0814C42.7082 68.0814 47.9777 69.59 48.7298 64.3162C49.4863 59.0424 38.9387 56.2207 32.1648 42.8513C20.8607 55.8424 28.0171 82.0159 50.4255 82.0159C71.1382 82.0159 79.0468 60.551 71.7034 46.8034C71.7034 46.8034 89.4032 49.8164 90.9118 63.3727C92.4162 76.9334 75.0947 100.472 51.3689 99.907C27.6432 99.3418 8.99996 81.829 8.99996 56.7859Z" fill="#3DC8F9"/>
<path d="M77.9206 26.4688L50.8036 -0.0830078C48.5428 25.7123 54.5688 36.3252 72.0816 41.1555C83.9466 44.4294 86.4597 45.6772 91.6639 53.2075C90.1944 42.7425 88.2727 36.6339 77.9206 26.4688Z" fill="#EA0100"/>
<path fill-rule="evenodd" clip-rule="evenodd" d="M39.5776 79.582C42.6601 81.1211 46.2818 82.0167 50.4252 82.0167C71.138 82.0167 79.0466 60.5518 71.7032 46.8042C71.7032 46.8042 89.4029 49.8172 90.9116 63.3735C91.5899 69.4734 88.4551 77.5907 82.6422 84.6341C67.6076 91.4601 50.947 88.2862 39.5776 79.582Z" fill="#1652D8"/>
</g>
<defs>
<clipPath id="clip0_867_14030">
<rect width="100" height="100" fill="white"/>
</clipPath>
</defs>
</svg>
