<svg width="100" height="100" viewBox="0 0 100 100" fill="none" xmlns="http://www.w3.org/2000/svg">
<path d="M84.9211 51.7454C84.6203 57.372 82.9321 62.9845 80.0563 67.8353C75.2407 75.961 67.1711 82.3079 56.9157 84.2321C51.7961 85.1517 48.0719 85.0345 43.8899 84.3939C40.8727 83.722 38.9735 81.2712 40.9992 78.3587C43.4813 74.7868 46.9992 72.4415 50.511 70.0946C60.7539 63.2501 71.6336 57.529 82.6141 51.9845C83.8422 51.3657 85.0078 50.1407 84.9211 51.7454Z" fill="#A13974"/>
<path d="M92.2078 38.6142C94.7875 36.5743 97.2797 33.9524 99.0438 31.1446L99.0477 31.1415L99.0508 31.1392C100.993 28.047 99.8899 25.2548 96.3313 24.4079C92.2399 23.4345 88.7703 23.8267 84.5828 24.4079C83.5625 24.5501 83.3016 24.7696 82.9539 24.9899C82.2469 25.4353 82.1688 26.7978 83.1867 26.9665C85.0485 27.0837 91.1469 26.6673 92.6086 27.3165C96.7766 29.1657 85.3727 35.3259 83.8743 36.5181C82.9758 37.2321 82.5446 37.1462 82.0383 36.022C78.0743 27.2064 71.6164 20.9548 62.5914 17.4048C56.9352 15.1806 51.1086 14.6728 45.0875 15.4321C41.8446 15.8431 39.2992 16.7329 36.3188 17.8946C35.336 18.2774 34.0352 18.9306 33.1313 19.4493C31.0595 20.6302 29.1025 22.002 27.286 23.547C25.7391 24.8704 26.6469 27.2392 28.6735 27.429L65.9813 30.9314C67.6375 31.086 68.4547 33.0212 67.4141 34.3173L46.6063 60.9235C45.8492 61.8657 46.8157 63.4196 47.9383 62.9704C56.4032 59.5735 64.6328 55.4501 72.7813 51.3532C79.5758 47.9368 86.2578 43.3204 92.2078 38.6142Z" fill="#FB5B62"/>
<path fill-rule="evenodd" clip-rule="evenodd" d="M53.4507 40.889C54.7788 39.4671 53.6101 37.1609 51.6773 37.3921L17.882 41.439C16.8601 41.5617 16.0093 42.2984 15.8023 43.3062C14.5031 49.6601 15.0218 56.0585 17.4663 62.4624C18.3827 64.8609 18.4398 64.9296 15.9679 65.2335C15.646 65.2742 15.3231 65.3166 14.9992 65.3609C13.1359 65.614 11.2546 65.8687 9.3804 65.3367C4.84681 64.0445 11.8179 59.7515 12.3445 57.9171C12.7335 56.5624 10.8921 56.0554 9.74056 56.8679C6.0515 59.4726 2.53978 62.514 0.361653 66.5343C-0.104754 67.4648 -0.0461598 68.6281 0.128059 69.2585C1.4179 73.8913 11.4023 73.0507 14.6913 72.4601C19.0015 71.6851 22.1148 71.4054 26.3023 70.1249C27.4437 69.7765 27.4648 69.6601 29.2101 67.8624C38.0507 59.6554 46.1413 48.4663 53.4507 40.889Z" fill="#EFA16D"/>
</svg>
