<svg width="100" height="100" viewBox="0 0 100 100" fill="none" xmlns="http://www.w3.org/2000/svg">
<g clip-path="url(#clip0_867_22531)">
<path fill-rule="evenodd" clip-rule="evenodd" d="M49.96 0C63.96 0 76.64 5.87035 85.71 15.1104C87.7699 12.3404 89.6196 9.23994 91.0596 5.75V5.74023C97.3495 24.9101 101.17 40.9898 99.6797 53.5498C97.8197 79.4097 76.2002 99.9002 49.9404 99.9004C37.7004 99.9004 26.4596 95.4702 17.8096 88.1602L15.9502 86.5C6.17029 77.3401 0.00012296 64.3603 0 49.9404C0 22.3404 22.47 2.06671e-05 49.96 0ZM22.5703 80.9502C20.7103 79.5103 18.0396 79.7103 16.5996 81.5703C15.16 83.4302 15.36 86.1001 17.2197 87.54C19.0797 88.98 21.7494 88.7797 23.1895 86.9199C24.6294 85.0601 24.33 82.3903 22.5703 80.9502ZM90.5898 10.8994C85.4699 21.6993 72.6801 29.9502 61.6602 32.5303C51.2502 34.9802 42.1896 32.9197 32.5996 36.6396C10.7501 44.9897 11.1698 70.95 23.1094 76.8203L23.8301 77.2402C23.8921 77.228 41.4667 73.7434 51.2295 70.1299C65.4493 64.8799 81.1096 51.9002 86.2598 36.8604C83.5596 52.5101 70.0798 67.6496 56.5801 74.5596C49.3702 78.2595 43.7998 79.1 31.96 83.21C30.52 83.7299 29.3799 84.25 29.3799 84.25C32.3304 83.8327 35.3107 83.6325 35.3496 83.6299C52.1395 82.8099 78.4997 88.3598 90.7598 71.9902C103.32 55.2902 96.3098 28.3094 90.5898 10.8994Z" fill="#6CB52D"/>
<path d="M16.5998 81.5703C18.0398 79.7103 20.7105 79.5102 22.5705 80.9502C24.3302 82.3903 24.6295 85.0601 23.1896 86.9199C21.7496 88.7798 19.0799 88.98 17.2199 87.54C15.3601 86.1001 15.16 83.4303 16.5998 81.5703Z" fill="white"/>
<path d="M90.59 10.8994C96.31 28.3094 103.32 55.2902 90.7599 71.9902C78.4999 88.3599 52.1397 82.8099 35.3498 83.6299C35.3199 83.6319 32.3351 83.8321 29.3801 84.25C29.3801 84.25 30.5201 83.73 31.9601 83.21C43.8001 79.1 49.3703 78.2596 56.5803 74.5596C70.08 67.6496 83.5598 52.5101 86.2599 36.8604C81.1098 51.9002 65.4495 64.8799 51.2297 70.1299C41.4669 73.7435 23.8923 77.228 23.8303 77.2402L23.1095 76.8203C11.1698 70.9501 10.75 44.9896 32.5998 36.6396C42.1898 32.9196 51.2503 34.9803 61.6603 32.5303C72.6803 29.9502 85.4701 21.6993 90.59 10.8994Z" fill="white"/>
</g>
<defs>
<clipPath id="clip0_867_22531">
<rect width="100" height="100" fill="white"/>
</clipPath>
</defs>
</svg>
