<svg width="100" height="100" viewBox="0 0 100 100" fill="none" xmlns="http://www.w3.org/2000/svg">
<path d="M97.6562 62.4995C96.3281 62.4995 95.2344 63.5151 95.2344 64.8433C95.2344 66.1714 96.25 67.187 97.6562 67.187C98.9844 67.187 100 66.1714 100 64.8433C100 63.5151 98.9844 62.4995 97.6562 62.4995ZM97.5781 62.8901C98.6719 62.8901 99.4531 63.7495 99.4531 64.8433C99.4531 65.937 98.6719 66.7964 97.6562 66.7964C96.5625 66.7964 95.7812 65.937 95.7812 64.8433C95.7812 63.7495 96.4844 62.9683 97.5781 62.8901ZM96.7969 63.5151V66.1714H97.2656V64.9995H97.7344L98.4375 66.1714H98.9062L98.2031 64.9214C98.6719 64.9214 98.8281 64.6089 98.8281 64.2183C98.8281 63.7495 98.5156 63.5151 97.8906 63.5151H96.7969ZM97.1875 64.687V63.8276H97.7344C98.125 63.8276 98.2812 63.9839 98.2812 64.2964C98.2812 64.6089 98.0469 64.7651 97.8125 64.7651L97.1875 64.687ZM24.5312 72.812C23.2812 71.8745 21.7969 71.0933 19.7656 70.4683C17.1875 69.6089 13.4375 68.7495 11.9531 68.2026C11.0156 67.812 10.625 67.2651 10.625 66.4839C10.625 65.3901 11.9531 64.7651 13.5156 64.687C16.0938 64.7651 16.875 66.2495 17.0312 67.2651H24.5312V72.812ZM33.9062 79.7651H39.4531C44.2969 79.687 48.2031 77.2651 50.1562 73.7495C50.3125 73.437 50.4688 73.2026 50.625 72.8901C50.9375 73.2808 51.1719 73.437 51.4844 73.7495C52.8125 74.9214 54.5312 75.7808 56.3281 76.3276C59.2188 77.3433 61.4844 78.0464 62.2656 78.3589C63.75 78.9839 64.6875 79.4526 64.6875 80.7808C64.6875 82.3433 62.9688 82.9683 61.1719 83.0464C58.75 82.9683 56.3281 81.7964 56.4062 79.3745H46.875C47.3438 85.7026 53.5938 90.6245 60.9375 90.7026C65.3906 90.6245 69.5312 89.3745 72.1875 86.1714C74.8438 88.9058 77.9688 90.6245 82.3438 90.7026C89.2969 90.6245 96.4844 87.187 96.5625 79.8433C96.5625 77.4995 95.9375 75.4683 94.4531 73.7495C93.125 72.187 91.25 71.1714 88.6719 70.4683C86.0938 69.6089 82.3438 68.7495 80.8594 68.2026C79.9219 67.812 79.5312 67.2651 79.5312 66.4839C79.5312 65.3901 80.8594 64.7651 82.4219 64.687C85 64.7651 85.7812 66.2495 85.9375 67.2651H95C95.0781 61.0151 89.8438 56.8745 82.4219 56.8745C76.875 56.8745 73.125 58.9839 71.25 62.0308C69.2188 58.8276 65.1562 56.8745 60.0781 56.8745C54.7656 56.8745 51.0938 58.9058 49.1406 61.7964C46.9531 58.9839 43.3594 57.187 38.9844 57.187H24.5312V61.9526C22.5 58.7495 18.4375 56.8745 13.4375 56.8745C5.70313 56.8745 1.48438 61.1714 1.09375 66.0933C1.09375 69.1401 2.57812 71.8745 4.84375 73.8276C6.17188 74.9995 7.73438 75.8589 9.53125 76.4058C12.4219 77.4214 14.6875 78.1245 15.4687 78.437C16.9531 79.062 17.8906 79.5308 17.8906 80.8589C17.8906 82.4214 16.0938 83.0464 14.375 83.1245C11.9531 83.0464 9.53125 81.8745 9.60938 79.4526H0C0.46875 85.7808 6.71875 90.7026 14.0625 90.7808C18.125 90.7026 21.875 89.6089 24.375 87.2651V90.2339H33.75L33.9062 79.7651ZM33.9062 64.9995H38.9844C40.8594 64.9995 42.5 66.562 42.5 68.5151C42.5 70.4683 40.9375 72.0308 38.9844 72.0308H33.9062V64.9995ZM72.2656 73.8276C70.9375 72.2651 69.0625 71.2495 66.4844 70.5464C63.9062 69.687 60.1562 68.8276 58.75 68.2808C57.7344 67.8901 57.2656 67.3433 57.2656 66.562C57.2656 65.4683 58.5938 64.8433 60.1562 64.7651C62.8125 64.8433 63.5156 66.3276 63.6719 67.3433H70.0781C70.4688 69.8433 71.7188 72.1089 73.75 73.8276C75.0781 74.9995 76.7188 75.8589 78.5156 76.4058C81.4062 77.4214 83.6719 78.1245 84.375 78.437C85.9375 79.062 86.7969 79.5308 86.7969 80.8589C86.7969 82.4214 85 83.0464 83.2812 83.1245C80.8594 83.0464 78.4375 81.8745 78.5156 79.4526H74.2188C74.2188 77.187 73.5156 75.312 72.2656 73.8276Z" fill="#CC1E4C"/>
<path d="M0 8.35986V11.0942H19.4531V8.35986H0ZM22.1875 8.35986V11.0942H50C50 11.0942 47.1875 8.35986 43.4375 8.35986H22.1875ZM55.3906 8.35986V11.0942H72.1875L71.1719 8.35986H55.3906ZM84.2188 8.35986L83.2031 11.0942H99.8438V8.35986H84.2188ZM0 13.6724V16.4067H19.4531V13.6724H0ZM22.1875 13.6724V16.4067H53.125C53.125 16.4067 52.7344 14.2974 52.1094 13.6724H22.1875ZM55.3906 13.6724V16.4067H73.9844L73.0469 13.6724H55.3906ZM82.1875 13.6724L81.25 16.4067H99.7656V13.6724H82.1875ZM5.625 18.9849V21.7192H14.0625V18.9849H5.625ZM27.8125 18.9849V21.7192H36.25V18.9849H27.8125ZM44.4531 18.9849V21.7192H52.8906C52.8906 21.7192 53.4375 20.2349 53.4375 18.9849H44.4531ZM61.0156 18.9849V21.7192H75.9375L74.9219 18.9849H61.0156ZM80.3906 18.9849L79.375 21.7192H94.375V18.9849H80.3906ZM5.625 24.3755V27.1099H14.0625V24.3755H5.625ZM27.8125 24.3755V27.1099H49.375C49.375 27.1099 51.1719 25.7036 51.7187 24.3755H27.8125ZM61.0156 24.3755V27.1099H69.4531V25.6255L70 27.1099H85.4688L86.0156 25.6255V27.1099H94.4531V24.3755H78.5938L77.7344 26.7192L76.875 24.3755H61.0156ZM5.625 29.688V32.4224H14.0625V29.688H5.625ZM27.8125 29.688V32.4224H51.7187C51.1719 31.0942 49.375 29.688 49.375 29.688H27.8125ZM61.0156 29.688V32.4224H69.4531V29.688H61.0156ZM70.9375 29.688L71.9531 32.4224H83.5156L84.4531 29.688H70.9375ZM86.0156 29.688V32.4224H94.4531V29.688H86.0156ZM5.625 35.0005V37.7349H14.0625V35.0005H5.625ZM27.8125 35.0005V37.7349H36.25V35.0005H27.8125ZM44.4531 35.0005V37.7349H53.4375C53.4375 36.4067 52.8906 35.0005 52.8906 35.0005H44.4531ZM61.0156 35.0005V37.7349H69.4531V35.0005H61.0156ZM72.8906 35.0005L73.9062 37.7349H81.6406L82.6562 35.0005H72.8906ZM86.0156 35.0005V37.7349H94.4531V35.0005H86.0156ZM0.15625 40.313V43.0474H19.6094V40.313H0.15625ZM22.1875 40.313V43.0474H52.1875C52.8125 42.4224 53.2031 40.313 53.2031 40.313H22.1875ZM55.5469 40.313V43.0474H69.4531V40.313H55.5469ZM74.7656 40.313L75.7812 43.0474H79.7656L80.7031 40.313H74.7656ZM86.0156 40.313V43.0474H100V40.313H86.0156ZM0.15625 45.6255V48.3599H19.6094V45.6255H0.15625ZM22.1875 45.6255V48.3599H43.3594C47.1094 48.3599 49.9219 45.6255 49.9219 45.6255H22.1875ZM55.5469 45.6255V48.3599H69.4531V45.6255H55.5469ZM76.7188 45.6255L77.7344 48.3599H77.8906L78.9062 45.6255H76.7188ZM86.0156 45.6255V48.3599H100V45.6255H86.0156Z" fill="#1F70C1"/>
</svg>
