<svg width="100" height="100" viewBox="0 0 100 100" fill="none" xmlns="http://www.w3.org/2000/svg">
<g clip-path="url(#clip0_1085_4157)">
<path d="M96.4259 42.878C96.6284 42.8881 96.8268 42.9389 97.0093 43.0273C97.1919 43.1156 97.3547 43.2399 97.4882 43.3925C97.6217 43.5452 97.723 43.7231 97.7863 43.9158C97.8496 44.1085 97.8734 44.3119 97.8563 44.514V48.9093C97.8856 49.1174 97.8661 49.3295 97.7995 49.5288C97.7328 49.7281 97.6207 49.9092 97.4721 50.0579C97.3235 50.2065 97.1424 50.3185 96.9431 50.3852C96.7437 50.4519 96.5317 50.4714 96.3235 50.4421H77.3118C72.6087 50.4421 69.8493 52.0726 69.8493 55.7554V57.0835C69.8493 59.9343 71.1774 62.396 76.1829 64.2382L89.779 69.6593C99.1853 73.2335 100 78.4491 100 84.0702V85.2108C100 96.6569 93.1595 98.8921 79.3524 98.8921C70.4595 98.8921 62.3876 98.1734 60.6493 97.9687C59.4228 97.871 59.1157 97.2554 59.1157 96.4405V91.9429C59.0851 91.7344 59.1037 91.5216 59.1699 91.3216C59.2361 91.1216 59.3482 90.9398 59.4972 90.7908C59.6462 90.6418 59.828 90.5297 60.028 90.4635C60.2281 90.3972 60.4408 90.3787 60.6493 90.4093H79.5579C87.7321 90.4093 90.2923 89.4859 90.2923 85.0905V83.8648C90.2923 80.9007 89.0657 78.9569 84.3634 77.0241L69.8493 71.4718C61.9774 68.4054 60.0329 62.4773 60.0329 56.8554V54.7124C60.0329 43.4648 69.8493 41.9312 80.7829 41.9312C86.0116 41.9292 91.2356 42.2454 96.4259 42.878Z" fill="#303030"/>
<path d="M91.7969 4.77393C88.7951 2.32504 85.0396 0.98796 81.1656 0.988773H16.8969C14.1534 0.987042 11.4509 1.65422 9.02345 2.93252C6.16383 4.44583 3.79189 6.73894 2.18283 9.5458C1.87502 10.1161 1.61252 10.6513 1.3508 11.2161C1.20236 11.6036 1.03673 11.9856 0.905484 12.356C0.637708 13.1264 0.433893 13.9176 0.296109 14.7216C0.0924966 15.7638 -0.00695123 16.8237 -0.000765927 17.8856V82.131C-0.00895767 84.6664 0.562355 87.1703 1.66955 89.4513C3.05006 92.3166 5.21156 94.734 7.90529 96.4252C10.599 98.1163 13.7155 99.0125 16.8961 99.0106H51.2031C51.3229 99.0106 51.4416 98.987 51.5522 98.9412C51.6629 98.8953 51.7634 98.8281 51.8481 98.7433C51.9328 98.6586 51.9999 98.558 52.0457 98.4473C52.0915 98.3366 52.115 98.2179 52.1149 98.0981V93.9997C52.1149 93.7579 52.0188 93.526 51.8478 93.355C51.6768 93.184 51.4449 93.088 51.2031 93.088H46.75L33.4625 66.1755L63.7781 25.9974C64.0421 25.6443 64.2357 25.2438 64.3484 24.8177L92.1274 29.07V35.3403C92.1288 35.5813 92.2256 35.8119 92.3966 35.9818C92.5676 36.1516 92.7989 36.2468 93.0399 36.2466H97.1609C97.4015 36.2452 97.6318 36.1494 97.8024 35.98C97.9731 35.8105 98.0704 35.5808 98.0735 35.3403V17.8856C98.0751 15.3696 97.512 12.8854 96.4257 10.6159C95.3394 8.34653 93.7576 6.35064 91.7969 4.77393ZM56.8352 6.90674L58.2719 18.3528L35.811 14.9325L34.7969 6.95205L56.8352 6.90674ZM16.9313 6.90674H29.2727L30.1563 14.0606L13.75 11.5521L8.57423 10.7536C9.59833 9.54576 10.8735 8.57576 12.3109 7.91124C13.7483 7.24671 15.3133 6.90365 16.8969 6.90596L16.9313 6.90674ZM29.3985 19.481L17.9453 34.7021L8.88283 16.3356L29.3985 19.481ZM5.93439 22.731L13.2766 37.5981L5.93439 38.4989V22.731ZM5.93439 44.0224L15.825 42.7739L26.086 63.5185L5.93439 66.0552V44.0224ZM40.6453 93.088H17.8094C14.6633 93.0806 11.6481 91.8279 9.4229 89.6039C7.19769 87.3799 5.94347 84.3653 5.93439 81.2192V71.5677L28.6172 68.7185L40.6453 93.088ZM30.761 60.6911L20.6422 40.1692L35.5203 20.4505V20.4161L58.4711 23.9278L30.761 60.6911ZM92.1219 23.5294L63.8641 19.2083L62.325 6.90596H80.2531C83.3976 6.91379 86.4111 8.16601 88.635 10.389C90.859 12.6119 92.1126 15.6248 92.1219 18.7692V23.5294Z" fill="#8C0000"/>
</g>
<defs>
<clipPath id="clip0_1085_4157">
<rect width="100" height="100" fill="white"/>
</clipPath>
</defs>
</svg>
