<svg width="100" height="100" viewBox="0 0 100 100" fill="none" xmlns="http://www.w3.org/2000/svg">
<path d="M7.3391 57.0303C6.74613 56.9357 5.22894 56.5561 3.97191 56.2123L1.68285 55.5717L2.85706 53.4139L4.0305 51.2561L3.08206 50.0818C1.74222 48.4217 0.0117516 44.7826 3.2852e-05 43.6092C-0.0124671 40.8693 3.54378 36.8982 7.90706 34.7646C10.9071 33.2943 13.2899 33.2592 16.2774 34.6584L18.5297 35.7131L19.1821 34.7764C19.5368 34.2662 19.8336 33.5912 19.8336 33.2943C19.8336 32.9975 20.1305 32.7373 20.486 32.7373C20.8414 32.7373 21.1375 32.8311 21.1375 32.9381C21.1375 33.1998 18.518 39.8146 18.3524 39.9803C18.2805 40.0506 17.5688 39.7201 16.7625 39.2459C14.4868 37.9053 11.6297 37.0162 9.41253 36.9568C4.25628 36.8264 2.46488 41.8662 6.1055 46.2756L7.38519 47.8295L10.8828 44.9951C14.8071 41.8303 15.2578 41.7584 18.3164 43.8701C21.7539 46.2404 21.8133 49.8443 18.493 53.6139C15.5532 56.9693 12.5313 57.8951 7.33753 57.0279L7.3391 57.0303ZM16.136 53.4146C17.8422 52.0756 17.7243 49.5967 15.8743 47.6287C13.5508 45.1631 12.8289 45.2693 8.73831 48.6834C4.67113 52.074 4.64769 51.9443 9.50863 53.4975C12.7211 54.5404 14.7368 54.5053 16.136 53.4146ZM49.1649 66.4787C48.0024 66.0521 44.8727 64.76 42.1938 63.5982C34.9618 60.4443 33.9422 60.385 31.7844 63.0053C31.2868 63.61 30.7414 63.9896 30.5875 63.8357C30.1243 63.3725 31.5 61.1561 33.1602 59.6982C34.511 58.5123 34.961 58.3467 36.4563 58.5123C37.4039 58.6186 40.5578 59.7217 43.4618 60.9545C50.018 63.7404 51.9383 64.3334 54.4407 64.3334C57.4868 64.3334 59.0524 62.1998 58.0914 59.3662C57.8547 58.6553 57.925 58.417 58.4 58.417C59.2883 58.417 59.7399 61.7373 59.1 63.6459C58.8266 64.4631 58.0321 65.6248 57.3328 66.2061C56.2891 67.0834 55.6258 67.2732 53.6688 67.2607C52.3532 67.2498 50.3266 66.9061 49.1641 66.4795L49.1649 66.4787ZM32.2711 56.3436C29.5797 55.0857 27.1493 52.6912 25.75 49.8936C23.5102 45.4123 24.1969 42.5436 28.4414 38.667C32.0094 35.4061 34.9266 34.1373 38.8516 34.1373C41.6836 34.1373 42.2891 34.292 44.125 35.4178C48.4766 38.1092 49.5555 43.2428 46.936 48.8373C43.8657 55.4061 37.3805 58.7139 32.2711 56.342V56.3436ZM41.2813 53.2248C43.2961 52.2287 44.6836 47.6287 44.1141 43.8107C43.4032 39.1053 37.0368 35.892 32.3657 37.8842C27.5641 39.935 27.493 45.3998 32.2118 50.3201C35.5071 53.7701 38.3407 54.6717 41.2813 53.2248ZM50.4219 57.2084C50.4219 57.0061 51.168 56.6514 52.093 56.4256L53.7649 56.01L54.1203 49.9889C54.511 43.3256 54.2258 36.7693 53.5032 35.8928C53.2422 35.5834 52.4485 35.2037 51.7258 35.0389C48.786 34.3865 50.7414 33.9357 56.4446 33.9357C62.1477 33.9357 63.9602 34.3514 61.2453 35.0389C58.9094 35.6201 58.8977 35.6553 58.8977 45.1631C58.8977 50.4381 59.0875 54.4107 59.3602 54.9201C59.7399 55.6311 60.3086 55.785 62.4899 55.785C66.9946 55.785 68.5477 54.7186 69.7696 50.7701C70.1368 49.5857 71.0852 49.799 70.7532 50.9967C70.5985 51.5529 70.3508 53.2475 70.1961 54.7896L69.9118 57.5756H60.1664C54.8071 57.5756 50.4219 57.41 50.4219 57.2084Z" fill="#333333"/>
<path d="M72.5546 56.9231C72.5546 56.5684 72.8991 56.2121 73.4678 55.9395C74.2272 55.584 74.7241 54.8371 76.5264 51.316C79.3835 45.7449 83.8889 36.177 84.3155 34.7418C84.6468 33.6512 84.7186 33.5926 85.9514 33.4504C86.6624 33.3676 87.2553 33.3199 87.2671 33.3434C87.2788 33.3668 88.2632 35.5238 89.4608 38.1449C90.6468 40.7645 93.0296 45.7442 94.76 49.2059C97.653 55.0262 97.9733 55.5481 98.9452 56.0215C99.5382 56.3067 99.9999 56.7457 99.9999 57.0059C99.9999 57.4207 99.4905 57.4684 95.1046 57.4684C90.7061 57.4684 90.2077 57.4215 90.2077 56.9949C90.2077 56.7106 90.5874 56.402 91.1913 56.1996C91.7491 56.0223 92.1757 55.6902 92.1757 55.4418C92.1757 55.2043 91.5944 53.6395 90.8827 51.9684L89.5913 48.9215H79.7983L78.8624 50.984C77.1069 54.8488 77.0718 55.7621 78.7077 56.1996C79.5264 56.4254 79.7514 56.6035 79.6561 56.9707C79.5499 57.3981 79.1225 57.4566 76.0405 57.4566C72.7327 57.4809 72.5546 57.4566 72.5546 56.9231ZM88.6069 47.3324C88.7725 47.0363 85.0858 38.9863 84.7428 38.9027C84.4928 38.8324 80.6757 46.7043 80.6757 47.2965C80.6757 47.5934 88.4296 47.6285 88.6069 47.3324Z" fill="#CA2727"/>
</svg>
