<svg width="100" height="100" viewBox="0 0 100 100" fill="none" xmlns="http://www.w3.org/2000/svg">
<path d="M40.1524 19.4357C18.729 19.4357 1.36414 16.442 1.36414 12.7678V84.8467C1.36414 88.5396 18.729 91.5154 40.1524 91.5154C61.5751 91.5154 78.9399 88.5217 78.9399 84.8467V12.7256C78.9399 16.4428 61.5751 19.4357 40.1524 19.4357Z" fill="#D1D1D1"/>
<path d="M1.36414 12.7264V84.8475C1.36414 88.5404 18.729 91.5162 40.1524 91.5162V19.4365C18.729 19.4365 1.36414 16.4428 1.36414 12.7256V12.7264ZM73.4868 16.1678V88.2475C76.9438 87.2498 78.9399 86.0779 78.9399 84.8295V12.7256C78.9399 14.0014 76.9501 15.1521 73.4868 16.1678Z" fill="#ADADAD"/>
<path d="M78.9399 12.7441C78.9399 9.0543 61.5727 6.06055 40.1524 6.06055C18.729 6.06055 1.36414 9.0543 1.36414 12.7441C1.36414 16.4363 18.729 19.4301 40.1524 19.4301C61.5719 19.4301 78.9399 16.4363 78.9399 12.7441ZM1.36414 58.0715C1.36414 61.7645 18.729 64.7395 40.1524 64.7395C61.5751 64.7395 78.9399 61.7457 78.9399 58.0715V63.5277C78.9399 67.2176 61.5751 70.1934 40.1524 70.1934C18.7298 70.1934 1.36414 67.1996 1.36414 63.5277V58.0715ZM1.36414 34.048C1.36414 37.7379 18.729 40.716 40.1524 40.716C61.5751 40.716 78.9399 37.7191 78.9399 34.048V39.5012C78.9399 43.1941 61.5751 46.1699 40.1524 46.1699C18.7298 46.1699 1.36414 43.1762 1.36414 39.502V34.048Z" fill="#939699"/>
<path d="M98.9372 72.7257C98.9372 85.4452 88.6286 95.7569 75.9091 95.7569C63.1895 95.7569 52.8778 85.4452 52.8778 72.7257C52.8778 60.0062 63.1895 49.6968 75.9091 49.6968C88.6286 49.6968 98.9372 60.0062 98.9372 72.7257Z" fill="#ECEDF0"/>
<path d="M96.097 72.7266C96.097 83.8773 87.058 92.9141 75.9095 92.9141C64.7588 92.9141 55.722 83.8773 55.722 72.7266C55.722 61.5781 64.7588 52.5391 75.9095 52.5391C87.058 52.5391 96.097 61.5781 96.097 72.7266Z" fill="#3FAA00"/>
<path d="M68.7996 82.7389L87.5707 71.9029L68.7988 61.0654L68.7996 82.7389Z" fill="white"/>
</svg>
