<svg width="100" height="100" viewBox="0 0 100 100" fill="none" xmlns="http://www.w3.org/2000/svg">
<path d="M54.2966 77.4824C54.2505 76.9121 54.2231 76.5449 54.2231 76.5449C54.2231 76.5449 52.4997 64.9129 50.445 61.4402C50.1216 60.8879 50.4786 58.6324 51.388 55.284C51.9192 56.1973 54.1536 60.1215 54.6052 61.3855C55.1114 62.8105 55.2146 63.2191 55.2146 63.2191C55.2146 63.2191 53.988 56.9051 51.9771 53.2215C52.4657 51.5795 52.9877 49.9477 53.5427 48.327C54.3028 49.6629 56.131 52.9043 56.5333 54.0301C56.613 54.259 56.6833 54.4543 56.7442 54.6348L56.8021 54.3113C56.3411 52.3551 55.4349 48.952 54.1958 46.4348C56.9458 32.116 66.3294 12.9785 75.9458 4.43945H13.2028C8.99424 4.43945 5.55518 7.88164 5.55518 12.0871V81.2824C5.55518 85.4879 8.99736 88.9301 13.2036 88.9301H54.5294C54.2169 85.1228 54.1395 81.3 54.2974 77.4832" fill="#0B7FCC"/>
<path d="M51.3882 55.283C51.9194 56.1955 54.1538 60.1174 54.6046 61.3838C55.1116 62.8088 55.2147 63.2174 55.2147 63.2174C55.2147 63.2174 53.9882 56.9033 51.9772 53.2197C52.4665 51.5767 52.9885 49.9435 53.5429 48.3213C54.2358 49.5455 55.8257 52.3596 56.396 53.69L56.46 52.9393C55.9538 50.9893 55.1843 48.4346 54.196 46.433C56.7288 33.2525 64.8835 15.9877 73.6694 6.66895H13.2022C11.766 6.67019 10.389 7.24121 9.37334 8.2567C8.35771 9.27218 7.78648 10.6491 7.78503 12.0854V76.2338C21.478 70.9752 37.9913 66.1713 52.203 66.3791C51.678 64.3439 51.0772 62.5041 50.4452 61.4385C50.1218 60.8861 50.4788 58.6283 51.3882 55.283Z" fill="url(#paint0_linear_1085_4170)"/>
<path d="M90.5857 2.17209C86.2888 -1.66072 81.0826 -0.119316 75.9497 4.43693C75.1567 5.14584 74.3971 5.89118 73.6732 6.67053C64.8841 15.9877 56.7326 33.251 54.1997 46.4322C55.1857 48.4346 55.9575 50.9885 56.4607 52.9385C56.5919 53.4385 56.7107 53.9088 56.806 54.3088C57.0286 55.2518 57.1474 55.8682 57.1474 55.8682C57.1474 55.8682 57.0685 55.569 56.7451 54.6322C56.6841 54.4526 56.6138 54.2541 56.5341 54.0283C56.4926 53.914 56.4478 53.801 56.3997 53.6893C55.8263 52.3588 54.2396 49.5447 53.5435 48.3244C52.9482 50.0822 52.4208 51.7307 51.9779 53.219C53.9919 56.9026 55.2193 63.2166 55.2193 63.2166C55.2193 63.2166 55.1122 62.808 54.6083 61.383C54.1568 60.1166 51.92 56.1955 51.3919 55.2822C50.4825 58.6268 50.1224 60.8854 50.449 61.4385C51.081 62.5026 51.6786 64.3463 52.2068 66.3783C53.3974 70.9619 54.2271 76.544 54.2271 76.544C54.2271 76.544 54.2513 76.9104 54.3005 77.4815C54.1426 81.298 54.2201 85.1206 54.5326 88.9276C54.9263 93.701 55.6677 97.8049 56.6138 99.9994L57.2607 99.6487C55.8693 95.3244 55.3044 89.6541 55.5513 83.1205C55.9263 73.126 58.2247 61.0776 62.47 48.5197C69.6505 29.5588 79.6091 14.3494 88.7216 7.08615C80.4146 14.5877 69.1724 38.8705 65.806 47.8635C62.0404 57.9346 59.37 67.3822 57.7583 76.4369C60.5318 67.9502 69.5138 64.3041 69.5138 64.3041C69.5138 64.3041 73.9177 58.8682 79.0661 51.1104C75.9802 51.8158 70.9177 53.0182 69.224 53.7291C66.724 54.7791 66.0466 55.1354 66.0466 55.1354C66.0466 55.1354 74.149 50.2041 81.1013 47.9705C90.6591 32.9158 101.072 11.5268 90.5865 2.17287" fill="#003956"/>
<defs>
<linearGradient id="paint0_linear_1085_4170" x1="45.7734" y1="8.0863" x2="45.7734" y2="72.3618" gradientUnits="userSpaceOnUse">
<stop stop-color="#95D7F4"/>
<stop offset="0.92" stop-color="#0F7FCC"/>
<stop offset="1" stop-color="#0F7FCC"/>
</linearGradient>
</defs>
</svg>
