<svg width="100" height="100" viewBox="0 0 100 100" fill="none" xmlns="http://www.w3.org/2000/svg">
<path d="M26.7732 85.2979C23.9825 85.2979 20.0935 88.2081 20.0935 91.4573C20.0935 93.0628 21.0935 93.8323 22.5427 93.8323C25.2255 93.8323 29.4443 91.0198 29.4443 87.5979C29.4427 85.9136 28.2638 85.2979 26.7732 85.2979ZM36.0482 22.5909C36.0482 19.73 34.0216 17.544 31.0013 17.544C28.1693 17.544 25.8818 19.73 25.8818 22.5909C25.8818 25.2729 28.0583 27.7112 30.9271 27.7112C33.638 27.7112 36.0474 25.5761 36.0474 22.5917L36.0482 22.5909ZM49.9255 10.6433C49.9255 8.46357 48.4997 5.67139 45.4724 5.67139C42.7193 5.67139 41.3177 8.0917 41.3177 10.2729C41.3177 12.3808 42.8083 15.4667 45.7708 15.4667C48.524 15.4667 49.9255 12.7526 49.9255 10.6433ZM37.7966 91.4573C35.2732 91.4573 31.8021 94.7573 31.8021 97.2464C31.8021 98.5104 32.3255 99.1761 33.7021 99.1761C35.5013 99.1761 38.1005 97.6503 39.2208 95.3909C39.4427 94.9472 39.8419 94.1979 39.8419 94.055V92.794C39.0607 91.7417 38.5349 91.4581 37.795 91.4581L37.7966 91.4573ZM22.2458 75.9472C22.2458 73.7675 20.6318 72.905 18.8318 72.905C16.2005 72.905 11.6341 75.4331 11.6341 79.0636C11.6341 81.1136 13.0302 82.0323 14.9732 82.0323C17.4615 82.0323 22.2466 79.7761 22.2466 75.9464L22.2458 75.9472ZM19.0544 45.4472C21.695 45.4472 25.3622 43.6253 25.3622 39.8815C25.3622 37.055 23.0318 35.28 20.4638 35.28C17.6747 35.28 14.0825 37.2175 14.0825 40.8456C14.0825 43.6362 16.3365 45.4472 19.0544 45.4472ZM20.4646 59.0276C20.4646 56.43 18.345 55.2433 16.0865 55.2433C15.9443 55.2433 15.8365 55.1995 15.2708 55.2433C12.0075 55.5167 8.96301 58.3261 8.96301 61.1808C8.96301 63.8479 11.388 64.9644 13.4896 64.9644C16.2083 64.9644 20.4661 62.8784 20.4661 59.0269L20.4646 59.0276ZM82.9482 7.37842C80.9615 7.37842 80.2763 10.4628 80.2763 11.4597C80.2763 12.4487 80.6185 14.6495 82.3544 14.6495C84.3911 14.6495 85.0263 11.5651 85.0263 10.5683C85.0263 9.7292 84.5763 7.37686 82.9482 7.37686V7.37842ZM73.2263 1.81201C70.9177 1.81201 70.1849 4.70264 70.1849 6.04248C70.1849 6.92529 70.7286 10.0706 72.931 10.0503C75.1341 10.0269 75.9732 7.16514 75.9732 5.74561C75.9732 4.6417 75.4419 1.81279 73.2271 1.81279L73.2263 1.81201ZM89.4044 15.5409C87.5685 15.5409 86.881 18.5565 86.881 19.4737C86.881 20.2409 87.1747 22.0714 88.588 22.0714C90.3732 22.0714 91.0372 19.13 91.0372 18.212C91.0372 17.6026 90.7677 15.5409 89.4044 15.5409ZM70.1107 83.294C68.0169 83.294 66.5482 86.4925 66.5482 87.7472C66.5482 88.4003 66.7154 89.0831 67.6622 89.0831C69.7341 89.0831 71.2247 85.9347 71.2247 84.63C71.2232 84.019 70.9997 83.294 70.1107 83.294ZM49.3318 92.4214C46.9646 92.4214 44.2114 95.5839 44.2114 97.7651C44.2114 98.0854 44.2177 98.7128 44.8052 99.1011C45.4208 99.5034 46.5208 99.5409 47.8482 98.6558C49.6294 97.4667 50.8169 95.3643 50.8169 93.98C50.8169 93.2198 50.3294 92.4222 49.3318 92.4214ZM60.3146 0.624512C57.7911 0.624512 56.8271 3.61982 56.8271 5.22607C56.8271 6.91123 58.0693 9.82764 60.5364 9.82764C63.0404 9.82764 63.9974 6.83545 63.9505 5.30029C63.8919 3.33545 63.0685 0.624512 60.3146 0.624512ZM60.3146 89.3042C58.02 89.3042 56.0849 92.5933 56.0849 94.2769C56.0849 95.1245 56.4708 95.6128 57.3458 95.6128C59.4185 95.6128 61.5755 92.4378 61.5755 90.7894C61.5755 90.0651 61.4271 89.305 60.3138 89.305L60.3146 89.3042Z" fill="#231F20"/>
</svg>
