<svg width="100" height="100" viewBox="0 0 100 100" fill="none" xmlns="http://www.w3.org/2000/svg">
<g clip-path="url(#clip0_867_14022)">
<path d="M28.2863 90.818C47.6135 90.818 60.1862 80.7271 60.1862 65.5453C60.1862 53.7726 52.5408 46.2908 38.8681 43.1908L30.0954 40.5954C22.3954 38.8908 17.9 36.8454 18.959 31.6181C19.8409 27.2681 22.4727 24.8136 28.6045 24.8136C48.0817 24.8136 55.2999 31.6181 55.2999 31.6181V15.2545C55.2999 15.2545 48.2726 9 28.6045 9C10.0591 9 0 18.4091 0 32.9681C0 44.7408 6.97271 51.5908 21.1136 54.8408L22.6318 55.2181C24.7818 55.8726 27.6863 56.7408 31.3408 57.8181C38.5681 59.5226 40.4272 61.3317 40.4272 66.7544C40.4272 71.709 35.1999 74.5271 28.2908 74.5271C8.36816 74.5271 0 64.5953 0 64.5953V82.7271C0 82.7271 5.23635 90.818 28.2863 90.818Z" fill="url(#paint0_linear_867_14022)"/>
<path d="M88.0638 89.5896C94.9047 89.5896 100 84.7123 100 78.1078C100 71.3623 95.0502 66.626 88.0638 66.626C81.2229 66.626 76.2729 71.3623 76.2729 78.1078C76.2729 84.8532 81.2229 89.5896 88.0638 89.5896Z" fill="#E80000"/>
</g>
<defs>
<linearGradient id="paint0_linear_867_14022" x1="3009.31" y1="9" x2="3009.31" y2="8190.8" gradientUnits="userSpaceOnUse">
<stop stop-color="#9D39FF"/>
<stop offset="1" stop-color="#A380FF"/>
</linearGradient>
<clipPath id="clip0_867_14022">
<rect width="100" height="100" fill="white"/>
</clipPath>
</defs>
</svg>
