<svg width="100" height="100" viewBox="0 0 100 100" fill="none" xmlns="http://www.w3.org/2000/svg">
<g clip-path="url(#clip0_1085_4178)">
<path d="M78.962 64.4614H87.8511V100H7.85107V64.4614H16.7394V91.1153H78.9612L78.962 64.4614Z" fill="#BBBBBB"/>
<path d="M26.4261 61.8203L70.0824 70.9906L71.9167 62.2672L28.2636 53.0914L26.4261 61.8203ZM32.2027 40.9234L72.6441 59.7516L76.4128 51.6664L35.9691 32.8383L32.2027 40.9234ZM43.3933 21.0922L77.6777 49.6328L83.3878 42.7773L49.1027 14.2406L43.3933 21.0922ZM65.5261 0L58.3644 5.32031L84.9894 41.1031L92.148 35.7828L65.5261 0ZM25.6277 82.2297H70.073V73.3445H25.6277V82.2297Z" fill="#F58025"/>
</g>
<defs>
<clipPath id="clip0_1085_4178">
<rect width="100" height="100" fill="white"/>
</clipPath>
</defs>
</svg>
