<svg width="100" height="100" viewBox="0 0 100 100" fill="none" xmlns="http://www.w3.org/2000/svg">
<g clip-path="url(#clip0_1085_4181)">
<mask id="mask0_1085_4181" style="mask-type:luminance" maskUnits="userSpaceOnUse" x="0" y="0" width="100" height="100">
<path d="M50 99.9209C77.5711 99.9209 99.9219 77.5701 99.9219 49.999C99.9219 22.4279 77.5711 0.0771484 50 0.0771484C22.4289 0.0771484 0.078125 22.4279 0.078125 49.999C0.078125 77.5701 22.4289 99.9209 50 99.9209Z" fill="#C4C4C4"/>
</mask>
<g mask="url(#mask0_1085_4181)">
<path d="M117.344 -10.9375H-17.3438V110.859H117.344V-10.9375Z" fill="url(#paint0_linear_1085_4181)"/>
</g>
<mask id="mask1_1085_4181" style="mask-type:luminance" maskUnits="userSpaceOnUse" x="0" y="0" width="100" height="100">
<path d="M50 99.9209C77.5711 99.9209 99.9219 77.5701 99.9219 49.999C99.9219 22.4279 77.5711 0.0771484 50 0.0771484C22.4289 0.0771484 0.078125 22.4279 0.078125 49.999C0.078125 77.5701 22.4289 99.9209 50 99.9209Z" fill="#C4C4C4"/>
</mask>
<g mask="url(#mask1_1085_4181)">
<path fill-rule="evenodd" clip-rule="evenodd" d="M19.0625 27.5781C23.9062 28.5156 26.6406 31.4062 27.5 36.0156C27.4219 31.25 30.2344 28.4375 35.9375 27.5781C30.7812 27.0312 28.125 24.1406 27.5 19.1406C26.875 23.9844 24.2969 26.9531 19.0625 27.5781ZM62.0312 63.5156L60.1562 68.4375L45 63.9844L46.5625 58.6719L35 54.0625C38.6719 49.5312 42.3437 47.3437 48.125 44.5312C47.5781 35.7031 54.7656 29.375 63.2812 23.125C70.0781 31.4062 73.0469 38.75 68.4375 49.1406C72.2656 53.2812 73.9062 59.9219 73.8281 66.1719L62.1094 63.4375L62.0312 63.5156ZM64.6875 40.0781C64.6875 42.5 62.7344 44.4531 60.3125 44.4531C57.8906 44.4531 55.9375 42.5 55.9375 40.0781C55.9375 37.6562 57.8906 35.7031 60.3125 35.7031C62.7344 35.7031 64.6875 37.6562 64.6875 40.0781Z" fill="white"/>
</g>
<mask id="mask2_1085_4181" style="mask-type:luminance" maskUnits="userSpaceOnUse" x="0" y="0" width="100" height="100">
<path d="M50 99.9209C77.5711 99.9209 99.9219 77.5701 99.9219 49.999C99.9219 22.4279 77.5711 0.0771484 50 0.0771484C22.4289 0.0771484 0.078125 22.4279 0.078125 49.999C0.078125 77.5701 22.4289 99.9209 50 99.9209Z" fill="#C4C4C4"/>
</mask>
<g mask="url(#mask2_1085_4181)">
<path d="M56.3281 78.6704C56.3281 78.6704 52.8906 99.061 38.4375 104.295L15.7031 89.8423C35.7031 89.8423 42.8906 74.3735 42.8906 74.3735L56.3281 78.7485V78.6704Z" fill="white"/>
</g>
</g>
<defs>
<linearGradient id="paint0_linear_1085_4181" x1="10.5469" y1="125.469" x2="89.4531" y2="-25.4687" gradientUnits="userSpaceOnUse">
<stop stop-color="#ED0A62"/>
<stop offset="1" stop-color="#890CEA"/>
</linearGradient>
<clipPath id="clip0_1085_4181">
<rect width="100" height="100" fill="white"/>
</clipPath>
</defs>
</svg>
