<svg width="100" height="100" viewBox="0 0 100 100" fill="none" xmlns="http://www.w3.org/2000/svg">
<g clip-path="url(#clip0_867_14799)">
<path fill-rule="evenodd" clip-rule="evenodd" d="M64.6208 25.0957C68.4379 24.3213 72.4057 24.9169 75.8271 26.7777C79.2486 28.6386 81.9049 31.6457 83.3292 35.2707C88.1133 36.5121 92.3482 39.3102 95.3666 43.224C98.3849 47.1378 100.015 51.9448 100 56.8873C99.9958 69.1873 90.0958 79.1665 77.8708 79.1665C73.4846 79.1573 69.2002 77.8439 65.5625 75.3933C61.9247 72.9426 59.098 69.4655 57.4417 65.404C56.3945 62.883 55.8306 60.1876 55.7792 57.4582H50.1833C50.0962 57.4586 50.011 57.433 49.9385 57.3847C49.8661 57.3364 49.8097 57.2676 49.7765 57.187C49.7434 57.1065 49.7351 57.0179 49.7526 56.9326C49.7702 56.8473 49.8128 56.7691 49.875 56.7082L61.2625 45.2415C61.3129 45.1905 61.3729 45.15 61.4391 45.1223C61.5052 45.0947 61.5762 45.0804 61.6479 45.0804C61.7196 45.0804 61.7906 45.0947 61.8568 45.1223C61.9229 45.15 61.983 45.1905 62.0333 45.2415L73.425 56.7165C73.6958 56.9915 73.5042 57.4665 73.1167 57.4665L67.2 57.4623C67.3958 58.8707 67.8333 60.2665 68.5542 61.5873C69.3143 62.9906 70.3502 64.2259 71.5995 65.2191C72.8488 66.2123 74.2858 66.9428 75.8244 67.367C77.363 67.7911 78.9714 67.9001 80.5531 67.6873C82.1349 67.4746 83.6573 66.9446 85.0292 66.129C90.1042 63.1165 92.2458 56.5873 89.9333 51.129C88.8168 48.4659 86.7697 46.2998 84.1738 45.0348C81.5779 43.7699 78.6105 43.4923 75.825 44.254C76.3963 42.4128 76.3215 40.4317 75.613 38.6389C74.9044 36.846 73.6048 35.3489 71.9292 34.3957C70.2569 33.4514 68.3096 33.1144 66.4172 33.4417C64.5249 33.769 62.8039 34.7405 61.5458 36.1915C58.7125 29.404 51.7 25.0248 44.0875 25.929C35.8625 26.904 29.7458 33.7207 29.2833 41.7707C27.1695 40.6151 24.781 40.057 22.374 40.1561C19.9671 40.2552 17.6325 41.0078 15.6208 42.3332C13.2299 43.915 11.4028 46.2148 10.4024 48.9015C9.40203 51.5881 9.2801 54.5228 10.0542 57.2832C10.8352 60.1025 12.5179 62.5886 14.8452 64.3613C17.1724 66.134 20.0162 67.0959 22.9417 67.0998L52.7458 67.1123C52.975 67.1123 53.1792 67.2498 53.2667 67.4582C54.6483 70.7166 56.6556 73.6724 59.175 76.1582C59.3958 76.379 59.25 76.7498 58.9417 76.7498L22.9542 76.7373H22.9292C10.2625 76.7332 -0.0041654 66.3748 1.26781e-06 53.6165C0.00416793 40.8457 10.2833 30.5082 22.9458 30.5165H22.9792C25.1289 26.3473 28.3841 22.8498 32.3886 20.407C36.3932 17.9642 40.9925 16.6701 45.6833 16.6665C53.1875 16.6665 59.9375 19.9207 64.6208 25.0957Z" fill="#DF0428"/>
</g>
<defs>
<clipPath id="clip0_867_14799">
<rect width="100" height="100" fill="white"/>
</clipPath>
</defs>
</svg>
