<svg width="100" height="100" viewBox="0 0 100 100" fill="none" xmlns="http://www.w3.org/2000/svg">
<g clip-path="url(#clip0_1085_4198)">
<path d="M2.93281 8.26293e-07C2.54764 -0.000101818 2.16622 0.0756876 1.81035 0.223039C1.45448 0.37039 1.13113 0.586416 0.858772 0.858773C0.586415 1.13113 0.370389 1.45448 0.223038 1.81035C0.0756868 2.16622 -0.00010254 2.54764 1.04121e-07 2.93281V12.3469C1.04121e-07 13.1703 -0.000781147 13.5813 0.159375 13.8969C0.3 14.1734 0.527344 14.4 0.803906 14.5414C1.11875 14.7016 1.53047 14.7008 2.35313 14.7008H23.532C25.4438 14.7844 27.3133 15.2977 29.0008 16.2008L42.4672 24.118C42.7404 24.2569 42.9697 24.4689 43.1296 24.7305C43.2894 24.992 43.3736 25.2927 43.3727 25.5992C43.3733 25.9061 43.289 26.2071 43.1292 26.4691C42.9694 26.731 42.7403 26.9437 42.4672 27.0836L36.068 30.8492C35.2945 31.2484 34.4375 31.4586 33.568 31.4586C32.698 31.4572 31.841 31.2483 31.068 30.8492L26.068 27.9328C24.3744 27.0297 22.5002 26.5172 20.5828 26.4328H2.35313C1.52969 26.4328 1.11875 26.4344 0.803906 26.5953C0.527344 26.7359 0.300781 26.9594 0.159375 27.2359C1.04774e-07 27.5508 1.04121e-07 27.9625 1.04121e-07 28.7859V41.7313C1.04121e-07 42.5555 -0.000781147 42.9664 0.159375 43.2812C0.3 43.5578 0.527344 43.7812 0.803906 43.9219C1.11875 44.0828 1.53047 44.082 2.35313 44.082H20.5828C22.5011 44.0065 24.3768 43.4943 26.0672 42.5844L71.0672 16.1492C72.7501 15.2371 74.6201 14.7236 76.5328 14.6484H97.6461C98.4703 14.6484 98.8812 14.6492 99.1961 14.4891C99.4727 14.3484 99.6992 14.1242 99.8406 13.8477C100.001 13.5328 100 13.1211 100 12.2984V2.88438C99.9875 2.11453 99.6733 1.38035 99.125 0.839845C98.5753 0.300997 97.8361 -0.000576116 97.0664 8.26293e-07H2.93281ZM79.4172 26.4688C77.5002 26.552 75.6263 27.0635 73.9328 27.9656L28.9328 54.4172C27.2462 55.3208 25.378 55.8337 23.4664 55.918H2.35313C1.52969 55.918 1.11875 55.918 0.803906 56.0773C0.527344 56.218 0.300781 56.4422 0.159375 56.7188C1.04774e-07 57.0336 1.04121e-07 57.4445 1.04121e-07 58.268V71.2141C1.04121e-07 72.0375 -0.000781147 72.4484 0.159375 72.7641C0.3 73.0406 0.527344 73.2641 0.803906 73.4047C1.11875 73.5648 1.53047 73.568 2.35313 73.568H20.5828C22.5 73.4832 24.374 72.9704 26.0672 72.0672L71.0672 45.6156C72.7534 44.7122 74.6216 44.2003 76.5328 44.118H97.6461C98.4703 44.118 98.8812 44.1156 99.1961 43.9555C99.4727 43.8148 99.6992 43.5906 99.8406 43.3141C100.001 42.9992 100 42.5875 100 41.7641V28.8188C100 27.9945 100 27.5836 99.8406 27.2687C99.6989 26.9924 99.4733 26.7682 99.1961 26.6281C98.8812 26.4672 98.4695 26.468 97.6461 26.468L79.4172 26.4688ZM79.4172 55.9344C77.5 56.0189 75.6261 56.5314 73.9328 57.4344L28.9328 83.8672C27.2492 84.7782 25.3792 85.2913 23.4664 85.3672H2.35313C1.52969 85.3672 1.11875 85.3672 0.803906 85.5273C0.527372 85.6683 0.301962 85.8923 0.159375 86.168C-0.000781147 86.4828 1.04121e-07 86.8945 1.04121e-07 87.718V97.132C0.0218751 97.8977 0.338281 98.625 0.885156 99.1602C1.43303 99.695 2.1672 99.9961 2.93281 100H97.0672C97.8406 99.9947 98.581 99.6863 99.1294 99.141C99.6778 98.5956 99.9904 97.8569 100 97.0836V87.6695C100 86.8453 100 86.4344 99.8406 86.1195C99.6989 85.8432 99.4733 85.6189 99.1961 85.4789C98.8812 85.318 98.4695 85.3156 97.6461 85.3156H76.4688C74.5552 85.2398 72.6845 84.7267 71 83.8156L57.5328 75.9172C57.2552 75.7791 57.0217 75.5661 56.8586 75.3023C56.6961 75.038 56.6103 74.7337 56.6109 74.4234C56.6106 74.1137 56.6966 73.81 56.8595 73.5465C57.0224 73.283 57.2556 73.0702 57.5328 72.932L63.932 69.182C64.7054 68.7843 65.5624 68.5767 66.432 68.5766C67.3017 68.5767 68.1587 68.7843 68.932 69.182L73.932 72.0828C75.6226 72.9934 77.4985 73.5064 79.4172 73.5828H97.6461C98.4703 73.5828 98.8812 73.5844 99.1961 73.4234C99.4727 73.2828 99.6992 73.0563 99.8406 72.7789C100.001 72.4648 100 72.0531 100 71.2297V58.2875C100 57.4641 100 57.0492 99.8406 56.7352C99.6982 56.4592 99.4727 56.2349 99.1961 56.0938C98.8812 55.9336 98.4695 55.9344 97.6461 55.9344H79.4172Z" fill="#77E8B9"/>
</g>
<defs>
<clipPath id="clip0_1085_4198">
<rect width="100" height="100" fill="white"/>
</clipPath>
</defs>
</svg>
