<svg width="100" height="100" viewBox="0 0 100 100" fill="none" xmlns="http://www.w3.org/2000/svg">
<g clip-path="url(#clip0_867_22084)">
<path fill-rule="evenodd" clip-rule="evenodd" d="M20.1211 12.1201H80.7272V72.7262H20.1211V12.1201Z" fill="white"/>
<path d="M57.3273 46.0991H37.7364V55.3172H56.8576C57.9879 55.3172 59.0243 54.8566 59.8728 54.1203C60.6243 53.3809 61.097 52.2748 61.097 50.893C61.1232 49.7034 60.7592 48.538 60.0607 47.5748C59.3061 46.6506 58.4576 46.0991 57.3273 46.0991ZM57.9879 34.9415C58.8364 34.39 59.2122 33.19 59.2122 31.6233C59.2122 30.2415 58.8364 29.2263 58.1758 28.5809C57.4939 27.9946 56.6266 27.6683 55.7273 27.6597H37.7334V35.9566H55.3516C56.291 35.9566 57.2334 35.496 57.9879 34.9415Z" fill="#0AB3AF"/>
<path d="M89.1424 -0.000976562H12.4C9.95455 -0.000976562 8 1.94751 8 4.2869V80.893C8 83.2354 9.95455 84.696 12.303 84.696H23.6424V99.999L37.7212 84.793H89.1455C91.4909 84.793 92.9576 83.3324 92.9576 80.896V4.38387C92.9576 2.04448 91.4909 0.0959931 89.0485 0.0959931L89.1394 -0.000976562H89.1424ZM76.2424 62.0839C75.2351 63.8529 73.7872 65.3311 72.0394 66.3748C70.1818 67.5414 68.1303 68.6172 65.7818 69.1021C63.4364 69.6869 60.8939 70.1748 58.2545 70.1748H23.6424V15.593H62.9455C64.9 15.593 66.5606 15.9839 68.1273 16.8596C69.5909 17.6414 70.9606 18.7111 72.0364 19.9808C74.226 22.641 75.4036 25.9902 75.3606 29.4354C75.3606 31.9687 74.6758 34.4051 73.403 36.7445C72.0841 39.099 70.0221 40.95 67.5394 42.0081C70.6667 42.8839 73.1121 44.4445 74.9667 46.6839C76.7273 49.0233 77.6091 52.0475 77.6091 55.8475C77.6091 58.2839 77.1182 60.3324 76.1424 62.0839H76.2394H76.2424Z" fill="#0AB3AF"/>
</g>
<defs>
<clipPath id="clip0_867_22084">
<rect width="100" height="100" fill="white"/>
</clipPath>
</defs>
</svg>
