<svg width="100" height="100" viewBox="0 0 100 100" fill="none" xmlns="http://www.w3.org/2000/svg">
<g clip-path="url(#clip0_867_14825)">
<path d="M13.1032 92.149L10.0032 9.5992C9.95642 8.28809 10.4237 7.01059 11.3055 6.03915C12.1873 5.06772 13.4137 4.47923 14.7232 4.39921L84.923 0.00922337C85.6089 -0.0345443 86.2965 0.0628546 86.9432 0.295397C87.59 0.52794 88.1822 0.890683 88.6831 1.3612C89.1841 1.83171 89.5832 2.39999 89.8558 3.0309C90.1284 3.66181 90.2687 4.34193 90.268 5.02921V94.974C90.2673 95.6531 90.1292 96.325 89.8618 96.9492C89.5945 97.5734 89.2035 98.1371 88.7125 98.6062C88.2215 99.0752 87.6405 99.44 87.0047 99.6785C86.3689 99.9171 85.6914 100.024 85.013 99.994L17.9032 96.979C16.6424 96.9222 15.4491 96.3935 14.56 95.4979C13.6708 94.6023 13.1508 93.4101 13.1032 92.149Z" fill="#FF4785"/>
<path fill-rule="evenodd" clip-rule="evenodd" d="M79.4035 0.354492L69.7436 0.954491L69.2736 12.2895C69.2678 12.4313 69.3024 12.5718 69.3733 12.6948C69.4443 12.8177 69.5486 12.918 69.6743 12.984C69.8 13.05 69.9418 13.0789 70.0833 13.0675C70.2248 13.0561 70.3601 13.0047 70.4736 12.9195L74.8735 9.57947L78.5935 12.5095C78.7058 12.5984 78.8413 12.6532 78.9838 12.6676C79.1263 12.682 79.2699 12.6552 79.3977 12.5906C79.5255 12.5259 79.6321 12.4259 79.7049 12.3026C79.7777 12.1792 79.8137 12.0376 79.8085 11.8945L79.4035 0.354492ZM71.8836 38.3044C70.1186 39.6794 56.9386 40.6144 56.9386 38.6594C57.2186 31.1944 53.8786 30.8694 52.0186 30.8694C50.2586 30.8694 47.2886 31.3994 47.2886 35.3994C47.2886 39.4744 51.6286 41.7744 56.7236 44.4744C63.9586 48.3094 72.7235 52.9544 72.7235 64.6343C72.7235 75.8343 63.6236 82.0143 52.0236 82.0143C40.0486 82.0143 29.5837 77.1693 30.7636 60.3743C31.2286 58.4044 46.4536 58.8744 46.4536 60.3743C46.2636 67.3043 47.8436 69.3443 51.8336 69.3443C54.8986 69.3443 56.2886 67.6543 56.2886 64.8143C56.2886 60.5093 51.7686 57.9694 46.5636 55.0494C39.5186 51.0944 31.2286 46.4394 31.2286 35.7544C31.2286 25.0944 38.5586 17.9844 51.6486 17.9844C64.7386 17.9844 71.8836 24.9844 71.8836 38.3044Z" fill="white"/>
</g>
<defs>
<clipPath id="clip0_867_14825">
<rect width="100" height="100" fill="white"/>
</clipPath>
</defs>
</svg>
