<svg width="100" height="100" viewBox="0 0 100 100" fill="none" xmlns="http://www.w3.org/2000/svg">
<g clip-path="url(#clip0_867_13977)">
<path d="M2.94118 -0.00146484C1.31681 -0.00146484 0 1.31535 0 2.93972V26.9265C0 28.3902 0 29.1218 0.288421 29.5117C0.54605 29.8598 0.914989 30.0658 1.34658 30.1023C1.82977 30.1433 2.47005 29.7483 3.7506 28.9587C17.1987 20.6655 33.0406 15.8809 50 15.8809C66.9593 15.8809 82.8013 20.6655 96.2492 28.9587C97.5299 29.7483 98.1701 30.1433 98.6534 30.1023C99.0849 30.0658 99.4539 29.8598 99.7116 29.5117C99.9999 29.1218 99.9999 28.3902 99.9999 26.9265V2.93972C99.9999 1.31534 98.6831 -0.00146484 97.0587 -0.00146484H2.94118Z" fill="#E76057"/>
<path d="M10.5882 99.9982C11.4118 99.9982 11.8236 99.9983 12.1382 99.8379C12.4149 99.6969 12.6399 99.4721 12.7809 99.1953C12.9412 98.8808 12.9412 98.4689 12.9412 97.6453V43.9933C12.9412 42.67 12.9412 42.0083 12.6457 41.6155C12.395 41.2823 11.9831 41.0596 11.567 41.0323C11.0766 41.0001 10.5404 41.351 9.46803 42.0526C6.40358 44.0581 3.49671 46.2843 0.770009 48.7088C0.492361 48.9556 0.353538 49.0791 0.249275 49.2346C0.158401 49.37 0.0877561 49.5275 0.0468891 49.6853C0 49.8665 0 50.0576 0 50.44V97.0571C0 98.6814 1.31681 99.9982 2.94118 99.9982H10.5882Z" fill="#E76057"/>
<path d="M32.3525 99.9987C33.176 99.9987 33.5878 99.9987 33.9025 99.8384C34.1792 99.6974 34.4041 99.4725 34.5451 99.1957C34.7053 98.8812 34.7053 98.4694 34.7053 97.6457V34.4762C34.7053 33.4884 34.7053 32.9944 34.4923 32.6429C34.3096 32.3417 34.0045 32.1037 33.6678 32.0001C33.2752 31.8791 32.8106 31.9957 31.8816 32.2291C28.922 32.9727 26.0328 33.8942 23.2265 34.9819C22.7113 35.1816 22.4537 35.2814 22.254 35.4599C22.0808 35.6149 21.9405 35.8197 21.8587 36.0372C21.7642 36.2879 21.7642 36.5724 21.7642 37.1414V97.6457C21.7642 98.4694 21.7642 98.8812 21.9245 99.1957C22.0655 99.4725 22.2905 99.6974 22.5672 99.8384C22.8817 99.9987 23.2935 99.9987 24.1172 99.9987H32.3525Z" fill="#E76057"/>
<path d="M54.1176 99.9985C54.9413 99.9985 55.353 99.9985 55.6676 99.8381C55.9443 99.6971 56.1693 99.4723 56.3103 99.1955C56.4706 98.881 56.4706 98.4691 56.4706 97.6455V32.4354C56.4706 31.6749 56.4706 31.2947 56.3216 30.9894C56.193 30.7259 55.9755 30.4955 55.7196 30.352C55.4235 30.1857 55.055 30.1645 54.318 30.1222C52.8891 30.0402 51.4495 29.9985 50 29.9985C48.5505 29.9985 47.1108 30.0402 45.682 30.1222C44.945 30.1645 44.5765 30.1857 44.2803 30.352C44.0245 30.4955 43.807 30.7259 43.6783 30.9894C43.5293 31.2947 43.5293 31.6749 43.5293 32.4354V97.6455C43.5293 98.4691 43.5293 98.881 43.6896 99.1955C43.8306 99.4723 44.0556 99.6971 44.3323 99.8381C44.647 99.9985 45.0586 99.9985 45.8823 99.9985H54.1176Z" fill="#E76057"/>
<path d="M75.8819 99.9987C76.7055 99.9987 77.1174 99.9987 77.4319 99.8384C77.7085 99.6974 77.9335 99.4725 78.0745 99.1957C78.2349 98.8812 78.2349 98.4694 78.2349 97.6457V37.1414C78.2349 36.5724 78.2349 36.2879 78.1404 36.0372C78.0584 35.8197 77.9182 35.6149 77.745 35.4599C77.5454 35.2814 77.2877 35.1816 76.7725 34.9819C73.9662 33.8942 71.077 32.9727 68.1174 32.2291C67.1884 31.9957 66.7239 31.8791 66.3312 32.0001C65.9945 32.1037 65.6894 32.3417 65.5067 32.6429C65.2937 32.9944 65.2937 33.4884 65.2937 34.4762V97.6457C65.2937 98.4694 65.2937 98.8812 65.4539 99.1957C65.5949 99.4725 65.8199 99.6974 66.0965 99.8384C66.4112 99.9987 66.823 99.9987 67.6465 99.9987H75.8819Z" fill="#E76057"/>
<path d="M100 50.44C100 50.0576 100 49.8665 99.9532 49.6853C99.9122 49.5275 99.8417 49.37 99.7507 49.2346C99.6465 49.0791 99.5077 48.9556 99.23 48.7088C96.5033 46.2843 93.5963 44.0581 90.532 42.0526C89.4597 41.351 88.9235 41.0001 88.433 41.0323C88.017 41.0596 87.605 41.2823 87.3543 41.6155C87.0588 42.0083 87.0588 42.67 87.0588 43.9933V97.6453C87.0588 98.4689 87.0588 98.8808 87.2192 99.1953C87.3602 99.4721 87.585 99.6969 87.8618 99.8379C88.1763 99.9983 88.5882 99.9982 89.4118 99.9982H97.0588C98.6832 99.9982 100 98.6814 100 97.0571V50.44Z" fill="#E76057"/>
</g>
<defs>
<clipPath id="clip0_867_13977">
<rect width="100" height="100" fill="white"/>
</clipPath>
</defs>
</svg>
