<svg width="100" height="100" viewBox="0 0 100 100" fill="none" xmlns="http://www.w3.org/2000/svg">
<path d="M50.0769 56.4522L32.6045 47.2163L2.27489 31.1864C2.24699 31.1589 2.19184 31.1589 2.16393 31.1589C1.05662 30.6326 -0.0785961 31.7403 0.336686 32.8476L15.7908 72.2635L15.7935 72.2718C15.8101 72.3107 15.8241 72.3492 15.8407 72.3881C16.4749 73.8582 17.8589 74.7662 19.3653 75.1233C19.4925 75.1512 19.5835 75.1761 19.7364 75.2067C19.8888 75.2406 20.1018 75.2868 20.2845 75.3007C20.3144 75.3034 20.3423 75.3034 20.3729 75.306H20.3952C20.4171 75.309 20.4393 75.309 20.4616 75.3117H20.4918C20.5114 75.3143 20.5334 75.3143 20.553 75.3143H20.5888C20.6111 75.3173 20.633 75.3173 20.6553 75.3173C40.2273 77.4512 59.9733 77.4512 79.5453 75.3173C79.7805 75.3173 80.0104 75.306 80.2317 75.2841L80.4423 75.2592C80.4506 75.2562 80.4616 75.2562 80.4699 75.2535C80.5171 75.2479 80.5639 75.2396 80.6111 75.2313C80.6802 75.223 80.7496 75.2094 80.8187 75.1954C80.9573 75.1648 81.0201 75.1429 81.2081 75.0781C81.3958 75.0137 81.7078 74.9007 81.9028 74.8067C82.0982 74.7127 82.2334 74.6223 82.3968 74.52C82.5987 74.3933 82.7953 74.2586 82.9862 74.116C83.0702 74.0515 83.1277 74.0104 83.1885 73.9522L83.1553 73.9329L50.0769 56.4522Z" fill="#FF4B4B"/>
<path d="M97.929 31.1868H97.9014L67.5605 47.2167L84.4267 72.336L99.8419 32.8479V32.7925C100.23 31.6297 99.0393 30.5778 97.929 31.1868Z" fill="#7D353B"/>
<path d="M51.6939 23.5652C50.9184 22.4327 49.2297 22.4327 48.4822 23.5652L32.6045 47.2171L50.0769 56.4529L83.1889 73.9526C83.3969 73.749 83.5636 73.5506 83.7397 73.341C83.9975 73.0267 84.2273 72.6904 84.4264 72.336L67.5603 47.2171L51.6939 23.5652Z" fill="#BD4043"/>
</svg>
