<svg width="100" height="100" viewBox="0 0 100 100" fill="none" xmlns="http://www.w3.org/2000/svg">
<path fill-rule="evenodd" clip-rule="evenodd" d="M65.2091 41.6427L97.1098 39.4955C99.257 39.4955 100.791 41.6427 99.5637 43.1763L77.1719 73.8501C76.5584 74.1569 75.9449 74.7703 75.0247 74.7703H24.7197C24.3383 74.7242 23.9731 74.5891 23.6534 74.376C23.3337 74.1629 23.0686 73.8777 22.8793 73.5434L0.487418 43.1763C-0.739533 41.6427 0.487418 39.1888 2.63458 39.4955L34.5353 41.6427L48.0318 26.9192C48.952 25.6923 51.0992 25.6923 51.7126 26.9192L65.2091 41.3359V41.6427ZM71.9573 69.8625L51.0992 62.1941V69.8625H71.9573ZM48.6453 69.8625V62.1941L27.7871 69.8625H48.952H48.6453ZM46.1914 60.6604L25.0264 68.3288L9.68955 46.8572L46.4981 60.3537L46.1914 60.6604ZM53.5531 60.6604L75.0247 68.3288L90.3616 46.8572L53.5531 60.3537V60.6604ZM48.6453 58.82V33.3607L31.4679 52.3785L48.6453 58.5132V58.82ZM51.0992 58.82V33.3607L68.5832 52.3785L51.0992 58.5132V58.82ZM26.2534 50.538L30.241 46.2437L10.6098 45.0168L26.2534 50.538ZM73.491 50.538L69.5034 46.2437L88.8279 45.0168L73.491 50.538Z" fill="#006CFF"/>
</svg>
