<svg width="100" height="100" viewBox="0 0 100 100" fill="none" xmlns="http://www.w3.org/2000/svg">
<path fill-rule="evenodd" clip-rule="evenodd" d="M100 50.5001C100 43.3889 96.5558 37.7778 89.9724 37.7778C83.3891 37.7778 79.3613 43.3889 79.3613 50.4445C79.3613 58.8056 84.0836 63.0278 90.8613 63.0278C94.1669 63.0278 96.6669 62.2778 98.5558 61.2223V55.6667C96.6669 56.6112 94.5002 57.1945 91.7502 57.1945C89.0002 57.1945 86.6669 56.2501 86.3613 52.9723H99.9447C99.9447 52.6112 100 51.1667 100 50.5001ZM86.278 47.8612C86.278 44.7223 88.1947 43.4167 89.9447 43.4167C91.6947 43.4167 93.4447 44.7223 93.4447 47.8612H86.278Z" fill="#635BFF"/>
<path fill-rule="evenodd" clip-rule="evenodd" d="M68.6388 37.7778C65.9166 37.7778 64.1666 39.0556 63.1944 39.9445L62.8333 38.2223H56.7222V70.6112L63.6666 69.1389L63.6944 61.2778C64.6944 62.0001 66.1666 63.0278 68.6111 63.0278C73.5833 63.0278 78.1111 59.0278 78.1111 50.2223C78.0833 42.1667 73.5 37.7778 68.6388 37.7778ZM66.9722 56.9167C65.3333 56.9167 64.3611 56.3334 63.6944 55.6112L63.6666 45.3056C64.3888 44.5001 65.3888 43.9445 66.9722 43.9445C69.5 43.9445 71.25 46.7778 71.25 50.4167C71.25 54.0556 69.5277 56.9167 66.9722 56.9167Z" fill="#635BFF"/>
<path fill-rule="evenodd" clip-rule="evenodd" d="M47.1665 36.1389L54.1387 34.6389V29L47.1665 30.4722V36.1389Z" fill="#635BFF"/>
<path d="M54.1387 38.25H47.1665V62.5556H54.1387V38.25Z" fill="#635BFF"/>
<path fill-rule="evenodd" clip-rule="evenodd" d="M39.6944 40.3056L39.25 38.25H33.25V62.5556H40.1944V46.0834C41.8333 43.9445 44.6111 44.3334 45.4722 44.6389V38.25C44.5833 37.9167 41.3333 37.3056 39.6944 40.3056Z" fill="#635BFF"/>
<path fill-rule="evenodd" clip-rule="evenodd" d="M25.8056 32.2222L19.0278 33.6666L19 55.9166C19 60.0277 22.0833 63.0555 26.1945 63.0555C28.4722 63.0555 30.1389 62.6388 31.0556 62.1388V56.4999C30.1667 56.8611 25.7778 58.1388 25.7778 54.0277V44.1666H31.0556V38.2499H25.7778L25.8056 32.2222Z" fill="#635BFF"/>
<path fill-rule="evenodd" clip-rule="evenodd" d="M7.02778 45.3056C7.02778 44.2223 7.91667 43.8056 9.38889 43.8056C11.5 43.8056 14.1667 44.4445 16.2778 45.5834V39.0556C13.9722 38.1389 11.6944 37.7778 9.38889 37.7778C3.75001 37.7778 0 40.7223 0 45.6389C0 53.3056 10.5556 52.0834 10.5556 55.3889C10.5556 56.6667 9.44444 57.0834 7.88889 57.0834C5.58333 57.0834 2.63889 56.1389 0.305557 54.8612V61.4723C2.88889 62.5834 5.5 63.0556 7.88889 63.0556C13.6667 63.0556 17.6389 60.1945 17.6389 55.2223C17.6111 46.9445 7.02778 48.4167 7.02778 45.3056Z" fill="#635BFF"/>
</svg>
