<svg width="100" height="100" viewBox="0 0 100 100" fill="none" xmlns="http://www.w3.org/2000/svg">
<path fill-rule="evenodd" clip-rule="evenodd" d="M50.6794 97.7936C61.6193 58.4313 61.3027 58.2554 69.2068 30.1952L71.1064 31.2998C72.1405 31.8978 72.9848 31.4053 72.9848 30.2093V16.8317C75.0813 9.43765 76.7275 3.72501 77.2059 2.00488H85.7714L100 15.2734L90.6574 23.3991L97.7278 31.0887L51.1473 97.7936C50.9186 98.17 50.6021 98.0856 50.6724 97.7936H50.6794Z" fill="black"/>
<path fill-rule="evenodd" clip-rule="evenodd" d="M55.7696 12.9638C56.1917 12.9638 56.5329 13.196 56.5329 13.4915V20.3509C56.5329 20.6323 56.2163 20.8715 55.7942 20.8715H44.2915C43.8694 20.8715 43.5177 20.6358 43.5177 20.3438V13.4844C43.5177 13.196 43.8694 12.9638 44.2915 12.9638H55.7942H55.7696ZM69.9668 5.36574L57.3103 12.7176C57.4581 12.9463 57.546 13.2101 57.546 13.4915V20.3509C57.546 20.7026 57.4053 21.0192 57.159 21.283L69.9281 28.7053C70.7723 29.2153 71.511 28.8002 71.511 27.7907V6.29088C71.511 5.2778 70.7723 4.86272 69.9281 5.36926L69.9668 5.36574ZM42.4835 20.3509V13.4915C42.4835 13.2101 42.5714 12.9463 42.7156 12.7176L30.0592 5.36574C29.1903 4.86272 28.4762 5.2778 28.4762 6.28737V27.7801C28.4762 28.8002 29.1868 29.1872 30.0592 28.6947L42.8458 21.2725C42.6171 20.9911 42.48 20.6745 42.48 20.3227L42.4835 20.3509Z" fill="black"/>
<path fill-rule="evenodd" clip-rule="evenodd" d="M48.8461 97.7938H49.3175C38.3776 58.4315 38.6942 58.2556 30.7936 30.1954L28.8941 31.3C27.8599 31.898 27.0121 31.4055 27.0121 30.2095V16.8319C24.9051 9.43433 23.2518 3.72169 22.7593 1.99805H14.2115L0.00022316 15.2701L9.33955 23.3958L2.2691 31.0854L48.8426 97.7798L48.8461 97.7938Z" fill="black"/>
<path d="M49.651 35.1872C51.5588 35.1872 53.1053 33.6312 53.1053 31.7118C53.1053 29.7923 51.5588 28.2363 49.651 28.2363C47.7432 28.2363 46.1967 29.7923 46.1967 31.7118C46.1967 33.6312 47.7432 35.1872 49.651 35.1872Z" fill="black"/>
<path d="M49.651 55.86C51.5588 55.86 53.1053 54.304 53.1053 52.3846C53.1053 50.4652 51.5588 48.9092 49.651 48.9092C47.7432 48.9092 46.1967 50.4652 46.1967 52.3846C46.1967 54.304 47.7432 55.86 49.651 55.86Z" fill="black"/>
<path d="M49.651 76.5329C51.5588 76.5329 53.1053 74.9769 53.1053 73.0575C53.1053 71.138 51.5588 69.582 49.651 69.582C47.7432 69.582 46.1967 71.138 46.1967 73.0575C46.1967 74.9769 47.7432 76.5329 49.651 76.5329Z" fill="black"/>
</svg>
