<svg width="100" height="100" viewBox="0 0 100 100" fill="none" xmlns="http://www.w3.org/2000/svg">
<path d="M16.1094 66.7118C18.6484 63.6727 18.9531 60.5321 16.9844 54.7039C15.7422 51.0164 13.6719 48.1727 15.1875 45.8836C16.8047 43.4383 20.2422 45.8055 17.3828 49.0711L17.9531 49.4696C21.3906 49.868 23.0859 45.1571 20.5156 43.8133C13.7422 40.2743 7.81248 47.0789 10.4297 54.9539C11.5547 58.2899 13.1172 61.8289 11.8515 64.6493C10.7578 67.0633 8.64061 68.4852 7.21873 68.5555C4.24998 68.6805 6.24998 61.8758 9.6328 60.1571C9.92967 60.0086 10.3515 59.8055 9.95311 59.3133C5.74217 58.8368 3.27342 60.7821 1.85936 63.5008C-2.27345 71.4227 9.71092 74.3368 16.1094 66.7118ZM90.1094 43.493C91.0781 45.8836 92.5547 48.2508 91.6719 50.3446C90.9531 52.1415 90 52.8836 88.9531 53.0633C87.4844 53.3133 87.8828 48.7039 90.3984 47.3368C90.625 47.2118 90.9453 46.618 90.6484 46.2664C87.4609 46.0946 85.6641 47.6102 84.6953 49.6336C81.8828 55.5399 91.0703 57.1571 95.5859 51.3524C97.3828 49.0086 97.4531 46.743 95.7344 42.5789C94.6406 39.9383 92.9687 37.9696 94.0156 36.2274C95.0625 34.4852 97.8281 35.9774 95.8125 38.4461L96.2578 38.6961C98.875 38.8446 99.9453 35.3602 97.9531 34.4852C92.6953 32.2274 87.7891 37.8836 90.1094 43.493Z" fill="#333333"/>
<path d="M56.8202 37.1882C54.9999 35.7429 49.8983 38.157 48.4374 41.7507C46.617 46.3132 43.9295 52.9617 41.2889 55.8757C38.4999 58.9382 38.2264 56.5711 38.4999 54.8054C39.1483 50.6414 43.1874 41.0007 45.4295 38.2898C44.6092 37.0711 39.2264 37.2429 35.492 43.0476C34.1014 45.2351 30.9139 52.532 27.3436 58.2898C26.5624 59.532 25.6014 58.6648 26.3436 55.7508C27.1874 52.3836 29.6795 43.1414 32.8983 35.8679C41.3202 34.1961 50.2655 33.0242 57.117 33.0008C58.0389 32.7508 58.6795 31.9304 57.117 31.8758C51.2108 31.6726 42.3436 32.3758 34.0467 33.4383C35.6092 30.2508 37.3592 27.7117 39.1014 26.6336C37.2108 25.4383 33.3749 25.9148 31.1795 29.1492C30.1096 30.7775 29.1517 32.4768 28.3124 34.2351C22.2655 35.157 17.0624 36.2429 14.4217 37.2351C11.7811 38.2273 11.9764 41.5945 13.6405 40.9695C18.0065 39.4132 22.4658 38.132 26.992 37.1336C23.6874 44.6101 21.0936 53.4304 20.4686 57.032C18.9061 65.7508 24.328 65.7039 26.9686 62.2664C29.8436 58.4929 35.8202 45.2586 36.7186 43.8679C36.992 43.3914 37.367 43.6414 37.1639 44.0711C30.4842 57.3992 31.0624 62.5554 36.4686 61.4148C38.9139 60.8914 43.117 56.7273 44.2186 54.5398C44.4452 54.0164 44.9139 54.0632 44.8202 54.2898C40.6249 65.2664 35.2186 74.157 31.6092 76.9539C28.3202 79.4695 25.8827 74.0164 37.5155 66.1883C39.2342 65.0164 38.4374 63.4226 36.492 63.9695C30.4686 64.9148 13.2811 70.3758 5.74986 75.6023C5.17955 76.0008 4.65611 76.3211 4.67955 77.1648C4.67955 77.6414 5.5233 77.4617 5.92173 77.2117C15.6874 71.3601 23.6874 69.0632 32.8514 67.1492C32.9795 67.1993 33.1218 67.1993 33.2499 67.1492C33.6717 67.0476 33.6483 67.2742 33.3749 67.4461C32.7499 67.7976 32.1327 68.1179 31.9764 68.1648C25.7967 70.5789 22.0624 75.9148 23.3827 78.6258C24.5077 80.9695 30.5545 80.1179 33.4217 78.5789C40.453 74.7664 45.5545 67.2898 49.0467 56.9773C52.0858 47.8523 55.9217 37.5007 56.8202 37.1882ZM97.6561 58.2898C86.2186 56.7976 61.5545 58.7898 50.6639 61.6804C47.4217 62.5242 48.3202 64.2429 49.9686 63.9226L50.7499 63.7507C59.6952 62.0086 81.3983 60.4851 94.0545 62.907C95.5389 63.1726 100.101 58.5945 97.6561 58.2898ZM60.0077 56.9461C63.203 55.3523 67.9686 45.4851 71.0467 40.0789C71.2733 39.6804 71.6717 40.0008 71.4452 40.282C63.5702 53.8367 66.9139 55.407 70.0233 55.2039C74.2186 54.9539 78.0233 48.9695 78.9061 47.657C79.2577 47.1336 79.453 47.5554 79.2577 47.9304C79.0545 48.5554 78.3358 49.6492 77.6952 51.1414C76.7499 53.2586 77.742 54.0789 78.5702 54.4539C79.867 55.0789 83.4061 54.6804 83.953 52.5086C80.4139 52.4304 88.8827 35.7429 89.7577 34.7195C87.4139 33.3523 83.7264 34.8445 82.0624 38.1336C78.4999 45.1648 75.5077 50.8679 73.6405 50.9617C69.9999 51.1648 77.828 35.2429 79.1092 34.7429C78.328 33.6179 73.3827 34.0945 70.617 38.3836C69.617 39.9461 63.5389 50.6882 62.0233 52.4461C59.3827 55.5711 59.1795 52.8914 59.9295 49.7586C60.2609 48.4164 60.6678 47.0939 61.1483 45.7976C62.8905 41.8914 64.7577 40.6179 65.9061 39.3445C73.6014 30.7976 78.0155 23.8758 76.2733 21.157C74.7108 18.7429 69.5702 19.8133 66.2577 24.7976C60.1561 33.9383 54.5389 46.4695 53.7967 52.2039C53.0545 57.9383 57.1952 58.3367 60.0077 56.9461ZM63.2811 40.1804C63.5545 39.5554 63.7264 39.3992 64.203 38.3367C66.9139 32.3054 70.3124 25.9539 72.7186 22.9851C74.1874 21.4226 76.2577 23.532 72.5155 29.2351C70.3734 32.5619 67.8942 35.659 65.117 38.4773C64.4217 39.2586 63.7967 39.8992 63.5545 40.2742C63.328 40.5789 63.1014 40.5242 63.2811 40.1804Z" fill="#333333"/>
</svg>
