<svg width="100" height="100" viewBox="0 0 100 100" fill="none" xmlns="http://www.w3.org/2000/svg">
<g clip-path="url(#clip0_867_13991)">
<path d="M96.128 99.9766H3.87198C1.74575 99.9766 0 98.2309 0 96.1047V3.871C0 1.74477 1.74575 -0.000976562 3.87198 -0.000976562H96.128C98.2542 -0.000976562 100 1.74477 100 3.871V96.127C99.9776 98.2533 98.2542 99.9766 96.128 99.9766Z" fill="#4D4D4E"/>
<path d="M23.0529 30.1914L75.3805 13.5844C75.3805 13.5844 79.0958 11.6372 78.2006 15.2406L78.3349 31.2433C78.3349 31.2433 78.9839 33.5933 75.761 34.1753L54.4987 40.8225L23.0529 30.1914Z" fill="#F89820"/>
<path d="M23.0528 30.1914C23.0528 30.1914 20.9937 30.6838 21.598 34.1977L21.4861 49.6184C21.4861 49.6184 21.3071 51.5656 25 52.349L76.8577 69.0455C76.8577 69.0455 78.6034 69.7393 78.402 67.5907L78.4244 50.4018C78.4244 50.4018 78.9168 48.6337 75.6938 47.4698L54.4987 40.8226L23.0528 30.1914Z" fill="#F89820"/>
<path d="M45.9043 59.0635L23.8362 65.8003C23.8362 65.8003 21.1729 65.8898 21.4862 70.8808C21.7995 75.8719 21.4638 85.9211 21.4638 85.9211C21.4638 85.9211 21.6876 87.7788 24.2391 86.7045L76.5668 70.008C76.5668 70.008 78.4244 69.538 76.8577 69.0232C75.291 68.5308 45.9043 59.0635 45.9043 59.0635Z" fill="url(#paint0_linear_867_13991)"/>
</g>
<defs>
<linearGradient id="paint0_linear_867_13991" x1="24.5251" y1="76.7757" x2="77.4578" y2="58.4614" gradientUnits="userSpaceOnUse">
<stop offset="0.233" stop-color="#F89822"/>
<stop offset="1" stop-color="#C27818"/>
</linearGradient>
<clipPath id="clip0_867_13991">
<rect width="100" height="100" fill="white"/>
</clipPath>
</defs>
</svg>
