<svg width="100" height="100" viewBox="0 0 100 100" fill="none" xmlns="http://www.w3.org/2000/svg">
<path d="M0 13.2812V39.5109C13.5164 33.8836 31.5734 28.2289 54.3 22.5187C68.8633 18.8687 82.9375 15.7992 96.5305 13.2812H0ZM100 18.875C86.8227 20.8312 75.0031 23.1383 64.6023 25.7414C52.6945 28.732 43.1086 31.7563 35.8578 34.8391C28.5977 37.8664 25.2258 40.3141 25.6984 42.2031C26.1258 43.8664 29.1656 44.6234 34.832 44.4672C37.7461 44.4125 42.4703 44.0922 49.0258 43.5117L74.407 40.9969C84.6766 39.9383 93.1813 39.2211 99.9992 38.8023L100 18.875ZM70.7242 52.1484C67.8102 52.1852 63.7938 52.4078 58.6547 52.7859C53.4969 53.1703 47.1156 53.7289 39.468 54.5195L9.87578 57.4219C6.11328 57.7391 2.84766 57.9375 0 58.0961V79.3695C15.5766 77.093 29.6664 74.3766 42.2305 71.2273C54.5719 68.1359 64.0594 65.118 70.725 62.2C77.4023 59.2828 80.518 56.8078 79.9992 54.8023C79.5656 53.0719 76.4375 52.193 70.725 52.1477L70.7242 52.1484ZM100 59.6164C86.3125 64.9781 69.3234 70.2398 49.0266 75.3359C30.1297 80.0719 13.8063 83.4625 0 85.5648V85.7422H100V59.6164ZM4.17812 64.0781C4.22734 64.0719 4.26641 64.0781 4.31875 64.0781C4.57812 64.0875 4.85313 64.1664 5.02656 64.3617C5.16591 64.5116 5.25464 64.7015 5.28022 64.9046C5.30579 65.1077 5.26691 65.3136 5.16908 65.4934C5.07125 65.6732 4.91941 65.8177 4.735 65.9065C4.5506 65.9953 4.34296 66.0239 4.14141 65.9883C3.65938 65.918 3.28672 65.4453 3.32656 64.9633C3.34219 64.5086 3.72656 64.1336 4.17812 64.0781ZM7.71797 64.0781C7.94375 64.0875 8.15156 64.1328 8.31953 64.2914C8.47465 64.422 8.58529 64.5975 8.63611 64.7938C8.68693 64.9901 8.6754 65.1973 8.60312 65.3867C8.45703 65.7742 8.06328 66.0609 7.64453 66.0242C7.2875 66.0086 6.93672 65.7859 6.79609 65.4562C6.60078 65.0289 6.75938 64.4523 7.18672 64.2172C7.34531 64.1227 7.53125 64.0734 7.71797 64.0766V64.0781ZM4.31797 70.3438C4.73906 70.3312 5.11719 70.6273 5.23984 71.0148C5.36797 71.4484 5.16328 71.9945 4.74219 72.1836C4.32109 72.3945 3.76875 72.2633 3.50313 71.8664C3.23438 71.4789 3.27109 70.8961 3.64688 70.5906C3.82969 70.4289 4.07422 70.3375 4.31797 70.3438ZM7.71797 70.3438C8.05391 70.3258 8.35 70.5391 8.52969 70.8047C8.65481 71.0094 8.69886 71.2534 8.65318 71.4889C8.6075 71.7244 8.47539 71.9343 8.28281 72.0773C7.88281 72.3828 7.25781 72.3305 6.93672 71.9367C6.60703 71.543 6.63125 70.875 7.04375 70.557C7.22344 70.4078 7.48359 70.3375 7.71797 70.3438Z" fill="#809CC8"/>
</svg>
