<svg width="100" height="100" viewBox="0 0 100 100" fill="none" xmlns="http://www.w3.org/2000/svg">
<g clip-path="url(#clip0_1085_4226)">
<path d="M68.14 12.8142C67.7657 12.7876 67.3898 12.8362 67.0346 12.9572L2.14706 33.4392C0.400184 33.9392 -0.346691 35.6868 0.152528 37.1868L12.6291 71.6579C13.1291 73.1564 15.126 74.9048 16.6236 75.1548L75.5221 87.1447C77.2697 87.3947 79.265 86.6486 80.2635 85.1501L99.4807 55.1736C100.479 53.6743 99.9807 51.9236 98.483 50.9251L75.0221 34.6908C73.5244 33.6923 72.2799 31.6908 72.0299 29.9423L70.2814 14.9556C70.0939 13.6447 69.2041 12.8954 68.14 12.8142ZM60.6228 20.0509C61.4533 20.1095 61.5447 20.7634 60.7955 21.6993L46.0728 39.9368C45.0752 41.1861 42.8291 42.1853 41.0822 41.6853L13.6267 36.1892C11.8799 35.9392 11.8799 35.1908 13.6267 34.6915L59.5486 20.2017C59.9846 20.0767 60.3455 20.0314 60.6228 20.0509ZM65.8728 22.1618C66.4314 22.0618 66.8783 22.5118 67.0346 23.4486L72.5267 74.4079C72.776 76.1564 72.0267 76.4033 71.0283 74.904L49.8166 47.1775C48.8182 45.9283 48.8182 43.6814 49.8166 42.4322L64.7892 22.9478C65.1642 22.479 65.5385 22.2212 65.8728 22.1618ZM8.02753 39.1509C8.21503 39.1436 8.41789 39.1553 8.63612 39.1861L40.8314 45.9298C42.5783 46.1798 44.8244 47.6767 45.8228 48.9259L69.0338 79.1525C70.0322 80.4025 69.533 81.4009 67.7861 80.9017L20.1166 71.4072C18.3689 71.1572 16.6221 69.4087 16.1228 67.9103L6.64081 41.4353C6.20331 40.1236 6.7205 39.1954 8.02753 39.1509ZM74.3353 39.9283C74.7174 39.8947 75.2119 40.0587 75.7728 40.4337L92.7416 52.1767C94.2385 53.1767 94.4916 55.172 93.7424 56.4212L79.5158 78.4017C78.5182 79.9001 77.7674 79.6533 77.5174 77.9048L73.5236 41.6868C73.3674 40.5931 73.6994 39.9853 74.3361 39.929L74.3353 39.9283Z" fill="#112A46"/>
</g>
<defs>
<clipPath id="clip0_1085_4226">
<rect width="100" height="100" fill="white"/>
</clipPath>
</defs>
</svg>
