<svg width="100" height="100" viewBox="0 0 100 100" fill="none" xmlns="http://www.w3.org/2000/svg">
<g clip-path="url(#clip0_867_13950)">
<path d="M57.8941 98.3375C55.3395 101.555 50.1596 99.7919 50.0981 95.6841L49.198 35.6021H89.5971C96.9144 35.6021 100.995 44.0537 96.4454 49.7844L57.8941 98.3375Z" fill="url(#paint0_linear_867_13950)"/>
<path d="M57.8941 98.3375C55.3395 101.555 50.1596 99.7919 50.0981 95.6841L49.198 35.6021H89.5971C96.9144 35.6021 100.995 44.0537 96.4454 49.7844L57.8941 98.3375Z" fill="url(#paint1_linear_867_13950)" fill-opacity="0.2"/>
<path d="M41.464 1.6606C44.0187 -1.55687 49.1986 0.206073 49.2601 4.31396L49.6546 64.3959H9.76106C2.44348 64.3959 -1.63767 55.9443 2.91262 50.2135L41.464 1.6606Z" fill="#3ECF8E"/>
</g>
<defs>
<linearGradient id="paint0_linear_867_13950" x1="49.198" y1="48.9237" x2="85.1033" y2="63.9824" gradientUnits="userSpaceOnUse">
<stop stop-color="#249361"/>
<stop offset="1" stop-color="#3ECF8E"/>
</linearGradient>
<linearGradient id="paint1_linear_867_13950" x1="33.2795" y1="27.1285" x2="49.6542" y2="57.9529" gradientUnits="userSpaceOnUse">
<stop/>
<stop offset="1" stop-opacity="0"/>
</linearGradient>
<clipPath id="clip0_867_13950">
<rect width="100" height="100" fill="white"/>
</clipPath>
</defs>
</svg>
