<svg width="100" height="100" viewBox="0 0 100 100" fill="none" xmlns="http://www.w3.org/2000/svg">
<path d="M49.9998 26.3086L73.8084 39.4937V34.2078L49.9998 21.0531C42.0658 25.4419 34.1296 29.8268 26.1912 34.2078C29.1201 35.8305 59.8787 52.8219 78.574 63.1492V68.4148C76.0334 69.8234 49.9998 84.2031 49.9998 84.2031C40.4717 78.9467 30.9469 73.6842 21.4256 68.4156V52.6281L49.9998 68.4141L54.7654 65.7812L16.6599 44.7383V71.0578L49.9998 89.468C53.2857 87.6516 80.9006 72.3953 83.3295 71.0484V60.5266L35.7123 34.2078L49.9998 26.3086ZM16.6599 28.9414V39.4734L64.2771 65.7922L49.9896 73.6906L26.181 60.5062V65.7922L49.9896 78.9469C53.531 76.9875 70.6451 67.5273 73.7982 65.7922C70.8685 64.1695 40.1209 47.1781 21.4256 36.8406V31.575C23.9662 30.1664 49.9998 15.7875 49.9998 15.7875C57.1131 19.7266 71.4506 27.6453 78.574 31.575V47.3617L49.9998 31.575L45.2342 34.2078L83.3295 55.2609V28.9414L49.9998 10.5211C38.89 16.6676 27.7767 22.8077 16.6599 28.9414ZM49.9998 0L7.13806 23.6859V76.3141L49.9998 100L92.8615 76.3242V23.6859L49.9998 0ZM88.0857 73.6812L49.9998 94.7344L11.9037 73.6812V26.3188L49.9998 5.26562L88.0959 26.3188L88.0857 73.6812Z" fill="url(#paint0_linear_1085_4232)"/>
<defs>
<linearGradient id="paint0_linear_1085_4232" x1="27.8907" y1="11.7049" x2="72.1159" y2="88.3052" gradientUnits="userSpaceOnUse">
<stop stop-color="#FF00A0"/>
<stop offset="1" stop-color="#9600FF"/>
</linearGradient>
</defs>
</svg>
