<svg width="100" height="100" viewBox="0 0 100 100" fill="none" xmlns="http://www.w3.org/2000/svg">
<path d="M85.9509 13.2308C76.6601 -0.0593668 58.3089 -3.99868 45.0421 4.45082L21.7434 19.295C20.176 20.2799 18.7138 21.4249 17.3835 22.7119C16.0514 23.9988 14.858 25.421 13.8214 26.955C12.7848 28.489 11.9101 30.1265 11.2108 31.8408C10.5131 33.5558 9.99506 35.3386 9.66507 37.1605C9.38966 38.6878 9.23943 40.2368 9.2194 41.7892C9.1977 43.3432 9.3062 44.8956 9.54155 46.4296C9.77691 47.9652 10.1391 49.4792 10.6232 50.9548C11.1073 52.4304 11.7132 53.8625 12.4343 55.238C11.9382 55.9918 11.4803 56.7701 11.0622 57.5698C10.6432 58.3694 10.266 59.1906 9.93048 60.0286C9.59497 60.8665 9.30286 61.7211 9.05415 62.5891C8.80544 63.4571 8.60179 64.3368 8.44155 65.2248C7.77571 68.9591 7.86368 72.7888 8.70028 76.4886C9.11758 78.333 9.71682 80.1324 10.4913 81.8584C11.2658 83.5844 12.2089 85.2302 13.3106 86.7692C22.6014 100.059 40.9509 103.999 54.2177 95.5492L77.5164 80.7667C79.0838 79.7802 80.5427 78.6335 81.873 77.3449C83.2032 76.0573 84.3964 74.6353 85.4334 73.1018C86.47 71.5694 87.3447 69.9319 88.0441 68.2177C88.7435 66.5051 89.2626 64.7224 89.5948 62.9013C89.8702 61.3739 90.0187 59.8266 90.0388 58.2742C90.0588 56.7219 89.9503 55.1695 89.7133 53.6355C89.4779 52.1015 89.1157 50.5892 88.63 49.1137C88.1442 47.6398 87.5383 46.2076 86.8172 44.8322C87.313 44.0793 87.772 43.2998 88.191 42.5003C88.6083 41.7007 88.9872 40.8795 89.3227 40.0415C89.6582 39.2036 89.952 38.349 90.2023 37.481C90.4511 36.6147 90.658 35.735 90.8199 34.847C91.1505 32.9842 91.294 31.0929 91.2506 29.2017C91.2072 27.3105 90.9752 25.4293 90.5579 23.5832C90.1406 21.7387 89.5413 19.9393 88.7668 18.2134C87.9933 16.4871 87.05 14.8421 85.9509 13.3026" fill="#FF3E00"/>
<path d="M42.7655 88.0545C40.942 88.5282 39.0569 88.7207 37.1753 88.6254C35.2941 88.5286 33.438 88.148 31.672 87.492C29.9059 86.837 28.25 85.9167 26.7612 84.7628C25.2736 83.6082 23.9706 82.2337 22.897 80.6866C22.2343 79.7602 21.6668 78.7721 21.2027 77.7338C20.7374 76.6963 20.3767 75.6148 20.1261 74.5056C19.8774 73.3956 19.7372 72.2638 19.7122 71.1271C19.6871 69.9904 19.7756 68.8537 19.9759 67.7336C20.0076 67.5517 20.0443 67.3697 20.0844 67.1895C20.1228 67.0075 20.1662 66.8273 20.2129 66.6487C20.258 66.4684 20.3081 66.2898 20.3615 66.1112C20.4132 65.9342 20.47 65.7573 20.5284 65.582L20.9674 64.2417L22.1642 65.1347C22.8502 65.6354 23.558 66.1078 24.2841 66.5485C25.0102 66.9908 25.7547 67.4015 26.5158 67.7787C27.2753 68.1576 28.0531 68.5048 28.8427 68.8169C29.6322 69.1308 30.4351 69.4095 31.2497 69.6549L32.1427 69.9136L32.0626 70.8066C32.0195 71.4144 32.0828 72.025 32.2495 72.611C32.3313 72.9048 32.4398 73.1886 32.5717 73.4623C32.7035 73.7361 32.8588 73.9981 33.0357 74.2452C33.3599 74.7112 33.7534 75.1249 34.2025 75.4721C34.6498 75.8192 35.1489 76.0963 35.6814 76.2933C36.2139 76.4903 36.7714 76.6038 37.3389 76.6321C37.9048 76.6622 38.4723 76.6038 39.0214 76.4602C39.1483 76.4268 39.2718 76.3885 39.3953 76.345C39.5189 76.3017 39.6407 76.2549 39.7592 76.2015C39.8794 76.1497 39.9963 76.093 40.1131 76.0312C40.2283 75.9711 40.3401 75.906 40.4503 75.8359L63.7139 60.9901C63.9991 60.8112 64.2648 60.6031 64.5068 60.3691C64.7488 60.1338 64.9641 59.875 65.1528 59.5963C65.3414 59.3175 65.4983 59.0187 65.6251 58.7066C65.7503 58.3944 65.8438 58.0706 65.9039 57.7401C65.9623 57.4013 65.9874 57.0591 65.979 56.7152C65.9707 56.373 65.9273 56.0325 65.8505 55.697C65.7754 55.3632 65.6652 55.0377 65.5233 54.7239C65.3831 54.4117 65.2095 54.1146 65.0092 53.8359C64.6854 53.3701 64.2931 52.9579 63.8441 52.6107C63.3951 52.2635 62.896 51.9864 62.3652 51.7894C61.8332 51.5924 61.2743 51.4776 60.7077 51.4489C60.1402 51.4205 59.5726 51.4789 59.0235 51.6208C58.8983 51.6542 58.7731 51.6926 58.6496 51.736C58.526 51.7794 58.4059 51.8261 58.2857 51.8779C58.1655 51.9313 58.0487 51.988 57.9335 52.0498C57.8183 52.1099 57.7048 52.1767 57.5946 52.2468L48.6611 57.9187C48.2972 58.1491 47.9233 58.3661 47.5427 58.5697C47.1605 58.7717 46.7732 58.9603 46.3776 59.1339C45.982 59.3075 45.5797 59.4661 45.1724 59.608C44.7652 59.7515 44.3529 59.8784 43.9356 59.9902C42.1145 60.4609 40.2333 60.6512 38.3554 60.5544C36.4776 60.4576 34.6264 60.0753 32.8638 59.4227C31.1011 58.7683 29.4486 57.8486 27.963 56.6969C26.4774 55.5451 25.1754 54.1747 24.1021 52.6307C23.4428 51.7043 22.877 50.7144 22.4146 49.6762C21.9505 48.638 21.5917 47.5563 21.343 46.448C21.0942 45.3379 20.9574 44.2062 20.934 43.0695C20.909 41.9344 20.9974 40.7977 21.1994 39.6794C21.594 37.4774 22.4434 35.382 23.6932 33.5267C24.9439 31.6714 26.5682 30.0977 28.4621 28.9063L51.7975 14.0621C52.1597 13.8318 52.5303 13.6148 52.9092 13.4111C53.2881 13.2091 53.6754 13.0205 54.0676 12.8469C54.4607 12.6733 54.8605 12.5151 55.2661 12.3729C55.67 12.2293 56.0807 12.1008 56.4963 11.989C58.3191 11.5166 60.2036 11.3229 62.0831 11.4181C63.9643 11.5149 65.8188 11.8955 67.5848 12.5515C69.3508 13.2058 71.005 14.1272 72.4939 15.2806C73.981 16.4359 75.2834 17.811 76.3564 19.3585C77.0174 20.2832 77.5866 21.2714 78.0523 22.3096C78.518 23.3479 78.8786 24.4278 79.1306 25.5379C79.381 26.6479 79.5212 27.7796 79.5463 28.9163C79.573 30.0531 79.4862 31.1898 79.2859 32.3098C79.2508 32.4934 79.2141 32.677 79.1724 32.859C79.1323 33.0409 79.0889 33.2229 79.0422 33.4032C78.9971 33.5851 78.947 33.7654 78.8953 33.944C78.8435 34.1242 78.7901 34.3029 78.7317 34.4798L78.286 35.8202L77.0975 34.9271C76.4098 34.4214 75.7004 33.9473 74.9727 33.5016C74.2449 33.0576 73.4971 32.6437 72.7343 32.2614C71.2071 31.4996 69.6185 30.8675 67.9854 30.3719L67.0907 30.1132L67.1725 29.2201C67.1975 28.9147 67.1959 28.6075 67.1675 28.3037C67.1408 27.9999 67.0857 27.6978 67.0056 27.4024C66.9238 27.1086 66.8186 26.8198 66.6868 26.5444C66.5566 26.2673 66.4013 26.0036 66.2244 25.7532C65.8987 25.2957 65.5053 24.8905 65.0576 24.5514C64.6106 24.2107 64.1141 23.9405 63.5854 23.7502C62.5229 23.3647 61.3681 23.3129 60.2754 23.6016C60.1485 23.635 60.0233 23.6734 59.9015 23.7151C59.7779 23.7585 59.6561 23.8069 59.5359 23.8587C59.4174 23.9104 59.2989 23.9688 59.1837 24.0289C59.0685 24.0907 58.955 24.1558 58.8449 24.2259L35.5378 39.0451C35.2541 39.2237 34.9887 39.4323 34.7483 39.666C34.5079 39.8997 34.2909 40.1584 34.1023 40.4355C33.9153 40.7142 33.757 41.0112 33.6299 41.3218C33.5031 41.634 33.4096 41.9561 33.3495 42.2866C33.2911 42.6255 33.266 42.9693 33.2744 43.3132C33.2944 44.0015 33.4492 44.6792 33.7301 45.3079C33.8717 45.6209 34.0433 45.9194 34.2425 46.1993C34.5647 46.66 34.9553 47.0706 35.401 47.4144C35.8457 47.7599 36.3405 48.0357 36.8682 48.2323C37.9294 48.6269 39.0852 48.6903 40.1832 48.4143C40.3084 48.3792 40.4336 48.3408 40.5571 48.2974C40.679 48.254 40.8008 48.2056 40.921 48.1539C41.0406 48.1019 41.1581 48.0451 41.2732 47.9836C41.3884 47.9235 41.5019 47.8584 41.612 47.7883L50.5456 42.1264C50.9112 41.8927 51.2834 41.6724 51.6656 41.4687C52.0462 41.2634 52.4351 41.0748 52.8324 40.8995C53.2284 40.7259 53.6309 40.5677 54.0392 40.4255C54.4482 40.2819 54.8621 40.1551 55.2811 40.0449C57.1039 39.5709 58.9867 39.3772 60.8679 39.4707C62.7491 39.5658 64.6036 39.9464 66.3696 40.6008C68.1339 41.2551 69.7898 42.1748 71.2771 43.3299C72.766 44.4833 74.068 45.8571 75.1412 47.4044C75.8022 48.3308 76.3698 49.319 76.8355 50.3572C77.3012 51.3949 77.6624 52.4763 77.9138 53.5855C78.1642 54.6938 78.3044 55.8255 78.3311 56.9623C78.3578 58.1007 78.2693 59.2374 78.0707 60.3558C77.8739 61.4538 77.5634 62.5284 77.1443 63.5623C76.7255 64.5964 76.1996 65.5838 75.5752 66.5084C74.9526 67.4332 74.2349 68.2911 73.4337 69.0673C72.6324 69.8435 71.7528 70.5346 70.808 71.1288L47.4993 85.973C47.1338 86.205 46.7599 86.4237 46.3793 86.6273C45.997 86.831 45.6081 87.0196 45.2108 87.1932C44.8152 87.3685 44.413 87.527 44.004 87.6706C43.5967 87.8141 43.1828 87.9427 42.7655 88.0545Z" fill="white"/>
</svg>
