<svg width="100" height="100" viewBox="0 0 100 100" fill="none" xmlns="http://www.w3.org/2000/svg">
<g clip-path="url(#clip0_1085_4237)">
<path d="M91.5351 39.8781C90.4163 35.681 88.672 31.6763 86.3609 27.9984C88.0757 25.5844 89.7203 23.1141 91.2453 20.4984L79.4664 8.75469C76.7867 10.325 74.246 12.0242 71.7617 13.7992C68.1803 11.6652 64.3059 10.0668 60.2617 9.05469C59.7617 6.05469 59.1468 3.01953 58.357 0H41.6679C40.8882 2.96016 40.3031 5.91953 39.8031 8.87969C35.6397 9.84799 31.6442 11.4321 27.9484 13.5797C25.564 11.8844 23.1187 10.2547 20.5437 8.75469L8.75933 20.5344C10.1796 22.9586 11.7046 25.2734 13.289 27.5336C10.8071 31.3654 8.95059 35.5677 7.78901 39.9828C5.17386 40.4438 2.57719 41.0041 0.00463867 41.6625V58.332C2.41948 58.9617 4.82495 59.4727 7.23901 59.9117C8.23294 64.7108 10.0391 69.305 12.5796 73.4961C11.2283 75.4334 9.95386 77.4232 8.75933 79.4609L20.5437 91.2453C22.5437 90.0852 24.439 88.8555 26.2984 87.5758C30.5609 90.3128 35.273 92.276 40.2179 93.375C40.6219 95.6 41.1055 97.8097 41.6679 100H58.3375C58.9273 97.7352 59.407 95.475 59.8375 93.2055C64.6654 92.0522 69.2564 90.0697 73.4062 87.3461C75.371 88.7055 77.4062 90.0203 79.4765 91.2453L91.2554 79.4609C89.9453 77.2266 88.5359 75.0813 87.0703 72.9609C89.4257 68.9414 91.1143 64.5667 92.0703 60.007C94.7109 59.5422 97.3554 59.007 99.9953 58.3172V41.6625C97.1804 40.9328 94.3546 40.3578 91.5351 39.8781ZM62.3164 79.9211C58.418 81.6318 54.2134 82.5346 49.9564 82.5749C45.6994 82.6151 41.4784 81.7921 37.5484 80.1555C37.5529 80.1341 37.5529 80.112 37.5484 80.0906C37.5484 80.0906 37.5484 80.1211 37.5078 80.1258C33.6086 78.4865 30.0778 76.0816 27.1245 73.0536C24.1712 70.0255 21.8554 66.4358 20.314 62.4969C20.2593 62.3563 20.1992 62.2172 20.1539 62.0766C17.3109 54.4592 17.5313 46.0364 20.7687 38.5781C20.9484 38.1484 21.1437 37.7281 21.3539 37.3078C24.6808 30.5031 30.333 25.1136 37.2882 22.1141C37.9795 21.8165 38.6815 21.5447 39.3929 21.2992C42.6984 20.1593 46.1706 19.5779 49.6671 19.5789C53.3505 19.5762 57.0052 20.2264 60.4617 21.4992C61.2476 21.7863 62.0216 22.1047 62.782 22.4539C69.3924 25.4935 74.7533 30.7183 77.9617 37.2484C78.2609 37.8531 78.5414 38.4781 78.8007 39.1078C81.7334 46.2466 81.9433 54.2136 79.3906 61.4969C79.2727 61.8472 79.1445 62.194 79.0062 62.5367C75.9764 70.2342 70.0539 76.44 62.5062 79.8258C62.4454 79.8618 62.3815 79.8936 62.3164 79.9211Z" fill="url(#paint0_linear_1085_4237)"/>
<path d="M72.3617 60.9066C72.135 59.7907 71.6114 58.7566 70.8462 57.9133C70.0809 57.07 69.1024 56.4488 68.0136 56.1151C66.9249 55.7814 65.7663 55.7476 64.6599 56.0172C63.5536 56.2869 62.5405 56.85 61.7274 57.6472L56.7274 53.9277C57.8029 52.0934 58.1649 49.9272 57.7444 47.8429C57.3239 45.7586 56.1502 43.9023 54.4477 42.6285L58.5024 35.6933C59.5154 35.9959 60.6043 35.9161 61.5623 35.4689C62.5203 35.0217 63.2808 34.2384 63.6995 33.2676C64.1181 32.2968 64.1658 31.206 63.8334 30.2024C63.501 29.1987 62.8116 28.3521 61.8962 27.8231C60.9808 27.2941 59.9031 27.1196 58.8675 27.3327C57.832 27.5459 56.9107 28.1318 56.2786 28.9792C55.6465 29.8267 55.3476 30.8768 55.4385 31.9301C55.5294 32.9834 56.0039 33.9667 56.7719 34.6933L52.7328 41.6285C50.7239 40.743 48.4529 40.6565 46.3824 41.3865C44.3119 42.1166 42.5975 43.6084 41.5883 45.5582L33.0031 42.1832V42.098C33.1007 41.1332 32.8444 40.1659 32.2821 39.3759C31.7197 38.586 30.8896 38.0272 29.946 37.8035C29.0025 37.5799 28.0098 37.7066 27.1527 38.1601C26.2956 38.6136 25.6324 39.363 25.2866 40.2689C24.9407 41.1748 24.9356 42.1755 25.2724 43.0848C25.6092 43.9941 26.2648 44.7502 27.1173 45.2123C27.9698 45.6744 28.9611 45.811 29.9069 45.5969C30.8526 45.3827 31.6884 44.8323 32.2586 44.048L40.8524 47.4175C40.4444 49.0162 40.5027 50.6983 41.0203 52.265C41.538 53.8316 42.4933 55.2173 43.7735 56.2582L39.7735 62.4925C38.5388 61.9969 37.1637 61.9796 35.9169 62.4439C34.6701 62.9083 33.6414 63.821 33.0318 65.0036C32.4222 66.1861 32.2757 67.5536 32.6207 68.8385C32.9658 70.1234 33.7777 71.2334 34.8976 71.9515C36.0176 72.6696 37.3652 72.9442 38.6769 72.7215C39.9885 72.4988 41.17 71.7949 41.9903 70.7474C42.8105 69.6999 43.2106 68.3842 43.1123 67.0574C43.014 65.7306 42.4243 64.4882 41.4586 63.573L45.4586 57.3433C47.1129 58.1519 48.982 58.4113 50.794 58.0839C52.6059 57.7565 54.2661 56.8593 55.5328 55.523L60.5328 59.2574C60.0675 60.1563 59.8245 61.1536 59.8242 62.1658C59.8239 63.178 60.0664 64.1755 60.5313 65.0746C60.9962 65.9737 61.6699 66.7482 62.4959 67.3331C63.322 67.9181 64.2762 68.2964 65.2787 68.4364C66.2812 68.5763 67.3026 68.4738 68.2572 68.1375C69.2119 67.8011 70.072 67.2408 70.7653 66.5033C71.4587 65.7659 71.9651 64.873 72.242 63.8994C72.519 62.9259 72.5584 61.9001 72.3571 60.9082L72.3617 60.9066Z" fill="url(#paint1_linear_1085_4237)"/>
</g>
<defs>
<linearGradient id="paint0_linear_1085_4237" x1="14.7489" y1="14.7393" x2="84.8557" y2="84.846" gradientUnits="userSpaceOnUse">
<stop stop-color="#45AFE4"/>
<stop offset="1" stop-color="#364F9E"/>
</linearGradient>
<linearGradient id="paint1_linear_1085_4237" x1="14.0291" y1="15.4596" x2="84.1358" y2="85.5664" gradientUnits="userSpaceOnUse">
<stop stop-color="#45AFE4"/>
<stop offset="1" stop-color="#364F9E"/>
</linearGradient>
<clipPath id="clip0_1085_4237">
<rect width="100" height="100" fill="white"/>
</clipPath>
</defs>
</svg>
