<svg width="100" height="100" viewBox="0 0 100 100" fill="none" xmlns="http://www.w3.org/2000/svg">
<g clip-path="url(#clip0_867_13930)">
<path d="M50.6168 97.2306C24.3612 97.2306 3 75.8714 3 49.6148C3 23.3583 24.3612 1.99902 50.6168 1.99902C76.8724 1.99902 98.2336 23.3603 98.2336 49.6158C98.2336 75.8714 76.8724 97.2306 50.6168 97.2306Z" fill="#85EA2D"/>
<path d="M49.9995 4.7654C74.9818 4.7654 95.2326 25.0163 95.2326 49.9985C95.2326 74.9798 74.9818 95.2316 49.9995 95.2316C25.0182 95.2316 4.76638 74.9798 4.76638 49.9985C4.76638 25.0173 25.0182 4.7654 49.9995 4.7654ZM49.9995 -0.000976562C22.4297 -0.000976562 0 22.4287 0 49.9985C0 77.5684 22.4297 99.998 49.9995 99.998C77.5693 99.998 100 77.5684 100 49.9985C100 22.4287 77.5693 -0.000976562 49.9995 -0.000976562Z" fill="#173647"/>
<path d="M31.9194 33.3876C31.7655 35.0987 31.9764 36.8677 31.8625 38.5978C31.7276 40.3288 31.5157 42.0399 31.1699 43.7509C30.6891 46.1926 29.17 48.0386 27.0751 49.5767C31.1519 52.2303 31.6126 56.344 31.8815 60.5167C32.0164 62.7665 31.9584 65.0352 32.1893 67.265C32.3622 68.9951 33.0348 69.4378 34.8238 69.4948C35.5544 69.5138 36.303 69.4948 37.1506 69.4948V74.8398C31.8635 75.7433 27.4989 74.2442 26.4215 69.7646C26.0747 68.1305 25.8438 66.4574 25.7678 64.7654C25.6519 62.9774 25.8438 61.1893 25.7099 59.4013C25.3251 54.498 24.6904 52.8449 20 52.6141V46.5194C20.3458 46.4425 20.6726 46.3845 21.0184 46.3465C23.595 46.2116 24.6904 45.423 25.2481 42.8854C25.518 41.4632 25.6719 40.021 25.7288 38.5598C25.9217 35.7723 25.8448 32.9269 26.3245 30.1584C26.9972 26.1786 29.4588 24.2557 33.5545 24.0248C34.7079 23.9668 35.8813 24.0248 37.2075 24.0248V29.4858C36.6498 29.5248 36.1691 29.6007 35.6694 29.6007C32.3432 29.4848 32.1693 30.6192 31.9194 33.3876ZM38.3219 46.0387H38.245C36.322 45.9427 34.6689 47.4419 34.572 49.3649C34.476 51.3068 35.9752 52.9609 37.8982 53.0558H38.129C40.033 53.1718 41.6661 51.7096 41.782 49.8066V49.6147C41.821 47.6728 40.2639 46.0777 38.3219 46.0387ZM50.3773 46.0387C48.5123 45.9807 46.9542 47.4419 46.8972 49.2879C46.8972 49.4038 46.8972 49.4998 46.9172 49.6147C46.9172 51.7106 48.3394 53.0568 50.4932 53.0568C52.6081 53.0568 53.9353 51.6726 53.9353 49.4998C53.9153 47.4039 52.5111 46.0197 50.3773 46.0387ZM62.7215 46.0387C60.7606 45.9997 59.1255 47.5578 59.0685 49.5188C59.0685 51.4797 60.6446 53.0558 62.6056 53.0558H62.6445C64.4136 53.3637 66.2016 51.6526 66.3175 49.5957C66.4125 47.6918 64.6824 46.0387 62.7215 46.0387ZM79.6602 46.3265C77.4294 46.2306 76.314 45.481 75.7573 43.3652C75.4105 42.0199 75.1996 40.6157 75.1227 39.2314C74.9688 36.6548 74.9878 34.0593 74.8148 31.4827C74.4111 25.369 69.9895 23.2352 63.567 24.2916V29.5987C64.5855 29.5987 65.374 29.5987 66.1626 29.6177C67.5279 29.6367 68.5663 30.1564 68.7002 31.6756C68.8351 33.0598 68.8351 34.463 68.9701 35.8673C69.2399 38.6557 69.3928 41.4812 69.8736 44.2307C70.2973 46.4994 71.8545 48.1915 73.7954 49.5757C70.3933 51.8635 69.3928 55.1317 69.2199 58.8047C69.124 61.3233 69.066 63.8609 68.9321 66.3995C68.8162 68.7062 68.0096 69.4558 65.6829 69.5138C65.0292 69.5328 64.3946 69.5907 63.664 69.6297V75.0707C65.0292 75.0707 66.2785 75.1477 67.5279 75.0707C71.4117 74.8398 73.7574 72.9559 74.527 69.1869C74.8538 67.1101 75.0457 65.0152 75.1037 62.9194C75.2376 60.9965 75.2196 59.0545 75.4115 57.1516C75.6994 54.1712 77.0646 52.9409 80.045 52.749C80.3338 52.71 80.6027 52.653 80.8725 52.5571V46.4614C80.3718 46.4035 80.025 46.3465 79.6602 46.3265Z" fill="#173647"/>
</g>
<defs>
<clipPath id="clip0_867_13930">
<rect width="100" height="100" fill="white"/>
</clipPath>
</defs>
</svg>
