<svg width="100" height="100" viewBox="0 0 100 100" fill="none" xmlns="http://www.w3.org/2000/svg">
<g clip-path="url(#clip0_1085_4246)">
<path d="M76.5015 8.08379C90.7601 16.8916 100.262 32.6627 100.262 50.6533C100.262 78.2674 77.8757 100.653 50.2617 100.653C44.4154 100.661 38.6134 99.6393 33.121 97.6361L32.5507 97.4236L33.4804 97.1244L34.6757 96.733L35.2656 96.5354L35.85 96.3385L37.0031 95.9408L38.1351 95.5408L39.2453 95.1385L40.3351 94.7338L40.8726 94.5299L41.9304 94.1205C43.0476 93.683 44.1291 93.2406 45.175 92.7932L45.9523 92.4565L46.9054 92.0338C47.319 91.8472 47.7313 91.6576 48.1421 91.465L48.7468 91.1791L49.6367 90.7471L50.0734 90.5307L50.5046 90.3127L51.3523 89.8752C58.4664 86.1439 63.2992 82.09 65.8656 77.6455C71.3031 68.2283 66.5539 58.165 52.9226 47.9057L51.8132 47.0744L51.1398 46.5572L50.4859 46.0447L49.8507 45.5354L49.2359 45.0307L48.9359 44.7799L48.6398 44.5299L48.0632 44.0322L47.6437 43.6619L47.2351 43.2932L46.707 42.8057L46.1976 42.3213L45.707 41.8416L45.4695 41.6033L45.2359 41.365L44.7835 40.8924C39.3953 35.1643 38.1921 30.2611 40.6382 26.0236C41.8835 23.8674 44.0421 21.7471 47.1101 19.6822L47.4828 19.4346L48.0695 19.0572C48.3351 18.89 48.6065 18.7229 48.8835 18.5557L49.3039 18.3057L49.9523 17.9322L50.6203 17.5604L51.1351 17.2822L51.6609 17.0049L52.3804 16.6361C52.941 16.3537 53.5053 16.0789 54.0734 15.8119L54.6609 15.5385L55.4617 15.176L55.8695 14.9947L56.7007 14.6354L57.1242 14.4557L57.9867 14.0971L58.4242 13.9189L59.3171 13.5635L59.771 13.3861L60.6945 13.033L61.6375 12.6814L62.1164 12.5072L63.0906 12.158L64.0843 11.8111L65.0992 11.4666L65.614 11.2947L66.6585 10.9525L67.7242 10.6119L68.8093 10.2736L69.9148 9.93691L71.0414 9.60254L72.4773 9.18691L73.9453 8.77441L75.7484 8.28379L76.5015 8.08379ZM50.2617 0.65332C56.3421 0.65332 62.1695 1.73926 67.5593 3.72598L68.1351 3.94238L67.7703 4.05332L65.989 4.60254L65.4062 4.78691L64.2554 5.15723L63.1257 5.53145L62.0171 5.90801L60.9296 6.2877L59.8632 6.67051L59.3375 6.8627L58.0468 7.34707L56.789 7.83691L55.8054 8.23145L55.3218 8.42988L54.3703 8.82988C44.646 12.9736 38.2734 17.6205 35.2265 22.8986C29.907 32.1119 34.732 42.0439 48.364 52.3002L49.4734 53.1322L50.1468 53.6494L50.8007 54.1627L51.121 54.4182L51.7453 54.926L52.2 55.3041L52.6453 55.6807L53.2203 56.1799L53.5015 56.4275L54.0476 56.9205C54.3455 57.1939 54.6346 57.4656 54.9148 57.7354L55.3289 58.1385L55.925 58.74L56.4914 59.3346C61.8562 65.1025 63.0031 70.1041 60.4539 74.5205C58.8039 77.3783 55.6539 80.1908 51.0117 82.9213L50.5851 83.1697L49.8945 83.5611L49.1835 83.951C48.7754 84.1711 48.3649 84.387 47.9523 84.5986L47.3156 84.9205L46.532 85.3064L45.7281 85.6908L44.9039 86.0744L44.4843 86.2658L43.6289 86.6463L42.7539 87.0268L41.8578 87.4049L41.4015 87.5939L40.475 87.9697L40.0039 88.1572L39.5273 88.3447L38.5593 88.7182L37.571 89.09L36.5625 89.4604L35.5328 89.8291L34.4835 90.1963L33.9507 90.3791L32.8703 90.7439L32.3218 90.9252L31.2109 91.2877L30.0789 91.6479L28.6359 92.0963L27.1601 92.5424L25.957 92.8963L24.2773 93.3799C9.8773 84.6025 0.262451 68.751 0.262451 50.6533C0.262451 23.0393 22.6476 0.65332 50.2617 0.65332Z" fill="black"/>
</g>
<defs>
<clipPath id="clip0_1085_4246">
<rect width="100" height="100" fill="white"/>
</clipPath>
</defs>
</svg>
