<svg width="100" height="100" viewBox="0 0 100 100" fill="none" xmlns="http://www.w3.org/2000/svg">
<path d="M50 1.79639C23.3594 1.79639 1.79688 23.3589 1.79688 49.9995C1.79688 76.6401 23.3594 98.2026 50 98.2026C76.6406 98.2026 98.2031 76.6401 98.2031 49.9995C98.2031 23.3589 76.6406 1.79639 50 1.79639ZM76.0156 29.687C73.75 29.7651 72.2656 28.437 72.1875 26.4058C72.1875 25.6245 72.3438 24.9995 72.8906 24.2183C73.3594 23.2808 73.5156 23.1245 73.5156 22.7339C73.4375 21.4839 71.5625 21.4058 71.0156 21.4058C63.75 21.6401 61.875 31.4058 60.3125 39.3745L59.5312 43.5933C63.6719 44.2183 66.6406 43.437 68.2812 42.4214C70.625 40.937 67.6562 39.3745 67.9688 37.6558C68.3594 35.937 69.9219 35.0776 71.1719 34.9995C72.9688 34.9214 74.2188 36.7964 74.1406 38.6714C74.0625 41.7183 70 46.0151 61.7969 45.7808C60.7812 45.7808 59.9219 45.7026 59.0625 45.6245L57.5 54.1401C56.0937 60.5464 54.2969 69.3745 47.7344 77.0308C42.1094 83.7495 36.4062 84.7651 33.8281 84.8433C29.0625 84.9995 25.8594 82.4214 25.7812 79.062C25.7031 75.7808 28.5938 73.9839 30.4688 73.9058C33.0469 73.8276 34.7656 75.7026 34.8438 77.812C34.9219 79.6089 33.9844 80.1558 33.3594 80.5464C32.9688 80.8589 32.3438 81.2495 32.3438 81.9526C32.3438 82.2651 32.7344 82.9683 33.75 82.9683C35.7812 82.8901 37.1094 81.8745 38.0469 81.2495C42.7344 77.3433 44.5312 70.5464 46.875 58.2808L47.3438 55.312C48.125 51.3276 49.0625 46.7964 50.3906 42.3433C47.1094 39.8433 45.1562 36.7964 40.7031 35.6245C37.6562 34.7651 35.8594 35.4683 34.5312 37.1089C32.9688 39.062 33.5156 41.562 35 43.0464L37.4219 45.7808C40.4688 49.2964 42.1094 51.9526 41.4844 55.6245C40.625 61.3276 33.6719 65.7808 25.4688 63.2808C18.4375 61.0933 17.1875 56.1714 18.0469 53.437C18.75 51.0151 20.7031 50.5464 22.5781 51.1714C24.6094 51.7964 25.3906 54.2183 24.7656 56.0933C24.6875 56.3276 24.6094 56.6401 24.375 57.0308C24.1406 57.5776 23.75 57.9683 23.5156 58.5933C23.0469 60.0776 25.0781 61.0933 26.4844 61.562C29.6094 62.4995 32.6562 60.8589 33.4375 58.3589C34.1406 56.0151 32.6562 54.3745 32.1094 53.7495L29.1406 50.5464C27.8125 49.062 24.7656 44.8433 26.25 40.0776C26.7969 38.2808 27.9688 36.3276 29.6875 35.0776C33.2812 32.3433 37.2656 31.9526 41.0156 33.0464C45.8594 34.4526 48.2031 37.6558 51.25 40.1558C52.9688 35.2339 55.3125 30.312 58.8281 26.2495C62.0312 22.4995 66.25 19.8433 71.1719 19.6089C76.0938 19.4526 79.7656 21.6401 79.9219 25.1558C79.8438 26.7183 78.9844 29.6089 76.0156 29.687Z" fill="#1A171B"/>
</svg>
