<svg width="100" height="100" viewBox="0 0 100 100" fill="none" xmlns="http://www.w3.org/2000/svg">
<g clip-path="url(#clip0_1085_4252)">
<path d="M50.0091 0C48.7458 0 47.488 0.0609375 46.2396 0.15625V99.8625C47.4849 99.9539 48.7364 100.019 50.0028 100.021H50.0208C51.2817 100.021 52.5294 99.9539 53.763 99.8656V0.15625C52.5139 0.0563888 51.2622 0.00426743 50.0091 0ZM71.5052 4.86719C64.1872 21.3594 59.656 38.8984 59.656 49.9422C59.656 60.6297 64.5638 78.3633 72.0153 94.943C74.3003 93.8184 76.496 92.5209 78.5833 91.0617C71.6833 75.543 67.1849 59.3234 67.1849 49.9234C67.1849 40.1914 71.5247 24.0055 78.2106 8.70703C76.0781 7.25606 73.8358 5.97228 71.5052 4.86719ZM28.3872 4.89844C26.0906 6.00269 23.8819 7.28089 21.7802 8.72188C28.4786 24.0078 32.8122 40.1984 32.8122 49.9234C32.8122 59.3203 28.3106 75.5344 21.4138 91.0367C23.5019 92.4935 25.6972 93.7902 27.981 94.9156C35.4396 78.3414 40.3349 60.6203 40.3349 49.9234C40.3349 38.8242 35.6231 21.1852 28.3872 4.89844ZM91.0489 21.4297L89.9716 22.5039C78.5552 34.0305 73.0372 43.0086 73.1044 49.9391C73.1716 56.8664 78.656 65.8172 89.8927 77.118L91.1833 78.4024C92.6551 76.2662 93.96 74.0196 95.0864 71.6828C87.3106 63.7906 80.6794 55.2703 80.6271 49.8719C80.5786 44.6078 87.17 36.0867 94.9888 28.1094C93.8504 25.7842 92.5332 23.5509 91.0489 21.4297ZM8.97158 21.4477C7.48356 23.5746 6.16342 25.8142 5.02314 28.1461C18.0419 41.3727 19.4122 47.7508 19.3966 49.8898C19.3481 55.3102 12.713 63.8094 4.93408 71.6828C6.06378 74.0141 7.37183 76.2546 8.84658 78.3844C9.28955 77.9422 9.71064 77.5359 10.138 77.1031C21.3646 65.8024 26.8521 56.9211 26.9161 49.9422C26.9833 42.9656 21.4661 34.0695 10.0521 22.5219L8.97158 21.4477Z" fill="url(#paint0_linear_1085_4252)"/>
</g>
<defs>
<linearGradient id="paint0_linear_1085_4252" x1="50.0019" y1="-5.71237" x2="50.0019" y2="99.1325" gradientUnits="userSpaceOnUse">
<stop stop-color="#FFD200"/>
<stop offset="0.08" stop-color="#FFB500"/>
<stop offset="0.2" stop-color="#FF8C00"/>
<stop offset="0.3" stop-color="#FF7300"/>
<stop offset="0.36" stop-color="#FF6A00"/>
<stop offset="0.48" stop-color="#FC4F0E"/>
<stop offset="0.65" stop-color="#F92F1E"/>
<stop offset="0.79" stop-color="#F81B27"/>
<stop offset="0.89" stop-color="#F7142B"/>
<stop offset="1" stop-color="#DF162E"/>
</linearGradient>
<clipPath id="clip0_1085_4252">
<rect width="100" height="100" fill="white"/>
</clipPath>
</defs>
</svg>
