<svg width="100" height="100" viewBox="0 0 100 100" fill="none" xmlns="http://www.w3.org/2000/svg">
<g clip-path="url(#clip0_867_33764)">
<path d="M46.1564 0.0944623C47.4752 -0.0786912 48.8683 0.0391784 50.1974 0.0391784C55.1213 0.0391784 59.9556 0.803635 64.6667 2.25249C70.679 4.10164 76.2791 7.05802 81.2217 10.9475C87.2798 15.7147 92.2995 21.9675 95.5204 28.985C101.547 42.1143 101.503 58.0259 95.3285 71.0999C91.3366 79.5533 84.9323 86.6284 77.1807 91.788C70.8561 95.9977 63.459 98.5746 55.933 99.4869C46.3534 100.648 35.9971 98.9511 27.3854 94.5357C11.2187 86.2465 0.22789 69.5637 0.0104587 51.2811C-0.031385 47.7563 0.0234942 44.2104 0.721281 40.7198C1.85784 35.0351 3.83949 29.5399 6.81561 24.5519C10.035 19.1558 14.1934 14.3941 19.1731 10.555C25.0127 6.05287 31.7997 2.81459 38.9869 1.16715C40.7226 0.769349 42.4654 0.54889 44.2169 0.335676L44.7703 0.268388C45.2317 0.212184 45.6937 0.155243 46.1564 0.0944623ZM29.432 83.2116C27.2057 83.4503 24.8576 83.8555 22.9468 85.1059C23.3769 85.2094 23.8699 85.1067 24.3187 85.1059C25.3965 85.1042 26.4846 85.0636 27.5613 85.1108C30.2566 85.2291 33.0649 85.6603 35.6677 86.374C39.0002 87.2878 41.9355 89.0861 45.1461 90.2988C48.5331 91.5781 51.9046 91.9757 55.4974 91.9757C57.3079 91.9757 59.1047 91.9703 60.8602 91.4761C59.944 90.9882 58.6325 91.0797 57.6176 90.8765C55.4155 90.4355 53.2504 89.897 51.1324 89.1413C49.5735 88.5852 48.072 87.8987 46.5773 87.1977L45.617 86.7461C44.2297 86.0942 42.839 85.451 41.4046 84.9092C37.633 83.4844 33.4535 82.7805 29.432 83.2116ZM32.7993 73.7396C28.3875 73.7396 23.9254 74.5168 19.9536 76.5185C18.9913 77.0035 18.0767 77.5813 17.2099 78.2217C16.9458 78.4169 16.4775 78.6677 16.3798 79.0071C16.2808 79.3513 16.6348 79.6397 16.8358 79.8599C17.8285 79.3308 18.7717 78.7708 19.8289 78.3691C26.6664 75.7717 34.9554 76.3162 41.7788 78.6977C45.1816 79.8854 48.3168 81.6616 51.6313 83.0545C55.338 84.6123 59.124 85.6224 63.105 86.1404C67.8009 86.7512 73.1548 86.2562 77.4473 84.1372C78.9556 83.3926 81.0498 82.258 81.6876 80.6094C80.8999 80.6782 80.1911 81.0157 79.4427 81.2484C78.2527 81.6183 77.0484 81.9321 75.826 82.177C71.6828 83.007 67.277 83.1784 63.105 82.4251C59.1731 81.7151 55.5197 80.2892 51.8835 78.7892L51.4194 78.5973C51.11 78.4692 50.8006 78.3408 50.4912 78.2124L50.0269 78.02C48.1692 77.2506 46.3045 76.4904 44.3978 75.8249C40.6938 74.532 36.7241 73.7396 32.7993 73.7396ZM40.5316 5.96944C35.2431 7.13767 30.5055 9.41256 25.94 12.2804C23.2894 13.9452 20.7539 15.6508 18.4571 17.7935C15.0414 20.9802 12.4308 24.8534 10.154 28.8989C7.80814 33.0671 6.30408 37.9249 5.57711 42.6384C4.86399 47.2626 4.74651 52.1245 5.5634 56.7526C6.58456 62.5387 8.52825 67.9683 11.5977 72.9902C12.6293 72.5084 13.3616 71.41 14.2167 70.6701C15.9436 69.1761 17.7565 67.7914 19.7042 66.5965C20.4252 66.1542 21.1659 65.8107 21.9491 65.4959C22.2445 65.3771 22.7276 65.2686 22.8666 64.9441C23.0876 64.4287 22.6789 63.5318 22.6087 62.9978C22.4083 61.4706 22.2873 59.9174 22.3251 58.3764C22.4348 53.8882 23.2736 49.3374 24.8704 45.1365C26.0738 41.9712 27.9121 39.0972 30.0899 36.5181C30.8288 35.6429 31.6144 34.8282 32.4251 34.0201C32.9043 33.5425 33.4989 33.1338 33.797 32.5211C32.2333 32.5221 30.6694 32.973 29.1826 33.4308C25.9794 34.4171 22.859 35.8804 20.2031 37.9451C18.9916 38.887 18.1044 40.1216 16.9586 41.1128C16.6072 41.417 15.9776 41.8245 15.492 41.5951C14.7583 41.2486 14.8715 39.8047 14.7874 39.1411C14.4642 36.5885 15.4311 33.3599 16.6599 31.1472C18.6325 27.5953 22.2799 24.5623 26.5635 24.6683C28.4134 24.714 30.033 25.3567 31.8016 25.7763C31.3531 25.1392 30.7518 24.6748 30.1803 24.1525C28.7798 22.8729 27.2481 21.7042 25.5658 20.8201C24.889 20.4645 24.1603 20.2484 23.4457 19.9871C23.0864 19.8558 22.6339 19.6751 22.4987 19.2758C22.2484 18.5362 23.5801 17.8512 24.0692 17.5393C25.9602 16.3338 28.2787 15.342 30.5544 15.2862C34.1108 15.1989 37.5856 17.1722 39.0505 20.5303C39.5655 21.7107 39.7178 22.959 39.8189 24.2188L39.8373 24.4552L39.8636 24.81C39.8665 24.8495 39.8694 24.8889 39.8723 24.9283L39.8899 25.165L39.908 25.4016C41.025 24.491 41.8106 23.1511 42.9012 22.1758C45.4519 19.8948 48.9426 18.8822 52.2548 19.909C55.2481 20.8368 57.8497 22.9025 59.3808 25.6514C59.7814 26.3706 60.899 28.1284 60.0916 28.8447C59.4596 29.4055 58.6582 28.9685 57.9917 28.7359C57.4871 28.5599 56.9656 28.4482 56.4424 28.3448L56.1569 28.2888C56.0617 28.2702 55.9666 28.2516 55.8716 28.2325C54.0592 27.8692 51.951 27.9069 50.1347 28.2263C48.9604 28.4328 47.8127 28.8507 46.6427 29.0238V29.2736C49.8421 29.3001 52.937 31.1253 54.5155 33.8951C55.1695 35.0426 55.4962 36.356 55.7467 37.6422C56.0565 39.232 55.8388 40.9641 55.4044 42.5135C55.2587 43.033 54.9943 43.9137 54.3731 44.0333C53.934 44.1179 53.5611 43.6807 53.3104 43.386C52.6533 42.6133 52.0282 41.8787 51.2571 41.2115C49.3063 39.5237 47.2437 37.9667 45.1461 36.4655C44.0324 35.6684 42.8125 34.632 41.5293 34.1449C41.8901 35.014 42.2436 35.822 42.3663 36.7679C42.7272 39.5503 41.5624 42.1691 39.814 44.2622C39.2805 44.9009 38.7098 45.5443 38.0373 46.0406C37.7585 46.2464 37.4085 46.5152 37.0396 46.457C35.883 46.2743 35.7453 44.5308 35.568 43.6376C34.9673 40.6123 35.2085 37.6076 36.0419 34.6445C35.3004 35.0205 34.7645 35.8432 34.299 36.5181C33.2747 38.0031 32.386 39.5737 31.7487 41.2645C29.2106 47.9992 29.2351 55.8874 32.523 62.3709C32.8902 63.095 33.4474 62.9978 34.1712 62.9978C34.2802 62.9978 34.3894 62.9972 34.4986 62.9962L34.8266 62.9928C35.483 62.9859 36.1407 62.983 36.7902 63.0698C37.1272 63.1147 37.5951 63.0746 37.8618 63.323C38.1812 63.6205 38.011 64.1306 37.9374 64.4967C37.7319 65.5202 37.6632 66.4503 37.6632 67.4944C39.0283 67.2828 39.4067 65.0942 39.8906 63.9971C40.439 62.7541 40.9969 61.51 41.5043 60.2499C41.7537 59.6307 42.0873 58.9382 41.9998 58.2515C41.9015 57.4797 41.3439 56.6614 40.9553 56.0032C40.2197 54.7575 39.3836 53.4756 38.8421 52.1311C38.4092 51.0563 38.8123 49.7132 40.0329 49.3293C40.7061 49.1174 41.4243 49.5329 41.8625 50.0195C42.7811 51.0396 43.3741 52.5576 44.0411 53.7549L49.2442 63.1227C49.6861 63.916 50.1289 64.7084 50.581 65.4959C50.7574 65.8032 50.9368 66.2776 51.2981 66.4086C51.6199 66.5253 52.0595 66.3594 52.3796 66.2953C53.2104 66.1289 54.04 65.9493 54.8739 65.7987C55.8731 65.6182 57.3962 65.6521 58.1164 64.8714C57.0631 64.5378 55.8455 64.5575 54.7491 64.6327C54.0906 64.6779 53.3607 64.9135 52.7556 64.5289C51.855 63.9566 51.2564 62.6346 50.7054 61.7488C49.3469 59.5645 48.0669 57.3473 46.766 55.1289L46.5578 54.7756L46.1394 54.0699C45.9305 53.7167 45.7233 53.3627 45.5222 53.0055C45.3668 52.7292 45.1365 52.3651 45.3591 52.0604C45.5929 51.7406 46.1026 51.7217 46.5627 51.7211L46.654 51.7212C46.8348 51.7214 47.0043 51.7215 47.1415 51.7035C48.9983 51.4592 50.8808 51.2568 52.7537 51.2568C52.6079 50.7497 52.191 50.1765 52.3243 49.6336C52.6226 48.4187 54.3705 48.0386 55.1834 48.9104C55.7291 49.4955 56.0463 50.3009 56.4014 51.007C56.8699 51.9392 57.4034 52.8402 57.9052 53.7549C58.7834 55.3563 59.7426 56.9137 60.6458 58.5013C60.7203 58.6322 60.797 58.7625 60.8746 58.8926L60.9913 59.0879C61.3811 59.7388 61.7726 60.3942 61.9826 61.1243C58.8458 60.9808 56.491 57.3395 55.1233 54.879C55.0142 55.273 55.1915 55.6246 55.3333 56.0032C55.628 56.7895 55.9802 57.5383 56.4234 58.2515C57.0565 59.2699 57.7822 60.3188 58.74 61.0582C60.4398 62.3703 62.6811 62.3776 64.7263 62.2373C66.0378 62.1472 67.6766 61.5502 68.9667 61.9553C70.2546 62.3597 70.773 63.7801 70.0081 64.8713C69.4352 65.6887 68.6704 65.9973 67.7195 66.1204C68.392 67.563 69.2729 68.9017 69.9115 70.3672C70.1775 70.9777 70.4548 71.9134 71.0922 72.2355C71.5166 72.4499 72.1246 72.2503 72.5834 72.2408C72.1229 71.0224 71.2608 69.9886 70.8374 68.7434C72.1283 68.8025 73.3768 69.4761 74.5788 69.9061C76.9433 70.7517 79.278 71.6763 81.6094 72.6092L82.6853 73.0402C83.6442 73.4242 84.6089 73.8045 85.5537 74.222C85.8995 74.3748 86.3781 74.7319 86.7602 74.512C87.072 74.3325 87.2737 73.9046 87.466 73.6147C88.0039 72.8036 88.491 71.9615 88.9736 71.1166C90.906 67.7332 92.3234 64.0259 93.2702 60.2499C96.3934 47.7965 93.7141 34.0556 86.2091 23.6529C83.3256 19.6561 79.6993 16.2007 75.7013 13.3392C65.696 6.17828 52.5695 3.31047 40.5316 5.96944ZM60.9849 68.0726C58.3326 68.7641 55.5992 69.3908 52.8784 69.7427C53.2362 70.9609 54.1106 72.1458 54.7506 73.24C54.9981 73.6631 55.2628 74.2296 55.7518 74.4132C56.3042 74.6206 56.9717 74.2841 57.4929 74.1143C57.2515 73.4541 56.8455 72.8599 56.5131 72.2408C56.3762 71.9855 56.1643 71.6832 56.2771 71.3801C56.4905 70.8072 57.3764 70.841 57.867 70.7414C59.1599 70.4791 60.4394 70.1517 61.7332 69.8926C62.2098 69.797 62.8736 69.5382 63.3526 69.6981C63.7113 69.8178 63.9275 70.1133 64.132 70.4215L64.2237 70.5605C64.3461 70.7454 64.4714 70.9262 64.6278 71.0674C65.1509 71.5397 65.9331 71.6122 66.5971 71.7411C66.1919 70.8293 65.5184 70.0316 65.0866 69.1182C64.8356 68.5869 64.6293 67.8054 64.0797 67.4984C63.3225 67.0755 61.7589 67.8707 60.9849 68.0726ZM44.2731 61.9986C44.1482 63.5821 43.6625 64.8705 42.9012 66.2453C43.7736 66.3558 44.6634 66.3951 45.5202 66.6075C46.1624 66.7666 46.7542 67.0701 47.3909 67.2446C47.0505 66.313 46.4188 65.4819 45.9294 64.6216C45.4353 63.7531 44.9931 62.6978 44.2731 61.9986Z" fill="black"/>
</g>
<defs>
<clipPath id="clip0_867_33764">
<rect width="100" height="100" fill="white"/>
</clipPath>
</defs>
</svg>
