<svg width="100" height="100" viewBox="0 0 100 100" fill="none" xmlns="http://www.w3.org/2000/svg">
<path d="M81.1879 2.79892H21.1559C16.3869 2.79892 11.8132 4.69311 8.44068 8.0649C5.06814 11.4367 3.17294 16.01 3.17188 20.7789V80.8069C3.17188 85.5766 5.06661 90.1509 8.43927 93.5235C11.8119 96.8962 16.3862 98.7909 21.1559 98.7909H81.1879C85.9575 98.7909 90.5318 96.8962 93.9045 93.5235C97.2771 90.1509 99.1719 85.5766 99.1719 80.8069V20.7829C99.1719 16.0129 97.2773 11.4382 93.9047 8.0649C90.5322 4.69161 85.9579 2.79998 81.1879 2.79892Z" fill="#68C3FF"/>
<path fill-rule="evenodd" clip-rule="evenodd" d="M79.1161 23.3362C79.1321 23.3142 79.155 23.2983 79.1812 23.291C79.2073 23.2837 79.2352 23.2856 79.2601 23.2962C79.2795 23.3044 79.2964 23.3177 79.309 23.3345C79.3216 23.3514 79.3296 23.3712 79.3321 23.3922C79.3521 23.5522 79.3681 23.7122 79.3721 23.8722C79.4201 26.3122 79.4321 28.7562 79.4121 31.2002C79.4137 34.1895 78.6611 37.1309 77.2241 39.7522C75.2108 43.2908 71.9705 45.9689 68.1161 47.2802C66.7561 47.7602 65.3521 48.0362 63.9041 48.1002C50.3361 48.1162 36.7681 48.1162 23.1961 48.1002C22.9121 48.0842 22.6001 47.9402 22.5601 47.6602C22.558 47.6416 22.5566 47.6229 22.5561 47.6042C22.4361 43.3362 23.8241 39.6522 26.7241 36.5482C29.2714 33.8126 32.7256 32.0955 36.4441 31.7162C44.5081 31.6522 52.5761 31.6162 60.6441 31.6122C62.5784 31.5118 64.5011 31.2509 66.3921 30.8322C68.8274 30.3626 71.1726 29.5093 73.3401 28.3042C74.1721 27.8642 74.9761 27.3722 75.7401 26.8322C76.5601 26.2082 77.3161 25.5122 78.0041 24.7362C78.3801 24.2722 78.7481 23.8042 79.1161 23.3362ZM78.8841 48.3922C78.9841 48.2602 79.1841 48.2882 79.2081 48.4522C79.2481 50.7082 79.2721 52.9602 79.2721 55.2122C79.2921 56.9522 79.1201 58.6722 78.7441 60.3722C77.7839 64.4906 75.2592 68.074 71.7041 70.3642C69.7081 71.6441 67.5401 72.4842 65.1921 72.8722C64.7585 72.9235 64.3237 72.9648 63.8881 72.9962C50.2201 73.0122 36.5521 73.0122 22.8881 72.9962C22.7906 72.9964 22.6951 72.9677 22.6139 72.9135C22.5327 72.8594 22.4694 72.7823 22.4321 72.6922C22.3855 72.5497 22.3572 72.4018 22.3481 72.2522C22.3483 69.2589 23.1866 66.3255 24.7681 63.7842C26.2984 61.4219 28.4135 59.4955 30.9081 58.1922C31.8769 57.6945 32.896 57.3017 33.9481 57.0202C34.8441 56.7802 35.7761 56.7162 36.7001 56.7082L60.3281 56.5082C65.0021 56.3808 69.5815 55.1616 73.7001 52.9482C75.3401 51.9882 76.8001 50.8042 78.0921 49.4002C78.3676 49.0733 78.6317 48.7371 78.8841 48.3922Z" fill="#191B20"/>
</svg>
