<svg width="100" height="100" viewBox="0 0 100 100" fill="none" xmlns="http://www.w3.org/2000/svg">
<g clip-path="url(#clip0_1085_4254)">
<path d="M67.3767 36.3655C67.3539 38.8763 66.3406 41.2764 64.5571 43.0438C62.7737 44.8112 60.3644 45.8027 57.8536 45.8027C55.3428 45.8027 52.9335 44.8112 51.1501 43.0438C49.3666 41.2764 48.3533 38.8763 48.3306 36.3655C48.3306 31.1046 52.5938 26.8413 57.8548 26.8413C60.3804 26.8417 62.8025 27.8454 64.5881 29.6315C66.3738 31.4176 67.3769 33.8399 67.3767 36.3655Z" fill="#FFC131"/>
<path d="M32.312 63.6345C32.312 61.1084 33.3155 58.6858 35.1017 56.8996C36.8879 55.1133 39.3105 54.1099 41.8366 54.1099C44.3627 54.1099 46.7853 55.1133 48.5715 56.8996C50.3577 58.6858 51.3612 61.1084 51.3612 63.6345C51.3612 68.8954 47.0979 73.1587 41.837 73.1587C36.5761 73.1587 32.312 68.8954 32.312 63.6345Z" fill="#24C8DB"/>
<path d="M77.5906 66.9048C73.7656 69.3781 69.5097 71.11 65.0445 72.0103C65.9764 69.3167 66.4509 66.4862 66.4484 63.6361C66.4494 62.5863 66.3863 61.5375 66.2594 60.4954C68.1811 59.8262 70.016 58.9297 71.725 57.8251C75.8576 55.1543 79.1309 51.3468 81.1516 46.8603C82.6627 43.5053 83.4316 39.8636 83.4055 36.1841C83.3794 32.5045 82.559 28.8741 81.0004 25.5409C79.4418 22.2077 77.1818 19.2503 74.3748 16.8712C71.5679 14.492 68.2802 12.747 64.7367 11.7556C59.9978 10.4313 54.9773 10.5029 50.278 11.9617C45.5788 13.4205 41.4004 16.2047 38.2445 19.9798C37.841 20.4629 37.4554 20.9607 37.0883 21.472C32.2422 22.0106 27.5252 23.3807 23.1445 25.522C24.9001 19.9008 27.9948 14.7901 32.1625 10.6295C36.3302 6.46891 41.4461 3.38289 47.0703 1.63684C53.7583 -0.441008 60.904 -0.542742 67.6484 1.34388C74.393 3.23294 80.4508 7.02591 85.0891 12.2689C89.7273 17.5118 92.7555 23.9876 93.8078 30.9118C94.8581 37.8359 93.8864 44.9159 91.0095 51.301C88.1326 57.686 83.473 63.1044 77.5906 66.9048ZM23.5781 32.154L32.4922 33.2493C32.7018 31.5298 33.0874 29.8363 33.643 28.1954C30.109 29.004 26.7163 30.3389 23.5781 32.154Z" fill="#FFC131"/>
<path d="M22.0362 33.0969C25.8903 30.6053 30.1816 28.8666 34.683 27.9727C33.6435 30.7989 33.1134 33.7871 33.1174 36.7984C33.1176 37.715 33.1666 38.6309 33.2643 39.5422C31.3813 40.2076 29.5828 41.0915 27.9057 42.1758C23.7724 44.8466 20.4985 48.6544 18.4776 53.1414C16.4541 57.6273 15.7737 62.6047 16.5088 67.4695C17.244 72.3344 19.3744 76.8844 22.6369 80.5711C25.8994 84.2578 30.1502 86.9219 34.8901 88.2461C39.6299 89.5703 44.6526 89.5 49.3526 88.0414C54.0522 86.5827 58.2306 83.7976 61.3854 80.0211C61.789 79.5352 62.1757 79.0354 62.5448 78.5227C67.3946 77.9751 72.1136 76.5947 76.494 74.4422C75.0702 79.0209 72.754 83.2724 69.6791 86.9516C65.1907 92.3269 59.2443 96.2904 52.5557 98.3648C45.8677 100.443 38.722 100.544 31.9776 98.6578C25.2343 96.7693 19.1788 92.976 14.5369 87.7328C9.89802 82.4869 6.87195 76.0135 5.8221 69.0898C4.77141 62.1658 5.74318 55.0857 8.62054 48.7008C11.4961 42.3159 16.1547 36.8975 22.0362 33.0969Z" fill="#24C8DB"/>
</g>
<defs>
<clipPath id="clip0_1085_4254">
<rect width="100" height="100" fill="white"/>
</clipPath>
</defs>
</svg>
