<svg width="100" height="100" viewBox="0 0 100 100" fill="none" xmlns="http://www.w3.org/2000/svg">
<g clip-path="url(#clip0_1085_4259)">
<path d="M9.375 74.2961V93.45C9.375 94.305 9.54511 95.1515 9.87545 95.9401C10.2058 96.7288 10.6897 97.4438 11.2991 98.0436C11.9085 98.6434 12.6311 99.1159 13.4249 99.4337C14.2187 99.7514 15.0677 99.9081 15.9227 99.8945L33.1773 99.6188C34.0898 99.6043 34.9887 99.3962 35.8147 99.0083C36.6407 98.6205 37.3749 98.0616 37.9687 97.3688L89.0727 37.7469C90.0741 36.5785 90.6244 35.0904 90.6242 33.5516V15.8203C90.6242 14.1109 89.9452 12.4715 88.7364 11.2628C87.5277 10.0541 85.8883 9.375 84.1789 9.375H66.9867C66.068 9.37494 65.16 9.57127 64.3233 9.95084C63.4867 10.3304 62.7409 10.8844 62.1359 11.5758L10.9695 70.0523C9.94201 71.2268 9.37545 72.7341 9.375 74.2945V74.2961Z" fill="#3BEA62"/>
<path d="M9.375 76.5844V93.5563C9.375 95.2657 10.0541 96.905 11.2628 98.1138C12.4715 99.3225 14.1109 100.002 15.8203 100.002H35.4539C35.7669 100.002 36.0784 99.9786 36.3883 99.9328L94.4898 91.4203C96.0207 91.1958 97.4198 90.4281 98.4315 89.2574C99.4431 88.0866 99.9999 86.591 100 85.0438V60.9844C100 60.1378 99.8332 59.2996 99.5092 58.5175C99.1852 57.7354 98.7103 57.0248 98.1117 56.4263C97.513 55.8278 96.8023 55.353 96.0201 55.0292C95.238 54.7054 94.3997 54.5389 93.5531 54.5391L64.6398 54.5461C63.975 54.5461 63.3141 54.6492 62.6813 54.8508L13.8609 70.443C12.5591 70.8588 11.4231 71.6776 10.617 72.7812C9.81094 73.8849 9.37655 75.2162 9.37656 76.5828L9.375 76.5844Z" fill="url(#paint0_linear_1085_4259)"/>
<path d="M0 6.44609V59.7695C4.86982e-05 61.0368 0.373663 62.2759 1.07413 63.3319C1.7746 64.388 2.77084 65.2141 3.93828 65.707L62.4086 90.3898C63.2178 90.7329 64.089 90.9058 64.968 90.8977L93.6063 90.6633C95.3066 90.6495 96.9325 89.9643 98.13 88.7571C99.3274 87.5499 99.9993 85.9183 99.9992 84.218V56.6141C99.9991 55.3557 99.6305 54.1248 98.9391 53.0734L65.957 2.90391C65.3703 2.01162 64.571 1.27913 63.631 0.772252C62.691 0.265377 61.6398 9.03286e-06 60.5719 0H6.44531C4.73591 0 3.09652 0.679058 1.88779 1.88779C0.679058 3.09652 0 4.73591 0 6.44531L0 6.44609Z" fill="url(#paint1_linear_1085_4259)"/>
<path d="M81.2492 18.75H18.75V81.2492H81.2492V18.75Z" fill="black"/>
<path d="M57.3309 26.1482C55.0856 26.1482 53.048 26.6717 51.2293 27.7264C49.409 28.7811 47.9848 30.2334 46.9465 32.0811C45.9082 33.9287 45.3863 35.9951 45.3863 38.2732C45.3874 40.5514 45.9074 42.6136 46.9465 44.46C47.9848 46.3076 49.4082 47.7592 51.2285 48.8139C53.0488 49.8686 55.0863 50.3928 57.3301 50.3928C59.228 50.3938 60.9697 50.043 62.5551 49.3404C64.1395 48.6368 65.4587 47.6511 66.5129 46.3834C67.5641 45.1219 68.2912 43.6227 68.6309 42.0162H63.8418C63.5391 42.8536 63.0631 43.6176 62.4449 44.2584C61.8157 44.9084 61.0528 45.4141 60.209 45.7404C59.3387 46.0868 58.39 46.26 57.3629 46.26C55.9785 46.26 54.723 45.9123 53.6066 45.2209C52.491 44.5279 51.6191 43.5795 50.9879 42.3678C50.3574 41.1568 50.0395 39.7857 50.0395 38.267C50.0405 36.7488 50.3566 35.3842 50.9879 34.1732C51.6186 32.9633 52.4915 32.0123 53.6066 31.3201C54.7238 30.6279 55.9785 30.2811 57.3629 30.2811C58.39 30.2816 59.3387 30.4548 60.209 30.8006C61.0516 31.1289 61.814 31.634 62.4449 32.2818C63.0624 32.9208 63.5383 33.6827 63.8418 34.5178H68.6309C68.2902 32.9134 67.5632 31.4165 66.5129 30.1568C65.4566 28.8896 64.1402 27.9037 62.5551 27.2006C60.9702 26.498 59.2288 26.1477 57.3309 26.1482ZM25.002 26.5443V30.6709H32.1371V49.9967H36.7113V30.6709H43.8074V26.5443H25.002ZM26.5613 68.7435V73.4295H51.5598V68.7435H26.5613Z" fill="white"/>
</g>
<defs>
<linearGradient id="paint0_linear_1085_4259" x1="11.9859" y1="100.612" x2="95.5078" y2="61.8883" gradientUnits="userSpaceOnUse">
<stop offset="0.1" stop-color="#3BEA62"/>
<stop offset="0.59" stop-color="#6B57FF"/>
</linearGradient>
<linearGradient id="paint1_linear_1085_4259" x1="93.6438" y1="93.2422" x2="2.08907" y2="1.6875" gradientUnits="userSpaceOnUse">
<stop offset="0.26" stop-color="#6B57FF"/>
<stop offset="0.65" stop-color="#07C3F2"/>
</linearGradient>
<clipPath id="clip0_1085_4259">
<rect width="100" height="100" fill="white"/>
</clipPath>
</defs>
</svg>
