<svg width="100" height="100" viewBox="0 0 100 100" fill="none" xmlns="http://www.w3.org/2000/svg">
<path d="M53.4583 9.08352C52.3726 8.58831 51.1932 8.33203 49.9999 8.33203C48.8066 8.33203 47.6273 8.58831 46.5416 9.08352L10.8333 25.3335C10.0939 25.6595 9.46526 26.1935 9.02394 26.8704C8.58262 27.5473 8.34766 28.338 8.34766 29.146C8.34766 29.9541 8.58262 30.7447 9.02394 31.4216C9.46526 32.0985 10.0939 32.6325 10.8333 32.9585L46.5833 49.2502C47.6689 49.7454 48.8483 50.0017 50.0416 50.0017C51.2349 50.0017 52.4143 49.7454 53.4999 49.2502L89.2499 33.0002C89.9893 32.6742 90.6179 32.1402 91.0593 31.4633C91.5006 30.7864 91.7355 29.9957 91.7355 29.1877C91.7355 28.3796 91.5006 27.589 91.0593 26.9121C90.6179 26.2352 89.9893 25.7012 89.2499 25.3752L53.4583 9.08352Z" stroke="#4F46E5" stroke-width="8.33333" stroke-linecap="round" stroke-linejoin="round"/>
<path d="M8.33351 50C8.33154 50.7969 8.55816 51.5777 8.9865 52.2498C9.41484 52.9218 10.0269 53.457 10.7502 53.7917L46.5835 70.0833C47.6635 70.5724 48.8354 70.8254 50.021 70.8254C51.2066 70.8254 52.3785 70.5724 53.4585 70.0833L89.2085 53.8333C89.946 53.5018 90.5712 52.9629 91.0077 52.2822C91.4442 51.6016 91.6732 50.8086 91.6668 50" stroke="#4F46E5" stroke-width="8.33333" stroke-linecap="round" stroke-linejoin="round"/>
<path d="M8.33351 70.8335C8.33154 71.6304 8.55816 72.4112 8.9865 73.0833C9.41484 73.7553 10.0269 74.2904 10.7502 74.6252L46.5835 90.9168C47.6635 91.4059 48.8354 91.6588 50.021 91.6588C51.2066 91.6588 52.3785 91.4059 53.4585 90.9168L89.2085 74.6668C89.946 74.3353 90.5712 73.7964 91.0077 73.1157C91.4442 72.4351 91.6732 71.6421 91.6668 70.8335" stroke="#4F46E5" stroke-width="8.33333" stroke-linecap="round" stroke-linejoin="round"/>
</svg>
