<svg width="100" height="100" viewBox="0 0 100 100" fill="none" xmlns="http://www.w3.org/2000/svg">
<g clip-path="url(#clip0_1085_4265)">
<path fill-rule="evenodd" clip-rule="evenodd" d="M60.1014 0.967425C60.4671 1.02211 60.8124 1.18149 61.096 1.42211C61.3827 1.66352 61.596 1.97758 61.7155 2.33461L61.7889 2.59399L64.2147 15.2073C67.4632 16.4695 70.5224 18.173 73.3061 20.2698L74.3257 21.0698L86.5757 16.8338C87.3624 16.4885 88.2085 16.7362 88.7999 17.4229C93.0147 22.2041 96.435 27.9791 98.4218 34.0401C98.5707 34.378 98.6143 34.753 98.5469 35.116C98.4794 35.4791 98.304 35.8134 98.0436 36.0752L97.8272 36.2549L88.1069 44.626C88.4554 46.5002 88.5561 48.5229 88.5561 50.4916C88.5561 52.0752 88.489 53.6838 88.2874 55.2182L88.1077 56.3604L97.8264 64.7401C98.1653 64.9846 98.4095 65.3385 98.518 65.7421C98.6264 66.1456 98.5924 66.5743 98.4218 66.9557C96.4413 73.0229 93.0202 78.7838 88.8061 83.5635C88.2749 84.1768 87.5514 84.4424 86.8405 84.2502L86.5749 84.1557L74.3288 79.9166C71.6271 82.112 68.6317 83.9188 65.4296 85.2846L64.2186 85.7791L61.7889 98.401C61.7035 98.8121 61.4973 99.1883 61.1968 99.4815C60.8966 99.7721 60.5141 99.9631 60.1014 100.028C56.9272 100.617 53.7538 100.961 50.485 100.961C47.2108 100.961 44.0366 100.617 40.8632 100.028C40.496 99.9699 40.1518 99.8127 39.8679 99.5729C39.58 99.3321 39.3645 99.0162 39.2452 98.6604L39.178 98.401L36.7522 85.7791C33.4462 84.5213 30.3398 82.7914 27.5296 80.6432L26.6358 79.9166L14.3921 84.1557C13.6014 84.5002 12.7593 84.2534 12.1608 83.5635C7.94363 78.7846 4.52567 73.0229 2.5452 66.9557C2.39584 66.6181 2.35174 66.2433 2.41864 65.8803C2.48553 65.5172 2.66032 65.1828 2.9202 64.9205L3.13738 64.7409L12.8538 56.3596C12.5275 54.4209 12.3774 52.4566 12.4054 50.4909C12.4054 48.9159 12.4663 47.3049 12.671 45.7666L12.8538 44.6315L3.13426 36.2549C2.79504 36.0116 2.55112 35.6577 2.44441 35.2541C2.33796 34.8501 2.37127 34.422 2.53895 34.0393C4.51942 27.9784 7.94051 22.2049 12.1554 17.4221C12.3849 17.1334 12.6915 16.9157 13.0397 16.794C13.3882 16.6721 13.7632 16.6534 14.1202 16.7424L14.3921 16.8307L26.6358 21.0666C29.3553 18.8228 32.3935 16.996 35.6507 15.6463L36.7522 15.201L39.178 2.59164C39.2592 2.17882 39.4648 1.80071 39.7671 1.50805C40.0675 1.21731 40.4502 1.02633 40.8632 0.961175C47.2106 -0.320392 53.7501 -0.320392 60.0975 0.961175L60.1014 0.967425ZM50.4788 20.944C34.3288 20.944 21.2522 34.1705 21.2522 50.483C21.2522 66.7971 34.3382 80.0206 50.4788 80.0206C66.6225 80.0206 79.7085 66.7971 79.7085 50.4823C79.7085 34.1705 66.6225 20.9448 50.4757 20.9448L50.4788 20.944ZM68.9788 46.3776V37.5862H31.9819V46.3784H46.078V67.494H54.8827V46.3776H68.9788Z" fill="#512FC9"/>
</g>
<defs>
<clipPath id="clip0_1085_4265">
<rect width="100" height="100" fill="white"/>
</clipPath>
</defs>
</svg>
