<svg width="100" height="100" viewBox="0 0 100 100" fill="none" xmlns="http://www.w3.org/2000/svg">
<g clip-path="url(#clip0_867_14503)">
<path d="M86.5831 73.3115C84.975 74.9015 81.759 77.2865 76.1308 77.2865C73.719 77.2865 70.9049 77.2865 69.699 77.2865C68.0908 77.2865 56.0308 77.2865 41.5589 77.2865C52.0108 67.3487 60.8549 59.0005 61.659 58.2055C62.4631 57.4105 64.4731 55.4228 66.4831 53.8328C70.5031 50.2551 73.719 49.8573 76.5331 49.8573C80.5531 49.8573 83.769 51.4478 86.5831 53.8328C92.2109 59.0005 92.2109 68.1437 86.5831 73.3115ZM93.4172 47.4723C89.3972 43.0996 83.3672 40.3169 76.9349 40.3169C71.3067 40.3169 66.4831 42.3046 62.0608 45.4846C60.4531 47.0746 58.0408 48.6651 56.0308 51.0501C54.4231 52.6401 19.8506 86.032 19.8506 86.032C21.8607 86.4297 24.2727 86.4297 26.2827 86.4297C28.2927 86.4297 68.4931 86.4297 70.1008 86.4297C73.3172 86.4297 75.729 86.4297 78.1408 86.032C83.3672 85.6347 88.5931 83.647 93.015 79.672C102.261 70.926 102.261 56.2178 93.4172 47.4723Z" fill="#00A3FF"/>
<path d="M37.1367 45.0873C32.7147 41.9069 28.2927 40.3169 23.0666 40.3169C16.6346 40.3169 10.6045 43.0996 6.58453 47.4723C-2.25954 56.6155 -2.25954 70.926 6.98653 80.0692C11.0065 83.647 15.0266 85.6347 19.8506 86.032L29.0967 77.2865C27.4887 77.2865 25.4786 77.2865 23.8706 77.2865C18.6446 76.8892 15.4286 75.2992 13.4185 73.3115C7.79053 67.746 7.79053 59.0005 13.0165 53.4351C15.8306 50.6523 19.0466 49.4601 23.0666 49.4601C25.4786 49.4601 29.0967 49.8573 32.7147 53.4351C34.3227 55.0251 38.7447 58.2055 40.3528 59.7955H40.7548L46.7849 53.8328V53.4351C43.9708 50.6523 39.5488 47.0746 37.1367 45.0873Z" fill="#00C8DC"/>
<path d="M79.3473 35.1467C74.9255 23.221 63.2673 14.873 50.0013 14.873C34.3231 14.873 21.861 26.4012 19.449 40.7121C20.655 40.7121 21.861 40.3146 23.469 40.3146C25.077 40.3146 27.087 40.7121 28.6951 40.7121C30.7051 30.774 39.5491 23.6186 50.0013 23.6186C58.8454 23.6186 66.4832 28.7864 70.1014 36.3393C70.1014 36.3393 70.5032 36.7368 70.5032 36.3393C73.3173 35.9418 76.5332 35.1467 79.3473 35.1467C79.3473 35.5443 79.3473 35.5443 79.3473 35.1467Z" fill="#006EFF"/>
</g>
<defs>
<clipPath id="clip0_867_14503">
<rect width="100" height="100" fill="white"/>
</clipPath>
</defs>
</svg>
