<svg width="100" height="100" viewBox="0 0 100 100" fill="none" xmlns="http://www.w3.org/2000/svg">
<path d="M57.4982 19.2356C57.2323 19.2167 56.9674 19.283 56.7418 19.4249C56.5162 19.5668 56.3416 19.7768 56.2435 20.0246L41.6185 55.216C41.5469 55.3721 41.5081 55.5412 41.5044 55.7129C41.5006 55.8845 41.5321 56.0551 41.5968 56.2142C41.6615 56.3732 41.7581 56.5173 41.8806 56.6376C42.0031 56.7579 42.1489 56.8519 42.3091 56.9137C42.4904 56.9778 42.6818 57.0035 42.8732 56.9895H60.0818C60.6052 57.0012 61.0818 56.6871 61.2763 56.2004L68.8177 38.2778C68.9113 38.0401 69.0751 37.8365 69.2872 37.6941C69.4993 37.5518 69.7498 37.4774 70.0052 37.4809H92.2013C92.467 37.4998 92.7319 37.4336 92.9575 37.2919C93.1831 37.1502 93.3577 36.9403 93.456 36.6926L99.8857 21.0387C99.9574 20.8817 99.996 20.7116 99.999 20.539C100.002 20.3665 99.9693 20.1951 99.903 20.0358C99.8367 19.8764 99.7382 19.7324 99.6137 19.6129C99.4892 19.4934 99.3413 19.4008 99.1794 19.341C99.0254 19.2734 98.8593 19.2375 98.6911 19.2356H57.4982ZM7.86145 19.2434C7.59561 19.2245 7.33065 19.2908 7.10504 19.4327C6.87943 19.5746 6.7049 19.7847 6.60677 20.0325L0.10911 35.6864C0.0392237 35.843 0.00212293 36.0123 8.84672e-05 36.1839C-0.001946 36.3554 0.0311289 36.5255 0.0972793 36.6838C0.16343 36.8421 0.261258 36.9852 0.384747 37.1042C0.508237 37.2233 0.654778 37.3159 0.81536 37.3762C0.969266 37.4418 1.13489 37.4739 1.30364 37.4739H21.0896C21.2987 37.4725 21.5048 37.5235 21.6892 37.6221C21.8735 37.7208 22.0303 37.864 22.1452 38.0387C22.2601 38.2134 22.3295 38.414 22.3471 38.6224C22.3647 38.8307 22.3299 39.0402 22.2458 39.2317L5.74348 78.9684C5.67249 79.1259 5.6347 79.2963 5.63248 79.4691C5.63026 79.6418 5.66365 79.8132 5.73057 79.9725C5.79749 80.1318 5.89651 80.2756 6.02145 80.3949C6.14639 80.5142 6.29458 80.6065 6.45677 80.666C6.61145 80.7311 6.77421 80.7637 6.94505 80.7637H50.2419C50.5107 80.7824 50.7783 80.7143 51.0055 80.5694C51.2326 80.4245 51.4072 80.2106 51.5036 79.959L58.0536 64.1551C58.1148 63.9971 58.1435 63.8284 58.1379 63.6591C58.1323 63.4898 58.0926 63.3234 58.0211 63.1698C57.9496 63.0162 57.8478 62.8786 57.7218 62.7654C57.5959 62.6521 57.4483 62.5654 57.288 62.5106C57.1338 62.4428 56.9674 62.4069 56.799 62.4051H34.3771C34.2117 62.4061 34.0477 62.3744 33.8946 62.3118C33.7416 62.2492 33.6024 62.157 33.4851 62.0403C33.3678 61.9237 33.2748 61.7851 33.2113 61.6323C33.1479 61.4796 33.1153 61.3158 33.1154 61.1504C33.1 60.9489 33.1282 60.7463 33.1982 60.5567L49.9036 21.0387C49.9758 20.8827 50.0151 20.7135 50.0191 20.5417C50.0231 20.3699 49.9918 20.1991 49.927 20.0399C49.8623 19.8807 49.7654 19.7365 49.6426 19.6163C49.5198 19.4961 49.3736 19.4024 49.213 19.341C49.0525 19.2779 48.8816 19.2448 48.7091 19.2434H7.86145Z" fill="#0E1017"/>
</svg>
