<svg width="100" height="100" viewBox="0 0 100 100" fill="none" xmlns="http://www.w3.org/2000/svg">
<g clip-path="url(#clip0_1085_4276)">
<path d="M18.7439 9.30715C19.2095 9.62746 19.4876 10.1532 19.4876 10.7157V39.4587C19.4876 40.9829 17.6329 41.747 16.547 40.6696L3.43137 27.6673C3.27114 27.5088 3.14395 27.3201 3.05718 27.1121C2.97042 26.9041 2.92579 26.681 2.9259 26.4556V1.71496C2.9259 0.334489 4.4845 -0.478011 5.62825 0.306364L18.7439 9.30715ZM51.3314 72.1376C51.1717 72.3002 50.9814 72.4297 50.7715 72.5186C50.5617 72.6075 50.3363 72.6541 50.1084 72.6557C49.8805 72.6573 49.6545 72.6139 49.4434 72.5279C49.2323 72.4419 49.0402 72.3152 48.8782 72.1548L23.5157 47.0032C23.3555 46.8449 23.2282 46.6564 23.1413 46.4485C23.0544 46.2406 23.0096 46.0176 23.0095 45.7923V15.4532C23.0095 14.0728 24.5689 13.2603 25.7126 14.0446L36.0493 21.1376C36.3376 21.3353 36.679 21.4407 37.029 21.4407H63.3314C63.6814 21.4419 64.0235 21.3361 64.3118 21.1376L74.4048 14.2103C75.5478 13.4259 77.1079 14.2384 77.1079 15.6181V45.1157C77.1079 45.5611 76.9322 45.99 76.6197 46.3095L51.3314 72.1376ZM96.5868 26.5485C96.8993 26.2282 97.0743 25.8009 97.0743 25.3548V1.96418C97.0743 0.584489 95.515 -0.228792 94.3728 0.555583L81.3728 9.47277C81.1439 9.62964 80.9566 9.83984 80.827 10.0852C80.6974 10.3306 80.6295 10.6039 80.629 10.8814V38.6282C80.629 40.165 82.5095 40.9235 83.5876 39.822L96.5868 26.5485ZM3.46731 84.8923C3.29712 84.7323 3.16134 84.5393 3.06826 84.325C2.97517 84.1108 2.92673 83.8798 2.9259 83.6462V62.2907C2.9259 60.7728 4.76653 60.0064 5.85637 61.0704L18.0048 72.9298C18.3376 73.254 18.5236 73.6986 18.5204 74.1618L18.3822 94.8962C18.372 96.3915 16.5728 97.1564 15.4775 96.1314L3.46731 84.8923ZM50.8329 76.9048C50.7306 77.0079 50.6048 77.0845 50.4673 77.1267C50.3779 77.1543 50.2865 77.1752 50.1939 77.1892C50.0387 77.2126 49.8801 77.1932 49.7353 77.1329C49.6285 77.0897 49.5315 77.0254 49.4501 76.9439L42.922 70.4712C41.8361 69.3939 39.9814 70.1587 39.9814 71.6821V90.0728C39.9814 90.5314 40.1665 90.9712 40.4954 91.2923L48.8993 99.5087C49.2264 99.8275 49.6661 100.004 50.1228 100C50.5795 99.9963 51.0162 99.812 51.3376 99.4876L58.9345 91.8048C59.2509 91.4845 59.4282 91.054 59.4282 90.6056V72.3423C59.4282 70.8056 57.5486 70.0478 56.4697 71.1486L50.8329 76.9048ZM84.3736 66.147C83.2954 67.2361 81.4329 66.4845 81.422 64.9587L81.2993 46.5431C81.2962 46.0939 81.4712 45.6603 81.7868 45.3384L94.1157 32.747C95.1947 31.6454 97.0743 32.404 97.0743 33.9407V52.6236C97.0743 53.072 96.897 53.504 96.5798 53.8235L84.3736 66.147ZM18.6939 47.1626C18.6954 46.9354 18.6515 46.7102 18.5647 46.5002C18.4779 46.2902 18.35 46.0997 18.1884 45.94L5.86575 33.7228C4.77981 32.6462 2.9259 33.4103 2.9259 34.9337V53.8704C2.9259 54.329 3.11106 54.7689 3.44153 55.0907L15.6392 66.997C16.7251 68.0556 18.5603 67.2993 18.5704 65.786L18.6939 47.1626ZM81.4712 73.4532C81.4698 73.2286 81.5128 73.0059 81.5978 72.7979C81.6828 72.5899 81.8081 72.4008 81.9665 72.2415L94.1228 59.9704C95.204 58.879 97.0736 59.6392 97.0736 61.1712V83.8946C97.0736 84.3665 96.8782 84.8173 96.5322 85.1407L84.5189 96.3806C83.4228 97.4056 81.6243 96.64 81.6142 95.1454L81.4712 73.4532Z" fill="black"/>
</g>
<defs>
<clipPath id="clip0_1085_4276">
<rect width="100" height="100" fill="white"/>
</clipPath>
</defs>
</svg>
