<svg width="100" height="100" viewBox="0 0 100 100" fill="none" xmlns="http://www.w3.org/2000/svg">
<g clip-path="url(#clip0_1085_4278)">
<path d="M29.4538 99.562L17.4241 88.0136C17.2803 87.881 17.1654 87.7199 17.0869 87.5407C17.0083 87.3615 16.9678 87.1679 16.9678 86.9722C16.9678 86.7765 17.0083 86.5829 17.0869 86.4037C17.1654 86.2245 17.2803 86.0634 17.4241 85.9308L29.4632 74.3894C29.755 74.1087 30.1442 73.9519 30.5491 73.9519C30.9541 73.9519 31.3433 74.1087 31.6351 74.3894L43.6757 85.9386C44.2835 86.5089 44.2835 87.4511 43.6757 88.0214L31.6359 99.5628C31.3442 99.8439 30.955 100.001 30.5499 100.001C30.1449 100.001 29.7556 99.8439 29.464 99.5628L29.4538 99.562ZM48.9124 80.898L36.8734 69.3488C36.7307 69.2162 36.617 69.0556 36.5392 68.8771C36.4614 68.6986 36.4212 68.506 36.4212 68.3113C36.4212 68.1165 36.4614 67.9239 36.5392 67.7454C36.617 67.5669 36.7307 67.4063 36.8734 67.2738L48.9124 55.7253C49.2042 55.4446 49.5934 55.2878 49.9984 55.2878C50.4033 55.2878 50.7925 55.4446 51.0843 55.7253L63.1171 67.2738C63.7249 67.8441 63.7249 68.7863 63.1171 69.3566L51.0859 80.898C50.7938 81.1764 50.4058 81.3318 50.0023 81.3318C49.5987 81.3318 49.2107 81.1764 48.9187 80.898H48.9124ZM68.3718 62.2324L56.3405 50.6831C56.1976 50.5508 56.0835 50.3903 56.0056 50.2117C55.9276 50.0332 55.8873 49.8405 55.8873 49.6456C55.8873 49.4508 55.9276 49.2581 56.0056 49.0796C56.0835 48.901 56.1976 48.7405 56.3405 48.6081L68.3749 37.0605C68.6667 36.7798 69.0559 36.623 69.4609 36.623C69.8658 36.623 70.255 36.7798 70.5468 37.0605L82.5796 48.6081C82.7226 48.7405 82.8366 48.901 82.9146 49.0796C82.9926 49.2581 83.0329 49.4508 83.0329 49.6456C83.0329 49.8405 82.9926 50.0332 82.9146 50.2117C82.8366 50.3903 82.7226 50.5508 82.5796 50.6831L70.539 62.2324C70.2471 62.5127 69.8581 62.6692 69.4534 62.6692C69.0488 62.6692 68.6598 62.5127 68.3679 62.2324H68.3757H68.3718ZM29.8202 62.5816L17.7796 51.0417C17.6369 50.9089 17.5231 50.7481 17.4452 50.5693C17.3674 50.3905 17.3272 50.1976 17.3272 50.0027C17.3272 49.8077 17.3674 49.6148 17.4452 49.436C17.5231 49.2573 17.6369 49.0965 17.7796 48.9636L29.8202 37.4089C30.1119 37.1283 30.501 36.9715 30.9058 36.9715C31.3106 36.9715 31.6996 37.1283 31.9913 37.4089L44.0304 48.9589C44.1733 49.0913 44.2874 49.2518 44.3654 49.4303C44.4434 49.6089 44.4836 49.8016 44.4836 49.9964C44.4836 50.1913 44.4434 50.384 44.3654 50.5625C44.2874 50.741 44.1733 50.9015 44.0304 51.0339L31.9921 62.591C31.7001 62.8713 31.311 63.0279 30.9062 63.0279C30.5014 63.0279 30.1122 62.8713 29.8202 62.591V62.5816ZM49.278 43.9175L37.2374 32.3761C37.0937 32.2432 36.979 32.082 36.9006 31.9027C36.8222 31.7233 36.7817 31.5297 36.7817 31.3339C36.7817 31.1382 36.8222 30.9445 36.9006 30.7652C36.979 30.5858 37.0937 30.4246 37.2374 30.2917L49.278 18.7441C49.5698 18.4632 49.959 18.3063 50.364 18.3063C50.769 18.3063 51.1582 18.4632 51.4499 18.7441L63.4812 30.2917C63.6244 30.4241 63.7386 30.5847 63.8168 30.7634C63.8949 30.9421 63.9353 31.135 63.9353 31.33C63.9353 31.525 63.8949 31.718 63.8168 31.8966C63.7386 32.0753 63.6244 32.2359 63.4812 32.3683L51.4499 43.916C51.1582 44.1951 50.7701 44.3509 50.3663 44.3509C49.9626 44.3509 49.5744 44.1951 49.2827 43.916V43.9081V43.912L49.278 43.9175ZM30.1921 25.6285L18.1452 14.0441C18.0013 13.9114 17.8865 13.7503 17.8079 13.571C17.7294 13.3917 17.6888 13.198 17.6888 13.0023C17.6888 12.8065 17.7294 12.6129 17.8079 12.4336C17.8865 12.2543 18.0013 12.0932 18.1452 11.9605L30.1929 0.43783C30.4846 0.156929 30.8738 0 31.2788 0C31.6838 0 32.073 0.156929 32.3648 0.43783L44.4038 11.9863C45.0132 12.5574 45.0132 13.4995 44.4038 14.0699L32.357 25.5933C32.0652 25.8742 31.676 26.0311 31.271 26.0311C30.866 26.0311 30.4768 25.8742 30.1851 25.5933L30.1929 25.6183L30.1921 25.6285Z" fill="#50D18D"/>
</g>
<defs>
<clipPath id="clip0_1085_4278">
<rect width="100" height="100" fill="white"/>
</clipPath>
</defs>
</svg>
