<svg width="100" height="100" viewBox="0 0 100 100" fill="none" xmlns="http://www.w3.org/2000/svg">
<path d="M61.0602 23.428V24.8554C64.3048 24.8554 65.3665 24.9772 66.6712 26.8108L78.0665 43.5476L67.7892 58.5608C65.2532 62.2327 61.4149 62.2968 60.286 62.2968V63.7241C61.2157 63.646 62.5642 63.6241 63.7813 63.6163C62.6063 71.1147 61.211 75.1655 51.6298 75.1655H43.4313C41.072 75.1655 40.9603 74.8679 40.9603 72.8351V56.3218H46.5329C52.1063 56.3218 52.6376 58.364 52.6376 63.3499H53.5868V47.9827H52.6376C52.6376 52.8843 52.1048 54.8882 46.5329 54.8882H40.9595V40.2476C40.9595 38.2538 41.072 37.9562 43.4306 37.9562H51.5071C60.6478 37.9562 61.7126 41.589 62.5407 49.3999H63.6048L62.1876 36.3343H36.4509L35.4985 23.5124H1.38682L0.38916 36.5772H1.45166C2.21416 26.7921 3.05244 25.0788 12.2134 25.0788H15.4751C16.6032 25.2554 16.6032 25.9733 16.6032 27.3327V59.4905C16.6032 61.6257 16.4235 62.2772 11.4478 62.2772H9.77119V63.7038C12.6056 63.6491 15.5587 63.5921 18.4563 63.5921C21.3454 63.5921 24.3079 63.6491 27.1399 63.7038V62.2772H25.4915C20.5892 62.2772 20.4134 61.6257 20.4134 59.4905V27.3343C20.4134 26.0296 20.4134 25.3218 21.4759 25.0804H24.7181C33.679 25.0804 34.6259 26.7593 35.3853 36.3343H32.2759V37.9562C36.4595 37.9562 37.1298 37.9562 37.1298 40.6124V72.4913C37.1298 75.1476 36.4681 75.1476 32.2751 75.1476V76.5741H63.0173L64.8603 63.6116H65.2993C66.8931 63.6116 69.6696 63.6108 71.1415 63.7233V62.296C69.3142 62.1194 68.7852 60.9366 68.7852 59.9843C68.7852 59.221 69.0743 58.8015 69.372 58.3819L78.8212 44.5913L89.0977 59.696C89.5626 60.3491 89.5626 60.5257 89.5626 60.703C89.5626 61.1679 89.0337 62.1843 86.9649 62.3054V63.7327C88.8563 63.6202 91.7454 63.6202 93.6915 63.6202C95.2212 63.6202 98.1735 63.6202 99.6071 63.7327V62.3054C95.8235 62.3054 95.2282 62.0163 94.054 60.3491L81.0657 41.3476L89.8056 28.7116C90.6806 27.471 92.4618 24.9187 97.3087 24.8538V23.428C95.9556 23.5405 93.7118 23.5405 92.2946 23.5405C90.3478 23.5405 87.9235 23.5405 86.4517 23.428V24.8546C88.3438 25.0319 88.8087 26.214 88.8087 27.1671C88.8087 27.8726 88.5196 28.3491 88.1009 28.9358L80.3017 40.2483L71.5626 27.4538C71.1524 26.8108 71.0954 26.6241 71.0954 26.4468C71.0954 25.9155 71.7384 24.9093 73.6946 24.853V23.4272C71.8032 23.5397 68.9142 23.5397 66.9681 23.5397C65.4384 23.5397 62.486 23.5397 61.0587 23.4272L61.0602 23.428Z" fill="black"/>
</svg>
