<svg width="100" height="100" viewBox="0 0 100 100" fill="none" xmlns="http://www.w3.org/2000/svg">
<path d="M34.2969 82.7334H5.625L13.0469 65.1553H33.125L55.4688 13.3584H31.4844L13.9062 54.2959H24.6875C25.4688 55.5459 26.7969 56.4053 28.3594 56.4053C30.7031 56.4053 32.6562 54.4522 32.6562 52.1084C32.6562 49.7646 30.7031 47.8115 28.3594 47.8115C26.6406 47.8115 25.1562 48.8272 24.4531 50.3115H19.2969L33.9062 17.2646H49.6094L30.7813 61.1709L10.9375 61.3272L0 86.6397H36.875L41.7188 76.0928H57.7344L63.0469 86.6397H100L66.6406 13.3584L34.2969 82.7334ZM43.75 71.9522L49.5312 59.374L55.7812 71.9522H43.75ZM65.4688 83.2022L61.7969 75.8584H73.2031C73.9844 77.2647 75.3906 78.2022 77.0312 78.2022C79.375 78.2022 81.3281 76.249 81.3281 73.9053C81.3281 71.5615 79.375 69.6084 77.0312 69.6084C75.3125 69.6084 73.75 70.7022 73.0469 72.1865H60.0781L51.4063 55.1553L57.8125 41.0928L65 55.7803H68.3594C69.0625 57.1865 70.5469 58.2803 72.2656 58.2803C74.6094 58.2803 76.5625 56.3272 76.5625 53.9834C76.5625 51.6397 74.6094 49.6865 72.2656 49.6865C70.4688 49.6865 68.9062 50.7803 68.2812 52.4209H67.0312L59.6094 37.2647L66.7188 21.7178L94.5312 83.2022H65.4688Z" fill="#00BCB4"/>
</svg>
