<svg width="100" height="100" viewBox="0 0 100 100" fill="none" xmlns="http://www.w3.org/2000/svg">
<path d="M18.1155 0.0141602L89.4046 15.6243H97.1187V99.9993H16.2593C14.9125 99.9993 13.6208 99.4643 12.6685 98.512C11.7162 97.5596 11.1812 96.268 11.1812 94.9212V73.661L17.9655 0.233691L18.1155 0.0141602Z" fill="#36697F"/>
<path d="M18.1157 0H85.1079C86.4547 0 87.7464 0.535015 88.6987 1.48735C89.651 2.43968 90.186 3.73132 90.186 5.07812V70.3125H18.1157V0Z" fill="#37A5CC"/>
<path d="M18.1157 70.3125V0L2.88135 9.17969V79.4922L18.1157 70.3125Z" fill="#7DC6DD"/>
<path d="M53.5392 14.8438C44.2986 14.8438 39.1212 20.1875 38.8439 26.1438H47.972C48.1947 23.6945 49.6986 21.6352 52.9822 21.6352C55.8212 21.6352 57.5462 22.9156 57.5462 25.4758V26.8117C57.5462 30.0406 54.7079 30.9312 51.9243 30.9312H48.9181V37.4438H51.9243C54.7079 37.4438 58.9384 38.168 58.9384 42.3984V43.5672C58.9384 47.0734 56.7118 48.6883 53.3158 48.6883C49.4197 48.6883 47.8048 46.4617 47.5267 44.1234H38.3986C39.0111 49.8578 42.9079 55.5906 53.8181 55.5906C62.3345 55.5906 68.6243 50.9703 68.6243 44.6805V42.0641C68.6243 36.9984 64.0048 34.382 60.1634 33.7141C64.0048 32.8234 67.122 29.9852 67.122 26.7008V24.5852C67.1212 18.8516 61.4431 14.8438 53.5392 14.8438ZM32.2657 77.2383V92.0039H35.4298V82.0898L38.0447 92.0039H41.5251V91.9836L43.9939 82.4703V92.0047H47.4947V77.2391H42.9806L43.0017 77.2805L39.8798 89.093L36.9056 77.2383H32.2657ZM53.6079 77.2383L49.3892 92.0039H53.0595L53.8822 88.7774H58.3118L59.2181 92.0039H62.9736L58.5228 77.2383H53.6079ZM64.4986 77.2383L68.6743 84.1992L64.0126 92.0039H68.0626L70.9532 86.4359L73.8001 92.0047H77.9564L73.2939 83.8836L77.4915 77.2391H73.5892L71.0368 81.9422H71.0157L68.5267 77.2391L64.4986 77.2383ZM56.0548 79.6648L57.5939 86.0352H54.5572L56.0548 79.6648Z" fill="white"/>
</svg>
