<svg width="100" height="100" viewBox="0 0 100 100" fill="none" xmlns="http://www.w3.org/2000/svg">
<g clip-path="url(#clip0_1085_4295)">
<path d="M7.19589 1.5561e-05H92.8045C93.739 -0.00194139 94.6647 0.180699 95.5285 0.537452C96.3923 0.894205 97.1771 1.41805 97.8379 2.0789C98.4987 2.73976 99.0224 3.52462 99.3791 4.38843C99.7357 5.25223 99.9183 6.17798 99.9162 7.11251V92.8875C99.9183 93.8221 99.7357 94.7478 99.3791 95.6116C99.0224 96.4754 98.4987 97.2603 97.8379 97.9211C97.1771 98.582 96.3923 99.1058 95.5285 99.4626C94.6647 99.8193 93.739 100.002 92.8045 100H7.19511C6.26057 100.002 5.33485 99.8193 4.47108 99.4626C3.60731 99.1058 2.82251 98.582 2.16173 97.9211C1.50094 97.2603 0.977187 96.4754 0.620528 95.6116C0.26387 94.7478 0.0813317 93.8221 0.0833913 92.8875V7.11251C0.0813317 6.17798 0.26387 5.25223 0.620528 4.38843C0.977187 3.52462 1.50094 2.73976 2.16173 2.0789C2.82251 1.41805 3.60731 0.894205 4.47108 0.537452C5.33485 0.180699 6.26057 -0.00194139 7.19511 1.5561e-05H7.19589Z" fill="#005F0F"/>
<path d="M85.1696 13.636C72.8751 28.7017 57.8595 41.3204 41.847 52.2587C36.6415 55.9853 30.8954 59.3017 26.8931 64.404C25.3642 67.0892 24.9954 70.8712 27.6087 73.0501C31.961 77.1517 38.74 78.0438 44.1923 75.7478C51.8251 72.8407 57.0978 66.222 61.529 59.6618C71.4181 45.4149 77.4157 29.029 85.1696 13.636Z" fill="white"/>
<path d="M78.118 18.8438C62.8101 30.9727 50.5664 37.5273 34.9109 43.1664C30.1859 45.1883 25.1219 47.7539 22.9273 52.7148C20.668 57.4078 21.4086 63.9531 24.0008 68.2992C23.807 66.4695 24.7844 63.5141 26.2383 62.1266C31.0633 56.7531 37.3476 53.2328 42.8758 49.1523L42.889 49.1414L42.9023 49.132C55.6953 40.3461 67.6906 30.3062 78.118 18.8438Z" fill="#AEA99F"/>
</g>
<defs>
<clipPath id="clip0_1085_4295">
<rect width="100" height="100" fill="white"/>
</clipPath>
</defs>
</svg>
