<svg width="100" height="100" viewBox="0 0 100 100" fill="none" xmlns="http://www.w3.org/2000/svg">
<path d="M32.7163 12.0007H2.69543C2.0419 11.9985 1.41577 11.7379 0.953657 11.2758C0.491542 10.8137 0.230957 10.1876 0.22876 9.53404C0.233167 8.88129 0.496135 8.25689 0.96005 7.79767C1.42396 7.33844 2.05099 7.08182 2.70376 7.08404H32.7246C38.9329 7.08404 45.0579 9.05904 50.0454 12.6465C55.1094 9.0392 61.1696 7.09534 67.3871 7.08404H97.3788C97.7027 7.08184 98.0239 7.14347 98.324 7.26541C98.6241 7.38735 98.8973 7.5672 99.1279 7.79471C99.3585 8.02221 99.542 8.29291 99.668 8.59135C99.794 8.88978 99.8599 9.21011 99.8621 9.53404C99.8555 10.1879 99.5908 10.8127 99.1257 11.2724C98.6606 11.7321 98.0327 11.9893 97.3788 11.9882H67.3871C62.6147 11.9986 57.947 13.3877 53.9454 15.9882C55.4246 17.4757 56.7413 19.1299 57.8538 20.9049C61.7602 18.2311 66.3824 16.7978 71.1163 16.7924H97.3788C98.0323 16.7901 98.6602 17.0465 99.1255 17.5055C99.5907 17.9645 99.8555 18.5889 99.8621 19.2424C99.8555 19.8963 99.5908 20.5211 99.1257 20.9807C98.6606 21.4404 98.0327 21.6977 97.3788 21.6965H71.1163C67.1329 21.6965 63.2246 22.9799 60.0579 25.3174C60.8663 27.284 61.4413 29.3299 61.7954 31.4299C63.3525 29.7953 65.2261 28.4949 67.3021 27.6081C69.3781 26.7212 71.613 26.2665 73.8704 26.2715H97.3788C97.7836 26.2704 98.1825 26.369 98.5403 26.5586C98.898 26.7481 99.2036 27.0228 99.4301 27.3584C99.6566 27.694 99.797 28.0802 99.8389 28.4828C99.8808 28.8855 99.8229 29.2923 99.6704 29.6674C99.4798 30.1168 99.1605 30.4997 98.7527 30.7681C98.3449 31.0365 97.8669 31.1783 97.3788 31.1757H73.9204C70.8459 31.1601 67.8904 32.3632 65.7007 34.5216C63.5111 36.68 62.2657 39.6179 62.2371 42.6924V57.3215C62.2538 63.6632 67.4954 68.834 73.9204 68.8382H97.6079L97.6913 68.8465C98.3421 68.8884 98.95 69.1862 99.3818 69.6751C99.8136 70.1639 100.034 70.8038 99.9954 71.4549C99.9481 72.076 99.6674 72.6563 99.2099 73.0791C98.7523 73.5019 98.1517 73.7358 97.5288 73.734H73.9163C64.7621 73.7174 57.2996 66.3632 57.2913 57.3299V36.259C57.2663 22.8965 46.2496 12.0215 32.7121 12.0049L32.7163 12.0007Z" fill="url(#paint0_linear_867_13921)"/>
<path d="M2.6957 21.6803H28.9874C39.1749 21.6803 47.4624 29.8761 47.454 39.9303V60.0886C47.454 72.8386 57.9707 83.2219 70.904 83.2219H97.1957C97.8492 83.2275 98.4782 82.9735 98.9446 82.5157C99.4109 82.0579 99.6766 81.4337 99.6832 80.7803C99.6827 80.4557 99.6179 80.1344 99.4925 79.835C99.3672 79.5355 99.1838 79.2639 98.9529 79.0358C98.722 78.8076 98.4482 78.6274 98.1473 78.5056C97.8465 78.3838 97.5244 78.3228 97.1999 78.3261H70.854C67.2186 78.3401 63.6601 77.2798 60.6252 75.2783C57.5903 73.2768 55.2144 70.4233 53.7957 67.0761C52.8684 64.8592 52.3938 62.4792 52.3999 60.0761V39.9344C52.3999 27.2053 41.8999 16.8136 28.9915 16.7886H2.6957C2.04222 16.7864 1.41456 17.0436 0.950529 17.5037C0.486495 17.9638 0.224011 18.5893 0.220703 19.2428C0.227301 19.8941 0.491234 20.5163 0.954911 20.9738C1.41859 21.4312 2.04437 21.6825 2.6957 21.6803Z" fill="url(#paint1_linear_867_13921)"/>
<path d="M97.3373 87.9816H97.5998C97.9363 87.9844 98.2676 88.0639 98.5687 88.2141C98.8698 88.3643 99.1327 88.5812 99.3373 88.8482C99.6475 89.2036 99.8484 89.641 99.9156 90.1079C99.9829 90.5748 99.9137 91.0511 99.7164 91.4796C99.5191 91.9081 99.2022 92.2703 98.8037 92.5228C98.4053 92.7752 97.9423 92.9071 97.4706 92.9024L97.3873 92.8941H67.3457C61.1332 92.892 55.0764 90.9502 50.0207 87.3399C44.9537 90.9403 38.8949 92.8808 32.679 92.8941H2.52483L2.44149 92.8857H2.36649C1.72765 92.8491 1.12851 92.5639 0.697169 92.0912C0.265831 91.6186 0.0365337 90.9959 0.0583047 90.3564C0.0800757 89.7169 0.351187 89.1113 0.813671 88.669C1.27615 88.2268 1.8933 87.983 2.53316 87.9899L2.61649 87.9982H32.6665C37.4492 87.9996 42.1297 86.6146 46.1415 84.0107C44.6632 82.5157 43.3501 80.8659 42.2248 79.0899C38.3251 81.7711 33.7032 83.2052 28.9707 83.2024H2.68316C2.02857 83.2068 1.39896 82.9513 0.932583 82.492C0.466202 82.0326 0.201165 81.407 0.19566 80.7524C0.201165 80.0989 0.465763 79.4743 0.931362 79.0158C1.39696 78.5572 2.0255 78.3021 2.67899 78.3066H29.0123C32.9748 78.3066 36.8332 77.0399 40.0248 74.6941C39.2246 72.7295 38.6446 70.6823 38.2957 68.5899C36.7333 70.221 34.856 71.5177 32.7775 72.4016C30.699 73.2854 28.4626 73.7379 26.204 73.7316H2.46649C1.8325 73.697 1.23659 73.418 0.803967 72.9532C0.371339 72.4885 0.135662 71.8742 0.14645 71.2393C0.157237 70.6045 0.413649 69.9986 0.861817 69.5488C1.30998 69.099 1.91502 68.8404 2.54983 68.8274L2.63316 68.8399H26.1748C32.604 68.8316 37.8415 63.6566 37.854 57.3191V42.6982C37.8457 36.3482 32.6123 31.1816 26.179 31.1816H2.68733C2.36305 31.1838 2.04152 31.122 1.74114 30.9998C1.44076 30.8776 1.16742 30.6974 0.936766 30.4694C0.706111 30.2415 0.522666 29.9703 0.396929 29.6714C0.271192 29.3725 0.205629 29.0517 0.203993 28.7274C0.206175 28.4035 0.272139 28.0831 0.39812 27.7847C0.524101 27.4863 0.707632 27.2156 0.938232 26.9881C1.16883 26.7606 1.44199 26.5807 1.7421 26.4588C2.04221 26.3368 2.3634 26.2752 2.68733 26.2774H26.179C35.3248 26.2941 42.7957 33.6566 42.804 42.6816V63.7482C42.8123 77.1191 53.8373 88.0024 67.3832 88.0191H97.1415L97.3373 87.9857V87.9816Z" fill="url(#paint2_linear_867_13921)"/>
<defs>
<linearGradient id="paint0_linear_867_13921" x1="-0.000406967" y1="47.9174" x2="97.7079" y2="62.8799" gradientUnits="userSpaceOnUse">
<stop stop-color="#6865FC"/>
<stop offset="1" stop-color="#467DF9"/>
</linearGradient>
<linearGradient id="paint1_linear_867_13921" x1="-0.000130131" y1="47.9178" x2="97.7082" y2="62.8803" gradientUnits="userSpaceOnUse">
<stop stop-color="#6865FC"/>
<stop offset="1" stop-color="#467DF9"/>
</linearGradient>
<linearGradient id="paint2_linear_867_13921" x1="-0.000173087" y1="47.9149" x2="97.7082" y2="62.8774" gradientUnits="userSpaceOnUse">
<stop stop-color="#6865FC"/>
<stop offset="1" stop-color="#467DF9"/>
</linearGradient>
</defs>
</svg>
