<svg width="100" height="100" viewBox="0 0 100 100" fill="none" xmlns="http://www.w3.org/2000/svg">
<g clip-path="url(#clip0_867_21572)">
<path d="M46.2415 31.5142H19.7915V40.71H27.1665V68.4933H38.8623V40.71H46.2373L46.2415 31.5142ZM61.7165 31.5142H50.0207V68.4933H61.7165V31.5142ZM80.9707 31.5142H69.2748V68.4933H80.9707V31.5142Z" fill="#6400FF"/>
<path d="M50 99.9995V95.6037C62.5417 95.6037 73.3875 91.1078 82.2375 82.237C91.0833 73.362 95.6083 62.5412 95.6083 49.9995C95.6083 37.462 91.1083 26.637 82.2375 17.7662C73.3708 8.89118 62.5208 4.39118 50.0042 4.39118V-0.000488281C63.7292 -0.000488281 75.6208 4.93284 85.3458 14.6578C95.0708 24.3828 100 36.2745 100 49.9995C100 63.7287 95.0708 75.6453 85.3417 85.3453C75.6125 95.0453 63.75 99.9995 50.0042 99.9995H50Z" fill="#6400FF"/>
</g>
<defs>
<clipPath id="clip0_867_21572">
<rect width="100" height="100" fill="white"/>
</clipPath>
</defs>
</svg>
