<svg width="100" height="100" viewBox="0 0 100 100" fill="none" xmlns="http://www.w3.org/2000/svg">
<g clip-path="url(#clip0_867_13890)">
<g clip-path="url(#clip1_867_13890)">
<path fill-rule="evenodd" clip-rule="evenodd" d="M7.44262 52.9879H11.4182L13.8646 38.5129H9.88911L7.44262 52.9879ZM12.2337 36.6781C13.4569 36.6781 14.5782 35.7606 14.6801 34.6393C14.7821 33.518 13.9666 32.6006 12.7433 32.6006C11.5201 32.6006 10.5007 33.518 10.2969 34.6393C10.1949 35.7606 11.1123 36.6781 12.2337 36.6781ZM8.97168 38.5129H6.21938L6.831 35.0471H2.75353L2.24385 38.5129H0.307047L-0.202637 41.571H1.73416L0.510921 49.1143C0.00123689 51.8666 1.63223 53.2938 4.58839 53.1918C5.60776 53.1918 6.42326 52.9879 6.831 52.7841L6.72907 49.8279H6.62713L5.7097 49.9298C4.8942 49.9298 4.38452 49.624 4.58839 48.5027L5.7097 41.571H8.46199L8.97168 38.5129ZM21.6118 41.673C19.9809 41.673 18.6557 42.7943 18.3499 44.6291L16.9227 52.9879H12.9472L15.3937 38.5129H19.1654L18.7576 41.0613H18.9615C19.8789 39.4304 21.6118 38.309 23.7525 38.309C26.7087 38.309 28.4416 40.4497 27.83 43.8136L26.3009 52.9879H22.3254L23.7525 44.5272C23.9564 42.6923 23.2428 41.673 21.6118 41.673ZM34.7617 54.517C34.252 55.6383 33.5384 56.5557 32.7229 57.1674H72.2744L75.3325 38.5129H79.3081L78.9003 40.9594H79.1042C79.8178 39.7362 81.2449 38.309 83.6914 38.309C86.8514 38.309 89.094 40.8575 88.2785 45.7504C87.463 50.6434 84.5068 53.1918 81.1429 53.1918C78.7984 53.1918 77.881 51.8666 77.4732 50.6434H77.3713L76.25 57.1674H92.9676L88.5843 52.7841L91.1327 50.2357L99.5935 58.6964L99.4916 58.9003L99.5935 59.0022L91.1327 67.463L88.5843 64.9146L92.7637 60.7351H-0.1007V57.1674H26.7087L27.728 54.9247C29.0532 55.4344 29.9707 55.3325 30.7862 54.0073L31.1939 53.3957L28.4416 38.5129H32.5191L33.7423 49.2163H33.8443L38.6353 38.5129H43.1205L34.7617 54.517ZM49.6445 41.673C48.0135 41.673 46.6883 42.7943 46.3825 44.6291L45.0573 52.9879H40.9798L44.2418 33.7219H48.1154L46.8922 41.0613H47.096C48.0135 39.3284 49.6445 38.309 51.8871 38.309C54.8432 38.309 56.4742 40.3478 55.9645 43.8136L54.4355 52.9879H50.358L51.7851 44.5272C52.0909 42.6923 51.2754 41.673 49.6445 41.673ZM65.7505 38.5129H63.2021L63.7117 35.0471H59.7362L59.1246 38.5129H57.1878L56.6781 41.571H58.7168L57.3917 49.1143C56.882 51.8666 58.6149 53.2938 61.5711 53.1918C62.5904 53.1918 63.4059 52.9879 63.8137 52.7841L63.7117 49.8279H63.6098L62.6924 49.9298C61.8769 49.9298 61.3672 49.624 61.4691 48.5027L62.6924 41.571H67.2795L66.0563 49.1143C65.5466 51.8666 67.1776 53.2938 70.1338 53.1918C71.1531 53.1918 71.9686 52.9879 72.3764 52.7841L72.2744 49.8279H72.1725L71.2551 49.9298C70.4396 49.9298 69.9299 49.624 70.1338 48.5027L71.2551 41.571H74.0074L74.517 38.5129H71.7647L72.3764 35.0471H68.2989L67.7892 38.5129H65.7505ZM78.0848 45.7504C78.4926 43.202 79.9197 41.571 81.8565 41.571C83.7933 41.571 84.6088 43.3039 84.201 45.7504C83.6914 48.2989 82.3662 50.0318 80.4294 50.0318C78.4926 50.0318 77.6771 48.2989 78.0848 45.7504Z" fill="url(#paint0_linear_867_13890)"/>
</g>
</g>
<defs>
<linearGradient id="paint0_linear_867_13890" x1="49.6852" y1="32.5904" x2="49.6852" y2="67.4834" gradientUnits="userSpaceOnUse">
<stop stop-color="#C75975"/>
<stop offset="1" stop-color="#9A84CD"/>
</linearGradient>
<clipPath id="clip0_867_13890">
<rect width="100" height="100" fill="white"/>
</clipPath>
<clipPath id="clip1_867_13890">
<rect width="100" height="35.0663" fill="white" transform="translate(-0.304688 32.4985)"/>
</clipPath>
</defs>
</svg>
