<svg width="100" height="100" viewBox="0 0 100 100" fill="none" xmlns="http://www.w3.org/2000/svg">
<g clip-path="url(#clip0_1085_4301)">
<path d="M74.1664 99.9375C72.8421 99.8068 71.5285 99.5841 70.2352 99.2711C67.6703 98.6289 65.5735 97.8047 62.2563 96.1336C59.5328 94.7633 57.1844 93.3797 51.8836 90.0305L50.0578 88.8758L47.1 90.8258C39.9695 95.5336 35.0766 97.8961 29.55 99.3258C28.1758 99.675 26.1281 99.925 25.3313 99.8414C23.3969 99.6336 22.7867 99.525 22.2102 99.3086C19.1859 98.1758 17.4563 95.8672 17.0883 92.4672C16.8047 89.8133 17.5813 86.0016 19.0102 83.0766C19.4695 82.1266 19.6195 81.9266 20.2172 81.4352C21.0742 80.7312 23.7602 79.1688 30.3227 75.5484C31.4344 74.9359 32.3539 74.4234 32.3695 74.4109C32.3867 74.3984 31.3672 73.2484 30.0977 71.8562L26.9649 68.3992L26.1328 67.482L25.7695 67.9781C24.9805 69.0531 23.3711 71.5406 22.218 73.457C19.4274 78.1063 17.3766 82.8648 16.2445 87.3305C15.4172 90.5805 15.4258 92.9336 16.2734 95.4547C16.4117 95.8625 16.4828 96.1922 16.432 96.1922C16.307 96.1922 2.14454 82.0352 1.70626 81.4641C1.07039 80.5601 0.584985 79.5598 0.268763 78.5016C-0.0562373 77.3141 -0.0515498 74.8766 0.27345 73.1352C0.878037 69.9916 1.85711 66.9314 3.18986 64.0195C4.39298 61.3742 7.53439 55.7461 10.0742 51.6836L11.4742 49.4414L11.1649 49.0453C10.5508 48.2664 8.47814 44.9047 6.94611 42.1961C5.74046 40.0182 4.64023 37.7838 3.64923 35.5008C2.45392 32.543 1.47736 29.1477 1.24689 27.1852C1.11974 25.3303 1.15764 23.4678 1.36017 21.6195C1.68595 19.3945 3.48204 17.7281 6.19767 17.1445C7.25861 16.9156 10.0242 17.0273 11.9086 17.3734C14.0805 17.7781 17.932 19.0945 18.7602 19.7195C18.9857 19.8898 19.4438 20.6023 20.1344 21.857C20.7024 22.8898 21.9641 25.1695 22.9414 26.9188C23.9149 28.6688 24.9719 30.5852 25.2852 31.1844C25.6024 31.7812 25.8828 32.268 25.9117 32.268C25.9867 32.2727 32.6125 25.6734 32.575 25.6352C31.7726 25.1634 30.9664 24.6983 30.1563 24.2398L26 21.857C19.4156 18.0695 15.2461 16.4898 10.3961 15.9406C9.22658 15.8078 5.75079 15.8742 4.89845 16.0445C4.46408 16.1281 4.60626 15.9695 9.22267 11.2945C16.5961 3.8375 19.0524 1.46641 20.0219 0.879688C20.476 0.622599 20.9547 0.41165 21.4508 0.25C22.1485 0.0296875 22.4531 0 23.9484 0C25.4945 0.0046875 25.7656 0.0335938 26.9774 0.3375C30.6742 1.27109 35.6961 3.17891 39.7484 5.2C41.7953 6.22109 43.6086 7.29141 46.2656 9.04531C47.5563 9.89531 48.8352 10.6742 49.1149 10.7789C50.2008 11.1953 50.8399 10.9953 52.7453 9.66172C59.5969 4.85938 66.8781 1.4375 72.3672 0.433594C76.1438 -0.257812 78.0195 -0.124219 80.1797 0.988281C81.132 1.47969 81.1406 1.48828 87.9414 8.32109C91.6836 12.0828 94.9727 15.4039 95.2477 15.7039L95.7492 16.2453L94.8172 16.05C91.9602 15.4453 88.5891 15.6453 85.4969 16.6031C82.1219 17.6453 78.9344 19.1617 71.9406 23.032C69.5719 24.3445 67.5922 25.457 67.5422 25.5023C67.4875 25.5523 68.8703 27.0445 70.7172 28.9359L73.9961 32.2812L74.3305 31.6727C74.518 31.3398 75.8852 28.7977 77.3633 26.0273C78.8414 23.257 80.1875 20.7945 80.3508 20.5531C80.9313 19.707 81.5242 19.2953 82.8656 18.8195C86.3031 17.6031 90.218 16.8867 92.4531 17.0695C95.9875 17.3617 98.1594 19.6031 98.6195 23.432C98.7656 24.6234 98.711 25.557 98.3891 27.5102C97.4414 33.3023 94.8844 39.2133 89.7 47.5961C89.3336 48.1816 88.9729 48.7707 88.618 49.3633C88.543 49.5008 88.8149 49.9961 89.7797 51.4883C94.4836 58.7539 96.7813 63.1539 98.411 67.9914C99.5852 71.4828 100.04 73.6867 100.028 75.8992C100.023 77.7273 99.7313 78.9945 99 80.3609C98.3438 81.5984 97.7383 82.3445 96.4219 83.5523C93.5438 86.1937 92.4703 87.2477 89.5711 90.2648C86.425 93.5391 83.9524 96.0227 83.8899 95.9641C83.9063 95.7221 83.9455 95.4823 84.007 95.2477C84.8547 91.1852 84.2156 86.8984 81.9602 81.5945C81.0281 79.3945 78.5422 74.4539 77.4977 72.7195C76.1899 70.5578 74.2688 67.6875 74.1352 67.7C73.9633 67.7125 67.9016 74.1992 67.9016 74.3742C67.9016 74.4656 69.6274 75.4781 73.111 77.4367C80.6016 81.6445 80.3141 81.4281 81.161 83.4984C82.5188 86.8109 83.2078 89.9984 83.2078 93.0141C83.2078 94.2516 83.0703 95.068 82.707 95.9891C82.3215 96.9691 81.6959 97.8367 80.8878 98.5121C80.0798 99.1875 79.115 99.6491 78.082 99.8547C77.3305 100.005 75.5297 100.047 74.1719 99.9469L74.1664 99.9375ZM27.6274 97.2961C30.7227 96.65 33.4508 95.6711 36.9102 93.9711C40.3359 92.2836 43.6195 90.2836 48.1024 87.1594L49.6188 86.1016L51.1313 87.0094C53.1781 88.243 54.1102 88.8141 56.3953 90.2258C59.6953 92.2672 64.0735 94.6422 66.0992 95.4883C69.1156 96.7508 72.1406 97.45 75.2906 97.6211C77.7172 97.7539 79.075 97.2297 79.9899 95.7922C80.5164 94.9672 80.675 94.2086 80.6625 92.6383C80.6375 89.8844 80.0984 87.393 78.8414 84.2633C78.432 83.2477 78.3399 83.1391 77.4586 82.6227C74.5798 80.9911 71.6918 79.376 68.7945 77.7773C67.8087 77.2359 66.827 76.6872 65.8492 76.1312L63.9695 75.0648L65.2141 73.7312C65.8953 72.9984 67.5328 71.2734 68.8484 69.8984C70.1609 68.5281 71.5852 67.0195 72.011 66.5492L72.7797 65.6906L71.543 64.0617C69.9049 61.9008 68.231 59.7672 66.5219 57.6617C62.9914 53.2875 61.5172 51.5539 61.3789 51.6383C61.1664 51.7633 58.2375 54.55 53.6172 59.0117L49.2602 63.2281L48.0274 61.9367C44.7352 58.4789 38.4688 52.15 38.3352 52.15C38.0633 52.15 32.257 59.2539 28.9688 63.607L27.2016 65.9484L28.5766 67.4773C31.5844 70.8273 35.4695 75.2352 35.4695 75.3016C35.4695 75.3938 33.4594 76.5352 28.1375 79.4516C21.9672 82.8344 21.4109 83.1469 21.1945 83.3594C20.768 83.7719 19.6985 86.7133 19.3141 88.5094C19.0305 89.8633 18.9219 92.2594 19.0969 93.3C19.4063 95.1336 20.6047 96.5711 22.418 97.2789C23.5664 97.7289 25.5094 97.7375 27.6235 97.2961H27.6274ZM56.8125 52.675C58.4625 51.05 59.8039 49.6797 59.7867 49.6336C59.7078 49.4125 56.5617 46.0086 54.7781 44.2172C52.9313 42.3633 50.1195 39.8016 49.9359 39.8016C49.8109 39.8016 43.2313 46.4586 41.6641 48.1758L40.1602 49.8164L40.9203 50.6086C41.3383 51.05 43.4938 53.2586 45.7125 55.525L49.7438 59.6414L51.7742 57.6414L56.8078 52.6836L56.8125 52.675ZM13.5742 46.3961C16.0266 42.9719 19.4063 39.018 23.1078 35.218L24.4203 33.8727L24.1524 33.5227C23.8872 33.134 23.6447 32.7304 23.4258 32.3141C22.3265 30.3266 21.2192 28.3435 20.1039 26.3648L17.2383 21.2656L15.3164 20.6328C13.5117 20.032 11.557 19.5367 10.4789 19.4031C10.2156 19.3695 9.26798 19.2945 8.37345 19.2367C6.85704 19.1367 6.70236 19.1445 6.08829 19.3492C5.21095 19.6406 4.36251 20.2242 4.04142 20.7734C3.63204 21.4695 3.43126 23.207 3.48986 25.5445C3.53126 27.3609 3.55626 27.5312 3.97032 29.0977C5.18126 33.6937 6.91095 37.5219 10.425 43.3555C11.7656 45.5844 12.8477 47.3258 12.8891 47.3297C12.8977 47.3297 13.207 46.9133 13.5703 46.4L13.5742 46.3961ZM88.3953 45.1594C92.5477 38.1891 94.4695 34.0773 95.5727 29.7859C96.375 26.6609 96.5672 24.3734 96.157 22.7859C95.8024 21.4031 94.9414 20.1781 93.9977 19.7195C93.1164 19.2906 91.6078 19.0945 90.2672 19.2406C87.9511 19.5205 85.6764 20.073 83.4906 20.8867C82.6469 21.207 82.6719 21.1734 81.0633 24.2195C80.0228 26.1742 78.973 28.124 77.9141 30.0687C76.786 32.1523 75.8586 33.8852 75.8586 33.9266C75.8586 33.9688 76.5391 34.7016 77.3703 35.5516C78.9789 37.193 83.3531 42.4508 85.6547 45.5094C86.4156 46.5172 87.075 47.3055 87.1172 47.2594C87.1633 47.2094 87.7399 46.2672 88.3953 45.1641V45.1594Z" fill="#BD222B"/>
</g>
<defs>
<clipPath id="clip0_1085_4301">
<rect width="100" height="100" fill="white"/>
</clipPath>
</defs>
</svg>
