<svg width="100" height="100" viewBox="0 0 100 100" fill="none" xmlns="http://www.w3.org/2000/svg">
<g clip-path="url(#clip0_867_22462)">
<path opacity="0.2" fill-rule="evenodd" clip-rule="evenodd" d="M76.9252 46.1495C83.0451 46.1495 88.9143 43.7184 93.2417 39.391C97.5691 35.0636 100 29.1944 100 23.0745C100 16.9546 97.5691 11.0854 93.2417 6.75802C88.9143 2.43062 83.0451 -0.000488281 76.9252 -0.000488281C70.8054 -0.000488281 64.9362 2.43062 60.6088 6.75802C56.2814 11.0854 53.8502 16.9546 53.8502 23.0745C53.8502 29.1944 56.2814 35.0636 60.6088 39.391C64.9362 43.7184 70.8054 46.1495 76.9252 46.1495ZM76.9252 99.9995C83.0451 99.9995 88.9143 97.5684 93.2417 93.241C97.5691 88.9136 100 83.0444 100 76.9245C100 70.8046 97.5691 64.9354 93.2417 60.608C88.9143 56.2806 83.0451 53.8495 76.9252 53.8495C70.8054 53.8495 64.9362 56.2806 60.6088 60.608C56.2814 64.9354 53.8502 70.8046 53.8502 76.9245C53.8502 83.0444 56.2814 88.9136 60.6088 93.241C64.9362 97.5684 70.8054 99.9995 76.9252 99.9995ZM23.0752 99.9995C29.1951 99.9995 35.0643 97.5684 39.3917 93.241C43.7191 88.9136 46.1502 83.0444 46.1502 76.9245C46.1502 70.8046 43.7191 64.9354 39.3917 60.608C35.0643 56.2806 29.1951 53.8495 23.0752 53.8495C16.9554 53.8495 11.0862 56.2806 6.75876 60.608C2.43135 64.9354 0.000244141 70.8046 0.000244141 76.9245C0.000244141 83.0444 2.43135 88.9136 6.75876 93.241C11.0862 97.5684 16.9554 99.9995 23.0752 99.9995Z" fill="black"/>
<path d="M23.0752 46.1495C35.8192 46.1495 46.1502 35.8185 46.1502 23.0745C46.1502 10.3305 35.8192 -0.000488281 23.0752 -0.000488281C10.3313 -0.000488281 0.000244141 10.3305 0.000244141 23.0745C0.000244141 35.8185 10.3313 46.1495 23.0752 46.1495Z" fill="#0F6FFF"/>
</g>
<defs>
<clipPath id="clip0_867_22462">
<rect width="100" height="100" fill="white"/>
</clipPath>
</defs>
</svg>
