<svg width="100" height="100" viewBox="0 0 100 100" fill="none" xmlns="http://www.w3.org/2000/svg">
<g clip-path="url(#clip0_1085_4307)">
<path d="M17.3031 61.1771C18.5034 62.6516 19.7695 64.0712 21.0976 65.4317C17.046 66.6505 14.3898 68.9145 12.7335 70.9138C10.1117 74.0778 8.72417 78.256 9.0437 81.8419H2.06714C3.46558 78.8052 9.05151 70.0333 17.3039 61.1778L17.3031 61.1771ZM98.1226 83.7442H89.6406C70.1796 73.5888 53.0937 66.4278 34.9437 64.8638C34.9812 62.3367 35.432 59.4794 36.296 56.2919L34.6242 55.8419C33.7367 59.1169 33.271 62.0802 33.2179 64.7325C31.3265 64.606 29.4234 64.545 27.5015 64.545C25.8757 64.545 24.3921 64.6942 23.039 64.956C21.275 63.195 19.7718 61.5122 18.496 59.9169C26.8664 51.1989 40.6546 43.3114 52.6546 40.3442C56.0335 51.5755 63.2867 59.2708 72.089 64.4481C72.7345 64.0804 73.3689 63.6935 73.9914 63.288L89.3476 79.8192L90.0195 79.7622C94.2132 79.4013 96.5968 81.6763 97.2273 82.3841C97.6921 82.8989 97.9695 83.3716 98.1226 83.7442Z" fill="#D1A41A"/>
<path d="M90.6314 28.4473C90.9432 43.7035 83.1596 55.8457 72.2619 62.0723C53.7658 52.8598 50.283 29.5129 53.4353 16.9902C54.3119 21.7793 55.9072 24.7816 59.351 26.2535C66.8619 24.1051 77.1978 23.9355 84.8119 26.0348C87.9838 23.7285 89.2135 20.2035 89.8861 17.1246C90.7236 20.7066 90.6283 28.4473 90.6314 28.4473Z" fill="#FFDC76"/>
<path d="M38.3565 45.5055L44.1065 42.8922L46.9276 51.2531L38.3565 45.5055ZM32.5034 48.5367L35.8503 46.5508L38.8792 51.7758L32.5034 48.5367ZM26.0229 52.8211L28.9495 50.6258L30.4128 55.8539L26.0229 52.8211ZM77.7628 66.6203L75.6714 64.6336L72.9542 68.8156L77.7628 66.6203ZM81.6331 71.218L79.9573 69.4414L75.5683 72.7852L81.6331 71.218ZM74.63 23.9727L69.2987 24.0773L72.5394 31.1852L74.63 23.9727ZM53.4081 37.4562L52.8855 34.425L58.0097 37.143L53.4081 37.4562ZM54.6612 41.9508L54.1386 39.9656L57.2753 41.2195L54.6612 41.9508ZM89.9933 38.7117L90.7276 36.4117L86.5456 38.1883L89.9933 38.7117ZM88.4253 43.4148L89.0519 41.5336L85.8112 42.4742L88.4253 43.4148Z" fill="black"/>
<path d="M51.2014 49.3775H61.2897V50.6229H51.2014V49.3775ZM51.2014 46.3885H61.2897V47.6338H51.2014V46.3885ZM82.0061 49.3775H92.0936V50.6229H82.0061V49.3775ZM82.0061 46.3885H92.0936V47.6338H82.0061V46.3885ZM78.4506 39.0049H62.0108V37.883H67.1264C67.7569 35.1854 67.8811 32.6072 67.1217 31.3002C66.7967 30.7455 66.3483 30.4854 65.7092 30.4854C62.7842 30.4854 61.5764 33.5783 61.5256 33.7096L61.5264 33.7088L60.4772 33.315C60.5374 33.1533 62.0006 29.3643 65.7092 29.3643C66.7444 29.3643 67.567 29.8393 68.0889 30.7369C69.0155 32.3283 68.9069 35.0822 68.2788 37.883H77.2553C78.4483 34.3791 80.9381 32.7268 85.0991 32.7268V33.8479C80.5897 33.8479 79.3256 35.7596 78.4241 37.883H83.3225L83.3108 38.9986L78.4499 39.0041L78.4506 39.0049ZM79.1881 44.54L79.1959 44.5393L79.1881 44.54ZM79.1881 44.54L79.1959 44.5393L79.1881 44.54Z" fill="black"/>
<path d="M79.1881 44.5401L79.196 44.5394C77.8663 42.5784 77.4444 40.905 78.0006 38.9995L76.8584 39.005C76.4608 40.2737 76.6202 42.1847 77.6006 43.8253H66.1944C66.8881 42.4347 67.5311 40.7401 68.0014 39.005H66.8405C66.3217 40.8448 65.5944 42.6659 64.7749 44.1081L64.51 44.5745L70.9108 48.6034L67.3077 50.9784L67.9249 51.9144L71.9522 49.2589L76.3006 52.0964L76.8975 51.148L72.8663 48.6542C72.8663 48.6542 78.8944 44.7386 79.1936 44.5472C79.1915 44.5451 79.19 44.5425 79.1889 44.5394L79.1881 44.5401ZM71.9389 47.9261L67.2045 44.9456L76.4569 44.948L71.9389 47.9261Z" fill="black"/>
<path d="M92.511 27.0941C92.504 25.1449 91.8969 16.9082 90.7813 14.6402C87.7563 15.7895 82.2524 19.5145 81.0063 23.3223C75.036 22.4316 68.3055 22.5363 62.4094 23.5566C61.4251 19.459 56.4813 16.3238 52.7516 14.5566C51.1782 17.2113 50.4813 23.3668 50.6579 27.7332L50.6376 27.7473C51.3297 46.0816 60.3243 57.4973 72.0852 64.416C84.1868 57.5019 92.8313 44.0223 92.4961 27.0855L92.5118 27.0934L92.511 27.0941ZM82.4422 23.559L82.5743 23.5832L82.4415 23.5598L82.4422 23.559ZM81.6891 23.4293C81.7954 23.4465 81.9019 23.4647 82.0087 23.484L81.6891 23.4293ZM90.629 28.4168C90.9399 43.673 83.1563 55.8152 72.2594 62.0418C53.7641 52.827 50.2797 29.4824 53.4336 16.9598C54.311 21.7465 55.9024 24.7496 59.3508 26.2223C66.8587 24.0738 77.1946 23.9043 84.8087 26.0035C87.9813 23.6965 89.2118 20.173 89.8837 17.0941C90.7235 20.677 90.6258 28.4152 90.629 28.4168Z" fill="black"/>
<path d="M98.5186 81.1984C96.6194 79.0734 92.8983 78.068 89.7905 78.1422C87.5851 75.5172 74.7983 62.0516 74.7983 62.0516L73.9124 63.168L89.3499 79.7875L90.0194 79.7297C94.214 79.3703 96.5976 81.6453 97.2296 82.3508C97.6921 82.8688 97.9718 83.3406 98.1233 83.7117H89.639C70.1772 73.5555 53.0921 66.3953 34.9413 64.8344C34.9804 62.3086 35.4304 59.4492 36.2929 56.2641L34.6241 55.811C33.7382 59.087 33.2692 62.0511 33.2171 64.7031C31.327 64.5771 29.422 64.5136 27.5022 64.5125C25.8733 64.5125 24.3905 64.6641 23.0382 64.9266C21.2733 63.1633 19.771 61.4828 18.4937 59.8875C26.9233 51.1055 40.8452 43.1672 52.9062 40.2485L52.5147 38.5586C39.5265 41.6914 25.3093 50.2172 17.3874 58.4547C13.7108 53.4922 12.2522 49.4203 11.8187 46.3344C11.2718 42.4367 12.2015 38.8617 14.5093 35.9945C18.121 31.5078 23.253 31.1914 28.5296 32.0789C28.4272 32.9125 28.5366 33.7094 28.8702 34.2016C30.2655 36.2633 37.7663 36.9875 42.2429 34.9899C38.939 30.3602 32.2468 28.0992 30.3929 29.0055C29.7788 29.3055 29.3147 29.857 28.9976 30.4992C27.1733 30.1727 25.3616 29.9297 24.0382 29.9399C19.3843 29.9742 15.8265 31.6 13.1616 34.911C10.5468 38.1586 9.48975 42.1922 10.1054 46.575C10.6882 50.7266 12.7437 55.1422 16.1882 59.7203C15.6158 60.3349 15.0632 60.9401 14.5304 61.5359C6.13506 70.9305 -0.00244141 81.0047 -0.00244141 82.6742V83.5391H11.0733L10.8796 82.5133C10.2546 79.207 11.503 75.0758 14.0616 71.9867C15.6687 70.0484 18.3288 67.8352 22.5062 66.8149C26.2202 70.4399 30.953 74.2891 36.2202 78.0031H44.4515V77.1383C44.4515 76.1625 43.9671 75.3086 43.089 74.7336C41.7882 73.8836 39.7812 73.7664 37.9374 74.3953C36.1796 72.4375 35.1937 69.8227 34.9812 66.5742C52.8444 68.1555 69.9312 75.3695 89.2093 85.4414H99.8171L99.9562 84.7461C100.155 83.7563 99.6147 82.4297 98.514 81.1984H98.5186ZM12.7343 70.8813C10.114 74.0438 8.7249 78.2211 9.04365 81.807H2.06475C3.46709 78.7734 9.05147 70.0024 17.303 61.143C18.5027 62.6187 19.7691 64.039 21.0983 65.3992C17.0468 66.6172 14.3913 68.8813 12.7343 70.8813Z" fill="black"/>
</g>
<defs>
<clipPath id="clip0_1085_4307">
<rect width="100" height="100" fill="white"/>
</clipPath>
</defs>
</svg>
