<svg width="100" height="100" viewBox="0 0 100 100" fill="none" xmlns="http://www.w3.org/2000/svg">
<g clip-path="url(#clip0_1085_4315)">
<path d="M24.1172 34.7909C27.9477 30.8808 33.111 28.5354 40.929 27.6753C48.3571 27.7534 51.7969 27.3628 60.3196 32.2878C62.5875 34.0081 67.6711 36.0409 66.186 39.5612C63.8399 44.1737 63.761 43.8612 62.5875 48.0815C61.4149 52.305 62.3532 51.912 60.9469 53.8675C58.4438 56.5253 60.2438 56.3698 57.036 57.7776C52.111 55.7448 53.0485 56.1362 50.3133 55.7448C45.6227 55.3542 45.6227 55.1964 39.7571 58.0112C35.8469 58.637 38.8969 58.9503 34.9094 58.48C25.3586 53.7878 27.8594 52.3003 23.0086 51.1276C18.161 49.955 17.2235 50.9729 16.7532 48.7823C16.911 44.4042 20.8211 38.2269 24.104 34.7862L24.1172 34.7909Z" fill="#4B8EB4"/>
<path d="M30.3752 62.7029C29.1619 64.3076 29.2814 64.5162 29.5939 66.6904C30.4541 68.7279 30.1455 69.5451 33.6587 69.9732C37.7197 68.7404 37.7642 66.2974 37.8017 64.4998C33.2939 64.3435 31.1533 62.3256 30.3736 62.7013L30.3752 62.7029Z" fill="#424242" fill-opacity="0.807"/>
<path d="M83.4485 26.1195C83.1727 26.1265 82.8423 26.246 82.4415 26.5023C80.2477 28.6351 80.2383 28.7171 79.079 35.6499L79.0774 35.6515C77.7993 39.2554 75.2696 42.1031 70.3993 41.5945L70.3212 41.6523C71.5102 40.4882 72.011 39.0882 69.3071 37.9953C65.8641 37.2921 64.4063 41.2273 62.5837 47.1429C61.5008 52.3609 59.3938 58.707 55.704 56.5273C49.2087 54.3414 51.8438 55.0406 48.7454 54.8851C42.9454 55.2757 38.2423 59.7523 30.6837 55.6664C25.0837 51.5632 23.2008 50.5265 16.518 48.864C16.4977 48.8585 16.468 48.8562 16.4462 48.8515L16.5344 48.2367L4.72897 44.0937C4.72897 44.0937 -2.15149 41.3585 1.91335 45.814C1.91335 45.814 7.54382 50.4257 14.2673 54.4132L13.8782 53.3585C14.3871 53.9092 14.9315 54.4259 15.5079 54.9054C15.3433 54.9184 15.1758 54.9367 15.0055 54.9601L15.0102 54.9617C14.5493 55.4218 11.836 57.8664 10.3563 60.5921C8.85475 63.3593 8.52429 66.2343 10.2782 70.0523C11.6532 73.6624 15.5852 74.0757 20.2102 75.4476C22.1766 75.1195 23.6133 76.346 25.3712 74.3539C26.8032 72.7648 27.854 73.2406 26.543 70.2874C23.7899 65.8945 23.1758 63.0531 25.668 60.5906C25.6149 60.4523 25.5571 60.3281 25.5008 60.1999C26.0321 60.6398 26.5743 61.0203 27.168 61.2937C31.0134 62.2468 33.4579 64.264 37.879 64.4218C38.1154 64.3106 38.3551 64.2064 38.5977 64.1093C36.6008 66.1593 36.3438 69.2187 36.7735 71.3874H36.7751C37.0563 74.3124 40.9157 75.871 46.9391 76.8609C51.4844 76.5515 55.386 78.6515 58.3555 74.2031C58.8915 70.8875 58.1282 65.9945 55.6173 63.9593C55.5805 63.9281 55.5391 63.8968 55.5008 63.8664C55.9092 63.9674 56.3154 64.0742 56.7196 64.1867C59.3368 64.2437 60.9399 62.8843 62.8665 59.4335C62.0899 61.2421 61.2876 62.9757 59.9977 63.3234L60.0782 63.3265C59.5938 67.2562 61.2954 73.1601 65.8633 73.1773C66.1081 73.2018 66.3467 73.2226 66.579 73.2398C69.111 73.8609 70.5657 73.5546 72.0399 72.7031C73.3196 72.2289 74.1954 71.5132 74.9008 70.7023C75.0251 70.6117 75.1313 70.5312 75.261 70.4382C75.6543 70.0394 75.9533 69.5576 76.136 69.0281L76.1844 68.9554C76.2235 68.8085 76.2574 68.6614 76.286 68.514C76.8548 66.014 75.5477 62.582 73.2001 60.3554C71.911 58.7929 70.4282 57.3757 69.1454 56.2093C68.5907 55.7156 68.2298 55.4296 67.8798 55.2585C73.5212 56.3992 75.2883 53.932 76.9673 52.6195C78.7016 50.9914 79.2852 48.4218 83.2227 48.0828C89.293 47.9906 91.079 47.4968 91.8227 45.3453C95.3805 44.1304 96.436 46.1562 99.0938 41.671C99.7985 40.6187 99.3907 39.5695 96.7485 37.2156C95.7032 35.9812 92.4985 36.3687 91.9798 35.4945C82.2243 41.6804 86.7032 26.0359 83.4485 26.1195ZM66.2813 50.7867C66.0516 52.0132 65.7719 53.2828 65.318 54.5726C65.8376 54.7429 66.3274 54.8851 66.7969 55.007C66.5376 54.9874 66.2407 54.9757 65.8633 54.9585C65.3813 55.132 64.9688 55.5023 64.5993 55.996C64.7868 55.5984 64.9641 55.2351 65.1626 54.8039C65.6102 53.4226 65.961 52.0742 66.2813 50.7867Z" fill="white"/>
<path d="M93.5546 22.9063C92.5083 22.9116 91.5005 23.5352 90.7265 24.6562C90.0879 24.0739 89.3648 23.7675 88.6289 23.7672C87.5091 23.7675 86.4352 24.4759 85.6435 25.7366C84.8518 26.9974 84.407 28.7071 84.407 30.4898C84.4069 32.2727 84.8516 33.9827 85.6433 35.2435C86.4351 36.5044 87.509 37.213 88.6289 37.2133C89.6777 37.2128 90.6889 36.591 91.4656 35.4688C92.102 36.0468 92.8219 36.3514 93.5546 36.3523C94.1092 36.3525 94.6584 36.1787 95.1708 35.841C95.6832 35.5032 96.1488 35.008 96.541 34.3838C96.9332 33.7595 97.2443 33.0183 97.4566 32.2026C97.6688 31.3869 97.7781 30.5126 97.7781 29.6297C97.7781 28.7467 97.6689 27.8723 97.4567 27.0565C97.2445 26.2407 96.9334 25.4995 96.5412 24.8751C96.149 24.2508 95.6834 23.7555 95.1709 23.4177C94.6585 23.0799 94.1093 22.9061 93.5546 22.9063Z" fill="#0079BB"/>
<path d="M93.5547 22.2817C92.4164 22.2817 91.4023 22.8646 90.6109 23.7731L90.6094 23.7716C90.0156 23.3731 89.3469 23.1411 88.6289 23.1411C87.1937 23.1411 85.9539 24.0661 85.1133 25.4044C84.9655 25.6425 84.8307 25.8885 84.7094 26.1411C84.5726 25.9521 84.3971 25.7944 84.1945 25.6786C83.9612 25.5521 83.6989 25.4891 83.4336 25.4958C83.3439 25.4967 83.2545 25.5053 83.1664 25.5216C82.8133 25.5841 82.4711 25.7403 82.1039 25.9747L82.0508 26.0099L82.0055 26.0544C80.9055 27.1231 80.2445 27.8036 79.7851 29.0622C79.332 30.3021 79.0437 32.0849 78.4805 35.4552C77.868 37.1778 76.9711 38.6763 75.6992 39.6739C74.6476 40.4981 73.332 41.0021 71.6133 41.0216C71.7562 40.7481 71.8601 40.4575 71.8945 40.138C71.9515 39.6122 71.7711 39.0411 71.368 38.5833C70.9656 38.1255 70.3711 37.7513 69.5422 37.4161L69.4883 37.3942L69.432 37.3825C69.1935 37.3341 68.9517 37.3043 68.7086 37.2935C68.477 37.2846 68.2451 37.2964 68.0156 37.3286C67.6646 37.3819 67.3234 37.487 67.0031 37.6403C66.9565 37.3991 66.8848 37.1635 66.789 36.9372C66.4289 36.0896 65.7914 35.3903 65.0648 34.7731C63.6117 33.5388 61.7461 32.5856 60.6976 31.7896L60.6672 31.7661L60.6336 31.7458C52.0351 26.7771 48.339 27.1263 40.9344 27.0489H40.8984L40.8594 27.0536C33.1406 27.9028 27.8961 30.2411 23.9851 34.088L23.9226 34.0677L23.6508 34.3536C20.5773 37.5747 17.0023 42.9685 16.268 47.4802L4.93592 43.5036C4.8703 43.4771 3.21717 42.8036 1.8617 42.6614C1.6924 42.6417 1.52198 42.6331 1.35155 42.6356C1.18143 42.639 1.01239 42.6636 0.848423 42.7091C0.510923 42.8028 0.110142 43.1122 0.0242042 43.5435C-0.0617333 43.9755 0.0859229 44.3544 0.323423 44.77C0.560923 45.1864 0.924204 45.6575 1.45077 46.2356L1.48202 46.2692L1.51639 46.2981C1.51639 46.2981 7.07811 50.8349 13.7484 54.82L13.8828 55.1833C13.4445 55.6124 13.018 56.0535 12.6039 56.506C11.6633 57.5372 10.5859 58.8591 9.80702 60.2935C8.24139 63.1794 7.90077 66.3466 9.70155 70.2857C10.4586 72.2614 11.9695 73.4067 13.7836 74.1669C15.6008 74.9278 17.7492 75.37 20.032 76.0481L20.1703 76.0896L20.3125 76.0646C20.4805 76.0364 20.6476 76.0255 20.8125 76.0208C21.5245 76.1177 22.1742 76.1588 22.7617 76.1442C22.7937 76.145 22.8234 76.1497 22.8555 76.1505C23.193 76.1567 23.5492 76.12 23.9133 76.0208C24.5055 75.9013 25.0117 75.6997 25.4226 75.3958C26.1703 74.8685 26.7039 74.3021 27.0508 73.7122C27.2203 73.5575 27.3781 73.388 27.518 73.1622C27.7367 72.8106 27.8117 72.3403 27.7328 71.8474C27.6555 71.3646 27.4594 70.8161 27.1344 70.0786L27.1117 70.0177C26.5508 68.6747 25.6758 67.4364 25.2289 66.4185C24.9836 65.7731 24.8242 65.1817 24.7601 64.6419C24.6055 63.3356 24.9258 62.3146 25.8898 61.27C26.2112 61.496 26.5509 61.6946 26.9055 61.8638L26.9594 61.8872L27.0172 61.9013C27.775 62.0888 28.4765 62.3317 29.164 62.5896L29.15 62.5958L29.5758 62.8997C29.2344 63.4083 28.8726 63.8958 28.7945 64.3857C28.6875 65.0653 28.8195 65.7013 28.9742 66.7794L28.9859 66.8591L29.0172 66.9341C29.4258 67.9005 29.5461 68.6778 30.1695 69.3583C30.7937 70.0396 31.7765 70.3739 33.5836 70.5942L33.714 70.6099L33.8406 70.5716C34.6953 70.3122 35.3984 69.9903 35.9758 69.6263C35.9836 70.2669 36.0469 70.8841 36.1555 71.4505L36.1523 71.4474L36.157 71.463C36.1594 71.4771 36.157 71.4942 36.1601 71.5083L36.2336 71.8794L36.2687 71.8896C36.5953 73.388 37.7375 74.563 39.4242 75.4083C41.0086 76.2028 43.0805 76.7833 45.5461 77.2474C45.5984 77.2724 45.6476 77.3028 45.7031 77.3239C46.1742 77.4997 46.6305 77.5091 47.3086 77.5552L47.3453 77.5583L47.3812 77.5567C48.4094 77.506 49.4719 77.5528 50.5312 77.5958C51.4531 77.6692 52.3633 77.7419 53.2609 77.7099C53.992 77.6904 54.7164 77.564 55.4109 77.3349C55.7916 77.2407 56.1634 77.1134 56.5219 76.9544L56.5656 76.9333L56.607 76.9067C57.0126 76.6415 57.3794 76.3213 57.6969 75.9552C58.142 75.534 58.537 75.063 58.8742 74.5513L58.9508 74.4364L58.9719 74.3021C59.2555 72.5505 59.1961 70.4388 58.739 68.4614C58.4297 67.1247 57.9398 65.8442 57.2156 64.7974C57.9937 64.756 58.7133 64.5841 59.3797 64.2653C59.3156 66.1294 59.6672 68.2146 60.5101 69.9888C61.5078 72.0872 63.2992 73.7817 65.8414 73.8005C66.0575 73.8224 66.2692 73.8411 66.4765 73.8567C68.4258 74.3255 69.8484 74.2841 71.1078 73.8356C71.5314 73.6799 71.9408 73.4878 72.3312 73.2614C72.6737 73.1311 73.0065 72.9768 73.3273 72.7997C74.0834 72.3736 74.7607 71.8208 75.3297 71.1653C75.4312 71.0903 75.5195 71.0231 75.6258 70.9466L75.6672 70.9177L75.7031 70.881C76.1468 70.433 76.4885 69.8944 76.7047 69.3021L76.7609 69.2185L76.7867 69.1208C76.8221 68.9906 76.8526 68.8604 76.8781 68.7302C77.143 67.638 77.0789 66.4114 76.7703 65.2052C76.2836 63.3044 75.1906 61.395 73.6648 59.938C72.4992 58.5263 71.1961 57.2489 70.0195 56.163C71.4351 56.2286 72.582 56.038 73.5336 55.6942C75.3976 55.0192 76.4711 53.8005 77.3515 53.1122L77.375 53.0942L77.3937 53.0755C78.3562 52.1739 78.9375 51.1146 79.7195 50.3021C80.5015 49.4896 81.439 48.8653 83.2766 48.7075C86.2976 48.6606 88.2867 48.5263 89.7062 48.0849C90.9719 47.6911 91.7304 46.9083 92.1922 45.9052C93.7406 45.4185 94.7601 45.5778 95.9164 45.3489C96.5969 45.2133 97.229 44.8989 97.7476 44.438C98.3469 43.9161 98.9398 43.1489 99.6172 42.0099C100.049 41.3583 100.152 40.4817 99.7359 39.6505C99.3265 38.8317 98.5101 37.9653 97.2094 36.8005C96.8726 36.4099 96.4437 36.1716 95.9851 36.0028C96.4077 35.6292 96.7733 35.1957 97.0703 34.7161C97.9109 33.3786 98.4039 31.5911 98.4039 29.6294C98.4039 27.6661 97.9109 25.8817 97.0703 24.5435C96.2297 23.2052 94.9898 22.2817 93.5547 22.2817ZM93.5547 23.5317C94.4515 23.5317 95.3234 24.1138 96.0117 25.2091C96.6992 26.3044 97.1523 27.8786 97.1523 29.6294C97.1523 31.3794 96.6992 32.956 96.0117 34.0513C95.3234 35.1466 94.4515 35.7263 93.5547 35.7263C93.1219 35.7263 92.6969 35.5896 92.2945 35.3271C93.043 34.02 93.4781 32.3333 93.4781 30.4896C93.4781 28.5271 92.9851 26.7419 92.1445 25.4036C91.9671 25.1206 91.7672 24.8523 91.5469 24.6013C92.1476 23.9005 92.8422 23.5317 93.5547 23.5317ZM88.6289 24.3927C89.5258 24.3927 90.3976 24.9739 91.0859 26.0692C91.7734 27.1646 92.2265 28.7396 92.2265 30.4896C92.2265 32.2396 91.7734 33.8169 91.0859 34.9114C90.3984 36.0067 89.5258 36.5872 88.6289 36.5872C87.732 36.5872 86.8617 36.0067 86.1742 34.9114C85.4867 33.8169 85.0328 32.2396 85.0328 30.4896C85.0328 28.7396 85.4859 27.1646 86.1734 26.0692C86.8617 24.9739 87.732 24.3927 88.6289 24.3927ZM83.5156 26.7442C83.539 26.747 83.5614 26.755 83.5812 26.7677C83.6633 26.8146 83.8617 27.0833 83.9984 27.6224C84.0242 27.727 84.0469 27.8442 84.0695 27.963C83.882 28.7521 83.7812 29.6036 83.7812 30.4896C83.7812 32.4528 84.2734 34.2396 85.1133 35.5771C85.9539 36.9153 87.1937 37.8388 88.6289 37.8388C89.7226 37.8388 90.7015 37.3021 91.4781 36.456L91.6187 36.3755C92.2015 36.7567 92.8539 36.9778 93.5547 36.9778C93.8156 36.9773 94.07 36.9474 94.3179 36.888C95.2008 37.0536 95.9992 37.2989 96.2711 37.62L96.2984 37.6536L96.332 37.6825C97.6305 38.8403 98.3453 39.6692 98.6164 40.2114C98.8875 40.7528 98.8414 40.9231 98.5734 41.3239L98.564 41.3372L98.5555 41.3528C97.9101 42.4403 97.3781 43.1005 96.9258 43.495C96.4726 43.8888 96.1133 44.0349 95.6742 44.1224C94.9344 44.2685 93.9062 44.1622 92.4672 44.5114L92.4703 44.406C88.2523 44.256 86.593 42.7864 85.175 40.2692L84.0851 40.8825C85.4625 43.3278 87.432 45.088 91.0695 45.5466C90.7594 46.2185 90.3195 46.5833 89.3344 46.8903C88.1656 47.2536 86.2312 47.4114 83.2125 47.4575L83.1914 47.4591L83.168 47.4606C81.0672 47.6419 79.7461 48.4716 78.818 49.4349C77.893 50.3958 77.3156 51.431 76.5461 52.156C75.5304 52.9575 74.6437 53.9622 73.1086 54.5177C71.8523 54.9724 70.0437 55.0724 67.4117 54.4489L67.4 54.4474C66.9576 54.343 66.5184 54.2257 66.0828 54.0958C66.339 53.2661 66.5297 52.4575 66.7008 51.663C67.0679 50.2247 67.3859 48.8583 67.7312 47.6271C68.3312 45.4833 69.0312 43.7536 70.2015 42.5974C70.3578 42.47 70.5094 42.3341 70.6594 42.1966C73.0578 42.3724 75.0164 41.7997 76.4711 40.6583C77.939 39.5075 78.9023 37.8567 79.5672 36.0653L79.6539 36.0013L79.6969 35.7544C80.2765 32.2872 80.5773 30.5396 80.9601 29.4903C81.3351 28.4653 81.7812 28.0216 82.8219 27.0091C83.068 26.8591 83.2703 26.7739 83.3867 26.7528C83.4293 26.7437 83.4729 26.7405 83.5164 26.7435L83.5156 26.7442ZM95.2804 27.5567C95.0646 27.5566 94.8508 27.6252 94.6514 27.7588C94.4519 27.8923 94.2707 28.0881 94.118 28.335C93.9654 28.5819 93.8443 28.8751 93.7617 29.1977C93.6791 29.5203 93.6366 29.8661 93.6367 30.2153C93.637 30.9202 93.8103 31.596 94.1185 32.0941C94.4268 32.5923 94.8447 32.8719 95.2804 32.8716C95.7159 32.8712 96.1334 32.5913 96.4414 32.0932C96.7493 31.5952 96.9224 30.9197 96.9226 30.2153C96.9228 29.5105 96.7498 28.8345 96.4419 28.3359C96.1339 27.8373 95.7161 27.5571 95.2804 27.5567ZM40.9758 28.3005C48.3828 28.3747 51.5812 27.9606 60.0023 32.8263L60.007 32.8286C61.2242 33.7396 62.989 34.6489 64.2547 35.7255C64.8969 36.2708 65.393 36.8489 65.639 37.4263C65.7836 37.7661 65.8422 38.1075 65.814 38.4794C65.4301 38.8648 65.0921 39.2934 64.807 39.7567C63.7148 41.5036 62.8992 43.995 61.9859 46.9599L61.9765 46.988L61.9719 47.0169C61.4367 49.5958 60.6336 52.4521 59.5781 54.2997C59.05 55.2231 58.4609 55.8724 57.9008 56.1552C57.3406 56.438 56.807 56.4528 56.0211 55.9888L55.9648 55.9552L55.9023 55.9341C52.6601 54.8427 51.7398 54.4763 51.0836 54.3325C50.7555 54.2622 50.4976 54.2653 50.2062 54.2755C49.9148 54.2856 49.532 54.2981 48.7765 54.2599L48.7398 54.2583L48.7031 54.2614C45.6539 54.4669 42.9953 55.7075 40.2328 56.3458C37.4758 56.9825 34.6398 57.0849 31.0047 55.1271C29.2672 53.8552 27.882 52.8919 26.5789 52.088C26.0422 51.6521 25.4312 51.2708 24.5476 50.9411C22.5773 49.9474 20.4781 49.2411 17.4211 48.4552C17.7515 44.4685 21.3703 38.6122 24.4586 35.3341L24.5633 35.2278C28.2812 31.4325 33.264 29.1521 40.9758 28.3005ZM90.1047 28.6114C89.8683 28.6114 89.6343 28.6832 89.416 28.8227C89.1977 28.9622 88.9993 29.1667 88.8323 29.4245C88.6652 29.6822 88.5326 29.9883 88.4423 30.325C88.3519 30.6618 88.3054 31.0227 88.3055 31.3872C88.3054 31.7517 88.3519 32.1126 88.4423 32.4494C88.5326 32.7862 88.6652 33.0922 88.8323 33.3499C88.9993 33.6077 89.1977 33.8122 89.416 33.9517C89.6343 34.0912 89.8683 34.163 90.1047 34.163C90.341 34.163 90.575 34.0912 90.7933 33.9517C91.0116 33.8122 91.21 33.6077 91.3771 33.3499C91.5442 33.0922 91.6767 32.7862 91.7671 32.4494C91.8575 32.1126 91.904 31.7517 91.9039 31.3872C91.904 31.0227 91.8575 30.6618 91.7671 30.325C91.6767 29.9883 91.5442 29.6822 91.3771 29.4245C91.21 29.1667 91.0116 28.9622 90.7933 28.8227C90.575 28.6832 90.341 28.6114 90.1047 28.6114ZM37.1203 34.9497C34.7969 34.9497 32.9682 35.6104 31.6344 36.9317C30.3068 38.2474 29.643 40.0442 29.643 42.3224C29.643 43.5672 29.8221 44.6554 30.1805 45.5872C30.5372 46.5127 31.0443 47.2851 31.7015 47.9044C32.3531 48.5174 33.1414 48.9768 34.0664 49.2825C34.9924 49.5888 36.0107 49.7419 37.1211 49.7419C37.9825 49.7419 38.8729 49.6112 39.7922 49.3497C40.666 49.1003 41.5201 48.7867 42.3476 48.4114V42.2958H36.6523V43.9614H40.4711V47.456C39.9514 47.6642 39.4127 47.8212 38.8625 47.9247C38.2605 48.0448 37.6482 48.1055 37.0344 48.106C35.3625 48.106 34.0411 47.5958 33.0703 46.5755C32.1005 45.5468 31.6159 44.1101 31.6164 42.2653C31.6164 40.5153 32.0792 39.1299 33.0047 38.1091C33.937 37.081 35.2005 36.5672 36.7953 36.5677C37.5036 36.5677 38.1357 36.6346 38.6914 36.7685C39.2534 36.8966 39.7539 37.0593 40.193 37.2567C40.557 37.4234 40.9273 37.631 41.3039 37.8794C41.6805 38.1289 41.968 38.3299 42.1664 38.4825H42.3383V36.2325C41.3617 35.7664 40.4489 35.4375 39.6 35.2458C38.7874 35.0528 37.9555 34.9534 37.1203 34.9497ZM45.4375 35.1099V36.9778H47.4672V35.1106L45.4375 35.1099ZM50.9109 35.6958V38.7692H49.6945V40.2833H50.9109V45.97C50.9109 47.2653 51.1948 48.2067 51.7625 48.7942C52.3302 49.3817 53.1596 49.6752 54.2508 49.6747C54.5633 49.6747 54.918 49.6461 55.3148 49.5888C55.6884 49.5365 56.0588 49.4635 56.4242 49.37H56.4258V47.7521H56.3297C56.189 47.8093 55.9591 47.8825 55.6398 47.9716C55.3206 48.0549 55.0143 48.0966 54.7211 48.0966C54.2159 48.0966 53.839 48.0393 53.5906 47.9247C53.3453 47.8004 53.1447 47.603 53.0164 47.3599C52.8654 47.0882 52.7741 46.7875 52.7484 46.4778C52.7192 46.0381 52.7062 45.5974 52.7094 45.1567V40.2825H56.4258V38.7692H52.7101V35.6958H50.9109ZM68.3976 38.5528C68.6453 38.5443 68.8932 38.5653 69.1359 38.6153C69.7922 38.8919 70.2258 39.1778 70.4281 39.4083C70.6414 39.6505 70.6726 39.8036 70.6515 40.0021C70.6187 40.3005 70.3226 40.7528 69.8742 41.206C67.7273 42.7825 66.8515 44.8872 66.3375 47.1216C66.0734 48.2685 65.8906 49.456 65.6633 50.6692C65.3484 51.9333 65.007 53.2458 64.575 54.5817C64.3914 54.9802 64.2273 55.3122 64.0531 55.6802C63.9234 55.8606 63.8014 56.0464 63.6875 56.2372C63.1898 57.0669 62.7844 58.0364 62.3828 58.9763L62.3211 59.1185C61.7195 60.1981 61.1586 61.0638 60.6062 61.7138C59.4312 63.0982 58.3773 63.5856 56.7594 63.5575C56.4461 63.4708 56.1289 63.3982 55.814 63.3192C54.1828 62.0513 51.3531 61.5286 48.3734 61.3825C45.2601 61.231 42.0266 61.5489 39.9125 62.3606L39.8734 62.3747L39.8359 62.3958C39.226 62.728 38.6686 63.1487 38.182 63.6442C38.0672 63.6935 37.9461 63.7356 37.8328 63.7872C33.6867 63.6177 31.314 61.7185 27.4289 60.7263C26.9406 60.5013 26.4758 60.1755 26.0055 59.7911C25.6692 59.0525 25.1924 58.3865 24.6015 57.8302C23.7703 57.0396 22.5836 56.2427 20.6773 55.1255L20.6281 55.0958L20.5765 55.0778C19.3508 54.6278 17.7562 54.1442 15.7351 54.2614C14.264 52.9896 13.4664 51.9802 13.193 51.3185C12.8961 50.6021 13.0258 50.3528 13.3242 50.07C13.6226 49.7872 14.2367 49.5544 14.8617 49.4606C15.4875 49.3669 16.143 49.4114 16.357 49.4685L16.3617 49.47L16.3664 49.4716C23.0172 51.1263 24.7273 52.0786 30.3148 56.1724L30.3484 56.1958L30.3867 56.2177C34.2969 58.3317 37.5867 58.2411 40.5148 57.5653C43.4422 56.8888 46.0336 55.6958 48.7836 55.5099C49.5117 55.5427 49.9711 55.5341 50.2469 55.5255C50.5359 55.5153 50.6039 55.5099 50.8164 55.5552C51.2383 55.6474 52.257 56.0271 55.457 57.1044C55.4328 57.0911 55.4086 57.081 55.3851 57.0661L55.5039 57.1192L55.457 57.1044C56.4945 57.6903 57.5781 57.7208 58.4648 57.2739C59.3711 56.8169 60.0687 55.963 60.664 54.9208C61.8476 52.8505 62.6344 49.9521 63.182 47.3278C64.0914 44.3778 64.9148 41.9427 65.868 40.4185C66.3445 39.6567 66.8422 39.1341 67.3648 38.8427C67.6809 38.6648 68.0351 38.5654 68.3976 38.5528ZM45.5523 38.7646V49.4599H47.3523V38.7646H45.5523ZM1.48045 43.8966C1.5644 43.8927 1.64853 43.8956 1.73202 43.9052C2.77342 44.0146 4.49686 44.6763 4.49686 44.6763L4.50858 44.6802L14.632 48.2325C13.8695 48.3513 13.0617 48.5927 12.4617 49.1622C11.85 49.7419 11.6023 50.7474 12.0359 51.7974C12.118 51.9942 12.2242 52.1981 12.3476 52.4067C6.83749 48.9021 2.41014 45.4067 2.35311 45.3606C1.88436 44.8435 1.5703 44.4294 1.41014 44.1497C1.30311 43.9622 1.31717 43.9591 1.30624 43.913C1.35702 43.9067 1.4117 43.8989 1.48045 43.8966ZM16.6992 55.5231C18.0406 55.5669 19.1406 55.8903 20.0945 56.2388C21.9242 57.3153 23.0476 58.0786 23.7398 58.7372C24.3633 59.3302 24.6398 59.8802 24.9359 60.5864C23.8656 61.8286 23.3336 63.2349 23.5187 64.7896C23.5306 64.8914 23.5446 64.993 23.5609 65.0942C22.5219 64.9513 21.5125 64.8286 20.5625 64.8177C19.3437 64.8021 18.1992 64.9552 17.1406 65.4271C15.1344 66.3185 13.6273 68.3505 12.6469 72.1419C11.8492 71.5747 11.2539 70.8536 10.864 69.8294L10.8562 69.8099L10.8476 69.7919C9.15624 66.1106 9.47342 63.5325 10.9055 60.8911L10.907 60.8896C11.6078 59.6005 12.6265 58.3372 13.5265 57.3505C14.3453 56.4528 14.9484 55.8989 15.2742 55.5825C15.7471 55.5283 16.2234 55.5085 16.6992 55.5231ZM66.0195 55.6028C66.3203 55.6169 66.564 55.6286 66.7812 55.6458C67.0854 55.7234 67.3804 55.7919 67.6664 55.8513C67.9187 55.9872 68.2258 56.2263 68.7289 56.6755C69.6844 57.5442 70.7445 58.5536 71.7453 59.6442C69.9898 60.3489 67.7609 61.8856 66.0687 63.9771C65.9164 64.1667 65.7699 64.3611 65.6297 64.5599L65.5976 64.5778L65.6023 64.5997C64.0851 66.7497 63.2695 69.4669 64.3406 72.2669C63.1453 71.7966 62.2703 70.7763 61.6406 69.4513C60.8008 67.6833 60.5203 65.4302 60.7031 63.6216C61.3179 63.2752 61.8352 62.7792 62.207 62.1794C62.6719 61.445 63.0515 60.5864 63.4203 59.7286C63.9539 58.7716 64.5187 57.6271 65.1203 56.3567C65.4187 55.9778 65.7219 55.7271 66.0195 55.6028ZM72.6015 60.7239C72.7344 60.8458 72.8646 60.9718 72.9922 61.1021C73.3172 61.5114 73.6312 61.9271 73.9164 62.3505C75.3055 64.4114 76.082 66.5497 75.618 68.5771C75.6015 68.634 75.5838 68.6905 75.5648 68.7466C75.3758 69.0286 75.1883 69.3067 74.9945 69.5739C73.7734 65.3185 71.1187 63.3247 69.8117 62.2114C70.8469 61.4841 71.8555 60.9692 72.6015 60.7239ZM47.1969 62.6005C47.5698 62.6041 47.9417 62.6146 48.3125 62.6317C51.2922 62.7778 54.1211 63.4786 55.2047 64.4302L55.214 64.438L55.2234 64.4458C55.7523 64.8739 56.2094 65.4763 56.589 66.1864C54.2648 66.3677 51.9914 66.9036 49.9422 68.231C47.7226 69.6685 45.7992 72.0161 44.3453 75.6849L44.3328 75.7169C42.5765 75.3185 41.1 74.8497 39.9844 74.2903C38.3336 73.4622 37.5156 72.5302 37.3992 71.3286L37.3625 70.9614C37.1726 69.7864 37.1719 68.3802 37.582 67.0606C38.0226 65.645 38.8844 64.3653 40.4055 63.5192C41.9883 62.9208 44.5883 62.5794 47.1969 62.6005ZM68.7984 62.9896C70.2554 64.2786 72.9047 65.9974 73.9687 70.6083C73.1328 71.2239 72.4195 71.7513 71.7609 72.1388L71.6656 72.1724C71.0883 69.3013 69.832 67.3286 68.6984 66.0794C68.2328 65.5631 67.7147 65.0968 67.1523 64.688L67.1234 64.6677C67.6306 64.0595 68.1912 63.4979 68.7984 62.9896ZM30.7515 63.3005C30.7734 63.3122 30.7742 63.3013 31.0148 63.3896C31.3539 63.513 31.8437 63.738 32.4586 63.9833C33.5555 64.4208 35.1375 64.8755 37.1148 65.0356C36.8096 65.5565 36.5658 66.111 36.3883 66.688C36.262 67.1006 36.1644 67.5214 36.0961 67.9474C35.5828 68.4614 34.8015 68.9372 33.5859 69.3232C32.0305 69.1177 31.3953 68.8435 31.093 68.513C30.7898 68.1825 30.6195 67.5255 30.2062 66.5286C30.0594 65.5099 29.9726 64.9372 30.0289 64.581C30.0789 64.2653 30.3422 63.8685 30.7515 63.3005ZM66.3789 65.6731L66.4226 65.7044C66.9141 66.0608 67.3663 66.4683 67.7719 66.92C68.7851 68.0364 69.9289 69.8122 70.4531 72.4864C69.4883 72.6638 68.3125 72.7255 66.8609 72.6317C66.5062 72.5474 66.1344 72.4521 65.7273 72.3278C64.5625 69.906 65.0906 67.6364 66.3789 65.6739V65.6731ZM20.5672 66.0841C20.7797 66.0864 21.0008 66.0997 21.225 66.113C22.5187 68.5286 23.6195 70.756 23.0023 74.8606C22.8581 74.8711 22.706 74.8773 22.5461 74.8794C22.15 74.8528 21.6961 74.8106 21.193 74.8044C21.1031 74.7935 21.0187 74.7872 20.9258 74.7731C20.8914 74.7692 20.8531 74.7607 20.8172 74.756C21.2781 72.0958 21.1781 70.2591 20.7765 68.8489C20.4562 67.7239 19.9562 66.888 19.4734 66.131C19.8242 66.0981 20.1844 66.0794 20.5672 66.0841ZM22.714 66.2599C23.1031 66.3067 23.4898 66.3536 23.8984 66.4106C24.3156 67.67 25.025 69.0255 25.975 70.5489L25.9828 70.5653C26.2562 71.2427 26.3719 71.8599 26.2359 72.4427C26.2044 72.571 26.162 72.6965 26.1094 72.8177C25.8234 73.0482 25.4023 73.3833 24.9055 73.9349L24.9039 73.938L24.9008 73.9395C24.726 74.1432 24.5307 74.3283 24.318 74.4919C24.7437 70.8372 23.814 68.4153 22.714 66.2599ZM18.15 66.3833C18.7148 67.2677 19.2508 68.0614 19.5719 69.1919C19.9117 70.3841 20.0219 72.0028 19.5875 74.5224C17.9836 74.1567 16.0515 73.5083 13.8562 72.5614C14.7781 68.9435 16.0594 67.2771 17.65 66.5692C17.813 66.4978 17.9799 66.4357 18.15 66.3833ZM57.0508 67.4192L57.0328 67.5411C56.8414 67.513 56.8187 67.4489 56.825 67.4552C56.8312 67.463 56.8719 67.5099 56.9187 67.5841C57.0109 67.7317 57.1359 67.9841 57.257 68.2997C57.4992 68.9302 57.7344 69.8192 57.8273 70.7685C57.9648 72.1622 57.807 73.631 57.025 74.7685C56.664 71.1435 55.1265 69.4052 53.6054 67.9606C54.7054 67.6552 55.8586 67.4927 57.0508 67.4192ZM52.2773 68.42C54.0781 70.0732 55.689 71.3989 55.8429 75.8114C55.7179 75.8817 55.5911 75.9453 55.4625 76.002C54.9625 76.1544 54.3984 76.2356 53.7984 76.2833C53.2047 72.8591 51.6586 70.7192 50.0797 69.6685C50.2586 69.5341 50.4375 69.3997 50.6211 69.281C51.1539 68.9356 51.707 68.656 52.2773 68.42ZM49.082 70.5271C50.3508 71.2442 51.9258 73.0364 52.539 76.3364C51.6992 76.3427 50.8078 76.3138 49.8859 76.2935C48.9812 76.2302 48.0289 76.1849 47.0351 76.2419C46.6925 76.1849 46.3503 76.125 46.0086 76.0622C45.9109 75.9802 45.8039 75.8661 45.7094 75.7778C46.682 73.4607 47.8187 71.7607 49.0812 70.5278L49.082 70.5271Z" fill="black"/>
</g>
<defs>
<clipPath id="clip0_1085_4315">
<rect width="100" height="100" fill="white"/>
</clipPath>
</defs>
</svg>
