<svg width="100" height="100" viewBox="0 0 100 100" fill="none" xmlns="http://www.w3.org/2000/svg">
<g clip-path="url(#clip0_1085_4339)">
<path d="M37.2563 84.0152V85.8488C37.2563 86.0043 37.3844 86.1324 37.5399 86.1324H62.3625C62.5188 86.1324 62.6469 86.0043 62.6469 85.8488V84.0145L37.2563 84.0152ZM65.3204 35.2441H34.8313V23.0488H65.318L65.3204 35.2441Z" fill="#00CAF4"/>
<mask id="mask0_1085_4339" style="mask-type:luminance" maskUnits="userSpaceOnUse" x="0" y="0" width="100" height="100">
<path d="M0 0H100V100H0V0Z" fill="black" fill-opacity="0.6"/>
</mask>
<g mask="url(#mask0_1085_4339)">
<mask id="mask1_1085_4339" style="mask-type:luminance" maskUnits="userSpaceOnUse" x="0" y="0" width="100" height="100">
<path d="M0 0H100V100H0V0Z" fill="white"/>
</mask>
<g mask="url(#mask1_1085_4339)">
<path d="M34.8237 23.0571H65.3237V35.2454H34.8237V23.0571Z" fill="url(#paint0_linear_1085_4339)"/>
</g>
</g>
<mask id="mask2_1085_4339" style="mask-type:luminance" maskUnits="userSpaceOnUse" x="0" y="0" width="100" height="100">
<path d="M0 0H100V100H0V0Z" fill="black" fill-opacity="0.2"/>
</mask>
<g mask="url(#mask2_1085_4339)">
<mask id="mask3_1085_4339" style="mask-type:luminance" maskUnits="userSpaceOnUse" x="0" y="0" width="100" height="100">
<path d="M0 0H100V100H0V0Z" fill="white"/>
</mask>
<g mask="url(#mask3_1085_4339)">
<path d="M60.9065 34.2287H65.3229V29.8154L60.9065 34.2287Z" fill="white"/>
</g>
</g>
<mask id="mask4_1085_4339" style="mask-type:luminance" maskUnits="userSpaceOnUse" x="0" y="0" width="100" height="100">
<path d="M0 0H100V100H0V0Z" fill="black" fill-opacity="0.349"/>
</mask>
<g mask="url(#mask4_1085_4339)">
<mask id="mask5_1085_4339" style="mask-type:luminance" maskUnits="userSpaceOnUse" x="0" y="0" width="100" height="100">
<path d="M0 0H100V100H0V0Z" fill="white"/>
</mask>
<g mask="url(#mask5_1085_4339)">
<path d="M52.7161 34.2298L63.8849 23.0571H48.0286L36.856 34.229L52.7161 34.2298Z" fill="white"/>
</g>
</g>
<mask id="mask6_1085_4339" style="mask-type:luminance" maskUnits="userSpaceOnUse" x="0" y="0" width="100" height="100">
<path d="M0 0H100V100H0V0Z" fill="black" fill-opacity="0.4"/>
</mask>
<g mask="url(#mask6_1085_4339)">
<mask id="mask7_1085_4339" style="mask-type:luminance" maskUnits="userSpaceOnUse" x="0" y="0" width="100" height="100">
<path d="M0 0H100V100H0V0Z" fill="white"/>
</mask>
<g mask="url(#mask7_1085_4339)">
<path d="M34.8237 23.0571H65.3144V24.2774H34.8237V23.0571Z" fill="#004972"/>
</g>
</g>
<mask id="mask8_1085_4339" style="mask-type:luminance" maskUnits="userSpaceOnUse" x="0" y="0" width="100" height="100">
<path d="M0 0H100V100H0V0Z" fill="black" fill-opacity="0.2"/>
</mask>
<g mask="url(#mask8_1085_4339)">
<mask id="mask9_1085_4339" style="mask-type:luminance" maskUnits="userSpaceOnUse" x="0" y="0" width="100" height="100">
<path d="M0 0H100V100H0V0Z" fill="white"/>
</mask>
<g mask="url(#mask9_1085_4339)">
<path d="M42.7249 23.0571H34.8225V30.9485L42.7249 23.0571Z" fill="white"/>
</g>
</g>
<path d="M65.3206 35.3359H34.8323V34.2266H65.319L65.3206 35.3359Z" fill="#002D4F"/>
<path d="M55.9474 23.4678H57.138V34.2279H55.9474V23.4678ZM43.0083 23.4678H44.1981V34.2279H43.0083V23.4678Z" fill="#002D4F"/>
<path d="M43.0078 23.4678H43.9273V34.2279H43.0078V23.4678Z" fill="url(#paint1_linear_1085_4339)"/>
<path d="M56.219 23.4678H57.1385V34.2279H56.219V23.4678Z" fill="url(#paint2_linear_1085_4339)"/>
<mask id="mask10_1085_4339" style="mask-type:luminance" maskUnits="userSpaceOnUse" x="0" y="0" width="100" height="100">
<path d="M0 0H100V100H0V0Z" fill="black" fill-opacity="0.302"/>
</mask>
<g mask="url(#mask10_1085_4339)">
<mask id="mask11_1085_4339" style="mask-type:luminance" maskUnits="userSpaceOnUse" x="0" y="0" width="100" height="100">
<path d="M0 0H100V100H0V0Z" fill="white"/>
</mask>
<g mask="url(#mask11_1085_4339)">
<path d="M44.1987 23.4678H44.4737V34.2279H44.1987V23.4678Z" fill="#004972"/>
</g>
</g>
<mask id="mask12_1085_4339" style="mask-type:luminance" maskUnits="userSpaceOnUse" x="0" y="0" width="100" height="100">
<path d="M0 0H100V100H0V0Z" fill="black" fill-opacity="0.302"/>
</mask>
<g mask="url(#mask12_1085_4339)">
<mask id="mask13_1085_4339" style="mask-type:luminance" maskUnits="userSpaceOnUse" x="0" y="0" width="100" height="100">
<path d="M0 0H100V100H0V0Z" fill="white"/>
</mask>
<g mask="url(#mask13_1085_4339)">
<path d="M55.6641 23.4678H55.9391V34.2279H55.6641V23.4678Z" fill="#004972"/>
</g>
</g>
<path d="M66.806 38.1245L66.3481 35.5643C66.338 35.499 66.3045 35.4397 66.254 35.3972C66.2034 35.3547 66.1392 35.3319 66.0731 35.3331H34.0731C34.0071 35.3319 33.9429 35.3547 33.8923 35.3972C33.8418 35.4397 33.8083 35.499 33.7981 35.5643L33.3403 38.1252L66.806 38.1245Z" fill="#FFC600"/>
<path d="M72.7142 44.2781L71.6493 38.3609C71.6405 38.2953 71.608 38.2352 71.5579 38.192C71.5078 38.1488 71.4436 38.1255 71.3774 38.1265H28.7688C28.7027 38.1257 28.6386 38.1493 28.5886 38.1926C28.5387 38.2359 28.5064 38.2961 28.4978 38.3617L27.4321 44.2788L72.7142 44.2781Z" fill="#002D4F"/>
<path d="M72.7142 44.2781L71.6493 38.3609C71.6405 38.2953 71.608 38.2352 71.5579 38.192C71.5078 38.1488 71.4436 38.1255 71.3774 38.1265H28.7688C28.7027 38.1257 28.6386 38.1493 28.5886 38.1926C28.5387 38.2359 28.5064 38.2961 28.4978 38.3617L27.4321 44.2788L72.7142 44.2781Z" fill="url(#paint3_linear_1085_4339)"/>
<path d="M35.4888 62.9697V83.3307C35.4883 83.4206 35.5056 83.5097 35.5398 83.5929C35.5739 83.6761 35.6243 83.7516 35.6878 83.8152C35.7514 83.8788 35.827 83.9291 35.9102 83.9633C35.9933 83.9975 36.0825 84.0148 36.1724 84.0143H63.9458C64.3247 84.0143 64.6302 83.7096 64.6302 83.3307V62.9697H35.4888Z" fill="url(#paint4_linear_1085_4339)"/>
<path d="M28.7687 38.1245C28.7025 38.1238 28.6382 38.1474 28.5883 38.1909C28.5383 38.2344 28.506 38.2948 28.4976 38.3605L28.4851 38.4183H71.6617L71.6492 38.3605C71.6406 38.2948 71.6081 38.2345 71.558 38.1911C71.5079 38.1478 71.4436 38.1244 71.3773 38.1253L28.7687 38.1245Z" fill="#002D4F"/>
<path d="M29.4612 16.1133H70.7034L70.1354 14.0039C70.1165 13.9361 70.0758 13.8764 70.0196 13.8341C69.9634 13.7917 69.8948 13.769 69.8245 13.7695H30.2557C30.184 13.7713 30.1148 13.7961 30.0581 13.8401C30.0014 13.8841 29.9604 13.945 29.9409 14.0141L29.4612 16.1133Z" fill="#FFC600"/>
<path d="M29.4612 16.1133H70.7034L70.1354 14.0039C70.1165 13.9361 70.0758 13.8764 70.0196 13.8341C69.9634 13.7917 69.8948 13.769 69.8245 13.7695H30.2557C30.184 13.7713 30.1148 13.7961 30.0581 13.8401C30.0014 13.8841 29.9604 13.945 29.9409 14.0141L29.4612 16.1133Z" fill="url(#paint5_linear_1085_4339)"/>
<mask id="mask14_1085_4339" style="mask-type:luminance" maskUnits="userSpaceOnUse" x="0" y="0" width="100" height="100">
<path d="M0 0H100V100H0V0Z" fill="black" fill-opacity="0.4"/>
</mask>
<g mask="url(#mask14_1085_4339)">
<mask id="mask15_1085_4339" style="mask-type:luminance" maskUnits="userSpaceOnUse" x="0" y="0" width="100" height="100">
<path d="M0 0H100V100H0V0Z" fill="white"/>
</mask>
<g mask="url(#mask15_1085_4339)">
<path d="M29.4612 16.1127H70.7034L70.5471 15.5088H29.6002L29.4612 16.1127Z" fill="#B47D4F"/>
</g>
</g>
<path d="M27.7834 23.4688H72.3811C72.4913 23.4688 72.5764 23.3891 72.5983 23.2914L73.6905 16.1133H26.4827L27.5694 23.2914C27.5791 23.3409 27.6057 23.3855 27.6445 23.4177C27.6834 23.4499 27.7322 23.4677 27.7827 23.468L27.7834 23.4688Z" fill="#002D4F"/>
<path d="M26.553 16.5531H73.6147L73.6811 16.1133H26.4827L26.553 16.5531Z" fill="#005A82"/>
<path d="M66.806 38.1245L66.3481 35.5643C66.338 35.499 66.3045 35.4397 66.254 35.3972C66.2034 35.3547 66.1392 35.3319 66.0731 35.3331H34.0731C34.0071 35.3319 33.9429 35.3547 33.8923 35.3972C33.8418 35.4397 33.8083 35.499 33.7981 35.5643L33.3403 38.1252L66.806 38.1245Z" fill="url(#paint6_linear_1085_4339)"/>
<path d="M66.806 38.126L66.6497 37.2744H33.4966L33.3403 38.126H66.806Z" fill="#DB9927"/>
<mask id="mask16_1085_4339" style="mask-type:luminance" maskUnits="userSpaceOnUse" x="0" y="0" width="100" height="100">
<path d="M0 0H100V100H0V0Z" fill="black" fill-opacity="0.349"/>
</mask>
<g mask="url(#mask16_1085_4339)">
<mask id="mask17_1085_4339" style="mask-type:luminance" maskUnits="userSpaceOnUse" x="0" y="0" width="100" height="100">
<path d="M0 0H100V100H0V0Z" fill="white"/>
</mask>
<g mask="url(#mask17_1085_4339)">
<path d="M72.7142 44.2775L72.461 42.8525H27.6853L27.4321 44.2775H72.7142Z" fill="#002D4F"/>
</g>
</g>
<mask id="mask18_1085_4339" style="mask-type:luminance" maskUnits="userSpaceOnUse" x="0" y="0" width="100" height="100">
<path d="M0 0H100V100H0V0Z" fill="black" fill-opacity="0.2"/>
</mask>
<g mask="url(#mask18_1085_4339)">
<mask id="mask19_1085_4339" style="mask-type:luminance" maskUnits="userSpaceOnUse" x="0" y="0" width="100" height="100">
<path d="M0 0H100V100H0V0Z" fill="white"/>
</mask>
<g mask="url(#mask19_1085_4339)">
<path d="M37.2564 84.0146H62.6377V84.4225H37.2549L37.2564 84.0146Z" fill="#004972"/>
</g>
</g>
<mask id="mask20_1085_4339" style="mask-type:luminance" maskUnits="userSpaceOnUse" x="0" y="0" width="100" height="100">
<path d="M0 0H100V100H0V0Z" fill="black" fill-opacity="0.4"/>
</mask>
<g mask="url(#mask20_1085_4339)">
<mask id="mask21_1085_4339" style="mask-type:luminance" maskUnits="userSpaceOnUse" x="0" y="0" width="100" height="100">
<path d="M0 0H100V100H0V0Z" fill="white"/>
</mask>
<g mask="url(#mask21_1085_4339)">
<path d="M42.8805 62.9697H35.4797V83.3307C35.4797 83.7088 35.7821 84.0143 36.1633 84.0143H42.8711V62.9697H42.8805Z" fill="#002D4F"/>
</g>
</g>
<path d="M64.639 83.3307V62.9697H57.2358V84.0236H63.9554C64.1367 84.0186 64.3091 83.9437 64.4365 83.8146C64.5639 83.6854 64.6364 83.512 64.639 83.3307Z" fill="url(#paint7_linear_1085_4339)"/>
<path d="M76.4343 49.3164L75.2937 44.7086C75.2639 44.586 75.1938 44.477 75.0947 44.3991C74.9955 44.3212 74.873 44.2788 74.7469 44.2789H25.3719C25.245 44.2769 25.1212 44.3184 25.0213 44.3966C24.9213 44.4748 24.8512 44.5849 24.8226 44.7086L23.6906 49.3179C23.6806 49.3559 23.679 49.3956 23.6857 49.4343C23.6924 49.473 23.7074 49.5098 23.7297 49.5422L32.3914 62.7344C32.489 62.8804 32.657 62.9687 32.8304 62.9687H67.3148C67.4018 62.9687 67.4875 62.9474 67.5644 62.9065C67.6412 62.8656 67.7068 62.8065 67.7554 62.7344L76.4156 49.5414C76.4343 49.4711 76.4547 49.3953 76.4343 49.3148V49.3164Z" fill="#FFC600"/>
<mask id="mask22_1085_4339" style="mask-type:luminance" maskUnits="userSpaceOnUse" x="0" y="0" width="100" height="100">
<path d="M0 0H100V100H0V0Z" fill="black" fill-opacity="0.4"/>
</mask>
<g mask="url(#mask22_1085_4339)">
<mask id="mask23_1085_4339" style="mask-type:luminance" maskUnits="userSpaceOnUse" x="0" y="0" width="100" height="100">
<path d="M0 0H100V100H0V0Z" fill="white"/>
</mask>
<g mask="url(#mask23_1085_4339)">
<path d="M76.4343 49.3164L75.2937 44.7086C75.2639 44.586 75.1938 44.477 75.0947 44.3991C74.9955 44.3212 74.873 44.2788 74.7469 44.2789H25.3719C25.245 44.2769 25.1212 44.3184 25.0213 44.3966C24.9213 44.4748 24.8512 44.5849 24.8226 44.7086L23.6906 49.3179C23.6806 49.3559 23.679 49.3956 23.6857 49.4343C23.6924 49.473 23.7074 49.5098 23.7297 49.5422L32.3914 62.7344C32.489 62.8804 32.657 62.9687 32.8304 62.9687H67.3148C67.4018 62.9687 67.4875 62.9474 67.5644 62.9065C67.6412 62.8656 67.7068 62.8065 67.7554 62.7344L76.4156 49.5414C76.4343 49.4711 76.4547 49.3953 76.4343 49.3148V49.3164Z" fill="url(#paint8_linear_1085_4339)"/>
</g>
</g>
<path d="M23.6821 49.4326C23.6896 49.4711 23.7027 49.5082 23.7212 49.5428L32.3829 62.7357C32.4806 62.8818 32.6485 62.9701 32.8228 62.9701H67.304C67.3909 62.97 67.4764 62.9486 67.5531 62.9077C67.6298 62.8668 67.6953 62.8078 67.7438 62.7357L76.4063 49.5428C76.4283 49.5102 76.4418 49.4726 76.4454 49.4334L23.6821 49.4326Z" fill="#DB9927"/>
<mask id="mask24_1085_4339" style="mask-type:luminance" maskUnits="userSpaceOnUse" x="0" y="0" width="100" height="100">
<path d="M0 0H100V100H0V0Z" fill="black" fill-opacity="0.42"/>
</mask>
<g mask="url(#mask24_1085_4339)">
<mask id="mask25_1085_4339" style="mask-type:luminance" maskUnits="userSpaceOnUse" x="0" y="0" width="100" height="100">
<path d="M0 0H100V100H0V0Z" fill="white"/>
</mask>
<g mask="url(#mask25_1085_4339)">
<path d="M35.4888 62.9697H64.6388V64.6572H35.4888V62.9697Z" fill="#002D4F"/>
</g>
</g>
<path d="M42.5467 62.7051L33.8279 49.4629H23.6826C23.6903 49.5003 23.7035 49.5363 23.7217 49.5699L32.3826 62.7629C32.4803 62.909 32.6482 62.9973 32.8225 62.9973H43.049C42.9481 62.9932 42.8498 62.9644 42.7626 62.9135C42.6755 62.8625 42.6021 62.791 42.549 62.7051H42.5467Z" fill="#CD7F1F"/>
<mask id="mask26_1085_4339" style="mask-type:luminance" maskUnits="userSpaceOnUse" x="0" y="0" width="100" height="100">
<path d="M0 0H100V100H0V0Z" fill="black" fill-opacity="0.4"/>
</mask>
<g mask="url(#mask26_1085_4339)">
<mask id="mask27_1085_4339" style="mask-type:luminance" maskUnits="userSpaceOnUse" x="0" y="0" width="100" height="100">
<path d="M0 0H100V100H0V0Z" fill="white"/>
</mask>
<g mask="url(#mask27_1085_4339)">
<path d="M33.9936 49.2766L35.1865 44.4516C35.2016 44.3909 35.2366 44.3369 35.2858 44.2983C35.3351 44.2596 35.3958 44.2385 35.4584 44.2383H25.5061C25.3797 44.237 25.2567 44.2789 25.1574 44.357C25.0581 44.4352 24.9884 44.5449 24.96 44.668L23.8271 49.2774L33.9936 49.2766Z" fill="#CD7F1F"/>
</g>
</g>
<mask id="mask28_1085_4339" style="mask-type:luminance" maskUnits="userSpaceOnUse" x="0" y="0" width="100" height="100">
<path d="M0 0H100V100H0V0Z" fill="black" fill-opacity="0.4"/>
</mask>
<g mask="url(#mask28_1085_4339)">
<mask id="mask29_1085_4339" style="mask-type:luminance" maskUnits="userSpaceOnUse" x="0" y="0" width="100" height="100">
<path d="M0 0H100V100H0V0Z" fill="white"/>
</mask>
<g mask="url(#mask29_1085_4339)">
<path d="M57.5859 62.7051L66.3085 49.4629H76.4554C76.4462 49.4998 76.4331 49.5357 76.4164 49.5699L67.7554 62.7629C67.7069 62.8349 67.6414 62.894 67.5647 62.9349C67.488 62.9757 67.4025 62.9971 67.3156 62.9973H57.0984C57.1977 62.9933 57.2945 62.9645 57.3798 62.9135C57.4651 62.8624 57.5355 62.7908 57.5859 62.7051Z" fill="#FFE700"/>
</g>
</g>
<mask id="mask30_1085_4339" style="mask-type:luminance" maskUnits="userSpaceOnUse" x="0" y="0" width="100" height="100">
<path d="M0 0H100V100H0V0Z" fill="black" fill-opacity="0.4"/>
</mask>
<g mask="url(#mask30_1085_4339)">
<mask id="mask31_1085_4339" style="mask-type:luminance" maskUnits="userSpaceOnUse" x="0" y="0" width="100" height="100">
<path d="M0 0H100V100H0V0Z" fill="white"/>
</mask>
<g mask="url(#mask31_1085_4339)">
<path d="M66.269 49.3171L65.0792 44.4921C65.0635 44.4311 65.0279 44.3771 64.9781 44.3385C64.9284 44.2999 64.8672 44.2789 64.8042 44.2788H74.7565C75.0183 44.2788 75.244 44.4522 75.3026 44.7085L76.4347 49.3179L66.269 49.3171Z" fill="#FFFF00"/>
</g>
</g>
<mask id="mask32_1085_4339" style="mask-type:luminance" maskUnits="userSpaceOnUse" x="0" y="0" width="100" height="100">
<path d="M0 0H100V100H0V0Z" fill="black" fill-opacity="0.4"/>
</mask>
<g mask="url(#mask32_1085_4339)">
<mask id="mask33_1085_4339" style="mask-type:luminance" maskUnits="userSpaceOnUse" x="0" y="0" width="100" height="100">
<path d="M0 0H100V100H0V0Z" fill="white"/>
</mask>
<g mask="url(#mask33_1085_4339)">
<path d="M23.6638 49.4329H76.4646L76.3365 48.936H23.7794L23.6638 49.4329Z" fill="#FFFF00"/>
</g>
</g>
<path d="M72.6249 23.0562L73.6819 16.1133H26.4827L27.5389 23.0562H72.6249Z" fill="url(#paint9_linear_1085_4339)"/>
<path d="M34.0728 35.3413C34.0063 35.3405 33.9418 35.3639 33.8913 35.4072C33.8408 35.4505 33.8078 35.5107 33.7985 35.5765L33.7798 35.6741H66.3579L66.3392 35.5765C66.3297 35.5107 66.2965 35.4505 66.2459 35.4074C66.1953 35.3643 66.1307 35.3411 66.0642 35.3421L34.0728 35.3413Z" fill="#FFF203"/>
</g>
<defs>
<linearGradient id="paint0_linear_1085_4339" x1="34.8272" y1="29.1521" x2="65.3181" y2="29.1521" gradientUnits="userSpaceOnUse">
<stop offset="0.408" stop-color="white" stop-opacity="0"/>
<stop offset="0.999" stop-color="white"/>
</linearGradient>
<linearGradient id="paint1_linear_1085_4339" x1="43.4665" y1="34.2273" x2="43.4665" y2="23.4616" gradientUnits="userSpaceOnUse">
<stop offset="0.096" stop-color="#00CAF4" stop-opacity="0"/>
<stop offset="0.568" stop-color="#00CAF4" stop-opacity="0.282"/>
<stop offset="0.6" stop-color="#00CAF4" stop-opacity="0.302"/>
<stop offset="0.797" stop-color="#00CAF4" stop-opacity="0.302"/>
<stop offset="1" stop-color="#00CAF4" stop-opacity="0.102"/>
</linearGradient>
<linearGradient id="paint2_linear_1085_4339" x1="56.6787" y1="34.2273" x2="56.6787" y2="23.4616" gradientUnits="userSpaceOnUse">
<stop offset="0.096" stop-color="#00CAF4" stop-opacity="0"/>
<stop offset="0.568" stop-color="#00CAF4" stop-opacity="0.282"/>
<stop offset="0.6" stop-color="#00CAF4" stop-opacity="0.302"/>
<stop offset="0.797" stop-color="#00CAF4" stop-opacity="0.302"/>
<stop offset="1" stop-color="#00CAF4" stop-opacity="0.102"/>
</linearGradient>
<linearGradient id="paint3_linear_1085_4339" x1="27.433" y1="41.2008" x2="72.7119" y2="41.2008" gradientUnits="userSpaceOnUse">
<stop offset="0.096" stop-color="#00CAF4" stop-opacity="0"/>
<stop offset="0.568" stop-color="#00CAF4" stop-opacity="0.282"/>
<stop offset="0.6" stop-color="#00CAF4" stop-opacity="0.302"/>
<stop offset="0.797" stop-color="#00CAF4" stop-opacity="0.302"/>
<stop offset="1" stop-color="#00CAF4" stop-opacity="0.102"/>
</linearGradient>
<linearGradient id="paint4_linear_1085_4339" x1="50.0608" y1="62.9659" x2="50.0608" y2="84.0162" gradientUnits="userSpaceOnUse">
<stop stop-color="#005F8E"/>
<stop offset="0.724" stop-color="#004972"/>
<stop offset="0.74" stop-color="#004972"/>
</linearGradient>
<linearGradient id="paint5_linear_1085_4339" x1="29.4644" y1="14.9364" x2="70.7053" y2="14.9364" gradientUnits="userSpaceOnUse">
<stop offset="0.204" stop-color="#FFD813" stop-opacity="0"/>
<stop offset="0.781" stop-color="#FFD813"/>
</linearGradient>
<linearGradient id="paint6_linear_1085_4339" x1="33.3423" y1="36.733" x2="66.8019" y2="36.733" gradientUnits="userSpaceOnUse">
<stop offset="0.204" stop-color="#FFD813" stop-opacity="0"/>
<stop offset="0.781" stop-color="#FFD813"/>
</linearGradient>
<linearGradient id="paint7_linear_1085_4339" x1="60.9371" y1="62.966" x2="60.9371" y2="84.0162" gradientUnits="userSpaceOnUse">
<stop stop-color="#008DC4"/>
<stop offset="0.541" stop-color="#0072A7"/>
</linearGradient>
<linearGradient id="paint8_linear_1085_4339" x1="39.2584" y1="66.7654" x2="57.9069" y2="34.4653" gradientUnits="userSpaceOnUse">
<stop offset="0.204" stop-color="#FFD813" stop-opacity="0"/>
<stop offset="0.781" stop-color="#FFD813"/>
</linearGradient>
<linearGradient id="paint9_linear_1085_4339" x1="26.4878" y1="19.5837" x2="73.681" y2="19.5837" gradientUnits="userSpaceOnUse">
<stop offset="0.096" stop-color="#00CAF4" stop-opacity="0"/>
<stop offset="0.568" stop-color="#00CAF4" stop-opacity="0.282"/>
<stop offset="0.6" stop-color="#00CAF4" stop-opacity="0.302"/>
<stop offset="0.797" stop-color="#00CAF4" stop-opacity="0.302"/>
<stop offset="1" stop-color="#00CAF4" stop-opacity="0.102"/>
</linearGradient>
<clipPath id="clip0_1085_4339">
<rect width="100" height="100" fill="white"/>
</clipPath>
</defs>
</svg>
