<svg width="100" height="100" viewBox="0 0 100 100" fill="none" xmlns="http://www.w3.org/2000/svg">
<g clip-path="url(#clip0_1085_4515)">
<path d="M36.0713 19.8344L36.215 19.9125L48.4752 26.825C48.8879 27.0572 49.3535 27.1792 49.8271 27.1792C50.3007 27.1792 50.7663 27.0572 51.1791 26.825L63.3353 19.9844C64.2781 19.4291 65.4028 19.2711 66.4621 19.5451C67.5214 19.819 68.4285 20.5026 68.9838 21.4454C69.5391 22.3881 69.6971 23.5129 69.4231 24.5721C69.1491 25.6314 68.4656 26.5385 67.5228 27.0938L67.3822 27.1743L60.3642 31.1305C60.1518 31.2504 59.975 31.4246 59.852 31.6352C59.729 31.8459 59.6642 32.0854 59.6642 32.3293C59.6642 32.5733 59.729 32.8128 59.852 33.0235C59.975 33.2341 60.1518 33.4083 60.3642 33.5282L79.3142 44.2118C79.7273 44.4433 80.193 44.565 80.6666 44.565C81.1402 44.565 81.6058 44.4433 82.0189 44.2118L93.7384 37.6024C94.6778 37.1022 95.7741 36.9839 96.7985 37.2722C97.823 37.5605 98.6966 38.2331 99.2373 39.1498C99.778 40.0665 99.944 41.1565 99.7007 42.1925C99.4574 43.2286 98.8236 44.1308 97.9314 44.711L97.7908 44.7914L91.197 48.5102C90.9846 48.6291 90.8078 48.8026 90.6849 49.0128C90.562 49.2229 90.4974 49.4621 90.4978 49.7055C90.4978 50.2024 90.7635 50.661 91.197 50.9047L97.8283 54.6454C98.3056 54.9019 98.7277 55.25 99.0705 55.6697C99.4133 56.0894 99.67 56.5725 99.826 57.0915C99.9819 57.6104 100.034 58.1551 99.9796 58.6942C99.925 59.2333 99.7648 59.7564 99.508 60.2336C98.9893 61.1972 98.1092 61.9155 97.0611 62.2304C96.0131 62.5454 94.8829 62.4313 93.9189 61.9133L93.7752 61.8352L82.0189 55.2071C81.6072 54.9731 81.1417 54.8501 80.6681 54.8501C80.1946 54.8501 79.7291 54.9731 79.3174 55.2071L60.1517 66.0055C59.9397 66.1258 59.7634 66.3002 59.6407 66.5109C59.5181 66.7215 59.4535 66.961 59.4535 67.2047C59.4535 67.4485 59.5181 67.6879 59.6407 67.8986C59.7634 68.1092 59.9397 68.2836 60.1517 68.4039L68.0689 72.8649C69.0038 73.3987 69.6929 74.2767 69.9892 75.3116C70.2855 76.3466 70.1655 77.4563 69.6549 78.404C69.1455 79.3519 68.2858 80.0633 67.2593 80.3863C66.2328 80.7093 65.1207 80.6183 64.1603 80.1329L64.0166 80.0547L50.9759 72.7032C50.5636 72.4716 50.0985 72.3499 49.6256 72.3499C49.1526 72.3499 48.6876 72.4716 48.2752 72.7032L35.1189 80.1211C34.1795 80.6266 33.0809 80.7487 32.0535 80.4619C31.0261 80.1751 30.1496 79.5016 29.6078 78.5827C29.066 77.6637 28.9011 76.5708 29.1476 75.5329C29.3941 74.495 30.0328 73.5929 30.9299 73.0157L31.0674 72.9297L39.0963 68.4063C39.5306 68.1641 39.7955 67.7039 39.7955 67.2079C39.7958 66.9639 39.7312 66.7243 39.6083 66.5135C39.4854 66.3028 39.3087 66.1285 39.0963 66.0086L20.1025 55.3047C19.6903 55.0723 19.225 54.9501 18.7517 54.9501C18.2785 54.9501 17.8132 55.0723 17.401 55.3047L6.21892 61.5938C5.75226 61.8692 5.23589 62.0498 4.69935 62.1255C4.16281 62.2011 3.61662 62.1702 3.09201 62.0346C2.56741 61.899 2.07469 61.6613 1.64202 61.3351C1.20936 61.0089 0.845235 60.6007 0.570483 60.1336C0.295464 59.6668 0.115094 59.1504 0.039675 58.6139C-0.0357444 58.0774 -0.00473611 57.5313 0.130929 57.0068C0.266594 56.4823 0.504258 55.9896 0.830348 55.557C1.15644 55.1243 1.56456 54.7601 2.03142 54.4852L2.17205 54.4047L8.22048 51.0016C8.43229 50.8811 8.6084 50.7067 8.73091 50.496C8.85342 50.2854 8.91796 50.0461 8.91796 49.8024C8.91796 49.5587 8.85342 49.3194 8.73091 49.1087C8.6084 48.8981 8.43229 48.7237 8.22048 48.6032L2.18142 45.2008C1.24334 44.6682 0.551005 43.7896 0.252587 42.7529C-0.0458311 41.7163 0.0733778 40.6041 0.584701 39.6542C1.09602 38.7044 1.95884 37.9924 2.98848 37.6707C4.01812 37.349 5.13279 37.4431 6.09392 37.9329L6.23767 38.011L17.4088 44.311C17.8212 44.5426 18.2862 44.6642 18.7592 44.6642C19.2321 44.6642 19.6972 44.5426 20.1095 44.311L39.2877 33.518C39.5007 33.3987 39.6781 33.2249 39.8017 33.0144C39.9252 32.8039 39.9905 32.5642 39.9909 32.3201C39.9912 32.076 39.9265 31.8362 39.8035 31.6253C39.6804 31.4145 39.5035 31.2402 39.2908 31.1204L32.1635 27.1032C31.2065 26.5814 30.4949 25.7021 30.1842 24.6574C29.8734 23.6127 29.9888 22.4874 30.5051 21.5275C31.0214 20.5676 31.8966 19.851 32.9396 19.5344C33.9825 19.2177 35.1084 19.3267 36.0713 19.8375V19.8344ZM48.472 37.8172L29.2939 48.6094C29.0807 48.7288 28.9032 48.9028 28.7796 49.1136C28.6561 49.3244 28.5909 49.5643 28.5908 49.8086C28.5908 50.3039 28.8564 50.7633 29.2908 51.0071L48.2752 61.7055C48.6868 61.9393 49.1521 62.0622 49.6256 62.0622C50.099 62.0622 50.5643 61.9393 50.9759 61.7055L70.1392 50.9039C70.5728 50.6602 70.8377 50.2008 70.8377 49.7055C70.8377 49.2102 70.572 48.7524 70.1392 48.5102L51.172 37.8149C50.7596 37.5832 50.2944 37.4614 49.8213 37.4614C49.3481 37.4614 48.883 37.5832 48.4705 37.8149L48.472 37.8172Z" fill="#9D0FB0"/>
</g>
<defs>
<clipPath id="clip0_1085_4515">
<rect width="100" height="100" fill="white"/>
</clipPath>
</defs>
</svg>
