<svg width="100" height="100" viewBox="0 0 100 100" fill="none" xmlns="http://www.w3.org/2000/svg">
<g clip-path="url(#clip0_1085_4517)">
<path d="M49.9986 4.98877C54.5354 4.98877 58.5666 8.18877 58.5666 12.1294C58.5666 16.0685 54.7291 19.2685 49.9979 19.2685C49.4593 19.2679 48.7546 19.1791 47.8838 19.0021C47.2069 18.864 46.5028 18.9765 45.9025 19.3185L15.1885 36.7872C14.9686 36.9124 14.7859 37.0937 14.659 37.3126C14.5322 37.5315 14.4656 37.7802 14.4663 38.0332C14.4669 38.2862 14.5347 38.5345 14.6627 38.7527C14.7906 38.971 14.9742 39.1514 15.1947 39.2755L48.4901 57.9645C48.9149 58.2032 49.3937 58.3294 49.881 58.331C50.3683 58.3327 50.848 58.2098 51.2744 57.9739L84.7479 39.3645C84.9703 39.2422 85.156 39.0627 85.2857 38.8446C85.4155 38.6264 85.4846 38.3775 85.4859 38.1237C85.4871 37.8699 85.4205 37.6203 85.293 37.4008C85.1654 37.1814 84.9816 37 84.7604 36.8755L74.3151 30.9481C73.8893 30.7064 73.4086 30.578 72.919 30.5752C72.4295 30.5725 71.9474 30.6955 71.519 30.9325L60.4963 37.0466C60.3602 37.1226 60.2441 37.2299 60.1576 37.3597C60.0711 37.4894 60.0166 37.6378 59.9986 37.7927L59.9947 37.8989C59.9947 41.8403 56.1572 45.0372 51.4268 45.0372C46.7002 45.0372 42.8619 41.8411 42.8619 37.8981C42.8619 33.9575 46.7002 30.7575 51.4276 30.7575C51.6049 30.7575 51.8049 30.7716 52.033 30.7864L52.3955 30.8255L52.7955 30.8724C53.4051 30.9552 54.0251 30.8394 54.5635 30.5419L70.8705 21.4966C71.4835 21.1568 72.1704 20.9728 72.8711 20.9605C73.5718 20.9482 74.2648 21.1082 74.8893 21.4263L75.0643 21.5161L97.833 34.4427C100.687 36.0622 100.718 40.1419 97.9502 41.8239L97.7979 41.9138L82.5635 50.3794C82.3388 50.5052 82.1522 50.6893 82.0235 50.9124C81.8948 51.1354 81.8287 51.3891 81.8322 51.6466C81.8368 51.9031 81.9099 52.1537 82.044 52.3724C82.1781 52.5911 82.3682 52.7699 82.5947 52.8903L97.6807 60.8278C100.678 62.402 100.747 66.6653 97.8104 68.3388L51.9924 94.4497C51.3451 94.8177 50.6132 95.0113 49.8686 95.0113C49.1239 95.0113 48.3921 94.8177 47.7447 94.4497L2.18927 68.4466C-0.752919 66.7669 -0.671669 62.4942 2.33224 60.9294L17.583 52.9724C17.8108 52.8528 18.0021 52.6741 18.1369 52.455C18.2717 52.2359 18.3449 51.9845 18.3489 51.7273C18.3529 51.4701 18.2875 51.2166 18.1596 50.9934C18.0317 50.7702 17.846 50.5856 17.6221 50.4591L2.18458 41.795C-0.668544 40.1919 -0.7287 36.1317 2.01427 34.4278L2.16661 34.3349L40.0752 12.7802C40.6728 12.438 41.1277 11.8927 41.3572 11.2435L41.4041 11.0911C42.7377 7.12861 45.7635 4.98877 49.9986 4.98877ZM71.151 57.5825L52.4338 68.3458L52.2588 68.4411C51.6307 68.7645 50.9321 68.9268 50.2257 68.9134C49.5194 68.9 48.8274 68.7114 48.2119 68.3645L29.5525 57.8435C29.1391 57.6106 28.674 57.4849 28.1995 57.4778C27.7251 57.4707 27.2564 57.5824 26.8361 57.8028L16.0799 63.4239C15.8528 63.5431 15.6619 63.7211 15.5272 63.9394C15.3925 64.1577 15.3191 64.4082 15.3145 64.6646C15.31 64.9211 15.3745 65.174 15.5013 65.397C15.6281 65.6199 15.8126 65.8046 16.0354 65.9317L48.8963 84.7356C49.327 84.9804 49.8138 85.1091 50.3092 85.1091C50.8046 85.1091 51.2914 84.9804 51.7221 84.7356L84.8643 65.7997C85.0872 65.6731 85.2719 65.4889 85.3992 65.2664C85.5265 65.0438 85.5916 64.7912 85.5877 64.5349C85.5833 64.2786 85.51 64.0282 85.3756 63.8099C85.2412 63.5916 85.0505 63.4135 84.8236 63.2942L73.8963 57.5286C73.4709 57.3057 72.996 57.1938 72.5158 57.2033C72.0356 57.2129 71.5656 57.3436 71.1494 57.5833L71.151 57.5825Z" fill="#24A1C1"/>
</g>
<defs>
<clipPath id="clip0_1085_4517">
<rect width="100" height="100" fill="white"/>
</clipPath>
</defs>
</svg>
