<svg width="100" height="100" viewBox="0 0 100 100" fill="none" xmlns="http://www.w3.org/2000/svg">
<g clip-path="url(#clip0_1085_4519)">
<path d="M53.5623 43.1846C51.8675 43.1872 50.1699 43.2054 48.4693 43.2393L45.3334 44.7244L45.2912 44.7486C44.8201 44.9783 40.7037 47.0557 36.8318 50.7596C40.3022 48.9346 45.4022 46.551 51.4068 44.7018C53.2613 44.1312 55.1381 43.636 57.0326 43.2174C55.8772 43.199 54.7217 43.1881 53.5662 43.1846H53.5623ZM42.1107 43.415C39.211 43.521 36.3125 43.6559 33.4154 43.8197C31.7326 43.9127 30.0576 44.0275 28.3826 44.1541C27.5468 44.2142 26.7121 44.2879 25.8787 44.3752C25.6418 44.3977 25.4053 44.4245 25.1693 44.4557C22.985 45.7627 14.6068 51.0228 8.85449 57.901C14.4443 54.0166 24.1811 48.1775 36.2045 44.8127C38.1536 44.2673 40.1239 43.801 42.1107 43.415ZM66.8842 43.4854C66.7514 43.6822 66.4826 44.0705 66.0967 44.5978C64.8561 46.276 62.3982 49.3541 59.2451 51.9635C63.7084 51.1635 71.4482 49.1838 78.1459 44.5104C78.3131 44.3924 78.4811 44.2666 78.6467 44.151C78.6417 44.1472 78.6357 44.145 78.6295 44.1447C76.9933 44.0214 75.356 43.9131 73.7178 43.8197C71.4405 43.6911 69.1631 43.5797 66.8842 43.4854ZM64.2256 75.3002C63.3272 75.3002 60.7154 76.1104 54.9951 77.883L54.6436 77.9947L54.2982 77.865C54.2592 77.8518 50.5061 76.4596 46.0084 76.4596C45.6439 76.4592 45.2795 76.4684 44.9154 76.4869C44.4654 76.5103 41.9373 77.7119 38.7037 82.8275L38.4928 83.1564L38.124 83.276C34.3013 84.5006 30.4602 85.6674 26.6021 86.776L26.2193 86.8853L25.8576 86.7182C25.8186 86.7025 23.5084 85.6307 21.3115 84.6213C22.5092 86.3908 24.042 88.601 25.3904 90.333C27.7459 93.3666 30.7147 96.1689 36.4076 96.1689C37.1209 96.1689 37.8803 96.126 38.6592 96.0361C44.4498 95.383 45.9412 95.1182 46.7436 94.9775C47.0154 94.9314 47.2303 94.8924 47.5053 94.8588C47.549 94.8533 52.2904 94.2408 53.6209 91.2564C54.9928 88.1893 55.2686 87.4596 55.2795 87.4307L55.7639 86.14C55.7639 86.14 55.8232 85.8041 55.9217 85.7002C55.9217 85.7028 55.9227 85.7038 55.9248 85.7033L55.9342 85.7111C56.0865 85.8205 56.3123 86.1627 56.3123 86.1627L57.1107 87.1119C58.369 88.5905 59.6873 90.017 61.0623 91.3877C62.5014 92.8143 64.2428 93.5361 66.235 93.5361C66.9485 93.5328 67.6592 93.4452 68.3521 93.2752C69.0661 93.1017 69.7804 92.9298 70.4951 92.7596C73.1865 92.1158 76.2365 91.3846 77.7139 90.9705C78.0068 90.8885 78.3334 90.8143 78.6772 90.7361C80.6451 90.2814 83.3404 89.6541 84.7701 86.7916C85.9483 84.4537 87.148 82.1268 88.3693 79.8111C87.4923 80.2105 86.6249 80.6307 85.7678 81.0713C84.699 81.6322 83.2975 81.9041 81.4881 81.9041C80.4123 81.9041 79.3553 81.8127 78.1858 81.7088C75.8483 81.4939 71.8928 81.0291 71.8522 81.0236L71.5498 80.99L71.31 80.7978C71.2748 80.7721 67.8084 78.0119 65.0068 75.8088C64.8938 75.7161 64.7904 75.6304 64.6967 75.5518C64.4029 75.3002 64.4014 75.3002 64.2256 75.3002Z" fill="#CB3349"/>
<path d="M53.8347 2.28662C51.8582 2.28662 49.9027 2.44678 47.9816 2.75928C46.0665 3.07088 44.179 3.53378 42.3371 4.14365C37.7433 5.66006 33.4527 8.06709 29.6816 11.2171C28.925 11.8501 28.1917 12.5104 27.4832 13.1968C25.3221 15.2928 23.3962 17.6183 21.7394 20.1319C21.1758 20.986 20.6434 21.8603 20.1433 22.753V22.7546C19.6372 23.6583 19.164 24.58 18.7246 25.5179V25.5194C18.28 26.4713 17.8698 27.4388 17.4949 28.4202C18.3442 28.1533 19.1999 27.9071 20.0613 27.6819C20.7238 27.5124 21.3894 27.3499 22.0566 27.2022C22.7241 27.0539 23.3955 26.9231 24.0699 26.8101L24.0589 26.8147L24.0714 26.8116C23.4284 27.042 22.7877 27.279 22.1496 27.5226C21.516 27.7585 20.8824 28.0069 20.2503 28.2616L20.2121 28.278C18.9801 28.7677 17.7619 29.2913 16.5589 29.8483L16.5199 29.8655C16.2371 29.9944 15.9613 30.1343 15.6816 30.2679C15.3574 30.4233 15.0285 30.571 14.7082 30.7351L14.7035 30.7382C14.5441 30.8194 14.391 30.9101 14.2324 30.9944C13.7996 31.2233 13.3667 31.4515 12.9433 31.696C12.4121 32.0007 11.8933 32.321 11.3941 32.6593C10.8941 32.9976 10.4152 33.3546 9.96597 33.7335C9.9269 33.9601 9.89175 34.2085 9.8605 34.4444C9.85503 34.4905 9.85268 34.5374 9.84643 34.5835C9.80581 34.9361 9.77222 35.2895 9.74565 35.6437C9.69884 36.2546 9.672 36.8669 9.66518 37.4796C9.65632 38.8356 9.74037 40.1906 9.91675 41.5351C10.0808 42.7218 10.3058 43.8968 10.6042 45.0444C10.6433 45.1983 10.6707 45.3569 10.7136 45.5101V45.5116C10.7378 45.6015 10.7746 45.6874 10.8003 45.7772C10.9605 46.3288 11.1316 46.8765 11.3363 47.4132C11.5082 47.87 11.7035 48.3166 11.9222 48.753L11.9238 48.7546L12.0097 48.9179C12.1094 48.969 12.2099 49.0185 12.3113 49.0663L12.9136 49.3538C13.2503 49.5101 13.7152 49.7288 14.098 49.9007C14.1193 49.8828 14.1397 49.8637 14.1589 49.8437L13.0417 45.5858C13.2785 45.521 15.4003 44.9749 19.0574 44.2788L19.0339 44.2726C18.7452 44.219 18.4578 44.158 18.1722 44.0897C17.9753 44.0405 17.7816 43.9796 17.5863 43.9249C17.4644 43.8916 17.3428 43.8569 17.2214 43.821C16.7143 43.6728 16.2143 43.5012 15.723 43.3069L15.7214 43.3054C15.3268 43.1423 14.942 42.9564 14.5691 42.7483H14.5675C14.1964 42.5358 13.8316 42.2952 13.5488 41.9749H13.5519C14.0527 42.139 14.6207 42.2726 15.2457 42.3812H15.2488C15.8738 42.4882 16.5558 42.5694 17.2839 42.628C18.0152 42.6858 18.7884 42.7223 19.6035 42.7374C21.2285 42.7687 22.9988 42.7226 24.8339 42.6249C27.5863 42.478 30.4824 42.2147 33.2496 41.9296C38.3113 41.4077 43.3824 41.0233 48.4699 40.8577L48.5597 40.8562C50.2264 40.802 51.8946 40.7726 53.5644 40.7679C55.2644 40.772 56.9623 40.802 58.6582 40.8577C60.3534 40.9129 62.0478 40.9911 63.741 41.0921H63.7425C63.855 41.1009 63.9678 41.1093 64.0808 41.1171C67.3527 41.3171 70.6191 41.5929 73.8785 41.9288C76.5347 42.203 79.305 42.4522 81.9566 42.6015C82.0691 42.6077 82.1855 42.6187 82.2972 42.6249H82.3003C83.2168 42.6733 84.1175 42.7101 84.9918 42.7296C85.8675 42.7499 86.7183 42.753 87.5308 42.7374C89.1589 42.7062 90.6417 42.596 91.8949 42.3788C92.5121 42.2726 93.0746 42.1397 93.5714 41.978L93.5808 41.9749C93.2996 42.2952 92.9371 42.5358 92.566 42.7483C92.1916 42.9555 91.8061 43.142 91.4113 43.3069C91.0119 43.4653 90.6073 43.6099 90.198 43.7405C89.7891 43.8711 89.3758 43.9876 88.9589 44.0897C88.8381 44.1168 88.7157 44.1437 88.5918 44.1702C92.5996 44.914 94.9316 45.5194 95.1816 45.5866V45.5882L94.1136 49.6405L94.5589 49.4421L94.7574 49.3538L95.3605 49.0671C95.4605 49.0181 95.561 48.9679 95.6621 48.9163L95.7464 48.7546V48.753C95.9644 48.3159 96.1618 47.8688 96.3378 47.4132C96.5746 46.7895 96.7816 46.1549 96.9582 45.5116V45.5085C97.1394 44.8621 97.2949 44.2072 97.4246 43.5437V43.5405C97.5543 42.8759 97.6647 42.2075 97.7558 41.5351V41.5319C97.8428 40.8608 97.9079 40.187 97.9511 39.5116V39.5101C97.9938 38.8339 98.0121 38.1563 98.0058 37.4788C98.0058 37.4491 98.0011 37.4187 98.0011 37.3897C97.9939 36.4051 97.9302 35.4218 97.8105 34.4444C97.7813 34.206 97.7456 33.9684 97.7035 33.7319C97.2473 33.3505 96.7717 32.993 96.2785 32.6608C96.2785 32.6608 96.2785 32.6593 96.2769 32.6593C95.7726 32.3195 95.2562 31.9981 94.7285 31.696C93.5662 31.0271 92.3715 30.4162 91.1488 29.8655C89.93 29.2905 88.6761 28.7687 87.4175 28.2616C86.7884 28.0062 86.1555 27.76 85.5191 27.5233C84.8855 27.278 84.2425 27.0468 83.6003 26.8124L83.6121 26.8132L83.6019 26.8101C84.2761 26.9218 84.9457 27.0554 85.6144 27.2022C86.2812 27.3505 86.9454 27.5104 87.6066 27.6819H87.6097C88.4699 27.9046 89.3261 28.1546 90.1769 28.4202C87.9058 22.4851 84.4519 17.3265 80.1871 13.1968C79.4783 12.5107 78.7447 11.8506 77.9878 11.2179C74.2167 8.06709 69.9253 5.66006 65.3308 4.14365C63.4888 3.53378 61.6014 3.07088 59.6863 2.75928C57.7517 2.44446 55.7948 2.2864 53.8347 2.28662ZM41.8535 7.56943C41.5637 8.47633 41.3037 9.39244 41.0738 10.3163L41.3152 9.60381C41.3152 9.60381 41.7449 32.3397 47.0574 32.3397H48.7535V27.4062H50.798V15.9187H49.4433V18.4054H43.4128V9.89131L64.6472 9.89287V18.4054H58.6121V15.9179H57.2527V27.4077H59.3082V32.3405H60.8707C66.0097 32.3405 66.4527 11.2491 66.4769 9.85225C66.2784 9.08554 66.0574 8.32479 65.8144 7.571C68.6121 12.4444 69.5418 17.9679 69.83 21.9444L69.9394 22.3444L69.873 22.5304C69.966 24.0866 69.9707 25.3897 69.9449 26.2257C70.1578 26.0273 70.3679 25.8259 70.5753 25.6218C70.5832 25.614 70.5957 25.6085 70.6027 25.6007C70.6089 25.5944 70.6121 25.589 70.6199 25.5835C70.6277 25.5757 70.6355 25.5726 70.6433 25.5671L70.7324 25.5085C70.7459 25.5033 70.7589 25.4963 70.7714 25.4874C70.8101 25.4704 70.8501 25.4565 70.891 25.446C70.8988 25.446 70.9074 25.4413 70.9152 25.4413C70.9638 25.4301 71.0138 25.4257 71.0636 25.428C71.0769 25.428 71.0871 25.4312 71.0988 25.4312C71.1371 25.4335 71.1753 25.4388 71.2128 25.4468L71.2347 25.4522L80.2996 28.0265C80.3722 26.1772 80.4089 18.2319 76.2472 11.5343C76.3917 11.6983 81.0519 17.0187 81.3644 28.3312L82.8261 28.7452C82.9494 28.7799 83.0601 28.849 83.1454 28.9445C83.2307 29.04 83.2868 29.1579 83.3074 29.2843C83.5352 30.685 83.6849 32.0974 83.7558 33.5147C84.3207 35.8483 85.3644 38.971 87.0371 39.9569C87.3683 40.1132 87.6931 40.2838 88.0113 40.4687C87.3394 40.2022 86.6472 40.0101 85.9488 39.8382C85.2536 39.6632 84.5533 39.5094 83.8488 39.3772C82.4398 39.1095 81.0223 38.888 79.5988 38.7132C78.1785 38.5275 76.7541 38.3738 75.3269 38.2522C73.8972 38.1327 72.473 38.0116 71.041 37.928C65.3175 37.5757 59.5777 37.4866 53.8347 37.4812C48.0933 37.4843 42.3542 37.5905 36.6308 37.9296C35.1996 38.0124 33.773 38.1343 32.3441 38.2546C30.9149 38.3749 29.491 38.5285 28.0722 38.7155C26.6487 38.8904 25.2312 39.1119 23.8222 39.3796C23.117 39.5114 22.4159 39.6644 21.7199 39.8382C21.0246 40.0101 20.3285 40.203 19.6574 40.4687C19.9759 40.2829 20.3026 40.1114 20.6363 39.9546C22.305 38.9663 23.3472 35.8522 23.9121 33.521C23.9792 32.2632 24.0988 30.8765 24.3613 29.2835C24.3817 29.1572 24.4378 29.0394 24.5229 28.9439C24.6081 28.8484 24.7187 28.7792 24.8417 28.7444L26.3003 28.3319C26.6175 17.0194 31.2769 11.6991 31.423 11.5351C27.2605 18.2335 27.298 26.178 27.3699 28.028L36.4339 25.4507L36.455 25.446C36.4924 25.438 36.5302 25.4328 36.5683 25.4304L36.605 25.428C36.6545 25.4261 36.7041 25.43 36.7527 25.4397C36.7605 25.4397 36.7691 25.4452 36.78 25.4476C36.8182 25.4577 36.8555 25.4708 36.8917 25.4866C36.9074 25.4944 36.9183 25.503 36.9339 25.5116C36.9652 25.5288 36.9949 25.547 37.023 25.5663C37.0308 25.5726 37.0417 25.5741 37.0488 25.5819C37.055 25.5874 37.0582 25.5952 37.0644 25.6007C37.0722 25.6085 37.0832 25.6132 37.0917 25.6218C37.2975 25.827 37.5074 26.0283 37.7214 26.2257C37.6308 23.2397 37.7746 14.6718 41.8542 7.57022L41.8535 7.56943ZM47.6292 14.1085V16.5952H47.6308V14.1085H47.6292ZM55.4433 14.1085V29.2202H57.4941V29.2187H55.4449V14.1093L55.4433 14.1085ZM70.4683 27.5726C69.7917 28.1874 68.8707 28.9772 67.9449 29.6351V29.6374C68.8707 28.9796 69.7917 28.189 70.4683 27.5741V27.5726ZM37.2027 27.5741C37.2019 27.6093 37.2027 27.6632 37.2011 27.6991L37.2042 27.5757L37.2027 27.5741ZM68.0269 27.8046L67.9878 27.9179L68.0191 27.8929L68.0269 27.8046ZM50.5621 29.2187V29.2202H52.6113V29.2187H50.5621ZM33.3042 29.7319C32.3824 29.6882 31.3199 29.9804 30.4996 30.1757C28.8597 30.5663 26.7128 31.1124 26.3613 31.9718C25.68 33.6374 25.3457 37.9819 25.3457 37.9819L25.298 38.0108C25.3058 38.0968 25.3183 38.2694 25.3238 38.3194C26.1746 38.0891 27.0297 37.875 27.8886 37.6772C29.3066 37.3632 30.7363 37.0991 32.1675 36.8569C33.6019 36.6187 35.0425 36.4351 36.4808 36.2608C36.5839 36.2476 36.6832 36.2397 36.7847 36.2257C36.7652 36.1865 36.749 36.1457 36.7363 36.1038C36.6121 35.6481 36.5026 35.1885 36.4082 34.7257C35.8991 33.6327 35.5139 32.4863 35.2597 31.3077C35.0066 30.1562 34.2261 29.7757 33.3042 29.7319ZM74.4691 29.7319C73.5472 29.7757 72.7668 30.1562 72.5128 31.3077C72.1527 32.9491 71.6332 34.253 71.166 35.1468C71.0941 35.4663 71.0246 35.7858 70.9371 36.1038C70.9239 36.1479 70.9069 36.1908 70.8863 36.2319C70.9884 36.2408 71.0891 36.2515 71.1886 36.264C74.0758 36.5905 76.9446 37.0632 79.7839 37.6804C80.6419 37.8785 81.4962 38.0921 82.3464 38.321C82.3582 38.2171 82.38 37.9335 82.4011 37.6788C82.3363 36.9163 82.0214 33.4577 81.4136 31.9718C81.0621 31.1124 78.9144 30.5663 77.2753 30.1757C76.455 29.9804 75.3917 29.6882 74.4691 29.7319ZM67.6121 32.1288C67.3878 33.2358 67.0199 34.539 66.4167 35.8015H66.4191C67.0207 34.539 67.3878 33.2358 67.6121 32.1288ZM38.0207 35.7054L38.03 35.7468C38.0606 35.8601 38.0606 35.9795 38.03 36.0929H38.0316C38.0625 35.979 38.0625 35.859 38.0316 35.7452L38.0207 35.7062V35.7054Z" fill="#F4EDAE"/>
<path d="M91.7726 56.9946L90.3819 66.7251V66.7282C90.3678 66.8218 90.3349 66.9115 90.2852 66.9921C90.2355 67.0726 90.1701 67.1423 90.0929 67.197V67.1985L88.1054 68.5899L87.9866 69.1993C89.9476 69.6813 91.828 68.2759 92.889 67.2595C93.3843 65.3345 93.8202 63.0743 93.9671 61.4353C94.0804 60.172 94.0882 59.4056 94.035 58.9274C94.0203 58.7478 93.9798 58.5713 93.9147 58.4032C93.877 58.3086 93.8166 58.2247 93.739 58.1587C93.6468 58.0813 93.4108 57.9399 93.1897 57.8048C93.1038 57.7532 93.0749 57.7259 92.9765 57.6681H92.9749C92.6202 57.461 92.1944 57.2228 91.7726 56.9946ZM16.3374 58.3454C15.8718 58.5946 15.3694 58.8712 14.9491 59.1173L14.9476 59.1188C14.7968 59.2071 14.7468 59.2493 14.6226 59.3259C14.3991 59.4642 14.1351 59.6212 14.0421 59.6985C13.8569 59.8524 13.7022 60.186 13.7507 61.3704C13.7671 61.7657 13.8069 62.2556 13.8749 62.8649L13.8827 62.9181C13.971 63.6938 14.1327 64.6274 14.3444 65.6142L14.3507 65.6454C14.57 66.6609 14.8214 67.6692 15.1046 68.6688C15.9491 69.6407 17.3538 70.6845 19.1843 69.9618L17.8874 69.054C17.8077 68.998 17.7404 68.926 17.69 68.8426C17.6396 68.7592 17.607 68.6663 17.5944 68.5696L16.3374 58.3454ZM54.0085 59.7368C53.538 59.7407 53.0684 59.7772 52.603 59.8462L49.5077 70.0431C49.5061 70.0467 49.5041 70.0498 49.5015 70.0524C49.4656 70.1645 49.4022 70.2658 49.3171 70.347L49.3155 70.3485L49.314 70.3501C49.2239 70.4323 49.1141 70.4896 48.9952 70.5165L48.9937 70.5181L47.5132 70.8477C47.3874 71.3704 46.9608 72.1368 45.5874 72.5563C43.3733 73.2337 29.3452 77.4157 27.746 77.1892C26.8007 77.0563 25.064 76.086 23.746 75.2892C24.3405 76.6946 25.0022 78.0707 25.7288 79.4126C26.0155 79.9438 26.3374 80.4962 26.6733 81.0571C26.8007 81.2704 26.9233 81.4806 27.0577 81.697C27.5218 82.4415 28.0186 83.2001 28.571 83.9673C31.4225 83.1239 34.2654 82.2515 37.0991 81.3501C37.6673 80.4747 38.279 79.6283 38.9319 78.8142V78.8126C39.5543 78.0314 40.226 77.2909 40.9429 76.5954C41.6241 75.9438 42.3069 75.3946 42.9601 75.0024L42.9608 75.0001L42.9733 74.9938C43.2675 74.8144 43.578 74.6633 43.9007 74.5423L43.9147 74.536L43.9304 74.5313C44.2114 74.4267 44.5061 74.363 44.8054 74.3423C45.2056 74.3225 45.6062 74.3123 46.0069 74.3118H46.0085C46.5361 74.3139 47.0629 74.3313 47.589 74.3642H47.5905C48.1157 74.3975 48.6398 74.4452 49.1624 74.5071C48.9707 74.3331 48.7998 74.1376 48.653 73.9243L48.6507 73.9228C48.5269 73.7425 48.4202 73.551 48.3319 73.3509L48.3304 73.3493C48.1686 72.9821 48.0952 72.6618 48.0343 72.4657H48.0358C48.0358 72.4657 48.2163 72.6063 48.546 72.8118C48.7101 72.9142 48.9108 73.0321 49.1452 73.1571H49.1468C49.2226 73.197 49.3226 73.2392 49.4046 73.2806C50.2451 73.7118 51.145 74.0156 52.0749 74.1821C52.4593 74.2517 52.8479 74.2951 53.2382 74.3118L53.3163 74.3149C53.7272 74.3284 54.1386 74.3106 54.5468 74.2618L54.6202 74.2556C56.1596 74.052 57.6445 73.5505 58.9921 72.779L59.0163 72.7634C59.4146 72.5359 59.7981 72.2836 60.1647 72.0079C60.3976 71.8329 60.4811 71.7563 60.5241 71.7181L60.5983 71.6571L60.5999 71.6556C60.5999 71.6556 60.5968 72.0438 60.3929 72.5829C60.2723 72.8985 60.1113 73.197 59.914 73.4712V73.4727C59.6874 73.7868 59.3843 74.1087 58.9827 74.4079C60.528 73.9407 61.6202 73.6267 62.4358 73.4298C63.2515 73.2329 63.7897 73.1524 64.2272 73.1524C65.1936 73.1524 65.6686 73.5548 66.0866 73.9103C66.1647 73.9751 66.2436 74.0438 66.3374 74.1196L66.339 74.1212C66.8335 74.5103 67.0882 74.7149 67.6007 75.1212C69.2043 76.3883 70.8067 77.657 72.4077 78.9274H72.4093C72.503 78.9384 72.8569 78.9751 72.9874 78.9899C74.203 79.1306 76.6351 79.4087 78.3811 79.5681C78.939 79.6196 79.4694 79.6657 79.9835 79.7001C80.4983 79.7337 80.9968 79.7548 81.4897 79.7548C81.8074 79.7548 82.1069 79.7446 82.3882 79.7243C82.8719 78.7918 83.3224 77.8426 83.739 76.8782C83.8009 76.7381 83.8624 76.5975 83.9233 76.4563C84.3754 75.3962 84.7928 74.3217 85.1749 73.2345C84.0608 74.0181 81.4515 75.7845 80.2124 76.0149C78.6249 76.3103 64.4296 72.7438 62.1874 72.1634C61.1522 71.8954 60.6444 71.4134 60.3851 70.9704L59.1897 70.8345C59.0562 70.8182 58.9293 70.764 58.8257 70.6782C58.7206 70.591 58.6433 70.4751 58.603 70.3446L55.4171 59.847C54.953 59.7803 54.4851 59.7435 54.0163 59.7368H54.0085ZM56.6101 89.8087C56.2946 90.5335 55.9748 91.2564 55.6507 91.9774H55.7101L55.771 91.9759C56.0983 91.9759 56.4601 91.9415 56.8007 91.9251C56.8577 91.9204 56.914 91.9103 56.9702 91.9056C57.4458 91.864 57.92 91.8075 58.3921 91.736C57.7868 91.1041 57.1927 90.4616 56.6101 89.8087ZM59.2983 92.6626C58.4931 92.8252 57.6793 92.9423 56.8608 93.0134H56.8585C56.845 93.0134 56.8319 93.0139 56.8194 93.0149C56.4851 93.0282 56.1655 93.0571 55.814 93.0571L55.2718 93.0618L55.0647 93.0571C54.9158 93.2769 54.7559 93.4845 54.5851 93.6798C54.5397 93.7329 54.4905 93.7798 54.4437 93.8313C54.3145 93.9746 54.1795 94.1125 54.039 94.2446C53.9858 94.2938 53.9296 94.3384 53.8757 94.3868C53.7356 94.5103 53.5926 94.6282 53.4468 94.7407C53.3905 94.7834 53.3335 94.8251 53.2757 94.8657C53.1152 94.9829 52.9511 95.0949 52.7835 95.2017L52.7132 95.2454C52.3249 95.4812 51.9223 95.6925 51.5077 95.8782C51.4101 95.9228 51.3186 95.9618 51.2226 96.0024C50.8382 96.1665 50.4726 96.3079 50.1186 96.4235C54.9694 97.261 60.2608 95.986 63.039 95.1376C63.0101 95.1274 62.9835 95.1126 62.9546 95.1024C62.6936 95.0056 62.4371 94.8971 62.1858 94.7774C62.0936 94.7337 62.0046 94.6837 61.914 94.6368C61.7229 94.5386 61.5353 94.4339 61.3515 94.3228C61.2513 94.2621 61.1524 94.1996 61.0546 94.1353C60.8813 94.0198 60.712 93.8987 60.5468 93.772C60.4538 93.7017 60.3593 93.6337 60.2694 93.5595C60.0488 93.3789 59.8358 93.1892 59.6312 92.9907C59.6046 92.9649 59.5765 92.9431 59.5507 92.9173V92.9157C59.4647 92.8298 59.3819 92.7485 59.2983 92.6626Z" fill="#E6CCAD"/>
<path d="M64.2303 43.9434C63.4193 44.0255 62.6103 44.1253 61.8037 44.2426L61.7904 44.2441C60.9889 44.361 60.19 44.4951 59.3943 44.6465C56.7861 45.1403 54.209 45.7864 51.6764 46.5816L51.6107 46.6012C50.4506 46.9645 49.3295 47.3488 48.2467 47.7426C47.1032 48.1587 45.9691 48.5999 44.8451 49.066C46.3515 48.9932 47.8586 48.9378 49.3662 48.8996C50.9126 48.8595 52.4933 48.8392 54.1084 48.8387H54.1123C55.9998 48.8387 57.8334 48.8691 59.6217 48.9223L59.8115 48.9254C60.5079 48.2511 61.1817 47.5538 61.8318 46.8348C62.4818 46.1151 63.1077 45.3741 63.7084 44.6129C63.8959 44.377 64.0725 44.1504 64.2303 43.9434ZM81.324 44.8926C80.6344 45.3878 79.9288 45.8605 79.2084 46.3098C77.0514 47.6551 74.7912 48.7863 72.56 49.7371C74.835 49.959 76.9584 50.2059 78.9115 50.4652C80.8662 50.723 82.6506 50.9918 84.2451 51.2543C85.8389 51.516 87.2451 51.7715 88.4412 52.0027C89.6373 52.2348 90.6256 52.4426 91.3865 52.6105L92.8756 46.966C91.2561 46.5988 88.6154 46.0473 85.1115 45.4707H85.11C83.8504 45.2639 82.5879 45.0712 81.324 44.8926ZM39.9076 45.8035C38.5001 46.1308 37.1024 46.4986 35.7162 46.9066C34.349 47.309 33.0131 47.7434 31.7123 48.202C30.4353 48.6521 29.1693 49.133 27.9154 49.6441C26.7146 50.134 25.5247 50.6503 24.3467 51.1926C26.1356 50.904 27.9288 50.6425 29.7256 50.4082C31.5224 50.1741 33.3226 49.967 35.1256 49.7871L35.1623 49.7559C36.6312 48.3083 38.2185 46.986 39.9076 45.8027V45.8035ZM18.8717 46.2309C17.4146 46.5121 16.2264 46.7668 15.3467 46.966L15.7607 48.5285C16.7691 47.7246 17.8068 46.9582 18.8717 46.2309ZM87.8732 53.8066L86.3451 64.5168C86.3309 64.6104 86.298 64.7003 86.2482 64.7809V64.7824C86.1988 64.8634 86.1334 64.9336 86.0561 64.9887V64.9902L83.9326 66.4746L80.3225 69.0012C80.1878 69.0931 80.0254 69.1353 79.8631 69.1207L79.8475 69.1223L62.5607 67.1582C62.426 67.1432 62.2987 67.0891 62.1943 67.0026C62.0899 66.9161 62.0131 66.801 61.9732 66.6715L61.9717 66.6699L60.8889 63.102L58.8592 56.4223C58.2334 56.2605 56.8725 55.9379 55.4412 55.7871C54.9658 55.736 54.4881 55.7091 54.01 55.7066C53.0693 55.7066 52.0647 55.8316 51.1912 55.9824C50.3178 56.134 49.574 56.3129 49.1576 56.4199L46.0436 66.6699V66.6715C46.042 66.6725 46.041 66.6741 46.0404 66.6762C46.0042 66.791 45.9391 66.8945 45.8514 66.977C45.7612 67.0602 45.6507 67.1184 45.5311 67.1457L28.2443 70.9918C28.1113 71.0182 27.9733 71.0032 27.849 70.9488C27.7975 70.9293 27.742 70.9176 27.6951 70.8848L24.3232 68.523L21.9607 66.8691C21.882 66.813 21.8157 66.7412 21.766 66.6583C21.7162 66.5753 21.6841 66.483 21.6717 66.3871L21.6693 66.3855L20.4639 56.6012L20.124 53.8504C19.4813 53.9738 18.9019 54.0908 18.3857 54.2012C18.018 54.4022 17.6555 54.6035 17.2982 54.8051L18.9396 68.0926L27.2709 73.9277L48.2943 69.2496L51.3982 59.0262V59.0246C51.4364 58.9002 51.5083 58.7887 51.6061 58.7027C51.704 58.6171 51.8238 58.5603 51.9522 58.5387C52.7397 58.4121 53.4253 58.3486 54.0092 58.348C54.5857 58.348 55.2795 58.4129 56.0631 58.5395C56.1902 58.5603 56.3091 58.6157 56.4068 58.6996L56.4092 58.7027L56.4154 58.7082C56.51 58.7935 56.5797 58.9028 56.617 59.0246V59.0262L59.7998 69.5043L80.9404 71.909L89.0467 66.2293L90.7389 54.3918C89.786 54.1857 88.8307 53.9901 87.8732 53.8066Z" fill="#656C67"/>
<path d="M54.1095 50.7183C52.8553 50.7183 51.6222 50.7305 50.4103 50.755H50.3735C49.1719 50.7791 47.9706 50.8147 46.7696 50.862C44.5165 50.9502 42.2651 51.0789 40.0165 51.248H40.0149C39.056 51.7167 38.106 52.2038 37.1657 52.7089L37.1157 52.7354L37.1142 52.737C36.3774 53.1325 35.6473 53.5403 34.9243 53.9605C33.7204 54.662 33.0478 55.1058 33.0173 55.1276H33.0157L30.9493 56.5058L28.8845 57.8823L28.8821 57.8839L30.5556 55.4823L31.7212 53.8097V53.8081C32.1857 53.1447 32.6786 52.5016 33.1985 51.8808C31.0799 52.1182 28.9658 52.3941 26.8571 52.7081C26.661 52.737 26.4657 52.7698 26.2696 52.7995C24.4946 53.0698 22.8634 53.3409 21.4946 53.5933L22.2048 59.3456L23.0149 65.9081L28.2415 69.569L44.8321 65.8792L46.3853 60.7628L47.9368 55.648C47.9632 55.5656 48.0045 55.4888 48.0587 55.4214C48.1123 55.3534 48.178 55.296 48.2524 55.2519C48.301 55.2202 48.3543 55.1965 48.4103 55.1815C48.4673 55.1659 49.1204 54.9886 50.0181 54.8003C50.6913 54.6551 51.3706 54.5396 52.054 54.4542L52.0774 54.4487L55.1243 52.6089C56.0399 52.0511 56.9162 51.4312 57.747 50.7534C57.1532 50.7425 56.5399 50.7417 55.9376 50.7347C55.3282 50.7292 54.7188 50.719 54.1095 50.7183ZM68.5595 51.2722C66.9548 51.8236 65.3306 52.3161 63.6899 52.7487C62.365 53.0988 61.0304 53.4109 59.6876 53.6847C57.3634 54.1573 55.8485 54.3394 55.6767 54.3511L55.4782 54.3636L55.286 54.3792C56.3704 54.473 57.4243 54.6651 58.2196 54.8378C59.0173 55.012 59.5556 55.1659 59.6071 55.1815C59.7182 55.2145 59.8193 55.2743 59.9017 55.3558C59.9843 55.4372 60.0455 55.5379 60.0798 55.6487L63.1735 65.8308L79.7423 67.7136L85.011 64.0237L86.5087 53.5519C83.8767 53.0753 81.2335 52.6632 78.5813 52.3159C77.0431 52.1125 75.5024 51.9289 73.9595 51.7651C72.1619 51.5749 70.3617 51.4106 68.5595 51.2722ZM69.3392 53.9745C69.6063 53.9651 69.8704 54.0003 70.1298 54.0722H70.1345L70.1399 54.0753C70.3972 54.1482 70.6472 54.2571 70.8899 54.4019L70.8907 54.4034C71.1355 54.5498 71.3699 54.7295 71.5938 54.9425L71.5962 54.9433C71.8357 55.1732 72.0538 55.4245 72.2477 55.694C72.4389 55.9576 72.6147 56.2446 72.7751 56.555C72.9352 56.8636 73.0767 57.1956 73.2009 57.5433L73.2274 57.6183C73.3485 57.9683 73.4524 58.3347 73.5321 58.7151C73.6177 59.1194 73.6764 59.5289 73.7079 59.9409C73.744 60.3441 73.7383 60.7499 73.6907 61.1519C73.67 61.3148 73.6379 61.4762 73.5946 61.6347C73.5561 61.7751 73.5065 61.9123 73.4462 62.0448C73.9462 61.9854 74.3485 62.0261 74.6727 62.1214C74.9962 62.2159 75.2399 62.3659 75.4235 62.5253C75.6056 62.6854 75.7267 62.855 75.8024 62.9894C75.879 63.1237 75.9118 63.2237 75.9173 63.244C75.7416 63.1594 75.5568 63.0949 75.3665 63.0519C75.177 63.01 74.9839 62.986 74.7899 62.98C74.3931 62.9659 73.9696 63.012 73.5017 63.0823C73.0313 63.1526 72.5157 63.2464 71.936 63.3269C71.2967 63.4176 70.6527 63.4706 70.0071 63.4855H70.0032C69.4673 63.5042 68.9524 63.519 68.4798 63.4792H68.4782C68.2517 63.462 68.027 63.4262 67.8063 63.3722H67.804C67.5971 63.321 67.3975 63.2435 67.2103 63.1417C67.0233 63.0391 66.8544 62.9067 66.7103 62.7495C66.5514 62.5732 66.4202 62.3738 66.3212 62.1581C66.2008 61.8917 66.1127 61.6118 66.0587 61.3245C65.9889 60.958 65.9484 60.5865 65.9376 60.2136C65.9227 59.8025 65.9311 59.3909 65.9626 58.9808C65.9923 58.5937 66.0442 58.2087 66.1181 57.8276V57.8261C66.5556 55.6144 67.7298 54.0315 69.3392 53.9745ZM38.0649 54.8042C38.0704 54.8042 38.0759 54.8073 38.0813 54.8073C38.3438 54.8073 38.5957 54.8456 38.8368 54.9222H38.8384C39.0821 55.0003 39.3149 55.1183 39.5337 55.2683L39.5399 55.2714L39.5431 55.2745C40.2032 55.73 40.7438 56.4948 41.1243 57.4597L41.1298 57.4714L41.1345 57.4855C41.2584 57.8021 41.3644 58.1383 41.4524 58.494L41.4556 58.5065C41.5459 58.8817 41.6147 59.2618 41.6618 59.6448L41.6626 59.6526V59.6565C41.712 60.0628 41.7386 60.4715 41.7423 60.8808V60.8839C41.7492 61.2529 41.7257 61.6219 41.672 61.987V61.9886C41.6316 62.2675 41.5562 62.5402 41.4478 62.8003V62.8019C41.36 63.0096 41.2383 63.2013 41.0876 63.369C40.3837 64.1362 39.1837 64.0612 37.8407 64.0745C37.622 64.08 37.4149 64.0823 37.2103 64.0847C36.9696 64.0914 36.7381 64.0925 36.5157 64.0878C35.4892 64.0862 34.6462 64.0636 33.9126 64.1159L33.8774 64.1175C33.5289 64.1403 33.1829 64.1923 32.8431 64.2729H32.8415C32.5188 64.3534 32.2142 64.4683 31.9196 64.6269C31.9274 64.6089 31.9649 64.5222 32.047 64.3964C32.1251 64.2745 32.2493 64.1151 32.422 63.9433L32.4392 63.9245L32.4493 63.9159C32.6605 63.7146 32.8959 63.5403 33.1501 63.3972C33.3134 63.3034 33.4907 63.2128 33.6962 63.1315C33.9053 63.0502 34.1193 62.9819 34.3368 62.9269C34.3345 62.9214 34.3337 62.9112 34.3313 62.9058C34.2238 62.6555 34.1444 62.394 34.0946 62.1261L34.0821 62.0636C34.0209 61.7124 33.9839 61.3574 33.9712 61.0011C33.9704 60.9855 33.9673 60.9753 33.9665 60.9589L33.9681 60.9198C33.9543 60.5215 33.971 60.1227 34.0181 59.7269C34.0643 59.3511 34.1393 58.9795 34.2423 58.6151L34.2626 58.5448C34.3657 58.1896 34.4918 57.8534 34.6407 57.5362C34.7944 57.2081 34.9683 56.9045 35.1626 56.6253C35.3415 56.3679 35.5423 56.1264 35.7626 55.9034C35.9803 55.6817 36.2219 55.4846 36.4829 55.3159L36.5188 55.2917C36.7532 55.1453 36.9938 55.0308 37.2407 54.948L37.2915 54.9315C37.5394 54.8534 37.7899 54.8123 38.0431 54.8081L38.0649 54.8042Z" fill="#C7B39A"/>
<path d="M70.4684 27.5757C69.7911 28.1905 68.87 28.9812 67.9442 29.6382C67.9229 29.975 67.8916 30.3111 67.8505 30.646V30.6476C67.7897 31.1437 67.71 31.6373 67.6114 32.1272V32.1304C67.3879 33.2374 67.0208 34.5405 66.4184 35.803L66.6294 35.8233C67.6325 35.9046 68.6372 35.9937 69.6411 36.0991C69.6095 35.9841 69.6095 35.8626 69.6411 35.7476C69.852 34.9796 70.013 34.1968 70.1348 33.4288V33.4272C70.2512 32.6849 70.3377 31.9382 70.3942 31.189V31.1874C70.4489 30.4718 70.4747 29.796 70.4833 29.1851V29.1835C70.4909 28.648 70.4856 28.1125 70.4676 27.5772L70.4684 27.5757ZM37.2036 27.5772L37.2004 27.7007C37.1886 28.1467 37.1852 28.5928 37.1903 29.039C37.1903 29.1207 37.1913 29.2035 37.1934 29.2874C37.2028 29.8405 37.2262 30.4437 37.2723 31.0804L37.2864 31.2757C37.3449 32.019 37.433 32.7597 37.5504 33.496C37.6676 34.2304 37.8208 34.9741 38.02 35.7069L38.0309 35.746C38.0619 35.8601 38.0619 35.9804 38.0309 36.0944L38.052 36.0929C39.1169 35.9808 40.1831 35.8818 41.2504 35.796C41.1024 35.4842 40.9658 35.1671 40.8411 34.8452C40.7114 34.5093 40.5997 34.1772 40.4973 33.8483C40.3226 33.2812 40.1761 32.7058 40.0583 32.1241C39.9597 31.6341 39.8799 31.1405 39.8192 30.6444C39.7784 30.3095 39.7479 29.9734 39.7278 29.6366C39.2919 29.325 38.8671 28.9979 38.4544 28.6562C38.0731 28.3415 37.6987 28.0185 37.3317 27.6874C37.2934 27.6522 37.2403 27.6108 37.2036 27.5772Z" fill="#EBD599"/>
<path d="M69.3405 53.9771C67.1944 54.0529 65.8194 56.8412 65.9374 60.2146C66.0554 63.5849 67.8593 63.5615 70.0038 63.4865C72.889 63.4318 74.4726 62.5474 75.9171 63.2451C75.896 63.1646 75.4444 61.8092 73.4468 62.0474C73.6772 61.5459 73.7804 60.8678 73.7077 59.942C73.4437 56.5763 71.4866 53.9021 69.3405 53.9771ZM38.0647 54.8053C35.9163 54.824 33.8382 57.5888 33.9663 60.9592C34.0007 61.8373 34.1304 62.4709 34.3366 62.9279C32.464 63.3967 31.9491 64.5553 31.9194 64.6279C33.0991 63.9912 34.4319 64.0849 36.5155 64.0873C36.7379 64.0925 36.9694 64.092 37.2101 64.0857C37.4147 64.0826 37.621 64.0795 37.839 64.074C39.9874 64.0529 41.7733 64.2568 41.7421 60.8834C41.7093 57.5107 40.2108 54.7849 38.0647 54.8053ZM69.1327 56.1068C69.1491 56.1068 69.1624 56.1162 69.1788 56.1162C69.3228 56.1188 69.4648 56.1499 69.5968 56.2076C69.7046 56.2549 69.804 56.3192 69.8913 56.3982L69.9249 56.4295C70.0157 56.5195 70.09 56.6247 70.1444 56.7404L70.1601 56.7724C70.2147 56.8985 70.2442 57.0342 70.2483 57.1795L70.2499 57.1842V57.1888C70.2519 57.3318 70.2259 57.4738 70.1733 57.6068C70.1733 57.6094 70.1728 57.6115 70.1718 57.6131L70.1702 57.6162C70.1177 57.746 70.0408 57.8646 69.9437 57.9654C69.8442 58.0702 69.725 58.1542 69.593 58.2127C69.4609 58.2712 69.3185 58.3029 69.1741 58.306C69.027 58.3057 68.8812 58.2776 68.7444 58.2232C68.6182 58.1736 68.5032 58.0992 68.4062 58.0045L68.3835 57.9842C68.3163 57.9132 68.2598 57.833 68.2155 57.7459C68.1249 57.5896 68.0593 57.4178 68.0554 57.224C68.0515 57.0209 68.1179 56.8396 68.2116 56.6748C68.2455 56.6047 68.288 56.5391 68.3382 56.4795L68.3397 56.4779C68.3627 56.454 68.3864 56.4305 68.4108 56.4076C68.49 56.3303 68.5814 56.2664 68.6812 56.2185C68.7108 56.2045 68.7421 56.1982 68.7726 56.1865C68.8699 56.1508 68.9716 56.1282 69.0749 56.1193C69.0952 56.1178 69.1124 56.1076 69.1327 56.1068ZM38.3671 56.9248C39.8812 56.8232 39.9452 59.1154 38.4452 59.1162C38.4382 59.1162 38.4319 59.1209 38.4249 59.1209C38.4093 59.1209 38.3968 59.1131 38.3819 59.1131C38.282 59.109 38.183 59.0922 38.0874 59.0631C38.0283 59.045 37.9708 59.022 37.9155 58.9943C37.8548 58.964 37.7972 58.9276 37.7437 58.8857C37.6111 58.7898 37.5021 58.665 37.425 58.5207C37.3478 58.3764 37.3045 58.2164 37.2983 58.0529C37.2897 57.7146 37.4437 57.4201 37.678 57.2115C37.7483 57.1459 37.8249 57.0881 37.9163 57.0428C37.9429 57.0295 37.971 57.0224 37.9991 57.0115C38.1161 56.9632 38.2401 56.9342 38.3663 56.9256L38.3671 56.9248Z" fill="#2D3136"/>
<path d="M69.1331 56.1056C68.989 56.1082 68.8469 56.1391 68.7148 56.1966C68.5827 56.2541 68.4632 56.337 68.3632 56.4407C68.2632 56.5444 68.1845 56.6667 68.1318 56.8008C68.079 56.9349 68.0532 57.078 68.0557 57.222C68.0583 57.3661 68.0892 57.5082 68.1467 57.6403C68.2042 57.7724 68.2871 57.8919 68.3908 57.9919C68.4945 58.092 68.6168 58.1706 68.7509 58.2234C68.885 58.2761 69.0281 58.302 69.1721 58.2994C69.4631 58.2942 69.74 58.1737 69.942 57.9643C70.1441 57.7549 70.2547 57.4739 70.2495 57.183C70.2443 56.8921 70.1238 56.6151 69.9144 56.4131C69.705 56.2111 69.424 56.1005 69.1331 56.1056ZM38.3682 56.926C38.2215 56.9256 38.0762 56.9546 37.9409 57.0113C37.8055 57.068 37.683 57.1513 37.5804 57.2562C37.4778 57.3612 37.3973 57.4856 37.3436 57.6222C37.29 57.7587 37.2642 57.9047 37.2679 58.0514C37.2716 58.198 37.3047 58.3425 37.3652 58.4762C37.4257 58.6099 37.5124 58.7301 37.6202 58.8297C37.7279 58.9293 37.8545 59.0062 37.9926 59.0561C38.1306 59.1059 38.2772 59.1275 38.4237 59.1197C38.7128 59.1097 38.9863 58.986 39.1847 58.7755C39.3832 58.5649 39.4904 58.2846 39.4832 57.9954C39.476 57.7061 39.3549 57.4315 39.1463 57.2311C38.9376 57.0307 38.6583 56.9207 38.369 56.9252L38.3682 56.926Z" fill="#EDF6FA"/>
<path opacity="0.8" d="M41.3146 9.60498L41.0732 10.3175C40.1639 13.9019 38.8771 20.5878 39.6451 27.894C40.0068 28.1839 40.3873 28.4683 40.7592 28.7183C40.8478 28.7795 40.9206 28.861 40.9715 28.956C41.0225 29.0509 41.0501 29.1566 41.0521 29.2644C41.0553 29.2995 41.1318 32.6808 42.6256 35.5573C42.6459 35.6006 42.6631 35.6451 42.6771 35.6909C46.392 35.4378 50.1154 35.3362 53.8334 35.3339C57.5506 35.3362 61.2732 35.4433 64.9873 35.6987C65.0004 35.65 65.0182 35.6026 65.0404 35.5573C66.5334 32.6808 66.6123 29.2995 66.6123 29.2644C66.6152 29.1563 66.6435 29.0505 66.695 28.9555C66.7464 28.8605 66.8195 28.779 66.9084 28.7175C67.2678 28.4753 67.6318 28.1995 67.9865 27.9183L68.0264 27.8058C68.8084 20.2175 67.3818 13.2862 66.4764 9.85264C66.4529 11.2487 66.0092 32.3401 60.8701 32.3401H59.3076V33.8339H48.7529V32.3401H47.0561C41.7436 32.3401 41.3146 9.60498 41.3146 9.60498ZM69.8303 21.9448C69.8443 22.1401 69.8615 22.3433 69.8732 22.5308L69.9381 22.3448L69.8303 21.9448ZM35.8795 27.0042L25.6217 29.9214C24.9889 34.0425 25.2037 37.0581 25.2975 38.0128L25.3443 37.9839C25.3443 37.9839 25.6803 33.6394 26.3607 31.9737C26.7123 31.1144 28.8592 30.5675 30.499 30.1776C32.1381 29.787 34.7521 29.0058 35.26 31.3104C35.514 32.4887 35.8989 33.6349 36.4076 34.7276C35.7607 31.5847 35.8021 28.5214 35.8795 27.0042ZM71.7896 27.0042C71.8732 28.5886 71.9053 31.8597 71.1646 35.1479C71.6326 34.2542 72.1521 32.9503 72.5123 31.3089C73.0201 29.0058 75.635 29.787 77.2748 30.1769C78.9139 30.5675 81.0615 31.1144 81.4131 31.9729C82.0209 33.4589 82.3357 36.9175 82.4006 37.68C82.4998 36.4495 82.6217 33.6464 82.049 29.9222L71.7896 27.0042ZM83.7553 33.5151C83.9154 36.523 83.6764 38.4956 83.6607 38.6073C83.655 38.6391 83.648 38.669 83.6396 38.6972C83.7579 38.7318 83.8759 38.7674 83.9935 38.8042C85.0217 39.1417 86.056 39.4948 87.0357 39.9581C85.3639 38.9714 84.3201 35.8487 83.7553 33.5151ZM23.9115 33.5214C23.3467 35.8526 22.3045 38.9667 20.6357 39.955C21.6146 39.4925 22.6482 39.1394 23.6771 38.8026C23.7943 38.7651 23.91 38.7323 24.0279 38.694C24.0201 38.6644 24.0123 38.6386 24.0068 38.6073C23.9896 38.4956 23.7514 36.5245 23.9115 33.5214Z" fill="#EBD599"/>
<path d="M45.2207 11.7026V16.5972H47.6285V14.1097H52.6121V29.2206H52.6105V29.2222H50.5613V32.0237H57.4934V29.2222H55.4426V14.1104H60.4262V16.5956H62.834V11.7034L45.2207 11.7026Z" fill="#CB3349"/>
<path d="M92.8889 67.2588C91.8264 68.2768 89.9404 69.6869 87.9756 69.1963C87.8943 69.6182 87.8279 70.0018 87.6951 70.5377C88.8318 70.801 90.6951 71.0064 91.5834 70.8346C91.9623 70.4236 92.449 68.9697 92.8889 67.2588ZM15.1045 68.6689C15.6092 70.4447 16.1592 71.9619 16.5482 72.3533C17.5318 72.5268 19.71 72.2252 20.7795 71.9111C20.6708 71.5622 20.5674 71.2116 20.4693 70.8596L19.185 69.9611C17.3537 70.6838 15.9498 69.64 15.1045 68.6689ZM86.1631 69.9455L85.4615 70.4377L83.5725 71.7627L81.5248 73.1971C81.3855 73.2944 81.2156 73.338 81.0467 73.3197L60.6732 71.0018L60.385 70.9697C60.6443 71.4127 61.1514 71.8947 62.1873 72.1627C64.4295 72.7432 78.6248 76.3096 80.2123 76.0143C81.4506 75.7838 84.0607 74.0174 85.174 73.2338C85.385 72.6322 85.5936 72.0268 85.7912 71.3971C85.924 70.9153 86.048 70.4314 86.1631 69.9455ZM47.5123 70.8439L27.2779 75.3518C27.2277 75.3614 27.1767 75.3661 27.1256 75.3658C26.9825 75.3653 26.8429 75.3212 26.7256 75.2393L25.9365 74.6916L23.5732 73.0369V73.0314L22.6201 72.3643C22.6865 72.5791 22.7631 72.7885 22.8389 72.9971L22.8357 73.001C23.1201 73.7706 23.4233 74.533 23.7451 75.2877C25.0631 76.0846 26.7998 77.0541 27.7451 77.1877C29.3451 77.4143 43.3732 73.2322 45.5873 72.5549C46.9615 72.1354 47.3865 71.3674 47.5123 70.8439ZM63.0381 95.1361C60.2607 95.9861 54.9693 97.2611 50.1186 96.4228C48.8592 96.8346 47.86 96.9799 47.7631 96.9916C47.5631 97.0158 47.364 97.0471 47.1662 97.0853C49.8873 97.8307 52.6654 98.1541 55.4045 97.9697C58.8714 97.7378 62.2795 96.9568 65.5014 95.6557C64.6607 95.594 63.8321 95.4193 63.0381 95.1361Z" fill="#C7B39A"/>
<path d="M53.8359 0.406738C45.3328 0.406738 37.168 3.19268 30.2266 8.45986C23.5117 13.5567 18.4023 20.8692 15.4313 29.1161C14.361 29.5065 13.3079 29.9425 12.275 30.4231C11.0172 31.0263 9.78047 31.706 8.63359 32.6067L8.43047 32.7653L8.35391 33.0481C8.25395 33.4152 8.16744 33.7857 8.09453 34.1591C8.02266 34.5185 7.96797 34.881 7.91641 35.2435C7.81532 35.9659 7.74494 36.6924 7.70547 37.4208C7.63222 38.8771 7.67559 40.337 7.83516 41.7864C7.98974 43.2402 8.26066 44.6791 8.64531 46.0896C8.84531 46.7966 9.075 47.4958 9.34766 48.1895C9.55064 48.7189 9.78544 49.2354 10.0508 49.7364L10.1961 49.9927C10.2508 50.0864 10.2867 50.1552 10.3695 50.2794L10.518 50.5083L10.7484 50.6255C10.9938 50.7536 11.1953 50.8489 11.418 50.9528L12.068 51.2458C12.1875 51.2942 12.3 51.3435 12.4219 51.3919C9.47656 54.1185 6.27344 57.6575 3.50156 62.0349L0 67.5583L4.91641 63.2435C4.99922 63.1708 9.12109 59.6005 15.9961 55.5606L16.0898 56.3513C15.643 56.5841 13.4789 57.72 12.8375 58.2552C11.7734 59.1411 11.7219 60.513 12.007 63.0724C12.1516 64.3849 12.6461 66.9317 13.3086 69.2661C14.45 73.2864 15.2875 73.9966 16.0234 74.1646C16.3539 74.2427 16.7852 74.2786 17.2656 74.2786C18.5805 74.2786 20.2711 74.0224 21.3687 73.6911C22.6602 77.7067 24.4883 81.3294 26.7164 84.5083L26.3945 84.6021C25.0539 83.9794 20.3687 81.8106 18.793 81.1013L15.5 79.6208L17.4484 82.6591C17.5906 82.8778 20.9508 88.12 23.6969 91.6513C26.2625 94.9482 29.7766 98.3177 36.4086 98.3177C37.2419 98.3146 38.0744 98.2656 38.9023 98.1708C40.4356 97.9991 41.9677 97.8166 43.4984 97.6231C50.4594 100.181 58.1367 100.336 65.4203 97.5771C67.3278 96.852 69.1617 95.9463 70.8969 94.8724C70.9307 94.8666 70.9638 94.8593 70.9961 94.8505C73.7055 94.1989 76.7773 93.4661 78.2961 93.0396C78.5422 92.9724 78.843 92.9013 79.1633 92.8255C81.2766 92.3396 84.8102 91.5208 86.6945 87.7505C88.5922 83.9458 91.6898 78.1185 91.7234 78.0599L93.1687 75.3419L90.3477 76.5677C90.1969 76.6349 86.6258 78.1919 84.7672 79.1677C84.7 79.2036 84.625 79.2349 84.5484 79.2716C86.0563 76.1966 86.8172 73.7325 87.0836 72.7896C88.1211 73.0396 89.6641 73.0091 90.7977 73.0091C91.3049 73.0046 91.81 72.9406 92.3023 72.8185C93.0367 72.631 93.6055 72.1427 94.6773 67.9935C95.2984 65.5833 95.7477 62.9575 95.8695 61.6091C96.1078 58.9825 96.0312 57.5778 94.957 56.6896C94.4234 56.2497 92.8578 55.4044 92.0609 54.9864L92.0992 54.7005C92.5055 54.7974 92.7234 54.8544 92.7414 54.8591L93.4633 52.1153C93.7387 51.9989 94.0158 51.8864 94.2945 51.7778C94.7338 51.6076 95.1703 51.4302 95.6039 51.2458L96.2539 50.9528C96.4773 50.8489 96.6781 50.7528 96.9242 50.6263L97.1539 50.5067L97.3023 50.2802C97.3828 50.1552 97.4234 50.0856 97.4758 49.9927L97.618 49.7364C97.7141 49.563 97.7984 49.3942 97.8789 49.2239C98.0393 48.8802 98.1878 48.5349 98.3242 48.188C98.5977 47.4942 98.8266 46.7974 99.0266 46.0896C99.4091 44.6787 99.6794 43.2399 99.8352 41.7864C99.9984 40.3364 100.038 38.8763 99.9648 37.4192C99.9278 36.6912 99.858 35.9652 99.7555 35.2435C99.7082 34.8801 99.6488 34.5184 99.5773 34.1591C99.5068 33.7852 99.4203 33.4146 99.318 33.0481L99.2398 32.7669L99.0391 32.6083C97.8922 31.7075 96.6539 31.0263 95.3961 30.4231C94.3636 29.9411 93.3105 29.5045 92.2398 29.1145C89.2688 20.87 84.1594 13.5567 77.4445 8.45986C70.5023 3.1919 62.3398 0.406738 53.8359 0.406738ZM53.8344 2.28799C69.6422 2.28799 84.1234 12.5942 90.1781 28.4231C89.3275 28.1547 88.4702 27.908 87.607 27.6833C86.2852 27.3435 84.9484 27.0356 83.5992 26.813C84.2422 27.0474 84.8844 27.2794 85.518 27.5239C86.1549 27.7614 86.7883 28.0078 87.418 28.263C88.6758 28.77 89.9297 29.2919 91.1484 29.8669C92.3711 30.4176 93.5658 31.0285 94.7281 31.6974C95.7898 32.3091 96.8062 32.9786 97.7047 33.7349C97.7437 33.9614 97.7828 34.2114 97.8117 34.4474C97.8534 34.7807 97.8885 35.1153 97.9172 35.4513C97.9742 36.1239 98.0008 36.8028 98.0055 37.481C98.0148 38.8369 97.9313 40.1919 97.7555 41.5364C97.5719 42.8825 97.3227 44.2216 96.957 45.513C96.7815 46.1562 96.5755 46.7908 96.3398 47.4146C96.2214 47.7214 96.0937 48.0247 95.957 48.3239C95.8899 48.4692 95.8195 48.613 95.7461 48.7552L95.6633 48.9192C95.5617 48.97 95.4578 49.0208 95.3602 49.0677L94.757 49.3552C94.5453 49.4536 94.3273 49.5474 94.1133 49.6435L95.1813 45.5888C94.9328 45.5224 92.5977 44.9169 88.5875 44.1731C88.713 44.1466 88.8367 44.1192 88.9586 44.0911C89.793 43.8867 90.6124 43.6251 91.4109 43.3083C91.8057 43.1433 92.1912 42.9568 92.5656 42.7497C92.9367 42.5372 93.3 42.2966 93.582 41.9763C89.5664 43.2888 81.2625 42.6927 73.8789 41.9317C67.132 41.2349 60.3641 40.7833 53.5641 40.7692C46.7641 40.7849 40.0016 41.2349 33.25 41.9317C25.8688 42.6919 17.5688 43.288 13.5516 41.9763C13.8328 42.2966 14.1984 42.5372 14.5688 42.7497C14.9391 42.9599 15.3289 43.1403 15.7227 43.3083C16.5172 43.6286 17.3398 43.8841 18.1719 44.0911C18.4633 44.1614 18.7656 44.2255 19.0594 44.2802C15.4031 44.9755 13.2781 45.5247 13.0437 45.5896L14.1586 49.845C14.1393 49.8648 14.1189 49.8836 14.0977 49.9013C13.7148 49.7302 13.25 49.5106 12.9133 49.3544L12.3109 49.0685C12.2093 49.0201 12.1085 48.9701 12.0086 48.9185L11.9227 48.7552C11.7039 48.3188 11.5081 47.8713 11.3359 47.4146C11.0984 46.7909 10.8906 46.1563 10.7133 45.513C10.3484 44.2216 10.1023 42.8825 9.91641 41.5364C9.74003 40.1919 9.65598 38.8369 9.66484 37.481C9.67266 36.8028 9.69609 36.1239 9.75469 35.4513C9.78125 35.1153 9.82109 34.7794 9.86016 34.4458C9.89141 34.2099 9.92734 33.9614 9.96562 33.7349C10.8641 32.9771 11.882 32.3067 12.9422 31.6958C14.1035 31.0276 15.2971 30.4172 16.5187 29.8669C17.7406 29.2919 18.9922 28.77 20.25 28.263C20.882 28.0091 21.5156 27.7599 22.15 27.5247C22.7879 27.2812 23.4283 27.0442 24.0711 26.8138C22.7219 27.0356 21.3859 27.3442 20.0609 27.6833C19.2016 27.906 18.3438 28.1567 17.493 28.4231C23.5469 12.5942 38.0234 2.28799 53.8344 2.28799ZM41.8531 7.5708C37.775 14.6724 37.6305 23.2395 37.7211 26.2271C37.5073 26.0296 37.2974 25.828 37.0914 25.6224C37.0828 25.6138 37.0719 25.6091 37.0633 25.6013C37.0591 25.5945 37.0539 25.5882 37.0477 25.5825C37.0414 25.5747 37.0305 25.5731 37.0227 25.5669C36.9942 25.5467 36.9645 25.5284 36.9336 25.5122C36.918 25.5044 36.9078 25.4942 36.8914 25.4864C36.8552 25.4709 36.8178 25.4581 36.7797 25.4481C36.7687 25.4458 36.7602 25.4403 36.7523 25.4403C36.7035 25.4305 36.6537 25.4266 36.6039 25.4286C36.5914 25.4286 36.5781 25.4317 36.568 25.4317C36.5299 25.4342 36.492 25.4394 36.4547 25.4474L36.4336 25.4513L27.3695 28.0286C27.2977 26.1786 27.2602 18.2341 31.4227 11.5356C31.2766 11.6997 26.618 17.02 26.3 28.3325L24.8414 28.7458C24.7183 28.7806 24.6077 28.8498 24.5226 28.9453C24.4375 29.0408 24.3814 29.1586 24.3609 29.2849C23.4719 34.6771 23.9828 38.4489 24.007 38.6075C24.0125 38.6388 24.0203 38.6646 24.0281 38.6942C23.9102 38.7317 23.7938 38.7653 23.6766 38.8028C22.2977 39.2544 20.9109 39.7356 19.6562 40.4692C20.3281 40.2036 21.0234 40.0106 21.7188 39.8388C22.415 39.6647 23.1164 39.5115 23.8219 39.3794C25.2309 39.1117 26.6483 38.8902 28.0719 38.7153C29.4898 38.5278 30.9156 38.3763 32.3438 38.2544C33.7734 38.1349 35.1992 38.0122 36.6305 37.9302C42.3539 37.5919 48.093 37.4849 53.8344 37.4817C59.5773 37.4872 65.3172 37.5755 71.0406 37.9286C72.4727 38.0122 73.8977 38.1333 75.3266 38.2536C76.7562 38.3747 78.1781 38.5294 79.5992 38.7146C81.0228 38.8894 82.4402 39.1109 83.8492 39.3786C84.5523 39.5114 85.2523 39.6614 85.9484 39.8396C86.6469 40.0114 87.3391 40.2028 88.0109 40.4692C86.7562 39.7349 85.3703 39.256 83.9938 38.8044C83.8761 38.7676 83.7582 38.7319 83.6398 38.6974C83.6482 38.6692 83.6552 38.6393 83.6609 38.6075C83.6828 38.4489 84.1953 34.6778 83.307 29.2841C83.2865 29.1577 83.2303 29.0398 83.1451 28.9443C83.0598 28.8488 82.949 28.7797 82.8258 28.745L81.3648 28.3325C81.0508 17.02 76.3914 11.6997 76.2469 11.5356C80.4094 18.2333 80.3719 26.1778 80.2992 28.0271L71.2344 25.4536C71.226 25.4521 71.2188 25.45 71.2125 25.4474C71.1749 25.4394 71.1368 25.4341 71.0984 25.4317L71.0633 25.4294C71.0134 25.427 70.9635 25.4315 70.9148 25.4427C70.907 25.4427 70.8992 25.4474 70.8914 25.4474C70.8505 25.4579 70.8105 25.4718 70.7719 25.4888C70.7583 25.4976 70.7453 25.5047 70.7328 25.5099C70.7026 25.5286 70.6729 25.5481 70.6438 25.5685C70.6359 25.5739 70.6273 25.5763 70.6195 25.5849C70.6117 25.5903 70.6086 25.5966 70.6023 25.6013C70.5953 25.6091 70.5828 25.6153 70.575 25.6231C70.3676 25.8273 70.1574 26.0286 69.9445 26.2271C70.0359 23.2403 69.8906 14.6724 65.8141 7.57158C65.9 7.82158 69.1359 17.2864 68.0188 27.895C67.6547 28.1849 67.2789 28.4692 66.9086 28.7192C66.8197 28.7806 66.7465 28.8619 66.6949 28.9568C66.6433 29.0517 66.6148 29.1574 66.6117 29.2653C66.6117 29.3005 66.5336 32.6817 65.0406 35.5583C65.0184 35.6036 65.0006 35.651 64.9875 35.6997C61.2734 35.4442 57.5508 35.338 53.8328 35.3356C50.1156 35.338 46.3922 35.4396 42.6773 35.6927C42.6641 35.6464 42.6466 35.6014 42.625 35.5583C41.132 32.6817 41.0547 29.3005 41.0523 29.2653C41.0504 29.1575 41.0228 29.0516 40.9719 28.9565C40.921 28.8614 40.8481 28.7798 40.7594 28.7185C40.3875 28.4685 40.007 28.1849 39.6453 27.895C38.5297 17.2864 41.7672 7.82002 41.8531 7.5708ZM43.4125 9.8919V18.4067H49.4437V15.92H50.7984V27.4083H48.7531V33.8356H59.3078V27.4083H57.2531V15.9185H58.6125V18.406H64.6469V9.89424L43.4125 9.8919ZM45.2211 11.7013H62.8344V16.595H60.4266V14.1099H55.4445V29.2208H57.4938V32.0239H50.5617V29.2208H52.6125V14.1106H47.6305V16.5974H45.2211V11.7013ZM35.8797 27.0052C35.7914 28.7435 35.7484 32.513 36.7359 36.106C36.7495 36.1492 36.7656 36.1898 36.7844 36.2278C36.6828 36.2419 36.5836 36.2497 36.4805 36.263C35.0414 36.4372 33.6016 36.6208 32.1672 36.8599C30.7359 37.1021 29.3062 37.3646 27.8883 37.6786C27.0293 37.8767 26.1742 38.091 25.3234 38.3216C25.2539 37.7146 24.9328 34.4122 25.6227 29.9216L35.8797 27.0052ZM71.7898 27.0052L82.0492 29.9231C82.7398 34.4192 82.4148 37.72 82.3461 38.3231C81.4958 38.0943 80.6415 37.8807 79.7836 37.6825C76.9443 37.0654 74.0755 36.5926 71.1883 36.2661C71.0891 36.2528 70.9875 36.2442 70.8859 36.2341C70.9066 36.193 70.9236 36.1501 70.9367 36.106C71.9227 32.5122 71.882 28.7427 71.7898 27.0052ZM70.468 27.5747C70.5305 29.3872 70.4852 32.6731 69.6414 35.7466C69.6099 35.8622 69.6099 35.9841 69.6414 36.0997C68.5679 35.9881 67.4931 35.8894 66.4172 35.8036C67.6227 33.2771 67.8875 30.5849 67.9445 29.6372C68.8703 28.9786 69.7914 28.1895 70.468 27.5747ZM37.2023 27.5763C37.8789 28.1911 38.7984 28.9794 39.7281 29.638C39.7828 30.5849 40.0469 33.2708 41.2508 35.7958C40.1758 35.8817 39.1021 35.9815 38.0297 36.095C38.0603 35.9817 38.0603 35.8623 38.0297 35.7489C37.1859 32.6786 37.143 29.3919 37.2023 27.5763ZM53.5633 43.1841H53.5656C54.7219 43.1872 55.8776 43.1979 57.0328 43.2161C55.1383 43.6348 53.2615 44.13 51.407 44.7005C45.4031 46.5505 40.3031 48.9341 36.832 50.7591C40.7039 47.0552 44.8203 44.9778 45.2914 44.7481L45.3336 44.7247L48.4695 43.2396C50.1701 43.2052 51.868 43.1862 53.5633 43.1841ZM42.1109 43.4146C40.1241 43.8008 38.1538 44.2673 36.2047 44.813C24.1812 48.1771 14.4445 54.0161 8.85469 57.8997C14.607 51.0224 22.9852 45.7622 25.1695 44.4552C25.407 44.4239 25.6406 44.3974 25.8789 44.3747C26.7102 44.2833 27.5438 44.2185 28.3828 44.1536C30.0578 44.0271 31.7328 43.9114 33.4156 43.8192C36.313 43.6557 39.2115 43.5208 42.1109 43.4146ZM66.8844 43.4849C69.1609 43.5802 71.4406 43.6896 73.718 43.8192C75.3594 43.9114 76.9945 44.0224 78.6305 44.1442C78.6357 44.1448 78.6411 44.1468 78.6469 44.1505C78.4812 44.2661 78.3133 44.3919 78.1469 44.5099C71.4484 49.1833 63.7086 51.163 59.2453 51.963C62.3984 49.3536 64.857 46.2755 66.0969 44.5974C66.366 44.2314 66.629 43.8605 66.8844 43.4849ZM64.2305 43.9442C64.0727 44.1513 63.8969 44.3786 63.7086 44.6145C62.5066 46.1366 61.2048 47.577 59.8117 48.9263C57.912 48.8692 56.0115 48.8403 54.1109 48.8396C50.8797 48.8396 47.7828 48.9247 44.8391 49.0661C48.993 47.3435 53.9883 45.6599 59.3945 44.6474C60.9956 44.343 62.6091 44.1084 64.2305 43.9442ZM81.3242 44.8935C86.7406 45.6591 90.7164 46.4778 92.8758 46.9669L91.3867 52.6114C88.3445 51.9411 81.6602 50.6239 72.5602 49.738C75.5344 48.47 78.5594 46.8817 81.3242 44.8935ZM39.9094 45.8044C38.2063 46.9965 36.6061 48.3293 35.1258 49.7888C31.519 50.1486 27.9239 50.6171 24.3453 51.1935C28.9477 49.0763 34.2016 47.1302 39.9094 45.8044ZM18.8719 46.2317C17.8069 46.959 16.7693 47.7254 15.7609 48.5294L15.3469 46.9669C16.518 46.7036 17.6931 46.4585 18.8719 46.2317ZM54.1109 50.7177C55.3453 50.7177 56.5547 50.7333 57.7484 50.7544C56.9169 51.4322 56.0399 52.0522 55.1234 52.6099L52.0781 54.4497C50.1656 54.6841 48.5062 55.1567 48.4102 55.1825C48.3544 55.1975 48.3014 55.2213 48.2531 55.2528C48.1025 55.3414 47.9903 55.4829 47.9383 55.6497L44.832 65.8802L28.2406 69.57L23.0133 65.9091L21.4953 53.5942C24.4617 53.0474 28.4328 52.4146 33.2 51.8817C32.6781 52.5021 32.1849 53.146 31.7219 53.8114L28.882 57.8849L33.0172 55.1294C33.0781 55.0856 35.7109 53.3528 40.0164 51.2489C44.706 50.8959 49.408 50.7187 54.1109 50.7177ZM68.5594 51.2731C76.118 51.8536 82.2883 52.7833 86.5078 53.5513L85.0109 64.0247L79.7422 67.7146L63.1727 65.8317L60.0797 55.6497C60.0455 55.5389 59.9845 55.4383 59.902 55.3568C59.8196 55.2752 59.7182 55.2154 59.607 55.1825C59.5039 55.1513 57.4547 54.5677 55.2781 54.3802L55.6766 54.3505C56.0203 54.3271 61.7359 53.6271 68.5594 51.2731ZM87.8734 53.8075C88.8312 53.991 89.7867 54.1858 90.7398 54.3919L89.0469 66.2302L80.9422 71.9099L59.8008 69.5036L56.618 59.0263C56.5813 58.9008 56.5097 58.7884 56.4115 58.7022C56.3132 58.616 56.1924 58.5596 56.0633 58.5396C55.2805 58.413 54.5867 58.3489 54.0102 58.3489C53.4268 58.3489 52.7411 58.4125 51.9531 58.5396C51.8245 58.5606 51.7043 58.6174 51.6063 58.7034C51.5084 58.7895 51.4366 58.9014 51.3992 59.0263L48.2953 69.2505L27.2719 73.9271L18.9391 68.0911L17.2977 54.8044C17.6591 54.6002 18.0216 54.3978 18.3852 54.1974C18.9029 54.0885 19.4828 53.9713 20.125 53.8458L21.6703 66.3849C21.6828 66.4812 21.7152 66.574 21.7653 66.6572C21.8155 66.7404 21.8824 66.8124 21.9617 66.8685L27.6961 70.8817C27.7746 70.9379 27.8642 70.9768 27.9589 70.9956C28.0536 71.0145 28.1513 71.0129 28.2453 70.9911L45.5305 67.1435C45.6498 67.1168 45.7601 67.0592 45.8501 66.9763C45.9401 66.8935 46.0066 66.7884 46.043 66.6716L49.1578 56.4208C49.9914 56.206 52.1297 55.7067 54.0117 55.7067C55.8852 55.7067 58.025 56.2067 58.8594 56.4224L61.9734 66.6716C62.0133 66.8011 62.0901 66.9162 62.1945 67.0027C62.2989 67.0892 62.4262 67.1433 62.5609 67.1583L79.8477 69.1224C80.0148 69.1393 80.1825 69.0957 80.3203 68.9997L86.0563 64.9903C86.134 64.9351 86.1997 64.8647 86.2494 64.7833C86.2991 64.7019 86.3318 64.6113 86.3453 64.5169L87.8734 53.8075ZM91.7719 56.9935C92.6156 57.452 93.4828 57.9442 93.7391 58.1591C93.9969 58.3669 94.1945 58.9091 93.9664 61.4356C93.6898 64.5317 92.3883 69.9622 91.5836 70.8364C90.6953 71.0083 88.832 70.8021 87.6953 70.5396C87.8891 69.7591 87.9469 69.3833 88.1039 68.5872L90.0922 67.1966C90.1698 67.1417 90.2356 67.0717 90.2854 66.9907C90.3352 66.9098 90.3681 66.8195 90.382 66.7255L91.7719 56.9935ZM16.3375 58.345L17.5953 68.5708C17.6079 68.6672 17.6404 68.76 17.6907 68.8432C17.741 68.9265 17.808 68.9984 17.8875 69.0544L20.4695 70.8606C20.568 71.2122 20.6703 71.5653 20.7797 71.9122C19.7094 72.2263 17.532 72.5278 16.5484 72.3544C15.7305 71.5317 14.207 65.87 13.8734 62.8653C13.6039 60.4294 13.793 59.9044 14.0414 59.6989C14.3289 59.4583 15.4047 58.8442 16.3375 58.345ZM54.0117 59.7372C54.4102 59.7372 54.8828 59.7755 55.4164 59.8466L58.6055 70.3466C58.6859 70.6122 58.9148 70.8036 59.1898 70.8349L60.6734 71.0028L81.0469 73.3208C81.2156 73.3388 81.3851 73.2953 81.5242 73.1982L83.5719 71.7638L85.4609 70.438L86.1633 69.9466C86.0478 70.4326 85.9236 70.9166 85.7906 71.3981C84.8156 74.5192 83.6672 77.2849 82.3883 79.7247C82.107 79.744 81.8075 79.7541 81.4898 79.7552C80.5031 79.7552 79.4961 79.6708 78.3813 79.5708C76.4477 79.3911 73.3766 79.0419 72.4086 78.9278C71.5727 78.2638 68.7156 75.9927 66.3391 74.1216C66.2469 74.0458 66.1664 73.9763 66.0859 73.9107C65.6687 73.556 65.1937 73.1528 64.2266 73.1528C63.3516 73.1528 62.0742 73.4739 58.9828 74.4083C60.5906 73.2083 60.6 71.656 60.6 71.656C60.6 71.656 58.3094 73.7825 54.6203 74.2591C50.932 74.7317 48.0359 72.4661 48.0359 72.4661C48.1578 72.8599 48.3281 73.7505 49.1641 74.5091C48.1168 74.3808 47.0629 74.3151 46.0078 74.3122C45.6055 74.3122 45.1969 74.3239 44.807 74.3435C42.5359 74.4606 39.343 77.8911 37.0984 81.3497C34.2647 82.2511 31.4219 83.1236 28.5703 83.9669C24.8516 78.813 23.0203 73.5474 22.8359 73.0013L22.8391 72.9989C22.7633 72.7896 22.6867 72.5802 22.6195 72.3653L23.5727 73.0325V73.038L25.9367 74.6927L26.7258 75.2396C26.843 75.3217 26.9826 75.3662 27.1258 75.3669C27.1758 75.3669 27.2266 75.3622 27.2781 75.3528L48.9945 70.5161C49.1141 70.4894 49.2245 70.4315 49.3145 70.3483C49.4045 70.2652 49.4709 70.1598 49.507 70.0427L52.6031 59.8474C53.0695 59.778 53.5402 59.7412 54.0117 59.7372ZM64.2258 75.2997C64.4016 75.2997 64.4023 75.2997 64.6969 75.5513L65.007 75.8075C67.8086 78.0106 71.275 80.7716 71.3102 80.7974L71.55 80.9896L71.8523 81.0231C71.893 81.0286 75.8484 81.4935 78.1859 81.7083C79.3555 81.8122 80.4125 81.9036 81.4883 81.9036C83.2977 81.9036 84.6992 81.6317 85.768 81.0708C86.6251 80.63 87.4925 80.2095 88.3695 79.8099C87.1482 82.1258 85.9484 84.453 84.7703 86.7911C83.3406 89.6536 80.6453 90.281 78.6766 90.7356C78.3328 90.8138 78.007 90.8872 77.7148 90.97C76.2367 91.3841 73.1867 92.1153 70.4961 92.7591C69.7492 92.9372 69.0219 93.1106 68.3516 93.2747C67.6588 93.4447 66.9484 93.5323 66.2352 93.5356C64.243 93.5356 62.5016 92.8138 61.0633 91.3872C59.6877 90.0165 58.3689 88.5901 57.1102 87.1114L56.3125 86.1622C56.3125 86.1622 56.0859 85.82 55.9344 85.7106L55.925 85.7028C55.9229 85.7034 55.9219 85.7023 55.9219 85.6997C55.8234 85.8036 55.7648 86.1388 55.7648 86.1388L55.2797 87.4302C55.2688 87.4583 54.993 88.188 53.6211 91.2552C52.2906 94.2396 47.5484 94.8528 47.5047 94.8583C47.2297 94.8919 47.0156 94.931 46.7438 94.9771C45.9414 95.1177 44.45 95.3817 38.6594 96.0357C37.8805 96.1247 37.1203 96.1685 36.407 96.1685C30.7141 96.1685 27.7461 93.3661 25.3906 90.3325C24.0422 88.6005 22.5094 86.3903 21.3125 84.6216C23.5086 85.6302 25.8188 86.7021 25.8578 86.7177L26.2188 86.8856L26.6016 86.7755C30.4599 85.6669 34.3012 84.5001 38.1242 83.2755L38.493 83.156L38.7039 82.8263C41.9375 77.7106 44.4656 76.5091 44.9156 76.4864C45.2794 76.4679 45.6436 76.4588 46.0078 76.4591C50.5055 76.4591 54.2594 77.8513 54.2984 77.8646L54.643 77.9942L54.9953 77.8825C60.7156 76.1091 63.3273 75.2997 64.2258 75.2997ZM56.6102 89.8075C57.1925 90.4617 57.7871 91.1047 58.3938 91.7364C57.8657 91.8182 57.3349 91.8813 56.8023 91.9255C56.4609 91.9419 56.0992 91.9786 55.7711 91.9778H55.65C55.9744 91.2563 56.2944 90.5329 56.6102 89.8075ZM59.2984 92.6622L59.55 92.9177C61.2023 94.5536 63.25 95.4911 65.5016 95.6567C62.2797 96.9578 58.8716 97.7389 55.4047 97.9708C52.6656 98.1552 49.8875 97.8317 47.1664 97.0864C47.3953 97.0442 47.5617 97.0161 47.7633 96.9927C47.9859 96.9646 52.8664 96.327 55.0641 93.0575L55.2719 93.0622L55.8133 93.0575C56.1789 93.0575 56.5102 93.0263 56.8586 93.0138C57.6898 92.9411 58.4992 92.8239 59.2984 92.6622Z" fill="#2D3136"/>
</g>
<defs>
<clipPath id="clip0_1085_4519">
<rect width="100" height="100" fill="white"/>
</clipPath>
</defs>
</svg>
