<svg width="100" height="100" viewBox="0 0 100 100" fill="none" xmlns="http://www.w3.org/2000/svg">
<g clip-path="url(#clip0_868_39537)">
<path d="M0 25C0 11.1929 11.1929 0 25 0H75C88.8071 0 100 11.1929 100 25V75C100 88.8071 88.8071 100 75 100H25C11.1929 100 0 88.8071 0 75V25Z" fill="#1558BC"/>
<path d="M40.3033 75C42.2475 75 43.8254 73.4645 43.8254 71.5664V28.4336C43.8254 26.5381 42.2503 25 40.3033 25H25.3971C23.4529 25 21.875 26.5355 21.875 28.4336V71.5664C21.875 73.4619 23.4502 75 25.3971 75H40.3033Z" fill="white"/>
<path d="M74.6029 55.1984C76.5472 55.1984 78.125 53.6628 78.125 51.7648V28.4336C78.125 26.5381 76.5498 25 74.6029 25H59.6968C57.7525 25 56.1746 26.5355 56.1746 28.4336V51.7648C56.1746 53.6601 57.7497 55.1984 59.6968 55.1984H74.6029Z" fill="white"/>
</g>
<defs>
<clipPath id="clip0_868_39537">
<rect width="100" height="100" fill="white"/>
</clipPath>
</defs>
</svg>
