<svg width="100" height="100" viewBox="0 0 100 100" fill="none" xmlns="http://www.w3.org/2000/svg">
<g clip-path="url(#clip0_867_22612)">
<path fill-rule="evenodd" clip-rule="evenodd" d="M52.7538 19.7998C52.7769 19.7623 52.7842 19.717 52.7741 19.6741C52.7639 19.6311 52.7371 19.5939 52.6996 19.5707C52.6743 19.5562 52.6454 19.549 52.6163 19.5498H27.0663C26.9282 19.5514 26.7921 19.5169 26.6715 19.4497C26.5509 19.3824 26.45 19.2848 26.3788 19.1665L17.6871 4.38317C17.6777 4.36657 17.6717 4.34824 17.6696 4.32928C17.6674 4.31032 17.6691 4.29112 17.6746 4.27283C17.68 4.25454 17.6891 4.23754 17.7013 4.22285C17.7134 4.20816 17.7285 4.19608 17.7454 4.18734C17.7658 4.17552 17.7886 4.1684 17.8121 4.1665C40.6954 4.1665 62.5329 4.1665 83.3163 4.17484C92.0204 4.17484 98.7288 10.5915 99.9954 19.1665C100.029 19.4248 99.9163 19.5498 99.6621 19.5498H71.8704C71.7239 19.5509 71.5802 19.5898 71.4532 19.6629C71.3261 19.7359 71.2201 19.8405 71.1454 19.9665C65.2538 30.0082 59.3954 39.979 53.5704 49.8748C52.4038 51.8415 49.7371 52.4582 47.8496 51.2998C47.0579 50.8165 46.3621 50.0332 45.7579 48.9623C44.5803 46.8666 43.355 44.798 42.0829 42.7582C41.1579 41.2748 41.1079 39.8123 41.9371 38.3748C45.5199 32.1664 49.1268 25.9719 52.7579 19.7915L52.7538 19.7998Z" fill="#F6D85A"/>
<path fill-rule="evenodd" clip-rule="evenodd" d="M44.8828 70.7743C47.2578 74.8243 52.9453 74.591 55.2537 70.6576L79.1662 29.8493C79.2127 29.7624 79.2826 29.6901 79.368 29.6408C79.4534 29.5915 79.5509 29.567 79.6495 29.5701H97.2745C97.3453 29.5701 97.3995 29.6285 97.3912 29.6951C97.3912 29.716 97.387 29.7368 97.3787 29.7493C86.5245 48.216 75.5787 66.8576 64.5453 85.666C59.1995 94.7951 46.7203 96.1535 38.7995 89.6118C37.5162 88.5535 36.0287 86.5826 34.3453 83.7076C23.8245 65.691 13.1037 47.416 2.17867 28.866C-2.2505 21.3535 0.412003 12.4201 7.137 7.19931C7.35784 7.02848 7.53284 7.06181 7.6745 7.29514C19.7787 27.9201 32.1828 49.0785 44.8828 70.7743Z" fill="black"/>
</g>
<defs>
<clipPath id="clip0_867_22612">
<rect width="100" height="100" fill="white"/>
</clipPath>
</defs>
</svg>
