<svg width="100" height="100" viewBox="0 0 100 100" fill="none" xmlns="http://www.w3.org/2000/svg">
<g clip-path="url(#clip0_868_39466)">
<path d="M49.961 17.4683C32.0448 17.4683 17.4687 32.0444 17.4687 49.9605C17.4687 67.8767 32.0448 82.4529 49.961 82.4529C67.8771 82.4529 82.4533 67.8767 82.4533 49.9605C82.4533 32.0444 67.8771 17.4683 49.961 17.4683ZM49.961 66.7755C40.6731 66.7755 33.146 59.2484 33.146 49.9605C33.146 40.6727 40.6731 33.1456 49.961 33.1456C59.2488 33.1456 66.7759 40.6727 66.7759 49.9605C66.7759 59.2484 59.2488 66.7755 49.961 66.7755Z" fill="black"/>
<path fill-rule="evenodd" clip-rule="evenodd" d="M52.6834 12.1317V0C79.0524 1.40982 100 23.2408 100 49.9608C100 76.6807 79.0524 98.5057 52.6834 99.9215V87.7898C72.3361 86.3861 87.8986 69.9644 87.8986 49.9608C87.8986 29.9571 72.3361 13.5355 52.6834 12.1317ZM21.3046 74.7685C16.0949 68.7541 12.7368 61.0939 12.1377 52.6834H0C0.629274 64.452 5.33673 75.1316 12.7126 83.3545L21.2985 74.7685H21.3046ZM47.2379 99.9215V87.7898C38.8214 87.1908 31.1612 83.8387 25.1468 78.623L16.5609 87.209C24.7898 94.5909 35.4693 99.2923 47.2319 99.9215H47.2379Z" fill="url(#paint0_linear_868_39466)"/>
</g>
<defs>
<linearGradient id="paint0_linear_868_39466" x1="54.6444" y1="7.02556" x2="5.46425" y2="56.2057" gradientUnits="userSpaceOnUse">
<stop stop-color="#0096FF"/>
<stop offset="1" stop-color="#FF1E56"/>
</linearGradient>
<clipPath id="clip0_868_39466">
<rect width="100" height="100" fill="white"/>
</clipPath>
</defs>
</svg>
