<svg width="100" height="100" viewBox="0 0 100 100" fill="none" xmlns="http://www.w3.org/2000/svg">
<g clip-path="url(#clip0_1085_4538)">
<path d="M3.0625 0C2.25027 0 1.47132 0.322655 0.896985 0.896985C0.322655 1.47132 0 2.25027 0 3.0625L0 15.9445H50C56.1633 15.945 62.2109 17.618 67.4981 20.7852C72.7854 23.9524 77.114 28.495 80.0226 33.9287C82.9312 39.3625 84.3108 45.4837 84.0141 51.6399C83.7175 57.796 81.7558 63.7562 78.3383 68.8852H100V3.0625C100 2.25027 99.6773 1.47132 99.103 0.896985C98.5287 0.322655 97.7497 0 96.9375 0L3.0625 0ZM52.7453 20.3484C52.2635 20.3269 51.7822 20.4004 51.3289 20.5648C50.826 20.7461 50.3699 21.0373 49.9938 21.4172C49.4968 21.9112 49.1517 22.5371 48.999 23.221C48.8463 23.9048 48.8925 24.6181 49.132 25.2766C49.4404 26.1182 49.7277 26.9674 49.9938 27.8234C50.3397 28.9157 50.641 30.0215 50.8969 31.1383C51.1748 32.3382 51.3714 33.5556 51.4852 34.782C50.9866 34.7335 50.486 34.709 49.9852 34.7086C49.2113 34.7091 48.4387 34.7671 47.6734 34.882C45.2594 31.9617 42.0852 29.2617 38.0266 26.6969C37.2112 26.2889 36.2733 26.1985 35.395 26.4431C34.5166 26.6878 33.7605 27.2501 33.2735 28.0208C32.7864 28.7916 32.6031 29.7158 32.7592 30.6141C32.9152 31.5124 33.3995 32.3207 34.118 32.882C36.457 34.3202 38.6273 36.0162 40.5883 37.9383C39.4372 38.8412 38.4201 39.9028 37.5672 41.0914C33.6734 40.9586 28.8906 41.7203 22.7586 43.9531C22.2973 44.1123 21.8722 44.3617 21.5083 44.6869C21.1444 45.012 20.8488 45.4064 20.6389 45.847C20.4289 46.2875 20.3088 46.7655 20.2855 47.2529C20.2621 47.7404 20.3361 48.2276 20.503 48.6862C20.67 49.1448 20.9265 49.5656 21.2578 49.924C21.589 50.2824 21.9883 50.5712 22.4323 50.7737C22.8763 50.9762 23.3562 51.0883 23.844 51.1034C24.3318 51.1185 24.8177 51.0364 25.2734 50.8617C29.1328 49.4586 32.2148 48.732 34.7797 48.5086C34.7318 49.0034 34.7073 49.5034 34.7062 50.0086C34.7067 50.7827 34.7647 51.5556 34.8797 52.3211C31.9594 54.7352 29.2586 57.9086 26.6937 61.968C26.4355 62.376 26.2602 62.8309 26.1778 63.3068C26.0953 63.7826 26.1075 64.27 26.2135 64.7411C26.3195 65.2123 26.5172 65.6579 26.7955 66.0526C27.0737 66.4473 27.427 66.7833 27.8352 67.0414C28.6589 67.5542 29.6521 67.7201 30.5978 67.5028C31.5434 67.2856 32.3647 66.7029 32.882 65.882C34.3202 63.543 36.0162 61.3727 37.9383 59.4117C38.8428 60.5611 39.9042 61.5778 41.0914 62.432C41.033 64.5888 41.2075 66.7455 41.6117 68.8648C42.1587 71.7183 42.9459 74.5205 43.9648 77.2414C44.1295 77.6947 44.3819 78.1112 44.7076 78.4669C45.0333 78.8227 45.4258 79.1108 45.8629 79.3148C46.2999 79.5188 46.7729 79.6347 47.2547 79.6559C47.7365 79.6771 48.2178 79.6031 48.6711 79.4383C49.1738 79.2567 49.6297 78.9652 50.0055 78.5852C50.5024 78.0913 50.8476 77.4656 51.0004 76.7819C51.1532 76.0982 51.1073 75.385 50.868 74.7266C50.5596 73.8848 50.2721 73.0356 50.0055 72.1797C49.6598 71.0874 49.3588 69.9816 49.1031 68.8648C48.8252 67.6646 48.6286 66.447 48.5148 65.2203C49.0091 65.2682 49.5091 65.2927 50.0148 65.2937C50.7955 65.2932 51.575 65.2342 52.3469 65.1172C54.6031 67.8359 57.7 70.5969 61.9734 73.3055C62.7893 73.7163 63.729 73.8087 64.6092 73.5647C65.4895 73.3206 66.2475 72.7576 66.7353 71.9852C67.2232 71.2129 67.4061 70.2867 67.2483 69.3869C67.0906 68.4871 66.6035 67.6783 65.882 67.118C63.5514 65.6782 61.3899 63.9811 59.4383 62.0586C60.5874 61.1579 61.6025 60.0984 62.4531 58.9117C62.732 58.9117 63.018 58.9297 63.3062 58.9297C67.0406 58.9297 71.5734 58.1172 77.2648 56.0469C77.7251 55.8868 78.149 55.6368 78.5118 55.3115C78.8746 54.9862 79.1691 54.592 79.3782 54.1518C79.5872 53.7116 79.7067 53.2343 79.7297 52.7475C79.7527 52.2607 79.6786 51.7743 79.5119 51.3164C79.3451 50.8585 79.089 50.4383 78.7585 50.0802C78.4279 49.7222 78.0294 49.4335 77.5863 49.2308C77.1431 49.0281 76.6641 48.9156 76.177 48.8997C75.69 48.8838 75.2046 48.9649 74.7492 49.1383C70.8914 50.5414 67.8086 51.268 65.2438 51.4914C65.2906 50.9969 65.318 50.4969 65.318 49.9914C65.3175 49.2107 65.2584 48.4312 65.1414 47.6594C67.8594 45.4031 70.6203 42.3055 73.3289 38.032C73.7839 37.2105 73.9072 36.246 73.6736 35.3364C73.4401 34.4268 72.8673 33.6411 72.0728 33.1404C71.2783 32.6397 70.3223 32.462 69.401 32.6438C68.4796 32.8256 67.6628 33.353 67.118 34.118C65.6799 36.4579 63.9827 38.6284 62.0586 40.5883C61.1572 39.4381 60.0965 38.4222 58.9086 37.5711C58.967 35.4144 58.7925 33.2576 58.3883 31.1383C57.8413 28.2848 57.0541 25.4826 56.0352 22.7617C55.7861 22.0799 55.3409 21.487 54.7557 21.0576C54.1704 20.6282 53.4705 20.3814 52.7453 20.3484ZM0 31.1117V96.9383C0.000207166 97.7504 0.322954 98.5291 0.897262 99.1033C1.47157 99.6775 2.25041 100 3.0625 100H96.9375C97.7497 100 98.5287 99.6773 99.103 99.103C99.6773 98.5287 100 97.7497 100 96.9375V84.0555H50C45.5278 84.0556 41.0994 83.1748 36.9676 81.4634C32.8358 79.7521 29.0815 77.2436 25.9192 74.0814C22.7568 70.9191 20.2483 67.1649 18.5369 63.0331C16.8254 58.9014 15.9445 54.473 15.9445 50.0008C15.9337 43.2766 17.9239 36.7013 21.6617 31.1117H0ZM50 41.7648C50.2234 41.7648 50.4445 41.7648 50.6617 41.7914C51.0838 41.8271 51.5026 41.8939 51.9148 41.9914C53.6204 42.3975 55.1509 43.3394 56.282 44.6789C56.5542 44.9972 56.8003 45.3368 57.018 45.6945C57.8145 46.9893 58.2357 48.4799 58.2344 50C58.2344 50.2234 58.2344 50.4445 58.2078 50.6617C58.1749 51.0932 58.1062 51.5213 58.0023 51.9414C57.5904 53.6361 56.651 55.1563 55.3195 56.2828C54.9989 56.5531 54.659 56.7996 54.3023 57.0203C53.0089 57.8169 51.5191 58.2376 50 58.2352C49.7766 58.2352 49.5555 58.2352 49.3383 58.2086C48.9068 58.1757 48.4787 58.1069 48.0586 58.0031C46.2643 57.5678 44.6683 56.5421 43.527 55.0907C42.3858 53.6392 41.7654 51.8464 41.7656 50C41.7656 49.7766 41.7656 49.5555 41.7922 49.3383C41.8279 48.9162 41.8947 48.4974 41.9922 48.0852C42.4226 46.2851 43.4468 44.6826 44.8997 43.536C46.3525 42.3895 48.1492 41.765 50 41.7648Z" fill="#5CD8E5"/>
</g>
<defs>
<clipPath id="clip0_1085_4538">
<rect width="100" height="100" fill="white"/>
</clipPath>
</defs>
</svg>
