<svg width="100" height="100" viewBox="0 0 100 100" fill="none" xmlns="http://www.w3.org/2000/svg">
<g clip-path="url(#clip0_867_20687)">
<path d="M37.5 72.1155C42.8105 72.1155 47.1152 67.8105 47.1152 62.5C47.1152 57.1895 42.8105 52.8848 37.5 52.8848C32.1895 52.8848 27.8845 57.1895 27.8845 62.5C27.8845 67.8105 32.1895 72.1155 37.5 72.1155ZM37.5 47.1155C42.8105 47.1155 47.1152 42.8105 47.1152 37.5C47.1152 32.1895 42.8105 27.8845 37.5 27.8845C32.1895 27.8845 27.8845 32.1895 27.8845 37.5C27.8845 42.8105 32.1895 47.1155 37.5 47.1155ZM62.5 72.1155C67.8105 72.1155 72.1155 67.8105 72.1155 62.5C72.1155 57.1895 67.8105 52.8848 62.5 52.8848C57.1895 52.8848 52.8845 57.1895 52.8845 62.5C52.8845 67.8105 57.1895 72.1155 62.5 72.1155ZM62.5 47.1155C67.8105 47.1155 72.1155 42.8105 72.1155 37.5C72.1155 32.1895 67.8105 27.8845 62.5 27.8845C57.1895 27.8845 52.8845 32.1895 52.8845 37.5C52.8845 42.8105 57.1895 47.1155 62.5 47.1155ZM50 0C77.0833 0 100 22.9168 100 50C100 77.0833 77.0833 100 50 100C22.9167 100 0 77.0833 0 50C0 22.917 22.9168 0 50 0ZM50 13.4615C29.878 13.4615 13.4616 29.3095 13.4616 49.3288C13.4616 69.348 29.878 86.5385 50 86.5385C70.122 86.5385 86.5385 69.348 86.5385 49.3288C86.5385 29.3095 70.122 13.4615 50 13.4615Z" fill="#F22F46"/>
</g>
<defs>
<clipPath id="clip0_867_20687">
<rect width="100" height="100" fill="white"/>
</clipPath>
</defs>
</svg>
