<svg width="100" height="100" viewBox="0 0 100 100" fill="none" xmlns="http://www.w3.org/2000/svg">
<g clip-path="url(#clip0_1085_4544)">
<path d="M65.8573 17.5953C66.0321 17.4196 66.2398 17.2802 66.4686 17.1851C66.6974 17.09 66.9427 17.041 67.1905 17.041C67.4383 17.041 67.6837 17.09 67.9125 17.1851C68.1413 17.2802 68.349 17.4196 68.5237 17.5953L99.448 48.643C99.8019 48.9987 100.001 49.4802 100.001 49.982C100.001 50.4839 99.8019 50.9653 99.448 51.3211L68.5214 82.3711C68.3466 82.5469 68.1388 82.6864 67.91 82.7816C67.6811 82.8768 67.4357 82.9258 67.1878 82.9258C66.9399 82.9258 66.6945 82.8768 66.4656 82.7816C66.2368 82.6864 66.029 82.5469 65.8542 82.3711L34.9308 51.3242C34.5768 50.9685 34.3781 50.487 34.3781 49.9852C34.3781 49.4833 34.5768 49.0018 34.9308 48.6461L65.8573 17.5953Z" fill="#2A004E"/>
<path d="M23.0422 51.3329C22.6896 50.9786 22.4917 50.4991 22.4917 49.9993C22.4917 49.4995 22.6896 49.02 23.0422 48.6657L48.9188 22.6868C49.7883 21.8142 49.6031 20.354 48.5023 19.8024C43.8761 17.478 38.7703 16.2677 33.593 16.2681C15.043 16.2681 0 31.3712 0 49.9993C0 68.6274 15.043 83.7306 33.593 83.7306C38.7702 83.7304 43.8757 82.5195 48.5016 80.1946C49.6031 79.6439 49.7883 78.1837 48.9188 77.311L23.0422 51.3329Z" fill="#F14A00"/>
</g>
<defs>
<clipPath id="clip0_1085_4544">
<rect width="100" height="100" fill="white"/>
</clipPath>
</defs>
</svg>
