<svg width="100" height="100" viewBox="0 0 100 100" fill="none" xmlns="http://www.w3.org/2000/svg">
<path d="M75.0581 68.6703C73.6994 69.0877 72.284 69.2906 70.8627 69.2719C58.2065 69.2719 39.6245 25.0484 39.6245 10.3266C39.6245 4.91953 40.9088 3.10703 42.7221 1.55625C27.2307 3.36016 8.64868 9.04844 2.70337 16.3125C1.45884 18.0727 0.640869 20.9109 0.640869 24.5234C0.640869 47.4758 25.1643 99.6391 42.4432 99.6391C50.451 99.6391 63.9432 86.5227 75.0393 68.6641M66.9831 0C82.9831 0 98.9987 2.58203 98.9987 11.6148C98.9987 29.9438 87.3784 52.1539 81.4424 52.1539C70.862 52.1539 57.6721 22.7203 57.6721 7.99844C57.6721 1.2875 60.2448 0 66.9588 0" fill="#F49700"/>
</svg>
