<svg width="100" height="100" viewBox="0 0 100 100" fill="none" xmlns="http://www.w3.org/2000/svg">
<path d="M81.018 0H18V100H81.018V0Z" fill="#E95420"/>
<path d="M32.4082 70.5545C36.0105 70.5545 38.9316 67.6107 38.9316 63.9795C38.9316 60.3482 36.0105 57.4045 32.4082 57.4045C28.8051 57.4045 25.8848 60.3482 25.8848 63.9795C25.8848 67.6107 28.8051 70.5545 32.4082 70.5545ZM59.5785 56.1373C63.1816 56.1373 66.102 53.1936 66.102 49.5623C66.102 45.9311 63.1816 42.9873 59.5785 42.9873C55.9762 42.9873 53.0551 45.9311 53.0551 49.5623C53.0551 53.1936 55.9762 56.1373 59.5785 56.1373ZM47.1215 80.9045C42.4215 79.8896 38.4949 76.8654 36.2871 72.5748C34.543 73.3733 32.595 73.6142 30.709 73.2646C33.3801 79.8771 39.0449 84.6795 46.0004 86.1826C47.5262 86.5123 49.0809 86.6725 50.6332 86.6623C49.4344 85.0761 48.7663 83.1524 48.7238 81.1646C48.1863 81.1049 47.6523 81.0173 47.1238 80.9021L47.1215 80.9045ZM58.1105 87.5146C61.7137 87.5146 64.634 84.5709 64.634 80.9396C64.634 77.3084 61.7137 74.3646 58.1105 74.3646C54.5082 74.3646 51.5871 77.3084 51.5871 80.9396C51.5871 84.5709 54.5082 87.5146 58.1105 87.5146ZM67.1887 78.5248C69.2176 75.9467 70.6465 72.8998 71.3332 69.6623C71.9252 66.8645 71.9582 63.9772 71.4304 61.1666C70.9025 58.3559 69.8242 55.6774 68.2574 53.285C67.507 55.0698 66.2267 56.5811 64.5895 57.6147C66.3524 60.966 66.8859 64.8289 66.0973 68.5326C65.7159 70.3339 65.0297 72.0569 64.0684 73.6271C65.5979 74.8922 66.6904 76.6065 67.191 78.5271L67.1887 78.5248ZM31.9059 54.5498C32.733 54.5054 33.5623 54.5727 34.3715 54.7498C35.4348 54.9795 36.434 55.385 37.3496 55.96C40.2871 51.7021 45.0262 49.1475 50.1613 49.0521C50.263 47.1145 50.9537 45.254 52.141 43.7193C43.9355 43.0646 35.9629 47.3326 31.9027 54.5522L31.9059 54.5498Z" fill="white"/>
</svg>
