<svg width="100" height="100" viewBox="0 0 100 100" fill="none" xmlns="http://www.w3.org/2000/svg">
<path d="M65.6797 4.24984C66.5631 4.16234 67.5131 4.25817 68.4047 4.2665L73.4464 4.27067C80.4464 4.27484 87.5006 4.44984 94.4964 4.1665L94.4922 41.3748V52.4248C94.4922 55.5248 94.5464 58.6165 94.2214 61.704C93.8598 65.203 93.0403 68.6393 91.7839 71.9248C89.1527 78.8899 84.4846 84.9009 78.3881 89.1748C77.1839 90.0123 75.8797 90.9332 74.5339 91.5248C71.1528 93.3707 67.5323 94.7393 63.7756 95.5915C62.2714 95.9373 60.7422 96.1374 59.2422 96.4915C57.6547 95.1957 56.2214 93.5998 54.7756 92.1457L46.8881 84.2582C43.8797 81.2748 40.8256 78.354 37.8422 75.3415C36.5797 74.0748 35.1797 72.8248 34.0631 71.4332C34.5047 74.3248 34.2589 78.7248 34.2589 81.7915C34.2881 87.8623 34.2714 93.929 34.2047 99.9998C34.1393 99.9533 34.0754 99.9046 34.0131 99.854C33.0297 99.0832 32.1506 98.0707 31.2631 97.179C29.5547 95.4498 27.8339 93.7332 26.1006 92.0248L13.6381 79.6123C11.3881 77.3623 9.06307 75.154 6.8714 72.8498C6.57974 72.5415 5.97557 71.9748 5.9214 71.554C6.09926 71.5219 6.28156 71.5233 6.4589 71.5582L6.43807 71.5082C10.0589 71.2998 13.7714 71.454 17.3964 71.454C22.9464 71.454 28.5006 71.379 34.0464 71.4582C24.4716 62.0808 14.9727 52.6263 5.55057 43.0957C5.35474 41.6082 5.46724 40.0123 5.46724 38.5082L5.4714 30.529L5.41724 4.90817C5.41724 4.7415 5.4589 4.59567 5.5339 4.4415C5.77974 4.27484 5.96724 4.28317 6.26307 4.2665C8.42974 4.1415 10.6797 4.2665 12.8547 4.27067C19.1547 4.27067 25.5047 4.44567 31.7964 4.24567C32.6172 4.18734 33.4506 4.19984 34.2714 4.18317L34.2589 48.2707C34.2964 56.0165 34.2714 63.7582 34.1839 71.4998C35.9589 71.3165 37.8922 71.4582 39.6839 71.4582H51.2339C55.2506 71.429 58.9714 70.6665 61.8922 67.6915C64.1339 65.4082 65.0756 62.4582 65.5589 59.3582C65.8922 57.2332 65.7339 54.8582 65.7297 52.704L65.7214 41.6832C65.7172 29.2082 65.8297 16.7248 65.6797 4.24984Z" fill="#E30A5D"/>
</svg>
