<svg width="100" height="100" viewBox="0 0 100 100" fill="none" xmlns="http://www.w3.org/2000/svg">
<path d="M20.5014 84.2439V55.7283L25.9733 86.5236L34.8811 90.958L40.6069 65.3596V93.3689L50.653 98.3096V51.0377L35.3874 43.8143L30.5538 66.3729L25.6741 39.1666L10.4944 31.9033V79.2174L20.5014 84.2439Z" fill="#FBBD16"/>
<path d="M52.0571 51.0256L67.9993 42.749V77.0467L90.054 65.642L90.1399 78.5693L52.097 98.5521L52.0571 51.0256Z" fill="#452E7F"/>
<path d="M45.6235 1.17773L34.3501 11.1418C34.3501 11.1418 56.3501 22.4426 59.0243 23.7785C61.6946 25.1152 65.497 27.6824 61.386 31.4848C57.2759 35.284 52.7532 34.7715 49.6673 33.2332C46.5821 31.6887 23.761 20.184 23.761 20.184L12.1431 30.0465C12.1431 30.0465 34.5548 41.4488 38.2571 43.402C41.9587 45.3551 55.7314 50.1832 68.7899 40.0113C81.8446 29.8395 79.9962 26.141 79.9962 25.4207C79.9962 24.7035 79.6876 20.9043 77.4235 18.5387C75.1649 16.177 68.5853 12.7863 65.8079 11.3457C63.0314 9.9082 45.6235 1.17773 45.6235 1.17773Z" fill="#962444"/>
<path d="M89.6664 59.0508C89.6664 60.7227 88.3516 62.0289 86.6453 62.0289C84.9547 62.0289 83.6094 60.7203 83.6094 59.0508C83.6094 57.4148 84.9547 56.1055 86.6453 56.1055C88.3547 56.1055 89.6664 57.4148 89.6664 59.0508ZM84.3656 59.0508C84.3656 60.3602 85.3336 61.4039 86.6672 61.4039C87.9609 61.4039 88.9094 60.3602 88.9094 59.0687C88.9094 57.7562 87.9578 56.6977 86.6453 56.6977C85.3328 56.6977 84.3656 57.757 84.3656 59.0508ZM86.1781 60.5953H85.4953V57.65C85.7664 57.5953 86.1422 57.5617 86.6273 57.5617C87.1859 57.5617 87.4359 57.65 87.6523 57.775C87.8141 57.9031 87.9398 58.1352 87.9398 58.4219C87.9398 58.7453 87.6898 58.9961 87.3289 59.1023V59.1391C87.6156 59.2461 87.7773 59.4625 87.8695 59.8562C87.9578 60.3078 88.0125 60.4883 88.0828 60.5945H87.3477C87.2555 60.4883 87.2039 60.2164 87.1125 59.8781C87.0578 59.5516 86.8805 59.4078 86.5023 59.4078H86.1789L86.1781 60.5953ZM86.1969 58.9258H86.5203C86.8953 58.9258 87.2039 58.8008 87.2039 58.4953C87.2039 58.2234 87.0055 58.0469 86.575 58.0469C86.3953 58.0469 86.2703 58.0625 86.1969 58.0805V58.9258Z" fill="#6D6E71"/>
</svg>
