<svg width="100" height="100" viewBox="0 0 100 100" fill="none" xmlns="http://www.w3.org/2000/svg">
<g clip-path="url(#clip0_1085_4560)">
<path d="M49.993 99.9995L90.3852 76.6753L74.9031 67.7214L59.075 76.8651C58.9402 76.9393 58.7885 76.9777 58.6346 76.9764C58.4807 76.9752 58.3297 76.9345 58.1961 76.8581C58.0629 76.78 57.9521 76.6688 57.8744 76.5354C57.7966 76.402 57.7546 76.2508 57.7523 76.0964V54.3808C57.7523 53.7409 58.0836 53.162 58.6375 52.8433L77.4453 41.9815C77.5793 41.9052 77.7311 41.8657 77.8853 41.8669C78.0395 41.8682 78.1907 41.9101 78.3234 41.9886C78.5984 42.1409 78.7703 42.4292 78.7734 42.7433V61.0229L94.2656 69.9714V23.3237L49.9922 48.8792L49.993 99.9995Z" fill="black"/>
<path d="M40.9352 76.8761L25.0992 67.7214L9.60547 76.6745L49.993 100V48.88L5.73438 23.3237V69.969L21.2227 61.0237V42.7456C21.2297 42.4323 21.3984 42.144 21.6695 41.9909C21.8031 41.9124 21.955 41.8704 22.11 41.8691C22.265 41.8679 22.4175 41.9075 22.5523 41.9839L41.3695 52.844C41.6388 53.0008 41.8622 53.2254 42.0175 53.4954C42.1728 53.7655 42.2546 54.0716 42.2547 54.3831V76.1019C42.2526 76.2565 42.2109 76.4081 42.1336 76.5421C42.0564 76.6761 41.9461 76.7881 41.8133 76.8675C41.6805 76.9455 41.5295 76.9875 41.3755 76.9891C41.2214 76.9907 41.0696 76.9521 40.9352 76.8769" fill="#4D4D4D"/>
<path d="M53.874 0V17.8906L69.7029 27.0289C69.9748 27.1875 70.1365 27.4789 70.1365 27.7977C70.1365 28.1125 69.9709 28.4008 69.7029 28.5594L50.8881 39.4281C50.6177 39.5815 50.3122 39.6622 50.0014 39.6622C49.6905 39.6622 49.385 39.5815 49.1146 39.4281L30.3053 28.5594C30.1717 28.4822 30.0608 28.3712 29.984 28.2374C29.9072 28.1036 29.8671 27.9519 29.8678 27.7977C29.8666 27.6424 29.9065 27.4895 29.9833 27.3545C30.0601 27.2196 30.1712 27.1072 30.3053 27.0289L46.1311 17.8906V0L5.7334 23.3242L49.9928 48.8797L94.2623 23.325L53.874 0Z" fill="#808080"/>
</g>
<defs>
<clipPath id="clip0_1085_4560">
<rect width="100" height="100" fill="white"/>
</clipPath>
</defs>
</svg>
