<svg width="100" height="100" viewBox="0 0 100 100" fill="none" xmlns="http://www.w3.org/2000/svg">
<path d="M5.46875 2.34375V7.46406H37.3375V2.34375H5.46875ZM61.5234 2.34375V7.46406H94.5312V2.34375H61.5234ZM5.46875 13.1523V18.2727H37.3375V13.1523H5.46875ZM61.5234 13.1523V18.2727H94.5312V13.1523H61.5234ZM5.46875 23.6766V28.7969H37.3375V23.6766H5.46875ZM61.5234 23.6766V28.7969H94.5312V23.6766H61.5234ZM5.46875 47.3414C5.46875 64.9766 5.52578 65.7164 7.46094 71.4899C9.5375 77.7766 12.3266 82.3273 16.6797 86.6789C24.3055 94.2453 34.1797 97.9711 47.7234 98.3977C63.2602 98.882 75.0687 94.9844 83.4344 86.5656C87.7312 82.2422 90.9461 76.8094 92.7953 70.7508C94.475 65.2898 94.5312 64.3797 94.5312 47.2563V31.6406L78.1133 31.6977L61.6664 31.7836C61.6664 31.7836 61.5242 31.8352 61.5242 54.3953C61.5242 80.1641 57.207 84.7938 48.8742 84.7938C40.5414 84.7938 37.2328 80.3641 37.3945 53.7414C37.5289 31.7156 37.3086 31.6406 37.3086 31.6406H5.46875V47.3414Z" fill="#4051B5"/>
</svg>
