<svg width="100" height="100" viewBox="0 0 100 100" fill="none" xmlns="http://www.w3.org/2000/svg">
<g clip-path="url(#clip0_867_19606)">
<path d="M99.9357 -0.000976562H0V99.9347H99.9357V-0.000976562Z" fill="black"/>
<path d="M99.9357 -0.000976562H0V99.9347H99.9357V-0.000976562Z" fill="white"/>
<path d="M99.6677 100.004C66.4464 100.004 33.2617 100.004 0.0770294 100.004C0.0743832 99.9951 0.0694179 99.9862 0.0694179 99.9773C0.06909 66.6773 0.0690918 33.3772 0.0690918 0.0727539C33.3777 0.0727539 66.6864 0.0727539 100 0.0727539C100 33.3767 100 66.6849 100 100.004C99.9047 100.004 99.8044 100.004 99.6677 100.004ZM82.4847 65.3771C82.3252 65.195 82.1744 65.0047 82.0052 64.8324C80.1286 62.9245 77.7658 62.5268 75.25 62.7539C73.0681 62.951 71.1993 63.9114 69.5837 65.3769C69.4964 65.456 69.4011 65.5263 69.2754 65.6286C69.2754 65.4244 69.2836 65.2755 69.2741 65.1276C69.2271 64.4025 68.8865 63.8531 68.2416 63.5226C67.6096 63.199 66.9634 63.2298 66.3673 63.6107C65.7044 64.0343 65.478 64.6852 65.4788 65.4504C65.4835 71.182 65.4813 76.9137 65.4813 82.6453C65.4813 83.0029 65.4742 83.3607 65.483 83.718C65.505 84.638 65.9928 85.3669 66.7337 85.6002C68.0334 86.0093 69.2732 85.1082 69.2751 83.7374C69.2802 79.8048 69.2792 75.8722 69.2754 71.9395C69.2744 70.8319 69.5544 69.8164 70.2609 68.9518C71.9069 66.9371 74.0385 66.0861 76.6168 66.3798C77.8727 66.523 78.8874 67.1058 79.5836 68.1821C80.2367 69.1921 80.4604 70.3322 80.4694 71.5063C80.494 74.7466 80.4845 77.9873 80.488 81.2277C80.489 82.1157 80.4744 83.0041 80.4915 83.8917C80.5187 85.2803 82.0112 86.1397 83.2334 85.48C84.0106 85.0606 84.2867 84.3745 84.2857 83.5274C84.2809 79.8484 84.2917 76.1695 84.2777 72.4907C84.2744 71.6171 84.2449 70.738 84.1435 69.8712C83.9553 68.2639 83.5091 66.7362 82.4847 65.3771ZM58.562 63.3229C58.3336 63.3392 58.0959 63.3202 57.8787 63.3779C56.9735 63.6187 56.4746 64.3383 56.474 65.3834C56.4718 69.1317 56.4795 72.8801 56.4668 76.6283C56.4648 77.2481 56.4323 77.8774 56.3229 78.4857C56.0342 80.0913 55.1733 81.294 53.6285 81.9033C52.1233 82.4969 50.5736 82.5174 49.0153 82.0945C47.8332 81.7737 46.9268 81.0953 46.335 80.0178C45.9106 79.2453 45.7041 78.403 45.6887 77.5319C45.6578 75.7679 45.6682 74.003 45.6662 72.2385C45.6637 69.955 45.6692 67.6713 45.6639 65.3877C45.6614 64.2631 44.9144 63.3799 43.9372 63.3227C42.7266 63.252 41.8732 64.0763 41.8719 65.3384C41.8677 69.1905 41.8627 73.0425 41.8745 76.8947C41.8789 78.2718 42.0268 79.6301 42.5511 80.9264C43.5456 83.3858 45.4018 84.8704 47.892 85.5929C49.4593 86.0476 51.0739 86.0751 52.6916 85.8849C53.9414 85.7378 55.1362 85.3967 56.2246 84.7641C58.7951 83.2704 60.1028 80.9476 60.1857 78.0473C60.3073 73.795 60.2577 69.5374 60.2624 65.2822C60.2635 64.2142 59.6356 63.5058 58.562 63.3229Z" fill="#ECDC5A"/>
<path d="M82.4983 65.3974C83.5092 66.7359 83.9555 68.2636 84.1436 69.8709C84.245 70.7378 84.2745 71.6168 84.2778 72.4905C84.2918 76.1693 84.2812 79.8483 84.2857 83.5271C84.2868 84.3744 84.0108 85.0603 83.2333 85.4798C82.0113 86.1394 80.5188 85.28 80.4918 83.8915C80.4743 83.0038 80.4891 82.1155 80.4881 81.2274C80.4846 77.987 80.4941 74.7464 80.4694 71.506C80.4606 70.3321 80.2369 69.192 79.5837 68.1818C78.8876 67.1055 77.8728 66.5227 76.6169 66.3798C74.0386 66.086 71.907 66.9368 70.2609 68.9515C69.5546 69.8163 69.2743 70.8318 69.2755 71.9394C69.2793 75.8719 69.2803 79.8045 69.2752 83.7371C69.2733 85.1079 68.0336 86.0092 66.734 85.5999C65.9929 85.3668 65.5052 84.6379 65.4829 83.7177C65.4744 83.3604 65.4816 83.0028 65.4816 82.6452C65.4816 76.9135 65.4838 71.1817 65.4788 65.4501C65.4783 64.6849 65.7046 64.034 66.3672 63.6106C66.9636 63.2297 67.6097 63.1989 68.2416 63.5225C68.8866 63.8528 69.2272 64.4022 69.2742 65.1273C69.2836 65.2752 69.2755 65.4243 69.2755 65.6285C69.4012 65.5262 69.4965 65.4557 69.5838 65.3766C71.1992 63.9112 73.0684 62.9508 75.2501 62.7538C77.7659 62.5265 80.1288 62.9242 82.0051 64.8323C82.1745 65.0045 82.3253 65.1949 82.4983 65.3974Z" fill="#111827"/>
<path d="M58.5928 63.3243C59.6356 63.5055 60.2635 64.214 60.2622 65.2818C60.2577 69.5373 60.3074 73.7947 60.1858 78.047C60.1028 80.9474 58.7952 83.2701 56.2246 84.7638C55.1362 85.3964 53.9415 85.7375 52.6916 85.8846C51.074 86.075 49.4593 86.0473 47.892 85.5926C45.4018 84.8701 43.5456 83.3855 42.5511 80.9263C42.0268 79.6298 41.8789 78.2717 41.8745 76.8944C41.8627 73.0424 41.8677 69.1902 41.8719 65.3381C41.8732 64.0761 42.7267 63.2517 43.9372 63.3226C44.9144 63.3797 45.6614 64.263 45.6639 65.3874C45.6693 67.671 45.6636 69.9547 45.6663 72.2382C45.6683 74.0027 45.6576 75.7676 45.6888 77.5316C45.7041 78.4027 45.9106 79.2452 46.335 80.0175C46.9268 81.0952 47.8332 81.7734 49.0153 82.0944C50.5736 82.5173 52.1233 82.4968 53.6285 81.903C55.1733 81.2939 56.0343 80.091 56.3229 78.4855C56.4323 77.8771 56.4647 77.248 56.4668 76.628C56.4795 72.8798 56.4718 69.1315 56.474 65.3833C56.4747 64.3381 56.9735 63.6184 57.8787 63.3777C58.0959 63.3199 58.3336 63.3391 58.5928 63.3243Z" fill="#111827"/>
</g>
<defs>
<clipPath id="clip0_867_19606">
<rect width="100" height="100" fill="white"/>
</clipPath>
</defs>
</svg>
