<svg width="100" height="100" viewBox="0 0 100 100" fill="none" xmlns="http://www.w3.org/2000/svg">
<path fill-rule="evenodd" clip-rule="evenodd" d="M78.6014 56.933C77.7709 60.9338 74.0818 71.2033 62.3108 76.7604L57.5842 71.4479L49.6061 79.4643C45.0679 79.4035 40.6053 78.294 36.5671 76.2225C32.5289 74.1509 29.0245 71.1735 26.3279 67.5229C27.1764 67.7885 28.049 67.9533 28.9342 68.015C30.2404 68.0385 31.6568 67.5596 31.6568 65.3658V43.7291C31.6753 43.1728 31.5635 42.6199 31.3302 42.1145C31.097 41.6091 30.7488 41.1653 30.3135 40.8184C29.8782 40.4715 29.3678 40.2312 28.8231 40.1167C28.2784 40.0022 27.7145 40.0166 27.1764 40.1588C23.4842 41.0096 20.5326 50.2229 20.5326 50.2229C20.4914 45.9687 21.3771 41.7566 23.1284 37.8794C24.8796 34.0022 27.4542 30.5529 30.6733 27.7713C34.9095 24.1064 40.0953 21.7134 45.6326 20.8682C41.6014 23.1666 39.3373 26.9143 39.3373 30.0572C39.3373 35.1174 42.3826 34.5041 43.2857 33.7596V62.9619C43.4389 63.3275 43.6397 63.6729 43.8811 63.99C44.2846 64.5469 44.8153 64.9994 45.4289 65.3099C46.0426 65.6204 46.7215 65.7799 47.4092 65.7752C50.4576 65.7752 54.4154 62.2932 54.4154 62.2932V38.6541C54.4154 36.2494 52.6029 33.3471 50.7873 32.3494C50.7873 32.3494 54.1467 31.7541 56.7412 33.7377C57.2276 33.1424 57.7449 32.5731 58.2912 32.0322C64.3436 26.0963 70.0412 24.4057 74.7889 23.5604C74.7889 23.5604 66.1584 30.3439 66.1584 39.4447C66.1584 46.2135 66.3326 62.7174 66.3326 62.7174C69.5342 65.8088 74.2975 61.3439 78.6006 56.9338L78.6014 56.933Z" fill="black"/>
<path fill-rule="evenodd" clip-rule="evenodd" d="M49.9999 1.86133C23.4163 1.86133 1.86157 23.416 1.86157 49.9996C1.86157 76.5832 23.4163 98.1379 49.9999 98.1379C76.5834 98.1379 98.1381 76.5832 98.1381 49.9996C98.1381 23.416 76.5834 1.86133 49.9999 1.86133ZM49.9999 96.2129C24.478 96.2129 3.78735 75.5223 3.78735 49.9996C3.79048 24.4785 24.4811 3.78789 50.003 3.79102C75.5248 3.79102 96.2123 24.4816 96.2123 50.0035C96.2123 75.5254 75.5217 96.216 49.9999 96.216V96.2129Z" fill="black"/>
</svg>
