<svg width="100" height="100" viewBox="0 0 100 100" fill="none" xmlns="http://www.w3.org/2000/svg">
<g clip-path="url(#clip0_867_19392)">
<path d="M0 0H100V100H0V0Z" fill="#0ADDF8"/>
<path fill-rule="evenodd" clip-rule="evenodd" d="M59.6498 29.7093C60.3165 29.9801 61.029 30.1134 61.7831 30.1134C62.6373 30.1134 63.379 29.9634 64.0165 29.6634C64.6284 29.3804 65.1535 28.9387 65.5373 28.3843C65.9055 27.829 66.0972 27.1754 66.0873 26.5093C66.1075 25.7578 65.8476 25.0256 65.3581 24.4551C64.8831 23.8926 64.1623 23.4551 63.1915 23.1426L60.879 22.4009C60.5658 22.3141 60.2811 22.1459 60.054 21.9134C59.8749 21.708 59.7771 21.4443 59.779 21.1718C59.7732 20.9288 59.8463 20.6905 59.9873 20.4926C60.1363 20.2797 60.3451 20.1159 60.5873 20.0218C60.8694 19.9093 61.1711 19.8541 61.4748 19.8593C61.9789 19.8622 62.4725 20.0037 62.9017 20.2683C63.3308 20.5328 63.679 20.9102 63.9081 21.3593L65.7665 20.0301C65.2499 19.1305 64.4435 18.4328 63.479 18.0509C62.8427 17.7981 62.1636 17.6708 61.479 17.6759C60.6581 17.6759 59.929 17.8301 59.2915 18.1343C58.695 18.4108 58.1862 18.8462 57.8206 19.3926C57.4695 19.954 57.2899 20.6056 57.304 21.2676C57.304 22.0759 57.5456 22.7718 58.0331 23.3509C58.5165 23.9259 59.2415 24.3676 60.1998 24.6843L62.5581 25.4551C62.8692 25.5384 63.1507 25.7073 63.3706 25.9426C63.5429 26.1377 63.6351 26.3907 63.629 26.6509C63.6356 26.8953 63.5625 27.1352 63.4206 27.3343C63.2666 27.5264 63.0657 27.6757 62.8373 27.7676C62.5547 27.8839 62.2511 27.9406 61.9456 27.9343C61.3073 27.9359 60.6847 27.7362 60.1665 27.3634C59.6947 27.0226 59.3094 26.5759 59.0415 26.0593L57.0831 27.2718C57.5997 28.3796 58.5168 29.2505 59.6498 29.7093ZM18.9498 29.4259C19.6915 29.8259 20.5373 30.0259 21.4915 30.0259C22.4373 30.0259 23.2831 29.8259 24.0248 29.4259C24.7548 29.0424 25.3647 28.4649 25.7875 27.7569C26.2102 27.0489 26.4293 26.238 26.4206 25.4134V17.7801H23.9123V25.2551C23.9185 25.7061 23.8079 26.1511 23.5915 26.5468C23.384 26.921 23.0785 27.2316 22.7078 27.4453C22.337 27.6589 21.9151 27.7675 21.4873 27.7593C21.0589 27.7643 20.6369 27.655 20.2648 27.4426C19.8927 27.2302 19.5841 26.9224 19.3706 26.5509C19.1624 26.1511 19.0565 25.7059 19.0623 25.2551V17.7801H16.554V25.4176C16.554 26.3051 16.7623 27.0968 17.1873 27.7926C17.6165 28.4884 18.204 29.0301 18.9498 29.4301V29.4259ZM38.804 56.4676C39.5498 56.8676 40.3956 57.0676 41.3456 57.0676C42.2915 57.0676 43.1373 56.8676 43.8831 56.4718C44.6123 56.0877 45.2215 55.5099 45.6434 54.802C46.0654 54.094 46.2839 53.2834 46.2748 52.4593V44.8259H43.7706V52.2968C43.7751 52.7481 43.6632 53.193 43.4456 53.5884C43.2378 53.9624 42.9323 54.2728 42.5616 54.4863C42.1909 54.6999 41.7692 54.8087 41.3415 54.8009C41.0144 54.8065 40.6896 54.7448 40.3873 54.6196C40.0851 54.4944 39.8118 54.3084 39.5844 54.0732C39.357 53.838 39.1804 53.5586 39.0655 53.2523C38.9506 52.946 38.8999 52.6193 38.9165 52.2926V44.8343H36.4165V52.4676C36.4165 53.3509 36.6248 54.1426 37.0456 54.8426C37.479 55.5343 38.0665 56.0801 38.8081 56.4801L38.804 56.4676ZM21.0415 84.0259C20.1578 84.0427 19.284 83.8379 18.4998 83.4301C17.7795 83.0508 17.1727 82.4872 16.7415 81.7968C16.3155 81.0786 16.0963 80.2567 16.1081 79.4218V71.7843H18.6165V79.2551C18.5992 79.582 18.6495 79.9089 18.7642 80.2155C18.8789 80.5221 19.0555 80.8017 19.283 81.0371C19.5105 81.2724 19.7841 81.4584 20.0866 81.5833C20.3891 81.7083 20.7142 81.7696 21.0415 81.7634C21.4693 81.7716 21.8912 81.6631 22.262 81.4494C22.6327 81.2358 22.9382 80.9252 23.1456 80.5509C23.3634 80.1555 23.4753 79.7106 23.4706 79.2593V71.7843H25.9748V79.4176C25.9881 80.2425 25.7715 81.0549 25.349 81.7636C24.9266 82.4724 24.3151 83.0494 23.5831 83.4301C22.799 83.8379 21.9251 84.0427 21.0415 84.0259ZM36.5581 17.7801V29.8343H39.0623V22.5093L44.479 29.8301H46.4206V17.7801H43.9165V24.9426L38.4831 17.7801H36.5581ZM36.2873 71.9593V83.8301H38.7956V79.9968H40.5623L42.654 83.8301H45.4706L43.079 79.5634C43.699 79.2871 44.2268 78.8389 44.5998 78.2718C44.9748 77.6884 45.1665 76.8093 45.1665 75.9884C45.1918 75.2445 45.0008 74.5092 44.6165 73.8718C44.2498 73.2968 43.7415 72.6884 43.0956 72.3968C42.4025 72.0939 41.6519 71.9446 40.8956 71.9593H36.2915H36.2873ZM40.9123 77.6384H38.7956V74.3218H40.9123C41.2665 74.3218 41.579 74.3926 41.8331 74.5301C42.0915 74.6718 42.2915 74.8634 42.4331 75.1134C42.5831 75.3634 42.6581 75.6551 42.6581 75.9884C42.6631 76.2802 42.5891 76.5679 42.4438 76.8209C42.2986 77.074 42.0876 77.2831 41.8331 77.4259C41.5497 77.5707 41.2346 77.6423 40.9165 77.6343L40.9123 77.6384ZM16.7123 56.8843V45.0134H21.3206C22.154 45.0134 22.8831 45.1593 23.5206 45.4509C24.1665 45.7426 24.6748 46.3509 25.0415 46.9259C25.4258 47.5634 25.6168 48.2987 25.5915 49.0426C25.5915 49.8634 25.3998 50.7426 25.0248 51.3259C24.6516 51.8929 24.1238 52.3411 23.504 52.6176L25.8956 56.8843H23.079L20.9873 53.0551H19.2165V56.8843H16.7123ZM19.2165 50.6926H21.3373C21.6915 50.6926 21.9998 50.6218 22.2581 50.4843C22.5135 50.3414 22.7252 50.1318 22.8705 49.8778C23.0159 49.6239 23.0894 49.3351 23.0831 49.0426C23.0831 48.7093 23.0081 48.4176 22.8581 48.1676C22.7184 47.9195 22.5101 47.7169 22.2581 47.5843C21.9735 47.4388 21.6568 47.3672 21.3373 47.3759H19.2165V50.6926ZM59.729 56.6926C60.4706 57.0009 61.2748 57.1593 62.1373 57.1593C63.0123 57.1593 63.7915 57.0134 64.4831 56.7218C65.1549 56.454 65.7662 56.0542 66.2807 55.5461C66.7953 55.038 67.2027 54.4318 67.479 53.7634L65.2623 52.6926C65.0533 53.2504 64.6744 53.7285 64.179 54.0593C63.5792 54.4768 62.868 54.7047 62.1373 54.7134C61.429 54.7134 60.804 54.6384 60.2623 54.3009C59.7205 53.9649 59.2833 53.4844 58.9998 52.9134C58.6972 52.297 58.5486 51.6165 58.5665 50.9301C58.5665 50.1426 58.7081 49.5509 58.9998 48.9676C59.2827 48.3951 59.7199 47.9131 60.2623 47.5759C60.804 47.2426 61.429 47.0759 62.1373 47.0759C62.8706 47.0759 63.4915 47.1801 63.9998 47.5676C64.5165 47.9426 64.9665 48.5134 65.1706 49.0968L67.3873 48.0301C67.1394 47.3864 66.7557 46.8038 66.2623 46.3218C65.7522 45.8191 65.1475 45.4225 64.4831 45.1551C63.7382 44.8545 62.9404 44.7072 62.1373 44.7218C61.2623 44.7218 60.4581 44.8759 59.7123 45.1884C58.979 45.4926 58.3373 45.9218 57.7873 46.4843C57.2373 47.0343 56.8123 47.6926 56.5123 48.4551C56.2081 49.2134 56.054 50.0384 56.054 50.9301C56.0345 51.7504 56.1794 52.5663 56.4799 53.3298C56.7804 54.0933 57.2306 54.789 57.804 55.3759C58.354 55.9384 58.9956 56.3759 59.729 56.6884V56.6926ZM58.029 83.8301V71.7801H65.504V74.2343H60.5373V76.6093H64.4623V78.9718H60.5373V81.3759H65.504V83.8301H58.029ZM74.9206 71.7801V83.8301H78.8498C80.1581 83.8301 81.2873 83.5718 82.2498 83.0509C83.2081 82.5343 83.9498 81.8218 84.479 80.9176C85.0081 80.0009 85.2706 78.9593 85.2706 77.7926C85.2706 76.6301 85.0081 75.5968 84.479 74.6926C83.9509 73.7852 83.1785 73.0446 82.2498 72.5551C81.1992 72.0163 80.0301 71.7498 78.8498 71.7801H74.9206ZM78.9165 81.4676H77.429V74.2343H78.9165C79.704 74.2343 80.3831 74.3009 80.954 74.6093C81.5248 74.9259 81.9665 75.2759 82.279 75.8468C82.6169 76.4399 82.7855 77.1144 82.7665 77.7968C82.782 78.4774 82.6136 79.1497 82.279 79.7426C81.9701 80.2817 81.5092 80.7179 80.954 80.9968C80.3831 81.3093 79.7039 81.4676 78.9123 81.4676H78.9165ZM78.5248 30.1884V20.4176H75.1081V18.0551H84.4915V20.4176H81.0331V30.1926L78.5248 30.1884ZM78.7998 47.2884V57.0634H81.304V47.2884H84.7623V44.9259H75.3831V47.2884H78.7998Z" fill="black"/>
</g>
<defs>
<clipPath id="clip0_867_19392">
<rect width="100" height="100" fill="white"/>
</clipPath>
</defs>
</svg>
