<svg width="100" height="100" viewBox="0 0 100 100" fill="none" xmlns="http://www.w3.org/2000/svg">
<path d="M82.3458 0L80.7917 5.40417H91.6L93.1417 0H82.3458ZM67.4667 9.45833L65.9 14.8667H88.9L90.4417 9.45833H67.4667ZM53.7375 18.9167L52.1708 24.325H86.1958L87.7375 18.9167H53.7375ZM11.875 28.375L10.3042 33.7833H83.4917L85.0333 28.3792H11.8667L11.875 28.375ZM16.1833 37.8375L14.6167 43.2417H80.7917L82.3333 37.8375H16.175H16.1833ZM17.0333 100L18.6 94.5958H7.775L6.25 100H17.0333ZM31.925 90.5417L33.4917 85.1375H10.4792L8.95833 90.5417H31.925ZM45.6542 81.0792L47.2208 75.675H13.1792L11.6542 81.0792H45.6542ZM87.5208 71.6208L89.0875 66.2167H15.8833L14.3583 71.6208H87.5208ZM83.1958 62.1625L84.7625 56.7583H18.5875L17.0625 62.1625H83.1958ZM78.275 52.7042L79.8417 47.3H17.75L16.225 52.7042H78.2792H78.275Z" fill="url(#paint0_linear_867_19345)"/>
<defs>
<linearGradient id="paint0_linear_867_19345" x1="49.6958" y1="0" x2="49.6958" y2="100" gradientUnits="userSpaceOnUse">
<stop stop-color="#AEBCFE"/>
<stop offset="1" stop-color="#805DFA"/>
</linearGradient>
</defs>
</svg>
