<svg width="100" height="100" viewBox="0 0 100 100" fill="none" xmlns="http://www.w3.org/2000/svg">
<g clip-path="url(#clip0_867_13879)">
<path d="M2.99897 47.9307C2.9562 48.7006 2.93481 50.5183 2.93481 51.3096C2.93481 78.0205 23.9143 99.6629 49.7911 99.6629C75.6679 99.6629 96.6474 78.0205 96.6474 51.3096C96.6474 50.5183 96.626 49.7485 96.5832 48.9572L2.99897 47.9307Z" fill="url(#paint0_linear_867_13879)"/>
<path d="M54.1751 93.8463C77.6555 93.8463 96.6901 74.8117 96.6901 51.3314C96.6901 27.851 77.6555 8.81641 54.1751 8.81641C30.6948 8.81641 11.6602 27.851 11.6602 51.3314C11.6602 74.8117 30.6948 93.8463 54.1751 93.8463Z" fill="#007AFF"/>
<path d="M78.9828 9.09422C71.1984 3.42699 61.0187 -0.336914 50.7536 -0.336914C24.3421 -0.336914 2.9563 21.7546 2.9563 48.9787H11.7459C12.5371 29.3038 28.8117 13.1361 48.9144 13.1361C57.2762 13.1361 64.9965 15.8949 71.2198 20.5356C74.3421 22.6101 78.5765 21.8188 80.7365 18.7178C82.8964 15.5527 82.1265 11.2542 78.9828 9.09422Z" fill="url(#paint1_linear_867_13879)"/>
<path opacity="0.5" d="M96.1342 58.1318L76.5021 38.4996L63.9486 37.4303H52.4644L51.3096 52.3576L35.035 36.083L31.0786 41.7716L32.5542 66.2584L59.7356 93.4397C78.3626 91.0231 93.1616 76.5449 96.1342 58.1318Z" fill="url(#paint2_linear_867_13879)"/>
<path d="M50.1975 34.522V56.2499H50.1761C50.1761 60.2277 46.9469 63.457 42.9691 63.457C38.9913 63.457 35.7621 60.2277 35.7621 56.2499V38.2217C35.7621 36.2328 34.1368 34.6075 32.1479 34.6075C30.159 34.6075 28.5337 36.2115 28.5337 38.2217V56.2927C28.5337 64.2482 34.9922 70.7067 42.9691 70.7067C50.946 70.7067 57.4045 64.2482 57.4045 56.2927V41.8359H68.2257C70.1932 41.8359 71.7972 43.4399 71.7972 45.4073C71.7972 47.3748 70.1932 48.9788 68.2257 48.9788H64.7826C62.7724 48.9788 61.1256 50.6041 61.1256 52.6144C61.1256 54.5819 62.6868 56.1858 64.6543 56.2499L72.3318 68.9531C72.9734 70.0224 74.1282 70.7495 75.4755 70.7495C77.4858 70.7495 79.1325 69.1242 79.1325 67.1139C79.1325 66.3013 78.8545 65.5314 78.4054 64.9326L72.6098 55.3517C76.4165 53.6623 79.0683 49.8556 79.0683 45.4287C79.0683 39.4193 74.1924 34.5647 68.183 34.5647L50.1975 34.522Z" fill="white"/>
<path d="M75.0264 18.3542C77.1524 18.3542 78.8759 16.6307 78.8759 14.5047C78.8759 12.3787 77.1524 10.6553 75.0264 10.6553C72.9005 10.6553 71.177 12.3787 71.177 14.5047C71.177 16.6307 72.9005 18.3542 75.0264 18.3542Z" fill="white"/>
<path d="M72.8665 17.7124C72.8665 17.7124 59.5859 5.99302 42.7767 8.23853C36.4037 9.26505 31.2925 11.1898 26.331 14.1624C21.3695 17.135 28.5551 12.088 30.6937 10.9331C32.8537 9.77831 42.905 3.53365 59.6073 6.05718C76.3096 8.5807 78.1488 12.3018 78.1488 12.3018L72.8665 17.7124Z" fill="white"/>
</g>
<defs>
<linearGradient id="paint0_linear_867_13879" x1="2.93481" y1="73.7968" x2="96.6474" y2="73.7968" gradientUnits="userSpaceOnUse">
<stop stop-color="#FF3B30"/>
<stop offset="1" stop-color="#F7951E"/>
</linearGradient>
<linearGradient id="paint1_linear_867_13879" x1="2.9563" y1="24.3209" x2="81.9597" y2="24.3209" gradientUnits="userSpaceOnUse">
<stop stop-color="#FF3B30"/>
<stop offset="1" stop-color="#F7951E"/>
</linearGradient>
<linearGradient id="paint2_linear_867_13879" x1="41.6475" y1="39.4983" x2="84.2672" y2="82.1181" gradientUnits="userSpaceOnUse">
<stop/>
<stop offset="1" stop-opacity="0"/>
</linearGradient>
<clipPath id="clip0_867_13879">
<rect width="100" height="100" fill="white"/>
</clipPath>
</defs>
</svg>
