<svg width="100" height="100" viewBox="0 0 100 100" fill="none" xmlns="http://www.w3.org/2000/svg">
<path d="M6.94043 62.999C5.22168 62.5303 4.12793 61.2803 3.50293 59.0146C3.26855 58.0771 3.19043 57.6865 3.19043 51.0459L3.1123 44.0928H7.4873V49.7178C7.4873 52.999 7.56543 55.8115 7.64356 56.3584C7.95606 58.4678 8.81543 59.5615 10.2217 59.5615C11.5498 59.5615 12.4873 58.5459 13.1123 56.3584C13.2686 55.6553 13.3467 54.7959 13.4248 49.7959L13.5029 44.0146H17.8779V52.8428C17.8779 57.6865 17.8779 61.9053 17.9561 62.1396L18.0342 63.0771H13.7373L13.6592 61.9834C13.6592 61.5928 13.5811 60.8115 13.5811 60.1865V59.0928L13.0342 60.1865C12.7217 60.8115 12.2529 61.5146 12.0186 61.749C10.8467 62.999 8.7373 63.4678 6.94043 62.999Z" fill="#BAD05E"/>
<path d="M56.6282 62.999C53.1125 62.4521 51.0813 60.7334 50.0657 57.5303C49.8313 56.749 49.7532 56.124 49.9094 56.124C49.9094 56.124 50.8469 55.9678 51.9407 55.8115C53.0344 55.6553 53.9719 55.499 54.05 55.4209C54.1282 55.4209 54.2844 55.6553 54.4407 56.0459C54.8313 57.6084 55.5344 58.4678 56.7063 59.0146C57.4875 59.4053 59.5188 59.4053 60.4563 59.0928C61.2375 58.7803 62.0188 57.9209 62.2532 57.1396C62.4875 56.2021 62.4094 54.874 62.0969 54.1709C61.55 52.9209 60.7688 52.4521 57.4875 51.3584C54.5188 50.4209 53.7375 49.9521 52.6438 48.9365C51.2375 47.5303 50.6125 45.5771 50.7688 43.3115C51.0032 39.874 52.8 37.7646 56.0032 37.0615C57.3313 36.749 60.1438 36.749 61.3157 37.0615C63.3469 37.5303 64.5969 38.4678 65.4563 40.1084C66.0032 41.124 66.4719 42.8428 66.3938 42.999C66.3157 43.0771 62.5657 43.7021 62.0969 43.7021L61.7844 42.9209C61.4719 41.8271 61.0032 41.124 60.2219 40.7334C59.7532 40.4209 59.4407 40.4209 58.5032 40.4209C56.6282 40.4209 55.6907 41.124 55.3 42.7646C54.9875 44.4053 55.5344 45.8115 56.7844 46.5146C57.175 46.749 58.5813 47.2959 59.9094 47.6865C62.8 48.624 63.8938 49.1709 64.9094 50.1865C65.7688 51.0459 66.55 52.4521 66.7063 53.624C66.8625 54.6396 66.8625 56.5928 66.6282 57.6865C66.0813 60.4209 64.1282 62.2959 61.3157 62.9209C60.2219 63.0771 57.6438 63.2334 56.6282 62.999ZM77.8782 63.0771C74.675 62.6084 72.2532 60.499 71.0032 57.0615C69.7532 53.7803 69.4407 48.8584 70.3782 44.7178C71.2375 40.5771 73.5813 37.8428 76.9407 36.9834C78.1125 36.6709 80.4563 36.6709 81.4719 36.9834C83.8157 37.6084 85.6907 39.1709 86.7844 41.5928C87.5657 43.1553 87.6438 42.999 85.4563 43.7803C84.3625 44.1709 83.425 44.4834 83.3469 44.4834C83.2688 44.4834 83.1125 44.249 83.0344 44.0146C82.5657 42.6084 81.6282 41.4365 80.5344 40.9678C79.675 40.5771 78.2688 40.6553 77.4875 41.0459C75.4563 42.0615 74.5188 44.9521 74.5188 49.7959C74.5188 53.3115 74.9875 55.5771 76.0813 57.2959C77.0188 58.7803 78.0344 59.249 79.7532 59.1709C81.0813 59.0928 82.0969 58.624 83.0344 57.7647L83.6594 57.1396V52.9209H79.2844V49.4834H88.0344V58.7021L87.4875 59.3272C86.2375 60.9678 84.1282 62.2959 82.0969 62.7646C80.925 63.0771 78.8938 63.2334 77.8782 63.0771Z" fill="#010101"/>
<path d="M23.0347 50.3423C21.6284 43.4673 20.3003 37.686 20.3003 37.5298L20.2222 36.8267H24.8315C24.9097 36.8267 25.4565 40.6548 26.2378 44.7954C27.019 48.936 27.8784 53.7017 28.1128 55.3423C28.3472 56.9829 28.5815 58.3892 28.5815 58.3892L33.6597 40.2642H35.6909L40.9253 58.311C40.9253 58.3892 41.1597 57.2954 41.3159 56.0454C41.4722 54.7954 42.3315 50.0298 43.1909 45.4985L44.7534 36.8267H49.4409L49.3628 37.5298C49.3628 37.7642 48.1128 43.4673 46.6284 50.2642C45.144 57.061 44.0503 63.2329 43.9722 63.2329H38.3472L34.6753 49.3267L31.1597 63.2329H25.6128L23.0347 50.3423Z" fill="black"/>
<path d="M92.2529 49.9517V36.8267H96.8623V63.1548H92.2529V49.9517Z" fill="#010101"/>
<path d="M65.1575 41.1921C65.1561 41.6233 64.9842 42.0363 64.6793 42.3412C64.3744 42.6461 63.9613 42.818 63.5302 42.8194C63.099 42.818 62.6859 42.6461 62.3811 42.3412C62.0762 42.0363 61.9043 41.6233 61.9028 41.1921C61.9041 40.7608 62.0759 40.3475 62.3808 40.0425C62.6857 39.7374 63.0989 39.5654 63.5302 39.564C64.4091 39.5319 65.1575 40.2804 65.1575 41.1921Z" fill="#BAD05E"/>
<path d="M64.2139 41.1924C64.2139 41.583 63.9209 41.876 63.5303 41.876C63.1396 41.876 62.8467 41.583 62.8467 41.1924C62.8467 40.8018 63.1396 40.5088 63.5303 40.5088C63.7113 40.5098 63.8845 40.5822 64.0125 40.7101C64.1405 40.8381 64.2128 41.0114 64.2139 41.1924Z" fill="#010101"/>
</svg>
