<svg width="100" height="100" viewBox="0 0 100 100" fill="none" xmlns="http://www.w3.org/2000/svg">
<g clip-path="url(#clip0_867_13867)">
<path d="M58.5632 25.0498H82.432C92.1106 25.0498 99.9568 32.8959 99.9568 42.5745V65.3381H90.1532V42.5745C90.1532 42.3413 90.1439 42.1098 90.1261 41.8803L66.2571 65.3343C66.3375 65.3368 66.4184 65.3381 66.4993 65.3381H90.1532V74.5973H66.4993C56.8207 74.5973 48.7593 66.6744 48.7593 56.9958V34.2928H58.5632V56.9958C58.5632 57.433 58.597 57.8649 58.6627 58.2886L83.0568 34.3186C82.8512 34.3015 82.643 34.2928 82.432 34.2928H58.5632V25.0498Z" fill="black"/>
<path d="M34.4535 72.892L-0.0429688 34.2886H13.8353L34.0885 56.9528V34.2886H44.4368V69.0812C44.4368 74.3323 37.9526 76.8074 34.4535 72.892Z" fill="black"/>
</g>
<defs>
<clipPath id="clip0_867_13867">
<rect width="100" height="100" fill="white"/>
</clipPath>
</defs>
</svg>
