<svg width="100" height="100" viewBox="0 0 100 100" fill="none" xmlns="http://www.w3.org/2000/svg">
<mask id="mask0_1085_4581" style="mask-type:luminance" maskUnits="userSpaceOnUse" x="10" y="31" width="80" height="6">
<path d="M10.9375 31.25H89.0625V36.7188H10.9375V31.25Z" fill="white"/>
</mask>
<g mask="url(#mask0_1085_4581)">
<mask id="mask1_1085_4581" style="mask-type:luminance" maskUnits="userSpaceOnUse" x="2" y="8" width="96" height="84">
<path d="M97.0578 17.0593L88.5039 32.0312L86.0961 36.3101H80.3227L72.9398 50.2687C75.607 61.9444 69.1008 73.764 57.807 77.753L50 91.9241L42.2453 77.7523L41.443 77.4866C30.5633 73.2054 24.4477 61.6116 27.0602 50.2132L19.732 36.3093H13.9586L11.4961 32.0312L2.94141 17.0593H27.5391L31.5523 25.028L31.7656 25.1343L31.818 25.0272C32.5469 15.5546 40.4453 8.23975 49.9453 8.23975C59.4484 8.23975 67.3461 15.5546 68.0758 25.0272L67.9688 25.1343L67.9141 25.0272L72.4609 17.0585L97.0578 17.0593Z" fill="white"/>
</mask>
<g mask="url(#mask1_1085_4581)">
<path d="M81.818 31.4961L79.5195 36.3086H86.0414L86.3648 35.775L88.7695 31.4961H81.7656H81.818ZM18.0758 31.4961H11.2305L13.9586 36.3086H20.4281L18.0758 31.4961Z" fill="#9E9E9E"/>
</g>
</g>
<mask id="mask2_1085_4581" style="mask-type:luminance" maskUnits="userSpaceOnUse" x="2" y="16" width="96" height="77">
<path d="M2.34375 16.4062H97.6562V92.1875H2.34375V16.4062Z" fill="white"/>
</mask>
<g mask="url(#mask2_1085_4581)">
<mask id="mask3_1085_4581" style="mask-type:luminance" maskUnits="userSpaceOnUse" x="2" y="8" width="96" height="84">
<path d="M97.0578 17.0593L88.5039 32.0312L86.0961 36.3101H80.3227L72.9398 50.2687C75.607 61.9444 69.1008 73.764 57.807 77.753L50 91.9241L42.2453 77.7523L41.443 77.4866C30.5633 73.2054 24.4477 61.6116 27.0602 50.2132L19.732 36.3093H13.9586L11.4961 32.0312L2.94141 17.0593H27.5391L31.5523 25.028L31.7656 25.1343L31.818 25.0272C32.5469 15.5546 40.4453 8.23975 49.9453 8.23975C59.4484 8.23975 67.3461 15.5546 68.0758 25.0272L67.9688 25.1343L67.9141 25.0272L72.4609 17.0585L97.0578 17.0593Z" fill="white"/>
</mask>
<g mask="url(#mask3_1085_4581)">
<path d="M97.0578 17.0604L88.5039 32.0322H82.5133L72.9398 50.2697L50 91.926L27.0602 50.215L17.4867 32.0322H11.4961L2.94141 17.0604H27.5391L31.5523 25.0291L44.5984 48.8229L49.9453 58.6104L55.0812 48.8229L67.9141 25.0283L72.4609 17.0596" fill="#424242"/>
</g>
</g>
<mask id="mask4_1085_4581" style="mask-type:luminance" maskUnits="userSpaceOnUse" x="2" y="16" width="96" height="2">
<path d="M2.34375 16.4062H97.6562V17.9688H2.34375V16.4062Z" fill="white"/>
</mask>
<g mask="url(#mask4_1085_4581)">
<mask id="mask5_1085_4581" style="mask-type:luminance" maskUnits="userSpaceOnUse" x="2" y="8" width="96" height="84">
<path d="M97.0578 17.0593L88.5039 32.0312L86.0961 36.3101H80.3227L72.9398 50.2687C75.607 61.9444 69.1008 73.764 57.807 77.753L50 91.9241L42.2453 77.7523L41.443 77.4866C30.5633 73.2054 24.4477 61.6116 27.0602 50.2132L19.732 36.3093H13.9586L11.4961 32.0312L2.94141 17.0593H27.5391L31.5523 25.028L31.7656 25.1343L31.818 25.0272C32.5469 15.5546 40.4453 8.23975 49.9453 8.23975C59.4484 8.23975 67.3461 15.5546 68.0758 25.0272L67.9688 25.1343L67.9141 25.0272L72.4609 17.0585L97.0578 17.0593Z" fill="white"/>
</mask>
<g mask="url(#mask5_1085_4581)">
<path d="M27.8385 17.5939H3.24082L2.94238 17.0596H27.5393L27.8385 17.5939ZM72.4611 17.0596L72.165 17.5939H96.7533L97.058 17.0596H72.4611Z" fill="white" fill-opacity="0.2"/>
</g>
</g>
<mask id="mask6_1085_4581" style="mask-type:luminance" maskUnits="userSpaceOnUse" x="13" y="35" width="74" height="58">
<path d="M13.2812 35.1562H86.7188V92.1875H13.2812V35.1562Z" fill="white"/>
</mask>
<g mask="url(#mask6_1085_4581)">
<mask id="mask7_1085_4581" style="mask-type:luminance" maskUnits="userSpaceOnUse" x="2" y="8" width="96" height="84">
<path d="M97.0578 17.0593L88.5039 32.0312L86.0961 36.3101H80.3227L72.9398 50.2687C75.607 61.9444 69.1008 73.764 57.807 77.753L50 91.9241L42.2453 77.7523L41.443 77.4866C30.5633 73.2054 24.4477 61.6116 27.0602 50.2132L19.732 36.3093H13.9586L11.4961 32.0312L2.94141 17.0593H27.5391L31.5523 25.028L31.7656 25.1343L31.818 25.0272C32.5469 15.5546 40.4453 8.23975 49.9453 8.23975C59.4484 8.23975 67.3461 15.5546 68.0758 25.0272L67.9688 25.1343L67.9141 25.0272L72.4609 17.0585L97.0578 17.0593Z" fill="white"/>
</mask>
<g mask="url(#mask7_1085_4581)">
<path d="M86.386 35.7627L86.0751 36.3096H80.2673L72.9251 50.2408L50.0001 91.9244L27.0751 50.2283L19.7478 36.3096H13.9345L13.6353 35.7752H19.7478L20.0321 36.3096L27.0751 49.6939L50.0001 91.39L72.9251 49.7064L80.2735 35.7627" fill="#263238" fill-opacity="0.2"/>
</g>
</g>
<mask id="mask8_1085_4581" style="mask-type:luminance" maskUnits="userSpaceOnUse" x="40" y="19" width="20" height="46">
<path d="M40.625 19.5312H59.375V64.8438H40.625V19.5312Z" fill="white"/>
</mask>
<g mask="url(#mask8_1085_4581)">
<mask id="mask9_1085_4581" style="mask-type:luminance" maskUnits="userSpaceOnUse" x="2" y="8" width="96" height="84">
<path d="M97.0578 17.0593L88.5039 32.0312L86.0961 36.3101H80.3227L72.9398 50.2687C75.607 61.9444 69.1008 73.764 57.807 77.753L50 91.9241L42.2453 77.7523L41.443 77.4866C30.5633 73.2054 24.4477 61.6116 27.0602 50.2132L19.732 36.3093H13.9586L11.4961 32.0312L2.94141 17.0593H27.5391L31.5523 25.028L31.7656 25.1343L31.818 25.0272C32.5469 15.5546 40.4453 8.23975 49.9453 8.23975C59.4484 8.23975 67.3461 15.5546 68.0758 25.0272L67.9688 25.1343L67.9141 25.0272L72.4609 17.0585L97.0578 17.0593Z" fill="white"/>
</mask>
<g mask="url(#mask9_1085_4581)">
<path d="M59.0915 55.5598C59.0915 60.5832 55.0204 64.6512 50.0001 64.6512C44.9798 64.6512 40.9087 60.5832 40.9087 55.5598C40.9087 50.5394 44.9798 46.4684 50.0001 46.4684C55.0204 46.4684 59.0915 50.5394 59.0915 55.5598ZM58.0204 27.752C58.0204 32.1832 54.4313 35.7754 50.0001 35.7754C45.5688 35.7754 41.9798 32.1832 41.9798 27.752C41.9798 23.3238 45.5688 19.7324 50.0001 19.7324C54.4313 19.7324 58.0204 23.3238 58.0204 27.752Z" fill="white"/>
</g>
</g>
<mask id="mask10_1085_4581" style="mask-type:luminance" maskUnits="userSpaceOnUse" x="25" y="7" width="50" height="73">
<path d="M25.7812 7.8125H74.2188V79.6875H25.7812V7.8125Z" fill="white"/>
</mask>
<g mask="url(#mask10_1085_4581)">
<mask id="mask11_1085_4581" style="mask-type:luminance" maskUnits="userSpaceOnUse" x="2" y="8" width="96" height="84">
<path d="M97.0578 17.0593L88.5039 32.0312L86.0961 36.3101H80.3227L72.9398 50.2687C75.607 61.9444 69.1008 73.764 57.807 77.753L50 91.9241L42.2453 77.7523L41.443 77.4866C30.5633 73.2054 24.4477 61.6116 27.0602 50.2132L19.732 36.3093H13.9586L11.4961 32.0312L2.94141 17.0593H27.5391L31.5523 25.028L31.7656 25.1343L31.818 25.0272C32.5469 15.5546 40.4453 8.23975 49.9453 8.23975C59.4484 8.23975 67.3461 15.5546 68.0758 25.0272L67.9688 25.1343L67.9141 25.0272L72.4609 17.0585L97.0578 17.0593Z" fill="white"/>
</mask>
<g mask="url(#mask11_1085_4581)">
<path d="M72.9394 50.2675C71.7523 45.1521 68.8925 40.5789 64.8129 37.2722C66.9896 34.233 68.1767 30.5967 68.2124 26.8585C68.2481 23.1203 67.1308 19.462 65.0125 16.3817C62.8942 13.3015 59.878 10.949 56.3746 9.64463C52.8712 8.34029 49.0509 8.1475 45.434 9.09252C41.8178 10.0381 38.5807 12.075 36.1633 14.9258C33.7459 17.7767 32.2656 21.3032 31.9238 25.0253C31.5042 29.367 32.6624 33.7146 35.1863 37.2722C31.1095 40.5576 28.2489 45.1123 27.0598 50.2113C26.6568 51.9647 26.4591 53.759 26.4707 55.5581C26.4707 65.5074 32.6746 74.0613 41.4426 77.4855C44.1706 78.5468 47.0724 79.0913 49.9996 79.091C53.5444 79.103 57.0458 78.3122 60.2413 76.7778C63.4368 75.2435 66.2433 73.0054 68.4504 70.2316C70.6569 67.4585 72.207 64.2219 72.9845 60.7644C73.7619 57.3069 73.7465 53.7182 72.9394 50.2675ZM49.9996 20.2644C54.1348 20.2644 57.4855 23.6183 57.4855 27.7503C57.4855 31.8855 54.1348 35.2394 49.9996 35.2394C45.8644 35.2394 42.5137 31.8855 42.5137 27.7503C42.5137 23.6183 45.8644 20.2644 49.9996 20.2644ZM49.9996 64.1159C45.2941 64.1159 41.4426 60.2644 41.4426 55.5581C41.4483 53.9599 41.9012 52.3952 42.75 51.0411C43.5989 49.6869 44.8098 48.5973 46.2457 47.8956C47.6817 47.1952 49.2851 46.9106 50.8745 47.0739C52.4639 47.2373 53.9759 47.842 55.2394 48.8199C56.2707 49.6147 57.106 50.6354 57.681 51.8035C58.2561 52.9717 58.5556 54.2561 58.5566 55.5581C58.5566 60.2855 54.7238 64.1159 49.9996 64.1159Z" fill="#4285F4"/>
</g>
</g>
<mask id="mask12_1085_4581" style="mask-type:luminance" maskUnits="userSpaceOnUse" x="25" y="7" width="50" height="50">
<path d="M25.7812 7.8125H74.2188V56.25H25.7812V7.8125Z" fill="white"/>
</mask>
<g mask="url(#mask12_1085_4581)">
<mask id="mask13_1085_4581" style="mask-type:luminance" maskUnits="userSpaceOnUse" x="2" y="8" width="96" height="84">
<path d="M97.0578 17.0593L88.5039 32.0312L86.0961 36.3101H80.3227L72.9398 50.2687C75.607 61.9444 69.1008 73.764 57.807 77.753L50 91.9241L42.2453 77.7523L41.443 77.4866C30.5633 73.2054 24.4477 61.6116 27.0602 50.2132L19.732 36.3093H13.9586L11.4961 32.0312L2.94141 17.0593H27.5391L31.5523 25.028L31.7656 25.1343L31.818 25.0272C32.5469 15.5546 40.4453 8.23975 49.9453 8.23975C59.4484 8.23975 67.3461 15.5546 68.0758 25.0272L67.9688 25.1343L67.9141 25.0272L72.4609 17.0585L97.0578 17.0593Z" fill="white"/>
</mask>
<g mask="url(#mask13_1085_4581)">
<path d="M68.1816 26.684V26.9527C68.0324 17.0309 59.9449 9.03555 49.9996 9.03555C40.0543 9.03555 31.9605 17.0316 31.8176 26.9527V26.684C31.8176 16.641 39.9566 8.50195 49.9996 8.50195C60.0426 8.50195 68.1816 16.6402 68.1816 26.684ZM34.973 37.4605C29.7848 41.7637 26.4707 48.2793 26.4707 55.5605V55.8293C26.5496 48.5449 29.9465 42.0598 35.2074 37.7965L35.4551 37.598L35.2074 37.2777L34.973 37.491V37.4605ZM65.0262 37.4605L64.7918 37.2621L64.5441 37.598L64.7918 37.8145C70.059 42.0902 73.4559 48.5629 73.5285 55.8355V55.5668C73.5285 48.2941 70.2145 41.7699 65.0262 37.491V37.4605Z" fill="white" fill-opacity="0.2"/>
</g>
</g>
<mask id="mask14_1085_4581" style="mask-type:luminance" maskUnits="userSpaceOnUse" x="25" y="25" width="50" height="55">
<path d="M25.7812 25.7812H74.2188V79.6875H25.7812V25.7812Z" fill="white"/>
</mask>
<g mask="url(#mask14_1085_4581)">
<mask id="mask15_1085_4581" style="mask-type:luminance" maskUnits="userSpaceOnUse" x="2" y="8" width="96" height="84">
<path d="M97.0578 17.0593L88.5039 32.0312L86.0961 36.3101H80.3227L72.9398 50.2687C75.607 61.9444 69.1008 73.764 57.807 77.753L50 91.9241L42.2453 77.7523L41.443 77.4866C30.5633 73.2054 24.4477 61.6116 27.0602 50.2132L19.732 36.3093H13.9586L11.4961 32.0312L2.94141 17.0593H27.5391L31.5523 25.028L31.7656 25.1343L31.818 25.0272C32.5469 15.5546 40.4453 8.23975 49.9453 8.23975C59.4484 8.23975 67.3461 15.5546 68.0758 25.0272L67.9688 25.1343L67.9141 25.0272L72.4609 17.0585L97.0578 17.0593Z" fill="white"/>
</mask>
<g mask="url(#mask15_1085_4581)">
<path d="M73.5285 55.2949V55.5605C73.5285 68.5551 62.9941 79.0926 49.9996 79.0926C37.0051 79.0926 26.4707 68.5551 26.4707 55.5613V55.2957C26.6137 68.1668 37.0965 78.5551 49.9996 78.5551C62.9027 78.5551 73.3855 68.1676 73.5285 55.2949ZM31.8176 26.416V26.6848C31.8107 30.6204 33.0878 34.4508 35.4551 37.5949C35.541 37.5402 35.6262 37.4668 35.7207 37.4027C33.2451 34.2703 31.873 30.4082 31.8176 26.416ZM68.1816 26.416C68.1262 30.4082 66.7541 34.2703 64.2785 37.4027C64.373 37.4668 64.4582 37.534 64.5441 37.598C66.827 34.6043 68.1816 30.8082 68.1816 26.6918V26.416Z" fill="#263238" fill-opacity="0.2"/>
</g>
</g>
<path d="M97.0578 17.0593L88.5039 32.0312L86.0961 36.3101H80.268L72.9398 50.2687C75.607 61.9444 69.1008 73.764 57.807 77.753L50 91.9241L42.2453 77.7523L41.443 77.4866C30.5633 73.2054 24.4477 61.6116 27.0602 50.2132L19.732 36.3093H13.9586L11.4961 32.0312L2.94141 17.0593H27.5391L31.5523 25.028L31.7656 25.1343L31.818 25.0272C32.5469 15.5546 40.4453 8.23975 49.9453 8.23975C59.4484 8.23975 67.3461 15.5546 68.0758 25.0272L67.9688 25.1343L67.9141 25.0272L72.4609 17.0585L97.0578 17.0593Z" fill="url(#paint0_radial_1085_4581)"/>
<defs>
<radialGradient id="paint0_radial_1085_4581" cx="0" cy="0" r="1" gradientUnits="userSpaceOnUse" gradientTransform="translate(4.08399 18.0415) rotate(0.277) scale(99.1455 99.1456)">
<stop stop-color="white" stop-opacity="0.102"/>
<stop offset="1" stop-color="white" stop-opacity="0"/>
</radialGradient>
</defs>
</svg>
