<svg width="100" height="100" viewBox="0 0 100 100" fill="none" xmlns="http://www.w3.org/2000/svg">
<g clip-path="url(#clip0_1085_4655)">
<path d="M50.1953 98.0807C51.33 98.0803 52.4405 97.7532 53.3941 97.1383C54.3478 96.5234 55.1041 95.6469 55.5727 94.6135L55.7133 94.3666L76.3359 56.1986C76.9158 55.1929 77.2205 54.0521 77.2194 52.8912C77.2183 51.7302 76.9115 50.59 76.3297 49.5854C75.7464 48.5817 74.9097 47.749 73.9033 47.1705C72.8969 46.592 71.7561 46.2881 70.5953 46.2893C67.6625 46.2893 65.6734 47.733 64.3242 50.8088L50.1828 77.1729L36.0531 50.8486C34.7531 47.733 32.7023 46.3018 29.7672 46.3018C28.6081 46.301 27.4692 46.6051 26.4648 47.1835C25.4604 47.7619 24.6257 48.5942 24.0445 49.5971C23.4632 50.5993 23.1555 51.7368 23.1523 52.8955C23.1492 54.0541 23.4506 55.1932 24.0266 56.1986L44.675 94.4182L44.7664 94.59C45.2274 95.6455 45.9869 96.5431 46.9515 97.1725C47.9161 97.8018 49.0436 98.1354 50.1953 98.1322M50.2078 41.3939C51.6064 41.3939 52.9477 40.8384 53.9367 39.8494C54.9257 38.8604 55.4813 37.5191 55.4813 36.1205V34.8205C55.4889 33.4956 56.0205 32.2275 56.9599 31.2931C57.8994 30.3588 59.1703 29.8342 60.4953 29.8338H87.5063C89.1924 29.8359 90.8624 29.5057 92.4208 28.8619C93.9791 28.2181 95.3953 27.2734 96.5883 26.0818C97.7812 24.8902 98.7276 23.4751 99.3732 21.9175C100.019 20.3599 100.351 18.6902 100.351 17.0041V7.12051C100.343 6.03522 99.9779 4.98271 99.3121 4.12559C98.6463 3.26847 97.7168 2.65443 96.6672 2.37832C95.6164 2.10372 94.5044 2.18297 93.5032 2.6038C92.5019 3.02463 91.6672 3.7636 91.1281 4.70645C90.719 5.44097 90.505 6.26804 90.5062 7.10879V10.2393C90.4999 10.8978 90.3638 11.5486 90.1056 12.1544C89.8475 12.7602 89.4723 13.3092 89.0017 13.7698C88.5311 14.2305 87.9743 14.5938 87.3631 14.839C86.7519 15.0842 86.0983 15.2064 85.4398 15.1986H61.0391C58.5217 15.21 56.0913 16.1207 54.1864 17.7664C52.2815 19.4122 51.0275 21.6846 50.6508 24.1736C50.492 25.0308 50.4053 25.8997 50.3914 26.7713H50.1688C50.1549 25.8997 50.0681 25.0308 49.9094 24.1736C49.5293 21.6875 48.2738 19.4187 46.3693 17.7761C44.4647 16.1335 42.0361 15.225 39.5211 15.2143H14.8961C13.5774 15.214 12.3119 14.6944 11.3735 13.7679C10.4351 12.8415 9.89929 11.5828 9.88203 10.2643V7.15957C9.87234 6.33525 9.6541 5.52679 9.24766 4.80957C8.71775 3.85711 7.88743 3.10686 6.88629 2.67591C5.88515 2.24496 4.7695 2.15756 3.71347 2.42734C2.65743 2.69713 1.72041 3.30893 1.04864 4.16725C0.376868 5.02558 0.00814051 6.08215 0 7.17207L0 17.0572C0.00625 24.1432 5.75859 29.8807 12.8445 29.8744H39.8563C41.1812 29.8748 42.4522 30.3995 43.3916 31.3338C44.3311 32.2681 44.8627 33.5362 44.8703 34.8611V36.1611C44.8703 37.5597 45.4259 38.9011 46.4149 39.89C47.4038 40.879 48.7451 41.4346 50.1437 41.4346H50.2078V41.3939Z" fill="#00B4F0"/>
</g>
<defs>
<clipPath id="clip0_1085_4655">
<rect width="100" height="100" fill="white"/>
</clipPath>
</defs>
</svg>
