<svg width="100" height="100" viewBox="0 0 100 100" fill="none" xmlns="http://www.w3.org/2000/svg">
<path d="M95.703 18.6719V10.0156L74.9296 22.1094V29.4062L58.3046 65.2656L49.9921 70.9922V97.25L67.8124 86.9766L95.703 18.6719ZM49.9921 52.2969L37.5311 23.2109V14.9922L37.4452 14.9453L25.0702 22.1094V29.4062L41.6874 66.8359L49.9921 62.7344V52.2969Z" fill="#1159CC"/>
<path d="M83.2422 2.75049L62.4766 14.9145L62.4609 14.9067V23.2114L49.9922 52.2974V62.0239L41.6875 66.8364L25.0703 29.4067V22.0942L37.5391 14.9145L16.7578 2.75049L4.29688 10.0161V18.938L32.3438 87.063L49.9922 97.2505V71.6567L58.3047 66.8364L58.2031 66.7739L74.9297 29.4067V22.0942L95.7031 10.0161L83.2422 2.75049Z" fill="#127EFF"/>
</svg>
