<svg width="100" height="100" viewBox="0 0 100 100" fill="none" xmlns="http://www.w3.org/2000/svg">
<g clip-path="url(#clip0_1085_4660)">
<path d="M0 0H100V100H0V0Z" fill="url(#paint0_linear_1085_4660)"/>
<path d="M47.7971 25.0389C35.3601 28.2367 24.6675 31.5492 22.8435 43.547C22.5473 45.5807 22.6407 47.6011 23.3345 49.5379C24.1155 51.5393 25.8625 52.7161 28.5754 53.0684C29.6396 53.2125 33.524 53.932 33.4302 52.2122C33.3306 51.633 32.9754 50.991 32.6924 50.3226C32.2413 49.3365 32.2768 48.273 32.2799 47.281C32.4351 43.7991 33.3504 40.8491 35.0298 38.4342C36.3528 36.5561 38.0402 35.0315 40.0895 33.8565L41.1798 80.0748C41.1798 80.7529 41.6273 81.1133 42.5089 81.1133H52.8838C53.6317 81.1133 53.9238 80.8529 54.1703 80.1918C60.8292 62.4215 67.3868 44.6123 74.0701 26.852C74.1586 25.952 73.2315 25.6125 72.5729 25.3836H67.699C66.8417 25.3545 66.3379 25.851 66.1629 26.3649L54.1738 61.2465L53.4196 27.9517V25.8031L52.0307 25.1736H50.6418C49.6965 25.0799 48.7471 25.0335 47.7971 25.0347V25.0389Z" fill="url(#paint1_linear_1085_4660)"/>
<path d="M42.5931 79.7263L41.448 31.1816C38.117 32.4307 35.5146 34.3854 33.6408 37.0458C31.7903 39.706 30.8651 43.0139 30.8651 46.9697C30.8651 48.8896 31.1311 50.3354 31.663 51.3071C31.7788 51.4923 31.8366 51.6544 31.8366 51.7932C28.0429 51.7932 25.6718 50.5787 24.7232 48.1495C24.3991 47.2706 24.2371 46.1835 24.2371 44.8881C24.2371 42.5055 24.9774 40.2154 26.4582 38.0177C27.9617 35.7969 29.8933 33.8305 32.253 32.1184C37.6429 28.325 43.2872 26.4282 49.1858 26.4282C50.1573 26.4282 51.1057 26.4745 52.0309 26.5671L52.6559 70.2889L67.6106 26.7754H72.5727L52.8281 79.7263H42.5931Z" fill="url(#paint2_linear_1085_4660)"/>
<path d="M42.5938 78.3351L41.4485 29.7905C38.1173 31.0395 35.5149 32.9942 33.6415 35.6546C31.791 38.315 30.8657 41.6231 30.8657 45.5788C30.8657 47.4991 31.1316 48.945 31.6634 49.9163C31.7795 50.1012 31.8376 50.2632 31.8376 50.4022C28.0433 50.4022 25.672 49.1877 24.7235 46.7585C24.3996 45.8799 24.2376 44.7926 24.2376 43.4968C24.2376 41.114 24.9779 38.8239 26.4587 36.6265C27.9623 34.4056 29.8938 32.4395 32.2532 30.728C37.6438 26.9338 43.2881 25.0366 49.186 25.0366C50.1579 25.0366 51.1063 25.0832 52.0313 25.1765L52.6563 68.8983L67.6118 25.3851H72.5735L52.829 78.3351H42.5938Z" fill="white"/>
</g>
<defs>
<linearGradient id="paint0_linear_1085_4660" x1="-2.36582e-05" y1="0.000282687" x2="-2.36582e-05" y2="99.2298" gradientUnits="userSpaceOnUse">
<stop stop-color="#A56DE2"/>
<stop offset="1" stop-color="#7239B3"/>
</linearGradient>
<linearGradient id="paint1_linear_1085_4660" x1="52.0311" y1="25.1781" x2="52.0311" y2="82.0477" gradientUnits="userSpaceOnUse">
<stop stop-color="#8B58C9"/>
<stop offset="1" stop-color="#743FB3"/>
</linearGradient>
<linearGradient id="paint2_linear_1085_4660" x1="52.0309" y1="25.1796" x2="52.0309" y2="80.4207" gradientUnits="userSpaceOnUse">
<stop stop-color="#7548B2"/>
<stop offset="1" stop-color="#6639A4"/>
</linearGradient>
<clipPath id="clip0_1085_4660">
<rect width="100" height="100" fill="white"/>
</clipPath>
</defs>
</svg>
