<svg width="100" height="100" viewBox="0 0 100 100" fill="none" xmlns="http://www.w3.org/2000/svg">
<g clip-path="url(#clip0_1085_4684)">
<path d="M13.186 3.35743e-05H86.8141C88.5468 -0.00388075 90.2632 0.334512 91.8648 0.995781C93.4663 1.65705 94.9215 2.62817 96.1467 3.85338C97.3719 5.07858 98.343 6.53375 99.0043 8.1353C99.6656 9.73686 100.004 11.4533 100 13.186V86.8141C100.004 88.5468 99.6656 90.2632 99.0043 91.8648C98.343 93.4663 97.3719 94.9215 96.1467 96.1467C94.9215 97.3719 93.4663 98.343 91.8648 99.0043C90.2632 99.6656 88.5468 100.004 86.8141 100H13.186C11.4533 100.004 9.73686 99.6656 8.1353 99.0043C6.53375 98.343 5.07858 97.3719 3.85338 96.1467C2.62817 94.9215 1.65705 93.4663 0.995781 91.8648C0.334512 90.2632 -0.00388075 88.5468 3.35743e-05 86.8141V13.186C-0.00388075 11.4533 0.334512 9.73686 0.995781 8.1353C1.65705 6.53375 2.62817 5.07858 3.85338 3.85338C5.07858 2.62817 6.53375 1.65705 8.1353 0.995781C9.73686 0.334512 11.4533 -0.00388075 13.186 3.35743e-05Z" fill="#782A91"/>
<path d="M0 20.5547V25.2656L20.7656 72.4289L23.7367 79.1758H29.5688L29.5578 79.0336C29.5643 76.3405 30.3761 73.7109 31.8888 71.4828C33.4016 69.2548 35.5462 67.5301 38.0469 66.5305L53.3313 33.082L65.1945 49.7508L51.7649 68.7164C53.2263 69.9501 54.4089 71.4802 55.2344 73.2054C56.0599 74.9305 56.5094 76.8114 56.5531 78.7234H62.6391L73.4953 63.3922L80.7094 53.2047L99.8438 26.1875V20.5547H85.4734L74.1164 37.1523L62.7305 20.5555H44.4156L44.4477 20.6008L28.707 55.0477L13.5195 20.5555L0 20.5547ZM85.7719 56.6477L77.2188 68.9187L83.825 78.7234H99.8422V76.4203L85.7719 56.6477ZM43.0594 70.6086C38.4063 70.6086 34.6336 74.3805 34.6336 79.0336C34.6336 83.6867 38.4063 87.4602 43.0594 87.4602C47.7125 87.4602 51.4852 83.6867 51.4852 79.0336C51.4852 74.3805 47.7133 70.6094 43.0594 70.6086Z" fill="white"/>
</g>
<defs>
<clipPath id="clip0_1085_4684">
<rect width="100" height="100" fill="white"/>
</clipPath>
</defs>
</svg>
