<svg width="100" height="100" viewBox="0 0 100 100" fill="none" xmlns="http://www.w3.org/2000/svg">
<g clip-path="url(#clip0_867_22514)">
<path d="M49.9794 84.2324C47.8881 84.2324 45.8824 85.0632 44.4036 86.542C42.9248 88.0208 42.094 90.0265 42.094 92.1178C42.094 94.2092 42.9248 96.2149 44.4036 97.6937C45.8824 99.1725 47.8881 100.003 49.9794 100.003C52.0708 100.003 54.0764 99.1725 55.5552 97.6937C57.034 96.2149 57.8648 94.2092 57.8648 92.1178C57.8648 90.0265 57.034 88.0208 55.5552 86.542C54.0764 85.0632 52.0708 84.2324 49.9794 84.2324ZM49.9794 95.9241C49.2132 95.924 48.4643 95.6961 47.828 95.2692C47.1917 94.8423 46.6967 94.2359 46.406 93.5269C46.1154 92.818 46.0421 92.0386 46.1956 91.2879C46.349 90.5372 46.7223 89.8491 47.2679 89.3112C47.8136 88.7732 48.5068 88.4097 49.2596 88.2668C50.0124 88.124 50.7907 88.2082 51.4954 88.5089C52.2002 88.8096 52.7996 89.313 53.2175 89.9553C53.6353 90.5976 53.8527 91.3496 53.8419 92.1158C53.842 92.6205 53.7417 93.1202 53.5469 93.5858C53.3522 94.0514 53.0668 94.4736 52.7074 94.828C52.348 95.1823 51.9218 95.4617 51.4534 95.6499C50.9851 95.8381 50.4841 95.9313 49.9794 95.9241Z" fill="#4285F4"/>
<path fill-rule="evenodd" clip-rule="evenodd" d="M90.3624 58.9349C91.3499 59.0933 92.2457 59.6016 92.8832 60.3683C93.4521 61.2034 93.6903 62.2202 93.5517 63.2211C93.4131 64.222 92.9076 65.1358 92.1332 65.7849L57.7999 91.1266C57.6259 89.7516 57.0926 88.4468 56.2535 87.3436C55.4144 86.2405 54.2994 85.3781 53.0208 84.8433L87.5207 59.5099C88.3673 58.9811 89.3768 58.7768 90.3624 58.9349Z" fill="#669DF6"/>
<path fill-rule="evenodd" clip-rule="evenodd" d="M42.1751 91.0076L7.9376 65.7326C7.13938 65.1155 6.6063 64.2175 6.44684 63.2213C6.28738 62.225 6.51353 61.2055 7.07926 60.3701C7.71132 59.5929 8.60752 59.0758 9.59669 58.9174C10.5859 58.7591 11.5987 58.9707 12.4418 59.5118L46.9418 84.8451C45.6817 85.3717 44.58 86.2165 43.7445 87.2967C42.9089 88.377 42.3681 89.6556 42.1751 91.0076Z" fill="#AECBFA"/>
<path d="M17.8044 18.6443C16.7424 18.6303 15.7278 18.2021 14.9768 17.4511C14.2257 16.7001 13.7976 15.6855 13.7836 14.6235V4.54013C13.7174 3.96923 13.7728 3.3908 13.946 2.84281C14.1193 2.29482 14.4065 1.78967 14.7887 1.36053C15.171 0.931393 15.6398 0.587971 16.1642 0.352817C16.6886 0.117662 17.2568 -0.00390625 17.8315 -0.00390625C18.4062 -0.00390625 18.9744 0.117662 19.4989 0.352817C20.0233 0.587971 20.492 0.931393 20.8743 1.36053C21.2566 1.78967 21.5438 2.29482 21.717 2.84281C21.8902 3.3908 21.9456 3.96923 21.8794 4.54013V14.6235C21.8652 15.6948 21.4296 16.7174 20.6669 17.47C19.9042 18.2225 18.8759 18.6444 17.8044 18.6443ZM17.6961 54.3068C18.7769 54.3068 19.8133 53.8775 20.5776 53.1133C21.3418 52.349 21.7711 51.3126 21.7711 50.2318C21.7711 49.151 21.3418 48.1145 20.5776 47.3503C19.8133 46.5861 18.7769 46.1568 17.6961 46.1568C16.6153 46.1568 15.5788 46.5861 14.8146 47.3503C14.0504 48.1145 13.6211 49.151 13.6211 50.2318C13.6211 51.3126 14.0504 52.349 14.8146 53.1133C15.5788 53.8775 16.6153 54.3068 17.6961 54.3068ZM17.6961 42.4568C18.2312 42.4568 18.7611 42.3514 19.2555 42.1466C19.7499 41.9418 20.1992 41.6417 20.5776 41.2633C20.956 40.8849 21.2561 40.4356 21.4609 39.9412C21.6657 39.4468 21.7711 38.9169 21.7711 38.3818C21.7711 37.8467 21.6657 37.3168 21.4609 36.8224C21.2561 36.328 20.956 35.8787 20.5776 35.5003C20.1992 35.1219 19.7499 34.8218 19.2555 34.617C18.7611 34.4122 18.2312 34.3068 17.6961 34.3068C16.6153 34.3068 15.5788 34.7361 14.8146 35.5003C14.0504 36.2645 13.6211 37.301 13.6211 38.3818C13.6211 39.4626 14.0504 40.499 14.8146 41.2633C15.5788 42.0275 16.6153 42.4568 17.6961 42.4568ZM17.6961 30.5485C18.7769 30.5485 19.8133 30.1191 20.5776 29.3549C21.3418 28.5907 21.7711 27.5542 21.7711 26.4735C21.7711 25.3927 21.3418 24.3562 20.5776 23.592C19.8133 22.8278 18.7769 22.3985 17.6961 22.3985C16.6153 22.3985 15.5788 22.8278 14.8146 23.592C14.0504 24.3562 13.6211 25.3927 13.6211 26.4735C13.6211 27.5542 14.0504 28.5907 14.8146 29.3549C15.5788 30.1191 16.6153 30.5485 17.6961 30.5485Z" fill="#AECBFA"/>
<path d="M82.1585 30.4469C81.0865 30.4327 80.0632 29.9965 79.3106 29.2329C78.5579 28.4694 78.1365 27.4399 78.1377 26.3678V16.2844C78.1377 15.218 78.5613 14.1953 79.3154 13.4413C80.0694 12.6872 81.0921 12.2636 82.1585 12.2636C83.2249 12.2636 84.2476 12.6872 85.0017 13.4413C85.7557 14.1953 86.1794 15.218 86.1794 16.2844V26.3678C86.1877 26.9008 86.0898 27.4302 85.8914 27.9251C85.693 28.4199 85.398 28.8703 85.0238 29.25C84.6495 29.6296 84.2034 29.931 83.7115 30.1365C83.2196 30.342 82.6917 30.4476 82.1585 30.4469ZM82.2627 54.3636C82.7978 54.3636 83.3277 54.2582 83.8221 54.0534C84.3165 53.8486 84.7658 53.5485 85.1442 53.1701C85.5226 52.7917 85.8227 52.3424 86.0275 51.848C86.2323 51.3536 86.3377 50.8237 86.3377 50.2886C86.3377 49.7535 86.2323 49.2236 86.0275 48.7292C85.8227 48.2348 85.5226 47.7855 85.1442 47.4071C84.7658 47.0287 84.3165 46.7286 83.8221 46.5238C83.3277 46.319 82.7978 46.2136 82.2627 46.2136C81.1819 46.2136 80.1454 46.6429 79.3812 47.4071C78.617 48.1714 78.1877 49.2078 78.1877 50.2886C78.1877 51.3694 78.617 52.4059 79.3812 53.1701C80.1454 53.9343 81.1819 54.3636 82.2627 54.3636ZM82.2627 42.2969C83.3435 42.2969 84.38 41.8676 85.1442 41.1034C85.9084 40.3392 86.3377 39.3027 86.3377 38.2219C86.3377 37.1412 85.9084 36.1047 85.1442 35.3405C84.38 34.5763 83.3435 34.1469 82.2627 34.1469C81.1819 34.1469 80.1454 34.5763 79.3812 35.3405C78.617 36.1047 78.1877 37.1412 78.1877 38.2219C78.1877 39.3027 78.617 40.3392 79.3812 41.1034C80.1454 41.8676 81.1819 42.2969 82.2627 42.2969ZM82.2627 8.61777C82.7978 8.61777 83.3277 8.51237 83.8221 8.30758C84.3165 8.10279 84.7658 7.80263 85.1442 7.42423C85.5226 7.04583 85.8227 6.59661 86.0275 6.10221C86.2323 5.60781 86.3377 5.07791 86.3377 4.54277C86.3377 4.00764 86.2323 3.47774 86.0275 2.98334C85.8227 2.48894 85.5226 2.03971 85.1442 1.66131C84.7658 1.28291 84.3165 0.982752 83.8221 0.777964C83.3277 0.573176 82.7978 0.467773 82.2627 0.467773C81.1819 0.467773 80.1454 0.897103 79.3812 1.66131C78.617 2.42552 78.1877 3.46202 78.1877 4.54277C78.1877 5.62353 78.617 6.66002 79.3812 7.42423C80.1454 8.18844 81.1819 8.61777 82.2627 8.61777Z" fill="#4285F4"/>
<path d="M49.9791 66.3214C48.917 66.3074 47.9024 65.8793 47.1514 65.1283C46.4004 64.3772 45.9722 63.3626 45.9582 62.3006V52.0548C46.0733 51.0619 46.5492 50.1459 47.2956 49.481C48.0419 48.8162 49.0066 48.4488 50.0061 48.4488C51.0057 48.4488 51.9703 48.8162 52.7167 49.481C53.463 50.1459 53.939 51.0619 54.054 52.0548V62.1923C54.0624 62.7323 53.963 63.2685 53.7618 63.7697C53.5607 64.2708 53.2617 64.7269 52.8824 65.1113C52.503 65.4957 52.0509 65.8007 51.5524 66.0084C51.054 66.2162 50.5191 66.3226 49.9791 66.3214ZM49.9791 78.1756C51.0598 78.1756 52.0963 77.7463 52.8605 76.9821C53.6247 76.2179 54.054 75.1814 54.054 74.1006C54.054 73.0199 53.6247 71.9834 52.8605 71.2192C52.0963 70.4549 51.0598 70.0256 49.9791 70.0256C48.8983 70.0256 47.8618 70.4549 47.0976 71.2192C46.3334 71.9834 45.9041 73.0199 45.9041 74.1006C45.9041 75.1814 46.3334 76.2179 47.0976 76.9821C47.8618 77.7463 48.8983 78.1756 49.9791 78.1756ZM49.9791 44.334C51.0598 44.334 52.0963 43.9046 52.8605 43.1404C53.6247 42.3762 54.054 41.3397 54.054 40.2589C54.054 39.1782 53.6247 38.1417 52.8605 37.3775C52.0963 36.6133 51.0598 36.184 49.9791 36.184C48.8983 36.184 47.8618 36.6133 47.0976 37.3775C46.3334 38.1417 45.9041 39.1782 45.9041 40.2589C45.9041 41.3397 46.3334 42.3762 47.0976 43.1404C47.8618 43.9046 48.8983 44.334 49.9791 44.334ZM49.9791 32.4298C51.0598 32.4298 52.0963 32.0005 52.8605 31.2362C53.6247 30.472 54.054 29.4355 54.054 28.3548C54.054 27.274 53.6247 26.2375 52.8605 25.4733C52.0963 24.7091 51.0598 24.2798 49.9791 24.2798C48.8983 24.2798 47.8618 24.7091 47.0976 25.4733C46.3334 26.2375 45.9041 27.274 45.9041 28.3548C45.9041 29.4355 46.3334 30.472 47.0976 31.2362C47.8618 32.0005 48.8983 32.4298 49.9791 32.4298Z" fill="#669DF6"/>
<path d="M66.0669 42.4041C65.0048 42.3901 63.9903 41.962 63.2392 41.2109C62.4882 40.4599 62.0601 39.4453 62.046 38.3833V28.3C61.9432 27.4384 62.1183 26.5665 62.5459 25.8115C62.9735 25.0564 63.6311 24.4578 64.4229 24.1028C65.2147 23.7479 66.0992 23.6552 66.9473 23.8383C67.7955 24.0215 68.5629 24.4708 69.1377 25.1208C69.5195 25.5501 69.8064 26.0552 69.9794 26.6031C70.1525 27.151 70.2078 27.7292 70.1419 28.3V38.3833C70.1276 39.4546 69.692 40.4773 68.9293 41.2298C68.1667 41.9823 67.1383 42.4042 66.0669 42.4041ZM66.121 20.4708C66.6562 20.4708 67.1861 20.3654 67.6805 20.1606C68.1749 19.9558 68.6241 19.6557 69.0025 19.2773C69.3809 18.8989 69.6811 18.4496 69.8858 17.9552C70.0906 17.4608 70.196 16.9309 70.196 16.3958C70.196 15.8607 70.0906 15.3308 69.8858 14.8364C69.6811 14.342 69.3809 13.8927 69.0025 13.5143C68.6241 13.1359 68.1749 12.8358 67.6805 12.631C67.1861 12.4262 66.6562 12.3208 66.121 12.3208C65.0403 12.3208 64.0038 12.7501 63.2396 13.5143C62.4754 14.2786 62.046 15.315 62.046 16.3958C62.046 17.4766 62.4754 18.513 63.2396 19.2773C64.0038 20.0415 65.0403 20.4708 66.121 20.4708ZM66.121 66.0541C67.2018 66.0541 68.2383 65.6248 69.0025 64.8606C69.7667 64.0964 70.196 63.0599 70.196 61.9791C70.196 60.8984 69.7667 59.8619 69.0025 59.0977C68.2383 58.3335 67.2018 57.9041 66.121 57.9041C65.0403 57.9041 64.0038 58.3335 63.2396 59.0977C62.4754 59.8619 62.046 60.8984 62.046 61.9791C62.046 63.0599 62.4754 64.0964 63.2396 64.8606C64.0038 65.6248 65.0403 66.0541 66.121 66.0541ZM66.121 54.15C67.2018 54.15 68.2383 53.7206 69.0025 52.9564C69.7667 52.1922 70.196 51.1557 70.196 50.075C70.196 48.9942 69.7667 47.9577 69.0025 47.1935C68.2383 46.4293 67.2018 46 66.121 46C65.0403 46 64.0038 46.4293 63.2396 47.1935C62.4754 47.9577 62.046 48.9942 62.046 50.075C62.046 51.1557 62.4754 52.1922 63.2396 52.9564C64.0038 53.7206 65.0403 54.15 66.121 54.15Z" fill="#4285F4"/>
<path d="M33.8373 66.0544C34.9181 66.0544 35.9546 65.6251 36.7188 64.8609C37.483 64.0966 37.9123 63.0602 37.9123 61.9794C37.9123 60.8986 37.483 59.8621 36.7188 59.0979C35.9546 58.3337 34.9181 57.9044 33.8373 57.9044C32.7566 57.9044 31.7201 58.3337 30.9559 59.0979C30.1917 59.8621 29.7623 60.8986 29.7623 61.9794C29.7623 63.0602 30.1917 64.0966 30.9559 64.8609C31.7201 65.6251 32.7566 66.0544 33.8373 66.0544ZM33.8373 32.4294C34.9181 32.4294 35.9546 32.0001 36.7188 31.2359C37.483 30.4716 37.9123 29.4352 37.9123 28.3544C37.9123 27.2736 37.483 26.2371 36.7188 25.4729C35.9546 24.7087 34.9181 24.2794 33.8373 24.2794C32.7566 24.2794 31.7201 24.7087 30.9559 25.4729C30.1917 26.2371 29.7623 27.2736 29.7623 28.3544C29.7623 29.4352 30.1917 30.4716 30.9559 31.2359C31.7201 32.0001 32.7566 32.4294 33.8373 32.4294ZM33.8373 20.4711C34.9186 20.4711 35.9557 20.0415 36.7203 19.2769C37.4849 18.5123 37.9144 17.4753 37.9144 16.394C37.9144 15.3127 37.4849 14.2756 36.7203 13.511C35.9557 12.7464 34.9186 12.3169 33.8373 12.3169C32.756 12.3169 31.719 12.7464 30.9544 13.511C30.1898 14.2756 29.7603 15.3127 29.7603 16.394C29.7603 17.4753 30.1898 18.5123 30.9544 19.2769C31.719 20.0415 32.756 20.4711 33.8373 20.4711ZM33.8915 54.1502C32.8376 54.151 31.8244 53.7435 31.0646 53.0132C30.3048 52.2829 29.8575 51.2866 29.8165 50.2336V40.0461C29.8165 38.9797 30.2401 37.957 30.9942 37.2029C31.7482 36.4489 32.7709 36.0252 33.8373 36.0252C34.9037 36.0252 35.9264 36.4489 36.6805 37.2029C37.4345 37.957 37.8582 38.9797 37.8582 40.0461V50.2336C37.8303 51.2722 37.4019 52.2597 36.6626 52.9897C35.9233 53.7197 34.9304 54.1355 33.8915 54.1502Z" fill="#AECBFA"/>
</g>
<defs>
<clipPath id="clip0_867_22514">
<rect width="100" height="100" fill="white"/>
</clipPath>
</defs>
</svg>
