<svg width="100" height="100" viewBox="0 0 100 100" fill="none" xmlns="http://www.w3.org/2000/svg">
<g clip-path="url(#clip0_867_14819)">
<path d="M85.8626 9.36338C73.7085 5.33838 63.2543 13.88 60.8168 21.6967C60.8168 21.6967 52.046 49.8634 48.3085 61.6134C46.5251 67.2217 42.1043 76.3967 33.7793 76.3967C27.0001 76.3967 23.5168 70.0342 22.046 66.2425L11.9376 39.2967C10.7668 36.4592 11.9918 30.7967 16.6876 29.1009C21.7043 27.3009 24.9293 31.4967 25.7626 33.7259L38.3543 65.9759C41.3543 62.1092 43.2626 55.8175 44.5043 51.3634L36.2376 29.655C32.3168 19.5259 21.946 14.9175 12.3418 18.4592C4.56264 21.3259 -2.92485 31.1425 1.14598 43.48L11.5793 70.3134C13.1626 74.38 19.4168 87.6592 33.5585 87.6592C50.5293 87.6592 56.896 73.1884 60.4293 61.7509C62.196 56.03 71.8835 25.0967 71.8835 25.0967C73.2918 20.4759 79.0085 19.1467 82.5835 20.3134C85.1043 21.13 89.6585 24.6092 88.1876 30.0009C87.9127 30.9842 80.1876 55.8717 77.3376 63.4425C75.8502 67.3925 72.0793 75.9675 63.4876 74.7759C60.871 80.5675 58.696 83.9384 55.4043 86.9634C66.121 92.0384 81.7376 86.9259 88.3126 67.0634C90.7543 59.6759 99.3293 33.0384 99.3293 33.0384C101.821 24.8592 97.3751 13.1717 85.8626 9.36338Z" fill="url(#paint0_linear_867_14819)"/>
</g>
<defs>
<linearGradient id="paint0_linear_867_14819" x1="3.16265" y1="23.4884" x2="108.979" y2="72.13" gradientUnits="userSpaceOnUse">
<stop stop-color="#40EDD8"/>
<stop offset="0.024" stop-color="#38E7E2"/>
<stop offset="0.084" stop-color="#28DAF7"/>
<stop offset="0.124" stop-color="#22D5FF"/>
<stop offset="0.36" stop-color="#1ABFFF"/>
<stop offset="0.85" stop-color="#0786FE"/>
<stop offset="0.909" stop-color="#047FFE"/>
</linearGradient>
<clipPath id="clip0_867_14819">
<rect width="100" height="100" fill="white"/>
</clipPath>
</defs>
</svg>
