<svg width="100" height="100" viewBox="0 0 100 100" fill="none" xmlns="http://www.w3.org/2000/svg">
<g clip-path="url(#clip0_867_19489)">
<path d="M50.3049 5.65625L5.97229 50.0484L50.1201 94.2556L94.4527 49.8634L50.3049 5.65625Z" fill="#019833" stroke="black" stroke-width="0.25878"/>
<path d="M50.1202 5.84134V1.95703L1.90857 50.2335H5.97239L50.1202 5.84134Z" fill="#66FE98" stroke="black" stroke-width="0.25878"/>
<path d="M50.0094 5.84134V1.95703L98.2211 50.2335H94.1572L50.0094 5.84134Z" fill="#45FE02" stroke="black" stroke-width="0.25878"/>
<path d="M50.1202 94.5147V98.399L1.90857 50.1226H5.97239L50.1202 94.5147Z" fill="#017D17" stroke="black" stroke-width="0.25878"/>
<path d="M10.8525 6.85986H41.9392L43.8331 8.75634V14.5766L42.331 16.4076H38.935V45.3126L68.193 16.4076H63.3602L61.6622 14.5766V8.42936L63.2296 6.99065H94.7081L96.2754 8.56015V14.315L25.0897 87.4275H16.9915L14.6474 86.0723V16.1461H10.7219L9.28516 14.7074V8.56015L10.8525 6.85986Z" stroke="black" stroke-width="5.17561"/>
<path d="M50.0094 94.5147V98.399L98.2211 50.1226H94.1572L50.0094 94.5147Z" fill="#005D04" stroke="black" stroke-width="0.25878"/>
<path d="M49.99 1.59912L1.59705 50.0572L49.7884 98.3133L98.1814 49.8552L49.99 1.59912Z" stroke="black" stroke-width="1.55268"/>
<path d="M42.2696 9.81811L44.0244 8.89327L42.2234 7.08984H10.8674L9.27417 8.68518V14.7197L11.0405 16.4885L11.8833 14.7197L10.775 13.6099V9.35569L11.6062 8.61582H41.5307L42.2696 9.81811Z" fill="#FEFEFE" stroke="black" stroke-width="0.25878"/>
<path d="M64.4381 8.42969L63.331 9.53834V13.6088L64.3008 14.5798H69.4244V18.5127L35.5308 52.9132V14.6284H41.1636L42.3192 13.4712V9.35221L41.2525 8.5268H11.6097L10.6399 9.49787V13.7059L11.6258 14.6931H16.7818V85.1934L17.7516 86.1645H23.6106L94.6386 12.7753V9.53834L93.5314 8.42969H64.4381Z" stroke="black" stroke-width="0.25878"/>
<path d="M16.7302 14.5767V85.2041L17.6445 86.2505L16.9275 87.6188L14.9016 85.5965V16.4077L16.7302 14.5767Z" fill="#FEFEFE" stroke="black" stroke-width="0.25878"/>
<path d="M11.6644 14.5767L11.142 16.2769H14.9298L17.0197 14.5767H11.6644Z" fill="#808080" stroke="black" stroke-width="0.25878"/>
<path d="M63.6971 16.4862L64.5284 14.7752L63.3277 13.6654V9.87358L64.7131 8.48632H93.6216L94.7299 9.96606L96.3 8.85626L94.6837 7.23779H63.6048L62.0577 8.7869V14.8677L63.6625 16.3821M38.5465 45.5804L35.5275 52.9155L69.6081 18.6965V14.6272L38.5465 45.5804Z" fill="#FEFEFE"/>
<path d="M63.6971 16.4862L64.5284 14.7752L63.3277 13.6654V9.87358L64.7131 8.48632H93.6216L94.7299 9.96606L96.3 8.85626L94.6837 7.23779H63.6048L62.0577 8.7869V14.8677L63.6625 16.3821M38.5465 45.5804L35.5275 52.9155L69.6081 18.6965V14.6272L38.5465 45.5804Z" stroke="black" stroke-width="0.25878"/>
<path d="M42.2005 9.60643L43.7026 8.62549V14.5765L41.9719 16.3095H38.6085V45.6395L35.5391 52.8985V14.5765H41.1556L42.2005 13.7264V9.60643Z" fill="#808080" stroke="black" stroke-width="0.25878"/>
<path d="M64.4381 8.42969L63.331 9.53834V13.6088L64.3008 14.5798H69.4244V18.5127L35.5308 52.9132V14.6284H41.1636L42.3192 13.4712V9.35221L41.2525 8.5268H11.6097L10.6399 9.49787V13.7059L11.6258 14.6931H16.7818V85.1934L17.7516 86.1645H23.6106L94.6385 12.7753V9.53834L93.5314 8.42969H64.4381Z" fill="#CCCCCC" stroke="black" stroke-width="0.25878"/>
<path d="M94.7298 9.63319L96.3073 8.72119V14.4423L24.7572 87.6537H17.1609L17.8866 86.2096H23.7053L94.6374 12.8701L94.7298 9.63319Z" fill="#808080" stroke="black" stroke-width="0.25878"/>
<path d="M69.4665 14.6748L67.8665 16.3424H63.6868L64.6664 14.6748C64.699 14.6748 69.4665 14.6748 69.4665 14.6748Z" fill="#808080" stroke="black" stroke-width="0.25878"/>
<path d="M52.4049 55.9514C52.3509 55.9626 52.3008 55.9877 52.2594 56.0242L50.8855 57.2057C50.8445 57.243 50.8138 57.2904 50.7967 57.3432L49.4228 61.1952C49.4025 61.2517 49.3986 61.3129 49.4115 61.3716C49.4243 61.4303 49.4535 61.4841 49.4955 61.527L50.5461 62.579C50.6069 62.6374 50.6882 62.6694 50.7724 62.668H55.0152C55.0994 62.6694 55.1807 62.6374 55.2415 62.579L56.3486 61.4622C56.3867 61.424 56.4146 61.3766 56.4294 61.3247L57.6093 57.2704C57.6254 57.2154 57.6264 57.157 57.6121 57.1015C57.5979 57.046 57.569 56.9953 57.5285 56.9548L56.6153 56.0404C56.5546 55.9819 56.4732 55.9499 56.389 55.9514H52.4695C52.448 55.9492 52.4264 55.9492 52.4049 55.9514ZM44.6305 66.8112C44.5722 66.8238 44.5186 66.8524 44.4758 66.8939C44.4329 66.9354 44.4025 66.988 44.3881 67.0459L43.8628 69.1337C43.8511 69.1806 43.8502 69.2295 43.8601 69.2768C43.8701 69.3241 43.8906 69.3685 43.9202 69.4066C43.9498 69.4448 43.9876 69.4758 44.0308 69.4972C44.0741 69.5186 44.1216 69.5299 44.1699 69.5303H46.667L40.4766 87.2282C40.4606 87.2759 40.4562 87.3268 40.4635 87.3766C40.4709 87.4264 40.49 87.4738 40.5191 87.5148C40.5483 87.5558 40.5867 87.5894 40.6313 87.6127C40.6759 87.636 40.7254 87.6484 40.7756 87.649H49.7865C49.8542 87.6499 49.9205 87.6293 49.9757 87.59C50.0309 87.5507 50.0722 87.4948 50.0936 87.4305L50.6835 85.5288C50.6982 85.4809 50.7013 85.4302 50.6928 85.3808C50.6842 85.3314 50.6642 85.2848 50.6343 85.2446C50.6044 85.2044 50.5655 85.1718 50.5207 85.1495C50.4759 85.1272 50.4265 85.1157 50.3764 85.1161H48.3399L54.4656 67.232C54.4816 67.1843 54.4861 67.1334 54.4787 67.0836C54.4713 67.0338 54.4523 66.9864 54.4231 66.9454C54.394 66.9044 54.3555 66.8708 54.311 66.8475C54.2664 66.8242 54.2169 66.8118 54.1666 66.8112H44.6952C44.6737 66.809 44.652 66.809 44.6305 66.8112ZM73.3035 66.876C73.2342 66.8903 73.1717 66.9273 73.1257 66.9812L71.2508 69.1014H68.2688L66.2807 67.0378C66.2513 67.0074 66.2162 66.9832 66.1773 66.9665C66.1385 66.9499 66.0967 66.9411 66.0544 66.9407H58.9347C58.8693 66.9409 58.8056 66.9611 58.7521 66.9988C58.6986 67.0364 58.658 67.0896 58.6357 67.1511L57.9811 69.1095C57.9651 69.1572 57.9606 69.2081 57.968 69.2579C57.9754 69.3077 57.9944 69.3551 58.0236 69.3961C58.0527 69.4371 58.0912 69.4707 58.1358 69.494C58.1803 69.5173 58.2298 69.5297 58.2801 69.5303H60.1873L54.2555 87.0339C54.2395 87.0817 54.235 87.1326 54.2424 87.1824C54.2498 87.2322 54.2689 87.2795 54.298 87.3206C54.3272 87.3616 54.3656 87.3952 54.4102 87.4185C54.4548 87.4418 54.5042 87.4542 54.5545 87.4547H62.1349C62.2003 87.4546 62.2641 87.4343 62.3175 87.3967C62.371 87.3591 62.4117 87.3059 62.434 87.2443L63.0158 85.5369C63.0318 85.4891 63.0363 85.4383 63.0289 85.3884C63.0215 85.3386 63.0025 85.2913 62.9733 85.2502C62.9442 85.2092 62.9057 85.1757 62.8611 85.1523C62.8166 85.129 62.7671 85.1166 62.7168 85.1161H61.3914L65.1736 73.1961H72.0186L67.7031 87.042C67.6884 87.09 67.6852 87.1407 67.6938 87.19C67.7023 87.2394 67.7224 87.2861 67.7523 87.3262C67.7822 87.3664 67.8211 87.399 67.8659 87.4213C67.9107 87.4436 67.9601 87.4551 68.0102 87.4547H75.3239C75.386 87.4543 75.4466 87.4356 75.4983 87.4011C75.55 87.3666 75.5905 87.3178 75.6148 87.2605L76.2694 85.6906C76.2884 85.6426 76.2955 85.5907 76.2901 85.5394C76.2847 85.488 76.2669 85.4387 76.2383 85.3958C76.2097 85.3528 76.1711 85.3174 76.1259 85.2927C76.0806 85.2679 76.03 85.2545 75.9785 85.2536H74.6531L78.4999 73.1313H85.0135L80.6334 87.042C80.6187 87.09 80.6156 87.1407 80.6241 87.19C80.6327 87.2394 80.6527 87.2861 80.6826 87.3262C80.7125 87.3664 80.7514 87.399 80.7962 87.4213C80.841 87.4436 80.8904 87.4551 80.9405 87.4547H88.9735C89.0379 87.4552 89.1009 87.4361 89.1543 87.4C89.2077 87.3639 89.2489 87.3125 89.2725 87.2524L89.9271 85.545C89.9447 85.4968 89.9504 85.445 89.9438 85.3941C89.9371 85.3432 89.9184 85.2947 89.889 85.2526C89.8597 85.2105 89.8207 85.1761 89.7752 85.1524C89.7298 85.1286 89.6793 85.1161 89.6281 85.1161H88.036L92.8768 69.3765C92.8927 69.3276 92.8967 69.2756 92.8882 69.2249C92.8798 69.1742 92.8592 69.1262 92.8283 69.0852L91.3252 67.0621C91.2944 67.0231 91.2551 66.9919 91.2102 66.9708C91.1653 66.9497 91.1161 66.9394 91.0666 66.9407H85.3206C85.277 66.94 85.2337 66.9482 85.1934 66.9649C85.1531 66.9816 85.1166 67.0064 85.0863 67.0378L83.276 69.0285H80.1081L78.2332 66.9731C78.2028 66.9417 78.1664 66.9169 78.1261 66.9002C78.0858 66.8835 78.0425 66.8753 77.9988 66.876H73.3682C73.3467 66.8738 73.325 66.8738 73.3035 66.876Z" fill="#CCCCCC" stroke="black" stroke-width="2.07024" stroke-miterlimit="10"/>
<path d="M52.4694 56.2671L51.0955 57.4486L49.7217 61.3005L50.7723 62.3525H55.015L56.1222 61.2358L57.3021 57.1815L56.3889 56.2671H52.4694ZM44.695 67.127L44.1697 69.2148H47.1114L40.7755 87.3335H49.7863L50.3763 85.4318H47.8953L54.1665 67.127H44.695ZM73.368 67.1917L71.4042 69.4171H68.1393L66.0543 67.2565H58.9345L58.2799 69.2148H60.6316L54.5544 87.1393H62.1348L62.7167 85.4318H60.9549L64.9391 72.8806H72.4548L68.01 87.1393H75.3237L75.9783 85.5694H74.2166L78.2654 72.8159H85.4498L80.9403 87.1393H88.9733L89.6279 85.4318H87.5995L92.5696 69.2795L91.0664 67.2565H85.3205L83.4214 69.3443H79.9625L77.9987 67.1917H73.368Z" fill="#CCCCCC" stroke="black" stroke-width="0.25878" stroke-miterlimit="10"/>
</g>
<defs>
<clipPath id="clip0_867_19489">
<rect width="100" height="100" fill="white"/>
</clipPath>
</defs>
</svg>
