<svg width="100" height="100" viewBox="0 0 100 100" fill="none" xmlns="http://www.w3.org/2000/svg">
<g clip-path="url(#clip0_867_13853)">
<g clip-path="url(#clip1_867_13853)">
<path d="M50 100C77.6142 100 100 77.6142 100 50C100 22.3858 77.6142 0 50 0C22.3858 0 0 22.3858 0 50C0 77.6142 22.3858 100 50 100Z" fill="#004E8C"/>
<path opacity="0.1" d="M15.3437 14.0625C10.2608 18.5919 6.15648 24.1116 3.28229 30.2833C0.408102 36.455 -1.17541 43.1487 -1.37117 49.9541C-1.56693 56.7594 -0.370827 63.533 2.14383 69.8598C4.65849 76.1865 8.43872 81.933 13.2528 86.7471C18.0669 91.5612 23.8134 95.3414 30.1402 97.8561C36.4669 100.371 43.2405 101.567 50.0459 101.371C56.8512 101.175 63.5449 99.5918 69.7166 96.7176C75.8883 93.8434 81.408 89.7391 85.9374 84.6562L15.3437 14.0625Z" fill="white"/>
<path d="M52.0156 30.3125L37.5 69.6875H32.3594L18.0781 30.3125H23.2187L34.1562 61.5625C34.5334 62.6956 34.8003 63.8625 34.9531 65.0469H35.0625C35.2262 63.8316 35.5196 62.6373 35.9375 61.4844L47.0625 30.2344L52.0156 30.3125Z" fill="white"/>
<path d="M57.6875 69.6874V30.3124H68.8906C71.8 30.1567 74.6696 31.0431 76.9844 32.8124C77.9524 33.5941 78.7269 34.5888 79.2472 35.719C79.7676 36.8492 80.0199 38.0843 79.9844 39.3281C80.0149 41.4165 79.362 43.4576 78.125 45.1406C76.8767 46.8165 75.1244 48.0485 73.125 48.6562V48.7656C75.5432 48.9605 77.8085 50.0265 79.5 51.7656C81.1354 53.5683 81.9944 55.9431 81.8906 58.3749C81.9418 59.9245 81.6424 61.4657 81.0147 62.8833C80.387 64.301 79.4473 65.5587 78.2656 66.5624C75.7085 68.6959 72.453 69.8088 69.125 69.6874H57.6875ZM62.375 34.4687V47.1874H67.0625C69.1968 47.2878 71.2968 46.6229 72.9844 45.3124C73.7156 44.6755 74.2914 43.8797 74.6678 42.986C75.0443 42.0923 75.2113 41.1244 75.1562 40.1562C75.1562 36.3333 72.6406 34.4218 67.6094 34.4218L62.375 34.4687ZM62.375 51.3281V65.4999H68.625C70.8715 65.6301 73.0898 64.948 74.875 63.5781C75.6198 62.9252 76.2076 62.1126 76.5945 61.2008C76.9814 60.2891 77.1574 59.3017 77.1094 58.3124C77.1094 53.6666 73.9427 51.3437 67.6094 51.3437L62.375 51.3281Z" fill="white"/>
</g>
</g>
<defs>
<clipPath id="clip0_867_13853">
<rect width="100" height="100" fill="white"/>
</clipPath>
<clipPath id="clip1_867_13853">
<rect width="100" height="100" fill="white"/>
</clipPath>
</defs>
</svg>
