<svg width="100" height="100" viewBox="0 0 100 100" fill="none" xmlns="http://www.w3.org/2000/svg">
<g clip-path="url(#clip0_1085_4726)">
<path d="M11.2422 20.5418C10.8615 20.5872 10.4889 20.6853 10.1352 20.8332L2.56172 23.9582C1.80632 24.2731 1.16047 24.8037 0.704858 25.4836C0.249249 26.1634 0.00408607 26.9625 0 27.7809L0 72.2184C0.00415065 73.0369 0.249429 73.836 0.705183 74.5159C1.16094 75.1958 1.80695 75.7262 2.5625 76.041L10.1352 79.2176C10.8462 79.5152 11.6259 79.6096 12.3875 79.4903C13.149 79.371 13.8625 79.0427 14.4484 78.5418L16.1453 77.0832C15.801 77.3305 15.395 77.4779 14.9722 77.5092C14.5495 77.5405 14.1262 77.4544 13.7492 77.2605C13.3723 77.0666 13.0561 76.7724 12.8357 76.4103C12.6153 76.0481 12.4991 75.6322 12.5 75.2082V24.791C12.4991 24.3671 12.6153 23.9511 12.8357 23.589C13.0561 23.2269 13.3723 22.9326 13.7492 22.7387C14.1262 22.5448 14.5495 22.4588 14.9722 22.4901C15.395 22.5213 15.801 22.6687 16.1453 22.916L14.4484 21.5106C14.0103 21.136 13.4991 20.8565 12.9474 20.6898C12.3956 20.523 11.8144 20.4726 11.2422 20.5418Z" fill="#52218A"/>
<path d="M74.0234 0.32481C73.0683 0.191318 72.0952 0.280681 71.1803 0.585906C70.2655 0.891131 69.4337 1.40394 68.75 2.08418L4.16719 73.4904C3.83939 73.8425 3.41359 74.0882 2.94476 74.1959C2.47593 74.3036 1.98559 74.2683 1.53702 74.0945C1.08846 73.9208 0.702261 73.6166 0.428284 73.2212C0.154308 72.8258 0.00512772 72.3574 0 71.8764L0 72.2201C0.00430385 73.0385 0.249654 73.8374 0.705398 74.5172C1.16114 75.1969 1.80708 75.7272 2.5625 76.042L10.1352 79.2186C10.8462 79.5162 11.6259 79.6106 12.3875 79.4913C13.149 79.372 13.8625 79.0436 14.4484 78.5428L16.1453 77.0842L93.5516 13.6154C94.1297 13.1421 94.8302 12.8426 95.5718 12.7516C96.3134 12.6607 97.0656 12.7821 97.7409 13.1017C98.4163 13.4213 98.9871 13.9259 99.387 14.5571C99.7869 15.1882 99.9994 15.9198 100 16.667V16.4272C100 15.2496 99.6683 14.096 99.0418 13.099C98.4152 12.102 97.5198 11.3023 96.4586 10.792L75.8547 0.875591C75.2761 0.599148 74.6585 0.413381 74.0234 0.32481Z" fill="#6C33AF"/>
<path d="M11.618 20.4981C11.1072 20.5176 10.6045 20.6315 10.1352 20.8341L2.56172 23.9591C1.80632 24.274 1.16047 24.8045 0.704858 25.4844C0.249249 26.1643 0.00408607 26.9633 0 27.7817L0 28.1263C0.00512772 27.6452 0.154308 27.1768 0.428284 26.7814C0.702261 26.386 1.08846 26.0818 1.53702 25.9081C1.98559 25.7343 2.47593 25.699 2.94476 25.8067C3.41359 25.9144 3.83939 26.1601 4.16719 26.5122L68.75 97.9169C69.6646 98.8271 70.8385 99.4319 72.1106 99.6483C73.3827 99.8647 74.6906 99.6821 75.8547 99.1255L96.4586 89.2083C97.5197 88.698 98.415 87.8985 99.0416 86.9016C99.6681 85.9048 100 84.7513 100 83.5739V83.3341C99.9994 84.0812 99.7869 84.8129 99.387 85.444C98.9871 86.0751 98.4163 86.5798 97.7409 86.8994C97.0656 87.219 96.3134 87.3403 95.5718 87.2494C94.8302 87.1585 94.1297 86.8589 93.5516 86.3856L16.1453 22.9169L14.4484 21.4598C13.6564 20.8003 12.6479 20.4571 11.618 20.4981Z" fill="#854CC7"/>
<path d="M74.0234 0.325062C72.4539 0.133078 70.8698 0.543179 69.5906 1.47272C70.1492 1.17089 70.7766 1.01929 71.4113 1.03275C72.0461 1.04622 72.6665 1.22429 73.2118 1.54953C73.7571 1.87477 74.2085 2.33604 74.522 2.88817C74.8355 3.4403 75.0002 4.06437 75 4.69928V95.3243C74.9983 96.0476 74.7827 96.7543 74.3803 97.3554C73.9779 97.9565 73.4067 98.4251 72.7386 98.7023C72.0705 98.9795 71.3353 99.0529 70.6255 98.9132C69.9158 98.7735 69.2632 98.427 68.75 97.9173C69.6646 98.8275 70.8385 99.4323 72.1106 99.6487C73.3827 99.8651 74.6906 99.6824 75.8547 99.1258L96.4586 89.2196C97.5198 88.7093 98.4152 87.9096 99.0418 86.9126C99.6683 85.9156 100 84.7619 100 83.5844V16.4188C100.001 15.241 99.6688 14.087 99.0422 13.0897C98.4156 12.0925 97.52 11.2925 96.4586 10.7821L75.8547 0.875062C75.2761 0.598889 74.6585 0.413385 74.0234 0.325062ZM69.5906 1.47272C69.2828 1.63572 68.9998 1.84169 68.75 2.08444C69.0127 1.85754 69.2939 1.65292 69.5906 1.47272Z" fill="#B179F1"/>
<path opacity="0.25" fill-rule="evenodd" clip-rule="evenodd" d="M73.5508 0.271482C72.7507 0.219439 71.9481 0.321821 71.1867 0.573044C70.2684 0.881064 69.4342 1.39832 68.75 2.08398L35.5422 38.8137L16.1453 22.9168L14.4484 21.4598C13.9379 21.0227 13.3292 20.7157 12.6743 20.5649C12.0194 20.4142 11.3377 20.4242 10.6875 20.5941C10.4971 20.6362 10.3118 20.6991 10.1352 20.7816L2.56172 23.959C1.85282 24.2516 1.23849 24.7342 0.78647 25.3537C0.334445 25.9732 0.062285 26.7056 0 27.4699L0 72.5316C0.0624926 73.296 0.334833 74.0282 0.786993 74.6475C1.23915 75.2669 1.85357 75.7494 2.5625 76.0418L10.1352 79.1668C10.3118 79.2494 10.4971 79.3123 10.6875 79.3543C11.3375 79.5245 12.0191 79.5349 12.674 79.3846C13.3289 79.2343 13.9377 78.9277 14.4484 78.491L16.1453 77.084L35.5422 61.1887L68.75 97.9168C69.5777 98.7436 70.621 99.3215 71.7609 99.5848C73.1382 99.8987 74.5812 99.7367 75.8547 99.1254L96.4586 89.2191C97.5198 88.7088 98.4152 87.9091 99.0418 86.9122C99.6683 85.9152 100 84.7615 100 83.584V16.4184C100.001 15.2406 99.6688 14.0866 99.0422 13.0893C98.4156 12.092 97.52 11.2921 96.4586 10.7816L75.8547 0.874607C75.1323 0.527388 74.3498 0.322362 73.55 0.2707L73.5508 0.271482ZM75 28.834V71.1668L49.1773 50.0012L75 28.834ZM12.5 35.6988L25.4273 50.0012L12.5 64.3035V35.6988Z" fill="url(#paint0_linear_1085_4726)"/>
</g>
<defs>
<linearGradient id="paint0_linear_1085_4726" x1="37.5" y1="-0.000393272" x2="37.5" y2="74.609" gradientUnits="userSpaceOnUse">
<stop stop-color="white"/>
<stop offset="1" stop-color="white" stop-opacity="0"/>
</linearGradient>
<clipPath id="clip0_1085_4726">
<rect width="100" height="100" fill="white"/>
</clipPath>
</defs>
</svg>
