<svg width="100" height="100" viewBox="0 0 100 100" fill="none" xmlns="http://www.w3.org/2000/svg">
<path d="M75.0449 31.6585L51.1384 66.2241C50.885 66.5906 50.5184 66.8652 50.0944 67.0061C49.6704 67.147 49.212 67.1456 48.7888 67.0041C48.3656 66.8618 48.0008 66.586 47.7495 66.2188C47.4983 65.851 47.3744 65.4118 47.3968 64.9679L48.3536 45.8841L32.9074 42.6083C32.5773 42.5384 32.2698 42.3884 32.012 42.1718C31.7542 41.9552 31.5541 41.6785 31.4294 41.3663C31.3048 41.0542 31.2595 40.7161 31.2975 40.3821C31.3354 40.0482 31.4555 39.7285 31.6471 39.4515L55.5538 4.88588C55.8073 4.51919 56.1739 4.24472 56.5979 4.10401C57.0221 3.9633 57.4804 3.96403 57.9037 4.10619C58.3269 4.24829 58.6918 4.52402 58.9429 4.89157C59.1941 5.25905 59.318 5.69824 59.2955 6.14253L58.3388 25.2265L73.7847 28.502C74.1148 28.572 74.4224 28.7219 74.6804 28.9385C74.9384 29.1552 75.1382 29.4318 75.2626 29.744C75.3876 30.0562 75.4326 30.3942 75.3949 30.7282C75.3572 31.0622 75.2368 31.3816 75.0449 31.6585Z" fill="#FCC72B"/>
<path d="M50.0094 95.2244C49.3736 95.2251 48.7439 95.1007 48.1564 94.8573C47.569 94.6138 47.0354 94.2566 46.5864 93.8068L23.9974 71.2194C23.0938 70.3111 22.5872 69.0813 22.5889 67.7999C22.5906 66.5185 23.1004 65.2894 24.0065 64.3837C24.9126 63.4774 26.1412 62.9674 27.4226 62.9654C28.7042 62.9641 29.9341 63.4702 30.8427 64.3738L50.0094 83.5384L91.7644 41.7855C92.6746 40.8899 93.9018 40.3903 95.1786 40.3955C96.456 40.4007 97.6792 40.9103 98.5815 41.8132C99.4845 42.7162 99.9945 43.9393 99.9998 45.2163C100.004 46.4932 99.505 47.7205 98.6093 48.6307L53.4316 93.8068C52.9827 94.2573 52.4492 94.6138 51.8619 94.8573C51.2747 95.1007 50.6451 95.2251 50.0094 95.2244Z" fill="#729B1B"/>
<path d="M49.9901 95.2244C50.626 95.2251 51.2557 95.1007 51.8431 94.8573C52.4306 94.6138 52.9641 94.2566 53.4132 93.8068L76.0021 71.2194C76.9058 70.3111 77.4125 69.0813 77.4105 67.7999C77.4092 66.5185 76.8992 65.2894 75.9929 64.3837C75.0866 63.4774 73.8581 62.9674 72.5767 62.9654C71.2953 62.9641 70.0655 63.4702 69.1566 64.3738L49.9901 83.5384L8.23524 41.7855C7.32497 40.8899 6.09769 40.3903 4.8208 40.3955C3.54384 40.4007 2.32067 40.9103 1.41775 41.8132C0.514806 42.7162 0.00523984 43.9393 4.01847e-05 45.2163C-0.00515947 46.4932 0.494431 47.7205 1.38999 48.6307L46.5679 93.8068C47.0168 94.2573 47.5503 94.6138 48.1376 94.8573C48.7249 95.1007 49.3544 95.2251 49.9901 95.2244Z" fill="#729B1B" fill-opacity="0.5"/>
</svg>
