<svg width="100" height="100" viewBox="0 0 100 100" fill="none" xmlns="http://www.w3.org/2000/svg">
<path d="M56.5213 60.0947L56.5292 60.0432L59.7346 41.2814L56.5213 60.0947ZM79.669 41.2354L69.2713 60.0338L79.6737 41.2393L91.0362 20.6283L79.669 41.2354ZM20.1018 41.4494L19.1604 39.7244L20.1026 41.4494L30.1213 59.8354L20.1018 41.4494ZM23.6198 34.9236L30.1409 22.8135L42.0487 44.7299L30.1424 22.8002L20.0573 4.36816L30.1377 22.8049L23.6198 34.9236ZM52.9666 64.8377L53.0088 64.9236L54.8963 68.3963L52.9666 64.8377ZM66.2893 29.3744L59.7268 41.2533L52.4237 54.694L59.7268 41.2564L66.2893 29.3744Z" fill="#284E64"/>
<path d="M40.1306 78.2949L49.6064 95.652L54.8181 68.8457L40.1306 78.2949Z" fill="#F16827"/>
<path d="M54.9001 68.4189L46.5408 53.0518L40.1306 78.2963L54.8181 68.8471L54.9001 68.4189Z" fill="#F48029"/>
<path d="M30.1157 59.8361L40.1267 78.2955L46.5407 53.0518L30.1157 59.8361Z" fill="#F89A2E"/>
<path d="M30.1157 59.8354L46.5407 53.0464L34.1876 30.2573L30.1157 59.8354Z" fill="#F16827"/>
<path d="M56.5211 60.0947L59.7344 41.2822L49.9329 59.3018L54.8954 68.4182L56.5211 60.0947Z" fill="#F89921"/>
<path d="M20.1021 41.4479L30.1177 59.8347L34.1872 30.2651L20.1021 41.4479Z" fill="#F89A2E"/>
<path d="M69.263 60.0322L79.6685 41.2354L56.5278 60.0408L69.263 60.0322Z" fill="#F48029"/>
<path d="M30.1411 22.811L20.1021 41.4478L34.1856 30.2618L30.1411 22.811ZM56.5317 60.0407L69.8653 22.9267L59.7364 41.2806L56.5317 60.0407Z" fill="#F4AE5C"/>
<path d="M20.1014 41.4485L30.1404 22.811L17.3857 36.4962L19.1631 39.7251L20.1014 41.4485Z" fill="#CD4E27"/>
<path d="M79.6643 41.2344L69.8596 22.9266L56.5315 60.0406L79.6643 41.2344ZM17.3909 36.4906L30.1385 22.7859L20.0526 4.34766L17.387 36.4734L17.3909 36.4906Z" fill="#F16938"/>
<path d="M79.6641 41.2337L80.0266 4.3665L69.8633 22.9259L79.6641 41.2337ZM20.0531 4.36182H0L17.3906 36.4899L20.0531 4.36182Z" fill="#F89A2E"/>
<path d="M80.0263 4.3665L79.6638 41.2337L99.9998 4.36182L80.0263 4.3665ZM56.5287 60.0399L56.5209 60.0923L49.6052 95.6485L69.2677 60.0353L56.5287 60.0399Z" fill="#CD4E27"/>
</svg>
