<svg width="100" height="100" viewBox="0 0 100 100" fill="none" xmlns="http://www.w3.org/2000/svg">
<g clip-path="url(#clip0_867_13826)">
<path d="M83.807 46.1564L70.4637 98.8117C70.4321 98.9559 70.4336 99.1053 70.468 99.2489C70.5024 99.3924 70.569 99.5263 70.6626 99.6404C70.7561 99.7546 70.8744 99.8461 71.0084 99.908C71.1424 99.9699 71.2887 100.001 71.4363 99.9979H98.1139C98.2614 100.001 98.4077 99.9699 98.5417 99.908C98.6758 99.8461 98.794 99.7546 98.8876 99.6404C98.9812 99.5263 99.0477 99.3924 99.0821 99.2489C99.1166 99.1053 99.118 98.9559 99.0864 98.8117L85.6795 46.1564C85.622 45.9523 85.4995 45.7726 85.3305 45.6446C85.1615 45.5165 84.9553 45.4473 84.7432 45.4473C84.5312 45.4473 84.325 45.5165 84.156 45.6446C83.987 45.7726 83.8645 45.9523 83.807 46.1564ZM10.3642 58.0863L0.0248833 98.8071C-0.00855666 98.9521 -0.00828893 99.1028 0.0256657 99.2477C0.0596203 99.3925 0.126356 99.5277 0.220739 99.6427C0.315121 99.7577 0.434633 99.8495 0.570077 99.9111C0.705521 99.9727 0.853286 100.002 1.002 99.9979H21.5987C21.8228 100.006 22.0425 99.9348 22.22 99.798C22.3975 99.6611 22.5217 99.4666 22.5713 99.248C22.605 99.103 22.605 98.9522 22.5713 98.8071L12.2275 58.0863C12.1675 57.8859 12.0444 57.7102 11.8765 57.5852C11.7087 57.4603 11.505 57.3928 11.2958 57.3928C11.0866 57.3928 10.8829 57.4603 10.7151 57.5852C10.5473 57.7102 10.4242 57.8859 10.3642 58.0863Z" fill="#00E5E5"/>
<path d="M28.5882 24.367L9.76395 98.8052C9.73319 98.9453 9.73364 99.0904 9.76529 99.2303C9.79693 99.3702 9.85898 99.5014 9.94704 99.6146C10.0351 99.7279 10.147 99.8203 10.2748 99.8854C10.4026 99.9505 10.5432 99.9867 10.6865 99.9913H48.3624C48.5106 99.9957 48.6579 99.966 48.7929 99.9047C48.9279 99.8434 49.0471 99.752 49.1414 99.6376C49.2357 99.5231 49.3026 99.3886 49.3369 99.2443C49.3712 99.1 49.3721 98.9498 49.3395 98.8052L30.4516 24.3624C30.3915 24.162 30.2685 23.9863 30.1006 23.8613C29.9328 23.7364 29.7291 23.6689 29.5199 23.6689C29.3107 23.6689 29.107 23.7364 28.9392 23.8613C28.7714 23.9863 28.6483 24.162 28.5882 24.3624V24.367Z" fill="#006EFF"/>
<path d="M61.0831 0.693488C61.0231 0.493058 60.9 0.317333 60.7322 0.192403C60.5643 0.0674737 60.3607 0 60.1514 0C59.9422 0 59.7386 0.0674737 59.5707 0.192403C59.4029 0.317333 59.2798 0.493058 59.2198 0.693488L33.4784 98.8097C33.4459 98.954 33.4467 99.1038 33.4808 99.2477C33.5148 99.3917 33.5813 99.5259 33.6751 99.6403C33.7689 99.7547 33.8875 99.8461 34.0219 99.9078C34.1564 99.9694 34.3031 99.9995 34.451 99.9959H85.8974C86.0452 99.9992 86.1919 99.969 86.3265 99.9076C86.4611 99.8462 86.58 99.7552 86.6745 99.6414C86.769 99.5272 86.8362 99.3929 86.8708 99.2487C86.9055 99.1046 86.9067 98.9544 86.8745 98.8097L61.0831 0.693488Z" fill="#006EFF"/>
<path d="M42.1682 35.1964L25.839 98.8C25.8041 98.9452 25.803 99.0965 25.836 99.2422C25.8689 99.3878 25.935 99.524 26.0291 99.64C26.1231 99.756 26.2426 99.8488 26.3783 99.9112C26.514 99.9736 26.6623 100.004 26.8116 99.9998H59.3973C59.5464 100.003 59.6941 99.9721 59.8294 99.9094C59.9646 99.8468 60.0837 99.754 60.1776 99.6382C60.2715 99.5224 60.3376 99.3867 60.3709 99.2414C60.4043 99.0961 60.4039 98.9451 60.3699 98.8L44.0316 35.1964C43.9715 34.996 43.8485 34.8203 43.6806 34.6953C43.5128 34.5704 43.3091 34.5029 43.0999 34.5029C42.8907 34.5029 42.687 34.5704 42.5192 34.6953C42.3514 34.8203 42.2283 34.996 42.1682 35.1964Z" fill="#00E5E5"/>
</g>
<defs>
<clipPath id="clip0_867_13826">
<rect width="100" height="100" fill="white"/>
</clipPath>
</defs>
</svg>
