<svg width="100" height="100" viewBox="0 0 100 100" fill="none" xmlns="http://www.w3.org/2000/svg">
<g clip-path="url(#clip0_867_19597)">
<path d="M22.5292 0V0.275C22.4191 0.605289 22.3519 0.948385 22.3293 1.29583C22.2834 1.75417 22.2626 2.1625 22.2626 2.525C22.2626 3.9375 22.4417 5.50417 22.7959 7.23333C23.2001 8.92083 23.9376 11.0333 25.0084 13.5833L54.6959 81.775L83.3792 14.125C84.0501 12.4417 84.7667 10.6 85.5251 8.59583C86.2834 6.59583 86.6626 4.57083 86.6626 2.52083C86.6782 1.75185 86.5423 0.987303 86.2626 0.270833V0H100V0.275C99.1501 1.1375 98.1251 2.68333 96.9168 4.91667C95.7084 7.14583 94.3918 9.89583 92.9626 13.175L54.5626 100H49.2001L12.8126 16.5208C11.9626 14.5625 11.0709 12.675 10.1292 10.8542C9.23758 9.03333 8.38758 7.39583 7.58758 5.9375C6.77925 4.4375 6.06675 3.1875 5.44175 2.1875C5.04828 1.52684 4.62278 0.885798 4.16675 0.266667V0H22.5292Z" fill="#012E33"/>
</g>
<defs>
<clipPath id="clip0_867_19597">
<rect width="100" height="100" fill="white"/>
</clipPath>
</defs>
</svg>
