<svg width="100" height="100" viewBox="0 0 100 100" fill="none" xmlns="http://www.w3.org/2000/svg">
<g clip-path="url(#clip0_1085_4766)">
<path d="M48.2604 2.27346C45.4072 4.10471 44.583 7.89846 46.4236 10.7422C56.5307 26.3985 58.9174 38.2047 57.883 48.5532C53.6986 68.3688 44.6049 72.3875 36.6549 72.3875C28.8939 72.3875 30.9729 59.6188 36.8072 55.8805C40.2893 53.7047 44.7479 52.2922 48.1721 52.2922C51.5627 52.2922 54.3127 49.5516 54.3127 46.1703C54.3127 42.786 51.5627 40.0453 48.1721 40.0453C44.1744 40.0453 40.2502 40.8875 36.5908 42.3157C37.3385 38.7875 37.6135 34.9735 36.6455 30.9203C35.1775 24.7617 30.9541 18.8844 23.6143 13.1836C22.9779 12.6882 22.2503 12.3229 21.4728 12.1087C20.6953 11.8945 19.8833 11.8355 19.083 11.9352C17.467 12.1336 15.9958 12.9657 14.9932 14.2485C14.4984 14.883 14.1337 15.609 13.9201 16.3847C13.7064 17.1605 13.648 17.9708 13.7482 18.7692C13.8483 19.5675 14.1051 20.3383 14.5037 21.0372C14.9024 21.7362 15.4351 22.3496 16.0713 22.8422C22.0494 27.4875 24.0236 30.9235 24.6979 33.7524C25.3752 36.5813 24.8322 39.6149 23.4744 43.7867C21.7408 49.4047 19.7299 54.4219 18.8479 59.2344C18.4143 61.6032 18.3775 64.1782 18.265 66.2383C13.9588 62.043 12.2744 56.5039 12.2744 48.4071C12.2744 45.0258 9.52441 42.2821 6.13379 42.2852C2.74316 42.2883 -0.00292969 45.0258 -0.00292969 48.4071C-0.00292969 59.4633 3.2291 69.9828 11.8955 77.0024C19.7393 84.4727 39.6846 81.711 39.6846 93.7102C39.6846 97.0946 44.6416 98.743 48.0314 98.743C51.5111 98.743 55.8869 96.4172 55.8869 93.7102C55.8869 80.0961 70.233 71.8235 93.8478 71.8594C97.2416 71.8657 99.9908 69.125 99.9971 65.7438C100.003 62.3594 97.2596 59.6133 93.8658 59.6071C92.2518 59.6071 90.6768 59.6617 89.1268 59.7532C91.7666 53.543 92.9385 46.7071 92.6939 39.325C92.5846 35.9438 89.7463 33.2914 86.3557 33.4016C82.9619 33.5141 80.3041 36.3469 80.4174 39.7281C80.7377 49.3961 80.3744 58.0289 73.1721 62.5821C71.1252 63.8735 68.7408 64.9961 66.483 64.9961C68.2377 60.2297 69.5619 55.1938 70.1018 49.7711C70.4502 46.3071 70.4869 42.193 70.09 39.0016C69.4799 34.0516 68.7385 28.436 70.6182 24.2063C72.3057 20.5657 76.0869 19.0399 81.6408 19.0399C85.0283 19.0367 87.7752 16.2961 87.7752 12.918C87.7775 9.53362 85.0314 6.78987 81.6408 6.78674C73.3885 6.78674 67.133 11.1305 63.5861 16.3758C61.7346 12.418 59.476 8.33674 56.7479 4.11018C55.864 2.74594 54.4758 1.78724 52.8869 1.44378C52.0991 1.2721 51.2854 1.25645 50.4916 1.39768C49.6978 1.54099 48.9397 1.83853 48.2604 2.27346Z" fill="url(#paint0_linear_1085_4766)"/>
</g>
<defs>
<linearGradient id="paint0_linear_1085_4766" x1="-0.00280281" y1="1.30202" x2="96.6652" y2="94.573" gradientUnits="userSpaceOnUse">
<stop stop-color="#62A0EA"/>
<stop offset="1" stop-color="#1A5FB4"/>
</linearGradient>
<clipPath id="clip0_1085_4766">
<rect width="100" height="100" fill="white"/>
</clipPath>
</defs>
</svg>
