<svg width="100" height="100" viewBox="0 0 100 100" fill="none" xmlns="http://www.w3.org/2000/svg">
<g clip-path="url(#clip0_1085_4768)">
<path d="M47.0063 0.081543H14.5633C14.5633 0.081543 1.77969 0.728417 0 14.644V84.4667C0 84.4667 0.890626 98.4628 15.4531 99.9198H43.8516L48.1391 95.6308H15.9383C15.9383 95.6308 5.74453 94.337 4.45 84.1425V15.5339C4.45 15.5339 4.04531 5.17842 15.7766 4.20732H43.2039L47.0063 0.081543Z" fill="#00C1D5"/>
<path d="M52.9933 99.9198H85.4362C85.4362 99.9198 98.2198 99.2729 99.9995 85.3573V15.5347C99.9995 15.5347 99.1089 1.53857 84.5464 0.081543H56.2292L51.9409 4.37061H84.062C84.062 4.37061 94.2558 5.66436 95.5503 15.8589V84.4675C95.5503 84.4675 95.955 94.823 84.2237 95.794H56.8769L52.9933 99.9198Z" fill="#78BD20"/>
<path d="M79.2064 87.1371H36.7307C31.4721 87.1371 29.6111 82.4449 29.3682 79.9363V36.0848C29.3682 30.1785 34.465 28.3996 37.1354 28.3184H37.2158L79.8533 28.4801C85.1932 28.4801 87.1354 33.3348 87.3783 35.8426V78.8848C87.3783 81.3121 86.6502 83.3348 85.1127 84.791C82.8471 87.0566 79.6916 87.1371 79.2064 87.1371ZM32.6049 79.6129C32.6854 80.2598 33.333 83.9012 36.7307 83.9012H79.2072C79.2877 83.9012 81.4721 83.9012 82.9283 82.5262C83.7369 81.7168 84.1416 80.5027 84.1416 78.9652V36.166C84.0611 35.4379 83.333 31.7168 79.7729 31.7168L37.2166 31.5543C36.6502 31.5543 32.6049 31.959 32.6049 36.0855V79.6129Z" fill="#0091DA"/>
<path d="M25.0813 67.3146H19.4172C16.2617 67.3146 15.6961 63.9975 15.5344 63.3498V19.8225C15.5344 15.9396 19.175 15.6154 19.8219 15.5342L62.4594 15.6967C65.6961 15.6967 66.343 19.1756 66.5047 19.8225V24.2725H70.3883V19.499C70.0648 16.8295 68.0422 11.8131 62.5406 11.8131L19.8219 11.6514C17.0719 11.7318 11.8125 13.5928 11.8125 19.742V63.5928C12.0547 66.1818 14.0781 71.117 19.4984 71.117H25.1625V67.3146H25.0813Z" fill="#0091DA"/>
</g>
<defs>
<clipPath id="clip0_1085_4768">
<rect width="100" height="100" fill="white"/>
</clipPath>
</defs>
</svg>
