<svg width="100" height="100" viewBox="0 0 100 100" fill="none" xmlns="http://www.w3.org/2000/svg">
<path d="M79.3515 32.2002H23.2343V71.5932H79.3515V32.2002Z" fill="white" stroke="#6DD0C7" stroke-width="0.229687"/>
<path d="M95.3125 88.8521V92.1333C94.6718 93.1958 93.7031 93.4146 92.5156 93.4146C64.0078 93.3911 35.4921 93.3989 6.98432 93.3911C6.77339 93.3911 6.56245 93.3989 6.35151 93.3911C4.94526 93.3286 4.17964 92.5552 4.2187 91.1489C4.24995 90.1411 4.37495 89.1411 4.45307 88.1333C5.16401 79.2427 5.85932 70.3677 6.56245 61.4849C7.28901 52.352 8.02339 43.2192 8.75776 34.0864C9.32807 26.9614 9.89839 19.8442 10.4843 12.7192C10.6015 11.2583 11.3046 10.6567 12.7812 10.6333C13.6249 10.6177 14.4609 10.6255 15.3046 10.6177C38.1171 10.6177 60.9296 10.6099 83.7421 10.6099C84.664 10.6177 85.5937 10.6099 86.5156 10.6255C87.8749 10.6489 88.6171 11.2896 88.7734 12.6411C88.8437 13.2583 88.7187 13.8989 88.7734 14.5161C89.0156 16.9849 89.3203 19.4458 89.5468 21.9145C89.8359 25.0942 90.0781 28.2739 90.3437 31.4536L91.8437 49.6567C92.7578 60.7505 93.664 71.8364 94.6015 82.9302C94.7656 84.9146 95.0703 86.8833 95.3125 88.8521ZM48.039 68.4224C51.1484 68.3989 54.164 67.6724 56.8593 65.9927C65.0312 60.9067 68.3203 53.1646 68.6718 43.8911C68.7031 43.0317 68.2812 42.4614 67.3125 42.4224C66.2343 42.3755 66.1328 43.0864 66.0624 43.9067C65.914 45.5942 65.8593 47.313 65.5078 48.9614C64.3749 54.2505 62.039 58.8911 57.6562 62.2739C53.8593 65.2036 49.6796 66.6411 44.8281 65.4927C38.7109 64.0474 34.9687 59.938 32.3749 54.5395C30.8124 51.2739 30.1328 47.7817 30.0624 44.1645C30.039 42.8833 29.3828 42.2114 28.4609 42.4536C27.5468 42.6958 27.3984 43.4224 27.4296 44.2349C27.6015 49.6411 28.9765 54.6958 32.0234 59.2036C35.8515 64.8364 40.9765 68.2505 48.039 68.4224ZM67.1874 36.9849C69.3046 39.1099 71.1093 40.9146 72.8984 42.7271C73.5312 43.3677 74.2265 43.5239 74.8749 42.8599C75.4687 42.2505 75.3437 41.5395 74.7578 40.9536C72.6562 38.8364 70.5546 36.7271 68.4296 34.6411C67.789 34.0083 66.9843 33.852 66.3046 34.5083C64.1093 36.6411 61.9374 38.8052 59.8124 41.0083C59.2343 41.6099 59.0312 42.438 59.7968 43.063C60.4999 43.6411 61.1796 43.4146 61.7812 42.7661C63.5468 40.8677 65.3203 38.9771 67.1874 36.9849Z" fill="#5ECD77"/>
<path d="M82.6952 6.84424C83.7968 7.89111 83.6171 9.29736 83.7421 10.6177C60.9296 10.6177 38.1171 10.6255 15.3046 10.6255C15.6014 9.3208 15.0624 7.74268 16.5702 6.84424H82.6952Z" fill="#53C074"/>
</svg>
