<svg width="100" height="100" viewBox="0 0 100 100" fill="none" xmlns="http://www.w3.org/2000/svg">
<g clip-path="url(#clip0_1085_4787)">
<path d="M20.5001 36.6714C10.0782 36.4792 1.5384 39.1222 0.184491 44.0425C-1.11863 48.7816 4.6048 54.3331 13.4556 58.13C9.47902 54.9105 7.54543 51.2941 8.63683 48.0972C10.7501 41.905 23.39 39.6339 36.8712 43.0253C44.9571 45.0581 51.565 49.0019 55.8806 52.9019C53.9228 47.73 44.4275 40.3558 31.3525 37.8284C27.7747 37.1339 24.1439 36.7463 20.5001 36.6714ZM14.6329 44.6644L20.5657 63.0019H25.1118L31.1978 44.6644H27.0392L22.9048 57.5574H22.854L18.7696 44.6644H14.6329ZM52.2384 44.6644V46.4816C53.7939 47.8714 55.0275 49.2863 55.8868 50.6495V44.6652L52.2384 44.6644ZM45.8392 47.4339V63.0027H49.4861V49.4456C48.3019 48.72 47.085 48.0493 45.8392 47.4355M72.865 49.3667C72.1278 49.367 71.3924 49.4403 70.6696 49.5855C69.9777 49.7167 69.3128 49.9639 68.7032 50.3167C68.1215 50.6589 67.6423 51.1126 67.2657 51.6777C66.7009 52.5253 66.6743 52.9534 66.6228 53.8097V53.812H70.2712C70.3405 53.0922 70.5803 52.5784 70.9907 52.2706C71.4022 51.9618 71.9673 51.8076 72.6861 51.8081C73.0105 51.8081 73.3144 51.8295 73.5978 51.8722C73.8806 51.9154 74.1288 52.0014 74.3423 52.13C74.5564 52.2581 74.7275 52.4378 74.8556 52.6691C74.9837 52.9003 75.048 53.2128 75.0485 53.6066C75.0657 53.9826 74.9543 54.2691 74.7142 54.466C74.4746 54.6639 74.1491 54.8141 73.7376 54.9167C73.3277 55.0193 72.8574 55.0962 72.3267 55.1472C71.7853 55.2004 71.2455 55.269 70.7079 55.3527C70.1586 55.4392 69.6144 55.555 69.0775 55.6995C68.5642 55.8334 68.0779 56.0549 67.64 56.3542C67.2181 56.6456 66.8775 57.0347 66.6111 57.523C66.3454 58.0115 66.2126 58.6324 66.2126 59.3855C66.2126 60.0699 66.3285 60.6602 66.5603 61.1566C66.7787 61.6385 67.109 62.0614 67.5236 62.3902C67.9501 62.7231 68.4388 62.9675 68.961 63.1089C69.5079 63.2631 70.0985 63.3402 70.7329 63.3402C71.5509 63.3403 72.3645 63.2192 73.147 62.9808C73.9293 62.7435 74.6374 62.309 75.2032 61.7191C75.2209 61.9425 75.2509 62.1613 75.2931 62.3753C75.3363 62.5881 75.3921 62.7981 75.4603 63.0042H79.1587C78.9868 62.7303 78.8668 62.3191 78.7986 61.7706C78.7303 61.2238 78.6962 60.6501 78.6962 60.0495V53.1409C78.6962 52.3363 78.5165 51.6896 78.1571 51.2011C77.7948 50.7126 77.3181 50.3204 76.7689 50.0589C76.1767 49.7776 75.544 49.5912 74.8939 49.5066C74.2095 49.4123 73.5334 49.3652 72.8657 49.3652M88.6587 49.3652C87.8889 49.3652 87.1358 49.5407 86.3993 49.8917C85.6629 50.2428 85.0637 50.8034 84.6017 51.5738H84.5251V49.7245H81.0579V63.0027H84.7048V56.0433C84.7048 54.6896 84.9275 53.718 85.3728 53.1284C85.8181 52.5378 86.5371 52.2425 87.5298 52.2425C88.4032 52.2425 89.0113 52.512 89.354 53.0511C89.6957 53.5902 89.8668 54.4079 89.8673 55.5042V63.0027H93.5142V54.8363C93.5142 54.0149 93.4413 53.2657 93.2954 52.5886C93.1496 51.9126 92.897 51.3394 92.5376 50.8691C92.1782 50.3982 91.6861 50.03 91.0611 49.7644C90.4361 49.4988 89.6353 49.3652 88.6587 49.3652ZM39.7782 49.7245V56.6847C39.7782 58.0368 39.5558 59.0087 39.1111 59.6003C38.6657 60.1915 37.9467 60.4868 36.954 60.4863C36.0806 60.4863 35.4728 60.2167 35.1306 59.6777C34.7879 59.1381 34.6165 58.3204 34.6165 57.2245V49.7253H30.9689V57.8933C30.9689 58.7152 31.0415 59.4641 31.1868 60.1402C31.3327 60.8167 31.5853 61.3904 31.9446 61.8613C32.304 62.3321 32.7962 62.6959 33.4212 62.9527C34.0467 63.2089 34.8473 63.337 35.8228 63.337C36.5936 63.337 37.3473 63.1659 38.0837 62.8238C38.8202 62.4816 39.4196 61.9251 39.8821 61.1542H39.9587V63.0027H43.4267V49.7245H39.7782ZM61.0751 49.7253L56.4782 54.5011L56.4876 55.0159L61.5384 63.0027H65.9556L60.3829 54.6042L65.3915 49.7253H61.0751ZM52.2353 51.3495V63.0027H55.8814V54.3441C54.94 53.1956 53.4001 51.9988 52.2353 51.3495ZM75.047 56.5058V57.8675C75.0414 58.1422 75.0198 58.4164 74.9821 58.6886C74.9348 59.0461 74.8172 59.3908 74.636 59.7027C74.4485 60.037 74.1577 60.324 73.7634 60.5636C73.3691 60.8027 72.8126 60.9222 72.0939 60.9222C71.8027 60.9222 71.5202 60.8967 71.2462 60.8456C70.9917 60.8023 70.7477 60.7108 70.5275 60.5761C70.3219 60.4458 70.1536 60.2644 70.0392 60.0495C69.9194 59.8271 69.8595 59.5534 69.8595 59.2284C69.8595 58.8857 69.9194 58.6032 70.0392 58.3808C70.1541 58.1634 70.3165 57.9746 70.5142 57.8284C70.7253 57.6763 70.9595 57.5592 71.2079 57.4816C71.4734 57.3974 71.7437 57.329 72.0173 57.2769C72.3071 57.2253 72.5984 57.1823 72.8907 57.148C73.1703 57.1153 73.4486 57.0726 73.7251 57.0199C73.9907 56.9688 74.2389 56.9045 74.4696 56.8269C74.7004 56.7493 74.8928 56.6417 75.047 56.5058ZM98.0095 59.1159C96.8946 59.1159 96.0056 59.9808 96.0056 61.0597C96.0056 62.1613 96.8946 63.0269 98.0095 63.0269C99.1345 63.0269 100 62.1613 100 61.0597C100 59.9816 99.1345 59.1159 98.0095 59.1159ZM98.0087 59.5066C98.8743 59.5066 99.5025 60.2058 99.5025 61.0714C99.5025 61.9245 98.8743 62.6113 98.0212 62.6113C97.1439 62.6113 96.504 61.9253 96.504 61.0597C96.504 60.2066 97.1439 59.5074 98.0087 59.5066ZM97.997 60.0753C97.7467 60.0711 97.4966 60.091 97.2501 60.1347V62.0784H97.7017V61.2956H97.915C98.1642 61.2956 98.2821 61.3909 98.3173 61.6042C98.3767 61.8292 98.4118 62.0066 98.4712 62.0777H98.9579C98.9103 62.0074 98.8751 61.8886 98.8157 61.5917C98.7564 61.3308 98.6493 61.1894 98.4595 61.1183V61.0949C98.6962 61.0238 98.8626 60.8574 98.8626 60.6441C98.865 60.5633 98.8491 60.483 98.8163 60.4092C98.7834 60.3353 98.7344 60.2698 98.6728 60.2175C98.5298 60.1347 98.3642 60.0753 97.997 60.0753ZM97.9611 60.3956C98.2454 60.3956 98.3759 60.5144 98.3759 60.6925C98.3759 60.8941 98.1743 60.9769 97.9259 60.9769H97.7118V60.4191C97.7587 60.4074 97.8423 60.3956 97.9611 60.3956Z" fill="#AC162C"/>
</g>
<defs>
<clipPath id="clip0_1085_4787">
<rect width="100" height="100" fill="white"/>
</clipPath>
</defs>
</svg>
