<svg width="100" height="100" viewBox="0 0 100 100" fill="none" xmlns="http://www.w3.org/2000/svg">
<g clip-path="url(#clip0_1085_4789)">
<path d="M56.9999 82.9297L26.9241 52.8617C25.6991 51.5875 25.0241 49.8625 25.0241 47.9383V5.02344C25.0241 2.52422 22.5241 0.025 20.0241 0.025H9.99829C7.49829 0.025 4.99829 2.52422 4.99829 5.02344V55.0109C4.99829 57.6602 5.97329 60.2102 7.84829 62.0844L42.8491 97.0758C43.7773 98.0058 44.8804 98.743 46.0948 99.2449C47.3092 99.7467 48.6109 100.003 49.9249 100H54.9249C57.6999 100 59.9249 97.7508 59.9249 95.0016V90.0273C59.9286 88.7137 59.672 87.4123 59.17 86.1984C58.6679 84.9844 57.9304 83.882 56.9999 82.9547V82.9297ZM95.0014 4.99844C95.0014 2.47422 92.5264 0 90.0014 0H79.9764C77.4764 0 74.9764 2.49922 74.9764 4.99844V47.8883C74.9808 49.7357 74.2628 51.5115 72.9756 52.8367L62.9006 62.9094C61.9704 63.837 61.233 64.9396 60.731 66.1537C60.229 67.3677 59.9722 68.6691 59.9756 69.9828V74.9812C59.9755 75.6378 60.1048 76.288 60.3561 76.8945C60.6073 77.5011 60.9756 78.0523 61.44 78.5165C61.9043 78.9806 62.4555 79.3488 63.0622 79.5999C63.6689 79.8509 64.3191 79.98 64.9756 79.9797H69.9756C72.5256 79.9797 75.1006 79.0055 77.0514 77.0555L92.0514 62.0594C92.9796 61.1303 93.7157 60.0276 94.2178 58.814C94.7198 57.6005 94.9778 56.3 94.9772 54.9867V4.99844H95.0014Z" fill="#9F4CF2"/>
</g>
<defs>
<clipPath id="clip0_1085_4789">
<rect width="100" height="100" fill="white"/>
</clipPath>
</defs>
</svg>
