<svg width="100" height="100" viewBox="0 0 100 100" fill="none" xmlns="http://www.w3.org/2000/svg">
<path d="M8.33281 12.5C6.8596 12.5006 5.44691 13.0861 4.40519 14.1278C3.36347 15.1696 2.77796 16.5823 2.77734 18.0555C2.77734 21.1227 4.81641 22.8727 8.33281 23.6117C8.33281 23.6117 9.89766 24.0859 13.8883 24.6398V37.5H5.55547C4.08226 37.5006 2.66956 38.0861 1.62785 39.1278C0.586127 40.1696 0.000621128 41.5823 0 43.0555C0.00041408 44.5288 0.585829 45.9417 1.62757 46.9836C2.66931 48.0255 4.08212 48.6111 5.55547 48.6117H13.8883V90.2773C13.8889 91.7507 14.4745 93.1635 15.5164 94.2052C16.5583 95.247 17.9712 95.8324 19.4445 95.8328C20.9177 95.8322 22.3304 95.2467 23.3722 94.205C24.4139 93.1632 24.9994 91.7505 25 90.2773V48.6117H75V90.2773C75.0006 91.7505 75.5861 93.1632 76.6278 94.205C77.6696 95.2467 79.0823 95.8322 80.5555 95.8328C82.0288 95.8324 83.4417 95.247 84.4836 94.2052C85.5255 93.1635 86.1111 91.7507 86.1117 90.2773V48.6117H94.4445C95.918 48.6111 97.3309 48.0254 98.3727 46.9833C99.4145 45.9413 99.9998 44.5282 100 43.0547C99.9992 41.5816 99.4136 40.1691 98.3719 39.1276C97.3302 38.086 95.9176 37.5006 94.4445 37.5H86.1117V24.6406C90.1023 24.0859 91.6672 23.6117 91.6672 23.6117C95.0531 22.8305 97.2227 21.1227 97.2227 18.0555C97.222 16.5823 96.6365 15.1696 95.5948 14.1278C94.5531 13.0861 93.1404 12.5006 91.6672 12.5H8.33281ZM25 25.7047C30.0094 26.0266 36.3781 26.2789 44.4445 26.3594V37.5H25V25.7047ZM75 25.7047V37.5H55.5555V26.3594C63.6219 26.2789 69.9906 26.0266 75 25.7047Z" fill="#DD2E44"/>
<path d="M99.7391 9.72246C99.7391 12.7896 97.9086 14.7146 94.4391 15.2787C94.4391 15.2787 83.3281 18.0561 49.9969 18.0561C16.6688 18.0561 5.56097 15.2787 5.56097 15.2787C2.30863 14.7561 0.303157 12.8178 0.303157 9.75059C0.303157 6.68105 -0.28278 1.38965 2.78363 1.38965C2.78363 1.38965 13.8914 6.94434 49.9969 6.94434C86.1024 6.94434 97.2141 1.38965 97.2141 1.38965C100.284 1.38965 99.7391 6.65371 99.7391 9.72246ZM30.5555 93.0561C30.5549 94.5293 29.9694 95.942 28.9277 96.9837C27.8859 98.0254 26.4732 98.6109 25 98.6115H13.8891C12.416 98.6109 11.0034 98.0255 9.96175 96.984C8.92005 95.9424 8.33445 94.5299 8.33362 93.0568C8.33404 91.5836 8.91935 90.1709 9.96092 89.129C11.0025 88.0871 12.4151 87.5014 13.8883 87.5006H25C26.4732 87.5012 27.8859 88.0867 28.9277 89.1284C29.9694 90.1702 30.5549 91.5828 30.5555 93.0561ZM91.6664 93.0561C91.6658 94.5291 91.0804 95.9417 90.0389 96.9834C88.9973 98.0251 87.5848 98.6107 86.1117 98.6115H75C73.5269 98.6109 72.1144 98.0255 71.0727 96.984C70.031 95.9424 69.4454 94.5299 69.4446 93.0568C69.445 91.5835 70.0304 90.1706 71.0721 89.1287C72.1139 88.0868 73.5267 87.5012 75 87.5006H86.111C87.5842 87.5012 88.9969 88.0867 90.0386 89.1284C91.0803 90.1702 91.6658 91.5828 91.6664 93.0561Z" fill="#292F33"/>
</svg>
