<svg width="100" height="100" viewBox="0 0 100 100" fill="none" xmlns="http://www.w3.org/2000/svg">
<path d="M85.19 20.3357C81.7775 18.3638 78.7181 17.4045 76.1119 17.0177C75.4322 15.531 73.7658 13.7849 70.3799 11.8521C59.2689 5.50679 48.1642 11.7857 48.1642 11.7857L33.347 20.3357L40.7525 24.6084L55.5627 16.0584C55.5627 16.0584 59.2681 13.9177 62.9674 16.0584C66.6736 18.1974 62.9674 20.3373 62.9674 20.3373L48.158 28.8888L55.5635 33.1615L70.3861 24.6013C70.6064 24.4748 74.1924 22.5349 77.7783 24.6091C81.4838 26.749 77.7783 28.8818 77.7783 28.8818L62.9681 37.4349L70.3728 41.7138L88.8892 31.0232C88.8892 31.0232 96.2947 26.7498 85.19 20.338V20.3357Z" fill="#F16822"/>
<path d="M33.3469 20.3364C33.3469 20.3364 29.6406 22.4771 29.6406 26.7497V48.1052C29.6406 48.1052 29.6406 52.3849 25.9352 50.245C22.2289 48.1044 22.2289 43.8333 22.2289 43.8333V22.4771C22.2289 22.2104 22.2422 21.9505 22.2687 21.6974C22.675 17.938 25.9281 16.0583 25.9281 16.0583L18.5227 11.7864C18.5227 11.7864 18.5148 11.7864 18.5094 11.7942C18.2898 11.9208 14.8172 14.0599 14.8172 18.1989V39.5552C14.8172 39.5552 14.8172 43.8341 11.1109 41.695C7.40625 39.5536 7.40625 35.2817 7.40625 35.2817V13.9278C7.40625 9.6544 11.1117 7.51533 11.1117 7.51533L3.70625 3.23486C3.70625 3.23486 0 5.37549 0 9.64736V31.0036C0 31.0036 0 43.8341 11.1109 50.2458C14.5172 52.2122 16.8766 52.3661 18.5164 51.6395C20.1562 54.2591 22.5156 56.8317 25.9219 58.7981C37.0328 65.2099 37.0328 52.3856 37.0328 52.3856V31.0302C37.0328 26.7513 40.7383 24.6177 40.7383 24.6177L33.3469 20.3364Z" fill="#808285"/>
<path d="M62.9688 37.4409C62.9688 37.4409 59.2617 39.58 59.2617 43.8526V65.2089C59.2617 65.2089 59.2617 69.487 55.5555 67.3479C51.85 65.2073 51.8492 60.9362 51.8492 60.9362L44.4453 56.6565C44.4453 56.6565 44.4453 69.4878 55.5562 75.8987C66.668 82.3128 66.668 69.487 66.668 69.487V48.1331C66.668 43.8597 70.3727 41.7198 70.3727 41.7198L62.9688 37.4409ZM44.4578 39.6276V48.1784L51.8633 52.4511V43.8987L44.4578 39.6276ZM79.6344 48.7214C76.8563 48.7417 74.0781 50.3456 74.0781 56.6776C74.0781 69.3417 85.1898 75.919 85.1898 75.919L88.8961 78.0597C88.8961 78.0597 92.6008 80.1987 92.6008 84.4714C92.6008 88.7503 88.8961 86.6105 88.8961 86.6105L74.0781 78.0581V86.6105L88.8883 95.1636C88.8883 95.1636 100 101.575 100 88.7495C100 75.9261 92.5945 71.6464 92.5945 71.6464L85.1898 67.3737C85.1898 67.3737 81.4836 65.2347 81.4836 60.962C81.4836 56.6761 85.1898 58.8167 85.1898 58.8167V58.8151L100 67.3675V58.8167L85.1898 50.2659C85.1898 50.2659 82.4117 48.7019 79.6344 48.7214Z" fill="#BCBEC0"/>
</svg>
