<svg width="100" height="100" viewBox="0 0 100 100" fill="none" xmlns="http://www.w3.org/2000/svg">
<g clip-path="url(#clip0_867_13795)">
<path d="M61.4384 -0.000976562C61.4384 0.175571 61.4384 0.352118 61.4384 0.537957C61.4384 3.579 60.2303 6.49549 58.08 8.64583C55.9297 10.7962 53.0132 12.0042 49.9721 12.0042C46.9311 12.0042 44.0146 10.7962 41.8643 8.64583C39.7139 6.49549 38.5059 3.579 38.5059 0.537957C38.5059 0.352118 38.5059 0.175571 38.5059 -0.000976562H0V99.999H100V-0.000976562H61.4384ZM47.7235 89.2947L42.8545 65.2007H42.7709L37.5023 89.2947H30.7935L23.1927 53.8924H29.8179L34.3524 77.9864H34.436L39.8997 53.8924H46.0974L51.0035 78.2837H51.0872L56.2628 53.8924H62.7671L54.3208 89.2947H47.7235ZM84.2037 89.2947L81.9457 81.4151H70.0242L68.2866 89.2947H61.6614L70.2286 53.8924H80.682L91.0983 89.2947H84.2037Z" fill="#654FF0"/>
<path d="M74.2147 62.6177L71.325 75.6078H80.3196L77.0023 62.6177H74.2147Z" fill="#654FF0"/>
</g>
<defs>
<clipPath id="clip0_867_13795">
<rect width="100" height="100" fill="white"/>
</clipPath>
</defs>
</svg>
