<svg width="100" height="100" viewBox="0 0 100 100" fill="none" xmlns="http://www.w3.org/2000/svg">
<g clip-path="url(#clip0_1085_4800)">
<path d="M0.776611 0.777344V99.2242H99.2235V0.777344H0.776611ZM56.9641 33.3672C56.9641 33.3672 60.0797 56.8484 60.0797 57.932L64.5993 43.7758H64.568C66.5618 38.4164 70.4891 33.3672 77.968 33.3672L67.3719 58.9531C66.4522 61.8524 64.6276 64.3852 62.1625 66.1844C59.6974 67.9837 56.72 68.9559 53.6618 68.9602C53.6618 68.9602 50.5446 46.9656 50.5446 46.4695L45.8711 58.5516C43.7829 63.9109 39.7329 68.9602 32.254 68.9602L26.3946 33.3992C29.246 33.4703 31.9722 34.5783 34.0569 36.5134C36.1416 38.4485 37.44 41.0763 37.7063 43.8992C37.7063 43.8992 38.486 56.9406 38.486 57.9625L44.0016 43.775C45.9961 38.4156 49.7969 33.3672 56.9641 33.3672Z" fill="#4353FF"/>
</g>
<defs>
<clipPath id="clip0_1085_4800">
<rect width="100" height="100" fill="white"/>
</clipPath>
</defs>
</svg>
