<svg width="100" height="100" viewBox="0 0 100 100" fill="none" xmlns="http://www.w3.org/2000/svg">
<g clip-path="url(#clip0_1085_4808)">
<path d="M64.0627 69.1396C62.5784 69.1396 61.1721 68.8272 59.7659 68.2022C56.6409 66.874 53.9846 64.2959 51.719 60.8584C52.344 59.7647 52.8909 58.5928 53.4377 57.4209C55.6252 52.2646 56.719 46.5615 56.7971 40.9365V40.3115C56.7971 38.124 56.4846 35.8584 55.7034 33.8271C54.844 31.4053 53.4377 29.0615 51.2502 28.124C50.8596 27.9678 50.3909 27.8897 50.0002 27.8897C47.1877 22.6553 47.1096 17.7334 50.0002 12.9678H50.1565C53.5159 12.9678 56.8752 14.0615 59.7659 15.8584C67.5784 20.8584 71.4846 30.4678 71.5627 39.999V40.3115H71.6409C71.5627 50.3896 69.1409 60.624 64.0627 69.1396ZM46.719 84.9209C39.4534 87.8897 30.9377 87.7334 23.7502 84.374C15.469 80.5459 9.06273 72.9678 5.15648 64.4521C-1.56227 49.7646 -1.71852 32.2646 4.68773 17.4209C9.45335 19.2959 13.6721 16.3272 13.6721 16.3272C13.6721 16.3272 13.6721 21.0147 18.2034 23.3584C13.594 34.2178 13.6721 47.1865 18.3596 57.8115C20.6252 62.8896 24.0627 67.6553 28.7502 70.3896C30.469 71.3271 32.344 71.9522 34.219 72.1865C37.5784 77.3428 41.8752 81.7959 46.719 84.9209Z" fill="url(#paint0_linear_1085_4808)"/>
<path opacity="0.3" fill-rule="evenodd" clip-rule="evenodd" d="M64.0628 69.1392C62.5784 69.1392 61.1721 68.8267 59.7659 68.2017C56.6409 66.8736 53.9846 64.2954 51.719 60.8579C52.344 59.7642 52.8909 58.5923 53.4378 57.4204C54.1409 55.8579 54.6878 54.2954 55.1565 52.6548C56.2503 48.9048 70.469 53.6704 68.3596 59.9204C67.1878 63.1236 65.7815 66.2486 64.0628 69.1392ZM46.719 84.9204C39.4534 87.8892 30.9378 87.7329 23.7503 84.3736C15.469 80.5454 23.9846 67.5767 28.7503 70.2329C30.469 71.1704 32.2659 71.7954 34.219 72.0298C37.5784 77.3423 41.8753 81.7954 46.719 84.9204Z" fill="url(#paint1_linear_1085_4808)"/>
<path d="M28.4377 40.3892V40.0767C28.5159 30.5454 32.4221 20.8579 40.2346 15.936C43.1252 14.1392 46.4846 13.0454 49.844 13.0454H50.0002V27.9673C49.6096 27.9673 49.1409 28.0454 48.7502 28.2017C46.5627 29.1392 45.1565 31.561 44.2971 33.9048C43.5159 36.0142 43.2034 38.2017 43.2034 40.3892V41.0142C43.2815 46.6392 44.2971 52.2642 46.5627 57.4204C48.9846 63.2798 52.969 68.5923 58.594 71.0142C62.8127 72.8892 67.5002 72.4204 71.3284 70.2329C76.094 67.5767 79.5315 62.811 81.719 57.6548C86.4065 47.0298 86.4846 34.1392 81.8752 23.2017C86.4065 20.8579 86.4065 16.1704 86.4065 16.1704C86.4065 16.1704 90.6252 19.2173 95.3909 17.2642C101.719 32.1079 101.563 49.686 94.9221 64.2954C91.0159 72.8892 84.6878 80.3892 76.3284 84.2173C68.9065 87.6548 60.2346 87.7329 52.8127 84.5298C46.094 81.7954 40.6252 76.561 36.719 70.4673C31.094 61.6392 28.4377 50.936 28.4377 40.3892Z" fill="url(#paint2_linear_1085_4808)"/>
</g>
<defs>
<linearGradient id="paint0_linear_1085_4808" x1="-0.00091861" y1="49.9996" x2="48.8576" y2="49.9996" gradientUnits="userSpaceOnUse">
<stop stop-color="#00D2E6"/>
<stop offset="1" stop-color="#2ECCAA"/>
</linearGradient>
<linearGradient id="paint1_linear_1085_4808" x1="30.4652" y1="75.5804" x2="56.3819" y2="59.0614" gradientUnits="userSpaceOnUse">
<stop stop-opacity="0"/>
<stop offset="0.514"/>
<stop offset="1" stop-opacity="0"/>
</linearGradient>
<linearGradient id="paint2_linear_1085_4808" x1="100" y1="49.9991" x2="51.2248" y2="49.9991" gradientUnits="userSpaceOnUse">
<stop stop-color="#1FA385"/>
<stop offset="1" stop-color="#2ECCAA"/>
</linearGradient>
<clipPath id="clip0_1085_4808">
<rect width="100" height="100" fill="white"/>
</clipPath>
</defs>
</svg>
