<svg width="100" height="100" viewBox="0 0 100 100" fill="none" xmlns="http://www.w3.org/2000/svg">
<g clip-path="url(#clip0_867_13786)">
<path d="M50.1916 0L5.99996 25V75L50.1916 100L94.3833 75V25L50.1916 0Z" fill="white"/>
<path d="M13.8918 73.2749L48.7335 92.9833V77.6333L27.0252 65.6916L13.8918 73.2749ZM11.5085 71.1166V29.8999L24.2585 37.2583V63.7499L11.5085 71.1166ZM86.6335 73.2749L51.7918 92.9833V77.6333L73.5002 65.6916L86.6335 73.2749ZM89.0168 71.1166V29.8999L76.2668 37.2583V63.7499L89.0168 71.1166ZM87.5252 27.2333L51.7918 7.0166V21.8583L74.6835 34.4499L74.8585 34.5499L87.5252 27.2333ZM13.0002 27.2333L48.7335 7.0166V21.8583L25.8418 34.4499L25.6668 34.5499L13.0002 27.2333Z" fill="#8ED6FB"/>
<path d="M51.7916 74.1416L73.2083 62.3666V39.0333L51.7916 51.4V74.1416ZM48.7333 74.1416L27.3166 62.3666V39.0333L48.7333 51.4V74.1416ZM71.7583 36.3333L50.2583 24.5083L28.7583 36.3333L50.2583 48.75L71.7583 36.3333Z" fill="#1C78C0"/>
</g>
<defs>
<clipPath id="clip0_867_13786">
<rect width="100" height="100" fill="white"/>
</clipPath>
</defs>
</svg>
