<svg width="100" height="100" viewBox="0 0 100 100" fill="none" xmlns="http://www.w3.org/2000/svg">
<g clip-path="url(#clip0_1085_4816)">
<path d="M9.09326 75.0833L9.09561 93.638C9.09561 94.4736 9.2602 95.301 9.58 96.073C9.89979 96.845 10.3685 97.5464 10.9594 98.1372C11.5503 98.7281 12.2518 99.1967 13.0238 99.5164C13.7958 99.8361 14.6233 100.001 15.4589 100H33.4378C34.3558 100 35.2629 99.8017 36.0969 99.4182C36.9309 99.0347 37.6722 98.4754 38.2698 97.7786L89.3769 38.1536C90.3647 37.0002 90.9078 35.5316 90.9081 34.013V15.4583C90.9082 14.6227 90.7437 13.7952 90.424 13.0231C90.1043 12.2511 89.6357 11.5495 89.0449 10.9586C88.4541 10.3676 87.7527 9.89879 86.9807 9.57891C86.2087 9.25903 85.3812 9.09434 84.5456 9.09424H66.5628C65.6448 9.09437 64.7377 9.293 63.9037 9.67651C63.0697 10.06 62.3284 10.6193 61.7308 11.3161L10.6253 70.9411C9.63706 72.095 9.09396 73.5641 9.09404 75.0833H9.09326Z" fill="#F0EB18"/>
<path d="M9.09326 77.311V93.6357C9.09326 97.1479 11.9429 99.9975 15.455 99.9975H35.9117C36.2156 99.9975 36.516 99.9761 36.8129 99.9334L94.5353 91.6909C96.0529 91.4746 97.4413 90.7177 98.4452 89.5593C99.4491 88.4009 100.001 86.919 99.9995 85.3861V60.9008C99.9995 57.3851 97.1498 54.5355 93.6341 54.5391L64.6678 54.5462C63.9839 54.5462 63.3036 54.653 62.6553 54.8703L13.4425 71.277C12.1767 71.7013 11.0761 72.5123 10.2958 73.5955C9.51548 74.6788 9.09487 75.976 9.09326 77.311Z" fill="url(#paint0_linear_1085_4816)"/>
<path d="M0.00293069 6.36371V59.4378C0.00293069 61.981 1.52035 64.2821 3.85703 65.2866L62.4344 90.3917C63.2251 90.7301 64.08 90.9046 64.942 90.9046H93.6341C97.1498 90.9046 99.9994 88.055 99.9994 84.5428V56.4742C99.9994 55.2132 99.6254 53.9843 98.9272 52.9406L65.487 2.83376C64.9051 1.96345 64.1177 1.24984 63.1946 0.755953C62.2714 0.26207 61.2408 0.00311078 60.1939 0.00195412H6.36469C5.52912 0.00148589 4.70165 0.165724 3.9296 0.485266C3.15754 0.804809 2.45604 1.27339 1.8652 1.86423C1.27437 2.45507 0.80578 3.15656 0.486237 3.92862C0.166695 4.70067 0.00246245 5.52814 0.00293069 6.36371Z" fill="url(#paint1_linear_1085_4816)"/>
<path d="M81.2486 18.75H18.751V81.2477H81.2486V18.75Z" fill="black"/>
<path d="M33.1842 43.6883L29.3999 26.5742H24.6624L30.3217 50.018H35.5131L39.5147 32.9875L43.467 50.018H48.6741L54.3678 26.5742H49.7295L46.0616 43.6883L41.842 26.5742H37.2202L33.1842 43.6883ZM59.7217 49.4992C61.0389 50.1133 62.546 50.4206 64.2428 50.4211C65.9407 50.4211 67.4483 50.1081 68.7655 49.482C70.0821 48.857 71.1035 47.9977 71.8295 46.9039C72.5665 45.7977 72.935 44.5526 72.935 43.1687C72.935 42.0401 72.6837 41.0018 72.1811 40.0539C71.6802 39.0934 70.957 38.2665 70.0717 37.6422C69.1785 36.9833 68.1569 36.537 67.0069 36.3031L63.021 35.432C62.2954 35.2549 61.7204 34.9536 61.2959 34.5281C60.8829 34.1026 60.6764 33.5667 60.6764 32.9203C60.6764 32.3516 60.8272 31.8549 61.1288 31.4305C61.4303 30.9945 61.8488 30.6596 62.3842 30.4258C62.9311 30.1805 63.5618 30.0576 64.2764 30.057C64.99 30.057 65.6207 30.1852 66.1686 30.4414C66.7264 30.6867 67.1561 31.0383 67.4577 31.4961C67.7587 31.9424 67.9092 32.4508 67.9092 33.0211H72.4811C72.4697 31.682 72.1124 30.4987 71.4092 29.4711C70.7165 28.4315 69.7452 27.6221 68.4952 27.043C67.2452 26.4625 65.7999 26.1719 64.2249 26.1719C62.6509 26.1719 61.2444 26.4732 60.0053 27.0758C58.7668 27.6674 57.8012 28.499 57.1084 29.5703C56.4168 30.6318 56.071 31.8318 56.071 33.1703C56.071 34.276 56.2996 35.2698 56.7569 36.1516C57.2157 37.0344 57.8753 37.7973 58.6827 38.3789C59.5092 38.9711 60.4806 39.3898 61.5967 39.6352L65.7334 40.5562C66.5262 40.7469 67.1457 41.0875 67.592 41.5781C68.0493 42.0698 68.278 42.6896 68.278 43.4375C68.2859 44.013 68.1099 44.576 67.7756 45.0445C67.4522 45.5133 66.9892 45.8818 66.3866 46.15C65.7944 46.4078 65.1358 46.5344 64.3092 46.5344C63.4832 46.5344 62.7522 46.3893 62.1163 46.0992C61.4803 45.8086 60.9834 45.4068 60.6256 44.8937C60.2689 44.3802 60.0905 43.7831 60.0905 43.1023H55.5022C55.5241 44.5424 55.9035 45.8151 56.6405 46.9203C57.3884 48.0255 58.4155 48.8852 59.7217 49.4992ZM26.5522 68.7477H51.5522V73.4352H26.5522V68.7477Z" fill="white"/>
</g>
<defs>
<linearGradient id="paint0_linear_1085_4816" x1="11.9104" y1="101.117" x2="95.6995" y2="62.2702" gradientUnits="userSpaceOnUse">
<stop offset="0.22" stop-color="#F0EB18"/>
<stop offset="0.59" stop-color="#00C4F4"/>
</linearGradient>
<linearGradient id="paint1_linear_1085_4816" x1="93.7792" y1="93.3981" x2="2.05442" y2="1.6749" gradientUnits="userSpaceOnUse">
<stop offset="0.19" stop-color="#00C4F4"/>
<stop offset="0.83" stop-color="#007DFE"/>
</linearGradient>
<clipPath id="clip0_1085_4816">
<rect width="100" height="100" fill="white"/>
</clipPath>
</defs>
</svg>
