<svg width="100" height="100" viewBox="0 0 100 100" fill="none" xmlns="http://www.w3.org/2000/svg">
<g clip-path="url(#clip0_867_13779)">
<path fill-rule="evenodd" clip-rule="evenodd" d="M99.0513 21.1558H98.0984C93.0831 21.148 89.0129 25.2103 89.0129 30.2257V50.5101C89.0129 54.5607 85.6654 57.8419 81.681 57.8419C79.3139 57.8419 76.9507 56.6505 75.5486 54.6506L54.8303 25.0619C53.1117 22.6049 50.3152 21.1401 47.288 21.1401C42.5653 21.1401 38.3155 25.1556 38.3155 30.1125V50.514C38.3155 54.5647 34.9953 57.8458 30.9837 57.8458C28.6088 57.8458 26.2495 56.6544 24.8472 54.6545L1.66449 21.5464C1.14108 20.8003 -0.034668 21.1675 -0.034668 22.0815V39.7722C-0.034668 40.6667 0.238756 41.5339 0.750471 42.2682L23.5621 74.849C24.9097 76.7746 26.8979 78.2043 29.1908 78.7239C34.9289 80.0286 40.2099 75.6109 40.2099 69.982V49.5922C40.2099 45.5415 43.4912 42.2604 47.5415 42.2604H47.5536C49.9948 42.2604 52.2839 43.4518 53.686 45.4517L74.4038 75.0366C76.1263 77.4972 78.7788 78.9584 81.9427 78.9584C86.7709 78.9584 90.907 74.9387 90.907 69.9859V49.5883C90.907 45.5377 94.1882 42.2565 98.2389 42.2565H99.0474C99.5553 42.2565 99.9653 41.8464 99.9653 41.3386V22.0698C99.9653 21.562 99.5553 21.1519 99.0474 21.1519L99.0513 21.1558Z" fill="black"/>
</g>
<defs>
<clipPath id="clip0_867_13779">
<rect width="100" height="100" fill="white"/>
</clipPath>
</defs>
</svg>
