<svg width="100" height="100" viewBox="0 0 100 100" fill="none" xmlns="http://www.w3.org/2000/svg">
<g clip-path="url(#clip0_1085_4826)">
<path d="M48.9018 0C1.7424 0 0.268964 46.5445 0.268964 46.5445C0.268964 46.5445 -6.66853 100 49.9877 100C104.328 100 99.9143 48.5211 99.9143 48.5211C99.9143 48.5211 102.227 0 48.9018 0ZM48.4557 1.53828C52.0901 1.42422 55.5447 1.78594 58.8588 3.4C60.1026 4.00625 61.4041 4.50703 62.5963 5.19922C63.1776 5.53672 63.569 6.20156 64.0463 6.71875C64.4244 7.12969 64.7291 7.67969 65.1947 7.92734C66.9604 8.86719 68.9057 8.90391 70.8869 8.85703L70.9307 8.19297C72.9244 8.81563 75.1682 11.1148 75.1651 12.7945C71.9346 12.7945 68.7072 12.782 65.4799 12.8125C65.1354 12.8156 64.7924 13.068 64.4487 13.2039C64.7752 13.3945 65.0963 13.7375 65.4291 13.75L65.4276 13.7492C67.2979 13.818 69.1713 13.7898 71.0424 13.8336C71.5101 13.8648 71.9731 13.9294 72.4315 14.0273C72.0131 14.6702 71.5409 15.2763 71.0197 15.8391C70.351 16.4625 69.5947 17.0719 68.6307 16.1242C68.3994 15.8961 67.8518 15.9484 67.4479 15.943C65.5869 15.9187 63.7244 15.8594 61.8658 15.9297C60.2537 15.9802 58.6471 16.1442 57.058 16.4203C56.7604 16.4734 56.3143 17.4641 56.4518 17.8289C56.7744 18.6906 57.2463 19.6414 57.944 20.1922C60.5244 22.2289 63.2682 24.0578 65.8604 26.0805C68.3791 28.0461 70.7229 30.2 72.1518 33.1648C74.0135 37.0281 74.0674 41.0789 73.2651 45.1477C71.9252 51.9406 68.4869 57.568 62.9213 61.6555C60.6776 63.3023 57.901 64.2367 55.3315 65.4203C53.0721 66.4609 50.7471 67.3578 48.4822 68.3875C44.3994 70.2445 42.1049 74.6766 42.7791 79.2836C43.3994 83.5117 47.1088 87.0398 51.3572 87.768C56.4549 88.643 61.7151 85.3305 62.9619 80.1484C64.3643 74.3227 61.1987 69.1211 55.2744 67.5445C55.0127 67.475 54.751 67.4094 54.2065 67.2687C55.7916 66.5602 57.1596 66.0563 58.4244 65.3602C60.6301 64.1468 62.7956 62.8617 64.9174 61.507C65.5424 61.107 65.8799 61.107 66.4127 61.5672C70.4877 65.0906 72.919 69.4734 73.6002 74.8477C74.7283 83.7422 70.5182 91.9133 62.5768 96.1008C50.2901 102.58 35.2549 95.2055 32.5416 81.5836C30.2166 69.9164 38.4518 59.3336 48.3619 57.2898C52.6244 56.4109 56.5213 54.6359 59.5518 51.3531C61.5065 49.2359 62.4549 47.418 62.7776 46.5984C63.3783 45.0616 63.6857 43.4258 63.6838 41.7758C63.6183 40.3482 63.2832 38.946 62.6963 37.643C61.6619 35.2844 57.6979 31.5336 56.7166 30.7414L47.383 23.4344C47.0541 23.1641 46.6838 23.1836 45.8807 23.2383C44.9276 23.3023 42.4901 23.4375 41.4377 23.1617C42.2885 22.518 44.6088 21.5805 45.6049 20.8258C42.5799 18.7836 39.1283 19.5211 35.958 18.9117C36.6908 17.5461 40.3174 15.4477 42.3807 15.2141C42.2585 14.0618 42.0707 12.9175 41.8182 11.7867C41.6924 11.3227 41.1752 10.8734 40.7237 10.6086C39.6276 9.96641 38.4658 9.43672 37.2065 8.79766C38.3344 8.06887 39.6413 7.66477 40.9838 7.62969C42.2556 7.5806 43.5281 7.70438 44.7666 7.99766C47.0143 8.51172 48.8072 8.17578 50.5955 6.64844C49.1885 6.08125 47.7815 5.56406 46.4158 4.95156C45.0716 4.33799 43.7611 3.65289 42.4901 2.89922C46.0307 3.39141 49.4557 4.71797 53.076 4.23281L53.1682 3.73906L44.758 1.78203C45.9879 1.66379 47.221 1.5825 48.4557 1.53828ZM61.9526 8.64531C61.708 8.64766 61.4822 8.8 61.2612 8.96953C61.1961 9.01048 61.1415 9.06606 61.1017 9.13183C61.0619 9.19761 61.0381 9.27176 61.032 9.34839C61.0259 9.42502 61.0378 9.502 61.0668 9.57322C61.0957 9.64443 61.1409 9.70791 61.1987 9.75859C61.2475 9.84419 61.3128 9.91925 61.3908 9.97942C61.4688 10.0396 61.5581 10.0837 61.6533 10.1091C61.7484 10.1345 61.8478 10.1408 61.9454 10.1276C62.043 10.1144 62.1371 10.0819 62.2221 10.032C62.533 9.87578 62.8385 9.70859 63.2143 9.51016C62.9112 9.25234 62.669 9.03906 62.419 8.83281C62.2549 8.69766 62.1002 8.64453 61.9526 8.64531ZM43.8471 28.5828C51.1963 28.3164 58.2666 32.0625 61.5596 38.3914C62.4674 40.1359 62.583 42.8211 62.0072 44.6516C60.0229 50.9703 55.3369 54.5141 48.9041 56.0188C50.8002 54.3961 52.3104 52.5547 52.7901 50.0109C53.2963 47.5734 52.7463 45.0344 51.276 43.0258C50.1358 41.46 48.5171 40.3078 46.6643 39.7431C44.8115 39.1785 42.8253 39.2322 41.0057 39.8961C37.0455 41.4 34.876 45.0141 35.2666 49.457C35.6299 53.5844 38.7619 56.2586 44.6213 57.275C43.7455 57.7383 43.0705 58.0797 42.4104 58.4469C39.7272 59.9181 37.3921 61.9495 35.5635 64.4031C34.9682 65.2055 34.5596 65.2703 33.6533 64.7164C21.8744 57.5133 21.1174 39.4352 33.9815 31.5656C36.9573 29.7362 40.3561 28.7091 43.8471 28.5828ZM33.0518 66.2578C33.4511 66.2492 33.8507 66.2662 34.2479 66.3086C32.4166 68.8318 31.3475 71.8273 31.1674 74.9398C29.0666 75.3266 27.0877 75.5867 25.1658 76.0742C23.2729 76.5547 21.4393 77.2664 19.5049 77.9008C20.3916 71.9164 27.0182 66.375 33.0518 66.2578Z" fill="#88171A"/>
</g>
<defs>
<clipPath id="clip0_1085_4826">
<rect width="100" height="100" fill="white"/>
</clipPath>
</defs>
</svg>
