<svg width="100" height="100" viewBox="0 0 100 100" fill="none" xmlns="http://www.w3.org/2000/svg">
<g clip-path="url(#clip0_1085_4828)">
<path d="M50 0C36.7392 0 24.0215 5.26784 14.6447 14.6447C5.26784 24.0215 0 36.7392 0 50C0 63.2608 5.26784 75.9785 14.6447 85.3553C24.0215 94.7322 36.7392 100 50 100C63.2608 100 75.9785 94.7322 85.3553 85.3553C94.7322 75.9785 100 63.2608 100 50C100 36.7392 94.7322 24.0215 85.3553 14.6447C75.9785 5.26784 63.2608 0 50 0Z" fill="black"/>
<path d="M95 49.9989C95 65.4676 87.0312 79.9208 73.9062 88.1239L58.4375 68.9051L71.25 70.3114C71.25 70.3114 77.4219 70.9364 78.8281 70.3114C80.0781 69.8426 87.0312 60.077 87.0312 60.077C87.0312 60.077 67.1875 47.577 60.4687 40.6239C61.25 28.9833 59.6094 13.5145 59.6094 13.6708C54.6094 18.6708 53.9844 19.452 48.9844 24.0614C46.7969 17.0301 45.7812 14.6083 43.5937 7.57701C37.0312 12.9676 32.1094 22.0301 28.5156 32.6551C27.7344 33.5145 26.9531 34.452 26.25 35.3895C25.7812 36.0145 25.3125 36.7176 24.8437 37.3426C23.8281 38.7489 22.9687 40.1551 22.1094 41.6395C21.4844 42.7333 20.8594 43.827 20.3125 44.9208C16.1719 52.7333 12.7344 61.6395 9.76562 69.7645C9.76562 69.7645 9.76562 69.6864 9.68749 69.6864C1.40624 52.9676 4.37499 33.0458 16.9531 19.452C29.5312 5.78014 49.1406 1.32701 66.4062 8.04576C83.6719 14.8426 95 31.4833 95 49.9989Z" fill="#DD1100"/>
<path d="M51.25 33.9853C51.25 33.9853 50.4688 29.5322 50 27.8916C53.4375 24.5322 53.9844 24.0635 57.2656 20.8604C57.5 27.2666 57.4219 30.5478 57.0313 38.3603C55.1563 36.4072 51.25 33.9853 51.25 33.9853ZM36.3281 56.0166C36.3281 56.0166 32.7344 53.8291 30.0781 53.4385C30.8594 51.6416 32.8906 49.376 33.4375 48.6729C32.4219 49.0635 25 52.3447 24.2188 55.1572C26.3281 55.7041 28.3594 56.3291 30.3906 57.1885C27.7344 60.2353 26.0938 64.0635 25.625 68.0478C25.625 68.0478 37.4219 66.251 46.25 67.4228C46.4063 67.501 46.5625 67.5791 46.7188 67.5791L51.3281 67.7353L65.9375 92.1103L66.0938 92.2666H66.0156C38.4375 102.267 18.5156 83.9072 14.2188 77.501C14.2188 77.4228 14.2187 77.4228 14.2969 77.3447C18.0469 61.1728 22.8125 41.7978 30.4688 36.0947C34.4531 29.1416 35.625 18.9854 42.7344 13.5947C44.5313 18.9854 47.3438 30.0791 49.2969 35.4697C57.7344 43.9072 70.5469 54.376 79.0625 58.751C79.9219 59.2978 81.0938 62.8135 81.0938 62.8135L77.6563 67.1885L40.8594 63.5166C40 63.4385 39.2188 63.4385 38.3594 63.4385C35.7812 63.4385 33.2812 63.751 30.7031 64.1416C32.5 59.6103 36.3281 56.0166 36.3281 56.0166ZM48.2031 51.251C50.2344 51.0166 52.4219 51.7978 54.8438 53.2041C57.1094 52.5791 57.4219 52.4229 59.6875 51.7979C56.7188 49.6104 53.5156 47.3447 49.2188 47.9697C48.8281 49.0635 48.5156 50.1572 48.2031 51.251Z" fill="white"/>
</g>
<defs>
<clipPath id="clip0_1085_4828">
<rect width="100" height="100" fill="white"/>
</clipPath>
</defs>
</svg>
