<svg width="100" height="100" viewBox="0 0 100 100" fill="none" xmlns="http://www.w3.org/2000/svg">
<g clip-path="url(#clip0_1085_4832)">
<path d="M90.8594 69.6089H9.14062C4.0625 69.6089 0 65.5464 0 60.4683V29.2183C0 24.2183 4.0625 20.1558 9.14062 20.1558H90.9375C95.9375 20.1558 100.078 24.2183 100.078 29.2964V60.5464C100 65.5464 95.9375 69.6089 90.8594 69.6089Z" fill="#7F54B3"/>
<path d="M10.7815 59.9226C10.7815 59.9226 12.969 69.1414 17.4221 62.9695C21.8752 56.7976 26.1721 47.1101 26.1721 47.1101C26.1721 47.1101 26.4846 44.6883 27.7346 50.0008C28.9846 55.3133 34.3752 62.5008 34.3752 62.5008C34.3752 62.5008 39.2971 68.6726 41.3284 62.1883C40.5471 53.5945 43.5159 37.9695 46.5627 30.4695C47.8127 23.8289 40.8596 25.7039 40.2346 27.2664C39.6096 28.8289 35.3127 38.8289 35.0002 49.2976C35.0002 49.2976 31.3284 39.2976 31.0159 35.7039C30.7034 32.032 26.8752 31.0945 24.6877 34.6101C22.5002 38.1258 15.8596 51.7195 15.8596 51.7195L11.5627 29.532C11.5627 29.532 7.26587 23.8289 4.76587 30.782C4.76587 30.782 9.21899 58.0476 10.7815 59.9226ZM67.969 35.7039C61.3284 24.6101 51.4846 33.0476 51.4846 33.0476C51.4846 33.0476 43.9846 41.7195 47.344 53.5164C52.7346 65.157 60.3127 60.0008 62.344 59.0633C64.4534 58.0476 73.3596 47.8914 67.969 35.7039ZM62.8909 45.4695C62.8909 50.0789 59.0627 54.3758 55.9377 53.4383C54.219 52.4226 53.1252 49.6883 53.1252 45.0008C54.6877 37.4226 58.1252 36.407 59.9221 36.5633C63.2815 38.3601 63.1252 42.3445 62.8909 45.4695ZM92.8909 35.7039C86.2502 24.6101 76.4065 33.0476 76.4065 33.0476C76.4065 33.0476 68.9065 41.7195 72.2659 53.5164C77.6565 65.157 85.2346 60.0008 87.2659 59.0633C89.2971 58.0476 98.2815 47.8914 92.8909 35.7039ZM87.8127 45.4695C87.8127 50.0789 83.9846 54.3758 80.8596 53.4383C79.1409 52.4226 78.0471 49.6883 78.0471 45.0008C79.6096 37.4226 83.0471 36.407 84.844 36.5633C88.1252 38.3601 87.969 42.3445 87.8127 45.4695Z" fill="white"/>
<path d="M47.8906 69.6094L65.3125 79.8437L61.6406 69.6094L51.6406 66.7969L47.8906 69.6094Z" fill="#7F54B3"/>
</g>
<defs>
<clipPath id="clip0_1085_4832">
<rect width="100" height="100" fill="white"/>
</clipPath>
</defs>
</svg>
