<svg width="100" height="100" viewBox="0 0 100 100" fill="none" xmlns="http://www.w3.org/2000/svg">
<g clip-path="url(#clip0_867_13740)">
<path d="M7.10743 49.999C7.10743 66.9778 16.9741 81.6493 31.2817 88.6031L10.821 32.5426C8.36825 38.0352 7.10279 43.9837 7.10743 49.999ZM78.9568 47.8345C78.9568 42.5334 77.0526 38.8623 75.4195 36.0048C73.2452 32.4716 71.208 29.4795 71.208 25.9463C71.208 22.0034 74.1977 18.3331 78.4099 18.3331C78.6001 18.3331 78.7805 18.3567 78.9666 18.3673C71.3345 11.376 61.1675 7.10742 50.0006 7.10742C35.0157 7.10742 21.832 14.7958 14.1624 26.4409C15.1688 26.4711 16.118 26.4915 16.9227 26.4915C21.4092 26.4915 28.3541 25.9471 28.3541 25.9471C30.6663 25.8108 30.9389 29.2069 28.6299 29.4804C28.6299 29.4804 26.3055 29.7538 23.7198 29.8893L39.3397 76.3499L48.7274 48.1977L42.0437 29.8884C39.734 29.753 37.5458 29.4795 37.5458 29.4795C35.2344 29.3441 35.5054 25.81 37.8168 25.9463C37.8168 25.9463 44.9003 26.4907 49.115 26.4907C53.6007 26.4907 60.5464 25.9463 60.5464 25.9463C62.8602 25.81 63.132 29.2061 60.8214 29.4795C60.8214 29.4795 58.4929 29.753 55.9121 29.8884L71.4129 75.9973L75.6905 61.7004C77.5456 55.7677 78.9568 51.5064 78.9568 47.8345Z" fill="#00749A"/>
<path d="M50.753 53.7508L37.8835 91.1462C41.8181 92.3058 45.8986 92.8945 50.0005 92.8945C54.9955 92.8945 59.7856 92.0301 64.2443 90.4631C64.1247 90.2759 64.0226 90.0781 63.9391 89.8722L50.753 53.7508ZM87.6375 29.4199C87.822 30.7862 87.9265 32.2537 87.9265 33.8305C87.9265 38.1832 87.1135 43.0761 84.665 49.1941L71.563 87.0752C84.3149 79.639 92.8921 65.8237 92.8921 49.9989C92.9035 42.8059 91.096 35.7269 87.6375 29.4199Z" fill="#00749A"/>
<path d="M50.0005 0C22.4309 0 0 22.4292 0 49.9987C0 77.5715 22.4301 100.001 50.0005 100.001C77.5692 100.001 100.003 77.5723 100.003 49.9987C100.003 22.4292 77.5692 0 50.0005 0ZM50.0005 97.7081C23.6952 97.7081 2.29263 76.3056 2.29263 49.9987C2.29263 23.6943 23.6944 2.29345 50.0005 2.29345C76.305 2.29345 97.7059 23.6943 97.7059 49.9987C97.7059 76.3056 76.3041 97.7081 50.0005 97.7081Z" fill="#00749A"/>
</g>
<defs>
<clipPath id="clip0_867_13740">
<rect width="100" height="100" fill="white"/>
</clipPath>
</defs>
</svg>
