<svg width="100" height="100" viewBox="0 0 100 100" fill="none" xmlns="http://www.w3.org/2000/svg">
<path fill-rule="evenodd" clip-rule="evenodd" d="M68.1364 6H58.4318V27.3182L68.1318 27.3455L68.1364 6ZM45.7273 18.3136L55.8364 28.4273L48.9545 35.2545L38.8727 25.1727L45.7364 18.3091L45.7273 18.3136ZM26.5682 37.8682H47.9136L47.8818 47.5636H26.5636V37.8727L26.5682 37.8682ZM38.8864 60.2682L48.9864 50.1591L55.8273 57.0409L45.7455 67.1182L38.8818 60.2591L38.8864 60.2682ZM58.4318 79.4318V58.0864L68.1318 58.1182V79.4364L58.4318 79.4318ZM80.8318 67.1318L70.7182 57.0182L77.6 50.1818L87.6909 60.2727L80.8273 67.1364H80.8318V67.1318ZM100 47.5636H78.6545L78.6864 37.8682H100V47.5636ZM87.6864 25.1727L77.5818 35.2773L70.7455 28.4L80.8364 18.3091L87.6864 25.1727ZM10 8.19091V13.6636H4.51818V22.4318H10V27.9045H18.7591V22.4318H24.2318V13.6682H18.7591V8.19091H10ZM10 93.8045V83.8046H0V75.0455H10V65.0545H18.7591V75.0455H28.7591V83.8046H18.7591V93.8045H10Z" fill="#F38020"/>
</svg>
