<svg width="100" height="100" viewBox="0 0 100 100" fill="none" xmlns="http://www.w3.org/2000/svg">
<path fill-rule="evenodd" clip-rule="evenodd" d="M28.854 4.99902C26.1532 5.00477 23.5095 6.54196 22.1499 8.88699L1.00382 45.7189C-0.334605 48.0702 -0.334605 51.1435 1.00382 53.4948L22.1499 90.3267C23.5096 92.6718 26.1532 94.2094 28.854 94.2147H71.146C73.8468 94.209 76.4904 92.6718 77.8502 90.3267L98.9962 53.4948C100.335 51.1435 100.335 48.0702 98.9962 45.7189L77.8502 8.88699C76.4904 6.54196 73.8468 5.00434 71.146 4.99902H28.854ZM29.2378 26.5461C29.2959 26.5404 29.3569 26.5404 29.4151 26.5461H36.7099C37.0328 26.5528 37.346 26.7399 37.5073 27.021L49.8819 49.132C49.9442 49.2413 49.9843 49.3631 49.9995 49.4881C50.0148 49.3631 50.0549 49.2413 50.1172 49.132L62.4622 27.021C62.6286 26.7314 62.9565 26.5433 63.2891 26.5461H70.5838C71.2298 26.5519 71.7135 27.3677 71.4108 27.9411L59.3317 49.6069L71.4108 71.243C71.7421 71.8197 71.2465 72.6733 70.5838 72.6676H63.2891C62.9507 72.6647 62.6208 72.4636 62.4622 72.1631L50.1172 50.052C50.0549 49.9427 50.0148 49.8209 49.9995 49.6959C49.9843 49.8209 49.9442 49.9428 49.8819 50.052L37.5073 72.1631C37.3533 72.4551 37.0385 72.6543 36.7099 72.6676H29.4151C28.7524 72.6733 28.2569 71.8197 28.5883 71.243L40.6674 49.6069L28.5883 27.9411C28.2987 27.4179 28.652 26.6578 29.2378 26.5461Z" fill="#3498DB"/>
</svg>
