<svg width="100" height="100" viewBox="0 0 100 100" fill="none" xmlns="http://www.w3.org/2000/svg">
<path d="M27.8901 10.7808H72.0308C81.4839 10.7808 89.1401 18.437 89.1401 27.8901V72.0308C89.1401 81.4839 81.4839 89.1401 72.0308 89.1401H27.8901C18.437 89.1401 10.7808 81.4839 10.7808 72.0308V27.8901C10.7808 18.437 18.437 10.7808 27.8901 10.7808Z" fill="url(#paint0_linear_1085_4846)"/>
<path d="M70.7031 15.0005H29.2188C21.3281 15.0005 14.9219 21.4067 14.9219 29.2974V70.7817C14.9219 78.6724 21.3281 85.0786 29.2188 85.0786H70.7031C78.5937 85.0786 85 78.6724 85 70.7817V29.2192C85 21.3286 78.5937 15.0005 70.7031 15.0005ZM83.8281 70.938C83.8281 78.1255 78.0469 83.9067 70.8594 83.9067H29.0625C21.9531 83.9067 16.0937 78.1255 16.0937 70.938V29.063C16.0937 21.8755 21.875 16.0942 29.0625 16.0942H70.9375C78.0469 16.0942 83.9062 21.8755 83.9062 29.063V70.938H83.8281Z" fill="white"/>
<path d="M50.0781 17.812C32.4219 17.812 18.0469 32.187 18.0469 49.8433C18.0469 67.4995 32.4219 81.8745 50.0781 81.8745C67.8125 81.8745 82.1094 67.4995 82.1094 49.8433C82.1094 32.187 67.7344 17.812 50.0781 17.812ZM50.0781 81.4058C32.6563 81.4058 18.5156 67.2651 18.5156 49.8433C18.5156 32.4214 32.6563 18.2808 50.0781 18.2808C67.5 18.2808 81.6406 32.4214 81.6406 49.8433C81.6406 67.2651 67.5 81.4058 50.0781 81.4058Z" fill="#69C5F3"/>
<path d="M50.0781 24.3755C35.9375 24.3755 24.5312 35.7817 24.5312 49.9224C24.5312 64.063 35.9375 75.3911 50.0781 75.3911C64.2188 75.3911 75.625 63.9849 75.625 49.8442C75.625 35.7036 64.1406 24.3755 50.0781 24.3755ZM50.0781 74.8442C36.25 74.8442 25.0781 63.6724 25.0781 49.8442C25.0781 36.0161 36.25 24.8442 50.0781 24.8442C63.9062 24.8442 75.0781 36.0161 75.0781 49.8442C75.0781 63.6724 63.8281 74.8442 50.0781 74.8442Z" fill="#68C5F4"/>
<path d="M25.6252 55.7026H74.3752C76.4065 55.7026 77.969 57.3433 77.969 59.2964C77.969 61.3276 76.3284 62.8901 74.3752 62.8901H25.6252C23.594 62.8901 22.0315 61.2495 22.0315 59.2964C21.9534 57.3433 23.594 55.7026 25.6252 55.7026Z" fill="white"/>
<path d="M25.4687 56.4067H74.375C75.9375 56.4067 77.2656 57.6567 77.2656 59.2974V59.3755C77.2656 60.938 76.0156 62.2661 74.375 62.2661H25.4687C23.9062 62.2661 22.5781 61.0161 22.5781 59.3755V59.2192C22.6562 57.6567 23.9062 56.4067 25.4687 56.4067Z" fill="#0A93E9"/>
<path d="M24.2969 61.9531H75.625L76.0156 61.7188H23.9062L24.2969 61.9531Z" fill="#1694EA"/>
<path d="M23.125 61.0151H76.7187L76.875 60.7808H22.9688L23.125 61.0151Z" fill="#319DEC"/>
<path d="M22.6562 59.5308H77.2656V59.2183H22.6562V59.5308Z" fill="#65B1EE"/>
<path d="M23.2031 57.5786H76.7969L76.875 57.7349L76.9531 57.8911H23.0469L23.125 57.7349L23.2031 57.5786Z" fill="#8EC6F3"/>
<path d="M24.375 56.6406H75.625L75.8594 56.7187L76.0938 56.875H23.9062L24.1406 56.7187L24.375 56.6406Z" fill="#95CAF3"/>
<path d="M72.9688 56.4067H72.5781C72.5781 56.4067 73.9062 57.3442 73.9062 59.4536C73.9062 61.4067 72.5781 62.2661 72.5781 62.2661H72.9688C72.9688 62.2661 74.2969 61.6411 74.2969 59.4536C74.2969 57.1099 72.9688 56.4067 72.9688 56.4067Z" fill="url(#paint1_linear_1085_4846)"/>
<path d="M69.2188 56.4067H68.8281C68.8281 56.4067 70 57.5005 70 59.4536C70 61.1724 68.8281 62.2661 68.8281 62.2661H69.2188C69.2188 62.2661 70.3906 61.4067 70.3906 59.4536C70.3125 57.3442 69.2188 56.4067 69.2188 56.4067Z" fill="url(#paint2_linear_1085_4846)"/>
<path d="M49.7661 56.4067H50.1567V62.2661H49.7661V56.4067Z" fill="url(#paint3_linear_1085_4846)"/>
<path d="M45.9375 56.4067H46.3281C46.3281 56.4067 46.1719 57.8911 46.1719 59.4536C46.1719 60.8599 46.3281 62.2661 46.3281 62.2661H45.9375C45.9375 62.2661 45.7812 60.8599 45.7812 59.4536C45.7812 57.8911 45.9375 56.4067 45.9375 56.4067Z" fill="url(#paint4_linear_1085_4846)"/>
<path d="M42.1875 56.4067H42.5781C42.5781 56.4067 42.1875 57.8911 42.1875 59.4536C42.1875 60.8599 42.5781 62.2661 42.5781 62.2661H42.1875C42.1875 62.2661 41.7969 60.8599 41.7969 59.4536C41.7969 57.8911 42.1875 56.4067 42.1875 56.4067Z" fill="url(#paint5_linear_1085_4846)"/>
<path d="M38.3594 56.4067H38.75C38.75 56.4067 38.2031 57.8911 38.2031 59.4536C38.2031 60.8599 38.75 62.2661 38.75 62.2661H38.3594C38.3594 62.2661 37.8125 60.8599 37.8125 59.4536C37.8125 57.8911 38.3594 56.4067 38.3594 56.4067Z" fill="url(#paint6_linear_1085_4846)"/>
<path d="M34.5317 56.4067H34.9224C34.9224 56.4067 34.1411 57.6567 34.1411 59.4536C34.1411 61.0161 34.9224 62.2661 34.9224 62.2661H34.5317C34.5317 62.2661 33.7505 61.0161 33.7505 59.4536C33.7505 57.6567 34.5317 56.4067 34.5317 56.4067Z" fill="url(#paint7_linear_1085_4846)"/>
<path d="M30.7026 56.4067H31.0933C31.0933 56.4067 29.9214 57.5005 29.9214 59.4536C29.9214 61.1724 31.0933 62.2661 31.0933 62.2661H30.7026C30.7026 62.2661 29.5308 61.4067 29.5308 59.4536C29.6089 57.3442 30.7026 56.4067 30.7026 56.4067Z" fill="url(#paint8_linear_1085_4846)"/>
<path d="M26.9526 56.4067H27.3433C27.3433 56.4067 26.0151 57.3442 26.0151 59.4536C26.0151 61.4067 27.3433 62.2661 27.3433 62.2661H26.9526C26.9526 62.2661 25.6245 61.6411 25.6245 59.4536C25.6245 57.1099 26.9526 56.4067 26.9526 56.4067Z" fill="url(#paint9_linear_1085_4846)"/>
<path d="M48.4374 26.6405L72.8124 68.828C73.828 70.5468 73.203 72.7343 71.4843 73.7499C69.7655 74.7655 67.578 74.1405 66.5624 72.4218L42.1874 30.2343C41.1718 28.5155 41.7968 26.328 43.5155 25.3124C45.2343 24.2968 47.4218 24.9218 48.4374 26.6405Z" fill="white"/>
<path d="M47.8127 26.9525L72.2658 69.2963C73.0471 70.6244 72.5783 72.4213 71.2502 73.2025L71.0939 73.2807C69.7658 74.0619 67.9689 73.5932 67.1877 72.265L42.7346 29.8432C41.9533 28.515 42.4221 26.7182 43.7502 25.9369L43.8283 25.8588C45.2346 25.0775 47.0314 25.5463 47.8127 26.9525Z" fill="url(#paint10_linear_1085_4846)"/>
<path d="M42.3442 28.6709L67.9692 73.124L68.1255 73.2021L68.2817 73.2803L68.438 73.3584L42.3442 28.2021V28.6709Z" fill="url(#paint11_linear_1085_4846)"/>
<path d="M42.5781 27.1875L69.375 73.5937H69.6875L42.7344 26.9531L42.6562 27.1094L42.5781 27.1875Z" fill="url(#paint12_linear_1085_4846)"/>
<path d="M43.6719 26.0146L71.0156 73.2803L71.25 73.124L43.9062 25.8584L43.6719 26.0146Z" fill="url(#paint13_linear_1085_4846)"/>
<path d="M45.625 25.5459L72.3437 71.874L72.2656 72.0303L72.1875 72.1865L45.2344 25.4678H45.3906L45.625 25.5459Z" fill="url(#paint14_linear_1085_4846)"/>
<path d="M47.0313 26.0156L72.6563 70.3906V70.8594L46.5625 25.7812L46.7188 25.8594L46.875 25.9375L47.0313 26.0156Z" fill="url(#paint15_linear_1085_4846)"/>
<path d="M71.4844 67.8901L71.3281 67.5776C71.3281 67.5776 71.1719 69.1401 69.4531 70.2339C67.8125 71.2495 66.3281 70.5464 66.3281 70.5464L66.4844 70.8589C66.4844 70.8589 67.7344 71.7183 69.6094 70.5464C71.4844 69.4526 71.4844 67.8901 71.4844 67.8901ZM69.5312 64.6089L69.375 64.2964C69.375 64.2964 68.9844 65.8589 67.3437 66.7964C65.8594 67.7339 64.375 67.2651 64.375 67.2651L64.5312 67.5776C64.5312 67.5776 65.8594 68.1245 67.5781 67.1089C69.2969 66.0933 69.5312 64.6089 69.5312 64.6089Z" fill="#3C98EA"/>
<path d="M67.6562 61.3271L67.5 61.0146C67.5 61.0146 66.7969 62.3428 65.3125 63.2022C63.9844 63.9834 62.5 63.9834 62.5 63.9834L62.6562 64.2959C62.6562 64.2959 64.0625 64.2959 65.4688 63.5147C66.9531 62.6553 67.6562 61.3271 67.6562 61.3271Z" fill="#4CA4ED"/>
<path d="M65.7812 58.0479L65.625 57.7354C65.625 57.7354 64.6094 59.0635 63.2812 59.7666C62.0312 60.4697 60.5469 60.7041 60.5469 60.7041L60.7031 61.0166C60.7031 61.0166 62.1875 60.7822 63.4375 60.0791C64.6875 59.376 65.7812 58.0479 65.7812 58.0479Z" fill="#4DA7EE"/>
<path d="M58.0469 44.7651L58.2031 45.0776C58.2031 45.0776 56.875 45.7026 55.5469 46.4058C54.2969 47.1089 53.2031 48.0464 53.2031 48.0464L53.0469 47.7339C53.0469 47.7339 54.2188 46.7964 55.3906 46.0933C56.7188 45.3901 58.0469 44.7651 58.0469 44.7651Z" fill="url(#paint16_linear_1085_4846)"/>
<path d="M56.1719 41.4834L56.3281 41.7959C56.3281 41.7959 54.8437 42.2646 53.5937 43.0459C52.3437 43.749 51.3281 44.8428 51.3281 44.8428L51.1719 44.5303C51.1719 44.5303 52.1875 43.4365 53.4375 42.7334C54.6875 41.874 56.1719 41.4834 56.1719 41.4834Z" fill="url(#paint17_linear_1085_4846)"/>
<path d="M52.6559 38.9058C53.6715 38.5933 54.4527 38.437 54.4527 38.437L54.2965 38.1245C54.2965 38.1245 53.5934 38.2026 52.8121 38.5151C52.3434 38.6714 52.2652 39.062 52.6559 38.9058Z" fill="#9DD4F7"/>
<path d="M50.4692 31.6409L50.6255 31.9534C50.6255 31.9534 49.1411 31.5627 47.4224 32.5002C45.938 33.4377 45.6255 34.9221 45.6255 34.9221L45.4692 34.6096C45.4692 34.6096 45.6255 33.2815 47.2661 32.2659C48.9849 31.1721 50.4692 31.6409 50.4692 31.6409Z" fill="url(#paint18_linear_1085_4846)"/>
<path d="M48.593 28.2815L48.8274 28.594C48.8274 28.594 47.2649 27.969 45.468 28.9846C43.7493 30.0783 43.7493 31.5627 43.7493 31.5627L43.5149 31.2502C43.5149 31.2502 43.3587 29.9221 45.2337 28.7502C47.1868 27.5783 48.593 28.2815 48.593 28.2815Z" fill="url(#paint19_linear_1085_4846)"/>
<path d="M43.3593 55.703C50.1562 43.9843 57.9687 30.3905 57.9687 30.3905C58.9843 28.6718 58.3593 26.4843 56.6405 25.4687C54.9218 24.453 52.7343 25.078 51.7186 26.7968C51.7186 26.7968 42.1874 43.3593 34.9999 55.703H43.3593ZM39.1405 62.8905C35.8593 68.5155 33.5937 72.578 33.5937 72.578C32.578 74.2968 30.3905 74.9218 28.6718 73.9061C26.953 72.8905 26.328 70.703 27.3437 68.9843C27.3437 68.9843 28.6718 66.5624 30.7812 62.9687C33.4374 62.8905 38.2812 62.8905 39.1405 62.8905Z" fill="white"/>
<path d="M42.5002 55.7033C49.3752 43.8283 57.3439 30.0002 57.3439 30.0002C58.1252 28.6721 57.6564 26.8752 56.3283 26.0939L56.2502 26.0158C54.9221 25.2346 53.1252 25.7033 52.3439 27.0314C52.3439 27.0314 42.9689 43.2814 35.7814 55.7033H42.5002ZM38.3596 62.8908C35.2346 68.3596 32.9689 72.2658 32.9689 72.2658C32.1877 73.5939 30.4689 74.0627 29.0627 73.2814H28.9064C27.5783 72.5002 27.1096 70.7814 27.8908 69.3752C27.8908 69.3752 29.3752 66.7971 31.6408 62.8908H38.3596Z" fill="url(#paint20_linear_1085_4846)"/>
<path d="M42.2656 55.7026L57.8125 28.8276V28.3589C57.8125 28.3589 49.2188 43.2808 42.0312 55.7026H42.2656ZM38.0469 62.8901L32.1094 73.2026L31.875 73.3589L31.6406 73.437C31.6406 73.437 34.2969 68.8276 37.7344 62.8901H38.0469Z" fill="url(#paint21_linear_1085_4846)"/>
<path d="M41.0937 55.7022L57.5 27.3428L57.4219 27.1865L57.3438 27.0303C57.3438 27.0303 48.3594 42.5771 40.8594 55.624L41.0937 55.7022ZM36.9531 62.8896L30.7031 73.6709H30.3906C30.3906 73.6709 33.0469 69.0615 36.6406 62.8115C36.7969 62.8896 36.9531 62.8896 36.9531 62.8896Z" fill="url(#paint22_linear_1085_4846)"/>
<path d="M39.375 55.7026C47.1094 42.3433 56.4062 26.1714 56.4062 26.1714L56.1719 26.0151L38.9844 55.7026H39.375ZM35.1562 62.9683C31.7188 68.9839 29.1406 73.437 29.1406 73.437L28.9062 73.2808C28.9062 73.2808 31.4062 68.9058 34.8437 62.9683C35 62.8901 34.9219 62.8901 35.1562 62.9683Z" fill="url(#paint23_linear_1085_4846)"/>
<path d="M37.5 55.7026C45.2344 42.3433 54.8437 25.6245 54.8437 25.6245H54.5313C54.5313 25.6245 44.9219 42.2651 37.1875 55.7026H37.5ZM32.9688 62.8901C29.8438 68.2808 27.7344 71.9526 27.7344 71.9526L27.8125 72.1089L27.8906 72.2651C27.8906 72.2651 30.1563 68.3589 33.3594 62.8901H32.9688Z" fill="url(#paint24_linear_1085_4846)"/>
<path d="M36.3286 55.7036L53.5161 25.938L53.3599 26.0161L53.2036 26.0942L53.1255 26.1724C53.1255 26.1724 43.5942 42.6567 36.0942 55.7036H36.3286ZM32.188 62.8911C29.4536 67.6567 27.5005 71.0161 27.5005 71.0161V70.3911C27.5005 70.3911 29.2192 67.4224 31.8755 62.813C32.0317 62.8911 32.0317 62.8911 32.188 62.8911Z" fill="url(#paint25_linear_1085_4846)"/>
<path d="M51.562 28.2816L51.4058 28.5941C51.4058 28.5941 52.812 27.8909 54.687 28.9066C56.4058 29.8441 56.4839 31.4847 56.4839 31.4847L56.6401 31.1722C56.6401 31.1722 56.7964 29.6878 54.8433 28.5941C52.8901 27.5003 51.562 28.2816 51.562 28.2816Z" fill="url(#paint26_linear_1085_4846)"/>
<path d="M49.6875 31.6412L49.5312 31.9537C49.5312 31.9537 51.0937 31.4849 52.7344 32.4224C54.2969 33.2818 54.6094 34.7662 54.6094 34.7662L54.7656 34.4537C54.7656 34.4537 54.6094 33.0474 52.8906 32.1099C51.0937 31.0943 49.6875 31.6412 49.6875 31.6412Z" fill="url(#paint27_linear_1085_4846)"/>
<path d="M47.7344 34.9224L47.5781 35.2349C47.5781 35.2349 48.9844 35.1567 50.5469 36.0942C51.9531 36.8755 52.6562 38.1255 52.6562 38.1255L52.8125 37.813C52.8125 37.813 52.1094 36.563 50.7031 35.7817C49.2188 34.9224 47.7344 34.9224 47.7344 34.9224Z" fill="url(#paint28_linear_1085_4846)"/>
<path d="M45.8594 38.2812L45.7031 38.5938C45.7031 38.5938 47.2656 38.8281 48.5938 39.6094C49.8438 40.3125 50.7812 41.4844 50.7812 41.4844L50.9375 41.1719C50.9375 41.1719 50 40 48.75 39.2969C47.4219 38.5156 45.8594 38.2812 45.8594 38.2812Z" fill="url(#paint29_linear_1085_4846)"/>
<path d="M43.9063 41.563L43.75 41.8755C43.75 41.8755 45.2344 42.2661 46.5625 43.0474C47.8125 43.7505 48.8281 44.7661 48.8281 44.7661L48.9844 44.4536C48.9844 44.4536 47.9687 43.438 46.7187 42.7349C45.4687 42.0317 43.9063 41.563 43.9063 41.563Z" fill="url(#paint30_linear_1085_4846)"/>
<path d="M42.0312 44.8447L41.7969 45.1572C41.7969 45.1572 43.2031 45.7041 44.5312 46.4854C45.7812 47.1885 46.875 48.0479 46.875 48.0479L47.0313 47.7353C47.0313 47.7353 45.9375 46.876 44.6875 46.1728C43.4375 45.4697 42.0312 44.8447 42.0312 44.8447Z" fill="url(#paint31_linear_1085_4846)"/>
<path d="M39.9219 48.5161L40.0781 48.2036L45.1563 51.0942L45 51.4067L39.9219 48.5161Z" fill="url(#paint32_linear_1085_4846)"/>
<path d="M38.0474 51.875L38.2036 51.5625C38.2036 51.5625 39.4536 52.5 40.7817 53.2031C42.0317 53.9062 43.2817 54.4531 43.2817 54.4531L43.1255 54.6875C43.1255 54.6875 41.7974 54.1406 40.5474 53.4375C39.2192 52.7344 38.0474 51.875 38.0474 51.875Z" fill="url(#paint33_linear_1085_4846)"/>
<path d="M36.7964 55.7036C36.4058 55.3911 36.1714 55.1567 36.1714 55.1567L36.3276 54.8442C36.3276 54.8442 36.7964 55.2349 37.4214 55.7036H36.7964Z" fill="#73B9F1"/>
<path d="M33.75 62.8906C34.0625 63.125 34.375 63.3594 34.7656 63.5938C36.1719 64.375 37.5781 64.2969 37.5781 64.2969L37.4219 64.6094C37.4219 64.6094 36.0156 64.6875 34.6094 63.9063C34.0625 63.5938 33.5938 63.2031 33.2812 62.8906H33.75Z" fill="url(#paint34_linear_1085_4846)"/>
<path d="M30.3906 65.0791L30.5469 64.7666C30.5469 64.7666 30.9375 66.3291 32.6562 67.2666C34.2187 68.126 35.625 67.6572 35.625 67.6572L35.4688 67.9697C35.4688 67.9697 34.2187 68.5166 32.5 67.5791C30.7031 66.5635 30.3906 65.0791 30.3906 65.0791Z" fill="url(#paint35_linear_1085_4846)"/>
<path d="M28.4375 68.438L28.5937 68.1255C28.5937 68.1255 28.75 69.7661 30.625 70.7817C32.3437 71.7192 33.6719 71.0161 33.6719 71.0161L33.4375 71.3286C33.4375 71.3286 32.2656 72.188 30.3906 71.0942C28.4375 70.0005 28.4375 68.438 28.4375 68.438Z" fill="url(#paint36_linear_1085_4846)"/>
<path d="M53.7505 89.2192L87.188 18.9849L78.7505 15.0005L43.9067 88.0474C43.9067 88.0474 45.0005 88.5942 46.4067 89.2192H53.7505Z" fill="url(#paint37_linear_1085_4846)"/>
<path d="M73.5156 10.7808L89.1406 18.2026V40.6245C83.75 38.0464 47.6562 20.8589 47.6562 20.8589C47.6562 20.8589 50.1562 15.6245 52.5 10.7808H73.5156Z" fill="url(#paint38_radial_1085_4846)"/>
<path d="M34.765 86.0942C34.5307 86.5629 34.14 87.1098 34.2182 87.9692C34.2963 91.1723 39.5307 94.141 42.5775 94.141C44.6869 94.141 45.39 93.2817 46.1713 91.7192C46.9525 90.1567 35.6244 84.2192 34.765 86.0942Z" fill="url(#paint39_radial_1085_4846)"/>
<path d="M70.7812 19.6084C70.7812 19.6084 78.8281 21.5615 79.4531 22.1084C80.0781 22.6553 78.4375 25.7803 78.125 26.249C75.5469 29.374 67.5 46.6396 67.5 46.6396L60.0781 42.4209C60.0781 42.4209 66.7188 30.0771 69.0625 25.7021C70.5469 22.7334 70.7812 19.6084 70.7812 19.6084Z" fill="url(#paint40_linear_1085_4846)"/>
<path d="M89.3748 15.5467C90.7811 16.5624 92.6561 16.328 94.1405 16.0936C95.1561 15.9374 93.5936 17.4217 91.8748 20.8592C90.1561 24.2967 90.2342 24.5311 89.9998 24.2967C89.7655 24.0624 82.0311 19.6874 82.2655 19.2967C82.578 18.9061 83.828 10.3905 84.453 10.6249C86.7186 11.1717 87.1092 13.9061 89.3748 15.5467Z" fill="url(#paint41_linear_1085_4846)"/>
<path d="M77.3441 25.1558C77.891 24.2964 80.391 18.9839 84.3754 18.9839C86.1722 18.9839 89.6097 23.5151 89.9222 24.1401C90.1566 24.687 89.3754 26.8745 88.9847 25.8589C88.516 24.687 86.5629 22.187 84.4535 22.187C82.3441 22.187 79.4535 24.6089 78.7504 25.4683C78.0472 26.2495 76.7972 26.0151 77.3441 25.1558Z" fill="url(#paint42_linear_1085_4846)"/>
<path d="M77.1876 24.8433C77.5782 24.2183 79.3751 21.4839 80.2344 20.6245C81.0938 19.7652 83.2813 17.4995 85.1563 17.187C87.0313 16.8745 88.9844 20.7027 88.3594 21.4839C87.8907 22.0308 87.1094 21.4058 86.1719 20.6245C85.2344 19.9214 84.6094 18.5152 81.6407 20.7808C80.6251 21.562 79.6094 22.187 77.2657 25.5464C76.6407 26.4058 76.7969 25.4683 77.1876 24.8433Z" fill="url(#paint43_linear_1085_4846)"/>
<path d="M67.4995 47.6565C67.812 47.0315 68.2026 46.094 67.3433 45.3909C66.4058 44.6878 62.0308 42.344 61.2495 42.1878C60.4683 42.0315 59.8433 42.1878 59.5308 42.7347C59.2183 43.2815 35.2339 84.3753 34.7651 85.5472C34.2964 86.719 34.2183 87.5784 34.9214 87.8128C35.6245 88.0472 43.6714 91.8753 44.4526 92.7347C45.2339 93.594 45.6245 92.6566 45.937 92.1878C47.4214 90.3128 67.1089 48.2815 67.4995 47.6565Z" fill="url(#paint44_linear_1085_4846)"/>
<path d="M77.7349 24.6875C78.1255 24.1406 79.063 22.5781 80.2349 21.1719C81.0161 20.2344 85.2349 18.2031 86.1724 14.9219C86.7192 13.125 85.8599 11.3281 84.688 10.5469C80.7036 8.125 73.8286 4.29688 63.7505 4.29688C56.9536 4.29688 54.063 6.5625 54.063 6.5625H57.5005L69.4536 11.25L70.938 17.5C70.938 17.5 71.0942 19.6094 70.3911 22.0312C69.9224 23.9844 69.7661 25.1562 69.063 27.1094C69.6099 27.3438 70.8599 26.4844 72.2661 26.875C73.5161 27.1875 74.2974 28.9062 75.1567 27.8906C76.6411 25.9375 77.1099 25.5469 77.7349 24.6875Z" fill="url(#paint45_linear_1085_4846)"/>
<path d="M70.7031 19.8442C70.0781 14.0629 68.6719 8.59419 53.9844 8.67231C54.9219 7.73481 57.1875 6.79731 57.1875 6.79731L53.9844 6.56294C53.9844 6.56294 54.4531 6.17231 55.3906 6.09419C63.9844 5.39106 71.6406 7.18794 71.0938 18.3598C71.0156 20.1567 70.8594 20.9379 70.7031 19.8442Z" fill="url(#paint46_linear_1085_4846)"/>
<path d="M53.9844 8.67221C55 8.28158 56.4062 8.04721 59.0625 8.20346C62.3438 8.35971 66.4844 9.60971 68.2031 11.1722C69.0625 11.9535 68.9844 11.3285 68.0469 10.3128C65.625 7.50033 61.9531 6.87533 57.1875 6.79721C56.6406 6.71908 54.8438 7.73471 53.9844 8.67221Z" fill="url(#paint47_linear_1085_4846)"/>
<path d="M94.2969 16.0928L98.5937 18.2803C98.5937 18.2803 96.9531 20.4678 95.625 22.9678C94.2188 25.624 93.2813 28.5146 93.2813 28.5146L89.1406 26.0146C89.1406 26.0146 90.1563 23.2021 91.6406 20.4678C92.8125 18.2021 94.2969 16.0928 94.2969 16.0928Z" fill="url(#paint48_linear_1085_4846)"/>
<path d="M98.5942 18.2818C98.9067 18.4381 97.8911 20.8599 96.4067 23.6724C94.9224 26.4849 93.5161 28.6724 93.2817 28.5162C92.9692 28.3599 93.9849 25.9381 95.4692 23.1256C96.8755 20.3131 98.2817 18.1256 98.5942 18.2818Z" fill="#BFC0D0"/>
<defs>
<linearGradient id="paint0_linear_1085_4846" x1="49.9581" y1="89.1909" x2="49.9581" y2="10.7683" gradientUnits="userSpaceOnUse">
<stop stop-color="#1578E4"/>
<stop offset="1" stop-color="#00C3F2"/>
</linearGradient>
<linearGradient id="paint1_linear_1085_4846" x1="73.4664" y1="62.2396" x2="73.4664" y2="56.3942" gradientUnits="userSpaceOnUse">
<stop stop-color="#1492E7"/>
<stop offset="1" stop-color="#DBEDFB"/>
</linearGradient>
<linearGradient id="paint2_linear_1085_4846" x1="69.5641" y1="62.2396" x2="69.5641" y2="56.3942" gradientUnits="userSpaceOnUse">
<stop stop-color="#1492E7"/>
<stop offset="1" stop-color="#DBEDFB"/>
</linearGradient>
<linearGradient id="paint3_linear_1085_4846" x1="49.9591" y1="62.2396" x2="49.9591" y2="56.3942" gradientUnits="userSpaceOnUse">
<stop stop-color="#1492E7"/>
<stop offset="1" stop-color="#DBEDFB"/>
</linearGradient>
<linearGradient id="paint4_linear_1085_4846" x1="46.0563" y1="62.2396" x2="46.0563" y2="56.3942" gradientUnits="userSpaceOnUse">
<stop stop-color="#1492E7"/>
<stop offset="1" stop-color="#DBEDFB"/>
</linearGradient>
<linearGradient id="paint5_linear_1085_4846" x1="42.1547" y1="62.2396" x2="42.1547" y2="56.3942" gradientUnits="userSpaceOnUse">
<stop stop-color="#1492E7"/>
<stop offset="1" stop-color="#DBEDFB"/>
</linearGradient>
<linearGradient id="paint6_linear_1085_4846" x1="38.2523" y1="62.2396" x2="38.2523" y2="56.3942" gradientUnits="userSpaceOnUse">
<stop stop-color="#1492E7"/>
<stop offset="1" stop-color="#DBEDFB"/>
</linearGradient>
<linearGradient id="paint7_linear_1085_4846" x1="34.3505" y1="62.2396" x2="34.3505" y2="56.3942" gradientUnits="userSpaceOnUse">
<stop stop-color="#1492E7"/>
<stop offset="1" stop-color="#DBEDFB"/>
</linearGradient>
<linearGradient id="paint8_linear_1085_4846" x1="30.3526" y1="62.2396" x2="30.3526" y2="56.3942" gradientUnits="userSpaceOnUse">
<stop stop-color="#1492E7"/>
<stop offset="1" stop-color="#DBEDFB"/>
</linearGradient>
<linearGradient id="paint9_linear_1085_4846" x1="26.4503" y1="62.2396" x2="26.4503" y2="56.3942" gradientUnits="userSpaceOnUse">
<stop stop-color="#1492E7"/>
<stop offset="1" stop-color="#DBEDFB"/>
</linearGradient>
<linearGradient id="paint10_linear_1085_4846" x1="57.4846" y1="73.6322" x2="57.4846" y2="25.501" gradientUnits="userSpaceOnUse">
<stop stop-color="#1285E7"/>
<stop offset="1" stop-color="#00B5EF"/>
</linearGradient>
<linearGradient id="paint11_linear_1085_4846" x1="68.3317" y1="73.4193" x2="42.2513" y2="28.2459" gradientUnits="userSpaceOnUse">
<stop stop-color="#2B90E7"/>
<stop offset="1" stop-color="#00B6EF"/>
</linearGradient>
<linearGradient id="paint12_linear_1085_4846" x1="69.5883" y1="73.693" x2="42.643" y2="27.0227" gradientUnits="userSpaceOnUse">
<stop stop-color="#3795EA"/>
<stop offset="1" stop-color="#49C4F2"/>
</linearGradient>
<linearGradient id="paint13_linear_1085_4846" x1="71.1141" y1="73.2295" x2="43.8062" y2="25.9311" gradientUnits="userSpaceOnUse">
<stop stop-color="#3696EA"/>
<stop offset="1" stop-color="#90D9F6"/>
</linearGradient>
<linearGradient id="paint14_linear_1085_4846" x1="72.3297" y1="72.1334" x2="45.3633" y2="25.4264" gradientUnits="userSpaceOnUse">
<stop stop-color="#3097EA"/>
<stop offset="1" stop-color="#B5E5F9"/>
</linearGradient>
<linearGradient id="paint15_linear_1085_4846" x1="72.7211" y1="70.8484" x2="46.6727" y2="25.7312" gradientUnits="userSpaceOnUse">
<stop stop-color="#3A98EA"/>
<stop offset="1" stop-color="#BCE7FA"/>
</linearGradient>
<linearGradient id="paint16_linear_1085_4846" x1="53.1102" y1="47.8323" x2="58.1695" y2="44.9112" gradientUnits="userSpaceOnUse">
<stop stop-color="#00A4EC"/>
<stop offset="1" stop-color="#B9DFF6"/>
</linearGradient>
<linearGradient id="paint17_linear_1085_4846" x1="51.1617" y1="44.4568" x2="56.2203" y2="41.5357" gradientUnits="userSpaceOnUse">
<stop stop-color="#00A4EC"/>
<stop offset="1" stop-color="#B9DFF6"/>
</linearGradient>
<linearGradient id="paint18_linear_1085_4846" x1="45.2583" y1="34.2338" x2="50.2849" y2="31.3323" gradientUnits="userSpaceOnUse">
<stop stop-color="#00B4EF"/>
<stop offset="1" stop-color="#C3E9FA"/>
</linearGradient>
<linearGradient id="paint19_linear_1085_4846" x1="43.2993" y1="30.8416" x2="48.3587" y2="27.9205" gradientUnits="userSpaceOnUse">
<stop stop-color="#00B4EF"/>
<stop offset="1" stop-color="#C3E9FA"/>
</linearGradient>
<linearGradient id="paint20_linear_1085_4846" x1="42.6299" y1="73.751" x2="42.6299" y2="25.6205" gradientUnits="userSpaceOnUse">
<stop stop-color="#1285E7"/>
<stop offset="1" stop-color="#00B5EF"/>
</linearGradient>
<linearGradient id="paint21_linear_1085_4846" x1="31.782" y1="73.5394" x2="57.8625" y2="28.3675" gradientUnits="userSpaceOnUse">
<stop stop-color="#3194E9"/>
<stop offset="1" stop-color="#71CFF4"/>
</linearGradient>
<linearGradient id="paint22_linear_1085_4846" x1="30.518" y1="73.8131" x2="57.4664" y2="27.1365" gradientUnits="userSpaceOnUse">
<stop stop-color="#5AA6EC"/>
<stop offset="1" stop-color="#A2DEF8"/>
</linearGradient>
<linearGradient id="paint23_linear_1085_4846" x1="28.9984" y1="73.3472" x2="56.3062" y2="26.0487" gradientUnits="userSpaceOnUse">
<stop stop-color="#66ABEE"/>
<stop offset="1" stop-color="#BEE8FA"/>
</linearGradient>
<linearGradient id="paint24_linear_1085_4846" x1="27.7875" y1="72.2511" x2="54.7539" y2="25.544" gradientUnits="userSpaceOnUse">
<stop stop-color="#7BB6F0"/>
<stop offset="1" stop-color="#B1E3F9"/>
</linearGradient>
<linearGradient id="paint25_linear_1085_4846" x1="27.388" y1="70.9942" x2="53.4497" y2="25.8536" gradientUnits="userSpaceOnUse">
<stop stop-color="#5AA6EC"/>
<stop offset="1" stop-color="#AFE3F9"/>
</linearGradient>
<linearGradient id="paint26_linear_1085_4846" x1="51.8448" y1="27.8823" x2="56.9042" y2="30.8034" gradientUnits="userSpaceOnUse">
<stop stop-color="#C1E7FA"/>
<stop offset="1" stop-color="#89D4F5"/>
</linearGradient>
<linearGradient id="paint27_linear_1085_4846" x1="49.8875" y1="31.274" x2="54.9469" y2="34.1943" gradientUnits="userSpaceOnUse">
<stop stop-color="#C1E7FA"/>
<stop offset="1" stop-color="#89D4F5"/>
</linearGradient>
<linearGradient id="paint28_linear_1085_4846" x1="47.8695" y1="34.77" x2="52.9281" y2="37.6903" gradientUnits="userSpaceOnUse">
<stop stop-color="#C1E7FA"/>
<stop offset="1" stop-color="#89D4F5"/>
</linearGradient>
<linearGradient id="paint29_linear_1085_4846" x1="45.907" y1="38.168" x2="50.9656" y2="41.0891" gradientUnits="userSpaceOnUse">
<stop stop-color="#B0DFF8"/>
<stop offset="1" stop-color="#52BDF2"/>
</linearGradient>
<linearGradient id="paint30_linear_1085_4846" x1="43.9453" y1="41.5661" x2="49.0055" y2="44.4872" gradientUnits="userSpaceOnUse">
<stop stop-color="#B4DEF8"/>
<stop offset="1" stop-color="#4EB5F0"/>
</linearGradient>
<linearGradient id="paint31_linear_1085_4846" x1="41.9844" y1="44.9643" x2="47.043" y2="47.8846" gradientUnits="userSpaceOnUse">
<stop stop-color="#B4DEF8"/>
<stop offset="1" stop-color="#4EB5F0"/>
</linearGradient>
<linearGradient id="paint32_linear_1085_4846" x1="40.0305" y1="48.3489" x2="45.0883" y2="51.2692" gradientUnits="userSpaceOnUse">
<stop stop-color="#B5DDF8"/>
<stop offset="1" stop-color="#46AEEE"/>
</linearGradient>
<linearGradient id="paint33_linear_1085_4846" x1="38.0747" y1="51.7344" x2="43.1341" y2="54.6555" gradientUnits="userSpaceOnUse">
<stop stop-color="#96CEF4"/>
<stop offset="1" stop-color="#46AAEE"/>
</linearGradient>
<linearGradient id="paint34_linear_1085_4846" x1="33.3742" y1="62.6055" x2="37.2508" y2="64.8438" gradientUnits="userSpaceOnUse">
<stop stop-color="#8FC1F2"/>
<stop offset="1" stop-color="#3193EA"/>
</linearGradient>
<linearGradient id="paint35_linear_1085_4846" x1="30.1828" y1="65.4049" x2="35.2422" y2="68.326" gradientUnits="userSpaceOnUse">
<stop stop-color="#8FC1F2"/>
<stop offset="1" stop-color="#3193EA"/>
</linearGradient>
<linearGradient id="paint36_linear_1085_4846" x1="28.2219" y1="68.7997" x2="33.2805" y2="71.7208" gradientUnits="userSpaceOnUse">
<stop stop-color="#8FC1F2"/>
<stop offset="1" stop-color="#3193EA"/>
</linearGradient>
<linearGradient id="paint37_linear_1085_4846" x1="59.9396" y1="50.7294" x2="69.6716" y2="55.4755" gradientUnits="userSpaceOnUse">
<stop offset="0.001"/>
<stop offset="1" stop-opacity="0"/>
</linearGradient>
<radialGradient id="paint38_radial_1085_4846" cx="0" cy="0" r="1" gradientTransform="matrix(-5.68105 11.2926 -19.5398 -9.83122 74.4062 19.6324)" gradientUnits="userSpaceOnUse">
<stop/>
<stop offset="1" stop-opacity="0"/>
</radialGradient>
<radialGradient id="paint39_radial_1085_4846" cx="0" cy="0" r="1" gradientTransform="matrix(5.54243 2.7172 -1.54687 3.15485 40.005 89.811)" gradientUnits="userSpaceOnUse">
<stop offset="0.417" stop-color="#0C0C12"/>
<stop offset="1" stop-color="#3D4651"/>
</radialGradient>
<linearGradient id="paint40_linear_1085_4846" x1="66.2172" y1="30.6037" x2="73.8453" y2="34.4904" gradientUnits="userSpaceOnUse">
<stop stop-color="#344351"/>
<stop offset="0.1" stop-color="#9697A0"/>
<stop offset="0.181" stop-color="#8B8C95"/>
<stop offset="0.351" stop-color="#787A83"/>
<stop offset="0.47" stop-color="#71747D"/>
<stop offset="0.591" stop-color="#777982"/>
<stop offset="0.749" stop-color="#87898F"/>
<stop offset="0.8" stop-color="#8E8F94"/>
<stop offset="0.849" stop-color="#3D3B42"/>
<stop offset="0.9" stop-color="#606E84"/>
</linearGradient>
<linearGradient id="paint41_linear_1085_4846" x1="92.0967" y1="22.8569" x2="83.4866" y2="11.2217" gradientUnits="userSpaceOnUse">
<stop offset="0.27" stop-color="#262B33"/>
<stop offset="0.45" stop-color="#74747E"/>
<stop offset="0.54" stop-color="#B0B0BC"/>
<stop offset="0.73" stop-color="#74747E"/>
</linearGradient>
<linearGradient id="paint42_linear_1085_4846" x1="76.9863" y1="23.7683" x2="89.6996" y2="22.1261" gradientUnits="userSpaceOnUse">
<stop offset="0.14" stop-color="#606E84"/>
<stop offset="0.4" stop-color="#9899A5"/>
<stop offset="0.73" stop-color="#475768"/>
<stop offset="0.92" stop-color="#262B33"/>
</linearGradient>
<linearGradient id="paint43_linear_1085_4846" x1="82.9126" y1="24.8495" x2="81.679" y2="17.8542" gradientUnits="userSpaceOnUse">
<stop stop-color="#101215" stop-opacity="0.1"/>
<stop offset="0.46" stop-color="#101215" stop-opacity="0.7"/>
<stop offset="0.7" stop-color="#474951"/>
<stop offset="0.91" stop-color="#7B7D88"/>
</linearGradient>
<linearGradient id="paint44_linear_1085_4846" x1="45.4144" y1="63.8448" x2="57.2159" y2="69.6519" gradientUnits="userSpaceOnUse">
<stop offset="0.115" stop-color="#2C3952"/>
<stop offset="0.374" stop-color="#3D414E"/>
<stop offset="0.55" stop-color="#474A54"/>
<stop offset="0.754" stop-color="#4E5057"/>
<stop offset="0.892" stop-color="#323945"/>
<stop offset="1" stop-color="#143052"/>
</linearGradient>
<linearGradient id="paint45_linear_1085_4846" x1="63.6786" y1="24.7492" x2="72.8052" y2="4.72422" gradientUnits="userSpaceOnUse">
<stop offset="0.118" stop-color="#6D7078" stop-opacity="0"/>
<stop offset="0.2" stop-color="#6D7078" stop-opacity="0.7"/>
<stop offset="0.34" stop-color="#35363A"/>
<stop offset="0.374" stop-color="#1D1F22"/>
<stop offset="0.4" stop-color="#101215"/>
<stop offset="0.5" stop-color="#16171A"/>
<stop offset="0.56" stop-color="#292A2E"/>
<stop offset="0.688" stop-color="#4B4D51"/>
<stop offset="0.807" stop-color="#63666B"/>
<stop offset="0.915" stop-color="#72757B"/>
<stop offset="1" stop-color="#777A80"/>
</linearGradient>
<linearGradient id="paint46_linear_1085_4846" x1="53.9562" y1="13.1543" x2="71.1141" y2="13.1543" gradientUnits="userSpaceOnUse">
<stop stop-color="#4A4D56"/>
<stop offset="1" stop-color="#29292D"/>
</linearGradient>
<linearGradient id="paint47_linear_1085_4846" x1="53.9562" y1="9.13861" x2="68.7922" y2="9.13861" gradientUnits="userSpaceOnUse">
<stop stop-color="#767880"/>
<stop offset="0.41" stop-color="#0C0A0B"/>
</linearGradient>
<linearGradient id="paint48_linear_1085_4846" x1="90.8844" y1="27.1521" x2="96.6461" y2="17.1725" gradientUnits="userSpaceOnUse">
<stop stop-color="#858997"/>
<stop offset="0.23" stop-color="#244668"/>
<stop offset="0.282" stop-color="#1A3249"/>
<stop offset="0.4" stop-color="#040506"/>
<stop offset="0.464" stop-color="#313236"/>
<stop offset="0.546" stop-color="#65656E"/>
<stop offset="0.607" stop-color="#868691"/>
<stop offset="0.64" stop-color="#92929E"/>
</linearGradient>
</defs>
</svg>
