<svg width="100" height="100" viewBox="0 0 100 100" fill="none" xmlns="http://www.w3.org/2000/svg">
<path d="M17.7083 1H82.2917C92.0833 1 100 8.91667 100 18.7083V80.7917C100 90.5833 92.0833 98.5 82.2917 98.5H17.7083C7.91667 98.5 0 90.5833 0 80.7917V18.7083C0 8.91667 7.91667 1 17.7083 1Z" fill="#470137"/>
<path d="M52.5832 26.625L40.0832 47.25L53.4166 69.125C53.4999 69.2917 53.5416 69.4583 53.4999 69.625C53.4582 69.7917 53.2916 69.6667 53.0416 69.7083H43.4999C42.8332 69.7083 42.3749 69.6667 42.0832 69.25C41.2082 67.5 40.2916 65.7917 39.4166 64.0417C38.5416 62.3333 37.5832 60.5833 36.5832 58.7917C35.5832 57 34.5832 55.2083 33.5832 53.375H33.4999C32.6249 55.1667 31.6666 56.9583 30.7082 58.75C29.7499 60.5417 28.7916 62.3333 27.8749 64.0833C26.9166 65.8333 25.9582 67.625 24.9999 69.3333C24.8332 69.75 24.4999 69.7917 24.0416 69.7917H14.8749C14.7082 69.7917 14.5832 69.875 14.5832 69.6667C14.5416 69.5 14.5832 69.3333 14.6666 69.2083L27.6249 47.9583L14.9999 26.5833C14.8749 26.4167 14.8332 26.25 14.9166 26.1667C14.9999 26.0417 15.1666 26 15.3332 26H24.7916C24.9999 26 25.2082 26.0417 25.3749 26.0833C25.5416 26.1667 25.6666 26.2917 25.7916 26.4583C26.5832 28.25 27.4999 30.0417 28.4582 31.8333C29.4582 33.625 30.4166 35.375 31.4582 37.125C32.4582 38.875 33.3749 40.625 34.2499 42.4167H34.3332C35.2082 40.5833 36.1249 38.7917 37.0416 37.0417C37.9582 35.2917 38.9166 33.5417 39.8749 31.7917C40.8332 30.0417 41.7499 28.25 42.6666 26.5417C42.7082 26.375 42.7916 26.2083 42.9166 26.125C43.0832 26.0417 43.2499 26 43.4582 26.0417H52.2499C52.4582 26 52.6666 26.125 52.7082 26.3333C52.7499 26.375 52.6666 26.5417 52.5832 26.625Z" fill="#FF61F6"/>
<path d="M71.8333 70.5835C68.7499 70.6251 65.6666 70.0001 62.8749 68.7085C60.2499 67.5001 58.0833 65.5001 56.5833 63.0418C55.0416 60.5001 54.2916 57.3335 54.2916 53.5418C54.2499 50.4585 55.0416 47.4168 56.5833 44.7501C58.1666 42.0418 60.4583 39.7918 63.2083 38.2918C66.1249 36.6668 69.6249 35.8751 73.7499 35.8751C73.9583 35.8751 74.2499 35.8751 74.6249 35.9168C74.9999 35.9585 75.4166 35.9585 75.9166 36.0001V22.8335C75.9166 22.5418 76.0416 22.3751 76.3333 22.3751H84.7916C84.9999 22.3335 85.1666 22.5001 85.2083 22.6668C85.2083 22.7085 85.2083 22.7501 85.2083 22.7501V62.4168C85.2083 63.1668 85.2499 64.0001 85.2916 64.9168C85.3749 65.7918 85.4166 66.6251 85.4583 67.3335C85.4583 67.6251 85.3333 67.8751 85.0416 68.0001C82.8749 68.9168 80.5833 69.5835 78.2499 70.0001C76.1249 70.3751 73.9999 70.5835 71.8333 70.5835ZM75.9166 62.2501V43.9168C75.5416 43.8335 75.1666 43.7501 74.7916 43.7085C74.3333 43.6668 73.8749 43.6251 73.4166 43.6251C71.7916 43.6251 70.1666 43.9585 68.7083 44.7085C67.2916 45.4168 66.0833 46.4585 65.1666 47.7918C64.2499 49.1251 63.7916 50.9168 63.7916 53.0835C63.7499 54.5418 63.9999 56.0001 64.4999 57.3751C64.9166 58.5001 65.5416 59.5001 66.3749 60.3335C67.1666 61.0835 68.1249 61.6668 69.2083 62.0001C70.3333 62.3751 71.4999 62.5418 72.6666 62.5418C73.2916 62.5418 73.8749 62.5001 74.4166 62.4585C74.9583 62.5001 75.4166 62.4168 75.9166 62.2501Z" fill="#FF61F6"/>
</svg>
