<svg width="100" height="100" viewBox="0 0 100 100" fill="none" xmlns="http://www.w3.org/2000/svg">
<path d="M21.7631 40.3818C24.4797 47.861 29.7839 54.4484 35.9131 59.436C42.0881 64.5568 49.4714 68.4776 57.2547 70.4901C60.0276 71.1997 62.8662 71.6213 65.7256 71.7484C71.1506 71.9568 77.0297 70.8901 81.3839 67.4151C86.7881 63.0984 88.263 56.4776 86.8756 49.8735C86.0047 45.736 84.2047 41.8318 81.8547 38.2609C81.3692 37.5161 80.8606 36.7866 80.3297 36.0734C80.3301 36.0671 80.3322 36.061 80.3359 36.0558C80.3396 36.0507 80.3447 36.0467 80.3506 36.0443H80.3672C80.3756 36.0443 80.3839 36.0443 80.3922 36.0526L82.0339 37.7401C86.0127 41.8425 89.4873 46.4054 92.3839 51.3318C94.7964 55.4693 96.6464 59.8568 97.6131 64.4318C99.1506 71.7109 97.9047 79.2068 92.1714 84.3359C89.1547 87.0359 85.2756 88.6734 81.3797 89.4818C75.9756 90.5943 70.3422 90.4318 64.8589 89.5109C62.0714 89.0443 59.3797 88.4276 56.7881 87.6651C46.0547 84.5151 35.9047 79.1193 27.0255 72.3443C21.6773 68.3368 16.8066 63.7289 12.5089 58.611C8.12138 53.386 4.35888 47.4818 2.02971 41.0526C0.500548 36.8526 -0.361952 32.1859 0.146381 27.761C1.25888 18.1526 8.39638 12.5359 17.5381 10.8443C22.8089 9.86928 28.3464 10.0693 33.7006 10.9984C39.4012 11.9983 44.9644 13.6653 50.2756 15.9651V15.9818C50.2744 15.9857 50.2722 15.9893 50.2693 15.9922C50.2664 15.9951 50.2628 15.9973 50.2589 15.9984H50.2422C46.3496 14.949 42.312 14.5409 38.2881 14.7901C34.9256 14.9901 31.3464 15.8859 28.4672 17.5234C24.1589 19.9734 21.5089 23.6193 20.5214 28.4609C20.2409 29.9715 20.1443 31.5105 20.2339 33.0443C20.338 35.461 20.9131 38.0359 21.7631 40.3818Z" fill="url(#paint0_linear_867_13731)"/>
<path d="M75.0834 30.1448C75.0871 30.1885 75.0769 30.2323 75.0542 30.2698C73.1334 34.0865 71.2084 37.9031 69.2792 41.7156C67.5126 45.2031 66.175 47.7032 65.2584 49.2156C61.8259 54.8943 57.6501 60.0889 52.8417 64.6615C52.8254 64.6771 52.8047 64.6875 52.7824 64.6912C52.7601 64.6949 52.7372 64.6918 52.7167 64.6823C46.161 62.0366 40.2031 58.102 35.1959 53.1115C34.6125 52.5281 34.0292 51.9115 33.4459 51.249C33.4337 51.2334 33.4265 51.2145 33.425 51.1948C33.425 51.174 33.425 51.1531 33.4375 51.1365C35.4949 47.6458 37.8361 44.3305 40.4375 41.224C43.8049 37.228 47.5748 33.5894 51.6875 30.3656C53.3875 29.0323 57.4792 25.8073 63.9792 20.6865L90.2167 0.00731251L90.2375 0L90.2584 0.00731251C90.2661 0.0122425 90.2719 0.0195624 90.2751 0.0281458C90.2776 0.0362827 90.2776 0.045009 90.2751 0.0531458L75.0751 30.1448H75.0834Z" fill="url(#paint1_linear_867_13731)"/>
<path d="M8.44596 99.9999C8.4543 99.9999 8.46263 99.9999 8.4668 99.9915L32.8126 80.9082C32.8236 80.9 32.8323 80.8893 32.8381 80.8769C32.8439 80.8646 32.8466 80.851 32.846 80.8374C32.845 80.8237 32.8408 80.8104 32.8335 80.7988C32.8262 80.7872 32.8162 80.7775 32.8043 80.7707C29.0666 78.4277 25.4714 75.8649 22.0376 73.0957H22.0126L21.9918 73.104C21.9845 73.1093 21.9787 73.1165 21.9751 73.1249L8.4168 99.9457C8.41424 99.9538 8.41424 99.9626 8.4168 99.9707C8.4168 99.979 8.4168 99.9874 8.42513 99.9915C8.43218 99.9972 8.44106 100 8.45013 99.9999H8.44596Z" fill="url(#paint2_linear_867_13731)"/>
<defs>
<linearGradient id="paint0_linear_867_13731" x1="1.99221" y1="14.3776" x2="95.7714" y2="82.0735" gradientUnits="userSpaceOnUse">
<stop stop-color="#6F11F4"/>
<stop offset="1" stop-color="#AA66F1"/>
</linearGradient>
<linearGradient id="paint1_linear_867_13731" x1="90.3167" y1="0.0239813" x2="8.47505" y2="99.9448" gradientUnits="userSpaceOnUse">
<stop stop-color="#F52C77"/>
<stop offset="1" stop-color="#E9A45F" stop-opacity="0.996"/>
</linearGradient>
<linearGradient id="paint2_linear_867_13731" x1="90.3168" y1="0.0248608" x2="8.47511" y2="99.9457" gradientUnits="userSpaceOnUse">
<stop stop-color="#F52C77"/>
<stop offset="1" stop-color="#E9A45F" stop-opacity="0.996"/>
</linearGradient>
</defs>
</svg>
