<svg width="100" height="100" viewBox="0 0 100 100" fill="none" xmlns="http://www.w3.org/2000/svg">
<g clip-path="url(#clip0_1085_4917)">
<path d="M92.7806 38.5908C92.9876 36.815 93.1274 34.5994 93.8212 33.0752C94.3485 34.6549 94.5243 36.7002 95.6024 37.89C97.0071 37.5619 98.5595 37.6424 100 37.9525C99.1353 39.0932 97.2579 39.8635 96.1329 40.5986C97.4868 41.7393 98.1438 43.0682 98.8876 44.6486C96.9228 44.6111 95.1329 42.9033 93.6204 41.983C92.3157 43.4588 91.3985 44.8932 89.486 45.4228C90.1751 43.9447 91.7892 42.6744 91.9931 41.1439C90.4618 40.5736 88.5657 39.3525 87.5712 38.1135C89.1517 38.2088 91.2032 38.4103 92.7806 38.5971" fill="#AE007F"/>
<path d="M94.4097 49.8365C94.5581 48.5475 94.6581 46.9334 95.1628 45.8271C95.5472 46.9771 95.6737 48.4576 96.4573 49.3225C97.4683 49.0842 98.605 49.1396 99.6464 49.3654C99.0198 50.1865 97.6605 50.7568 96.8487 51.2873C97.8339 52.1115 98.3136 53.0779 98.8441 54.2279C97.4183 54.1998 96.1144 52.9568 95.0167 52.2967C94.0753 53.3631 93.4058 54.4068 92.0144 54.792C92.5167 53.7217 93.6909 52.792 93.83 51.6865C92.7206 51.2709 91.3456 50.3857 90.623 49.4865C91.7605 49.5576 93.2565 49.7037 94.4011 49.8365" fill="#97BD00"/>
<path d="M89.5268 58.7132C89.6299 57.8171 89.7002 56.7085 90.0471 55.9429C90.3104 56.7358 90.401 57.7585 90.9432 58.3538C91.6432 58.1897 92.4244 58.2296 93.1487 58.3851C92.7127 58.9554 91.7737 59.3452 91.2135 59.714C91.8916 60.2874 92.2198 60.9507 92.5885 61.7436C91.6026 61.7249 90.7073 60.8694 89.9424 60.4046C89.2877 61.146 88.826 61.8647 87.8658 62.1343C88.2135 61.3936 89.0221 60.7577 89.1205 59.9921C88.3526 59.7046 87.401 59.0944 86.9049 58.4687C87.6987 58.5147 88.7307 58.6171 89.5174 58.7093" fill="#F07F00"/>
<path d="M16.5221 58.1431C15.7096 58.1431 6.5135 67.104 5.61819 68.1618C4.86819 68.9946 4.46194 70.5259 3.176 70.6993C1.80881 70.8814 1.49631 70.3485 0.840061 69.3196C0.216623 68.3439 -0.536502 66.6056 0.550998 65.8993C1.60178 65.2235 14.6315 53.272 15.0377 52.786C15.5432 52.2681 14.9877 50.9884 14.7471 49.061C14.4369 46.5821 14.2783 44.311 14.4705 41.8595C14.6627 39.3399 15.2643 36.2345 15.9174 33.7938C16.3174 32.3001 16.0854 29.3532 18.1643 29.2642C18.5854 29.3657 21.7838 31.5782 20.9221 34.4938C19.6768 38.6743 18.4807 43.3743 18.8494 47.8532C18.9174 48.7173 19.2674 49.4665 19.8158 49.0704C25.7158 44.847 34.9526 40.2696 37.3143 39.4548C38.451 39.0923 39.6166 38.8063 40.7963 38.6618C41.6432 38.7571 42.2838 39.554 42.9541 40.1181C46.2979 42.9845 39.8026 53.1517 39.251 56.247C39.769 56.247 40.333 55.4603 41.3244 54.5642C42.6463 53.365 43.9519 52.1479 45.2408 50.9134C47.094 49.5188 48.7143 48.2399 51.0666 47.9392C56.7244 47.2204 55.0322 55.3688 53.7557 58.2829C54.4838 58.2829 56.2651 56.2313 57.694 54.8767C58.4104 54.1985 59.2057 53.4798 59.9307 52.8103C60.7932 52.0173 61.1924 51.6048 61.8424 51.9243C62.2799 52.0478 64.1705 53.1946 64.276 54.9454C64.3651 56.3649 63.783 57.7556 63.5018 59.1157C63.2627 60.2563 63.3221 63.9649 64.858 63.972C65.4658 63.5314 66.2588 63.3454 66.9807 63.222C68.1463 63.0267 68.0901 63.4079 69.051 63.7642C70.5565 64.3212 69.1963 66.4595 68.4026 67.2501C67.3401 68.3103 65.8182 69.0103 64.2932 68.9845C62.6174 68.9571 61.301 67.9251 60.5447 66.4751C60.1322 65.6821 59.6002 62.7446 59.3947 61.8735C59.1908 61.0181 59.3674 59.9923 58.4596 60.8603C55.8971 63.3329 53.2541 65.6298 50.6471 68.0649C47.776 70.7462 45.033 67.0634 45.5533 64.0556C46.0651 61.1149 48.6026 57.5235 49.0588 54.6079C47.8463 54.6079 45.8049 56.7235 45.033 57.5978C43.7776 59.0173 42.3862 60.5884 40.9705 62.0782C39.5448 63.5751 38.3244 64.9532 36.8924 66.4439C35.8612 67.5196 34.6799 69.0501 32.9393 69.1493C32.0799 69.0134 30.7143 67.5853 30.4822 65.7688C30.2862 64.2509 30.6705 62.5837 31.2494 61.1892C32.9299 57.1579 37.5244 48.6423 38.6002 44.4063C36.394 44.6212 27.0455 48.9431 20.8572 54.0993C19.0658 55.5774 20.7205 58.2798 21.4682 60.0798C22.2697 62.004 24.6369 65.4837 25.344 66.0751C27.1971 67.6157 25.7158 68.9767 23.8783 68.8798C23.0971 68.3282 22.1526 67.7298 21.4213 66.9985C20.6244 66.2032 19.9369 65.2954 19.3135 64.3657C18.0432 62.4853 16.8322 60.311 16.5033 58.0282M83.0143 34.0126C82.4908 32.0642 80.0541 35.0392 78.8338 36.6142C75.4557 40.961 72.3768 49.8103 71.8799 51.4407C70.3682 56.4392 69.7822 62.5993 73.0541 66.9985C74.9572 69.5649 78.3104 69.7595 81.5971 68.8149C83.2924 68.3282 84.9901 67.1103 85.5697 65.7876C86.0502 64.6845 86.2979 62.6337 83.8776 64.1978C82.9416 64.8024 81.2252 65.4688 78.1479 65.4196C77.1166 65.4001 75.4213 63.9196 74.9666 62.3884C74.1666 59.8939 74.508 56.5626 74.508 56.5626C75.2041 52.2618 77.2002 47.6017 78.951 43.6907C79.6307 42.1813 81.6994 38.4196 82.4744 37.2204C82.4744 37.2235 83.4666 35.6595 83.0213 33.9985L83.0143 34.0126Z" fill="#005FAD"/>
</g>
<defs>
<clipPath id="clip0_1085_4917">
<rect width="100" height="100" fill="white"/>
</clipPath>
</defs>
</svg>
