<svg width="100" height="100" viewBox="0 0 100 100" fill="none" xmlns="http://www.w3.org/2000/svg">
<path d="M17.3859 31.0773L0.390625 4.39844H12.6484L23.4555 21.5773L34.35 4.39844H46.0844L28.2922 31.0773V47.9914H17.3859V31.0773Z" fill="black"/>
<path d="M64.3966 38.3965H44.6575L40.6427 48.0902H31.902L50.3864 4.49805H59.3263L77.0606 48.0902H67.7184L64.3966 38.3965ZM61.1177 29.6934L55.0669 13.6965L48.3153 29.6934H61.1177Z" fill="#CB171E"/>
<path d="M17.3859 52.8792V95.6042H26.5523V66.1323L36.146 85.9417H43.3616L53.2835 65.437V95.594H62.0773V52.8792H50.0702L39.4156 72.1995L29.2687 52.8792H17.3859ZM99.6109 86.3198H77.0617V52.8667H67.7202V95.4097H99.6109V86.3198Z" fill="black"/>
</svg>
