<svg width="100" height="100" viewBox="0 0 100 100" fill="none" xmlns="http://www.w3.org/2000/svg">
<g clip-path="url(#clip0_1085_4926)">
<path d="M50 0C40.111 0 30.444 2.93245 22.2215 8.42652C13.9991 13.9206 7.59043 21.7295 3.80605 30.8658C0.0216641 40.0021 -0.968503 50.0555 0.960758 59.7545C2.89002 69.4536 7.65206 78.3627 14.6447 85.3553C21.6373 92.348 30.5465 97.11 40.2455 99.0393C49.9446 100.969 59.9979 99.9784 69.1342 96.194C78.2705 92.4096 86.0794 86.001 91.5735 77.7785C97.0676 69.5561 100 59.8891 100 50C100 36.7392 94.7322 24.0215 85.3554 14.6447C75.9785 5.26784 63.2608 0 50 0ZM53.6602 17.1469C54.277 17.2167 54.8687 17.4314 55.3867 17.7734C55.911 18.1203 56.5805 18.5797 58.5321 22.6125C59.2713 22.3477 60.0746 22.3196 60.8305 22.532C61.2432 22.6443 61.6279 22.8416 61.9599 23.1112C62.292 23.3808 62.564 23.7168 62.7586 24.0977C64.7508 27.9203 65.0156 34.7336 64.1446 39.1133C63.3716 42.9905 61.7647 46.6533 59.4352 49.8477C61.5183 52.0158 63.1061 54.6101 64.0891 57.4516C65.0496 60.1401 65.437 62.9997 65.2266 65.8469C66.0931 65.4312 66.9332 64.9626 67.7422 64.4437C70.2094 62.9195 73.9352 60.6203 78.3789 60.5641C79.7269 60.4741 81.0589 60.8985 82.1063 61.7517C83.1538 62.6049 83.8389 63.8234 84.0235 65.1617C84.1918 66.4281 83.8808 67.7116 83.1514 68.7604C82.422 69.8092 81.327 70.5475 80.0813 70.8305C77.3797 71.4836 76.1211 71.9914 72.4922 74.3461C68.5743 76.8052 64.3571 78.7513 59.9438 80.1367C59.0907 80.8365 58.085 81.3258 57.0078 81.5648C53.9352 82.3148 43.3946 82.8789 42.5641 82.8789H42.3703C39.1438 82.8789 37.3157 81.8789 36.3313 80.8312C33.5891 82.2023 30.0406 81.6359 27.4602 80.2734C26.8424 79.9706 26.3028 79.5294 25.8832 78.9842C25.4635 78.439 25.1752 77.8044 25.0406 77.1297C24.9449 76.5799 24.9449 76.0177 25.0406 75.468C24.8033 75.2198 24.5899 74.9499 24.4031 74.6617C22.9374 72.224 22.2981 69.3781 22.5805 66.5477C22.8149 63.5398 24.8961 60.8547 26.2508 59.4273C26.1383 56.2033 26.7039 52.9916 27.911 50C29.2088 47.218 31.0836 44.744 33.411 42.7422C32.0805 40.5 30.7266 37.0484 32.0406 33.532C32.9844 31.0242 33.7586 29.6289 35.4602 29.032C36.2026 28.8168 36.8918 28.4488 37.4836 27.9516C39.9655 25.2555 43.3915 23.6204 47.0485 23.3867C47.2016 23 47.3789 22.5797 47.5727 22.2086C48.8633 19.4664 50.2336 17.9273 51.8383 17.3703C52.4195 17.1533 53.0438 17.0768 53.6602 17.1469ZM53.2242 20.0352C51.1125 20.1047 49.0406 26.3625 49.0406 26.3625C47.2926 26.191 45.5287 26.4297 43.8891 27.0597C42.2495 27.6896 40.7795 28.6935 39.5961 29.9914C38.7193 30.8368 37.6561 31.4644 36.4922 31.8234C36.161 31.9359 35.7578 31.9187 34.7578 34.6203C33.2258 38.7094 37.3711 43.3391 37.3711 43.3391C37.3711 43.3391 32.4274 46.8313 30.5961 51.1781C29.3741 54.1585 28.8901 57.39 29.1852 60.5977C29.1852 60.5977 25.6696 63.6453 25.4446 66.7906C25.2355 68.9938 25.7352 71.2061 26.8711 73.1055C26.9598 73.2949 27.0856 73.4647 27.2411 73.6047C27.3965 73.7447 27.5785 73.8521 27.7761 73.9205C27.9738 73.989 28.1832 74.0171 28.392 74.0033C28.6007 73.9894 28.8045 73.9338 28.9914 73.8398C28.9914 73.8398 26.6531 76.5641 28.8383 77.7172C30.8305 78.757 34.1852 79.3305 35.9594 77.5641C37.25 76.2742 37.5078 73.3961 37.9836 72.2188C38.0961 71.9445 38.4836 72.6781 38.8547 73.025C39.1967 73.3242 39.5633 73.5939 39.9508 73.8312C39.9508 73.8312 36.8071 75.1859 38.0969 78.275C38.5242 79.2984 40.0485 79.9508 42.5406 79.9352C43.468 79.9352 53.6367 79.3547 56.3461 78.7008C57.1656 78.5715 57.9122 78.1547 58.4524 77.525C62.8525 76.2165 67.0548 74.3174 70.9446 71.8797C74.7664 69.3875 76.3313 68.7086 79.4196 67.975C81.968 67.3703 81.7985 63.4203 78.4196 63.4766C74.9196 63.5172 71.8555 65.3227 69.2664 66.9352C64.4282 69.9273 62.0086 69.7344 62.0086 69.7344L61.9266 69.5977C61.5961 69.057 63.4758 64.2102 61.3703 58.4359C59.0969 52.1219 55.4844 50.5977 55.7742 50.1133C57.0086 48.025 60.0977 44.7094 61.3313 38.532C62.0656 34.7898 61.8711 28.6289 60.2102 25.4031C59.9031 24.8062 57.1617 26.4031 57.1617 26.4031C57.1617 26.4031 54.5969 20.6852 53.8797 20.2258C53.6862 20.0959 53.4572 20.0293 53.2242 20.0352Z" fill="#2C8EBB"/>
</g>
<defs>
<clipPath id="clip0_1085_4926">
<rect width="100" height="100" fill="white"/>
</clipPath>
</defs>
</svg>
