<svg width="100" height="100" viewBox="0 0 100 100" fill="none" xmlns="http://www.w3.org/2000/svg">
<path fill-rule="evenodd" clip-rule="evenodd" d="M77.5836 58.0283C80.1294 58.0283 82.1961 60.1325 82.1961 62.7283V86.9659C82.1961 89.5617 80.1294 91.6658 77.5794 91.6658C76.9677 91.6604 76.363 91.5345 75.7999 91.2954C75.2368 91.0562 74.7263 90.7085 74.2976 90.272C73.8689 89.8356 73.5304 89.319 73.3013 88.7517C73.0723 88.1844 72.9572 87.5776 72.9627 86.9659V62.7283C72.9627 60.1325 75.0294 58.0283 77.5794 58.0283H77.5836ZM69.1252 12.7158C69.5126 12.2464 69.9901 11.8592 70.5295 11.5772C71.069 11.2953 71.6594 11.1242 72.266 11.0741C72.8726 11.024 73.4831 11.0959 74.0615 11.2855C74.6399 11.4752 75.1744 11.7788 75.6336 12.1783C77.5752 13.8617 77.8086 16.8283 76.1586 18.8033L51.4169 48.4325V86.545C51.4169 89.145 49.3502 91.2492 46.8002 91.2492C46.1881 91.2437 45.5831 91.1177 45.0197 90.8783C44.4564 90.6389 43.9457 90.2908 43.517 89.8539C43.0882 89.417 42.7498 88.8999 42.521 88.3322C42.2922 87.7644 42.1775 87.1571 42.1836 86.545V47.0575L42.1961 46.6908L42.2377 46.3284C42.3002 45.3617 42.6627 44.4033 43.3252 43.6033L69.1252 12.7158ZM12.1086 9.39918C12.5748 9.00819 13.1146 8.71449 13.6961 8.53541C14.2776 8.35632 14.889 8.29547 15.4944 8.35644C16.0998 8.4174 16.6869 8.59896 17.221 8.89039C17.7552 9.18183 18.2255 9.57725 18.6044 10.0533L36.8836 32.7617C37.6596 33.7304 38.0265 34.964 37.9058 36.1993C37.7852 37.4347 37.1866 38.574 36.2377 39.3742C35.7715 39.7652 35.2318 40.0589 34.6503 40.2379C34.0688 40.417 33.4573 40.4779 32.8519 40.4169C32.2465 40.356 31.6594 40.1744 31.1253 39.883C30.5912 39.5915 30.1208 39.1961 29.7419 38.72L11.4627 16.0117C10.7461 15.1154 10.3769 13.9908 10.4228 12.8442C10.4688 11.6976 10.9268 10.6061 11.7127 9.77001L12.1086 9.39918Z" fill="black"/>
<path d="M83.942 50.2939C87.0578 50.2939 89.5836 47.7214 89.5836 44.5481C89.5836 41.3747 87.0578 38.8022 83.942 38.8022C80.8262 38.8022 78.3003 41.3747 78.3003 44.5481C78.3003 47.7214 80.8262 50.2939 83.942 50.2939Z" fill="#00FF25"/>
</svg>
