<svg width="100" height="100" viewBox="0 0 100 100" fill="none" xmlns="http://www.w3.org/2000/svg">
<g clip-path="url(#clip0_1085_4928)">
<path d="M69.5491 63.5678C68.8741 54.66 66.0023 48.8865 64.603 45.6147C63.2046 42.342 61.0546 39.2795 61.053 39.2842C61.0491 39.2982 59.1171 49.7076 55.6444 57.2397C55.064 58.4975 54.2944 60.0678 53.5171 61.3318C51.1194 65.5662 47.6413 69.6154 45.5671 73.7201C43.5109 77.7889 43.1296 81.8178 43.321 86.399C43.514 91.0053 44.578 95.5225 45.5991 100.001C49.4507 99.1701 52.8023 97.7482 55.7023 95.9303C63.3335 91.1459 67.9444 83.4943 69.2554 75.2506C69.2554 75.2506 69.3194 74.9146 69.3476 74.5068C69.939 68.1357 69.7429 66.1248 69.5491 63.5678Z" fill="#40B3D8"/>
<path d="M69.5491 63.5673C68.8741 54.6595 66.0023 48.8861 64.6031 45.6142C63.2046 42.3416 61.0546 39.2791 61.0531 39.2837L60.5398 38.5205C49.2859 22.7228 27.7038 14.8353 9.46868 22.1455C8.59055 33.2189 13.7241 52.2705 32.4531 57.5853C40.0241 59.9142 46.0874 59.3103 53.5179 61.3306C53.5179 61.3306 61.0702 63.9642 65.464 67.9111C67.4406 69.6869 69.4202 72.0228 69.321 74.8017C69.9468 68.1884 69.7452 66.165 69.5491 63.5673Z" fill="#83C933"/>
<path d="M61.3712 30.0133C58.7102 22.2281 59.8384 17.0109 64.7063 9.75156C67.0282 6.2875 71.0376 2.26953 74.5509 0C88.7267 8.88281 93.9688 25.4297 88.7556 40.7969C84.961 51.9781 81.4009 56.6664 72.4001 68.1703C73.4493 55.85 69.1134 47.3078 64.8556 37.8164C63.772 35.4023 62.2735 32.6523 61.3712 30.0133Z" fill="#F18A2A"/>
<path d="M69.3211 74.8022C69.4203 72.0233 67.4414 69.6873 65.4648 67.9115C61.0703 63.9647 53.5179 61.3318 53.5179 61.3318C54.2953 60.0678 55.0648 58.4967 55.6445 57.2389C59.1179 49.7076 61.0492 39.2982 61.0531 39.2842C61.0547 39.2795 63.2047 42.342 64.6031 45.6139C66.0015 48.8857 68.875 54.66 69.55 63.567C69.7461 66.1654 69.9469 68.1897 69.3211 74.8022Z" fill="#7FB93C"/>
</g>
<defs>
<clipPath id="clip0_1085_4928">
<rect width="100" height="100" fill="white"/>
</clipPath>
</defs>
</svg>
