<svg width="100" height="100" viewBox="0 0 100 100" fill="none" xmlns="http://www.w3.org/2000/svg">
<g clip-path="url(#clip0_867_13721)">
<path d="M50 99.9985C77.6142 99.9985 100 77.6128 100 49.9985C100 22.3843 77.6142 -0.00146484 50 -0.00146484C22.3858 -0.00146484 0 22.3843 0 49.9985C0 77.6128 22.3858 99.9985 50 99.9985Z" fill="#303846"/>
<path d="M50.4053 70.6746C54.3918 63.7151 54.6621 54.9313 50.4053 47.4989C46.1486 40.0665 38.3107 35.9448 30.3378 35.9448C26.3513 42.9043 26.081 51.6881 30.3378 59.1205C34.5945 66.4854 42.3648 70.6746 50.4053 70.6746Z" stroke="#97DCCF" stroke-width="3.37838" stroke-miterlimit="10"/>
<path d="M49.5949 70.6746C57.5678 70.6746 65.3381 66.5529 69.6624 59.1205C73.9192 51.6881 73.6489 42.9043 69.6624 35.9448C61.6895 35.9448 53.9192 40.0665 49.5949 47.4989C45.3381 54.9313 45.6084 63.7151 49.5949 70.6746Z" stroke="#97DCCF" stroke-width="3.37838" stroke-miterlimit="10"/>
<path d="M50 69.8632C56.8919 65.8767 61.554 58.3767 61.554 49.7956C61.554 41.2145 56.8919 33.7145 50 29.728C43.1081 33.7145 38.4459 41.2145 38.4459 49.7956C38.4459 58.3767 43.1081 65.8767 50 69.8632Z" stroke="#97DCCF" stroke-width="3.37838" stroke-miterlimit="10"/>
</g>
<defs>
<clipPath id="clip0_867_13721">
<rect width="100" height="100" fill="white"/>
</clipPath>
</defs>
</svg>
