<svg width="100" height="100" viewBox="0 0 100 100" fill="none" xmlns="http://www.w3.org/2000/svg">
<g clip-path="url(#clip0_1085_4933)">
<path d="M2.04138 80.0689C1.96823 80.0146 1.91633 79.9365 1.89464 79.8481C1.87296 79.7597 1.88286 79.6664 1.92263 79.5845L13.8523 55.0142L0.0921594 38.5782C0.0261279 38.4987 -0.00568692 38.3962 0.00368503 38.2933C0.013057 38.1904 0.0628515 38.0953 0.142159 38.029L40.2797 4.58137C47.4211 -1.37176 57.7609 -1.53973 65.0976 4.17434C72.4312 9.8884 74.775 19.9368 70.7179 28.2931L66.3437 37.3048C68.0183 36.7418 69.7069 36.2214 71.4078 35.7439L91.2109 30.0564C91.262 30.0416 91.3156 30.0375 91.3684 30.0442C91.4211 30.051 91.472 30.0684 91.5178 30.0955C91.5636 30.1225 91.6033 30.1587 91.6347 30.2016C91.666 30.2446 91.6882 30.2936 91.7 30.3454L99.9898 67.197C100.002 67.2508 100.003 67.3065 99.9922 67.3606C99.9816 67.4148 99.9598 67.4661 99.9281 67.5113C99.8965 67.5564 99.8557 67.5945 99.8085 67.623C99.7613 67.6515 99.7086 67.6698 99.6539 67.6767C97.0257 68.0071 82.689 70.0673 64.8398 77.5657C44.6164 86.0603 31.2711 98.1322 29.3804 99.8978C29.3138 99.9605 29.2269 99.9973 29.1354 100.001C29.044 100.006 28.9541 99.9769 28.882 99.9204L2.04138 80.0689Z" fill="url(#paint0_linear_1085_4933)"/>
<path d="M81.25 18.75H18.75V81.25H81.25V18.75Z" fill="black"/>
<path d="M24.9664 26.5503L33.5422 41.205V49.9972H38.0125V41.1714L46.4539 26.5503H41.6141L36.4414 35.894L35.8188 37.2534L35.1992 35.9128L29.8891 26.5503H24.9664ZM47.3235 26.5503V30.6698H54.4586V49.9972H59.0297V30.6698H66.1313V26.5503H47.3235ZM26.5625 68.7464V73.4339H51.5625V68.7464H26.5625Z" fill="white"/>
</g>
<defs>
<linearGradient id="paint0_linear_1085_4933" x1="-0.159402" y1="49.9996" x2="100.082" y2="49.9996" gradientUnits="userSpaceOnUse">
<stop stop-color="#FB43FF"/>
<stop offset="0.97" stop-color="#FB406D"/>
</linearGradient>
<clipPath id="clip0_1085_4933">
<rect width="100" height="100" fill="white"/>
</clipPath>
</defs>
</svg>
