<svg width="100" height="100" viewBox="0 0 100 100" fill="none" xmlns="http://www.w3.org/2000/svg">
<g clip-path="url(#clip0_867_14603)">
<path d="M50 100C77.6125 100 100 77.613 100 50.0005C100 22.388 77.6125 0.000488281 50 0.000488281C22.3875 0.000488281 0 22.388 0 50.0005C0 77.613 22.3875 100 50 100Z" fill="url(#paint0_linear_867_14603)"/>
<path fill-rule="evenodd" clip-rule="evenodd" d="M50 0.000488281C52.1583 0.000488281 54.2833 0.137988 56.3667 0.400488C62.4157 1.93882 67.7013 5.6192 71.2429 10.7587C74.7844 15.8983 76.3413 22.148 75.6248 28.3483C74.9083 34.5486 71.967 40.2785 67.3466 44.4748C62.7262 48.6712 56.7404 51.049 50.5 51.1672L50 51.1713C37.5417 51.1713 28.1583 60.2505 26.8583 72.463C25.9292 81.1547 28.3292 90.8463 36.2 98.0713C15.3 92.0838 0 72.8297 0 50.0005C0 22.388 22.3875 0.000488281 50 0.000488281Z" fill="url(#paint1_linear_867_14603)"/>
<path fill-rule="evenodd" clip-rule="evenodd" d="M22.025 20.8349C23.1364 21.5729 24.0915 22.5227 24.8358 23.6299C25.5801 24.7372 26.099 25.9802 26.3629 27.288C26.6268 28.5957 26.6305 29.9427 26.3737 31.2519C26.117 32.5611 25.6049 33.8069 24.8667 34.9182C8.35833 59.7765 11.4708 79.6807 35.9 97.9849C15.15 91.9015 0 72.7182 0 50.0015C0 42.5557 1.625 35.4932 4.54167 29.1432C5.59583 27.3307 6.72917 25.5099 7.94583 23.6807C9.43573 21.4366 11.7559 19.8762 14.3962 19.3425C17.0364 18.8088 19.7805 19.3457 22.025 20.8349Z" fill="url(#paint2_linear_867_14603)"/>
<path fill-rule="evenodd" clip-rule="evenodd" d="M54.0832 0.166992C55.2166 0.254492 56.3457 0.387826 57.4582 0.554492C59.8874 0.996159 62.1124 1.61283 63.8666 2.38783C91.5249 14.5837 97.4916 44.2712 71.1499 67.5628C67.7346 70.5804 63.2608 72.1183 58.712 71.8386C54.1631 71.5589 49.9115 69.4844 46.8916 66.0712C40.5999 58.9628 41.4749 48.6378 48.3791 41.8128C51.9541 38.2795 61.3291 36.717 65.2332 31.6462C70.4707 24.8337 74.0749 6.60449 54.7207 0.366992L54.0832 0.166992Z" fill="url(#paint3_linear_867_14603)"/>
<path fill-rule="evenodd" clip-rule="evenodd" d="M56.3669 0.400326C62.4639 1.94288 67.7866 5.661 71.3332 10.8547C74.8797 16.0484 76.4053 22.3594 75.6228 28.5996C74.8402 34.8398 71.8036 40.5787 67.0845 44.7359C62.3653 48.8931 56.2893 51.1818 50.0002 51.1712C47.5853 51.1643 45.1831 51.5225 42.8752 52.2337C43.4877 48.4628 45.3544 44.8003 48.3794 41.8128C51.9544 38.2795 61.3294 36.717 65.2336 31.642C70.5252 24.7628 74.1502 6.20866 54.0836 0.166992C54.8502 0.225326 55.6127 0.304492 56.3669 0.400326Z" fill="#ECECEE"/>
</g>
<defs>
<linearGradient id="paint0_linear_867_14603" x1="50" y1="0.000488281" x2="50" y2="100" gradientUnits="userSpaceOnUse">
<stop stop-color="#02B2FC"/>
<stop offset="0.5" stop-color="#20CBB6"/>
<stop offset="1" stop-color="#13D363"/>
</linearGradient>
<linearGradient id="paint1_linear_867_14603" x1="37.8958" y1="0.000488281" x2="37.8958" y2="98.0713" gradientUnits="userSpaceOnUse">
<stop stop-color="#C3EBEF"/>
<stop offset="1" stop-color="#D3F4DD"/>
</linearGradient>
<linearGradient id="paint2_linear_867_14603" x1="17.95" y1="19.139" x2="17.95" y2="97.9849" gradientUnits="userSpaceOnUse">
<stop stop-color="#14D368"/>
<stop offset="0.5" stop-color="#24CEAD"/>
<stop offset="1" stop-color="#03B4F8"/>
</linearGradient>
<linearGradient id="paint3_linear_867_14603" x1="65.3541" y1="0.162826" x2="65.3541" y2="71.8712" gradientUnits="userSpaceOnUse">
<stop stop-color="#61CFFA" stop-opacity="0.996"/>
<stop offset="1" stop-color="#79E3C0"/>
</linearGradient>
<clipPath id="clip0_867_14603">
<rect width="100" height="100" fill="white"/>
</clipPath>
</defs>
</svg>
