<svg width="100" height="100" viewBox="0 0 100 100" fill="none" xmlns="http://www.w3.org/2000/svg">
<path d="M26.8016 4.5418C29.0984 4.5418 30.2203 4.5418 31.1063 4.98555C31.8678 5.37883 32.4885 5.99874 32.8828 6.75977C33.3266 7.6207 33.3266 8.76992 33.3266 11.066V39.7457C33.3266 43.1379 33.3266 44.8598 32.6219 45.9035C32.3134 46.3572 31.9163 46.7438 31.4544 47.0399C30.9925 47.3359 30.4754 47.5354 29.9344 47.6262C28.6805 47.8348 27.1414 47.1043 24.0625 45.6691L16.025 41.9113C10.2305 39.1973 7.33438 37.8395 5.19453 35.752C3.31683 33.904 1.8806 31.6559 0.992969 29.1754C0 26.3848 0 23.2012 0 16.7809V11.066C0 8.76914 0 7.64727 0.44375 6.76133C0.837105 5.99938 1.45732 5.37835 2.21875 4.98398C3.10625 4.54102 4.25547 4.54102 6.525 4.54102L26.8016 4.5418ZM93.4758 4.5418C95.7727 4.5418 96.8953 4.5418 97.782 4.98555C98.5427 5.37922 99.1626 5.99909 99.5563 6.75977C100 7.6207 100 8.76992 100 11.066V16.7809C100 23.1738 100 26.384 99.0078 29.2027C98.1203 31.6829 96.6843 33.9307 94.807 35.7785C92.693 37.866 89.7703 39.2238 83.9773 41.9371L66.65 50.0004V11.066C66.65 8.76914 66.65 7.64727 67.093 6.76133C67.4865 5.99967 68.1067 5.37892 68.868 4.98477C69.7547 4.54102 70.9039 4.54102 73.2 4.54102L93.4758 4.5418ZM66.65 50.0004V88.9355C66.65 91.2324 66.65 92.3543 66.2063 93.2402C65.8128 94.0015 65.1929 94.6219 64.432 95.016C63.5703 95.4598 62.4219 95.4598 60.1258 95.4598H39.8492C37.5523 95.4598 36.4305 95.4598 35.5445 95.016C34.7833 94.6226 34.1628 94.0027 33.7687 93.2418C33.3258 92.3809 33.3258 91.2316 33.3258 88.9355V83.1941C33.3258 76.8012 33.3258 73.5926 34.318 70.773C35.2054 68.2926 36.6413 66.0445 38.5187 64.1965C40.632 62.109 43.5547 60.7527 49.3469 58.0637L66.65 50.0004Z" fill="#FF5F3B"/>
</svg>
