<svg width="100" height="100" viewBox="0 0 100 100" fill="none" xmlns="http://www.w3.org/2000/svg">
<g clip-path="url(#clip0_1085_4939)">
<path d="M92.189 0H7.81397C3.49897 0 0.000976562 3.498 0.000976562 7.813V92.188C0.000976562 96.503 3.49897 100.001 7.81397 100.001H92.189C96.504 100.001 100.002 96.503 100.002 92.188V7.813C100.002 3.498 96.504 0 92.189 0Z" fill="black"/>
<path d="M12.9343 89.4013C12.0603 88.8107 10.8821 87.4525 10.3152 86.3806C9.22266 84.3078 7.08782 82.043 4.91754 80.6493C3.41754 79.6867 2.59372 76.8018 3.50612 75.7034C3.81026 75.3373 5.09766 74.7586 6.36735 74.416C7.63703 74.0735 8.88605 73.607 9.14294 73.3767C9.39983 73.1434 9.6331 71.4751 9.66263 69.668C9.83684 58.6011 9.92246 58.3294 13.3093 58.3294C17.325 58.3294 20.0416 63.1276 18.7217 67.8875C17.7857 71.2625 17.9717 71.9918 19.7729 71.98C22.5248 71.9682 22.6725 71.6522 22.7965 65.5843C22.9855 56.4308 24.9904 53.5194 29.5937 55.7133C32.5111 57.107 32.9422 60.8806 30.9461 67.5981C30.2906 69.795 31.5869 78.8924 32.9422 81.6385C33.7069 83.1857 32.889 85.3589 31.4628 85.5627C30.8132 85.6542 29.7502 85.2025 28.8733 84.4643C28.0524 83.7733 27.2109 83.2094 26.9983 83.2094C26.7886 83.2094 26.0061 82.3324 25.262 81.2605C23.9687 79.3885 22.4865 78.7566 21.8457 79.796C21.6804 80.0617 20.5494 80.5341 19.3359 80.8383C17.204 81.3757 17.1331 81.4524 17.4018 82.9141C18.205 87.2428 18.2109 88.9672 17.4372 89.7438C16.3802 90.8038 14.8477 90.6887 12.9343 89.4013ZM62.3634 82.6276C61.3064 82.0135 59.2453 79.7192 58.3329 78.1395C58.0081 77.5725 57.7306 76.0548 57.7217 74.7615C57.6981 71.3068 59.1479 69.1306 59.9009 71.4987C60.6125 73.7428 63.2552 74.7526 64.4983 73.2497C65.5022 72.0391 63.8221 69.2103 59.6587 65.1001C55.9146 61.4091 55.7522 61.1581 55.7522 59.0322C55.7522 55.7339 56.6971 54.3668 60.0839 52.7457C62.9008 51.4022 63.143 51.3639 65.1331 52.0017C67.8349 52.8698 71.0091 55.9288 70.7906 57.4524C70.6577 58.4062 70.3477 58.5745 68.6824 58.5745C67.6075 58.5745 66.456 58.7516 66.1193 58.9672C65.1243 59.6139 65.4254 61.0873 66.7306 61.9436C67.9323 62.729 67.9501 62.7231 67.9501 61.356C67.9501 60.0154 68.077 59.9446 72.2197 59.0292L76.4865 58.0843L76.8349 54.2457C77.4225 47.7851 79.2886 46.5095 82.9766 50.0528C84.1016 51.1365 85.0583 52.2881 85.0997 52.6129C85.141 52.9377 85.1971 53.5341 85.2237 53.9387C85.2621 54.541 86.0062 54.6414 89.4786 54.4997C93.5298 54.3373 93.7424 54.3816 95.207 55.7192C96.2523 56.6729 96.766 57.6326 96.8517 58.7812C96.958 60.1926 96.7276 60.6237 95.3517 61.5627C94.4599 62.1739 91.5485 63.3698 88.8881 64.2202C85.0672 65.4367 84.0485 65.9534 84.0485 66.6621C84.0485 67.1582 84.2995 69.7566 84.6036 72.4406C85.2326 77.9623 84.831 79.7694 82.7729 80.7084C80.9599 81.5351 80.4816 81.4052 78.7719 79.6395C76.77 77.5755 76.1499 75.3993 76.5515 71.8147C76.9205 68.4987 76.705 68.2477 73.6696 68.4898L71.5081 68.6611L72.2168 70.6897C72.6745 72.0007 72.831 73.6719 72.6597 75.4023C72.4383 77.67 72.1459 78.3019 70.7818 79.4771C66.7394 82.9525 64.4156 83.8176 62.3634 82.6276ZM42.4914 82.2202C40.1499 81.8156 36.7483 79.1847 34.6991 76.1906C33.2374 74.0528 33.0721 73.4682 33.1046 70.5804C33.1518 66.8215 34.3211 62.4515 35.7827 60.5942C36.9402 59.1208 40.4688 57.3521 42.2493 57.3521C43.33 57.3521 45.831 58.2703 49.6548 60.0745C52.956 61.6276 53.5288 62.5961 54.2552 67.8196L54.7926 71.6729L53.0121 75.4672C52.0317 77.5519 50.7384 79.7221 50.1361 80.2861C48.7187 81.6178 44.7768 82.6158 42.4914 82.2202ZM43.7227 72.9958C45.4766 72.3284 46.3565 69.4377 45.2965 67.8225C44.8654 67.1611 44.2276 66.6208 43.8792 66.6208C41.9363 66.6208 39.8811 71.233 41.1479 72.7566C41.827 73.5745 42.1223 73.607 43.7227 72.9958ZM16.1882 48.4495C15.2552 47.8294 13.9943 46.2792 13.3093 44.9121C12.199 42.6916 12.1016 41.9977 12.2227 37.1611L12.3526 31.8461L9.41755 29.0292C7.80239 27.476 6.47955 26.1178 6.47955 26.0115C6.47955 25.9052 6.03959 23.7615 5.50514 21.2516C4.9707 18.7418 4.52778 15.5233 4.52778 14.1C4.52778 11.8737 4.69904 11.4042 5.76203 10.7044C7.69313 9.44355 9.80436 10.291 11.6823 13.0843C12.9284 14.9386 13.2916 16.0814 13.5662 19.0341C13.9294 22.8845 14.5701 23.9741 16.1764 23.4632C17.1361 23.1621 19.9176 20.2743 20.9097 18.5558C21.4116 17.6847 21.5298 17.6995 23.6735 18.9573C25.2945 19.9052 26.0741 20.7497 26.4845 21.9898C26.9924 23.5253 26.9185 23.9357 25.8083 25.8284C24.9493 27.2069 23.9107 28.465 22.7197 29.5695C21.704 30.4613 20.8447 31.6453 20.8152 32.1975C20.579 36.3373 19.5514 48.4465 19.392 48.9396C19.0967 49.8402 18.0485 49.6808 16.1882 48.4495ZM34.0229 44.9593C31.7552 43.9701 28.64 40.1316 27.9402 37.4682C27.202 34.6453 27.2492 23.0026 28.0081 19.979C28.3034 18.7979 28.8024 17.8353 29.1095 17.8353C30.0426 17.8353 33.2493 20.2211 33.8752 21.3816C34.2237 22.0223 34.5042 24.854 34.5603 28.2703C34.643 33.2723 34.7758 34.1404 35.5258 34.5597C36.1872 34.9318 36.5534 34.8343 37.0494 34.1552C37.4097 33.6621 37.705 32.918 37.7079 32.5016C37.7109 32.0853 38.2601 30.0302 38.9274 27.9396C39.5947 25.852 40.1646 23.106 40.1912 21.8422C40.2945 16.9849 41.3634 15.8983 43.9205 18.0508C46.9087 20.5636 47.0652 26.2388 44.452 37.3501C43.4126 41.7851 42.3703 43.3028 39.3142 44.853C37.4422 45.7979 36.0189 45.8274 34.0199 44.9593H34.0229ZM50.7886 43.9229C48.1843 42.5646 47.703 41.5814 48.3615 38.9623C49.8231 33.1512 50.1065 26.2447 49.1292 20.3304C48.8162 18.4317 48.9077 18.0951 49.9471 17.2949C50.5908 16.7989 51.5859 16.3884 52.1558 16.3825C53.5377 16.3678 56.7296 19.8904 58.1144 22.9583C60.1371 27.4465 60.8723 28.7251 61.3064 28.5243C61.5426 28.415 61.7936 25.0282 61.8644 21.0006C61.9766 14.543 62.1184 13.4327 63.0692 11.6109C63.6597 10.4711 64.4511 9.54395 64.8201 9.54395C65.1922 9.54395 66.1016 10.4741 66.8398 11.6168C67.578 12.7595 68.3871 13.8314 68.6322 14.0085C68.8772 14.1857 68.9953 16.7103 68.8949 19.6188C68.7894 22.7633 68.75 25.9096 68.7768 29.0558C69.0131 42.7536 68.9363 43.5331 67.2945 44.1562C65.7384 44.7467 63.2847 43.5479 60.3319 40.7546C58.9176 39.4199 57.5711 38.3274 57.3349 38.3274C57.0987 38.3274 56.514 39.5883 56.0327 41.1326C54.6243 45.6385 54.3556 45.7802 50.7886 43.9229ZM76.9766 39.7123C72.4294 37.2497 70.8851 34.9967 70.519 30.293C70.2266 26.5548 71.8182 19.9199 73.5485 17.6522C74.2276 16.7634 74.7798 15.792 74.7798 15.4967C74.7798 15.1985 75.7542 14.2861 76.9412 13.4682C79.7168 11.5607 82.2857 11.478 84.8457 13.2142C88.4363 15.6502 88.9589 17.5341 89.1095 28.5686C89.1686 32.8353 89.0623 33.3904 87.7955 35.5459C87.0367 36.8363 85.9294 38.0735 85.3359 38.3008C84.7394 38.5282 83.9835 39.0361 83.6558 39.4318C82.9383 40.2969 78.4058 40.4888 76.9766 39.7123ZM81.8133 27.919C83.4314 24.6768 83.2158 22.5981 81.2316 22.3146C80.3516 22.1877 79.9678 22.5656 79.2296 24.2841C77.8536 27.4967 77.5259 29.4692 78.2286 30.3166C79.2768 31.5774 80.3398 30.8658 81.8133 27.919Z" fill="white"/>
</g>
<defs>
<clipPath id="clip0_1085_4939">
<rect width="100" height="100" fill="white"/>
</clipPath>
</defs>
</svg>
