<svg width="100" height="100" viewBox="0 0 100 100" fill="none" xmlns="http://www.w3.org/2000/svg">
<g clip-path="url(#clip0_867_22803)">
<path fill-rule="evenodd" clip-rule="evenodd" d="M6.25 9.375C6.25 7.6491 7.6491 6.25 9.375 6.25H89.3306L78.3931 17.1875H23.4375C19.9857 17.1875 17.1875 19.9857 17.1875 23.4375V62.5H23.4375V23.4375H72.1431L61.2056 34.375H39.0625C36.4737 34.375 34.375 36.4737 34.375 39.0625V46.875H40.625V40.625H54.9556L3.58265 91.9979C0.629692 94.9507 2.72109 100 6.89721 100H90.625C95.8028 100 100 95.8028 100 90.625V21.875H93.75V90.625C93.75 92.3507 92.3507 93.75 90.625 93.75H10.6694L21.6069 82.8125H76.5625C80.0146 82.8125 82.8125 80.0146 82.8125 76.5625V37.5H76.5625V76.5625H27.8569L38.5991 65.8203H60.9375C63.5263 65.8203 65.625 63.7217 65.625 61.1328V53.125H59.375V59.5703H44.8491L96.4174 8.00208C99.3701 5.04912 97.2792 0 93.1028 0H9.375C4.19733 0 0 4.19733 0 9.375V78.125H6.25V9.375Z" fill="#084CCF"/>
</g>
<defs>
<clipPath id="clip0_867_22803">
<rect width="100" height="100" fill="white"/>
</clipPath>
</defs>
</svg>
