<svg width="100" height="100" viewBox="0 0 100 100" fill="none" xmlns="http://www.w3.org/2000/svg">
<g clip-path="url(#clip0_1085_4945)">
<path d="M41.6484 63.5388C35.0211 63.5622 28.3937 63.6528 21.7664 63.6528H20.8133C29.9703 50.795 39.0008 38.6231 48.0945 26.1591C47.7859 26.1388 47.6383 26.07 47.4883 26.07C33.143 26.0685 18.7992 26.0466 4.45391 26.0356C3.95 26.0356 3.77734 26.1528 3.78125 26.6841C3.80625 29.6489 3.79375 32.6075 3.79375 35.5724C3.79375 36.4177 3.79453 36.4161 4.65078 36.4161H26.4297C26.7148 36.4161 27.0023 36.4552 27.4398 36.4864L0 73.9239L0.46875 73.9505C14.2477 73.9505 28.0258 73.9474 41.8047 73.9638C42.3672 73.9638 42.443 73.7372 42.4398 73.2685C42.4258 70.2606 42.4164 67.3013 42.4477 64.2927C42.4531 63.6677 42.2812 63.5364 41.6484 63.5388ZM99.2148 26.6716C86.2195 26.6731 73.2227 26.656 60.2266 26.6974C58.7709 26.7026 57.3215 26.8871 55.9109 27.2466C50.8953 28.5356 46.882 33.9786 47.0789 39.1841C47.0992 39.756 47.4328 39.5442 47.7773 39.5442H67.7289C71.0875 39.5442 74.4445 39.6896 77.8031 39.6692C81.4633 39.6474 85.1312 39.795 88.7812 39.5778C92.5602 39.3536 95.5781 37.6028 97.6625 34.3731C99.0625 32.2013 99.6828 29.7903 99.9898 27.2583C100.073 26.5653 99.6305 26.6716 99.2148 26.6716ZM79.3875 43.656C72.8063 43.6536 66.2242 43.6489 59.643 43.6583C57.5227 43.6606 55.4805 44.0739 53.6125 45.0958C49.2703 47.4771 47.6008 51.4622 47.0883 56.1247C47.0219 56.7403 47.393 56.7231 47.8148 56.7224C51.2805 56.7169 54.7445 56.7192 58.2109 56.7192C59.3875 56.7192 60.5648 56.7356 61.7414 56.7161C64.3313 56.6724 66.9359 56.7708 69.5039 56.5177C72.8445 56.1864 75.5602 54.5591 77.4914 51.7622C79.0094 49.5638 79.7688 47.0919 80.0328 44.4474C80.1102 43.6716 80.1406 43.656 79.3875 43.656ZM66.2008 60.5646C64.1977 60.5771 62.193 60.545 60.1898 60.581C59.2565 60.597 58.3254 60.6774 57.4031 60.8216C50.2055 61.9435 47.5187 67.9669 47.0891 73.106C47.05 73.5661 47.2148 73.7185 47.675 73.7091C48.8719 73.6841 50.0703 73.7005 51.2687 73.7005L51.2727 73.7661C52.9008 73.6942 54.5461 73.7372 56.157 73.5294C62.2086 72.7505 66.8289 67.2903 66.7828 61.1044C66.7773 60.6435 66.5984 60.5622 66.2008 60.5646Z" fill="#68B604"/>
</g>
<defs>
<clipPath id="clip0_1085_4945">
<rect width="100" height="100" fill="white"/>
</clipPath>
</defs>
</svg>
