<svg width="100" height="100" viewBox="0 0 100 100" fill="none" xmlns="http://www.w3.org/2000/svg">
<g clip-path="url(#clip0_867_13709)">
<path d="M49.9624 97.93C49.8268 97.9277 49.6922 97.9529 49.5667 98.0042C49.4412 98.0555 49.3274 98.1319 49.2323 98.2285C49.1372 98.3252 49.0628 98.4401 49.0135 98.5665C48.9642 98.6928 48.9412 98.8278 48.9457 98.9633C48.9406 99.0992 48.9632 99.2347 49.0122 99.3615C49.0612 99.4883 49.1356 99.6038 49.2307 99.7009C49.3259 99.798 49.4398 99.8746 49.5656 99.9262C49.6914 99.9778 49.8264 100.003 49.9624 100.001C50.0986 100.004 50.2341 99.9788 50.3604 99.9275C50.4866 99.8762 50.6011 99.7996 50.6967 99.7024C50.7923 99.6052 50.867 99.4896 50.9163 99.3625C50.9656 99.2354 50.9883 99.0995 50.9832 98.9633C50.9916 98.7069 50.9011 98.4572 50.7305 98.2656C50.5599 98.0741 50.3222 97.9554 50.0665 97.9342L49.9624 97.93ZM40.2957 22.355C42.0803 22.9266 43.565 24.1834 44.4236 25.849C45.2822 27.5147 45.4445 29.4531 44.8749 31.2383L44.579 31.955L44.5124 32.1217L44.4374 32.3466C44.1457 33.0133 44.004 33.68 44.004 34.4216C43.8582 37.38 45.9624 39.7508 48.9457 39.8966H50.4707C55.9249 40.1175 60.2124 44.7841 59.9957 50.4091C59.779 55.9591 55.1957 60.3258 49.6707 60.105H48.9457C45.9665 60.18 43.6374 62.7716 43.7832 65.805C43.7832 66.3216 43.8582 66.7633 44.004 67.2092C44.8749 68.7633 46.254 69.9508 48.004 70.5425C51.129 71.5008 54.3249 70.0217 55.9207 67.2842L55.9957 67.1383C57.6707 64.4717 60.8707 63.1383 63.9957 64.1758C67.554 65.3592 69.7374 69.2842 68.5749 73.205C68.3089 74.0752 67.8739 74.8844 67.2948 75.5863C66.7157 76.2883 66.0038 76.8691 65.2 77.2956C64.3962 77.7221 63.5161 77.9858 62.6103 78.0718C61.7044 78.1578 60.7904 78.0643 59.9207 77.7967C58.3563 77.2759 57.0208 76.229 56.1415 74.8342L56.0707 74.6883C55.2374 73.3425 54.1415 72.2717 52.5249 71.7258L52.2915 71.6508C50.7845 71.1451 49.1486 71.1786 47.6635 71.7456C46.1784 72.3126 44.9364 73.3778 44.1499 74.7591C43.665 75.5632 43.0215 76.26 42.2586 76.8073C41.4957 77.3546 40.6294 77.7408 39.7124 77.9425C37.9072 78.3292 36.0223 77.9858 34.4694 76.9873C32.9166 75.9887 31.8221 74.4163 31.4249 72.6133C30.554 68.8383 32.8082 64.9883 36.6624 64.1008C37.0677 64.0117 37.4808 63.9628 37.8957 63.955H37.9707C40.804 63.6591 42.7665 61.3633 42.6207 58.4008C42.5857 57.3681 42.2577 56.3666 41.6749 55.5133C40.6037 53.7567 40.0733 51.7235 40.1499 49.6675C40.198 47.8834 40.7247 46.145 41.6749 44.6341C42.2582 43.8216 42.5499 42.7841 42.6207 41.7467C42.6957 38.7883 40.5124 36.4925 37.679 36.1967L37.3874 36.1216C36.9628 36.0694 36.5451 35.9716 36.1415 35.83L35.9332 35.7508C34.2076 35.1324 32.789 33.8691 31.9754 32.2265C31.1619 30.5839 31.0168 28.6898 31.5707 26.9425C32.1261 25.1818 33.3546 23.7117 34.9888 22.8525C36.6229 21.9933 38.5303 21.8145 40.2957 22.355ZM17.0665 64.48C18.1499 63.38 19.729 62.9508 21.2082 63.355C22.6874 63.755 23.8457 64.9342 24.2415 66.4383C24.6374 67.9466 24.2124 69.555 23.129 70.6592C21.454 72.3675 18.7415 72.3675 17.0665 70.6592C16.2617 69.8329 15.8114 68.7251 15.8114 67.5716C15.8114 66.4182 16.2617 65.3062 17.0665 64.48ZM78.9207 63.255C80.4165 62.88 81.9957 63.355 83.054 64.4925C84.1124 65.6341 84.4874 67.2633 84.0415 68.7633C83.5957 70.2633 82.3915 71.405 80.8915 71.755C78.5957 72.2883 76.3082 70.8383 75.7665 68.5008C75.5006 67.387 75.682 66.2134 76.2717 65.2318C76.8615 64.2503 77.8125 63.5432 78.9207 63.255ZM78.654 44.9633C79.9624 46.2966 80.6957 48.1008 80.6957 49.9883C80.6957 51.8716 79.9624 53.68 78.654 55.0133C77.3415 56.3466 75.5707 57.0966 73.7165 57.0966C71.8665 57.0966 70.0915 56.3466 68.7832 55.0133C67.472 53.6693 66.738 51.866 66.738 49.9883C66.738 48.1106 67.472 46.3073 68.7832 44.9633C69.4253 44.3045 70.1928 43.7809 71.0404 43.4234C71.888 43.0659 72.7987 42.8817 73.7186 42.8817C74.6385 42.8817 75.5492 43.0659 76.3968 43.4234C77.2445 43.7809 78.0119 44.3045 78.654 44.9633ZM31.8082 45.6425C33.3249 47.6592 33.6707 50.3425 32.7165 52.6883C32.3769 53.5444 31.8702 54.3244 31.226 54.9826C30.5818 55.6409 29.813 56.1642 28.9643 56.5222C28.1157 56.8802 27.2043 57.0656 26.2833 57.0677C25.3623 57.0697 24.4501 56.8884 23.5999 56.5341C20.0374 55.0341 18.3499 50.8758 19.8207 47.2508C20.281 46.1053 21.036 45.1018 22.0093 44.3422C22.9825 43.5827 24.1393 43.094 25.3624 42.9258C27.8332 42.5925 30.2915 43.63 31.8082 45.6425ZM79.9124 28.055C81.4457 28.055 82.8624 28.8883 83.629 30.2383C84.3957 31.5883 84.3957 33.255 83.629 34.605C83.2585 35.2655 82.7191 35.8158 82.066 36.1994C81.413 36.583 80.6697 36.7862 79.9124 36.7883C77.5457 36.7883 75.6207 34.83 75.6207 32.4216C75.6207 30.0092 77.5457 28.055 79.9124 28.055ZM20.0874 28.055C21.6207 28.055 23.0332 28.8883 23.7999 30.2383C24.5665 31.5883 24.5665 33.255 23.7999 34.605C23.4296 35.2649 22.8909 35.8147 22.2386 36.1983C21.5864 36.5819 20.844 36.7855 20.0874 36.7883C17.7165 36.7883 15.7957 34.83 15.7957 32.4216C15.7957 30.0092 17.7165 28.055 20.0874 28.055ZM61.8832 21.9092C65.7374 21.9092 68.8624 25.0925 68.8624 29.0175C68.8624 32.9425 65.7374 36.1216 61.8832 36.1216C58.029 36.1216 54.9082 32.9425 54.9082 29.0175C54.9082 25.0925 58.0332 21.9092 61.8832 21.9092ZM50.9415 19.0592C52.4499 18.7175 53.6624 17.5758 54.1124 16.0675C54.3347 15.329 54.3601 14.5453 54.1861 13.7939C54.0122 13.0426 53.6449 12.3498 53.1207 11.7842C52.6028 11.2259 51.9441 10.8176 51.2138 10.602C50.4836 10.3865 49.7087 10.3716 48.9707 10.5592C46.6915 11.1425 45.2999 13.4758 45.8374 15.7967C46.379 18.1217 48.6499 19.5758 50.9415 19.0592ZM50.9415 89.3758C52.4374 89.0133 53.6249 87.8758 54.0665 86.3758C54.2824 85.6431 54.3049 84.8669 54.1319 84.1229C53.9588 83.3788 53.5961 82.6923 53.079 82.13C52.5682 81.5749 51.9187 81.166 51.1973 80.9456C50.4758 80.7251 49.7087 80.701 48.9749 80.8758C48.2283 81.0476 47.5409 81.4148 46.983 81.9398C46.425 82.4647 46.0167 83.1286 45.7999 83.8633C45.3499 85.3675 45.729 87.005 46.7957 88.1467C47.8165 89.2425 49.3207 89.7175 50.7665 89.4175L50.9457 89.3758H50.9415ZM71.6249 14.5842C71.9723 14.5825 72.3159 14.5121 72.6359 14.3769C72.9559 14.2417 73.2459 14.0444 73.4892 13.7964C73.7326 13.5485 73.9243 13.2548 74.0534 12.9323C74.1826 12.6097 74.2465 12.2648 74.2415 11.9175C74.2415 10.4383 73.079 9.25082 71.6249 9.25082C71.2775 9.25243 70.9338 9.32288 70.6138 9.45809C70.2938 9.59329 70.0038 9.79057 69.7605 10.0385C69.5172 10.2865 69.3254 10.5802 69.1963 10.9027C69.0672 11.2252 69.0032 11.5701 69.0082 11.9175C69.0082 13.3967 70.1749 14.5842 71.6249 14.5842ZM28.3749 14.5842C28.7223 14.5825 29.0659 14.5121 29.3859 14.3769C29.7059 14.2417 29.9959 14.0444 30.2392 13.7964C30.4825 13.5485 30.6743 13.2548 30.8034 12.9323C30.9326 12.6097 30.9965 12.2648 30.9915 11.9175C30.9915 10.4383 29.8249 9.25082 28.3749 9.25082C28.0275 9.25243 27.6838 9.32288 27.3638 9.45809C27.0438 9.59329 26.7538 9.79057 26.5105 10.0385C26.2672 10.2865 26.0754 10.5802 25.9463 10.9027C25.8172 11.2252 25.7532 11.5701 25.7582 11.9175C25.7582 13.3967 26.9207 14.5842 28.3749 14.5842ZM6.78319 47.3008C6.4358 47.3024 6.09217 47.3729 5.77217 47.5081C5.45216 47.6433 5.16212 47.8406 4.91881 48.0885C4.6755 48.3365 4.48375 48.6302 4.35462 48.9527C4.2255 49.2752 4.16157 49.6201 4.16653 49.9675C4.16653 51.4425 5.33319 52.63 6.78319 52.63C7.46024 52.6272 8.11005 52.363 8.59688 51.8925C9.08371 51.422 9.36991 50.7815 9.39569 50.105L9.39986 49.9633C9.41116 49.6143 9.35158 49.2666 9.22472 48.9413C9.09786 48.6159 8.90635 48.3197 8.66178 48.0704C8.4172 47.8212 8.12463 47.6241 7.80175 47.4911C7.47886 47.3581 7.13236 47.292 6.78319 47.2966V47.3008ZM28.3749 85.3425C28.0275 85.3441 27.6838 85.4146 27.3638 85.5498C27.0438 85.685 26.7538 85.8822 26.5105 86.1302C26.2672 86.3782 26.0754 86.6719 25.9463 86.9944C25.8172 87.3169 25.7532 87.6618 25.7582 88.0091C25.7582 89.4883 26.9207 90.6758 28.3749 90.6758C28.7223 90.6742 29.0659 90.6038 29.3859 90.4686C29.7059 90.3333 29.9959 90.1361 30.2392 89.8881C30.4825 89.6401 30.6743 89.3464 30.8034 89.0239C30.9326 88.7014 30.9965 88.3565 30.9915 88.0091C30.9915 86.53 29.8249 85.3425 28.3749 85.3425ZM71.6249 85.4175C71.2775 85.4191 70.9338 85.4895 70.6138 85.6247C70.2938 85.76 70.0038 85.9572 69.7605 86.2052C69.5172 86.4532 69.3254 86.7469 69.1963 87.0694C69.0672 87.3919 69.0032 87.7368 69.0082 88.0842C69.0082 89.5633 70.1749 90.7508 71.6249 90.7508C71.9723 90.7492 72.3159 90.6787 72.6359 90.5435C72.9559 90.4083 73.2459 90.2111 73.4892 89.9631C73.7326 89.7151 73.9243 89.4214 74.0534 89.0989C74.1826 88.7764 74.2465 88.4315 74.2415 88.0842C74.2415 86.605 73.079 85.4175 71.6249 85.4175ZM93.2165 47.3008C92.8691 47.3024 92.5255 47.3729 92.2055 47.5081C91.8855 47.6433 91.5955 47.8406 91.3521 48.0885C91.1088 48.3365 90.9171 48.6302 90.788 48.9527C90.6588 49.2752 90.5949 49.6201 90.5999 49.9675C90.5999 51.4425 91.7624 52.63 93.2165 52.63C93.5639 52.6284 93.9075 52.5579 94.2276 52.4227C94.5476 52.2875 94.8376 52.0902 95.0809 51.8423C95.3242 51.5943 95.516 51.3006 95.6451 50.9781C95.7742 50.6556 95.8382 50.3107 95.8332 49.9633C95.8332 48.4841 94.6665 47.2966 93.2165 47.2966V47.3008ZM91.6165 26.5008C91.7525 26.5032 91.8875 26.4778 92.0132 26.4262C92.139 26.3747 92.253 26.298 92.3481 26.2009C92.4433 26.1038 92.5176 25.9883 92.5667 25.8615C92.6157 25.7346 92.6383 25.5992 92.6332 25.4633C92.6383 25.3275 92.6157 25.192 92.5667 25.0652C92.5176 24.9384 92.4433 24.8229 92.3481 24.7258C92.253 24.6287 92.139 24.552 92.0132 24.5004C91.8875 24.4488 91.7525 24.4235 91.6165 24.4258C91.4806 24.4235 91.3456 24.4488 91.2198 24.5004C91.094 24.552 90.9801 24.6287 90.8849 24.7258C90.7898 24.8229 90.7154 24.9384 90.6664 25.0652C90.6174 25.192 90.5947 25.3275 90.5999 25.4633C90.5999 26.055 91.1082 26.5008 91.6165 26.5008ZM49.9624 2.07165C50.0983 2.07456 50.2334 2.04973 50.3594 1.99866C50.4853 1.9476 50.5996 1.87139 50.6951 1.77467C50.7907 1.67796 50.8655 1.56278 50.915 1.43617C50.9646 1.30957 50.9878 1.17419 50.9832 1.03832C50.9884 0.901745 50.9655 0.765561 50.916 0.638175C50.8664 0.510789 50.7913 0.394905 50.6953 0.29768C50.5992 0.200454 50.4843 0.123951 50.3575 0.072892C50.2307 0.0218336 50.0948 -0.00269562 49.9582 0.000819012C49.8223 -0.00154329 49.6873 0.0238375 49.5615 0.0754102C49.4357 0.126983 49.3217 0.203665 49.2266 0.300769C49.1314 0.397873 49.0571 0.51336 49.0081 0.640173C48.959 0.766986 48.9364 0.902461 48.9415 1.03832C48.9415 1.59249 49.3915 2.02165 49.8707 2.06749L49.9582 2.07165H49.9624ZM8.37903 26.5008C8.51531 26.5038 8.65075 26.4788 8.77703 26.4275C8.90332 26.3762 9.01778 26.2996 9.11338 26.2024C9.20899 26.1052 9.28371 25.9896 9.33298 25.8625C9.38224 25.7354 9.405 25.5995 9.39986 25.4633C9.40498 25.3275 9.38234 25.192 9.33333 25.0652C9.28432 24.9384 9.20997 24.8229 9.11481 24.7258C9.01966 24.6287 8.9057 24.552 8.77991 24.5004C8.65412 24.4488 8.51913 24.4235 8.38319 24.4258C8.24726 24.4235 8.11227 24.4488 7.98648 24.5004C7.86069 24.552 7.74673 24.6287 7.65158 24.7258C7.55642 24.8229 7.48207 24.9384 7.43306 25.0652C7.38405 25.192 7.36141 25.3275 7.36653 25.4633C7.36141 25.5992 7.38405 25.7346 7.43306 25.8615C7.48207 25.9883 7.55642 26.1038 7.65158 26.2009C7.74673 26.298 7.86069 26.3747 7.98648 26.4262C8.11227 26.4778 8.24726 26.5032 8.38319 26.5008H8.37903ZM8.37903 73.43C8.2438 73.4282 8.10963 73.4539 7.98461 73.5055C7.8596 73.557 7.74635 73.6334 7.6517 73.73C7.55705 73.8266 7.48298 73.9414 7.43397 74.0675C7.38495 74.1935 7.36201 74.3282 7.36653 74.4633C7.36141 74.5992 7.38405 74.7346 7.43306 74.8615C7.48207 74.9883 7.55642 75.1038 7.65158 75.2009C7.74673 75.298 7.86069 75.3747 7.98648 75.4262C8.11227 75.4778 8.24726 75.5032 8.38319 75.5008C8.51913 75.5032 8.65412 75.4778 8.77991 75.4262C8.9057 75.3747 9.01966 75.298 9.11481 75.2009C9.20997 75.1038 9.28432 74.9883 9.33333 74.8615C9.38234 74.7346 9.40498 74.5992 9.39986 74.4633C9.39571 74.1934 9.28777 73.9355 9.09846 73.7431C8.90914 73.5506 8.653 73.4385 8.38319 73.43H8.37903ZM91.6915 73.355C91.5556 73.3521 91.4205 73.3769 91.2945 73.428C91.1685 73.479 91.0543 73.5553 90.9587 73.652C90.8632 73.7487 90.7884 73.8639 90.7388 73.9905C90.6893 74.1171 90.6661 74.2524 90.6707 74.3883C90.665 74.5249 90.6873 74.6612 90.7363 74.7888C90.7853 74.9163 90.8599 75.0325 90.9556 75.1301C91.0513 75.2278 91.1659 75.3047 91.2925 75.3563C91.4191 75.4079 91.5549 75.433 91.6915 75.43C91.8278 75.4324 91.9632 75.4069 92.0893 75.355C92.2153 75.3032 92.3295 75.2262 92.4247 75.1286C92.5199 75.031 92.5942 74.9151 92.6429 74.7878C92.6917 74.6604 92.7139 74.5245 92.7082 74.3883C92.704 74.1184 92.5961 73.8605 92.4068 73.6681C92.2175 73.4756 91.9613 73.3635 91.6915 73.355Z" fill="#3859FF"/>
</g>
<defs>
<clipPath id="clip0_867_13709">
<rect width="100" height="100" fill="white"/>
</clipPath>
</defs>
</svg>
