<svg width="100" height="100" viewBox="0 0 100 100" fill="none" xmlns="http://www.w3.org/2000/svg">
<path d="M30.0659 18.6279L18.3002 33.0068L12.4182 23.8568L30.0659 18.6279Z" fill="#F7A41D"/>
<path d="M30.0656 18.6279L21.5688 25.8178L18.3008 33.0068H14.3789V66.3404H20.2617L13.0719 69.6084L7.84297 80.7193H0V18.6279H30.0656Z" fill="#F7A41D"/>
<path d="M20.2614 66.3404L7.84268 80.7193L2.61377 73.5303L20.2614 66.3404ZM36.6013 18.6279L40.5231 27.7787L24.1825 33.0068L36.6013 18.6279Z" fill="#F7A41D"/>
<path d="M36.6014 18.6279H72.549V33.0068H24.1826L36.6014 25.1646V18.6279ZM75.817 66.3404L63.3982 80.7193L58.8232 72.2232L75.817 66.3404Z" fill="#F7A41D"/>
<path d="M75.8171 66.3389L65.3593 72.2217L63.3983 80.7178H27.4507V66.3389H75.8171Z" fill="#F7A41D"/>
<path d="M98.0388 4.24805L33.9865 80.7184L1.96069 95.7512L66.013 18.627L98.0388 4.24805ZM92.156 18.627L91.5029 30.3926L79.738 33.6598L92.156 18.627Z" fill="#F7A41D"/>
<path d="M99.9998 18.6279V80.7193H69.281L78.431 72.8764L81.699 66.3404H85.6208V33.6607H79.738L86.274 27.7779L92.1568 18.6279H99.9998Z" fill="#F7A41D"/>
<path d="M81.699 66.3389L84.9669 76.1436L69.281 80.7178L81.699 66.3389Z" fill="#F7A41D"/>
</svg>
