<svg width="100" height="100" viewBox="0 0 100 100" fill="none" xmlns="http://www.w3.org/2000/svg">
<g clip-path="url(#clip0_867_19593)">
<path d="M86.6611 75.0762L85.4355 100H9.35761C8.05263 100 7 98.9479 7 97.6429V97.4987C7 96.1937 7.33165 94.9104 7.96611 93.7712C7.96611 93.7712 11.3331 87.7438 51.6936 15.7972C55.1976 9.54627 55.4355 4.4922 44.5631 4.4922C33.6907 4.4922 22.119 8.28455 17.7282 25.6386C17.4686 26.6768 16.5242 27.3977 15.4499 27.3977C14.1017 27.3977 13.0274 26.273 13.0995 24.9248L14.3252 0.000488281H84.7145C77.4686 3.32421 71.0807 7.55636 65.7022 12.6537C59.1269 18.8902 54.4549 25.6746 45.3922 39.5391C38.7231 49.7337 33.9358 58.2269 30.9726 63.6991C26.1709 72.5744 22.4001 80.4835 19.5523 86.8931C22.739 82.3941 27.9661 76.4461 36.0483 72.6249C40.0353 70.7359 43.1355 70.1158 44.7289 69.7121C46.4665 69.2651 48.3699 68.5657 50.4174 67.4843L41.0375 84.211C37.5335 90.4619 42.292 95.516 53.1644 95.516C64.0368 95.516 77.6417 91.7236 82.0324 74.3696C82.292 73.3314 83.2365 72.6104 84.3108 72.6104C85.659 72.6104 86.7332 73.7352 86.6611 75.0834V75.0762ZM23.0274 81.0964C22.6741 80.7647 30.0497 68.7676 30.8284 67.5131C34.6424 61.3776 37.6633 56.6696 39.1629 54.3768C42.5371 49.2074 46.9495 42.459 52.6092 34.7013C60.1074 24.4201 63.8709 19.2867 68.2401 15.1555C72.9409 10.707 80.6554 4.65802 92.5083 0.0149079C91.2682 1.19011 89.4946 2.99256 87.6273 5.40063C80.9582 13.9659 79.2206 22.2067 77.8724 26.7633C72.9337 43.4179 57.7138 62.8772 44.0151 66.9724C42.4146 67.4482 34.5415 69.6833 30.1002 73.8505C27.2668 76.5109 25.212 78.8325 24.3828 79.8779C23.8061 80.5989 23.2581 81.3055 23.0346 81.0964H23.0274Z" fill="black"/>
</g>
<defs>
<clipPath id="clip0_867_19593">
<rect width="100" height="100" fill="white"/>
</clipPath>
</defs>
</svg>
