<svg width="100" height="100" viewBox="0 0 100 100" fill="none" xmlns="http://www.w3.org/2000/svg">
<path d="M26.5009 30.3256C26.2659 30.3462 26.0487 30.4591 25.8969 30.6396L9.38132 50.3091C9.22995 50.4899 9.15646 50.7234 9.17696 50.9583C9.19746 51.1932 9.31029 51.4104 9.4907 51.5623C9.67146 51.7134 9.90474 51.7868 10.1395 51.7663C10.3742 51.7458 10.5912 51.6331 10.743 51.4529L27.2587 31.7834C27.41 31.6026 27.4835 31.3691 27.463 31.1342C27.4425 30.8993 27.3297 30.6821 27.1493 30.5302C26.9687 30.3789 26.7356 30.3053 26.5009 30.3256ZM14.2509 30.824C11.618 30.824 9.45398 32.9881 9.45398 35.6216C9.45398 38.2552 11.618 40.4201 14.2509 40.4201C16.8852 40.4201 19.0493 38.2552 19.0493 35.6216C19.0493 32.9888 16.8852 30.824 14.2516 30.824H14.2509ZM14.2509 33.6021C15.3837 33.6021 16.2719 34.4896 16.2719 35.6216C16.2719 36.7537 15.3837 37.642 14.2516 37.642C13.9856 37.6447 13.7216 37.5943 13.4753 37.4937C13.229 37.3931 13.0052 37.2444 12.817 37.0563C12.6289 36.8681 12.4801 36.6443 12.3796 36.398C12.279 36.1516 12.2286 35.8877 12.2313 35.6216C12.2287 35.3556 12.2792 35.0918 12.3798 34.8455C12.4804 34.5993 12.6292 34.3756 12.8173 34.1875C13.0054 33.9995 13.2292 33.8508 13.4755 33.7503C13.7218 33.6498 13.9856 33.5994 14.2516 33.6021H14.2509ZM22.3321 41.6826C19.6993 41.6826 17.5345 43.8466 17.5345 46.4802C17.5345 49.1138 19.6985 51.2779 22.3321 51.2779C24.9657 51.2779 27.1305 49.1138 27.1305 46.481C27.1305 43.8466 24.9657 41.6826 22.3321 41.6826ZM22.3321 44.4599C22.5982 44.4572 22.8621 44.5076 23.1084 44.6082C23.3548 44.7088 23.5786 44.8575 23.7667 45.0456C23.9549 45.2338 24.1036 45.4576 24.2042 45.7039C24.3047 45.9502 24.3551 46.2142 24.3524 46.4802C24.3551 46.7463 24.3047 47.0102 24.2042 47.2566C24.1036 47.5029 23.9549 47.7267 23.7667 47.9149C23.5786 48.103 23.3548 48.2517 23.1084 48.3523C22.8621 48.4529 22.5982 48.5033 22.3321 48.5006C22.0661 48.5032 21.8023 48.4527 21.556 48.3521C21.3098 48.2515 21.086 48.1027 20.898 47.9146C20.7099 47.7265 20.5613 47.5027 20.4608 47.2564C20.3602 47.0101 20.3099 46.7462 20.3126 46.4802C20.3099 46.2142 20.3602 45.9504 20.4608 45.7041C20.5613 45.4578 20.7099 45.234 20.898 45.0459C21.086 44.8578 21.3098 44.709 21.556 44.6084C21.8023 44.5078 22.0661 44.4573 22.3321 44.4599ZM33.4102 49.499C33.1744 49.4994 32.9484 49.5933 32.7818 49.7601C32.6151 49.9269 32.5214 50.153 32.5212 50.3888C32.5216 50.6245 32.6154 50.8504 32.782 51.017C32.9487 51.1837 33.1746 51.2775 33.4102 51.2779H45.204C45.4398 51.2777 45.6659 51.184 45.8327 51.0173C45.9995 50.8506 46.0934 50.6246 46.0938 50.3888C46.0934 50.1532 45.9996 49.9273 45.833 49.7606C45.6663 49.594 45.4404 49.5002 45.2048 49.4998L33.4102 49.499Z" fill="#F15A24"/>
<path d="M15.0492 2.98682C6.76797 2.98682 0 9.75478 0 18.036V81.9204C0 90.2017 6.76797 96.9696 15.0492 96.9696H49.3898C50.0612 96.9696 50.705 96.7029 51.1797 96.2282C51.6544 95.7535 51.9211 95.1097 51.9211 94.4384C51.9209 93.7672 51.6541 93.1236 51.1794 92.649C50.7048 92.1745 50.061 91.9079 49.3898 91.9079H15.0492C13.7362 91.913 12.4352 91.6581 11.2212 91.158C10.0072 90.6578 8.90414 89.9224 7.9757 88.9939C7.04727 88.0655 6.31179 86.9625 5.81166 85.7484C5.31154 84.5344 5.05666 83.2334 5.06172 81.9204V25.4681H94.9375V78.9603C94.9118 79.0139 94.8775 79.063 94.8359 79.1056C94.7309 79.2102 94.5889 79.2692 94.4406 79.2696H91.343C91.2694 79.2703 91.1965 79.2561 91.1286 79.2279C91.0607 79.1997 90.9991 79.1581 90.9477 79.1056C90.843 79.0006 90.7841 78.8585 90.7836 78.7103V69.3509C90.784 69.022 90.7194 68.6962 90.5937 68.3923C90.4679 68.0884 90.2834 67.8123 90.0508 67.5798C89.8183 67.3468 89.5421 67.1619 89.2381 67.0359C88.934 66.9099 88.6081 66.8451 88.2789 66.8454C87.9499 66.8452 87.6241 66.91 87.3202 67.0361C87.0162 67.1621 86.7402 67.3468 86.5078 67.5798C86.2749 67.8121 86.0901 68.0882 85.9641 68.3921C85.8381 68.6961 85.7733 69.0219 85.7734 69.3509L85.775 69.379L85.7734 69.4079V94.5095C85.7734 95.1735 86.0375 95.811 86.5078 96.2806C86.7402 96.5135 87.0162 96.6983 87.3202 96.8243C87.6241 96.9503 87.9499 97.0151 88.2789 97.0149C88.6081 97.0152 88.934 96.9505 89.2381 96.8244C89.5421 96.6984 89.8183 96.5136 90.0508 96.2806C90.2834 96.0481 90.4679 95.7719 90.5937 95.468C90.7194 95.1641 90.784 94.8384 90.7836 94.5095V84.5602C90.7836 84.4118 90.843 84.2704 90.9477 84.1657C91.0527 84.0611 91.1947 84.0021 91.343 84.0017H94.4406C94.5891 84.0017 94.7312 84.061 94.8359 84.1657C94.8775 84.2083 94.9118 84.2574 94.9375 84.311V94.4391L94.9633 94.5345C94.9656 94.7423 94.9898 94.9509 95.0437 95.1532C95.1375 95.5063 95.3078 95.8345 95.5437 96.1149C95.7793 96.3952 96.0734 96.6203 96.4055 96.7743C96.7375 96.9282 97.0992 97.0071 97.4648 97.0056L97.475 97.0048H97.4852C97.8109 97.0048 98.1344 96.9415 98.4359 96.8165C98.7373 96.6912 99.0112 96.508 99.2422 96.2774C99.4728 96.0464 99.6559 95.7726 99.7812 95.4712L99.7984 95.4227L99.8203 95.3602C99.8497 95.2802 99.8748 95.1985 99.8953 95.1157C99.9608 94.896 99.9958 94.6684 99.9992 94.4391V18.036C99.9992 9.75478 93.232 2.98682 84.9508 2.98682H15.0492ZM15.0492 8.04932H84.9516C86.2644 8.04436 87.5653 8.29929 88.7792 8.79941C89.993 9.29953 91.0959 10.035 92.0243 10.9633C92.9526 11.8916 93.6881 12.9945 94.1882 14.2084C94.6883 15.4223 94.9432 16.7232 94.9383 18.036V20.4063H5.0625V18.036C5.05744 16.723 5.31232 15.422 5.81244 14.208C6.31257 12.994 7.04805 11.891 7.97649 10.9625C8.90492 10.0341 10.0079 9.2986 11.222 8.79848C12.436 8.29835 13.737 8.04347 15.05 8.04853L15.0492 8.04932ZM57.4477 66.8329C57.114 66.8327 56.7835 66.8983 56.4752 67.0259C56.1669 67.1535 55.8867 67.3407 55.6508 67.5767C55.4159 67.8132 55.2291 68.0932 55.1008 68.4009C54.9739 68.7095 54.9081 69.0398 54.907 69.3735C54.9068 69.7072 54.9724 70.0385 55.1001 70.3468C55.2277 70.6551 55.4148 70.9352 55.6508 71.1712C55.8861 71.4074 56.1664 71.5941 56.475 71.7204C56.7831 71.849 57.1138 71.9146 57.4477 71.9134C57.4872 71.9123 57.5263 71.9102 57.5648 71.9071H62.2445C62.2963 71.9069 62.3473 71.9195 62.393 71.9438C62.4382 71.9679 62.4769 72.0028 62.5055 72.0454C62.5344 72.088 62.5524 72.1371 62.5578 72.1884C62.5633 72.2396 62.5561 72.2914 62.5367 72.3392L55.107 90.8938C54.9754 91.2239 54.9076 91.576 54.907 91.9313V94.2071C54.907 94.9477 55.2016 95.6587 55.725 96.1821C56.2492 96.7057 56.9598 96.9999 57.7008 97.0001H66.4094C66.9245 97 67.428 96.8472 67.8563 96.561C68.2845 96.2748 68.6184 95.8681 68.8156 95.3923C68.9472 95.0767 69.0146 94.7381 69.0141 94.3962V94.3946C69.014 93.7032 68.7394 93.0401 68.2508 92.5509C67.7617 92.0627 67.0989 91.7885 66.4078 91.7884L66.3484 91.7915H60.4906C60.4414 91.7911 60.3929 91.779 60.3492 91.7563C60.3061 91.7327 60.2692 91.6993 60.2414 91.6587C60.2139 91.6178 60.1965 91.5709 60.1906 91.522C60.186 91.4731 60.193 91.4239 60.2109 91.3782L68.7781 70.0157C68.919 69.6645 68.9716 69.2841 68.9313 68.9079C68.8913 68.5321 68.7598 68.1719 68.5484 67.8587C68.3366 67.5451 68.051 67.2883 67.7167 67.1108C67.3824 66.9333 67.0097 66.8406 66.6312 66.8407H57.6008C57.5503 66.8366 57.4992 66.8339 57.4477 66.8329ZM77.9109 66.9727C76.7211 66.9727 75.3594 67.0876 74.5398 67.3173C73.7982 67.4923 73.1232 67.8787 72.5969 68.4298C72.1208 68.9662 71.7771 69.6949 71.5656 70.6157C71.3547 71.5105 71.2492 72.6485 71.2492 74.0298C71.2492 75.3579 71.2622 76.4313 71.2883 77.2501C71.3227 77.9188 71.4023 78.586 71.5258 79.2438C71.6262 79.6794 71.8006 80.0946 72.0414 80.4712C72.2692 80.7961 72.5355 81.0922 72.8344 81.3532C73.2497 81.7182 73.7016 82.0395 74.1828 82.3118C74.7161 82.6213 75.258 82.9157 75.8078 83.1946C76.3635 83.4759 76.8924 83.7696 77.3945 84.0759C77.8676 84.3414 78.3067 84.6633 78.7023 85.0345C78.8591 85.2042 79.005 85.3838 79.1391 85.572C79.2352 85.6852 79.3102 85.8149 79.3602 85.9548C79.406 86.0798 79.4443 86.2074 79.475 86.3376C79.5182 86.5407 79.5385 86.7454 79.5359 86.9517C79.562 87.2589 79.575 87.6808 79.575 88.2173C79.5866 88.9478 79.5469 89.6782 79.4563 90.4032C79.4304 90.8167 79.3226 91.2209 79.1391 91.5923C78.999 91.8335 78.7721 92.0121 78.5047 92.0915C78.2406 92.1681 77.3266 92.2056 76.9297 92.2056C76.609 92.2121 76.289 92.1737 75.9789 92.0915C75.7298 91.978 75.5219 91.7902 75.3836 91.554C75.2267 91.1864 75.12 90.7993 75.0664 90.4032C75.0072 89.767 74.9807 89.1281 74.9867 88.4892C74.9867 88.4183 74.9831 88.3472 74.9758 88.2759H74.9602C74.8866 87.7669 74.6316 87.3016 74.2422 86.9657C73.8517 86.6284 73.3528 86.4428 72.8367 86.4431C72.3208 86.4432 71.8222 86.629 71.432 86.9665C71.043 87.3023 70.7884 87.7673 70.7148 88.2759H70.7016C70.6937 88.354 70.6898 88.4325 70.6898 88.511L70.6906 88.5649V88.5806L70.6914 88.6071C70.6977 89.111 70.7055 89.5626 70.7055 89.7899C70.7055 91.2983 70.8112 92.5256 71.0227 93.472C71.2607 94.3918 71.6305 95.1201 72.132 95.6571C72.6537 96.1784 73.3148 96.5378 74.0359 96.6923C74.9573 96.9144 75.9032 97.0176 76.8508 96.9993C78.1203 96.9993 79.7602 96.8845 80.6063 96.654C81.4055 96.4545 82.1163 95.9964 82.6281 95.3509C83.1568 94.7118 83.5268 93.8298 83.7383 92.7048C83.9763 91.5537 84.0953 90.0837 84.0953 88.2946C84.0953 86.9905 84.0557 85.9423 83.9766 85.1501C83.953 84.4842 83.8327 83.8252 83.6195 83.1938C83.4646 82.7331 83.2067 82.3136 82.8656 81.9673C82.5201 81.6163 82.1344 81.3074 81.7164 81.047C81.3339 80.8051 80.9368 80.5873 80.5273 80.3946C80.0626 80.1305 79.5864 79.8873 79.1 79.6657C78.6181 79.421 78.142 79.1652 77.6719 78.8985C77.2731 78.6535 76.8893 78.3848 76.5227 78.0938C76.351 77.954 76.1916 77.7998 76.0461 77.6329C75.931 77.4581 75.8504 77.263 75.8086 77.0579C75.7481 76.7673 75.7085 76.4728 75.6898 76.1767V74.7188C75.6826 74.1673 75.7086 73.6175 75.768 73.0696C75.7995 72.7353 75.8941 72.4101 76.0469 72.111C76.1818 71.8979 76.395 71.7464 76.6406 71.6892C76.8789 71.6126 77.5406 71.5743 77.9109 71.5743C78.7568 71.5743 79.2854 71.8173 79.4969 72.3032C79.6647 72.6097 79.7594 72.9509 79.7734 73.3001C79.7812 73.5798 79.7859 73.9423 79.7867 74.3235H79.8023L79.8016 74.3384C79.8016 74.9056 80.0273 75.4485 80.4297 75.8493C80.8334 76.2504 81.3793 76.4756 81.9484 76.4759C82.5174 76.4763 83.0633 76.2509 83.4664 75.8493C83.6656 75.6513 83.8236 75.4159 83.9316 75.1566C84.0395 74.8973 84.0951 74.6192 84.0953 74.3384V73.3001C84.1134 72.3084 84.0204 71.3179 83.818 70.347C83.6591 69.5293 83.3419 68.8774 82.8664 68.3915C82.4169 67.88 81.7828 67.522 80.9641 67.3173C80.1703 67.0876 79.1531 66.9727 77.9109 66.9727Z" fill="black"/>
</svg>
